<?xml version="1.0" encoding="UTF-8" standalone="no"?>
<!DOCTYPE svg PUBLIC "-//W3C//DTD SVG 1.1//EN"
 "http://www.w3.org/Graphics/SVG/1.1/DTD/svg11.dtd">
<!-- Generated by graphviz version 7.1.0 (20230121.1956)
 -->
<!-- Title: G Pages: 1 -->
<svg width="315pt" height="189pt"
 viewBox="0.00 0.00 315.20 189.20" xmlns="http://www.w3.org/2000/svg" xmlns:xlink="http://www.w3.org/1999/xlink">
<g id="graph0" class="graph" transform="scale(1 1) rotate(0) translate(21.6 167.6)">
<title>G</title>
<polygon fill="#111111" stroke="none" points="-21.6,21.6 -21.6,-167.6 293.6,-167.6 293.6,21.6 -21.6,21.6"/>
<!-- App.test.js -->
<g id="node1" class="node">
<title>App.test.js</title>
<path fill="none" stroke="#cfffac" d="M85.33,-23C85.33,-23 16.67,-23 16.67,-23 12.83,-23 9,-19.17 9,-15.33 9,-15.33 9,-7.67 9,-7.67 9,-3.83 12.83,0 16.67,0 16.67,0 85.33,0 85.33,0 89.17,0 93,-3.83 93,-7.67 93,-7.67 93,-15.33 93,-15.33 93,-19.17 89.17,-23 85.33,-23"/>
<text text-anchor="middle" x="51" y="-7.8" font-family="Arial" font-size="14.00" fill="#cfffac">App.test.js</text>
</g>
<!-- api.js -->
<g id="node2" class="node">
<title>api.js</title>
<path fill="none" stroke="#cfffac" d="M70.33,-64C70.33,-64 31.67,-64 31.67,-64 27.83,-64 24,-60.17 24,-56.33 24,-56.33 24,-48.67 24,-48.67 24,-44.83 27.83,-41 31.67,-41 31.67,-41 70.33,-41 70.33,-41 74.17,-41 78,-44.83 78,-48.67 78,-48.67 78,-56.33 78,-56.33 78,-60.17 74.17,-64 70.33,-64"/>
<text text-anchor="middle" x="51" y="-48.8" font-family="Arial" font-size="14.00" fill="#cfffac">api.js</text>
</g>
<!-- index.css -->
<g id="node3" class="node">
<title>index.css</title>
<path fill="none" stroke="#cfffac" d="M235.83,-125C235.83,-125 174.17,-125 174.17,-125 170.33,-125 166.5,-121.17 166.5,-117.33 166.5,-117.33 166.5,-109.67 166.5,-109.67 166.5,-105.83 170.33,-102 174.17,-102 174.17,-102 235.83,-102 235.83,-102 239.67,-102 243.5,-105.83 243.5,-109.67 243.5,-109.67 243.5,-117.33 243.5,-117.33 243.5,-121.17 239.67,-125 235.83,-125"/>
<text text-anchor="middle" x="205" y="-109.8" font-family="Arial" font-size="14.00" fill="#cfffac">index.css</text>
</g>
<!-- index.js -->
<g id="node4" class="node">
<title>index.js</title>
<path fill="none" stroke="#c6c5fe" d="M75.83,-105C75.83,-105 26.17,-105 26.17,-105 22.33,-105 18.5,-101.17 18.5,-97.33 18.5,-97.33 18.5,-89.67 18.5,-89.67 18.5,-85.83 22.33,-82 26.17,-82 26.17,-82 75.83,-82 75.83,-82 79.67,-82 83.5,-85.83 83.5,-89.67 83.5,-89.67 83.5,-97.33 83.5,-97.33 83.5,-101.17 79.67,-105 75.83,-105"/>
<text text-anchor="middle" x="51" y="-89.8" font-family="Arial" font-size="14.00" fill="#c6c5fe">index.js</text>
</g>
<!-- index.js&#45;&gt;index.css -->
<g id="edge1" class="edge">
<title>index.js&#45;&gt;index.css</title>
<path fill="none" stroke="#757575" d="M83.86,-97.69C104.51,-100.41 131.81,-104 155.17,-107.07"/>
<polygon fill="#757575" stroke="#757575" points="154.4,-110.5 164.77,-108.34 155.31,-103.56 154.4,-110.5"/>
</g>
<!-- reportWebVitals.js -->
<g id="node5" class="node">
<title>reportWebVitals.js</title>
<path fill="none" stroke="#cfffac" d="M264.33,-84C264.33,-84 145.67,-84 145.67,-84 141.83,-84 138,-80.17 138,-76.33 138,-76.33 138,-68.67 138,-68.67 138,-64.83 141.83,-61 145.67,-61 145.67,-61 264.33,-61 264.33,-61 268.17,-61 272,-64.83 272,-68.67 272,-68.67 272,-76.33 272,-76.33 272,-80.17 268.17,-84 264.33,-84"/>
<text text-anchor="middle" x="205" y="-68.8" font-family="Arial" font-size="14.00" fill="#cfffac">reportWebVitals.js</text>
</g>
<!-- index.js&#45;&gt;reportWebVitals.js -->
<g id="edge2" class="edge">
<title>index.js&#45;&gt;reportWebVitals.js</title>
<path fill="none" stroke="#757575" d="M83.86,-89.1C96.47,-87.36 111.56,-85.27 126.72,-83.18"/>
<polygon fill="#757575" stroke="#757575" points="126.81,-86.7 136.24,-81.86 125.85,-79.76 126.81,-86.7"/>
</g>
<!-- setupTests.js -->
<g id="node6" class="node">
<title>setupTests.js</title>
<path fill="none" stroke="#cfffac" d="M94.33,-146C94.33,-146 7.67,-146 7.67,-146 3.83,-146 0,-142.17 0,-138.33 0,-138.33 0,-130.67 0,-130.67 0,-126.83 3.83,-123 7.67,-123 7.67,-123 94.33,-123 94.33,-123 98.17,-123 102,-126.83 102,-130.67 102,-130.67 102,-138.33 102,-138.33 102,-142.17 98.17,-146 94.33,-146"/>
<text text-anchor="middle" x="51" y="-130.8" font-family="Arial" font-size="14.00" fill="#cfffac">setupTests.js</text>
</g>
</g>
</svg>
