<?xml version="1.0" encoding="UTF-8" standalone="no"?>
<!DOCTYPE svg PUBLIC "-//W3C//DTD SVG 1.1//EN"
 "http://www.w3.org/Graphics/SVG/1.1/DTD/svg11.dtd">
<!-- Generated by graphviz version 7.1.0 (20230121.1956)
 -->
<!-- Title: G Pages: 1 -->
<svg width="361pt" height="189pt"
 viewBox="0.00 0.00 361.20 189.20" xmlns="http://www.w3.org/2000/svg" xmlns:xlink="http://www.w3.org/1999/xlink">
<g id="graph0" class="graph" transform="scale(1 1) rotate(0) translate(21.6 167.6)">
<title>G</title>
<polygon fill="#111111" stroke="none" points="-21.6,21.6 -21.6,-167.6 339.6,-167.6 339.6,21.6 -21.6,21.6"/>
<!-- src/App.test.js -->
<g id="node1" class="node">
<title>src/App.test.js</title>
<path fill="none" stroke="#cfffac" d="M108.33,-23C108.33,-23 16.67,-23 16.67,-23 12.83,-23 9,-19.17 9,-15.33 9,-15.33 9,-7.67 9,-7.67 9,-3.83 12.83,0 16.67,0 16.67,0 108.33,0 108.33,0 112.17,0 116,-3.83 116,-7.67 116,-7.67 116,-15.33 116,-15.33 116,-19.17 112.17,-23 108.33,-23"/>
<text text-anchor="middle" x="62.5" y="-7.8" font-family="Arial" font-size="14.00" fill="#cfffac">src/App.test.js</text>
</g>
<!-- src/api.js -->
<g id="node2" class="node">
<title>src/api.js</title>
<path fill="none" stroke="#cfffac" d="M91.33,-64C91.33,-64 33.67,-64 33.67,-64 29.83,-64 26,-60.17 26,-56.33 26,-56.33 26,-48.67 26,-48.67 26,-44.83 29.83,-41 33.67,-41 33.67,-41 91.33,-41 91.33,-41 95.17,-41 99,-44.83 99,-48.67 99,-48.67 99,-56.33 99,-56.33 99,-60.17 95.17,-64 91.33,-64"/>
<text text-anchor="middle" x="62.5" y="-48.8" font-family="Arial" font-size="14.00" fill="#cfffac">src/api.js</text>
</g>
<!-- src/index.css -->
<g id="node3" class="node">
<title>src/index.css</title>
<path fill="none" stroke="#cfffac" d="M281.83,-125C281.83,-125 197.17,-125 197.17,-125 193.33,-125 189.5,-121.17 189.5,-117.33 189.5,-117.33 189.5,-109.67 189.5,-109.67 189.5,-105.83 193.33,-102 197.17,-102 197.17,-102 281.83,-102 281.83,-102 285.67,-102 289.5,-105.83 289.5,-109.67 289.5,-109.67 289.5,-117.33 289.5,-117.33 289.5,-121.17 285.67,-125 281.83,-125"/>
<text text-anchor="middle" x="239.5" y="-109.8" font-family="Arial" font-size="14.00" fill="#cfffac">src/index.css</text>
</g>
<!-- src/index.js -->
<g id="node4" class="node">
<title>src/index.js</title>
<path fill="none" stroke="#c6c5fe" d="M98.83,-105C98.83,-105 26.17,-105 26.17,-105 22.33,-105 18.5,-101.17 18.5,-97.33 18.5,-97.33 18.5,-89.67 18.5,-89.67 18.5,-85.83 22.33,-82 26.17,-82 26.17,-82 98.83,-82 98.83,-82 102.67,-82 106.5,-85.83 106.5,-89.67 106.5,-89.67 106.5,-97.33 106.5,-97.33 106.5,-101.17 102.67,-105 98.83,-105"/>
<text text-anchor="middle" x="62.5" y="-89.8" font-family="Arial" font-size="14.00" fill="#c6c5fe">src/index.js</text>
</g>
<!-- src/index.js&#45;&gt;src/index.css -->
<g id="edge1" class="edge">
<title>src/index.js&#45;&gt;src/index.css</title>
<path fill="none" stroke="#757575" d="M106.76,-98.44C128.24,-100.9 154.56,-103.91 178,-106.59"/>
<polygon fill="#757575" stroke="#757575" points="177.41,-110.04 187.75,-107.7 178.21,-103.09 177.41,-110.04"/>
</g>
<!-- src/reportWebVitals.js -->
<g id="node5" class="node">
<title>src/reportWebVitals.js</title>
<path fill="none" stroke="#cfffac" d="M310.33,-84C310.33,-84 168.67,-84 168.67,-84 164.83,-84 161,-80.17 161,-76.33 161,-76.33 161,-68.67 161,-68.67 161,-64.83 164.83,-61 168.67,-61 168.67,-61 310.33,-61 310.33,-61 314.17,-61 318,-64.83 318,-68.67 318,-68.67 318,-76.33 318,-76.33 318,-80.17 314.17,-84 310.33,-84"/>
<text text-anchor="middle" x="239.5" y="-68.8" font-family="Arial" font-size="14.00" fill="#cfffac">src/reportWebVitals.js</text>
</g>
<!-- src/index.js&#45;&gt;src/reportWebVitals.js -->
<g id="edge2" class="edge">
<title>src/index.js&#45;&gt;src/reportWebVitals.js</title>
<path fill="none" stroke="#757575" d="M106.76,-88.31C119.74,-86.75 134.49,-84.98 149.31,-83.2"/>
<polygon fill="#757575" stroke="#757575" points="149.61,-86.69 159.12,-82.03 148.77,-79.74 149.61,-86.69"/>
</g>
<!-- src/setupTests.js -->
<g id="node6" class="node">
<title>src/setupTests.js</title>
<path fill="none" stroke="#cfffac" d="M117.33,-146C117.33,-146 7.67,-146 7.67,-146 3.83,-146 0,-142.17 0,-138.33 0,-138.33 0,-130.67 0,-130.67 0,-126.83 3.83,-123 7.67,-123 7.67,-123 117.33,-123 117.33,-123 121.17,-123 125,-126.83 125,-130.67 125,-130.67 125,-138.33 125,-138.33 125,-142.17 121.17,-146 117.33,-146"/>
<text text-anchor="middle" x="62.5" y="-130.8" font-family="Arial" font-size="14.00" fill="#cfffac">src/setupTests.js</text>
</g>
</g>
</svg>
