<?xml version="1.0" encoding="UTF-8" standalone="no"?>
<!DOCTYPE svg PUBLIC "-//W3C//DTD SVG 1.1//EN"
 "http://www.w3.org/Graphics/SVG/1.1/DTD/svg11.dtd">
<!-- Generated by graphviz version 7.1.0 (20230121.1956)
 -->
<!-- Title: G Pages: 1 -->
<svg width="2327pt" height="945pt"
 viewBox="0.00 0.00 2327.20 945.20" xmlns="http://www.w3.org/2000/svg" xmlns:xlink="http://www.w3.org/1999/xlink">
<g id="graph0" class="graph" transform="scale(1 1) rotate(0) translate(21.6 923.6)">
<title>G</title>
<polygon fill="#111111" stroke="none" points="-21.6,21.6 -21.6,-923.6 2305.6,-923.6 2305.6,21.6 -21.6,21.6"/>
<!-- App.tsx -->
<g id="node1" class="node">
<title>App.tsx</title>
<path fill="none" stroke="#c6c5fe" d="M57.33,-565C57.33,-565 7.67,-565 7.67,-565 3.83,-565 0,-561.17 0,-557.33 0,-557.33 0,-549.67 0,-549.67 0,-545.83 3.83,-542 7.67,-542 7.67,-542 57.33,-542 57.33,-542 61.17,-542 65,-545.83 65,-549.67 65,-549.67 65,-557.33 65,-557.33 65,-561.17 61.17,-565 57.33,-565"/>
<text text-anchor="middle" x="32.5" y="-549.8" font-family="Arial" font-size="14.00" fill="#c6c5fe">App.tsx</text>
</g>
<!-- router/Router.tsx -->
<g id="node2" class="node">
<title>router/Router.tsx</title>
<path fill="none" stroke="#c6c5fe" d="M215.33,-565C215.33,-565 108.67,-565 108.67,-565 104.83,-565 101,-561.17 101,-557.33 101,-557.33 101,-549.67 101,-549.67 101,-545.83 104.83,-542 108.67,-542 108.67,-542 215.33,-542 215.33,-542 219.17,-542 223,-545.83 223,-549.67 223,-549.67 223,-557.33 223,-557.33 223,-561.17 219.17,-565 215.33,-565"/>
<text text-anchor="middle" x="162" y="-549.8" font-family="Arial" font-size="14.00" fill="#c6c5fe">router/Router.tsx</text>
</g>
<!-- App.tsx&#45;&gt;router/Router.tsx -->
<g id="edge1" class="edge">
<title>App.tsx&#45;&gt;router/Router.tsx</title>
<path fill="none" stroke="#757575" d="M65.34,-553.5C72.7,-553.5 80.81,-553.5 89.12,-553.5"/>
<polygon fill="#757575" stroke="#757575" points="88.99,-557 98.99,-553.5 88.99,-550 88.99,-557"/>
</g>
<!-- page/Dashboard.tsx -->
<g id="node32" class="node">
<title>page/Dashboard.tsx</title>
<path fill="none" stroke="#c6c5fe" d="M395.33,-565C395.33,-565 266.67,-565 266.67,-565 262.83,-565 259,-561.17 259,-557.33 259,-557.33 259,-549.67 259,-549.67 259,-545.83 262.83,-542 266.67,-542 266.67,-542 395.33,-542 395.33,-542 399.17,-542 403,-545.83 403,-549.67 403,-549.67 403,-557.33 403,-557.33 403,-561.17 399.17,-565 395.33,-565"/>
<text text-anchor="middle" x="331" y="-549.8" font-family="Arial" font-size="14.00" fill="#c6c5fe">page/Dashboard.tsx</text>
</g>
<!-- router/Router.tsx&#45;&gt;page/Dashboard.tsx -->
<g id="edge53" class="edge">
<title>router/Router.tsx&#45;&gt;page/Dashboard.tsx</title>
<path fill="none" stroke="#757575" d="M223.29,-553.5C231.1,-553.5 239.21,-553.5 247.3,-553.5"/>
<polygon fill="#757575" stroke="#757575" points="247.19,-557 257.19,-553.5 247.19,-550 247.19,-557"/>
</g>
<!-- api.js -->
<g id="node3" class="node">
<title>api.js</title>
<path fill="none" stroke="#cfffac" d="M1037.83,-303C1037.83,-303 999.17,-303 999.17,-303 995.33,-303 991.5,-299.17 991.5,-295.33 991.5,-295.33 991.5,-287.67 991.5,-287.67 991.5,-283.83 995.33,-280 999.17,-280 999.17,-280 1037.83,-280 1037.83,-280 1041.67,-280 1045.5,-283.83 1045.5,-287.67 1045.5,-287.67 1045.5,-295.33 1045.5,-295.33 1045.5,-299.17 1041.67,-303 1037.83,-303"/>
<text text-anchor="middle" x="1018.5" y="-287.8" font-family="Arial" font-size="14.00" fill="#cfffac">api.js</text>
</g>
<!-- asset/image/pause.png -->
<g id="node4" class="node">
<title>asset/image/pause.png</title>
<path fill="none" stroke="#cfffac" d="M1092.83,-748C1092.83,-748 944.17,-748 944.17,-748 940.33,-748 936.5,-744.17 936.5,-740.33 936.5,-740.33 936.5,-732.67 936.5,-732.67 936.5,-728.83 940.33,-725 944.17,-725 944.17,-725 1092.83,-725 1092.83,-725 1096.67,-725 1100.5,-728.83 1100.5,-732.67 1100.5,-732.67 1100.5,-740.33 1100.5,-740.33 1100.5,-744.17 1096.67,-748 1092.83,-748"/>
<text text-anchor="middle" x="1018.5" y="-732.8" font-family="Arial" font-size="14.00" fill="#cfffac">asset/image/pause.png</text>
</g>
<!-- asset/image/play.png -->
<g id="node5" class="node">
<title>asset/image/play.png</title>
<path fill="none" stroke="#cfffac" d="M1086.33,-707C1086.33,-707 950.67,-707 950.67,-707 946.83,-707 943,-703.17 943,-699.33 943,-699.33 943,-691.67 943,-691.67 943,-687.83 946.83,-684 950.67,-684 950.67,-684 1086.33,-684 1086.33,-684 1090.17,-684 1094,-687.83 1094,-691.67 1094,-691.67 1094,-699.33 1094,-699.33 1094,-703.17 1090.17,-707 1086.33,-707"/>
<text text-anchor="middle" x="1018.5" y="-691.8" font-family="Arial" font-size="14.00" fill="#cfffac">asset/image/play.png</text>
</g>
<!-- common/chart.ts -->
<g id="node6" class="node">
<title>common/chart.ts</title>
<path fill="none" stroke="#c6c5fe" d="M1578.33,-141C1578.33,-141 1471.67,-141 1471.67,-141 1467.83,-141 1464,-137.17 1464,-133.33 1464,-133.33 1464,-125.67 1464,-125.67 1464,-121.83 1467.83,-118 1471.67,-118 1471.67,-118 1578.33,-118 1578.33,-118 1582.17,-118 1586,-121.83 1586,-125.67 1586,-125.67 1586,-133.33 1586,-133.33 1586,-137.17 1582.17,-141 1578.33,-141"/>
<text text-anchor="middle" x="1525" y="-125.8" font-family="Arial" font-size="14.00" fill="#c6c5fe">common/chart.ts</text>
</g>
<!-- types/chart.d.ts -->
<g id="node7" class="node">
<title>types/chart.d.ts</title>
<path fill="none" stroke="#c6c5fe" d="M1993.83,-121C1993.83,-121 1896.17,-121 1896.17,-121 1892.33,-121 1888.5,-117.17 1888.5,-113.33 1888.5,-113.33 1888.5,-105.67 1888.5,-105.67 1888.5,-101.83 1892.33,-98 1896.17,-98 1896.17,-98 1993.83,-98 1993.83,-98 1997.67,-98 2001.5,-101.83 2001.5,-105.67 2001.5,-105.67 2001.5,-113.33 2001.5,-113.33 2001.5,-117.17 1997.67,-121 1993.83,-121"/>
<text text-anchor="middle" x="1945" y="-105.8" font-family="Arial" font-size="14.00" fill="#c6c5fe">types/chart.d.ts</text>
</g>
<!-- common/chart.ts&#45;&gt;types/chart.d.ts -->
<g id="edge2" class="edge">
<title>common/chart.ts&#45;&gt;types/chart.d.ts</title>
<path fill="none" stroke="#757575" d="M1586.33,-126.61C1663.37,-122.93 1796.28,-116.57 1876.58,-112.73"/>
<polygon fill="#757575" stroke="#757575" points="1876.7,-116.22 1886.52,-112.25 1876.36,-109.23 1876.7,-116.22"/>
</g>
<!-- types/widget.d.ts -->
<g id="node9" class="node">
<title>types/widget.d.ts</title>
<path fill="none" stroke="#cfffac" d="M2263.33,-462C2263.33,-462 2155.67,-462 2155.67,-462 2151.83,-462 2148,-458.17 2148,-454.33 2148,-454.33 2148,-446.67 2148,-446.67 2148,-442.83 2151.83,-439 2155.67,-439 2155.67,-439 2263.33,-439 2263.33,-439 2267.17,-439 2271,-442.83 2271,-446.67 2271,-446.67 2271,-454.33 2271,-454.33 2271,-458.17 2267.17,-462 2263.33,-462"/>
<text text-anchor="middle" x="2209.5" y="-446.8" font-family="Arial" font-size="14.00" fill="#cfffac">types/widget.d.ts</text>
</g>
<!-- types/chart.d.ts&#45;&gt;types/widget.d.ts -->
<g id="edge55" class="edge">
<title>types/chart.d.ts&#45;&gt;types/widget.d.ts</title>
<path fill="none" stroke="#757575" d="M1965.35,-121.44C1996.7,-141.56 2059.12,-184.92 2099,-234.5 2149.37,-297.11 2185.57,-386.63 2200.67,-427.98"/>
<polygon fill="#757575" stroke="#757575" points="2197.35,-429.09 2204.02,-437.32 2203.94,-426.73 2197.35,-429.09"/>
</g>
<!-- common/date.ts -->
<g id="node8" class="node">
<title>common/date.ts</title>
<path fill="none" stroke="#c6c5fe" d="M1996.83,-462C1996.83,-462 1893.17,-462 1893.17,-462 1889.33,-462 1885.5,-458.17 1885.5,-454.33 1885.5,-454.33 1885.5,-446.67 1885.5,-446.67 1885.5,-442.83 1889.33,-439 1893.17,-439 1893.17,-439 1996.83,-439 1996.83,-439 2000.67,-439 2004.5,-442.83 2004.5,-446.67 2004.5,-446.67 2004.5,-454.33 2004.5,-454.33 2004.5,-458.17 2000.67,-462 1996.83,-462"/>
<text text-anchor="middle" x="1945" y="-446.8" font-family="Arial" font-size="14.00" fill="#c6c5fe">common/date.ts</text>
</g>
<!-- common/date.ts&#45;&gt;types/widget.d.ts -->
<g id="edge3" class="edge">
<title>common/date.ts&#45;&gt;types/widget.d.ts</title>
<path fill="none" stroke="#757575" d="M2004.91,-450.5C2043.74,-450.5 2094.84,-450.5 2136.14,-450.5"/>
<polygon fill="#757575" stroke="#757575" points="2135.99,-454 2145.99,-450.5 2135.99,-447 2135.99,-454"/>
</g>
<!-- common/widtet.ts -->
<g id="node10" class="node">
<title>common/widtet.ts</title>
<path fill="none" stroke="#cfffac" d="M1581.33,-300C1581.33,-300 1468.67,-300 1468.67,-300 1464.83,-300 1461,-296.17 1461,-292.33 1461,-292.33 1461,-284.67 1461,-284.67 1461,-280.83 1464.83,-277 1468.67,-277 1468.67,-277 1581.33,-277 1581.33,-277 1585.17,-277 1589,-280.83 1589,-284.67 1589,-284.67 1589,-292.33 1589,-292.33 1589,-296.17 1585.17,-300 1581.33,-300"/>
<text text-anchor="middle" x="1525" y="-284.8" font-family="Arial" font-size="14.00" fill="#cfffac">common/widtet.ts</text>
</g>
<!-- component/Dashboard/DashboardHeader.tsx -->
<g id="node11" class="node">
<title>component/Dashboard/DashboardHeader.tsx</title>
<path fill="none" stroke="#ff6c60" d="M734.33,-625C734.33,-625 446.67,-625 446.67,-625 442.83,-625 439,-621.17 439,-617.33 439,-617.33 439,-609.67 439,-609.67 439,-605.83 442.83,-602 446.67,-602 446.67,-602 734.33,-602 734.33,-602 738.17,-602 742,-605.83 742,-609.67 742,-609.67 742,-617.33 742,-617.33 742,-621.17 738.17,-625 734.33,-625"/>
<text text-anchor="middle" x="590.5" y="-609.8" font-family="Arial" font-size="14.00" fill="#ff6c60">component/Dashboard/DashboardHeader.tsx</text>
</g>
<!-- component/Dashboard/DashboardHeader.tsx&#45;&gt;asset/image/pause.png -->
<g id="edge4" class="edge">
<title>component/Dashboard/DashboardHeader.tsx&#45;&gt;asset/image/pause.png</title>
<path fill="none" stroke="#757575" d="M607.41,-625.39C638.37,-647.78 709.67,-695.82 778,-716.5 825.12,-730.77 879.69,-736.13 924.83,-737.77"/>
<polygon fill="#757575" stroke="#757575" points="924.47,-741.26 934.57,-738.06 924.68,-734.26 924.47,-741.26"/>
</g>
<!-- component/Dashboard/DashboardHeader.tsx&#45;&gt;asset/image/play.png -->
<g id="edge5" class="edge">
<title>component/Dashboard/DashboardHeader.tsx&#45;&gt;asset/image/play.png</title>
<path fill="none" stroke="#757575" d="M620.31,-625.47C656.46,-639.92 720.67,-663.75 778,-675.5 828.21,-685.79 885.38,-690.81 931.27,-693.25"/>
<polygon fill="#757575" stroke="#757575" points="931.01,-696.74 941.17,-693.74 931.35,-689.75 931.01,-696.74"/>
</g>
<!-- component/Dashboard/DashboardHeader/CurrentTime.tsx -->
<g id="node12" class="node">
<title>component/Dashboard/DashboardHeader/CurrentTime.tsx</title>
<path fill="none" stroke="#cfffac" d="M1203.83,-666C1203.83,-666 833.17,-666 833.17,-666 829.33,-666 825.5,-662.17 825.5,-658.33 825.5,-658.33 825.5,-650.67 825.5,-650.67 825.5,-646.83 829.33,-643 833.17,-643 833.17,-643 1203.83,-643 1203.83,-643 1207.67,-643 1211.5,-646.83 1211.5,-650.67 1211.5,-650.67 1211.5,-658.33 1211.5,-658.33 1211.5,-662.17 1207.67,-666 1203.83,-666"/>
<text text-anchor="middle" x="1018.5" y="-650.8" font-family="Arial" font-size="14.00" fill="#cfffac">component/Dashboard/DashboardHeader/CurrentTime.tsx</text>
</g>
<!-- component/Dashboard/DashboardHeader.tsx&#45;&gt;component/Dashboard/DashboardHeader/CurrentTime.tsx -->
<g id="edge6" class="edge">
<title>component/Dashboard/DashboardHeader.tsx&#45;&gt;component/Dashboard/DashboardHeader/CurrentTime.tsx</title>
<path fill="none" stroke="#757575" d="M693.08,-625.48C720.62,-628.57 750.44,-631.8 778,-634.5 802.78,-636.93 829.02,-639.31 854.69,-641.54"/>
<polygon fill="#757575" stroke="#757575" points="854.27,-645.02 864.54,-642.39 854.87,-638.04 854.27,-645.02"/>
</g>
<!-- component/Dashboard/DashboardHeader/DatePickerArea.tsx -->
<g id="node13" class="node">
<title>component/Dashboard/DashboardHeader/DatePickerArea.tsx</title>
<path fill="none" stroke="#ff6c60" d="M1214.33,-625C1214.33,-625 822.67,-625 822.67,-625 818.83,-625 815,-621.17 815,-617.33 815,-617.33 815,-609.67 815,-609.67 815,-605.83 818.83,-602 822.67,-602 822.67,-602 1214.33,-602 1214.33,-602 1218.17,-602 1222,-605.83 1222,-609.67 1222,-609.67 1222,-617.33 1222,-617.33 1222,-621.17 1218.17,-625 1214.33,-625"/>
<text text-anchor="middle" x="1018.5" y="-609.8" font-family="Arial" font-size="14.00" fill="#ff6c60">component/Dashboard/DashboardHeader/DatePickerArea.tsx</text>
</g>
<!-- component/Dashboard/DashboardHeader.tsx&#45;&gt;component/Dashboard/DashboardHeader/DatePickerArea.tsx -->
<g id="edge7" class="edge">
<title>component/Dashboard/DashboardHeader.tsx&#45;&gt;component/Dashboard/DashboardHeader/DatePickerArea.tsx</title>
<path fill="none" stroke="#757575" d="M742.29,-607.01C762.08,-606.84 782.66,-606.75 803.25,-606.75"/>
<polygon fill="#757575" stroke="#757575" points="803.17,-610.25 813.17,-606.76 803.18,-603.25 803.17,-610.25"/>
</g>
<!-- component/Dashboard/DashboardHeader/SelectRealTimeRangeArea.tsx -->
<g id="node14" class="node">
<title>component/Dashboard/DashboardHeader/SelectRealTimeRangeArea.tsx</title>
<path fill="none" stroke="#ff6c60" d="M1251.33,-584C1251.33,-584 785.67,-584 785.67,-584 781.83,-584 778,-580.17 778,-576.33 778,-576.33 778,-568.67 778,-568.67 778,-564.83 781.83,-561 785.67,-561 785.67,-561 1251.33,-561 1251.33,-561 1255.17,-561 1259,-564.83 1259,-568.67 1259,-568.67 1259,-576.33 1259,-576.33 1259,-580.17 1255.17,-584 1251.33,-584"/>
<text text-anchor="middle" x="1018.5" y="-568.8" font-family="Arial" font-size="14.00" fill="#ff6c60">component/Dashboard/DashboardHeader/SelectRealTimeRangeArea.tsx</text>
</g>
<!-- component/Dashboard/DashboardHeader.tsx&#45;&gt;component/Dashboard/DashboardHeader/SelectRealTimeRangeArea.tsx -->
<g id="edge8" class="edge">
<title>component/Dashboard/DashboardHeader.tsx&#45;&gt;component/Dashboard/DashboardHeader/SelectRealTimeRangeArea.tsx</title>
<path fill="none" stroke="#757575" d="M634.44,-601.54C669.28,-595.93 720.04,-590.26 766.36,-585.65"/>
<polygon fill="#757575" stroke="#757575" points="766.6,-589.14 776.21,-584.68 765.91,-582.17 766.6,-589.14"/>
</g>
<!-- store/DashboardProvider.tsx -->
<g id="node15" class="node">
<title>store/DashboardProvider.tsx</title>
<path fill="none" stroke="#c6c5fe" d="M1615.83,-462C1615.83,-462 1434.17,-462 1434.17,-462 1430.33,-462 1426.5,-458.17 1426.5,-454.33 1426.5,-454.33 1426.5,-446.67 1426.5,-446.67 1426.5,-442.83 1430.33,-439 1434.17,-439 1434.17,-439 1615.83,-439 1615.83,-439 1619.67,-439 1623.5,-442.83 1623.5,-446.67 1623.5,-446.67 1623.5,-454.33 1623.5,-454.33 1623.5,-458.17 1619.67,-462 1615.83,-462"/>
<text text-anchor="middle" x="1525" y="-446.8" font-family="Arial" font-size="14.00" fill="#c6c5fe">store/DashboardProvider.tsx</text>
</g>
<!-- component/Dashboard/DashboardHeader.tsx&#45;&gt;store/DashboardProvider.tsx -->
<g id="edge9" class="edge">
<title>component/Dashboard/DashboardHeader.tsx&#45;&gt;store/DashboardProvider.tsx</title>
<path fill="none" stroke="#757575" d="M621.32,-601.52C657.68,-587.43 721.33,-564.45 778,-552.5 988.22,-508.18 1062.89,-592.24 1259,-504.5 1278.81,-495.64 1275.15,-480.28 1295,-471.5 1331.97,-455.14 1375.51,-448.43 1414.66,-446.31"/>
<polygon fill="#757575" stroke="#757575" points="1414.76,-449.81 1424.6,-445.87 1414.45,-442.81 1414.76,-449.81"/>
</g>
<!-- component/Dashboard/DashboardHeader/DatePickerArea.tsx&#45;&gt;common/date.ts -->
<g id="edge10" class="edge">
<title>component/Dashboard/DashboardHeader/DatePickerArea.tsx&#45;&gt;common/date.ts</title>
<path fill="none" stroke="#757575" d="M1222.48,-620.27C1235.14,-624.04 1247.42,-628.72 1259,-634.5 1280.4,-645.18 1273.15,-664.77 1295,-674.5 1388.38,-716.09 1662.3,-717.57 1755,-674.5 1846.85,-631.82 1910.12,-520.1 1933.74,-472.49"/>
<polygon fill="#757575" stroke="#757575" points="1936.78,-474.24 1937.98,-463.71 1930.48,-471.19 1936.78,-474.24"/>
</g>
<!-- component/Dashboard/DashboardHeader/DatePickerArea.tsx&#45;&gt;types/widget.d.ts -->
<g id="edge17" class="edge">
<title>component/Dashboard/DashboardHeader/DatePickerArea.tsx&#45;&gt;types/widget.d.ts</title>
<path fill="none" stroke="#757575" d="M1222.31,-616.24C1235.25,-620.92 1247.63,-626.91 1259,-634.5 1287.77,-653.71 1265.42,-685.57 1295,-703.5 1382.42,-756.49 1655.59,-727.33 1755,-703.5 1937.21,-659.82 2122.46,-520.31 2185.73,-469.36"/>
<polygon fill="#757575" stroke="#757575" points="2187.76,-472.22 2193.31,-463.19 2183.35,-466.79 2187.76,-472.22"/>
</g>
<!-- component/Dashboard/DashboardHeader/DatePickerArea.tsx&#45;&gt;component/Dashboard/DashboardHeader.tsx -->
<g id="edge11" class="edge">
<title>component/Dashboard/DashboardHeader/DatePickerArea.tsx&#45;&gt;component/Dashboard/DashboardHeader.tsx</title>
<path fill="none" stroke="#757575" d="M814.69,-620.24C794.21,-620.27 773.61,-620.22 753.64,-620.08"/>
<polygon fill="#757575" stroke="#757575" points="753.83,-616.58 743.8,-620 753.78,-623.58 753.83,-616.58"/>
</g>
<!-- component/Dashboard/DashboardHeader/DatePickerArea.tsx&#45;&gt;store/DashboardProvider.tsx -->
<g id="edge16" class="edge">
<title>component/Dashboard/DashboardHeader/DatePickerArea.tsx&#45;&gt;store/DashboardProvider.tsx</title>
<path fill="none" stroke="#757575" d="M1076.97,-625.48C1130.14,-633.03 1208.37,-634.74 1259,-593.5 1302.83,-557.79 1251.31,-507.38 1295,-471.5 1337.29,-436.76 1399.94,-433.21 1449.03,-437.4"/>
<polygon fill="#757575" stroke="#757575" points="1448.44,-440.85 1458.73,-438.36 1449.13,-433.89 1448.44,-440.85"/>
</g>
<!-- component/Dashboard/DashboardHeader/DateBox.tsx -->
<g id="node16" class="node">
<title>component/Dashboard/DashboardHeader/DateBox.tsx</title>
<path fill="none" stroke="#cfffac" d="M1698.33,-783C1698.33,-783 1351.67,-783 1351.67,-783 1347.83,-783 1344,-779.17 1344,-775.33 1344,-775.33 1344,-767.67 1344,-767.67 1344,-763.83 1347.83,-760 1351.67,-760 1351.67,-760 1698.33,-760 1698.33,-760 1702.17,-760 1706,-763.83 1706,-767.67 1706,-767.67 1706,-775.33 1706,-775.33 1706,-779.17 1702.17,-783 1698.33,-783"/>
<text text-anchor="middle" x="1525" y="-767.8" font-family="Arial" font-size="14.00" fill="#cfffac">component/Dashboard/DashboardHeader/DateBox.tsx</text>
</g>
<!-- component/Dashboard/DashboardHeader/DatePickerArea.tsx&#45;&gt;component/Dashboard/DashboardHeader/DateBox.tsx -->
<g id="edge12" class="edge">
<title>component/Dashboard/DashboardHeader/DatePickerArea.tsx&#45;&gt;component/Dashboard/DashboardHeader/DateBox.tsx</title>
<path fill="none" stroke="#757575" d="M1081.39,-601.52C1134.24,-594.99 1209.36,-594.99 1259,-634.5 1299.58,-666.8 1254.84,-712.68 1295,-745.5 1306.42,-754.83 1319.3,-762.01 1332.98,-767.47"/>
<polygon fill="#757575" stroke="#757575" points="1331.56,-770.69 1342.16,-770.81 1333.95,-764.11 1331.56,-770.69"/>
</g>
<!-- component/common/DatePicker.tsx -->
<g id="node17" class="node">
<title>component/common/DatePicker.tsx</title>
<path fill="none" stroke="#c6c5fe" d="M1638.33,-863C1638.33,-863 1411.67,-863 1411.67,-863 1407.83,-863 1404,-859.17 1404,-855.33 1404,-855.33 1404,-847.67 1404,-847.67 1404,-843.83 1407.83,-840 1411.67,-840 1411.67,-840 1638.33,-840 1638.33,-840 1642.17,-840 1646,-843.83 1646,-847.67 1646,-847.67 1646,-855.33 1646,-855.33 1646,-859.17 1642.17,-863 1638.33,-863"/>
<text text-anchor="middle" x="1525" y="-847.8" font-family="Arial" font-size="14.00" fill="#c6c5fe">component/common/DatePicker.tsx</text>
</g>
<!-- component/Dashboard/DashboardHeader/DatePickerArea.tsx&#45;&gt;component/common/DatePicker.tsx -->
<g id="edge13" class="edge">
<title>component/Dashboard/DashboardHeader/DatePickerArea.tsx&#45;&gt;component/common/DatePicker.tsx</title>
<path fill="none" stroke="#757575" d="M1074.8,-601.51C1128.45,-593.35 1208.9,-590.82 1259,-634.5 1313.28,-681.83 1244.79,-740.86 1295,-792.5 1320.74,-818.98 1356.66,-834.13 1392.44,-842.65"/>
<polygon fill="#757575" stroke="#757575" points="1391.52,-846.03 1402.04,-844.76 1393.03,-839.2 1391.52,-846.03"/>
</g>
<!-- hook/useBoolean.tsx -->
<g id="node18" class="node">
<title>hook/useBoolean.tsx</title>
<path fill="none" stroke="#cfffac" d="M1591.83,-665C1591.83,-665 1458.17,-665 1458.17,-665 1454.33,-665 1450.5,-661.17 1450.5,-657.33 1450.5,-657.33 1450.5,-649.67 1450.5,-649.67 1450.5,-645.83 1454.33,-642 1458.17,-642 1458.17,-642 1591.83,-642 1591.83,-642 1595.67,-642 1599.5,-645.83 1599.5,-649.67 1599.5,-649.67 1599.5,-657.33 1599.5,-657.33 1599.5,-661.17 1595.67,-665 1591.83,-665"/>
<text text-anchor="middle" x="1525" y="-649.8" font-family="Arial" font-size="14.00" fill="#cfffac">hook/useBoolean.tsx</text>
</g>
<!-- component/Dashboard/DashboardHeader/DatePickerArea.tsx&#45;&gt;hook/useBoolean.tsx -->
<g id="edge14" class="edge">
<title>component/Dashboard/DashboardHeader/DatePickerArea.tsx&#45;&gt;hook/useBoolean.tsx</title>
<path fill="none" stroke="#757575" d="M1170.52,-625.47C1258.29,-632.43 1365.65,-640.95 1438.87,-646.75"/>
<polygon fill="#757575" stroke="#757575" points="1438.56,-650.24 1448.81,-647.54 1439.12,-643.26 1438.56,-650.24"/>
</g>
<!-- hook/useOutsideClick.tsx -->
<g id="node19" class="node">
<title>hook/useOutsideClick.tsx</title>
<path fill="none" stroke="#cfffac" d="M1605.33,-624C1605.33,-624 1444.67,-624 1444.67,-624 1440.83,-624 1437,-620.17 1437,-616.33 1437,-616.33 1437,-608.67 1437,-608.67 1437,-604.83 1440.83,-601 1444.67,-601 1444.67,-601 1605.33,-601 1605.33,-601 1609.17,-601 1613,-604.83 1613,-608.67 1613,-608.67 1613,-616.33 1613,-616.33 1613,-620.17 1609.17,-624 1605.33,-624"/>
<text text-anchor="middle" x="1525" y="-608.8" font-family="Arial" font-size="14.00" fill="#cfffac">hook/useOutsideClick.tsx</text>
</g>
<!-- component/Dashboard/DashboardHeader/DatePickerArea.tsx&#45;&gt;hook/useOutsideClick.tsx -->
<g id="edge15" class="edge">
<title>component/Dashboard/DashboardHeader/DatePickerArea.tsx&#45;&gt;hook/useOutsideClick.tsx</title>
<path fill="none" stroke="#757575" d="M1222.16,-613.1C1292.15,-612.96 1367.44,-612.81 1425.32,-612.7"/>
<polygon fill="#757575" stroke="#757575" points="1425.15,-616.2 1435.14,-612.68 1425.14,-609.2 1425.15,-616.2"/>
</g>
<!-- component/Dashboard/DashboardHeader/SelectRealTimeRangeArea.tsx&#45;&gt;types/widget.d.ts -->
<g id="edge24" class="edge">
<title>component/Dashboard/DashboardHeader/SelectRealTimeRangeArea.tsx&#45;&gt;types/widget.d.ts</title>
<path fill="none" stroke="#757575" d="M1259.3,-578.22C1403.5,-578.7 1590.39,-574.11 1755,-553.5 1903.2,-534.94 2074.03,-489.42 2157.4,-465.59"/>
<polygon fill="#757575" stroke="#757575" points="2158.23,-468.99 2166.87,-462.87 2156.29,-462.27 2158.23,-468.99"/>
</g>
<!-- component/Dashboard/DashboardHeader/SelectRealTimeRangeArea.tsx&#45;&gt;component/Dashboard/DashboardHeader.tsx -->
<g id="edge18" class="edge">
<title>component/Dashboard/DashboardHeader/SelectRealTimeRangeArea.tsx&#45;&gt;component/Dashboard/DashboardHeader.tsx</title>
<path fill="none" stroke="#757575" d="M959.88,-584.44C911.35,-590.3 840.11,-596.45 778,-602.5 770.03,-603.28 761.88,-604.09 753.64,-604.91"/>
<polygon fill="#757575" stroke="#757575" points="753.48,-601.41 743.88,-605.89 754.18,-608.38 753.48,-601.41"/>
</g>
<!-- component/Dashboard/DashboardHeader/SelectRealTimeRangeArea.tsx&#45;&gt;store/DashboardProvider.tsx -->
<g id="edge23" class="edge">
<title>component/Dashboard/DashboardHeader/SelectRealTimeRangeArea.tsx&#45;&gt;store/DashboardProvider.tsx</title>
<path fill="none" stroke="#757575" d="M1230.56,-560.5C1240.55,-556.07 1250.11,-550.78 1259,-544.5 1288.56,-523.64 1265.19,-491.99 1295,-471.5 1329.51,-447.78 1374.19,-439.98 1414.9,-439.02"/>
<polygon fill="#757575" stroke="#757575" points="1414.79,-442.52 1424.76,-438.94 1414.73,-435.53 1414.79,-442.52"/>
</g>
<!-- component/Dashboard/DashboardHeader/SelectRealTimeRangeArea.tsx&#45;&gt;hook/useBoolean.tsx -->
<g id="edge21" class="edge">
<title>component/Dashboard/DashboardHeader/SelectRealTimeRangeArea.tsx&#45;&gt;hook/useBoolean.tsx</title>
<path fill="none" stroke="#757575" d="M1237.88,-584.4C1245.12,-587.08 1252.18,-590.1 1259,-593.5 1280.4,-604.18 1273.6,-622.83 1295,-633.5 1339.03,-655.45 1393.75,-660.9 1438.66,-660.65"/>
<polygon fill="#757575" stroke="#757575" points="1438.7,-664.15 1448.64,-660.49 1438.58,-657.15 1438.7,-664.15"/>
</g>
<!-- component/Dashboard/DashboardHeader/SelectRealTimeRangeArea.tsx&#45;&gt;hook/useOutsideClick.tsx -->
<g id="edge22" class="edge">
<title>component/Dashboard/DashboardHeader/SelectRealTimeRangeArea.tsx&#45;&gt;hook/useOutsideClick.tsx</title>
<path fill="none" stroke="#757575" d="M1170.52,-584.47C1253.05,-591.02 1352.91,-598.94 1425.41,-604.68"/>
<polygon fill="#757575" stroke="#757575" points="1425.05,-608.17 1435.3,-605.47 1425.61,-601.19 1425.05,-608.17"/>
</g>
<!-- component/Dashboard/DashboardHeader/RealTime.tsx -->
<g id="node20" class="node">
<title>component/Dashboard/DashboardHeader/RealTime.tsx</title>
<path fill="none" stroke="#cfffac" d="M1701.33,-544C1701.33,-544 1348.67,-544 1348.67,-544 1344.83,-544 1341,-540.17 1341,-536.33 1341,-536.33 1341,-528.67 1341,-528.67 1341,-524.83 1344.83,-521 1348.67,-521 1348.67,-521 1701.33,-521 1701.33,-521 1705.17,-521 1709,-524.83 1709,-528.67 1709,-528.67 1709,-536.33 1709,-536.33 1709,-540.17 1705.17,-544 1701.33,-544"/>
<text text-anchor="middle" x="1525" y="-528.8" font-family="Arial" font-size="14.00" fill="#cfffac">component/Dashboard/DashboardHeader/RealTime.tsx</text>
</g>
<!-- component/Dashboard/DashboardHeader/SelectRealTimeRangeArea.tsx&#45;&gt;component/Dashboard/DashboardHeader/RealTime.tsx -->
<g id="edge19" class="edge">
<title>component/Dashboard/DashboardHeader/SelectRealTimeRangeArea.tsx&#45;&gt;component/Dashboard/DashboardHeader/RealTime.tsx</title>
<path fill="none" stroke="#757575" d="M1170.52,-560.53C1230.78,-555.75 1300.28,-550.24 1361.63,-545.37"/>
<polygon fill="#757575" stroke="#757575" points="1361.78,-548.87 1371.47,-544.59 1361.23,-541.89 1361.78,-548.87"/>
</g>
<!-- component/Dashboard/DashboardHeader/SelectRealTimeListItem.tsx -->
<g id="node21" class="node">
<title>component/Dashboard/DashboardHeader/SelectRealTimeListItem.tsx</title>
<path fill="none" stroke="#cfffac" d="M1747.33,-503C1747.33,-503 1302.67,-503 1302.67,-503 1298.83,-503 1295,-499.17 1295,-495.33 1295,-495.33 1295,-487.67 1295,-487.67 1295,-483.83 1298.83,-480 1302.67,-480 1302.67,-480 1747.33,-480 1747.33,-480 1751.17,-480 1755,-483.83 1755,-487.67 1755,-487.67 1755,-495.33 1755,-495.33 1755,-499.17 1751.17,-503 1747.33,-503"/>
<text text-anchor="middle" x="1525" y="-487.8" font-family="Arial" font-size="14.00" fill="#cfffac">component/Dashboard/DashboardHeader/SelectRealTimeListItem.tsx</text>
</g>
<!-- component/Dashboard/DashboardHeader/SelectRealTimeRangeArea.tsx&#45;&gt;component/Dashboard/DashboardHeader/SelectRealTimeListItem.tsx -->
<g id="edge20" class="edge">
<title>component/Dashboard/DashboardHeader/SelectRealTimeRangeArea.tsx&#45;&gt;component/Dashboard/DashboardHeader/SelectRealTimeListItem.tsx</title>
<path fill="none" stroke="#757575" d="M1212.22,-560.57C1228.39,-556.41 1244.2,-551.14 1259,-544.5 1278.53,-535.74 1275.36,-521.01 1295,-512.5 1299.43,-510.58 1303.95,-508.79 1308.55,-507.13"/>
<polygon fill="#757575" stroke="#757575" points="1309.6,-510.47 1317.96,-503.97 1307.37,-503.84 1309.6,-510.47"/>
</g>
<!-- store/DashboardProvider.tsx&#45;&gt;common/date.ts -->
<g id="edge54" class="edge">
<title>store/DashboardProvider.tsx&#45;&gt;common/date.ts</title>
<path fill="none" stroke="#757575" d="M1623.74,-450.5C1700.53,-450.5 1805.61,-450.5 1874.13,-450.5"/>
<polygon fill="#757575" stroke="#757575" points="1873.71,-454 1883.71,-450.5 1873.71,-447 1873.71,-454"/>
</g>
<!-- component/common/DatePicker/ListPicker.tsx -->
<g id="node30" class="node">
<title>component/common/DatePicker/ListPicker.tsx</title>
<path fill="none" stroke="#c6c5fe" d="M2091.33,-902C2091.33,-902 1798.67,-902 1798.67,-902 1794.83,-902 1791,-898.17 1791,-894.33 1791,-894.33 1791,-886.67 1791,-886.67 1791,-882.83 1794.83,-879 1798.67,-879 1798.67,-879 2091.33,-879 2091.33,-879 2095.17,-879 2099,-882.83 2099,-886.67 2099,-886.67 2099,-894.33 2099,-894.33 2099,-898.17 2095.17,-902 2091.33,-902"/>
<text text-anchor="middle" x="1945" y="-886.8" font-family="Arial" font-size="14.00" fill="#c6c5fe">component/common/DatePicker/ListPicker.tsx</text>
</g>
<!-- component/common/DatePicker.tsx&#45;&gt;component/common/DatePicker/ListPicker.tsx -->
<g id="edge46" class="edge">
<title>component/common/DatePicker.tsx&#45;&gt;component/common/DatePicker/ListPicker.tsx</title>
<path fill="none" stroke="#757575" d="M1646.34,-862.73C1695.66,-867.33 1753.07,-872.69 1804.23,-877.46"/>
<polygon fill="#757575" stroke="#757575" points="1803.6,-880.92 1813.88,-878.36 1804.25,-873.95 1803.6,-880.92"/>
</g>
<!-- types/datePicker.d.ts -->
<g id="node31" class="node">
<title>types/datePicker.d.ts</title>
<path fill="none" stroke="#cfffac" d="M2276.33,-882C2276.33,-882 2142.67,-882 2142.67,-882 2138.83,-882 2135,-878.17 2135,-874.33 2135,-874.33 2135,-866.67 2135,-866.67 2135,-862.83 2138.83,-859 2142.67,-859 2142.67,-859 2276.33,-859 2276.33,-859 2280.17,-859 2284,-862.83 2284,-866.67 2284,-866.67 2284,-874.33 2284,-874.33 2284,-878.17 2280.17,-882 2276.33,-882"/>
<text text-anchor="middle" x="2209.5" y="-866.8" font-family="Arial" font-size="14.00" fill="#cfffac">types/datePicker.d.ts</text>
</g>
<!-- component/common/DatePicker.tsx&#45;&gt;types/datePicker.d.ts -->
<g id="edge47" class="edge">
<title>component/common/DatePicker.tsx&#45;&gt;types/datePicker.d.ts</title>
<path fill="none" stroke="#757575" d="M1646.45,-854.85C1783.24,-858.66 2003,-864.78 2123.19,-868.13"/>
<polygon fill="#757575" stroke="#757575" points="2122.9,-871.62 2132.99,-868.4 2123.09,-864.62 2122.9,-871.62"/>
</g>
<!-- component/Widget.tsx -->
<g id="node22" class="node">
<title>component/Widget.tsx</title>
<path fill="none" stroke="#c6c5fe" d="M662.33,-303C662.33,-303 518.67,-303 518.67,-303 514.83,-303 511,-299.17 511,-295.33 511,-295.33 511,-287.67 511,-287.67 511,-283.83 514.83,-280 518.67,-280 518.67,-280 662.33,-280 662.33,-280 666.17,-280 670,-283.83 670,-287.67 670,-287.67 670,-295.33 670,-295.33 670,-299.17 666.17,-303 662.33,-303"/>
<text text-anchor="middle" x="590.5" y="-287.8" font-family="Arial" font-size="14.00" fill="#c6c5fe">component/Widget.tsx</text>
</g>
<!-- component/Widget.tsx&#45;&gt;api.js -->
<g id="edge25" class="edge">
<title>component/Widget.tsx&#45;&gt;api.js</title>
<path fill="none" stroke="#757575" d="M670.13,-291.5C762.17,-291.5 910.79,-291.5 979.91,-291.5"/>
<polygon fill="#757575" stroke="#757575" points="979.57,-295 989.57,-291.5 979.57,-288 979.57,-295"/>
</g>
<!-- component/Widget.tsx&#45;&gt;common/date.ts -->
<g id="edge26" class="edge">
<title>component/Widget.tsx&#45;&gt;common/date.ts</title>
<path fill="none" stroke="#757575" d="M608.49,-303.34C640.11,-324.62 710.89,-368.79 778,-386.5 988.13,-441.97 1538.28,-414.17 1755,-430.5 1794.49,-433.48 1838.49,-438.06 1874.09,-442.08"/>
<polygon fill="#757575" stroke="#757575" points="1873.5,-445.54 1883.84,-443.2 1874.3,-438.58 1873.5,-445.54"/>
</g>
<!-- component/Widget.tsx&#45;&gt;types/widget.d.ts -->
<g id="edge34" class="edge">
<title>component/Widget.tsx&#45;&gt;types/widget.d.ts</title>
<path fill="none" stroke="#757575" d="M619.63,-303.45C655.61,-318.11 720.2,-342.41 778,-353.5 850.2,-367.35 2026.01,-421.74 2099,-430.5 2112.12,-432.07 2126.04,-434.23 2139.39,-436.55"/>
<polygon fill="#757575" stroke="#757575" points="2138.5,-439.95 2148.96,-438.26 2139.73,-433.06 2138.5,-439.95"/>
</g>
<!-- component/Widget.tsx&#45;&gt;common/widtet.ts -->
<g id="edge27" class="edge">
<title>component/Widget.tsx&#45;&gt;common/widtet.ts</title>
<path fill="none" stroke="#757575" d="M670.3,-281.16C703.48,-277.3 742.56,-273.4 778,-271.5 991.47,-260.09 1045.33,-264.65 1259,-271.5 1323.28,-273.56 1396.21,-278.42 1449.26,-282.42"/>
<polygon fill="#757575" stroke="#757575" points="1448.86,-285.9 1459.1,-283.17 1449.39,-278.92 1448.86,-285.9"/>
</g>
<!-- component/Widget.tsx&#45;&gt;store/DashboardProvider.tsx -->
<g id="edge32" class="edge">
<title>component/Widget.tsx&#45;&gt;store/DashboardProvider.tsx</title>
<path fill="none" stroke="#757575" d="M602.74,-303.31C629.79,-330.8 701.93,-398.68 778,-424.5 892.53,-463.37 1236.62,-459.38 1414.64,-454.37"/>
<polygon fill="#757575" stroke="#757575" points="1414.72,-457.87 1424.61,-454.08 1414.51,-450.87 1414.72,-457.87"/>
</g>
<!-- component/Widget/WidgetModal.tsx -->
<g id="node23" class="node">
<title>component/Widget/WidgetModal.tsx</title>
<path fill="none" stroke="#c6c5fe" d="M1134.33,-223C1134.33,-223 902.67,-223 902.67,-223 898.83,-223 895,-219.17 895,-215.33 895,-215.33 895,-207.67 895,-207.67 895,-203.83 898.83,-200 902.67,-200 902.67,-200 1134.33,-200 1134.33,-200 1138.17,-200 1142,-203.83 1142,-207.67 1142,-207.67 1142,-215.33 1142,-215.33 1142,-219.17 1138.17,-223 1134.33,-223"/>
<text text-anchor="middle" x="1018.5" y="-207.8" font-family="Arial" font-size="14.00" fill="#c6c5fe">component/Widget/WidgetModal.tsx</text>
</g>
<!-- component/Widget.tsx&#45;&gt;component/Widget/WidgetModal.tsx -->
<g id="edge28" class="edge">
<title>component/Widget.tsx&#45;&gt;component/Widget/WidgetModal.tsx</title>
<path fill="none" stroke="#757575" d="M626.11,-279.51C663.23,-267.13 724.1,-248.15 778,-237.5 811.97,-230.79 849.02,-225.7 883.6,-221.89"/>
<polygon fill="#757575" stroke="#757575" points="883.66,-225.4 893.23,-220.85 882.91,-218.44 883.66,-225.4"/>
</g>
<!-- component/chart/BarChart.tsx -->
<g id="node24" class="node">
<title>component/chart/BarChart.tsx</title>
<path fill="none" stroke="#c6c5fe" d="M1112.33,-141C1112.33,-141 924.67,-141 924.67,-141 920.83,-141 917,-137.17 917,-133.33 917,-133.33 917,-125.67 917,-125.67 917,-121.83 920.83,-118 924.67,-118 924.67,-118 1112.33,-118 1112.33,-118 1116.17,-118 1120,-121.83 1120,-125.67 1120,-125.67 1120,-133.33 1120,-133.33 1120,-137.17 1116.17,-141 1112.33,-141"/>
<text text-anchor="middle" x="1018.5" y="-125.8" font-family="Arial" font-size="14.00" fill="#c6c5fe">component/chart/BarChart.tsx</text>
</g>
<!-- component/Widget.tsx&#45;&gt;component/chart/BarChart.tsx -->
<g id="edge29" class="edge">
<title>component/Widget.tsx&#45;&gt;component/chart/BarChart.tsx</title>
<path fill="none" stroke="#757575" d="M602.28,-279.68C628.89,-251.42 701.1,-180.1 778,-150.5 817.79,-135.19 863.96,-128.75 905.08,-126.54"/>
<polygon fill="#757575" stroke="#757575" points="905.19,-130.04 915.02,-126.1 904.87,-123.05 905.19,-130.04"/>
</g>
<!-- component/chart/InformaticsChart.tsx -->
<g id="node25" class="node">
<title>component/chart/InformaticsChart.tsx</title>
<path fill="none" stroke="#c6c5fe" d="M1136.83,-63C1136.83,-63 900.17,-63 900.17,-63 896.33,-63 892.5,-59.17 892.5,-55.33 892.5,-55.33 892.5,-47.67 892.5,-47.67 892.5,-43.83 896.33,-40 900.17,-40 900.17,-40 1136.83,-40 1136.83,-40 1140.67,-40 1144.5,-43.83 1144.5,-47.67 1144.5,-47.67 1144.5,-55.33 1144.5,-55.33 1144.5,-59.17 1140.67,-63 1136.83,-63"/>
<text text-anchor="middle" x="1018.5" y="-47.8" font-family="Arial" font-size="14.00" fill="#c6c5fe">component/chart/InformaticsChart.tsx</text>
</g>
<!-- component/Widget.tsx&#45;&gt;component/chart/InformaticsChart.tsx -->
<g id="edge30" class="edge">
<title>component/Widget.tsx&#45;&gt;component/chart/InformaticsChart.tsx</title>
<path fill="none" stroke="#757575" d="M600.03,-279.51C624,-246.73 695.66,-155.06 778,-109.5 817.09,-87.87 864.13,-74.24 906.14,-65.67"/>
<polygon fill="#757575" stroke="#757575" points="906.65,-69.14 915.79,-63.79 905.31,-62.27 906.65,-69.14"/>
</g>
<!-- component/chart/LineChart.tsx -->
<g id="node26" class="node">
<title>component/chart/LineChart.tsx</title>
<path fill="none" stroke="#c6c5fe" d="M1115.33,-182C1115.33,-182 921.67,-182 921.67,-182 917.83,-182 914,-178.17 914,-174.33 914,-174.33 914,-166.67 914,-166.67 914,-162.83 917.83,-159 921.67,-159 921.67,-159 1115.33,-159 1115.33,-159 1119.17,-159 1123,-162.83 1123,-166.67 1123,-166.67 1123,-174.33 1123,-174.33 1123,-178.17 1119.17,-182 1115.33,-182"/>
<text text-anchor="middle" x="1018.5" y="-166.8" font-family="Arial" font-size="14.00" fill="#c6c5fe">component/chart/LineChart.tsx</text>
</g>
<!-- component/Widget.tsx&#45;&gt;component/chart/LineChart.tsx -->
<g id="edge31" class="edge">
<title>component/Widget.tsx&#45;&gt;component/chart/LineChart.tsx</title>
<path fill="none" stroke="#757575" d="M607.97,-279.65C639.29,-257.83 710.4,-211.66 778,-191.5 817.49,-179.72 862.15,-173.91 902.11,-171.2"/>
<polygon fill="#757575" stroke="#757575" points="902.24,-174.7 912.01,-170.6 901.82,-167.72 902.24,-174.7"/>
</g>
<!-- types/api.d.ts -->
<g id="node27" class="node">
<title>types/api.d.ts</title>
<path fill="none" stroke="#cfffac" d="M1061.33,-344C1061.33,-344 975.67,-344 975.67,-344 971.83,-344 968,-340.17 968,-336.33 968,-336.33 968,-328.67 968,-328.67 968,-324.83 971.83,-321 975.67,-321 975.67,-321 1061.33,-321 1061.33,-321 1065.17,-321 1069,-324.83 1069,-328.67 1069,-328.67 1069,-336.33 1069,-336.33 1069,-340.17 1065.17,-344 1061.33,-344"/>
<text text-anchor="middle" x="1018.5" y="-328.8" font-family="Arial" font-size="14.00" fill="#cfffac">types/api.d.ts</text>
</g>
<!-- component/Widget.tsx&#45;&gt;types/api.d.ts -->
<g id="edge33" class="edge">
<title>component/Widget.tsx&#45;&gt;types/api.d.ts</title>
<path fill="none" stroke="#757575" d="M670.4,-300.89C703.6,-304.71 742.65,-309.03 778,-312.5 838.74,-318.45 908.26,-324.13 956.7,-327.91"/>
<polygon fill="#757575" stroke="#757575" points="956.17,-331.38 966.41,-328.66 956.71,-324.4 956.17,-331.38"/>
</g>
<!-- component/Widget/WidgetModal.tsx&#45;&gt;types/widget.d.ts -->
<g id="edge36" class="edge">
<title>component/Widget/WidgetModal.tsx&#45;&gt;types/widget.d.ts</title>
<path fill="none" stroke="#757575" d="M1142.32,-214.33C1289.01,-219.24 1541.39,-232.58 1755,-268.5 1910.85,-294.71 1958.63,-285.9 2099,-358.5 2135.09,-377.16 2169.78,-409.55 2190.11,-430.5"/>
<polygon fill="#757575" stroke="#757575" points="2187.44,-432.77 2196.87,-437.6 2192.51,-427.95 2187.44,-432.77"/>
</g>
<!-- component/Widget/WidgetModal.tsx&#45;&gt;common/widtet.ts -->
<g id="edge35" class="edge">
<title>component/Widget/WidgetModal.tsx&#45;&gt;common/widtet.ts</title>
<path fill="none" stroke="#757575" d="M1142.21,-213.08C1180.55,-216.66 1222.37,-223.81 1259,-237.5 1277.25,-244.32 1276.77,-255.64 1295,-262.5 1344.37,-281.08 1403.62,-287.42 1449.48,-289.2"/>
<polygon fill="#757575" stroke="#757575" points="1449.22,-292.69 1459.32,-289.51 1449.44,-285.7 1449.22,-292.69"/>
</g>
<!-- component/chart/BarChart.tsx&#45;&gt;common/chart.ts -->
<g id="edge37" class="edge">
<title>component/chart/BarChart.tsx&#45;&gt;common/chart.ts</title>
<path fill="none" stroke="#757575" d="M1120.38,-129.5C1218.63,-129.5 1365.48,-129.5 1452.32,-129.5"/>
<polygon fill="#757575" stroke="#757575" points="1452.14,-133 1462.14,-129.5 1452.13,-126 1452.14,-133"/>
</g>
<!-- component/chart/BarChart.tsx&#45;&gt;types/chart.d.ts -->
<g id="edge39" class="edge">
<title>component/chart/BarChart.tsx&#45;&gt;types/chart.d.ts</title>
<path fill="none" stroke="#757575" d="M1120.48,-120.41C1172.56,-116.17 1237.13,-111.6 1295,-109.5 1507.49,-101.8 1759.38,-105.45 1877.11,-107.9"/>
<polygon fill="#757575" stroke="#757575" points="1876.83,-111.4 1886.9,-108.11 1876.98,-104.4 1876.83,-111.4"/>
</g>
<!-- hook/useResize.tsx -->
<g id="node28" class="node">
<title>hook/useResize.tsx</title>
<path fill="none" stroke="#cfffac" d="M1587.33,-182C1587.33,-182 1462.67,-182 1462.67,-182 1458.83,-182 1455,-178.17 1455,-174.33 1455,-174.33 1455,-166.67 1455,-166.67 1455,-162.83 1458.83,-159 1462.67,-159 1462.67,-159 1587.33,-159 1587.33,-159 1591.17,-159 1595,-162.83 1595,-166.67 1595,-166.67 1595,-174.33 1595,-174.33 1595,-178.17 1591.17,-182 1587.33,-182"/>
<text text-anchor="middle" x="1525" y="-166.8" font-family="Arial" font-size="14.00" fill="#cfffac">hook/useResize.tsx</text>
</g>
<!-- component/chart/BarChart.tsx&#45;&gt;hook/useResize.tsx -->
<g id="edge38" class="edge">
<title>component/chart/BarChart.tsx&#45;&gt;hook/useResize.tsx</title>
<path fill="none" stroke="#757575" d="M1120.38,-137.7C1215.42,-145.42 1355.95,-156.84 1443.64,-163.97"/>
<polygon fill="#757575" stroke="#757575" points="1443.09,-167.44 1453.35,-164.76 1443.66,-160.46 1443.09,-167.44"/>
</g>
<!-- component/chart/InformaticsChart.tsx&#45;&gt;types/chart.d.ts -->
<g id="edge41" class="edge">
<title>component/chart/InformaticsChart.tsx&#45;&gt;types/chart.d.ts</title>
<path fill="none" stroke="#757575" d="M1144.66,-59.35C1343.18,-71.81 1723.45,-95.66 1877.12,-105.3"/>
<polygon fill="#757575" stroke="#757575" points="1876.51,-108.77 1886.71,-105.91 1876.95,-101.79 1876.51,-108.77"/>
</g>
<!-- component/chart/InformaticsChart/InforMaticsBox.tsx -->
<g id="node29" class="node">
<title>component/chart/InformaticsChart/InforMaticsBox.tsx</title>
<path fill="none" stroke="#c6c5fe" d="M1692.33,-23C1692.33,-23 1357.67,-23 1357.67,-23 1353.83,-23 1350,-19.17 1350,-15.33 1350,-15.33 1350,-7.67 1350,-7.67 1350,-3.83 1353.83,0 1357.67,0 1357.67,0 1692.33,0 1692.33,0 1696.17,0 1700,-3.83 1700,-7.67 1700,-7.67 1700,-15.33 1700,-15.33 1700,-19.17 1696.17,-23 1692.33,-23"/>
<text text-anchor="middle" x="1525" y="-7.8" font-family="Arial" font-size="14.00" fill="#c6c5fe">component/chart/InformaticsChart/InforMaticsBox.tsx</text>
</g>
<!-- component/chart/InformaticsChart.tsx&#45;&gt;component/chart/InformaticsChart/InforMaticsBox.tsx -->
<g id="edge40" class="edge">
<title>component/chart/InformaticsChart.tsx&#45;&gt;component/chart/InformaticsChart/InforMaticsBox.tsx</title>
<path fill="none" stroke="#757575" d="M1144.86,-41.56C1210.37,-36.37 1291.32,-29.95 1361.58,-24.38"/>
<polygon fill="#757575" stroke="#757575" points="1361.56,-27.89 1371.25,-23.61 1361,-20.91 1361.56,-27.89"/>
</g>
<!-- component/chart/LineChart.tsx&#45;&gt;common/chart.ts -->
<g id="edge43" class="edge">
<title>component/chart/LineChart.tsx&#45;&gt;common/chart.ts</title>
<path fill="none" stroke="#757575" d="M1123.42,-162.05C1221.6,-154.08 1366.26,-142.32 1452.23,-135.33"/>
<polygon fill="#757575" stroke="#757575" points="1452.51,-138.82 1462.19,-134.52 1451.94,-131.84 1452.51,-138.82"/>
</g>
<!-- component/chart/LineChart.tsx&#45;&gt;types/chart.d.ts -->
<g id="edge45" class="edge">
<title>component/chart/LineChart.tsx&#45;&gt;types/chart.d.ts</title>
<path fill="none" stroke="#757575" d="M1123.42,-179.38C1296.79,-193.2 1637.58,-215.87 1755,-191.5 1814.45,-179.16 1878.15,-147.13 1914.34,-126.95"/>
<polygon fill="#757575" stroke="#757575" points="1915.92,-130.07 1922.9,-122.1 1912.47,-123.98 1915.92,-130.07"/>
</g>
<!-- component/chart/LineChart.tsx&#45;&gt;hook/useResize.tsx -->
<g id="edge44" class="edge">
<title>component/chart/LineChart.tsx&#45;&gt;hook/useResize.tsx</title>
<path fill="none" stroke="#757575" d="M1123.42,-170.5C1218.25,-170.5 1356.44,-170.5 1443.22,-170.5"/>
<polygon fill="#757575" stroke="#757575" points="1443.08,-174 1453.08,-170.5 1443.08,-167 1443.08,-174"/>
</g>
<!-- component/chart/InformaticsChart/InforMaticsBox.tsx&#45;&gt;types/chart.d.ts -->
<g id="edge42" class="edge">
<title>component/chart/InformaticsChart/InforMaticsBox.tsx&#45;&gt;types/chart.d.ts</title>
<path fill="none" stroke="#757575" d="M1679.07,-23.48C1704.62,-27.02 1730.7,-31.59 1755,-37.5 1810.28,-50.94 1871.28,-76.2 1908.63,-92.94"/>
<polygon fill="#757575" stroke="#757575" points="1907.04,-96.07 1917.59,-97.01 1909.93,-89.69 1907.04,-96.07"/>
</g>
<!-- component/common/DatePicker/ListPicker.tsx&#45;&gt;types/datePicker.d.ts -->
<g id="edge48" class="edge">
<title>component/common/DatePicker/ListPicker.tsx&#45;&gt;types/datePicker.d.ts</title>
<path fill="none" stroke="#757575" d="M2099.46,-878.81C2107.5,-878.19 2115.44,-877.59 2123.13,-877"/>
<polygon fill="#757575" stroke="#757575" points="2123.38,-880.5 2133.09,-876.25 2122.85,-873.52 2123.38,-880.5"/>
</g>
<!-- page/Dashboard.tsx&#45;&gt;types/widget.d.ts -->
<g id="edge52" class="edge">
<title>page/Dashboard.tsx&#45;&gt;types/widget.d.ts</title>
<path fill="none" stroke="#757575" d="M344.95,-565.38C364.22,-582.56 402.16,-614.47 439,-634.5 675.22,-762.94 748.62,-811.5 1017.5,-811.5 1017.5,-811.5 1017.5,-811.5 1526,-811.5 1793.34,-811.5 1900.16,-807.2 2099,-628.5 2149.41,-583.2 2184.55,-509.25 2199.87,-472.57"/>
<polygon fill="#757575" stroke="#757575" points="2203.05,-474.03 2203.57,-463.45 2196.56,-471.4 2203.05,-474.03"/>
</g>
<!-- page/Dashboard.tsx&#45;&gt;component/Dashboard/DashboardHeader.tsx -->
<g id="edge49" class="edge">
<title>page/Dashboard.tsx&#45;&gt;component/Dashboard/DashboardHeader.tsx</title>
<path fill="none" stroke="#757575" d="M383.49,-565.5C424.8,-575.12 482.96,-588.68 526.95,-598.93"/>
<polygon fill="#757575" stroke="#757575" points="526.09,-602.32 536.63,-601.18 527.68,-595.5 526.09,-602.32"/>
</g>
<!-- page/Dashboard.tsx&#45;&gt;store/DashboardProvider.tsx -->
<g id="edge51" class="edge">
<title>page/Dashboard.tsx&#45;&gt;store/DashboardProvider.tsx</title>
<path fill="none" stroke="#757575" d="M403.37,-544.83C491.36,-534.34 645.54,-516.57 778,-504.5 1004.23,-483.89 1269.64,-466.23 1415.03,-457.11"/>
<polygon fill="#757575" stroke="#757575" points="1414.88,-460.63 1424.64,-456.51 1414.44,-453.65 1414.88,-460.63"/>
</g>
<!-- page/Dashboard.tsx&#45;&gt;component/Widget.tsx -->
<g id="edge50" class="edge">
<title>page/Dashboard.tsx&#45;&gt;component/Widget.tsx</title>
<path fill="none" stroke="#757575" d="M343.73,-541.56C384.38,-500.21 519.43,-362.8 570.08,-311.26"/>
<polygon fill="#757575" stroke="#757575" points="572.42,-313.87 576.93,-304.29 567.43,-308.97 572.42,-313.87"/>
</g>
</g>
</svg>
