<?xml version="1.0" encoding="UTF-8" standalone="no"?>
<!DOCTYPE svg PUBLIC "-//W3C//DTD SVG 1.1//EN"
 "http://www.w3.org/Graphics/SVG/1.1/DTD/svg11.dtd">
<!-- Generated by graphviz version 7.1.0 (20230121.1956)
 -->
<!-- Title: G Pages: 1 -->
<svg width="2327pt" height="887pt"
 viewBox="0.00 0.00 2327.20 887.20" xmlns="http://www.w3.org/2000/svg" xmlns:xlink="http://www.w3.org/1999/xlink">
<g id="graph0" class="graph" transform="scale(1 1) rotate(0) translate(21.6 865.6)">
<title>G</title>
<polygon fill="#111111" stroke="none" points="-21.6,21.6 -21.6,-865.6 2305.6,-865.6 2305.6,21.6 -21.6,21.6"/>
<!-- App.tsx -->
<g id="node1" class="node">
<title>App.tsx</title>
<path fill="none" stroke="#c6c5fe" d="M57.33,-499C57.33,-499 7.67,-499 7.67,-499 3.83,-499 0,-495.17 0,-491.33 0,-491.33 0,-483.67 0,-483.67 0,-479.83 3.83,-476 7.67,-476 7.67,-476 57.33,-476 57.33,-476 61.17,-476 65,-479.83 65,-483.67 65,-483.67 65,-491.33 65,-491.33 65,-495.17 61.17,-499 57.33,-499"/>
<text text-anchor="middle" x="32.5" y="-483.8" font-family="Arial" font-size="14.00" fill="#c6c5fe">App.tsx</text>
</g>
<!-- router/Router.tsx -->
<g id="node2" class="node">
<title>router/Router.tsx</title>
<path fill="none" stroke="#c6c5fe" d="M215.33,-499C215.33,-499 108.67,-499 108.67,-499 104.83,-499 101,-495.17 101,-491.33 101,-491.33 101,-483.67 101,-483.67 101,-479.83 104.83,-476 108.67,-476 108.67,-476 215.33,-476 215.33,-476 219.17,-476 223,-479.83 223,-483.67 223,-483.67 223,-491.33 223,-491.33 223,-495.17 219.17,-499 215.33,-499"/>
<text text-anchor="middle" x="162" y="-483.8" font-family="Arial" font-size="14.00" fill="#c6c5fe">router/Router.tsx</text>
</g>
<!-- App.tsx&#45;&gt;router/Router.tsx -->
<g id="edge1" class="edge">
<title>App.tsx&#45;&gt;router/Router.tsx</title>
<path fill="none" stroke="#757575" d="M65.34,-487.5C72.7,-487.5 80.81,-487.5 89.12,-487.5"/>
<polygon fill="#757575" stroke="#757575" points="88.99,-491 98.99,-487.5 88.99,-484 88.99,-491"/>
</g>
<!-- page/Dashboard.tsx -->
<g id="node31" class="node">
<title>page/Dashboard.tsx</title>
<path fill="none" stroke="#c6c5fe" d="M395.33,-499C395.33,-499 266.67,-499 266.67,-499 262.83,-499 259,-495.17 259,-491.33 259,-491.33 259,-483.67 259,-483.67 259,-479.83 262.83,-476 266.67,-476 266.67,-476 395.33,-476 395.33,-476 399.17,-476 403,-479.83 403,-483.67 403,-483.67 403,-491.33 403,-491.33 403,-495.17 399.17,-499 395.33,-499"/>
<text text-anchor="middle" x="331" y="-483.8" font-family="Arial" font-size="14.00" fill="#c6c5fe">page/Dashboard.tsx</text>
</g>
<!-- router/Router.tsx&#45;&gt;page/Dashboard.tsx -->
<g id="edge52" class="edge">
<title>router/Router.tsx&#45;&gt;page/Dashboard.tsx</title>
<path fill="none" stroke="#757575" d="M223.29,-487.5C231.1,-487.5 239.21,-487.5 247.3,-487.5"/>
<polygon fill="#757575" stroke="#757575" points="247.19,-491 257.19,-487.5 247.19,-484 247.19,-491"/>
</g>
<!-- api.js -->
<g id="node3" class="node">
<title>api.js</title>
<path fill="none" stroke="#cfffac" d="M1037.83,-204C1037.83,-204 999.17,-204 999.17,-204 995.33,-204 991.5,-200.17 991.5,-196.33 991.5,-196.33 991.5,-188.67 991.5,-188.67 991.5,-184.83 995.33,-181 999.17,-181 999.17,-181 1037.83,-181 1037.83,-181 1041.67,-181 1045.5,-184.83 1045.5,-188.67 1045.5,-188.67 1045.5,-196.33 1045.5,-196.33 1045.5,-200.17 1041.67,-204 1037.83,-204"/>
<text text-anchor="middle" x="1018.5" y="-188.8" font-family="Arial" font-size="14.00" fill="#cfffac">api.js</text>
</g>
<!-- asset/image/pause.png -->
<g id="node4" class="node">
<title>asset/image/pause.png</title>
<path fill="none" stroke="#cfffac" d="M1092.83,-641C1092.83,-641 944.17,-641 944.17,-641 940.33,-641 936.5,-637.17 936.5,-633.33 936.5,-633.33 936.5,-625.67 936.5,-625.67 936.5,-621.83 940.33,-618 944.17,-618 944.17,-618 1092.83,-618 1092.83,-618 1096.67,-618 1100.5,-621.83 1100.5,-625.67 1100.5,-625.67 1100.5,-633.33 1100.5,-633.33 1100.5,-637.17 1096.67,-641 1092.83,-641"/>
<text text-anchor="middle" x="1018.5" y="-625.8" font-family="Arial" font-size="14.00" fill="#cfffac">asset/image/pause.png</text>
</g>
<!-- asset/image/play.png -->
<g id="node5" class="node">
<title>asset/image/play.png</title>
<path fill="none" stroke="#cfffac" d="M1086.33,-600C1086.33,-600 950.67,-600 950.67,-600 946.83,-600 943,-596.17 943,-592.33 943,-592.33 943,-584.67 943,-584.67 943,-580.83 946.83,-577 950.67,-577 950.67,-577 1086.33,-577 1086.33,-577 1090.17,-577 1094,-580.83 1094,-584.67 1094,-584.67 1094,-592.33 1094,-592.33 1094,-596.17 1090.17,-600 1086.33,-600"/>
<text text-anchor="middle" x="1018.5" y="-584.8" font-family="Arial" font-size="14.00" fill="#cfffac">asset/image/play.png</text>
</g>
<!-- common/chart.ts -->
<g id="node6" class="node">
<title>common/chart.ts</title>
<path fill="none" stroke="#c6c5fe" d="M1578.33,-141C1578.33,-141 1471.67,-141 1471.67,-141 1467.83,-141 1464,-137.17 1464,-133.33 1464,-133.33 1464,-125.67 1464,-125.67 1464,-121.83 1467.83,-118 1471.67,-118 1471.67,-118 1578.33,-118 1578.33,-118 1582.17,-118 1586,-121.83 1586,-125.67 1586,-125.67 1586,-133.33 1586,-133.33 1586,-137.17 1582.17,-141 1578.33,-141"/>
<text text-anchor="middle" x="1525" y="-125.8" font-family="Arial" font-size="14.00" fill="#c6c5fe">common/chart.ts</text>
</g>
<!-- types/chart.d.ts -->
<g id="node7" class="node">
<title>types/chart.d.ts</title>
<path fill="none" stroke="#c6c5fe" d="M1993.83,-121C1993.83,-121 1896.17,-121 1896.17,-121 1892.33,-121 1888.5,-117.17 1888.5,-113.33 1888.5,-113.33 1888.5,-105.67 1888.5,-105.67 1888.5,-101.83 1892.33,-98 1896.17,-98 1896.17,-98 1993.83,-98 1993.83,-98 1997.67,-98 2001.5,-101.83 2001.5,-105.67 2001.5,-105.67 2001.5,-113.33 2001.5,-113.33 2001.5,-117.17 1997.67,-121 1993.83,-121"/>
<text text-anchor="middle" x="1945" y="-105.8" font-family="Arial" font-size="14.00" fill="#c6c5fe">types/chart.d.ts</text>
</g>
<!-- common/chart.ts&#45;&gt;types/chart.d.ts -->
<g id="edge2" class="edge">
<title>common/chart.ts&#45;&gt;types/chart.d.ts</title>
<path fill="none" stroke="#757575" d="M1586.33,-126.61C1663.37,-122.93 1796.28,-116.57 1876.58,-112.73"/>
<polygon fill="#757575" stroke="#757575" points="1876.7,-116.22 1886.52,-112.25 1876.36,-109.23 1876.7,-116.22"/>
</g>
<!-- types/widget.d.ts -->
<g id="node9" class="node">
<title>types/widget.d.ts</title>
<path fill="none" stroke="#cfffac" d="M2263.33,-404C2263.33,-404 2155.67,-404 2155.67,-404 2151.83,-404 2148,-400.17 2148,-396.33 2148,-396.33 2148,-388.67 2148,-388.67 2148,-384.83 2151.83,-381 2155.67,-381 2155.67,-381 2263.33,-381 2263.33,-381 2267.17,-381 2271,-384.83 2271,-388.67 2271,-388.67 2271,-396.33 2271,-396.33 2271,-400.17 2267.17,-404 2263.33,-404"/>
<text text-anchor="middle" x="2209.5" y="-388.8" font-family="Arial" font-size="14.00" fill="#cfffac">types/widget.d.ts</text>
</g>
<!-- types/chart.d.ts&#45;&gt;types/widget.d.ts -->
<g id="edge54" class="edge">
<title>types/chart.d.ts&#45;&gt;types/widget.d.ts</title>
<path fill="none" stroke="#757575" d="M1958.69,-121.34C1985.41,-146.44 2049.13,-207.15 2099,-261.5 2133.63,-299.24 2171.39,-345.71 2192.29,-371.93"/>
<polygon fill="#757575" stroke="#757575" points="2189.29,-373.78 2198.24,-379.44 2194.77,-369.43 2189.29,-373.78"/>
</g>
<!-- common/date.ts -->
<g id="node8" class="node">
<title>common/date.ts</title>
<path fill="none" stroke="#c6c5fe" d="M1996.83,-404C1996.83,-404 1893.17,-404 1893.17,-404 1889.33,-404 1885.5,-400.17 1885.5,-396.33 1885.5,-396.33 1885.5,-388.67 1885.5,-388.67 1885.5,-384.83 1889.33,-381 1893.17,-381 1893.17,-381 1996.83,-381 1996.83,-381 2000.67,-381 2004.5,-384.83 2004.5,-388.67 2004.5,-388.67 2004.5,-396.33 2004.5,-396.33 2004.5,-400.17 2000.67,-404 1996.83,-404"/>
<text text-anchor="middle" x="1945" y="-388.8" font-family="Arial" font-size="14.00" fill="#c6c5fe">common/date.ts</text>
</g>
<!-- common/date.ts&#45;&gt;types/widget.d.ts -->
<g id="edge3" class="edge">
<title>common/date.ts&#45;&gt;types/widget.d.ts</title>
<path fill="none" stroke="#757575" d="M2004.91,-392.5C2043.74,-392.5 2094.84,-392.5 2136.14,-392.5"/>
<polygon fill="#757575" stroke="#757575" points="2135.99,-396 2145.99,-392.5 2135.99,-389 2135.99,-396"/>
</g>
<!-- component/Dashboard/DashboardHeader.tsx -->
<g id="node10" class="node">
<title>component/Dashboard/DashboardHeader.tsx</title>
<path fill="none" stroke="#ff6c60" d="M734.33,-559C734.33,-559 446.67,-559 446.67,-559 442.83,-559 439,-555.17 439,-551.33 439,-551.33 439,-543.67 439,-543.67 439,-539.83 442.83,-536 446.67,-536 446.67,-536 734.33,-536 734.33,-536 738.17,-536 742,-539.83 742,-543.67 742,-543.67 742,-551.33 742,-551.33 742,-555.17 738.17,-559 734.33,-559"/>
<text text-anchor="middle" x="590.5" y="-543.8" font-family="Arial" font-size="14.00" fill="#ff6c60">component/Dashboard/DashboardHeader.tsx</text>
</g>
<!-- component/Dashboard/DashboardHeader.tsx&#45;&gt;asset/image/pause.png -->
<g id="edge4" class="edge">
<title>component/Dashboard/DashboardHeader.tsx&#45;&gt;asset/image/pause.png</title>
<path fill="none" stroke="#757575" d="M620.31,-559.47C656.46,-573.92 720.67,-597.75 778,-609.5 825.85,-619.31 880.02,-624.33 924.72,-626.89"/>
<polygon fill="#757575" stroke="#757575" points="924.48,-630.38 934.65,-627.42 924.86,-623.39 924.48,-630.38"/>
</g>
<!-- component/Dashboard/DashboardHeader.tsx&#45;&gt;asset/image/play.png -->
<g id="edge5" class="edge">
<title>component/Dashboard/DashboardHeader.tsx&#45;&gt;asset/image/play.png</title>
<path fill="none" stroke="#757575" d="M693.08,-559.48C720.62,-562.57 750.44,-565.8 778,-568.5 828.82,-573.48 885.78,-578.27 931.4,-581.91"/>
<polygon fill="#757575" stroke="#757575" points="930.99,-585.39 941.24,-582.69 931.54,-578.41 930.99,-585.39"/>
</g>
<!-- component/Dashboard/DashboardHeader/CurrentTime.tsx -->
<g id="node11" class="node">
<title>component/Dashboard/DashboardHeader/CurrentTime.tsx</title>
<path fill="none" stroke="#cfffac" d="M1203.83,-518C1203.83,-518 833.17,-518 833.17,-518 829.33,-518 825.5,-514.17 825.5,-510.33 825.5,-510.33 825.5,-502.67 825.5,-502.67 825.5,-498.83 829.33,-495 833.17,-495 833.17,-495 1203.83,-495 1203.83,-495 1207.67,-495 1211.5,-498.83 1211.5,-502.67 1211.5,-502.67 1211.5,-510.33 1211.5,-510.33 1211.5,-514.17 1207.67,-518 1203.83,-518"/>
<text text-anchor="middle" x="1018.5" y="-502.8" font-family="Arial" font-size="14.00" fill="#cfffac">component/Dashboard/DashboardHeader/CurrentTime.tsx</text>
</g>
<!-- component/Dashboard/DashboardHeader.tsx&#45;&gt;component/Dashboard/DashboardHeader/CurrentTime.tsx -->
<g id="edge6" class="edge">
<title>component/Dashboard/DashboardHeader.tsx&#45;&gt;component/Dashboard/DashboardHeader/CurrentTime.tsx</title>
<path fill="none" stroke="#757575" d="M699.94,-535.51C725.53,-532.78 752.72,-529.96 778,-527.5 805.87,-524.78 835.59,-522.05 864.26,-519.49"/>
<polygon fill="#757575" stroke="#757575" points="864.46,-522.99 874.11,-518.62 863.84,-516.02 864.46,-522.99"/>
</g>
<!-- component/Dashboard/DashboardHeader/DatePickerArea.tsx -->
<g id="node12" class="node">
<title>component/Dashboard/DashboardHeader/DatePickerArea.tsx</title>
<path fill="none" stroke="#ff6c60" d="M1214.33,-682C1214.33,-682 822.67,-682 822.67,-682 818.83,-682 815,-678.17 815,-674.33 815,-674.33 815,-666.67 815,-666.67 815,-662.83 818.83,-659 822.67,-659 822.67,-659 1214.33,-659 1214.33,-659 1218.17,-659 1222,-662.83 1222,-666.67 1222,-666.67 1222,-674.33 1222,-674.33 1222,-678.17 1218.17,-682 1214.33,-682"/>
<text text-anchor="middle" x="1018.5" y="-666.8" font-family="Arial" font-size="14.00" fill="#ff6c60">component/Dashboard/DashboardHeader/DatePickerArea.tsx</text>
</g>
<!-- component/Dashboard/DashboardHeader.tsx&#45;&gt;component/Dashboard/DashboardHeader/DatePickerArea.tsx -->
<g id="edge7" class="edge">
<title>component/Dashboard/DashboardHeader.tsx&#45;&gt;component/Dashboard/DashboardHeader/DatePickerArea.tsx</title>
<path fill="none" stroke="#757575" d="M615.92,-559.43C650.17,-580.55 715.34,-622.53 778,-641.5 801.83,-648.71 827.56,-653.65 853.02,-657.1"/>
<polygon fill="#757575" stroke="#757575" points="852.43,-660.55 862.79,-658.34 853.31,-653.6 852.43,-660.55"/>
</g>
<!-- component/Dashboard/DashboardHeader/SelectRealTimeRangeArea.tsx -->
<g id="node13" class="node">
<title>component/Dashboard/DashboardHeader/SelectRealTimeRangeArea.tsx</title>
<path fill="none" stroke="#ff6c60" d="M1251.33,-559C1251.33,-559 785.67,-559 785.67,-559 781.83,-559 778,-555.17 778,-551.33 778,-551.33 778,-543.67 778,-543.67 778,-539.83 781.83,-536 785.67,-536 785.67,-536 1251.33,-536 1251.33,-536 1255.17,-536 1259,-539.83 1259,-543.67 1259,-543.67 1259,-551.33 1259,-551.33 1259,-555.17 1255.17,-559 1251.33,-559"/>
<text text-anchor="middle" x="1018.5" y="-543.8" font-family="Arial" font-size="14.00" fill="#ff6c60">component/Dashboard/DashboardHeader/SelectRealTimeRangeArea.tsx</text>
</g>
<!-- component/Dashboard/DashboardHeader.tsx&#45;&gt;component/Dashboard/DashboardHeader/SelectRealTimeRangeArea.tsx -->
<g id="edge8" class="edge">
<title>component/Dashboard/DashboardHeader.tsx&#45;&gt;component/Dashboard/DashboardHeader/SelectRealTimeRangeArea.tsx</title>
<path fill="none" stroke="#757575" d="M742.29,-541.01C750.18,-540.94 758.2,-540.89 766.29,-540.85"/>
<polygon fill="#757575" stroke="#757575" points="766.27,-544.35 776.26,-540.8 766.24,-537.35 766.27,-544.35"/>
</g>
<!-- store/DashboardProvider.tsx -->
<g id="node14" class="node">
<title>store/DashboardProvider.tsx</title>
<path fill="none" stroke="#c6c5fe" d="M1615.83,-404C1615.83,-404 1434.17,-404 1434.17,-404 1430.33,-404 1426.5,-400.17 1426.5,-396.33 1426.5,-396.33 1426.5,-388.67 1426.5,-388.67 1426.5,-384.83 1430.33,-381 1434.17,-381 1434.17,-381 1615.83,-381 1615.83,-381 1619.67,-381 1623.5,-384.83 1623.5,-388.67 1623.5,-388.67 1623.5,-396.33 1623.5,-396.33 1623.5,-400.17 1619.67,-404 1615.83,-404"/>
<text text-anchor="middle" x="1525" y="-388.8" font-family="Arial" font-size="14.00" fill="#c6c5fe">store/DashboardProvider.tsx</text>
</g>
<!-- component/Dashboard/DashboardHeader.tsx&#45;&gt;store/DashboardProvider.tsx -->
<g id="edge9" class="edge">
<title>component/Dashboard/DashboardHeader.tsx&#45;&gt;store/DashboardProvider.tsx</title>
<path fill="none" stroke="#757575" d="M620.98,-535.56C657.28,-521.41 721.12,-498.25 778,-486.5 988.23,-443.08 1060.02,-523.06 1259,-442.5 1278.04,-434.79 1275.96,-421.21 1295,-413.5 1332.3,-398.39 1375.73,-391.93 1414.68,-389.64"/>
<polygon fill="#757575" stroke="#757575" points="1414.75,-393.14 1424.56,-389.16 1414.4,-386.15 1414.75,-393.14"/>
</g>
<!-- component/Dashboard/DashboardHeader/DatePickerArea.tsx&#45;&gt;common/date.ts -->
<g id="edge10" class="edge">
<title>component/Dashboard/DashboardHeader/DatePickerArea.tsx&#45;&gt;common/date.ts</title>
<path fill="none" stroke="#757575" d="M1222.37,-659.48C1431.83,-647.52 1731.44,-628.52 1755,-616.5 1845.01,-570.59 1909.1,-461.12 1933.33,-414.32"/>
<polygon fill="#757575" stroke="#757575" points="1936.3,-416.2 1937.69,-405.69 1930.05,-413.04 1936.3,-416.2"/>
</g>
<!-- component/Dashboard/DashboardHeader/DatePickerArea.tsx&#45;&gt;types/widget.d.ts -->
<g id="edge17" class="edge">
<title>component/Dashboard/DashboardHeader/DatePickerArea.tsx&#45;&gt;types/widget.d.ts</title>
<path fill="none" stroke="#757575" d="M1066.87,-682.46C1185.75,-710.29 1505.05,-771.54 1755,-696.5 1946.27,-639.08 2129.87,-470.27 2188.88,-412.31"/>
<polygon fill="#757575" stroke="#757575" points="2191.26,-414.88 2195.89,-405.35 2186.33,-409.91 2191.26,-414.88"/>
</g>
<!-- component/Dashboard/DashboardHeader/DatePickerArea.tsx&#45;&gt;component/Dashboard/DashboardHeader.tsx -->
<g id="edge11" class="edge">
<title>component/Dashboard/DashboardHeader/DatePickerArea.tsx&#45;&gt;component/Dashboard/DashboardHeader.tsx</title>
<path fill="none" stroke="#757575" d="M814.79,-668.66C802.23,-666.13 789.88,-663.1 778,-659.5 711.3,-639.31 641.76,-593.05 609.69,-566.44"/>
<polygon fill="#757575" stroke="#757575" points="612.32,-564.09 602.47,-560.17 607.73,-569.37 612.32,-564.09"/>
</g>
<!-- component/Dashboard/DashboardHeader/DatePickerArea.tsx&#45;&gt;store/DashboardProvider.tsx -->
<g id="edge16" class="edge">
<title>component/Dashboard/DashboardHeader/DatePickerArea.tsx&#45;&gt;store/DashboardProvider.tsx</title>
<path fill="none" stroke="#757575" d="M1069.22,-682.45C1123.24,-692.2 1208.55,-697.65 1259,-650.5 1336.83,-577.75 1217.46,-486.57 1295,-413.5 1337.95,-373.03 1407.65,-372.29 1458.89,-378.9"/>
<polygon fill="#757575" stroke="#757575" points="1458.29,-382.35 1468.68,-380.29 1459.28,-375.42 1458.29,-382.35"/>
</g>
<!-- component/Dashboard/DashboardHeader/DateBox.tsx -->
<g id="node15" class="node">
<title>component/Dashboard/DashboardHeader/DateBox.tsx</title>
<path fill="none" stroke="#cfffac" d="M1698.33,-687C1698.33,-687 1351.67,-687 1351.67,-687 1347.83,-687 1344,-683.17 1344,-679.33 1344,-679.33 1344,-671.67 1344,-671.67 1344,-667.83 1347.83,-664 1351.67,-664 1351.67,-664 1698.33,-664 1698.33,-664 1702.17,-664 1706,-667.83 1706,-671.67 1706,-671.67 1706,-679.33 1706,-679.33 1706,-683.17 1702.17,-687 1698.33,-687"/>
<text text-anchor="middle" x="1525" y="-671.8" font-family="Arial" font-size="14.00" fill="#cfffac">component/Dashboard/DashboardHeader/DateBox.tsx</text>
</g>
<!-- component/Dashboard/DashboardHeader/DatePickerArea.tsx&#45;&gt;component/Dashboard/DashboardHeader/DateBox.tsx -->
<g id="edge12" class="edge">
<title>component/Dashboard/DashboardHeader/DatePickerArea.tsx&#45;&gt;component/Dashboard/DashboardHeader/DateBox.tsx</title>
<path fill="none" stroke="#757575" d="M1222.16,-672.51C1258.53,-672.87 1296.33,-673.24 1332.38,-673.6"/>
<polygon fill="#757575" stroke="#757575" points="1331.96,-677.1 1342,-673.7 1332.03,-670.1 1331.96,-677.1"/>
</g>
<!-- component/common/DatePicker.tsx -->
<g id="node16" class="node">
<title>component/common/DatePicker.tsx</title>
<path fill="none" stroke="#c6c5fe" d="M1638.33,-805C1638.33,-805 1411.67,-805 1411.67,-805 1407.83,-805 1404,-801.17 1404,-797.33 1404,-797.33 1404,-789.67 1404,-789.67 1404,-785.83 1407.83,-782 1411.67,-782 1411.67,-782 1638.33,-782 1638.33,-782 1642.17,-782 1646,-785.83 1646,-789.67 1646,-789.67 1646,-797.33 1646,-797.33 1646,-801.17 1642.17,-805 1638.33,-805"/>
<text text-anchor="middle" x="1525" y="-789.8" font-family="Arial" font-size="14.00" fill="#c6c5fe">component/common/DatePicker.tsx</text>
</g>
<!-- component/Dashboard/DashboardHeader/DatePickerArea.tsx&#45;&gt;component/common/DatePicker.tsx -->
<g id="edge13" class="edge">
<title>component/Dashboard/DashboardHeader/DatePickerArea.tsx&#45;&gt;component/common/DatePicker.tsx</title>
<path fill="none" stroke="#757575" d="M1068.33,-682.41C1161.29,-705.07 1363.37,-754.34 1464.24,-778.93"/>
<polygon fill="#757575" stroke="#757575" points="1463.13,-782.26 1473.67,-781.23 1464.78,-775.46 1463.13,-782.26"/>
</g>
<!-- hook/useBoolean.tsx -->
<g id="node17" class="node">
<title>hook/useBoolean.tsx</title>
<path fill="none" stroke="#cfffac" d="M1591.83,-566C1591.83,-566 1458.17,-566 1458.17,-566 1454.33,-566 1450.5,-562.17 1450.5,-558.33 1450.5,-558.33 1450.5,-550.67 1450.5,-550.67 1450.5,-546.83 1454.33,-543 1458.17,-543 1458.17,-543 1591.83,-543 1591.83,-543 1595.67,-543 1599.5,-546.83 1599.5,-550.67 1599.5,-550.67 1599.5,-558.33 1599.5,-558.33 1599.5,-562.17 1595.67,-566 1591.83,-566"/>
<text text-anchor="middle" x="1525" y="-550.8" font-family="Arial" font-size="14.00" fill="#cfffac">hook/useBoolean.tsx</text>
</g>
<!-- component/Dashboard/DashboardHeader/DatePickerArea.tsx&#45;&gt;hook/useBoolean.tsx -->
<g id="edge14" class="edge">
<title>component/Dashboard/DashboardHeader/DatePickerArea.tsx&#45;&gt;hook/useBoolean.tsx</title>
<path fill="none" stroke="#757575" d="M1095.02,-682.49C1145.69,-686.43 1211.58,-683.17 1259,-650.5 1289.45,-629.52 1264.64,-596.6 1295,-575.5 1336.34,-546.77 1392.52,-541.25 1438.89,-543.04"/>
<polygon fill="#757575" stroke="#757575" points="1438.46,-546.52 1448.63,-543.55 1438.82,-539.53 1438.46,-546.52"/>
</g>
<!-- hook/useOutsideClick.tsx -->
<g id="node18" class="node">
<title>hook/useOutsideClick.tsx</title>
<path fill="none" stroke="#cfffac" d="M1605.33,-607C1605.33,-607 1444.67,-607 1444.67,-607 1440.83,-607 1437,-603.17 1437,-599.33 1437,-599.33 1437,-591.67 1437,-591.67 1437,-587.83 1440.83,-584 1444.67,-584 1444.67,-584 1605.33,-584 1605.33,-584 1609.17,-584 1613,-587.83 1613,-591.67 1613,-591.67 1613,-599.33 1613,-599.33 1613,-603.17 1609.17,-607 1605.33,-607"/>
<text text-anchor="middle" x="1525" y="-591.8" font-family="Arial" font-size="14.00" fill="#cfffac">hook/useOutsideClick.tsx</text>
</g>
<!-- component/Dashboard/DashboardHeader/DatePickerArea.tsx&#45;&gt;hook/useOutsideClick.tsx -->
<g id="edge15" class="edge">
<title>component/Dashboard/DashboardHeader/DatePickerArea.tsx&#45;&gt;hook/useOutsideClick.tsx</title>
<path fill="none" stroke="#757575" d="M1222.42,-662.21C1234.99,-659.05 1247.28,-655.19 1259,-650.5 1278.07,-642.87 1276.04,-629.42 1295,-621.5 1335.67,-604.52 1383.74,-597.33 1425.31,-594.66"/>
<polygon fill="#757575" stroke="#757575" points="1425.27,-598.17 1435.06,-594.12 1424.88,-591.18 1425.27,-598.17"/>
</g>
<!-- component/Dashboard/DashboardHeader/SelectRealTimeRangeArea.tsx&#45;&gt;types/widget.d.ts -->
<g id="edge24" class="edge">
<title>component/Dashboard/DashboardHeader/SelectRealTimeRangeArea.tsx&#45;&gt;types/widget.d.ts</title>
<path fill="none" stroke="#757575" d="M1241.84,-535.52C1421.47,-525.15 1659.55,-509.63 1755,-495.5 1901.42,-473.83 2070.69,-430.37 2155,-407.45"/>
<polygon fill="#757575" stroke="#757575" points="2155.9,-410.83 2164.62,-404.82 2154.05,-404.08 2155.9,-410.83"/>
</g>
<!-- component/Dashboard/DashboardHeader/SelectRealTimeRangeArea.tsx&#45;&gt;component/Dashboard/DashboardHeader.tsx -->
<g id="edge18" class="edge">
<title>component/Dashboard/DashboardHeader/SelectRealTimeRangeArea.tsx&#45;&gt;component/Dashboard/DashboardHeader.tsx</title>
<path fill="none" stroke="#757575" d="M777.77,-554.2C769.71,-554.17 761.71,-554.13 753.8,-554.08"/>
<polygon fill="#757575" stroke="#757575" points="753.83,-550.58 743.8,-554 753.78,-557.58 753.83,-550.58"/>
</g>
<!-- component/Dashboard/DashboardHeader/SelectRealTimeRangeArea.tsx&#45;&gt;store/DashboardProvider.tsx -->
<g id="edge23" class="edge">
<title>component/Dashboard/DashboardHeader/SelectRealTimeRangeArea.tsx&#45;&gt;store/DashboardProvider.tsx</title>
<path fill="none" stroke="#757575" d="M1078.33,-559.47C1131.33,-566.69 1208.47,-567.87 1259,-527.5 1300.51,-494.33 1253.62,-446.83 1295,-413.5 1336.95,-379.7 1398.3,-375.7 1446.94,-379.47"/>
<polygon fill="#757575" stroke="#757575" points="1446.59,-382.95 1456.87,-380.38 1447.23,-375.98 1446.59,-382.95"/>
</g>
<!-- component/Dashboard/DashboardHeader/SelectRealTimeRangeArea.tsx&#45;&gt;hook/useBoolean.tsx -->
<g id="edge21" class="edge">
<title>component/Dashboard/DashboardHeader/SelectRealTimeRangeArea.tsx&#45;&gt;hook/useBoolean.tsx</title>
<path fill="none" stroke="#757575" d="M1259.19,-550.83C1323.58,-551.72 1389.07,-552.63 1438.81,-553.32"/>
<polygon fill="#757575" stroke="#757575" points="1438.57,-556.81 1448.62,-553.45 1438.67,-549.82 1438.57,-556.81"/>
</g>
<!-- component/Dashboard/DashboardHeader/SelectRealTimeRangeArea.tsx&#45;&gt;hook/useOutsideClick.tsx -->
<g id="edge22" class="edge">
<title>component/Dashboard/DashboardHeader/SelectRealTimeRangeArea.tsx&#45;&gt;hook/useOutsideClick.tsx</title>
<path fill="none" stroke="#757575" d="M1182.41,-559.48C1208.09,-562.03 1234.3,-565.03 1259,-568.5 1275.14,-570.77 1278.86,-573.23 1295,-575.5 1337.63,-581.49 1384.98,-585.98 1425.52,-589.18"/>
<polygon fill="#757575" stroke="#757575" points="1425.01,-592.65 1435.25,-589.93 1425.55,-585.67 1425.01,-592.65"/>
</g>
<!-- component/Dashboard/DashboardHeader/RealTime.tsx -->
<g id="node19" class="node">
<title>component/Dashboard/DashboardHeader/RealTime.tsx</title>
<path fill="none" stroke="#cfffac" d="M1701.33,-445C1701.33,-445 1348.67,-445 1348.67,-445 1344.83,-445 1341,-441.17 1341,-437.33 1341,-437.33 1341,-429.67 1341,-429.67 1341,-425.83 1344.83,-422 1348.67,-422 1348.67,-422 1701.33,-422 1701.33,-422 1705.17,-422 1709,-425.83 1709,-429.67 1709,-429.67 1709,-437.33 1709,-437.33 1709,-441.17 1705.17,-445 1701.33,-445"/>
<text text-anchor="middle" x="1525" y="-429.8" font-family="Arial" font-size="14.00" fill="#cfffac">component/Dashboard/DashboardHeader/RealTime.tsx</text>
</g>
<!-- component/Dashboard/DashboardHeader/SelectRealTimeRangeArea.tsx&#45;&gt;component/Dashboard/DashboardHeader/RealTime.tsx -->
<g id="edge19" class="edge">
<title>component/Dashboard/DashboardHeader/SelectRealTimeRangeArea.tsx&#45;&gt;component/Dashboard/DashboardHeader/RealTime.tsx</title>
<path fill="none" stroke="#757575" d="M1097.12,-559.49C1147.44,-563.09 1212.1,-559.45 1259,-527.5 1288.9,-507.13 1265.19,-474.99 1295,-454.5 1305.86,-447.04 1317.73,-441.15 1330.16,-436.55"/>
<polygon fill="#757575" stroke="#757575" points="1330.94,-439.99 1339.3,-433.48 1328.7,-433.35 1330.94,-439.99"/>
</g>
<!-- component/Dashboard/DashboardHeader/SelectRealTimeListItem.tsx -->
<g id="node20" class="node">
<title>component/Dashboard/DashboardHeader/SelectRealTimeListItem.tsx</title>
<path fill="none" stroke="#cfffac" d="M1747.33,-486C1747.33,-486 1302.67,-486 1302.67,-486 1298.83,-486 1295,-482.17 1295,-478.33 1295,-478.33 1295,-470.67 1295,-470.67 1295,-466.83 1298.83,-463 1302.67,-463 1302.67,-463 1747.33,-463 1747.33,-463 1751.17,-463 1755,-466.83 1755,-470.67 1755,-470.67 1755,-478.33 1755,-478.33 1755,-482.17 1751.17,-486 1747.33,-486"/>
<text text-anchor="middle" x="1525" y="-470.8" font-family="Arial" font-size="14.00" fill="#cfffac">component/Dashboard/DashboardHeader/SelectRealTimeListItem.tsx</text>
</g>
<!-- component/Dashboard/DashboardHeader/SelectRealTimeRangeArea.tsx&#45;&gt;component/Dashboard/DashboardHeader/SelectRealTimeListItem.tsx -->
<g id="edge20" class="edge">
<title>component/Dashboard/DashboardHeader/SelectRealTimeRangeArea.tsx&#45;&gt;component/Dashboard/DashboardHeader/SelectRealTimeListItem.tsx</title>
<path fill="none" stroke="#757575" d="M1234.34,-535.58C1242.75,-533.22 1251.01,-530.54 1259,-527.5 1277.69,-520.39 1276.41,-507.89 1295,-500.5 1306.1,-496.09 1317.73,-492.35 1329.61,-489.19"/>
<polygon fill="#757575" stroke="#757575" points="1330.26,-492.64 1339.12,-486.82 1328.57,-485.85 1330.26,-492.64"/>
</g>
<!-- store/DashboardProvider.tsx&#45;&gt;common/date.ts -->
<g id="edge53" class="edge">
<title>store/DashboardProvider.tsx&#45;&gt;common/date.ts</title>
<path fill="none" stroke="#757575" d="M1623.74,-392.5C1700.53,-392.5 1805.61,-392.5 1874.13,-392.5"/>
<polygon fill="#757575" stroke="#757575" points="1873.71,-396 1883.71,-392.5 1873.71,-389 1873.71,-396"/>
</g>
<!-- component/common/DatePicker/ListPicker.tsx -->
<g id="node29" class="node">
<title>component/common/DatePicker/ListPicker.tsx</title>
<path fill="none" stroke="#c6c5fe" d="M2091.33,-844C2091.33,-844 1798.67,-844 1798.67,-844 1794.83,-844 1791,-840.17 1791,-836.33 1791,-836.33 1791,-828.67 1791,-828.67 1791,-824.83 1794.83,-821 1798.67,-821 1798.67,-821 2091.33,-821 2091.33,-821 2095.17,-821 2099,-824.83 2099,-828.67 2099,-828.67 2099,-836.33 2099,-836.33 2099,-840.17 2095.17,-844 2091.33,-844"/>
<text text-anchor="middle" x="1945" y="-828.8" font-family="Arial" font-size="14.00" fill="#c6c5fe">component/common/DatePicker/ListPicker.tsx</text>
</g>
<!-- component/common/DatePicker.tsx&#45;&gt;component/common/DatePicker/ListPicker.tsx -->
<g id="edge45" class="edge">
<title>component/common/DatePicker.tsx&#45;&gt;component/common/DatePicker/ListPicker.tsx</title>
<path fill="none" stroke="#757575" d="M1646.34,-804.73C1695.66,-809.33 1753.07,-814.69 1804.23,-819.46"/>
<polygon fill="#757575" stroke="#757575" points="1803.6,-822.92 1813.88,-820.36 1804.25,-815.95 1803.6,-822.92"/>
</g>
<!-- types/datePicker.d.ts -->
<g id="node30" class="node">
<title>types/datePicker.d.ts</title>
<path fill="none" stroke="#cfffac" d="M2276.33,-824C2276.33,-824 2142.67,-824 2142.67,-824 2138.83,-824 2135,-820.17 2135,-816.33 2135,-816.33 2135,-808.67 2135,-808.67 2135,-804.83 2138.83,-801 2142.67,-801 2142.67,-801 2276.33,-801 2276.33,-801 2280.17,-801 2284,-804.83 2284,-808.67 2284,-808.67 2284,-816.33 2284,-816.33 2284,-820.17 2280.17,-824 2276.33,-824"/>
<text text-anchor="middle" x="2209.5" y="-808.8" font-family="Arial" font-size="14.00" fill="#cfffac">types/datePicker.d.ts</text>
</g>
<!-- component/common/DatePicker.tsx&#45;&gt;types/datePicker.d.ts -->
<g id="edge46" class="edge">
<title>component/common/DatePicker.tsx&#45;&gt;types/datePicker.d.ts</title>
<path fill="none" stroke="#757575" d="M1646.45,-796.85C1783.24,-800.66 2003,-806.78 2123.19,-810.13"/>
<polygon fill="#757575" stroke="#757575" points="2122.9,-813.62 2132.99,-810.4 2123.09,-806.62 2122.9,-813.62"/>
</g>
<!-- component/Widget.tsx -->
<g id="node21" class="node">
<title>component/Widget.tsx</title>
<path fill="none" stroke="#ff6c60" d="M662.33,-286C662.33,-286 518.67,-286 518.67,-286 514.83,-286 511,-282.17 511,-278.33 511,-278.33 511,-270.67 511,-270.67 511,-266.83 514.83,-263 518.67,-263 518.67,-263 662.33,-263 662.33,-263 666.17,-263 670,-266.83 670,-270.67 670,-270.67 670,-278.33 670,-278.33 670,-282.17 666.17,-286 662.33,-286"/>
<text text-anchor="middle" x="590.5" y="-270.8" font-family="Arial" font-size="14.00" fill="#ff6c60">component/Widget.tsx</text>
</g>
<!-- component/Widget.tsx&#45;&gt;api.js -->
<g id="edge25" class="edge">
<title>component/Widget.tsx&#45;&gt;api.js</title>
<path fill="none" stroke="#757575" d="M620.97,-262.53C657.26,-248.33 721.1,-225.14 778,-213.5 848.49,-199.08 932.65,-194.56 980.11,-193.14"/>
<polygon fill="#757575" stroke="#757575" points="979.93,-196.65 989.83,-192.89 979.75,-189.65 979.93,-196.65"/>
</g>
<!-- component/Widget.tsx&#45;&gt;common/date.ts -->
<g id="edge26" class="edge">
<title>component/Widget.tsx&#45;&gt;common/date.ts</title>
<path fill="none" stroke="#757575" d="M623.97,-286.45C660.76,-299.39 722.79,-319.4 778,-328.5 1206.87,-399.22 1321.57,-339.84 1755,-372.5 1794.49,-375.48 1838.49,-380.06 1874.09,-384.08"/>
<polygon fill="#757575" stroke="#757575" points="1873.5,-387.54 1883.84,-385.2 1874.3,-380.58 1873.5,-387.54"/>
</g>
<!-- component/Widget.tsx&#45;&gt;types/widget.d.ts -->
<g id="edge33" class="edge">
<title>component/Widget.tsx&#45;&gt;types/widget.d.ts</title>
<path fill="none" stroke="#757575" d="M670.36,-284.33C703.55,-288.22 742.61,-292.48 778,-295.5 1363.98,-345.53 1515.08,-302.42 2099,-372.5 2112.12,-374.07 2126.04,-376.23 2139.39,-378.55"/>
<polygon fill="#757575" stroke="#757575" points="2138.5,-381.95 2148.96,-380.26 2139.73,-375.06 2138.5,-381.95"/>
</g>
<!-- component/Widget.tsx&#45;&gt;store/DashboardProvider.tsx -->
<g id="edge31" class="edge">
<title>component/Widget.tsx&#45;&gt;store/DashboardProvider.tsx</title>
<path fill="none" stroke="#757575" d="M609.03,-286.35C640.97,-307.19 711.48,-349.76 778,-366.5 998.77,-422.06 1267.84,-413.61 1414.96,-402.84"/>
<polygon fill="#757575" stroke="#757575" points="1414.99,-406.35 1424.7,-402.11 1414.46,-399.37 1414.99,-406.35"/>
</g>
<!-- component/Widget/WidgetModal.tsx -->
<g id="node22" class="node">
<title>component/Widget/WidgetModal.tsx</title>
<path fill="none" stroke="#ff6c60" d="M1134.33,-286C1134.33,-286 902.67,-286 902.67,-286 898.83,-286 895,-282.17 895,-278.33 895,-278.33 895,-270.67 895,-270.67 895,-266.83 898.83,-263 902.67,-263 902.67,-263 1134.33,-263 1134.33,-263 1138.17,-263 1142,-266.83 1142,-270.67 1142,-270.67 1142,-278.33 1142,-278.33 1142,-282.17 1138.17,-286 1134.33,-286"/>
<text text-anchor="middle" x="1018.5" y="-270.8" font-family="Arial" font-size="14.00" fill="#ff6c60">component/Widget/WidgetModal.tsx</text>
</g>
<!-- component/Widget.tsx&#45;&gt;component/Widget/WidgetModal.tsx -->
<g id="edge27" class="edge">
<title>component/Widget.tsx&#45;&gt;component/Widget/WidgetModal.tsx</title>
<path fill="none" stroke="#757575" d="M670.13,-269.12C729.81,-267.7 813.26,-267.38 883.42,-268.18"/>
<polygon fill="#757575" stroke="#757575" points="883,-271.67 893.04,-268.3 883.09,-264.68 883,-271.67"/>
</g>
<!-- component/chart/BarChart.tsx -->
<g id="node23" class="node">
<title>component/chart/BarChart.tsx</title>
<path fill="none" stroke="#c6c5fe" d="M1112.33,-122C1112.33,-122 924.67,-122 924.67,-122 920.83,-122 917,-118.17 917,-114.33 917,-114.33 917,-106.67 917,-106.67 917,-102.83 920.83,-99 924.67,-99 924.67,-99 1112.33,-99 1112.33,-99 1116.17,-99 1120,-102.83 1120,-106.67 1120,-106.67 1120,-114.33 1120,-114.33 1120,-118.17 1116.17,-122 1112.33,-122"/>
<text text-anchor="middle" x="1018.5" y="-106.8" font-family="Arial" font-size="14.00" fill="#c6c5fe">component/chart/BarChart.tsx</text>
</g>
<!-- component/Widget.tsx&#45;&gt;component/chart/BarChart.tsx -->
<g id="edge28" class="edge">
<title>component/Widget.tsx&#45;&gt;component/chart/BarChart.tsx</title>
<path fill="none" stroke="#757575" d="M602.24,-262.51C628.76,-233.85 700.8,-161.51 778,-131.5 817.83,-116.02 864.1,-109.56 905.3,-107.38"/>
<polygon fill="#757575" stroke="#757575" points="905.42,-110.88 915.26,-106.95 905.12,-103.89 905.42,-110.88"/>
</g>
<!-- component/chart/InformaticsChart.tsx -->
<g id="node24" class="node">
<title>component/chart/InformaticsChart.tsx</title>
<path fill="none" stroke="#c6c5fe" d="M1136.83,-63C1136.83,-63 900.17,-63 900.17,-63 896.33,-63 892.5,-59.17 892.5,-55.33 892.5,-55.33 892.5,-47.67 892.5,-47.67 892.5,-43.83 896.33,-40 900.17,-40 900.17,-40 1136.83,-40 1136.83,-40 1140.67,-40 1144.5,-43.83 1144.5,-47.67 1144.5,-47.67 1144.5,-55.33 1144.5,-55.33 1144.5,-59.17 1140.67,-63 1136.83,-63"/>
<text text-anchor="middle" x="1018.5" y="-47.8" font-family="Arial" font-size="14.00" fill="#c6c5fe">component/chart/InformaticsChart.tsx</text>
</g>
<!-- component/Widget.tsx&#45;&gt;component/chart/InformaticsChart.tsx -->
<g id="edge29" class="edge">
<title>component/Widget.tsx&#45;&gt;component/chart/InformaticsChart.tsx</title>
<path fill="none" stroke="#757575" d="M599.48,-262.52C622.57,-228.95 693.25,-133.56 778,-90.5 809.43,-74.53 845.91,-64.84 880.78,-59.02"/>
<polygon fill="#757575" stroke="#757575" points="881.2,-62.49 890.54,-57.5 880.12,-55.58 881.2,-62.49"/>
</g>
<!-- component/chart/LineChart.tsx -->
<g id="node25" class="node">
<title>component/chart/LineChart.tsx</title>
<path fill="none" stroke="#c6c5fe" d="M1115.33,-163C1115.33,-163 921.67,-163 921.67,-163 917.83,-163 914,-159.17 914,-155.33 914,-155.33 914,-147.67 914,-147.67 914,-143.83 917.83,-140 921.67,-140 921.67,-140 1115.33,-140 1115.33,-140 1119.17,-140 1123,-143.83 1123,-147.67 1123,-147.67 1123,-155.33 1123,-155.33 1123,-159.17 1119.17,-163 1115.33,-163"/>
<text text-anchor="middle" x="1018.5" y="-147.8" font-family="Arial" font-size="14.00" fill="#c6c5fe">component/chart/LineChart.tsx</text>
</g>
<!-- component/Widget.tsx&#45;&gt;component/chart/LineChart.tsx -->
<g id="edge30" class="edge">
<title>component/Widget.tsx&#45;&gt;component/chart/LineChart.tsx</title>
<path fill="none" stroke="#757575" d="M607.44,-262.76C638.45,-240.63 709.83,-193.14 778,-172.5 817.53,-160.53 862.29,-154.68 902.33,-152"/>
<polygon fill="#757575" stroke="#757575" points="902.48,-155.5 912.25,-151.4 902.06,-148.51 902.48,-155.5"/>
</g>
<!-- types/api.d.ts -->
<g id="node26" class="node">
<title>types/api.d.ts</title>
<path fill="none" stroke="#cfffac" d="M1061.33,-245C1061.33,-245 975.67,-245 975.67,-245 971.83,-245 968,-241.17 968,-237.33 968,-237.33 968,-229.67 968,-229.67 968,-225.83 971.83,-222 975.67,-222 975.67,-222 1061.33,-222 1061.33,-222 1065.17,-222 1069,-225.83 1069,-229.67 1069,-229.67 1069,-237.33 1069,-237.33 1069,-241.17 1065.17,-245 1061.33,-245"/>
<text text-anchor="middle" x="1018.5" y="-229.8" font-family="Arial" font-size="14.00" fill="#cfffac">types/api.d.ts</text>
</g>
<!-- component/Widget.tsx&#45;&gt;types/api.d.ts -->
<g id="edge32" class="edge">
<title>component/Widget.tsx&#45;&gt;types/api.d.ts</title>
<path fill="none" stroke="#757575" d="M670.41,-265.7C703.62,-262.08 742.67,-257.94 778,-254.5 838.77,-248.58 908.28,-242.57 956.71,-238.5"/>
<polygon fill="#757575" stroke="#757575" points="956.75,-242.01 966.43,-237.69 956.17,-235.04 956.75,-242.01"/>
</g>
<!-- component/Widget/WidgetModal.tsx&#45;&gt;types/widget.d.ts -->
<g id="edge35" class="edge">
<title>component/Widget/WidgetModal.tsx&#45;&gt;types/widget.d.ts</title>
<path fill="none" stroke="#757575" d="M1142.22,-267.36C1387.04,-254.76 1927.37,-235.62 2099,-300.5 2137.61,-315.1 2172.25,-349.53 2191.8,-371.89"/>
<polygon fill="#757575" stroke="#757575" points="2189.1,-374.12 2198.24,-379.48 2194.44,-369.59 2189.1,-374.12"/>
</g>
<!-- component/Widget/WidgetModal.tsx&#45;&gt;component/Widget.tsx -->
<g id="edge34" class="edge">
<title>component/Widget/WidgetModal.tsx&#45;&gt;component/Widget.tsx</title>
<path fill="none" stroke="#757575" d="M894.56,-280.68C826.5,-281.59 743.4,-281.41 681.45,-280.13"/>
<polygon fill="#757575" stroke="#757575" points="681.72,-276.63 671.64,-279.91 681.56,-283.63 681.72,-276.63"/>
</g>
<!-- component/chart/BarChart.tsx&#45;&gt;common/chart.ts -->
<g id="edge36" class="edge">
<title>component/chart/BarChart.tsx&#45;&gt;common/chart.ts</title>
<path fill="none" stroke="#757575" d="M1120.38,-114.3C1218.63,-118 1365.48,-123.53 1452.32,-126.8"/>
<polygon fill="#757575" stroke="#757575" points="1452.01,-130.29 1462.14,-127.17 1452.27,-123.3 1452.01,-130.29"/>
</g>
<!-- component/chart/BarChart.tsx&#45;&gt;types/chart.d.ts -->
<g id="edge38" class="edge">
<title>component/chart/BarChart.tsx&#45;&gt;types/chart.d.ts</title>
<path fill="none" stroke="#757575" d="M1120.26,-110.05C1172.41,-109.83 1237.13,-109.61 1295,-109.5 1507.36,-109.11 1758.81,-109.3 1876.68,-109.42"/>
<polygon fill="#757575" stroke="#757575" points="1876.49,-112.92 1886.49,-109.43 1876.5,-105.92 1876.49,-112.92"/>
</g>
<!-- hook/useResize.tsx -->
<g id="node27" class="node">
<title>hook/useResize.tsx</title>
<path fill="none" stroke="#cfffac" d="M1587.33,-182C1587.33,-182 1462.67,-182 1462.67,-182 1458.83,-182 1455,-178.17 1455,-174.33 1455,-174.33 1455,-166.67 1455,-166.67 1455,-162.83 1458.83,-159 1462.67,-159 1462.67,-159 1587.33,-159 1587.33,-159 1591.17,-159 1595,-162.83 1595,-166.67 1595,-166.67 1595,-174.33 1595,-174.33 1595,-178.17 1591.17,-182 1587.33,-182"/>
<text text-anchor="middle" x="1525" y="-166.8" font-family="Arial" font-size="14.00" fill="#cfffac">hook/useResize.tsx</text>
</g>
<!-- component/chart/BarChart.tsx&#45;&gt;hook/useResize.tsx -->
<g id="edge37" class="edge">
<title>component/chart/BarChart.tsx&#45;&gt;hook/useResize.tsx</title>
<path fill="none" stroke="#757575" d="M1120.49,-110.49C1163.86,-112.74 1214.66,-118.43 1259,-131.5 1276.35,-136.61 1277.65,-145.39 1295,-150.5 1342.9,-164.6 1398.67,-169.7 1443.18,-171.22"/>
<polygon fill="#757575" stroke="#757575" points="1442.93,-174.72 1453.03,-171.5 1443.13,-167.72 1442.93,-174.72"/>
</g>
<!-- component/chart/InformaticsChart.tsx&#45;&gt;types/chart.d.ts -->
<g id="edge40" class="edge">
<title>component/chart/InformaticsChart.tsx&#45;&gt;types/chart.d.ts</title>
<path fill="none" stroke="#757575" d="M1144.66,-59.35C1343.18,-71.81 1723.45,-95.66 1877.12,-105.3"/>
<polygon fill="#757575" stroke="#757575" points="1876.51,-108.77 1886.71,-105.91 1876.95,-101.79 1876.51,-108.77"/>
</g>
<!-- component/chart/InformaticsChart/InforMaticsBox.tsx -->
<g id="node28" class="node">
<title>component/chart/InformaticsChart/InforMaticsBox.tsx</title>
<path fill="none" stroke="#c6c5fe" d="M1692.33,-23C1692.33,-23 1357.67,-23 1357.67,-23 1353.83,-23 1350,-19.17 1350,-15.33 1350,-15.33 1350,-7.67 1350,-7.67 1350,-3.83 1353.83,0 1357.67,0 1357.67,0 1692.33,0 1692.33,0 1696.17,0 1700,-3.83 1700,-7.67 1700,-7.67 1700,-15.33 1700,-15.33 1700,-19.17 1696.17,-23 1692.33,-23"/>
<text text-anchor="middle" x="1525" y="-7.8" font-family="Arial" font-size="14.00" fill="#c6c5fe">component/chart/InformaticsChart/InforMaticsBox.tsx</text>
</g>
<!-- component/chart/InformaticsChart.tsx&#45;&gt;component/chart/InformaticsChart/InforMaticsBox.tsx -->
<g id="edge39" class="edge">
<title>component/chart/InformaticsChart.tsx&#45;&gt;component/chart/InformaticsChart/InforMaticsBox.tsx</title>
<path fill="none" stroke="#757575" d="M1144.86,-41.56C1210.37,-36.37 1291.32,-29.95 1361.58,-24.38"/>
<polygon fill="#757575" stroke="#757575" points="1361.56,-27.89 1371.25,-23.61 1361,-20.91 1361.56,-27.89"/>
</g>
<!-- component/chart/LineChart.tsx&#45;&gt;common/chart.ts -->
<g id="edge42" class="edge">
<title>component/chart/LineChart.tsx&#45;&gt;common/chart.ts</title>
<path fill="none" stroke="#757575" d="M1123.42,-146.97C1221.6,-142.69 1366.26,-136.38 1452.23,-132.63"/>
<polygon fill="#757575" stroke="#757575" points="1452.35,-136.13 1462.19,-132.2 1452.04,-129.13 1452.35,-136.13"/>
</g>
<!-- component/chart/LineChart.tsx&#45;&gt;types/chart.d.ts -->
<g id="edge44" class="edge">
<title>component/chart/LineChart.tsx&#45;&gt;types/chart.d.ts</title>
<path fill="none" stroke="#757575" d="M1123.44,-151.65C1166.15,-154 1215.66,-159.73 1259,-172.5 1276.35,-177.61 1277.44,-187.15 1295,-191.5 1493.45,-240.66 1554.82,-233.05 1755,-191.5 1814.45,-179.16 1878.15,-147.13 1914.34,-126.95"/>
<polygon fill="#757575" stroke="#757575" points="1915.92,-130.07 1922.9,-122.1 1912.47,-123.98 1915.92,-130.07"/>
</g>
<!-- component/chart/LineChart.tsx&#45;&gt;hook/useResize.tsx -->
<g id="edge43" class="edge">
<title>component/chart/LineChart.tsx&#45;&gt;hook/useResize.tsx</title>
<path fill="none" stroke="#757575" d="M1123.42,-155.41C1218.25,-158.98 1356.44,-164.19 1443.22,-167.46"/>
<polygon fill="#757575" stroke="#757575" points="1442.96,-170.95 1453.08,-167.83 1443.22,-163.96 1442.96,-170.95"/>
</g>
<!-- component/chart/InformaticsChart/InforMaticsBox.tsx&#45;&gt;types/chart.d.ts -->
<g id="edge41" class="edge">
<title>component/chart/InformaticsChart/InforMaticsBox.tsx&#45;&gt;types/chart.d.ts</title>
<path fill="none" stroke="#757575" d="M1679.07,-23.48C1704.62,-27.02 1730.7,-31.59 1755,-37.5 1810.28,-50.94 1871.28,-76.2 1908.63,-92.94"/>
<polygon fill="#757575" stroke="#757575" points="1907.04,-96.07 1917.59,-97.01 1909.93,-89.69 1907.04,-96.07"/>
</g>
<!-- component/common/DatePicker/ListPicker.tsx&#45;&gt;types/datePicker.d.ts -->
<g id="edge47" class="edge">
<title>component/common/DatePicker/ListPicker.tsx&#45;&gt;types/datePicker.d.ts</title>
<path fill="none" stroke="#757575" d="M2099.46,-820.81C2107.5,-820.19 2115.44,-819.59 2123.13,-819"/>
<polygon fill="#757575" stroke="#757575" points="2123.38,-822.5 2133.09,-818.25 2122.85,-815.52 2123.38,-822.5"/>
</g>
<!-- page/Dashboard.tsx&#45;&gt;types/widget.d.ts -->
<g id="edge51" class="edge">
<title>page/Dashboard.tsx&#45;&gt;types/widget.d.ts</title>
<path fill="none" stroke="#757575" d="M344.95,-499.38C364.22,-516.56 402.16,-548.47 439,-568.5 676.15,-697.45 747.56,-753.5 1017.5,-753.5 1017.5,-753.5 1017.5,-753.5 1526,-753.5 1789.36,-753.5 1900.89,-776.03 2099,-602.5 2158.53,-550.36 2190.44,-457.93 2202.61,-415.26"/>
<polygon fill="#757575" stroke="#757575" points="2205.92,-416.42 2205.19,-405.85 2199.17,-414.57 2205.92,-416.42"/>
</g>
<!-- page/Dashboard.tsx&#45;&gt;component/Dashboard/DashboardHeader.tsx -->
<g id="edge48" class="edge">
<title>page/Dashboard.tsx&#45;&gt;component/Dashboard/DashboardHeader.tsx</title>
<path fill="none" stroke="#757575" d="M383.49,-499.5C424.8,-509.12 482.96,-522.68 526.95,-532.93"/>
<polygon fill="#757575" stroke="#757575" points="526.09,-536.32 536.63,-535.18 527.68,-529.5 526.09,-536.32"/>
</g>
<!-- page/Dashboard.tsx&#45;&gt;store/DashboardProvider.tsx -->
<g id="edge50" class="edge">
<title>page/Dashboard.tsx&#45;&gt;store/DashboardProvider.tsx</title>
<path fill="none" stroke="#757575" d="M403.38,-479.55C491.39,-469.92 645.58,-453.61 778,-442.5 1004.29,-423.51 1269.68,-407.12 1415.05,-398.65"/>
<polygon fill="#757575" stroke="#757575" points="1414.87,-402.17 1424.65,-398.09 1414.47,-395.18 1414.87,-402.17"/>
</g>
<!-- page/Dashboard.tsx&#45;&gt;component/Widget.tsx -->
<g id="edge49" class="edge">
<title>page/Dashboard.tsx&#45;&gt;component/Widget.tsx</title>
<path fill="none" stroke="#757575" d="M346.21,-475.74C388.58,-440.7 514.32,-336.69 566.46,-293.56"/>
<polygon fill="#757575" stroke="#757575" points="568.37,-296.52 573.85,-287.45 563.91,-291.12 568.37,-296.52"/>
</g>
</g>
</svg>
