<?xml version="1.0" encoding="UTF-8" standalone="no"?>
<!DOCTYPE svg PUBLIC "-//W3C//DTD SVG 1.1//EN"
 "http://www.w3.org/Graphics/SVG/1.1/DTD/svg11.dtd">
<!-- Generated by graphviz version 7.1.0 (20230121.1956)
 -->
<!-- Title: G Pages: 1 -->
<svg width="3509pt" height="1212pt"
 viewBox="0.00 0.00 3509.20 1212.33" xmlns="http://www.w3.org/2000/svg" xmlns:xlink="http://www.w3.org/1999/xlink">
<g id="graph0" class="graph" transform="scale(1 1) rotate(0) translate(21.6 1190.73)">
<title>G</title>
<polygon fill="#111111" stroke="none" points="-21.6,21.6 -21.6,-1190.73 3487.6,-1190.73 3487.6,21.6 -21.6,21.6"/>
<!-- App.tsx -->
<g id="node1" class="node">
<title>App.tsx</title>
<path fill="none" stroke="#c6c5fe" d="M57.33,-527.5C57.33,-527.5 7.67,-527.5 7.67,-527.5 3.83,-527.5 0,-523.67 0,-519.83 0,-519.83 0,-512.17 0,-512.17 0,-508.33 3.83,-504.5 7.67,-504.5 7.67,-504.5 57.33,-504.5 57.33,-504.5 61.17,-504.5 65,-508.33 65,-512.17 65,-512.17 65,-519.83 65,-519.83 65,-523.67 61.17,-527.5 57.33,-527.5"/>
<text text-anchor="middle" x="32.5" y="-512.3" font-family="Arial" font-size="14.00" fill="#c6c5fe">App.tsx</text>
</g>
<!-- router/Router.tsx -->
<g id="node2" class="node">
<title>router/Router.tsx</title>
<path fill="none" stroke="#c6c5fe" d="M215.33,-527.5C215.33,-527.5 108.67,-527.5 108.67,-527.5 104.83,-527.5 101,-523.67 101,-519.83 101,-519.83 101,-512.17 101,-512.17 101,-508.33 104.83,-504.5 108.67,-504.5 108.67,-504.5 215.33,-504.5 215.33,-504.5 219.17,-504.5 223,-508.33 223,-512.17 223,-512.17 223,-519.83 223,-519.83 223,-523.67 219.17,-527.5 215.33,-527.5"/>
<text text-anchor="middle" x="162" y="-512.3" font-family="Arial" font-size="14.00" fill="#c6c5fe">router/Router.tsx</text>
</g>
<!-- App.tsx&#45;&gt;router/Router.tsx -->
<g id="edge1" class="edge">
<title>App.tsx&#45;&gt;router/Router.tsx</title>
<path fill="none" stroke="#757575" d="M65.34,-516C72.7,-516 80.81,-516 89.12,-516"/>
<polygon fill="#757575" stroke="#757575" points="88.99,-519.5 98.99,-516 88.99,-512.5 88.99,-519.5"/>
</g>
<!-- page/Dashboard.tsx -->
<g id="node49" class="node">
<title>page/Dashboard.tsx</title>
<path fill="none" stroke="#c6c5fe" d="M395.33,-527.5C395.33,-527.5 266.67,-527.5 266.67,-527.5 262.83,-527.5 259,-523.67 259,-519.83 259,-519.83 259,-512.17 259,-512.17 259,-508.33 262.83,-504.5 266.67,-504.5 266.67,-504.5 395.33,-504.5 395.33,-504.5 399.17,-504.5 403,-508.33 403,-512.17 403,-512.17 403,-519.83 403,-519.83 403,-523.67 399.17,-527.5 395.33,-527.5"/>
<text text-anchor="middle" x="331" y="-512.3" font-family="Arial" font-size="14.00" fill="#c6c5fe">page/Dashboard.tsx</text>
</g>
<!-- router/Router.tsx&#45;&gt;page/Dashboard.tsx -->
<g id="edge78" class="edge">
<title>router/Router.tsx&#45;&gt;page/Dashboard.tsx</title>
<path fill="none" stroke="#757575" d="M223.29,-516C231.1,-516 239.21,-516 247.3,-516"/>
<polygon fill="#757575" stroke="#757575" points="247.19,-519.5 257.19,-516 247.19,-512.5 247.19,-519.5"/>
</g>
<!-- asset/image/pause.png -->
<g id="node3" class="node">
<title>asset/image/pause.png</title>
<path fill="none" stroke="#cfffac" d="M1619.83,-1048.5C1619.83,-1048.5 1471.17,-1048.5 1471.17,-1048.5 1467.33,-1048.5 1463.5,-1044.67 1463.5,-1040.83 1463.5,-1040.83 1463.5,-1033.17 1463.5,-1033.17 1463.5,-1029.33 1467.33,-1025.5 1471.17,-1025.5 1471.17,-1025.5 1619.83,-1025.5 1619.83,-1025.5 1623.67,-1025.5 1627.5,-1029.33 1627.5,-1033.17 1627.5,-1033.17 1627.5,-1040.83 1627.5,-1040.83 1627.5,-1044.67 1623.67,-1048.5 1619.83,-1048.5"/>
<text text-anchor="middle" x="1545.5" y="-1033.3" font-family="Arial" font-size="14.00" fill="#cfffac">asset/image/pause.png</text>
</g>
<!-- asset/image/play.png -->
<g id="node4" class="node">
<title>asset/image/play.png</title>
<path fill="none" stroke="#cfffac" d="M1613.33,-1089.5C1613.33,-1089.5 1477.67,-1089.5 1477.67,-1089.5 1473.83,-1089.5 1470,-1085.67 1470,-1081.83 1470,-1081.83 1470,-1074.17 1470,-1074.17 1470,-1070.33 1473.83,-1066.5 1477.67,-1066.5 1477.67,-1066.5 1613.33,-1066.5 1613.33,-1066.5 1617.17,-1066.5 1621,-1070.33 1621,-1074.17 1621,-1074.17 1621,-1081.83 1621,-1081.83 1621,-1085.67 1617.17,-1089.5 1613.33,-1089.5"/>
<text text-anchor="middle" x="1545.5" y="-1074.3" font-family="Arial" font-size="14.00" fill="#cfffac">asset/image/play.png</text>
</g>
<!-- common/api.ts -->
<g id="node5" class="node">
<title>common/api.ts</title>
<path fill="none" stroke="#c6c5fe" d="M2100.83,-607.5C2100.83,-607.5 2006.17,-607.5 2006.17,-607.5 2002.33,-607.5 1998.5,-603.67 1998.5,-599.83 1998.5,-599.83 1998.5,-592.17 1998.5,-592.17 1998.5,-588.33 2002.33,-584.5 2006.17,-584.5 2006.17,-584.5 2100.83,-584.5 2100.83,-584.5 2104.67,-584.5 2108.5,-588.33 2108.5,-592.17 2108.5,-592.17 2108.5,-599.83 2108.5,-599.83 2108.5,-603.67 2104.67,-607.5 2100.83,-607.5"/>
<text text-anchor="middle" x="2053.5" y="-592.3" font-family="Arial" font-size="14.00" fill="#c6c5fe">common/api.ts</text>
</g>
<!-- types/api.d.ts -->
<g id="node6" class="node">
<title>types/api.d.ts</title>
<path fill="none" stroke="#cfffac" d="M2535.33,-607.5C2535.33,-607.5 2449.67,-607.5 2449.67,-607.5 2445.83,-607.5 2442,-603.67 2442,-599.83 2442,-599.83 2442,-592.17 2442,-592.17 2442,-588.33 2445.83,-584.5 2449.67,-584.5 2449.67,-584.5 2535.33,-584.5 2535.33,-584.5 2539.17,-584.5 2543,-588.33 2543,-592.17 2543,-592.17 2543,-599.83 2543,-599.83 2543,-603.67 2539.17,-607.5 2535.33,-607.5"/>
<text text-anchor="middle" x="2492.5" y="-592.3" font-family="Arial" font-size="14.00" fill="#cfffac">types/api.d.ts</text>
</g>
<!-- common/api.ts&#45;&gt;types/api.d.ts -->
<g id="edge2" class="edge">
<title>common/api.ts&#45;&gt;types/api.d.ts</title>
<path fill="none" stroke="#757575" d="M2108.96,-596C2190.77,-596 2344.89,-596 2430.41,-596"/>
<polygon fill="#757575" stroke="#757575" points="2430.25,-599.5 2440.25,-596 2430.25,-592.5 2430.25,-599.5"/>
</g>
<!-- common/chart.ts -->
<g id="node7" class="node">
<title>common/chart.ts</title>
<path fill="none" stroke="#c6c5fe" d="M2106.83,-89.5C2106.83,-89.5 2000.17,-89.5 2000.17,-89.5 1996.33,-89.5 1992.5,-85.67 1992.5,-81.83 1992.5,-81.83 1992.5,-74.17 1992.5,-74.17 1992.5,-70.33 1996.33,-66.5 2000.17,-66.5 2000.17,-66.5 2106.83,-66.5 2106.83,-66.5 2110.67,-66.5 2114.5,-70.33 2114.5,-74.17 2114.5,-74.17 2114.5,-81.83 2114.5,-81.83 2114.5,-85.67 2110.67,-89.5 2106.83,-89.5"/>
<text text-anchor="middle" x="2053.5" y="-74.3" font-family="Arial" font-size="14.00" fill="#c6c5fe">common/chart.ts</text>
</g>
<!-- types/chart.d.ts -->
<g id="node8" class="node">
<title>types/chart.d.ts</title>
<path fill="none" stroke="#cfffac" d="M2541.33,-251.5C2541.33,-251.5 2443.67,-251.5 2443.67,-251.5 2439.83,-251.5 2436,-247.67 2436,-243.83 2436,-243.83 2436,-236.17 2436,-236.17 2436,-232.33 2439.83,-228.5 2443.67,-228.5 2443.67,-228.5 2541.33,-228.5 2541.33,-228.5 2545.17,-228.5 2549,-232.33 2549,-236.17 2549,-236.17 2549,-243.83 2549,-243.83 2549,-247.67 2545.17,-251.5 2541.33,-251.5"/>
<text text-anchor="middle" x="2492.5" y="-236.3" font-family="Arial" font-size="14.00" fill="#cfffac">types/chart.d.ts</text>
</g>
<!-- common/chart.ts&#45;&gt;types/chart.d.ts -->
<g id="edge3" class="edge">
<title>common/chart.ts&#45;&gt;types/chart.d.ts</title>
<path fill="none" stroke="#757575" d="M2114.54,-74.94C2162.13,-74.45 2229.61,-78.13 2285,-98 2361.31,-125.38 2435.95,-188.14 2470.91,-220.27"/>
<polygon fill="#757575" stroke="#757575" points="2468.5,-222.8 2478.2,-227.06 2473.27,-217.68 2468.5,-222.8"/>
</g>
<!-- common/date.ts -->
<g id="node9" class="node">
<title>common/date.ts</title>
<path fill="none" stroke="#cfffac" d="M2544.33,-767.5C2544.33,-767.5 2440.67,-767.5 2440.67,-767.5 2436.83,-767.5 2433,-763.67 2433,-759.83 2433,-759.83 2433,-752.17 2433,-752.17 2433,-748.33 2436.83,-744.5 2440.67,-744.5 2440.67,-744.5 2544.33,-744.5 2544.33,-744.5 2548.17,-744.5 2552,-748.33 2552,-752.17 2552,-752.17 2552,-759.83 2552,-759.83 2552,-763.67 2548.17,-767.5 2544.33,-767.5"/>
<text text-anchor="middle" x="2492.5" y="-752.3" font-family="Arial" font-size="14.00" fill="#cfffac">common/date.ts</text>
</g>
<!-- common/widget.ts -->
<g id="node10" class="node">
<title>common/widget.ts</title>
<path fill="none" stroke="#cfffac" d="M2111.83,-451.5C2111.83,-451.5 1995.17,-451.5 1995.17,-451.5 1991.33,-451.5 1987.5,-447.67 1987.5,-443.83 1987.5,-443.83 1987.5,-436.17 1987.5,-436.17 1987.5,-432.33 1991.33,-428.5 1995.17,-428.5 1995.17,-428.5 2111.83,-428.5 2111.83,-428.5 2115.67,-428.5 2119.5,-432.33 2119.5,-436.17 2119.5,-436.17 2119.5,-443.83 2119.5,-443.83 2119.5,-447.67 2115.67,-451.5 2111.83,-451.5"/>
<text text-anchor="middle" x="2053.5" y="-436.3" font-family="Arial" font-size="14.00" fill="#cfffac">common/widget.ts</text>
</g>
<!-- component/Dashboard/CommonStyle.ts -->
<g id="node11" class="node">
<title>component/Dashboard/CommonStyle.ts</title>
<path fill="none" stroke="#cfffac" d="M3458.33,-1004.5C3458.33,-1004.5 3203.67,-1004.5 3203.67,-1004.5 3199.83,-1004.5 3196,-1000.67 3196,-996.83 3196,-996.83 3196,-989.17 3196,-989.17 3196,-985.33 3199.83,-981.5 3203.67,-981.5 3203.67,-981.5 3458.33,-981.5 3458.33,-981.5 3462.17,-981.5 3466,-985.33 3466,-989.17 3466,-989.17 3466,-996.83 3466,-996.83 3466,-1000.67 3462.17,-1004.5 3458.33,-1004.5"/>
<text text-anchor="middle" x="3331" y="-989.3" font-family="Arial" font-size="14.00" fill="#cfffac">component/Dashboard/CommonStyle.ts</text>
</g>
<!-- component/Dashboard/DashboardHeader.tsx -->
<g id="node12" class="node">
<title>component/Dashboard/DashboardHeader.tsx</title>
<path fill="none" stroke="#c6c5fe" d="M747.33,-801.5C747.33,-801.5 459.67,-801.5 459.67,-801.5 455.83,-801.5 452,-797.67 452,-793.83 452,-793.83 452,-786.17 452,-786.17 452,-782.33 455.83,-778.5 459.67,-778.5 459.67,-778.5 747.33,-778.5 747.33,-778.5 751.17,-778.5 755,-782.33 755,-786.17 755,-786.17 755,-793.83 755,-793.83 755,-797.67 751.17,-801.5 747.33,-801.5"/>
<text text-anchor="middle" x="603.5" y="-786.3" font-family="Arial" font-size="14.00" fill="#c6c5fe">component/Dashboard/DashboardHeader.tsx</text>
</g>
<!-- component/Dashboard/DashboardHeader/PlayIcon.tsx -->
<g id="node13" class="node">
<title>component/Dashboard/DashboardHeader/PlayIcon.tsx</title>
<path fill="none" stroke="#c6c5fe" d="M1209.83,-1048.5C1209.83,-1048.5 863.17,-1048.5 863.17,-1048.5 859.33,-1048.5 855.5,-1044.67 855.5,-1040.83 855.5,-1040.83 855.5,-1033.17 855.5,-1033.17 855.5,-1029.33 859.33,-1025.5 863.17,-1025.5 863.17,-1025.5 1209.83,-1025.5 1209.83,-1025.5 1213.67,-1025.5 1217.5,-1029.33 1217.5,-1033.17 1217.5,-1033.17 1217.5,-1040.83 1217.5,-1040.83 1217.5,-1044.67 1213.67,-1048.5 1209.83,-1048.5"/>
<text text-anchor="middle" x="1036.5" y="-1033.3" font-family="Arial" font-size="14.00" fill="#c6c5fe">component/Dashboard/DashboardHeader/PlayIcon.tsx</text>
</g>
<!-- component/Dashboard/DashboardHeader.tsx&#45;&gt;component/Dashboard/DashboardHeader/PlayIcon.tsx -->
<g id="edge4" class="edge">
<title>component/Dashboard/DashboardHeader.tsx&#45;&gt;component/Dashboard/DashboardHeader/PlayIcon.tsx</title>
<path fill="none" stroke="#757575" d="M613.44,-801.67C639.21,-834.48 717.34,-928.2 804,-976 845.68,-998.99 896.4,-1013.62 939.73,-1022.77"/>
<polygon fill="#757575" stroke="#757575" points="938.89,-1026.17 949.39,-1024.73 940.29,-1019.31 938.89,-1026.17"/>
</g>
<!-- component/Dashboard/DashboardHeader/SelectRealTimeRangeArea.tsx -->
<g id="node14" class="node">
<title>component/Dashboard/DashboardHeader/SelectRealTimeRangeArea.tsx</title>
<path fill="none" stroke="#c6c5fe" d="M1778.33,-841.5C1778.33,-841.5 1312.67,-841.5 1312.67,-841.5 1308.83,-841.5 1305,-837.67 1305,-833.83 1305,-833.83 1305,-826.17 1305,-826.17 1305,-822.33 1308.83,-818.5 1312.67,-818.5 1312.67,-818.5 1778.33,-818.5 1778.33,-818.5 1782.17,-818.5 1786,-822.33 1786,-826.17 1786,-826.17 1786,-833.83 1786,-833.83 1786,-837.67 1782.17,-841.5 1778.33,-841.5"/>
<text text-anchor="middle" x="1545.5" y="-826.3" font-family="Arial" font-size="14.00" fill="#c6c5fe">component/Dashboard/DashboardHeader/SelectRealTimeRangeArea.tsx</text>
</g>
<!-- component/Dashboard/DashboardHeader.tsx&#45;&gt;component/Dashboard/DashboardHeader/SelectRealTimeRangeArea.tsx -->
<g id="edge5" class="edge">
<title>component/Dashboard/DashboardHeader.tsx&#45;&gt;component/Dashboard/DashboardHeader/SelectRealTimeRangeArea.tsx</title>
<path fill="none" stroke="#757575" d="M755.33,-801.15C771.75,-802.19 788.22,-803.17 804,-804 966.91,-812.57 1150.15,-819.03 1293.58,-823.37"/>
<polygon fill="#757575" stroke="#757575" points="1293.1,-826.86 1303.2,-823.66 1293.31,-819.86 1293.1,-826.86"/>
</g>
<!-- component/Dashboard/DashboardHeader/TimeBlock.tsx -->
<g id="node15" class="node">
<title>component/Dashboard/DashboardHeader/TimeBlock.tsx</title>
<path fill="none" stroke="#c6c5fe" d="M1215.83,-966.5C1215.83,-966.5 857.17,-966.5 857.17,-966.5 853.33,-966.5 849.5,-962.67 849.5,-958.83 849.5,-958.83 849.5,-951.17 849.5,-951.17 849.5,-947.33 853.33,-943.5 857.17,-943.5 857.17,-943.5 1215.83,-943.5 1215.83,-943.5 1219.67,-943.5 1223.5,-947.33 1223.5,-951.17 1223.5,-951.17 1223.5,-958.83 1223.5,-958.83 1223.5,-962.67 1219.67,-966.5 1215.83,-966.5"/>
<text text-anchor="middle" x="1036.5" y="-951.3" font-family="Arial" font-size="14.00" fill="#c6c5fe">component/Dashboard/DashboardHeader/TimeBlock.tsx</text>
</g>
<!-- component/Dashboard/DashboardHeader.tsx&#45;&gt;component/Dashboard/DashboardHeader/TimeBlock.tsx -->
<g id="edge6" class="edge">
<title>component/Dashboard/DashboardHeader.tsx&#45;&gt;component/Dashboard/DashboardHeader/TimeBlock.tsx</title>
<path fill="none" stroke="#757575" d="M635.84,-802C712.12,-831.2 907.43,-905.97 993.59,-938.96"/>
<polygon fill="#757575" stroke="#757575" points="992.27,-942.2 1002.86,-942.5 994.77,-935.66 992.27,-942.2"/>
</g>
<!-- store/DashboardProvider.tsx -->
<g id="node16" class="node">
<title>store/DashboardProvider.tsx</title>
<path fill="none" stroke="#c6c5fe" d="M2144.33,-767.5C2144.33,-767.5 1962.67,-767.5 1962.67,-767.5 1958.83,-767.5 1955,-763.67 1955,-759.83 1955,-759.83 1955,-752.17 1955,-752.17 1955,-748.33 1958.83,-744.5 1962.67,-744.5 1962.67,-744.5 2144.33,-744.5 2144.33,-744.5 2148.17,-744.5 2152,-748.33 2152,-752.17 2152,-752.17 2152,-759.83 2152,-759.83 2152,-763.67 2148.17,-767.5 2144.33,-767.5"/>
<text text-anchor="middle" x="2053.5" y="-752.3" font-family="Arial" font-size="14.00" fill="#c6c5fe">store/DashboardProvider.tsx</text>
</g>
<!-- component/Dashboard/DashboardHeader.tsx&#45;&gt;store/DashboardProvider.tsx -->
<g id="edge7" class="edge">
<title>component/Dashboard/DashboardHeader.tsx&#45;&gt;store/DashboardProvider.tsx</title>
<path fill="none" stroke="#757575" d="M755.36,-786.46C1048.35,-779.58 1687.98,-764.56 1943.69,-758.55"/>
<polygon fill="#757575" stroke="#757575" points="1943.41,-762.06 1953.32,-758.33 1943.24,-755.06 1943.41,-762.06"/>
</g>
<!-- store/WidgetPropsSettingModalProvider.tsx -->
<g id="node17" class="node">
<title>store/WidgetPropsSettingModalProvider.tsx</title>
<path fill="none" stroke="#c6c5fe" d="M1684.83,-687.5C1684.83,-687.5 1406.17,-687.5 1406.17,-687.5 1402.33,-687.5 1398.5,-683.67 1398.5,-679.83 1398.5,-679.83 1398.5,-672.17 1398.5,-672.17 1398.5,-668.33 1402.33,-664.5 1406.17,-664.5 1406.17,-664.5 1684.83,-664.5 1684.83,-664.5 1688.67,-664.5 1692.5,-668.33 1692.5,-672.17 1692.5,-672.17 1692.5,-679.83 1692.5,-679.83 1692.5,-683.67 1688.67,-687.5 1684.83,-687.5"/>
<text text-anchor="middle" x="1545.5" y="-672.3" font-family="Arial" font-size="14.00" fill="#c6c5fe">store/WidgetPropsSettingModalProvider.tsx</text>
</g>
<!-- component/Dashboard/DashboardHeader.tsx&#45;&gt;store/WidgetPropsSettingModalProvider.tsx -->
<g id="edge8" class="edge">
<title>component/Dashboard/DashboardHeader.tsx&#45;&gt;store/WidgetPropsSettingModalProvider.tsx</title>
<path fill="none" stroke="#757575" d="M642.32,-778.07C682.14,-766 746.84,-747.77 804,-738 1003.43,-703.92 1236.41,-688.33 1387,-681.36"/>
<polygon fill="#757575" stroke="#757575" points="1386.8,-684.87 1396.63,-680.92 1386.48,-677.88 1386.8,-684.87"/>
</g>
<!-- types/widget.d.ts -->
<g id="node18" class="node">
<title>types/widget.d.ts</title>
<path fill="none" stroke="#cfffac" d="M2983.83,-647.5C2983.83,-647.5 2876.17,-647.5 2876.17,-647.5 2872.33,-647.5 2868.5,-643.67 2868.5,-639.83 2868.5,-639.83 2868.5,-632.17 2868.5,-632.17 2868.5,-628.33 2872.33,-624.5 2876.17,-624.5 2876.17,-624.5 2983.83,-624.5 2983.83,-624.5 2987.67,-624.5 2991.5,-628.33 2991.5,-632.17 2991.5,-632.17 2991.5,-639.83 2991.5,-639.83 2991.5,-643.67 2987.67,-647.5 2983.83,-647.5"/>
<text text-anchor="middle" x="2930" y="-632.3" font-family="Arial" font-size="14.00" fill="#cfffac">types/widget.d.ts</text>
</g>
<!-- component/Dashboard/DashboardHeader.tsx&#45;&gt;types/widget.d.ts -->
<g id="edge9" class="edge">
<title>component/Dashboard/DashboardHeader.tsx&#45;&gt;types/widget.d.ts</title>
<path fill="none" stroke="#757575" d="M713.91,-778.02C743.15,-775.1 774.75,-772.19 804,-770 1461.19,-720.89 1627.68,-744.31 2285,-697 2493.08,-682.02 2738.27,-656.66 2857.15,-643.87"/>
<polygon fill="#757575" stroke="#757575" points="2857.18,-647.39 2866.75,-642.84 2856.43,-640.43 2857.18,-647.39"/>
</g>
<!-- component/Dashboard/DashboardHeader/PlayIcon.tsx&#45;&gt;asset/image/pause.png -->
<g id="edge19" class="edge">
<title>component/Dashboard/DashboardHeader/PlayIcon.tsx&#45;&gt;asset/image/pause.png</title>
<path fill="none" stroke="#757575" d="M1217.68,-1037C1296.75,-1037 1386.24,-1037 1451.56,-1037"/>
<polygon fill="#757575" stroke="#757575" points="1451.54,-1040.5 1461.54,-1037 1451.54,-1033.5 1451.54,-1040.5"/>
</g>
<!-- component/Dashboard/DashboardHeader/PlayIcon.tsx&#45;&gt;asset/image/play.png -->
<g id="edge20" class="edge">
<title>component/Dashboard/DashboardHeader/PlayIcon.tsx&#45;&gt;asset/image/play.png</title>
<path fill="none" stroke="#757575" d="M1185.85,-1049C1274.52,-1056.17 1384.05,-1065.03 1458.58,-1071.05"/>
<polygon fill="#757575" stroke="#757575" points="1458.02,-1074.52 1468.27,-1071.84 1458.58,-1067.54 1458.02,-1074.52"/>
</g>
<!-- component/Dashboard/DashboardHeader/SelectRealTimeRangeArea.tsx&#45;&gt;component/Dashboard/CommonStyle.ts -->
<g id="edge22" class="edge">
<title>component/Dashboard/DashboardHeader/SelectRealTimeRangeArea.tsx&#45;&gt;component/Dashboard/CommonStyle.ts</title>
<path fill="none" stroke="#757575" d="M1644.58,-841.97C1697.15,-848.15 1763.05,-855.52 1822,-861 2027.45,-880.09 2079.39,-877.81 2285,-895 2614.31,-922.53 3001.48,-960.24 3199.27,-979.88"/>
<polygon fill="#757575" stroke="#757575" points="3198.77,-983.35 3209.06,-980.86 3199.46,-976.39 3198.77,-983.35"/>
</g>
<!-- component/Dashboard/DashboardHeader/SelectRealTimeRangeArea.tsx&#45;&gt;store/DashboardProvider.tsx -->
<g id="edge27" class="edge">
<title>component/Dashboard/DashboardHeader/SelectRealTimeRangeArea.tsx&#45;&gt;store/DashboardProvider.tsx</title>
<path fill="none" stroke="#757575" d="M1740.52,-818.02C1756.16,-814.32 1771.51,-809.72 1786,-804 1804.6,-796.66 1803.33,-784.18 1822,-777 1859.98,-762.39 1903.97,-756.06 1943.28,-753.73"/>
<polygon fill="#757575" stroke="#757575" points="1943.45,-757.23 1953.26,-753.23 1943.1,-750.24 1943.45,-757.23"/>
</g>
<!-- hook/useBoolean.tsx -->
<g id="node24" class="node">
<title>hook/useBoolean.tsx</title>
<path fill="none" stroke="#cfffac" d="M2120.33,-687.5C2120.33,-687.5 1986.67,-687.5 1986.67,-687.5 1982.83,-687.5 1979,-683.67 1979,-679.83 1979,-679.83 1979,-672.17 1979,-672.17 1979,-668.33 1982.83,-664.5 1986.67,-664.5 1986.67,-664.5 2120.33,-664.5 2120.33,-664.5 2124.17,-664.5 2128,-668.33 2128,-672.17 2128,-672.17 2128,-679.83 2128,-679.83 2128,-683.67 2124.17,-687.5 2120.33,-687.5"/>
<text text-anchor="middle" x="2053.5" y="-672.3" font-family="Arial" font-size="14.00" fill="#cfffac">hook/useBoolean.tsx</text>
</g>
<!-- component/Dashboard/DashboardHeader/SelectRealTimeRangeArea.tsx&#45;&gt;hook/useBoolean.tsx -->
<g id="edge25" class="edge">
<title>component/Dashboard/DashboardHeader/SelectRealTimeRangeArea.tsx&#45;&gt;hook/useBoolean.tsx</title>
<path fill="none" stroke="#757575" d="M1578.9,-818.07C1630.14,-799.4 1733.18,-762.67 1822,-736 1878.89,-718.92 1944.52,-702.11 1991.16,-690.65"/>
<polygon fill="#757575" stroke="#757575" points="1991.94,-694.06 2000.82,-688.29 1990.28,-687.27 1991.94,-694.06"/>
</g>
<!-- hook/useOutsideClick.tsx -->
<g id="node25" class="node">
<title>hook/useOutsideClick.tsx</title>
<path fill="none" stroke="#cfffac" d="M2133.83,-926.5C2133.83,-926.5 1973.17,-926.5 1973.17,-926.5 1969.33,-926.5 1965.5,-922.67 1965.5,-918.83 1965.5,-918.83 1965.5,-911.17 1965.5,-911.17 1965.5,-907.33 1969.33,-903.5 1973.17,-903.5 1973.17,-903.5 2133.83,-903.5 2133.83,-903.5 2137.67,-903.5 2141.5,-907.33 2141.5,-911.17 2141.5,-911.17 2141.5,-918.83 2141.5,-918.83 2141.5,-922.67 2137.67,-926.5 2133.83,-926.5"/>
<text text-anchor="middle" x="2053.5" y="-911.3" font-family="Arial" font-size="14.00" fill="#cfffac">hook/useOutsideClick.tsx</text>
</g>
<!-- component/Dashboard/DashboardHeader/SelectRealTimeRangeArea.tsx&#45;&gt;hook/useOutsideClick.tsx -->
<g id="edge26" class="edge">
<title>component/Dashboard/DashboardHeader/SelectRealTimeRangeArea.tsx&#45;&gt;hook/useOutsideClick.tsx</title>
<path fill="none" stroke="#757575" d="M1595,-841.9C1649.81,-855 1741.86,-875.93 1822,-889 1865.05,-896.02 1912.94,-901.75 1953.86,-906.03"/>
<polygon fill="#757575" stroke="#757575" points="1953.39,-909.5 1963.7,-907.05 1954.11,-902.54 1953.39,-909.5"/>
</g>
<!-- component/Dashboard/DashboardHeader/RealTime.tsx -->
<g id="node26" class="node">
<title>component/Dashboard/DashboardHeader/RealTime.tsx</title>
<path fill="none" stroke="#cfffac" d="M2229.83,-808.5C2229.83,-808.5 1877.17,-808.5 1877.17,-808.5 1873.33,-808.5 1869.5,-804.67 1869.5,-800.83 1869.5,-800.83 1869.5,-793.17 1869.5,-793.17 1869.5,-789.33 1873.33,-785.5 1877.17,-785.5 1877.17,-785.5 2229.83,-785.5 2229.83,-785.5 2233.67,-785.5 2237.5,-789.33 2237.5,-793.17 2237.5,-793.17 2237.5,-800.83 2237.5,-800.83 2237.5,-804.67 2233.67,-808.5 2229.83,-808.5"/>
<text text-anchor="middle" x="2053.5" y="-793.3" font-family="Arial" font-size="14.00" fill="#cfffac">component/Dashboard/DashboardHeader/RealTime.tsx</text>
</g>
<!-- component/Dashboard/DashboardHeader/SelectRealTimeRangeArea.tsx&#45;&gt;component/Dashboard/DashboardHeader/RealTime.tsx -->
<g id="edge23" class="edge">
<title>component/Dashboard/DashboardHeader/SelectRealTimeRangeArea.tsx&#45;&gt;component/Dashboard/DashboardHeader/RealTime.tsx</title>
<path fill="none" stroke="#757575" d="M1730.25,-818.02C1771.68,-815.31 1815.8,-812.44 1857.67,-809.71"/>
<polygon fill="#757575" stroke="#757575" points="1857.87,-813.2 1867.62,-809.06 1857.41,-806.22 1857.87,-813.2"/>
</g>
<!-- component/Dashboard/DashboardHeader/SelectRealTimeListItem.tsx -->
<g id="node27" class="node">
<title>component/Dashboard/DashboardHeader/SelectRealTimeListItem.tsx</title>
<path fill="none" stroke="#c6c5fe" d="M3152.33,-885.5C3152.33,-885.5 2707.67,-885.5 2707.67,-885.5 2703.83,-885.5 2700,-881.67 2700,-877.83 2700,-877.83 2700,-870.17 2700,-870.17 2700,-866.33 2703.83,-862.5 2707.67,-862.5 2707.67,-862.5 3152.33,-862.5 3152.33,-862.5 3156.17,-862.5 3160,-866.33 3160,-870.17 3160,-870.17 3160,-877.83 3160,-877.83 3160,-881.67 3156.17,-885.5 3152.33,-885.5"/>
<text text-anchor="middle" x="2930" y="-870.3" font-family="Arial" font-size="14.00" fill="#c6c5fe">component/Dashboard/DashboardHeader/SelectRealTimeListItem.tsx</text>
</g>
<!-- component/Dashboard/DashboardHeader/SelectRealTimeRangeArea.tsx&#45;&gt;component/Dashboard/DashboardHeader/SelectRealTimeListItem.tsx -->
<g id="edge24" class="edge">
<title>component/Dashboard/DashboardHeader/SelectRealTimeRangeArea.tsx&#45;&gt;component/Dashboard/DashboardHeader/SelectRealTimeListItem.tsx</title>
<path fill="none" stroke="#757575" d="M1786.34,-838.79C1939.32,-844.29 2141.81,-851.37 2321,-857 2442.05,-860.8 2576.66,-864.61 2688.39,-867.65"/>
<polygon fill="#757575" stroke="#757575" points="2688.22,-871.15 2698.31,-867.92 2688.41,-864.15 2688.22,-871.15"/>
</g>
<!-- component/Dashboard/DashboardHeader/CurrentTime.tsx -->
<g id="node19" class="node">
<title>component/Dashboard/DashboardHeader/CurrentTime.tsx</title>
<path fill="none" stroke="#c6c5fe" d="M1730.83,-1007.5C1730.83,-1007.5 1360.17,-1007.5 1360.17,-1007.5 1356.33,-1007.5 1352.5,-1003.67 1352.5,-999.83 1352.5,-999.83 1352.5,-992.17 1352.5,-992.17 1352.5,-988.33 1356.33,-984.5 1360.17,-984.5 1360.17,-984.5 1730.83,-984.5 1730.83,-984.5 1734.67,-984.5 1738.5,-988.33 1738.5,-992.17 1738.5,-992.17 1738.5,-999.83 1738.5,-999.83 1738.5,-1003.67 1734.67,-1007.5 1730.83,-1007.5"/>
<text text-anchor="middle" x="1545.5" y="-992.3" font-family="Arial" font-size="14.00" fill="#c6c5fe">component/Dashboard/DashboardHeader/CurrentTime.tsx</text>
</g>
<!-- component/Dashboard/DashboardHeader/TimeBlock.tsx&#45;&gt;component/Dashboard/DashboardHeader/CurrentTime.tsx -->
<g id="edge28" class="edge">
<title>component/Dashboard/DashboardHeader/TimeBlock.tsx&#45;&gt;component/Dashboard/DashboardHeader/CurrentTime.tsx</title>
<path fill="none" stroke="#757575" d="M1185.85,-967C1248.43,-972.06 1321.4,-977.96 1385.12,-983.11"/>
<polygon fill="#757575" stroke="#757575" points="1384.74,-986.59 1394.99,-983.91 1385.3,-979.61 1384.74,-986.59"/>
</g>
<!-- component/Dashboard/DashboardHeader/DatePickerArea.tsx -->
<g id="node22" class="node">
<title>component/Dashboard/DashboardHeader/DatePickerArea.tsx</title>
<path fill="none" stroke="#c6c5fe" d="M1741.33,-966.5C1741.33,-966.5 1349.67,-966.5 1349.67,-966.5 1345.83,-966.5 1342,-962.67 1342,-958.83 1342,-958.83 1342,-951.17 1342,-951.17 1342,-947.33 1345.83,-943.5 1349.67,-943.5 1349.67,-943.5 1741.33,-943.5 1741.33,-943.5 1745.17,-943.5 1749,-947.33 1749,-951.17 1749,-951.17 1749,-958.83 1749,-958.83 1749,-962.67 1745.17,-966.5 1741.33,-966.5"/>
<text text-anchor="middle" x="1545.5" y="-951.3" font-family="Arial" font-size="14.00" fill="#c6c5fe">component/Dashboard/DashboardHeader/DatePickerArea.tsx</text>
</g>
<!-- component/Dashboard/DashboardHeader/TimeBlock.tsx&#45;&gt;component/Dashboard/DashboardHeader/DatePickerArea.tsx -->
<g id="edge29" class="edge">
<title>component/Dashboard/DashboardHeader/TimeBlock.tsx&#45;&gt;component/Dashboard/DashboardHeader/DatePickerArea.tsx</title>
<path fill="none" stroke="#757575" d="M1223.77,-955C1258.43,-955 1294.91,-955 1330.33,-955"/>
<polygon fill="#757575" stroke="#757575" points="1330.28,-958.5 1340.28,-955 1330.28,-951.5 1330.28,-958.5"/>
</g>
<!-- store/DashboardProvider.tsx&#45;&gt;common/date.ts -->
<g id="edge79" class="edge">
<title>store/DashboardProvider.tsx&#45;&gt;common/date.ts</title>
<path fill="none" stroke="#757575" d="M2152.3,-756C2233.98,-756 2348.44,-756 2421.28,-756"/>
<polygon fill="#757575" stroke="#757575" points="2421.09,-759.5 2431.09,-756 2421.09,-752.5 2421.09,-759.5"/>
</g>
<!-- store/WidgetPropsSettingModalProvider.tsx&#45;&gt;hook/useBoolean.tsx -->
<g id="edge80" class="edge">
<title>store/WidgetPropsSettingModalProvider.tsx&#45;&gt;hook/useBoolean.tsx</title>
<path fill="none" stroke="#757575" d="M1692.86,-676C1781.97,-676 1892.7,-676 1967.57,-676"/>
<polygon fill="#757575" stroke="#757575" points="1967.3,-679.5 1977.3,-676 1967.3,-672.5 1967.3,-679.5"/>
</g>
<!-- hook/useCurrentTime.tsx -->
<g id="node20" class="node">
<title>hook/useCurrentTime.tsx</title>
<path fill="none" stroke="#cfffac" d="M2133.33,-1165.5C2133.33,-1165.5 1973.67,-1165.5 1973.67,-1165.5 1969.83,-1165.5 1966,-1161.67 1966,-1157.83 1966,-1157.83 1966,-1150.17 1966,-1150.17 1966,-1146.33 1969.83,-1142.5 1973.67,-1142.5 1973.67,-1142.5 2133.33,-1142.5 2133.33,-1142.5 2137.17,-1142.5 2141,-1146.33 2141,-1150.17 2141,-1150.17 2141,-1157.83 2141,-1157.83 2141,-1161.67 2137.17,-1165.5 2133.33,-1165.5"/>
<text text-anchor="middle" x="2053.5" y="-1150.3" font-family="Arial" font-size="14.00" fill="#cfffac">hook/useCurrentTime.tsx</text>
</g>
<!-- component/Dashboard/DashboardHeader/CurrentTime.tsx&#45;&gt;hook/useCurrentTime.tsx -->
<g id="edge10" class="edge">
<title>component/Dashboard/DashboardHeader/CurrentTime.tsx&#45;&gt;hook/useCurrentTime.tsx</title>
<path fill="none" stroke="#757575" d="M1606.98,-984.03C1659.99,-977.19 1736.18,-976.72 1786,-1017 1828.31,-1051.2 1779.68,-1099.81 1822,-1134 1865.56,-1169.18 1930.02,-1171.98 1979.71,-1167.23"/>
<polygon fill="#757575" stroke="#757575" points="1979.97,-1170.72 1989.53,-1166.16 1979.21,-1163.76 1979.97,-1170.72"/>
</g>
<!-- component/Dashboard/DashboardHeader/DateBox.tsx -->
<g id="node21" class="node">
<title>component/Dashboard/DashboardHeader/DateBox.tsx</title>
<path fill="none" stroke="#cfffac" d="M2226.83,-1044.5C2226.83,-1044.5 1880.17,-1044.5 1880.17,-1044.5 1876.33,-1044.5 1872.5,-1040.67 1872.5,-1036.83 1872.5,-1036.83 1872.5,-1029.17 1872.5,-1029.17 1872.5,-1025.33 1876.33,-1021.5 1880.17,-1021.5 1880.17,-1021.5 2226.83,-1021.5 2226.83,-1021.5 2230.67,-1021.5 2234.5,-1025.33 2234.5,-1029.17 2234.5,-1029.17 2234.5,-1036.83 2234.5,-1036.83 2234.5,-1040.67 2230.67,-1044.5 2226.83,-1044.5"/>
<text text-anchor="middle" x="2053.5" y="-1029.3" font-family="Arial" font-size="14.00" fill="#cfffac">component/Dashboard/DashboardHeader/DateBox.tsx</text>
</g>
<!-- component/Dashboard/DashboardHeader/DatePickerArea.tsx&#45;&gt;common/date.ts -->
<g id="edge11" class="edge">
<title>component/Dashboard/DashboardHeader/DatePickerArea.tsx&#45;&gt;common/date.ts</title>
<path fill="none" stroke="#757575" d="M1749.22,-962.29C1953.5,-967.67 2244.29,-969.15 2285,-936 2339.5,-891.61 2269.39,-829.72 2321,-782 2347.57,-757.44 2387.04,-750.27 2421.32,-749.55"/>
<polygon fill="#757575" stroke="#757575" points="2421.21,-753.05 2431.21,-749.54 2421.2,-746.05 2421.21,-753.05"/>
</g>
<!-- component/Dashboard/DashboardHeader/DatePickerArea.tsx&#45;&gt;component/Dashboard/CommonStyle.ts -->
<g id="edge12" class="edge">
<title>component/Dashboard/DashboardHeader/DatePickerArea.tsx&#45;&gt;component/Dashboard/CommonStyle.ts</title>
<path fill="none" stroke="#757575" d="M1624.15,-943.01C1674.64,-939.44 1739.48,-943.28 1786,-976 1817.23,-997.96 1789.84,-1033.42 1822,-1054 1937.01,-1127.59 2864.51,-1040.9 3205.13,-1006.15"/>
<polygon fill="#757575" stroke="#757575" points="3205.41,-1009.64 3215,-1005.14 3204.7,-1002.68 3205.41,-1009.64"/>
</g>
<!-- component/Dashboard/DashboardHeader/DatePickerArea.tsx&#45;&gt;store/DashboardProvider.tsx -->
<g id="edge17" class="edge">
<title>component/Dashboard/DashboardHeader/DatePickerArea.tsx&#45;&gt;store/DashboardProvider.tsx</title>
<path fill="none" stroke="#757575" d="M1600.68,-943.13C1653.66,-929.08 1733.78,-901.01 1786,-851 1812.41,-825.7 1791.91,-797.79 1822,-777 1856.83,-752.94 1902.03,-745.13 1943.16,-744.26"/>
<polygon fill="#757575" stroke="#757575" points="1943.15,-747.76 1953.13,-744.21 1943.11,-740.76 1943.15,-747.76"/>
</g>
<!-- component/Dashboard/DashboardHeader/DatePickerArea.tsx&#45;&gt;types/widget.d.ts -->
<g id="edge18" class="edge">
<title>component/Dashboard/DashboardHeader/DatePickerArea.tsx&#45;&gt;types/widget.d.ts</title>
<path fill="none" stroke="#757575" d="M1700.47,-967C1903.48,-981.29 2240.33,-999.11 2285,-964 2338.23,-922.17 2270.23,-860.77 2321,-816 2378.54,-765.26 2590.74,-799.75 2664,-777 2757.7,-747.9 2856.9,-685.35 2902.84,-654.28"/>
<polygon fill="#757575" stroke="#757575" points="2904.79,-657.19 2911.07,-648.65 2900.84,-651.41 2904.79,-657.19"/>
</g>
<!-- component/Dashboard/DashboardHeader/DatePickerArea.tsx&#45;&gt;component/Dashboard/DashboardHeader/DateBox.tsx -->
<g id="edge13" class="edge">
<title>component/Dashboard/DashboardHeader/DatePickerArea.tsx&#45;&gt;component/Dashboard/DashboardHeader/DateBox.tsx</title>
<path fill="none" stroke="#757575" d="M1749.31,-963.66C1761.94,-966.99 1774.27,-971.05 1786,-976 1805.45,-984.21 1802.65,-998.55 1822,-1007 1834.52,-1012.47 1847.77,-1016.94 1861.34,-1020.59"/>
<polygon fill="#757575" stroke="#757575" points="1860.27,-1023.93 1870.82,-1022.97 1861.97,-1017.14 1860.27,-1023.93"/>
</g>
<!-- component/common/DatePicker.tsx -->
<g id="node23" class="node">
<title>component/common/DatePicker.tsx</title>
<path fill="none" stroke="#c6c5fe" d="M2166.83,-1124.5C2166.83,-1124.5 1940.17,-1124.5 1940.17,-1124.5 1936.33,-1124.5 1932.5,-1120.67 1932.5,-1116.83 1932.5,-1116.83 1932.5,-1109.17 1932.5,-1109.17 1932.5,-1105.33 1936.33,-1101.5 1940.17,-1101.5 1940.17,-1101.5 2166.83,-1101.5 2166.83,-1101.5 2170.67,-1101.5 2174.5,-1105.33 2174.5,-1109.17 2174.5,-1109.17 2174.5,-1116.83 2174.5,-1116.83 2174.5,-1120.67 2170.67,-1124.5 2166.83,-1124.5"/>
<text text-anchor="middle" x="2053.5" y="-1109.3" font-family="Arial" font-size="14.00" fill="#c6c5fe">component/common/DatePicker.tsx</text>
</g>
<!-- component/Dashboard/DashboardHeader/DatePickerArea.tsx&#45;&gt;component/common/DatePicker.tsx -->
<g id="edge14" class="edge">
<title>component/Dashboard/DashboardHeader/DatePickerArea.tsx&#45;&gt;component/common/DatePicker.tsx</title>
<path fill="none" stroke="#757575" d="M1608.39,-943.02C1661.24,-936.49 1736.36,-936.49 1786,-976 1826.58,-1008.3 1781.83,-1054.2 1822,-1087 1849.51,-1109.47 1885.43,-1119.54 1920.7,-1123.09"/>
<polygon fill="#757575" stroke="#757575" points="1920.35,-1126.57 1930.6,-1123.9 1920.92,-1119.59 1920.35,-1126.57"/>
</g>
<!-- component/Dashboard/DashboardHeader/DatePickerArea.tsx&#45;&gt;hook/useBoolean.tsx -->
<g id="edge15" class="edge">
<title>component/Dashboard/DashboardHeader/DatePickerArea.tsx&#45;&gt;hook/useBoolean.tsx</title>
<path fill="none" stroke="#757575" d="M1609.36,-943.02C1663.39,-929.56 1739.71,-902.49 1786,-851 1821.81,-811.17 1783.22,-772.94 1822,-736 1860.67,-699.17 1918.99,-684.23 1967.28,-678.47"/>
<polygon fill="#757575" stroke="#757575" points="1967.61,-681.95 1977.19,-677.41 1966.87,-674.99 1967.61,-681.95"/>
</g>
<!-- component/Dashboard/DashboardHeader/DatePickerArea.tsx&#45;&gt;hook/useOutsideClick.tsx -->
<g id="edge16" class="edge">
<title>component/Dashboard/DashboardHeader/DatePickerArea.tsx&#45;&gt;hook/useOutsideClick.tsx</title>
<path fill="none" stroke="#757575" d="M1697.97,-943.03C1780.75,-936.48 1880.9,-928.56 1953.62,-922.82"/>
<polygon fill="#757575" stroke="#757575" points="1953.85,-926.31 1963.54,-922.03 1953.29,-919.33 1953.85,-926.31"/>
</g>
<!-- component/common/DatePicker/DatePickerTitle.tsx -->
<g id="node45" class="node">
<title>component/common/DatePicker/DatePickerTitle.tsx</title>
<path fill="none" stroke="#c6c5fe" d="M2656.33,-847.5C2656.33,-847.5 2328.67,-847.5 2328.67,-847.5 2324.83,-847.5 2321,-843.67 2321,-839.83 2321,-839.83 2321,-832.17 2321,-832.17 2321,-828.33 2324.83,-824.5 2328.67,-824.5 2328.67,-824.5 2656.33,-824.5 2656.33,-824.5 2660.17,-824.5 2664,-828.33 2664,-832.17 2664,-832.17 2664,-839.83 2664,-839.83 2664,-843.67 2660.17,-847.5 2656.33,-847.5"/>
<text text-anchor="middle" x="2492.5" y="-832.3" font-family="Arial" font-size="14.00" fill="#c6c5fe">component/common/DatePicker/DatePickerTitle.tsx</text>
</g>
<!-- component/common/DatePicker.tsx&#45;&gt;component/common/DatePicker/DatePickerTitle.tsx -->
<g id="edge61" class="edge">
<title>component/common/DatePicker.tsx&#45;&gt;component/common/DatePicker/DatePickerTitle.tsx</title>
<path fill="none" stroke="#757575" d="M2149.41,-1101.04C2192.94,-1092.55 2243.87,-1078.18 2285,-1054 2373.41,-1002.02 2447.89,-901.19 2477.63,-857.29"/>
<polygon fill="#757575" stroke="#757575" points="2480.43,-859.4 2483.07,-849.14 2474.61,-855.52 2480.43,-859.4"/>
</g>
<!-- component/common/DatePicker/ListPicker.tsx -->
<g id="node46" class="node">
<title>component/common/DatePicker/ListPicker.tsx</title>
<path fill="none" stroke="#c6c5fe" d="M2638.83,-1124.5C2638.83,-1124.5 2346.17,-1124.5 2346.17,-1124.5 2342.33,-1124.5 2338.5,-1120.67 2338.5,-1116.83 2338.5,-1116.83 2338.5,-1109.17 2338.5,-1109.17 2338.5,-1105.33 2342.33,-1101.5 2346.17,-1101.5 2346.17,-1101.5 2638.83,-1101.5 2638.83,-1101.5 2642.67,-1101.5 2646.5,-1105.33 2646.5,-1109.17 2646.5,-1109.17 2646.5,-1116.83 2646.5,-1116.83 2646.5,-1120.67 2642.67,-1124.5 2638.83,-1124.5"/>
<text text-anchor="middle" x="2492.5" y="-1109.3" font-family="Arial" font-size="14.00" fill="#c6c5fe">component/common/DatePicker/ListPicker.tsx</text>
</g>
<!-- component/common/DatePicker.tsx&#45;&gt;component/common/DatePicker/ListPicker.tsx -->
<g id="edge62" class="edge">
<title>component/common/DatePicker.tsx&#45;&gt;component/common/DatePicker/ListPicker.tsx</title>
<path fill="none" stroke="#757575" d="M2174.78,-1113C2221.76,-1113 2276.39,-1113 2326.91,-1113"/>
<polygon fill="#757575" stroke="#757575" points="2326.79,-1116.5 2336.79,-1113 2326.79,-1109.5 2326.79,-1116.5"/>
</g>
<!-- types/datePicker.d.ts -->
<g id="node47" class="node">
<title>types/datePicker.d.ts</title>
<path fill="none" stroke="#cfffac" d="M2996.83,-1165.5C2996.83,-1165.5 2863.17,-1165.5 2863.17,-1165.5 2859.33,-1165.5 2855.5,-1161.67 2855.5,-1157.83 2855.5,-1157.83 2855.5,-1150.17 2855.5,-1150.17 2855.5,-1146.33 2859.33,-1142.5 2863.17,-1142.5 2863.17,-1142.5 2996.83,-1142.5 2996.83,-1142.5 3000.67,-1142.5 3004.5,-1146.33 3004.5,-1150.17 3004.5,-1150.17 3004.5,-1157.83 3004.5,-1157.83 3004.5,-1161.67 3000.67,-1165.5 2996.83,-1165.5"/>
<text text-anchor="middle" x="2930" y="-1150.3" font-family="Arial" font-size="14.00" fill="#cfffac">types/datePicker.d.ts</text>
</g>
<!-- component/common/DatePicker.tsx&#45;&gt;types/datePicker.d.ts -->
<g id="edge63" class="edge">
<title>component/common/DatePicker.tsx&#45;&gt;types/datePicker.d.ts</title>
<path fill="none" stroke="#757575" d="M2174.81,-1123.66C2220.55,-1127.4 2273.16,-1131.33 2321,-1134 2507.24,-1144.4 2725.9,-1149.97 2843.6,-1152.42"/>
<polygon fill="#757575" stroke="#757575" points="2843.43,-1155.92 2853.5,-1152.63 2843.57,-1148.92 2843.43,-1155.92"/>
</g>
<!-- component/Dashboard/DashboardHeader/SelectRealTimeListItem.tsx&#45;&gt;component/Dashboard/CommonStyle.ts -->
<g id="edge21" class="edge">
<title>component/Dashboard/DashboardHeader/SelectRealTimeListItem.tsx&#45;&gt;component/Dashboard/CommonStyle.ts</title>
<path fill="none" stroke="#757575" d="M3101.69,-885.95C3121.59,-889.52 3141.4,-894.11 3160,-900 3214.93,-917.4 3272.46,-953.15 3304.52,-974.9"/>
<polygon fill="#757575" stroke="#757575" points="3302.15,-977.52 3312.37,-980.31 3306.12,-971.76 3302.15,-977.52"/>
</g>
<!-- component/Widget.tsx -->
<g id="node28" class="node">
<title>component/Widget.tsx</title>
<path fill="none" stroke="#c6c5fe" d="M675.33,-447.5C675.33,-447.5 531.67,-447.5 531.67,-447.5 527.83,-447.5 524,-443.67 524,-439.83 524,-439.83 524,-432.17 524,-432.17 524,-428.33 527.83,-424.5 531.67,-424.5 531.67,-424.5 675.33,-424.5 675.33,-424.5 679.17,-424.5 683,-428.33 683,-432.17 683,-432.17 683,-439.83 683,-439.83 683,-443.67 679.17,-447.5 675.33,-447.5"/>
<text text-anchor="middle" x="603.5" y="-432.3" font-family="Arial" font-size="14.00" fill="#c6c5fe">component/Widget.tsx</text>
</g>
<!-- component/Widget.tsx&#45;&gt;types/widget.d.ts -->
<g id="edge35" class="edge">
<title>component/Widget.tsx&#45;&gt;types/widget.d.ts</title>
<path fill="none" stroke="#757575" d="M613.03,-424.28C638.29,-390.37 716.44,-291.24 804,-238 1099.38,-58.4 1198.81,0 1544.5,0 1544.5,0 1544.5,0 2054.5,0 2342.34,0 2453.44,-22.74 2664,-219 2796.87,-342.84 2891.24,-547.11 2919.89,-614.03"/>
<polygon fill="#757575" stroke="#757575" points="2916.5,-614.98 2923.61,-622.83 2922.94,-612.26 2916.5,-614.98"/>
</g>
<!-- component/Widget.tsx&#45;&gt;hook/useBoolean.tsx -->
<g id="edge34" class="edge">
<title>component/Widget.tsx&#45;&gt;hook/useBoolean.tsx</title>
<path fill="none" stroke="#757575" d="M636.81,-447.98C675.85,-461.91 743.79,-484.48 804,-496 905.87,-515.48 1176.44,-489.21 1269,-536 1290.64,-546.94 1283.66,-565.48 1305,-577 1509.17,-687.29 1591.79,-620.77 1822,-650 1870.04,-656.1 1923.81,-662.21 1967.33,-666.97"/>
<polygon fill="#757575" stroke="#757575" points="1966.91,-670.44 1977.23,-668.05 1967.67,-663.48 1966.91,-670.44"/>
</g>
<!-- component/Widget/WidgetButtons.tsx -->
<g id="node29" class="node">
<title>component/Widget/WidgetButtons.tsx</title>
<path fill="none" stroke="#c6c5fe" d="M1157.33,-567.5C1157.33,-567.5 915.67,-567.5 915.67,-567.5 911.83,-567.5 908,-563.67 908,-559.83 908,-559.83 908,-552.17 908,-552.17 908,-548.33 911.83,-544.5 915.67,-544.5 915.67,-544.5 1157.33,-544.5 1157.33,-544.5 1161.17,-544.5 1165,-548.33 1165,-552.17 1165,-552.17 1165,-559.83 1165,-559.83 1165,-563.67 1161.17,-567.5 1157.33,-567.5"/>
<text text-anchor="middle" x="1036.5" y="-552.3" font-family="Arial" font-size="14.00" fill="#c6c5fe">component/Widget/WidgetButtons.tsx</text>
</g>
<!-- component/Widget.tsx&#45;&gt;component/Widget/WidgetButtons.tsx -->
<g id="edge30" class="edge">
<title>component/Widget.tsx&#45;&gt;component/Widget/WidgetButtons.tsx</title>
<path fill="none" stroke="#757575" d="M624.04,-447.89C658.82,-468.44 734.38,-510.27 804,-530 833.37,-538.32 865.55,-544 896.32,-547.86"/>
<polygon fill="#757575" stroke="#757575" points="895.74,-551.32 906.09,-549.03 896.57,-544.37 895.74,-551.32"/>
</g>
<!-- component/Widget/WidgetCallCycleSettingModal.tsx -->
<g id="node30" class="node">
<title>component/Widget/WidgetCallCycleSettingModal.tsx</title>
<path fill="none" stroke="#c6c5fe" d="M1713.33,-410.5C1713.33,-410.5 1377.67,-410.5 1377.67,-410.5 1373.83,-410.5 1370,-406.67 1370,-402.83 1370,-402.83 1370,-395.17 1370,-395.17 1370,-391.33 1373.83,-387.5 1377.67,-387.5 1377.67,-387.5 1713.33,-387.5 1713.33,-387.5 1717.17,-387.5 1721,-391.33 1721,-395.17 1721,-395.17 1721,-402.83 1721,-402.83 1721,-406.67 1717.17,-410.5 1713.33,-410.5"/>
<text text-anchor="middle" x="1545.5" y="-395.3" font-family="Arial" font-size="14.00" fill="#c6c5fe">component/Widget/WidgetCallCycleSettingModal.tsx</text>
</g>
<!-- component/Widget.tsx&#45;&gt;component/Widget/WidgetCallCycleSettingModal.tsx -->
<g id="edge31" class="edge">
<title>component/Widget.tsx&#45;&gt;component/Widget/WidgetCallCycleSettingModal.tsx</title>
<path fill="none" stroke="#757575" d="M683.1,-429.77C719.81,-427.05 764.12,-424.02 804,-422 992.76,-412.45 1208.81,-406.28 1358.62,-402.77"/>
<polygon fill="#757575" stroke="#757575" points="1358.31,-406.27 1368.23,-402.54 1358.15,-399.28 1358.31,-406.27"/>
</g>
<!-- component/Widget/WidgetChart.tsx -->
<g id="node31" class="node">
<title>component/Widget/WidgetChart.tsx</title>
<path fill="none" stroke="#c6c5fe" d="M1149.83,-270.5C1149.83,-270.5 923.17,-270.5 923.17,-270.5 919.33,-270.5 915.5,-266.67 915.5,-262.83 915.5,-262.83 915.5,-255.17 915.5,-255.17 915.5,-251.33 919.33,-247.5 923.17,-247.5 923.17,-247.5 1149.83,-247.5 1149.83,-247.5 1153.67,-247.5 1157.5,-251.33 1157.5,-255.17 1157.5,-255.17 1157.5,-262.83 1157.5,-262.83 1157.5,-266.67 1153.67,-270.5 1149.83,-270.5"/>
<text text-anchor="middle" x="1036.5" y="-255.3" font-family="Arial" font-size="14.00" fill="#c6c5fe">component/Widget/WidgetChart.tsx</text>
</g>
<!-- component/Widget.tsx&#45;&gt;component/Widget/WidgetChart.tsx -->
<g id="edge32" class="edge">
<title>component/Widget.tsx&#45;&gt;component/Widget/WidgetChart.tsx</title>
<path fill="none" stroke="#757575" d="M633.45,-424.11C708.58,-393.26 909.9,-310.58 995.79,-275.31"/>
<polygon fill="#757575" stroke="#757575" points="997.07,-278.56 1004.99,-271.53 994.41,-272.09 997.07,-278.56"/>
</g>
<!-- hook/Widget/useHandleWidgetApi.tsx -->
<g id="node32" class="node">
<title>hook/Widget/useHandleWidgetApi.tsx</title>
<path fill="none" stroke="#c6c5fe" d="M1666.33,-567.5C1666.33,-567.5 1424.67,-567.5 1424.67,-567.5 1420.83,-567.5 1417,-563.67 1417,-559.83 1417,-559.83 1417,-552.17 1417,-552.17 1417,-548.33 1420.83,-544.5 1424.67,-544.5 1424.67,-544.5 1666.33,-544.5 1666.33,-544.5 1670.17,-544.5 1674,-548.33 1674,-552.17 1674,-552.17 1674,-559.83 1674,-559.83 1674,-563.67 1670.17,-567.5 1666.33,-567.5"/>
<text text-anchor="middle" x="1545.5" y="-552.3" font-family="Arial" font-size="14.00" fill="#c6c5fe">hook/Widget/useHandleWidgetApi.tsx</text>
</g>
<!-- component/Widget.tsx&#45;&gt;hook/Widget/useHandleWidgetApi.tsx -->
<g id="edge33" class="edge">
<title>component/Widget.tsx&#45;&gt;hook/Widget/useHandleWidgetApi.tsx</title>
<path fill="none" stroke="#757575" d="M683.45,-434.65C848.2,-432.35 1217.59,-430.09 1269,-455 1291.43,-465.87 1283.83,-484.85 1305,-498 1339.81,-519.61 1382.09,-533.17 1421.39,-541.68"/>
<polygon fill="#757575" stroke="#757575" points="1420.67,-545.11 1431.17,-543.7 1422.08,-538.25 1420.67,-545.11"/>
</g>
<!-- component/Widget/WidgetButtons.tsx&#45;&gt;store/WidgetPropsSettingModalProvider.tsx -->
<g id="edge36" class="edge">
<title>component/Widget/WidgetButtons.tsx&#45;&gt;store/WidgetPropsSettingModalProvider.tsx</title>
<path fill="none" stroke="#757575" d="M1121.9,-567.97C1167.39,-576.81 1223.39,-591.67 1269,-616 1287.89,-626.08 1285.47,-639.24 1305,-648 1330.46,-659.42 1358.9,-666.79 1387.04,-671.44"/>
<polygon fill="#757575" stroke="#757575" points="1386.31,-674.87 1396.72,-672.93 1387.37,-667.95 1386.31,-674.87"/>
</g>
<!-- store/WidgetProvider.tsx -->
<g id="node33" class="node">
<title>store/WidgetProvider.tsx</title>
<path fill="none" stroke="#c6c5fe" d="M1624.33,-489.5C1624.33,-489.5 1466.67,-489.5 1466.67,-489.5 1462.83,-489.5 1459,-485.67 1459,-481.83 1459,-481.83 1459,-474.17 1459,-474.17 1459,-470.33 1462.83,-466.5 1466.67,-466.5 1466.67,-466.5 1624.33,-466.5 1624.33,-466.5 1628.17,-466.5 1632,-470.33 1632,-474.17 1632,-474.17 1632,-481.83 1632,-481.83 1632,-485.67 1628.17,-489.5 1624.33,-489.5"/>
<text text-anchor="middle" x="1545.5" y="-474.3" font-family="Arial" font-size="14.00" fill="#c6c5fe">store/WidgetProvider.tsx</text>
</g>
<!-- component/Widget/WidgetButtons.tsx&#45;&gt;store/WidgetProvider.tsx -->
<g id="edge37" class="edge">
<title>component/Widget/WidgetButtons.tsx&#45;&gt;store/WidgetProvider.tsx</title>
<path fill="none" stroke="#757575" d="M1115.33,-544.03C1207.05,-529.92 1359.12,-506.52 1455.46,-491.7"/>
<polygon fill="#757575" stroke="#757575" points="1455.78,-495.19 1465.13,-490.21 1454.72,-488.27 1455.78,-495.19"/>
</g>
<!-- component/Widget/WidgetCallCycleSettingModal.tsx&#45;&gt;common/widget.ts -->
<g id="edge38" class="edge">
<title>component/Widget/WidgetCallCycleSettingModal.tsx&#45;&gt;common/widget.ts</title>
<path fill="none" stroke="#757575" d="M1694.56,-411C1786.8,-418.47 1901.66,-427.78 1976,-433.8"/>
<polygon fill="#757575" stroke="#757575" points="1975.36,-437.26 1985.61,-434.58 1975.93,-430.28 1975.36,-437.26"/>
</g>
<!-- component/Widget/WidgetCallCycleSettingModal/CycleInput.tsx -->
<g id="node34" class="node">
<title>component/Widget/WidgetCallCycleSettingModal/CycleInput.tsx</title>
<path fill="none" stroke="#cfffac" d="M2256.83,-369.5C2256.83,-369.5 1850.17,-369.5 1850.17,-369.5 1846.33,-369.5 1842.5,-365.67 1842.5,-361.83 1842.5,-361.83 1842.5,-354.17 1842.5,-354.17 1842.5,-350.33 1846.33,-346.5 1850.17,-346.5 1850.17,-346.5 2256.83,-346.5 2256.83,-346.5 2260.67,-346.5 2264.5,-350.33 2264.5,-354.17 2264.5,-354.17 2264.5,-361.83 2264.5,-361.83 2264.5,-365.67 2260.67,-369.5 2256.83,-369.5"/>
<text text-anchor="middle" x="2053.5" y="-354.3" font-family="Arial" font-size="14.00" fill="#cfffac">component/Widget/WidgetCallCycleSettingModal/CycleInput.tsx</text>
</g>
<!-- component/Widget/WidgetCallCycleSettingModal.tsx&#45;&gt;component/Widget/WidgetCallCycleSettingModal/CycleInput.tsx -->
<g id="edge39" class="edge">
<title>component/Widget/WidgetCallCycleSettingModal.tsx&#45;&gt;component/Widget/WidgetCallCycleSettingModal/CycleInput.tsx</title>
<path fill="none" stroke="#757575" d="M1694.56,-387C1757.01,-381.94 1829.84,-376.04 1893.44,-370.89"/>
<polygon fill="#757575" stroke="#757575" points="1893.6,-374.39 1903.28,-370.09 1893.03,-367.41 1893.6,-374.39"/>
</g>
<!-- component/Widget/WidgetCallCycleSettingModal/LastCallTimeBox.tsx -->
<g id="node35" class="node">
<title>component/Widget/WidgetCallCycleSettingModal/LastCallTimeBox.tsx</title>
<path fill="none" stroke="#cfffac" d="M2277.33,-410.5C2277.33,-410.5 1829.67,-410.5 1829.67,-410.5 1825.83,-410.5 1822,-406.67 1822,-402.83 1822,-402.83 1822,-395.17 1822,-395.17 1822,-391.33 1825.83,-387.5 1829.67,-387.5 1829.67,-387.5 2277.33,-387.5 2277.33,-387.5 2281.17,-387.5 2285,-391.33 2285,-395.17 2285,-395.17 2285,-402.83 2285,-402.83 2285,-406.67 2281.17,-410.5 2277.33,-410.5"/>
<text text-anchor="middle" x="2053.5" y="-395.3" font-family="Arial" font-size="14.00" fill="#cfffac">component/Widget/WidgetCallCycleSettingModal/LastCallTimeBox.tsx</text>
</g>
<!-- component/Widget/WidgetCallCycleSettingModal.tsx&#45;&gt;component/Widget/WidgetCallCycleSettingModal/LastCallTimeBox.tsx -->
<g id="edge40" class="edge">
<title>component/Widget/WidgetCallCycleSettingModal.tsx&#45;&gt;component/Widget/WidgetCallCycleSettingModal/LastCallTimeBox.tsx</title>
<path fill="none" stroke="#757575" d="M1721.35,-399C1750.09,-399 1780.34,-399 1810.37,-399"/>
<polygon fill="#757575" stroke="#757575" points="1810.36,-402.5 1820.36,-399 1810.36,-395.5 1810.36,-402.5"/>
</g>
<!-- component/Widget/WidgetChart.tsx&#45;&gt;types/chart.d.ts -->
<g id="edge44" class="edge">
<title>component/Widget/WidgetChart.tsx&#45;&gt;types/chart.d.ts</title>
<path fill="none" stroke="#757575" d="M1157.9,-269.92C1203.89,-273.59 1256.83,-277.2 1305,-279 1740.25,-295.25 1851.29,-318.01 2285,-278 2334.11,-273.47 2388.98,-263.12 2429.81,-254.36"/>
<polygon fill="#757575" stroke="#757575" points="2430.43,-257.81 2439.46,-252.26 2428.94,-250.97 2430.43,-257.81"/>
</g>
<!-- component/chart/BarChart.tsx -->
<g id="node36" class="node">
<title>component/chart/BarChart.tsx</title>
<path fill="none" stroke="#c6c5fe" d="M1639.33,-171.5C1639.33,-171.5 1451.67,-171.5 1451.67,-171.5 1447.83,-171.5 1444,-167.67 1444,-163.83 1444,-163.83 1444,-156.17 1444,-156.17 1444,-152.33 1447.83,-148.5 1451.67,-148.5 1451.67,-148.5 1639.33,-148.5 1639.33,-148.5 1643.17,-148.5 1647,-152.33 1647,-156.17 1647,-156.17 1647,-163.83 1647,-163.83 1647,-167.67 1643.17,-171.5 1639.33,-171.5"/>
<text text-anchor="middle" x="1545.5" y="-156.3" font-family="Arial" font-size="14.00" fill="#c6c5fe">component/chart/BarChart.tsx</text>
</g>
<!-- component/Widget/WidgetChart.tsx&#45;&gt;component/chart/BarChart.tsx -->
<g id="edge41" class="edge">
<title>component/Widget/WidgetChart.tsx&#45;&gt;component/chart/BarChart.tsx</title>
<path fill="none" stroke="#757575" d="M1098.91,-247.01C1192.83,-228.67 1371.8,-193.72 1471.98,-174.16"/>
<polygon fill="#757575" stroke="#757575" points="1472.57,-177.61 1481.71,-172.26 1471.23,-170.74 1472.57,-177.61"/>
</g>
<!-- component/chart/InformaticsChart.tsx -->
<g id="node37" class="node">
<title>component/chart/InformaticsChart.tsx</title>
<path fill="none" stroke="#c6c5fe" d="M1663.83,-270.5C1663.83,-270.5 1427.17,-270.5 1427.17,-270.5 1423.33,-270.5 1419.5,-266.67 1419.5,-262.83 1419.5,-262.83 1419.5,-255.17 1419.5,-255.17 1419.5,-251.33 1423.33,-247.5 1427.17,-247.5 1427.17,-247.5 1663.83,-247.5 1663.83,-247.5 1667.67,-247.5 1671.5,-251.33 1671.5,-255.17 1671.5,-255.17 1671.5,-262.83 1671.5,-262.83 1671.5,-266.67 1667.67,-270.5 1663.83,-270.5"/>
<text text-anchor="middle" x="1545.5" y="-255.3" font-family="Arial" font-size="14.00" fill="#c6c5fe">component/chart/InformaticsChart.tsx</text>
</g>
<!-- component/Widget/WidgetChart.tsx&#45;&gt;component/chart/InformaticsChart.tsx -->
<g id="edge42" class="edge">
<title>component/Widget/WidgetChart.tsx&#45;&gt;component/chart/InformaticsChart.tsx</title>
<path fill="none" stroke="#757575" d="M1157.97,-259C1233.06,-259 1329.87,-259 1407.82,-259"/>
<polygon fill="#757575" stroke="#757575" points="1407.67,-262.5 1417.67,-259 1407.67,-255.5 1407.67,-262.5"/>
</g>
<!-- component/chart/LineChart.tsx -->
<g id="node38" class="node">
<title>component/chart/LineChart.tsx</title>
<path fill="none" stroke="#c6c5fe" d="M1642.33,-130.5C1642.33,-130.5 1448.67,-130.5 1448.67,-130.5 1444.83,-130.5 1441,-126.67 1441,-122.83 1441,-122.83 1441,-115.17 1441,-115.17 1441,-111.33 1444.83,-107.5 1448.67,-107.5 1448.67,-107.5 1642.33,-107.5 1642.33,-107.5 1646.17,-107.5 1650,-111.33 1650,-115.17 1650,-115.17 1650,-122.83 1650,-122.83 1650,-126.67 1646.17,-130.5 1642.33,-130.5"/>
<text text-anchor="middle" x="1545.5" y="-115.3" font-family="Arial" font-size="14.00" fill="#c6c5fe">component/chart/LineChart.tsx</text>
</g>
<!-- component/Widget/WidgetChart.tsx&#45;&gt;component/chart/LineChart.tsx -->
<g id="edge43" class="edge">
<title>component/Widget/WidgetChart.tsx&#45;&gt;component/chart/LineChart.tsx</title>
<path fill="none" stroke="#757575" d="M1057.44,-247.19C1100.76,-222.19 1207.41,-164.18 1305,-139 1344.8,-128.73 1389.43,-123.4 1429.28,-120.74"/>
<polygon fill="#757575" stroke="#757575" points="1429.39,-124.24 1439.15,-120.13 1428.96,-117.25 1429.39,-124.24"/>
</g>
<!-- hook/Widget/useHandleWidgetApi.tsx&#45;&gt;common/api.ts -->
<g id="edge68" class="edge">
<title>hook/Widget/useHandleWidgetApi.tsx&#45;&gt;common/api.ts</title>
<path fill="none" stroke="#757575" d="M1674.19,-566.09C1773.8,-573.97 1908.1,-584.59 1986.99,-590.82"/>
<polygon fill="#757575" stroke="#757575" points="1986.46,-594.29 1996.71,-591.59 1987.01,-587.31 1986.46,-594.29"/>
</g>
<!-- hook/Widget/useHandleWidgetApi.tsx&#45;&gt;types/chart.d.ts -->
<g id="edge72" class="edge">
<title>hook/Widget/useHandleWidgetApi.tsx&#45;&gt;types/chart.d.ts</title>
<path fill="none" stroke="#757575" d="M1674.21,-549.75C1856.6,-539.09 2181.13,-513.17 2285,-460 2377.16,-412.82 2450.11,-307.35 2478.57,-261.72"/>
<polygon fill="#757575" stroke="#757575" points="2481.52,-263.61 2483.76,-253.25 2475.55,-259.95 2481.52,-263.61"/>
</g>
<!-- hook/Widget/useHandleWidgetApi.tsx&#45;&gt;common/date.ts -->
<g id="edge69" class="edge">
<title>hook/Widget/useHandleWidgetApi.tsx&#45;&gt;common/date.ts</title>
<path fill="none" stroke="#757575" d="M1591.49,-567.91C1645.75,-581.82 1739.91,-604.51 1822,-617 2026.16,-648.06 2085.84,-601.41 2285,-656 2352.71,-674.56 2425.07,-714.96 2463.58,-738.34"/>
<polygon fill="#757575" stroke="#757575" points="2461.42,-741.12 2471.77,-743.37 2465.09,-735.15 2461.42,-741.12"/>
</g>
<!-- hook/Widget/useHandleWidgetApi.tsx&#45;&gt;common/widget.ts -->
<g id="edge70" class="edge">
<title>hook/Widget/useHandleWidgetApi.tsx&#45;&gt;common/widget.ts</title>
<path fill="none" stroke="#757575" d="M1598.75,-544.02C1692.32,-522.57 1888.17,-477.67 1989.21,-454.51"/>
<polygon fill="#757575" stroke="#757575" points="1989.72,-457.98 1998.69,-452.34 1988.16,-451.16 1989.72,-457.98"/>
</g>
<!-- hook/Widget/useHandleWidgetApi.tsx&#45;&gt;store/DashboardProvider.tsx -->
<g id="edge71" class="edge">
<title>hook/Widget/useHandleWidgetApi.tsx&#45;&gt;store/DashboardProvider.tsx</title>
<path fill="none" stroke="#757575" d="M1591.05,-567.94C1641.59,-582.92 1724.88,-612.1 1786,-656 1805.7,-670.15 1801.33,-684.32 1822,-697 1858.45,-719.37 1903.11,-733.29 1943.38,-741.94"/>
<polygon fill="#757575" stroke="#757575" points="1942.63,-745.36 1953.13,-743.94 1944.03,-738.51 1942.63,-745.36"/>
</g>
<!-- hook/Widget/useHandleWidgetApi.tsx&#45;&gt;types/widget.d.ts -->
<g id="edge73" class="edge">
<title>hook/Widget/useHandleWidgetApi.tsx&#45;&gt;types/widget.d.ts</title>
<path fill="none" stroke="#757575" d="M1674.45,-549.82C1882.72,-541.66 2307.62,-532.93 2664,-576 2739.2,-585.09 2824.33,-606.38 2877.34,-620.99"/>
<polygon fill="#757575" stroke="#757575" points="2876.12,-624.29 2886.69,-623.6 2877.99,-617.54 2876.12,-624.29"/>
</g>
<!-- store/WidgetProvider.tsx&#45;&gt;types/widget.d.ts -->
<g id="edge81" class="edge">
<title>store/WidgetProvider.tsx&#45;&gt;types/widget.d.ts</title>
<path fill="none" stroke="#757575" d="M1632.31,-475.3C1820.94,-471.08 2285.06,-470.02 2664,-545 2747.8,-561.58 2841.33,-598.24 2891.81,-619.62"/>
<polygon fill="#757575" stroke="#757575" points="2890.24,-622.76 2900.81,-623.47 2893,-616.32 2890.24,-622.76"/>
</g>
<!-- component/chart/BarChart.tsx&#45;&gt;common/chart.ts -->
<g id="edge50" class="edge">
<title>component/chart/BarChart.tsx&#45;&gt;common/chart.ts</title>
<path fill="none" stroke="#757575" d="M1647.23,-167.62C1691.87,-166.96 1743.74,-160.41 1786,-139 1807.63,-128.04 1800.36,-108.95 1822,-98 1871,-73.21 1933.41,-69.19 1980.93,-70.83"/>
<polygon fill="#757575" stroke="#757575" points="1980.71,-74.33 1990.85,-71.28 1981.02,-67.33 1980.71,-74.33"/>
</g>
<!-- component/chart/BarChart.tsx&#45;&gt;types/chart.d.ts -->
<g id="edge53" class="edge">
<title>component/chart/BarChart.tsx&#45;&gt;types/chart.d.ts</title>
<path fill="none" stroke="#757575" d="M1647.5,-167.37C1789.78,-177.92 2057.31,-198.33 2285,-219 2331.65,-223.23 2384.16,-228.58 2424.55,-232.82"/>
<polygon fill="#757575" stroke="#757575" points="2424.06,-236.29 2434.37,-233.86 2424.79,-229.33 2424.06,-236.29"/>
</g>
<!-- component/chart/ChartSvg.tsx -->
<g id="node42" class="node">
<title>component/chart/ChartSvg.tsx</title>
<path fill="none" stroke="#cfffac" d="M2148.83,-171.5C2148.83,-171.5 1958.17,-171.5 1958.17,-171.5 1954.33,-171.5 1950.5,-167.67 1950.5,-163.83 1950.5,-163.83 1950.5,-156.17 1950.5,-156.17 1950.5,-152.33 1954.33,-148.5 1958.17,-148.5 1958.17,-148.5 2148.83,-148.5 2148.83,-148.5 2152.67,-148.5 2156.5,-152.33 2156.5,-156.17 2156.5,-156.17 2156.5,-163.83 2156.5,-163.83 2156.5,-167.67 2152.67,-171.5 2148.83,-171.5"/>
<text text-anchor="middle" x="2053.5" y="-156.3" font-family="Arial" font-size="14.00" fill="#cfffac">component/chart/ChartSvg.tsx</text>
</g>
<!-- component/chart/BarChart.tsx&#45;&gt;component/chart/ChartSvg.tsx -->
<g id="edge51" class="edge">
<title>component/chart/BarChart.tsx&#45;&gt;component/chart/ChartSvg.tsx</title>
<path fill="none" stroke="#757575" d="M1647.38,-160C1731.48,-160 1851.26,-160 1938.76,-160"/>
<polygon fill="#757575" stroke="#757575" points="1938.56,-163.5 1948.56,-160 1938.56,-156.5 1938.56,-163.5"/>
</g>
<!-- hook/useResize.tsx -->
<g id="node43" class="node">
<title>hook/useResize.tsx</title>
<path fill="none" stroke="#cfffac" d="M2115.83,-130.5C2115.83,-130.5 1991.17,-130.5 1991.17,-130.5 1987.33,-130.5 1983.5,-126.67 1983.5,-122.83 1983.5,-122.83 1983.5,-115.17 1983.5,-115.17 1983.5,-111.33 1987.33,-107.5 1991.17,-107.5 1991.17,-107.5 2115.83,-107.5 2115.83,-107.5 2119.67,-107.5 2123.5,-111.33 2123.5,-115.17 2123.5,-115.17 2123.5,-122.83 2123.5,-122.83 2123.5,-126.67 2119.67,-130.5 2115.83,-130.5"/>
<text text-anchor="middle" x="2053.5" y="-115.3" font-family="Arial" font-size="14.00" fill="#cfffac">hook/useResize.tsx</text>
</g>
<!-- component/chart/BarChart.tsx&#45;&gt;hook/useResize.tsx -->
<g id="edge52" class="edge">
<title>component/chart/BarChart.tsx&#45;&gt;hook/useResize.tsx</title>
<path fill="none" stroke="#757575" d="M1647.38,-151.83C1742.67,-144.11 1883.75,-132.67 1971.8,-125.54"/>
<polygon fill="#757575" stroke="#757575" points="1971.87,-129.04 1981.55,-124.75 1971.3,-122.07 1971.87,-129.04"/>
</g>
<!-- component/chart/InformaticsChart.tsx&#45;&gt;types/chart.d.ts -->
<g id="edge55" class="edge">
<title>component/chart/InformaticsChart.tsx&#45;&gt;types/chart.d.ts</title>
<path fill="none" stroke="#757575" d="M1671.7,-262.95C1818.67,-266.71 2069.69,-270.4 2285,-260 2331.6,-257.75 2383.9,-252.66 2424.21,-248.17"/>
<polygon fill="#757575" stroke="#757575" points="2424.47,-251.67 2434.01,-247.07 2423.68,-244.71 2424.47,-251.67"/>
</g>
<!-- component/chart/InformaticsChart/InforMaticsBox.tsx -->
<g id="node44" class="node">
<title>component/chart/InformaticsChart/InforMaticsBox.tsx</title>
<path fill="none" stroke="#c6c5fe" d="M2220.83,-251.5C2220.83,-251.5 1886.17,-251.5 1886.17,-251.5 1882.33,-251.5 1878.5,-247.67 1878.5,-243.83 1878.5,-243.83 1878.5,-236.17 1878.5,-236.17 1878.5,-232.33 1882.33,-228.5 1886.17,-228.5 1886.17,-228.5 2220.83,-228.5 2220.83,-228.5 2224.67,-228.5 2228.5,-232.33 2228.5,-236.17 2228.5,-236.17 2228.5,-243.83 2228.5,-243.83 2228.5,-247.67 2224.67,-251.5 2220.83,-251.5"/>
<text text-anchor="middle" x="2053.5" y="-236.3" font-family="Arial" font-size="14.00" fill="#c6c5fe">component/chart/InformaticsChart/InforMaticsBox.tsx</text>
</g>
<!-- component/chart/InformaticsChart.tsx&#45;&gt;component/chart/InformaticsChart/InforMaticsBox.tsx -->
<g id="edge54" class="edge">
<title>component/chart/InformaticsChart.tsx&#45;&gt;component/chart/InformaticsChart/InforMaticsBox.tsx</title>
<path fill="none" stroke="#757575" d="M1671.9,-254.29C1730.7,-252.08 1801.94,-249.41 1866.82,-246.97"/>
<polygon fill="#757575" stroke="#757575" points="1866.63,-250.48 1876.5,-246.61 1866.37,-243.49 1866.63,-250.48"/>
</g>
<!-- component/chart/LineChart.tsx&#45;&gt;common/chart.ts -->
<g id="edge57" class="edge">
<title>component/chart/LineChart.tsx&#45;&gt;common/chart.ts</title>
<path fill="none" stroke="#757575" d="M1650.42,-110.58C1749.1,-102.58 1894.81,-90.78 1981.05,-83.79"/>
<polygon fill="#757575" stroke="#757575" points="1981.1,-87.3 1990.79,-83 1980.54,-80.32 1981.1,-87.3"/>
</g>
<!-- component/chart/LineChart.tsx&#45;&gt;types/chart.d.ts -->
<g id="edge60" class="edge">
<title>component/chart/LineChart.tsx&#45;&gt;types/chart.d.ts</title>
<path fill="none" stroke="#757575" d="M1577.72,-107.06C1682.06,-69.05 2026.66,41 2285,-57 2372.12,-90.05 2446.07,-178.53 2476.56,-219.12"/>
<polygon fill="#757575" stroke="#757575" points="2473.71,-221.15 2482.46,-227.13 2479.35,-217 2473.71,-221.15"/>
</g>
<!-- component/chart/LineChart.tsx&#45;&gt;component/chart/ChartSvg.tsx -->
<g id="edge58" class="edge">
<title>component/chart/LineChart.tsx&#45;&gt;component/chart/ChartSvg.tsx</title>
<path fill="none" stroke="#757575" d="M1650.42,-127.42C1734.29,-134.22 1852.13,-143.76 1938.57,-150.77"/>
<polygon fill="#757575" stroke="#757575" points="1938.25,-154.25 1948.5,-151.57 1938.82,-147.28 1938.25,-154.25"/>
</g>
<!-- component/chart/LineChart.tsx&#45;&gt;hook/useResize.tsx -->
<g id="edge59" class="edge">
<title>component/chart/LineChart.tsx&#45;&gt;hook/useResize.tsx</title>
<path fill="none" stroke="#757575" d="M1650.42,-119C1745.64,-119 1884.65,-119 1971.76,-119"/>
<polygon fill="#757575" stroke="#757575" points="1971.66,-122.5 1981.66,-119 1971.66,-115.5 1971.66,-122.5"/>
</g>
<!-- component/Widget/WidgetPropsSettingModal.tsx -->
<g id="node39" class="node">
<title>component/Widget/WidgetPropsSettingModal.tsx</title>
<path fill="none" stroke="#c6c5fe" d="M760.33,-607.5C760.33,-607.5 446.67,-607.5 446.67,-607.5 442.83,-607.5 439,-603.67 439,-599.83 439,-599.83 439,-592.17 439,-592.17 439,-588.33 442.83,-584.5 446.67,-584.5 446.67,-584.5 760.33,-584.5 760.33,-584.5 764.17,-584.5 768,-588.33 768,-592.17 768,-592.17 768,-599.83 768,-599.83 768,-603.67 764.17,-607.5 760.33,-607.5"/>
<text text-anchor="middle" x="603.5" y="-592.3" font-family="Arial" font-size="14.00" fill="#c6c5fe">component/Widget/WidgetPropsSettingModal.tsx</text>
</g>
<!-- component/Widget/WidgetPropsSettingModal.tsx&#45;&gt;common/api.ts -->
<g id="edge45" class="edge">
<title>component/Widget/WidgetPropsSettingModal.tsx&#45;&gt;common/api.ts</title>
<path fill="none" stroke="#757575" d="M768.49,-596C1085.85,-596 1771.7,-596 1986.67,-596"/>
<polygon fill="#757575" stroke="#757575" points="1986.54,-599.5 1996.54,-596 1986.54,-592.5 1986.54,-599.5"/>
</g>
<!-- component/Widget/WidgetPropsSettingModal.tsx&#45;&gt;store/WidgetPropsSettingModalProvider.tsx -->
<g id="edge48" class="edge">
<title>component/Widget/WidgetPropsSettingModal.tsx&#45;&gt;store/WidgetPropsSettingModalProvider.tsx</title>
<path fill="none" stroke="#757575" d="M634.31,-607.91C672.79,-622.62 742.15,-646.94 804,-657 1003.22,-689.39 1236.49,-689.21 1387.18,-684.22"/>
<polygon fill="#757575" stroke="#757575" points="1386.95,-687.73 1396.83,-683.89 1386.71,-680.73 1386.95,-687.73"/>
</g>
<!-- component/Widget/WidgetPropsSettingModal/WidgetPropsButtons.tsx -->
<g id="node40" class="node">
<title>component/Widget/WidgetPropsSettingModal/WidgetPropsButtons.tsx</title>
<path fill="none" stroke="#c6c5fe" d="M1261.33,-487.5C1261.33,-487.5 811.67,-487.5 811.67,-487.5 807.83,-487.5 804,-483.67 804,-479.83 804,-479.83 804,-472.17 804,-472.17 804,-468.33 807.83,-464.5 811.67,-464.5 811.67,-464.5 1261.33,-464.5 1261.33,-464.5 1265.17,-464.5 1269,-468.33 1269,-472.17 1269,-472.17 1269,-479.83 1269,-479.83 1269,-483.67 1265.17,-487.5 1261.33,-487.5"/>
<text text-anchor="middle" x="1036.5" y="-472.3" font-family="Arial" font-size="14.00" fill="#c6c5fe">component/Widget/WidgetPropsSettingModal/WidgetPropsButtons.tsx</text>
</g>
<!-- component/Widget/WidgetPropsSettingModal.tsx&#45;&gt;component/Widget/WidgetPropsSettingModal/WidgetPropsButtons.tsx -->
<g id="edge46" class="edge">
<title>component/Widget/WidgetPropsSettingModal.tsx&#45;&gt;component/Widget/WidgetPropsSettingModal/WidgetPropsButtons.tsx</title>
<path fill="none" stroke="#757575" d="M642.62,-584.06C682.67,-571.62 747.58,-551.79 804,-536 862.18,-519.72 929.01,-502.56 975.86,-490.79"/>
<polygon fill="#757575" stroke="#757575" points="976.71,-494.18 985.56,-488.35 975.01,-487.39 976.71,-494.18"/>
</g>
<!-- component/Widget/WidgetPropsSettingModal/WidgetPropsList.tsx -->
<g id="node41" class="node">
<title>component/Widget/WidgetPropsSettingModal/WidgetPropsList.tsx</title>
<path fill="none" stroke="#cfffac" d="M1248.83,-647.5C1248.83,-647.5 824.17,-647.5 824.17,-647.5 820.33,-647.5 816.5,-643.67 816.5,-639.83 816.5,-639.83 816.5,-632.17 816.5,-632.17 816.5,-628.33 820.33,-624.5 824.17,-624.5 824.17,-624.5 1248.83,-624.5 1248.83,-624.5 1252.67,-624.5 1256.5,-628.33 1256.5,-632.17 1256.5,-632.17 1256.5,-639.83 1256.5,-639.83 1256.5,-643.67 1252.67,-647.5 1248.83,-647.5"/>
<text text-anchor="middle" x="1036.5" y="-632.3" font-family="Arial" font-size="14.00" fill="#cfffac">component/Widget/WidgetPropsSettingModal/WidgetPropsList.tsx</text>
</g>
<!-- component/Widget/WidgetPropsSettingModal.tsx&#45;&gt;component/Widget/WidgetPropsSettingModal/WidgetPropsList.tsx -->
<g id="edge47" class="edge">
<title>component/Widget/WidgetPropsSettingModal.tsx&#45;&gt;component/Widget/WidgetPropsSettingModal/WidgetPropsList.tsx</title>
<path fill="none" stroke="#757575" d="M733.52,-607.97C784.47,-612.7 843.15,-618.15 895.15,-622.97"/>
<polygon fill="#757575" stroke="#757575" points="894.69,-626.45 904.98,-623.89 895.34,-619.48 894.69,-626.45"/>
</g>
<!-- component/Widget/WidgetPropsSettingModal/WidgetPropsButtons.tsx&#45;&gt;store/WidgetProvider.tsx -->
<g id="edge49" class="edge">
<title>component/Widget/WidgetPropsSettingModal/WidgetPropsButtons.tsx&#45;&gt;store/WidgetProvider.tsx</title>
<path fill="none" stroke="#757575" d="M1269.49,-476.92C1332.15,-477.16 1396.58,-477.42 1447.31,-477.62"/>
<polygon fill="#757575" stroke="#757575" points="1447.05,-481.12 1457.06,-477.66 1447.08,-474.12 1447.05,-481.12"/>
</g>
<!-- component/chart/InformaticsChart/InforMaticsBox.tsx&#45;&gt;types/chart.d.ts -->
<g id="edge56" class="edge">
<title>component/chart/InformaticsChart/InforMaticsBox.tsx&#45;&gt;types/chart.d.ts</title>
<path fill="none" stroke="#757575" d="M2228.78,-240C2297.34,-240 2371.96,-240 2424.09,-240"/>
<polygon fill="#757575" stroke="#757575" points="2424.01,-243.5 2434.01,-240 2424.01,-236.5 2424.01,-243.5"/>
</g>
<!-- component/common/DatePicker/DatePickerTitle.tsx&#45;&gt;types/widget.d.ts -->
<g id="edge64" class="edge">
<title>component/common/DatePicker/DatePickerTitle.tsx&#45;&gt;types/widget.d.ts</title>
<path fill="none" stroke="#757575" d="M2614.88,-824.09C2631.68,-820.54 2648.48,-815.95 2664,-810 2763.34,-771.91 2863.76,-692.12 2906.98,-655.34"/>
<polygon fill="#757575" stroke="#757575" points="2909.11,-658.13 2914.4,-648.95 2904.54,-652.82 2909.11,-658.13"/>
</g>
<!-- component/common/DatePicker/ListPicker.tsx&#45;&gt;types/datePicker.d.ts -->
<g id="edge66" class="edge">
<title>component/common/DatePicker/ListPicker.tsx&#45;&gt;types/datePicker.d.ts</title>
<path fill="none" stroke="#757575" d="M2608.43,-1124.98C2638.24,-1128.01 2670.31,-1131.19 2700,-1134 2747.6,-1138.5 2800.79,-1143.17 2843.93,-1146.86"/>
<polygon fill="#757575" stroke="#757575" points="2843.47,-1150.33 2853.73,-1147.7 2844.06,-1143.36 2843.47,-1150.33"/>
</g>
<!-- component/common/DatePicker/ListPickerItem.tsx -->
<g id="node48" class="node">
<title>component/common/DatePicker/ListPickerItem.tsx</title>
<path fill="none" stroke="#c6c5fe" d="M3090.83,-1124.5C3090.83,-1124.5 2769.17,-1124.5 2769.17,-1124.5 2765.33,-1124.5 2761.5,-1120.67 2761.5,-1116.83 2761.5,-1116.83 2761.5,-1109.17 2761.5,-1109.17 2761.5,-1105.33 2765.33,-1101.5 2769.17,-1101.5 2769.17,-1101.5 3090.83,-1101.5 3090.83,-1101.5 3094.67,-1101.5 3098.5,-1105.33 3098.5,-1109.17 3098.5,-1109.17 3098.5,-1116.83 3098.5,-1116.83 3098.5,-1120.67 3094.67,-1124.5 3090.83,-1124.5"/>
<text text-anchor="middle" x="2930" y="-1109.3" font-family="Arial" font-size="14.00" fill="#c6c5fe">component/common/DatePicker/ListPickerItem.tsx</text>
</g>
<!-- component/common/DatePicker/ListPicker.tsx&#45;&gt;component/common/DatePicker/ListPickerItem.tsx -->
<g id="edge65" class="edge">
<title>component/common/DatePicker/ListPicker.tsx&#45;&gt;component/common/DatePicker/ListPickerItem.tsx</title>
<path fill="none" stroke="#757575" d="M2646.73,-1113C2680.12,-1113 2715.72,-1113 2750,-1113"/>
<polygon fill="#757575" stroke="#757575" points="2749.57,-1116.5 2759.57,-1113 2749.57,-1109.5 2749.57,-1116.5"/>
</g>
<!-- component/common/DatePicker/ListPickerItem.tsx&#45;&gt;component/Dashboard/CommonStyle.ts -->
<g id="edge67" class="edge">
<title>component/common/DatePicker/ListPickerItem.tsx&#45;&gt;component/Dashboard/CommonStyle.ts</title>
<path fill="none" stroke="#757575" d="M3098.96,-1101.63C3119.78,-1097.97 3140.56,-1093.21 3160,-1087 3215.03,-1069.43 3272.52,-1033.29 3304.55,-1011.3"/>
<polygon fill="#757575" stroke="#757575" points="3306.19,-1014.42 3312.4,-1005.83 3302.19,-1008.67 3306.19,-1014.42"/>
</g>
<!-- page/Dashboard.tsx&#45;&gt;component/Dashboard/DashboardHeader.tsx -->
<g id="edge74" class="edge">
<title>page/Dashboard.tsx&#45;&gt;component/Dashboard/DashboardHeader.tsx</title>
<path fill="none" stroke="#757575" d="M343.62,-527.77C385.68,-570.37 530.19,-716.76 582.99,-770.24"/>
<polygon fill="#757575" stroke="#757575" points="580.34,-772.54 589.86,-777.19 585.32,-767.62 580.34,-772.54"/>
</g>
<!-- page/Dashboard.tsx&#45;&gt;component/Widget.tsx -->
<g id="edge75" class="edge">
<title>page/Dashboard.tsx&#45;&gt;component/Widget.tsx</title>
<path fill="none" stroke="#757575" d="M372.5,-504.02C420.14,-489.93 499.32,-466.52 551.21,-451.17"/>
<polygon fill="#757575" stroke="#757575" points="552.12,-454.55 560.72,-448.36 550.14,-447.84 552.12,-454.55"/>
</g>
<!-- page/Dashboard.tsx&#45;&gt;store/WidgetProvider.tsx -->
<g id="edge77" class="edge">
<title>page/Dashboard.tsx&#45;&gt;store/WidgetProvider.tsx</title>
<path fill="none" stroke="#757575" d="M339.68,-504.32C355.24,-481.87 392.95,-433.3 439,-415 496.92,-391.98 1163.72,-419.31 1269,-430 1341.08,-437.32 1422.73,-452.42 1478.31,-463.73"/>
<polygon fill="#757575" stroke="#757575" points="1477.43,-467.13 1487.93,-465.71 1478.84,-460.27 1477.43,-467.13"/>
</g>
<!-- page/Dashboard.tsx&#45;&gt;component/Widget/WidgetPropsSettingModal.tsx -->
<g id="edge76" class="edge">
<title>page/Dashboard.tsx&#45;&gt;component/Widget/WidgetPropsSettingModal.tsx</title>
<path fill="none" stroke="#757575" d="M372.5,-527.98C420.14,-542.07 499.32,-565.48 551.21,-580.83"/>
<polygon fill="#757575" stroke="#757575" points="550.14,-584.16 560.72,-583.64 552.12,-577.45 550.14,-584.16"/>
</g>
</g>
</svg>
