<?xml version="1.0" encoding="UTF-8" standalone="no"?>
<!DOCTYPE svg PUBLIC "-//W3C//DTD SVG 1.1//EN"
 "http://www.w3.org/Graphics/SVG/1.1/DTD/svg11.dtd">
<!-- Generated by graphviz version 7.1.0 (20230121.1956)
 -->
<!-- Title: G Pages: 1 -->
<svg width="2970pt" height="919pt"
 viewBox="0.00 0.00 2970.20 919.19" xmlns="http://www.w3.org/2000/svg" xmlns:xlink="http://www.w3.org/1999/xlink">
<g id="graph0" class="graph" transform="scale(1 1) rotate(0) translate(21.6 897.59)">
<title>G</title>
<polygon fill="#111111" stroke="none" points="-21.6,21.6 -21.6,-897.59 2948.6,-897.59 2948.6,21.6 -21.6,21.6"/>
<!-- App.tsx -->
<g id="node1" class="node">
<title>App.tsx</title>
<path fill="none" stroke="#c6c5fe" d="M57.33,-486C57.33,-486 7.67,-486 7.67,-486 3.83,-486 0,-482.17 0,-478.33 0,-478.33 0,-470.67 0,-470.67 0,-466.83 3.83,-463 7.67,-463 7.67,-463 57.33,-463 57.33,-463 61.17,-463 65,-466.83 65,-470.67 65,-470.67 65,-478.33 65,-478.33 65,-482.17 61.17,-486 57.33,-486"/>
<text text-anchor="middle" x="32.5" y="-470.8" font-family="Arial" font-size="14.00" fill="#c6c5fe">App.tsx</text>
</g>
<!-- router/Router.tsx -->
<g id="node2" class="node">
<title>router/Router.tsx</title>
<path fill="none" stroke="#c6c5fe" d="M215.33,-486C215.33,-486 108.67,-486 108.67,-486 104.83,-486 101,-482.17 101,-478.33 101,-478.33 101,-470.67 101,-470.67 101,-466.83 104.83,-463 108.67,-463 108.67,-463 215.33,-463 215.33,-463 219.17,-463 223,-466.83 223,-470.67 223,-470.67 223,-478.33 223,-478.33 223,-482.17 219.17,-486 215.33,-486"/>
<text text-anchor="middle" x="162" y="-470.8" font-family="Arial" font-size="14.00" fill="#c6c5fe">router/Router.tsx</text>
</g>
<!-- App.tsx&#45;&gt;router/Router.tsx -->
<g id="edge1" class="edge">
<title>App.tsx&#45;&gt;router/Router.tsx</title>
<path fill="none" stroke="#757575" d="M65.34,-474.5C72.7,-474.5 80.81,-474.5 89.12,-474.5"/>
<polygon fill="#757575" stroke="#757575" points="88.99,-478 98.99,-474.5 88.99,-471 88.99,-478"/>
</g>
<!-- page/Dashboard.tsx -->
<g id="node49" class="node">
<title>page/Dashboard.tsx</title>
<path fill="none" stroke="#c6c5fe" d="M395.33,-486C395.33,-486 266.67,-486 266.67,-486 262.83,-486 259,-482.17 259,-478.33 259,-478.33 259,-470.67 259,-470.67 259,-466.83 262.83,-463 266.67,-463 266.67,-463 395.33,-463 395.33,-463 399.17,-463 403,-466.83 403,-470.67 403,-470.67 403,-478.33 403,-478.33 403,-482.17 399.17,-486 395.33,-486"/>
<text text-anchor="middle" x="331" y="-470.8" font-family="Arial" font-size="14.00" fill="#c6c5fe">page/Dashboard.tsx</text>
</g>
<!-- router/Router.tsx&#45;&gt;page/Dashboard.tsx -->
<g id="edge70" class="edge">
<title>router/Router.tsx&#45;&gt;page/Dashboard.tsx</title>
<path fill="none" stroke="#757575" d="M223.29,-474.5C231.1,-474.5 239.21,-474.5 247.3,-474.5"/>
<polygon fill="#757575" stroke="#757575" points="247.19,-478 257.19,-474.5 247.19,-471 247.19,-478"/>
</g>
<!-- asset/image/pause.png -->
<g id="node3" class="node">
<title>asset/image/pause.png</title>
<path fill="none" stroke="#cfffac" d="M1502.83,-184C1502.83,-184 1354.17,-184 1354.17,-184 1350.33,-184 1346.5,-180.17 1346.5,-176.33 1346.5,-176.33 1346.5,-168.67 1346.5,-168.67 1346.5,-164.83 1350.33,-161 1354.17,-161 1354.17,-161 1502.83,-161 1502.83,-161 1506.67,-161 1510.5,-164.83 1510.5,-168.67 1510.5,-168.67 1510.5,-176.33 1510.5,-176.33 1510.5,-180.17 1506.67,-184 1502.83,-184"/>
<text text-anchor="middle" x="1428.5" y="-168.8" font-family="Arial" font-size="14.00" fill="#cfffac">asset/image/pause.png</text>
</g>
<!-- asset/image/play.png -->
<g id="node4" class="node">
<title>asset/image/play.png</title>
<path fill="none" stroke="#cfffac" d="M1496.33,-225C1496.33,-225 1360.67,-225 1360.67,-225 1356.83,-225 1353,-221.17 1353,-217.33 1353,-217.33 1353,-209.67 1353,-209.67 1353,-205.83 1356.83,-202 1360.67,-202 1360.67,-202 1496.33,-202 1496.33,-202 1500.17,-202 1504,-205.83 1504,-209.67 1504,-209.67 1504,-217.33 1504,-217.33 1504,-221.17 1500.17,-225 1496.33,-225"/>
<text text-anchor="middle" x="1428.5" y="-209.8" font-family="Arial" font-size="14.00" fill="#cfffac">asset/image/play.png</text>
</g>
<!-- common/api.ts -->
<g id="node5" class="node">
<title>common/api.ts</title>
<path fill="none" stroke="#c6c5fe" d="M1983.83,-789C1983.83,-789 1889.17,-789 1889.17,-789 1885.33,-789 1881.5,-785.17 1881.5,-781.33 1881.5,-781.33 1881.5,-773.67 1881.5,-773.67 1881.5,-769.83 1885.33,-766 1889.17,-766 1889.17,-766 1983.83,-766 1983.83,-766 1987.67,-766 1991.5,-769.83 1991.5,-773.67 1991.5,-773.67 1991.5,-781.33 1991.5,-781.33 1991.5,-785.17 1987.67,-789 1983.83,-789"/>
<text text-anchor="middle" x="1936.5" y="-773.8" font-family="Arial" font-size="14.00" fill="#c6c5fe">common/api.ts</text>
</g>
<!-- types/api.d.ts -->
<g id="node6" class="node">
<title>types/api.d.ts</title>
<path fill="none" stroke="#cfffac" d="M2421.83,-768C2421.83,-768 2336.17,-768 2336.17,-768 2332.33,-768 2328.5,-764.17 2328.5,-760.33 2328.5,-760.33 2328.5,-752.67 2328.5,-752.67 2328.5,-748.83 2332.33,-745 2336.17,-745 2336.17,-745 2421.83,-745 2421.83,-745 2425.67,-745 2429.5,-748.83 2429.5,-752.67 2429.5,-752.67 2429.5,-760.33 2429.5,-760.33 2429.5,-764.17 2425.67,-768 2421.83,-768"/>
<text text-anchor="middle" x="2379" y="-752.8" font-family="Arial" font-size="14.00" fill="#cfffac">types/api.d.ts</text>
</g>
<!-- common/api.ts&#45;&gt;types/api.d.ts -->
<g id="edge2" class="edge">
<title>common/api.ts&#45;&gt;types/api.d.ts</title>
<path fill="none" stroke="#757575" d="M1991.96,-774.9C2074.37,-770.97 2230.31,-763.54 2316.63,-759.43"/>
<polygon fill="#757575" stroke="#757575" points="2316.75,-762.92 2326.57,-758.95 2316.41,-755.93 2316.75,-762.92"/>
</g>
<!-- common/chart.ts -->
<g id="node7" class="node">
<title>common/chart.ts</title>
<path fill="none" stroke="#c6c5fe" d="M2432.33,-545C2432.33,-545 2325.67,-545 2325.67,-545 2321.83,-545 2318,-541.17 2318,-537.33 2318,-537.33 2318,-529.67 2318,-529.67 2318,-525.83 2321.83,-522 2325.67,-522 2325.67,-522 2432.33,-522 2432.33,-522 2436.17,-522 2440,-525.83 2440,-529.67 2440,-529.67 2440,-537.33 2440,-537.33 2440,-541.17 2436.17,-545 2432.33,-545"/>
<text text-anchor="middle" x="2379" y="-529.8" font-family="Arial" font-size="14.00" fill="#c6c5fe">common/chart.ts</text>
</g>
<!-- types/chart.d.ts -->
<g id="node8" class="node">
<title>types/chart.d.ts</title>
<path fill="none" stroke="#cfffac" d="M2807.33,-626C2807.33,-626 2709.67,-626 2709.67,-626 2705.83,-626 2702,-622.17 2702,-618.33 2702,-618.33 2702,-610.67 2702,-610.67 2702,-606.83 2705.83,-603 2709.67,-603 2709.67,-603 2807.33,-603 2807.33,-603 2811.17,-603 2815,-606.83 2815,-610.67 2815,-610.67 2815,-618.33 2815,-618.33 2815,-622.17 2811.17,-626 2807.33,-626"/>
<text text-anchor="middle" x="2758.5" y="-610.8" font-family="Arial" font-size="14.00" fill="#cfffac">types/chart.d.ts</text>
</g>
<!-- common/chart.ts&#45;&gt;types/chart.d.ts -->
<g id="edge3" class="edge">
<title>common/chart.ts&#45;&gt;types/chart.d.ts</title>
<path fill="none" stroke="#757575" d="M2440.39,-538.29C2474.05,-541.59 2516.6,-546.79 2554,-554.5 2609.51,-565.95 2671.82,-585.32 2712.7,-598.94"/>
<polygon fill="#757575" stroke="#757575" points="2711.35,-602.18 2721.94,-602.05 2713.58,-595.55 2711.35,-602.18"/>
</g>
<!-- common/date.ts -->
<g id="node9" class="node">
<title>common/date.ts</title>
<path fill="none" stroke="#cfffac" d="M2430.83,-385C2430.83,-385 2327.17,-385 2327.17,-385 2323.33,-385 2319.5,-381.17 2319.5,-377.33 2319.5,-377.33 2319.5,-369.67 2319.5,-369.67 2319.5,-365.83 2323.33,-362 2327.17,-362 2327.17,-362 2430.83,-362 2430.83,-362 2434.67,-362 2438.5,-365.83 2438.5,-369.67 2438.5,-369.67 2438.5,-377.33 2438.5,-377.33 2438.5,-381.17 2434.67,-385 2430.83,-385"/>
<text text-anchor="middle" x="2379" y="-369.8" font-family="Arial" font-size="14.00" fill="#cfffac">common/date.ts</text>
</g>
<!-- common/widget.ts -->
<g id="node10" class="node">
<title>common/widget.ts</title>
<path fill="none" stroke="#cfffac" d="M1994.83,-707C1994.83,-707 1878.17,-707 1878.17,-707 1874.33,-707 1870.5,-703.17 1870.5,-699.33 1870.5,-699.33 1870.5,-691.67 1870.5,-691.67 1870.5,-687.83 1874.33,-684 1878.17,-684 1878.17,-684 1994.83,-684 1994.83,-684 1998.67,-684 2002.5,-687.83 2002.5,-691.67 2002.5,-691.67 2002.5,-699.33 2002.5,-699.33 2002.5,-703.17 1998.67,-707 1994.83,-707"/>
<text text-anchor="middle" x="1936.5" y="-691.8" font-family="Arial" font-size="14.00" fill="#cfffac">common/widget.ts</text>
</g>
<!-- component/Dashboard/DashboardBody.tsx -->
<g id="node11" class="node">
<title>component/Dashboard/DashboardBody.tsx</title>
<path fill="none" stroke="#c6c5fe" d="M727.83,-708C727.83,-708 453.17,-708 453.17,-708 449.33,-708 445.5,-704.17 445.5,-700.33 445.5,-700.33 445.5,-692.67 445.5,-692.67 445.5,-688.83 449.33,-685 453.17,-685 453.17,-685 727.83,-685 727.83,-685 731.67,-685 735.5,-688.83 735.5,-692.67 735.5,-692.67 735.5,-700.33 735.5,-700.33 735.5,-704.17 731.67,-708 727.83,-708"/>
<text text-anchor="middle" x="590.5" y="-692.8" font-family="Arial" font-size="14.00" fill="#c6c5fe">component/Dashboard/DashboardBody.tsx</text>
</g>
<!-- component/Widget/Widget.tsx -->
<g id="node12" class="node">
<title>component/Widget/Widget.tsx</title>
<path fill="none" stroke="#c6c5fe" d="M1061.83,-647C1061.83,-647 868.17,-647 868.17,-647 864.33,-647 860.5,-643.17 860.5,-639.33 860.5,-639.33 860.5,-631.67 860.5,-631.67 860.5,-627.83 864.33,-624 868.17,-624 868.17,-624 1061.83,-624 1061.83,-624 1065.67,-624 1069.5,-627.83 1069.5,-631.67 1069.5,-631.67 1069.5,-639.33 1069.5,-639.33 1069.5,-643.17 1065.67,-647 1061.83,-647"/>
<text text-anchor="middle" x="965" y="-631.8" font-family="Arial" font-size="14.00" fill="#c6c5fe">component/Widget/Widget.tsx</text>
</g>
<!-- component/Dashboard/DashboardBody.tsx&#45;&gt;component/Widget/Widget.tsx -->
<g id="edge4" class="edge">
<title>component/Dashboard/DashboardBody.tsx&#45;&gt;component/Widget/Widget.tsx</title>
<path fill="none" stroke="#757575" d="M664.65,-684.52C726.54,-674.39 815.25,-659.86 880.03,-649.25"/>
<polygon fill="#757575" stroke="#757575" points="880.22,-652.77 889.52,-647.7 879.09,-645.86 880.22,-652.77"/>
</g>
<!-- component/Widget/WidgetPropsSettingModal.tsx -->
<g id="node13" class="node">
<title>component/Widget/WidgetPropsSettingModal.tsx</title>
<path fill="none" stroke="#c6c5fe" d="M1121.83,-750C1121.83,-750 808.17,-750 808.17,-750 804.33,-750 800.5,-746.17 800.5,-742.33 800.5,-742.33 800.5,-734.67 800.5,-734.67 800.5,-730.83 804.33,-727 808.17,-727 808.17,-727 1121.83,-727 1121.83,-727 1125.67,-727 1129.5,-730.83 1129.5,-734.67 1129.5,-734.67 1129.5,-742.33 1129.5,-742.33 1129.5,-746.17 1125.67,-750 1121.83,-750"/>
<text text-anchor="middle" x="965" y="-734.8" font-family="Arial" font-size="14.00" fill="#c6c5fe">component/Widget/WidgetPropsSettingModal.tsx</text>
</g>
<!-- component/Dashboard/DashboardBody.tsx&#45;&gt;component/Widget/WidgetPropsSettingModal.tsx -->
<g id="edge5" class="edge">
<title>component/Dashboard/DashboardBody.tsx&#45;&gt;component/Widget/WidgetPropsSettingModal.tsx</title>
<path fill="none" stroke="#757575" d="M697.75,-708.48C744.13,-713.71 798.69,-719.86 846.3,-725.23"/>
<polygon fill="#757575" stroke="#757575" points="845.78,-728.69 856.11,-726.34 846.56,-721.74 845.78,-728.69"/>
</g>
<!-- store/WidgetProvider.tsx -->
<g id="node14" class="node">
<title>store/WidgetProvider.tsx</title>
<path fill="none" stroke="#c6c5fe" d="M2015.33,-871C2015.33,-871 1857.67,-871 1857.67,-871 1853.83,-871 1850,-867.17 1850,-863.33 1850,-863.33 1850,-855.67 1850,-855.67 1850,-851.83 1853.83,-848 1857.67,-848 1857.67,-848 2015.33,-848 2015.33,-848 2019.17,-848 2023,-851.83 2023,-855.67 2023,-855.67 2023,-863.33 2023,-863.33 2023,-867.17 2019.17,-871 2015.33,-871"/>
<text text-anchor="middle" x="1936.5" y="-855.8" font-family="Arial" font-size="14.00" fill="#c6c5fe">store/WidgetProvider.tsx</text>
</g>
<!-- component/Dashboard/DashboardBody.tsx&#45;&gt;store/WidgetProvider.tsx -->
<g id="edge6" class="edge">
<title>component/Dashboard/DashboardBody.tsx&#45;&gt;store/WidgetProvider.tsx</title>
<path fill="none" stroke="#757575" d="M622.8,-708.45C659.55,-722.16 722.54,-744.65 778,-759.5 957.51,-807.56 1003.31,-820.96 1188,-841.5 1420.23,-867.32 1695.44,-865.73 1838.38,-862.51"/>
<polygon fill="#757575" stroke="#757575" points="1838.27,-866.01 1848.18,-862.28 1838.1,-859.02 1838.27,-866.01"/>
</g>
<!-- hook/useBoolean.tsx -->
<g id="node26" class="node">
<title>hook/useBoolean.tsx</title>
<path fill="none" stroke="#cfffac" d="M2445.83,-326C2445.83,-326 2312.17,-326 2312.17,-326 2308.33,-326 2304.5,-322.17 2304.5,-318.33 2304.5,-318.33 2304.5,-310.67 2304.5,-310.67 2304.5,-306.83 2308.33,-303 2312.17,-303 2312.17,-303 2445.83,-303 2445.83,-303 2449.67,-303 2453.5,-306.83 2453.5,-310.67 2453.5,-310.67 2453.5,-318.33 2453.5,-318.33 2453.5,-322.17 2449.67,-326 2445.83,-326"/>
<text text-anchor="middle" x="2379" y="-310.8" font-family="Arial" font-size="14.00" fill="#cfffac">hook/useBoolean.tsx</text>
</g>
<!-- component/Widget/Widget.tsx&#45;&gt;hook/useBoolean.tsx -->
<g id="edge31" class="edge">
<title>component/Widget/Widget.tsx&#45;&gt;hook/useBoolean.tsx</title>
<path fill="none" stroke="#757575" d="M976.06,-623.84C1005.02,-591.23 1092.65,-499.06 1188,-462.5 1289.92,-423.42 2070.2,-441.99 2168,-393.5 2189.73,-382.73 2183.11,-364.81 2204,-352.5 2230.81,-336.7 2263.43,-327.45 2293.15,-322.04"/>
<polygon fill="#757575" stroke="#757575" points="2293.61,-325.51 2302.89,-320.4 2292.45,-318.61 2293.61,-325.51"/>
</g>
<!-- component/Widget/WidgetButtons.tsx -->
<g id="node30" class="node">
<title>component/Widget/WidgetButtons.tsx</title>
<path fill="none" stroke="#c6c5fe" d="M1549.33,-668C1549.33,-668 1307.67,-668 1307.67,-668 1303.83,-668 1300,-664.17 1300,-660.33 1300,-660.33 1300,-652.67 1300,-652.67 1300,-648.83 1303.83,-645 1307.67,-645 1307.67,-645 1549.33,-645 1549.33,-645 1553.17,-645 1557,-648.83 1557,-652.67 1557,-652.67 1557,-660.33 1557,-660.33 1557,-664.17 1553.17,-668 1549.33,-668"/>
<text text-anchor="middle" x="1428.5" y="-652.8" font-family="Arial" font-size="14.00" fill="#c6c5fe">component/Widget/WidgetButtons.tsx</text>
</g>
<!-- component/Widget/Widget.tsx&#45;&gt;component/Widget/WidgetButtons.tsx -->
<g id="edge27" class="edge">
<title>component/Widget/Widget.tsx&#45;&gt;component/Widget/WidgetButtons.tsx</title>
<path fill="none" stroke="#757575" d="M1069.86,-640.23C1134.45,-643.16 1218.29,-646.98 1288.56,-650.18"/>
<polygon fill="#757575" stroke="#757575" points="1288.05,-653.66 1298.2,-650.62 1288.37,-646.67 1288.05,-653.66"/>
</g>
<!-- component/Widget/WidgetCallCycleSettingModal.tsx -->
<g id="node31" class="node">
<title>component/Widget/WidgetCallCycleSettingModal.tsx</title>
<path fill="none" stroke="#c6c5fe" d="M1596.33,-709C1596.33,-709 1260.67,-709 1260.67,-709 1256.83,-709 1253,-705.17 1253,-701.33 1253,-701.33 1253,-693.67 1253,-693.67 1253,-689.83 1256.83,-686 1260.67,-686 1260.67,-686 1596.33,-686 1596.33,-686 1600.17,-686 1604,-689.83 1604,-693.67 1604,-693.67 1604,-701.33 1604,-701.33 1604,-705.17 1600.17,-709 1596.33,-709"/>
<text text-anchor="middle" x="1428.5" y="-693.8" font-family="Arial" font-size="14.00" fill="#c6c5fe">component/Widget/WidgetCallCycleSettingModal.tsx</text>
</g>
<!-- component/Widget/Widget.tsx&#45;&gt;component/Widget/WidgetCallCycleSettingModal.tsx -->
<g id="edge28" class="edge">
<title>component/Widget/Widget.tsx&#45;&gt;component/Widget/WidgetCallCycleSettingModal.tsx</title>
<path fill="none" stroke="#757575" d="M1020.48,-647.44C1065.27,-656.86 1130.48,-669.68 1188,-677.5 1206.92,-680.07 1226.74,-682.37 1246.52,-684.4"/>
<polygon fill="#757575" stroke="#757575" points="1246.02,-687.86 1256.32,-685.38 1246.71,-680.9 1246.02,-687.86"/>
</g>
<!-- component/Widget/WidgetChart.tsx -->
<g id="node32" class="node">
<title>component/Widget/WidgetChart.tsx</title>
<path fill="none" stroke="#c6c5fe" d="M1541.83,-586C1541.83,-586 1315.17,-586 1315.17,-586 1311.33,-586 1307.5,-582.17 1307.5,-578.33 1307.5,-578.33 1307.5,-570.67 1307.5,-570.67 1307.5,-566.83 1311.33,-563 1315.17,-563 1315.17,-563 1541.83,-563 1541.83,-563 1545.67,-563 1549.5,-566.83 1549.5,-570.67 1549.5,-570.67 1549.5,-578.33 1549.5,-578.33 1549.5,-582.17 1545.67,-586 1541.83,-586"/>
<text text-anchor="middle" x="1428.5" y="-570.8" font-family="Arial" font-size="14.00" fill="#c6c5fe">component/Widget/WidgetChart.tsx</text>
</g>
<!-- component/Widget/Widget.tsx&#45;&gt;component/Widget/WidgetChart.tsx -->
<g id="edge29" class="edge">
<title>component/Widget/Widget.tsx&#45;&gt;component/Widget/WidgetChart.tsx</title>
<path fill="none" stroke="#757575" d="M1024.2,-623.52C1068.85,-614.69 1132.1,-602.97 1188,-595.5 1222.9,-590.83 1260.82,-586.96 1295.96,-583.87"/>
<polygon fill="#757575" stroke="#757575" points="1296.1,-587.37 1305.76,-583.02 1295.49,-580.4 1296.1,-587.37"/>
</g>
<!-- hook/Widget/useHandleWidgetApi.tsx -->
<g id="node33" class="node">
<title>hook/Widget/useHandleWidgetApi.tsx</title>
<path fill="none" stroke="#c6c5fe" d="M1549.33,-627C1549.33,-627 1307.67,-627 1307.67,-627 1303.83,-627 1300,-623.17 1300,-619.33 1300,-619.33 1300,-611.67 1300,-611.67 1300,-607.83 1303.83,-604 1307.67,-604 1307.67,-604 1549.33,-604 1549.33,-604 1553.17,-604 1557,-607.83 1557,-611.67 1557,-611.67 1557,-619.33 1557,-619.33 1557,-623.17 1553.17,-627 1549.33,-627"/>
<text text-anchor="middle" x="1428.5" y="-611.8" font-family="Arial" font-size="14.00" fill="#c6c5fe">hook/Widget/useHandleWidgetApi.tsx</text>
</g>
<!-- component/Widget/Widget.tsx&#45;&gt;hook/Widget/useHandleWidgetApi.tsx -->
<g id="edge30" class="edge">
<title>component/Widget/Widget.tsx&#45;&gt;hook/Widget/useHandleWidgetApi.tsx</title>
<path fill="none" stroke="#757575" d="M1069.86,-631C1134.45,-628.2 1218.29,-624.57 1288.56,-621.52"/>
<polygon fill="#757575" stroke="#757575" points="1288.36,-625.03 1298.2,-621.1 1288.06,-618.04 1288.36,-625.03"/>
</g>
<!-- store/WidgetPropsSettingModalProvider.tsx -->
<g id="node20" class="node">
<title>store/WidgetPropsSettingModalProvider.tsx</title>
<path fill="none" stroke="#c6c5fe" d="M2075.83,-465C2075.83,-465 1797.17,-465 1797.17,-465 1793.33,-465 1789.5,-461.17 1789.5,-457.33 1789.5,-457.33 1789.5,-449.67 1789.5,-449.67 1789.5,-445.83 1793.33,-442 1797.17,-442 1797.17,-442 2075.83,-442 2075.83,-442 2079.67,-442 2083.5,-445.83 2083.5,-449.67 2083.5,-449.67 2083.5,-457.33 2083.5,-457.33 2083.5,-461.17 2079.67,-465 2075.83,-465"/>
<text text-anchor="middle" x="1936.5" y="-449.8" font-family="Arial" font-size="14.00" fill="#c6c5fe">store/WidgetPropsSettingModalProvider.tsx</text>
</g>
<!-- component/Widget/WidgetPropsSettingModal.tsx&#45;&gt;store/WidgetPropsSettingModalProvider.tsx -->
<g id="edge43" class="edge">
<title>component/Widget/WidgetPropsSettingModal.tsx&#45;&gt;store/WidgetPropsSettingModalProvider.tsx</title>
<path fill="none" stroke="#757575" d="M1021.82,-726.55C1062.92,-715.06 1117.46,-693.77 1152,-656.5 1184.68,-621.24 1151.12,-585.33 1188,-554.5 1366.6,-405.19 1473.81,-497.75 1705,-470.5 1728.59,-467.72 1753.59,-465.32 1778.09,-463.26"/>
<polygon fill="#757575" stroke="#757575" points="1778.11,-466.77 1787.79,-462.47 1777.54,-459.8 1778.11,-466.77"/>
</g>
<!-- component/Widget/WidgetPropsSettingModal/WidgetPropsButtons.tsx -->
<g id="node39" class="node">
<title>component/Widget/WidgetPropsSettingModal/WidgetPropsButtons.tsx</title>
<path fill="none" stroke="#c6c5fe" d="M1653.33,-832C1653.33,-832 1203.67,-832 1203.67,-832 1199.83,-832 1196,-828.17 1196,-824.33 1196,-824.33 1196,-816.67 1196,-816.67 1196,-812.83 1199.83,-809 1203.67,-809 1203.67,-809 1653.33,-809 1653.33,-809 1657.17,-809 1661,-812.83 1661,-816.67 1661,-816.67 1661,-824.33 1661,-824.33 1661,-828.17 1657.17,-832 1653.33,-832"/>
<text text-anchor="middle" x="1428.5" y="-816.8" font-family="Arial" font-size="14.00" fill="#c6c5fe">component/Widget/WidgetPropsSettingModal/WidgetPropsButtons.tsx</text>
</g>
<!-- component/Widget/WidgetPropsSettingModal.tsx&#45;&gt;component/Widget/WidgetPropsSettingModal/WidgetPropsButtons.tsx -->
<g id="edge40" class="edge">
<title>component/Widget/WidgetPropsSettingModal.tsx&#45;&gt;component/Widget/WidgetPropsSettingModal/WidgetPropsButtons.tsx</title>
<path fill="none" stroke="#757575" d="M1000.9,-750.46C1044.22,-764.8 1120.65,-788.4 1188,-800.5 1201.91,-803 1216.33,-805.19 1230.88,-807.1"/>
<polygon fill="#757575" stroke="#757575" points="1230.17,-810.54 1240.53,-808.33 1231.05,-803.6 1230.17,-810.54"/>
</g>
<!-- component/Widget/WidgetPropsSettingModal/WidgetPropsList.tsx -->
<g id="node40" class="node">
<title>component/Widget/WidgetPropsSettingModal/WidgetPropsList.tsx</title>
<path fill="none" stroke="#cfffac" d="M1640.83,-791C1640.83,-791 1216.17,-791 1216.17,-791 1212.33,-791 1208.5,-787.17 1208.5,-783.33 1208.5,-783.33 1208.5,-775.67 1208.5,-775.67 1208.5,-771.83 1212.33,-768 1216.17,-768 1216.17,-768 1640.83,-768 1640.83,-768 1644.67,-768 1648.5,-771.83 1648.5,-775.67 1648.5,-775.67 1648.5,-783.33 1648.5,-783.33 1648.5,-787.17 1644.67,-791 1640.83,-791"/>
<text text-anchor="middle" x="1428.5" y="-775.8" font-family="Arial" font-size="14.00" fill="#cfffac">component/Widget/WidgetPropsSettingModal/WidgetPropsList.tsx</text>
</g>
<!-- component/Widget/WidgetPropsSettingModal.tsx&#45;&gt;component/Widget/WidgetPropsSettingModal/WidgetPropsList.tsx -->
<g id="edge41" class="edge">
<title>component/Widget/WidgetPropsSettingModal.tsx&#45;&gt;component/Widget/WidgetPropsSettingModal/WidgetPropsList.tsx</title>
<path fill="none" stroke="#757575" d="M1090.15,-750.49C1122.03,-753.5 1156.28,-756.68 1188,-759.5 1214.39,-761.85 1242.43,-764.26 1269.66,-766.57"/>
<polygon fill="#757575" stroke="#757575" points="1269.1,-770.03 1279.36,-767.39 1269.69,-763.06 1269.1,-770.03"/>
</g>
<!-- hook/useGetApiList.tsx -->
<g id="node41" class="node">
<title>hook/useGetApiList.tsx</title>
<path fill="none" stroke="#c6c5fe" d="M1502.33,-750C1502.33,-750 1354.67,-750 1354.67,-750 1350.83,-750 1347,-746.17 1347,-742.33 1347,-742.33 1347,-734.67 1347,-734.67 1347,-730.83 1350.83,-727 1354.67,-727 1354.67,-727 1502.33,-727 1502.33,-727 1506.17,-727 1510,-730.83 1510,-734.67 1510,-734.67 1510,-742.33 1510,-742.33 1510,-746.17 1506.17,-750 1502.33,-750"/>
<text text-anchor="middle" x="1428.5" y="-734.8" font-family="Arial" font-size="14.00" fill="#c6c5fe">hook/useGetApiList.tsx</text>
</g>
<!-- component/Widget/WidgetPropsSettingModal.tsx&#45;&gt;hook/useGetApiList.tsx -->
<g id="edge42" class="edge">
<title>component/Widget/WidgetPropsSettingModal.tsx&#45;&gt;hook/useGetApiList.tsx</title>
<path fill="none" stroke="#757575" d="M1129.68,-738.5C1198.69,-738.5 1276.46,-738.5 1335.22,-738.5"/>
<polygon fill="#757575" stroke="#757575" points="1335.2,-742 1345.2,-738.5 1335.2,-735 1335.2,-742"/>
</g>
<!-- types/widget.d.ts -->
<g id="node50" class="node">
<title>types/widget.d.ts</title>
<path fill="none" stroke="#cfffac" d="M2432.83,-871C2432.83,-871 2325.17,-871 2325.17,-871 2321.33,-871 2317.5,-867.17 2317.5,-863.33 2317.5,-863.33 2317.5,-855.67 2317.5,-855.67 2317.5,-851.83 2321.33,-848 2325.17,-848 2325.17,-848 2432.83,-848 2432.83,-848 2436.67,-848 2440.5,-851.83 2440.5,-855.67 2440.5,-855.67 2440.5,-863.33 2440.5,-863.33 2440.5,-867.17 2436.67,-871 2432.83,-871"/>
<text text-anchor="middle" x="2379" y="-855.8" font-family="Arial" font-size="14.00" fill="#cfffac">types/widget.d.ts</text>
</g>
<!-- store/WidgetProvider.tsx&#45;&gt;types/widget.d.ts -->
<g id="edge73" class="edge">
<title>store/WidgetProvider.tsx&#45;&gt;types/widget.d.ts</title>
<path fill="none" stroke="#757575" d="M2023.48,-859.5C2105.81,-859.5 2228.62,-859.5 2305.95,-859.5"/>
<polygon fill="#757575" stroke="#757575" points="2305.51,-863 2315.51,-859.5 2305.51,-856 2305.51,-863"/>
</g>
<!-- component/Dashboard/DashboardHeader.tsx -->
<g id="node15" class="node">
<title>component/Dashboard/DashboardHeader.tsx</title>
<path fill="none" stroke="#c6c5fe" d="M734.33,-346C734.33,-346 446.67,-346 446.67,-346 442.83,-346 439,-342.17 439,-338.33 439,-338.33 439,-330.67 439,-330.67 439,-326.83 442.83,-323 446.67,-323 446.67,-323 734.33,-323 734.33,-323 738.17,-323 742,-326.83 742,-330.67 742,-330.67 742,-338.33 742,-338.33 742,-342.17 738.17,-346 734.33,-346"/>
<text text-anchor="middle" x="590.5" y="-330.8" font-family="Arial" font-size="14.00" fill="#c6c5fe">component/Dashboard/DashboardHeader.tsx</text>
</g>
<!-- component/Dashboard/DashboardHeader/PlayIcon.tsx -->
<g id="node16" class="node">
<title>component/Dashboard/DashboardHeader/PlayIcon.tsx</title>
<path fill="none" stroke="#c6c5fe" d="M1138.33,-225C1138.33,-225 791.67,-225 791.67,-225 787.83,-225 784,-221.17 784,-217.33 784,-217.33 784,-209.67 784,-209.67 784,-205.83 787.83,-202 791.67,-202 791.67,-202 1138.33,-202 1138.33,-202 1142.17,-202 1146,-205.83 1146,-209.67 1146,-209.67 1146,-217.33 1146,-217.33 1146,-221.17 1142.17,-225 1138.33,-225"/>
<text text-anchor="middle" x="965" y="-209.8" font-family="Arial" font-size="14.00" fill="#c6c5fe">component/Dashboard/DashboardHeader/PlayIcon.tsx</text>
</g>
<!-- component/Dashboard/DashboardHeader.tsx&#45;&gt;component/Dashboard/DashboardHeader/PlayIcon.tsx -->
<g id="edge7" class="edge">
<title>component/Dashboard/DashboardHeader.tsx&#45;&gt;component/Dashboard/DashboardHeader/PlayIcon.tsx</title>
<path fill="none" stroke="#757575" d="M628.24,-322.57C696.2,-300.49 841.48,-253.3 916.69,-228.87"/>
<polygon fill="#757575" stroke="#757575" points="917.4,-232.32 925.82,-225.9 915.23,-225.66 917.4,-232.32"/>
</g>
<!-- component/Dashboard/DashboardHeader/SelectRealTimeRangeArea.tsx -->
<g id="node17" class="node">
<title>component/Dashboard/DashboardHeader/SelectRealTimeRangeArea.tsx</title>
<path fill="none" stroke="#c6c5fe" d="M1661.33,-105C1661.33,-105 1195.67,-105 1195.67,-105 1191.83,-105 1188,-101.17 1188,-97.33 1188,-97.33 1188,-89.67 1188,-89.67 1188,-85.83 1191.83,-82 1195.67,-82 1195.67,-82 1661.33,-82 1661.33,-82 1665.17,-82 1669,-85.83 1669,-89.67 1669,-89.67 1669,-97.33 1669,-97.33 1669,-101.17 1665.17,-105 1661.33,-105"/>
<text text-anchor="middle" x="1428.5" y="-89.8" font-family="Arial" font-size="14.00" fill="#c6c5fe">component/Dashboard/DashboardHeader/SelectRealTimeRangeArea.tsx</text>
</g>
<!-- component/Dashboard/DashboardHeader.tsx&#45;&gt;component/Dashboard/DashboardHeader/SelectRealTimeRangeArea.tsx -->
<g id="edge8" class="edge">
<title>component/Dashboard/DashboardHeader.tsx&#45;&gt;component/Dashboard/DashboardHeader/SelectRealTimeRangeArea.tsx</title>
<path fill="none" stroke="#757575" d="M602.39,-322.91C629.24,-295.14 701.94,-224.75 778,-192.5 903.13,-139.45 1052.48,-114.33 1176.4,-102.64"/>
<polygon fill="#757575" stroke="#757575" points="1176.41,-106.16 1186.05,-101.76 1175.77,-99.19 1176.41,-106.16"/>
</g>
<!-- component/Dashboard/DashboardHeader/TimeBlock.tsx -->
<g id="node18" class="node">
<title>component/Dashboard/DashboardHeader/TimeBlock.tsx</title>
<path fill="none" stroke="#c6c5fe" d="M1144.33,-307C1144.33,-307 785.67,-307 785.67,-307 781.83,-307 778,-303.17 778,-299.33 778,-299.33 778,-291.67 778,-291.67 778,-287.83 781.83,-284 785.67,-284 785.67,-284 1144.33,-284 1144.33,-284 1148.17,-284 1152,-287.83 1152,-291.67 1152,-291.67 1152,-299.33 1152,-299.33 1152,-303.17 1148.17,-307 1144.33,-307"/>
<text text-anchor="middle" x="965" y="-291.8" font-family="Arial" font-size="14.00" fill="#c6c5fe">component/Dashboard/DashboardHeader/TimeBlock.tsx</text>
</g>
<!-- component/Dashboard/DashboardHeader.tsx&#45;&gt;component/Dashboard/DashboardHeader/TimeBlock.tsx -->
<g id="edge9" class="edge">
<title>component/Dashboard/DashboardHeader.tsx&#45;&gt;component/Dashboard/DashboardHeader/TimeBlock.tsx</title>
<path fill="none" stroke="#757575" d="M706.05,-322.51C747.85,-318.13 795.35,-313.16 838.09,-308.68"/>
<polygon fill="#757575" stroke="#757575" points="838.34,-312.18 847.92,-307.65 837.61,-305.21 838.34,-312.18"/>
</g>
<!-- store/DashboardProvider.tsx -->
<g id="node19" class="node">
<title>store/DashboardProvider.tsx</title>
<path fill="none" stroke="#c6c5fe" d="M2027.33,-385C2027.33,-385 1845.67,-385 1845.67,-385 1841.83,-385 1838,-381.17 1838,-377.33 1838,-377.33 1838,-369.67 1838,-369.67 1838,-365.83 1841.83,-362 1845.67,-362 1845.67,-362 2027.33,-362 2027.33,-362 2031.17,-362 2035,-365.83 2035,-369.67 2035,-369.67 2035,-377.33 2035,-377.33 2035,-381.17 2031.17,-385 2027.33,-385"/>
<text text-anchor="middle" x="1936.5" y="-369.8" font-family="Arial" font-size="14.00" fill="#c6c5fe">store/DashboardProvider.tsx</text>
</g>
<!-- component/Dashboard/DashboardHeader.tsx&#45;&gt;store/DashboardProvider.tsx -->
<g id="edge10" class="edge">
<title>component/Dashboard/DashboardHeader.tsx&#45;&gt;store/DashboardProvider.tsx</title>
<path fill="none" stroke="#757575" d="M742.41,-338.88C1015.83,-346.81 1586.95,-363.39 1826.29,-370.33"/>
<polygon fill="#757575" stroke="#757575" points="1826.17,-373.83 1836.26,-370.62 1826.37,-366.83 1826.17,-373.83"/>
</g>
<!-- component/Dashboard/DashboardHeader.tsx&#45;&gt;store/WidgetPropsSettingModalProvider.tsx -->
<g id="edge11" class="edge">
<title>component/Dashboard/DashboardHeader.tsx&#45;&gt;store/WidgetPropsSettingModalProvider.tsx</title>
<path fill="none" stroke="#757575" d="M673.55,-346.44C706.04,-350.92 743.73,-355.81 778,-359.5 1134.63,-397.86 1554.6,-428.3 1777.64,-443.3"/>
<polygon fill="#757575" stroke="#757575" points="1777.37,-446.79 1787.58,-443.97 1777.84,-439.81 1777.37,-446.79"/>
</g>
<!-- component/Dashboard/DashboardHeader/PlayIcon.tsx&#45;&gt;asset/image/pause.png -->
<g id="edge19" class="edge">
<title>component/Dashboard/DashboardHeader/PlayIcon.tsx&#45;&gt;asset/image/pause.png</title>
<path fill="none" stroke="#757575" d="M1090.15,-201.51C1122.03,-198.5 1156.28,-195.32 1188,-192.5 1236.36,-188.19 1290.25,-183.67 1334.64,-180.02"/>
<polygon fill="#757575" stroke="#757575" points="1334.82,-183.51 1344.5,-179.21 1334.24,-176.54 1334.82,-183.51"/>
</g>
<!-- component/Dashboard/DashboardHeader/PlayIcon.tsx&#45;&gt;asset/image/play.png -->
<g id="edge20" class="edge">
<title>component/Dashboard/DashboardHeader/PlayIcon.tsx&#45;&gt;asset/image/play.png</title>
<path fill="none" stroke="#757575" d="M1146.41,-213.5C1213.44,-213.5 1286.43,-213.5 1341.23,-213.5"/>
<polygon fill="#757575" stroke="#757575" points="1341.12,-217 1351.12,-213.5 1341.12,-210 1341.12,-217"/>
</g>
<!-- component/Dashboard/DashboardHeader/SelectRealTimeRangeArea.tsx&#45;&gt;hook/useBoolean.tsx -->
<g id="edge23" class="edge">
<title>component/Dashboard/DashboardHeader/SelectRealTimeRangeArea.tsx&#45;&gt;hook/useBoolean.tsx</title>
<path fill="none" stroke="#757575" d="M1542.4,-105.45C1584.52,-113.74 1631.24,-127.76 1669,-151.5 1690.39,-164.95 1682.64,-183.73 1705,-195.5 1796.37,-243.6 2067.33,-211.56 2168,-234.5 2231.9,-249.06 2302.37,-278.96 2343.26,-297.8"/>
<polygon fill="#757575" stroke="#757575" points="2341.58,-300.87 2352.12,-301.92 2344.53,-294.53 2341.58,-300.87"/>
</g>
<!-- hook/useOutsideClick.tsx -->
<g id="node27" class="node">
<title>hook/useOutsideClick.tsx</title>
<path fill="none" stroke="#cfffac" d="M2016.83,-105C2016.83,-105 1856.17,-105 1856.17,-105 1852.33,-105 1848.5,-101.17 1848.5,-97.33 1848.5,-97.33 1848.5,-89.67 1848.5,-89.67 1848.5,-85.83 1852.33,-82 1856.17,-82 1856.17,-82 2016.83,-82 2016.83,-82 2020.67,-82 2024.5,-85.83 2024.5,-89.67 2024.5,-89.67 2024.5,-97.33 2024.5,-97.33 2024.5,-101.17 2020.67,-105 2016.83,-105"/>
<text text-anchor="middle" x="1936.5" y="-89.8" font-family="Arial" font-size="14.00" fill="#cfffac">hook/useOutsideClick.tsx</text>
</g>
<!-- component/Dashboard/DashboardHeader/SelectRealTimeRangeArea.tsx&#45;&gt;hook/useOutsideClick.tsx -->
<g id="edge24" class="edge">
<title>component/Dashboard/DashboardHeader/SelectRealTimeRangeArea.tsx&#45;&gt;hook/useOutsideClick.tsx</title>
<path fill="none" stroke="#757575" d="M1669.16,-93.5C1728.4,-93.5 1788.62,-93.5 1836.77,-93.5"/>
<polygon fill="#757575" stroke="#757575" points="1836.6,-97 1846.6,-93.5 1836.6,-90 1836.6,-97"/>
</g>
<!-- component/Dashboard/DashboardHeader/RealTime.tsx -->
<g id="node28" class="node">
<title>component/Dashboard/DashboardHeader/RealTime.tsx</title>
<path fill="none" stroke="#cfffac" d="M2112.83,-64C2112.83,-64 1760.17,-64 1760.17,-64 1756.33,-64 1752.5,-60.17 1752.5,-56.33 1752.5,-56.33 1752.5,-48.67 1752.5,-48.67 1752.5,-44.83 1756.33,-41 1760.17,-41 1760.17,-41 2112.83,-41 2112.83,-41 2116.67,-41 2120.5,-44.83 2120.5,-48.67 2120.5,-48.67 2120.5,-56.33 2120.5,-56.33 2120.5,-60.17 2116.67,-64 2112.83,-64"/>
<text text-anchor="middle" x="1936.5" y="-48.8" font-family="Arial" font-size="14.00" fill="#cfffac">component/Dashboard/DashboardHeader/RealTime.tsx</text>
</g>
<!-- component/Dashboard/DashboardHeader/SelectRealTimeRangeArea.tsx&#45;&gt;component/Dashboard/DashboardHeader/RealTime.tsx -->
<g id="edge21" class="edge">
<title>component/Dashboard/DashboardHeader/SelectRealTimeRangeArea.tsx&#45;&gt;component/Dashboard/DashboardHeader/RealTime.tsx</title>
<path fill="none" stroke="#757575" d="M1577.56,-81.5C1640.01,-76.44 1712.84,-70.54 1776.44,-65.39"/>
<polygon fill="#757575" stroke="#757575" points="1776.6,-68.89 1786.28,-64.59 1776.03,-61.91 1776.6,-68.89"/>
</g>
<!-- component/Dashboard/DashboardHeader/SelectRealTimeListItem.tsx -->
<g id="node29" class="node">
<title>component/Dashboard/DashboardHeader/SelectRealTimeListItem.tsx</title>
<path fill="none" stroke="#cfffac" d="M2158.83,-23C2158.83,-23 1714.17,-23 1714.17,-23 1710.33,-23 1706.5,-19.17 1706.5,-15.33 1706.5,-15.33 1706.5,-7.67 1706.5,-7.67 1706.5,-3.83 1710.33,0 1714.17,0 1714.17,0 2158.83,0 2158.83,0 2162.67,0 2166.5,-3.83 2166.5,-7.67 2166.5,-7.67 2166.5,-15.33 2166.5,-15.33 2166.5,-19.17 2162.67,-23 2158.83,-23"/>
<text text-anchor="middle" x="1936.5" y="-7.8" font-family="Arial" font-size="14.00" fill="#cfffac">component/Dashboard/DashboardHeader/SelectRealTimeListItem.tsx</text>
</g>
<!-- component/Dashboard/DashboardHeader/SelectRealTimeRangeArea.tsx&#45;&gt;component/Dashboard/DashboardHeader/SelectRealTimeListItem.tsx -->
<g id="edge22" class="edge">
<title>component/Dashboard/DashboardHeader/SelectRealTimeRangeArea.tsx&#45;&gt;component/Dashboard/DashboardHeader/SelectRealTimeListItem.tsx</title>
<path fill="none" stroke="#757575" d="M1474,-81.54C1528.18,-67.43 1622.64,-44.28 1705,-31.5 1721.36,-28.96 1738.43,-26.72 1755.55,-24.75"/>
<polygon fill="#757575" stroke="#757575" points="1755.75,-28.25 1765.3,-23.66 1754.98,-21.29 1755.75,-28.25"/>
</g>
<!-- component/Dashboard/DashboardHeader/CurrentTime.tsx -->
<g id="node21" class="node">
<title>component/Dashboard/DashboardHeader/CurrentTime.tsx</title>
<path fill="none" stroke="#c6c5fe" d="M1613.83,-266C1613.83,-266 1243.17,-266 1243.17,-266 1239.33,-266 1235.5,-262.17 1235.5,-258.33 1235.5,-258.33 1235.5,-250.67 1235.5,-250.67 1235.5,-246.83 1239.33,-243 1243.17,-243 1243.17,-243 1613.83,-243 1613.83,-243 1617.67,-243 1621.5,-246.83 1621.5,-250.67 1621.5,-250.67 1621.5,-258.33 1621.5,-258.33 1621.5,-262.17 1617.67,-266 1613.83,-266"/>
<text text-anchor="middle" x="1428.5" y="-250.8" font-family="Arial" font-size="14.00" fill="#c6c5fe">component/Dashboard/DashboardHeader/CurrentTime.tsx</text>
</g>
<!-- component/Dashboard/DashboardHeader/TimeBlock.tsx&#45;&gt;component/Dashboard/DashboardHeader/CurrentTime.tsx -->
<g id="edge25" class="edge">
<title>component/Dashboard/DashboardHeader/TimeBlock.tsx&#45;&gt;component/Dashboard/DashboardHeader/CurrentTime.tsx</title>
<path fill="none" stroke="#757575" d="M1090.15,-283.51C1122.03,-280.5 1156.28,-277.32 1188,-274.5 1214.39,-272.15 1242.43,-269.74 1269.66,-267.43"/>
<polygon fill="#757575" stroke="#757575" points="1269.69,-270.94 1279.36,-266.61 1269.1,-263.97 1269.69,-270.94"/>
</g>
<!-- component/Dashboard/DashboardHeader/DatePickerArea.tsx -->
<g id="node24" class="node">
<title>component/Dashboard/DashboardHeader/DatePickerArea.tsx</title>
<path fill="none" stroke="#c6c5fe" d="M1624.33,-307C1624.33,-307 1232.67,-307 1232.67,-307 1228.83,-307 1225,-303.17 1225,-299.33 1225,-299.33 1225,-291.67 1225,-291.67 1225,-287.83 1228.83,-284 1232.67,-284 1232.67,-284 1624.33,-284 1624.33,-284 1628.17,-284 1632,-287.83 1632,-291.67 1632,-291.67 1632,-299.33 1632,-299.33 1632,-303.17 1628.17,-307 1624.33,-307"/>
<text text-anchor="middle" x="1428.5" y="-291.8" font-family="Arial" font-size="14.00" fill="#c6c5fe">component/Dashboard/DashboardHeader/DatePickerArea.tsx</text>
</g>
<!-- component/Dashboard/DashboardHeader/TimeBlock.tsx&#45;&gt;component/Dashboard/DashboardHeader/DatePickerArea.tsx -->
<g id="edge26" class="edge">
<title>component/Dashboard/DashboardHeader/TimeBlock.tsx&#45;&gt;component/Dashboard/DashboardHeader/DatePickerArea.tsx</title>
<path fill="none" stroke="#757575" d="M1152.38,-295.5C1172.43,-295.5 1192.95,-295.5 1213.29,-295.5"/>
<polygon fill="#757575" stroke="#757575" points="1213.06,-299 1223.06,-295.5 1213.06,-292 1213.06,-299"/>
</g>
<!-- store/DashboardProvider.tsx&#45;&gt;common/date.ts -->
<g id="edge71" class="edge">
<title>store/DashboardProvider.tsx&#45;&gt;common/date.ts</title>
<path fill="none" stroke="#757575" d="M2035.26,-373.5C2117.79,-373.5 2233.95,-373.5 2307.6,-373.5"/>
<polygon fill="#757575" stroke="#757575" points="2307.53,-377 2317.53,-373.5 2307.53,-370 2307.53,-377"/>
</g>
<!-- store/WidgetPropsSettingModalProvider.tsx&#45;&gt;hook/useBoolean.tsx -->
<g id="edge72" class="edge">
<title>store/WidgetPropsSettingModalProvider.tsx&#45;&gt;hook/useBoolean.tsx</title>
<path fill="none" stroke="#757575" d="M2083.92,-459.03C2113.8,-454.34 2143.54,-444.88 2168,-427.5 2198.14,-406.08 2175,-375.44 2204,-352.5 2229.06,-332.68 2262.23,-322.67 2292.88,-317.78"/>
<polygon fill="#757575" stroke="#757575" points="2293.13,-321.28 2302.54,-316.41 2292.15,-314.35 2293.13,-321.28"/>
</g>
<!-- hook/useCurrentTime.tsx -->
<g id="node22" class="node">
<title>hook/useCurrentTime.tsx</title>
<path fill="none" stroke="#cfffac" d="M2016.33,-146C2016.33,-146 1856.67,-146 1856.67,-146 1852.83,-146 1849,-142.17 1849,-138.33 1849,-138.33 1849,-130.67 1849,-130.67 1849,-126.83 1852.83,-123 1856.67,-123 1856.67,-123 2016.33,-123 2016.33,-123 2020.17,-123 2024,-126.83 2024,-130.67 2024,-130.67 2024,-138.33 2024,-138.33 2024,-142.17 2020.17,-146 2016.33,-146"/>
<text text-anchor="middle" x="1936.5" y="-130.8" font-family="Arial" font-size="14.00" fill="#cfffac">hook/useCurrentTime.tsx</text>
</g>
<!-- component/Dashboard/DashboardHeader/CurrentTime.tsx&#45;&gt;hook/useCurrentTime.tsx -->
<g id="edge12" class="edge">
<title>component/Dashboard/DashboardHeader/CurrentTime.tsx&#45;&gt;hook/useCurrentTime.tsx</title>
<path fill="none" stroke="#757575" d="M1506.09,-266.48C1556.76,-270.21 1622.22,-266.57 1669,-233.5 1700.51,-211.23 1673.48,-176.76 1705,-154.5 1744.93,-126.3 1798.98,-120.39 1844.7,-121.95"/>
<polygon fill="#757575" stroke="#757575" points="1844.47,-125.45 1854.62,-122.43 1844.8,-118.46 1844.47,-125.45"/>
</g>
<!-- component/Dashboard/DashboardHeader/DateBox.tsx -->
<g id="node23" class="node">
<title>component/Dashboard/DashboardHeader/DateBox.tsx</title>
<path fill="none" stroke="#cfffac" d="M2109.83,-267C2109.83,-267 1763.17,-267 1763.17,-267 1759.33,-267 1755.5,-263.17 1755.5,-259.33 1755.5,-259.33 1755.5,-251.67 1755.5,-251.67 1755.5,-247.83 1759.33,-244 1763.17,-244 1763.17,-244 2109.83,-244 2109.83,-244 2113.67,-244 2117.5,-247.83 2117.5,-251.67 2117.5,-251.67 2117.5,-259.33 2117.5,-259.33 2117.5,-263.17 2113.67,-267 2109.83,-267"/>
<text text-anchor="middle" x="1936.5" y="-251.8" font-family="Arial" font-size="14.00" fill="#cfffac">component/Dashboard/DashboardHeader/DateBox.tsx</text>
</g>
<!-- component/Dashboard/DashboardHeader/DatePickerArea.tsx&#45;&gt;common/date.ts -->
<g id="edge13" class="edge">
<title>component/Dashboard/DashboardHeader/DatePickerArea.tsx&#45;&gt;common/date.ts</title>
<path fill="none" stroke="#757575" d="M1562.24,-307.49C1607.52,-311.47 1658.46,-315.81 1705,-319.5 1910.66,-335.79 1962.45,-334.9 2168,-352.5 2214.62,-356.49 2266.98,-361.73 2307.75,-365.97"/>
<polygon fill="#757575" stroke="#757575" points="2307.39,-369.45 2317.7,-367.01 2308.12,-362.49 2307.39,-369.45"/>
</g>
<!-- component/Dashboard/DashboardHeader/DatePickerArea.tsx&#45;&gt;store/DashboardProvider.tsx -->
<g id="edge18" class="edge">
<title>component/Dashboard/DashboardHeader/DatePickerArea.tsx&#45;&gt;store/DashboardProvider.tsx</title>
<path fill="none" stroke="#757575" d="M1493.82,-307.47C1542.05,-316.47 1609.68,-329.16 1669,-340.5 1685.01,-343.56 1688.89,-345.03 1705,-347.5 1744.49,-353.56 1787.99,-358.82 1826.46,-363"/>
<polygon fill="#757575" stroke="#757575" points="1825.87,-366.46 1836.19,-364.05 1826.62,-359.5 1825.87,-366.46"/>
</g>
<!-- component/Dashboard/DashboardHeader/DatePickerArea.tsx&#45;&gt;component/Dashboard/DashboardHeader/DateBox.tsx -->
<g id="edge14" class="edge">
<title>component/Dashboard/DashboardHeader/DatePickerArea.tsx&#45;&gt;component/Dashboard/DashboardHeader/DateBox.tsx</title>
<path fill="none" stroke="#757575" d="M1580.97,-283.53C1641.41,-278.75 1711.12,-273.24 1772.64,-268.37"/>
<polygon fill="#757575" stroke="#757575" points="1772.83,-271.87 1782.52,-267.59 1772.28,-264.89 1772.83,-271.87"/>
</g>
<!-- component/common/DatePicker.tsx -->
<g id="node25" class="node">
<title>component/common/DatePicker.tsx</title>
<path fill="none" stroke="#c6c5fe" d="M2049.83,-187C2049.83,-187 1823.17,-187 1823.17,-187 1819.33,-187 1815.5,-183.17 1815.5,-179.33 1815.5,-179.33 1815.5,-171.67 1815.5,-171.67 1815.5,-167.83 1819.33,-164 1823.17,-164 1823.17,-164 2049.83,-164 2049.83,-164 2053.67,-164 2057.5,-167.83 2057.5,-171.67 2057.5,-171.67 2057.5,-179.33 2057.5,-179.33 2057.5,-183.17 2053.67,-187 2049.83,-187"/>
<text text-anchor="middle" x="1936.5" y="-171.8" font-family="Arial" font-size="14.00" fill="#c6c5fe">component/common/DatePicker.tsx</text>
</g>
<!-- component/Dashboard/DashboardHeader/DatePickerArea.tsx&#45;&gt;component/common/DatePicker.tsx -->
<g id="edge15" class="edge">
<title>component/Dashboard/DashboardHeader/DatePickerArea.tsx&#45;&gt;component/common/DatePicker.tsx</title>
<path fill="none" stroke="#757575" d="M1632.48,-288.73C1645.14,-284.96 1657.42,-280.28 1669,-274.5 1690.4,-263.82 1684.54,-246.88 1705,-234.5 1741.58,-212.36 1786.27,-198.48 1826.52,-189.79"/>
<polygon fill="#757575" stroke="#757575" points="1827.18,-193.23 1836.27,-187.79 1825.77,-186.38 1827.18,-193.23"/>
</g>
<!-- component/Dashboard/DashboardHeader/DatePickerArea.tsx&#45;&gt;hook/useBoolean.tsx -->
<g id="edge16" class="edge">
<title>component/Dashboard/DashboardHeader/DatePickerArea.tsx&#45;&gt;hook/useBoolean.tsx</title>
<path fill="none" stroke="#757575" d="M1632.4,-299.56C1837.65,-303.68 2145.12,-309.84 2292.82,-312.79"/>
<polygon fill="#757575" stroke="#757575" points="2292.45,-316.29 2302.52,-312.99 2292.59,-309.29 2292.45,-316.29"/>
</g>
<!-- component/Dashboard/DashboardHeader/DatePickerArea.tsx&#45;&gt;hook/useOutsideClick.tsx -->
<g id="edge17" class="edge">
<title>component/Dashboard/DashboardHeader/DatePickerArea.tsx&#45;&gt;hook/useOutsideClick.tsx</title>
<path fill="none" stroke="#757575" d="M1484.59,-307.49C1538.27,-315.71 1618.91,-318.35 1669,-274.5 1724.17,-226.2 1649.81,-161.78 1705,-113.5 1749.13,-74.9 1817.87,-73.81 1868.81,-80.01"/>
<polygon fill="#757575" stroke="#757575" points="1868.16,-83.46 1878.54,-81.33 1869.1,-76.52 1868.16,-83.46"/>
</g>
<!-- component/common/DatePicker/DatePickerTitle.tsx -->
<g id="node45" class="node">
<title>component/common/DatePicker/DatePickerTitle.tsx</title>
<path fill="none" stroke="#c6c5fe" d="M2542.83,-147C2542.83,-147 2215.17,-147 2215.17,-147 2211.33,-147 2207.5,-143.17 2207.5,-139.33 2207.5,-139.33 2207.5,-131.67 2207.5,-131.67 2207.5,-127.83 2211.33,-124 2215.17,-124 2215.17,-124 2542.83,-124 2542.83,-124 2546.67,-124 2550.5,-127.83 2550.5,-131.67 2550.5,-131.67 2550.5,-139.33 2550.5,-139.33 2550.5,-143.17 2546.67,-147 2542.83,-147"/>
<text text-anchor="middle" x="2379" y="-131.8" font-family="Arial" font-size="14.00" fill="#c6c5fe">component/common/DatePicker/DatePickerTitle.tsx</text>
</g>
<!-- component/common/DatePicker.tsx&#45;&gt;component/common/DatePicker/DatePickerTitle.tsx -->
<g id="edge56" class="edge">
<title>component/common/DatePicker.tsx&#45;&gt;component/common/DatePicker/DatePickerTitle.tsx</title>
<path fill="none" stroke="#757575" d="M2057.87,-164.57C2112.56,-159.6 2177.67,-153.69 2234.85,-148.5"/>
<polygon fill="#757575" stroke="#757575" points="2235.02,-152 2244.66,-147.61 2234.39,-145.03 2235.02,-152"/>
</g>
<!-- component/common/DatePicker/ListPicker.tsx -->
<g id="node46" class="node">
<title>component/common/DatePicker/ListPicker.tsx</title>
<path fill="none" stroke="#c6c5fe" d="M2525.33,-227C2525.33,-227 2232.67,-227 2232.67,-227 2228.83,-227 2225,-223.17 2225,-219.33 2225,-219.33 2225,-211.67 2225,-211.67 2225,-207.83 2228.83,-204 2232.67,-204 2232.67,-204 2525.33,-204 2525.33,-204 2529.17,-204 2533,-207.83 2533,-211.67 2533,-211.67 2533,-219.33 2533,-219.33 2533,-223.17 2529.17,-227 2525.33,-227"/>
<text text-anchor="middle" x="2379" y="-211.8" font-family="Arial" font-size="14.00" fill="#c6c5fe">component/common/DatePicker/ListPicker.tsx</text>
</g>
<!-- component/common/DatePicker.tsx&#45;&gt;component/common/DatePicker/ListPicker.tsx -->
<g id="edge57" class="edge">
<title>component/common/DatePicker.tsx&#45;&gt;component/common/DatePicker/ListPicker.tsx</title>
<path fill="none" stroke="#757575" d="M2057.87,-186.43C2112.56,-191.4 2177.67,-197.31 2234.85,-202.5"/>
<polygon fill="#757575" stroke="#757575" points="2234.39,-205.97 2244.66,-203.39 2235.02,-199 2234.39,-205.97"/>
</g>
<!-- types/common.d.ts -->
<g id="node47" class="node">
<title>types/common.d.ts</title>
<path fill="none" stroke="#cfffac" d="M2819.33,-187C2819.33,-187 2697.67,-187 2697.67,-187 2693.83,-187 2690,-183.17 2690,-179.33 2690,-179.33 2690,-171.67 2690,-171.67 2690,-167.83 2693.83,-164 2697.67,-164 2697.67,-164 2819.33,-164 2819.33,-164 2823.17,-164 2827,-167.83 2827,-171.67 2827,-171.67 2827,-179.33 2827,-179.33 2827,-183.17 2823.17,-187 2819.33,-187"/>
<text text-anchor="middle" x="2758.5" y="-171.8" font-family="Arial" font-size="14.00" fill="#cfffac">types/common.d.ts</text>
</g>
<!-- component/common/DatePicker.tsx&#45;&gt;types/common.d.ts -->
<g id="edge58" class="edge">
<title>component/common/DatePicker.tsx&#45;&gt;types/common.d.ts</title>
<path fill="none" stroke="#757575" d="M2057.61,-175.5C2227.72,-175.5 2534.13,-175.5 2678.36,-175.5"/>
<polygon fill="#757575" stroke="#757575" points="2678.2,-179 2688.2,-175.5 2678.2,-172 2678.2,-179"/>
</g>
<!-- component/Widget/WidgetButtons.tsx&#45;&gt;store/WidgetProvider.tsx -->
<g id="edge33" class="edge">
<title>component/Widget/WidgetButtons.tsx&#45;&gt;store/WidgetProvider.tsx</title>
<path fill="none" stroke="#757575" d="M1484.35,-644.53C1538.04,-636.27 1618.86,-633.54 1669,-677.5 1724.46,-726.12 1649.52,-790.9 1705,-839.5 1749.1,-878.13 1817.85,-879.21 1868.79,-873"/>
<polygon fill="#757575" stroke="#757575" points="1869.09,-876.5 1878.53,-871.69 1868.15,-869.56 1869.09,-876.5"/>
</g>
<!-- component/Widget/WidgetButtons.tsx&#45;&gt;store/WidgetPropsSettingModalProvider.tsx -->
<g id="edge32" class="edge">
<title>component/Widget/WidgetButtons.tsx&#45;&gt;store/WidgetPropsSettingModalProvider.tsx</title>
<path fill="none" stroke="#757575" d="M1486.74,-668.46C1539.92,-676.07 1618.34,-677.86 1669,-636.5 1713.12,-600.48 1664.12,-553.17 1705,-513.5 1727.43,-491.73 1756.71,-477.59 1786.84,-468.47"/>
<polygon fill="#757575" stroke="#757575" points="1787.4,-471.94 1796.07,-465.85 1785.49,-465.21 1787.4,-471.94"/>
</g>
<!-- component/Widget/WidgetCallCycleSettingModal.tsx&#45;&gt;common/widget.ts -->
<g id="edge34" class="edge">
<title>component/Widget/WidgetCallCycleSettingModal.tsx&#45;&gt;common/widget.ts</title>
<path fill="none" stroke="#757575" d="M1604.35,-696.81C1691.16,-696.47 1791.59,-696.07 1858.89,-695.8"/>
<polygon fill="#757575" stroke="#757575" points="1858.72,-699.3 1868.71,-695.76 1858.7,-692.3 1858.72,-699.3"/>
</g>
<!-- component/Widget/WidgetCallCycleSettingModal/CycleInput.tsx -->
<g id="node34" class="node">
<title>component/Widget/WidgetCallCycleSettingModal/CycleInput.tsx</title>
<path fill="none" stroke="#cfffac" d="M2139.83,-748C2139.83,-748 1733.17,-748 1733.17,-748 1729.33,-748 1725.5,-744.17 1725.5,-740.33 1725.5,-740.33 1725.5,-732.67 1725.5,-732.67 1725.5,-728.83 1729.33,-725 1733.17,-725 1733.17,-725 2139.83,-725 2139.83,-725 2143.67,-725 2147.5,-728.83 2147.5,-732.67 2147.5,-732.67 2147.5,-740.33 2147.5,-740.33 2147.5,-744.17 2143.67,-748 2139.83,-748"/>
<text text-anchor="middle" x="1936.5" y="-732.8" font-family="Arial" font-size="14.00" fill="#cfffac">component/Widget/WidgetCallCycleSettingModal/CycleInput.tsx</text>
</g>
<!-- component/Widget/WidgetCallCycleSettingModal.tsx&#45;&gt;component/Widget/WidgetCallCycleSettingModal/CycleInput.tsx -->
<g id="edge35" class="edge">
<title>component/Widget/WidgetCallCycleSettingModal.tsx&#45;&gt;component/Widget/WidgetCallCycleSettingModal/CycleInput.tsx</title>
<path fill="none" stroke="#757575" d="M1585.1,-709.49C1643.22,-713.97 1709.43,-719.08 1768.53,-723.63"/>
<polygon fill="#757575" stroke="#757575" points="1768.12,-727.11 1778.36,-724.39 1768.66,-720.13 1768.12,-727.11"/>
</g>
<!-- component/Widget/WidgetCallCycleSettingModal/LastCallTimeBox.tsx -->
<g id="node35" class="node">
<title>component/Widget/WidgetCallCycleSettingModal/LastCallTimeBox.tsx</title>
<path fill="none" stroke="#cfffac" d="M2160.33,-830C2160.33,-830 1712.67,-830 1712.67,-830 1708.83,-830 1705,-826.17 1705,-822.33 1705,-822.33 1705,-814.67 1705,-814.67 1705,-810.83 1708.83,-807 1712.67,-807 1712.67,-807 2160.33,-807 2160.33,-807 2164.17,-807 2168,-810.83 2168,-814.67 2168,-814.67 2168,-822.33 2168,-822.33 2168,-826.17 2164.17,-830 2160.33,-830"/>
<text text-anchor="middle" x="1936.5" y="-814.8" font-family="Arial" font-size="14.00" fill="#cfffac">component/Widget/WidgetCallCycleSettingModal/LastCallTimeBox.tsx</text>
</g>
<!-- component/Widget/WidgetCallCycleSettingModal.tsx&#45;&gt;component/Widget/WidgetCallCycleSettingModal/LastCallTimeBox.tsx -->
<g id="edge36" class="edge">
<title>component/Widget/WidgetCallCycleSettingModal.tsx&#45;&gt;component/Widget/WidgetCallCycleSettingModal/LastCallTimeBox.tsx</title>
<path fill="none" stroke="#757575" d="M1505.32,-685.51C1556.12,-681.64 1622.04,-685.14 1669,-718.5 1700.78,-741.08 1673.2,-775.93 1705,-798.5 1745.16,-827.01 1799.73,-832.79 1845.69,-831.09"/>
<polygon fill="#757575" stroke="#757575" points="1845.85,-834.58 1855.66,-830.58 1845.49,-827.59 1845.85,-834.58"/>
</g>
<!-- component/chart/BarChart.tsx -->
<g id="node36" class="node">
<title>component/chart/BarChart.tsx</title>
<path fill="none" stroke="#c6c5fe" d="M2030.33,-586C2030.33,-586 1842.67,-586 1842.67,-586 1838.83,-586 1835,-582.17 1835,-578.33 1835,-578.33 1835,-570.67 1835,-570.67 1835,-566.83 1838.83,-563 1842.67,-563 1842.67,-563 2030.33,-563 2030.33,-563 2034.17,-563 2038,-566.83 2038,-570.67 2038,-570.67 2038,-578.33 2038,-578.33 2038,-582.17 2034.17,-586 2030.33,-586"/>
<text text-anchor="middle" x="1936.5" y="-570.8" font-family="Arial" font-size="14.00" fill="#c6c5fe">component/chart/BarChart.tsx</text>
</g>
<!-- component/Widget/WidgetChart.tsx&#45;&gt;component/chart/BarChart.tsx -->
<g id="edge37" class="edge">
<title>component/Widget/WidgetChart.tsx&#45;&gt;component/chart/BarChart.tsx</title>
<path fill="none" stroke="#757575" d="M1549.74,-574.5C1632.78,-574.5 1742.46,-574.5 1823.63,-574.5"/>
<polygon fill="#757575" stroke="#757575" points="1823.38,-578 1833.38,-574.5 1823.38,-571 1823.38,-578"/>
</g>
<!-- component/chart/InformaticsChart.tsx -->
<g id="node37" class="node">
<title>component/chart/InformaticsChart.tsx</title>
<path fill="none" stroke="#c6c5fe" d="M2054.83,-627C2054.83,-627 1818.17,-627 1818.17,-627 1814.33,-627 1810.5,-623.17 1810.5,-619.33 1810.5,-619.33 1810.5,-611.67 1810.5,-611.67 1810.5,-607.83 1814.33,-604 1818.17,-604 1818.17,-604 2054.83,-604 2054.83,-604 2058.67,-604 2062.5,-607.83 2062.5,-611.67 2062.5,-611.67 2062.5,-619.33 2062.5,-619.33 2062.5,-623.17 2058.67,-627 2054.83,-627"/>
<text text-anchor="middle" x="1936.5" y="-611.8" font-family="Arial" font-size="14.00" fill="#c6c5fe">component/chart/InformaticsChart.tsx</text>
</g>
<!-- component/Widget/WidgetChart.tsx&#45;&gt;component/chart/InformaticsChart.tsx -->
<g id="edge38" class="edge">
<title>component/Widget/WidgetChart.tsx&#45;&gt;component/chart/InformaticsChart.tsx</title>
<path fill="none" stroke="#757575" d="M1549.74,-584.24C1624.67,-590.31 1721.3,-598.14 1799.09,-604.45"/>
<polygon fill="#757575" stroke="#757575" points="1798.67,-607.92 1808.92,-605.24 1799.24,-600.95 1798.67,-607.92"/>
</g>
<!-- component/chart/LineChart.tsx -->
<g id="node38" class="node">
<title>component/chart/LineChart.tsx</title>
<path fill="none" stroke="#c6c5fe" d="M2033.33,-545C2033.33,-545 1839.67,-545 1839.67,-545 1835.83,-545 1832,-541.17 1832,-537.33 1832,-537.33 1832,-529.67 1832,-529.67 1832,-525.83 1835.83,-522 1839.67,-522 1839.67,-522 2033.33,-522 2033.33,-522 2037.17,-522 2041,-525.83 2041,-529.67 2041,-529.67 2041,-537.33 2041,-537.33 2041,-541.17 2037.17,-545 2033.33,-545"/>
<text text-anchor="middle" x="1936.5" y="-529.8" font-family="Arial" font-size="14.00" fill="#c6c5fe">component/chart/LineChart.tsx</text>
</g>
<!-- component/Widget/WidgetChart.tsx&#45;&gt;component/chart/LineChart.tsx -->
<g id="edge39" class="edge">
<title>component/Widget/WidgetChart.tsx&#45;&gt;component/chart/LineChart.tsx</title>
<path fill="none" stroke="#757575" d="M1549.74,-564.76C1631.67,-558.12 1739.52,-549.38 1820.35,-542.83"/>
<polygon fill="#757575" stroke="#757575" points="1820.37,-546.34 1830.06,-542.04 1819.81,-539.36 1820.37,-546.34"/>
</g>
<!-- hook/Widget/useHandleWidgetApi.tsx&#45;&gt;common/api.ts -->
<g id="edge62" class="edge">
<title>hook/Widget/useHandleWidgetApi.tsx&#45;&gt;common/api.ts</title>
<path fill="none" stroke="#757575" d="M1489.29,-603.52C1542.4,-596.51 1619.12,-595.79 1669,-636.5 1712.47,-671.98 1661.52,-722.04 1705,-757.5 1750.58,-794.67 1819.43,-795.86 1870.02,-790.07"/>
<polygon fill="#757575" stroke="#757575" points="1870.18,-793.58 1879.66,-788.84 1869.3,-786.64 1870.18,-793.58"/>
</g>
<!-- hook/Widget/useHandleWidgetApi.tsx&#45;&gt;types/api.d.ts -->
<g id="edge66" class="edge">
<title>hook/Widget/useHandleWidgetApi.tsx&#45;&gt;types/api.d.ts</title>
<path fill="none" stroke="#757575" d="M1557.49,-625.42C1767.04,-641.74 2160.99,-672.7 2168,-675.5 2187.08,-683.11 2185.82,-694.93 2204,-704.5 2239.5,-723.18 2282.69,-736.13 2317.16,-744.44"/>
<polygon fill="#757575" stroke="#757575" points="2316.02,-747.77 2326.55,-746.63 2317.61,-740.95 2316.02,-747.77"/>
</g>
<!-- hook/Widget/useHandleWidgetApi.tsx&#45;&gt;common/date.ts -->
<g id="edge63" class="edge">
<title>hook/Widget/useHandleWidgetApi.tsx&#45;&gt;common/date.ts</title>
<path fill="none" stroke="#757575" d="M1499.65,-627.49C1551.16,-632.36 1620.36,-630.24 1669,-595.5 1701.39,-572.37 1672.62,-536.64 1705,-513.5 1789,-453.46 2076.9,-523.1 2168,-474.5 2190.6,-462.45 2182.91,-444.04 2204,-429.5 2234.98,-408.13 2274.6,-394.55 2308.2,-386.12"/>
<polygon fill="#757575" stroke="#757575" points="2308.97,-389.53 2317.88,-383.8 2307.34,-382.72 2308.97,-389.53"/>
</g>
<!-- hook/Widget/useHandleWidgetApi.tsx&#45;&gt;common/widget.ts -->
<g id="edge64" class="edge">
<title>hook/Widget/useHandleWidgetApi.tsx&#45;&gt;common/widget.ts</title>
<path fill="none" stroke="#757575" d="M1557.33,-611.42C1594.59,-614.24 1634.52,-621.32 1669,-636.5 1688.87,-645.25 1685.24,-660.51 1705,-669.5 1752.98,-691.34 1812.16,-697.64 1858.54,-698.59"/>
<polygon fill="#757575" stroke="#757575" points="1858.49,-702.09 1868.53,-698.7 1858.57,-695.09 1858.49,-702.09"/>
</g>
<!-- hook/Widget/useHandleWidgetApi.tsx&#45;&gt;store/DashboardProvider.tsx -->
<g id="edge65" class="edge">
<title>hook/Widget/useHandleWidgetApi.tsx&#45;&gt;store/DashboardProvider.tsx</title>
<path fill="none" stroke="#757575" d="M1482.57,-627.47C1536.23,-636.2 1618.27,-639.85 1669,-595.5 1724.86,-546.67 1653.42,-485.82 1705,-432.5 1736.51,-399.93 1783.34,-384.44 1826.57,-377.37"/>
<polygon fill="#757575" stroke="#757575" points="1826.89,-380.86 1836.27,-375.93 1825.87,-373.94 1826.89,-380.86"/>
</g>
<!-- component/chart/BarChart.tsx&#45;&gt;common/chart.ts -->
<g id="edge45" class="edge">
<title>component/chart/BarChart.tsx&#45;&gt;common/chart.ts</title>
<path fill="none" stroke="#757575" d="M2038.22,-566.05C2078.58,-562.59 2125.51,-558.47 2168,-554.5 2214.09,-550.2 2265.83,-545.03 2306.42,-540.89"/>
<polygon fill="#757575" stroke="#757575" points="2306.73,-544.38 2316.32,-539.88 2306.01,-537.42 2306.73,-544.38"/>
</g>
<!-- component/chart/BarChart.tsx&#45;&gt;types/chart.d.ts -->
<g id="edge48" class="edge">
<title>component/chart/BarChart.tsx&#45;&gt;types/chart.d.ts</title>
<path fill="none" stroke="#757575" d="M2038.35,-583.51C2088.17,-587.69 2149.21,-592.4 2204,-595.5 2379.34,-605.41 2586.24,-610.85 2690.41,-613.16"/>
<polygon fill="#757575" stroke="#757575" points="2690.1,-616.65 2700.17,-613.37 2690.25,-609.65 2690.1,-616.65"/>
</g>
<!-- component/chart/ChartSvg.tsx -->
<g id="node42" class="node">
<title>component/chart/ChartSvg.tsx</title>
<path fill="none" stroke="#cfffac" d="M2474.33,-504C2474.33,-504 2283.67,-504 2283.67,-504 2279.83,-504 2276,-500.17 2276,-496.33 2276,-496.33 2276,-488.67 2276,-488.67 2276,-484.83 2279.83,-481 2283.67,-481 2283.67,-481 2474.33,-481 2474.33,-481 2478.17,-481 2482,-484.83 2482,-488.67 2482,-488.67 2482,-496.33 2482,-496.33 2482,-500.17 2478.17,-504 2474.33,-504"/>
<text text-anchor="middle" x="2379" y="-488.8" font-family="Arial" font-size="14.00" fill="#cfffac">component/chart/ChartSvg.tsx</text>
</g>
<!-- component/chart/BarChart.tsx&#45;&gt;component/chart/ChartSvg.tsx -->
<g id="edge46" class="edge">
<title>component/chart/BarChart.tsx&#45;&gt;component/chart/ChartSvg.tsx</title>
<path fill="none" stroke="#757575" d="M2038.43,-581.87C2080.47,-580.95 2128.57,-574.45 2168,-554.5 2189.64,-543.55 2182.55,-524.81 2204,-513.5 2222.48,-503.76 2243.56,-497.73 2264.53,-494.13"/>
<polygon fill="#757575" stroke="#757575" points="2264.94,-497.6 2274.3,-492.64 2263.89,-490.68 2264.94,-497.6"/>
</g>
<!-- hook/useResize.tsx -->
<g id="node43" class="node">
<title>hook/useResize.tsx</title>
<path fill="none" stroke="#cfffac" d="M2441.33,-586C2441.33,-586 2316.67,-586 2316.67,-586 2312.83,-586 2309,-582.17 2309,-578.33 2309,-578.33 2309,-570.67 2309,-570.67 2309,-566.83 2312.83,-563 2316.67,-563 2316.67,-563 2441.33,-563 2441.33,-563 2445.17,-563 2449,-566.83 2449,-570.67 2449,-570.67 2449,-578.33 2449,-578.33 2449,-582.17 2445.17,-586 2441.33,-586"/>
<text text-anchor="middle" x="2379" y="-570.8" font-family="Arial" font-size="14.00" fill="#cfffac">hook/useResize.tsx</text>
</g>
<!-- component/chart/BarChart.tsx&#45;&gt;hook/useResize.tsx -->
<g id="edge47" class="edge">
<title>component/chart/BarChart.tsx&#45;&gt;hook/useResize.tsx</title>
<path fill="none" stroke="#757575" d="M2038.28,-574.5C2116.75,-574.5 2224.23,-574.5 2297.13,-574.5"/>
<polygon fill="#757575" stroke="#757575" points="2297,-578 2307,-574.5 2297,-571 2297,-578"/>
</g>
<!-- component/chart/InformaticsChart.tsx&#45;&gt;types/chart.d.ts -->
<g id="edge50" class="edge">
<title>component/chart/InformaticsChart.tsx&#45;&gt;types/chart.d.ts</title>
<path fill="none" stroke="#757575" d="M2062.89,-615.05C2098.15,-618.76 2135.67,-626.49 2168,-641.5 2187.96,-650.77 2183.55,-667.37 2204,-675.5 2348.55,-732.97 2400.09,-698.07 2554,-675.5 2612.04,-666.99 2676.51,-645.51 2717.02,-630.46"/>
<polygon fill="#757575" stroke="#757575" points="2718.24,-633.74 2726.37,-626.93 2715.77,-627.19 2718.24,-633.74"/>
</g>
<!-- component/chart/InformaticsChart/InforMaticsBox.tsx -->
<g id="node44" class="node">
<title>component/chart/InformaticsChart/InforMaticsBox.tsx</title>
<path fill="none" stroke="#c6c5fe" d="M2546.33,-666C2546.33,-666 2211.67,-666 2211.67,-666 2207.83,-666 2204,-662.17 2204,-658.33 2204,-658.33 2204,-650.67 2204,-650.67 2204,-646.83 2207.83,-643 2211.67,-643 2211.67,-643 2546.33,-643 2546.33,-643 2550.17,-643 2554,-646.83 2554,-650.67 2554,-650.67 2554,-658.33 2554,-658.33 2554,-662.17 2550.17,-666 2546.33,-666"/>
<text text-anchor="middle" x="2379" y="-650.8" font-family="Arial" font-size="14.00" fill="#c6c5fe">component/chart/InformaticsChart/InforMaticsBox.tsx</text>
</g>
<!-- component/chart/InformaticsChart.tsx&#45;&gt;component/chart/InformaticsChart/InforMaticsBox.tsx -->
<g id="edge49" class="edge">
<title>component/chart/InformaticsChart.tsx&#45;&gt;component/chart/InformaticsChart/InforMaticsBox.tsx</title>
<path fill="none" stroke="#757575" d="M2062.85,-626.6C2115.43,-631.25 2176.94,-636.7 2231.59,-641.54"/>
<polygon fill="#757575" stroke="#757575" points="2231,-645 2241.27,-642.39 2231.62,-638.03 2231,-645"/>
</g>
<!-- component/chart/LineChart.tsx&#45;&gt;common/chart.ts -->
<g id="edge52" class="edge">
<title>component/chart/LineChart.tsx&#45;&gt;common/chart.ts</title>
<path fill="none" stroke="#757575" d="M2041.33,-533.5C2122.94,-533.5 2234.47,-533.5 2306.38,-533.5"/>
<polygon fill="#757575" stroke="#757575" points="2306.05,-537 2316.05,-533.5 2306.05,-530 2306.05,-537"/>
</g>
<!-- component/chart/LineChart.tsx&#45;&gt;types/chart.d.ts -->
<g id="edge55" class="edge">
<title>component/chart/LineChart.tsx&#45;&gt;types/chart.d.ts</title>
<path fill="none" stroke="#757575" d="M2041.27,-536.05C2082.39,-533.49 2129.05,-525.92 2168,-507.5 2188.17,-497.96 2183.32,-480.89 2204,-472.5 2348.13,-413.98 2405.61,-425.84 2554,-472.5 2630.96,-496.7 2704.22,-561.48 2738.01,-594.52"/>
<polygon fill="#757575" stroke="#757575" points="2735.47,-596.93 2745.03,-601.5 2740.41,-591.96 2735.47,-596.93"/>
</g>
<!-- component/chart/LineChart.tsx&#45;&gt;component/chart/ChartSvg.tsx -->
<g id="edge53" class="edge">
<title>component/chart/LineChart.tsx&#45;&gt;component/chart/ChartSvg.tsx</title>
<path fill="none" stroke="#757575" d="M2041.33,-523.84C2108.32,-517.6 2195.46,-509.49 2264.3,-503.08"/>
<polygon fill="#757575" stroke="#757575" points="2264.48,-506.58 2274.12,-502.17 2263.83,-499.61 2264.48,-506.58"/>
</g>
<!-- component/chart/LineChart.tsx&#45;&gt;hook/useResize.tsx -->
<g id="edge54" class="edge">
<title>component/chart/LineChart.tsx&#45;&gt;hook/useResize.tsx</title>
<path fill="none" stroke="#757575" d="M2041.35,-542.87C2080.99,-546.47 2126.59,-550.64 2168,-554.5 2210.81,-558.49 2258.53,-563.03 2297.64,-566.77"/>
<polygon fill="#757575" stroke="#757575" points="2297.17,-570.24 2307.45,-567.71 2297.83,-563.27 2297.17,-570.24"/>
</g>
<!-- component/Widget/WidgetPropsSettingModal/WidgetPropsButtons.tsx&#45;&gt;store/WidgetProvider.tsx -->
<g id="edge44" class="edge">
<title>component/Widget/WidgetPropsSettingModal/WidgetPropsButtons.tsx&#45;&gt;store/WidgetProvider.tsx</title>
<path fill="none" stroke="#757575" d="M1585.1,-832.49C1667.81,-838.87 1766.91,-846.51 1838.58,-852.03"/>
<polygon fill="#757575" stroke="#757575" points="1838.09,-855.5 1848.33,-852.78 1838.63,-848.52 1838.09,-855.5"/>
</g>
<!-- hook/useGetApiList.tsx&#45;&gt;common/api.ts -->
<g id="edge67" class="edge">
<title>hook/useGetApiList.tsx&#45;&gt;common/api.ts</title>
<path fill="none" stroke="#757575" d="M1510.24,-744.72C1609.91,-752.4 1777.51,-765.32 1869.73,-772.43"/>
<polygon fill="#757575" stroke="#757575" points="1869.39,-775.92 1879.63,-773.19 1869.93,-768.94 1869.39,-775.92"/>
</g>
<!-- component/chart/InformaticsChart/InforMaticsBox.tsx&#45;&gt;types/chart.d.ts -->
<g id="edge51" class="edge">
<title>component/chart/InformaticsChart/InforMaticsBox.tsx&#45;&gt;types/chart.d.ts</title>
<path fill="none" stroke="#757575" d="M2493.01,-642.53C2557.29,-635.71 2635.63,-627.41 2690.3,-621.62"/>
<polygon fill="#757575" stroke="#757575" points="2690.51,-625.12 2700.09,-620.58 2689.77,-618.16 2690.51,-625.12"/>
</g>
<!-- component/common/DatePicker/DatePickerTitle.tsx&#45;&gt;types/common.d.ts -->
<g id="edge59" class="edge">
<title>component/common/DatePicker/DatePickerTitle.tsx&#45;&gt;types/common.d.ts</title>
<path fill="none" stroke="#757575" d="M2493.01,-147.47C2552.83,-153.81 2624.83,-161.44 2678.59,-167.14"/>
<polygon fill="#757575" stroke="#757575" points="2677.95,-170.59 2688.27,-168.16 2678.69,-163.63 2677.95,-170.59"/>
</g>
<!-- component/common/DatePicker/ListPicker.tsx&#45;&gt;types/common.d.ts -->
<g id="edge61" class="edge">
<title>component/common/DatePicker/ListPicker.tsx&#45;&gt;types/common.d.ts</title>
<path fill="none" stroke="#757575" d="M2493.01,-203.53C2552.83,-197.19 2624.83,-189.56 2678.59,-183.86"/>
<polygon fill="#757575" stroke="#757575" points="2678.69,-187.37 2688.27,-182.84 2677.95,-180.41 2678.69,-187.37"/>
</g>
<!-- component/common/DatePicker/ListPickerItem.tsx -->
<g id="node48" class="node">
<title>component/common/DatePicker/ListPickerItem.tsx</title>
<path fill="none" stroke="#cfffac" d="M2919.33,-228C2919.33,-228 2597.67,-228 2597.67,-228 2593.83,-228 2590,-224.17 2590,-220.33 2590,-220.33 2590,-212.67 2590,-212.67 2590,-208.83 2593.83,-205 2597.67,-205 2597.67,-205 2919.33,-205 2919.33,-205 2923.17,-205 2927,-208.83 2927,-212.67 2927,-212.67 2927,-220.33 2927,-220.33 2927,-224.17 2923.17,-228 2919.33,-228"/>
<text text-anchor="middle" x="2758.5" y="-212.8" font-family="Arial" font-size="14.00" fill="#cfffac">component/common/DatePicker/ListPickerItem.tsx</text>
</g>
<!-- component/common/DatePicker/ListPicker.tsx&#45;&gt;component/common/DatePicker/ListPickerItem.tsx -->
<g id="edge60" class="edge">
<title>component/common/DatePicker/ListPicker.tsx&#45;&gt;component/common/DatePicker/ListPickerItem.tsx</title>
<path fill="none" stroke="#757575" d="M2533.27,-215.91C2548.08,-215.95 2563.2,-215.99 2578.23,-216.03"/>
<polygon fill="#757575" stroke="#757575" points="2578.18,-219.52 2588.19,-216.05 2578.2,-212.52 2578.18,-219.52"/>
</g>
<!-- page/Dashboard.tsx&#45;&gt;component/Dashboard/DashboardBody.tsx -->
<g id="edge68" class="edge">
<title>page/Dashboard.tsx&#45;&gt;component/Dashboard/DashboardBody.tsx</title>
<path fill="none" stroke="#757575" d="M345.84,-486.44C388.02,-522.8 515.2,-632.44 567.09,-677.18"/>
<polygon fill="#757575" stroke="#757575" points="564.58,-679.64 574.44,-683.52 569.15,-674.34 564.58,-679.64"/>
</g>
<!-- page/Dashboard.tsx&#45;&gt;component/Dashboard/DashboardHeader.tsx -->
<g id="edge69" class="edge">
<title>page/Dashboard.tsx&#45;&gt;component/Dashboard/DashboardHeader.tsx</title>
<path fill="none" stroke="#757575" d="M353.95,-462.56C399.56,-437.77 504.72,-380.59 557.73,-351.77"/>
<polygon fill="#757575" stroke="#757575" points="559.16,-354.98 566.27,-347.13 555.81,-348.83 559.16,-354.98"/>
</g>
</g>
</svg>
