<?xml version="1.0" encoding="UTF-8" standalone="no"?>
<!DOCTYPE svg PUBLIC "-//W3C//DTD SVG 1.1//EN"
 "http://www.w3.org/Graphics/SVG/1.1/DTD/svg11.dtd">
<!-- Generated by graphviz version 7.1.0 (20230121.1956)
 -->
<!-- Title: G Pages: 1 -->
<svg width="3080pt" height="1120pt"
 viewBox="0.00 0.00 3080.20 1120.46" xmlns="http://www.w3.org/2000/svg" xmlns:xlink="http://www.w3.org/1999/xlink">
<g id="graph0" class="graph" transform="scale(1 1) rotate(0) translate(21.6 1098.86)">
<title>G</title>
<polygon fill="#111111" stroke="none" points="-21.6,21.6 -21.6,-1098.86 3058.6,-1098.86 3058.6,21.6 -21.6,21.6"/>
<!-- App.tsx -->
<g id="node1" class="node">
<title>App.tsx</title>
<path fill="none" stroke="#c6c5fe" d="M57.33,-349.57C57.33,-349.57 7.67,-349.57 7.67,-349.57 3.83,-349.57 0,-345.74 0,-341.91 0,-341.91 0,-334.24 0,-334.24 0,-330.41 3.83,-326.57 7.67,-326.57 7.67,-326.57 57.33,-326.57 57.33,-326.57 61.17,-326.57 65,-330.41 65,-334.24 65,-334.24 65,-341.91 65,-341.91 65,-345.74 61.17,-349.57 57.33,-349.57"/>
<text text-anchor="middle" x="32.5" y="-334.37" font-family="Arial" font-size="14.00" fill="#c6c5fe">App.tsx</text>
</g>
<!-- router/Router.tsx -->
<g id="node2" class="node">
<title>router/Router.tsx</title>
<path fill="none" stroke="#c6c5fe" d="M215.33,-349.57C215.33,-349.57 108.67,-349.57 108.67,-349.57 104.83,-349.57 101,-345.74 101,-341.91 101,-341.91 101,-334.24 101,-334.24 101,-330.41 104.83,-326.57 108.67,-326.57 108.67,-326.57 215.33,-326.57 215.33,-326.57 219.17,-326.57 223,-330.41 223,-334.24 223,-334.24 223,-341.91 223,-341.91 223,-345.74 219.17,-349.57 215.33,-349.57"/>
<text text-anchor="middle" x="162" y="-334.37" font-family="Arial" font-size="14.00" fill="#c6c5fe">router/Router.tsx</text>
</g>
<!-- App.tsx&#45;&gt;router/Router.tsx -->
<g id="edge1" class="edge">
<title>App.tsx&#45;&gt;router/Router.tsx</title>
<path fill="none" stroke="#757575" d="M65.34,-338.07C72.7,-338.07 80.81,-338.07 89.12,-338.07"/>
<polygon fill="#757575" stroke="#757575" points="88.99,-341.57 98.99,-338.07 88.99,-334.57 88.99,-341.57"/>
</g>
<!-- page/Dashboard.tsx -->
<g id="node48" class="node">
<title>page/Dashboard.tsx</title>
<path fill="none" stroke="#c6c5fe" d="M395.33,-349.57C395.33,-349.57 266.67,-349.57 266.67,-349.57 262.83,-349.57 259,-345.74 259,-341.91 259,-341.91 259,-334.24 259,-334.24 259,-330.41 262.83,-326.57 266.67,-326.57 266.67,-326.57 395.33,-326.57 395.33,-326.57 399.17,-326.57 403,-330.41 403,-334.24 403,-334.24 403,-341.91 403,-341.91 403,-345.74 399.17,-349.57 395.33,-349.57"/>
<text text-anchor="middle" x="331" y="-334.37" font-family="Arial" font-size="14.00" fill="#c6c5fe">page/Dashboard.tsx</text>
</g>
<!-- router/Router.tsx&#45;&gt;page/Dashboard.tsx -->
<g id="edge72" class="edge">
<title>router/Router.tsx&#45;&gt;page/Dashboard.tsx</title>
<path fill="none" stroke="#757575" d="M223.29,-338.07C231.1,-338.07 239.21,-338.07 247.3,-338.07"/>
<polygon fill="#757575" stroke="#757575" points="247.19,-341.57 257.19,-338.07 247.19,-334.57 247.19,-341.57"/>
</g>
<!-- asset/image/pause.png -->
<g id="node3" class="node">
<title>asset/image/pause.png</title>
<path fill="none" stroke="#cfffac" d="M1619.83,-993.57C1619.83,-993.57 1471.17,-993.57 1471.17,-993.57 1467.33,-993.57 1463.5,-989.74 1463.5,-985.91 1463.5,-985.91 1463.5,-978.24 1463.5,-978.24 1463.5,-974.41 1467.33,-970.57 1471.17,-970.57 1471.17,-970.57 1619.83,-970.57 1619.83,-970.57 1623.67,-970.57 1627.5,-974.41 1627.5,-978.24 1627.5,-978.24 1627.5,-985.91 1627.5,-985.91 1627.5,-989.74 1623.67,-993.57 1619.83,-993.57"/>
<text text-anchor="middle" x="1545.5" y="-978.37" font-family="Arial" font-size="14.00" fill="#cfffac">asset/image/pause.png</text>
</g>
<!-- asset/image/play.png -->
<g id="node4" class="node">
<title>asset/image/play.png</title>
<path fill="none" stroke="#cfffac" d="M1613.33,-1034.57C1613.33,-1034.57 1477.67,-1034.57 1477.67,-1034.57 1473.83,-1034.57 1470,-1030.74 1470,-1026.91 1470,-1026.91 1470,-1019.24 1470,-1019.24 1470,-1015.41 1473.83,-1011.57 1477.67,-1011.57 1477.67,-1011.57 1613.33,-1011.57 1613.33,-1011.57 1617.17,-1011.57 1621,-1015.41 1621,-1019.24 1621,-1019.24 1621,-1026.91 1621,-1026.91 1621,-1030.74 1617.17,-1034.57 1613.33,-1034.57"/>
<text text-anchor="middle" x="1545.5" y="-1019.37" font-family="Arial" font-size="14.00" fill="#cfffac">asset/image/play.png</text>
</g>
<!-- common/api.ts -->
<g id="node5" class="node">
<title>common/api.ts</title>
<path fill="none" stroke="#c6c5fe" d="M2100.83,-190.57C2100.83,-190.57 2006.17,-190.57 2006.17,-190.57 2002.33,-190.57 1998.5,-186.74 1998.5,-182.91 1998.5,-182.91 1998.5,-175.24 1998.5,-175.24 1998.5,-171.41 2002.33,-167.57 2006.17,-167.57 2006.17,-167.57 2100.83,-167.57 2100.83,-167.57 2104.67,-167.57 2108.5,-171.41 2108.5,-175.24 2108.5,-175.24 2108.5,-182.91 2108.5,-182.91 2108.5,-186.74 2104.67,-190.57 2100.83,-190.57"/>
<text text-anchor="middle" x="2053.5" y="-175.37" font-family="Arial" font-size="14.00" fill="#c6c5fe">common/api.ts</text>
</g>
<!-- types/api.d.ts -->
<g id="node6" class="node">
<title>types/api.d.ts</title>
<path fill="none" stroke="#cfffac" d="M2535.33,-152.57C2535.33,-152.57 2449.67,-152.57 2449.67,-152.57 2445.83,-152.57 2442,-148.74 2442,-144.91 2442,-144.91 2442,-137.24 2442,-137.24 2442,-133.41 2445.83,-129.57 2449.67,-129.57 2449.67,-129.57 2535.33,-129.57 2535.33,-129.57 2539.17,-129.57 2543,-133.41 2543,-137.24 2543,-137.24 2543,-144.91 2543,-144.91 2543,-148.74 2539.17,-152.57 2535.33,-152.57"/>
<text text-anchor="middle" x="2492.5" y="-137.37" font-family="Arial" font-size="14.00" fill="#cfffac">types/api.d.ts</text>
</g>
<!-- common/api.ts&#45;&gt;types/api.d.ts -->
<g id="edge2" class="edge">
<title>common/api.ts&#45;&gt;types/api.d.ts</title>
<path fill="none" stroke="#757575" d="M2108.96,-174.34C2190.77,-167.22 2344.89,-153.82 2430.41,-146.39"/>
<polygon fill="#757575" stroke="#757575" points="2430.59,-149.88 2440.25,-145.53 2429.99,-142.91 2430.59,-149.88"/>
</g>
<!-- types/widget.d.ts -->
<g id="node7" class="node">
<title>types/widget.d.ts</title>
<path fill="none" stroke="#cfffac" d="M2922.33,-192.57C2922.33,-192.57 2814.67,-192.57 2814.67,-192.57 2810.83,-192.57 2807,-188.74 2807,-184.91 2807,-184.91 2807,-177.24 2807,-177.24 2807,-173.41 2810.83,-169.57 2814.67,-169.57 2814.67,-169.57 2922.33,-169.57 2922.33,-169.57 2926.17,-169.57 2930,-173.41 2930,-177.24 2930,-177.24 2930,-184.91 2930,-184.91 2930,-188.74 2926.17,-192.57 2922.33,-192.57"/>
<text text-anchor="middle" x="2868.5" y="-177.37" font-family="Arial" font-size="14.00" fill="#cfffac">types/widget.d.ts</text>
</g>
<!-- common/api.ts&#45;&gt;types/widget.d.ts -->
<g id="edge3" class="edge">
<title>common/api.ts&#45;&gt;types/widget.d.ts</title>
<path fill="none" stroke="#757575" d="M2108.79,-179.21C2251.06,-179.56 2634.8,-180.5 2795.34,-180.9"/>
<polygon fill="#757575" stroke="#757575" points="2794.99,-184.4 2805,-180.92 2795,-177.4 2794.99,-184.4"/>
</g>
<!-- common/chart.ts -->
<g id="node8" class="node">
<title>common/chart.ts</title>
<path fill="none" stroke="#c6c5fe" d="M2106.83,-352.57C2106.83,-352.57 2000.17,-352.57 2000.17,-352.57 1996.33,-352.57 1992.5,-348.74 1992.5,-344.91 1992.5,-344.91 1992.5,-337.24 1992.5,-337.24 1992.5,-333.41 1996.33,-329.57 2000.17,-329.57 2000.17,-329.57 2106.83,-329.57 2106.83,-329.57 2110.67,-329.57 2114.5,-333.41 2114.5,-337.24 2114.5,-337.24 2114.5,-344.91 2114.5,-344.91 2114.5,-348.74 2110.67,-352.57 2106.83,-352.57"/>
<text text-anchor="middle" x="2053.5" y="-337.37" font-family="Arial" font-size="14.00" fill="#c6c5fe">common/chart.ts</text>
</g>
<!-- types/chart.d.ts -->
<g id="node9" class="node">
<title>types/chart.d.ts</title>
<path fill="none" stroke="#cfffac" d="M2541.33,-412.57C2541.33,-412.57 2443.67,-412.57 2443.67,-412.57 2439.83,-412.57 2436,-408.74 2436,-404.91 2436,-404.91 2436,-397.24 2436,-397.24 2436,-393.41 2439.83,-389.57 2443.67,-389.57 2443.67,-389.57 2541.33,-389.57 2541.33,-389.57 2545.17,-389.57 2549,-393.41 2549,-397.24 2549,-397.24 2549,-404.91 2549,-404.91 2549,-408.74 2545.17,-412.57 2541.33,-412.57"/>
<text text-anchor="middle" x="2492.5" y="-397.37" font-family="Arial" font-size="14.00" fill="#cfffac">types/chart.d.ts</text>
</g>
<!-- common/chart.ts&#45;&gt;types/chart.d.ts -->
<g id="edge4" class="edge">
<title>common/chart.ts&#45;&gt;types/chart.d.ts</title>
<path fill="none" stroke="#757575" d="M2114.79,-347.03C2161.35,-351.83 2227.36,-359.08 2285,-367.07 2331.61,-373.54 2383.92,-382.16 2424.22,-389.11"/>
<polygon fill="#757575" stroke="#757575" points="2423.58,-392.55 2434.03,-390.81 2424.78,-385.65 2423.58,-392.55"/>
</g>
<!-- common/date.ts -->
<g id="node10" class="node">
<title>common/date.ts</title>
<path fill="none" stroke="#cfffac" d="M2544.33,-749.57C2544.33,-749.57 2440.67,-749.57 2440.67,-749.57 2436.83,-749.57 2433,-745.74 2433,-741.91 2433,-741.91 2433,-734.24 2433,-734.24 2433,-730.41 2436.83,-726.57 2440.67,-726.57 2440.67,-726.57 2544.33,-726.57 2544.33,-726.57 2548.17,-726.57 2552,-730.41 2552,-734.24 2552,-734.24 2552,-741.91 2552,-741.91 2552,-745.74 2548.17,-749.57 2544.33,-749.57"/>
<text text-anchor="middle" x="2492.5" y="-734.37" font-family="Arial" font-size="14.00" fill="#cfffac">common/date.ts</text>
</g>
<!-- common/widget.ts -->
<g id="node11" class="node">
<title>common/widget.ts</title>
<path fill="none" stroke="#cfffac" d="M2111.83,-626.57C2111.83,-626.57 1995.17,-626.57 1995.17,-626.57 1991.33,-626.57 1987.5,-622.74 1987.5,-618.91 1987.5,-618.91 1987.5,-611.24 1987.5,-611.24 1987.5,-607.41 1991.33,-603.57 1995.17,-603.57 1995.17,-603.57 2111.83,-603.57 2111.83,-603.57 2115.67,-603.57 2119.5,-607.41 2119.5,-611.24 2119.5,-611.24 2119.5,-618.91 2119.5,-618.91 2119.5,-622.74 2115.67,-626.57 2111.83,-626.57"/>
<text text-anchor="middle" x="2053.5" y="-611.37" font-family="Arial" font-size="14.00" fill="#cfffac">common/widget.ts</text>
</g>
<!-- component/Dashboard/DashboardHeader.tsx -->
<g id="node12" class="node">
<title>component/Dashboard/DashboardHeader.tsx</title>
<path fill="none" stroke="#c6c5fe" d="M747.33,-770.57C747.33,-770.57 459.67,-770.57 459.67,-770.57 455.83,-770.57 452,-766.74 452,-762.91 452,-762.91 452,-755.24 452,-755.24 452,-751.41 455.83,-747.57 459.67,-747.57 459.67,-747.57 747.33,-747.57 747.33,-747.57 751.17,-747.57 755,-751.41 755,-755.24 755,-755.24 755,-762.91 755,-762.91 755,-766.74 751.17,-770.57 747.33,-770.57"/>
<text text-anchor="middle" x="603.5" y="-755.37" font-family="Arial" font-size="14.00" fill="#c6c5fe">component/Dashboard/DashboardHeader.tsx</text>
</g>
<!-- component/Dashboard/DashboardHeader/PlayIcon.tsx -->
<g id="node13" class="node">
<title>component/Dashboard/DashboardHeader/PlayIcon.tsx</title>
<path fill="none" stroke="#c6c5fe" d="M1209.83,-993.57C1209.83,-993.57 863.17,-993.57 863.17,-993.57 859.33,-993.57 855.5,-989.74 855.5,-985.91 855.5,-985.91 855.5,-978.24 855.5,-978.24 855.5,-974.41 859.33,-970.57 863.17,-970.57 863.17,-970.57 1209.83,-970.57 1209.83,-970.57 1213.67,-970.57 1217.5,-974.41 1217.5,-978.24 1217.5,-978.24 1217.5,-985.91 1217.5,-985.91 1217.5,-989.74 1213.67,-993.57 1209.83,-993.57"/>
<text text-anchor="middle" x="1036.5" y="-978.37" font-family="Arial" font-size="14.00" fill="#c6c5fe">component/Dashboard/DashboardHeader/PlayIcon.tsx</text>
</g>
<!-- component/Dashboard/DashboardHeader.tsx&#45;&gt;component/Dashboard/DashboardHeader/PlayIcon.tsx -->
<g id="edge5" class="edge">
<title>component/Dashboard/DashboardHeader.tsx&#45;&gt;component/Dashboard/DashboardHeader/PlayIcon.tsx</title>
<path fill="none" stroke="#757575" d="M619.27,-770.85C651.36,-796.02 730.52,-855.9 804,-894.07 863.82,-925.15 937.2,-951.17 985.1,-966.67"/>
<polygon fill="#757575" stroke="#757575" points="983.77,-969.92 994.36,-969.64 985.91,-963.25 983.77,-969.92"/>
</g>
<!-- component/Dashboard/DashboardHeader/SelectRealTimeRangeArea.tsx -->
<g id="node14" class="node">
<title>component/Dashboard/DashboardHeader/SelectRealTimeRangeArea.tsx</title>
<path fill="none" stroke="#c6c5fe" d="M1778.33,-952.57C1778.33,-952.57 1312.67,-952.57 1312.67,-952.57 1308.83,-952.57 1305,-948.74 1305,-944.91 1305,-944.91 1305,-937.24 1305,-937.24 1305,-933.41 1308.83,-929.57 1312.67,-929.57 1312.67,-929.57 1778.33,-929.57 1778.33,-929.57 1782.17,-929.57 1786,-933.41 1786,-937.24 1786,-937.24 1786,-944.91 1786,-944.91 1786,-948.74 1782.17,-952.57 1778.33,-952.57"/>
<text text-anchor="middle" x="1545.5" y="-937.37" font-family="Arial" font-size="14.00" fill="#c6c5fe">component/Dashboard/DashboardHeader/SelectRealTimeRangeArea.tsx</text>
</g>
<!-- component/Dashboard/DashboardHeader.tsx&#45;&gt;component/Dashboard/DashboardHeader/SelectRealTimeRangeArea.tsx -->
<g id="edge6" class="edge">
<title>component/Dashboard/DashboardHeader.tsx&#45;&gt;component/Dashboard/DashboardHeader/SelectRealTimeRangeArea.tsx</title>
<path fill="none" stroke="#757575" d="M661.64,-771.05C701.51,-779.34 755.96,-790.56 804,-800.07 1046.87,-848.15 1335.17,-902.17 1469.13,-927.1"/>
<polygon fill="#757575" stroke="#757575" points="1468.1,-930.47 1478.57,-928.85 1469.38,-923.58 1468.1,-930.47"/>
</g>
<!-- component/Dashboard/DashboardHeader/TimeBlock.tsx -->
<g id="node15" class="node">
<title>component/Dashboard/DashboardHeader/TimeBlock.tsx</title>
<path fill="none" stroke="#c6c5fe" d="M1215.83,-790.57C1215.83,-790.57 857.17,-790.57 857.17,-790.57 853.33,-790.57 849.5,-786.74 849.5,-782.91 849.5,-782.91 849.5,-775.24 849.5,-775.24 849.5,-771.41 853.33,-767.57 857.17,-767.57 857.17,-767.57 1215.83,-767.57 1215.83,-767.57 1219.67,-767.57 1223.5,-771.41 1223.5,-775.24 1223.5,-775.24 1223.5,-782.91 1223.5,-782.91 1223.5,-786.74 1219.67,-790.57 1215.83,-790.57"/>
<text text-anchor="middle" x="1036.5" y="-775.37" font-family="Arial" font-size="14.00" fill="#c6c5fe">component/Dashboard/DashboardHeader/TimeBlock.tsx</text>
</g>
<!-- component/Dashboard/DashboardHeader.tsx&#45;&gt;component/Dashboard/DashboardHeader/TimeBlock.tsx -->
<g id="edge7" class="edge">
<title>component/Dashboard/DashboardHeader.tsx&#45;&gt;component/Dashboard/DashboardHeader/TimeBlock.tsx</title>
<path fill="none" stroke="#757575" d="M755.24,-766.07C781.91,-767.31 810.04,-768.61 837.77,-769.9"/>
<polygon fill="#757575" stroke="#757575" points="837.55,-773.39 847.7,-770.36 837.87,-766.4 837.55,-773.39"/>
</g>
<!-- store/DashboardProvider.tsx -->
<g id="node16" class="node">
<title>store/DashboardProvider.tsx</title>
<path fill="none" stroke="#c6c5fe" d="M2144.33,-749.57C2144.33,-749.57 1962.67,-749.57 1962.67,-749.57 1958.83,-749.57 1955,-745.74 1955,-741.91 1955,-741.91 1955,-734.24 1955,-734.24 1955,-730.41 1958.83,-726.57 1962.67,-726.57 1962.67,-726.57 2144.33,-726.57 2144.33,-726.57 2148.17,-726.57 2152,-730.41 2152,-734.24 2152,-734.24 2152,-741.91 2152,-741.91 2152,-745.74 2148.17,-749.57 2144.33,-749.57"/>
<text text-anchor="middle" x="2053.5" y="-734.37" font-family="Arial" font-size="14.00" fill="#c6c5fe">store/DashboardProvider.tsx</text>
</g>
<!-- component/Dashboard/DashboardHeader.tsx&#45;&gt;store/DashboardProvider.tsx -->
<g id="edge8" class="edge">
<title>component/Dashboard/DashboardHeader.tsx&#45;&gt;store/DashboardProvider.tsx</title>
<path fill="none" stroke="#757575" d="M755.36,-756.89C1048.35,-752.64 1687.98,-743.36 1943.69,-739.65"/>
<polygon fill="#757575" stroke="#757575" points="1943.38,-743.16 1953.32,-739.51 1943.27,-736.16 1943.38,-743.16"/>
</g>
<!-- store/WidgetPropsSettingModalProvider.tsx -->
<g id="node17" class="node">
<title>store/WidgetPropsSettingModalProvider.tsx</title>
<path fill="none" stroke="#c6c5fe" d="M1684.83,-671.57C1684.83,-671.57 1406.17,-671.57 1406.17,-671.57 1402.33,-671.57 1398.5,-667.74 1398.5,-663.91 1398.5,-663.91 1398.5,-656.24 1398.5,-656.24 1398.5,-652.41 1402.33,-648.57 1406.17,-648.57 1406.17,-648.57 1684.83,-648.57 1684.83,-648.57 1688.67,-648.57 1692.5,-652.41 1692.5,-656.24 1692.5,-656.24 1692.5,-663.91 1692.5,-663.91 1692.5,-667.74 1688.67,-671.57 1684.83,-671.57"/>
<text text-anchor="middle" x="1545.5" y="-656.37" font-family="Arial" font-size="14.00" fill="#c6c5fe">store/WidgetPropsSettingModalProvider.tsx</text>
</g>
<!-- component/Dashboard/DashboardHeader.tsx&#45;&gt;store/WidgetPropsSettingModalProvider.tsx -->
<g id="edge9" class="edge">
<title>component/Dashboard/DashboardHeader.tsx&#45;&gt;store/WidgetPropsSettingModalProvider.tsx</title>
<path fill="none" stroke="#757575" d="M666.76,-747.13C706.01,-739.92 757.83,-731.03 804,-725.07 1004.57,-699.22 1237.06,-680.67 1387.23,-670.16"/>
<polygon fill="#757575" stroke="#757575" points="1387.11,-673.68 1396.84,-669.49 1386.62,-666.69 1387.11,-673.68"/>
</g>
<!-- component/Dashboard/DashboardHeader/PlayIcon.tsx&#45;&gt;asset/image/pause.png -->
<g id="edge17" class="edge">
<title>component/Dashboard/DashboardHeader/PlayIcon.tsx&#45;&gt;asset/image/pause.png</title>
<path fill="none" stroke="#757575" d="M1217.68,-982.07C1296.75,-982.07 1386.24,-982.07 1451.56,-982.07"/>
<polygon fill="#757575" stroke="#757575" points="1451.54,-985.57 1461.54,-982.07 1451.54,-978.57 1451.54,-985.57"/>
</g>
<!-- component/Dashboard/DashboardHeader/PlayIcon.tsx&#45;&gt;asset/image/play.png -->
<g id="edge18" class="edge">
<title>component/Dashboard/DashboardHeader/PlayIcon.tsx&#45;&gt;asset/image/play.png</title>
<path fill="none" stroke="#757575" d="M1185.85,-994.07C1274.52,-1001.24 1384.05,-1010.1 1458.58,-1016.13"/>
<polygon fill="#757575" stroke="#757575" points="1458.02,-1019.59 1468.27,-1016.91 1458.58,-1012.61 1458.02,-1019.59"/>
</g>
<!-- hook/useBoolean.tsx -->
<g id="node23" class="node">
<title>hook/useBoolean.tsx</title>
<path fill="none" stroke="#cfffac" d="M2120.33,-831.57C2120.33,-831.57 1986.67,-831.57 1986.67,-831.57 1982.83,-831.57 1979,-827.74 1979,-823.91 1979,-823.91 1979,-816.24 1979,-816.24 1979,-812.41 1982.83,-808.57 1986.67,-808.57 1986.67,-808.57 2120.33,-808.57 2120.33,-808.57 2124.17,-808.57 2128,-812.41 2128,-816.24 2128,-816.24 2128,-823.91 2128,-823.91 2128,-827.74 2124.17,-831.57 2120.33,-831.57"/>
<text text-anchor="middle" x="2053.5" y="-816.37" font-family="Arial" font-size="14.00" fill="#cfffac">hook/useBoolean.tsx</text>
</g>
<!-- component/Dashboard/DashboardHeader/SelectRealTimeRangeArea.tsx&#45;&gt;hook/useBoolean.tsx -->
<g id="edge21" class="edge">
<title>component/Dashboard/DashboardHeader/SelectRealTimeRangeArea.tsx&#45;&gt;hook/useBoolean.tsx</title>
<path fill="none" stroke="#757575" d="M1596.4,-929.14C1689.77,-906.82 1890.53,-858.81 1991.66,-834.62"/>
<polygon fill="#757575" stroke="#757575" points="1992.21,-838.09 2001.13,-832.36 1990.59,-831.28 1992.21,-838.09"/>
</g>
<!-- hook/useOutsideClick.tsx -->
<g id="node24" class="node">
<title>hook/useOutsideClick.tsx</title>
<path fill="none" stroke="#cfffac" d="M2133.83,-993.57C2133.83,-993.57 1973.17,-993.57 1973.17,-993.57 1969.33,-993.57 1965.5,-989.74 1965.5,-985.91 1965.5,-985.91 1965.5,-978.24 1965.5,-978.24 1965.5,-974.41 1969.33,-970.57 1973.17,-970.57 1973.17,-970.57 2133.83,-970.57 2133.83,-970.57 2137.67,-970.57 2141.5,-974.41 2141.5,-978.24 2141.5,-978.24 2141.5,-985.91 2141.5,-985.91 2141.5,-989.74 2137.67,-993.57 2133.83,-993.57"/>
<text text-anchor="middle" x="2053.5" y="-978.37" font-family="Arial" font-size="14.00" fill="#cfffac">hook/useOutsideClick.tsx</text>
</g>
<!-- component/Dashboard/DashboardHeader/SelectRealTimeRangeArea.tsx&#45;&gt;hook/useOutsideClick.tsx -->
<g id="edge22" class="edge">
<title>component/Dashboard/DashboardHeader/SelectRealTimeRangeArea.tsx&#45;&gt;hook/useOutsideClick.tsx</title>
<path fill="none" stroke="#757575" d="M1694.56,-953.07C1778.2,-959.85 1880.44,-968.13 1954.2,-974.11"/>
<polygon fill="#757575" stroke="#757575" points="1953.57,-977.57 1963.82,-974.89 1954.14,-970.59 1953.57,-977.57"/>
</g>
<!-- component/Dashboard/DashboardHeader/RealTime.tsx -->
<g id="node25" class="node">
<title>component/Dashboard/DashboardHeader/RealTime.tsx</title>
<path fill="none" stroke="#cfffac" d="M2229.83,-1075.57C2229.83,-1075.57 1877.17,-1075.57 1877.17,-1075.57 1873.33,-1075.57 1869.5,-1071.74 1869.5,-1067.91 1869.5,-1067.91 1869.5,-1060.24 1869.5,-1060.24 1869.5,-1056.41 1873.33,-1052.57 1877.17,-1052.57 1877.17,-1052.57 2229.83,-1052.57 2229.83,-1052.57 2233.67,-1052.57 2237.5,-1056.41 2237.5,-1060.24 2237.5,-1060.24 2237.5,-1067.91 2237.5,-1067.91 2237.5,-1071.74 2233.67,-1075.57 2229.83,-1075.57"/>
<text text-anchor="middle" x="2053.5" y="-1060.37" font-family="Arial" font-size="14.00" fill="#cfffac">component/Dashboard/DashboardHeader/RealTime.tsx</text>
</g>
<!-- component/Dashboard/DashboardHeader/SelectRealTimeRangeArea.tsx&#45;&gt;component/Dashboard/DashboardHeader/RealTime.tsx -->
<g id="edge19" class="edge">
<title>component/Dashboard/DashboardHeader/SelectRealTimeRangeArea.tsx&#45;&gt;component/Dashboard/DashboardHeader/RealTime.tsx</title>
<path fill="none" stroke="#757575" d="M1620.76,-929.08C1671.82,-924.95 1738.69,-928.13 1786,-962.07 1818.34,-985.27 1789.65,-1020.89 1822,-1044.07 1862.72,-1073.26 1918.47,-1078.75 1964.94,-1076.71"/>
<polygon fill="#757575" stroke="#757575" points="1964.94,-1080.22 1974.72,-1076.15 1964.54,-1073.23 1964.94,-1080.22"/>
</g>
<!-- component/Dashboard/DashboardHeader/SelectRealTimeListItem.tsx -->
<g id="node26" class="node">
<title>component/Dashboard/DashboardHeader/SelectRealTimeListItem.tsx</title>
<path fill="none" stroke="#cfffac" d="M2275.83,-1034.57C2275.83,-1034.57 1831.17,-1034.57 1831.17,-1034.57 1827.33,-1034.57 1823.5,-1030.74 1823.5,-1026.91 1823.5,-1026.91 1823.5,-1019.24 1823.5,-1019.24 1823.5,-1015.41 1827.33,-1011.57 1831.17,-1011.57 1831.17,-1011.57 2275.83,-1011.57 2275.83,-1011.57 2279.67,-1011.57 2283.5,-1015.41 2283.5,-1019.24 2283.5,-1019.24 2283.5,-1026.91 2283.5,-1026.91 2283.5,-1030.74 2279.67,-1034.57 2275.83,-1034.57"/>
<text text-anchor="middle" x="2053.5" y="-1019.37" font-family="Arial" font-size="14.00" fill="#cfffac">component/Dashboard/DashboardHeader/SelectRealTimeListItem.tsx</text>
</g>
<!-- component/Dashboard/DashboardHeader/SelectRealTimeRangeArea.tsx&#45;&gt;component/Dashboard/DashboardHeader/SelectRealTimeListItem.tsx -->
<g id="edge20" class="edge">
<title>component/Dashboard/DashboardHeader/SelectRealTimeRangeArea.tsx&#45;&gt;component/Dashboard/DashboardHeader/SelectRealTimeListItem.tsx</title>
<path fill="none" stroke="#757575" d="M1765.24,-952.98C1772.35,-955.66 1779.3,-958.68 1786,-962.07 1807.63,-973.03 1800.36,-992.13 1822,-1003.07 1824.59,-1004.38 1827.21,-1005.63 1829.87,-1006.83"/>
<polygon fill="#757575" stroke="#757575" points="1828.3,-1009.97 1838.88,-1010.59 1831,-1003.51 1828.3,-1009.97"/>
</g>
<!-- component/Dashboard/DashboardHeader/CurrentTime.tsx -->
<g id="node18" class="node">
<title>component/Dashboard/DashboardHeader/CurrentTime.tsx</title>
<path fill="none" stroke="#c6c5fe" d="M1730.83,-790.57C1730.83,-790.57 1360.17,-790.57 1360.17,-790.57 1356.33,-790.57 1352.5,-786.74 1352.5,-782.91 1352.5,-782.91 1352.5,-775.24 1352.5,-775.24 1352.5,-771.41 1356.33,-767.57 1360.17,-767.57 1360.17,-767.57 1730.83,-767.57 1730.83,-767.57 1734.67,-767.57 1738.5,-771.41 1738.5,-775.24 1738.5,-775.24 1738.5,-782.91 1738.5,-782.91 1738.5,-786.74 1734.67,-790.57 1730.83,-790.57"/>
<text text-anchor="middle" x="1545.5" y="-775.37" font-family="Arial" font-size="14.00" fill="#c6c5fe">component/Dashboard/DashboardHeader/CurrentTime.tsx</text>
</g>
<!-- component/Dashboard/DashboardHeader/TimeBlock.tsx&#45;&gt;component/Dashboard/DashboardHeader/CurrentTime.tsx -->
<g id="edge23" class="edge">
<title>component/Dashboard/DashboardHeader/TimeBlock.tsx&#45;&gt;component/Dashboard/DashboardHeader/CurrentTime.tsx</title>
<path fill="none" stroke="#757575" d="M1223.77,-779.07C1261.82,-779.07 1302.05,-779.07 1340.68,-779.07"/>
<polygon fill="#757575" stroke="#757575" points="1340.55,-782.57 1350.55,-779.07 1340.55,-775.57 1340.55,-782.57"/>
</g>
<!-- component/Dashboard/DashboardHeader/DatePickerArea.tsx -->
<g id="node21" class="node">
<title>component/Dashboard/DashboardHeader/DatePickerArea.tsx</title>
<path fill="none" stroke="#c6c5fe" d="M1741.33,-871.57C1741.33,-871.57 1349.67,-871.57 1349.67,-871.57 1345.83,-871.57 1342,-867.74 1342,-863.91 1342,-863.91 1342,-856.24 1342,-856.24 1342,-852.41 1345.83,-848.57 1349.67,-848.57 1349.67,-848.57 1741.33,-848.57 1741.33,-848.57 1745.17,-848.57 1749,-852.41 1749,-856.24 1749,-856.24 1749,-863.91 1749,-863.91 1749,-867.74 1745.17,-871.57 1741.33,-871.57"/>
<text text-anchor="middle" x="1545.5" y="-856.37" font-family="Arial" font-size="14.00" fill="#c6c5fe">component/Dashboard/DashboardHeader/DatePickerArea.tsx</text>
</g>
<!-- component/Dashboard/DashboardHeader/TimeBlock.tsx&#45;&gt;component/Dashboard/DashboardHeader/DatePickerArea.tsx -->
<g id="edge24" class="edge">
<title>component/Dashboard/DashboardHeader/TimeBlock.tsx&#45;&gt;component/Dashboard/DashboardHeader/DatePickerArea.tsx</title>
<path fill="none" stroke="#757575" d="M1089.79,-791.03C1143.54,-802.99 1229.76,-821.26 1305,-833.07 1338.42,-838.32 1374.63,-842.95 1408.52,-846.82"/>
<polygon fill="#757575" stroke="#757575" points="1408.09,-850.3 1418.42,-847.94 1408.87,-843.34 1408.09,-850.3"/>
</g>
<!-- store/DashboardProvider.tsx&#45;&gt;common/date.ts -->
<g id="edge73" class="edge">
<title>store/DashboardProvider.tsx&#45;&gt;common/date.ts</title>
<path fill="none" stroke="#757575" d="M2152.3,-738.07C2233.98,-738.07 2348.44,-738.07 2421.28,-738.07"/>
<polygon fill="#757575" stroke="#757575" points="2421.09,-741.57 2431.09,-738.07 2421.09,-734.57 2421.09,-741.57"/>
</g>
<!-- store/WidgetPropsSettingModalProvider.tsx&#45;&gt;hook/useBoolean.tsx -->
<g id="edge74" class="edge">
<title>store/WidgetPropsSettingModalProvider.tsx&#45;&gt;hook/useBoolean.tsx</title>
<path fill="none" stroke="#757575" d="M1591.97,-672.06C1642.59,-686.89 1725.26,-715.61 1786,-759.07 1805.72,-773.19 1800.36,-789.13 1822,-800.07 1866.44,-822.56 1921.9,-827.96 1967.29,-827.54"/>
<polygon fill="#757575" stroke="#757575" points="1967.16,-831.04 1977.08,-827.35 1967.02,-824.05 1967.16,-831.04"/>
</g>
<!-- hook/useCurrentTime.tsx -->
<g id="node19" class="node">
<title>hook/useCurrentTime.tsx</title>
<path fill="none" stroke="#cfffac" d="M2133.33,-790.57C2133.33,-790.57 1973.67,-790.57 1973.67,-790.57 1969.83,-790.57 1966,-786.74 1966,-782.91 1966,-782.91 1966,-775.24 1966,-775.24 1966,-771.41 1969.83,-767.57 1973.67,-767.57 1973.67,-767.57 2133.33,-767.57 2133.33,-767.57 2137.17,-767.57 2141,-771.41 2141,-775.24 2141,-775.24 2141,-782.91 2141,-782.91 2141,-786.74 2137.17,-790.57 2133.33,-790.57"/>
<text text-anchor="middle" x="2053.5" y="-775.37" font-family="Arial" font-size="14.00" fill="#cfffac">hook/useCurrentTime.tsx</text>
</g>
<!-- component/Dashboard/DashboardHeader/CurrentTime.tsx&#45;&gt;hook/useCurrentTime.tsx -->
<g id="edge10" class="edge">
<title>component/Dashboard/DashboardHeader/CurrentTime.tsx&#45;&gt;hook/useCurrentTime.tsx</title>
<path fill="none" stroke="#757575" d="M1738.88,-779.07C1812.4,-779.07 1893.19,-779.07 1954.35,-779.07"/>
<polygon fill="#757575" stroke="#757575" points="1954.02,-782.57 1964.02,-779.07 1954.02,-775.57 1954.02,-782.57"/>
</g>
<!-- component/Dashboard/DashboardHeader/DateBox.tsx -->
<g id="node20" class="node">
<title>component/Dashboard/DashboardHeader/DateBox.tsx</title>
<path fill="none" stroke="#cfffac" d="M2226.83,-952.57C2226.83,-952.57 1880.17,-952.57 1880.17,-952.57 1876.33,-952.57 1872.5,-948.74 1872.5,-944.91 1872.5,-944.91 1872.5,-937.24 1872.5,-937.24 1872.5,-933.41 1876.33,-929.57 1880.17,-929.57 1880.17,-929.57 2226.83,-929.57 2226.83,-929.57 2230.67,-929.57 2234.5,-933.41 2234.5,-937.24 2234.5,-937.24 2234.5,-944.91 2234.5,-944.91 2234.5,-948.74 2230.67,-952.57 2226.83,-952.57"/>
<text text-anchor="middle" x="2053.5" y="-937.37" font-family="Arial" font-size="14.00" fill="#cfffac">component/Dashboard/DashboardHeader/DateBox.tsx</text>
</g>
<!-- component/Dashboard/DashboardHeader/DatePickerArea.tsx&#45;&gt;common/date.ts -->
<g id="edge11" class="edge">
<title>component/Dashboard/DashboardHeader/DatePickerArea.tsx&#45;&gt;common/date.ts</title>
<path fill="none" stroke="#757575" d="M1728.99,-872.06C1915.34,-881.37 2190.32,-886.11 2285,-841.07 2307.2,-830.52 2300.75,-813.01 2321,-799.07 2352.29,-777.53 2392.03,-762.74 2425.27,-753.12"/>
<polygon fill="#757575" stroke="#757575" points="2426.12,-756.51 2434.82,-750.46 2424.24,-749.77 2426.12,-756.51"/>
</g>
<!-- component/Dashboard/DashboardHeader/DatePickerArea.tsx&#45;&gt;store/DashboardProvider.tsx -->
<g id="edge16" class="edge">
<title>component/Dashboard/DashboardHeader/DatePickerArea.tsx&#45;&gt;store/DashboardProvider.tsx</title>
<path fill="none" stroke="#757575" d="M1650.28,-848.1C1694.51,-839.56 1745.2,-824.97 1786,-800.07 1806.7,-787.44 1800.39,-770.07 1822,-759.07 1858.83,-740.34 1903.27,-733.27 1943.26,-731.51"/>
<polygon fill="#757575" stroke="#757575" points="1943.29,-735.01 1953.17,-731.2 1943.07,-728.02 1943.29,-735.01"/>
</g>
<!-- component/Dashboard/DashboardHeader/DatePickerArea.tsx&#45;&gt;component/Dashboard/DashboardHeader/DateBox.tsx -->
<g id="edge12" class="edge">
<title>component/Dashboard/DashboardHeader/DatePickerArea.tsx&#45;&gt;component/Dashboard/DashboardHeader/DateBox.tsx</title>
<path fill="none" stroke="#757575" d="M1591.98,-872.07C1646.31,-885.96 1740.17,-908.52 1822,-921.07 1838.53,-923.61 1855.78,-925.85 1873.07,-927.82"/>
<polygon fill="#757575" stroke="#757575" points="1872.61,-931.29 1882.94,-928.92 1873.38,-924.34 1872.61,-931.29"/>
</g>
<!-- component/common/DatePicker.tsx -->
<g id="node22" class="node">
<title>component/common/DatePicker.tsx</title>
<path fill="none" stroke="#c6c5fe" d="M2166.83,-911.57C2166.83,-911.57 1940.17,-911.57 1940.17,-911.57 1936.33,-911.57 1932.5,-907.74 1932.5,-903.91 1932.5,-903.91 1932.5,-896.24 1932.5,-896.24 1932.5,-892.41 1936.33,-888.57 1940.17,-888.57 1940.17,-888.57 2166.83,-888.57 2166.83,-888.57 2170.67,-888.57 2174.5,-892.41 2174.5,-896.24 2174.5,-896.24 2174.5,-903.91 2174.5,-903.91 2174.5,-907.74 2170.67,-911.57 2166.83,-911.57"/>
<text text-anchor="middle" x="2053.5" y="-896.37" font-family="Arial" font-size="14.00" fill="#c6c5fe">component/common/DatePicker.tsx</text>
</g>
<!-- component/Dashboard/DashboardHeader/DatePickerArea.tsx&#45;&gt;component/common/DatePicker.tsx -->
<g id="edge13" class="edge">
<title>component/Dashboard/DashboardHeader/DatePickerArea.tsx&#45;&gt;component/common/DatePicker.tsx</title>
<path fill="none" stroke="#757575" d="M1697.97,-872.05C1768.99,-877.66 1852.81,-884.29 1921.11,-889.69"/>
<polygon fill="#757575" stroke="#757575" points="1920.61,-893.16 1930.86,-890.46 1921.17,-886.18 1920.61,-893.16"/>
</g>
<!-- component/Dashboard/DashboardHeader/DatePickerArea.tsx&#45;&gt;hook/useBoolean.tsx -->
<g id="edge14" class="edge">
<title>component/Dashboard/DashboardHeader/DatePickerArea.tsx&#45;&gt;hook/useBoolean.tsx</title>
<path fill="none" stroke="#757575" d="M1697.97,-848.1C1786.18,-841.13 1894.12,-832.59 1967.57,-826.79"/>
<polygon fill="#757575" stroke="#757575" points="1967.4,-830.31 1977.09,-826.04 1966.85,-823.33 1967.4,-830.31"/>
</g>
<!-- component/Dashboard/DashboardHeader/DatePickerArea.tsx&#45;&gt;hook/useOutsideClick.tsx -->
<g id="edge15" class="edge">
<title>component/Dashboard/DashboardHeader/DatePickerArea.tsx&#45;&gt;hook/useOutsideClick.tsx</title>
<path fill="none" stroke="#757575" d="M1647.62,-872.02C1692.47,-880.69 1744.39,-895.57 1786,-921.07 1806.68,-933.75 1800.36,-951.13 1822,-962.07 1862.14,-982.38 1911.27,-988.75 1953.85,-989.49"/>
<polygon fill="#757575" stroke="#757575" points="1953.56,-992.99 1963.58,-989.55 1953.6,-985.99 1953.56,-992.99"/>
</g>
<!-- component/common/DatePicker/DatePickerTitle.tsx -->
<g id="node44" class="node">
<title>component/common/DatePicker/DatePickerTitle.tsx</title>
<path fill="none" stroke="#c6c5fe" d="M2656.33,-830.57C2656.33,-830.57 2328.67,-830.57 2328.67,-830.57 2324.83,-830.57 2321,-826.74 2321,-822.91 2321,-822.91 2321,-815.24 2321,-815.24 2321,-811.41 2324.83,-807.57 2328.67,-807.57 2328.67,-807.57 2656.33,-807.57 2656.33,-807.57 2660.17,-807.57 2664,-811.41 2664,-815.24 2664,-815.24 2664,-822.91 2664,-822.91 2664,-826.74 2660.17,-830.57 2656.33,-830.57"/>
<text text-anchor="middle" x="2492.5" y="-815.37" font-family="Arial" font-size="14.00" fill="#c6c5fe">component/common/DatePicker/DatePickerTitle.tsx</text>
</g>
<!-- component/common/DatePicker.tsx&#45;&gt;component/common/DatePicker/DatePickerTitle.tsx -->
<g id="edge56" class="edge">
<title>component/common/DatePicker.tsx&#45;&gt;component/common/DatePicker/DatePickerTitle.tsx</title>
<path fill="none" stroke="#757575" d="M2174.88,-892.43C2210.66,-888.57 2249.71,-882.77 2285,-874.07 2301.67,-869.97 2304.62,-865.2 2321,-860.07 2353.86,-849.79 2390.97,-840.58 2422.16,-833.52"/>
<polygon fill="#757575" stroke="#757575" points="2422.89,-836.94 2431.88,-831.34 2421.36,-830.11 2422.89,-836.94"/>
</g>
<!-- component/common/DatePicker/ListPicker.tsx -->
<g id="node45" class="node">
<title>component/common/DatePicker/ListPicker.tsx</title>
<path fill="none" stroke="#c6c5fe" d="M2638.83,-891.57C2638.83,-891.57 2346.17,-891.57 2346.17,-891.57 2342.33,-891.57 2338.5,-887.74 2338.5,-883.91 2338.5,-883.91 2338.5,-876.24 2338.5,-876.24 2338.5,-872.41 2342.33,-868.57 2346.17,-868.57 2346.17,-868.57 2638.83,-868.57 2638.83,-868.57 2642.67,-868.57 2646.5,-872.41 2646.5,-876.24 2646.5,-876.24 2646.5,-883.91 2646.5,-883.91 2646.5,-887.74 2642.67,-891.57 2638.83,-891.57"/>
<text text-anchor="middle" x="2492.5" y="-876.37" font-family="Arial" font-size="14.00" fill="#c6c5fe">component/common/DatePicker/ListPicker.tsx</text>
</g>
<!-- component/common/DatePicker.tsx&#45;&gt;component/common/DatePicker/ListPicker.tsx -->
<g id="edge57" class="edge">
<title>component/common/DatePicker.tsx&#45;&gt;component/common/DatePicker/ListPicker.tsx</title>
<path fill="none" stroke="#757575" d="M2174.78,-894.57C2221.76,-892.42 2276.39,-889.92 2326.91,-887.61"/>
<polygon fill="#757575" stroke="#757575" points="2326.96,-891.11 2336.79,-887.16 2326.64,-884.12 2326.96,-891.11"/>
</g>
<!-- types/datePicker.d.ts -->
<g id="node46" class="node">
<title>types/datePicker.d.ts</title>
<path fill="none" stroke="#cfffac" d="M2935.33,-931.57C2935.33,-931.57 2801.67,-931.57 2801.67,-931.57 2797.83,-931.57 2794,-927.74 2794,-923.91 2794,-923.91 2794,-916.24 2794,-916.24 2794,-912.41 2797.83,-908.57 2801.67,-908.57 2801.67,-908.57 2935.33,-908.57 2935.33,-908.57 2939.17,-908.57 2943,-912.41 2943,-916.24 2943,-916.24 2943,-923.91 2943,-923.91 2943,-927.74 2939.17,-931.57 2935.33,-931.57"/>
<text text-anchor="middle" x="2868.5" y="-916.37" font-family="Arial" font-size="14.00" fill="#cfffac">types/datePicker.d.ts</text>
</g>
<!-- component/common/DatePicker.tsx&#45;&gt;types/datePicker.d.ts -->
<g id="edge58" class="edge">
<title>component/common/DatePicker.tsx&#45;&gt;types/datePicker.d.ts</title>
<path fill="none" stroke="#757575" d="M2174.9,-903.04C2341.13,-907.13 2636.82,-914.4 2782.11,-917.97"/>
<polygon fill="#757575" stroke="#757575" points="2781.99,-921.47 2792.07,-918.22 2782.16,-914.47 2781.99,-921.47"/>
</g>
<!-- component/Widget/Widget.tsx -->
<g id="node27" class="node">
<title>component/Widget/Widget.tsx</title>
<path fill="none" stroke="#c6c5fe" d="M700.33,-461.57C700.33,-461.57 506.67,-461.57 506.67,-461.57 502.83,-461.57 499,-457.74 499,-453.91 499,-453.91 499,-446.24 499,-446.24 499,-442.41 502.83,-438.57 506.67,-438.57 506.67,-438.57 700.33,-438.57 700.33,-438.57 704.17,-438.57 708,-442.41 708,-446.24 708,-446.24 708,-453.91 708,-453.91 708,-457.74 704.17,-461.57 700.33,-461.57"/>
<text text-anchor="middle" x="603.5" y="-446.37" font-family="Arial" font-size="14.00" fill="#c6c5fe">component/Widget/Widget.tsx</text>
</g>
<!-- component/Widget/Widget.tsx&#45;&gt;types/widget.d.ts -->
<g id="edge30" class="edge">
<title>component/Widget/Widget.tsx&#45;&gt;types/widget.d.ts</title>
<path fill="none" stroke="#757575" d="M619.7,-438.21C652,-413.47 730.54,-355.8 804,-321.07 1015.33,-221.18 1075.14,-203.52 1305,-161.07 1749.41,-79.02 1869.11,-125.51 2321,-120.07 2473.43,-118.24 2513.17,-97.95 2664,-120.07 2722.04,-128.59 2786.51,-150.07 2827.02,-165.12"/>
<polygon fill="#757575" stroke="#757575" points="2825.77,-168.39 2836.37,-168.64 2828.24,-161.84 2825.77,-168.39"/>
</g>
<!-- component/Widget/Widget.tsx&#45;&gt;hook/useBoolean.tsx -->
<g id="edge29" class="edge">
<title>component/Widget/Widget.tsx&#45;&gt;hook/useBoolean.tsx</title>
<path fill="none" stroke="#757575" d="M625.46,-462.06C661.49,-482.48 737.68,-524.95 804,-557.07 1006.79,-655.3 1086.94,-626.32 1269,-759.07 1288.59,-773.36 1283.04,-789.78 1305,-800.07 1420.11,-854.06 1796.68,-837.14 1967.22,-826.22"/>
<polygon fill="#757575" stroke="#757575" points="1967.38,-829.71 1977.13,-825.57 1966.92,-822.73 1967.38,-829.71"/>
</g>
<!-- component/Widget/WidgetButtons.tsx -->
<g id="node28" class="node">
<title>component/Widget/WidgetButtons.tsx</title>
<path fill="none" stroke="#c6c5fe" d="M1157.33,-461.57C1157.33,-461.57 915.67,-461.57 915.67,-461.57 911.83,-461.57 908,-457.74 908,-453.91 908,-453.91 908,-446.24 908,-446.24 908,-442.41 911.83,-438.57 915.67,-438.57 915.67,-438.57 1157.33,-438.57 1157.33,-438.57 1161.17,-438.57 1165,-442.41 1165,-446.24 1165,-446.24 1165,-453.91 1165,-453.91 1165,-457.74 1161.17,-461.57 1157.33,-461.57"/>
<text text-anchor="middle" x="1036.5" y="-446.37" font-family="Arial" font-size="14.00" fill="#c6c5fe">component/Widget/WidgetButtons.tsx</text>
</g>
<!-- component/Widget/Widget.tsx&#45;&gt;component/Widget/WidgetButtons.tsx -->
<g id="edge25" class="edge">
<title>component/Widget/Widget.tsx&#45;&gt;component/Widget/WidgetButtons.tsx</title>
<path fill="none" stroke="#757575" d="M708.28,-450.07C764.68,-450.07 835.18,-450.07 896.29,-450.07"/>
<polygon fill="#757575" stroke="#757575" points="896.07,-453.57 906.07,-450.07 896.07,-446.57 896.07,-453.57"/>
</g>
<!-- component/Widget/WidgetCallCycleSettingModal.tsx -->
<g id="node29" class="node">
<title>component/Widget/WidgetCallCycleSettingModal.tsx</title>
<path fill="none" stroke="#c6c5fe" d="M1713.33,-627.57C1713.33,-627.57 1377.67,-627.57 1377.67,-627.57 1373.83,-627.57 1370,-623.74 1370,-619.91 1370,-619.91 1370,-612.24 1370,-612.24 1370,-608.41 1373.83,-604.57 1377.67,-604.57 1377.67,-604.57 1713.33,-604.57 1713.33,-604.57 1717.17,-604.57 1721,-608.41 1721,-612.24 1721,-612.24 1721,-619.91 1721,-619.91 1721,-623.74 1717.17,-627.57 1713.33,-627.57"/>
<text text-anchor="middle" x="1545.5" y="-612.37" font-family="Arial" font-size="14.00" fill="#c6c5fe">component/Widget/WidgetCallCycleSettingModal.tsx</text>
</g>
<!-- component/Widget/Widget.tsx&#45;&gt;component/Widget/WidgetCallCycleSettingModal.tsx -->
<g id="edge26" class="edge">
<title>component/Widget/Widget.tsx&#45;&gt;component/Widget/WidgetCallCycleSettingModal.tsx</title>
<path fill="none" stroke="#757575" d="M642.41,-461.99C682.3,-474.19 747.06,-493 804,-505.07 1021.52,-551.19 1278.94,-585.23 1425.84,-602.75"/>
<polygon fill="#757575" stroke="#757575" points="1425.25,-606.2 1435.59,-603.91 1426.07,-599.25 1425.25,-606.2"/>
</g>
<!-- component/Widget/WidgetChart.tsx -->
<g id="node30" class="node">
<title>component/Widget/WidgetChart.tsx</title>
<path fill="none" stroke="#c6c5fe" d="M1149.83,-352.57C1149.83,-352.57 923.17,-352.57 923.17,-352.57 919.33,-352.57 915.5,-348.74 915.5,-344.91 915.5,-344.91 915.5,-337.24 915.5,-337.24 915.5,-333.41 919.33,-329.57 923.17,-329.57 923.17,-329.57 1149.83,-329.57 1149.83,-329.57 1153.67,-329.57 1157.5,-333.41 1157.5,-337.24 1157.5,-337.24 1157.5,-344.91 1157.5,-344.91 1157.5,-348.74 1153.67,-352.57 1149.83,-352.57"/>
<text text-anchor="middle" x="1036.5" y="-337.37" font-family="Arial" font-size="14.00" fill="#c6c5fe">component/Widget/WidgetChart.tsx</text>
</g>
<!-- component/Widget/Widget.tsx&#45;&gt;component/Widget/WidgetChart.tsx -->
<g id="edge27" class="edge">
<title>component/Widget/Widget.tsx&#45;&gt;component/Widget/WidgetChart.tsx</title>
<path fill="none" stroke="#757575" d="M651.86,-438.1C731.17,-418.04 890.65,-377.71 976.9,-355.89"/>
<polygon fill="#757575" stroke="#757575" points="977.76,-359.29 986.6,-353.44 976.04,-352.5 977.76,-359.29"/>
</g>
<!-- hook/Widget/useHandleWidgetApi.tsx -->
<g id="node31" class="node">
<title>hook/Widget/useHandleWidgetApi.tsx</title>
<path fill="none" stroke="#c6c5fe" d="M1666.33,-548.57C1666.33,-548.57 1424.67,-548.57 1424.67,-548.57 1420.83,-548.57 1417,-544.74 1417,-540.91 1417,-540.91 1417,-533.24 1417,-533.24 1417,-529.41 1420.83,-525.57 1424.67,-525.57 1424.67,-525.57 1666.33,-525.57 1666.33,-525.57 1670.17,-525.57 1674,-529.41 1674,-533.24 1674,-533.24 1674,-540.91 1674,-540.91 1674,-544.74 1670.17,-548.57 1666.33,-548.57"/>
<text text-anchor="middle" x="1545.5" y="-533.37" font-family="Arial" font-size="14.00" fill="#c6c5fe">hook/Widget/useHandleWidgetApi.tsx</text>
</g>
<!-- component/Widget/Widget.tsx&#45;&gt;hook/Widget/useHandleWidgetApi.tsx -->
<g id="edge28" class="edge">
<title>component/Widget/Widget.tsx&#45;&gt;hook/Widget/useHandleWidgetApi.tsx</title>
<path fill="none" stroke="#757575" d="M708.27,-461.32C739.07,-464.57 772.89,-468.05 804,-471.07 1013.4,-491.43 1256.36,-512.62 1405.24,-525.33"/>
<polygon fill="#757575" stroke="#757575" points="1404.91,-528.82 1415.17,-526.18 1405.51,-521.84 1404.91,-528.82"/>
</g>
<!-- component/Widget/WidgetButtons.tsx&#45;&gt;store/WidgetPropsSettingModalProvider.tsx -->
<g id="edge31" class="edge">
<title>component/Widget/WidgetButtons.tsx&#45;&gt;store/WidgetPropsSettingModalProvider.tsx</title>
<path fill="none" stroke="#757575" d="M1049.49,-462.03C1084.87,-496.46 1193.34,-595.95 1305,-637.07 1330.78,-646.57 1359.12,-652.7 1387.01,-656.58"/>
<polygon fill="#757575" stroke="#757575" points="1386.21,-660.01 1396.58,-657.81 1387.11,-653.06 1386.21,-660.01"/>
</g>
<!-- store/WidgetProvider.tsx -->
<g id="node32" class="node">
<title>store/WidgetProvider.tsx</title>
<path fill="none" stroke="#c6c5fe" d="M1624.33,-72.57C1624.33,-72.57 1466.67,-72.57 1466.67,-72.57 1462.83,-72.57 1459,-68.74 1459,-64.91 1459,-64.91 1459,-57.24 1459,-57.24 1459,-53.41 1462.83,-49.57 1466.67,-49.57 1466.67,-49.57 1624.33,-49.57 1624.33,-49.57 1628.17,-49.57 1632,-53.41 1632,-57.24 1632,-57.24 1632,-64.91 1632,-64.91 1632,-68.74 1628.17,-72.57 1624.33,-72.57"/>
<text text-anchor="middle" x="1545.5" y="-57.37" font-family="Arial" font-size="14.00" fill="#c6c5fe">store/WidgetProvider.tsx</text>
</g>
<!-- component/Widget/WidgetButtons.tsx&#45;&gt;store/WidgetProvider.tsx -->
<g id="edge32" class="edge">
<title>component/Widget/WidgetButtons.tsx&#45;&gt;store/WidgetProvider.tsx</title>
<path fill="none" stroke="#757575" d="M1108.81,-438.11C1159.07,-426.38 1224.99,-403.92 1269,-362.07 1297.84,-334.65 1281.81,-312.42 1305,-280.07 1367.64,-192.68 1470,-113.87 1518.03,-79.42"/>
<polygon fill="#757575" stroke="#757575" points="1519.79,-82.47 1525.92,-73.82 1515.74,-76.76 1519.79,-82.47"/>
</g>
<!-- component/Widget/WidgetCallCycleSettingModal.tsx&#45;&gt;common/widget.ts -->
<g id="edge33" class="edge">
<title>component/Widget/WidgetCallCycleSettingModal.tsx&#45;&gt;common/widget.ts</title>
<path fill="none" stroke="#757575" d="M1721.35,-615.73C1808.16,-615.56 1908.59,-615.36 1975.89,-615.23"/>
<polygon fill="#757575" stroke="#757575" points="1975.72,-618.73 1985.71,-615.21 1975.7,-611.73 1975.72,-618.73"/>
</g>
<!-- component/Widget/WidgetCallCycleSettingModal/CycleInput.tsx -->
<g id="node33" class="node">
<title>component/Widget/WidgetCallCycleSettingModal/CycleInput.tsx</title>
<path fill="none" stroke="#cfffac" d="M2256.83,-708.57C2256.83,-708.57 1850.17,-708.57 1850.17,-708.57 1846.33,-708.57 1842.5,-704.74 1842.5,-700.91 1842.5,-700.91 1842.5,-693.24 1842.5,-693.24 1842.5,-689.41 1846.33,-685.57 1850.17,-685.57 1850.17,-685.57 2256.83,-685.57 2256.83,-685.57 2260.67,-685.57 2264.5,-689.41 2264.5,-693.24 2264.5,-693.24 2264.5,-700.91 2264.5,-700.91 2264.5,-704.74 2260.67,-708.57 2256.83,-708.57"/>
<text text-anchor="middle" x="2053.5" y="-693.37" font-family="Arial" font-size="14.00" fill="#cfffac">component/Widget/WidgetCallCycleSettingModal/CycleInput.tsx</text>
</g>
<!-- component/Widget/WidgetCallCycleSettingModal.tsx&#45;&gt;component/Widget/WidgetCallCycleSettingModal/CycleInput.tsx -->
<g id="edge34" class="edge">
<title>component/Widget/WidgetCallCycleSettingModal.tsx&#45;&gt;component/Widget/WidgetCallCycleSettingModal/CycleInput.tsx</title>
<path fill="none" stroke="#757575" d="M1721.19,-619.13C1743.68,-623.66 1765.86,-630.36 1786,-640.07 1806.66,-650.04 1801.27,-667.24 1822,-677.07 1825.16,-678.58 1828.38,-680 1831.64,-681.34"/>
<polygon fill="#757575" stroke="#757575" points="1830.19,-684.54 1840.78,-684.85 1832.7,-678 1830.19,-684.54"/>
</g>
<!-- component/Widget/WidgetCallCycleSettingModal/LastCallTimeBox.tsx -->
<g id="node34" class="node">
<title>component/Widget/WidgetCallCycleSettingModal/LastCallTimeBox.tsx</title>
<path fill="none" stroke="#cfffac" d="M2277.33,-667.57C2277.33,-667.57 1829.67,-667.57 1829.67,-667.57 1825.83,-667.57 1822,-663.74 1822,-659.91 1822,-659.91 1822,-652.24 1822,-652.24 1822,-648.41 1825.83,-644.57 1829.67,-644.57 1829.67,-644.57 2277.33,-644.57 2277.33,-644.57 2281.17,-644.57 2285,-648.41 2285,-652.24 2285,-652.24 2285,-659.91 2285,-659.91 2285,-663.74 2281.17,-667.57 2277.33,-667.57"/>
<text text-anchor="middle" x="2053.5" y="-652.37" font-family="Arial" font-size="14.00" fill="#cfffac">component/Widget/WidgetCallCycleSettingModal/LastCallTimeBox.tsx</text>
</g>
<!-- component/Widget/WidgetCallCycleSettingModal.tsx&#45;&gt;component/Widget/WidgetCallCycleSettingModal/LastCallTimeBox.tsx -->
<g id="edge35" class="edge">
<title>component/Widget/WidgetCallCycleSettingModal.tsx&#45;&gt;component/Widget/WidgetCallCycleSettingModal/LastCallTimeBox.tsx</title>
<path fill="none" stroke="#757575" d="M1697.97,-628.05C1758.41,-632.83 1828.12,-638.34 1889.64,-643.2"/>
<polygon fill="#757575" stroke="#757575" points="1889.28,-646.68 1899.52,-643.98 1889.83,-639.7 1889.28,-646.68"/>
</g>
<!-- component/Widget/WidgetChart.tsx&#45;&gt;types/api.d.ts -->
<g id="edge39" class="edge">
<title>component/Widget/WidgetChart.tsx&#45;&gt;types/api.d.ts</title>
<path fill="none" stroke="#757575" d="M1076.17,-329.08C1189.41,-294.62 1530.68,-195.35 1822,-158.07 2044.67,-129.58 2312.28,-134.4 2430.39,-138.49"/>
<polygon fill="#757575" stroke="#757575" points="2430.05,-141.98 2440.17,-138.84 2430.3,-134.98 2430.05,-141.98"/>
</g>
<!-- component/chart/BarChart.tsx -->
<g id="node35" class="node">
<title>component/chart/BarChart.tsx</title>
<path fill="none" stroke="#c6c5fe" d="M1639.33,-352.57C1639.33,-352.57 1451.67,-352.57 1451.67,-352.57 1447.83,-352.57 1444,-348.74 1444,-344.91 1444,-344.91 1444,-337.24 1444,-337.24 1444,-333.41 1447.83,-329.57 1451.67,-329.57 1451.67,-329.57 1639.33,-329.57 1639.33,-329.57 1643.17,-329.57 1647,-333.41 1647,-337.24 1647,-337.24 1647,-344.91 1647,-344.91 1647,-348.74 1643.17,-352.57 1639.33,-352.57"/>
<text text-anchor="middle" x="1545.5" y="-337.37" font-family="Arial" font-size="14.00" fill="#c6c5fe">component/chart/BarChart.tsx</text>
</g>
<!-- component/Widget/WidgetChart.tsx&#45;&gt;component/chart/BarChart.tsx -->
<g id="edge36" class="edge">
<title>component/Widget/WidgetChart.tsx&#45;&gt;component/chart/BarChart.tsx</title>
<path fill="none" stroke="#757575" d="M1157.97,-341.07C1241.18,-341.07 1351.08,-341.07 1432.41,-341.07"/>
<polygon fill="#757575" stroke="#757575" points="1432.18,-344.57 1442.18,-341.07 1432.18,-337.57 1432.18,-344.57"/>
</g>
<!-- component/chart/InformaticsChart.tsx -->
<g id="node36" class="node">
<title>component/chart/InformaticsChart.tsx</title>
<path fill="none" stroke="#c6c5fe" d="M1663.83,-432.57C1663.83,-432.57 1427.17,-432.57 1427.17,-432.57 1423.33,-432.57 1419.5,-428.74 1419.5,-424.91 1419.5,-424.91 1419.5,-417.24 1419.5,-417.24 1419.5,-413.41 1423.33,-409.57 1427.17,-409.57 1427.17,-409.57 1663.83,-409.57 1663.83,-409.57 1667.67,-409.57 1671.5,-413.41 1671.5,-417.24 1671.5,-417.24 1671.5,-424.91 1671.5,-424.91 1671.5,-428.74 1667.67,-432.57 1663.83,-432.57"/>
<text text-anchor="middle" x="1545.5" y="-417.37" font-family="Arial" font-size="14.00" fill="#c6c5fe">component/chart/InformaticsChart.tsx</text>
</g>
<!-- component/Widget/WidgetChart.tsx&#45;&gt;component/chart/InformaticsChart.tsx -->
<g id="edge37" class="edge">
<title>component/Widget/WidgetChart.tsx&#45;&gt;component/chart/InformaticsChart.tsx</title>
<path fill="none" stroke="#757575" d="M1114.94,-353.04C1159.92,-360 1217.67,-368.99 1269,-377.07 1332.54,-387.09 1404.3,-398.55 1458.65,-407.27"/>
<polygon fill="#757575" stroke="#757575" points="1458.05,-410.72 1468.48,-408.85 1459.16,-403.81 1458.05,-410.72"/>
</g>
<!-- component/chart/LineChart.tsx -->
<g id="node37" class="node">
<title>component/chart/LineChart.tsx</title>
<path fill="none" stroke="#c6c5fe" d="M1642.33,-311.57C1642.33,-311.57 1448.67,-311.57 1448.67,-311.57 1444.83,-311.57 1441,-307.74 1441,-303.91 1441,-303.91 1441,-296.24 1441,-296.24 1441,-292.41 1444.83,-288.57 1448.67,-288.57 1448.67,-288.57 1642.33,-288.57 1642.33,-288.57 1646.17,-288.57 1650,-292.41 1650,-296.24 1650,-296.24 1650,-303.91 1650,-303.91 1650,-307.74 1646.17,-311.57 1642.33,-311.57"/>
<text text-anchor="middle" x="1545.5" y="-296.37" font-family="Arial" font-size="14.00" fill="#c6c5fe">component/chart/LineChart.tsx</text>
</g>
<!-- component/Widget/WidgetChart.tsx&#45;&gt;component/chart/LineChart.tsx -->
<g id="edge38" class="edge">
<title>component/Widget/WidgetChart.tsx&#45;&gt;component/chart/LineChart.tsx</title>
<path fill="none" stroke="#757575" d="M1157.97,-331.33C1240.21,-324.68 1348.5,-315.92 1429.53,-309.37"/>
<polygon fill="#757575" stroke="#757575" points="1429.59,-312.88 1439.27,-308.58 1429.02,-305.9 1429.59,-312.88"/>
</g>
<!-- hook/Widget/useHandleWidgetApi.tsx&#45;&gt;common/api.ts -->
<g id="edge62" class="edge">
<title>hook/Widget/useHandleWidgetApi.tsx&#45;&gt;common/api.ts</title>
<path fill="none" stroke="#757575" d="M1629.69,-525.09C1682.35,-513.08 1747.54,-489.21 1786,-442.07 1843.93,-371.08 1759.82,-306.38 1822,-239.07 1863.61,-194.04 1934.35,-181.04 1986.52,-178.08"/>
<polygon fill="#757575" stroke="#757575" points="1986.67,-181.58 1996.5,-177.64 1986.36,-174.59 1986.67,-181.58"/>
</g>
<!-- hook/Widget/useHandleWidgetApi.tsx&#45;&gt;types/widget.d.ts -->
<g id="edge67" class="edge">
<title>hook/Widget/useHandleWidgetApi.tsx&#45;&gt;types/widget.d.ts</title>
<path fill="none" stroke="#757575" d="M1674.4,-537.32C1931.43,-535.67 2500.09,-520.62 2664,-422.07 2757.61,-365.79 2828.89,-250.91 2855.81,-202.91"/>
<polygon fill="#757575" stroke="#757575" points="2858.79,-204.75 2860.55,-194.3 2852.66,-201.37 2858.79,-204.75"/>
</g>
<!-- hook/Widget/useHandleWidgetApi.tsx&#45;&gt;types/chart.d.ts -->
<g id="edge66" class="edge">
<title>hook/Widget/useHandleWidgetApi.tsx&#45;&gt;types/chart.d.ts</title>
<path fill="none" stroke="#757575" d="M1674.28,-530.93C1822.34,-522.19 2073.11,-502.41 2285,-461.07 2341.73,-450.01 2405.36,-430.39 2446.8,-416.6"/>
<polygon fill="#757575" stroke="#757575" points="2447.82,-419.95 2456.18,-413.45 2445.59,-413.32 2447.82,-419.95"/>
</g>
<!-- hook/Widget/useHandleWidgetApi.tsx&#45;&gt;common/date.ts -->
<g id="edge63" class="edge">
<title>hook/Widget/useHandleWidgetApi.tsx&#45;&gt;common/date.ts</title>
<path fill="none" stroke="#757575" d="M1674.47,-543.49C1870.68,-553.86 2229.15,-575.19 2285,-595.07 2361.93,-622.46 2436.81,-686.3 2471.47,-718.61"/>
<polygon fill="#757575" stroke="#757575" points="2469.01,-721.09 2478.68,-725.42 2473.82,-716.01 2469.01,-721.09"/>
</g>
<!-- hook/Widget/useHandleWidgetApi.tsx&#45;&gt;common/widget.ts -->
<g id="edge64" class="edge">
<title>hook/Widget/useHandleWidgetApi.tsx&#45;&gt;common/widget.ts</title>
<path fill="none" stroke="#757575" d="M1603.28,-549.07C1658.83,-560.5 1745.95,-577.62 1822,-589.07 1873.1,-596.77 1930.89,-603.28 1975.83,-607.87"/>
<polygon fill="#757575" stroke="#757575" points="1975.45,-611.35 1985.75,-608.87 1976.15,-604.38 1975.45,-611.35"/>
</g>
<!-- hook/Widget/useHandleWidgetApi.tsx&#45;&gt;store/DashboardProvider.tsx -->
<g id="edge65" class="edge">
<title>hook/Widget/useHandleWidgetApi.tsx&#45;&gt;store/DashboardProvider.tsx</title>
<path fill="none" stroke="#757575" d="M1674.46,-543.93C1714.53,-552.04 1756.05,-567.45 1786,-596.07 1826.87,-635.13 1778.23,-682.3 1822,-718.07 1865.71,-753.8 1930.91,-756.33 1980.82,-751.34"/>
<polygon fill="#757575" stroke="#757575" points="1981.14,-754.82 1990.68,-750.22 1980.35,-747.87 1981.14,-754.82"/>
</g>
<!-- store/WidgetProvider.tsx&#45;&gt;types/widget.d.ts -->
<g id="edge75" class="edge">
<title>store/WidgetProvider.tsx&#45;&gt;types/widget.d.ts</title>
<path fill="none" stroke="#757575" d="M1632.44,-51.35C1821.8,-32.45 2288.04,0.16 2664,-87.07 2730.47,-102.5 2801.35,-140.89 2839.42,-163.55"/>
<polygon fill="#757575" stroke="#757575" points="2837.14,-166.27 2847.51,-168.44 2840.76,-160.27 2837.14,-166.27"/>
</g>
<!-- component/chart/BarChart.tsx&#45;&gt;common/chart.ts -->
<g id="edge45" class="edge">
<title>component/chart/BarChart.tsx&#45;&gt;common/chart.ts</title>
<path fill="none" stroke="#757575" d="M1647.38,-341.07C1746.02,-341.07 1893.73,-341.07 1980.89,-341.07"/>
<polygon fill="#757575" stroke="#757575" points="1980.74,-344.57 1990.74,-341.07 1980.74,-337.57 1980.74,-344.57"/>
</g>
<!-- component/chart/BarChart.tsx&#45;&gt;types/chart.d.ts -->
<g id="edge48" class="edge">
<title>component/chart/BarChart.tsx&#45;&gt;types/chart.d.ts</title>
<path fill="none" stroke="#757575" d="M1647.22,-349.19C1699.37,-353.28 1764.09,-358.18 1822,-362.07 2042.57,-376.9 2304.25,-391.19 2424.72,-397.58"/>
<polygon fill="#757575" stroke="#757575" points="2424.25,-401.06 2434.42,-398.09 2424.62,-394.07 2424.25,-401.06"/>
</g>
<!-- component/chart/ChartSvg.tsx -->
<g id="node41" class="node">
<title>component/chart/ChartSvg.tsx</title>
<path fill="none" stroke="#cfffac" d="M2148.83,-311.57C2148.83,-311.57 1958.17,-311.57 1958.17,-311.57 1954.33,-311.57 1950.5,-307.74 1950.5,-303.91 1950.5,-303.91 1950.5,-296.24 1950.5,-296.24 1950.5,-292.41 1954.33,-288.57 1958.17,-288.57 1958.17,-288.57 2148.83,-288.57 2148.83,-288.57 2152.67,-288.57 2156.5,-292.41 2156.5,-296.24 2156.5,-296.24 2156.5,-303.91 2156.5,-303.91 2156.5,-307.74 2152.67,-311.57 2148.83,-311.57"/>
<text text-anchor="middle" x="2053.5" y="-296.37" font-family="Arial" font-size="14.00" fill="#cfffac">component/chart/ChartSvg.tsx</text>
</g>
<!-- component/chart/BarChart.tsx&#45;&gt;component/chart/ChartSvg.tsx -->
<g id="edge46" class="edge">
<title>component/chart/BarChart.tsx&#45;&gt;component/chart/ChartSvg.tsx</title>
<path fill="none" stroke="#757575" d="M1647.38,-332.9C1731.48,-326.09 1851.26,-316.38 1938.76,-309.29"/>
<polygon fill="#757575" stroke="#757575" points="1938.88,-312.79 1948.56,-308.5 1938.31,-305.82 1938.88,-312.79"/>
</g>
<!-- hook/useResize.tsx -->
<g id="node42" class="node">
<title>hook/useResize.tsx</title>
<path fill="none" stroke="#cfffac" d="M2115.83,-270.57C2115.83,-270.57 1991.17,-270.57 1991.17,-270.57 1987.33,-270.57 1983.5,-266.74 1983.5,-262.91 1983.5,-262.91 1983.5,-255.24 1983.5,-255.24 1983.5,-251.41 1987.33,-247.57 1991.17,-247.57 1991.17,-247.57 2115.83,-247.57 2115.83,-247.57 2119.67,-247.57 2123.5,-251.41 2123.5,-255.24 2123.5,-255.24 2123.5,-262.91 2123.5,-262.91 2123.5,-266.74 2119.67,-270.57 2115.83,-270.57"/>
<text text-anchor="middle" x="2053.5" y="-255.37" font-family="Arial" font-size="14.00" fill="#cfffac">hook/useResize.tsx</text>
</g>
<!-- component/chart/BarChart.tsx&#45;&gt;hook/useResize.tsx -->
<g id="edge47" class="edge">
<title>component/chart/BarChart.tsx&#45;&gt;hook/useResize.tsx</title>
<path fill="none" stroke="#757575" d="M1647.49,-349.19C1692.07,-348.7 1743.8,-342.34 1786,-321.07 1807.66,-310.16 1800.39,-291.07 1822,-280.07 1867.81,-256.77 1925.39,-251.51 1971.54,-252.08"/>
<polygon fill="#757575" stroke="#757575" points="1971.42,-255.58 1981.5,-252.31 1971.58,-248.58 1971.42,-255.58"/>
</g>
<!-- component/chart/InformaticsChart.tsx&#45;&gt;types/chart.d.ts -->
<g id="edge50" class="edge">
<title>component/chart/InformaticsChart.tsx&#45;&gt;types/chart.d.ts</title>
<path fill="none" stroke="#757575" d="M1658.78,-433.05C1803.8,-446.51 2063.85,-463.82 2285,-442.07 2335.87,-437.07 2392.79,-425.3 2433.96,-415.65"/>
<polygon fill="#757575" stroke="#757575" points="2434.75,-419.06 2443.67,-413.34 2433.13,-412.25 2434.75,-419.06"/>
</g>
<!-- component/chart/InformaticsChart/InforMaticsBox.tsx -->
<g id="node43" class="node">
<title>component/chart/InformaticsChart/InforMaticsBox.tsx</title>
<path fill="none" stroke="#c6c5fe" d="M2220.83,-432.57C2220.83,-432.57 1886.17,-432.57 1886.17,-432.57 1882.33,-432.57 1878.5,-428.74 1878.5,-424.91 1878.5,-424.91 1878.5,-417.24 1878.5,-417.24 1878.5,-413.41 1882.33,-409.57 1886.17,-409.57 1886.17,-409.57 2220.83,-409.57 2220.83,-409.57 2224.67,-409.57 2228.5,-413.41 2228.5,-417.24 2228.5,-417.24 2228.5,-424.91 2228.5,-424.91 2228.5,-428.74 2224.67,-432.57 2220.83,-432.57"/>
<text text-anchor="middle" x="2053.5" y="-417.37" font-family="Arial" font-size="14.00" fill="#c6c5fe">component/chart/InformaticsChart/InforMaticsBox.tsx</text>
</g>
<!-- component/chart/InformaticsChart.tsx&#45;&gt;component/chart/InformaticsChart/InforMaticsBox.tsx -->
<g id="edge49" class="edge">
<title>component/chart/InformaticsChart.tsx&#45;&gt;component/chart/InformaticsChart/InforMaticsBox.tsx</title>
<path fill="none" stroke="#757575" d="M1671.9,-421.07C1730.7,-421.07 1801.94,-421.07 1866.82,-421.07"/>
<polygon fill="#757575" stroke="#757575" points="1866.5,-424.57 1876.5,-421.07 1866.5,-417.57 1866.5,-424.57"/>
</g>
<!-- component/chart/LineChart.tsx&#45;&gt;common/chart.ts -->
<g id="edge52" class="edge">
<title>component/chart/LineChart.tsx&#45;&gt;common/chart.ts</title>
<path fill="none" stroke="#757575" d="M1650.42,-308.5C1749.1,-316.49 1894.81,-328.3 1981.05,-335.29"/>
<polygon fill="#757575" stroke="#757575" points="1980.54,-338.76 1990.79,-336.07 1981.1,-331.78 1980.54,-338.76"/>
</g>
<!-- component/chart/LineChart.tsx&#45;&gt;types/chart.d.ts -->
<g id="edge55" class="edge">
<title>component/chart/LineChart.tsx&#45;&gt;types/chart.d.ts</title>
<path fill="none" stroke="#757575" d="M1579.34,-288.17C1685.15,-251.73 2025.39,-149.39 2285,-239.07 2367.58,-267.6 2442.31,-344.28 2474.61,-380.97"/>
<polygon fill="#757575" stroke="#757575" points="2471.71,-382.97 2480.9,-388.24 2477.01,-378.39 2471.71,-382.97"/>
</g>
<!-- component/chart/LineChart.tsx&#45;&gt;component/chart/ChartSvg.tsx -->
<g id="edge53" class="edge">
<title>component/chart/LineChart.tsx&#45;&gt;component/chart/ChartSvg.tsx</title>
<path fill="none" stroke="#757575" d="M1650.42,-300.07C1734.29,-300.07 1852.13,-300.07 1938.57,-300.07"/>
<polygon fill="#757575" stroke="#757575" points="1938.5,-303.57 1948.5,-300.07 1938.5,-296.57 1938.5,-303.57"/>
</g>
<!-- component/chart/LineChart.tsx&#45;&gt;hook/useResize.tsx -->
<g id="edge54" class="edge">
<title>component/chart/LineChart.tsx&#45;&gt;hook/useResize.tsx</title>
<path fill="none" stroke="#757575" d="M1650.42,-291.65C1745.64,-283.94 1884.65,-272.68 1971.76,-265.62"/>
<polygon fill="#757575" stroke="#757575" points="1971.98,-269.11 1981.67,-264.81 1971.42,-262.13 1971.98,-269.11"/>
</g>
<!-- component/Widget/WidgetPropsSettingModal.tsx -->
<g id="node38" class="node">
<title>component/Widget/WidgetPropsSettingModal.tsx</title>
<path fill="none" stroke="#c6c5fe" d="M760.33,-190.57C760.33,-190.57 446.67,-190.57 446.67,-190.57 442.83,-190.57 439,-186.74 439,-182.91 439,-182.91 439,-175.24 439,-175.24 439,-171.41 442.83,-167.57 446.67,-167.57 446.67,-167.57 760.33,-167.57 760.33,-167.57 764.17,-167.57 768,-171.41 768,-175.24 768,-175.24 768,-182.91 768,-182.91 768,-186.74 764.17,-190.57 760.33,-190.57"/>
<text text-anchor="middle" x="603.5" y="-175.37" font-family="Arial" font-size="14.00" fill="#c6c5fe">component/Widget/WidgetPropsSettingModal.tsx</text>
</g>
<!-- component/Widget/WidgetPropsSettingModal.tsx&#45;&gt;common/api.ts -->
<g id="edge40" class="edge">
<title>component/Widget/WidgetPropsSettingModal.tsx&#45;&gt;common/api.ts</title>
<path fill="none" stroke="#757575" d="M768.49,-179.07C1085.85,-179.07 1771.7,-179.07 1986.67,-179.07"/>
<polygon fill="#757575" stroke="#757575" points="1986.54,-182.57 1996.54,-179.07 1986.54,-175.57 1986.54,-182.57"/>
</g>
<!-- component/Widget/WidgetPropsSettingModal.tsx&#45;&gt;store/WidgetPropsSettingModalProvider.tsx -->
<g id="edge43" class="edge">
<title>component/Widget/WidgetPropsSettingModal.tsx&#45;&gt;store/WidgetPropsSettingModalProvider.tsx</title>
<path fill="none" stroke="#757575" d="M613.23,-191.05C638.45,-224.62 715.28,-319.9 804,-362.07 992.64,-451.75 1119.33,-284.39 1269,-430.07 1335.92,-495.21 1236.49,-573.62 1305,-637.07 1350.56,-679.28 1423.98,-680.22 1477.53,-673.59"/>
<polygon fill="#757575" stroke="#757575" points="1477.71,-677.1 1487.14,-672.28 1476.76,-670.16 1477.71,-677.1"/>
</g>
<!-- component/Widget/WidgetPropsSettingModal/WidgetPropsButtons.tsx -->
<g id="node39" class="node">
<title>component/Widget/WidgetPropsSettingModal/WidgetPropsButtons.tsx</title>
<path fill="none" stroke="#c6c5fe" d="M1261.33,-92.57C1261.33,-92.57 811.67,-92.57 811.67,-92.57 807.83,-92.57 804,-88.74 804,-84.91 804,-84.91 804,-77.24 804,-77.24 804,-73.41 807.83,-69.57 811.67,-69.57 811.67,-69.57 1261.33,-69.57 1261.33,-69.57 1265.17,-69.57 1269,-73.41 1269,-77.24 1269,-77.24 1269,-84.91 1269,-84.91 1269,-88.74 1265.17,-92.57 1261.33,-92.57"/>
<text text-anchor="middle" x="1036.5" y="-77.37" font-family="Arial" font-size="14.00" fill="#c6c5fe">component/Widget/WidgetPropsSettingModal/WidgetPropsButtons.tsx</text>
</g>
<!-- component/Widget/WidgetPropsSettingModal.tsx&#45;&gt;component/Widget/WidgetPropsSettingModal/WidgetPropsButtons.tsx -->
<g id="edge41" class="edge">
<title>component/Widget/WidgetPropsSettingModal.tsx&#45;&gt;component/Widget/WidgetPropsSettingModal/WidgetPropsButtons.tsx</title>
<path fill="none" stroke="#757575" d="M631.32,-167.1C669.05,-150.79 740.35,-121.92 804,-107.07 825.75,-102 848.88,-97.91 871.8,-94.61"/>
<polygon fill="#757575" stroke="#757575" points="872.1,-98.1 881.52,-93.26 871.13,-91.17 872.1,-98.1"/>
</g>
<!-- component/Widget/WidgetPropsSettingModal/WidgetPropsList.tsx -->
<g id="node40" class="node">
<title>component/Widget/WidgetPropsSettingModal/WidgetPropsList.tsx</title>
<path fill="none" stroke="#cfffac" d="M1248.83,-51.57C1248.83,-51.57 824.17,-51.57 824.17,-51.57 820.33,-51.57 816.5,-47.74 816.5,-43.91 816.5,-43.91 816.5,-36.24 816.5,-36.24 816.5,-32.41 820.33,-28.57 824.17,-28.57 824.17,-28.57 1248.83,-28.57 1248.83,-28.57 1252.67,-28.57 1256.5,-32.41 1256.5,-36.24 1256.5,-36.24 1256.5,-43.91 1256.5,-43.91 1256.5,-47.74 1252.67,-51.57 1248.83,-51.57"/>
<text text-anchor="middle" x="1036.5" y="-36.37" font-family="Arial" font-size="14.00" fill="#cfffac">component/Widget/WidgetPropsSettingModal/WidgetPropsList.tsx</text>
</g>
<!-- component/Widget/WidgetPropsSettingModal.tsx&#45;&gt;component/Widget/WidgetPropsSettingModal/WidgetPropsList.tsx -->
<g id="edge42" class="edge">
<title>component/Widget/WidgetPropsSettingModal.tsx&#45;&gt;component/Widget/WidgetPropsSettingModal/WidgetPropsList.tsx</title>
<path fill="none" stroke="#757575" d="M618.88,-167.29C650.22,-142.37 728,-84.59 804,-60.07 809.94,-58.16 816.01,-56.4 822.16,-54.79"/>
<polygon fill="#757575" stroke="#757575" points="822.99,-58.19 831.86,-52.41 821.32,-51.39 822.99,-58.19"/>
</g>
<!-- component/Widget/WidgetPropsSettingModal/WidgetPropsButtons.tsx&#45;&gt;store/WidgetProvider.tsx -->
<g id="edge44" class="edge">
<title>component/Widget/WidgetPropsSettingModal/WidgetPropsButtons.tsx&#45;&gt;store/WidgetProvider.tsx</title>
<path fill="none" stroke="#757575" d="M1269.49,-71.92C1332.15,-69.45 1396.58,-66.91 1447.31,-64.91"/>
<polygon fill="#757575" stroke="#757575" points="1447.21,-68.42 1457.06,-64.52 1446.93,-61.42 1447.21,-68.42"/>
</g>
<!-- component/chart/InformaticsChart/InforMaticsBox.tsx&#45;&gt;types/chart.d.ts -->
<g id="edge51" class="edge">
<title>component/chart/InformaticsChart/InforMaticsBox.tsx&#45;&gt;types/chart.d.ts</title>
<path fill="none" stroke="#757575" d="M2228.78,-413.1C2297.34,-409.96 2371.96,-406.55 2424.09,-404.16"/>
<polygon fill="#757575" stroke="#757575" points="2424.18,-407.66 2434.01,-403.71 2423.86,-400.67 2424.18,-407.66"/>
</g>
<!-- component/common/DatePicker/DatePickerTitle.tsx&#45;&gt;types/widget.d.ts -->
<g id="edge59" class="edge">
<title>component/common/DatePicker/DatePickerTitle.tsx&#45;&gt;types/widget.d.ts</title>
<path fill="none" stroke="#757575" d="M2570.63,-807.18C2603.09,-798.65 2639.04,-784.04 2664,-759.07 2828.23,-594.87 2860.35,-290.43 2866.24,-204.31"/>
<polygon fill="#757575" stroke="#757575" points="2869.74,-204.53 2866.87,-194.33 2862.75,-204.1 2869.74,-204.53"/>
</g>
<!-- component/common/DatePicker/ListPicker.tsx&#45;&gt;types/datePicker.d.ts -->
<g id="edge61" class="edge">
<title>component/common/DatePicker/ListPicker.tsx&#45;&gt;types/datePicker.d.ts</title>
<path fill="none" stroke="#757575" d="M2605.46,-892.05C2662.2,-898.12 2729.99,-905.37 2782.4,-910.97"/>
<polygon fill="#757575" stroke="#757575" points="2781.86,-914.44 2792.18,-912.02 2782.6,-907.47 2781.86,-914.44"/>
</g>
<!-- component/common/DatePicker/ListPickerItem.tsx -->
<g id="node47" class="node">
<title>component/common/DatePicker/ListPickerItem.tsx</title>
<path fill="none" stroke="#cfffac" d="M3029.33,-890.57C3029.33,-890.57 2707.67,-890.57 2707.67,-890.57 2703.83,-890.57 2700,-886.74 2700,-882.91 2700,-882.91 2700,-875.24 2700,-875.24 2700,-871.41 2703.83,-867.57 2707.67,-867.57 2707.67,-867.57 3029.33,-867.57 3029.33,-867.57 3033.17,-867.57 3037,-871.41 3037,-875.24 3037,-875.24 3037,-882.91 3037,-882.91 3037,-886.74 3033.17,-890.57 3029.33,-890.57"/>
<text text-anchor="middle" x="2868.5" y="-875.37" font-family="Arial" font-size="14.00" fill="#cfffac">component/common/DatePicker/ListPickerItem.tsx</text>
</g>
<!-- component/common/DatePicker/ListPicker.tsx&#45;&gt;component/common/DatePicker/ListPickerItem.tsx -->
<g id="edge60" class="edge">
<title>component/common/DatePicker/ListPicker.tsx&#45;&gt;component/common/DatePicker/ListPickerItem.tsx</title>
<path fill="none" stroke="#757575" d="M2646.97,-879.66C2660.65,-879.63 2674.58,-879.59 2688.45,-879.55"/>
<polygon fill="#757575" stroke="#757575" points="2688.05,-883.05 2698.04,-879.53 2688.03,-876.05 2688.05,-883.05"/>
</g>
<!-- page/Dashboard.tsx&#45;&gt;component/Dashboard/DashboardHeader.tsx -->
<g id="edge68" class="edge">
<title>page/Dashboard.tsx&#45;&gt;component/Dashboard/DashboardHeader.tsx</title>
<path fill="none" stroke="#757575" d="M339.52,-349.77C376.6,-407.48 540.18,-662.08 588.82,-737.78"/>
<polygon fill="#757575" stroke="#757575" points="585.72,-739.44 594.07,-745.96 591.61,-735.65 585.72,-739.44"/>
</g>
<!-- page/Dashboard.tsx&#45;&gt;component/Widget/Widget.tsx -->
<g id="edge69" class="edge">
<title>page/Dashboard.tsx&#45;&gt;component/Widget/Widget.tsx</title>
<path fill="none" stroke="#757575" d="M360.95,-350.06C409.76,-370.27 508.47,-411.14 563.39,-433.88"/>
<polygon fill="#757575" stroke="#757575" points="561.78,-437 572.36,-437.6 564.46,-430.54 561.78,-437"/>
</g>
<!-- page/Dashboard.tsx&#45;&gt;store/WidgetProvider.tsx -->
<g id="edge71" class="edge">
<title>page/Dashboard.tsx&#45;&gt;store/WidgetProvider.tsx</title>
<path fill="none" stroke="#757575" d="M335.93,-326.14C346.99,-294.3 381.4,-206.51 439,-158.07 571.86,-46.36 633.28,-50.48 804,-19.07 1049.8,26.14 1348.54,-21.35 1478.66,-46.96"/>
<polygon fill="#757575" stroke="#757575" points="1477.62,-50.32 1488.11,-48.85 1478.99,-43.46 1477.62,-50.32"/>
</g>
<!-- page/Dashboard.tsx&#45;&gt;component/Widget/WidgetPropsSettingModal.tsx -->
<g id="edge70" class="edge">
<title>page/Dashboard.tsx&#45;&gt;component/Widget/WidgetPropsSettingModal.tsx</title>
<path fill="none" stroke="#757575" d="M352.33,-326.12C399.64,-298.32 517.27,-229.17 572.71,-196.59"/>
<polygon fill="#757575" stroke="#757575" points="574.15,-199.8 581,-191.71 570.6,-193.76 574.15,-199.8"/>
</g>
</g>
</svg>
