<?xml version="1.0" encoding="UTF-8" standalone="no"?>
<!DOCTYPE svg PUBLIC "-//W3C//DTD SVG 1.1//EN"
 "http://www.w3.org/Graphics/SVG/1.1/DTD/svg11.dtd">
<!-- Generated by graphviz version 7.1.0 (20230121.1956)
 -->
<!-- Title: G Pages: 1 -->
<svg width="2970pt" height="1010pt"
 viewBox="0.00 0.00 2970.20 1010.21" xmlns="http://www.w3.org/2000/svg" xmlns:xlink="http://www.w3.org/1999/xlink">
<g id="graph0" class="graph" transform="scale(1 1) rotate(0) translate(21.6 988.61)">
<title>G</title>
<polygon fill="#111111" stroke="none" points="-21.6,21.6 -21.6,-988.61 2948.6,-988.61 2948.6,21.6 -21.6,21.6"/>
<!-- App.tsx -->
<g id="node1" class="node">
<title>App.tsx</title>
<path fill="none" stroke="#c6c5fe" d="M57.33,-221.03C57.33,-221.03 7.67,-221.03 7.67,-221.03 3.83,-221.03 0,-217.19 0,-213.36 0,-213.36 0,-205.69 0,-205.69 0,-201.86 3.83,-198.03 7.67,-198.03 7.67,-198.03 57.33,-198.03 57.33,-198.03 61.17,-198.03 65,-201.86 65,-205.69 65,-205.69 65,-213.36 65,-213.36 65,-217.19 61.17,-221.03 57.33,-221.03"/>
<text text-anchor="middle" x="32.5" y="-205.83" font-family="Arial" font-size="14.00" fill="#c6c5fe">App.tsx</text>
</g>
<!-- router/Router.tsx -->
<g id="node2" class="node">
<title>router/Router.tsx</title>
<path fill="none" stroke="#c6c5fe" d="M215.33,-221.03C215.33,-221.03 108.67,-221.03 108.67,-221.03 104.83,-221.03 101,-217.19 101,-213.36 101,-213.36 101,-205.69 101,-205.69 101,-201.86 104.83,-198.03 108.67,-198.03 108.67,-198.03 215.33,-198.03 215.33,-198.03 219.17,-198.03 223,-201.86 223,-205.69 223,-205.69 223,-213.36 223,-213.36 223,-217.19 219.17,-221.03 215.33,-221.03"/>
<text text-anchor="middle" x="162" y="-205.83" font-family="Arial" font-size="14.00" fill="#c6c5fe">router/Router.tsx</text>
</g>
<!-- App.tsx&#45;&gt;router/Router.tsx -->
<g id="edge1" class="edge">
<title>App.tsx&#45;&gt;router/Router.tsx</title>
<path fill="none" stroke="#757575" d="M65.34,-209.53C72.7,-209.53 80.81,-209.53 89.12,-209.53"/>
<polygon fill="#757575" stroke="#757575" points="88.99,-213.03 98.99,-209.53 88.99,-206.03 88.99,-213.03"/>
</g>
<!-- page/Dashboard.tsx -->
<g id="node50" class="node">
<title>page/Dashboard.tsx</title>
<path fill="none" stroke="#c6c5fe" d="M395.33,-221.03C395.33,-221.03 266.67,-221.03 266.67,-221.03 262.83,-221.03 259,-217.19 259,-213.36 259,-213.36 259,-205.69 259,-205.69 259,-201.86 262.83,-198.03 266.67,-198.03 266.67,-198.03 395.33,-198.03 395.33,-198.03 399.17,-198.03 403,-201.86 403,-205.69 403,-205.69 403,-213.36 403,-213.36 403,-217.19 399.17,-221.03 395.33,-221.03"/>
<text text-anchor="middle" x="331" y="-205.83" font-family="Arial" font-size="14.00" fill="#c6c5fe">page/Dashboard.tsx</text>
</g>
<!-- router/Router.tsx&#45;&gt;page/Dashboard.tsx -->
<g id="edge72" class="edge">
<title>router/Router.tsx&#45;&gt;page/Dashboard.tsx</title>
<path fill="none" stroke="#757575" d="M223.29,-209.53C231.1,-209.53 239.21,-209.53 247.3,-209.53"/>
<polygon fill="#757575" stroke="#757575" points="247.19,-213.03 257.19,-209.53 247.19,-206.03 247.19,-213.03"/>
</g>
<!-- asset/image/pause.png -->
<g id="node3" class="node">
<title>asset/image/pause.png</title>
<path fill="none" stroke="#cfffac" d="M1502.83,-904.03C1502.83,-904.03 1354.17,-904.03 1354.17,-904.03 1350.33,-904.03 1346.5,-900.19 1346.5,-896.36 1346.5,-896.36 1346.5,-888.69 1346.5,-888.69 1346.5,-884.86 1350.33,-881.03 1354.17,-881.03 1354.17,-881.03 1502.83,-881.03 1502.83,-881.03 1506.67,-881.03 1510.5,-884.86 1510.5,-888.69 1510.5,-888.69 1510.5,-896.36 1510.5,-896.36 1510.5,-900.19 1506.67,-904.03 1502.83,-904.03"/>
<text text-anchor="middle" x="1428.5" y="-888.83" font-family="Arial" font-size="14.00" fill="#cfffac">asset/image/pause.png</text>
</g>
<!-- asset/image/play.png -->
<g id="node4" class="node">
<title>asset/image/play.png</title>
<path fill="none" stroke="#cfffac" d="M1496.33,-863.03C1496.33,-863.03 1360.67,-863.03 1360.67,-863.03 1356.83,-863.03 1353,-859.19 1353,-855.36 1353,-855.36 1353,-847.69 1353,-847.69 1353,-843.86 1356.83,-840.03 1360.67,-840.03 1360.67,-840.03 1496.33,-840.03 1496.33,-840.03 1500.17,-840.03 1504,-843.86 1504,-847.69 1504,-847.69 1504,-855.36 1504,-855.36 1504,-859.19 1500.17,-863.03 1496.33,-863.03"/>
<text text-anchor="middle" x="1428.5" y="-847.83" font-family="Arial" font-size="14.00" fill="#cfffac">asset/image/play.png</text>
</g>
<!-- common/api.ts -->
<g id="node5" class="node">
<title>common/api.ts</title>
<path fill="none" stroke="#c6c5fe" d="M2426.33,-38.03C2426.33,-38.03 2331.67,-38.03 2331.67,-38.03 2327.83,-38.03 2324,-34.19 2324,-30.36 2324,-30.36 2324,-22.69 2324,-22.69 2324,-18.86 2327.83,-15.03 2331.67,-15.03 2331.67,-15.03 2426.33,-15.03 2426.33,-15.03 2430.17,-15.03 2434,-18.86 2434,-22.69 2434,-22.69 2434,-30.36 2434,-30.36 2434,-34.19 2430.17,-38.03 2426.33,-38.03"/>
<text text-anchor="middle" x="2379" y="-22.83" font-family="Arial" font-size="14.00" fill="#c6c5fe">common/api.ts</text>
</g>
<!-- types/api.d.ts -->
<g id="node6" class="node">
<title>types/api.d.ts</title>
<path fill="none" stroke="#cfffac" d="M2801.33,-38.03C2801.33,-38.03 2715.67,-38.03 2715.67,-38.03 2711.83,-38.03 2708,-34.19 2708,-30.36 2708,-30.36 2708,-22.69 2708,-22.69 2708,-18.86 2711.83,-15.03 2715.67,-15.03 2715.67,-15.03 2801.33,-15.03 2801.33,-15.03 2805.17,-15.03 2809,-18.86 2809,-22.69 2809,-22.69 2809,-30.36 2809,-30.36 2809,-34.19 2805.17,-38.03 2801.33,-38.03"/>
<text text-anchor="middle" x="2758.5" y="-22.83" font-family="Arial" font-size="14.00" fill="#cfffac">types/api.d.ts</text>
</g>
<!-- common/api.ts&#45;&gt;types/api.d.ts -->
<g id="edge2" class="edge">
<title>common/api.ts&#45;&gt;types/api.d.ts</title>
<path fill="none" stroke="#757575" d="M2434.49,-26.53C2503.97,-26.53 2623.78,-26.53 2696.32,-26.53"/>
<polygon fill="#757575" stroke="#757575" points="2696.03,-30.03 2706.03,-26.53 2696.03,-23.03 2696.03,-30.03"/>
</g>
<!-- common/chart.ts -->
<g id="node7" class="node">
<title>common/chart.ts</title>
<path fill="none" stroke="#c6c5fe" d="M2432.33,-197.03C2432.33,-197.03 2325.67,-197.03 2325.67,-197.03 2321.83,-197.03 2318,-193.19 2318,-189.36 2318,-189.36 2318,-181.69 2318,-181.69 2318,-177.86 2321.83,-174.03 2325.67,-174.03 2325.67,-174.03 2432.33,-174.03 2432.33,-174.03 2436.17,-174.03 2440,-177.86 2440,-181.69 2440,-181.69 2440,-189.36 2440,-189.36 2440,-193.19 2436.17,-197.03 2432.33,-197.03"/>
<text text-anchor="middle" x="2379" y="-181.83" font-family="Arial" font-size="14.00" fill="#c6c5fe">common/chart.ts</text>
</g>
<!-- types/chart.d.ts -->
<g id="node8" class="node">
<title>types/chart.d.ts</title>
<path fill="none" stroke="#cfffac" d="M2807.33,-319.03C2807.33,-319.03 2709.67,-319.03 2709.67,-319.03 2705.83,-319.03 2702,-315.19 2702,-311.36 2702,-311.36 2702,-303.69 2702,-303.69 2702,-299.86 2705.83,-296.03 2709.67,-296.03 2709.67,-296.03 2807.33,-296.03 2807.33,-296.03 2811.17,-296.03 2815,-299.86 2815,-303.69 2815,-303.69 2815,-311.36 2815,-311.36 2815,-315.19 2811.17,-319.03 2807.33,-319.03"/>
<text text-anchor="middle" x="2758.5" y="-303.83" font-family="Arial" font-size="14.00" fill="#cfffac">types/chart.d.ts</text>
</g>
<!-- common/chart.ts&#45;&gt;types/chart.d.ts -->
<g id="edge3" class="edge">
<title>common/chart.ts&#45;&gt;types/chart.d.ts</title>
<path fill="none" stroke="#757575" d="M2440.22,-187.75C2474.2,-190.25 2517.12,-195.5 2554,-206.53 2620.43,-226.38 2691.59,-266.59 2729.65,-289.84"/>
<polygon fill="#757575" stroke="#757575" points="2727.4,-292.57 2737.75,-294.85 2731.08,-286.61 2727.4,-292.57"/>
</g>
<!-- common/date.ts -->
<g id="node9" class="node">
<title>common/date.ts</title>
<path fill="none" stroke="#cfffac" d="M2430.83,-601.03C2430.83,-601.03 2327.17,-601.03 2327.17,-601.03 2323.33,-601.03 2319.5,-597.19 2319.5,-593.36 2319.5,-593.36 2319.5,-585.69 2319.5,-585.69 2319.5,-581.86 2323.33,-578.03 2327.17,-578.03 2327.17,-578.03 2430.83,-578.03 2430.83,-578.03 2434.67,-578.03 2438.5,-581.86 2438.5,-585.69 2438.5,-585.69 2438.5,-593.36 2438.5,-593.36 2438.5,-597.19 2434.67,-601.03 2430.83,-601.03"/>
<text text-anchor="middle" x="2379" y="-585.83" font-family="Arial" font-size="14.00" fill="#cfffac">common/date.ts</text>
</g>
<!-- common/widget.ts -->
<g id="node10" class="node">
<title>common/widget.ts</title>
<path fill="none" stroke="#cfffac" d="M1994.83,-437.03C1994.83,-437.03 1878.17,-437.03 1878.17,-437.03 1874.33,-437.03 1870.5,-433.19 1870.5,-429.36 1870.5,-429.36 1870.5,-421.69 1870.5,-421.69 1870.5,-417.86 1874.33,-414.03 1878.17,-414.03 1878.17,-414.03 1994.83,-414.03 1994.83,-414.03 1998.67,-414.03 2002.5,-417.86 2002.5,-421.69 2002.5,-421.69 2002.5,-429.36 2002.5,-429.36 2002.5,-433.19 1998.67,-437.03 1994.83,-437.03"/>
<text text-anchor="middle" x="1936.5" y="-421.83" font-family="Arial" font-size="14.00" fill="#cfffac">common/widget.ts</text>
</g>
<!-- component/Dashboard/DashboardBody.tsx -->
<g id="node11" class="node">
<title>component/Dashboard/DashboardBody.tsx</title>
<path fill="none" stroke="#c6c5fe" d="M727.83,-221.03C727.83,-221.03 453.17,-221.03 453.17,-221.03 449.33,-221.03 445.5,-217.19 445.5,-213.36 445.5,-213.36 445.5,-205.69 445.5,-205.69 445.5,-201.86 449.33,-198.03 453.17,-198.03 453.17,-198.03 727.83,-198.03 727.83,-198.03 731.67,-198.03 735.5,-201.86 735.5,-205.69 735.5,-205.69 735.5,-213.36 735.5,-213.36 735.5,-217.19 731.67,-221.03 727.83,-221.03"/>
<text text-anchor="middle" x="590.5" y="-205.83" font-family="Arial" font-size="14.00" fill="#c6c5fe">component/Dashboard/DashboardBody.tsx</text>
</g>
<!-- component/Widget/Widget.tsx -->
<g id="node12" class="node">
<title>component/Widget/Widget.tsx</title>
<path fill="none" stroke="#c6c5fe" d="M1061.83,-281.03C1061.83,-281.03 868.17,-281.03 868.17,-281.03 864.33,-281.03 860.5,-277.19 860.5,-273.36 860.5,-273.36 860.5,-265.69 860.5,-265.69 860.5,-261.86 864.33,-258.03 868.17,-258.03 868.17,-258.03 1061.83,-258.03 1061.83,-258.03 1065.67,-258.03 1069.5,-261.86 1069.5,-265.69 1069.5,-265.69 1069.5,-273.36 1069.5,-273.36 1069.5,-277.19 1065.67,-281.03 1061.83,-281.03"/>
<text text-anchor="middle" x="965" y="-265.83" font-family="Arial" font-size="14.00" fill="#c6c5fe">component/Widget/Widget.tsx</text>
</g>
<!-- component/Dashboard/DashboardBody.tsx&#45;&gt;component/Widget/Widget.tsx -->
<g id="edge4" class="edge">
<title>component/Dashboard/DashboardBody.tsx&#45;&gt;component/Widget/Widget.tsx</title>
<path fill="none" stroke="#757575" d="M665.99,-221.52C727.27,-231.4 814.18,-245.39 878.34,-255.73"/>
<polygon fill="#757575" stroke="#757575" points="877.72,-259.17 888.15,-257.31 878.83,-252.26 877.72,-259.17"/>
</g>
<!-- store/WidgetProvider.tsx -->
<g id="node13" class="node">
<title>store/WidgetProvider.tsx</title>
<path fill="none" stroke="#c6c5fe" d="M2015.33,-79.03C2015.33,-79.03 1857.67,-79.03 1857.67,-79.03 1853.83,-79.03 1850,-75.19 1850,-71.36 1850,-71.36 1850,-63.69 1850,-63.69 1850,-59.86 1853.83,-56.03 1857.67,-56.03 1857.67,-56.03 2015.33,-56.03 2015.33,-56.03 2019.17,-56.03 2023,-59.86 2023,-63.69 2023,-63.69 2023,-71.36 2023,-71.36 2023,-75.19 2019.17,-79.03 2015.33,-79.03"/>
<text text-anchor="middle" x="1936.5" y="-63.83" font-family="Arial" font-size="14.00" fill="#c6c5fe">store/WidgetProvider.tsx</text>
</g>
<!-- component/Dashboard/DashboardBody.tsx&#45;&gt;store/WidgetProvider.tsx -->
<g id="edge5" class="edge">
<title>component/Dashboard/DashboardBody.tsx&#45;&gt;store/WidgetProvider.tsx</title>
<path fill="none" stroke="#757575" d="M735.98,-199.45C1027.29,-179.03 1658.51,-134.33 1669,-129.53 1689.57,-120.1 1684.61,-103.34 1705,-93.53 1745.97,-73.79 1795.63,-66.41 1838.36,-64.32"/>
<polygon fill="#757575" stroke="#757575" points="1838.27,-67.83 1848.12,-63.94 1838,-60.83 1838.27,-67.83"/>
</g>
<!-- hook/useBoolean.tsx -->
<g id="node25" class="node">
<title>hook/useBoolean.tsx</title>
<path fill="none" stroke="#cfffac" d="M2445.83,-500.03C2445.83,-500.03 2312.17,-500.03 2312.17,-500.03 2308.33,-500.03 2304.5,-496.19 2304.5,-492.36 2304.5,-492.36 2304.5,-484.69 2304.5,-484.69 2304.5,-480.86 2308.33,-477.03 2312.17,-477.03 2312.17,-477.03 2445.83,-477.03 2445.83,-477.03 2449.67,-477.03 2453.5,-480.86 2453.5,-484.69 2453.5,-484.69 2453.5,-492.36 2453.5,-492.36 2453.5,-496.19 2449.67,-500.03 2445.83,-500.03"/>
<text text-anchor="middle" x="2379" y="-484.83" font-family="Arial" font-size="14.00" fill="#cfffac">hook/useBoolean.tsx</text>
</g>
<!-- component/Widget/Widget.tsx&#45;&gt;hook/useBoolean.tsx -->
<g id="edge30" class="edge">
<title>component/Widget/Widget.tsx&#45;&gt;hook/useBoolean.tsx</title>
<path fill="none" stroke="#757575" d="M1069.89,-279.57C1107.13,-283.11 1149.44,-287.07 1188,-290.53 1215.21,-292.97 2142.73,-363.15 2168,-373.53 2187.27,-381.44 2186.52,-392.21 2204,-403.53 2247.54,-431.71 2301.79,-456.8 2338.03,-472.28"/>
<polygon fill="#757575" stroke="#757575" points="2336.24,-475.32 2346.82,-475.99 2338.97,-468.87 2336.24,-475.32"/>
</g>
<!-- component/Widget/WidgetButtons.tsx -->
<g id="node29" class="node">
<title>component/Widget/WidgetButtons.tsx</title>
<path fill="none" stroke="#c6c5fe" d="M1549.33,-281.03C1549.33,-281.03 1307.67,-281.03 1307.67,-281.03 1303.83,-281.03 1300,-277.19 1300,-273.36 1300,-273.36 1300,-265.69 1300,-265.69 1300,-261.86 1303.83,-258.03 1307.67,-258.03 1307.67,-258.03 1549.33,-258.03 1549.33,-258.03 1553.17,-258.03 1557,-261.86 1557,-265.69 1557,-265.69 1557,-273.36 1557,-273.36 1557,-277.19 1553.17,-281.03 1549.33,-281.03"/>
<text text-anchor="middle" x="1428.5" y="-265.83" font-family="Arial" font-size="14.00" fill="#c6c5fe">component/Widget/WidgetButtons.tsx</text>
</g>
<!-- component/Widget/Widget.tsx&#45;&gt;component/Widget/WidgetButtons.tsx -->
<g id="edge26" class="edge">
<title>component/Widget/Widget.tsx&#45;&gt;component/Widget/WidgetButtons.tsx</title>
<path fill="none" stroke="#757575" d="M1069.86,-269.53C1134.45,-269.53 1218.29,-269.53 1288.56,-269.53"/>
<polygon fill="#757575" stroke="#757575" points="1288.2,-273.03 1298.2,-269.53 1288.2,-266.03 1288.2,-273.03"/>
</g>
<!-- component/Widget/WidgetCallCycleSettingModal.tsx -->
<g id="node30" class="node">
<title>component/Widget/WidgetCallCycleSettingModal.tsx</title>
<path fill="none" stroke="#c6c5fe" d="M1596.33,-478.03C1596.33,-478.03 1260.67,-478.03 1260.67,-478.03 1256.83,-478.03 1253,-474.19 1253,-470.36 1253,-470.36 1253,-462.69 1253,-462.69 1253,-458.86 1256.83,-455.03 1260.67,-455.03 1260.67,-455.03 1596.33,-455.03 1596.33,-455.03 1600.17,-455.03 1604,-458.86 1604,-462.69 1604,-462.69 1604,-470.36 1604,-470.36 1604,-474.19 1600.17,-478.03 1596.33,-478.03"/>
<text text-anchor="middle" x="1428.5" y="-462.83" font-family="Arial" font-size="14.00" fill="#c6c5fe">component/Widget/WidgetCallCycleSettingModal.tsx</text>
</g>
<!-- component/Widget/Widget.tsx&#45;&gt;component/Widget/WidgetCallCycleSettingModal.tsx -->
<g id="edge27" class="edge">
<title>component/Widget/Widget.tsx&#45;&gt;component/Widget/WidgetCallCycleSettingModal.tsx</title>
<path fill="none" stroke="#757575" d="M981.19,-281.5C1015.83,-308.25 1104.18,-373.24 1188,-408.53 1236.54,-428.96 1293.77,-443.16 1340.12,-452.38"/>
<polygon fill="#757575" stroke="#757575" points="1339.38,-455.81 1349.87,-454.28 1340.72,-448.93 1339.38,-455.81"/>
</g>
<!-- component/Widget/WidgetChart.tsx -->
<g id="node31" class="node">
<title>component/Widget/WidgetChart.tsx</title>
<path fill="none" stroke="#c6c5fe" d="M1541.83,-201.03C1541.83,-201.03 1315.17,-201.03 1315.17,-201.03 1311.33,-201.03 1307.5,-197.19 1307.5,-193.36 1307.5,-193.36 1307.5,-185.69 1307.5,-185.69 1307.5,-181.86 1311.33,-178.03 1315.17,-178.03 1315.17,-178.03 1541.83,-178.03 1541.83,-178.03 1545.67,-178.03 1549.5,-181.86 1549.5,-185.69 1549.5,-185.69 1549.5,-193.36 1549.5,-193.36 1549.5,-197.19 1545.67,-201.03 1541.83,-201.03"/>
<text text-anchor="middle" x="1428.5" y="-185.83" font-family="Arial" font-size="14.00" fill="#c6c5fe">component/Widget/WidgetChart.tsx</text>
</g>
<!-- component/Widget/Widget.tsx&#45;&gt;component/Widget/WidgetChart.tsx -->
<g id="edge28" class="edge">
<title>component/Widget/Widget.tsx&#45;&gt;component/Widget/WidgetChart.tsx</title>
<path fill="none" stroke="#757575" d="M1035.09,-257.55C1118.56,-243.08 1258.74,-218.78 1347.02,-203.48"/>
<polygon fill="#757575" stroke="#757575" points="1347.57,-206.93 1356.82,-201.78 1346.37,-200.04 1347.57,-206.93"/>
</g>
<!-- hook/Widget/useHandleWidgetApi.tsx -->
<g id="node32" class="node">
<title>hook/Widget/useHandleWidgetApi.tsx</title>
<path fill="none" stroke="#c6c5fe" d="M1549.33,-399.03C1549.33,-399.03 1307.67,-399.03 1307.67,-399.03 1303.83,-399.03 1300,-395.19 1300,-391.36 1300,-391.36 1300,-383.69 1300,-383.69 1300,-379.86 1303.83,-376.03 1307.67,-376.03 1307.67,-376.03 1549.33,-376.03 1549.33,-376.03 1553.17,-376.03 1557,-379.86 1557,-383.69 1557,-383.69 1557,-391.36 1557,-391.36 1557,-395.19 1553.17,-399.03 1549.33,-399.03"/>
<text text-anchor="middle" x="1428.5" y="-383.83" font-family="Arial" font-size="14.00" fill="#c6c5fe">hook/Widget/useHandleWidgetApi.tsx</text>
</g>
<!-- component/Widget/Widget.tsx&#45;&gt;hook/Widget/useHandleWidgetApi.tsx -->
<g id="edge29" class="edge">
<title>component/Widget/Widget.tsx&#45;&gt;hook/Widget/useHandleWidgetApi.tsx</title>
<path fill="none" stroke="#757575" d="M988.59,-281.44C1027.91,-301.58 1112.01,-342.08 1188,-361.53 1220.04,-369.72 1255.13,-375.34 1288.33,-379.18"/>
<polygon fill="#757575" stroke="#757575" points="1287.68,-382.63 1298.01,-380.25 1288.45,-375.67 1287.68,-382.63"/>
</g>
<!-- types/widget.d.ts -->
<g id="node51" class="node">
<title>types/widget.d.ts</title>
<path fill="none" stroke="#cfffac" d="M2432.83,-79.03C2432.83,-79.03 2325.17,-79.03 2325.17,-79.03 2321.33,-79.03 2317.5,-75.19 2317.5,-71.36 2317.5,-71.36 2317.5,-63.69 2317.5,-63.69 2317.5,-59.86 2321.33,-56.03 2325.17,-56.03 2325.17,-56.03 2432.83,-56.03 2432.83,-56.03 2436.67,-56.03 2440.5,-59.86 2440.5,-63.69 2440.5,-63.69 2440.5,-71.36 2440.5,-71.36 2440.5,-75.19 2436.67,-79.03 2432.83,-79.03"/>
<text text-anchor="middle" x="2379" y="-63.83" font-family="Arial" font-size="14.00" fill="#cfffac">types/widget.d.ts</text>
</g>
<!-- store/WidgetProvider.tsx&#45;&gt;types/widget.d.ts -->
<g id="edge75" class="edge">
<title>store/WidgetProvider.tsx&#45;&gt;types/widget.d.ts</title>
<path fill="none" stroke="#757575" d="M2023.48,-67.53C2105.81,-67.53 2228.62,-67.53 2305.95,-67.53"/>
<polygon fill="#757575" stroke="#757575" points="2305.51,-71.03 2315.51,-67.53 2305.51,-64.03 2305.51,-71.03"/>
</g>
<!-- component/Dashboard/DashboardHeader.tsx -->
<g id="node14" class="node">
<title>component/Dashboard/DashboardHeader.tsx</title>
<path fill="none" stroke="#c6c5fe" d="M734.33,-621.03C734.33,-621.03 446.67,-621.03 446.67,-621.03 442.83,-621.03 439,-617.19 439,-613.36 439,-613.36 439,-605.69 439,-605.69 439,-601.86 442.83,-598.03 446.67,-598.03 446.67,-598.03 734.33,-598.03 734.33,-598.03 738.17,-598.03 742,-601.86 742,-605.69 742,-605.69 742,-613.36 742,-613.36 742,-617.19 738.17,-621.03 734.33,-621.03"/>
<text text-anchor="middle" x="590.5" y="-605.83" font-family="Arial" font-size="14.00" fill="#c6c5fe">component/Dashboard/DashboardHeader.tsx</text>
</g>
<!-- component/Dashboard/DashboardHeader/PlayIcon.tsx -->
<g id="node15" class="node">
<title>component/Dashboard/DashboardHeader/PlayIcon.tsx</title>
<path fill="none" stroke="#c6c5fe" d="M1138.33,-863.03C1138.33,-863.03 791.67,-863.03 791.67,-863.03 787.83,-863.03 784,-859.19 784,-855.36 784,-855.36 784,-847.69 784,-847.69 784,-843.86 787.83,-840.03 791.67,-840.03 791.67,-840.03 1138.33,-840.03 1138.33,-840.03 1142.17,-840.03 1146,-843.86 1146,-847.69 1146,-847.69 1146,-855.36 1146,-855.36 1146,-859.19 1142.17,-863.03 1138.33,-863.03"/>
<text text-anchor="middle" x="965" y="-847.83" font-family="Arial" font-size="14.00" fill="#c6c5fe">component/Dashboard/DashboardHeader/PlayIcon.tsx</text>
</g>
<!-- component/Dashboard/DashboardHeader.tsx&#45;&gt;component/Dashboard/DashboardHeader/PlayIcon.tsx -->
<g id="edge6" class="edge">
<title>component/Dashboard/DashboardHeader.tsx&#45;&gt;component/Dashboard/DashboardHeader/PlayIcon.tsx</title>
<path fill="none" stroke="#757575" d="M603.31,-621.22C631.59,-648.8 706.19,-718.96 778,-764.53 824.64,-794.12 882.95,-819.76 921.73,-835.39"/>
<polygon fill="#757575" stroke="#757575" points="920.13,-838.52 930.71,-838.97 922.72,-832.02 920.13,-838.52"/>
</g>
<!-- component/Dashboard/DashboardHeader/SelectRealTimeRangeArea.tsx -->
<g id="node16" class="node">
<title>component/Dashboard/DashboardHeader/SelectRealTimeRangeArea.tsx</title>
<path fill="none" stroke="#c6c5fe" d="M1661.33,-822.03C1661.33,-822.03 1195.67,-822.03 1195.67,-822.03 1191.83,-822.03 1188,-818.19 1188,-814.36 1188,-814.36 1188,-806.69 1188,-806.69 1188,-802.86 1191.83,-799.03 1195.67,-799.03 1195.67,-799.03 1661.33,-799.03 1661.33,-799.03 1665.17,-799.03 1669,-802.86 1669,-806.69 1669,-806.69 1669,-814.36 1669,-814.36 1669,-818.19 1665.17,-822.03 1661.33,-822.03"/>
<text text-anchor="middle" x="1428.5" y="-806.83" font-family="Arial" font-size="14.00" fill="#c6c5fe">component/Dashboard/DashboardHeader/SelectRealTimeRangeArea.tsx</text>
</g>
<!-- component/Dashboard/DashboardHeader.tsx&#45;&gt;component/Dashboard/DashboardHeader/SelectRealTimeRangeArea.tsx -->
<g id="edge7" class="edge">
<title>component/Dashboard/DashboardHeader.tsx&#45;&gt;component/Dashboard/DashboardHeader/SelectRealTimeRangeArea.tsx</title>
<path fill="none" stroke="#757575" d="M641.29,-621.5C786.41,-656.39 1208.67,-757.91 1366.79,-795.93"/>
<polygon fill="#757575" stroke="#757575" points="1365.69,-799.27 1376.23,-798.2 1367.33,-792.46 1365.69,-799.27"/>
</g>
<!-- component/Dashboard/DashboardHeader/TimeBlock.tsx -->
<g id="node17" class="node">
<title>component/Dashboard/DashboardHeader/TimeBlock.tsx</title>
<path fill="none" stroke="#c6c5fe" d="M1144.33,-642.03C1144.33,-642.03 785.67,-642.03 785.67,-642.03 781.83,-642.03 778,-638.19 778,-634.36 778,-634.36 778,-626.69 778,-626.69 778,-622.86 781.83,-619.03 785.67,-619.03 785.67,-619.03 1144.33,-619.03 1144.33,-619.03 1148.17,-619.03 1152,-622.86 1152,-626.69 1152,-626.69 1152,-634.36 1152,-634.36 1152,-638.19 1148.17,-642.03 1144.33,-642.03"/>
<text text-anchor="middle" x="965" y="-626.83" font-family="Arial" font-size="14.00" fill="#c6c5fe">component/Dashboard/DashboardHeader/TimeBlock.tsx</text>
</g>
<!-- component/Dashboard/DashboardHeader.tsx&#45;&gt;component/Dashboard/DashboardHeader/TimeBlock.tsx -->
<g id="edge8" class="edge">
<title>component/Dashboard/DashboardHeader.tsx&#45;&gt;component/Dashboard/DashboardHeader/TimeBlock.tsx</title>
<path fill="none" stroke="#757575" d="M742.47,-618.04C750.35,-618.48 758.32,-618.93 766.32,-619.38"/>
<polygon fill="#757575" stroke="#757575" points="765.95,-622.87 776.13,-619.93 766.34,-615.88 765.95,-622.87"/>
</g>
<!-- store/DashboardProvider.tsx -->
<g id="node18" class="node">
<title>store/DashboardProvider.tsx</title>
<path fill="none" stroke="#c6c5fe" d="M2027.33,-601.03C2027.33,-601.03 1845.67,-601.03 1845.67,-601.03 1841.83,-601.03 1838,-597.19 1838,-593.36 1838,-593.36 1838,-585.69 1838,-585.69 1838,-581.86 1841.83,-578.03 1845.67,-578.03 1845.67,-578.03 2027.33,-578.03 2027.33,-578.03 2031.17,-578.03 2035,-581.86 2035,-585.69 2035,-585.69 2035,-593.36 2035,-593.36 2035,-597.19 2031.17,-601.03 2027.33,-601.03"/>
<text text-anchor="middle" x="1936.5" y="-585.83" font-family="Arial" font-size="14.00" fill="#c6c5fe">store/DashboardProvider.tsx</text>
</g>
<!-- component/Dashboard/DashboardHeader.tsx&#45;&gt;store/DashboardProvider.tsx -->
<g id="edge9" class="edge">
<title>component/Dashboard/DashboardHeader.tsx&#45;&gt;store/DashboardProvider.tsx</title>
<path fill="none" stroke="#757575" d="M742.41,-607.28C1015.83,-603.21 1586.95,-594.71 1826.29,-591.15"/>
<polygon fill="#757575" stroke="#757575" points="1826.32,-594.65 1836.26,-591 1826.21,-587.65 1826.32,-594.65"/>
</g>
<!-- store/WidgetPropsSettingModalProvider.tsx -->
<g id="node19" class="node">
<title>store/WidgetPropsSettingModalProvider.tsx</title>
<path fill="none" stroke="#c6c5fe" d="M2075.83,-319.03C2075.83,-319.03 1797.17,-319.03 1797.17,-319.03 1793.33,-319.03 1789.5,-315.19 1789.5,-311.36 1789.5,-311.36 1789.5,-303.69 1789.5,-303.69 1789.5,-299.86 1793.33,-296.03 1797.17,-296.03 1797.17,-296.03 2075.83,-296.03 2075.83,-296.03 2079.67,-296.03 2083.5,-299.86 2083.5,-303.69 2083.5,-303.69 2083.5,-311.36 2083.5,-311.36 2083.5,-315.19 2079.67,-319.03 2075.83,-319.03"/>
<text text-anchor="middle" x="1936.5" y="-303.83" font-family="Arial" font-size="14.00" fill="#c6c5fe">store/WidgetPropsSettingModalProvider.tsx</text>
</g>
<!-- component/Dashboard/DashboardHeader.tsx&#45;&gt;store/WidgetPropsSettingModalProvider.tsx -->
<g id="edge10" class="edge">
<title>component/Dashboard/DashboardHeader.tsx&#45;&gt;store/WidgetPropsSettingModalProvider.tsx</title>
<path fill="none" stroke="#757575" d="M613.7,-597.58C690.55,-556.9 953.39,-423.14 1188,-367.53 1387.75,-320.18 1625.02,-308.39 1777.8,-306.33"/>
<polygon fill="#757575" stroke="#757575" points="1777.64,-309.83 1787.6,-306.21 1777.56,-302.83 1777.64,-309.83"/>
</g>
<!-- component/Dashboard/DashboardHeader/PlayIcon.tsx&#45;&gt;asset/image/pause.png -->
<g id="edge18" class="edge">
<title>component/Dashboard/DashboardHeader/PlayIcon.tsx&#45;&gt;asset/image/pause.png</title>
<path fill="none" stroke="#757575" d="M1090.15,-863.51C1122.03,-866.52 1156.28,-869.7 1188,-872.53 1236.36,-876.83 1290.25,-881.36 1334.64,-885.01"/>
<polygon fill="#757575" stroke="#757575" points="1334.24,-888.49 1344.5,-885.82 1334.82,-881.51 1334.24,-888.49"/>
</g>
<!-- component/Dashboard/DashboardHeader/PlayIcon.tsx&#45;&gt;asset/image/play.png -->
<g id="edge19" class="edge">
<title>component/Dashboard/DashboardHeader/PlayIcon.tsx&#45;&gt;asset/image/play.png</title>
<path fill="none" stroke="#757575" d="M1146.41,-851.53C1213.44,-851.53 1286.43,-851.53 1341.23,-851.53"/>
<polygon fill="#757575" stroke="#757575" points="1341.12,-855.03 1351.12,-851.53 1341.12,-848.03 1341.12,-855.03"/>
</g>
<!-- component/Dashboard/DashboardHeader/SelectRealTimeRangeArea.tsx&#45;&gt;hook/useBoolean.tsx -->
<g id="edge22" class="edge">
<title>component/Dashboard/DashboardHeader/SelectRealTimeRangeArea.tsx&#45;&gt;hook/useBoolean.tsx</title>
<path fill="none" stroke="#757575" d="M1604.16,-822.51C1809.08,-834.77 2126.37,-847.42 2168,-811.53 2250.35,-740.52 2138.94,-656.65 2204,-569.53 2229.31,-535.63 2272.32,-515.43 2309.24,-503.68"/>
<polygon fill="#757575" stroke="#757575" points="2309.96,-507.12 2318.52,-500.88 2307.94,-500.42 2309.96,-507.12"/>
</g>
<!-- hook/useOutsideClick.tsx -->
<g id="node26" class="node">
<title>hook/useOutsideClick.tsx</title>
<path fill="none" stroke="#cfffac" d="M2016.83,-802.03C2016.83,-802.03 1856.17,-802.03 1856.17,-802.03 1852.33,-802.03 1848.5,-798.19 1848.5,-794.36 1848.5,-794.36 1848.5,-786.69 1848.5,-786.69 1848.5,-782.86 1852.33,-779.03 1856.17,-779.03 1856.17,-779.03 2016.83,-779.03 2016.83,-779.03 2020.67,-779.03 2024.5,-782.86 2024.5,-786.69 2024.5,-786.69 2024.5,-794.36 2024.5,-794.36 2024.5,-798.19 2020.67,-802.03 2016.83,-802.03"/>
<text text-anchor="middle" x="1936.5" y="-786.83" font-family="Arial" font-size="14.00" fill="#cfffac">hook/useOutsideClick.tsx</text>
</g>
<!-- component/Dashboard/DashboardHeader/SelectRealTimeRangeArea.tsx&#45;&gt;hook/useOutsideClick.tsx -->
<g id="edge23" class="edge">
<title>component/Dashboard/DashboardHeader/SelectRealTimeRangeArea.tsx&#45;&gt;hook/useOutsideClick.tsx</title>
<path fill="none" stroke="#757575" d="M1669.16,-801.05C1728.4,-798.71 1788.62,-796.33 1836.77,-794.43"/>
<polygon fill="#757575" stroke="#757575" points="1836.75,-797.93 1846.6,-794.04 1836.47,-790.94 1836.75,-797.93"/>
</g>
<!-- component/Dashboard/DashboardHeader/RealTime.tsx -->
<g id="node27" class="node">
<title>component/Dashboard/DashboardHeader/RealTime.tsx</title>
<path fill="none" stroke="#cfffac" d="M2112.83,-923.03C2112.83,-923.03 1760.17,-923.03 1760.17,-923.03 1756.33,-923.03 1752.5,-919.19 1752.5,-915.36 1752.5,-915.36 1752.5,-907.69 1752.5,-907.69 1752.5,-903.86 1756.33,-900.03 1760.17,-900.03 1760.17,-900.03 2112.83,-900.03 2112.83,-900.03 2116.67,-900.03 2120.5,-903.86 2120.5,-907.69 2120.5,-907.69 2120.5,-915.36 2120.5,-915.36 2120.5,-919.19 2116.67,-923.03 2112.83,-923.03"/>
<text text-anchor="middle" x="1936.5" y="-907.83" font-family="Arial" font-size="14.00" fill="#cfffac">component/Dashboard/DashboardHeader/RealTime.tsx</text>
</g>
<!-- component/Dashboard/DashboardHeader/SelectRealTimeRangeArea.tsx&#45;&gt;component/Dashboard/DashboardHeader/RealTime.tsx -->
<g id="edge20" class="edge">
<title>component/Dashboard/DashboardHeader/SelectRealTimeRangeArea.tsx&#45;&gt;component/Dashboard/DashboardHeader/RealTime.tsx</title>
<path fill="none" stroke="#757575" d="M1652.52,-822.49C1658.18,-825.2 1663.69,-828.21 1669,-831.53 1695.37,-848.02 1678.63,-875.05 1705,-891.53 1716.31,-898.59 1728.56,-904.16 1741.33,-908.51"/>
<polygon fill="#757575" stroke="#757575" points="1740.12,-911.8 1750.71,-911.42 1742.2,-905.11 1740.12,-911.8"/>
</g>
<!-- component/Dashboard/DashboardHeader/SelectRealTimeListItem.tsx -->
<g id="node28" class="node">
<title>component/Dashboard/DashboardHeader/SelectRealTimeListItem.tsx</title>
<path fill="none" stroke="#cfffac" d="M2158.83,-964.03C2158.83,-964.03 1714.17,-964.03 1714.17,-964.03 1710.33,-964.03 1706.5,-960.19 1706.5,-956.36 1706.5,-956.36 1706.5,-948.69 1706.5,-948.69 1706.5,-944.86 1710.33,-941.03 1714.17,-941.03 1714.17,-941.03 2158.83,-941.03 2158.83,-941.03 2162.67,-941.03 2166.5,-944.86 2166.5,-948.69 2166.5,-948.69 2166.5,-956.36 2166.5,-956.36 2166.5,-960.19 2162.67,-964.03 2158.83,-964.03"/>
<text text-anchor="middle" x="1936.5" y="-948.83" font-family="Arial" font-size="14.00" fill="#cfffac">component/Dashboard/DashboardHeader/SelectRealTimeListItem.tsx</text>
</g>
<!-- component/Dashboard/DashboardHeader/SelectRealTimeRangeArea.tsx&#45;&gt;component/Dashboard/DashboardHeader/SelectRealTimeListItem.tsx -->
<g id="edge21" class="edge">
<title>component/Dashboard/DashboardHeader/SelectRealTimeRangeArea.tsx&#45;&gt;component/Dashboard/DashboardHeader/SelectRealTimeListItem.tsx</title>
<path fill="none" stroke="#757575" d="M1494.25,-798.53C1546.73,-792.62 1619.79,-793.5 1669,-831.53 1706.71,-860.67 1667.28,-903.4 1705,-932.53 1747.99,-965.72 1809.87,-969.43 1858.7,-965.54"/>
<polygon fill="#757575" stroke="#757575" points="1858.71,-969.05 1868.35,-964.64 1858.07,-962.08 1858.71,-969.05"/>
</g>
<!-- component/Dashboard/DashboardHeader/CurrentTime.tsx -->
<g id="node20" class="node">
<title>component/Dashboard/DashboardHeader/CurrentTime.tsx</title>
<path fill="none" stroke="#c6c5fe" d="M1613.83,-642.03C1613.83,-642.03 1243.17,-642.03 1243.17,-642.03 1239.33,-642.03 1235.5,-638.19 1235.5,-634.36 1235.5,-634.36 1235.5,-626.69 1235.5,-626.69 1235.5,-622.86 1239.33,-619.03 1243.17,-619.03 1243.17,-619.03 1613.83,-619.03 1613.83,-619.03 1617.67,-619.03 1621.5,-622.86 1621.5,-626.69 1621.5,-626.69 1621.5,-634.36 1621.5,-634.36 1621.5,-638.19 1617.67,-642.03 1613.83,-642.03"/>
<text text-anchor="middle" x="1428.5" y="-626.83" font-family="Arial" font-size="14.00" fill="#c6c5fe">component/Dashboard/DashboardHeader/CurrentTime.tsx</text>
</g>
<!-- component/Dashboard/DashboardHeader/TimeBlock.tsx&#45;&gt;component/Dashboard/DashboardHeader/CurrentTime.tsx -->
<g id="edge24" class="edge">
<title>component/Dashboard/DashboardHeader/TimeBlock.tsx&#45;&gt;component/Dashboard/DashboardHeader/CurrentTime.tsx</title>
<path fill="none" stroke="#757575" d="M1152.38,-630.53C1175.92,-630.53 1200.1,-630.53 1223.89,-630.53"/>
<polygon fill="#757575" stroke="#757575" points="1223.64,-634.03 1233.64,-630.53 1223.64,-627.03 1223.64,-634.03"/>
</g>
<!-- component/Dashboard/DashboardHeader/DatePickerArea.tsx -->
<g id="node23" class="node">
<title>component/Dashboard/DashboardHeader/DatePickerArea.tsx</title>
<path fill="none" stroke="#c6c5fe" d="M1624.33,-722.03C1624.33,-722.03 1232.67,-722.03 1232.67,-722.03 1228.83,-722.03 1225,-718.19 1225,-714.36 1225,-714.36 1225,-706.69 1225,-706.69 1225,-702.86 1228.83,-699.03 1232.67,-699.03 1232.67,-699.03 1624.33,-699.03 1624.33,-699.03 1628.17,-699.03 1632,-702.86 1632,-706.69 1632,-706.69 1632,-714.36 1632,-714.36 1632,-718.19 1628.17,-722.03 1624.33,-722.03"/>
<text text-anchor="middle" x="1428.5" y="-706.83" font-family="Arial" font-size="14.00" fill="#c6c5fe">component/Dashboard/DashboardHeader/DatePickerArea.tsx</text>
</g>
<!-- component/Dashboard/DashboardHeader/TimeBlock.tsx&#45;&gt;component/Dashboard/DashboardHeader/DatePickerArea.tsx -->
<g id="edge25" class="edge">
<title>component/Dashboard/DashboardHeader/TimeBlock.tsx&#45;&gt;component/Dashboard/DashboardHeader/DatePickerArea.tsx</title>
<path fill="none" stroke="#757575" d="M1035.09,-642.5C1118.56,-656.97 1258.74,-681.27 1347.02,-696.57"/>
<polygon fill="#757575" stroke="#757575" points="1346.37,-700.01 1356.82,-698.27 1347.57,-693.12 1346.37,-700.01"/>
</g>
<!-- store/DashboardProvider.tsx&#45;&gt;common/date.ts -->
<g id="edge73" class="edge">
<title>store/DashboardProvider.tsx&#45;&gt;common/date.ts</title>
<path fill="none" stroke="#757575" d="M2035.26,-589.53C2117.79,-589.53 2233.95,-589.53 2307.6,-589.53"/>
<polygon fill="#757575" stroke="#757575" points="2307.53,-593.03 2317.53,-589.53 2307.53,-586.03 2307.53,-593.03"/>
</g>
<!-- store/WidgetPropsSettingModalProvider.tsx&#45;&gt;hook/useBoolean.tsx -->
<g id="edge74" class="edge">
<title>store/WidgetPropsSettingModalProvider.tsx&#45;&gt;hook/useBoolean.tsx</title>
<path fill="none" stroke="#757575" d="M2083.71,-302.77C2113.52,-307.43 2143.29,-316.69 2168,-333.53 2196.26,-352.78 2179.54,-377.63 2204,-401.53 2238.85,-435.57 2289.68,-458.88 2327.41,-472.73"/>
<polygon fill="#757575" stroke="#757575" points="2326.15,-476 2336.74,-476.05 2328.49,-469.4 2326.15,-476"/>
</g>
<!-- hook/useCurrentTime.tsx -->
<g id="node21" class="node">
<title>hook/useCurrentTime.tsx</title>
<path fill="none" stroke="#cfffac" d="M2016.33,-642.03C2016.33,-642.03 1856.67,-642.03 1856.67,-642.03 1852.83,-642.03 1849,-638.19 1849,-634.36 1849,-634.36 1849,-626.69 1849,-626.69 1849,-622.86 1852.83,-619.03 1856.67,-619.03 1856.67,-619.03 2016.33,-619.03 2016.33,-619.03 2020.17,-619.03 2024,-622.86 2024,-626.69 2024,-626.69 2024,-634.36 2024,-634.36 2024,-638.19 2020.17,-642.03 2016.33,-642.03"/>
<text text-anchor="middle" x="1936.5" y="-626.83" font-family="Arial" font-size="14.00" fill="#cfffac">hook/useCurrentTime.tsx</text>
</g>
<!-- component/Dashboard/DashboardHeader/CurrentTime.tsx&#45;&gt;hook/useCurrentTime.tsx -->
<g id="edge11" class="edge">
<title>component/Dashboard/DashboardHeader/CurrentTime.tsx&#45;&gt;hook/useCurrentTime.tsx</title>
<path fill="none" stroke="#757575" d="M1621.88,-630.53C1695.4,-630.53 1776.19,-630.53 1837.35,-630.53"/>
<polygon fill="#757575" stroke="#757575" points="1837.02,-634.03 1847.02,-630.53 1837.02,-627.03 1837.02,-634.03"/>
</g>
<!-- component/Dashboard/DashboardHeader/DateBox.tsx -->
<g id="node22" class="node">
<title>component/Dashboard/DashboardHeader/DateBox.tsx</title>
<path fill="none" stroke="#cfffac" d="M2109.83,-722.03C2109.83,-722.03 1763.17,-722.03 1763.17,-722.03 1759.33,-722.03 1755.5,-718.19 1755.5,-714.36 1755.5,-714.36 1755.5,-706.69 1755.5,-706.69 1755.5,-702.86 1759.33,-699.03 1763.17,-699.03 1763.17,-699.03 2109.83,-699.03 2109.83,-699.03 2113.67,-699.03 2117.5,-702.86 2117.5,-706.69 2117.5,-706.69 2117.5,-714.36 2117.5,-714.36 2117.5,-718.19 2113.67,-722.03 2109.83,-722.03"/>
<text text-anchor="middle" x="1936.5" y="-706.83" font-family="Arial" font-size="14.00" fill="#cfffac">component/Dashboard/DashboardHeader/DateBox.tsx</text>
</g>
<!-- component/Dashboard/DashboardHeader/DatePickerArea.tsx&#45;&gt;common/date.ts -->
<g id="edge12" class="edge">
<title>component/Dashboard/DashboardHeader/DatePickerArea.tsx&#45;&gt;common/date.ts</title>
<path fill="none" stroke="#757575" d="M1478.45,-722.46C1598.98,-749.62 1918.43,-807.98 2168,-731.53 2247.14,-707.28 2323.33,-642.03 2358.2,-609.1"/>
<polygon fill="#757575" stroke="#757575" points="2360.27,-611.96 2365.06,-602.51 2355.42,-606.91 2360.27,-611.96"/>
</g>
<!-- component/Dashboard/DashboardHeader/DatePickerArea.tsx&#45;&gt;store/DashboardProvider.tsx -->
<g id="edge17" class="edge">
<title>component/Dashboard/DashboardHeader/DatePickerArea.tsx&#45;&gt;store/DashboardProvider.tsx</title>
<path fill="none" stroke="#757575" d="M1535.96,-698.54C1579.54,-690.12 1629.02,-675.82 1669,-651.53 1689.73,-638.94 1683.39,-621.52 1705,-610.53 1741.83,-591.79 1786.27,-584.72 1826.26,-582.96"/>
<polygon fill="#757575" stroke="#757575" points="1826.29,-586.46 1836.17,-582.65 1826.07,-579.47 1826.29,-586.46"/>
</g>
<!-- component/Dashboard/DashboardHeader/DatePickerArea.tsx&#45;&gt;component/Dashboard/DashboardHeader/DateBox.tsx -->
<g id="edge13" class="edge">
<title>component/Dashboard/DashboardHeader/DatePickerArea.tsx&#45;&gt;component/Dashboard/DashboardHeader/DateBox.tsx</title>
<path fill="none" stroke="#757575" d="M1632.39,-710.53C1669.15,-710.53 1707.37,-710.53 1743.79,-710.53"/>
<polygon fill="#757575" stroke="#757575" points="1743.52,-714.03 1753.52,-710.53 1743.52,-707.03 1743.52,-714.03"/>
</g>
<!-- component/common/DatePicker.tsx -->
<g id="node24" class="node">
<title>component/common/DatePicker.tsx</title>
<path fill="none" stroke="#c6c5fe" d="M2049.83,-882.03C2049.83,-882.03 1823.17,-882.03 1823.17,-882.03 1819.33,-882.03 1815.5,-878.19 1815.5,-874.36 1815.5,-874.36 1815.5,-866.69 1815.5,-866.69 1815.5,-862.86 1819.33,-859.03 1823.17,-859.03 1823.17,-859.03 2049.83,-859.03 2049.83,-859.03 2053.67,-859.03 2057.5,-862.86 2057.5,-866.69 2057.5,-866.69 2057.5,-874.36 2057.5,-874.36 2057.5,-878.19 2053.67,-882.03 2049.83,-882.03"/>
<text text-anchor="middle" x="1936.5" y="-866.83" font-family="Arial" font-size="14.00" fill="#c6c5fe">component/common/DatePicker.tsx</text>
</g>
<!-- component/Dashboard/DashboardHeader/DatePickerArea.tsx&#45;&gt;component/common/DatePicker.tsx -->
<g id="edge14" class="edge">
<title>component/Dashboard/DashboardHeader/DatePickerArea.tsx&#45;&gt;component/common/DatePicker.tsx</title>
<path fill="none" stroke="#757575" d="M1474.24,-722.48C1523.15,-736.23 1603.31,-760.78 1669,-790.53 1685.87,-798.17 1687.86,-804.49 1705,-811.53 1754.16,-831.7 1812.12,-846.49 1857.62,-856.22"/>
<polygon fill="#757575" stroke="#757575" points="1856.62,-859.59 1867.13,-858.22 1858.06,-852.74 1856.62,-859.59"/>
</g>
<!-- component/Dashboard/DashboardHeader/DatePickerArea.tsx&#45;&gt;hook/useBoolean.tsx -->
<g id="edge15" class="edge">
<title>component/Dashboard/DashboardHeader/DatePickerArea.tsx&#45;&gt;hook/useBoolean.tsx</title>
<path fill="none" stroke="#757575" d="M1592.23,-698.55C1807.91,-682.54 2162.17,-655.67 2168,-651.53 2200.43,-628.45 2176.17,-597.98 2204,-569.53 2235.71,-537.12 2282.86,-516.27 2320.09,-503.86"/>
<polygon fill="#757575" stroke="#757575" points="2320.9,-507.28 2329.36,-500.89 2318.77,-500.61 2320.9,-507.28"/>
</g>
<!-- component/Dashboard/DashboardHeader/DatePickerArea.tsx&#45;&gt;hook/useOutsideClick.tsx -->
<g id="edge16" class="edge">
<title>component/Dashboard/DashboardHeader/DatePickerArea.tsx&#45;&gt;hook/useOutsideClick.tsx</title>
<path fill="none" stroke="#757575" d="M1483.64,-722.49C1539.03,-734.41 1627.69,-752.61 1705,-764.53 1748.11,-771.17 1796.01,-776.85 1836.92,-781.19"/>
<polygon fill="#757575" stroke="#757575" points="1836.45,-784.66 1846.76,-782.22 1837.18,-777.69 1836.45,-784.66"/>
</g>
<!-- component/common/DatePicker/DatePickerTitle.tsx -->
<g id="node46" class="node">
<title>component/common/DatePicker/DatePickerTitle.tsx</title>
<path fill="none" stroke="#c6c5fe" d="M2542.83,-882.03C2542.83,-882.03 2215.17,-882.03 2215.17,-882.03 2211.33,-882.03 2207.5,-878.19 2207.5,-874.36 2207.5,-874.36 2207.5,-866.69 2207.5,-866.69 2207.5,-862.86 2211.33,-859.03 2215.17,-859.03 2215.17,-859.03 2542.83,-859.03 2542.83,-859.03 2546.67,-859.03 2550.5,-862.86 2550.5,-866.69 2550.5,-866.69 2550.5,-874.36 2550.5,-874.36 2550.5,-878.19 2546.67,-882.03 2542.83,-882.03"/>
<text text-anchor="middle" x="2379" y="-866.83" font-family="Arial" font-size="14.00" fill="#c6c5fe">component/common/DatePicker/DatePickerTitle.tsx</text>
</g>
<!-- component/common/DatePicker.tsx&#45;&gt;component/common/DatePicker/DatePickerTitle.tsx -->
<g id="edge56" class="edge">
<title>component/common/DatePicker.tsx&#45;&gt;component/common/DatePicker/DatePickerTitle.tsx</title>
<path fill="none" stroke="#757575" d="M2057.87,-870.53C2100.35,-870.53 2149.11,-870.53 2195.56,-870.53"/>
<polygon fill="#757575" stroke="#757575" points="2195.49,-874.03 2205.49,-870.53 2195.49,-867.03 2195.49,-874.03"/>
</g>
<!-- component/common/DatePicker/ListPicker.tsx -->
<g id="node47" class="node">
<title>component/common/DatePicker/ListPicker.tsx</title>
<path fill="none" stroke="#c6c5fe" d="M2525.33,-923.03C2525.33,-923.03 2232.67,-923.03 2232.67,-923.03 2228.83,-923.03 2225,-919.19 2225,-915.36 2225,-915.36 2225,-907.69 2225,-907.69 2225,-903.86 2228.83,-900.03 2232.67,-900.03 2232.67,-900.03 2525.33,-900.03 2525.33,-900.03 2529.17,-900.03 2533,-903.86 2533,-907.69 2533,-907.69 2533,-915.36 2533,-915.36 2533,-919.19 2529.17,-923.03 2525.33,-923.03"/>
<text text-anchor="middle" x="2379" y="-907.83" font-family="Arial" font-size="14.00" fill="#c6c5fe">component/common/DatePicker/ListPicker.tsx</text>
</g>
<!-- component/common/DatePicker.tsx&#45;&gt;component/common/DatePicker/ListPicker.tsx -->
<g id="edge57" class="edge">
<title>component/common/DatePicker.tsx&#45;&gt;component/common/DatePicker/ListPicker.tsx</title>
<path fill="none" stroke="#757575" d="M2057.74,-881.39C2093.25,-884.62 2132.19,-888.19 2168,-891.53 2191.87,-893.75 2217.27,-896.15 2241.86,-898.48"/>
<polygon fill="#757575" stroke="#757575" points="2241.29,-901.94 2251.58,-899.4 2241.95,-894.97 2241.29,-901.94"/>
</g>
<!-- types/common.d.ts -->
<g id="node48" class="node">
<title>types/common.d.ts</title>
<path fill="none" stroke="#cfffac" d="M2819.33,-882.03C2819.33,-882.03 2697.67,-882.03 2697.67,-882.03 2693.83,-882.03 2690,-878.19 2690,-874.36 2690,-874.36 2690,-866.69 2690,-866.69 2690,-862.86 2693.83,-859.03 2697.67,-859.03 2697.67,-859.03 2819.33,-859.03 2819.33,-859.03 2823.17,-859.03 2827,-862.86 2827,-866.69 2827,-866.69 2827,-874.36 2827,-874.36 2827,-878.19 2823.17,-882.03 2819.33,-882.03"/>
<text text-anchor="middle" x="2758.5" y="-866.83" font-family="Arial" font-size="14.00" fill="#cfffac">types/common.d.ts</text>
</g>
<!-- component/common/DatePicker.tsx&#45;&gt;types/common.d.ts -->
<g id="edge58" class="edge">
<title>component/common/DatePicker.tsx&#45;&gt;types/common.d.ts</title>
<path fill="none" stroke="#757575" d="M2057.79,-859.58C2103.52,-855.92 2156.13,-852.32 2204,-850.53 2359.45,-844.7 2398.63,-842.91 2554,-850.53 2595.13,-852.54 2640.77,-856.84 2678.39,-860.93"/>
<polygon fill="#757575" stroke="#757575" points="2677.96,-864.41 2688.28,-862.03 2678.73,-857.45 2677.96,-864.41"/>
</g>
<!-- component/Widget/WidgetButtons.tsx&#45;&gt;store/WidgetProvider.tsx -->
<g id="edge32" class="edge">
<title>component/Widget/WidgetButtons.tsx&#45;&gt;store/WidgetProvider.tsx</title>
<path fill="none" stroke="#757575" d="M1557.27,-262.47C1597.32,-254.35 1638.88,-238.98 1669,-210.53 1708.55,-173.17 1663.12,-128.25 1705,-93.53 1741.51,-63.25 1793.21,-55.33 1838.4,-55.6"/>
<polygon fill="#757575" stroke="#757575" points="1838.15,-59.1 1848.22,-55.81 1838.29,-52.1 1838.15,-59.1"/>
</g>
<!-- component/Widget/WidgetButtons.tsx&#45;&gt;store/WidgetPropsSettingModalProvider.tsx -->
<g id="edge31" class="edge">
<title>component/Widget/WidgetButtons.tsx&#45;&gt;store/WidgetPropsSettingModalProvider.tsx</title>
<path fill="none" stroke="#757575" d="M1557.19,-279.11C1624.16,-284.14 1706.81,-290.35 1777.76,-295.68"/>
<polygon fill="#757575" stroke="#757575" points="1777.29,-299.15 1787.53,-296.41 1777.82,-292.17 1777.29,-299.15"/>
</g>
<!-- component/Widget/WidgetCallCycleSettingModal.tsx&#45;&gt;common/widget.ts -->
<g id="edge33" class="edge">
<title>component/Widget/WidgetCallCycleSettingModal.tsx&#45;&gt;common/widget.ts</title>
<path fill="none" stroke="#757575" d="M1577.56,-454.53C1669.8,-447.06 1784.66,-437.75 1859,-431.72"/>
<polygon fill="#757575" stroke="#757575" points="1858.93,-435.24 1868.61,-430.95 1858.36,-428.26 1858.93,-435.24"/>
</g>
<!-- component/Widget/WidgetCallCycleSettingModal/CycleInput.tsx -->
<g id="node33" class="node">
<title>component/Widget/WidgetCallCycleSettingModal/CycleInput.tsx</title>
<path fill="none" stroke="#cfffac" d="M2139.83,-478.03C2139.83,-478.03 1733.17,-478.03 1733.17,-478.03 1729.33,-478.03 1725.5,-474.19 1725.5,-470.36 1725.5,-470.36 1725.5,-462.69 1725.5,-462.69 1725.5,-458.86 1729.33,-455.03 1733.17,-455.03 1733.17,-455.03 2139.83,-455.03 2139.83,-455.03 2143.67,-455.03 2147.5,-458.86 2147.5,-462.69 2147.5,-462.69 2147.5,-470.36 2147.5,-470.36 2147.5,-474.19 2143.67,-478.03 2139.83,-478.03"/>
<text text-anchor="middle" x="1936.5" y="-462.83" font-family="Arial" font-size="14.00" fill="#cfffac">component/Widget/WidgetCallCycleSettingModal/CycleInput.tsx</text>
</g>
<!-- component/Widget/WidgetCallCycleSettingModal.tsx&#45;&gt;component/Widget/WidgetCallCycleSettingModal/CycleInput.tsx -->
<g id="edge34" class="edge">
<title>component/Widget/WidgetCallCycleSettingModal.tsx&#45;&gt;component/Widget/WidgetCallCycleSettingModal/CycleInput.tsx</title>
<path fill="none" stroke="#757575" d="M1604.35,-466.53C1639.68,-466.53 1677.27,-466.53 1713.97,-466.53"/>
<polygon fill="#757575" stroke="#757575" points="1713.81,-470.03 1723.81,-466.53 1713.81,-463.03 1713.81,-470.03"/>
</g>
<!-- component/Widget/WidgetCallCycleSettingModal/LastCallTimeBox.tsx -->
<g id="node34" class="node">
<title>component/Widget/WidgetCallCycleSettingModal/LastCallTimeBox.tsx</title>
<path fill="none" stroke="#cfffac" d="M2160.33,-560.03C2160.33,-560.03 1712.67,-560.03 1712.67,-560.03 1708.83,-560.03 1705,-556.19 1705,-552.36 1705,-552.36 1705,-544.69 1705,-544.69 1705,-540.86 1708.83,-537.03 1712.67,-537.03 1712.67,-537.03 2160.33,-537.03 2160.33,-537.03 2164.17,-537.03 2168,-540.86 2168,-544.69 2168,-544.69 2168,-552.36 2168,-552.36 2168,-556.19 2164.17,-560.03 2160.33,-560.03"/>
<text text-anchor="middle" x="1936.5" y="-544.83" font-family="Arial" font-size="14.00" fill="#cfffac">component/Widget/WidgetCallCycleSettingModal/LastCallTimeBox.tsx</text>
</g>
<!-- component/Widget/WidgetCallCycleSettingModal.tsx&#45;&gt;component/Widget/WidgetCallCycleSettingModal/LastCallTimeBox.tsx -->
<g id="edge35" class="edge">
<title>component/Widget/WidgetCallCycleSettingModal.tsx&#45;&gt;component/Widget/WidgetCallCycleSettingModal/LastCallTimeBox.tsx</title>
<path fill="none" stroke="#757575" d="M1474,-478.49C1528.18,-492.6 1622.64,-515.75 1705,-528.53 1721.36,-531.06 1738.43,-533.3 1755.55,-535.28"/>
<polygon fill="#757575" stroke="#757575" points="1754.98,-538.73 1765.3,-536.37 1755.75,-531.78 1754.98,-538.73"/>
</g>
<!-- hook/useInput.tsx -->
<g id="node35" class="node">
<title>hook/useInput.tsx</title>
<path fill="none" stroke="#cfffac" d="M1992.83,-519.03C1992.83,-519.03 1880.17,-519.03 1880.17,-519.03 1876.33,-519.03 1872.5,-515.19 1872.5,-511.36 1872.5,-511.36 1872.5,-503.69 1872.5,-503.69 1872.5,-499.86 1876.33,-496.03 1880.17,-496.03 1880.17,-496.03 1992.83,-496.03 1992.83,-496.03 1996.67,-496.03 2000.5,-499.86 2000.5,-503.69 2000.5,-503.69 2000.5,-511.36 2000.5,-511.36 2000.5,-515.19 1996.67,-519.03 1992.83,-519.03"/>
<text text-anchor="middle" x="1936.5" y="-503.83" font-family="Arial" font-size="14.00" fill="#cfffac">hook/useInput.tsx</text>
</g>
<!-- component/Widget/WidgetCallCycleSettingModal.tsx&#45;&gt;hook/useInput.tsx -->
<g id="edge36" class="edge">
<title>component/Widget/WidgetCallCycleSettingModal.tsx&#45;&gt;hook/useInput.tsx</title>
<path fill="none" stroke="#757575" d="M1577.56,-478.52C1670.63,-486.06 1786.73,-495.47 1861,-501.49"/>
<polygon fill="#757575" stroke="#757575" points="1860.34,-504.95 1870.59,-502.27 1860.91,-497.97 1860.34,-504.95"/>
</g>
<!-- component/chart/BarChart.tsx -->
<g id="node36" class="node">
<title>component/chart/BarChart.tsx</title>
<path fill="none" stroke="#c6c5fe" d="M2030.33,-237.03C2030.33,-237.03 1842.67,-237.03 1842.67,-237.03 1838.83,-237.03 1835,-233.19 1835,-229.36 1835,-229.36 1835,-221.69 1835,-221.69 1835,-217.86 1838.83,-214.03 1842.67,-214.03 1842.67,-214.03 2030.33,-214.03 2030.33,-214.03 2034.17,-214.03 2038,-217.86 2038,-221.69 2038,-221.69 2038,-229.36 2038,-229.36 2038,-233.19 2034.17,-237.03 2030.33,-237.03"/>
<text text-anchor="middle" x="1936.5" y="-221.83" font-family="Arial" font-size="14.00" fill="#c6c5fe">component/chart/BarChart.tsx</text>
</g>
<!-- component/Widget/WidgetChart.tsx&#45;&gt;component/chart/BarChart.tsx -->
<g id="edge37" class="edge">
<title>component/Widget/WidgetChart.tsx&#45;&gt;component/chart/BarChart.tsx</title>
<path fill="none" stroke="#757575" d="M1549.74,-198.08C1632.78,-203.99 1742.46,-211.79 1823.63,-217.57"/>
<polygon fill="#757575" stroke="#757575" points="1823.16,-221.04 1833.38,-218.26 1823.66,-214.06 1823.16,-221.04"/>
</g>
<!-- component/chart/InformaticsChart.tsx -->
<g id="node37" class="node">
<title>component/chart/InformaticsChart.tsx</title>
<path fill="none" stroke="#c6c5fe" d="M2054.83,-278.03C2054.83,-278.03 1818.17,-278.03 1818.17,-278.03 1814.33,-278.03 1810.5,-274.19 1810.5,-270.36 1810.5,-270.36 1810.5,-262.69 1810.5,-262.69 1810.5,-258.86 1814.33,-255.03 1818.17,-255.03 1818.17,-255.03 2054.83,-255.03 2054.83,-255.03 2058.67,-255.03 2062.5,-258.86 2062.5,-262.69 2062.5,-262.69 2062.5,-270.36 2062.5,-270.36 2062.5,-274.19 2058.67,-278.03 2054.83,-278.03"/>
<text text-anchor="middle" x="1936.5" y="-262.83" font-family="Arial" font-size="14.00" fill="#c6c5fe">component/chart/InformaticsChart.tsx</text>
</g>
<!-- component/Widget/WidgetChart.tsx&#45;&gt;component/chart/InformaticsChart.tsx -->
<g id="edge38" class="edge">
<title>component/Widget/WidgetChart.tsx&#45;&gt;component/chart/InformaticsChart.tsx</title>
<path fill="none" stroke="#757575" d="M1549.75,-188.54C1589.06,-191.85 1632.07,-199.5 1669,-215.53 1688.37,-223.93 1685.54,-238.33 1705,-246.53 1734.14,-258.8 1767.15,-265.42 1798.9,-268.7"/>
<polygon fill="#757575" stroke="#757575" points="1798.29,-272.16 1808.56,-269.58 1798.93,-265.19 1798.29,-272.16"/>
</g>
<!-- component/chart/LineChart.tsx -->
<g id="node38" class="node">
<title>component/chart/LineChart.tsx</title>
<path fill="none" stroke="#c6c5fe" d="M2033.33,-196.03C2033.33,-196.03 1839.67,-196.03 1839.67,-196.03 1835.83,-196.03 1832,-192.19 1832,-188.36 1832,-188.36 1832,-180.69 1832,-180.69 1832,-176.86 1835.83,-173.03 1839.67,-173.03 1839.67,-173.03 2033.33,-173.03 2033.33,-173.03 2037.17,-173.03 2041,-176.86 2041,-180.69 2041,-180.69 2041,-188.36 2041,-188.36 2041,-192.19 2037.17,-196.03 2033.33,-196.03"/>
<text text-anchor="middle" x="1936.5" y="-180.83" font-family="Arial" font-size="14.00" fill="#c6c5fe">component/chart/LineChart.tsx</text>
</g>
<!-- component/Widget/WidgetChart.tsx&#45;&gt;component/chart/LineChart.tsx -->
<g id="edge39" class="edge">
<title>component/Widget/WidgetChart.tsx&#45;&gt;component/chart/LineChart.tsx</title>
<path fill="none" stroke="#757575" d="M1549.74,-188.34C1631.67,-187.53 1739.52,-186.46 1820.35,-185.66"/>
<polygon fill="#757575" stroke="#757575" points="1820.09,-189.17 1830.05,-185.57 1820.02,-182.17 1820.09,-189.17"/>
</g>
<!-- hook/Widget/useHandleWidgetApi.tsx&#45;&gt;types/api.d.ts -->
<g id="edge66" class="edge">
<title>hook/Widget/useHandleWidgetApi.tsx&#45;&gt;types/api.d.ts</title>
<path fill="none" stroke="#757575" d="M1502.7,-375.56C1555.97,-363.12 1626.02,-338.45 1669,-290.53 1708.17,-246.85 1659.82,-200.96 1705,-163.53 1850.86,-42.67 2368,-123.35 2554,-87.53 2610.56,-76.63 2673.85,-56.33 2714.61,-42.15"/>
<polygon fill="#757575" stroke="#757575" points="2715.53,-45.53 2723.8,-38.92 2713.21,-38.93 2715.53,-45.53"/>
</g>
<!-- hook/Widget/useHandleWidgetApi.tsx&#45;&gt;common/date.ts -->
<g id="edge62" class="edge">
<title>hook/Widget/useHandleWidgetApi.tsx&#45;&gt;common/date.ts</title>
<path fill="none" stroke="#757575" d="M1557.35,-382.84C1755.76,-376.72 2120.1,-370.53 2168,-405.53 2207.5,-434.38 2171.14,-473.29 2204,-509.53 2233.47,-542.03 2278.8,-562.28 2315.8,-574.28"/>
<polygon fill="#757575" stroke="#757575" points="2314.46,-577.52 2325.05,-577.14 2316.53,-570.84 2314.46,-577.52"/>
</g>
<!-- hook/Widget/useHandleWidgetApi.tsx&#45;&gt;common/widget.ts -->
<g id="edge63" class="edge">
<title>hook/Widget/useHandleWidgetApi.tsx&#45;&gt;common/widget.ts</title>
<path fill="none" stroke="#757575" d="M1557.19,-397.11C1652.2,-404.25 1778.76,-413.76 1858.7,-419.76"/>
<polygon fill="#757575" stroke="#757575" points="1858.41,-423.25 1868.64,-420.5 1858.93,-416.27 1858.41,-423.25"/>
</g>
<!-- hook/Widget/useHandleWidgetApi.tsx&#45;&gt;store/DashboardProvider.tsx -->
<g id="edge65" class="edge">
<title>hook/Widget/useHandleWidgetApi.tsx&#45;&gt;store/DashboardProvider.tsx</title>
<path fill="none" stroke="#757575" d="M1557.5,-394.35C1597.56,-402.45 1639.08,-417.87 1669,-446.53 1710.14,-485.92 1660.94,-533.43 1705,-569.53 1748.67,-605.3 1813.87,-607.82 1863.79,-602.82"/>
<polygon fill="#757575" stroke="#757575" points="1864.12,-606.31 1873.66,-601.7 1863.33,-599.35 1864.12,-606.31"/>
</g>
<!-- hook/useGetApiList.tsx -->
<g id="node42" class="node">
<title>hook/useGetApiList.tsx</title>
<path fill="none" stroke="#c6c5fe" d="M2010.33,-38.03C2010.33,-38.03 1862.67,-38.03 1862.67,-38.03 1858.83,-38.03 1855,-34.19 1855,-30.36 1855,-30.36 1855,-22.69 1855,-22.69 1855,-18.86 1858.83,-15.03 1862.67,-15.03 1862.67,-15.03 2010.33,-15.03 2010.33,-15.03 2014.17,-15.03 2018,-18.86 2018,-22.69 2018,-22.69 2018,-30.36 2018,-30.36 2018,-34.19 2014.17,-38.03 2010.33,-38.03"/>
<text text-anchor="middle" x="1936.5" y="-22.83" font-family="Arial" font-size="14.00" fill="#c6c5fe">hook/useGetApiList.tsx</text>
</g>
<!-- hook/Widget/useHandleWidgetApi.tsx&#45;&gt;hook/useGetApiList.tsx -->
<g id="edge64" class="edge">
<title>hook/Widget/useHandleWidgetApi.tsx&#45;&gt;hook/useGetApiList.tsx</title>
<path fill="none" stroke="#757575" d="M1511.44,-375.59C1564.61,-363.4 1630.88,-339.02 1669,-290.53 1736.75,-204.35 1625.2,-121.68 1705,-46.53 1749.13,-4.96 1821.34,-5.46 1873.19,-12.86"/>
<polygon fill="#757575" stroke="#757575" points="1872.33,-16.27 1882.75,-14.36 1873.41,-9.35 1872.33,-16.27"/>
</g>
<!-- component/chart/BarChart.tsx&#45;&gt;common/chart.ts -->
<g id="edge45" class="edge">
<title>component/chart/BarChart.tsx&#45;&gt;common/chart.ts</title>
<path fill="none" stroke="#757575" d="M2038.5,-216.95C2078.79,-213.48 2125.6,-209.38 2168,-205.53 2214.07,-201.33 2265.81,-196.41 2306.41,-192.49"/>
<polygon fill="#757575" stroke="#757575" points="2306.69,-195.98 2316.31,-191.54 2306.02,-189.02 2306.69,-195.98"/>
</g>
<!-- component/chart/BarChart.tsx&#45;&gt;types/chart.d.ts -->
<g id="edge48" class="edge">
<title>component/chart/BarChart.tsx&#45;&gt;types/chart.d.ts</title>
<path fill="none" stroke="#757575" d="M2038.29,-218.44C2080.42,-219.49 2128.63,-226.21 2168,-246.53 2189.85,-257.8 2181.84,-277.87 2204,-288.53 2288.01,-328.92 2562.29,-319.03 2690.42,-311.85"/>
<polygon fill="#757575" stroke="#757575" points="2690.32,-315.36 2700.1,-311.29 2689.91,-308.37 2690.32,-315.36"/>
</g>
<!-- component/chart/ChartSvg.tsx -->
<g id="node43" class="node">
<title>component/chart/ChartSvg.tsx</title>
<path fill="none" stroke="#cfffac" d="M2474.33,-238.03C2474.33,-238.03 2283.67,-238.03 2283.67,-238.03 2279.83,-238.03 2276,-234.19 2276,-230.36 2276,-230.36 2276,-222.69 2276,-222.69 2276,-218.86 2279.83,-215.03 2283.67,-215.03 2283.67,-215.03 2474.33,-215.03 2474.33,-215.03 2478.17,-215.03 2482,-218.86 2482,-222.69 2482,-222.69 2482,-230.36 2482,-230.36 2482,-234.19 2478.17,-238.03 2474.33,-238.03"/>
<text text-anchor="middle" x="2379" y="-222.83" font-family="Arial" font-size="14.00" fill="#cfffac">component/chart/ChartSvg.tsx</text>
</g>
<!-- component/chart/BarChart.tsx&#45;&gt;component/chart/ChartSvg.tsx -->
<g id="edge46" class="edge">
<title>component/chart/BarChart.tsx&#45;&gt;component/chart/ChartSvg.tsx</title>
<path fill="none" stroke="#757575" d="M2038.28,-225.75C2105.64,-225.91 2194.38,-226.11 2264.27,-226.27"/>
<polygon fill="#757575" stroke="#757575" points="2264.24,-229.77 2274.25,-226.29 2264.25,-222.77 2264.24,-229.77"/>
</g>
<!-- hook/useResize.tsx -->
<g id="node44" class="node">
<title>hook/useResize.tsx</title>
<path fill="none" stroke="#cfffac" d="M2441.33,-279.03C2441.33,-279.03 2316.67,-279.03 2316.67,-279.03 2312.83,-279.03 2309,-275.19 2309,-271.36 2309,-271.36 2309,-263.69 2309,-263.69 2309,-259.86 2312.83,-256.03 2316.67,-256.03 2316.67,-256.03 2441.33,-256.03 2441.33,-256.03 2445.17,-256.03 2449,-259.86 2449,-263.69 2449,-263.69 2449,-271.36 2449,-271.36 2449,-275.19 2445.17,-279.03 2441.33,-279.03"/>
<text text-anchor="middle" x="2379" y="-263.83" font-family="Arial" font-size="14.00" fill="#cfffac">hook/useResize.tsx</text>
</g>
<!-- component/chart/BarChart.tsx&#45;&gt;hook/useResize.tsx -->
<g id="edge47" class="edge">
<title>component/chart/BarChart.tsx&#45;&gt;hook/useResize.tsx</title>
<path fill="none" stroke="#757575" d="M2038.5,-234.53C2078.79,-238.18 2125.6,-242.47 2168,-246.53 2210.82,-250.62 2258.54,-255.37 2297.65,-259.32"/>
<polygon fill="#757575" stroke="#757575" points="2297.16,-262.79 2307.46,-260.32 2297.87,-255.83 2297.16,-262.79"/>
</g>
<!-- component/chart/InformaticsChart.tsx&#45;&gt;types/chart.d.ts -->
<g id="edge50" class="edge">
<title>component/chart/InformaticsChart.tsx&#45;&gt;types/chart.d.ts</title>
<path fill="none" stroke="#757575" d="M2062.79,-254.81C2099.52,-257.18 2137.87,-265.94 2168,-287.53 2200.02,-310.47 2170.97,-347.06 2204,-368.53 2334.43,-453.29 2400.09,-391.1 2554,-368.53 2612.04,-360.01 2676.51,-338.53 2717.02,-323.48"/>
<polygon fill="#757575" stroke="#757575" points="2718.24,-326.76 2726.37,-319.96 2715.77,-320.21 2718.24,-326.76"/>
</g>
<!-- component/chart/InformaticsChart/InforMaticsBox.tsx -->
<g id="node45" class="node">
<title>component/chart/InformaticsChart/InforMaticsBox.tsx</title>
<path fill="none" stroke="#c6c5fe" d="M2546.33,-359.03C2546.33,-359.03 2211.67,-359.03 2211.67,-359.03 2207.83,-359.03 2204,-355.19 2204,-351.36 2204,-351.36 2204,-343.69 2204,-343.69 2204,-339.86 2207.83,-336.03 2211.67,-336.03 2211.67,-336.03 2546.33,-336.03 2546.33,-336.03 2550.17,-336.03 2554,-339.86 2554,-343.69 2554,-343.69 2554,-351.36 2554,-351.36 2554,-355.19 2550.17,-359.03 2546.33,-359.03"/>
<text text-anchor="middle" x="2379" y="-343.83" font-family="Arial" font-size="14.00" fill="#c6c5fe">component/chart/InformaticsChart/InforMaticsBox.tsx</text>
</g>
<!-- component/chart/InformaticsChart.tsx&#45;&gt;component/chart/InformaticsChart/InforMaticsBox.tsx -->
<g id="edge49" class="edge">
<title>component/chart/InformaticsChart.tsx&#45;&gt;component/chart/InformaticsChart/InforMaticsBox.tsx</title>
<path fill="none" stroke="#757575" d="M2062.77,-262.95C2098.03,-265.88 2135.58,-272.9 2168,-287.53 2188.06,-296.58 2184.21,-311.9 2204,-321.53 2212.68,-325.75 2221.87,-329.32 2231.31,-332.35"/>
<polygon fill="#757575" stroke="#757575" points="2230.03,-335.62 2240.61,-335.1 2232.02,-328.91 2230.03,-335.62"/>
</g>
<!-- component/chart/LineChart.tsx&#45;&gt;common/chart.ts -->
<g id="edge52" class="edge">
<title>component/chart/LineChart.tsx&#45;&gt;common/chart.ts</title>
<path fill="none" stroke="#757575" d="M2041.33,-184.76C2122.94,-184.95 2234.47,-185.2 2306.38,-185.36"/>
<polygon fill="#757575" stroke="#757575" points="2306.05,-188.86 2316.05,-185.39 2306.06,-181.86 2306.05,-188.86"/>
</g>
<!-- component/chart/LineChart.tsx&#45;&gt;types/chart.d.ts -->
<g id="edge55" class="edge">
<title>component/chart/LineChart.tsx&#45;&gt;types/chart.d.ts</title>
<path fill="none" stroke="#757575" d="M1984.96,-172.53C2090.34,-148.12 2350.56,-100.19 2554,-164.53 2631.48,-189.03 2705.01,-254.78 2738.53,-287.89"/>
<polygon fill="#757575" stroke="#757575" points="2735.94,-290.25 2745.47,-294.87 2740.9,-285.31 2735.94,-290.25"/>
</g>
<!-- component/chart/LineChart.tsx&#45;&gt;component/chart/ChartSvg.tsx -->
<g id="edge53" class="edge">
<title>component/chart/LineChart.tsx&#45;&gt;component/chart/ChartSvg.tsx</title>
<path fill="none" stroke="#757575" d="M2041.36,-193.79C2081,-197.38 2126.6,-201.57 2168,-205.53 2199.27,-208.51 2233.14,-211.85 2264.37,-214.98"/>
<polygon fill="#757575" stroke="#757575" points="2263.94,-218.45 2274.24,-215.97 2264.64,-211.49 2263.94,-218.45"/>
</g>
<!-- component/chart/LineChart.tsx&#45;&gt;hook/useResize.tsx -->
<g id="edge54" class="edge">
<title>component/chart/LineChart.tsx&#45;&gt;hook/useResize.tsx</title>
<path fill="none" stroke="#757575" d="M2041.45,-177.53C2082.82,-178.84 2129.62,-185.71 2168,-205.53 2189.85,-216.8 2182.29,-235.99 2204,-247.53 2232.34,-262.58 2266.89,-268.62 2297.71,-270.52"/>
<polygon fill="#757575" stroke="#757575" points="2297.21,-274 2307.36,-270.97 2297.53,-267.01 2297.21,-274"/>
</g>
<!-- component/Widget/WidgetPropsSettingModal.tsx -->
<g id="node39" class="node">
<title>component/Widget/WidgetPropsSettingModal.tsx</title>
<path fill="none" stroke="#c6c5fe" d="M1121.83,-121.03C1121.83,-121.03 808.17,-121.03 808.17,-121.03 804.33,-121.03 800.5,-117.19 800.5,-113.36 800.5,-113.36 800.5,-105.69 800.5,-105.69 800.5,-101.86 804.33,-98.03 808.17,-98.03 808.17,-98.03 1121.83,-98.03 1121.83,-98.03 1125.67,-98.03 1129.5,-101.86 1129.5,-105.69 1129.5,-105.69 1129.5,-113.36 1129.5,-113.36 1129.5,-117.19 1125.67,-121.03 1121.83,-121.03"/>
<text text-anchor="middle" x="965" y="-105.83" font-family="Arial" font-size="14.00" fill="#c6c5fe">component/Widget/WidgetPropsSettingModal.tsx</text>
</g>
<!-- component/Widget/WidgetPropsSettingModal.tsx&#45;&gt;store/WidgetPropsSettingModalProvider.tsx -->
<g id="edge43" class="edge">
<title>component/Widget/WidgetPropsSettingModal.tsx&#45;&gt;store/WidgetPropsSettingModalProvider.tsx</title>
<path fill="none" stroke="#757575" d="M985.93,-121.48C1023.78,-143.5 1109.31,-190.1 1188,-210.53 1291.8,-237.47 1572.28,-203.2 1669,-249.53 1689.98,-259.58 1684.05,-277.42 1705,-287.53 1727.53,-298.4 1752.75,-305.16 1778,-309.17"/>
<polygon fill="#757575" stroke="#757575" points="1777.31,-312.61 1787.71,-310.57 1778.3,-305.68 1777.31,-312.61"/>
</g>
<!-- component/Widget/WidgetPropsSettingModal/WidgetPropsButtons.tsx -->
<g id="node40" class="node">
<title>component/Widget/WidgetPropsSettingModal/WidgetPropsButtons.tsx</title>
<path fill="none" stroke="#c6c5fe" d="M1653.33,-121.03C1653.33,-121.03 1203.67,-121.03 1203.67,-121.03 1199.83,-121.03 1196,-117.19 1196,-113.36 1196,-113.36 1196,-105.69 1196,-105.69 1196,-101.86 1199.83,-98.03 1203.67,-98.03 1203.67,-98.03 1653.33,-98.03 1653.33,-98.03 1657.17,-98.03 1661,-101.86 1661,-105.69 1661,-105.69 1661,-113.36 1661,-113.36 1661,-117.19 1657.17,-121.03 1653.33,-121.03"/>
<text text-anchor="middle" x="1428.5" y="-105.83" font-family="Arial" font-size="14.00" fill="#c6c5fe">component/Widget/WidgetPropsSettingModal/WidgetPropsButtons.tsx</text>
</g>
<!-- component/Widget/WidgetPropsSettingModal.tsx&#45;&gt;component/Widget/WidgetPropsSettingModal/WidgetPropsButtons.tsx -->
<g id="edge40" class="edge">
<title>component/Widget/WidgetPropsSettingModal.tsx&#45;&gt;component/Widget/WidgetPropsSettingModal/WidgetPropsButtons.tsx</title>
<path fill="none" stroke="#757575" d="M1129.68,-109.53C1147.39,-109.53 1165.67,-109.53 1184.07,-109.53"/>
<polygon fill="#757575" stroke="#757575" points="1184.02,-113.03 1194.02,-109.53 1184.02,-106.03 1184.02,-113.03"/>
</g>
<!-- component/Widget/WidgetPropsSettingModal/WidgetPropsList.tsx -->
<g id="node41" class="node">
<title>component/Widget/WidgetPropsSettingModal/WidgetPropsList.tsx</title>
<path fill="none" stroke="#cfffac" d="M1640.83,-80.03C1640.83,-80.03 1216.17,-80.03 1216.17,-80.03 1212.33,-80.03 1208.5,-76.19 1208.5,-72.36 1208.5,-72.36 1208.5,-64.69 1208.5,-64.69 1208.5,-60.86 1212.33,-57.03 1216.17,-57.03 1216.17,-57.03 1640.83,-57.03 1640.83,-57.03 1644.67,-57.03 1648.5,-60.86 1648.5,-64.69 1648.5,-64.69 1648.5,-72.36 1648.5,-72.36 1648.5,-76.19 1644.67,-80.03 1640.83,-80.03"/>
<text text-anchor="middle" x="1428.5" y="-64.83" font-family="Arial" font-size="14.00" fill="#cfffac">component/Widget/WidgetPropsSettingModal/WidgetPropsList.tsx</text>
</g>
<!-- component/Widget/WidgetPropsSettingModal.tsx&#45;&gt;component/Widget/WidgetPropsSettingModal/WidgetPropsList.tsx -->
<g id="edge41" class="edge">
<title>component/Widget/WidgetPropsSettingModal.tsx&#45;&gt;component/Widget/WidgetPropsSettingModal/WidgetPropsList.tsx</title>
<path fill="none" stroke="#757575" d="M1090.15,-97.54C1122.03,-94.53 1156.28,-91.35 1188,-88.53 1214.39,-86.18 1242.43,-83.76 1269.66,-81.46"/>
<polygon fill="#757575" stroke="#757575" points="1269.69,-84.97 1279.36,-80.64 1269.1,-77.99 1269.69,-84.97"/>
</g>
<!-- component/Widget/WidgetPropsSettingModal.tsx&#45;&gt;hook/useGetApiList.tsx -->
<g id="edge42" class="edge">
<title>component/Widget/WidgetPropsSettingModal.tsx&#45;&gt;hook/useGetApiList.tsx</title>
<path fill="none" stroke="#757575" d="M998.92,-97.6C1041.79,-82.7 1119.35,-57.92 1188,-47.53 1422.02,-12.11 1701.83,-16.48 1843.52,-21.94"/>
<polygon fill="#757575" stroke="#757575" points="1843.09,-25.43 1853.22,-22.32 1843.36,-18.43 1843.09,-25.43"/>
</g>
<!-- component/Widget/WidgetPropsSettingModal/WidgetPropsButtons.tsx&#45;&gt;store/WidgetProvider.tsx -->
<g id="edge44" class="edge">
<title>component/Widget/WidgetPropsSettingModal/WidgetPropsButtons.tsx&#45;&gt;store/WidgetProvider.tsx</title>
<path fill="none" stroke="#757575" d="M1573.82,-97.55C1658.57,-90.51 1763.39,-81.81 1838.34,-75.59"/>
<polygon fill="#757575" stroke="#757575" points="1838.45,-79.09 1848.13,-74.78 1837.87,-72.12 1838.45,-79.09"/>
</g>
<!-- hook/useGetApiList.tsx&#45;&gt;common/api.ts -->
<g id="edge67" class="edge">
<title>hook/useGetApiList.tsx&#45;&gt;common/api.ts</title>
<path fill="none" stroke="#757575" d="M2018.29,-26.53C2102.93,-26.53 2234.23,-26.53 2312.6,-26.53"/>
<polygon fill="#757575" stroke="#757575" points="2312.25,-30.03 2322.25,-26.53 2312.25,-23.03 2312.25,-30.03"/>
</g>
<!-- hook/useGetApiList.tsx&#45;&gt;types/api.d.ts -->
<g id="edge68" class="edge">
<title>hook/useGetApiList.tsx&#45;&gt;types/api.d.ts</title>
<path fill="none" stroke="#757575" d="M2018.46,-18.48C2071.23,-13.65 2141.63,-7.98 2204,-5.53 2359.44,0.59 2398.65,2.47 2554,-5.53 2602.04,-8 2656.22,-13.73 2696.58,-18.59"/>
<polygon fill="#757575" stroke="#757575" points="2696,-22.04 2706.35,-19.78 2696.84,-15.09 2696,-22.04"/>
</g>
<!-- component/chart/InformaticsChart/InforMaticsBox.tsx&#45;&gt;types/chart.d.ts -->
<g id="edge51" class="edge">
<title>component/chart/InformaticsChart/InforMaticsBox.tsx&#45;&gt;types/chart.d.ts</title>
<path fill="none" stroke="#757575" d="M2493.01,-335.55C2557.29,-328.74 2635.63,-320.44 2690.3,-314.65"/>
<polygon fill="#757575" stroke="#757575" points="2690.51,-318.14 2700.09,-313.61 2689.77,-311.18 2690.51,-318.14"/>
</g>
<!-- component/common/DatePicker/DatePickerTitle.tsx&#45;&gt;types/common.d.ts -->
<g id="edge59" class="edge">
<title>component/common/DatePicker/DatePickerTitle.tsx&#45;&gt;types/common.d.ts</title>
<path fill="none" stroke="#757575" d="M2550.8,-870.53C2595.39,-870.53 2641.32,-870.53 2678.53,-870.53"/>
<polygon fill="#757575" stroke="#757575" points="2678.28,-874.03 2688.28,-870.53 2678.28,-867.03 2678.28,-874.03"/>
</g>
<!-- component/common/DatePicker/ListPicker.tsx&#45;&gt;types/common.d.ts -->
<g id="edge61" class="edge">
<title>component/common/DatePicker/ListPicker.tsx&#45;&gt;types/common.d.ts</title>
<path fill="none" stroke="#757575" d="M2490.46,-899.53C2550.69,-892.99 2623.85,-885.04 2678.35,-879.12"/>
<polygon fill="#757575" stroke="#757575" points="2678.62,-882.61 2688.18,-878.05 2677.86,-875.65 2678.62,-882.61"/>
</g>
<!-- component/common/DatePicker/ListPickerItem.tsx -->
<g id="node49" class="node">
<title>component/common/DatePicker/ListPickerItem.tsx</title>
<path fill="none" stroke="#cfffac" d="M2919.33,-923.03C2919.33,-923.03 2597.67,-923.03 2597.67,-923.03 2593.83,-923.03 2590,-919.19 2590,-915.36 2590,-915.36 2590,-907.69 2590,-907.69 2590,-903.86 2593.83,-900.03 2597.67,-900.03 2597.67,-900.03 2919.33,-900.03 2919.33,-900.03 2923.17,-900.03 2927,-903.86 2927,-907.69 2927,-907.69 2927,-915.36 2927,-915.36 2927,-919.19 2923.17,-923.03 2919.33,-923.03"/>
<text text-anchor="middle" x="2758.5" y="-907.83" font-family="Arial" font-size="14.00" fill="#cfffac">component/common/DatePicker/ListPickerItem.tsx</text>
</g>
<!-- component/common/DatePicker/ListPicker.tsx&#45;&gt;component/common/DatePicker/ListPickerItem.tsx -->
<g id="edge60" class="edge">
<title>component/common/DatePicker/ListPicker.tsx&#45;&gt;component/common/DatePicker/ListPickerItem.tsx</title>
<path fill="none" stroke="#757575" d="M2533.27,-911.53C2548.08,-911.53 2563.2,-911.53 2578.23,-911.53"/>
<polygon fill="#757575" stroke="#757575" points="2578.19,-915.03 2588.19,-911.53 2578.19,-908.03 2578.19,-915.03"/>
</g>
<!-- page/Dashboard.tsx&#45;&gt;component/Dashboard/DashboardBody.tsx -->
<g id="edge69" class="edge">
<title>page/Dashboard.tsx&#45;&gt;component/Dashboard/DashboardBody.tsx</title>
<path fill="none" stroke="#757575" d="M403.39,-209.53C413.11,-209.53 423.39,-209.53 433.92,-209.53"/>
<polygon fill="#757575" stroke="#757575" points="433.91,-213.03 443.91,-209.53 433.91,-206.03 433.91,-213.03"/>
</g>
<!-- page/Dashboard.tsx&#45;&gt;component/Dashboard/DashboardHeader.tsx -->
<g id="edge70" class="edge">
<title>page/Dashboard.tsx&#45;&gt;component/Dashboard/DashboardHeader.tsx</title>
<path fill="none" stroke="#757575" d="M339.71,-221.5C375.84,-277.62 528.67,-515.03 575.68,-588.06"/>
<polygon fill="#757575" stroke="#757575" points="572.65,-589.81 581,-596.33 578.53,-586.03 572.65,-589.81"/>
</g>
<!-- page/Dashboard.tsx&#45;&gt;component/Widget/WidgetPropsSettingModal.tsx -->
<g id="edge71" class="edge">
<title>page/Dashboard.tsx&#45;&gt;component/Widget/WidgetPropsSettingModal.tsx</title>
<path fill="none" stroke="#757575" d="M394.47,-197.56C409.07,-194.84 424.57,-192.02 439,-189.53 589.33,-163.51 627.11,-158.09 778,-135.53 806.18,-131.31 836.8,-126.94 864.91,-123.02"/>
<polygon fill="#757575" stroke="#757575" points="865.04,-126.54 874.46,-121.69 864.07,-119.6 865.04,-126.54"/>
</g>
</g>
</svg>
