<?xml version="1.0" encoding="UTF-8" standalone="no"?>
<!DOCTYPE svg PUBLIC "-//W3C//DTD SVG 1.1//EN"
 "http://www.w3.org/Graphics/SVG/1.1/DTD/svg11.dtd">
<!-- Generated by graphviz version 7.1.0 (20230121.1956)
 -->
<!-- Title: G Pages: 1 -->
<svg width="2369pt" height="820pt"
 viewBox="0.00 0.00 2369.20 820.39" xmlns="http://www.w3.org/2000/svg" xmlns:xlink="http://www.w3.org/1999/xlink">
<g id="graph0" class="graph" transform="scale(1 1) rotate(0) translate(21.6 798.79)">
<title>G</title>
<polygon fill="#111111" stroke="none" points="-21.6,21.6 -21.6,-798.79 2347.6,-798.79 2347.6,21.6 -21.6,21.6"/>
<!-- App.tsx -->
<g id="node1" class="node">
<title>App.tsx</title>
<path fill="none" stroke="#c6c5fe" d="M57.33,-401.53C57.33,-401.53 7.67,-401.53 7.67,-401.53 3.83,-401.53 0,-397.7 0,-393.87 0,-393.87 0,-386.2 0,-386.2 0,-382.37 3.83,-378.53 7.67,-378.53 7.67,-378.53 57.33,-378.53 57.33,-378.53 61.17,-378.53 65,-382.37 65,-386.2 65,-386.2 65,-393.87 65,-393.87 65,-397.7 61.17,-401.53 57.33,-401.53"/>
<text text-anchor="middle" x="32.5" y="-386.33" font-family="Arial" font-size="14.00" fill="#c6c5fe">App.tsx</text>
</g>
<!-- router/Router.tsx -->
<g id="node2" class="node">
<title>router/Router.tsx</title>
<path fill="none" stroke="#c6c5fe" d="M215.33,-401.53C215.33,-401.53 108.67,-401.53 108.67,-401.53 104.83,-401.53 101,-397.7 101,-393.87 101,-393.87 101,-386.2 101,-386.2 101,-382.37 104.83,-378.53 108.67,-378.53 108.67,-378.53 215.33,-378.53 215.33,-378.53 219.17,-378.53 223,-382.37 223,-386.2 223,-386.2 223,-393.87 223,-393.87 223,-397.7 219.17,-401.53 215.33,-401.53"/>
<text text-anchor="middle" x="162" y="-386.33" font-family="Arial" font-size="14.00" fill="#c6c5fe">router/Router.tsx</text>
</g>
<!-- App.tsx&#45;&gt;router/Router.tsx -->
<g id="edge1" class="edge">
<title>App.tsx&#45;&gt;router/Router.tsx</title>
<path fill="none" stroke="#757575" d="M65.34,-390.03C72.7,-390.03 80.81,-390.03 89.12,-390.03"/>
<polygon fill="#757575" stroke="#757575" points="88.99,-393.53 98.99,-390.03 88.99,-386.53 88.99,-393.53"/>
</g>
<!-- page/Dashboard.tsx -->
<g id="node35" class="node">
<title>page/Dashboard.tsx</title>
<path fill="none" stroke="#c6c5fe" d="M395.33,-401.53C395.33,-401.53 266.67,-401.53 266.67,-401.53 262.83,-401.53 259,-397.7 259,-393.87 259,-393.87 259,-386.2 259,-386.2 259,-382.37 262.83,-378.53 266.67,-378.53 266.67,-378.53 395.33,-378.53 395.33,-378.53 399.17,-378.53 403,-382.37 403,-386.2 403,-386.2 403,-393.87 403,-393.87 403,-397.7 399.17,-401.53 395.33,-401.53"/>
<text text-anchor="middle" x="331" y="-386.33" font-family="Arial" font-size="14.00" fill="#c6c5fe">page/Dashboard.tsx</text>
</g>
<!-- router/Router.tsx&#45;&gt;page/Dashboard.tsx -->
<g id="edge56" class="edge">
<title>router/Router.tsx&#45;&gt;page/Dashboard.tsx</title>
<path fill="none" stroke="#757575" d="M223.29,-390.03C231.1,-390.03 239.21,-390.03 247.3,-390.03"/>
<polygon fill="#757575" stroke="#757575" points="247.19,-393.53 257.19,-390.03 247.19,-386.53 247.19,-393.53"/>
</g>
<!-- api.ts -->
<g id="node3" class="node">
<title>api.ts</title>
<path fill="none" stroke="#c6c5fe" d="M1037.83,-143.53C1037.83,-143.53 999.17,-143.53 999.17,-143.53 995.33,-143.53 991.5,-139.7 991.5,-135.87 991.5,-135.87 991.5,-128.2 991.5,-128.2 991.5,-124.37 995.33,-120.53 999.17,-120.53 999.17,-120.53 1037.83,-120.53 1037.83,-120.53 1041.67,-120.53 1045.5,-124.37 1045.5,-128.2 1045.5,-128.2 1045.5,-135.87 1045.5,-135.87 1045.5,-139.7 1041.67,-143.53 1037.83,-143.53"/>
<text text-anchor="middle" x="1018.5" y="-128.33" font-family="Arial" font-size="14.00" fill="#c6c5fe">api.ts</text>
</g>
<!-- types/api.d.ts -->
<g id="node4" class="node">
<title>types/api.d.ts</title>
<path fill="none" stroke="#cfffac" d="M1567.83,-82.53C1567.83,-82.53 1482.17,-82.53 1482.17,-82.53 1478.33,-82.53 1474.5,-78.7 1474.5,-74.87 1474.5,-74.87 1474.5,-67.2 1474.5,-67.2 1474.5,-63.37 1478.33,-59.53 1482.17,-59.53 1482.17,-59.53 1567.83,-59.53 1567.83,-59.53 1571.67,-59.53 1575.5,-63.37 1575.5,-67.2 1575.5,-67.2 1575.5,-74.87 1575.5,-74.87 1575.5,-78.7 1571.67,-82.53 1567.83,-82.53"/>
<text text-anchor="middle" x="1525" y="-67.33" font-family="Arial" font-size="14.00" fill="#cfffac">types/api.d.ts</text>
</g>
<!-- api.ts&#45;&gt;types/api.d.ts -->
<g id="edge2" class="edge">
<title>api.ts&#45;&gt;types/api.d.ts</title>
<path fill="none" stroke="#757575" d="M1045.64,-127.6C1094.5,-119.44 1203.03,-101.88 1295,-91.03 1351.82,-84.33 1416.81,-78.86 1463,-75.35"/>
<polygon fill="#757575" stroke="#757575" points="1463.11,-78.85 1472.82,-74.61 1462.58,-71.87 1463.11,-78.85"/>
</g>
<!-- asset/image/pause.png -->
<g id="node5" class="node">
<title>asset/image/pause.png</title>
<path fill="none" stroke="#cfffac" d="M1092.83,-590.53C1092.83,-590.53 944.17,-590.53 944.17,-590.53 940.33,-590.53 936.5,-586.7 936.5,-582.87 936.5,-582.87 936.5,-575.2 936.5,-575.2 936.5,-571.37 940.33,-567.53 944.17,-567.53 944.17,-567.53 1092.83,-567.53 1092.83,-567.53 1096.67,-567.53 1100.5,-571.37 1100.5,-575.2 1100.5,-575.2 1100.5,-582.87 1100.5,-582.87 1100.5,-586.7 1096.67,-590.53 1092.83,-590.53"/>
<text text-anchor="middle" x="1018.5" y="-575.33" font-family="Arial" font-size="14.00" fill="#cfffac">asset/image/pause.png</text>
</g>
<!-- asset/image/play.png -->
<g id="node6" class="node">
<title>asset/image/play.png</title>
<path fill="none" stroke="#cfffac" d="M1086.33,-711.53C1086.33,-711.53 950.67,-711.53 950.67,-711.53 946.83,-711.53 943,-707.7 943,-703.87 943,-703.87 943,-696.2 943,-696.2 943,-692.37 946.83,-688.53 950.67,-688.53 950.67,-688.53 1086.33,-688.53 1086.33,-688.53 1090.17,-688.53 1094,-692.37 1094,-696.2 1094,-696.2 1094,-703.87 1094,-703.87 1094,-707.7 1090.17,-711.53 1086.33,-711.53"/>
<text text-anchor="middle" x="1018.5" y="-696.33" font-family="Arial" font-size="14.00" fill="#cfffac">asset/image/play.png</text>
</g>
<!-- common/chart.ts -->
<g id="node7" class="node">
<title>common/chart.ts</title>
<path fill="none" stroke="#c6c5fe" d="M2019.33,-123.53C2019.33,-123.53 1912.67,-123.53 1912.67,-123.53 1908.83,-123.53 1905,-119.7 1905,-115.87 1905,-115.87 1905,-108.2 1905,-108.2 1905,-104.37 1908.83,-100.53 1912.67,-100.53 1912.67,-100.53 2019.33,-100.53 2019.33,-100.53 2023.17,-100.53 2027,-104.37 2027,-108.2 2027,-108.2 2027,-115.87 2027,-115.87 2027,-119.7 2023.17,-123.53 2019.33,-123.53"/>
<text text-anchor="middle" x="1966" y="-108.33" font-family="Arial" font-size="14.00" fill="#c6c5fe">common/chart.ts</text>
</g>
<!-- types/chart.d.ts -->
<g id="node8" class="node">
<title>types/chart.d.ts</title>
<path fill="none" stroke="#cfffac" d="M2300.33,-204.53C2300.33,-204.53 2202.67,-204.53 2202.67,-204.53 2198.83,-204.53 2195,-200.7 2195,-196.87 2195,-196.87 2195,-189.2 2195,-189.2 2195,-185.37 2198.83,-181.53 2202.67,-181.53 2202.67,-181.53 2300.33,-181.53 2300.33,-181.53 2304.17,-181.53 2308,-185.37 2308,-189.2 2308,-189.2 2308,-196.87 2308,-196.87 2308,-200.7 2304.17,-204.53 2300.33,-204.53"/>
<text text-anchor="middle" x="2251.5" y="-189.33" font-family="Arial" font-size="14.00" fill="#cfffac">types/chart.d.ts</text>
</g>
<!-- common/chart.ts&#45;&gt;types/chart.d.ts -->
<g id="edge3" class="edge">
<title>common/chart.ts&#45;&gt;types/chart.d.ts</title>
<path fill="none" stroke="#757575" d="M2027.42,-113.16C2061.47,-115.23 2104.38,-120.25 2141,-132.03 2171.58,-141.87 2203.3,-160.65 2224.68,-174.78"/>
<polygon fill="#757575" stroke="#757575" points="2222.52,-177.54 2232.76,-180.25 2226.44,-171.74 2222.52,-177.54"/>
</g>
<!-- common/date.ts -->
<g id="node9" class="node">
<title>common/date.ts</title>
<path fill="none" stroke="#cfffac" d="M2017.83,-571.53C2017.83,-571.53 1914.17,-571.53 1914.17,-571.53 1910.33,-571.53 1906.5,-567.7 1906.5,-563.87 1906.5,-563.87 1906.5,-556.2 1906.5,-556.2 1906.5,-552.37 1910.33,-548.53 1914.17,-548.53 1914.17,-548.53 2017.83,-548.53 2017.83,-548.53 2021.67,-548.53 2025.5,-552.37 2025.5,-556.2 2025.5,-556.2 2025.5,-563.87 2025.5,-563.87 2025.5,-567.7 2021.67,-571.53 2017.83,-571.53"/>
<text text-anchor="middle" x="1966" y="-556.33" font-family="Arial" font-size="14.00" fill="#cfffac">common/date.ts</text>
</g>
<!-- common/widget.ts -->
<g id="node10" class="node">
<title>common/widget.ts</title>
<path fill="none" stroke="#cfffac" d="M1583.33,-285.53C1583.33,-285.53 1466.67,-285.53 1466.67,-285.53 1462.83,-285.53 1459,-281.7 1459,-277.87 1459,-277.87 1459,-270.2 1459,-270.2 1459,-266.37 1462.83,-262.53 1466.67,-262.53 1466.67,-262.53 1583.33,-262.53 1583.33,-262.53 1587.17,-262.53 1591,-266.37 1591,-270.2 1591,-270.2 1591,-277.87 1591,-277.87 1591,-281.7 1587.17,-285.53 1583.33,-285.53"/>
<text text-anchor="middle" x="1525" y="-270.33" font-family="Arial" font-size="14.00" fill="#cfffac">common/widget.ts</text>
</g>
<!-- component/Dashboard/CommonStyle.ts -->
<g id="node11" class="node">
<title>component/Dashboard/CommonStyle.ts</title>
<path fill="none" stroke="#cfffac" d="M1652.33,-490.53C1652.33,-490.53 1397.67,-490.53 1397.67,-490.53 1393.83,-490.53 1390,-486.7 1390,-482.87 1390,-482.87 1390,-475.2 1390,-475.2 1390,-471.37 1393.83,-467.53 1397.67,-467.53 1397.67,-467.53 1652.33,-467.53 1652.33,-467.53 1656.17,-467.53 1660,-471.37 1660,-475.2 1660,-475.2 1660,-482.87 1660,-482.87 1660,-486.7 1656.17,-490.53 1652.33,-490.53"/>
<text text-anchor="middle" x="1525" y="-475.33" font-family="Arial" font-size="14.00" fill="#cfffac">component/Dashboard/CommonStyle.ts</text>
</g>
<!-- component/Dashboard/DashboardHeader.tsx -->
<g id="node12" class="node">
<title>component/Dashboard/DashboardHeader.tsx</title>
<path fill="none" stroke="#c6c5fe" d="M734.33,-590.53C734.33,-590.53 446.67,-590.53 446.67,-590.53 442.83,-590.53 439,-586.7 439,-582.87 439,-582.87 439,-575.2 439,-575.2 439,-571.37 442.83,-567.53 446.67,-567.53 446.67,-567.53 734.33,-567.53 734.33,-567.53 738.17,-567.53 742,-571.37 742,-575.2 742,-575.2 742,-582.87 742,-582.87 742,-586.7 738.17,-590.53 734.33,-590.53"/>
<text text-anchor="middle" x="590.5" y="-575.33" font-family="Arial" font-size="14.00" fill="#c6c5fe">component/Dashboard/DashboardHeader.tsx</text>
</g>
<!-- component/Dashboard/DashboardHeader.tsx&#45;&gt;asset/image/pause.png -->
<g id="edge4" class="edge">
<title>component/Dashboard/DashboardHeader.tsx&#45;&gt;asset/image/pause.png</title>
<path fill="none" stroke="#757575" d="M742.29,-579.03C803.17,-579.03 871.47,-579.03 924.81,-579.03"/>
<polygon fill="#757575" stroke="#757575" points="924.78,-582.53 934.78,-579.03 924.78,-575.53 924.78,-582.53"/>
</g>
<!-- component/Dashboard/DashboardHeader.tsx&#45;&gt;asset/image/play.png -->
<g id="edge5" class="edge">
<title>component/Dashboard/DashboardHeader.tsx&#45;&gt;asset/image/play.png</title>
<path fill="none" stroke="#757575" d="M607.94,-591.03C639.22,-613.12 710.25,-659.83 778,-680.03 827.5,-694.79 885.13,-699.96 931.45,-701.35"/>
<polygon fill="#757575" stroke="#757575" points="931.07,-704.84 941.16,-701.58 931.24,-697.84 931.07,-704.84"/>
</g>
<!-- component/Dashboard/DashboardHeader/CurrentTime.tsx -->
<g id="node13" class="node">
<title>component/Dashboard/DashboardHeader/CurrentTime.tsx</title>
<path fill="none" stroke="#cfffac" d="M1203.83,-670.53C1203.83,-670.53 833.17,-670.53 833.17,-670.53 829.33,-670.53 825.5,-666.7 825.5,-662.87 825.5,-662.87 825.5,-655.2 825.5,-655.2 825.5,-651.37 829.33,-647.53 833.17,-647.53 833.17,-647.53 1203.83,-647.53 1203.83,-647.53 1207.67,-647.53 1211.5,-651.37 1211.5,-655.2 1211.5,-655.2 1211.5,-662.87 1211.5,-662.87 1211.5,-666.7 1207.67,-670.53 1203.83,-670.53"/>
<text text-anchor="middle" x="1018.5" y="-655.33" font-family="Arial" font-size="14.00" fill="#cfffac">component/Dashboard/DashboardHeader/CurrentTime.tsx</text>
</g>
<!-- component/Dashboard/DashboardHeader.tsx&#45;&gt;component/Dashboard/DashboardHeader/CurrentTime.tsx -->
<g id="edge6" class="edge">
<title>component/Dashboard/DashboardHeader.tsx&#45;&gt;component/Dashboard/DashboardHeader/CurrentTime.tsx</title>
<path fill="none" stroke="#757575" d="M626.11,-591.02C663.23,-603.41 724.1,-622.39 778,-633.03 803.88,-638.14 831.54,-642.31 858.53,-645.7"/>
<polygon fill="#757575" stroke="#757575" points="857.79,-649.13 868.14,-646.87 858.64,-642.18 857.79,-649.13"/>
</g>
<!-- component/Dashboard/DashboardHeader/DatePickerArea.tsx -->
<g id="node14" class="node">
<title>component/Dashboard/DashboardHeader/DatePickerArea.tsx</title>
<path fill="none" stroke="#c6c5fe" d="M1214.33,-510.53C1214.33,-510.53 822.67,-510.53 822.67,-510.53 818.83,-510.53 815,-506.7 815,-502.87 815,-502.87 815,-495.2 815,-495.2 815,-491.37 818.83,-487.53 822.67,-487.53 822.67,-487.53 1214.33,-487.53 1214.33,-487.53 1218.17,-487.53 1222,-491.37 1222,-495.2 1222,-495.2 1222,-502.87 1222,-502.87 1222,-506.7 1218.17,-510.53 1214.33,-510.53"/>
<text text-anchor="middle" x="1018.5" y="-495.33" font-family="Arial" font-size="14.00" fill="#c6c5fe">component/Dashboard/DashboardHeader/DatePickerArea.tsx</text>
</g>
<!-- component/Dashboard/DashboardHeader.tsx&#45;&gt;component/Dashboard/DashboardHeader/DatePickerArea.tsx -->
<g id="edge7" class="edge">
<title>component/Dashboard/DashboardHeader.tsx&#45;&gt;component/Dashboard/DashboardHeader/DatePickerArea.tsx</title>
<path fill="none" stroke="#757575" d="M655.28,-567.06C732.09,-552.63 860.93,-528.43 942.46,-513.12"/>
<polygon fill="#757575" stroke="#757575" points="942.97,-516.59 952.15,-511.3 941.67,-509.71 942.97,-516.59"/>
</g>
<!-- component/Dashboard/DashboardHeader/SelectRealTimeRangeArea.tsx -->
<g id="node15" class="node">
<title>component/Dashboard/DashboardHeader/SelectRealTimeRangeArea.tsx</title>
<path fill="none" stroke="#c6c5fe" d="M1251.33,-469.53C1251.33,-469.53 785.67,-469.53 785.67,-469.53 781.83,-469.53 778,-465.7 778,-461.87 778,-461.87 778,-454.2 778,-454.2 778,-450.37 781.83,-446.53 785.67,-446.53 785.67,-446.53 1251.33,-446.53 1251.33,-446.53 1255.17,-446.53 1259,-450.37 1259,-454.2 1259,-454.2 1259,-461.87 1259,-461.87 1259,-465.7 1255.17,-469.53 1251.33,-469.53"/>
<text text-anchor="middle" x="1018.5" y="-454.33" font-family="Arial" font-size="14.00" fill="#c6c5fe">component/Dashboard/DashboardHeader/SelectRealTimeRangeArea.tsx</text>
</g>
<!-- component/Dashboard/DashboardHeader.tsx&#45;&gt;component/Dashboard/DashboardHeader/SelectRealTimeRangeArea.tsx -->
<g id="edge8" class="edge">
<title>component/Dashboard/DashboardHeader.tsx&#45;&gt;component/Dashboard/DashboardHeader/SelectRealTimeRangeArea.tsx</title>
<path fill="none" stroke="#757575" d="M607.94,-567.04C639.22,-544.95 710.25,-498.24 778,-478.03 784.76,-476.02 791.67,-474.18 798.68,-472.51"/>
<polygon fill="#757575" stroke="#757575" points="799.3,-475.96 808.29,-470.35 797.77,-469.13 799.3,-475.96"/>
</g>
<!-- store/DashboardProvider.tsx -->
<g id="node16" class="node">
<title>store/DashboardProvider.tsx</title>
<path fill="none" stroke="#c6c5fe" d="M1615.83,-652.53C1615.83,-652.53 1434.17,-652.53 1434.17,-652.53 1430.33,-652.53 1426.5,-648.7 1426.5,-644.87 1426.5,-644.87 1426.5,-637.2 1426.5,-637.2 1426.5,-633.37 1430.33,-629.53 1434.17,-629.53 1434.17,-629.53 1615.83,-629.53 1615.83,-629.53 1619.67,-629.53 1623.5,-633.37 1623.5,-637.2 1623.5,-637.2 1623.5,-644.87 1623.5,-644.87 1623.5,-648.7 1619.67,-652.53 1615.83,-652.53"/>
<text text-anchor="middle" x="1525" y="-637.33" font-family="Arial" font-size="14.00" fill="#c6c5fe">store/DashboardProvider.tsx</text>
</g>
<!-- component/Dashboard/DashboardHeader.tsx&#45;&gt;store/DashboardProvider.tsx -->
<g id="edge9" class="edge">
<title>component/Dashboard/DashboardHeader.tsx&#45;&gt;store/DashboardProvider.tsx</title>
<path fill="none" stroke="#757575" d="M694.5,-591.02C721.64,-593.92 750.9,-596.82 778,-599.03 1004.18,-617.51 1269.61,-630.35 1415.02,-636.63"/>
<polygon fill="#757575" stroke="#757575" points="1414.48,-640.11 1424.62,-637.04 1414.78,-633.11 1414.48,-640.11"/>
</g>
<!-- component/Dashboard/DashboardHeader/DatePickerArea.tsx&#45;&gt;common/date.ts -->
<g id="edge10" class="edge">
<title>component/Dashboard/DashboardHeader/DatePickerArea.tsx&#45;&gt;common/date.ts</title>
<path fill="none" stroke="#757575" d="M1186.81,-510.99C1211.23,-514.52 1235.91,-519.1 1259,-525.03 1275.79,-529.35 1278.06,-536.38 1295,-540.03 1509.62,-586.3 1771.8,-575.23 1894.87,-566.21"/>
<polygon fill="#757575" stroke="#757575" points="1895.12,-569.7 1904.83,-565.46 1894.59,-562.72 1895.12,-569.7"/>
</g>
<!-- component/Dashboard/DashboardHeader/DatePickerArea.tsx&#45;&gt;component/Dashboard/CommonStyle.ts -->
<g id="edge11" class="edge">
<title>component/Dashboard/DashboardHeader/DatePickerArea.tsx&#45;&gt;component/Dashboard/CommonStyle.ts</title>
<path fill="none" stroke="#757575" d="M1222.16,-491C1274.39,-488.93 1329.57,-486.74 1378.27,-484.81"/>
<polygon fill="#757575" stroke="#757575" points="1378.16,-488.32 1388.01,-484.42 1377.88,-481.32 1378.16,-488.32"/>
</g>
<!-- component/Dashboard/DashboardHeader/DatePickerArea.tsx&#45;&gt;store/DashboardProvider.tsx -->
<g id="edge16" class="edge">
<title>component/Dashboard/DashboardHeader/DatePickerArea.tsx&#45;&gt;store/DashboardProvider.tsx</title>
<path fill="none" stroke="#757575" d="M1222.36,-504.27C1235.45,-509.59 1247.83,-516.4 1259,-525.03 1294.72,-552.66 1259.06,-592.71 1295,-620.03 1335.52,-650.84 1392.47,-656.17 1439.45,-653.76"/>
<polygon fill="#757575" stroke="#757575" points="1439.59,-657.26 1449.34,-653.11 1439.13,-650.27 1439.59,-657.26"/>
</g>
<!-- component/Dashboard/DashboardHeader/DateBox.tsx -->
<g id="node17" class="node">
<title>component/Dashboard/DashboardHeader/DateBox.tsx</title>
<path fill="none" stroke="#cfffac" d="M1698.33,-611.53C1698.33,-611.53 1351.67,-611.53 1351.67,-611.53 1347.83,-611.53 1344,-607.7 1344,-603.87 1344,-603.87 1344,-596.2 1344,-596.2 1344,-592.37 1347.83,-588.53 1351.67,-588.53 1351.67,-588.53 1698.33,-588.53 1698.33,-588.53 1702.17,-588.53 1706,-592.37 1706,-596.2 1706,-596.2 1706,-603.87 1706,-603.87 1706,-607.7 1702.17,-611.53 1698.33,-611.53"/>
<text text-anchor="middle" x="1525" y="-596.33" font-family="Arial" font-size="14.00" fill="#cfffac">component/Dashboard/DashboardHeader/DateBox.tsx</text>
</g>
<!-- component/Dashboard/DashboardHeader/DatePickerArea.tsx&#45;&gt;component/Dashboard/DashboardHeader/DateBox.tsx -->
<g id="edge12" class="edge">
<title>component/Dashboard/DashboardHeader/DatePickerArea.tsx&#45;&gt;component/Dashboard/DashboardHeader/DateBox.tsx</title>
<path fill="none" stroke="#757575" d="M1222.37,-508.67C1235.16,-513.02 1247.49,-518.4 1259,-525.03 1282.42,-538.52 1271.62,-560.49 1295,-574.03 1306.88,-580.92 1319.7,-586.42 1332.98,-590.8"/>
<polygon fill="#757575" stroke="#757575" points="1331.69,-594.06 1342.27,-593.62 1333.72,-587.36 1331.69,-594.06"/>
</g>
<!-- component/common/DatePicker.tsx -->
<g id="node18" class="node">
<title>component/common/DatePicker.tsx</title>
<path fill="none" stroke="#c6c5fe" d="M1638.33,-693.53C1638.33,-693.53 1411.67,-693.53 1411.67,-693.53 1407.83,-693.53 1404,-689.7 1404,-685.87 1404,-685.87 1404,-678.2 1404,-678.2 1404,-674.37 1407.83,-670.53 1411.67,-670.53 1411.67,-670.53 1638.33,-670.53 1638.33,-670.53 1642.17,-670.53 1646,-674.37 1646,-678.2 1646,-678.2 1646,-685.87 1646,-685.87 1646,-689.7 1642.17,-693.53 1638.33,-693.53"/>
<text text-anchor="middle" x="1525" y="-678.33" font-family="Arial" font-size="14.00" fill="#c6c5fe">component/common/DatePicker.tsx</text>
</g>
<!-- component/Dashboard/DashboardHeader/DatePickerArea.tsx&#45;&gt;component/common/DatePicker.tsx -->
<g id="edge13" class="edge">
<title>component/Dashboard/DashboardHeader/DatePickerArea.tsx&#45;&gt;component/common/DatePicker.tsx</title>
<path fill="none" stroke="#757575" d="M1165.07,-510.95C1199.16,-519.81 1233.06,-534.37 1259,-558.03 1295.14,-591 1256.43,-631.95 1295,-662.03 1337.39,-695.09 1398.57,-698.9 1447.03,-695.08"/>
<polygon fill="#757575" stroke="#757575" points="1447.29,-698.57 1456.92,-694.17 1446.64,-691.6 1447.29,-698.57"/>
</g>
<!-- hook/useBoolean.tsx -->
<g id="node19" class="node">
<title>hook/useBoolean.tsx</title>
<path fill="none" stroke="#cfffac" d="M1591.83,-531.53C1591.83,-531.53 1458.17,-531.53 1458.17,-531.53 1454.33,-531.53 1450.5,-527.7 1450.5,-523.87 1450.5,-523.87 1450.5,-516.2 1450.5,-516.2 1450.5,-512.37 1454.33,-508.53 1458.17,-508.53 1458.17,-508.53 1591.83,-508.53 1591.83,-508.53 1595.67,-508.53 1599.5,-512.37 1599.5,-516.2 1599.5,-516.2 1599.5,-523.87 1599.5,-523.87 1599.5,-527.7 1595.67,-531.53 1591.83,-531.53"/>
<text text-anchor="middle" x="1525" y="-516.33" font-family="Arial" font-size="14.00" fill="#cfffac">hook/useBoolean.tsx</text>
</g>
<!-- component/Dashboard/DashboardHeader/DatePickerArea.tsx&#45;&gt;hook/useBoolean.tsx -->
<g id="edge14" class="edge">
<title>component/Dashboard/DashboardHeader/DatePickerArea.tsx&#45;&gt;hook/useBoolean.tsx</title>
<path fill="none" stroke="#757575" d="M1222.16,-507.47C1297.83,-510.62 1379.69,-514.03 1439.05,-516.5"/>
<polygon fill="#757575" stroke="#757575" points="1438.59,-519.98 1448.73,-516.9 1438.88,-512.99 1438.59,-519.98"/>
</g>
<!-- hook/useOutsideClick.tsx -->
<g id="node20" class="node">
<title>hook/useOutsideClick.tsx</title>
<path fill="none" stroke="#cfffac" d="M1605.33,-449.53C1605.33,-449.53 1444.67,-449.53 1444.67,-449.53 1440.83,-449.53 1437,-445.7 1437,-441.87 1437,-441.87 1437,-434.2 1437,-434.2 1437,-430.37 1440.83,-426.53 1444.67,-426.53 1444.67,-426.53 1605.33,-426.53 1605.33,-426.53 1609.17,-426.53 1613,-430.37 1613,-434.2 1613,-434.2 1613,-441.87 1613,-441.87 1613,-445.7 1609.17,-449.53 1605.33,-449.53"/>
<text text-anchor="middle" x="1525" y="-434.33" font-family="Arial" font-size="14.00" fill="#cfffac">hook/useOutsideClick.tsx</text>
</g>
<!-- component/Dashboard/DashboardHeader/DatePickerArea.tsx&#45;&gt;hook/useOutsideClick.tsx -->
<g id="edge15" class="edge">
<title>component/Dashboard/DashboardHeader/DatePickerArea.tsx&#45;&gt;hook/useOutsideClick.tsx</title>
<path fill="none" stroke="#757575" d="M1222.23,-487.34C1234.78,-484.75 1247.13,-481.67 1259,-478.03 1276.5,-472.67 1277.5,-463.39 1295,-458.03 1336.59,-445.3 1384.29,-439.78 1425.34,-437.65"/>
<polygon fill="#757575" stroke="#757575" points="1425.39,-441.15 1435.22,-437.2 1425.07,-434.15 1425.39,-441.15"/>
</g>
<!-- types/widget.d.ts -->
<g id="node21" class="node">
<title>types/widget.d.ts</title>
<path fill="none" stroke="#cfffac" d="M1578.83,-326.53C1578.83,-326.53 1471.17,-326.53 1471.17,-326.53 1467.33,-326.53 1463.5,-322.7 1463.5,-318.87 1463.5,-318.87 1463.5,-311.2 1463.5,-311.2 1463.5,-307.37 1467.33,-303.53 1471.17,-303.53 1471.17,-303.53 1578.83,-303.53 1578.83,-303.53 1582.67,-303.53 1586.5,-307.37 1586.5,-311.2 1586.5,-311.2 1586.5,-318.87 1586.5,-318.87 1586.5,-322.7 1582.67,-326.53 1578.83,-326.53"/>
<text text-anchor="middle" x="1525" y="-311.33" font-family="Arial" font-size="14.00" fill="#cfffac">types/widget.d.ts</text>
</g>
<!-- component/Dashboard/DashboardHeader/DatePickerArea.tsx&#45;&gt;types/widget.d.ts -->
<g id="edge17" class="edge">
<title>component/Dashboard/DashboardHeader/DatePickerArea.tsx&#45;&gt;types/widget.d.ts</title>
<path fill="none" stroke="#757575" d="M1076.11,-511C1129.59,-518.79 1208.89,-520.74 1259,-478.03 1308.88,-435.52 1245.11,-377.54 1295,-335.03 1338.4,-298.06 1404.68,-296.12 1454.79,-301.63"/>
<polygon fill="#757575" stroke="#757575" points="1454.33,-305.1 1464.69,-302.86 1455.19,-298.16 1454.33,-305.1"/>
</g>
<!-- component/Dashboard/DashboardHeader/SelectRealTimeRangeArea.tsx&#45;&gt;component/Dashboard/CommonStyle.ts -->
<g id="edge18" class="edge">
<title>component/Dashboard/DashboardHeader/SelectRealTimeRangeArea.tsx&#45;&gt;component/Dashboard/CommonStyle.ts</title>
<path fill="none" stroke="#757575" d="M1259.19,-468.01C1299.86,-469.7 1340.96,-471.41 1378.26,-472.97"/>
<polygon fill="#757575" stroke="#757575" points="1378.06,-476.46 1388.19,-473.38 1378.35,-469.47 1378.06,-476.46"/>
</g>
<!-- component/Dashboard/DashboardHeader/SelectRealTimeRangeArea.tsx&#45;&gt;store/DashboardProvider.tsx -->
<g id="edge23" class="edge">
<title>component/Dashboard/DashboardHeader/SelectRealTimeRangeArea.tsx&#45;&gt;store/DashboardProvider.tsx</title>
<path fill="none" stroke="#757575" d="M1074.54,-446.04C1128,-437.83 1208.3,-435.08 1259,-478.03 1308.67,-520.12 1245.5,-577.74 1295,-620.03 1337.66,-656.48 1402.51,-659.24 1452.32,-654.31"/>
<polygon fill="#757575" stroke="#757575" points="1452.62,-657.8 1462.16,-653.2 1451.83,-650.84 1452.62,-657.8"/>
</g>
<!-- component/Dashboard/DashboardHeader/SelectRealTimeRangeArea.tsx&#45;&gt;hook/useBoolean.tsx -->
<g id="edge21" class="edge">
<title>component/Dashboard/DashboardHeader/SelectRealTimeRangeArea.tsx&#45;&gt;hook/useBoolean.tsx</title>
<path fill="none" stroke="#757575" d="M1228.92,-469.97C1239.18,-472.28 1249.25,-474.96 1259,-478.03 1276.66,-483.61 1277.36,-493.39 1295,-499.03 1341.07,-513.78 1394.84,-519.27 1438.69,-520.96"/>
<polygon fill="#757575" stroke="#757575" points="1438.57,-524.46 1448.68,-521.28 1438.8,-517.47 1438.57,-524.46"/>
</g>
<!-- component/Dashboard/DashboardHeader/SelectRealTimeRangeArea.tsx&#45;&gt;hook/useOutsideClick.tsx -->
<g id="edge22" class="edge">
<title>component/Dashboard/DashboardHeader/SelectRealTimeRangeArea.tsx&#45;&gt;hook/useOutsideClick.tsx</title>
<path fill="none" stroke="#757575" d="M1259.19,-448.53C1317.92,-446.2 1377.55,-443.84 1425.32,-441.94"/>
<polygon fill="#757575" stroke="#757575" points="1425.21,-445.45 1435.06,-441.56 1424.93,-438.46 1425.21,-445.45"/>
</g>
<!-- component/Dashboard/DashboardHeader/RealTime.tsx -->
<g id="node22" class="node">
<title>component/Dashboard/DashboardHeader/RealTime.tsx</title>
<path fill="none" stroke="#cfffac" d="M1701.33,-367.53C1701.33,-367.53 1348.67,-367.53 1348.67,-367.53 1344.83,-367.53 1341,-363.7 1341,-359.87 1341,-359.87 1341,-352.2 1341,-352.2 1341,-348.37 1344.83,-344.53 1348.67,-344.53 1348.67,-344.53 1701.33,-344.53 1701.33,-344.53 1705.17,-344.53 1709,-348.37 1709,-352.2 1709,-352.2 1709,-359.87 1709,-359.87 1709,-363.7 1705.17,-367.53 1701.33,-367.53"/>
<text text-anchor="middle" x="1525" y="-352.33" font-family="Arial" font-size="14.00" fill="#cfffac">component/Dashboard/DashboardHeader/RealTime.tsx</text>
</g>
<!-- component/Dashboard/DashboardHeader/SelectRealTimeRangeArea.tsx&#45;&gt;component/Dashboard/DashboardHeader/RealTime.tsx -->
<g id="edge19" class="edge">
<title>component/Dashboard/DashboardHeader/SelectRealTimeRangeArea.tsx&#45;&gt;component/Dashboard/DashboardHeader/RealTime.tsx</title>
<path fill="none" stroke="#757575" d="M1116.8,-446.04C1161.62,-438.05 1214.58,-425.02 1259,-404.03 1277.33,-395.37 1276.13,-383.44 1295,-376.03 1306.09,-371.68 1317.71,-368.07 1329.59,-365.09"/>
<polygon fill="#757575" stroke="#757575" points="1330.14,-368.55 1339.08,-362.87 1328.55,-361.73 1330.14,-368.55"/>
</g>
<!-- component/Dashboard/DashboardHeader/SelectRealTimeListItem.tsx -->
<g id="node23" class="node">
<title>component/Dashboard/DashboardHeader/SelectRealTimeListItem.tsx</title>
<path fill="none" stroke="#cfffac" d="M1747.33,-408.53C1747.33,-408.53 1302.67,-408.53 1302.67,-408.53 1298.83,-408.53 1295,-404.7 1295,-400.87 1295,-400.87 1295,-393.2 1295,-393.2 1295,-389.37 1298.83,-385.53 1302.67,-385.53 1302.67,-385.53 1747.33,-385.53 1747.33,-385.53 1751.17,-385.53 1755,-389.37 1755,-393.2 1755,-393.2 1755,-400.87 1755,-400.87 1755,-404.7 1751.17,-408.53 1747.33,-408.53"/>
<text text-anchor="middle" x="1525" y="-393.33" font-family="Arial" font-size="14.00" fill="#cfffac">component/Dashboard/DashboardHeader/SelectRealTimeListItem.tsx</text>
</g>
<!-- component/Dashboard/DashboardHeader/SelectRealTimeRangeArea.tsx&#45;&gt;component/Dashboard/DashboardHeader/SelectRealTimeListItem.tsx -->
<g id="edge20" class="edge">
<title>component/Dashboard/DashboardHeader/SelectRealTimeRangeArea.tsx&#45;&gt;component/Dashboard/DashboardHeader/SelectRealTimeListItem.tsx</title>
<path fill="none" stroke="#757575" d="M1091.85,-446.04C1147.32,-437.14 1225.85,-425.19 1295,-417.03 1316.09,-414.54 1338.32,-412.23 1360.28,-410.11"/>
<polygon fill="#757575" stroke="#757575" points="1360.61,-413.6 1370.23,-409.17 1359.95,-406.63 1360.61,-413.6"/>
</g>
<!-- store/DashboardProvider.tsx&#45;&gt;common/date.ts -->
<g id="edge57" class="edge">
<title>store/DashboardProvider.tsx&#45;&gt;common/date.ts</title>
<path fill="none" stroke="#757575" d="M1623.78,-636.1C1664.58,-633 1712.32,-628.01 1755,-620.03 1812.82,-609.22 1877.68,-589.48 1919.82,-575.6"/>
<polygon fill="#757575" stroke="#757575" points="1920.73,-578.99 1929.11,-572.51 1918.52,-572.34 1920.73,-578.99"/>
</g>
<!-- component/common/DatePicker/ListPicker.tsx -->
<g id="node33" class="node">
<title>component/common/DatePicker/ListPicker.tsx</title>
<path fill="none" stroke="#c6c5fe" d="M2112.33,-713.53C2112.33,-713.53 1819.67,-713.53 1819.67,-713.53 1815.83,-713.53 1812,-709.7 1812,-705.87 1812,-705.87 1812,-698.2 1812,-698.2 1812,-694.37 1815.83,-690.53 1819.67,-690.53 1819.67,-690.53 2112.33,-690.53 2112.33,-690.53 2116.17,-690.53 2120,-694.37 2120,-698.2 2120,-698.2 2120,-705.87 2120,-705.87 2120,-709.7 2116.17,-713.53 2112.33,-713.53"/>
<text text-anchor="middle" x="1966" y="-698.33" font-family="Arial" font-size="14.00" fill="#c6c5fe">component/common/DatePicker/ListPicker.tsx</text>
</g>
<!-- component/common/DatePicker.tsx&#45;&gt;component/common/DatePicker/ListPicker.tsx -->
<g id="edge48" class="edge">
<title>component/common/DatePicker.tsx&#45;&gt;component/common/DatePicker/ListPicker.tsx</title>
<path fill="none" stroke="#757575" d="M1646.25,-687.51C1693.78,-689.68 1749.19,-692.2 1800.34,-694.53"/>
<polygon fill="#757575" stroke="#757575" points="1799.87,-698.01 1810.02,-694.97 1800.19,-691.02 1799.87,-698.01"/>
</g>
<!-- types/datePicker.d.ts -->
<g id="node34" class="node">
<title>types/datePicker.d.ts</title>
<path fill="none" stroke="#cfffac" d="M2318.33,-693.53C2318.33,-693.53 2184.67,-693.53 2184.67,-693.53 2180.83,-693.53 2177,-689.7 2177,-685.87 2177,-685.87 2177,-678.2 2177,-678.2 2177,-674.37 2180.83,-670.53 2184.67,-670.53 2184.67,-670.53 2318.33,-670.53 2318.33,-670.53 2322.17,-670.53 2326,-674.37 2326,-678.2 2326,-678.2 2326,-685.87 2326,-685.87 2326,-689.7 2322.17,-693.53 2318.33,-693.53"/>
<text text-anchor="middle" x="2251.5" y="-678.33" font-family="Arial" font-size="14.00" fill="#cfffac">types/datePicker.d.ts</text>
</g>
<!-- component/common/DatePicker.tsx&#45;&gt;types/datePicker.d.ts -->
<g id="edge49" class="edge">
<title>component/common/DatePicker.tsx&#45;&gt;types/datePicker.d.ts</title>
<path fill="none" stroke="#757575" d="M1646.45,-682.03C1793.11,-682.03 2037.1,-682.03 2165.5,-682.03"/>
<polygon fill="#757575" stroke="#757575" points="2165.29,-685.53 2175.29,-682.03 2165.29,-678.53 2165.29,-685.53"/>
</g>
<!-- component/Widget.tsx -->
<g id="node24" class="node">
<title>component/Widget.tsx</title>
<path fill="none" stroke="#c6c5fe" d="M662.33,-283.53C662.33,-283.53 518.67,-283.53 518.67,-283.53 514.83,-283.53 511,-279.7 511,-275.87 511,-275.87 511,-268.2 511,-268.2 511,-264.37 514.83,-260.53 518.67,-260.53 518.67,-260.53 662.33,-260.53 662.33,-260.53 666.17,-260.53 670,-264.37 670,-268.2 670,-268.2 670,-275.87 670,-275.87 670,-279.7 666.17,-283.53 662.33,-283.53"/>
<text text-anchor="middle" x="590.5" y="-268.33" font-family="Arial" font-size="14.00" fill="#c6c5fe">component/Widget.tsx</text>
</g>
<!-- component/Widget.tsx&#45;&gt;api.ts -->
<g id="edge24" class="edge">
<title>component/Widget.tsx&#45;&gt;api.ts</title>
<path fill="none" stroke="#757575" d="M604.77,-260.12C633.73,-234.93 705.82,-176.56 778,-152.03 846.29,-128.83 931.55,-127.84 979.73,-129.65"/>
<polygon fill="#757575" stroke="#757575" points="979.49,-133.14 989.63,-130.09 979.8,-126.15 979.49,-133.14"/>
</g>
<!-- component/Widget.tsx&#45;&gt;types/api.d.ts -->
<g id="edge30" class="edge">
<title>component/Widget.tsx&#45;&gt;types/api.d.ts</title>
<path fill="none" stroke="#757575" d="M600.36,-260.23C624.62,-228.96 695.87,-144.11 778,-111.03 901.68,-61.22 1307.89,-65.62 1463.03,-69.28"/>
<polygon fill="#757575" stroke="#757575" points="1462.6,-72.77 1472.69,-69.52 1462.78,-65.77 1462.6,-72.77"/>
</g>
<!-- component/Widget.tsx&#45;&gt;common/date.ts -->
<g id="edge25" class="edge">
<title>component/Widget.tsx&#45;&gt;common/date.ts</title>
<path fill="none" stroke="#757575" d="M670.46,-266.39C916.7,-249.38 1659.79,-202.81 1755,-253.03 1785.5,-269.12 1911.27,-472.04 1952.12,-538.86"/>
<polygon fill="#757575" stroke="#757575" points="1948.94,-540.36 1957.13,-547.07 1954.91,-536.71 1948.94,-540.36"/>
</g>
<!-- component/Widget.tsx&#45;&gt;common/widget.ts -->
<g id="edge26" class="edge">
<title>component/Widget.tsx&#45;&gt;common/widget.ts</title>
<path fill="none" stroke="#757575" d="M670.2,-272.2C846.7,-272.58 1272.32,-273.49 1447.11,-273.87"/>
<polygon fill="#757575" stroke="#757575" points="1446.98,-277.37 1456.99,-273.89 1447,-270.37 1446.98,-277.37"/>
</g>
<!-- component/Widget.tsx&#45;&gt;store/DashboardProvider.tsx -->
<g id="edge29" class="edge">
<title>component/Widget.tsx&#45;&gt;store/DashboardProvider.tsx</title>
<path fill="none" stroke="#757575" d="M596.17,-283.86C613.15,-325.09 676.05,-463.01 778,-519.03 871.98,-570.68 1168.3,-500.81 1259,-558.03 1285.95,-575.03 1268.14,-602.89 1295,-620.03 1330.07,-642.41 1374.53,-650.06 1414.93,-651.25"/>
<polygon fill="#757575" stroke="#757575" points="1414.64,-654.74 1424.69,-651.4 1414.74,-647.74 1414.64,-654.74"/>
</g>
<!-- component/Widget.tsx&#45;&gt;types/widget.d.ts -->
<g id="edge31" class="edge">
<title>component/Widget.tsx&#45;&gt;types/widget.d.ts</title>
<path fill="none" stroke="#757575" d="M619.27,-283.99C655.13,-298.72 719.87,-322.91 778,-332.03 989.19,-365.17 1045.33,-338.88 1259,-332.03 1324.25,-329.94 1398.4,-324.96 1451.64,-320.93"/>
<polygon fill="#757575" stroke="#757575" points="1451.79,-324.43 1461.5,-320.17 1451.26,-317.45 1451.79,-324.43"/>
</g>
<!-- component/Widget/WidgetChart.tsx -->
<g id="node25" class="node">
<title>component/Widget/WidgetChart.tsx</title>
<path fill="none" stroke="#c6c5fe" d="M1131.83,-184.53C1131.83,-184.53 905.17,-184.53 905.17,-184.53 901.33,-184.53 897.5,-180.7 897.5,-176.87 897.5,-176.87 897.5,-169.2 897.5,-169.2 897.5,-165.37 901.33,-161.53 905.17,-161.53 905.17,-161.53 1131.83,-161.53 1131.83,-161.53 1135.67,-161.53 1139.5,-165.37 1139.5,-169.2 1139.5,-169.2 1139.5,-176.87 1139.5,-176.87 1139.5,-180.7 1135.67,-184.53 1131.83,-184.53"/>
<text text-anchor="middle" x="1018.5" y="-169.33" font-family="Arial" font-size="14.00" fill="#c6c5fe">component/Widget/WidgetChart.tsx</text>
</g>
<!-- component/Widget.tsx&#45;&gt;component/Widget/WidgetChart.tsx -->
<g id="edge27" class="edge">
<title>component/Widget.tsx&#45;&gt;component/Widget/WidgetChart.tsx</title>
<path fill="none" stroke="#757575" d="M630.92,-260.07C668.51,-248.9 726.81,-232.17 778,-220.03 830.94,-207.48 891.03,-195.69 937.78,-187.06"/>
<polygon fill="#757575" stroke="#757575" points="938.37,-190.51 947.57,-185.27 937.1,-183.63 938.37,-190.51"/>
</g>
<!-- component/Widget/WidgetModal.tsx -->
<g id="node26" class="node">
<title>component/Widget/WidgetModal.tsx</title>
<path fill="none" stroke="#c6c5fe" d="M1134.33,-323.53C1134.33,-323.53 902.67,-323.53 902.67,-323.53 898.83,-323.53 895,-319.7 895,-315.87 895,-315.87 895,-308.2 895,-308.2 895,-304.37 898.83,-300.53 902.67,-300.53 902.67,-300.53 1134.33,-300.53 1134.33,-300.53 1138.17,-300.53 1142,-304.37 1142,-308.2 1142,-308.2 1142,-315.87 1142,-315.87 1142,-319.7 1138.17,-323.53 1134.33,-323.53"/>
<text text-anchor="middle" x="1018.5" y="-308.33" font-family="Arial" font-size="14.00" fill="#c6c5fe">component/Widget/WidgetModal.tsx</text>
</g>
<!-- component/Widget.tsx&#45;&gt;component/Widget/WidgetModal.tsx -->
<g id="edge28" class="edge">
<title>component/Widget.tsx&#45;&gt;component/Widget/WidgetModal.tsx</title>
<path fill="none" stroke="#757575" d="M670.13,-279.42C729.81,-285.02 813.26,-292.86 883.42,-299.44"/>
<polygon fill="#757575" stroke="#757575" points="882.77,-302.9 893.05,-300.35 883.42,-295.93 882.77,-302.9"/>
</g>
<!-- component/chart/BarChart.tsx -->
<g id="node27" class="node">
<title>component/chart/BarChart.tsx</title>
<path fill="none" stroke="#c6c5fe" d="M1618.83,-123.53C1618.83,-123.53 1431.17,-123.53 1431.17,-123.53 1427.33,-123.53 1423.5,-119.7 1423.5,-115.87 1423.5,-115.87 1423.5,-108.2 1423.5,-108.2 1423.5,-104.37 1427.33,-100.53 1431.17,-100.53 1431.17,-100.53 1618.83,-100.53 1618.83,-100.53 1622.67,-100.53 1626.5,-104.37 1626.5,-108.2 1626.5,-108.2 1626.5,-115.87 1626.5,-115.87 1626.5,-119.7 1622.67,-123.53 1618.83,-123.53"/>
<text text-anchor="middle" x="1525" y="-108.33" font-family="Arial" font-size="14.00" fill="#c6c5fe">component/chart/BarChart.tsx</text>
</g>
<!-- component/Widget/WidgetChart.tsx&#45;&gt;component/chart/BarChart.tsx -->
<g id="edge32" class="edge">
<title>component/Widget/WidgetChart.tsx&#45;&gt;component/chart/BarChart.tsx</title>
<path fill="none" stroke="#757575" d="M1139.85,-172.32C1178.56,-169.5 1221.19,-163.62 1259,-152.03 1276.5,-146.67 1277.5,-137.39 1295,-132.03 1332.16,-120.65 1374.19,-115.04 1412,-112.45"/>
<polygon fill="#757575" stroke="#757575" points="1411.79,-115.97 1421.56,-111.86 1411.36,-108.98 1411.79,-115.97"/>
</g>
<!-- component/chart/InformaticsChart.tsx -->
<g id="node28" class="node">
<title>component/chart/InformaticsChart.tsx</title>
<path fill="none" stroke="#c6c5fe" d="M1643.33,-205.53C1643.33,-205.53 1406.67,-205.53 1406.67,-205.53 1402.83,-205.53 1399,-201.7 1399,-197.87 1399,-197.87 1399,-190.2 1399,-190.2 1399,-186.37 1402.83,-182.53 1406.67,-182.53 1406.67,-182.53 1643.33,-182.53 1643.33,-182.53 1647.17,-182.53 1651,-186.37 1651,-190.2 1651,-190.2 1651,-197.87 1651,-197.87 1651,-201.7 1647.17,-205.53 1643.33,-205.53"/>
<text text-anchor="middle" x="1525" y="-190.33" font-family="Arial" font-size="14.00" fill="#c6c5fe">component/chart/InformaticsChart.tsx</text>
</g>
<!-- component/Widget/WidgetChart.tsx&#45;&gt;component/chart/InformaticsChart.tsx -->
<g id="edge33" class="edge">
<title>component/Widget/WidgetChart.tsx&#45;&gt;component/chart/InformaticsChart.tsx</title>
<path fill="none" stroke="#757575" d="M1139.7,-178.04C1214.15,-181.13 1309.96,-185.12 1387.3,-188.34"/>
<polygon fill="#757575" stroke="#757575" points="1386.92,-191.83 1397.06,-188.75 1387.21,-184.84 1386.92,-191.83"/>
</g>
<!-- component/chart/LineChart.tsx -->
<g id="node29" class="node">
<title>component/chart/LineChart.tsx</title>
<path fill="none" stroke="#c6c5fe" d="M1621.83,-164.53C1621.83,-164.53 1428.17,-164.53 1428.17,-164.53 1424.33,-164.53 1420.5,-160.7 1420.5,-156.87 1420.5,-156.87 1420.5,-149.2 1420.5,-149.2 1420.5,-145.37 1424.33,-141.53 1428.17,-141.53 1428.17,-141.53 1621.83,-141.53 1621.83,-141.53 1625.67,-141.53 1629.5,-145.37 1629.5,-149.2 1629.5,-149.2 1629.5,-156.87 1629.5,-156.87 1629.5,-160.7 1625.67,-164.53 1621.83,-164.53"/>
<text text-anchor="middle" x="1525" y="-149.33" font-family="Arial" font-size="14.00" fill="#c6c5fe">component/chart/LineChart.tsx</text>
</g>
<!-- component/Widget/WidgetChart.tsx&#45;&gt;component/chart/LineChart.tsx -->
<g id="edge34" class="edge">
<title>component/Widget/WidgetChart.tsx&#45;&gt;component/chart/LineChart.tsx</title>
<path fill="none" stroke="#757575" d="M1139.7,-168.27C1221.26,-165.03 1328.46,-160.78 1408.92,-157.59"/>
<polygon fill="#757575" stroke="#757575" points="1408.72,-161.11 1418.57,-157.21 1408.44,-154.11 1408.72,-161.11"/>
</g>
<!-- component/Widget/WidgetModal.tsx&#45;&gt;common/widget.ts -->
<g id="edge35" class="edge">
<title>component/Widget/WidgetModal.tsx&#45;&gt;common/widget.ts</title>
<path fill="none" stroke="#757575" d="M1142.27,-302.78C1237.54,-295.61 1366.61,-285.89 1447.59,-279.79"/>
<polygon fill="#757575" stroke="#757575" points="1447.47,-283.31 1457.18,-279.07 1446.94,-276.33 1447.47,-283.31"/>
</g>
<!-- component/Widget/WidgetModal.tsx&#45;&gt;types/widget.d.ts -->
<g id="edge36" class="edge">
<title>component/Widget/WidgetModal.tsx&#45;&gt;types/widget.d.ts</title>
<path fill="none" stroke="#757575" d="M1142.27,-312.76C1239.35,-313.34 1371.53,-314.13 1452.15,-314.6"/>
<polygon fill="#757575" stroke="#757575" points="1451.64,-318.1 1461.66,-314.66 1451.68,-311.1 1451.64,-318.1"/>
</g>
<!-- component/chart/BarChart.tsx&#45;&gt;common/chart.ts -->
<g id="edge37" class="edge">
<title>component/chart/BarChart.tsx&#45;&gt;common/chart.ts</title>
<path fill="none" stroke="#757575" d="M1626.99,-112.03C1708.46,-112.03 1821.04,-112.03 1893.44,-112.03"/>
<polygon fill="#757575" stroke="#757575" points="1893.19,-115.53 1903.19,-112.03 1893.19,-108.53 1893.19,-115.53"/>
</g>
<!-- component/chart/BarChart.tsx&#45;&gt;types/chart.d.ts -->
<g id="edge40" class="edge">
<title>component/chart/BarChart.tsx&#45;&gt;types/chart.d.ts</title>
<path fill="none" stroke="#757575" d="M1626.87,-118.76C1668.51,-117.57 1716.04,-110.86 1755,-91.03 1776.61,-80.03 1768.91,-60.03 1791,-50.03 1932.71,14.12 2001.52,18.84 2141,-50.03 2192.16,-75.3 2226.03,-137.2 2241.25,-170.68"/>
<polygon fill="#757575" stroke="#757575" points="2238.05,-172.07 2245.26,-179.84 2244.46,-169.27 2238.05,-172.07"/>
</g>
<!-- hook/useResize.tsx -->
<g id="node30" class="node">
<title>hook/useResize.tsx</title>
<path fill="none" stroke="#cfffac" d="M2028.33,-164.53C2028.33,-164.53 1903.67,-164.53 1903.67,-164.53 1899.83,-164.53 1896,-160.7 1896,-156.87 1896,-156.87 1896,-149.2 1896,-149.2 1896,-145.37 1899.83,-141.53 1903.67,-141.53 1903.67,-141.53 2028.33,-141.53 2028.33,-141.53 2032.17,-141.53 2036,-145.37 2036,-149.2 2036,-149.2 2036,-156.87 2036,-156.87 2036,-160.7 2032.17,-164.53 2028.33,-164.53"/>
<text text-anchor="middle" x="1966" y="-149.33" font-family="Arial" font-size="14.00" fill="#cfffac">hook/useResize.tsx</text>
</g>
<!-- component/chart/BarChart.tsx&#45;&gt;hook/useResize.tsx -->
<g id="edge38" class="edge">
<title>component/chart/BarChart.tsx&#45;&gt;hook/useResize.tsx</title>
<path fill="none" stroke="#757575" d="M1626.92,-120.57C1666.82,-124.02 1713.08,-128.11 1755,-132.03 1797.83,-136.04 1845.55,-140.79 1884.66,-144.76"/>
<polygon fill="#757575" stroke="#757575" points="1884.17,-148.23 1894.47,-145.76 1884.88,-141.26 1884.17,-148.23"/>
</g>
<!-- store/WidgetProvider.tsx -->
<g id="node31" class="node">
<title>store/WidgetProvider.tsx</title>
<path fill="none" stroke="#cfffac" d="M2044.83,-82.53C2044.83,-82.53 1887.17,-82.53 1887.17,-82.53 1883.33,-82.53 1879.5,-78.7 1879.5,-74.87 1879.5,-74.87 1879.5,-67.2 1879.5,-67.2 1879.5,-63.37 1883.33,-59.53 1887.17,-59.53 1887.17,-59.53 2044.83,-59.53 2044.83,-59.53 2048.67,-59.53 2052.5,-63.37 2052.5,-67.2 2052.5,-67.2 2052.5,-74.87 2052.5,-74.87 2052.5,-78.7 2048.67,-82.53 2044.83,-82.53"/>
<text text-anchor="middle" x="1966" y="-67.33" font-family="Arial" font-size="14.00" fill="#cfffac">store/WidgetProvider.tsx</text>
</g>
<!-- component/chart/BarChart.tsx&#45;&gt;store/WidgetProvider.tsx -->
<g id="edge39" class="edge">
<title>component/chart/BarChart.tsx&#45;&gt;store/WidgetProvider.tsx</title>
<path fill="none" stroke="#757575" d="M1626.9,-102.86C1666.8,-99.21 1713.06,-94.95 1755,-91.03 1791.85,-87.59 1832.34,-83.75 1867.84,-80.36"/>
<polygon fill="#757575" stroke="#757575" points="1868.05,-83.85 1877.67,-79.42 1867.39,-76.88 1868.05,-83.85"/>
</g>
<!-- component/chart/InformaticsChart.tsx&#45;&gt;types/chart.d.ts -->
<g id="edge42" class="edge">
<title>component/chart/InformaticsChart.tsx&#45;&gt;types/chart.d.ts</title>
<path fill="none" stroke="#757575" d="M1651.32,-194.1C1686.1,-197.84 1723.05,-205.48 1755,-220.03 1774.75,-229.03 1770.77,-245.16 1791,-253.03 1935.97,-309.42 1990.3,-291.61 2141,-253.03 2172.36,-245 2204.4,-225.92 2225.65,-211.42"/>
<polygon fill="#757575" stroke="#757575" points="2227.48,-214.41 2233.65,-205.8 2223.45,-208.68 2227.48,-214.41"/>
</g>
<!-- component/chart/InformaticsChart/InforMaticsBox.tsx -->
<g id="node32" class="node">
<title>component/chart/InformaticsChart/InforMaticsBox.tsx</title>
<path fill="none" stroke="#c6c5fe" d="M2133.33,-244.53C2133.33,-244.53 1798.67,-244.53 1798.67,-244.53 1794.83,-244.53 1791,-240.7 1791,-236.87 1791,-236.87 1791,-229.2 1791,-229.2 1791,-225.37 1794.83,-221.53 1798.67,-221.53 1798.67,-221.53 2133.33,-221.53 2133.33,-221.53 2137.17,-221.53 2141,-225.37 2141,-229.2 2141,-229.2 2141,-236.87 2141,-236.87 2141,-240.7 2137.17,-244.53 2133.33,-244.53"/>
<text text-anchor="middle" x="1966" y="-229.33" font-family="Arial" font-size="14.00" fill="#c6c5fe">component/chart/InformaticsChart/InforMaticsBox.tsx</text>
</g>
<!-- component/chart/InformaticsChart.tsx&#45;&gt;component/chart/InformaticsChart/InforMaticsBox.tsx -->
<g id="edge41" class="edge">
<title>component/chart/InformaticsChart.tsx&#45;&gt;component/chart/InformaticsChart/InforMaticsBox.tsx</title>
<path fill="none" stroke="#757575" d="M1651.21,-205.16C1703.38,-209.79 1764.33,-215.2 1818.56,-220.02"/>
<polygon fill="#757575" stroke="#757575" points="1818.24,-223.51 1828.51,-220.91 1818.86,-216.54 1818.24,-223.51"/>
</g>
<!-- component/chart/LineChart.tsx&#45;&gt;common/chart.ts -->
<g id="edge44" class="edge">
<title>component/chart/LineChart.tsx&#45;&gt;common/chart.ts</title>
<path fill="none" stroke="#757575" d="M1629.74,-143.6C1668.99,-140.01 1714.06,-135.86 1755,-132.03 1801.06,-127.73 1852.8,-122.8 1893.4,-118.91"/>
<polygon fill="#757575" stroke="#757575" points="1893.68,-122.4 1903.3,-117.97 1893.01,-115.43 1893.68,-122.4"/>
</g>
<!-- component/chart/LineChart.tsx&#45;&gt;types/chart.d.ts -->
<g id="edge47" class="edge">
<title>component/chart/LineChart.tsx&#45;&gt;types/chart.d.ts</title>
<path fill="none" stroke="#757575" d="M1629.78,-161.63C1678.67,-165.49 1737.8,-169.87 1791,-173.03 1930.36,-181.32 2093.69,-187.62 2183.25,-190.78"/>
<polygon fill="#757575" stroke="#757575" points="2182.96,-194.27 2193.08,-191.12 2183.21,-187.27 2182.96,-194.27"/>
</g>
<!-- component/chart/LineChart.tsx&#45;&gt;hook/useResize.tsx -->
<g id="edge45" class="edge">
<title>component/chart/LineChart.tsx&#45;&gt;hook/useResize.tsx</title>
<path fill="none" stroke="#757575" d="M1629.76,-153.03C1707.73,-153.03 1812.99,-153.03 1884.62,-153.03"/>
<polygon fill="#757575" stroke="#757575" points="1884.31,-156.53 1894.31,-153.03 1884.31,-149.53 1884.31,-156.53"/>
</g>
<!-- component/chart/LineChart.tsx&#45;&gt;store/WidgetProvider.tsx -->
<g id="edge46" class="edge">
<title>component/chart/LineChart.tsx&#45;&gt;store/WidgetProvider.tsx</title>
<path fill="none" stroke="#757575" d="M1629.74,-159.67C1670.68,-158.26 1716.93,-151.41 1755,-132.03 1776.61,-121.03 1769.52,-102.28 1791,-91.03 1814.23,-78.87 1841.56,-72.63 1867.58,-69.71"/>
<polygon fill="#757575" stroke="#757575" points="1867.9,-73.19 1877.52,-68.76 1867.24,-66.22 1867.9,-73.19"/>
</g>
<!-- component/chart/InformaticsChart/InforMaticsBox.tsx&#45;&gt;types/chart.d.ts -->
<g id="edge43" class="edge">
<title>component/chart/InformaticsChart/InforMaticsBox.tsx&#45;&gt;types/chart.d.ts</title>
<path fill="none" stroke="#757575" d="M2051.68,-221.09C2093.85,-215.13 2144.12,-208.04 2183.55,-202.48"/>
<polygon fill="#757575" stroke="#757575" points="2183.99,-205.95 2193.4,-201.09 2183.01,-199.02 2183.99,-205.95"/>
</g>
<!-- component/common/DatePicker/ListPicker.tsx&#45;&gt;types/datePicker.d.ts -->
<g id="edge50" class="edge">
<title>component/common/DatePicker/ListPicker.tsx&#45;&gt;types/datePicker.d.ts</title>
<path fill="none" stroke="#757575" d="M2120.37,-691.21C2135.81,-690.12 2151.07,-689.05 2165.4,-688.04"/>
<polygon fill="#757575" stroke="#757575" points="2165.44,-691.54 2175.17,-687.35 2164.95,-684.56 2165.44,-691.54"/>
</g>
<!-- page/Dashboard.tsx&#45;&gt;component/Dashboard/DashboardHeader.tsx -->
<g id="edge51" class="edge">
<title>page/Dashboard.tsx&#45;&gt;component/Dashboard/DashboardHeader.tsx</title>
<path fill="none" stroke="#757575" d="M348.11,-401.86C391.64,-433.81 511.9,-522.07 564.41,-560.62"/>
<polygon fill="#757575" stroke="#757575" points="562.05,-563.22 572.18,-566.32 566.19,-557.58 562.05,-563.22"/>
</g>
<!-- page/Dashboard.tsx&#45;&gt;store/DashboardProvider.tsx -->
<g id="edge53" class="edge">
<title>page/Dashboard.tsx&#45;&gt;store/DashboardProvider.tsx</title>
<path fill="none" stroke="#757575" d="M334.77,-401.87C343.61,-437.08 374.42,-542.22 439,-599.03 559.22,-704.8 620.26,-693.51 778,-721.03 988.6,-757.77 1072.58,-825.67 1259,-721.03 1285.79,-706 1268.93,-678.28 1295,-662.03 1330.16,-640.13 1374.43,-632.53 1414.66,-631.24"/>
<polygon fill="#757575" stroke="#757575" points="1414.71,-634.74 1424.65,-631.06 1414.59,-627.74 1414.71,-634.74"/>
</g>
<!-- page/Dashboard.tsx&#45;&gt;types/widget.d.ts -->
<g id="edge55" class="edge">
<title>page/Dashboard.tsx&#45;&gt;types/widget.d.ts</title>
<path fill="none" stroke="#757575" d="M403.5,-398.42C561.39,-414.58 950.33,-441.26 1259,-355.03 1276.63,-350.11 1277.5,-340.39 1295,-335.03 1346.01,-319.41 1406.18,-314.65 1452.05,-313.67"/>
<polygon fill="#757575" stroke="#757575" points="1451.93,-317.17 1461.87,-313.52 1451.82,-310.17 1451.93,-317.17"/>
</g>
<!-- page/Dashboard.tsx&#45;&gt;component/Widget.tsx -->
<g id="edge52" class="edge">
<title>page/Dashboard.tsx&#45;&gt;component/Widget.tsx</title>
<path fill="none" stroke="#757575" d="M358.11,-378.07C404.28,-356.91 500.43,-312.85 553.09,-288.72"/>
<polygon fill="#757575" stroke="#757575" points="554.31,-292.01 561.95,-284.66 551.4,-285.64 554.31,-292.01"/>
</g>
<!-- page/Dashboard.tsx&#45;&gt;store/WidgetProvider.tsx -->
<g id="edge54" class="edge">
<title>page/Dashboard.tsx&#45;&gt;store/WidgetProvider.tsx</title>
<path fill="none" stroke="#757575" d="M338.71,-378.3C353.87,-352.6 393.02,-290.51 439,-251.03 569.56,-138.95 611.96,-109.2 778,-64.03 1185.53,46.82 1701.28,-24.3 1890.81,-57.08"/>
<polygon fill="#757575" stroke="#757575" points="1890.07,-60.5 1900.52,-58.78 1891.27,-53.61 1890.07,-60.5"/>
</g>
</g>
</svg>
