<?xml version="1.0" encoding="UTF-8" standalone="no"?>
<!DOCTYPE svg PUBLIC "-//W3C//DTD SVG 1.1//EN"
 "http://www.w3.org/Graphics/SVG/1.1/DTD/svg11.dtd">
<!-- Generated by graphviz version 7.1.0 (20230121.1956)
 -->
<!-- Title: G Pages: 1 -->
<svg width="2963pt" height="1078pt"
 viewBox="0.00 0.00 2963.20 1078.27" xmlns="http://www.w3.org/2000/svg" xmlns:xlink="http://www.w3.org/1999/xlink">
<g id="graph0" class="graph" transform="scale(1 1) rotate(0) translate(21.6 1056.67)">
<title>G</title>
<polygon fill="#111111" stroke="none" points="-21.6,21.6 -21.6,-1056.67 2941.6,-1056.67 2941.6,21.6 -21.6,21.6"/>
<!-- App.tsx -->
<g id="node1" class="node">
<title>App.tsx</title>
<path fill="none" stroke="#c6c5fe" d="M57.33,-749.07C57.33,-749.07 7.67,-749.07 7.67,-749.07 3.83,-749.07 0,-745.23 0,-741.4 0,-741.4 0,-733.73 0,-733.73 0,-729.9 3.83,-726.07 7.67,-726.07 7.67,-726.07 57.33,-726.07 57.33,-726.07 61.17,-726.07 65,-729.9 65,-733.73 65,-733.73 65,-741.4 65,-741.4 65,-745.23 61.17,-749.07 57.33,-749.07"/>
<text text-anchor="middle" x="32.5" y="-733.87" font-family="Arial" font-size="14.00" fill="#c6c5fe">App.tsx</text>
</g>
<!-- router/Router.tsx -->
<g id="node2" class="node">
<title>router/Router.tsx</title>
<path fill="none" stroke="#c6c5fe" d="M215.33,-749.07C215.33,-749.07 108.67,-749.07 108.67,-749.07 104.83,-749.07 101,-745.23 101,-741.4 101,-741.4 101,-733.73 101,-733.73 101,-729.9 104.83,-726.07 108.67,-726.07 108.67,-726.07 215.33,-726.07 215.33,-726.07 219.17,-726.07 223,-729.9 223,-733.73 223,-733.73 223,-741.4 223,-741.4 223,-745.23 219.17,-749.07 215.33,-749.07"/>
<text text-anchor="middle" x="162" y="-733.87" font-family="Arial" font-size="14.00" fill="#c6c5fe">router/Router.tsx</text>
</g>
<!-- App.tsx&#45;&gt;router/Router.tsx -->
<g id="edge1" class="edge">
<title>App.tsx&#45;&gt;router/Router.tsx</title>
<path fill="none" stroke="#757575" d="M65.34,-737.57C72.7,-737.57 80.81,-737.57 89.12,-737.57"/>
<polygon fill="#757575" stroke="#757575" points="88.99,-741.07 98.99,-737.57 88.99,-734.07 88.99,-741.07"/>
</g>
<!-- page/Dashboard.tsx -->
<g id="node49" class="node">
<title>page/Dashboard.tsx</title>
<path fill="none" stroke="#c6c5fe" d="M395.33,-749.07C395.33,-749.07 266.67,-749.07 266.67,-749.07 262.83,-749.07 259,-745.23 259,-741.4 259,-741.4 259,-733.73 259,-733.73 259,-729.9 262.83,-726.07 266.67,-726.07 266.67,-726.07 395.33,-726.07 395.33,-726.07 399.17,-726.07 403,-729.9 403,-733.73 403,-733.73 403,-741.4 403,-741.4 403,-745.23 399.17,-749.07 395.33,-749.07"/>
<text text-anchor="middle" x="331" y="-733.87" font-family="Arial" font-size="14.00" fill="#c6c5fe">page/Dashboard.tsx</text>
</g>
<!-- router/Router.tsx&#45;&gt;page/Dashboard.tsx -->
<g id="edge72" class="edge">
<title>router/Router.tsx&#45;&gt;page/Dashboard.tsx</title>
<path fill="none" stroke="#757575" d="M223.29,-737.57C231.1,-737.57 239.21,-737.57 247.3,-737.57"/>
<polygon fill="#757575" stroke="#757575" points="247.19,-741.07 257.19,-737.57 247.19,-734.07 247.19,-741.07"/>
</g>
<!-- asset/image/pause.png -->
<g id="node3" class="node">
<title>asset/image/pause.png</title>
<path fill="none" stroke="#cfffac" d="M1502.83,-994.07C1502.83,-994.07 1354.17,-994.07 1354.17,-994.07 1350.33,-994.07 1346.5,-990.23 1346.5,-986.4 1346.5,-986.4 1346.5,-978.73 1346.5,-978.73 1346.5,-974.9 1350.33,-971.07 1354.17,-971.07 1354.17,-971.07 1502.83,-971.07 1502.83,-971.07 1506.67,-971.07 1510.5,-974.9 1510.5,-978.73 1510.5,-978.73 1510.5,-986.4 1510.5,-986.4 1510.5,-990.23 1506.67,-994.07 1502.83,-994.07"/>
<text text-anchor="middle" x="1428.5" y="-978.87" font-family="Arial" font-size="14.00" fill="#cfffac">asset/image/pause.png</text>
</g>
<!-- asset/image/play.png -->
<g id="node4" class="node">
<title>asset/image/play.png</title>
<path fill="none" stroke="#cfffac" d="M1496.33,-1035.07C1496.33,-1035.07 1360.67,-1035.07 1360.67,-1035.07 1356.83,-1035.07 1353,-1031.23 1353,-1027.4 1353,-1027.4 1353,-1019.73 1353,-1019.73 1353,-1015.9 1356.83,-1012.07 1360.67,-1012.07 1360.67,-1012.07 1496.33,-1012.07 1496.33,-1012.07 1500.17,-1012.07 1504,-1015.9 1504,-1019.73 1504,-1019.73 1504,-1027.4 1504,-1027.4 1504,-1031.23 1500.17,-1035.07 1496.33,-1035.07"/>
<text text-anchor="middle" x="1428.5" y="-1019.87" font-family="Arial" font-size="14.00" fill="#cfffac">asset/image/play.png</text>
</g>
<!-- common/api.ts -->
<g id="node5" class="node">
<title>common/api.ts</title>
<path fill="none" stroke="#c6c5fe" d="M1983.83,-549.07C1983.83,-549.07 1889.17,-549.07 1889.17,-549.07 1885.33,-549.07 1881.5,-545.23 1881.5,-541.4 1881.5,-541.4 1881.5,-533.73 1881.5,-533.73 1881.5,-529.9 1885.33,-526.07 1889.17,-526.07 1889.17,-526.07 1983.83,-526.07 1983.83,-526.07 1987.67,-526.07 1991.5,-529.9 1991.5,-533.73 1991.5,-533.73 1991.5,-541.4 1991.5,-541.4 1991.5,-545.23 1987.67,-549.07 1983.83,-549.07"/>
<text text-anchor="middle" x="1936.5" y="-533.87" font-family="Arial" font-size="14.00" fill="#c6c5fe">common/api.ts</text>
</g>
<!-- types/api.d.ts -->
<g id="node6" class="node">
<title>types/api.d.ts</title>
<path fill="none" stroke="#cfffac" d="M2418.33,-549.07C2418.33,-549.07 2332.67,-549.07 2332.67,-549.07 2328.83,-549.07 2325,-545.23 2325,-541.4 2325,-541.4 2325,-533.73 2325,-533.73 2325,-529.9 2328.83,-526.07 2332.67,-526.07 2332.67,-526.07 2418.33,-526.07 2418.33,-526.07 2422.17,-526.07 2426,-529.9 2426,-533.73 2426,-533.73 2426,-541.4 2426,-541.4 2426,-545.23 2422.17,-549.07 2418.33,-549.07"/>
<text text-anchor="middle" x="2375.5" y="-533.87" font-family="Arial" font-size="14.00" fill="#cfffac">types/api.d.ts</text>
</g>
<!-- common/api.ts&#45;&gt;types/api.d.ts -->
<g id="edge2" class="edge">
<title>common/api.ts&#45;&gt;types/api.d.ts</title>
<path fill="none" stroke="#757575" d="M1991.96,-537.57C2073.77,-537.57 2227.89,-537.57 2313.41,-537.57"/>
<polygon fill="#757575" stroke="#757575" points="2313.25,-541.07 2323.25,-537.57 2313.25,-534.07 2313.25,-541.07"/>
</g>
<!-- types/widget.d.ts -->
<g id="node7" class="node">
<title>types/widget.d.ts</title>
<path fill="none" stroke="#cfffac" d="M2805.33,-655.07C2805.33,-655.07 2697.67,-655.07 2697.67,-655.07 2693.83,-655.07 2690,-651.23 2690,-647.4 2690,-647.4 2690,-639.73 2690,-639.73 2690,-635.9 2693.83,-632.07 2697.67,-632.07 2697.67,-632.07 2805.33,-632.07 2805.33,-632.07 2809.17,-632.07 2813,-635.9 2813,-639.73 2813,-639.73 2813,-647.4 2813,-647.4 2813,-651.23 2809.17,-655.07 2805.33,-655.07"/>
<text text-anchor="middle" x="2751.5" y="-639.87" font-family="Arial" font-size="14.00" fill="#cfffac">types/widget.d.ts</text>
</g>
<!-- common/api.ts&#45;&gt;types/widget.d.ts -->
<g id="edge3" class="edge">
<title>common/api.ts&#45;&gt;types/widget.d.ts</title>
<path fill="none" stroke="#757575" d="M1991.84,-541.91C2120.44,-552.34 2440.63,-579.21 2547,-596.57 2597.7,-604.84 2654.61,-618.35 2695.33,-628.77"/>
<polygon fill="#757575" stroke="#757575" points="2694.35,-632.13 2704.9,-631.24 2696.1,-625.35 2694.35,-632.13"/>
</g>
<!-- common/chart.ts -->
<g id="node8" class="node">
<title>common/chart.ts</title>
<path fill="none" stroke="#c6c5fe" d="M1989.83,-110.07C1989.83,-110.07 1883.17,-110.07 1883.17,-110.07 1879.33,-110.07 1875.5,-106.23 1875.5,-102.4 1875.5,-102.4 1875.5,-94.73 1875.5,-94.73 1875.5,-90.9 1879.33,-87.07 1883.17,-87.07 1883.17,-87.07 1989.83,-87.07 1989.83,-87.07 1993.67,-87.07 1997.5,-90.9 1997.5,-94.73 1997.5,-94.73 1997.5,-102.4 1997.5,-102.4 1997.5,-106.23 1993.67,-110.07 1989.83,-110.07"/>
<text text-anchor="middle" x="1936.5" y="-94.87" font-family="Arial" font-size="14.00" fill="#c6c5fe">common/chart.ts</text>
</g>
<!-- types/chart.d.ts -->
<g id="node9" class="node">
<title>types/chart.d.ts</title>
<path fill="none" stroke="#cfffac" d="M2424.33,-211.07C2424.33,-211.07 2326.67,-211.07 2326.67,-211.07 2322.83,-211.07 2319,-207.23 2319,-203.4 2319,-203.4 2319,-195.73 2319,-195.73 2319,-191.9 2322.83,-188.07 2326.67,-188.07 2326.67,-188.07 2424.33,-188.07 2424.33,-188.07 2428.17,-188.07 2432,-191.9 2432,-195.73 2432,-195.73 2432,-203.4 2432,-203.4 2432,-207.23 2428.17,-211.07 2424.33,-211.07"/>
<text text-anchor="middle" x="2375.5" y="-195.87" font-family="Arial" font-size="14.00" fill="#cfffac">types/chart.d.ts</text>
</g>
<!-- common/chart.ts&#45;&gt;types/chart.d.ts -->
<g id="edge4" class="edge">
<title>common/chart.ts&#45;&gt;types/chart.d.ts</title>
<path fill="none" stroke="#757575" d="M1997.94,-99.09C2044.88,-100.63 2111.29,-105.28 2168,-118.57 2231.02,-133.34 2300.31,-163.63 2340.47,-182.7"/>
<polygon fill="#757575" stroke="#757575" points="2338.86,-185.81 2349.38,-186.98 2341.89,-179.5 2338.86,-185.81"/>
</g>
<!-- common/date.ts -->
<g id="node10" class="node">
<title>common/date.ts</title>
<path fill="none" stroke="#cfffac" d="M2427.33,-629.07C2427.33,-629.07 2323.67,-629.07 2323.67,-629.07 2319.83,-629.07 2316,-625.23 2316,-621.4 2316,-621.4 2316,-613.73 2316,-613.73 2316,-609.9 2319.83,-606.07 2323.67,-606.07 2323.67,-606.07 2427.33,-606.07 2427.33,-606.07 2431.17,-606.07 2435,-609.9 2435,-613.73 2435,-613.73 2435,-621.4 2435,-621.4 2435,-625.23 2431.17,-629.07 2427.33,-629.07"/>
<text text-anchor="middle" x="2375.5" y="-613.87" font-family="Arial" font-size="14.00" fill="#cfffac">common/date.ts</text>
</g>
<!-- common/widget.ts -->
<g id="node11" class="node">
<title>common/widget.ts</title>
<path fill="none" stroke="#cfffac" d="M1994.83,-431.07C1994.83,-431.07 1878.17,-431.07 1878.17,-431.07 1874.33,-431.07 1870.5,-427.23 1870.5,-423.4 1870.5,-423.4 1870.5,-415.73 1870.5,-415.73 1870.5,-411.9 1874.33,-408.07 1878.17,-408.07 1878.17,-408.07 1994.83,-408.07 1994.83,-408.07 1998.67,-408.07 2002.5,-411.9 2002.5,-415.73 2002.5,-415.73 2002.5,-423.4 2002.5,-423.4 2002.5,-427.23 1998.67,-431.07 1994.83,-431.07"/>
<text text-anchor="middle" x="1936.5" y="-415.87" font-family="Arial" font-size="14.00" fill="#cfffac">common/widget.ts</text>
</g>
<!-- component/Dashboard/DashboardHeader.tsx -->
<g id="node12" class="node">
<title>component/Dashboard/DashboardHeader.tsx</title>
<path fill="none" stroke="#c6c5fe" d="M734.33,-770.07C734.33,-770.07 446.67,-770.07 446.67,-770.07 442.83,-770.07 439,-766.23 439,-762.4 439,-762.4 439,-754.73 439,-754.73 439,-750.9 442.83,-747.07 446.67,-747.07 446.67,-747.07 734.33,-747.07 734.33,-747.07 738.17,-747.07 742,-750.9 742,-754.73 742,-754.73 742,-762.4 742,-762.4 742,-766.23 738.17,-770.07 734.33,-770.07"/>
<text text-anchor="middle" x="590.5" y="-754.87" font-family="Arial" font-size="14.00" fill="#c6c5fe">component/Dashboard/DashboardHeader.tsx</text>
</g>
<!-- component/Dashboard/DashboardHeader/PlayIcon.tsx -->
<g id="node13" class="node">
<title>component/Dashboard/DashboardHeader/PlayIcon.tsx</title>
<path fill="none" stroke="#c6c5fe" d="M1138.33,-994.07C1138.33,-994.07 791.67,-994.07 791.67,-994.07 787.83,-994.07 784,-990.23 784,-986.4 784,-986.4 784,-978.73 784,-978.73 784,-974.9 787.83,-971.07 791.67,-971.07 791.67,-971.07 1138.33,-971.07 1138.33,-971.07 1142.17,-971.07 1146,-974.9 1146,-978.73 1146,-978.73 1146,-986.4 1146,-986.4 1146,-990.23 1142.17,-994.07 1138.33,-994.07"/>
<text text-anchor="middle" x="965" y="-978.87" font-family="Arial" font-size="14.00" fill="#c6c5fe">component/Dashboard/DashboardHeader/PlayIcon.tsx</text>
</g>
<!-- component/Dashboard/DashboardHeader.tsx&#45;&gt;component/Dashboard/DashboardHeader/PlayIcon.tsx -->
<g id="edge5" class="edge">
<title>component/Dashboard/DashboardHeader.tsx&#45;&gt;component/Dashboard/DashboardHeader/PlayIcon.tsx</title>
<path fill="none" stroke="#757575" d="M611.26,-770.45C672.89,-807.51 861.78,-921.1 934.78,-964.99"/>
<polygon fill="#757575" stroke="#757575" points="932.61,-967.78 942.99,-969.93 936.22,-961.78 932.61,-967.78"/>
</g>
<!-- component/Dashboard/DashboardHeader/SelectRealTimeRangeArea.tsx -->
<g id="node14" class="node">
<title>component/Dashboard/DashboardHeader/SelectRealTimeRangeArea.tsx</title>
<path fill="none" stroke="#c6c5fe" d="M1661.33,-752.07C1661.33,-752.07 1195.67,-752.07 1195.67,-752.07 1191.83,-752.07 1188,-748.23 1188,-744.4 1188,-744.4 1188,-736.73 1188,-736.73 1188,-732.9 1191.83,-729.07 1195.67,-729.07 1195.67,-729.07 1661.33,-729.07 1661.33,-729.07 1665.17,-729.07 1669,-732.9 1669,-736.73 1669,-736.73 1669,-744.4 1669,-744.4 1669,-748.23 1665.17,-752.07 1661.33,-752.07"/>
<text text-anchor="middle" x="1428.5" y="-736.87" font-family="Arial" font-size="14.00" fill="#c6c5fe">component/Dashboard/DashboardHeader/SelectRealTimeRangeArea.tsx</text>
</g>
<!-- component/Dashboard/DashboardHeader.tsx&#45;&gt;component/Dashboard/DashboardHeader/SelectRealTimeRangeArea.tsx -->
<g id="edge6" class="edge">
<title>component/Dashboard/DashboardHeader.tsx&#45;&gt;component/Dashboard/DashboardHeader/SelectRealTimeRangeArea.tsx</title>
<path fill="none" stroke="#757575" d="M742.29,-758.78C855.14,-758.57 1013.26,-757.46 1152,-753.57 1160.06,-753.34 1168.26,-753.09 1176.53,-752.81"/>
<polygon fill="#757575" stroke="#757575" points="1176.47,-756.32 1186.34,-752.48 1176.23,-749.32 1176.47,-756.32"/>
</g>
<!-- component/Dashboard/DashboardHeader/TimeBlock.tsx -->
<g id="node15" class="node">
<title>component/Dashboard/DashboardHeader/TimeBlock.tsx</title>
<path fill="none" stroke="#c6c5fe" d="M1144.33,-829.07C1144.33,-829.07 785.67,-829.07 785.67,-829.07 781.83,-829.07 778,-825.23 778,-821.4 778,-821.4 778,-813.73 778,-813.73 778,-809.9 781.83,-806.07 785.67,-806.07 785.67,-806.07 1144.33,-806.07 1144.33,-806.07 1148.17,-806.07 1152,-809.9 1152,-813.73 1152,-813.73 1152,-821.4 1152,-821.4 1152,-825.23 1148.17,-829.07 1144.33,-829.07"/>
<text text-anchor="middle" x="965" y="-813.87" font-family="Arial" font-size="14.00" fill="#c6c5fe">component/Dashboard/DashboardHeader/TimeBlock.tsx</text>
</g>
<!-- component/Dashboard/DashboardHeader.tsx&#45;&gt;component/Dashboard/DashboardHeader/TimeBlock.tsx -->
<g id="edge7" class="edge">
<title>component/Dashboard/DashboardHeader.tsx&#45;&gt;component/Dashboard/DashboardHeader/TimeBlock.tsx</title>
<path fill="none" stroke="#757575" d="M655.71,-770.52C691.62,-777.06 737.24,-785.12 778,-791.57 805.31,-795.89 834.95,-800.2 862.36,-804.04"/>
<polygon fill="#757575" stroke="#757575" points="861.67,-807.48 872.06,-805.39 862.63,-800.54 861.67,-807.48"/>
</g>
<!-- store/DashboardProvider.tsx -->
<g id="node16" class="node">
<title>store/DashboardProvider.tsx</title>
<path fill="none" stroke="#c6c5fe" d="M2027.33,-629.07C2027.33,-629.07 1845.67,-629.07 1845.67,-629.07 1841.83,-629.07 1838,-625.23 1838,-621.4 1838,-621.4 1838,-613.73 1838,-613.73 1838,-609.9 1841.83,-606.07 1845.67,-606.07 1845.67,-606.07 2027.33,-606.07 2027.33,-606.07 2031.17,-606.07 2035,-609.9 2035,-613.73 2035,-613.73 2035,-621.4 2035,-621.4 2035,-625.23 2031.17,-629.07 2027.33,-629.07"/>
<text text-anchor="middle" x="1936.5" y="-613.87" font-family="Arial" font-size="14.00" fill="#c6c5fe">store/DashboardProvider.tsx</text>
</g>
<!-- component/Dashboard/DashboardHeader.tsx&#45;&gt;store/DashboardProvider.tsx -->
<g id="edge8" class="edge">
<title>component/Dashboard/DashboardHeader.tsx&#45;&gt;store/DashboardProvider.tsx</title>
<path fill="none" stroke="#757575" d="M605.42,-746.79C635.07,-722.35 707.51,-666.06 778,-637.57 962.31,-563.07 1484.27,-484.12 1669,-557.57 1689.45,-565.7 1685.04,-582.3 1705,-591.57 1742.32,-608.89 1786.55,-616.53 1826.25,-619.45"/>
<polygon fill="#757575" stroke="#757575" points="1825.87,-622.93 1836.08,-620.07 1826.32,-615.95 1825.87,-622.93"/>
</g>
<!-- store/WidgetPropsSettingModalProvider.tsx -->
<g id="node17" class="node">
<title>store/WidgetPropsSettingModalProvider.tsx</title>
<path fill="none" stroke="#c6c5fe" d="M1567.83,-711.07C1567.83,-711.07 1289.17,-711.07 1289.17,-711.07 1285.33,-711.07 1281.5,-707.23 1281.5,-703.4 1281.5,-703.4 1281.5,-695.73 1281.5,-695.73 1281.5,-691.9 1285.33,-688.07 1289.17,-688.07 1289.17,-688.07 1567.83,-688.07 1567.83,-688.07 1571.67,-688.07 1575.5,-691.9 1575.5,-695.73 1575.5,-695.73 1575.5,-703.4 1575.5,-703.4 1575.5,-707.23 1571.67,-711.07 1567.83,-711.07"/>
<text text-anchor="middle" x="1428.5" y="-695.87" font-family="Arial" font-size="14.00" fill="#c6c5fe">store/WidgetPropsSettingModalProvider.tsx</text>
</g>
<!-- component/Dashboard/DashboardHeader.tsx&#45;&gt;store/WidgetPropsSettingModalProvider.tsx -->
<g id="edge9" class="edge">
<title>component/Dashboard/DashboardHeader.tsx&#45;&gt;store/WidgetPropsSettingModalProvider.tsx</title>
<path fill="none" stroke="#757575" d="M742.27,-748.2C855.11,-740.41 1013.23,-729.43 1152,-719.57 1190.2,-716.85 1231.38,-713.88 1269.97,-711.09"/>
<polygon fill="#757575" stroke="#757575" points="1270.08,-714.59 1279.8,-710.37 1269.57,-707.61 1270.08,-714.59"/>
</g>
<!-- component/Dashboard/DashboardHeader/PlayIcon.tsx&#45;&gt;asset/image/pause.png -->
<g id="edge17" class="edge">
<title>component/Dashboard/DashboardHeader/PlayIcon.tsx&#45;&gt;asset/image/pause.png</title>
<path fill="none" stroke="#757575" d="M1146.41,-982.57C1210.84,-982.57 1280.78,-982.57 1334.78,-982.57"/>
<polygon fill="#757575" stroke="#757575" points="1334.54,-986.07 1344.54,-982.57 1334.54,-979.07 1334.54,-986.07"/>
</g>
<!-- component/Dashboard/DashboardHeader/PlayIcon.tsx&#45;&gt;asset/image/play.png -->
<g id="edge18" class="edge">
<title>component/Dashboard/DashboardHeader/PlayIcon.tsx&#45;&gt;asset/image/play.png</title>
<path fill="none" stroke="#757575" d="M1098.35,-994.54C1127.86,-997.2 1158.99,-999.99 1188,-1002.57 1238.78,-1007.08 1295.63,-1012.07 1341.19,-1016.05"/>
<polygon fill="#757575" stroke="#757575" points="1340.75,-1019.52 1351.02,-1016.91 1341.36,-1012.55 1340.75,-1019.52"/>
</g>
<!-- hook/useBoolean.tsx -->
<g id="node23" class="node">
<title>hook/useBoolean.tsx</title>
<path fill="none" stroke="#cfffac" d="M2003.33,-670.07C2003.33,-670.07 1869.67,-670.07 1869.67,-670.07 1865.83,-670.07 1862,-666.23 1862,-662.4 1862,-662.4 1862,-654.73 1862,-654.73 1862,-650.9 1865.83,-647.07 1869.67,-647.07 1869.67,-647.07 2003.33,-647.07 2003.33,-647.07 2007.17,-647.07 2011,-650.9 2011,-654.73 2011,-654.73 2011,-662.4 2011,-662.4 2011,-666.23 2007.17,-670.07 2003.33,-670.07"/>
<text text-anchor="middle" x="1936.5" y="-654.87" font-family="Arial" font-size="14.00" fill="#cfffac">hook/useBoolean.tsx</text>
</g>
<!-- component/Dashboard/DashboardHeader/SelectRealTimeRangeArea.tsx&#45;&gt;hook/useBoolean.tsx -->
<g id="edge21" class="edge">
<title>component/Dashboard/DashboardHeader/SelectRealTimeRangeArea.tsx&#45;&gt;hook/useBoolean.tsx</title>
<path fill="none" stroke="#757575" d="M1648.24,-728.67C1655.35,-725.98 1662.3,-722.96 1669,-719.57 1690.63,-708.61 1683.36,-689.52 1705,-678.57 1749.44,-656.08 1804.9,-650.69 1850.29,-651.1"/>
<polygon fill="#757575" stroke="#757575" points="1850.02,-654.6 1860.08,-651.29 1850.16,-647.6 1850.02,-654.6"/>
</g>
<!-- hook/useOutsideClick.tsx -->
<g id="node24" class="node">
<title>hook/useOutsideClick.tsx</title>
<path fill="none" stroke="#cfffac" d="M2016.83,-793.07C2016.83,-793.07 1856.17,-793.07 1856.17,-793.07 1852.33,-793.07 1848.5,-789.23 1848.5,-785.4 1848.5,-785.4 1848.5,-777.73 1848.5,-777.73 1848.5,-773.9 1852.33,-770.07 1856.17,-770.07 1856.17,-770.07 2016.83,-770.07 2016.83,-770.07 2020.67,-770.07 2024.5,-773.9 2024.5,-777.73 2024.5,-777.73 2024.5,-785.4 2024.5,-785.4 2024.5,-789.23 2020.67,-793.07 2016.83,-793.07"/>
<text text-anchor="middle" x="1936.5" y="-777.87" font-family="Arial" font-size="14.00" fill="#cfffac">hook/useOutsideClick.tsx</text>
</g>
<!-- component/Dashboard/DashboardHeader/SelectRealTimeRangeArea.tsx&#45;&gt;hook/useOutsideClick.tsx -->
<g id="edge22" class="edge">
<title>component/Dashboard/DashboardHeader/SelectRealTimeRangeArea.tsx&#45;&gt;hook/useOutsideClick.tsx</title>
<path fill="none" stroke="#757575" d="M1577.56,-752.56C1661.2,-759.34 1763.44,-767.63 1837.2,-773.6"/>
<polygon fill="#757575" stroke="#757575" points="1836.57,-777.06 1846.82,-774.38 1837.14,-770.09 1836.57,-777.06"/>
</g>
<!-- component/Dashboard/DashboardHeader/RealTime.tsx -->
<g id="node25" class="node">
<title>component/Dashboard/DashboardHeader/RealTime.tsx</title>
<path fill="none" stroke="#cfffac" d="M2112.83,-752.07C2112.83,-752.07 1760.17,-752.07 1760.17,-752.07 1756.33,-752.07 1752.5,-748.23 1752.5,-744.4 1752.5,-744.4 1752.5,-736.73 1752.5,-736.73 1752.5,-732.9 1756.33,-729.07 1760.17,-729.07 1760.17,-729.07 2112.83,-729.07 2112.83,-729.07 2116.67,-729.07 2120.5,-732.9 2120.5,-736.73 2120.5,-736.73 2120.5,-744.4 2120.5,-744.4 2120.5,-748.23 2116.67,-752.07 2112.83,-752.07"/>
<text text-anchor="middle" x="1936.5" y="-736.87" font-family="Arial" font-size="14.00" fill="#cfffac">component/Dashboard/DashboardHeader/RealTime.tsx</text>
</g>
<!-- component/Dashboard/DashboardHeader/SelectRealTimeRangeArea.tsx&#45;&gt;component/Dashboard/DashboardHeader/RealTime.tsx -->
<g id="edge19" class="edge">
<title>component/Dashboard/DashboardHeader/SelectRealTimeRangeArea.tsx&#45;&gt;component/Dashboard/DashboardHeader/RealTime.tsx</title>
<path fill="none" stroke="#757575" d="M1669.16,-740.57C1693.2,-740.57 1717.4,-740.57 1740.89,-740.57"/>
<polygon fill="#757575" stroke="#757575" points="1740.84,-744.07 1750.84,-740.57 1740.84,-737.07 1740.84,-744.07"/>
</g>
<!-- component/Dashboard/DashboardHeader/SelectRealTimeListItem.tsx -->
<g id="node26" class="node">
<title>component/Dashboard/DashboardHeader/SelectRealTimeListItem.tsx</title>
<path fill="none" stroke="#cfffac" d="M2158.83,-711.07C2158.83,-711.07 1714.17,-711.07 1714.17,-711.07 1710.33,-711.07 1706.5,-707.23 1706.5,-703.4 1706.5,-703.4 1706.5,-695.73 1706.5,-695.73 1706.5,-691.9 1710.33,-688.07 1714.17,-688.07 1714.17,-688.07 2158.83,-688.07 2158.83,-688.07 2162.67,-688.07 2166.5,-691.9 2166.5,-695.73 2166.5,-695.73 2166.5,-703.4 2166.5,-703.4 2166.5,-707.23 2162.67,-711.07 2158.83,-711.07"/>
<text text-anchor="middle" x="1936.5" y="-695.87" font-family="Arial" font-size="14.00" fill="#cfffac">component/Dashboard/DashboardHeader/SelectRealTimeListItem.tsx</text>
</g>
<!-- component/Dashboard/DashboardHeader/SelectRealTimeRangeArea.tsx&#45;&gt;component/Dashboard/DashboardHeader/SelectRealTimeListItem.tsx -->
<g id="edge20" class="edge">
<title>component/Dashboard/DashboardHeader/SelectRealTimeRangeArea.tsx&#45;&gt;component/Dashboard/DashboardHeader/SelectRealTimeListItem.tsx</title>
<path fill="none" stroke="#757575" d="M1577.56,-728.57C1640.01,-723.51 1712.84,-717.61 1776.44,-712.46"/>
<polygon fill="#757575" stroke="#757575" points="1776.6,-715.95 1786.28,-711.66 1776.03,-708.98 1776.6,-715.95"/>
</g>
<!-- component/Dashboard/DashboardHeader/CurrentTime.tsx -->
<g id="node18" class="node">
<title>component/Dashboard/DashboardHeader/CurrentTime.tsx</title>
<path fill="none" stroke="#c6c5fe" d="M1613.83,-914.07C1613.83,-914.07 1243.17,-914.07 1243.17,-914.07 1239.33,-914.07 1235.5,-910.23 1235.5,-906.4 1235.5,-906.4 1235.5,-898.73 1235.5,-898.73 1235.5,-894.9 1239.33,-891.07 1243.17,-891.07 1243.17,-891.07 1613.83,-891.07 1613.83,-891.07 1617.67,-891.07 1621.5,-894.9 1621.5,-898.73 1621.5,-898.73 1621.5,-906.4 1621.5,-906.4 1621.5,-910.23 1617.67,-914.07 1613.83,-914.07"/>
<text text-anchor="middle" x="1428.5" y="-898.87" font-family="Arial" font-size="14.00" fill="#c6c5fe">component/Dashboard/DashboardHeader/CurrentTime.tsx</text>
</g>
<!-- component/Dashboard/DashboardHeader/TimeBlock.tsx&#45;&gt;component/Dashboard/DashboardHeader/CurrentTime.tsx -->
<g id="edge23" class="edge">
<title>component/Dashboard/DashboardHeader/TimeBlock.tsx&#45;&gt;component/Dashboard/DashboardHeader/CurrentTime.tsx</title>
<path fill="none" stroke="#757575" d="M1003.7,-829.47C1047.56,-842.86 1122.33,-864.35 1188,-876.57 1215.32,-881.65 1244.58,-885.85 1272.95,-889.27"/>
<polygon fill="#757575" stroke="#757575" points="1272.35,-892.73 1282.69,-890.42 1273.17,-885.77 1272.35,-892.73"/>
</g>
<!-- component/Dashboard/DashboardHeader/DatePickerArea.tsx -->
<g id="node21" class="node">
<title>component/Dashboard/DashboardHeader/DatePickerArea.tsx</title>
<path fill="none" stroke="#c6c5fe" d="M1624.33,-793.07C1624.33,-793.07 1232.67,-793.07 1232.67,-793.07 1228.83,-793.07 1225,-789.23 1225,-785.4 1225,-785.4 1225,-777.73 1225,-777.73 1225,-773.9 1228.83,-770.07 1232.67,-770.07 1232.67,-770.07 1624.33,-770.07 1624.33,-770.07 1628.17,-770.07 1632,-773.9 1632,-777.73 1632,-777.73 1632,-785.4 1632,-785.4 1632,-789.23 1628.17,-793.07 1624.33,-793.07"/>
<text text-anchor="middle" x="1428.5" y="-777.87" font-family="Arial" font-size="14.00" fill="#c6c5fe">component/Dashboard/DashboardHeader/DatePickerArea.tsx</text>
</g>
<!-- component/Dashboard/DashboardHeader/TimeBlock.tsx&#45;&gt;component/Dashboard/DashboardHeader/DatePickerArea.tsx -->
<g id="edge24" class="edge">
<title>component/Dashboard/DashboardHeader/TimeBlock.tsx&#45;&gt;component/Dashboard/DashboardHeader/DatePickerArea.tsx</title>
<path fill="none" stroke="#757575" d="M1119.67,-805.58C1165.46,-802.01 1215.81,-798.08 1262.3,-794.45"/>
<polygon fill="#757575" stroke="#757575" points="1262.51,-797.95 1272.2,-793.68 1261.96,-790.97 1262.51,-797.95"/>
</g>
<!-- store/DashboardProvider.tsx&#45;&gt;common/date.ts -->
<g id="edge73" class="edge">
<title>store/DashboardProvider.tsx&#45;&gt;common/date.ts</title>
<path fill="none" stroke="#757575" d="M2035.3,-617.57C2116.98,-617.57 2231.44,-617.57 2304.28,-617.57"/>
<polygon fill="#757575" stroke="#757575" points="2304.09,-621.07 2314.09,-617.57 2304.09,-614.07 2304.09,-621.07"/>
</g>
<!-- store/WidgetPropsSettingModalProvider.tsx&#45;&gt;hook/useBoolean.tsx -->
<g id="edge74" class="edge">
<title>store/WidgetPropsSettingModalProvider.tsx&#45;&gt;hook/useBoolean.tsx</title>
<path fill="none" stroke="#757575" d="M1575.86,-687.71C1664.97,-680.49 1775.7,-671.52 1850.57,-665.45"/>
<polygon fill="#757575" stroke="#757575" points="1850.62,-668.96 1860.3,-664.66 1850.05,-661.98 1850.62,-668.96"/>
</g>
<!-- hook/useCurrentTime.tsx -->
<g id="node19" class="node">
<title>hook/useCurrentTime.tsx</title>
<path fill="none" stroke="#cfffac" d="M2016.33,-996.07C2016.33,-996.07 1856.67,-996.07 1856.67,-996.07 1852.83,-996.07 1849,-992.23 1849,-988.4 1849,-988.4 1849,-980.73 1849,-980.73 1849,-976.9 1852.83,-973.07 1856.67,-973.07 1856.67,-973.07 2016.33,-973.07 2016.33,-973.07 2020.17,-973.07 2024,-976.9 2024,-980.73 2024,-980.73 2024,-988.4 2024,-988.4 2024,-992.23 2020.17,-996.07 2016.33,-996.07"/>
<text text-anchor="middle" x="1936.5" y="-980.87" font-family="Arial" font-size="14.00" fill="#cfffac">hook/useCurrentTime.tsx</text>
</g>
<!-- component/Dashboard/DashboardHeader/CurrentTime.tsx&#45;&gt;hook/useCurrentTime.tsx -->
<g id="edge10" class="edge">
<title>component/Dashboard/DashboardHeader/CurrentTime.tsx&#45;&gt;hook/useCurrentTime.tsx</title>
<path fill="none" stroke="#757575" d="M1474.98,-914.5C1529.33,-928.33 1623.19,-950.84 1705,-963.57 1748.19,-970.29 1796.29,-975.09 1837.33,-978.39"/>
<polygon fill="#757575" stroke="#757575" points="1836.96,-981.87 1847.2,-979.16 1837.51,-974.89 1836.96,-981.87"/>
</g>
<!-- component/Dashboard/DashboardHeader/DateBox.tsx -->
<g id="node20" class="node">
<title>component/Dashboard/DashboardHeader/DateBox.tsx</title>
<path fill="none" stroke="#cfffac" d="M2109.83,-873.07C2109.83,-873.07 1763.17,-873.07 1763.17,-873.07 1759.33,-873.07 1755.5,-869.23 1755.5,-865.4 1755.5,-865.4 1755.5,-857.73 1755.5,-857.73 1755.5,-853.9 1759.33,-850.07 1763.17,-850.07 1763.17,-850.07 2109.83,-850.07 2109.83,-850.07 2113.67,-850.07 2117.5,-853.9 2117.5,-857.73 2117.5,-857.73 2117.5,-865.4 2117.5,-865.4 2117.5,-869.23 2113.67,-873.07 2109.83,-873.07"/>
<text text-anchor="middle" x="1936.5" y="-857.87" font-family="Arial" font-size="14.00" fill="#cfffac">component/Dashboard/DashboardHeader/DateBox.tsx</text>
</g>
<!-- component/Dashboard/DashboardHeader/DatePickerArea.tsx&#45;&gt;common/date.ts -->
<g id="edge11" class="edge">
<title>component/Dashboard/DashboardHeader/DatePickerArea.tsx&#45;&gt;common/date.ts</title>
<path fill="none" stroke="#757575" d="M1567.43,-793.55C1611.36,-796.84 1660.19,-799.94 1705,-801.57 1807.82,-805.3 2084.94,-862.28 2168,-801.57 2210.55,-770.46 2168.37,-727.41 2204,-688.57 2230.4,-659.78 2270.29,-642.32 2304.84,-631.91"/>
<polygon fill="#757575" stroke="#757575" points="2305.73,-635.3 2314.39,-629.19 2303.82,-628.57 2305.73,-635.3"/>
</g>
<!-- component/Dashboard/DashboardHeader/DatePickerArea.tsx&#45;&gt;store/DashboardProvider.tsx -->
<g id="edge16" class="edge">
<title>component/Dashboard/DashboardHeader/DatePickerArea.tsx&#45;&gt;store/DashboardProvider.tsx</title>
<path fill="none" stroke="#757575" d="M1489.08,-793.56C1542.22,-800.64 1619.13,-801.46 1669,-760.57 1713.05,-724.45 1660.94,-673.66 1705,-637.57 1748.67,-601.79 1813.87,-599.27 1863.79,-604.27"/>
<polygon fill="#757575" stroke="#757575" points="1863.33,-607.74 1873.66,-605.4 1864.12,-600.79 1863.33,-607.74"/>
</g>
<!-- component/Dashboard/DashboardHeader/DatePickerArea.tsx&#45;&gt;component/Dashboard/DashboardHeader/DateBox.tsx -->
<g id="edge12" class="edge">
<title>component/Dashboard/DashboardHeader/DatePickerArea.tsx&#45;&gt;component/Dashboard/DashboardHeader/DateBox.tsx</title>
<path fill="none" stroke="#757575" d="M1632.25,-788.62C1644.93,-792.07 1657.29,-796.34 1669,-801.57 1689.09,-810.54 1685.04,-826.3 1705,-835.57 1717.47,-841.35 1730.7,-846.06 1744.29,-849.87"/>
<polygon fill="#757575" stroke="#757575" points="1743.22,-853.21 1753.78,-852.35 1744.99,-846.44 1743.22,-853.21"/>
</g>
<!-- component/common/DatePicker.tsx -->
<g id="node22" class="node">
<title>component/common/DatePicker.tsx</title>
<path fill="none" stroke="#c6c5fe" d="M2049.83,-914.07C2049.83,-914.07 1823.17,-914.07 1823.17,-914.07 1819.33,-914.07 1815.5,-910.23 1815.5,-906.4 1815.5,-906.4 1815.5,-898.73 1815.5,-898.73 1815.5,-894.9 1819.33,-891.07 1823.17,-891.07 1823.17,-891.07 2049.83,-891.07 2049.83,-891.07 2053.67,-891.07 2057.5,-894.9 2057.5,-898.73 2057.5,-898.73 2057.5,-906.4 2057.5,-906.4 2057.5,-910.23 2053.67,-914.07 2049.83,-914.07"/>
<text text-anchor="middle" x="1936.5" y="-898.87" font-family="Arial" font-size="14.00" fill="#c6c5fe">component/common/DatePicker.tsx</text>
</g>
<!-- component/Dashboard/DashboardHeader/DatePickerArea.tsx&#45;&gt;component/common/DatePicker.tsx -->
<g id="edge13" class="edge">
<title>component/Dashboard/DashboardHeader/DatePickerArea.tsx&#45;&gt;component/common/DatePicker.tsx</title>
<path fill="none" stroke="#757575" d="M1500.91,-769.58C1552.23,-764.94 1620.63,-767.35 1669,-801.57 1700.83,-824.08 1673.25,-858.93 1705,-881.57 1742.92,-908.61 1793.76,-915.47 1838.04,-914.88"/>
<polygon fill="#757575" stroke="#757575" points="1838.03,-918.38 1847.93,-914.6 1837.84,-911.38 1838.03,-918.38"/>
</g>
<!-- component/Dashboard/DashboardHeader/DatePickerArea.tsx&#45;&gt;hook/useBoolean.tsx -->
<g id="edge14" class="edge">
<title>component/Dashboard/DashboardHeader/DatePickerArea.tsx&#45;&gt;hook/useBoolean.tsx</title>
<path fill="none" stroke="#757575" d="M1503.76,-793.57C1554.82,-797.69 1621.69,-794.51 1669,-760.57 1701.34,-737.37 1672.65,-701.75 1705,-678.57 1746.4,-648.9 1803.33,-643.71 1850.26,-646.04"/>
<polygon fill="#757575" stroke="#757575" points="1849.94,-649.52 1860.14,-646.66 1850.38,-642.54 1849.94,-649.52"/>
</g>
<!-- component/Dashboard/DashboardHeader/DatePickerArea.tsx&#45;&gt;hook/useOutsideClick.tsx -->
<g id="edge15" class="edge">
<title>component/Dashboard/DashboardHeader/DatePickerArea.tsx&#45;&gt;hook/useOutsideClick.tsx</title>
<path fill="none" stroke="#757575" d="M1632.39,-781.57C1702.76,-781.57 1778.52,-781.57 1836.69,-781.57"/>
<polygon fill="#757575" stroke="#757575" points="1836.57,-785.07 1846.57,-781.57 1836.57,-778.07 1836.57,-785.07"/>
</g>
<!-- component/common/DatePicker/DatePickerTitle.tsx -->
<g id="node45" class="node">
<title>component/common/DatePicker/DatePickerTitle.tsx</title>
<path fill="none" stroke="#c6c5fe" d="M2539.33,-721.07C2539.33,-721.07 2211.67,-721.07 2211.67,-721.07 2207.83,-721.07 2204,-717.23 2204,-713.4 2204,-713.4 2204,-705.73 2204,-705.73 2204,-701.9 2207.83,-698.07 2211.67,-698.07 2211.67,-698.07 2539.33,-698.07 2539.33,-698.07 2543.17,-698.07 2547,-701.9 2547,-705.73 2547,-705.73 2547,-713.4 2547,-713.4 2547,-717.23 2543.17,-721.07 2539.33,-721.07"/>
<text text-anchor="middle" x="2375.5" y="-705.87" font-family="Arial" font-size="14.00" fill="#c6c5fe">component/common/DatePicker/DatePickerTitle.tsx</text>
</g>
<!-- component/common/DatePicker.tsx&#45;&gt;component/common/DatePicker/DatePickerTitle.tsx -->
<g id="edge55" class="edge">
<title>component/common/DatePicker.tsx&#45;&gt;component/common/DatePicker/DatePickerTitle.tsx</title>
<path fill="none" stroke="#757575" d="M2017.97,-914.55C2065.83,-917.3 2125.33,-912.57 2168,-881.57 2200.86,-857.69 2176.33,-827.3 2204,-797.57 2236.64,-762.51 2286.41,-739.07 2323.77,-725.26"/>
<polygon fill="#757575" stroke="#757575" points="2324.77,-728.61 2333.01,-721.95 2322.42,-722.02 2324.77,-728.61"/>
</g>
<!-- component/common/DatePicker/ListPicker.tsx -->
<g id="node46" class="node">
<title>component/common/DatePicker/ListPicker.tsx</title>
<path fill="none" stroke="#c6c5fe" d="M2521.83,-894.07C2521.83,-894.07 2229.17,-894.07 2229.17,-894.07 2225.33,-894.07 2221.5,-890.23 2221.5,-886.4 2221.5,-886.4 2221.5,-878.73 2221.5,-878.73 2221.5,-874.9 2225.33,-871.07 2229.17,-871.07 2229.17,-871.07 2521.83,-871.07 2521.83,-871.07 2525.67,-871.07 2529.5,-874.9 2529.5,-878.73 2529.5,-878.73 2529.5,-886.4 2529.5,-886.4 2529.5,-890.23 2525.67,-894.07 2521.83,-894.07"/>
<text text-anchor="middle" x="2375.5" y="-878.87" font-family="Arial" font-size="14.00" fill="#c6c5fe">component/common/DatePicker/ListPicker.tsx</text>
</g>
<!-- component/common/DatePicker.tsx&#45;&gt;component/common/DatePicker/ListPicker.tsx -->
<g id="edge56" class="edge">
<title>component/common/DatePicker.tsx&#45;&gt;component/common/DatePicker/ListPicker.tsx</title>
<path fill="none" stroke="#757575" d="M2057.78,-897.06C2104.76,-894.91 2159.39,-892.41 2209.91,-890.1"/>
<polygon fill="#757575" stroke="#757575" points="2209.96,-893.6 2219.79,-889.65 2209.64,-886.61 2209.96,-893.6"/>
</g>
<!-- types/datePicker.d.ts -->
<g id="node47" class="node">
<title>types/datePicker.d.ts</title>
<path fill="none" stroke="#cfffac" d="M2818.33,-934.07C2818.33,-934.07 2684.67,-934.07 2684.67,-934.07 2680.83,-934.07 2677,-930.23 2677,-926.4 2677,-926.4 2677,-918.73 2677,-918.73 2677,-914.9 2680.83,-911.07 2684.67,-911.07 2684.67,-911.07 2818.33,-911.07 2818.33,-911.07 2822.17,-911.07 2826,-914.9 2826,-918.73 2826,-918.73 2826,-926.4 2826,-926.4 2826,-930.23 2822.17,-934.07 2818.33,-934.07"/>
<text text-anchor="middle" x="2751.5" y="-918.87" font-family="Arial" font-size="14.00" fill="#cfffac">types/datePicker.d.ts</text>
</g>
<!-- component/common/DatePicker.tsx&#45;&gt;types/datePicker.d.ts -->
<g id="edge57" class="edge">
<title>component/common/DatePicker.tsx&#45;&gt;types/datePicker.d.ts</title>
<path fill="none" stroke="#757575" d="M2057.9,-905.53C2224.13,-909.62 2519.82,-916.89 2665.11,-920.47"/>
<polygon fill="#757575" stroke="#757575" points="2664.99,-923.97 2675.07,-920.71 2665.16,-916.97 2664.99,-923.97"/>
</g>
<!-- component/Widget/Widget.tsx -->
<g id="node27" class="node">
<title>component/Widget/Widget.tsx</title>
<path fill="none" stroke="#c6c5fe" d="M687.33,-551.07C687.33,-551.07 493.67,-551.07 493.67,-551.07 489.83,-551.07 486,-547.23 486,-543.4 486,-543.4 486,-535.73 486,-535.73 486,-531.9 489.83,-528.07 493.67,-528.07 493.67,-528.07 687.33,-528.07 687.33,-528.07 691.17,-528.07 695,-531.9 695,-535.73 695,-535.73 695,-543.4 695,-543.4 695,-547.23 691.17,-551.07 687.33,-551.07"/>
<text text-anchor="middle" x="590.5" y="-535.87" font-family="Arial" font-size="14.00" fill="#c6c5fe">component/Widget/Widget.tsx</text>
</g>
<!-- component/Widget/Widget.tsx&#45;&gt;hook/useBoolean.tsx -->
<g id="edge29" class="edge">
<title>component/Widget/Widget.tsx&#45;&gt;hook/useBoolean.tsx</title>
<path fill="none" stroke="#757575" d="M695.43,-550.44C814.41,-562.74 1015.16,-583.08 1188,-598.57 1252.51,-604.35 1668.34,-637.39 1850.38,-651.82"/>
<polygon fill="#757575" stroke="#757575" points="1850,-655.31 1860.25,-652.61 1850.56,-648.33 1850,-655.31"/>
</g>
<!-- component/Widget/WidgetButtons.tsx -->
<g id="node28" class="node">
<title>component/Widget/WidgetButtons.tsx</title>
<path fill="none" stroke="#c6c5fe" d="M1085.83,-711.07C1085.83,-711.07 844.17,-711.07 844.17,-711.07 840.33,-711.07 836.5,-707.23 836.5,-703.4 836.5,-703.4 836.5,-695.73 836.5,-695.73 836.5,-691.9 840.33,-688.07 844.17,-688.07 844.17,-688.07 1085.83,-688.07 1085.83,-688.07 1089.67,-688.07 1093.5,-691.9 1093.5,-695.73 1093.5,-695.73 1093.5,-703.4 1093.5,-703.4 1093.5,-707.23 1089.67,-711.07 1085.83,-711.07"/>
<text text-anchor="middle" x="965" y="-695.87" font-family="Arial" font-size="14.00" fill="#c6c5fe">component/Widget/WidgetButtons.tsx</text>
</g>
<!-- component/Widget/Widget.tsx&#45;&gt;component/Widget/WidgetButtons.tsx -->
<g id="edge25" class="edge">
<title>component/Widget/Widget.tsx&#45;&gt;component/Widget/WidgetButtons.tsx</title>
<path fill="none" stroke="#757575" d="M602.77,-551.51C629.88,-579.37 702.14,-648.58 778,-678.57 792.86,-684.44 808.86,-688.83 825.03,-692.09"/>
<polygon fill="#757575" stroke="#757575" points="824.28,-695.52 834.76,-693.9 825.56,-688.63 824.28,-695.52"/>
</g>
<!-- component/Widget/WidgetCallCycleSettingModal.tsx -->
<g id="node29" class="node">
<title>component/Widget/WidgetCallCycleSettingModal.tsx</title>
<path fill="none" stroke="#c6c5fe" d="M1596.33,-410.07C1596.33,-410.07 1260.67,-410.07 1260.67,-410.07 1256.83,-410.07 1253,-406.23 1253,-402.4 1253,-402.4 1253,-394.73 1253,-394.73 1253,-390.9 1256.83,-387.07 1260.67,-387.07 1260.67,-387.07 1596.33,-387.07 1596.33,-387.07 1600.17,-387.07 1604,-390.9 1604,-394.73 1604,-394.73 1604,-402.4 1604,-402.4 1604,-406.23 1600.17,-410.07 1596.33,-410.07"/>
<text text-anchor="middle" x="1428.5" y="-394.87" font-family="Arial" font-size="14.00" fill="#c6c5fe">component/Widget/WidgetCallCycleSettingModal.tsx</text>
</g>
<!-- component/Widget/Widget.tsx&#45;&gt;component/Widget/WidgetCallCycleSettingModal.tsx -->
<g id="edge26" class="edge">
<title>component/Widget/Widget.tsx&#45;&gt;component/Widget/WidgetCallCycleSettingModal.tsx</title>
<path fill="none" stroke="#757575" d="M662.42,-527.61C816.67,-501.59 1181.96,-439.98 1345.66,-412.37"/>
<polygon fill="#757575" stroke="#757575" points="1345.85,-415.89 1355.13,-410.77 1344.69,-408.99 1345.85,-415.89"/>
</g>
<!-- component/Widget/WidgetChart.tsx -->
<g id="node30" class="node">
<title>component/Widget/WidgetChart.tsx</title>
<path fill="none" stroke="#c6c5fe" d="M1078.33,-250.07C1078.33,-250.07 851.67,-250.07 851.67,-250.07 847.83,-250.07 844,-246.23 844,-242.4 844,-242.4 844,-234.73 844,-234.73 844,-230.9 847.83,-227.07 851.67,-227.07 851.67,-227.07 1078.33,-227.07 1078.33,-227.07 1082.17,-227.07 1086,-230.9 1086,-234.73 1086,-234.73 1086,-242.4 1086,-242.4 1086,-246.23 1082.17,-250.07 1078.33,-250.07"/>
<text text-anchor="middle" x="965" y="-234.87" font-family="Arial" font-size="14.00" fill="#c6c5fe">component/Widget/WidgetChart.tsx</text>
</g>
<!-- component/Widget/Widget.tsx&#45;&gt;component/Widget/WidgetChart.tsx -->
<g id="edge27" class="edge">
<title>component/Widget/Widget.tsx&#45;&gt;component/Widget/WidgetChart.tsx</title>
<path fill="none" stroke="#757575" d="M606.1,-527.77C663.13,-481.69 871.12,-313.62 940.95,-257.19"/>
<polygon fill="#757575" stroke="#757575" points="942.74,-260.24 948.32,-251.24 938.34,-254.8 942.74,-260.24"/>
</g>
<!-- hook/Widget/useHandleWidgetApi.tsx -->
<g id="node31" class="node">
<title>hook/Widget/useHandleWidgetApi.tsx</title>
<path fill="none" stroke="#c6c5fe" d="M1549.33,-510.07C1549.33,-510.07 1307.67,-510.07 1307.67,-510.07 1303.83,-510.07 1300,-506.23 1300,-502.4 1300,-502.4 1300,-494.73 1300,-494.73 1300,-490.9 1303.83,-487.07 1307.67,-487.07 1307.67,-487.07 1549.33,-487.07 1549.33,-487.07 1553.17,-487.07 1557,-490.9 1557,-494.73 1557,-494.73 1557,-502.4 1557,-502.4 1557,-506.23 1553.17,-510.07 1549.33,-510.07"/>
<text text-anchor="middle" x="1428.5" y="-494.87" font-family="Arial" font-size="14.00" fill="#c6c5fe">hook/Widget/useHandleWidgetApi.tsx</text>
</g>
<!-- component/Widget/Widget.tsx&#45;&gt;hook/Widget/useHandleWidgetApi.tsx -->
<g id="edge28" class="edge">
<title>component/Widget/Widget.tsx&#45;&gt;hook/Widget/useHandleWidgetApi.tsx</title>
<path fill="none" stroke="#757575" d="M695.27,-534.48C844.77,-527.15 1121.12,-513.59 1288.24,-505.4"/>
<polygon fill="#757575" stroke="#757575" points="1288.25,-508.9 1298.07,-504.92 1287.91,-501.91 1288.25,-508.9"/>
</g>
<!-- component/Widget/WidgetButtons.tsx&#45;&gt;store/WidgetPropsSettingModalProvider.tsx -->
<g id="edge30" class="edge">
<title>component/Widget/WidgetButtons.tsx&#45;&gt;store/WidgetPropsSettingModalProvider.tsx</title>
<path fill="none" stroke="#757575" d="M1093.94,-699.57C1148.46,-699.57 1212.6,-699.57 1270,-699.57"/>
<polygon fill="#757575" stroke="#757575" points="1269.87,-703.07 1279.87,-699.57 1269.87,-696.07 1269.87,-703.07"/>
</g>
<!-- store/WidgetProvider.tsx -->
<g id="node32" class="node">
<title>store/WidgetProvider.tsx</title>
<path fill="none" stroke="#c6c5fe" d="M2015.33,-955.07C2015.33,-955.07 1857.67,-955.07 1857.67,-955.07 1853.83,-955.07 1850,-951.23 1850,-947.4 1850,-947.4 1850,-939.73 1850,-939.73 1850,-935.9 1853.83,-932.07 1857.67,-932.07 1857.67,-932.07 2015.33,-932.07 2015.33,-932.07 2019.17,-932.07 2023,-935.9 2023,-939.73 2023,-939.73 2023,-947.4 2023,-947.4 2023,-951.23 2019.17,-955.07 2015.33,-955.07"/>
<text text-anchor="middle" x="1936.5" y="-939.87" font-family="Arial" font-size="14.00" fill="#c6c5fe">store/WidgetProvider.tsx</text>
</g>
<!-- component/Widget/WidgetButtons.tsx&#45;&gt;store/WidgetProvider.tsx -->
<g id="edge31" class="edge">
<title>component/Widget/WidgetButtons.tsx&#45;&gt;store/WidgetProvider.tsx</title>
<path fill="none" stroke="#757575" d="M998.41,-711.51C1037.6,-727.02 1104.26,-756.86 1152,-796.57 1171.96,-813.17 1165.14,-830.26 1188,-842.57 1376.85,-944.23 1477.35,-785.28 1669,-881.57 1690.67,-892.45 1683.39,-911.57 1705,-922.57 1745.6,-943.22 1795.45,-949.7 1838.39,-950.51"/>
<polygon fill="#757575" stroke="#757575" points="1838.18,-954.01 1848.21,-950.58 1838.24,-947.01 1838.18,-954.01"/>
</g>
<!-- component/Widget/WidgetCallCycleSettingModal.tsx&#45;&gt;common/widget.ts -->
<g id="edge32" class="edge">
<title>component/Widget/WidgetCallCycleSettingModal.tsx&#45;&gt;common/widget.ts</title>
<path fill="none" stroke="#757575" d="M1604.35,-405.82C1691.16,-409.43 1791.59,-413.6 1858.89,-416.39"/>
<polygon fill="#757575" stroke="#757575" points="1858.58,-419.88 1868.71,-416.8 1858.87,-412.88 1858.58,-419.88"/>
</g>
<!-- component/Widget/WidgetCallCycleSettingModal/CycleInput.tsx -->
<g id="node33" class="node">
<title>component/Widget/WidgetCallCycleSettingModal/CycleInput.tsx</title>
<path fill="none" stroke="#cfffac" d="M2139.83,-349.07C2139.83,-349.07 1733.17,-349.07 1733.17,-349.07 1729.33,-349.07 1725.5,-345.23 1725.5,-341.4 1725.5,-341.4 1725.5,-333.73 1725.5,-333.73 1725.5,-329.9 1729.33,-326.07 1733.17,-326.07 1733.17,-326.07 2139.83,-326.07 2139.83,-326.07 2143.67,-326.07 2147.5,-329.9 2147.5,-333.73 2147.5,-333.73 2147.5,-341.4 2147.5,-341.4 2147.5,-345.23 2143.67,-349.07 2139.83,-349.07"/>
<text text-anchor="middle" x="1936.5" y="-333.87" font-family="Arial" font-size="14.00" fill="#cfffac">component/Widget/WidgetCallCycleSettingModal/CycleInput.tsx</text>
</g>
<!-- component/Widget/WidgetCallCycleSettingModal.tsx&#45;&gt;component/Widget/WidgetCallCycleSettingModal/CycleInput.tsx -->
<g id="edge33" class="edge">
<title>component/Widget/WidgetCallCycleSettingModal.tsx&#45;&gt;component/Widget/WidgetCallCycleSettingModal/CycleInput.tsx</title>
<path fill="none" stroke="#757575" d="M1501.56,-386.61C1557.05,-377.7 1635.72,-365.72 1705,-357.57 1726.33,-355.06 1748.8,-352.72 1771.01,-350.6"/>
<polygon fill="#757575" stroke="#757575" points="1771.11,-354.11 1780.74,-349.69 1770.45,-347.14 1771.11,-354.11"/>
</g>
<!-- component/Widget/WidgetCallCycleSettingModal/LastCallTimeBox.tsx -->
<g id="node34" class="node">
<title>component/Widget/WidgetCallCycleSettingModal/LastCallTimeBox.tsx</title>
<path fill="none" stroke="#cfffac" d="M2160.33,-390.07C2160.33,-390.07 1712.67,-390.07 1712.67,-390.07 1708.83,-390.07 1705,-386.23 1705,-382.4 1705,-382.4 1705,-374.73 1705,-374.73 1705,-370.9 1708.83,-367.07 1712.67,-367.07 1712.67,-367.07 2160.33,-367.07 2160.33,-367.07 2164.17,-367.07 2168,-370.9 2168,-374.73 2168,-374.73 2168,-382.4 2168,-382.4 2168,-386.23 2164.17,-390.07 2160.33,-390.07"/>
<text text-anchor="middle" x="1936.5" y="-374.87" font-family="Arial" font-size="14.00" fill="#cfffac">component/Widget/WidgetCallCycleSettingModal/LastCallTimeBox.tsx</text>
</g>
<!-- component/Widget/WidgetCallCycleSettingModal.tsx&#45;&gt;component/Widget/WidgetCallCycleSettingModal/LastCallTimeBox.tsx -->
<g id="edge34" class="edge">
<title>component/Widget/WidgetCallCycleSettingModal.tsx&#45;&gt;component/Widget/WidgetCallCycleSettingModal/LastCallTimeBox.tsx</title>
<path fill="none" stroke="#757575" d="M1604.35,-391.66C1633.09,-390.52 1663.34,-389.33 1693.37,-388.14"/>
<polygon fill="#757575" stroke="#757575" points="1693.51,-391.64 1703.36,-387.74 1693.23,-384.64 1693.51,-391.64"/>
</g>
<!-- component/Widget/WidgetChart.tsx&#45;&gt;types/api.d.ts -->
<g id="edge38" class="edge">
<title>component/Widget/WidgetChart.tsx&#45;&gt;types/api.d.ts</title>
<path fill="none" stroke="#757575" d="M1086.34,-250.09C1119.29,-253.06 1155.01,-256.11 1188,-258.57 1296.78,-266.68 2069.27,-270.18 2168,-316.57 2262.38,-360.91 2334.59,-469.44 2362.24,-515.89"/>
<polygon fill="#757575" stroke="#757575" points="2359.19,-517.62 2367.25,-524.5 2365.24,-514.09 2359.19,-517.62"/>
</g>
<!-- component/chart/BarChart.tsx -->
<g id="node35" class="node">
<title>component/chart/BarChart.tsx</title>
<path fill="none" stroke="#c6c5fe" d="M1522.33,-110.07C1522.33,-110.07 1334.67,-110.07 1334.67,-110.07 1330.83,-110.07 1327,-106.23 1327,-102.4 1327,-102.4 1327,-94.73 1327,-94.73 1327,-90.9 1330.83,-87.07 1334.67,-87.07 1334.67,-87.07 1522.33,-87.07 1522.33,-87.07 1526.17,-87.07 1530,-90.9 1530,-94.73 1530,-94.73 1530,-102.4 1530,-102.4 1530,-106.23 1526.17,-110.07 1522.33,-110.07"/>
<text text-anchor="middle" x="1428.5" y="-94.87" font-family="Arial" font-size="14.00" fill="#c6c5fe">component/chart/BarChart.tsx</text>
</g>
<!-- component/Widget/WidgetChart.tsx&#45;&gt;component/chart/BarChart.tsx -->
<g id="edge35" class="edge">
<title>component/Widget/WidgetChart.tsx&#45;&gt;component/chart/BarChart.tsx</title>
<path fill="none" stroke="#757575" d="M982.22,-226.69C1017.53,-201.57 1104.86,-143.33 1188,-118.57 1228.57,-106.49 1274.61,-100.84 1315.4,-98.42"/>
<polygon fill="#757575" stroke="#757575" points="1315.44,-101.93 1325.24,-97.91 1315.07,-94.94 1315.44,-101.93"/>
</g>
<!-- component/chart/InformaticsChart.tsx -->
<g id="node36" class="node">
<title>component/chart/InformaticsChart.tsx</title>
<path fill="none" stroke="#c6c5fe" d="M1546.83,-250.07C1546.83,-250.07 1310.17,-250.07 1310.17,-250.07 1306.33,-250.07 1302.5,-246.23 1302.5,-242.4 1302.5,-242.4 1302.5,-234.73 1302.5,-234.73 1302.5,-230.9 1306.33,-227.07 1310.17,-227.07 1310.17,-227.07 1546.83,-227.07 1546.83,-227.07 1550.67,-227.07 1554.5,-230.9 1554.5,-234.73 1554.5,-234.73 1554.5,-242.4 1554.5,-242.4 1554.5,-246.23 1550.67,-250.07 1546.83,-250.07"/>
<text text-anchor="middle" x="1428.5" y="-234.87" font-family="Arial" font-size="14.00" fill="#c6c5fe">component/chart/InformaticsChart.tsx</text>
</g>
<!-- component/Widget/WidgetChart.tsx&#45;&gt;component/chart/InformaticsChart.tsx -->
<g id="edge36" class="edge">
<title>component/Widget/WidgetChart.tsx&#45;&gt;component/chart/InformaticsChart.tsx</title>
<path fill="none" stroke="#757575" d="M1086.35,-238.57C1149.09,-238.57 1226.07,-238.57 1291.02,-238.57"/>
<polygon fill="#757575" stroke="#757575" points="1290.65,-242.07 1300.65,-238.57 1290.65,-235.07 1290.65,-242.07"/>
</g>
<!-- component/chart/LineChart.tsx -->
<g id="node37" class="node">
<title>component/chart/LineChart.tsx</title>
<path fill="none" stroke="#c6c5fe" d="M1525.33,-151.07C1525.33,-151.07 1331.67,-151.07 1331.67,-151.07 1327.83,-151.07 1324,-147.23 1324,-143.4 1324,-143.4 1324,-135.73 1324,-135.73 1324,-131.9 1327.83,-128.07 1331.67,-128.07 1331.67,-128.07 1525.33,-128.07 1525.33,-128.07 1529.17,-128.07 1533,-131.9 1533,-135.73 1533,-135.73 1533,-143.4 1533,-143.4 1533,-147.23 1529.17,-151.07 1525.33,-151.07"/>
<text text-anchor="middle" x="1428.5" y="-135.87" font-family="Arial" font-size="14.00" fill="#c6c5fe">component/chart/LineChart.tsx</text>
</g>
<!-- component/Widget/WidgetChart.tsx&#45;&gt;component/chart/LineChart.tsx -->
<g id="edge37" class="edge">
<title>component/Widget/WidgetChart.tsx&#45;&gt;component/chart/LineChart.tsx</title>
<path fill="none" stroke="#757575" d="M1021.67,-226.63C1106.82,-208.36 1269.13,-173.54 1360.57,-153.92"/>
<polygon fill="#757575" stroke="#757575" points="1361.11,-157.39 1370.16,-151.87 1359.64,-150.54 1361.11,-157.39"/>
</g>
<!-- hook/Widget/useHandleWidgetApi.tsx&#45;&gt;common/api.ts -->
<g id="edge61" class="edge">
<title>hook/Widget/useHandleWidgetApi.tsx&#45;&gt;common/api.ts</title>
<path fill="none" stroke="#757575" d="M1557.19,-508.41C1656.8,-516.09 1791.1,-526.44 1869.99,-532.52"/>
<polygon fill="#757575" stroke="#757575" points="1869.47,-535.99 1879.71,-533.27 1870,-529.01 1869.47,-535.99"/>
</g>
<!-- hook/Widget/useHandleWidgetApi.tsx&#45;&gt;types/widget.d.ts -->
<g id="edge66" class="edge">
<title>hook/Widget/useHandleWidgetApi.tsx&#45;&gt;types/widget.d.ts</title>
<path fill="none" stroke="#757575" d="M1557.25,-492.09C1810.01,-480.67 2365.21,-462.91 2547,-516.57 2620.7,-538.32 2693.87,-594.69 2729,-624.48"/>
<polygon fill="#757575" stroke="#757575" points="2726.47,-626.92 2736.33,-630.79 2731.04,-621.61 2726.47,-626.92"/>
</g>
<!-- hook/Widget/useHandleWidgetApi.tsx&#45;&gt;types/chart.d.ts -->
<g id="edge65" class="edge">
<title>hook/Widget/useHandleWidgetApi.tsx&#45;&gt;types/chart.d.ts</title>
<path fill="none" stroke="#757575" d="M1557.33,-490.89C1761.54,-478.25 2141.27,-453.15 2168,-439.57 2266.21,-389.68 2337.2,-270.84 2363.4,-221.56"/>
<polygon fill="#757575" stroke="#757575" points="2366.49,-223.21 2368.01,-212.72 2360.28,-219.97 2366.49,-223.21"/>
</g>
<!-- hook/Widget/useHandleWidgetApi.tsx&#45;&gt;common/date.ts -->
<g id="edge62" class="edge">
<title>hook/Widget/useHandleWidgetApi.tsx&#45;&gt;common/date.ts</title>
<path fill="none" stroke="#757575" d="M1557.44,-497.58C1594.7,-501.18 1634.61,-509 1669,-524.57 1688.77,-533.52 1685.12,-548.86 1705,-557.57 1799.57,-599.01 2065.19,-587.01 2168,-596.57 2213.49,-600.8 2264.57,-605.99 2304.55,-610.15"/>
<polygon fill="#757575" stroke="#757575" points="2303.96,-613.61 2314.27,-611.17 2304.69,-606.65 2303.96,-613.61"/>
</g>
<!-- hook/Widget/useHandleWidgetApi.tsx&#45;&gt;common/widget.ts -->
<g id="edge63" class="edge">
<title>hook/Widget/useHandleWidgetApi.tsx&#45;&gt;common/widget.ts</title>
<path fill="none" stroke="#757575" d="M1484.95,-486.59C1540.43,-474.91 1628.32,-457.25 1705,-445.57 1756.09,-437.78 1813.88,-431.27 1858.82,-426.71"/>
<polygon fill="#757575" stroke="#757575" points="1859.14,-430.2 1868.74,-425.71 1858.44,-423.23 1859.14,-430.2"/>
</g>
<!-- hook/Widget/useHandleWidgetApi.tsx&#45;&gt;store/DashboardProvider.tsx -->
<g id="edge64" class="edge">
<title>hook/Widget/useHandleWidgetApi.tsx&#45;&gt;store/DashboardProvider.tsx</title>
<path fill="none" stroke="#757575" d="M1557.29,-490.28C1595.88,-493.36 1636.57,-502.72 1669,-524.57 1697.03,-543.46 1677.01,-572.62 1705,-591.57 1740.06,-615.3 1785.19,-623.92 1826.21,-625.85"/>
<polygon fill="#757575" stroke="#757575" points="1826.04,-629.34 1836.14,-626.17 1826.26,-622.35 1826.04,-629.34"/>
</g>
<!-- store/WidgetProvider.tsx&#45;&gt;types/widget.d.ts -->
<g id="edge75" class="edge">
<title>store/WidgetProvider.tsx&#45;&gt;types/widget.d.ts</title>
<path fill="none" stroke="#757575" d="M2023.46,-953.8C2069.61,-955.07 2125.56,-949.43 2168,-922.57 2194.6,-905.73 2179.97,-881.91 2204,-861.57 2328.67,-756.03 2395.53,-790.7 2547,-729.57 2604.99,-706.16 2671.67,-677.68 2712.43,-660.09"/>
<polygon fill="#757575" stroke="#757575" points="2713.79,-663.32 2721.58,-656.14 2711.01,-656.89 2713.79,-663.32"/>
</g>
<!-- component/chart/BarChart.tsx&#45;&gt;common/chart.ts -->
<g id="edge44" class="edge">
<title>component/chart/BarChart.tsx&#45;&gt;common/chart.ts</title>
<path fill="none" stroke="#757575" d="M1530.38,-98.57C1629.02,-98.57 1776.73,-98.57 1863.89,-98.57"/>
<polygon fill="#757575" stroke="#757575" points="1863.74,-102.07 1873.74,-98.57 1863.74,-95.07 1863.74,-102.07"/>
</g>
<!-- component/chart/BarChart.tsx&#45;&gt;types/chart.d.ts -->
<g id="edge47" class="edge">
<title>component/chart/BarChart.tsx&#45;&gt;types/chart.d.ts</title>
<path fill="none" stroke="#757575" d="M1461.98,-86.69C1567.39,-50.02 1908.19,53.62 2168,-36.57 2250.74,-65.29 2325.38,-142.43 2357.64,-179.35"/>
<polygon fill="#757575" stroke="#757575" points="2354.75,-181.36 2363.92,-186.66 2360.06,-176.8 2354.75,-181.36"/>
</g>
<!-- component/chart/ChartSvg.tsx -->
<g id="node42" class="node">
<title>component/chart/ChartSvg.tsx</title>
<path fill="none" stroke="#cfffac" d="M2031.83,-69.07C2031.83,-69.07 1841.17,-69.07 1841.17,-69.07 1837.33,-69.07 1833.5,-65.23 1833.5,-61.4 1833.5,-61.4 1833.5,-53.73 1833.5,-53.73 1833.5,-49.9 1837.33,-46.07 1841.17,-46.07 1841.17,-46.07 2031.83,-46.07 2031.83,-46.07 2035.67,-46.07 2039.5,-49.9 2039.5,-53.73 2039.5,-53.73 2039.5,-61.4 2039.5,-61.4 2039.5,-65.23 2035.67,-69.07 2031.83,-69.07"/>
<text text-anchor="middle" x="1936.5" y="-53.87" font-family="Arial" font-size="14.00" fill="#cfffac">component/chart/ChartSvg.tsx</text>
</g>
<!-- component/chart/BarChart.tsx&#45;&gt;component/chart/ChartSvg.tsx -->
<g id="edge45" class="edge">
<title>component/chart/BarChart.tsx&#45;&gt;component/chart/ChartSvg.tsx</title>
<path fill="none" stroke="#757575" d="M1530.38,-90.39C1614.48,-83.58 1734.26,-73.87 1821.76,-66.78"/>
<polygon fill="#757575" stroke="#757575" points="1821.88,-70.29 1831.56,-65.99 1821.31,-63.31 1821.88,-70.29"/>
</g>
<!-- hook/useResize.tsx -->
<g id="node43" class="node">
<title>hook/useResize.tsx</title>
<path fill="none" stroke="#cfffac" d="M1998.83,-151.07C1998.83,-151.07 1874.17,-151.07 1874.17,-151.07 1870.33,-151.07 1866.5,-147.23 1866.5,-143.4 1866.5,-143.4 1866.5,-135.73 1866.5,-135.73 1866.5,-131.9 1870.33,-128.07 1874.17,-128.07 1874.17,-128.07 1998.83,-128.07 1998.83,-128.07 2002.67,-128.07 2006.5,-131.9 2006.5,-135.73 2006.5,-135.73 2006.5,-143.4 2006.5,-143.4 2006.5,-147.23 2002.67,-151.07 1998.83,-151.07"/>
<text text-anchor="middle" x="1936.5" y="-135.87" font-family="Arial" font-size="14.00" fill="#cfffac">hook/useResize.tsx</text>
</g>
<!-- component/chart/BarChart.tsx&#45;&gt;hook/useResize.tsx -->
<g id="edge46" class="edge">
<title>component/chart/BarChart.tsx&#45;&gt;hook/useResize.tsx</title>
<path fill="none" stroke="#757575" d="M1530.38,-106.74C1625.67,-114.46 1766.75,-125.89 1854.8,-133.03"/>
<polygon fill="#757575" stroke="#757575" points="1854.3,-136.5 1864.55,-133.82 1854.87,-129.52 1854.3,-136.5"/>
</g>
<!-- component/chart/InformaticsChart.tsx&#45;&gt;types/chart.d.ts -->
<g id="edge49" class="edge">
<title>component/chart/InformaticsChart.tsx&#45;&gt;types/chart.d.ts</title>
<path fill="none" stroke="#757575" d="M1554.96,-246.12C1702.17,-253.27 1953.43,-260.16 2168,-239.57 2218.34,-234.74 2274.64,-223.43 2315.73,-214.06"/>
<polygon fill="#757575" stroke="#757575" points="2316.47,-217.48 2325.42,-211.82 2314.89,-210.66 2316.47,-217.48"/>
</g>
<!-- component/chart/InformaticsChart/InforMaticsBox.tsx -->
<g id="node44" class="node">
<title>component/chart/InformaticsChart/InforMaticsBox.tsx</title>
<path fill="none" stroke="#c6c5fe" d="M2103.83,-231.07C2103.83,-231.07 1769.17,-231.07 1769.17,-231.07 1765.33,-231.07 1761.5,-227.23 1761.5,-223.4 1761.5,-223.4 1761.5,-215.73 1761.5,-215.73 1761.5,-211.9 1765.33,-208.07 1769.17,-208.07 1769.17,-208.07 2103.83,-208.07 2103.83,-208.07 2107.67,-208.07 2111.5,-211.9 2111.5,-215.73 2111.5,-215.73 2111.5,-223.4 2111.5,-223.4 2111.5,-227.23 2107.67,-231.07 2103.83,-231.07"/>
<text text-anchor="middle" x="1936.5" y="-215.87" font-family="Arial" font-size="14.00" fill="#c6c5fe">component/chart/InformaticsChart/InforMaticsBox.tsx</text>
</g>
<!-- component/chart/InformaticsChart.tsx&#45;&gt;component/chart/InformaticsChart/InforMaticsBox.tsx -->
<g id="edge48" class="edge">
<title>component/chart/InformaticsChart.tsx&#45;&gt;component/chart/InformaticsChart/InforMaticsBox.tsx</title>
<path fill="none" stroke="#757575" d="M1554.9,-233.86C1613.7,-231.65 1684.94,-228.98 1749.82,-226.54"/>
<polygon fill="#757575" stroke="#757575" points="1749.63,-230.05 1759.5,-226.18 1749.37,-223.05 1749.63,-230.05"/>
</g>
<!-- component/chart/LineChart.tsx&#45;&gt;common/chart.ts -->
<g id="edge51" class="edge">
<title>component/chart/LineChart.tsx&#45;&gt;common/chart.ts</title>
<path fill="none" stroke="#757575" d="M1533.42,-131.15C1632.1,-123.15 1777.81,-111.35 1864.05,-104.36"/>
<polygon fill="#757575" stroke="#757575" points="1864.1,-107.86 1873.79,-103.57 1863.54,-100.89 1864.1,-107.86"/>
</g>
<!-- component/chart/LineChart.tsx&#45;&gt;types/chart.d.ts -->
<g id="edge54" class="edge">
<title>component/chart/LineChart.tsx&#45;&gt;types/chart.d.ts</title>
<path fill="none" stroke="#757575" d="M1533.48,-147.43C1585.06,-151.25 1648.3,-155.82 1705,-159.57 1925.61,-174.16 2187.27,-189.11 2307.73,-195.86"/>
<polygon fill="#757575" stroke="#757575" points="2307.25,-199.34 2317.43,-196.4 2307.64,-192.35 2307.25,-199.34"/>
</g>
<!-- component/chart/LineChart.tsx&#45;&gt;component/chart/ChartSvg.tsx -->
<g id="edge52" class="edge">
<title>component/chart/LineChart.tsx&#45;&gt;component/chart/ChartSvg.tsx</title>
<path fill="none" stroke="#757575" d="M1533.48,-147.13C1577.38,-146.2 1627.76,-139.46 1669,-118.57 1690.63,-107.61 1683.36,-88.52 1705,-77.57 1740.48,-59.62 1782.98,-52.56 1821.77,-50.65"/>
<polygon fill="#757575" stroke="#757575" points="1821.76,-54.16 1831.62,-50.29 1821.5,-47.16 1821.76,-54.16"/>
</g>
<!-- component/chart/LineChart.tsx&#45;&gt;hook/useResize.tsx -->
<g id="edge53" class="edge">
<title>component/chart/LineChart.tsx&#45;&gt;hook/useResize.tsx</title>
<path fill="none" stroke="#757575" d="M1533.42,-139.57C1628.64,-139.57 1767.65,-139.57 1854.76,-139.57"/>
<polygon fill="#757575" stroke="#757575" points="1854.66,-143.07 1864.66,-139.57 1854.66,-136.07 1854.66,-143.07"/>
</g>
<!-- component/Widget/WidgetPropsSettingModal.tsx -->
<g id="node38" class="node">
<title>component/Widget/WidgetPropsSettingModal.tsx</title>
<path fill="none" stroke="#c6c5fe" d="M1121.83,-670.07C1121.83,-670.07 808.17,-670.07 808.17,-670.07 804.33,-670.07 800.5,-666.23 800.5,-662.4 800.5,-662.4 800.5,-654.73 800.5,-654.73 800.5,-650.9 804.33,-647.07 808.17,-647.07 808.17,-647.07 1121.83,-647.07 1121.83,-647.07 1125.67,-647.07 1129.5,-650.9 1129.5,-654.73 1129.5,-654.73 1129.5,-662.4 1129.5,-662.4 1129.5,-666.23 1125.67,-670.07 1121.83,-670.07"/>
<text text-anchor="middle" x="965" y="-654.87" font-family="Arial" font-size="14.00" fill="#c6c5fe">component/Widget/WidgetPropsSettingModal.tsx</text>
</g>
<!-- component/Widget/WidgetPropsSettingModal.tsx&#45;&gt;store/WidgetPropsSettingModalProvider.tsx -->
<g id="edge42" class="edge">
<title>component/Widget/WidgetPropsSettingModal.tsx&#45;&gt;store/WidgetPropsSettingModalProvider.tsx</title>
<path fill="none" stroke="#757575" d="M1098.35,-670.54C1127.86,-673.2 1158.99,-675.99 1188,-678.57 1217.31,-681.17 1248.64,-683.94 1278.65,-686.57"/>
<polygon fill="#757575" stroke="#757575" points="1278.3,-690.05 1288.57,-687.44 1278.92,-683.08 1278.3,-690.05"/>
</g>
<!-- component/Widget/WidgetPropsSettingModal/WidgetPropsButtons.tsx -->
<g id="node39" class="node">
<title>component/Widget/WidgetPropsSettingModal/WidgetPropsButtons.tsx</title>
<path fill="none" stroke="#c6c5fe" d="M1653.33,-834.07C1653.33,-834.07 1203.67,-834.07 1203.67,-834.07 1199.83,-834.07 1196,-830.23 1196,-826.4 1196,-826.4 1196,-818.73 1196,-818.73 1196,-814.9 1199.83,-811.07 1203.67,-811.07 1203.67,-811.07 1653.33,-811.07 1653.33,-811.07 1657.17,-811.07 1661,-814.9 1661,-818.73 1661,-818.73 1661,-826.4 1661,-826.4 1661,-830.23 1657.17,-834.07 1653.33,-834.07"/>
<text text-anchor="middle" x="1428.5" y="-818.87" font-family="Arial" font-size="14.00" fill="#c6c5fe">component/Widget/WidgetPropsSettingModal/WidgetPropsButtons.tsx</text>
</g>
<!-- component/Widget/WidgetPropsSettingModal.tsx&#45;&gt;component/Widget/WidgetPropsSettingModal/WidgetPropsButtons.tsx -->
<g id="edge39" class="edge">
<title>component/Widget/WidgetPropsSettingModal.tsx&#45;&gt;component/Widget/WidgetPropsSettingModal/WidgetPropsButtons.tsx</title>
<path fill="none" stroke="#757575" d="M1129.65,-664.23C1137.62,-668.11 1145.15,-672.84 1152,-678.57 1195.69,-715.11 1143.95,-765.45 1188,-801.57 1234.46,-839.66 1304.39,-841.56 1356.71,-835.92"/>
<polygon fill="#757575" stroke="#757575" points="1356.91,-839.42 1366.42,-834.75 1356.07,-832.47 1356.91,-839.42"/>
</g>
<!-- component/Widget/WidgetPropsSettingModal/WidgetPropsList.tsx -->
<g id="node40" class="node">
<title>component/Widget/WidgetPropsSettingModal/WidgetPropsList.tsx</title>
<path fill="none" stroke="#cfffac" d="M1640.83,-670.07C1640.83,-670.07 1216.17,-670.07 1216.17,-670.07 1212.33,-670.07 1208.5,-666.23 1208.5,-662.4 1208.5,-662.4 1208.5,-654.73 1208.5,-654.73 1208.5,-650.9 1212.33,-647.07 1216.17,-647.07 1216.17,-647.07 1640.83,-647.07 1640.83,-647.07 1644.67,-647.07 1648.5,-650.9 1648.5,-654.73 1648.5,-654.73 1648.5,-662.4 1648.5,-662.4 1648.5,-666.23 1644.67,-670.07 1640.83,-670.07"/>
<text text-anchor="middle" x="1428.5" y="-654.87" font-family="Arial" font-size="14.00" fill="#cfffac">component/Widget/WidgetPropsSettingModal/WidgetPropsList.tsx</text>
</g>
<!-- component/Widget/WidgetPropsSettingModal.tsx&#45;&gt;component/Widget/WidgetPropsSettingModal/WidgetPropsList.tsx -->
<g id="edge40" class="edge">
<title>component/Widget/WidgetPropsSettingModal.tsx&#45;&gt;component/Widget/WidgetPropsSettingModal/WidgetPropsList.tsx</title>
<path fill="none" stroke="#757575" d="M1129.68,-658.57C1151.41,-658.57 1174.01,-658.57 1196.61,-658.57"/>
<polygon fill="#757575" stroke="#757575" points="1196.55,-662.07 1206.55,-658.57 1196.55,-655.07 1196.55,-662.07"/>
</g>
<!-- hook/useGetApiList.tsx -->
<g id="node41" class="node">
<title>hook/useGetApiList.tsx</title>
<path fill="none" stroke="#c6c5fe" d="M1502.33,-590.07C1502.33,-590.07 1354.67,-590.07 1354.67,-590.07 1350.83,-590.07 1347,-586.23 1347,-582.4 1347,-582.4 1347,-574.73 1347,-574.73 1347,-570.9 1350.83,-567.07 1354.67,-567.07 1354.67,-567.07 1502.33,-567.07 1502.33,-567.07 1506.17,-567.07 1510,-570.9 1510,-574.73 1510,-574.73 1510,-582.4 1510,-582.4 1510,-586.23 1506.17,-590.07 1502.33,-590.07"/>
<text text-anchor="middle" x="1428.5" y="-574.87" font-family="Arial" font-size="14.00" fill="#c6c5fe">hook/useGetApiList.tsx</text>
</g>
<!-- component/Widget/WidgetPropsSettingModal.tsx&#45;&gt;hook/useGetApiList.tsx -->
<g id="edge41" class="edge">
<title>component/Widget/WidgetPropsSettingModal.tsx&#45;&gt;hook/useGetApiList.tsx</title>
<path fill="none" stroke="#757575" d="M1035.09,-646.59C1118.56,-632.12 1258.74,-607.82 1347.02,-592.52"/>
<polygon fill="#757575" stroke="#757575" points="1347.57,-595.98 1356.82,-590.82 1346.37,-589.08 1347.57,-595.98"/>
</g>
<!-- component/Widget/WidgetPropsSettingModal/WidgetPropsButtons.tsx&#45;&gt;store/WidgetProvider.tsx -->
<g id="edge43" class="edge">
<title>component/Widget/WidgetPropsSettingModal/WidgetPropsButtons.tsx&#45;&gt;store/WidgetProvider.tsx</title>
<path fill="none" stroke="#757575" d="M1644.57,-834.49C1653.11,-838.49 1661.3,-843.15 1669,-848.57 1698.91,-869.61 1674.91,-901.78 1705,-922.57 1743.25,-948.98 1794,-955.82 1838.14,-955.37"/>
<polygon fill="#757575" stroke="#757575" points="1838.07,-958.87 1847.99,-955.13 1837.91,-951.87 1838.07,-958.87"/>
</g>
<!-- hook/useGetApiList.tsx&#45;&gt;common/api.ts -->
<g id="edge67" class="edge">
<title>hook/useGetApiList.tsx&#45;&gt;common/api.ts</title>
<path fill="none" stroke="#757575" d="M1510.24,-572.03C1609.91,-563.95 1777.51,-550.37 1869.73,-542.9"/>
<polygon fill="#757575" stroke="#757575" points="1869.95,-546.39 1879.63,-542.09 1869.38,-539.41 1869.95,-546.39"/>
</g>
<!-- component/chart/InformaticsChart/InforMaticsBox.tsx&#45;&gt;types/chart.d.ts -->
<g id="edge50" class="edge">
<title>component/chart/InformaticsChart/InforMaticsBox.tsx&#45;&gt;types/chart.d.ts</title>
<path fill="none" stroke="#757575" d="M2111.78,-211.59C2180.34,-208.45 2254.96,-205.04 2307.09,-202.65"/>
<polygon fill="#757575" stroke="#757575" points="2307.18,-206.15 2317.01,-202.2 2306.86,-199.16 2307.18,-206.15"/>
</g>
<!-- component/common/DatePicker/DatePickerTitle.tsx&#45;&gt;types/widget.d.ts -->
<g id="edge58" class="edge">
<title>component/common/DatePicker/DatePickerTitle.tsx&#45;&gt;types/widget.d.ts</title>
<path fill="none" stroke="#757575" d="M2444.23,-697.62C2510.53,-685.92 2611.16,-668.16 2678.79,-656.22"/>
<polygon fill="#757575" stroke="#757575" points="2679.04,-659.73 2688.28,-654.55 2677.82,-652.84 2679.04,-659.73"/>
</g>
<!-- component/common/DatePicker/ListPicker.tsx&#45;&gt;types/datePicker.d.ts -->
<g id="edge60" class="edge">
<title>component/common/DatePicker/ListPicker.tsx&#45;&gt;types/datePicker.d.ts</title>
<path fill="none" stroke="#757575" d="M2488.46,-894.54C2545.2,-900.61 2612.99,-907.86 2665.4,-913.47"/>
<polygon fill="#757575" stroke="#757575" points="2664.86,-916.93 2675.18,-914.51 2665.6,-909.97 2664.86,-916.93"/>
</g>
<!-- component/common/DatePicker/ListPickerItem.tsx -->
<g id="node48" class="node">
<title>component/common/DatePicker/ListPickerItem.tsx</title>
<path fill="none" stroke="#cfffac" d="M2912.33,-893.07C2912.33,-893.07 2590.67,-893.07 2590.67,-893.07 2586.83,-893.07 2583,-889.23 2583,-885.4 2583,-885.4 2583,-877.73 2583,-877.73 2583,-873.9 2586.83,-870.07 2590.67,-870.07 2590.67,-870.07 2912.33,-870.07 2912.33,-870.07 2916.17,-870.07 2920,-873.9 2920,-877.73 2920,-877.73 2920,-885.4 2920,-885.4 2920,-889.23 2916.17,-893.07 2912.33,-893.07"/>
<text text-anchor="middle" x="2751.5" y="-877.87" font-family="Arial" font-size="14.00" fill="#cfffac">component/common/DatePicker/ListPickerItem.tsx</text>
</g>
<!-- component/common/DatePicker/ListPicker.tsx&#45;&gt;component/common/DatePicker/ListPickerItem.tsx -->
<g id="edge59" class="edge">
<title>component/common/DatePicker/ListPicker.tsx&#45;&gt;component/common/DatePicker/ListPickerItem.tsx</title>
<path fill="none" stroke="#757575" d="M2529.97,-882.16C2543.65,-882.12 2557.58,-882.08 2571.45,-882.05"/>
<polygon fill="#757575" stroke="#757575" points="2571.05,-885.55 2581.04,-882.02 2571.03,-878.55 2571.05,-885.55"/>
</g>
<!-- page/Dashboard.tsx&#45;&gt;component/Dashboard/DashboardHeader.tsx -->
<g id="edge68" class="edge">
<title>page/Dashboard.tsx&#45;&gt;component/Dashboard/DashboardHeader.tsx</title>
<path fill="none" stroke="#757575" d="M403.39,-743.39C412.27,-744.11 421.6,-744.88 431.17,-745.66"/>
<polygon fill="#757575" stroke="#757575" points="430.73,-749.13 440.98,-746.46 431.3,-742.15 430.73,-749.13"/>
</g>
<!-- page/Dashboard.tsx&#45;&gt;component/Widget/Widget.tsx -->
<g id="edge69" class="edge">
<title>page/Dashboard.tsx&#45;&gt;component/Widget/Widget.tsx</title>
<path fill="none" stroke="#757575" d="M347.34,-725.77C390.35,-692.7 512.41,-598.84 564.95,-558.44"/>
<polygon fill="#757575" stroke="#757575" points="566.92,-561.34 572.72,-552.47 562.66,-555.79 566.92,-561.34"/>
</g>
<!-- page/Dashboard.tsx&#45;&gt;store/WidgetProvider.tsx -->
<g id="edge71" class="edge">
<title>page/Dashboard.tsx&#45;&gt;store/WidgetProvider.tsx</title>
<path fill="none" stroke="#757575" d="M359.26,-749.54C380.62,-758.55 411.26,-770.65 439,-778.57 764.98,-871.57 851.03,-885.69 1188,-922.57 1420.3,-947.99 1695.48,-948.05 1838.4,-945.84"/>
<polygon fill="#757575" stroke="#757575" points="1838.26,-949.34 1848.2,-945.68 1838.14,-942.34 1838.26,-949.34"/>
</g>
<!-- page/Dashboard.tsx&#45;&gt;component/Widget/WidgetPropsSettingModal.tsx -->
<g id="edge70" class="edge">
<title>page/Dashboard.tsx&#45;&gt;component/Widget/WidgetPropsSettingModal.tsx</title>
<path fill="none" stroke="#757575" d="M403.38,-727.58C491.39,-715.39 645.58,-694.44 778,-678.57 797.09,-676.28 817.3,-673.98 837.09,-671.8"/>
<polygon fill="#757575" stroke="#757575" points="837.3,-675.29 846.85,-670.72 836.53,-668.34 837.3,-675.29"/>
</g>
</g>
</svg>
