<?xml version="1.0" encoding="UTF-8" standalone="no"?>
<!DOCTYPE svg PUBLIC "-//W3C//DTD SVG 1.1//EN"
 "http://www.w3.org/Graphics/SVG/1.1/DTD/svg11.dtd">
<!-- Generated by graphviz version 7.1.0 (20230121.1956)
 -->
<!-- Title: G Pages: 1 -->
<svg width="2398pt" height="1179pt"
 viewBox="0.00 0.00 2398.20 1179.37" xmlns="http://www.w3.org/2000/svg" xmlns:xlink="http://www.w3.org/1999/xlink">
<g id="graph0" class="graph" transform="scale(1 1) rotate(0) translate(21.6 1157.77)">
<title>G</title>
<polygon fill="#111111" stroke="none" points="-21.6,21.6 -21.6,-1157.77 2376.6,-1157.77 2376.6,21.6 -21.6,21.6"/>
<!-- App.tsx -->
<g id="node1" class="node">
<title>App.tsx</title>
<path fill="none" stroke="#c6c5fe" d="M57.33,-682.17C57.33,-682.17 7.67,-682.17 7.67,-682.17 3.83,-682.17 0,-678.34 0,-674.5 0,-674.5 0,-666.84 0,-666.84 0,-663 3.83,-659.17 7.67,-659.17 7.67,-659.17 57.33,-659.17 57.33,-659.17 61.17,-659.17 65,-663 65,-666.84 65,-666.84 65,-674.5 65,-674.5 65,-678.34 61.17,-682.17 57.33,-682.17"/>
<text text-anchor="middle" x="32.5" y="-666.97" font-family="Arial" font-size="14.00" fill="#c6c5fe">App.tsx</text>
</g>
<!-- router/Router.tsx -->
<g id="node2" class="node">
<title>router/Router.tsx</title>
<path fill="none" stroke="#c6c5fe" d="M215.33,-682.17C215.33,-682.17 108.67,-682.17 108.67,-682.17 104.83,-682.17 101,-678.34 101,-674.5 101,-674.5 101,-666.84 101,-666.84 101,-663 104.83,-659.17 108.67,-659.17 108.67,-659.17 215.33,-659.17 215.33,-659.17 219.17,-659.17 223,-663 223,-666.84 223,-666.84 223,-674.5 223,-674.5 223,-678.34 219.17,-682.17 215.33,-682.17"/>
<text text-anchor="middle" x="162" y="-666.97" font-family="Arial" font-size="14.00" fill="#c6c5fe">router/Router.tsx</text>
</g>
<!-- App.tsx&#45;&gt;router/Router.tsx -->
<g id="edge1" class="edge">
<title>App.tsx&#45;&gt;router/Router.tsx</title>
<path fill="none" stroke="#757575" d="M65.34,-670.67C72.7,-670.67 80.81,-670.67 89.12,-670.67"/>
<polygon fill="#757575" stroke="#757575" points="88.99,-674.17 98.99,-670.67 88.99,-667.17 88.99,-674.17"/>
</g>
<!-- page/Dashboard.tsx -->
<g id="node41" class="node">
<title>page/Dashboard.tsx</title>
<path fill="none" stroke="#c6c5fe" d="M395.33,-682.17C395.33,-682.17 266.67,-682.17 266.67,-682.17 262.83,-682.17 259,-678.34 259,-674.5 259,-674.5 259,-666.84 259,-666.84 259,-663 262.83,-659.17 266.67,-659.17 266.67,-659.17 395.33,-659.17 395.33,-659.17 399.17,-659.17 403,-663 403,-666.84 403,-666.84 403,-674.5 403,-674.5 403,-678.34 399.17,-682.17 395.33,-682.17"/>
<text text-anchor="middle" x="331" y="-666.97" font-family="Arial" font-size="14.00" fill="#c6c5fe">page/Dashboard.tsx</text>
</g>
<!-- router/Router.tsx&#45;&gt;page/Dashboard.tsx -->
<g id="edge64" class="edge">
<title>router/Router.tsx&#45;&gt;page/Dashboard.tsx</title>
<path fill="none" stroke="#757575" d="M223.29,-670.67C231.1,-670.67 239.21,-670.67 247.3,-670.67"/>
<polygon fill="#757575" stroke="#757575" points="247.19,-674.17 257.19,-670.67 247.19,-667.17 247.19,-674.17"/>
</g>
<!-- asset/image/pause.png -->
<g id="node3" class="node">
<title>asset/image/pause.png</title>
<path fill="none" stroke="#cfffac" d="M1118.83,-1061.17C1118.83,-1061.17 970.17,-1061.17 970.17,-1061.17 966.33,-1061.17 962.5,-1057.34 962.5,-1053.5 962.5,-1053.5 962.5,-1045.84 962.5,-1045.84 962.5,-1042 966.33,-1038.17 970.17,-1038.17 970.17,-1038.17 1118.83,-1038.17 1118.83,-1038.17 1122.67,-1038.17 1126.5,-1042 1126.5,-1045.84 1126.5,-1045.84 1126.5,-1053.5 1126.5,-1053.5 1126.5,-1057.34 1122.67,-1061.17 1118.83,-1061.17"/>
<text text-anchor="middle" x="1044.5" y="-1045.97" font-family="Arial" font-size="14.00" fill="#cfffac">asset/image/pause.png</text>
</g>
<!-- asset/image/play.png -->
<g id="node4" class="node">
<title>asset/image/play.png</title>
<path fill="none" stroke="#cfffac" d="M1112.33,-1020.17C1112.33,-1020.17 976.67,-1020.17 976.67,-1020.17 972.83,-1020.17 969,-1016.34 969,-1012.5 969,-1012.5 969,-1004.84 969,-1004.84 969,-1001 972.83,-997.17 976.67,-997.17 976.67,-997.17 1112.33,-997.17 1112.33,-997.17 1116.17,-997.17 1120,-1001 1120,-1004.84 1120,-1004.84 1120,-1012.5 1120,-1012.5 1120,-1016.34 1116.17,-1020.17 1112.33,-1020.17"/>
<text text-anchor="middle" x="1044.5" y="-1004.97" font-family="Arial" font-size="14.00" fill="#cfffac">asset/image/play.png</text>
</g>
<!-- common/api.ts -->
<g id="node5" class="node">
<title>common/api.ts</title>
<path fill="none" stroke="#c6c5fe" d="M1091.83,-544.17C1091.83,-544.17 997.17,-544.17 997.17,-544.17 993.33,-544.17 989.5,-540.34 989.5,-536.5 989.5,-536.5 989.5,-528.84 989.5,-528.84 989.5,-525 993.33,-521.17 997.17,-521.17 997.17,-521.17 1091.83,-521.17 1091.83,-521.17 1095.67,-521.17 1099.5,-525 1099.5,-528.84 1099.5,-528.84 1099.5,-536.5 1099.5,-536.5 1099.5,-540.34 1095.67,-544.17 1091.83,-544.17"/>
<text text-anchor="middle" x="1044.5" y="-528.97" font-family="Arial" font-size="14.00" fill="#c6c5fe">common/api.ts</text>
</g>
<!-- types/api.d.ts -->
<g id="node6" class="node">
<title>types/api.d.ts</title>
<path fill="none" stroke="#cfffac" d="M1595.33,-544.17C1595.33,-544.17 1509.67,-544.17 1509.67,-544.17 1505.83,-544.17 1502,-540.34 1502,-536.5 1502,-536.5 1502,-528.84 1502,-528.84 1502,-525 1505.83,-521.17 1509.67,-521.17 1509.67,-521.17 1595.33,-521.17 1595.33,-521.17 1599.17,-521.17 1603,-525 1603,-528.84 1603,-528.84 1603,-536.5 1603,-536.5 1603,-540.34 1599.17,-544.17 1595.33,-544.17"/>
<text text-anchor="middle" x="1552.5" y="-528.97" font-family="Arial" font-size="14.00" fill="#cfffac">types/api.d.ts</text>
</g>
<!-- common/api.ts&#45;&gt;types/api.d.ts -->
<g id="edge2" class="edge">
<title>common/api.ts&#45;&gt;types/api.d.ts</title>
<path fill="none" stroke="#757575" d="M1099.65,-532.67C1194.68,-532.67 1390.83,-532.67 1490.49,-532.67"/>
<polygon fill="#757575" stroke="#757575" points="1490.35,-536.17 1500.35,-532.67 1490.35,-529.17 1490.35,-536.17"/>
</g>
<!-- common/chart.ts -->
<g id="node7" class="node">
<title>common/chart.ts</title>
<path fill="none" stroke="#c6c5fe" d="M2048.33,-69.17C2048.33,-69.17 1941.67,-69.17 1941.67,-69.17 1937.83,-69.17 1934,-65.34 1934,-61.5 1934,-61.5 1934,-53.84 1934,-53.84 1934,-50 1937.83,-46.17 1941.67,-46.17 1941.67,-46.17 2048.33,-46.17 2048.33,-46.17 2052.17,-46.17 2056,-50 2056,-53.84 2056,-53.84 2056,-61.5 2056,-61.5 2056,-65.34 2052.17,-69.17 2048.33,-69.17"/>
<text text-anchor="middle" x="1995" y="-53.97" font-family="Arial" font-size="14.00" fill="#c6c5fe">common/chart.ts</text>
</g>
<!-- types/chart.d.ts -->
<g id="node8" class="node">
<title>types/chart.d.ts</title>
<path fill="none" stroke="#cfffac" d="M2329.33,-150.17C2329.33,-150.17 2231.67,-150.17 2231.67,-150.17 2227.83,-150.17 2224,-146.34 2224,-142.5 2224,-142.5 2224,-134.84 2224,-134.84 2224,-131 2227.83,-127.17 2231.67,-127.17 2231.67,-127.17 2329.33,-127.17 2329.33,-127.17 2333.17,-127.17 2337,-131 2337,-134.84 2337,-134.84 2337,-142.5 2337,-142.5 2337,-146.34 2333.17,-150.17 2329.33,-150.17"/>
<text text-anchor="middle" x="2280.5" y="-134.97" font-family="Arial" font-size="14.00" fill="#cfffac">types/chart.d.ts</text>
</g>
<!-- common/chart.ts&#45;&gt;types/chart.d.ts -->
<g id="edge3" class="edge">
<title>common/chart.ts&#45;&gt;types/chart.d.ts</title>
<path fill="none" stroke="#757575" d="M2056.42,-58.8C2090.47,-60.86 2133.38,-65.89 2170,-77.67 2200.58,-87.51 2232.3,-106.29 2253.68,-120.42"/>
<polygon fill="#757575" stroke="#757575" points="2251.52,-123.18 2261.76,-125.88 2255.44,-117.38 2251.52,-123.18"/>
</g>
<!-- common/date.ts -->
<g id="node9" class="node">
<title>common/date.ts</title>
<path fill="none" stroke="#cfffac" d="M2046.83,-510.17C2046.83,-510.17 1943.17,-510.17 1943.17,-510.17 1939.33,-510.17 1935.5,-506.34 1935.5,-502.5 1935.5,-502.5 1935.5,-494.84 1935.5,-494.84 1935.5,-491 1939.33,-487.17 1943.17,-487.17 1943.17,-487.17 2046.83,-487.17 2046.83,-487.17 2050.67,-487.17 2054.5,-491 2054.5,-494.84 2054.5,-494.84 2054.5,-502.5 2054.5,-502.5 2054.5,-506.34 2050.67,-510.17 2046.83,-510.17"/>
<text text-anchor="middle" x="1995" y="-494.97" font-family="Arial" font-size="14.00" fill="#cfffac">common/date.ts</text>
</g>
<!-- common/widget.ts -->
<g id="node10" class="node">
<title>common/widget.ts</title>
<path fill="none" stroke="#cfffac" d="M1610.83,-347.17C1610.83,-347.17 1494.17,-347.17 1494.17,-347.17 1490.33,-347.17 1486.5,-343.34 1486.5,-339.5 1486.5,-339.5 1486.5,-331.84 1486.5,-331.84 1486.5,-328 1490.33,-324.17 1494.17,-324.17 1494.17,-324.17 1610.83,-324.17 1610.83,-324.17 1614.67,-324.17 1618.5,-328 1618.5,-331.84 1618.5,-331.84 1618.5,-339.5 1618.5,-339.5 1618.5,-343.34 1614.67,-347.17 1610.83,-347.17"/>
<text text-anchor="middle" x="1552.5" y="-331.97" font-family="Arial" font-size="14.00" fill="#cfffac">common/widget.ts</text>
</g>
<!-- component/Dashboard/CommonStyle.ts -->
<g id="node11" class="node">
<title>component/Dashboard/CommonStyle.ts</title>
<path fill="none" stroke="#cfffac" d="M1679.83,-877.17C1679.83,-877.17 1425.17,-877.17 1425.17,-877.17 1421.33,-877.17 1417.5,-873.34 1417.5,-869.5 1417.5,-869.5 1417.5,-861.84 1417.5,-861.84 1417.5,-858 1421.33,-854.17 1425.17,-854.17 1425.17,-854.17 1679.83,-854.17 1679.83,-854.17 1683.67,-854.17 1687.5,-858 1687.5,-861.84 1687.5,-861.84 1687.5,-869.5 1687.5,-869.5 1687.5,-873.34 1683.67,-877.17 1679.83,-877.17"/>
<text text-anchor="middle" x="1552.5" y="-861.97" font-family="Arial" font-size="14.00" fill="#cfffac">component/Dashboard/CommonStyle.ts</text>
</g>
<!-- component/Dashboard/DashboardHeader.tsx -->
<g id="node12" class="node">
<title>component/Dashboard/DashboardHeader.tsx</title>
<path fill="none" stroke="#c6c5fe" d="M747.33,-917.17C747.33,-917.17 459.67,-917.17 459.67,-917.17 455.83,-917.17 452,-913.34 452,-909.5 452,-909.5 452,-901.84 452,-901.84 452,-898 455.83,-894.17 459.67,-894.17 459.67,-894.17 747.33,-894.17 747.33,-894.17 751.17,-894.17 755,-898 755,-901.84 755,-901.84 755,-909.5 755,-909.5 755,-913.34 751.17,-917.17 747.33,-917.17"/>
<text text-anchor="middle" x="603.5" y="-901.97" font-family="Arial" font-size="14.00" fill="#c6c5fe">component/Dashboard/DashboardHeader.tsx</text>
</g>
<!-- component/Dashboard/DashboardHeader.tsx&#45;&gt;asset/image/pause.png -->
<g id="edge4" class="edge">
<title>component/Dashboard/DashboardHeader.tsx&#45;&gt;asset/image/pause.png</title>
<path fill="none" stroke="#757575" d="M618.34,-917.46C649.22,-943 727.14,-1003.2 804,-1028.67 850.84,-1044.19 905.5,-1049.86 950.77,-1051.46"/>
<polygon fill="#757575" stroke="#757575" points="950.45,-1054.95 960.55,-1051.74 950.65,-1047.95 950.45,-1054.95"/>
</g>
<!-- component/Dashboard/DashboardHeader.tsx&#45;&gt;asset/image/play.png -->
<g id="edge5" class="edge">
<title>component/Dashboard/DashboardHeader.tsx&#45;&gt;asset/image/play.png</title>
<path fill="none" stroke="#757575" d="M627.08,-917.61C663.28,-936.14 737.05,-971.38 804,-987.67 853.91,-999.82 911.19,-1005.14 957.21,-1007.39"/>
<polygon fill="#757575" stroke="#757575" points="957,-1010.88 967.14,-1007.83 957.31,-1003.89 957,-1010.88"/>
</g>
<!-- component/Dashboard/DashboardHeader/CurrentTime.tsx -->
<g id="node13" class="node">
<title>component/Dashboard/DashboardHeader/CurrentTime.tsx</title>
<path fill="none" stroke="#cfffac" d="M1229.83,-979.17C1229.83,-979.17 859.17,-979.17 859.17,-979.17 855.33,-979.17 851.5,-975.34 851.5,-971.5 851.5,-971.5 851.5,-963.84 851.5,-963.84 851.5,-960 855.33,-956.17 859.17,-956.17 859.17,-956.17 1229.83,-956.17 1229.83,-956.17 1233.67,-956.17 1237.5,-960 1237.5,-963.84 1237.5,-963.84 1237.5,-971.5 1237.5,-971.5 1237.5,-975.34 1233.67,-979.17 1229.83,-979.17"/>
<text text-anchor="middle" x="1044.5" y="-963.97" font-family="Arial" font-size="14.00" fill="#cfffac">component/Dashboard/DashboardHeader/CurrentTime.tsx</text>
</g>
<!-- component/Dashboard/DashboardHeader.tsx&#45;&gt;component/Dashboard/DashboardHeader/CurrentTime.tsx -->
<g id="edge6" class="edge">
<title>component/Dashboard/DashboardHeader.tsx&#45;&gt;component/Dashboard/DashboardHeader/CurrentTime.tsx</title>
<path fill="none" stroke="#757575" d="M654.64,-917.65C694.82,-926.84 752.74,-939.18 804,-946.67 824.31,-949.64 845.64,-952.24 866.87,-954.51"/>
<polygon fill="#757575" stroke="#757575" points="866.49,-957.98 876.79,-955.54 867.21,-951.02 866.49,-957.98"/>
</g>
<!-- component/Dashboard/DashboardHeader/DatePickerArea.tsx -->
<g id="node14" class="node">
<title>component/Dashboard/DashboardHeader/DatePickerArea.tsx</title>
<path fill="none" stroke="#c6c5fe" d="M1240.33,-938.17C1240.33,-938.17 848.67,-938.17 848.67,-938.17 844.83,-938.17 841,-934.34 841,-930.5 841,-930.5 841,-922.84 841,-922.84 841,-919 844.83,-915.17 848.67,-915.17 848.67,-915.17 1240.33,-915.17 1240.33,-915.17 1244.17,-915.17 1248,-919 1248,-922.84 1248,-922.84 1248,-930.5 1248,-930.5 1248,-934.34 1244.17,-938.17 1240.33,-938.17"/>
<text text-anchor="middle" x="1044.5" y="-922.97" font-family="Arial" font-size="14.00" fill="#c6c5fe">component/Dashboard/DashboardHeader/DatePickerArea.tsx</text>
</g>
<!-- component/Dashboard/DashboardHeader.tsx&#45;&gt;component/Dashboard/DashboardHeader/DatePickerArea.tsx -->
<g id="edge7" class="edge">
<title>component/Dashboard/DashboardHeader.tsx&#45;&gt;component/Dashboard/DashboardHeader/DatePickerArea.tsx</title>
<path fill="none" stroke="#757575" d="M755.27,-912.88C779.15,-914.02 804.24,-915.22 829.24,-916.42"/>
<polygon fill="#757575" stroke="#757575" points="829.05,-919.91 839.21,-916.9 829.39,-912.92 829.05,-919.91"/>
</g>
<!-- component/Dashboard/DashboardHeader/SelectRealTimeRangeArea.tsx -->
<g id="node15" class="node">
<title>component/Dashboard/DashboardHeader/SelectRealTimeRangeArea.tsx</title>
<path fill="none" stroke="#c6c5fe" d="M1277.33,-897.17C1277.33,-897.17 811.67,-897.17 811.67,-897.17 807.83,-897.17 804,-893.34 804,-889.5 804,-889.5 804,-881.84 804,-881.84 804,-878 807.83,-874.17 811.67,-874.17 811.67,-874.17 1277.33,-874.17 1277.33,-874.17 1281.17,-874.17 1285,-878 1285,-881.84 1285,-881.84 1285,-889.5 1285,-889.5 1285,-893.34 1281.17,-897.17 1277.33,-897.17"/>
<text text-anchor="middle" x="1044.5" y="-881.97" font-family="Arial" font-size="14.00" fill="#c6c5fe">component/Dashboard/DashboardHeader/SelectRealTimeRangeArea.tsx</text>
</g>
<!-- component/Dashboard/DashboardHeader.tsx&#45;&gt;component/Dashboard/DashboardHeader/SelectRealTimeRangeArea.tsx -->
<g id="edge8" class="edge">
<title>component/Dashboard/DashboardHeader.tsx&#45;&gt;component/Dashboard/DashboardHeader/SelectRealTimeRangeArea.tsx</title>
<path fill="none" stroke="#757575" d="M755.27,-898.8C767.46,-898.25 779.96,-897.68 792.6,-897.1"/>
<polygon fill="#757575" stroke="#757575" points="792.4,-900.61 802.23,-896.66 792.08,-893.62 792.4,-900.61"/>
</g>
<!-- store/DashboardProvider.tsx -->
<g id="node16" class="node">
<title>store/DashboardProvider.tsx</title>
<path fill="none" stroke="#c6c5fe" d="M1643.33,-715.17C1643.33,-715.17 1461.67,-715.17 1461.67,-715.17 1457.83,-715.17 1454,-711.34 1454,-707.5 1454,-707.5 1454,-699.84 1454,-699.84 1454,-696 1457.83,-692.17 1461.67,-692.17 1461.67,-692.17 1643.33,-692.17 1643.33,-692.17 1647.17,-692.17 1651,-696 1651,-699.84 1651,-699.84 1651,-707.5 1651,-707.5 1651,-711.34 1647.17,-715.17 1643.33,-715.17"/>
<text text-anchor="middle" x="1552.5" y="-699.97" font-family="Arial" font-size="14.00" fill="#c6c5fe">store/DashboardProvider.tsx</text>
</g>
<!-- component/Dashboard/DashboardHeader.tsx&#45;&gt;store/DashboardProvider.tsx -->
<g id="edge9" class="edge">
<title>component/Dashboard/DashboardHeader.tsx&#45;&gt;store/DashboardProvider.tsx</title>
<path fill="none" stroke="#757575" d="M654.65,-893.72C694.82,-884.54 752.75,-872.2 804,-864.67 910.17,-849.06 1199.83,-886.95 1285,-821.67 1321.83,-793.44 1284.14,-751.85 1321,-723.67 1363.69,-691.04 1424.71,-687.05 1473.24,-690.68"/>
<polygon fill="#757575" stroke="#757575" points="1472.88,-694.16 1483.15,-691.55 1473.49,-687.19 1472.88,-694.16"/>
</g>
<!-- store/WidgetProvider.tsx -->
<g id="node17" class="node">
<title>store/WidgetProvider.tsx</title>
<path fill="none" stroke="#c6c5fe" d="M1631.33,-674.17C1631.33,-674.17 1473.67,-674.17 1473.67,-674.17 1469.83,-674.17 1466,-670.34 1466,-666.5 1466,-666.5 1466,-658.84 1466,-658.84 1466,-655 1469.83,-651.17 1473.67,-651.17 1473.67,-651.17 1631.33,-651.17 1631.33,-651.17 1635.17,-651.17 1639,-655 1639,-658.84 1639,-658.84 1639,-666.5 1639,-666.5 1639,-670.34 1635.17,-674.17 1631.33,-674.17"/>
<text text-anchor="middle" x="1552.5" y="-658.97" font-family="Arial" font-size="14.00" fill="#c6c5fe">store/WidgetProvider.tsx</text>
</g>
<!-- component/Dashboard/DashboardHeader.tsx&#45;&gt;store/WidgetProvider.tsx -->
<g id="edge10" class="edge">
<title>component/Dashboard/DashboardHeader.tsx&#45;&gt;store/WidgetProvider.tsx</title>
<path fill="none" stroke="#757575" d="M626.15,-893.82C661.94,-874.85 736.26,-838.15 804,-821.67 908.18,-796.32 1199.88,-848.87 1285,-783.67 1322.83,-754.69 1283.28,-711.79 1321,-682.67 1363.99,-649.48 1425.87,-645.77 1474.7,-649.66"/>
<polygon fill="#757575" stroke="#757575" points="1474.07,-653.11 1484.35,-650.56 1474.71,-646.14 1474.07,-653.11"/>
</g>
<!-- component/Dashboard/DashboardHeader/DatePickerArea.tsx&#45;&gt;common/date.ts -->
<g id="edge11" class="edge">
<title>component/Dashboard/DashboardHeader/DatePickerArea.tsx&#45;&gt;common/date.ts</title>
<path fill="none" stroke="#757575" d="M1222.08,-938.66C1427.19,-950.74 1742.89,-962.92 1784,-926.67 1831.88,-884.45 1789.16,-697.56 1820,-641.67 1852.33,-583.09 1919.17,-538.94 1959.95,-516.09"/>
<polygon fill="#757575" stroke="#757575" points="1961.54,-519.21 1968.64,-511.34 1958.19,-513.07 1961.54,-519.21"/>
</g>
<!-- component/Dashboard/DashboardHeader/DatePickerArea.tsx&#45;&gt;component/Dashboard/CommonStyle.ts -->
<g id="edge12" class="edge">
<title>component/Dashboard/DashboardHeader/DatePickerArea.tsx&#45;&gt;component/Dashboard/CommonStyle.ts</title>
<path fill="none" stroke="#757575" d="M1248.23,-914.98C1260.78,-912.38 1273.13,-909.31 1285,-905.67 1302.5,-900.31 1303.5,-891.02 1321,-885.67 1347.87,-877.45 1377.27,-872.23 1405.81,-868.98"/>
<polygon fill="#757575" stroke="#757575" points="1406.04,-872.48 1415.62,-867.95 1405.31,-865.52 1406.04,-872.48"/>
</g>
<!-- component/Dashboard/DashboardHeader/DatePickerArea.tsx&#45;&gt;store/DashboardProvider.tsx -->
<g id="edge17" class="edge">
<title>component/Dashboard/DashboardHeader/DatePickerArea.tsx&#45;&gt;store/DashboardProvider.tsx</title>
<path fill="none" stroke="#757575" d="M1099.06,-938.64C1152.9,-947.28 1234.91,-950.63 1285,-905.67 1346.36,-850.59 1259.61,-778.72 1321,-723.67 1365.2,-684.03 1435.21,-683.5 1486.49,-690.13"/>
<polygon fill="#757575" stroke="#757575" points="1485.89,-693.58 1496.28,-691.53 1486.88,-686.65 1485.89,-693.58"/>
</g>
<!-- component/Dashboard/DashboardHeader/DateBox.tsx -->
<g id="node18" class="node">
<title>component/Dashboard/DashboardHeader/DateBox.tsx</title>
<path fill="none" stroke="#cfffac" d="M1725.83,-1036.17C1725.83,-1036.17 1379.17,-1036.17 1379.17,-1036.17 1375.33,-1036.17 1371.5,-1032.34 1371.5,-1028.5 1371.5,-1028.5 1371.5,-1020.84 1371.5,-1020.84 1371.5,-1017 1375.33,-1013.17 1379.17,-1013.17 1379.17,-1013.17 1725.83,-1013.17 1725.83,-1013.17 1729.67,-1013.17 1733.5,-1017 1733.5,-1020.84 1733.5,-1020.84 1733.5,-1028.5 1733.5,-1028.5 1733.5,-1032.34 1729.67,-1036.17 1725.83,-1036.17"/>
<text text-anchor="middle" x="1552.5" y="-1020.97" font-family="Arial" font-size="14.00" fill="#cfffac">component/Dashboard/DashboardHeader/DateBox.tsx</text>
</g>
<!-- component/Dashboard/DashboardHeader/DatePickerArea.tsx&#45;&gt;component/Dashboard/DashboardHeader/DateBox.tsx -->
<g id="edge13" class="edge">
<title>component/Dashboard/DashboardHeader/DatePickerArea.tsx&#45;&gt;component/Dashboard/DashboardHeader/DateBox.tsx</title>
<path fill="none" stroke="#757575" d="M1248.46,-930.56C1261.22,-934.74 1273.53,-940.04 1285,-946.67 1309.33,-960.74 1296.87,-984.25 1321,-998.67 1333.33,-1006.04 1346.69,-1011.86 1360.57,-1016.42"/>
<polygon fill="#757575" stroke="#757575" points="1359.23,-1019.67 1369.82,-1019.23 1361.27,-1012.97 1359.23,-1019.67"/>
</g>
<!-- component/common/DatePicker.tsx -->
<g id="node19" class="node">
<title>component/common/DatePicker.tsx</title>
<path fill="none" stroke="#c6c5fe" d="M1665.83,-1116.17C1665.83,-1116.17 1439.17,-1116.17 1439.17,-1116.17 1435.33,-1116.17 1431.5,-1112.34 1431.5,-1108.5 1431.5,-1108.5 1431.5,-1100.84 1431.5,-1100.84 1431.5,-1097 1435.33,-1093.17 1439.17,-1093.17 1439.17,-1093.17 1665.83,-1093.17 1665.83,-1093.17 1669.67,-1093.17 1673.5,-1097 1673.5,-1100.84 1673.5,-1100.84 1673.5,-1108.5 1673.5,-1108.5 1673.5,-1112.34 1669.67,-1116.17 1665.83,-1116.17"/>
<text text-anchor="middle" x="1552.5" y="-1100.97" font-family="Arial" font-size="14.00" fill="#c6c5fe">component/common/DatePicker.tsx</text>
</g>
<!-- component/Dashboard/DashboardHeader/DatePickerArea.tsx&#45;&gt;component/common/DatePicker.tsx -->
<g id="edge14" class="edge">
<title>component/Dashboard/DashboardHeader/DatePickerArea.tsx&#45;&gt;component/common/DatePicker.tsx</title>
<path fill="none" stroke="#757575" d="M1101.64,-914.68C1154.97,-906.77 1234.32,-904.51 1285,-946.67 1331.75,-985.56 1274.82,-1039.1 1321,-1078.67 1358.08,-1110.44 1411.74,-1117.95 1457.96,-1117.05"/>
<polygon fill="#757575" stroke="#757575" points="1457.85,-1120.56 1467.72,-1116.72 1457.61,-1113.56 1457.85,-1120.56"/>
</g>
<!-- hook/useBoolean.tsx -->
<g id="node20" class="node">
<title>hook/useBoolean.tsx</title>
<path fill="none" stroke="#cfffac" d="M2061.83,-776.17C2061.83,-776.17 1928.17,-776.17 1928.17,-776.17 1924.33,-776.17 1920.5,-772.34 1920.5,-768.5 1920.5,-768.5 1920.5,-760.84 1920.5,-760.84 1920.5,-757 1924.33,-753.17 1928.17,-753.17 1928.17,-753.17 2061.83,-753.17 2061.83,-753.17 2065.67,-753.17 2069.5,-757 2069.5,-760.84 2069.5,-760.84 2069.5,-768.5 2069.5,-768.5 2069.5,-772.34 2065.67,-776.17 2061.83,-776.17"/>
<text text-anchor="middle" x="1995" y="-760.97" font-family="Arial" font-size="14.00" fill="#cfffac">hook/useBoolean.tsx</text>
</g>
<!-- component/Dashboard/DashboardHeader/DatePickerArea.tsx&#45;&gt;hook/useBoolean.tsx -->
<g id="edge15" class="edge">
<title>component/Dashboard/DashboardHeader/DatePickerArea.tsx&#45;&gt;hook/useBoolean.tsx</title>
<path fill="none" stroke="#757575" d="M1108.55,-914.67C1161.05,-908.39 1235.05,-908.61 1285,-946.67 1321.91,-974.79 1282.95,-1018.11 1321,-1044.67 1405.37,-1103.56 1691.97,-1090.68 1784,-1044.67 1895.37,-988.98 1963,-843.03 1985.56,-787.01"/>
<polygon fill="#757575" stroke="#757575" points="1988.74,-788.48 1989.13,-777.89 1982.22,-785.93 1988.74,-788.48"/>
</g>
<!-- hook/useOutsideClick.tsx -->
<g id="node21" class="node">
<title>hook/useOutsideClick.tsx</title>
<path fill="none" stroke="#cfffac" d="M1632.83,-918.17C1632.83,-918.17 1472.17,-918.17 1472.17,-918.17 1468.33,-918.17 1464.5,-914.34 1464.5,-910.5 1464.5,-910.5 1464.5,-902.84 1464.5,-902.84 1464.5,-899 1468.33,-895.17 1472.17,-895.17 1472.17,-895.17 1632.83,-895.17 1632.83,-895.17 1636.67,-895.17 1640.5,-899 1640.5,-902.84 1640.5,-902.84 1640.5,-910.5 1640.5,-910.5 1640.5,-914.34 1636.67,-918.17 1632.83,-918.17"/>
<text text-anchor="middle" x="1552.5" y="-902.97" font-family="Arial" font-size="14.00" fill="#cfffac">hook/useOutsideClick.tsx</text>
</g>
<!-- component/Dashboard/DashboardHeader/DatePickerArea.tsx&#45;&gt;hook/useOutsideClick.tsx -->
<g id="edge16" class="edge">
<title>component/Dashboard/DashboardHeader/DatePickerArea.tsx&#45;&gt;hook/useOutsideClick.tsx</title>
<path fill="none" stroke="#757575" d="M1248.39,-918.65C1318.76,-915.87 1394.52,-912.87 1452.69,-910.57"/>
<polygon fill="#757575" stroke="#757575" points="1452.72,-914.08 1462.58,-910.18 1452.45,-907.08 1452.72,-914.08"/>
</g>
<!-- types/widget.d.ts -->
<g id="node22" class="node">
<title>types/widget.d.ts</title>
<path fill="none" stroke="#cfffac" d="M2048.83,-674.17C2048.83,-674.17 1941.17,-674.17 1941.17,-674.17 1937.33,-674.17 1933.5,-670.34 1933.5,-666.5 1933.5,-666.5 1933.5,-658.84 1933.5,-658.84 1933.5,-655 1937.33,-651.17 1941.17,-651.17 1941.17,-651.17 2048.83,-651.17 2048.83,-651.17 2052.67,-651.17 2056.5,-655 2056.5,-658.84 2056.5,-658.84 2056.5,-666.5 2056.5,-666.5 2056.5,-670.34 2052.67,-674.17 2048.83,-674.17"/>
<text text-anchor="middle" x="1995" y="-658.97" font-family="Arial" font-size="14.00" fill="#cfffac">types/widget.d.ts</text>
</g>
<!-- component/Dashboard/DashboardHeader/DatePickerArea.tsx&#45;&gt;types/widget.d.ts -->
<g id="edge18" class="edge">
<title>component/Dashboard/DashboardHeader/DatePickerArea.tsx&#45;&gt;types/widget.d.ts</title>
<path fill="none" stroke="#757575" d="M1243.23,-938.65C1257.44,-940.9 1271.48,-943.55 1285,-946.67 1301.73,-950.53 1304.13,-957.5 1321,-960.67 1422.12,-979.64 1705.52,-1027.2 1784,-960.67 1858.57,-897.45 1760.85,-821.51 1820,-743.67 1845.69,-709.86 1888.91,-689.64 1925.85,-677.86"/>
<polygon fill="#757575" stroke="#757575" points="1926.58,-681.3 1935.13,-675.05 1924.55,-674.6 1926.58,-681.3"/>
</g>
<!-- component/Dashboard/DashboardHeader/SelectRealTimeRangeArea.tsx&#45;&gt;component/Dashboard/CommonStyle.ts -->
<g id="edge19" class="edge">
<title>component/Dashboard/DashboardHeader/SelectRealTimeRangeArea.tsx&#45;&gt;component/Dashboard/CommonStyle.ts</title>
<path fill="none" stroke="#757575" d="M1285.16,-876.2C1326.43,-874.57 1368.17,-872.92 1405.98,-871.42"/>
<polygon fill="#757575" stroke="#757575" points="1405.69,-874.94 1415.55,-871.04 1405.41,-867.94 1405.69,-874.94"/>
</g>
<!-- component/Dashboard/DashboardHeader/SelectRealTimeRangeArea.tsx&#45;&gt;store/DashboardProvider.tsx -->
<g id="edge24" class="edge">
<title>component/Dashboard/DashboardHeader/SelectRealTimeRangeArea.tsx&#45;&gt;store/DashboardProvider.tsx</title>
<path fill="none" stroke="#757575" d="M1116.96,-897.66C1169.5,-902.24 1239.41,-898.86 1285,-859.67 1332.41,-818.91 1273.15,-763.92 1321,-723.67 1365.01,-686.65 1431.89,-684.78 1482.29,-690.33"/>
<polygon fill="#757575" stroke="#757575" points="1481.57,-693.77 1491.93,-691.52 1482.43,-686.82 1481.57,-693.77"/>
</g>
<!-- component/Dashboard/DashboardHeader/SelectRealTimeRangeArea.tsx&#45;&gt;hook/useBoolean.tsx -->
<g id="edge22" class="edge">
<title>component/Dashboard/DashboardHeader/SelectRealTimeRangeArea.tsx&#45;&gt;hook/useBoolean.tsx</title>
<path fill="none" stroke="#757575" d="M1212.81,-873.72C1237.23,-870.18 1261.91,-865.6 1285,-859.67 1301.79,-855.36 1304.16,-848.78 1321,-844.67 1521.62,-795.7 1579.47,-834.16 1784,-805.67 1833.37,-798.79 1888.69,-787.86 1930.15,-779.01"/>
<polygon fill="#757575" stroke="#757575" points="1930.67,-782.48 1939.71,-776.95 1929.2,-775.64 1930.67,-782.48"/>
</g>
<!-- component/Dashboard/DashboardHeader/SelectRealTimeRangeArea.tsx&#45;&gt;hook/useOutsideClick.tsx -->
<g id="edge23" class="edge">
<title>component/Dashboard/DashboardHeader/SelectRealTimeRangeArea.tsx&#45;&gt;hook/useOutsideClick.tsx</title>
<path fill="none" stroke="#757575" d="M1285.16,-895.62C1344.4,-898.07 1404.62,-900.57 1452.77,-902.57"/>
<polygon fill="#757575" stroke="#757575" points="1452.47,-906.06 1462.6,-902.98 1452.76,-899.07 1452.47,-906.06"/>
</g>
<!-- component/Dashboard/DashboardHeader/RealTime.tsx -->
<g id="node23" class="node">
<title>component/Dashboard/DashboardHeader/RealTime.tsx</title>
<path fill="none" stroke="#cfffac" d="M1728.83,-797.17C1728.83,-797.17 1376.17,-797.17 1376.17,-797.17 1372.33,-797.17 1368.5,-793.34 1368.5,-789.5 1368.5,-789.5 1368.5,-781.84 1368.5,-781.84 1368.5,-778 1372.33,-774.17 1376.17,-774.17 1376.17,-774.17 1728.83,-774.17 1728.83,-774.17 1732.67,-774.17 1736.5,-778 1736.5,-781.84 1736.5,-781.84 1736.5,-789.5 1736.5,-789.5 1736.5,-793.34 1732.67,-797.17 1728.83,-797.17"/>
<text text-anchor="middle" x="1552.5" y="-781.97" font-family="Arial" font-size="14.00" fill="#cfffac">component/Dashboard/DashboardHeader/RealTime.tsx</text>
</g>
<!-- component/Dashboard/DashboardHeader/SelectRealTimeRangeArea.tsx&#45;&gt;component/Dashboard/DashboardHeader/RealTime.tsx -->
<g id="edge20" class="edge">
<title>component/Dashboard/DashboardHeader/SelectRealTimeRangeArea.tsx&#45;&gt;component/Dashboard/DashboardHeader/RealTime.tsx</title>
<path fill="none" stroke="#757575" d="M1254.61,-873.67C1265.17,-869.78 1275.37,-865.15 1285,-859.67 1308.17,-846.47 1297.86,-824.92 1321,-811.67 1332.4,-805.14 1344.64,-799.86 1357.31,-795.61"/>
<polygon fill="#757575" stroke="#757575" points="1358.1,-799.03 1366.61,-792.72 1356.02,-792.34 1358.1,-799.03"/>
</g>
<!-- component/Dashboard/DashboardHeader/SelectRealTimeListItem.tsx -->
<g id="node24" class="node">
<title>component/Dashboard/DashboardHeader/SelectRealTimeListItem.tsx</title>
<path fill="none" stroke="#cfffac" d="M1774.83,-756.17C1774.83,-756.17 1330.17,-756.17 1330.17,-756.17 1326.33,-756.17 1322.5,-752.34 1322.5,-748.5 1322.5,-748.5 1322.5,-740.84 1322.5,-740.84 1322.5,-737 1326.33,-733.17 1330.17,-733.17 1330.17,-733.17 1774.83,-733.17 1774.83,-733.17 1778.67,-733.17 1782.5,-737 1782.5,-740.84 1782.5,-740.84 1782.5,-748.5 1782.5,-748.5 1782.5,-752.34 1778.67,-756.17 1774.83,-756.17"/>
<text text-anchor="middle" x="1552.5" y="-740.97" font-family="Arial" font-size="14.00" fill="#cfffac">component/Dashboard/DashboardHeader/SelectRealTimeListItem.tsx</text>
</g>
<!-- component/Dashboard/DashboardHeader/SelectRealTimeRangeArea.tsx&#45;&gt;component/Dashboard/DashboardHeader/SelectRealTimeListItem.tsx -->
<g id="edge21" class="edge">
<title>component/Dashboard/DashboardHeader/SelectRealTimeRangeArea.tsx&#45;&gt;component/Dashboard/DashboardHeader/SelectRealTimeListItem.tsx</title>
<path fill="none" stroke="#757575" d="M1262.87,-873.75C1270.63,-869.71 1278.05,-865.04 1285,-859.67 1320.72,-832.04 1284.99,-791.91 1321,-764.67 1363.49,-732.53 1423.81,-728.33 1472.09,-731.74"/>
<polygon fill="#757575" stroke="#757575" points="1471.69,-735.21 1481.95,-732.56 1472.28,-728.24 1471.69,-735.21"/>
</g>
<!-- store/DashboardProvider.tsx&#45;&gt;common/date.ts -->
<g id="edge65" class="edge">
<title>store/DashboardProvider.tsx&#45;&gt;common/date.ts</title>
<path fill="none" stroke="#757575" d="M1651.32,-710.6C1694.09,-709.73 1743.62,-703.21 1784,-682.67 1805.61,-671.68 1802.58,-658.53 1820,-641.67 1869.82,-593.45 1934.11,-543.42 1968.92,-517.22"/>
<polygon fill="#757575" stroke="#757575" points="1970.8,-520.19 1976.71,-511.39 1966.6,-514.58 1970.8,-520.19"/>
</g>
<!-- store/WidgetProvider.tsx&#45;&gt;hook/useBoolean.tsx -->
<g id="edge66" class="edge">
<title>store/WidgetProvider.tsx&#45;&gt;hook/useBoolean.tsx</title>
<path fill="none" stroke="#757575" d="M1639.25,-664.3C1683.03,-666.59 1736.87,-671.66 1784,-682.67 1848.38,-697.7 1919.22,-728.59 1959.97,-747.87"/>
<polygon fill="#757575" stroke="#757575" points="1958.26,-750.93 1968.79,-752.09 1961.28,-744.62 1958.26,-750.93"/>
</g>
<!-- store/WidgetProvider.tsx&#45;&gt;types/widget.d.ts -->
<g id="edge67" class="edge">
<title>store/WidgetProvider.tsx&#45;&gt;types/widget.d.ts</title>
<path fill="none" stroke="#757575" d="M1639.48,-662.67C1721.81,-662.67 1844.62,-662.67 1921.95,-662.67"/>
<polygon fill="#757575" stroke="#757575" points="1921.51,-666.17 1931.51,-662.67 1921.51,-659.17 1921.51,-666.17"/>
</g>
<!-- component/common/DatePicker/ListPicker.tsx -->
<g id="node39" class="node">
<title>component/common/DatePicker/ListPicker.tsx</title>
<path fill="none" stroke="#c6c5fe" d="M2141.33,-1136.17C2141.33,-1136.17 1848.67,-1136.17 1848.67,-1136.17 1844.83,-1136.17 1841,-1132.34 1841,-1128.5 1841,-1128.5 1841,-1120.84 1841,-1120.84 1841,-1117 1844.83,-1113.17 1848.67,-1113.17 1848.67,-1113.17 2141.33,-1113.17 2141.33,-1113.17 2145.17,-1113.17 2149,-1117 2149,-1120.84 2149,-1120.84 2149,-1128.5 2149,-1128.5 2149,-1132.34 2145.17,-1136.17 2141.33,-1136.17"/>
<text text-anchor="middle" x="1995" y="-1120.97" font-family="Arial" font-size="14.00" fill="#c6c5fe">component/common/DatePicker/ListPicker.tsx</text>
</g>
<!-- component/common/DatePicker.tsx&#45;&gt;component/common/DatePicker/ListPicker.tsx -->
<g id="edge56" class="edge">
<title>component/common/DatePicker.tsx&#45;&gt;component/common/DatePicker/ListPicker.tsx</title>
<path fill="none" stroke="#757575" d="M1673.87,-1110.13C1721.81,-1112.31 1777.76,-1114.85 1829.35,-1117.19"/>
<polygon fill="#757575" stroke="#757575" points="1828.97,-1120.68 1839.12,-1117.64 1829.29,-1113.69 1828.97,-1120.68"/>
</g>
<!-- types/datePicker.d.ts -->
<g id="node40" class="node">
<title>types/datePicker.d.ts</title>
<path fill="none" stroke="#cfffac" d="M2347.33,-1116.17C2347.33,-1116.17 2213.67,-1116.17 2213.67,-1116.17 2209.83,-1116.17 2206,-1112.34 2206,-1108.5 2206,-1108.5 2206,-1100.84 2206,-1100.84 2206,-1097 2209.83,-1093.17 2213.67,-1093.17 2213.67,-1093.17 2347.33,-1093.17 2347.33,-1093.17 2351.17,-1093.17 2355,-1097 2355,-1100.84 2355,-1100.84 2355,-1108.5 2355,-1108.5 2355,-1112.34 2351.17,-1116.17 2347.33,-1116.17"/>
<text text-anchor="middle" x="2280.5" y="-1100.97" font-family="Arial" font-size="14.00" fill="#cfffac">types/datePicker.d.ts</text>
</g>
<!-- component/common/DatePicker.tsx&#45;&gt;types/datePicker.d.ts -->
<g id="edge57" class="edge">
<title>component/common/DatePicker.tsx&#45;&gt;types/datePicker.d.ts</title>
<path fill="none" stroke="#757575" d="M1673.79,-1104.67C1820.68,-1104.67 2065.41,-1104.67 2194.22,-1104.67"/>
<polygon fill="#757575" stroke="#757575" points="2194.05,-1108.17 2204.05,-1104.67 2194.05,-1101.17 2194.05,-1108.17"/>
</g>
<!-- component/Widget.tsx -->
<g id="node25" class="node">
<title>component/Widget.tsx</title>
<path fill="none" stroke="#c6c5fe" d="M675.33,-444.17C675.33,-444.17 531.67,-444.17 531.67,-444.17 527.83,-444.17 524,-440.34 524,-436.5 524,-436.5 524,-428.84 524,-428.84 524,-425 527.83,-421.17 531.67,-421.17 531.67,-421.17 675.33,-421.17 675.33,-421.17 679.17,-421.17 683,-425 683,-428.84 683,-428.84 683,-436.5 683,-436.5 683,-440.34 679.17,-444.17 675.33,-444.17"/>
<text text-anchor="middle" x="603.5" y="-428.97" font-family="Arial" font-size="14.00" fill="#c6c5fe">component/Widget.tsx</text>
</g>
<!-- component/Widget.tsx&#45;&gt;common/api.ts -->
<g id="edge25" class="edge">
<title>component/Widget.tsx&#45;&gt;common/api.ts</title>
<path fill="none" stroke="#757575" d="M628.03,-444.6C664.62,-462.54 737.84,-496.02 804,-511.67 861.72,-525.32 929.16,-530.29 977.74,-532"/>
<polygon fill="#757575" stroke="#757575" points="977.43,-535.5 987.53,-532.31 977.65,-528.5 977.43,-535.5"/>
</g>
<!-- component/Widget.tsx&#45;&gt;common/date.ts -->
<g id="edge26" class="edge">
<title>component/Widget.tsx&#45;&gt;common/date.ts</title>
<path fill="none" stroke="#757575" d="M661.38,-420.71C701.12,-412.98 755.54,-403.65 804,-399.67 1021.05,-381.84 1571.48,-352.09 1784,-399.67 1853.69,-415.27 1927.5,-456.69 1966.35,-480.73"/>
<polygon fill="#757575" stroke="#757575" points="1964.29,-483.56 1974.62,-485.92 1968.01,-477.64 1964.29,-483.56"/>
</g>
<!-- component/Widget.tsx&#45;&gt;common/widget.ts -->
<g id="edge27" class="edge">
<title>component/Widget.tsx&#45;&gt;common/widget.ts</title>
<path fill="none" stroke="#757575" d="M629.93,-420.75C667.18,-403.96 739.18,-374.02 804,-361.67 1045.47,-315.65 1338.56,-323.47 1474.89,-330.67"/>
<polygon fill="#757575" stroke="#757575" points="1474.33,-334.15 1484.5,-331.19 1474.71,-327.16 1474.33,-334.15"/>
</g>
<!-- component/Widget.tsx&#45;&gt;store/DashboardProvider.tsx -->
<g id="edge32" class="edge">
<title>component/Widget.tsx&#45;&gt;store/DashboardProvider.tsx</title>
<path fill="none" stroke="#757575" d="M618.87,-444.52C650.19,-469.6 727.94,-527.77 804,-552.67 906.01,-586.06 1198.45,-533.19 1285,-596.67 1318.41,-621.17 1287.58,-658.17 1321,-682.67 1360.82,-711.86 1415.51,-717.87 1461.63,-716.22"/>
<polygon fill="#757575" stroke="#757575" points="1461.52,-719.73 1471.34,-715.74 1461.18,-712.74 1461.52,-719.73"/>
</g>
<!-- component/Widget.tsx&#45;&gt;hook/useBoolean.tsx -->
<g id="edge31" class="edge">
<title>component/Widget.tsx&#45;&gt;hook/useBoolean.tsx</title>
<path fill="none" stroke="#757575" d="M683.12,-432.49C933.65,-432.64 1701.69,-439.09 1784,-511.67 1842.25,-563.04 1771.83,-621.74 1820,-682.67 1846.95,-716.77 1891.48,-737.39 1928.74,-749.42"/>
<polygon fill="#757575" stroke="#757575" points="1927.5,-752.7 1938.09,-752.3 1929.56,-746.01 1927.5,-752.7"/>
</g>
<!-- component/Widget.tsx&#45;&gt;types/widget.d.ts -->
<g id="edge33" class="edge">
<title>component/Widget.tsx&#45;&gt;types/widget.d.ts</title>
<path fill="none" stroke="#757575" d="M683.23,-428.12C932.35,-414.39 1692.43,-377.88 1784,-437.67 1816.99,-459.21 1796.19,-487.28 1820,-518.67 1861.33,-573.16 1927.11,-620.24 1964.84,-644.72"/>
<polygon fill="#757575" stroke="#757575" points="1962.66,-647.48 1972.97,-649.91 1966.43,-641.58 1962.66,-647.48"/>
</g>
<!-- component/Widget/WidgetButtons.tsx -->
<g id="node26" class="node">
<title>component/Widget/WidgetButtons.tsx</title>
<path fill="none" stroke="#c6c5fe" d="M1165.33,-503.17C1165.33,-503.17 923.67,-503.17 923.67,-503.17 919.83,-503.17 916,-499.34 916,-495.5 916,-495.5 916,-487.84 916,-487.84 916,-484 919.83,-480.17 923.67,-480.17 923.67,-480.17 1165.33,-480.17 1165.33,-480.17 1169.17,-480.17 1173,-484 1173,-487.84 1173,-487.84 1173,-495.5 1173,-495.5 1173,-499.34 1169.17,-503.17 1165.33,-503.17"/>
<text text-anchor="middle" x="1044.5" y="-487.97" font-family="Arial" font-size="14.00" fill="#c6c5fe">component/Widget/WidgetButtons.tsx</text>
</g>
<!-- component/Widget.tsx&#45;&gt;component/Widget/WidgetButtons.tsx -->
<g id="edge28" class="edge">
<title>component/Widget.tsx&#45;&gt;component/Widget/WidgetButtons.tsx</title>
<path fill="none" stroke="#757575" d="M670.86,-444.6C709.6,-451.33 759.48,-459.58 804,-465.67 838.21,-470.35 875.27,-474.72 909.78,-478.49"/>
<polygon fill="#757575" stroke="#757575" points="909.06,-481.93 919.38,-479.53 909.81,-474.97 909.06,-481.93"/>
</g>
<!-- component/Widget/WidgetCallCycleSettingModal.tsx -->
<g id="node27" class="node">
<title>component/Widget/WidgetCallCycleSettingModal.tsx</title>
<path fill="none" stroke="#c6c5fe" d="M1212.33,-307.17C1212.33,-307.17 876.67,-307.17 876.67,-307.17 872.83,-307.17 869,-303.34 869,-299.5 869,-299.5 869,-291.84 869,-291.84 869,-288 872.83,-284.17 876.67,-284.17 876.67,-284.17 1212.33,-284.17 1212.33,-284.17 1216.17,-284.17 1220,-288 1220,-291.84 1220,-291.84 1220,-299.5 1220,-299.5 1220,-303.34 1216.17,-307.17 1212.33,-307.17"/>
<text text-anchor="middle" x="1044.5" y="-291.97" font-family="Arial" font-size="14.00" fill="#c6c5fe">component/Widget/WidgetCallCycleSettingModal.tsx</text>
</g>
<!-- component/Widget.tsx&#45;&gt;component/Widget/WidgetCallCycleSettingModal.tsx -->
<g id="edge29" class="edge">
<title>component/Widget.tsx&#45;&gt;component/Widget/WidgetCallCycleSettingModal.tsx</title>
<path fill="none" stroke="#757575" d="M620.82,-420.71C653.62,-397.37 730.69,-346 804,-322.67 821.17,-317.21 839.34,-312.82 857.68,-309.29"/>
<polygon fill="#757575" stroke="#757575" points="858.11,-312.77 867.32,-307.54 856.85,-305.89 858.11,-312.77"/>
</g>
<!-- component/Widget/WidgetChart.tsx -->
<g id="node28" class="node">
<title>component/Widget/WidgetChart.tsx</title>
<path fill="none" stroke="#c6c5fe" d="M1157.83,-162.17C1157.83,-162.17 931.17,-162.17 931.17,-162.17 927.33,-162.17 923.5,-158.34 923.5,-154.5 923.5,-154.5 923.5,-146.84 923.5,-146.84 923.5,-143 927.33,-139.17 931.17,-139.17 931.17,-139.17 1157.83,-139.17 1157.83,-139.17 1161.67,-139.17 1165.5,-143 1165.5,-146.84 1165.5,-146.84 1165.5,-154.5 1165.5,-154.5 1165.5,-158.34 1161.67,-162.17 1157.83,-162.17"/>
<text text-anchor="middle" x="1044.5" y="-146.97" font-family="Arial" font-size="14.00" fill="#c6c5fe">component/Widget/WidgetChart.tsx</text>
</g>
<!-- component/Widget.tsx&#45;&gt;component/Widget/WidgetChart.tsx -->
<g id="edge30" class="edge">
<title>component/Widget.tsx&#45;&gt;component/Widget/WidgetChart.tsx</title>
<path fill="none" stroke="#757575" d="M617.38,-421.01C648.17,-393.48 729.05,-323.11 804,-274.67 872.18,-230.6 957.87,-189.35 1006.07,-167.31"/>
<polygon fill="#757575" stroke="#757575" points="1007.31,-170.59 1014.97,-163.27 1004.41,-164.22 1007.31,-170.59"/>
</g>
<!-- component/Widget/WidgetButtons.tsx&#45;&gt;store/WidgetProvider.tsx -->
<g id="edge34" class="edge">
<title>component/Widget/WidgetButtons.tsx&#45;&gt;store/WidgetProvider.tsx</title>
<path fill="none" stroke="#757575" d="M1173.47,-484.59C1211.03,-487.12 1251.09,-494.58 1285,-511.67 1306.66,-522.58 1301.66,-538.04 1321,-552.67 1378.69,-596.32 1456.48,-629.01 1505.31,-646.98"/>
<polygon fill="#757575" stroke="#757575" points="1503.85,-650.18 1514.44,-650.29 1506.23,-643.6 1503.85,-650.18"/>
</g>
<!-- component/Widget/WidgetCallCycleSettingModal.tsx&#45;&gt;common/date.ts -->
<g id="edge35" class="edge">
<title>component/Widget/WidgetCallCycleSettingModal.tsx&#45;&gt;common/date.ts</title>
<path fill="none" stroke="#757575" d="M1220.48,-286.61C1405.88,-279.41 1685.23,-276.06 1784,-314.67 1872,-349.07 1947.74,-437.76 1978.87,-478.12"/>
<polygon fill="#757575" stroke="#757575" points="1975.9,-480 1984.73,-485.86 1981.48,-475.77 1975.9,-480"/>
</g>
<!-- component/Widget/WidgetCallCycleSettingModal.tsx&#45;&gt;common/widget.ts -->
<g id="edge36" class="edge">
<title>component/Widget/WidgetCallCycleSettingModal.tsx&#45;&gt;common/widget.ts</title>
<path fill="none" stroke="#757575" d="M1196.97,-307.64C1288.45,-314.88 1401.16,-323.79 1474.6,-329.59"/>
<polygon fill="#757575" stroke="#757575" points="1474.29,-333.08 1484.53,-330.38 1474.84,-326.1 1474.29,-333.08"/>
</g>
<!-- component/Widget/WidgetCallCycleSettingModal/CycleInput.tsx -->
<g id="node29" class="node">
<title>component/Widget/WidgetCallCycleSettingModal/CycleInput.tsx</title>
<path fill="none" stroke="#cfffac" d="M1755.83,-267.17C1755.83,-267.17 1349.17,-267.17 1349.17,-267.17 1345.33,-267.17 1341.5,-263.34 1341.5,-259.5 1341.5,-259.5 1341.5,-251.84 1341.5,-251.84 1341.5,-248 1345.33,-244.17 1349.17,-244.17 1349.17,-244.17 1755.83,-244.17 1755.83,-244.17 1759.67,-244.17 1763.5,-248 1763.5,-251.84 1763.5,-251.84 1763.5,-259.5 1763.5,-259.5 1763.5,-263.34 1759.67,-267.17 1755.83,-267.17"/>
<text text-anchor="middle" x="1552.5" y="-251.97" font-family="Arial" font-size="14.00" fill="#cfffac">component/Widget/WidgetCallCycleSettingModal/CycleInput.tsx</text>
</g>
<!-- component/Widget/WidgetCallCycleSettingModal.tsx&#45;&gt;component/Widget/WidgetCallCycleSettingModal/CycleInput.tsx -->
<g id="edge37" class="edge">
<title>component/Widget/WidgetCallCycleSettingModal.tsx&#45;&gt;component/Widget/WidgetCallCycleSettingModal/CycleInput.tsx</title>
<path fill="none" stroke="#757575" d="M1196.97,-283.7C1257.41,-278.92 1327.12,-273.41 1388.64,-268.54"/>
<polygon fill="#757575" stroke="#757575" points="1388.83,-272.04 1398.52,-267.76 1388.28,-265.06 1388.83,-272.04"/>
</g>
<!-- component/Widget/WidgetCallCycleSettingModal/LastCallTimeBox.tsx -->
<g id="node30" class="node">
<title>component/Widget/WidgetCallCycleSettingModal/LastCallTimeBox.tsx</title>
<path fill="none" stroke="#cfffac" d="M1776.33,-226.17C1776.33,-226.17 1328.67,-226.17 1328.67,-226.17 1324.83,-226.17 1321,-222.34 1321,-218.5 1321,-218.5 1321,-210.84 1321,-210.84 1321,-207 1324.83,-203.17 1328.67,-203.17 1328.67,-203.17 1776.33,-203.17 1776.33,-203.17 1780.17,-203.17 1784,-207 1784,-210.84 1784,-210.84 1784,-218.5 1784,-218.5 1784,-222.34 1780.17,-226.17 1776.33,-226.17"/>
<text text-anchor="middle" x="1552.5" y="-210.97" font-family="Arial" font-size="14.00" fill="#cfffac">component/Widget/WidgetCallCycleSettingModal/LastCallTimeBox.tsx</text>
</g>
<!-- component/Widget/WidgetCallCycleSettingModal.tsx&#45;&gt;component/Widget/WidgetCallCycleSettingModal/LastCallTimeBox.tsx -->
<g id="edge38" class="edge">
<title>component/Widget/WidgetCallCycleSettingModal.tsx&#45;&gt;component/Widget/WidgetCallCycleSettingModal/LastCallTimeBox.tsx</title>
<path fill="none" stroke="#757575" d="M1090.98,-283.67C1145.31,-269.79 1239.17,-247.22 1321,-234.67 1337.53,-232.13 1354.78,-229.89 1372.07,-227.92"/>
<polygon fill="#757575" stroke="#757575" points="1372.38,-231.41 1381.94,-226.83 1371.61,-224.45 1372.38,-231.41"/>
</g>
<!-- component/chart/BarChart.tsx -->
<g id="node31" class="node">
<title>component/chart/BarChart.tsx</title>
<path fill="none" stroke="#c6c5fe" d="M1646.33,-88.17C1646.33,-88.17 1458.67,-88.17 1458.67,-88.17 1454.83,-88.17 1451,-84.34 1451,-80.5 1451,-80.5 1451,-72.84 1451,-72.84 1451,-69 1454.83,-65.17 1458.67,-65.17 1458.67,-65.17 1646.33,-65.17 1646.33,-65.17 1650.17,-65.17 1654,-69 1654,-72.84 1654,-72.84 1654,-80.5 1654,-80.5 1654,-84.34 1650.17,-88.17 1646.33,-88.17"/>
<text text-anchor="middle" x="1552.5" y="-72.97" font-family="Arial" font-size="14.00" fill="#c6c5fe">component/chart/BarChart.tsx</text>
</g>
<!-- component/Widget/WidgetChart.tsx&#45;&gt;component/chart/BarChart.tsx -->
<g id="edge39" class="edge">
<title>component/Widget/WidgetChart.tsx&#45;&gt;component/chart/BarChart.tsx</title>
<path fill="none" stroke="#757575" d="M1116.77,-138.71C1172.34,-129.52 1251.49,-116.74 1321,-106.67 1360.89,-100.89 1404.75,-95.05 1443.4,-90.08"/>
<polygon fill="#757575" stroke="#757575" points="1443.71,-93.57 1453.18,-88.83 1442.82,-86.63 1443.71,-93.57"/>
</g>
<!-- component/chart/InformaticsChart.tsx -->
<g id="node32" class="node">
<title>component/chart/InformaticsChart.tsx</title>
<path fill="none" stroke="#c6c5fe" d="M1670.83,-185.17C1670.83,-185.17 1434.17,-185.17 1434.17,-185.17 1430.33,-185.17 1426.5,-181.34 1426.5,-177.5 1426.5,-177.5 1426.5,-169.84 1426.5,-169.84 1426.5,-166 1430.33,-162.17 1434.17,-162.17 1434.17,-162.17 1670.83,-162.17 1670.83,-162.17 1674.67,-162.17 1678.5,-166 1678.5,-169.84 1678.5,-169.84 1678.5,-177.5 1678.5,-177.5 1678.5,-181.34 1674.67,-185.17 1670.83,-185.17"/>
<text text-anchor="middle" x="1552.5" y="-169.97" font-family="Arial" font-size="14.00" fill="#c6c5fe">component/chart/InformaticsChart.tsx</text>
</g>
<!-- component/Widget/WidgetChart.tsx&#45;&gt;component/chart/InformaticsChart.tsx -->
<g id="edge40" class="edge">
<title>component/Widget/WidgetChart.tsx&#45;&gt;component/chart/InformaticsChart.tsx</title>
<path fill="none" stroke="#757575" d="M1165.74,-156.13C1240.67,-159.54 1337.3,-163.93 1415.09,-167.47"/>
<polygon fill="#757575" stroke="#757575" points="1414.77,-170.96 1424.92,-167.92 1415.09,-163.97 1414.77,-170.96"/>
</g>
<!-- component/chart/LineChart.tsx -->
<g id="node33" class="node">
<title>component/chart/LineChart.tsx</title>
<path fill="none" stroke="#c6c5fe" d="M1649.33,-139.17C1649.33,-139.17 1455.67,-139.17 1455.67,-139.17 1451.83,-139.17 1448,-135.34 1448,-131.5 1448,-131.5 1448,-123.84 1448,-123.84 1448,-120 1451.83,-116.17 1455.67,-116.17 1455.67,-116.17 1649.33,-116.17 1649.33,-116.17 1653.17,-116.17 1657,-120 1657,-123.84 1657,-123.84 1657,-131.5 1657,-131.5 1657,-135.34 1653.17,-139.17 1649.33,-139.17"/>
<text text-anchor="middle" x="1552.5" y="-123.97" font-family="Arial" font-size="14.00" fill="#c6c5fe">component/chart/LineChart.tsx</text>
</g>
<!-- component/Widget/WidgetChart.tsx&#45;&gt;component/chart/LineChart.tsx -->
<g id="edge41" class="edge">
<title>component/Widget/WidgetChart.tsx&#45;&gt;component/chart/LineChart.tsx</title>
<path fill="none" stroke="#757575" d="M1165.74,-145.2C1247.67,-141.48 1355.52,-136.58 1436.35,-132.9"/>
<polygon fill="#757575" stroke="#757575" points="1436.22,-136.41 1446.05,-132.46 1435.91,-129.42 1436.22,-136.41"/>
</g>
<!-- component/chart/BarChart.tsx&#45;&gt;common/chart.ts -->
<g id="edge47" class="edge">
<title>component/chart/BarChart.tsx&#45;&gt;common/chart.ts</title>
<path fill="none" stroke="#757575" d="M1654.28,-72.32C1736.13,-68.79 1849.53,-63.9 1922.33,-60.76"/>
<polygon fill="#757575" stroke="#757575" points="1922.31,-64.27 1932.15,-60.34 1922.01,-57.27 1922.31,-64.27"/>
</g>
<!-- component/chart/BarChart.tsx&#45;&gt;types/chart.d.ts -->
<g id="edge49" class="edge">
<title>component/chart/BarChart.tsx&#45;&gt;types/chart.d.ts</title>
<path fill="none" stroke="#757575" d="M1587.46,-64.7C1683.17,-33 1961.66,45.33 2170,-36.67 2211.22,-52.89 2246.11,-92.75 2264.81,-117.57"/>
<polygon fill="#757575" stroke="#757575" points="2261.98,-119.63 2270.7,-125.64 2267.64,-115.5 2261.98,-119.63"/>
</g>
<!-- hook/useResize.tsx -->
<g id="node37" class="node">
<title>hook/useResize.tsx</title>
<path fill="none" stroke="#cfffac" d="M2057.33,-110.17C2057.33,-110.17 1932.67,-110.17 1932.67,-110.17 1928.83,-110.17 1925,-106.34 1925,-102.5 1925,-102.5 1925,-94.84 1925,-94.84 1925,-91 1928.83,-87.17 1932.67,-87.17 1932.67,-87.17 2057.33,-87.17 2057.33,-87.17 2061.17,-87.17 2065,-91 2065,-94.84 2065,-94.84 2065,-102.5 2065,-102.5 2065,-106.34 2061.17,-110.17 2057.33,-110.17"/>
<text text-anchor="middle" x="1995" y="-94.97" font-family="Arial" font-size="14.00" fill="#cfffac">hook/useResize.tsx</text>
</g>
<!-- component/chart/BarChart.tsx&#45;&gt;hook/useResize.tsx -->
<g id="edge48" class="edge">
<title>component/chart/BarChart.tsx&#45;&gt;hook/useResize.tsx</title>
<path fill="none" stroke="#757575" d="M1654.28,-81.7C1732.75,-85.62 1840.23,-90.99 1913.13,-94.63"/>
<polygon fill="#757575" stroke="#757575" points="1912.84,-98.12 1923.01,-95.12 1913.19,-91.13 1912.84,-98.12"/>
</g>
<!-- component/chart/InformaticsChart.tsx&#45;&gt;types/chart.d.ts -->
<g id="edge51" class="edge">
<title>component/chart/InformaticsChart.tsx&#45;&gt;types/chart.d.ts</title>
<path fill="none" stroke="#757575" d="M1678.93,-183.37C1713.05,-186.33 1749.97,-189.83 1784,-193.67 1800.05,-195.48 1803.88,-197.56 1820,-198.67 1975.19,-209.39 2019.3,-237.25 2170,-198.67 2201.36,-190.64 2233.4,-171.56 2254.65,-157.05"/>
<polygon fill="#757575" stroke="#757575" points="2256.48,-160.05 2262.65,-151.44 2252.45,-154.32 2256.48,-160.05"/>
</g>
<!-- component/chart/InformaticsChart/InforMaticsBox.tsx -->
<g id="node38" class="node">
<title>component/chart/InformaticsChart/InforMaticsBox.tsx</title>
<path fill="none" stroke="#c6c5fe" d="M2162.33,-190.17C2162.33,-190.17 1827.67,-190.17 1827.67,-190.17 1823.83,-190.17 1820,-186.34 1820,-182.5 1820,-182.5 1820,-174.84 1820,-174.84 1820,-171 1823.83,-167.17 1827.67,-167.17 1827.67,-167.17 2162.33,-167.17 2162.33,-167.17 2166.17,-167.17 2170,-171 2170,-174.84 2170,-174.84 2170,-182.5 2170,-182.5 2170,-186.34 2166.17,-190.17 2162.33,-190.17"/>
<text text-anchor="middle" x="1995" y="-174.97" font-family="Arial" font-size="14.00" fill="#c6c5fe">component/chart/InformaticsChart/InforMaticsBox.tsx</text>
</g>
<!-- component/chart/InformaticsChart.tsx&#45;&gt;component/chart/InformaticsChart/InforMaticsBox.tsx -->
<g id="edge50" class="edge">
<title>component/chart/InformaticsChart.tsx&#45;&gt;component/chart/InformaticsChart/InforMaticsBox.tsx</title>
<path fill="none" stroke="#757575" d="M1678.85,-175.09C1719.09,-175.55 1764.55,-176.07 1808.18,-176.56"/>
<polygon fill="#757575" stroke="#757575" points="1807.97,-180.06 1818.01,-176.67 1808.05,-173.06 1807.97,-180.06"/>
</g>
<!-- component/chart/LineChart.tsx&#45;&gt;common/chart.ts -->
<g id="edge53" class="edge">
<title>component/chart/LineChart.tsx&#45;&gt;common/chart.ts</title>
<path fill="none" stroke="#757575" d="M1657.33,-121.52C1697.59,-117.13 1743.62,-109.59 1784,-96.67 1801.23,-91.16 1802.72,-83.02 1820,-77.67 1852.73,-67.54 1890.35,-62.46 1922.22,-59.94"/>
<polygon fill="#757575" stroke="#757575" points="1922.45,-63.43 1932.17,-59.23 1921.95,-56.45 1922.45,-63.43"/>
</g>
<!-- component/chart/LineChart.tsx&#45;&gt;types/chart.d.ts -->
<g id="edge55" class="edge">
<title>component/chart/LineChart.tsx&#45;&gt;types/chart.d.ts</title>
<path fill="none" stroke="#757575" d="M1657.13,-129.24C1808.34,-131.53 2085.23,-135.73 2212.4,-137.65"/>
<polygon fill="#757575" stroke="#757575" points="2212.3,-141.15 2222.35,-137.8 2212.41,-134.15 2212.3,-141.15"/>
</g>
<!-- component/chart/LineChart.tsx&#45;&gt;hook/useResize.tsx -->
<g id="edge54" class="edge">
<title>component/chart/LineChart.tsx&#45;&gt;hook/useResize.tsx</title>
<path fill="none" stroke="#757575" d="M1657.33,-120.83C1735.68,-115.68 1841.61,-108.7 1913.58,-103.96"/>
<polygon fill="#757575" stroke="#757575" points="1913.57,-107.47 1923.32,-103.32 1913.11,-100.49 1913.57,-107.47"/>
</g>
<!-- component/Widget/WidgetPropsSettingModal.tsx -->
<g id="node34" class="node">
<title>component/Widget/WidgetPropsSettingModal.tsx</title>
<path fill="none" stroke="#c6c5fe" d="M760.33,-682.17C760.33,-682.17 446.67,-682.17 446.67,-682.17 442.83,-682.17 439,-678.34 439,-674.5 439,-674.5 439,-666.84 439,-666.84 439,-663 442.83,-659.17 446.67,-659.17 446.67,-659.17 760.33,-659.17 760.33,-659.17 764.17,-659.17 768,-663 768,-666.84 768,-666.84 768,-674.5 768,-674.5 768,-678.34 764.17,-682.17 760.33,-682.17"/>
<text text-anchor="middle" x="603.5" y="-666.97" font-family="Arial" font-size="14.00" fill="#c6c5fe">component/Widget/WidgetPropsSettingModal.tsx</text>
</g>
<!-- component/Widget/WidgetPropsSettingModal.tsx&#45;&gt;common/api.ts -->
<g id="edge42" class="edge">
<title>component/Widget/WidgetPropsSettingModal.tsx&#45;&gt;common/api.ts</title>
<path fill="none" stroke="#757575" d="M642.31,-658.78C721.89,-633.77 906.59,-575.71 994.85,-547.96"/>
<polygon fill="#757575" stroke="#757575" points="995.69,-551.37 1004.18,-545.03 993.59,-544.69 995.69,-551.37"/>
</g>
<!-- component/Widget/WidgetPropsSettingModal.tsx&#45;&gt;store/WidgetProvider.tsx -->
<g id="edge45" class="edge">
<title>component/Widget/WidgetPropsSettingModal.tsx&#45;&gt;store/WidgetProvider.tsx</title>
<path fill="none" stroke="#757575" d="M649.26,-682.58C689.43,-692.62 750.18,-706.2 804,-711.67 1016.68,-733.3 1083.39,-782.77 1285,-711.67 1304.38,-704.84 1301.94,-690.33 1321,-682.67 1362.65,-665.92 1411.86,-659.98 1454.09,-658.61"/>
<polygon fill="#757575" stroke="#757575" points="1454.1,-662.11 1464.01,-658.38 1453.93,-655.11 1454.1,-662.11"/>
</g>
<!-- component/Widget/WidgetPropsSettingModal/WidgetPropsButtons.tsx -->
<g id="node35" class="node">
<title>component/Widget/WidgetPropsSettingModal/WidgetPropsButtons.tsx</title>
<path fill="none" stroke="#c6c5fe" d="M1269.33,-703.17C1269.33,-703.17 819.67,-703.17 819.67,-703.17 815.83,-703.17 812,-699.34 812,-695.5 812,-695.5 812,-687.84 812,-687.84 812,-684 815.83,-680.17 819.67,-680.17 819.67,-680.17 1269.33,-680.17 1269.33,-680.17 1273.17,-680.17 1277,-684 1277,-687.84 1277,-687.84 1277,-695.5 1277,-695.5 1277,-699.34 1273.17,-703.17 1269.33,-703.17"/>
<text text-anchor="middle" x="1044.5" y="-687.97" font-family="Arial" font-size="14.00" fill="#c6c5fe">component/Widget/WidgetPropsSettingModal/WidgetPropsButtons.tsx</text>
</g>
<!-- component/Widget/WidgetPropsSettingModal.tsx&#45;&gt;component/Widget/WidgetPropsSettingModal/WidgetPropsButtons.tsx -->
<g id="edge43" class="edge">
<title>component/Widget/WidgetPropsSettingModal.tsx&#45;&gt;component/Widget/WidgetPropsSettingModal/WidgetPropsButtons.tsx</title>
<path fill="none" stroke="#757575" d="M768.28,-678.5C778.86,-679.01 789.62,-679.52 800.46,-680.04"/>
<polygon fill="#757575" stroke="#757575" points="800.12,-683.53 810.27,-680.51 800.45,-676.54 800.12,-683.53"/>
</g>
<!-- component/Widget/WidgetPropsSettingModal/WidgetPropsList.tsx -->
<g id="node36" class="node">
<title>component/Widget/WidgetPropsSettingModal/WidgetPropsList.tsx</title>
<path fill="none" stroke="#cfffac" d="M1256.83,-662.17C1256.83,-662.17 832.17,-662.17 832.17,-662.17 828.33,-662.17 824.5,-658.34 824.5,-654.5 824.5,-654.5 824.5,-646.84 824.5,-646.84 824.5,-643 828.33,-639.17 832.17,-639.17 832.17,-639.17 1256.83,-639.17 1256.83,-639.17 1260.67,-639.17 1264.5,-643 1264.5,-646.84 1264.5,-646.84 1264.5,-654.5 1264.5,-654.5 1264.5,-658.34 1260.67,-662.17 1256.83,-662.17"/>
<text text-anchor="middle" x="1044.5" y="-646.97" font-family="Arial" font-size="14.00" fill="#cfffac">component/Widget/WidgetPropsSettingModal/WidgetPropsList.tsx</text>
</g>
<!-- component/Widget/WidgetPropsSettingModal.tsx&#45;&gt;component/Widget/WidgetPropsSettingModal/WidgetPropsList.tsx -->
<g id="edge44" class="edge">
<title>component/Widget/WidgetPropsSettingModal.tsx&#45;&gt;component/Widget/WidgetPropsSettingModal/WidgetPropsList.tsx</title>
<path fill="none" stroke="#757575" d="M768.28,-663.21C782.84,-662.54 797.75,-661.87 812.74,-661.18"/>
<polygon fill="#757575" stroke="#757575" points="812.86,-664.68 822.69,-660.73 812.54,-657.69 812.86,-664.68"/>
</g>
<!-- component/Widget/WidgetPropsSettingModal/WidgetPropsButtons.tsx&#45;&gt;store/WidgetProvider.tsx -->
<g id="edge46" class="edge">
<title>component/Widget/WidgetPropsSettingModal/WidgetPropsButtons.tsx&#45;&gt;store/WidgetProvider.tsx</title>
<path fill="none" stroke="#757575" d="M1254.6,-679.69C1323.83,-675.72 1397.58,-671.49 1454.26,-668.24"/>
<polygon fill="#757575" stroke="#757575" points="1454.43,-671.74 1464.22,-667.67 1454.03,-664.75 1454.43,-671.74"/>
</g>
<!-- component/chart/InformaticsChart/InforMaticsBox.tsx&#45;&gt;types/chart.d.ts -->
<g id="edge52" class="edge">
<title>component/chart/InformaticsChart/InforMaticsBox.tsx&#45;&gt;types/chart.d.ts</title>
<path fill="none" stroke="#757575" d="M2080.68,-166.72C2122.85,-160.77 2173.12,-153.68 2212.55,-148.11"/>
<polygon fill="#757575" stroke="#757575" points="2212.99,-151.59 2222.4,-146.73 2212.01,-144.66 2212.99,-151.59"/>
</g>
<!-- component/common/DatePicker/ListPicker.tsx&#45;&gt;types/datePicker.d.ts -->
<g id="edge58" class="edge">
<title>component/common/DatePicker/ListPicker.tsx&#45;&gt;types/datePicker.d.ts</title>
<path fill="none" stroke="#757575" d="M2149.37,-1113.85C2164.81,-1112.76 2180.07,-1111.68 2194.4,-1110.67"/>
<polygon fill="#757575" stroke="#757575" points="2194.44,-1114.18 2204.17,-1109.98 2193.95,-1107.2 2194.44,-1114.18"/>
</g>
<!-- page/Dashboard.tsx&#45;&gt;component/Dashboard/DashboardHeader.tsx -->
<g id="edge59" class="edge">
<title>page/Dashboard.tsx&#45;&gt;component/Dashboard/DashboardHeader.tsx</title>
<path fill="none" stroke="#757575" d="M342.02,-682.53C360.28,-703.84 400.64,-749.56 439,-783.67 484.29,-823.94 542.08,-864.88 575.43,-887.61"/>
<polygon fill="#757575" stroke="#757575" points="573.06,-890.23 583.3,-892.94 576.98,-884.43 573.06,-890.23"/>
</g>
<!-- page/Dashboard.tsx&#45;&gt;store/DashboardProvider.tsx -->
<g id="edge62" class="edge">
<title>page/Dashboard.tsx&#45;&gt;store/DashboardProvider.tsx</title>
<path fill="none" stroke="#757575" d="M385.38,-658.68C402.43,-655.26 421.44,-651.86 439,-649.67 625.6,-626.36 1118.82,-541.65 1285,-629.67 1310.16,-643 1296.47,-668.21 1321,-682.67 1357,-703.88 1401.77,-711.33 1442.26,-712.69"/>
<polygon fill="#757575" stroke="#757575" points="1441.98,-716.18 1452.05,-712.89 1442.12,-709.18 1441.98,-716.18"/>
</g>
<!-- page/Dashboard.tsx&#45;&gt;store/WidgetProvider.tsx -->
<g id="edge63" class="edge">
<title>page/Dashboard.tsx&#45;&gt;store/WidgetProvider.tsx</title>
<path fill="none" stroke="#757575" d="M393.88,-682.65C408.65,-685.39 424.37,-688.22 439,-690.67 624.8,-721.77 1121.74,-838.66 1285,-744.67 1312.61,-728.77 1294.1,-699.75 1321,-682.67 1360.07,-657.86 1410.67,-651.34 1454.5,-651.66"/>
<polygon fill="#757575" stroke="#757575" points="1454.19,-655.15 1464.26,-651.86 1454.34,-648.15 1454.19,-655.15"/>
</g>
<!-- page/Dashboard.tsx&#45;&gt;component/Widget.tsx -->
<g id="edge60" class="edge">
<title>page/Dashboard.tsx&#45;&gt;component/Widget.tsx</title>
<path fill="none" stroke="#757575" d="M345.41,-658.87C388.95,-620.56 526.59,-499.46 580.52,-452.01"/>
<polygon fill="#757575" stroke="#757575" points="582.67,-454.78 587.87,-445.54 578.05,-449.52 582.67,-454.78"/>
</g>
<!-- page/Dashboard.tsx&#45;&gt;component/Widget/WidgetPropsSettingModal.tsx -->
<g id="edge61" class="edge">
<title>page/Dashboard.tsx&#45;&gt;component/Widget/WidgetPropsSettingModal.tsx</title>
<path fill="none" stroke="#757575" d="M403.42,-670.67C411.06,-670.67 419.06,-670.67 427.27,-670.67"/>
<polygon fill="#757575" stroke="#757575" points="427.07,-674.17 437.07,-670.67 427.07,-667.17 427.07,-674.17"/>
</g>
</g>
</svg>
