<?xml version="1.0" encoding="UTF-8" standalone="no"?>
<!DOCTYPE svg PUBLIC "-//W3C//DTD SVG 1.1//EN"
 "http://www.w3.org/Graphics/SVG/1.1/DTD/svg11.dtd">
<!-- Generated by graphviz version 7.1.0 (20230121.1956)
 -->
<!-- Title: G Pages: 1 -->
<svg width="3080pt" height="957pt"
 viewBox="0.00 0.00 3080.20 956.89" xmlns="http://www.w3.org/2000/svg" xmlns:xlink="http://www.w3.org/1999/xlink">
<g id="graph0" class="graph" transform="scale(1 1) rotate(0) translate(21.6 935.29)">
<title>G</title>
<polygon fill="#111111" stroke="none" points="-21.6,21.6 -21.6,-935.29 3058.6,-935.29 3058.6,21.6 -21.6,21.6"/>
<!-- App.tsx -->
<g id="node1" class="node">
<title>App.tsx</title>
<path fill="none" stroke="#c6c5fe" d="M57.33,-384C57.33,-384 7.67,-384 7.67,-384 3.83,-384 0,-380.17 0,-376.33 0,-376.33 0,-368.67 0,-368.67 0,-364.83 3.83,-361 7.67,-361 7.67,-361 57.33,-361 57.33,-361 61.17,-361 65,-364.83 65,-368.67 65,-368.67 65,-376.33 65,-376.33 65,-380.17 61.17,-384 57.33,-384"/>
<text text-anchor="middle" x="32.5" y="-368.8" font-family="Arial" font-size="14.00" fill="#c6c5fe">App.tsx</text>
</g>
<!-- router/Router.tsx -->
<g id="node2" class="node">
<title>router/Router.tsx</title>
<path fill="none" stroke="#c6c5fe" d="M215.33,-384C215.33,-384 108.67,-384 108.67,-384 104.83,-384 101,-380.17 101,-376.33 101,-376.33 101,-368.67 101,-368.67 101,-364.83 104.83,-361 108.67,-361 108.67,-361 215.33,-361 215.33,-361 219.17,-361 223,-364.83 223,-368.67 223,-368.67 223,-376.33 223,-376.33 223,-380.17 219.17,-384 215.33,-384"/>
<text text-anchor="middle" x="162" y="-368.8" font-family="Arial" font-size="14.00" fill="#c6c5fe">router/Router.tsx</text>
</g>
<!-- App.tsx&#45;&gt;router/Router.tsx -->
<g id="edge1" class="edge">
<title>App.tsx&#45;&gt;router/Router.tsx</title>
<path fill="none" stroke="#757575" d="M65.34,-372.5C72.7,-372.5 80.81,-372.5 89.12,-372.5"/>
<polygon fill="#757575" stroke="#757575" points="88.99,-376 98.99,-372.5 88.99,-369 88.99,-376"/>
</g>
<!-- page/Dashboard.tsx -->
<g id="node50" class="node">
<title>page/Dashboard.tsx</title>
<path fill="none" stroke="#c6c5fe" d="M395.33,-384C395.33,-384 266.67,-384 266.67,-384 262.83,-384 259,-380.17 259,-376.33 259,-376.33 259,-368.67 259,-368.67 259,-364.83 262.83,-361 266.67,-361 266.67,-361 395.33,-361 395.33,-361 399.17,-361 403,-364.83 403,-368.67 403,-368.67 403,-376.33 403,-376.33 403,-380.17 399.17,-384 395.33,-384"/>
<text text-anchor="middle" x="331" y="-368.8" font-family="Arial" font-size="14.00" fill="#c6c5fe">page/Dashboard.tsx</text>
</g>
<!-- router/Router.tsx&#45;&gt;page/Dashboard.tsx -->
<g id="edge70" class="edge">
<title>router/Router.tsx&#45;&gt;page/Dashboard.tsx</title>
<path fill="none" stroke="#757575" d="M223.29,-372.5C231.1,-372.5 239.21,-372.5 247.3,-372.5"/>
<polygon fill="#757575" stroke="#757575" points="247.19,-376 257.19,-372.5 247.19,-369 247.19,-376"/>
</g>
<!-- asset/image/pause.png -->
<g id="node3" class="node">
<title>asset/image/pause.png</title>
<path fill="none" stroke="#cfffac" d="M1619.83,-871C1619.83,-871 1471.17,-871 1471.17,-871 1467.33,-871 1463.5,-867.17 1463.5,-863.33 1463.5,-863.33 1463.5,-855.67 1463.5,-855.67 1463.5,-851.83 1467.33,-848 1471.17,-848 1471.17,-848 1619.83,-848 1619.83,-848 1623.67,-848 1627.5,-851.83 1627.5,-855.67 1627.5,-855.67 1627.5,-863.33 1627.5,-863.33 1627.5,-867.17 1623.67,-871 1619.83,-871"/>
<text text-anchor="middle" x="1545.5" y="-855.8" font-family="Arial" font-size="14.00" fill="#cfffac">asset/image/pause.png</text>
</g>
<!-- asset/image/play.png -->
<g id="node4" class="node">
<title>asset/image/play.png</title>
<path fill="none" stroke="#cfffac" d="M1613.33,-830C1613.33,-830 1477.67,-830 1477.67,-830 1473.83,-830 1470,-826.17 1470,-822.33 1470,-822.33 1470,-814.67 1470,-814.67 1470,-810.83 1473.83,-807 1477.67,-807 1477.67,-807 1613.33,-807 1613.33,-807 1617.17,-807 1621,-810.83 1621,-814.67 1621,-814.67 1621,-822.33 1621,-822.33 1621,-826.17 1617.17,-830 1613.33,-830"/>
<text text-anchor="middle" x="1545.5" y="-814.8" font-family="Arial" font-size="14.00" fill="#cfffac">asset/image/play.png</text>
</g>
<!-- common/api.ts -->
<g id="node5" class="node">
<title>common/api.ts</title>
<path fill="none" stroke="#c6c5fe" d="M2100.83,-23C2100.83,-23 2006.17,-23 2006.17,-23 2002.33,-23 1998.5,-19.17 1998.5,-15.33 1998.5,-15.33 1998.5,-7.67 1998.5,-7.67 1998.5,-3.83 2002.33,0 2006.17,0 2006.17,0 2100.83,0 2100.83,0 2104.67,0 2108.5,-3.83 2108.5,-7.67 2108.5,-7.67 2108.5,-15.33 2108.5,-15.33 2108.5,-19.17 2104.67,-23 2100.83,-23"/>
<text text-anchor="middle" x="2053.5" y="-7.8" font-family="Arial" font-size="14.00" fill="#c6c5fe">common/api.ts</text>
</g>
<!-- types/api.d.ts -->
<g id="node6" class="node">
<title>types/api.d.ts</title>
<path fill="none" stroke="#cfffac" d="M2535.33,-23C2535.33,-23 2449.67,-23 2449.67,-23 2445.83,-23 2442,-19.17 2442,-15.33 2442,-15.33 2442,-7.67 2442,-7.67 2442,-3.83 2445.83,0 2449.67,0 2449.67,0 2535.33,0 2535.33,0 2539.17,0 2543,-3.83 2543,-7.67 2543,-7.67 2543,-15.33 2543,-15.33 2543,-19.17 2539.17,-23 2535.33,-23"/>
<text text-anchor="middle" x="2492.5" y="-7.8" font-family="Arial" font-size="14.00" fill="#cfffac">types/api.d.ts</text>
</g>
<!-- common/api.ts&#45;&gt;types/api.d.ts -->
<g id="edge2" class="edge">
<title>common/api.ts&#45;&gt;types/api.d.ts</title>
<path fill="none" stroke="#757575" d="M2108.96,-11.5C2190.77,-11.5 2344.89,-11.5 2430.41,-11.5"/>
<polygon fill="#757575" stroke="#757575" points="2430.25,-15 2440.25,-11.5 2430.25,-8 2430.25,-15"/>
</g>
<!-- common/chart.ts -->
<g id="node7" class="node">
<title>common/chart.ts</title>
<path fill="none" stroke="#c6c5fe" d="M2106.83,-183C2106.83,-183 2000.17,-183 2000.17,-183 1996.33,-183 1992.5,-179.17 1992.5,-175.33 1992.5,-175.33 1992.5,-167.67 1992.5,-167.67 1992.5,-163.83 1996.33,-160 2000.17,-160 2000.17,-160 2106.83,-160 2106.83,-160 2110.67,-160 2114.5,-163.83 2114.5,-167.67 2114.5,-167.67 2114.5,-175.33 2114.5,-175.33 2114.5,-179.17 2110.67,-183 2106.83,-183"/>
<text text-anchor="middle" x="2053.5" y="-167.8" font-family="Arial" font-size="14.00" fill="#c6c5fe">common/chart.ts</text>
</g>
<!-- types/chart.d.ts -->
<g id="node8" class="node">
<title>types/chart.d.ts</title>
<path fill="none" stroke="#cfffac" d="M2541.33,-163C2541.33,-163 2443.67,-163 2443.67,-163 2439.83,-163 2436,-159.17 2436,-155.33 2436,-155.33 2436,-147.67 2436,-147.67 2436,-143.83 2439.83,-140 2443.67,-140 2443.67,-140 2541.33,-140 2541.33,-140 2545.17,-140 2549,-143.83 2549,-147.67 2549,-147.67 2549,-155.33 2549,-155.33 2549,-159.17 2545.17,-163 2541.33,-163"/>
<text text-anchor="middle" x="2492.5" y="-147.8" font-family="Arial" font-size="14.00" fill="#cfffac">types/chart.d.ts</text>
</g>
<!-- common/chart.ts&#45;&gt;types/chart.d.ts -->
<g id="edge3" class="edge">
<title>common/chart.ts&#45;&gt;types/chart.d.ts</title>
<path fill="none" stroke="#757575" d="M2114.8,-168.74C2195.95,-165.03 2339.84,-158.44 2424.35,-154.57"/>
<polygon fill="#757575" stroke="#757575" points="2424.27,-158.08 2434.1,-154.13 2423.95,-151.09 2424.27,-158.08"/>
</g>
<!-- common/date.ts -->
<g id="node9" class="node">
<title>common/date.ts</title>
<path fill="none" stroke="#cfffac" d="M2544.33,-586C2544.33,-586 2440.67,-586 2440.67,-586 2436.83,-586 2433,-582.17 2433,-578.33 2433,-578.33 2433,-570.67 2433,-570.67 2433,-566.83 2436.83,-563 2440.67,-563 2440.67,-563 2544.33,-563 2544.33,-563 2548.17,-563 2552,-566.83 2552,-570.67 2552,-570.67 2552,-578.33 2552,-578.33 2552,-582.17 2548.17,-586 2544.33,-586"/>
<text text-anchor="middle" x="2492.5" y="-570.8" font-family="Arial" font-size="14.00" fill="#cfffac">common/date.ts</text>
</g>
<!-- common/widget.ts -->
<g id="node10" class="node">
<title>common/widget.ts</title>
<path fill="none" stroke="#cfffac" d="M2111.83,-463C2111.83,-463 1995.17,-463 1995.17,-463 1991.33,-463 1987.5,-459.17 1987.5,-455.33 1987.5,-455.33 1987.5,-447.67 1987.5,-447.67 1987.5,-443.83 1991.33,-440 1995.17,-440 1995.17,-440 2111.83,-440 2111.83,-440 2115.67,-440 2119.5,-443.83 2119.5,-447.67 2119.5,-447.67 2119.5,-455.33 2119.5,-455.33 2119.5,-459.17 2115.67,-463 2111.83,-463"/>
<text text-anchor="middle" x="2053.5" y="-447.8" font-family="Arial" font-size="14.00" fill="#cfffac">common/widget.ts</text>
</g>
<!-- component/Dashboard/DashboardHeader.tsx -->
<g id="node11" class="node">
<title>component/Dashboard/DashboardHeader.tsx</title>
<path fill="none" stroke="#c6c5fe" d="M747.33,-639C747.33,-639 459.67,-639 459.67,-639 455.83,-639 452,-635.17 452,-631.33 452,-631.33 452,-623.67 452,-623.67 452,-619.83 455.83,-616 459.67,-616 459.67,-616 747.33,-616 747.33,-616 751.17,-616 755,-619.83 755,-623.67 755,-623.67 755,-631.33 755,-631.33 755,-635.17 751.17,-639 747.33,-639"/>
<text text-anchor="middle" x="603.5" y="-623.8" font-family="Arial" font-size="14.00" fill="#c6c5fe">component/Dashboard/DashboardHeader.tsx</text>
</g>
<!-- component/Dashboard/DashboardHeader/PlayIcon.tsx -->
<g id="node12" class="node">
<title>component/Dashboard/DashboardHeader/PlayIcon.tsx</title>
<path fill="none" stroke="#c6c5fe" d="M1209.83,-830C1209.83,-830 863.17,-830 863.17,-830 859.33,-830 855.5,-826.17 855.5,-822.33 855.5,-822.33 855.5,-814.67 855.5,-814.67 855.5,-810.83 859.33,-807 863.17,-807 863.17,-807 1209.83,-807 1209.83,-807 1213.67,-807 1217.5,-810.83 1217.5,-814.67 1217.5,-814.67 1217.5,-822.33 1217.5,-822.33 1217.5,-826.17 1213.67,-830 1209.83,-830"/>
<text text-anchor="middle" x="1036.5" y="-814.8" font-family="Arial" font-size="14.00" fill="#c6c5fe">component/Dashboard/DashboardHeader/PlayIcon.tsx</text>
</g>
<!-- component/Dashboard/DashboardHeader.tsx&#45;&gt;component/Dashboard/DashboardHeader/PlayIcon.tsx -->
<g id="edge4" class="edge">
<title>component/Dashboard/DashboardHeader.tsx&#45;&gt;component/Dashboard/DashboardHeader/PlayIcon.tsx</title>
<path fill="none" stroke="#757575" d="M621.36,-639.45C654.82,-662.72 732.55,-714.62 804,-746.5 859.87,-771.43 926.92,-791.26 974.45,-803.75"/>
<polygon fill="#757575" stroke="#757575" points="973.47,-807.11 984.02,-806.23 975.22,-800.33 973.47,-807.11"/>
</g>
<!-- component/Dashboard/DashboardHeader/SelectRealTimeRangeArea.tsx -->
<g id="node13" class="node">
<title>component/Dashboard/DashboardHeader/SelectRealTimeRangeArea.tsx</title>
<path fill="none" stroke="#c6c5fe" d="M1778.33,-789C1778.33,-789 1312.67,-789 1312.67,-789 1308.83,-789 1305,-785.17 1305,-781.33 1305,-781.33 1305,-773.67 1305,-773.67 1305,-769.83 1308.83,-766 1312.67,-766 1312.67,-766 1778.33,-766 1778.33,-766 1782.17,-766 1786,-769.83 1786,-773.67 1786,-773.67 1786,-781.33 1786,-781.33 1786,-785.17 1782.17,-789 1778.33,-789"/>
<text text-anchor="middle" x="1545.5" y="-773.8" font-family="Arial" font-size="14.00" fill="#c6c5fe">component/Dashboard/DashboardHeader/SelectRealTimeRangeArea.tsx</text>
</g>
<!-- component/Dashboard/DashboardHeader.tsx&#45;&gt;component/Dashboard/DashboardHeader/SelectRealTimeRangeArea.tsx -->
<g id="edge5" class="edge">
<title>component/Dashboard/DashboardHeader.tsx&#45;&gt;component/Dashboard/DashboardHeader/SelectRealTimeRangeArea.tsx</title>
<path fill="none" stroke="#757575" d="M658.53,-639.47C698.58,-648.12 754.55,-659.79 804,-668.5 1029.83,-708.29 1296.19,-745.02 1439.89,-764"/>
<polygon fill="#757575" stroke="#757575" points="1439.42,-767.47 1449.79,-765.3 1440.34,-760.53 1439.42,-767.47"/>
</g>
<!-- component/Dashboard/DashboardHeader/TimeBlock.tsx -->
<g id="node14" class="node">
<title>component/Dashboard/DashboardHeader/TimeBlock.tsx</title>
<path fill="none" stroke="#c6c5fe" d="M1215.83,-659C1215.83,-659 857.17,-659 857.17,-659 853.33,-659 849.5,-655.17 849.5,-651.33 849.5,-651.33 849.5,-643.67 849.5,-643.67 849.5,-639.83 853.33,-636 857.17,-636 857.17,-636 1215.83,-636 1215.83,-636 1219.67,-636 1223.5,-639.83 1223.5,-643.67 1223.5,-643.67 1223.5,-651.33 1223.5,-651.33 1223.5,-655.17 1219.67,-659 1215.83,-659"/>
<text text-anchor="middle" x="1036.5" y="-643.8" font-family="Arial" font-size="14.00" fill="#c6c5fe">component/Dashboard/DashboardHeader/TimeBlock.tsx</text>
</g>
<!-- component/Dashboard/DashboardHeader.tsx&#45;&gt;component/Dashboard/DashboardHeader/TimeBlock.tsx -->
<g id="edge6" class="edge">
<title>component/Dashboard/DashboardHeader.tsx&#45;&gt;component/Dashboard/DashboardHeader/TimeBlock.tsx</title>
<path fill="none" stroke="#757575" d="M755.24,-634.5C781.91,-635.73 810.04,-637.04 837.77,-638.32"/>
<polygon fill="#757575" stroke="#757575" points="837.55,-641.82 847.7,-638.79 837.87,-634.83 837.55,-641.82"/>
</g>
<!-- store/DashboardProvider.tsx -->
<g id="node15" class="node">
<title>store/DashboardProvider.tsx</title>
<path fill="none" stroke="#c6c5fe" d="M2144.33,-586C2144.33,-586 1962.67,-586 1962.67,-586 1958.83,-586 1955,-582.17 1955,-578.33 1955,-578.33 1955,-570.67 1955,-570.67 1955,-566.83 1958.83,-563 1962.67,-563 1962.67,-563 2144.33,-563 2144.33,-563 2148.17,-563 2152,-566.83 2152,-570.67 2152,-570.67 2152,-578.33 2152,-578.33 2152,-582.17 2148.17,-586 2144.33,-586"/>
<text text-anchor="middle" x="2053.5" y="-570.8" font-family="Arial" font-size="14.00" fill="#c6c5fe">store/DashboardProvider.tsx</text>
</g>
<!-- component/Dashboard/DashboardHeader.tsx&#45;&gt;store/DashboardProvider.tsx -->
<g id="edge7" class="edge">
<title>component/Dashboard/DashboardHeader.tsx&#45;&gt;store/DashboardProvider.tsx</title>
<path fill="none" stroke="#757575" d="M755.46,-619.84C897.31,-612.82 1115.52,-602.49 1305,-595.5 1531.97,-587.13 1797.81,-580.39 1943.4,-576.96"/>
<polygon fill="#757575" stroke="#757575" points="1943.1,-580.47 1953.02,-576.74 1942.94,-573.47 1943.1,-580.47"/>
</g>
<!-- store/WidgetPropsSettingModalProvider.tsx -->
<g id="node16" class="node">
<title>store/WidgetPropsSettingModalProvider.tsx</title>
<path fill="none" stroke="#c6c5fe" d="M1684.83,-543C1684.83,-543 1406.17,-543 1406.17,-543 1402.33,-543 1398.5,-539.17 1398.5,-535.33 1398.5,-535.33 1398.5,-527.67 1398.5,-527.67 1398.5,-523.83 1402.33,-520 1406.17,-520 1406.17,-520 1684.83,-520 1684.83,-520 1688.67,-520 1692.5,-523.83 1692.5,-527.67 1692.5,-527.67 1692.5,-535.33 1692.5,-535.33 1692.5,-539.17 1688.67,-543 1684.83,-543"/>
<text text-anchor="middle" x="1545.5" y="-527.8" font-family="Arial" font-size="14.00" fill="#c6c5fe">store/WidgetPropsSettingModalProvider.tsx</text>
</g>
<!-- component/Dashboard/DashboardHeader.tsx&#45;&gt;store/WidgetPropsSettingModalProvider.tsx -->
<g id="edge8" class="edge">
<title>component/Dashboard/DashboardHeader.tsx&#45;&gt;store/WidgetPropsSettingModalProvider.tsx</title>
<path fill="none" stroke="#757575" d="M666.3,-615.57C705.61,-608.33 757.64,-599.38 804,-593.5 1004.55,-568.06 1237.04,-550.53 1387.22,-540.77"/>
<polygon fill="#757575" stroke="#757575" points="1387.08,-544.28 1396.83,-540.14 1386.63,-537.3 1387.08,-544.28"/>
</g>
<!-- component/Dashboard/DashboardHeader/PlayIcon.tsx&#45;&gt;asset/image/pause.png -->
<g id="edge16" class="edge">
<title>component/Dashboard/DashboardHeader/PlayIcon.tsx&#45;&gt;asset/image/pause.png</title>
<path fill="none" stroke="#757575" d="M1185.85,-830.5C1271.88,-837.45 1377.55,-846 1451.83,-852.01"/>
<polygon fill="#757575" stroke="#757575" points="1451.26,-855.47 1461.51,-852.79 1451.82,-848.49 1451.26,-855.47"/>
</g>
<!-- component/Dashboard/DashboardHeader/PlayIcon.tsx&#45;&gt;asset/image/play.png -->
<g id="edge17" class="edge">
<title>component/Dashboard/DashboardHeader/PlayIcon.tsx&#45;&gt;asset/image/play.png</title>
<path fill="none" stroke="#757575" d="M1217.68,-818.5C1299.6,-818.5 1392.71,-818.5 1458.53,-818.5"/>
<polygon fill="#757575" stroke="#757575" points="1458.16,-822 1468.16,-818.5 1458.16,-815 1458.16,-822"/>
</g>
<!-- hook/useBoolean.tsx -->
<g id="node22" class="node">
<title>hook/useBoolean.tsx</title>
<path fill="none" stroke="#cfffac" d="M2120.33,-668C2120.33,-668 1986.67,-668 1986.67,-668 1982.83,-668 1979,-664.17 1979,-660.33 1979,-660.33 1979,-652.67 1979,-652.67 1979,-648.83 1982.83,-645 1986.67,-645 1986.67,-645 2120.33,-645 2120.33,-645 2124.17,-645 2128,-648.83 2128,-652.67 2128,-652.67 2128,-660.33 2128,-660.33 2128,-664.17 2124.17,-668 2120.33,-668"/>
<text text-anchor="middle" x="2053.5" y="-652.8" font-family="Arial" font-size="14.00" fill="#cfffac">hook/useBoolean.tsx</text>
</g>
<!-- component/Dashboard/DashboardHeader/SelectRealTimeRangeArea.tsx&#45;&gt;hook/useBoolean.tsx -->
<g id="edge20" class="edge">
<title>component/Dashboard/DashboardHeader/SelectRealTimeRangeArea.tsx&#45;&gt;hook/useBoolean.tsx</title>
<path fill="none" stroke="#757575" d="M1596.4,-765.57C1689.77,-743.24 1890.53,-695.23 1991.66,-671.05"/>
<polygon fill="#757575" stroke="#757575" points="1992.21,-674.51 2001.13,-668.79 1990.59,-667.71 1992.21,-674.51"/>
</g>
<!-- hook/useOutsideClick.tsx -->
<g id="node23" class="node">
<title>hook/useOutsideClick.tsx</title>
<path fill="none" stroke="#cfffac" d="M2133.83,-830C2133.83,-830 1973.17,-830 1973.17,-830 1969.33,-830 1965.5,-826.17 1965.5,-822.33 1965.5,-822.33 1965.5,-814.67 1965.5,-814.67 1965.5,-810.83 1969.33,-807 1973.17,-807 1973.17,-807 2133.83,-807 2133.83,-807 2137.67,-807 2141.5,-810.83 2141.5,-814.67 2141.5,-814.67 2141.5,-822.33 2141.5,-822.33 2141.5,-826.17 2137.67,-830 2133.83,-830"/>
<text text-anchor="middle" x="2053.5" y="-814.8" font-family="Arial" font-size="14.00" fill="#cfffac">hook/useOutsideClick.tsx</text>
</g>
<!-- component/Dashboard/DashboardHeader/SelectRealTimeRangeArea.tsx&#45;&gt;hook/useOutsideClick.tsx -->
<g id="edge21" class="edge">
<title>component/Dashboard/DashboardHeader/SelectRealTimeRangeArea.tsx&#45;&gt;hook/useOutsideClick.tsx</title>
<path fill="none" stroke="#757575" d="M1694.56,-789.5C1778.2,-796.27 1880.44,-804.56 1954.2,-810.54"/>
<polygon fill="#757575" stroke="#757575" points="1953.57,-814 1963.82,-811.31 1954.14,-807.02 1953.57,-814"/>
</g>
<!-- component/Dashboard/DashboardHeader/RealTime.tsx -->
<g id="node24" class="node">
<title>component/Dashboard/DashboardHeader/RealTime.tsx</title>
<path fill="none" stroke="#cfffac" d="M2229.83,-912C2229.83,-912 1877.17,-912 1877.17,-912 1873.33,-912 1869.5,-908.17 1869.5,-904.33 1869.5,-904.33 1869.5,-896.67 1869.5,-896.67 1869.5,-892.83 1873.33,-889 1877.17,-889 1877.17,-889 2229.83,-889 2229.83,-889 2233.67,-889 2237.5,-892.83 2237.5,-896.67 2237.5,-896.67 2237.5,-904.33 2237.5,-904.33 2237.5,-908.17 2233.67,-912 2229.83,-912"/>
<text text-anchor="middle" x="2053.5" y="-896.8" font-family="Arial" font-size="14.00" fill="#cfffac">component/Dashboard/DashboardHeader/RealTime.tsx</text>
</g>
<!-- component/Dashboard/DashboardHeader/SelectRealTimeRangeArea.tsx&#45;&gt;component/Dashboard/DashboardHeader/RealTime.tsx -->
<g id="edge18" class="edge">
<title>component/Dashboard/DashboardHeader/SelectRealTimeRangeArea.tsx&#45;&gt;component/Dashboard/DashboardHeader/RealTime.tsx</title>
<path fill="none" stroke="#757575" d="M1620.76,-765.5C1671.82,-761.37 1738.69,-764.56 1786,-798.5 1818.34,-821.7 1789.65,-857.31 1822,-880.5 1862.72,-909.68 1918.47,-915.18 1964.94,-913.14"/>
<polygon fill="#757575" stroke="#757575" points="1964.94,-916.64 1974.72,-912.58 1964.54,-909.66 1964.94,-916.64"/>
</g>
<!-- component/Dashboard/DashboardHeader/SelectRealTimeListItem.tsx -->
<g id="node25" class="node">
<title>component/Dashboard/DashboardHeader/SelectRealTimeListItem.tsx</title>
<path fill="none" stroke="#cfffac" d="M2275.83,-871C2275.83,-871 1831.17,-871 1831.17,-871 1827.33,-871 1823.5,-867.17 1823.5,-863.33 1823.5,-863.33 1823.5,-855.67 1823.5,-855.67 1823.5,-851.83 1827.33,-848 1831.17,-848 1831.17,-848 2275.83,-848 2275.83,-848 2279.67,-848 2283.5,-851.83 2283.5,-855.67 2283.5,-855.67 2283.5,-863.33 2283.5,-863.33 2283.5,-867.17 2279.67,-871 2275.83,-871"/>
<text text-anchor="middle" x="2053.5" y="-855.8" font-family="Arial" font-size="14.00" fill="#cfffac">component/Dashboard/DashboardHeader/SelectRealTimeListItem.tsx</text>
</g>
<!-- component/Dashboard/DashboardHeader/SelectRealTimeRangeArea.tsx&#45;&gt;component/Dashboard/DashboardHeader/SelectRealTimeListItem.tsx -->
<g id="edge19" class="edge">
<title>component/Dashboard/DashboardHeader/SelectRealTimeRangeArea.tsx&#45;&gt;component/Dashboard/DashboardHeader/SelectRealTimeListItem.tsx</title>
<path fill="none" stroke="#757575" d="M1765.24,-789.4C1772.35,-792.08 1779.3,-795.11 1786,-798.5 1807.63,-809.46 1800.36,-828.55 1822,-839.5 1824.59,-840.81 1827.21,-842.06 1829.87,-843.26"/>
<polygon fill="#757575" stroke="#757575" points="1828.3,-846.39 1838.88,-847.01 1831,-839.93 1828.3,-846.39"/>
</g>
<!-- component/Dashboard/DashboardHeader/CurrentTime.tsx -->
<g id="node17" class="node">
<title>component/Dashboard/DashboardHeader/CurrentTime.tsx</title>
<path fill="none" stroke="#c6c5fe" d="M1730.83,-627C1730.83,-627 1360.17,-627 1360.17,-627 1356.33,-627 1352.5,-623.17 1352.5,-619.33 1352.5,-619.33 1352.5,-611.67 1352.5,-611.67 1352.5,-607.83 1356.33,-604 1360.17,-604 1360.17,-604 1730.83,-604 1730.83,-604 1734.67,-604 1738.5,-607.83 1738.5,-611.67 1738.5,-611.67 1738.5,-619.33 1738.5,-619.33 1738.5,-623.17 1734.67,-627 1730.83,-627"/>
<text text-anchor="middle" x="1545.5" y="-611.8" font-family="Arial" font-size="14.00" fill="#c6c5fe">component/Dashboard/DashboardHeader/CurrentTime.tsx</text>
</g>
<!-- component/Dashboard/DashboardHeader/TimeBlock.tsx&#45;&gt;component/Dashboard/DashboardHeader/CurrentTime.tsx -->
<g id="edge22" class="edge">
<title>component/Dashboard/DashboardHeader/TimeBlock.tsx&#45;&gt;component/Dashboard/DashboardHeader/CurrentTime.tsx</title>
<path fill="none" stroke="#757575" d="M1223.77,-635.74C1262.67,-633.29 1303.86,-630.69 1343.28,-628.2"/>
<polygon fill="#757575" stroke="#757575" points="1343.35,-631.7 1353.11,-627.58 1342.91,-624.72 1343.35,-631.7"/>
</g>
<!-- component/Dashboard/DashboardHeader/DatePickerArea.tsx -->
<g id="node20" class="node">
<title>component/Dashboard/DashboardHeader/DatePickerArea.tsx</title>
<path fill="none" stroke="#c6c5fe" d="M1741.33,-708C1741.33,-708 1349.67,-708 1349.67,-708 1345.83,-708 1342,-704.17 1342,-700.33 1342,-700.33 1342,-692.67 1342,-692.67 1342,-688.83 1345.83,-685 1349.67,-685 1349.67,-685 1741.33,-685 1741.33,-685 1745.17,-685 1749,-688.83 1749,-692.67 1749,-692.67 1749,-700.33 1749,-700.33 1749,-704.17 1745.17,-708 1741.33,-708"/>
<text text-anchor="middle" x="1545.5" y="-692.8" font-family="Arial" font-size="14.00" fill="#c6c5fe">component/Dashboard/DashboardHeader/DatePickerArea.tsx</text>
</g>
<!-- component/Dashboard/DashboardHeader/TimeBlock.tsx&#45;&gt;component/Dashboard/DashboardHeader/DatePickerArea.tsx -->
<g id="edge23" class="edge">
<title>component/Dashboard/DashboardHeader/TimeBlock.tsx&#45;&gt;component/Dashboard/DashboardHeader/DatePickerArea.tsx</title>
<path fill="none" stroke="#757575" d="M1161.53,-659.49C1236.55,-666.74 1332.25,-675.99 1409.22,-683.43"/>
<polygon fill="#757575" stroke="#757575" points="1408.64,-686.89 1418.93,-684.36 1409.31,-679.92 1408.64,-686.89"/>
</g>
<!-- store/DashboardProvider.tsx&#45;&gt;common/date.ts -->
<g id="edge71" class="edge">
<title>store/DashboardProvider.tsx&#45;&gt;common/date.ts</title>
<path fill="none" stroke="#757575" d="M2152.3,-574.5C2233.98,-574.5 2348.44,-574.5 2421.28,-574.5"/>
<polygon fill="#757575" stroke="#757575" points="2421.09,-578 2431.09,-574.5 2421.09,-571 2421.09,-578"/>
</g>
<!-- store/WidgetPropsSettingModalProvider.tsx&#45;&gt;hook/useBoolean.tsx -->
<g id="edge72" class="edge">
<title>store/WidgetPropsSettingModalProvider.tsx&#45;&gt;hook/useBoolean.tsx</title>
<path fill="none" stroke="#757575" d="M1640.6,-543.49C1686.99,-552.56 1742.22,-568.31 1786,-595.5 1806.6,-608.29 1800.36,-625.55 1822,-636.5 1866.44,-658.98 1921.9,-664.38 1967.29,-663.97"/>
<polygon fill="#757575" stroke="#757575" points="1967.16,-667.47 1977.08,-663.77 1967.02,-660.47 1967.16,-667.47"/>
</g>
<!-- hook/useCurrentTime.tsx -->
<g id="node18" class="node">
<title>hook/useCurrentTime.tsx</title>
<path fill="none" stroke="#cfffac" d="M2133.33,-627C2133.33,-627 1973.67,-627 1973.67,-627 1969.83,-627 1966,-623.17 1966,-619.33 1966,-619.33 1966,-611.67 1966,-611.67 1966,-607.83 1969.83,-604 1973.67,-604 1973.67,-604 2133.33,-604 2133.33,-604 2137.17,-604 2141,-607.83 2141,-611.67 2141,-611.67 2141,-619.33 2141,-619.33 2141,-623.17 2137.17,-627 2133.33,-627"/>
<text text-anchor="middle" x="2053.5" y="-611.8" font-family="Arial" font-size="14.00" fill="#cfffac">hook/useCurrentTime.tsx</text>
</g>
<!-- component/Dashboard/DashboardHeader/CurrentTime.tsx&#45;&gt;hook/useCurrentTime.tsx -->
<g id="edge9" class="edge">
<title>component/Dashboard/DashboardHeader/CurrentTime.tsx&#45;&gt;hook/useCurrentTime.tsx</title>
<path fill="none" stroke="#757575" d="M1738.88,-615.5C1812.4,-615.5 1893.19,-615.5 1954.35,-615.5"/>
<polygon fill="#757575" stroke="#757575" points="1954.02,-619 1964.02,-615.5 1954.02,-612 1954.02,-619"/>
</g>
<!-- component/Dashboard/DashboardHeader/DateBox.tsx -->
<g id="node19" class="node">
<title>component/Dashboard/DashboardHeader/DateBox.tsx</title>
<path fill="none" stroke="#cfffac" d="M2226.83,-789C2226.83,-789 1880.17,-789 1880.17,-789 1876.33,-789 1872.5,-785.17 1872.5,-781.33 1872.5,-781.33 1872.5,-773.67 1872.5,-773.67 1872.5,-769.83 1876.33,-766 1880.17,-766 1880.17,-766 2226.83,-766 2226.83,-766 2230.67,-766 2234.5,-769.83 2234.5,-773.67 2234.5,-773.67 2234.5,-781.33 2234.5,-781.33 2234.5,-785.17 2230.67,-789 2226.83,-789"/>
<text text-anchor="middle" x="2053.5" y="-773.8" font-family="Arial" font-size="14.00" fill="#cfffac">component/Dashboard/DashboardHeader/DateBox.tsx</text>
</g>
<!-- component/Dashboard/DashboardHeader/DatePickerArea.tsx&#45;&gt;common/date.ts -->
<g id="edge10" class="edge">
<title>component/Dashboard/DashboardHeader/DatePickerArea.tsx&#45;&gt;common/date.ts</title>
<path fill="none" stroke="#757575" d="M1749.45,-701.11C1932.49,-703.47 2187.46,-701.8 2285,-677.5 2354.23,-660.25 2427.07,-617.16 2465,-592.52"/>
<polygon fill="#757575" stroke="#757575" points="2466.61,-595.65 2473.04,-587.22 2462.76,-589.8 2466.61,-595.65"/>
</g>
<!-- component/Dashboard/DashboardHeader/DatePickerArea.tsx&#45;&gt;store/DashboardProvider.tsx -->
<g id="edge15" class="edge">
<title>component/Dashboard/DashboardHeader/DatePickerArea.tsx&#45;&gt;store/DashboardProvider.tsx</title>
<path fill="none" stroke="#757575" d="M1650.28,-684.53C1694.51,-675.99 1745.2,-661.39 1786,-636.5 1806.7,-623.87 1800.39,-606.49 1822,-595.5 1858.83,-576.76 1903.27,-569.69 1943.26,-567.94"/>
<polygon fill="#757575" stroke="#757575" points="1943.29,-571.44 1953.17,-567.62 1943.07,-564.44 1943.29,-571.44"/>
</g>
<!-- component/Dashboard/DashboardHeader/DatePickerArea.tsx&#45;&gt;component/Dashboard/DashboardHeader/DateBox.tsx -->
<g id="edge11" class="edge">
<title>component/Dashboard/DashboardHeader/DatePickerArea.tsx&#45;&gt;component/Dashboard/DashboardHeader/DateBox.tsx</title>
<path fill="none" stroke="#757575" d="M1591.98,-708.5C1646.31,-722.38 1740.17,-744.95 1822,-757.5 1838.53,-760.04 1855.78,-762.28 1873.07,-764.25"/>
<polygon fill="#757575" stroke="#757575" points="1872.61,-767.72 1882.94,-765.34 1873.38,-760.76 1872.61,-767.72"/>
</g>
<!-- component/common/DatePicker.tsx -->
<g id="node21" class="node">
<title>component/common/DatePicker.tsx</title>
<path fill="none" stroke="#c6c5fe" d="M2166.83,-748C2166.83,-748 1940.17,-748 1940.17,-748 1936.33,-748 1932.5,-744.17 1932.5,-740.33 1932.5,-740.33 1932.5,-732.67 1932.5,-732.67 1932.5,-728.83 1936.33,-725 1940.17,-725 1940.17,-725 2166.83,-725 2166.83,-725 2170.67,-725 2174.5,-728.83 2174.5,-732.67 2174.5,-732.67 2174.5,-740.33 2174.5,-740.33 2174.5,-744.17 2170.67,-748 2166.83,-748"/>
<text text-anchor="middle" x="2053.5" y="-732.8" font-family="Arial" font-size="14.00" fill="#c6c5fe">component/common/DatePicker.tsx</text>
</g>
<!-- component/Dashboard/DashboardHeader/DatePickerArea.tsx&#45;&gt;component/common/DatePicker.tsx -->
<g id="edge12" class="edge">
<title>component/Dashboard/DashboardHeader/DatePickerArea.tsx&#45;&gt;component/common/DatePicker.tsx</title>
<path fill="none" stroke="#757575" d="M1697.97,-708.47C1768.99,-714.09 1852.81,-720.71 1921.11,-726.11"/>
<polygon fill="#757575" stroke="#757575" points="1920.61,-729.59 1930.86,-726.88 1921.17,-722.61 1920.61,-729.59"/>
</g>
<!-- component/Dashboard/DashboardHeader/DatePickerArea.tsx&#45;&gt;hook/useBoolean.tsx -->
<g id="edge13" class="edge">
<title>component/Dashboard/DashboardHeader/DatePickerArea.tsx&#45;&gt;hook/useBoolean.tsx</title>
<path fill="none" stroke="#757575" d="M1697.97,-684.53C1786.18,-677.55 1894.12,-669.02 1967.57,-663.21"/>
<polygon fill="#757575" stroke="#757575" points="1967.4,-666.74 1977.09,-662.46 1966.85,-659.76 1967.4,-666.74"/>
</g>
<!-- component/Dashboard/DashboardHeader/DatePickerArea.tsx&#45;&gt;hook/useOutsideClick.tsx -->
<g id="edge14" class="edge">
<title>component/Dashboard/DashboardHeader/DatePickerArea.tsx&#45;&gt;hook/useOutsideClick.tsx</title>
<path fill="none" stroke="#757575" d="M1647.62,-708.45C1692.47,-717.11 1744.39,-732 1786,-757.5 1806.68,-770.17 1800.36,-787.55 1822,-798.5 1862.14,-818.81 1911.27,-825.18 1953.85,-825.91"/>
<polygon fill="#757575" stroke="#757575" points="1953.56,-829.41 1963.58,-825.97 1953.6,-822.41 1953.56,-829.41"/>
</g>
<!-- component/common/DatePicker/DatePickerTitle.tsx -->
<g id="node44" class="node">
<title>component/common/DatePicker/DatePickerTitle.tsx</title>
<path fill="none" stroke="#c6c5fe" d="M2656.33,-788C2656.33,-788 2328.67,-788 2328.67,-788 2324.83,-788 2321,-784.17 2321,-780.33 2321,-780.33 2321,-772.67 2321,-772.67 2321,-768.83 2324.83,-765 2328.67,-765 2328.67,-765 2656.33,-765 2656.33,-765 2660.17,-765 2664,-768.83 2664,-772.67 2664,-772.67 2664,-780.33 2664,-780.33 2664,-784.17 2660.17,-788 2656.33,-788"/>
<text text-anchor="middle" x="2492.5" y="-772.8" font-family="Arial" font-size="14.00" fill="#c6c5fe">component/common/DatePicker/DatePickerTitle.tsx</text>
</g>
<!-- component/common/DatePicker.tsx&#45;&gt;component/common/DatePicker/DatePickerTitle.tsx -->
<g id="edge53" class="edge">
<title>component/common/DatePicker.tsx&#45;&gt;component/common/DatePicker/DatePickerTitle.tsx</title>
<path fill="none" stroke="#757575" d="M2174.73,-747.43C2210.24,-750.67 2249.19,-754.22 2285,-757.5 2306.07,-759.43 2328.34,-761.47 2350.16,-763.48"/>
<polygon fill="#757575" stroke="#757575" points="2349.73,-766.95 2360.01,-764.38 2350.37,-759.98 2349.73,-766.95"/>
</g>
<!-- component/common/DatePicker/ListPicker.tsx -->
<g id="node45" class="node">
<title>component/common/DatePicker/ListPicker.tsx</title>
<path fill="none" stroke="#c6c5fe" d="M2638.83,-708C2638.83,-708 2346.17,-708 2346.17,-708 2342.33,-708 2338.5,-704.17 2338.5,-700.33 2338.5,-700.33 2338.5,-692.67 2338.5,-692.67 2338.5,-688.83 2342.33,-685 2346.17,-685 2346.17,-685 2638.83,-685 2638.83,-685 2642.67,-685 2646.5,-688.83 2646.5,-692.67 2646.5,-692.67 2646.5,-700.33 2646.5,-700.33 2646.5,-704.17 2642.67,-708 2638.83,-708"/>
<text text-anchor="middle" x="2492.5" y="-692.8" font-family="Arial" font-size="14.00" fill="#c6c5fe">component/common/DatePicker/ListPicker.tsx</text>
</g>
<!-- component/common/DatePicker.tsx&#45;&gt;component/common/DatePicker/ListPicker.tsx -->
<g id="edge54" class="edge">
<title>component/common/DatePicker.tsx&#45;&gt;component/common/DatePicker/ListPicker.tsx</title>
<path fill="none" stroke="#757575" d="M2174.78,-725.49C2228.78,-720.55 2292.9,-714.68 2349.27,-709.52"/>
<polygon fill="#757575" stroke="#757575" points="2349.29,-713.03 2358.93,-708.63 2348.65,-706.06 2349.29,-713.03"/>
</g>
<!-- types/datePicker.d.ts -->
<g id="node46" class="node">
<title>types/datePicker.d.ts</title>
<path fill="none" stroke="#cfffac" d="M2935.33,-748C2935.33,-748 2801.67,-748 2801.67,-748 2797.83,-748 2794,-744.17 2794,-740.33 2794,-740.33 2794,-732.67 2794,-732.67 2794,-728.83 2797.83,-725 2801.67,-725 2801.67,-725 2935.33,-725 2935.33,-725 2939.17,-725 2943,-728.83 2943,-732.67 2943,-732.67 2943,-740.33 2943,-740.33 2943,-744.17 2939.17,-748 2935.33,-748"/>
<text text-anchor="middle" x="2868.5" y="-732.8" font-family="Arial" font-size="14.00" fill="#cfffac">types/datePicker.d.ts</text>
</g>
<!-- component/common/DatePicker.tsx&#45;&gt;types/datePicker.d.ts -->
<g id="edge55" class="edge">
<title>component/common/DatePicker.tsx&#45;&gt;types/datePicker.d.ts</title>
<path fill="none" stroke="#757575" d="M2174.9,-736.5C2341.13,-736.5 2636.82,-736.5 2782.11,-736.5"/>
<polygon fill="#757575" stroke="#757575" points="2782.07,-740 2792.07,-736.5 2782.07,-733 2782.07,-740"/>
</g>
<!-- component/Widget/Widget.tsx -->
<g id="node26" class="node">
<title>component/Widget/Widget.tsx</title>
<path fill="none" stroke="#c6c5fe" d="M700.33,-442C700.33,-442 506.67,-442 506.67,-442 502.83,-442 499,-438.17 499,-434.33 499,-434.33 499,-426.67 499,-426.67 499,-422.83 502.83,-419 506.67,-419 506.67,-419 700.33,-419 700.33,-419 704.17,-419 708,-422.83 708,-426.67 708,-426.67 708,-434.33 708,-434.33 708,-438.17 704.17,-442 700.33,-442"/>
<text text-anchor="middle" x="603.5" y="-426.8" font-family="Arial" font-size="14.00" fill="#c6c5fe">component/Widget/Widget.tsx</text>
</g>
<!-- component/Widget/Widget.tsx&#45;&gt;hook/useBoolean.tsx -->
<g id="edge28" class="edge">
<title>component/Widget/Widget.tsx&#45;&gt;hook/useBoolean.tsx</title>
<path fill="none" stroke="#757575" d="M638.94,-442.44C678.58,-456.06 745.73,-478.73 804,-496.5 817.82,-500.71 1290.71,-634.35 1305,-636.5 1542.86,-672.36 1827.99,-666.79 1967.36,-660.97"/>
<polygon fill="#757575" stroke="#757575" points="1967.41,-664.47 1977.25,-660.55 1967.11,-657.48 1967.41,-664.47"/>
</g>
<!-- component/Widget/WidgetButtons.tsx -->
<g id="node27" class="node">
<title>component/Widget/WidgetButtons.tsx</title>
<path fill="none" stroke="#c6c5fe" d="M1157.33,-462C1157.33,-462 915.67,-462 915.67,-462 911.83,-462 908,-458.17 908,-454.33 908,-454.33 908,-446.67 908,-446.67 908,-442.83 911.83,-439 915.67,-439 915.67,-439 1157.33,-439 1157.33,-439 1161.17,-439 1165,-442.83 1165,-446.67 1165,-446.67 1165,-454.33 1165,-454.33 1165,-458.17 1161.17,-462 1157.33,-462"/>
<text text-anchor="middle" x="1036.5" y="-446.8" font-family="Arial" font-size="14.00" fill="#c6c5fe">component/Widget/WidgetButtons.tsx</text>
</g>
<!-- component/Widget/Widget.tsx&#45;&gt;component/Widget/WidgetButtons.tsx -->
<g id="edge24" class="edge">
<title>component/Widget/Widget.tsx&#45;&gt;component/Widget/WidgetButtons.tsx</title>
<path fill="none" stroke="#757575" d="M708.28,-435.32C764.68,-437.93 835.18,-441.2 896.29,-444.04"/>
<polygon fill="#757575" stroke="#757575" points="895.92,-447.53 906.07,-444.49 896.25,-440.53 895.92,-447.53"/>
</g>
<!-- component/Widget/WidgetCallCycleSettingModal.tsx -->
<g id="node28" class="node">
<title>component/Widget/WidgetCallCycleSettingModal.tsx</title>
<path fill="none" stroke="#c6c5fe" d="M1713.33,-502C1713.33,-502 1377.67,-502 1377.67,-502 1373.83,-502 1370,-498.17 1370,-494.33 1370,-494.33 1370,-486.67 1370,-486.67 1370,-482.83 1373.83,-479 1377.67,-479 1377.67,-479 1713.33,-479 1713.33,-479 1717.17,-479 1721,-482.83 1721,-486.67 1721,-486.67 1721,-494.33 1721,-494.33 1721,-498.17 1717.17,-502 1713.33,-502"/>
<text text-anchor="middle" x="1545.5" y="-486.8" font-family="Arial" font-size="14.00" fill="#c6c5fe">component/Widget/WidgetCallCycleSettingModal.tsx</text>
</g>
<!-- component/Widget/Widget.tsx&#45;&gt;component/Widget/WidgetCallCycleSettingModal.tsx -->
<g id="edge25" class="edge">
<title>component/Widget/Widget.tsx&#45;&gt;component/Widget/WidgetCallCycleSettingModal.tsx</title>
<path fill="none" stroke="#757575" d="M650.88,-442.46C691.08,-452.25 750.96,-465.42 804,-471.5 991.9,-493.05 1208.3,-496.11 1358.44,-494.81"/>
<polygon fill="#757575" stroke="#757575" points="1358.11,-498.31 1368.07,-494.72 1358.04,-491.31 1358.11,-498.31"/>
</g>
<!-- component/Widget/WidgetChart.tsx -->
<g id="node29" class="node">
<title>component/Widget/WidgetChart.tsx</title>
<path fill="none" stroke="#c6c5fe" d="M1149.83,-265C1149.83,-265 923.17,-265 923.17,-265 919.33,-265 915.5,-261.17 915.5,-257.33 915.5,-257.33 915.5,-249.67 915.5,-249.67 915.5,-245.83 919.33,-242 923.17,-242 923.17,-242 1149.83,-242 1149.83,-242 1153.67,-242 1157.5,-245.83 1157.5,-249.67 1157.5,-249.67 1157.5,-257.33 1157.5,-257.33 1157.5,-261.17 1153.67,-265 1149.83,-265"/>
<text text-anchor="middle" x="1036.5" y="-249.8" font-family="Arial" font-size="14.00" fill="#c6c5fe">component/Widget/WidgetChart.tsx</text>
</g>
<!-- component/Widget/Widget.tsx&#45;&gt;component/Widget/WidgetChart.tsx -->
<g id="edge26" class="edge">
<title>component/Widget/Widget.tsx&#45;&gt;component/Widget/WidgetChart.tsx</title>
<path fill="none" stroke="#757575" d="M624.22,-418.63C656.09,-398.99 720.18,-357.61 768,-314.5 786.01,-298.26 782.36,-284.44 804,-273.5 834.32,-258.17 869.75,-250.76 903.64,-247.72"/>
<polygon fill="#757575" stroke="#757575" points="903.86,-251.21 913.56,-246.97 903.32,-244.23 903.86,-251.21"/>
</g>
<!-- hook/Widget/useHandleWidgetApi.tsx -->
<g id="node30" class="node">
<title>hook/Widget/useHandleWidgetApi.tsx</title>
<path fill="none" stroke="#c6c5fe" d="M1666.33,-422C1666.33,-422 1424.67,-422 1424.67,-422 1420.83,-422 1417,-418.17 1417,-414.33 1417,-414.33 1417,-406.67 1417,-406.67 1417,-402.83 1420.83,-399 1424.67,-399 1424.67,-399 1666.33,-399 1666.33,-399 1670.17,-399 1674,-402.83 1674,-406.67 1674,-406.67 1674,-414.33 1674,-414.33 1674,-418.17 1670.17,-422 1666.33,-422"/>
<text text-anchor="middle" x="1545.5" y="-406.8" font-family="Arial" font-size="14.00" fill="#c6c5fe">hook/Widget/useHandleWidgetApi.tsx</text>
</g>
<!-- component/Widget/Widget.tsx&#45;&gt;hook/Widget/useHandleWidgetApi.tsx -->
<g id="edge27" class="edge">
<title>component/Widget/Widget.tsx&#45;&gt;hook/Widget/useHandleWidgetApi.tsx</title>
<path fill="none" stroke="#757575" d="M708.24,-428.29C877.85,-424.68 1214.68,-417.52 1405.03,-413.47"/>
<polygon fill="#757575" stroke="#757575" points="1405.07,-416.97 1415,-413.26 1404.92,-409.97 1405.07,-416.97"/>
</g>
<!-- component/Widget/WidgetButtons.tsx&#45;&gt;store/WidgetPropsSettingModalProvider.tsx -->
<g id="edge29" class="edge">
<title>component/Widget/WidgetButtons.tsx&#45;&gt;store/WidgetPropsSettingModalProvider.tsx</title>
<path fill="none" stroke="#757575" d="M1081.16,-462.45C1133.81,-476.4 1225.21,-499.13 1305,-511.5 1331.36,-515.59 1359.5,-518.88 1386.88,-521.52"/>
<polygon fill="#757575" stroke="#757575" points="1386.35,-524.99 1396.64,-522.43 1387.01,-518.02 1386.35,-524.99"/>
</g>
<!-- store/WidgetProvider.tsx -->
<g id="node31" class="node">
<title>store/WidgetProvider.tsx</title>
<path fill="none" stroke="#c6c5fe" d="M1624.33,-345C1624.33,-345 1466.67,-345 1466.67,-345 1462.83,-345 1459,-341.17 1459,-337.33 1459,-337.33 1459,-329.67 1459,-329.67 1459,-325.83 1462.83,-322 1466.67,-322 1466.67,-322 1624.33,-322 1624.33,-322 1628.17,-322 1632,-325.83 1632,-329.67 1632,-329.67 1632,-337.33 1632,-337.33 1632,-341.17 1628.17,-345 1624.33,-345"/>
<text text-anchor="middle" x="1545.5" y="-329.8" font-family="Arial" font-size="14.00" fill="#c6c5fe">store/WidgetProvider.tsx</text>
</g>
<!-- component/Widget/WidgetButtons.tsx&#45;&gt;store/WidgetProvider.tsx -->
<g id="edge30" class="edge">
<title>component/Widget/WidgetButtons.tsx&#45;&gt;store/WidgetProvider.tsx</title>
<path fill="none" stroke="#757575" d="M1089.38,-438.53C1183.15,-416.89 1380.52,-371.34 1481.73,-347.99"/>
<polygon fill="#757575" stroke="#757575" points="1482.27,-351.45 1491.22,-345.79 1480.69,-344.63 1482.27,-351.45"/>
</g>
<!-- component/Widget/WidgetCallCycleSettingModal.tsx&#45;&gt;common/widget.ts -->
<g id="edge31" class="edge">
<title>component/Widget/WidgetCallCycleSettingModal.tsx&#45;&gt;common/widget.ts</title>
<path fill="none" stroke="#757575" d="M1702.1,-478.51C1792.94,-471.51 1903.56,-462.98 1975.89,-457.41"/>
<polygon fill="#757575" stroke="#757575" points="1975.95,-460.91 1985.65,-456.65 1975.41,-453.93 1975.95,-460.91"/>
</g>
<!-- component/Widget/WidgetCallCycleSettingModal/CycleInput.tsx -->
<g id="node32" class="node">
<title>component/Widget/WidgetCallCycleSettingModal/CycleInput.tsx</title>
<path fill="none" stroke="#cfffac" d="M2256.83,-545C2256.83,-545 1850.17,-545 1850.17,-545 1846.33,-545 1842.5,-541.17 1842.5,-537.33 1842.5,-537.33 1842.5,-529.67 1842.5,-529.67 1842.5,-525.83 1846.33,-522 1850.17,-522 1850.17,-522 2256.83,-522 2256.83,-522 2260.67,-522 2264.5,-525.83 2264.5,-529.67 2264.5,-529.67 2264.5,-537.33 2264.5,-537.33 2264.5,-541.17 2260.67,-545 2256.83,-545"/>
<text text-anchor="middle" x="2053.5" y="-529.8" font-family="Arial" font-size="14.00" fill="#cfffac">component/Widget/WidgetCallCycleSettingModal/CycleInput.tsx</text>
</g>
<!-- component/Widget/WidgetCallCycleSettingModal.tsx&#45;&gt;component/Widget/WidgetCallCycleSettingModal/CycleInput.tsx -->
<g id="edge32" class="edge">
<title>component/Widget/WidgetCallCycleSettingModal.tsx&#45;&gt;component/Widget/WidgetCallCycleSettingModal/CycleInput.tsx</title>
<path fill="none" stroke="#757575" d="M1687.45,-502.48C1753.65,-508.1 1832.68,-514.82 1900.26,-520.56"/>
<polygon fill="#757575" stroke="#757575" points="1899.66,-524.02 1909.92,-521.38 1900.25,-517.05 1899.66,-524.02"/>
</g>
<!-- component/Widget/WidgetCallCycleSettingModal/LastCallTimeBox.tsx -->
<g id="node33" class="node">
<title>component/Widget/WidgetCallCycleSettingModal/LastCallTimeBox.tsx</title>
<path fill="none" stroke="#cfffac" d="M2277.33,-504C2277.33,-504 1829.67,-504 1829.67,-504 1825.83,-504 1822,-500.17 1822,-496.33 1822,-496.33 1822,-488.67 1822,-488.67 1822,-484.83 1825.83,-481 1829.67,-481 1829.67,-481 2277.33,-481 2277.33,-481 2281.17,-481 2285,-484.83 2285,-488.67 2285,-488.67 2285,-496.33 2285,-496.33 2285,-500.17 2281.17,-504 2277.33,-504"/>
<text text-anchor="middle" x="2053.5" y="-488.8" font-family="Arial" font-size="14.00" fill="#cfffac">component/Widget/WidgetCallCycleSettingModal/LastCallTimeBox.tsx</text>
</g>
<!-- component/Widget/WidgetCallCycleSettingModal.tsx&#45;&gt;component/Widget/WidgetCallCycleSettingModal/LastCallTimeBox.tsx -->
<g id="edge33" class="edge">
<title>component/Widget/WidgetCallCycleSettingModal.tsx&#45;&gt;component/Widget/WidgetCallCycleSettingModal/LastCallTimeBox.tsx</title>
<path fill="none" stroke="#757575" d="M1721.35,-491.19C1750.09,-491.3 1780.34,-491.42 1810.37,-491.54"/>
<polygon fill="#757575" stroke="#757575" points="1810.35,-495.04 1820.36,-491.58 1810.37,-488.04 1810.35,-495.04"/>
</g>
<!-- component/chart/BarChart.tsx -->
<g id="node34" class="node">
<title>component/chart/BarChart.tsx</title>
<path fill="none" stroke="#c6c5fe" d="M1639.33,-265C1639.33,-265 1451.67,-265 1451.67,-265 1447.83,-265 1444,-261.17 1444,-257.33 1444,-257.33 1444,-249.67 1444,-249.67 1444,-245.83 1447.83,-242 1451.67,-242 1451.67,-242 1639.33,-242 1639.33,-242 1643.17,-242 1647,-245.83 1647,-249.67 1647,-249.67 1647,-257.33 1647,-257.33 1647,-261.17 1643.17,-265 1639.33,-265"/>
<text text-anchor="middle" x="1545.5" y="-249.8" font-family="Arial" font-size="14.00" fill="#c6c5fe">component/chart/BarChart.tsx</text>
</g>
<!-- component/Widget/WidgetChart.tsx&#45;&gt;component/chart/BarChart.tsx -->
<g id="edge34" class="edge">
<title>component/Widget/WidgetChart.tsx&#45;&gt;component/chart/BarChart.tsx</title>
<path fill="none" stroke="#757575" d="M1157.97,-253.5C1241.18,-253.5 1351.08,-253.5 1432.41,-253.5"/>
<polygon fill="#757575" stroke="#757575" points="1432.18,-257 1442.18,-253.5 1432.18,-250 1432.18,-257"/>
</g>
<!-- component/chart/InformaticsChart.tsx -->
<g id="node35" class="node">
<title>component/chart/InformaticsChart.tsx</title>
<path fill="none" stroke="#c6c5fe" d="M1663.83,-103C1663.83,-103 1427.17,-103 1427.17,-103 1423.33,-103 1419.5,-99.17 1419.5,-95.33 1419.5,-95.33 1419.5,-87.67 1419.5,-87.67 1419.5,-83.83 1423.33,-80 1427.17,-80 1427.17,-80 1663.83,-80 1663.83,-80 1667.67,-80 1671.5,-83.83 1671.5,-87.67 1671.5,-87.67 1671.5,-95.33 1671.5,-95.33 1671.5,-99.17 1667.67,-103 1663.83,-103"/>
<text text-anchor="middle" x="1545.5" y="-87.8" font-family="Arial" font-size="14.00" fill="#c6c5fe">component/chart/InformaticsChart.tsx</text>
</g>
<!-- component/Widget/WidgetChart.tsx&#45;&gt;component/chart/InformaticsChart.tsx -->
<g id="edge35" class="edge">
<title>component/Widget/WidgetChart.tsx&#45;&gt;component/chart/InformaticsChart.tsx</title>
<path fill="none" stroke="#757575" d="M1157.96,-259.55C1195.2,-257.05 1235.27,-249.65 1269,-232.5 1290.62,-221.51 1285.3,-205.65 1305,-191.5 1361.94,-150.6 1438.13,-122.48 1489.14,-106.71"/>
<polygon fill="#757575" stroke="#757575" points="1489.94,-110.13 1498.5,-103.88 1487.91,-103.43 1489.94,-110.13"/>
</g>
<!-- component/chart/LineChart.tsx -->
<g id="node36" class="node">
<title>component/chart/LineChart.tsx</title>
<path fill="none" stroke="#c6c5fe" d="M1642.33,-224C1642.33,-224 1448.67,-224 1448.67,-224 1444.83,-224 1441,-220.17 1441,-216.33 1441,-216.33 1441,-208.67 1441,-208.67 1441,-204.83 1444.83,-201 1448.67,-201 1448.67,-201 1642.33,-201 1642.33,-201 1646.17,-201 1650,-204.83 1650,-208.67 1650,-208.67 1650,-216.33 1650,-216.33 1650,-220.17 1646.17,-224 1642.33,-224"/>
<text text-anchor="middle" x="1545.5" y="-208.8" font-family="Arial" font-size="14.00" fill="#c6c5fe">component/chart/LineChart.tsx</text>
</g>
<!-- component/Widget/WidgetChart.tsx&#45;&gt;component/chart/LineChart.tsx -->
<g id="edge36" class="edge">
<title>component/Widget/WidgetChart.tsx&#45;&gt;component/chart/LineChart.tsx</title>
<path fill="none" stroke="#757575" d="M1157.97,-243.76C1240.21,-237.11 1348.5,-228.35 1429.53,-221.8"/>
<polygon fill="#757575" stroke="#757575" points="1429.59,-225.3 1439.27,-221.01 1429.02,-218.33 1429.59,-225.3"/>
</g>
<!-- hook/Widget/useHandleWidgetApi.tsx&#45;&gt;common/api.ts -->
<g id="edge59" class="edge">
<title>hook/Widget/useHandleWidgetApi.tsx&#45;&gt;common/api.ts</title>
<path fill="none" stroke="#757575" d="M1674.35,-408C1715.5,-400.64 1757.72,-384.98 1786,-353.5 1870.73,-259.17 1738.07,-165.54 1822,-70.5 1862.76,-24.35 1934.2,-11.94 1986.78,-9.62"/>
<polygon fill="#757575" stroke="#757575" points="1986.63,-13.13 1996.51,-9.32 1986.41,-6.13 1986.63,-13.13"/>
</g>
<!-- hook/Widget/useHandleWidgetApi.tsx&#45;&gt;types/chart.d.ts -->
<g id="edge63" class="edge">
<title>hook/Widget/useHandleWidgetApi.tsx&#45;&gt;types/chart.d.ts</title>
<path fill="none" stroke="#757575" d="M1674.2,-402.92C1878.23,-390.47 2257.7,-365.88 2285,-353.5 2374.46,-312.94 2447.9,-216.21 2477.47,-173"/>
<polygon fill="#757575" stroke="#757575" points="2480.36,-174.97 2483.03,-164.72 2474.55,-171.07 2480.36,-174.97"/>
</g>
<!-- hook/Widget/useHandleWidgetApi.tsx&#45;&gt;common/date.ts -->
<g id="edge60" class="edge">
<title>hook/Widget/useHandleWidgetApi.tsx&#45;&gt;common/date.ts</title>
<path fill="none" stroke="#757575" d="M1674.13,-405.2C1854.79,-399.18 2175.35,-394.41 2285,-430.5 2363.07,-456.2 2437.88,-521.85 2472.09,-554.89"/>
<polygon fill="#757575" stroke="#757575" points="2469.21,-556.97 2478.8,-561.48 2474.12,-551.98 2469.21,-556.97"/>
</g>
<!-- hook/Widget/useHandleWidgetApi.tsx&#45;&gt;common/widget.ts -->
<g id="edge61" class="edge">
<title>hook/Widget/useHandleWidgetApi.tsx&#45;&gt;common/widget.ts</title>
<path fill="none" stroke="#757575" d="M1674.19,-420.85C1769.2,-428.54 1895.76,-438.8 1975.7,-445.28"/>
<polygon fill="#757575" stroke="#757575" points="1975.39,-448.76 1985.64,-446.08 1975.96,-441.79 1975.39,-448.76"/>
</g>
<!-- hook/Widget/useHandleWidgetApi.tsx&#45;&gt;store/DashboardProvider.tsx -->
<g id="edge62" class="edge">
<title>hook/Widget/useHandleWidgetApi.tsx&#45;&gt;store/DashboardProvider.tsx</title>
<path fill="none" stroke="#757575" d="M1674.44,-420.44C1713.82,-428.94 1754.92,-444.02 1786,-470.5 1816.92,-496.84 1789.09,-530.69 1822,-554.5 1863.12,-584.24 1919.79,-589.5 1966.64,-587.2"/>
<polygon fill="#757575" stroke="#757575" points="1966.75,-590.7 1976.51,-586.58 1966.31,-583.71 1966.75,-590.7"/>
</g>
<!-- types/widget.d.ts -->
<g id="node49" class="node">
<title>types/widget.d.ts</title>
<path fill="none" stroke="#cfffac" d="M2107.33,-345C2107.33,-345 1999.67,-345 1999.67,-345 1995.83,-345 1992,-341.17 1992,-337.33 1992,-337.33 1992,-329.67 1992,-329.67 1992,-325.83 1995.83,-322 1999.67,-322 1999.67,-322 2107.33,-322 2107.33,-322 2111.17,-322 2115,-325.83 2115,-329.67 2115,-329.67 2115,-337.33 2115,-337.33 2115,-341.17 2111.17,-345 2107.33,-345"/>
<text text-anchor="middle" x="2053.5" y="-329.8" font-family="Arial" font-size="14.00" fill="#cfffac">types/widget.d.ts</text>
</g>
<!-- hook/Widget/useHandleWidgetApi.tsx&#45;&gt;types/widget.d.ts -->
<g id="edge64" class="edge">
<title>hook/Widget/useHandleWidgetApi.tsx&#45;&gt;types/widget.d.ts</title>
<path fill="none" stroke="#757575" d="M1604.61,-398.51C1660.23,-387.32 1746.58,-370.72 1822,-359.5 1874.88,-351.63 1934.9,-344.93 1980.43,-340.31"/>
<polygon fill="#757575" stroke="#757575" points="1980.58,-343.81 1990.18,-339.33 1979.88,-336.84 1980.58,-343.81"/>
</g>
<!-- store/WidgetProvider.tsx&#45;&gt;types/widget.d.ts -->
<g id="edge73" class="edge">
<title>store/WidgetProvider.tsx&#45;&gt;types/widget.d.ts</title>
<path fill="none" stroke="#757575" d="M1632.34,-333.5C1730.22,-333.5 1888.53,-333.5 1980.32,-333.5"/>
<polygon fill="#757575" stroke="#757575" points="1980.21,-337 1990.21,-333.5 1980.21,-330 1980.21,-337"/>
</g>
<!-- component/chart/BarChart.tsx&#45;&gt;common/chart.ts -->
<g id="edge42" class="edge">
<title>component/chart/BarChart.tsx&#45;&gt;common/chart.ts</title>
<path fill="none" stroke="#757575" d="M1647.23,-261.12C1691.87,-260.46 1743.74,-253.91 1786,-232.5 1807.63,-221.54 1800.36,-202.45 1822,-191.5 1871,-166.71 1933.41,-162.69 1980.93,-164.33"/>
<polygon fill="#757575" stroke="#757575" points="1980.71,-167.83 1990.85,-164.78 1981.02,-160.83 1980.71,-167.83"/>
</g>
<!-- component/chart/BarChart.tsx&#45;&gt;types/chart.d.ts -->
<g id="edge45" class="edge">
<title>component/chart/BarChart.tsx&#45;&gt;types/chart.d.ts</title>
<path fill="none" stroke="#757575" d="M1600.6,-265.47C1724.44,-290.63 2036.94,-341.3 2285,-273.5 2358.74,-253.34 2432.92,-199.35 2468.98,-170.42"/>
<polygon fill="#757575" stroke="#757575" points="2471,-173.29 2476.54,-164.26 2466.58,-167.87 2471,-173.29"/>
</g>
<!-- component/chart/ChartSvg.tsx -->
<g id="node41" class="node">
<title>component/chart/ChartSvg.tsx</title>
<path fill="none" stroke="#cfffac" d="M2148.83,-224C2148.83,-224 1958.17,-224 1958.17,-224 1954.33,-224 1950.5,-220.17 1950.5,-216.33 1950.5,-216.33 1950.5,-208.67 1950.5,-208.67 1950.5,-204.83 1954.33,-201 1958.17,-201 1958.17,-201 2148.83,-201 2148.83,-201 2152.67,-201 2156.5,-204.83 2156.5,-208.67 2156.5,-208.67 2156.5,-216.33 2156.5,-216.33 2156.5,-220.17 2152.67,-224 2148.83,-224"/>
<text text-anchor="middle" x="2053.5" y="-208.8" font-family="Arial" font-size="14.00" fill="#cfffac">component/chart/ChartSvg.tsx</text>
</g>
<!-- component/chart/BarChart.tsx&#45;&gt;component/chart/ChartSvg.tsx -->
<g id="edge43" class="edge">
<title>component/chart/BarChart.tsx&#45;&gt;component/chart/ChartSvg.tsx</title>
<path fill="none" stroke="#757575" d="M1647.38,-245.33C1731.48,-238.51 1851.26,-228.81 1938.76,-221.72"/>
<polygon fill="#757575" stroke="#757575" points="1938.88,-225.22 1948.56,-220.92 1938.31,-218.24 1938.88,-225.22"/>
</g>
<!-- hook/useResize.tsx -->
<g id="node42" class="node">
<title>hook/useResize.tsx</title>
<path fill="none" stroke="#cfffac" d="M2115.83,-265C2115.83,-265 1991.17,-265 1991.17,-265 1987.33,-265 1983.5,-261.17 1983.5,-257.33 1983.5,-257.33 1983.5,-249.67 1983.5,-249.67 1983.5,-245.83 1987.33,-242 1991.17,-242 1991.17,-242 2115.83,-242 2115.83,-242 2119.67,-242 2123.5,-245.83 2123.5,-249.67 2123.5,-249.67 2123.5,-257.33 2123.5,-257.33 2123.5,-261.17 2119.67,-265 2115.83,-265"/>
<text text-anchor="middle" x="2053.5" y="-249.8" font-family="Arial" font-size="14.00" fill="#cfffac">hook/useResize.tsx</text>
</g>
<!-- component/chart/BarChart.tsx&#45;&gt;hook/useResize.tsx -->
<g id="edge44" class="edge">
<title>component/chart/BarChart.tsx&#45;&gt;hook/useResize.tsx</title>
<path fill="none" stroke="#757575" d="M1647.38,-253.5C1742.67,-253.5 1883.75,-253.5 1971.8,-253.5"/>
<polygon fill="#757575" stroke="#757575" points="1971.55,-257 1981.55,-253.5 1971.55,-250 1971.55,-257"/>
</g>
<!-- component/chart/InformaticsChart.tsx&#45;&gt;types/chart.d.ts -->
<g id="edge47" class="edge">
<title>component/chart/InformaticsChart.tsx&#45;&gt;types/chart.d.ts</title>
<path fill="none" stroke="#757575" d="M1617.3,-79.52C1749.76,-59.3 2043.5,-24.83 2285,-70.5 2349.47,-82.69 2419.59,-114.53 2459.29,-134.47"/>
<polygon fill="#757575" stroke="#757575" points="2457.56,-137.52 2468.06,-138.94 2460.74,-131.28 2457.56,-137.52"/>
</g>
<!-- component/chart/InformaticsChart/InforMaticsBox.tsx -->
<g id="node43" class="node">
<title>component/chart/InformaticsChart/InforMaticsBox.tsx</title>
<path fill="none" stroke="#c6c5fe" d="M2220.83,-103C2220.83,-103 1886.17,-103 1886.17,-103 1882.33,-103 1878.5,-99.17 1878.5,-95.33 1878.5,-95.33 1878.5,-87.67 1878.5,-87.67 1878.5,-83.83 1882.33,-80 1886.17,-80 1886.17,-80 2220.83,-80 2220.83,-80 2224.67,-80 2228.5,-83.83 2228.5,-87.67 2228.5,-87.67 2228.5,-95.33 2228.5,-95.33 2228.5,-99.17 2224.67,-103 2220.83,-103"/>
<text text-anchor="middle" x="2053.5" y="-87.8" font-family="Arial" font-size="14.00" fill="#c6c5fe">component/chart/InformaticsChart/InforMaticsBox.tsx</text>
</g>
<!-- component/chart/InformaticsChart.tsx&#45;&gt;component/chart/InformaticsChart/InforMaticsBox.tsx -->
<g id="edge46" class="edge">
<title>component/chart/InformaticsChart.tsx&#45;&gt;component/chart/InformaticsChart/InforMaticsBox.tsx</title>
<path fill="none" stroke="#757575" d="M1671.9,-91.5C1730.7,-91.5 1801.94,-91.5 1866.82,-91.5"/>
<polygon fill="#757575" stroke="#757575" points="1866.5,-95 1876.5,-91.5 1866.5,-88 1866.5,-95"/>
</g>
<!-- component/chart/LineChart.tsx&#45;&gt;common/chart.ts -->
<g id="edge49" class="edge">
<title>component/chart/LineChart.tsx&#45;&gt;common/chart.ts</title>
<path fill="none" stroke="#757575" d="M1650.42,-204.08C1749.1,-196.08 1894.81,-184.28 1981.05,-177.29"/>
<polygon fill="#757575" stroke="#757575" points="1981.1,-180.8 1990.79,-176.5 1980.54,-173.82 1981.1,-180.8"/>
</g>
<!-- component/chart/LineChart.tsx&#45;&gt;types/chart.d.ts -->
<g id="edge52" class="edge">
<title>component/chart/LineChart.tsx&#45;&gt;types/chart.d.ts</title>
<path fill="none" stroke="#757575" d="M1586.64,-200.52C1639.86,-185.32 1736.97,-159.95 1822,-150.5 2026.52,-127.77 2079.22,-150 2285,-150.5 2331.6,-150.61 2384.11,-150.87 2424.52,-151.09"/>
<polygon fill="#757575" stroke="#757575" points="2424.31,-154.59 2434.33,-151.15 2424.35,-147.59 2424.31,-154.59"/>
</g>
<!-- component/chart/LineChart.tsx&#45;&gt;component/chart/ChartSvg.tsx -->
<g id="edge50" class="edge">
<title>component/chart/LineChart.tsx&#45;&gt;component/chart/ChartSvg.tsx</title>
<path fill="none" stroke="#757575" d="M1650.42,-212.5C1734.29,-212.5 1852.13,-212.5 1938.57,-212.5"/>
<polygon fill="#757575" stroke="#757575" points="1938.5,-216 1948.5,-212.5 1938.5,-209 1938.5,-216"/>
</g>
<!-- component/chart/LineChart.tsx&#45;&gt;hook/useResize.tsx -->
<g id="edge51" class="edge">
<title>component/chart/LineChart.tsx&#45;&gt;hook/useResize.tsx</title>
<path fill="none" stroke="#757575" d="M1650.42,-220.92C1745.64,-228.64 1884.65,-239.9 1971.76,-246.96"/>
<polygon fill="#757575" stroke="#757575" points="1971.42,-250.44 1981.67,-247.76 1971.98,-243.46 1971.42,-250.44"/>
</g>
<!-- component/Widget/WidgetPropsSettingModal.tsx -->
<g id="node37" class="node">
<title>component/Widget/WidgetPropsSettingModal.tsx</title>
<path fill="none" stroke="#c6c5fe" d="M760.33,-306C760.33,-306 446.67,-306 446.67,-306 442.83,-306 439,-302.17 439,-298.33 439,-298.33 439,-290.67 439,-290.67 439,-286.83 442.83,-283 446.67,-283 446.67,-283 760.33,-283 760.33,-283 764.17,-283 768,-286.83 768,-290.67 768,-290.67 768,-298.33 768,-298.33 768,-302.17 764.17,-306 760.33,-306"/>
<text text-anchor="middle" x="603.5" y="-290.8" font-family="Arial" font-size="14.00" fill="#c6c5fe">component/Widget/WidgetPropsSettingModal.tsx</text>
</g>
<!-- component/Widget/WidgetPropsSettingModal.tsx&#45;&gt;store/WidgetPropsSettingModalProvider.tsx -->
<g id="edge40" class="edge">
<title>component/Widget/WidgetPropsSettingModal.tsx&#45;&gt;store/WidgetPropsSettingModalProvider.tsx</title>
<path fill="none" stroke="#757575" d="M732.48,-306.49C901.7,-324.65 1187.97,-364.14 1269,-429.5 1299.98,-454.49 1272.61,-488.37 1305,-511.5 1350.12,-543.73 1412.94,-547.89 1462.92,-544.43"/>
<polygon fill="#757575" stroke="#757575" points="1463.16,-547.92 1472.85,-543.62 1462.59,-540.95 1463.16,-547.92"/>
</g>
<!-- component/Widget/WidgetPropsSettingModal/WidgetPropsButtons.tsx -->
<g id="node38" class="node">
<title>component/Widget/WidgetPropsSettingModal/WidgetPropsButtons.tsx</title>
<path fill="none" stroke="#c6c5fe" d="M1261.33,-306C1261.33,-306 811.67,-306 811.67,-306 807.83,-306 804,-302.17 804,-298.33 804,-298.33 804,-290.67 804,-290.67 804,-286.83 807.83,-283 811.67,-283 811.67,-283 1261.33,-283 1261.33,-283 1265.17,-283 1269,-286.83 1269,-290.67 1269,-290.67 1269,-298.33 1269,-298.33 1269,-302.17 1265.17,-306 1261.33,-306"/>
<text text-anchor="middle" x="1036.5" y="-290.8" font-family="Arial" font-size="14.00" fill="#c6c5fe">component/Widget/WidgetPropsSettingModal/WidgetPropsButtons.tsx</text>
</g>
<!-- component/Widget/WidgetPropsSettingModal.tsx&#45;&gt;component/Widget/WidgetPropsSettingModal/WidgetPropsButtons.tsx -->
<g id="edge37" class="edge">
<title>component/Widget/WidgetPropsSettingModal.tsx&#45;&gt;component/Widget/WidgetPropsSettingModal/WidgetPropsButtons.tsx</title>
<path fill="none" stroke="#757575" d="M768.36,-294.5C776.29,-294.5 784.32,-294.5 792.4,-294.5"/>
<polygon fill="#757575" stroke="#757575" points="792.33,-298 802.33,-294.5 792.33,-291 792.33,-298"/>
</g>
<!-- component/Widget/WidgetPropsSettingModal/WidgetPropsList.tsx -->
<g id="node39" class="node">
<title>component/Widget/WidgetPropsSettingModal/WidgetPropsList.tsx</title>
<path fill="none" stroke="#cfffac" d="M1248.83,-224C1248.83,-224 824.17,-224 824.17,-224 820.33,-224 816.5,-220.17 816.5,-216.33 816.5,-216.33 816.5,-208.67 816.5,-208.67 816.5,-204.83 820.33,-201 824.17,-201 824.17,-201 1248.83,-201 1248.83,-201 1252.67,-201 1256.5,-204.83 1256.5,-208.67 1256.5,-208.67 1256.5,-216.33 1256.5,-216.33 1256.5,-220.17 1252.67,-224 1248.83,-224"/>
<text text-anchor="middle" x="1036.5" y="-208.8" font-family="Arial" font-size="14.00" fill="#cfffac">component/Widget/WidgetPropsSettingModal/WidgetPropsList.tsx</text>
</g>
<!-- component/Widget/WidgetPropsSettingModal.tsx&#45;&gt;component/Widget/WidgetPropsSettingModal/WidgetPropsList.tsx -->
<g id="edge38" class="edge">
<title>component/Widget/WidgetPropsSettingModal.tsx&#45;&gt;component/Widget/WidgetPropsSettingModal/WidgetPropsList.tsx</title>
<path fill="none" stroke="#757575" d="M635.41,-282.61C674.17,-268.23 742.96,-244.48 804,-232.5 816.53,-230.04 829.49,-227.89 842.6,-226"/>
<polygon fill="#757575" stroke="#757575" points="842.71,-229.51 852.13,-224.68 841.75,-222.58 842.71,-229.51"/>
</g>
<!-- hook/useGetApiList.tsx -->
<g id="node40" class="node">
<title>hook/useGetApiList.tsx</title>
<path fill="none" stroke="#c6c5fe" d="M1110.33,-113C1110.33,-113 962.67,-113 962.67,-113 958.83,-113 955,-109.17 955,-105.33 955,-105.33 955,-97.67 955,-97.67 955,-93.83 958.83,-90 962.67,-90 962.67,-90 1110.33,-90 1110.33,-90 1114.17,-90 1118,-93.83 1118,-97.67 1118,-97.67 1118,-105.33 1118,-105.33 1118,-109.17 1114.17,-113 1110.33,-113"/>
<text text-anchor="middle" x="1036.5" y="-97.8" font-family="Arial" font-size="14.00" fill="#c6c5fe">hook/useGetApiList.tsx</text>
</g>
<!-- component/Widget/WidgetPropsSettingModal.tsx&#45;&gt;hook/useGetApiList.tsx -->
<g id="edge39" class="edge">
<title>component/Widget/WidgetPropsSettingModal.tsx&#45;&gt;hook/useGetApiList.tsx</title>
<path fill="none" stroke="#757575" d="M625.69,-282.62C661.73,-262.61 737.55,-221.47 804,-191.5 867.87,-162.7 943.91,-134.2 990.95,-117.23"/>
<polygon fill="#757575" stroke="#757575" points="992.03,-120.56 1000.26,-113.88 989.67,-113.97 992.03,-120.56"/>
</g>
<!-- component/Widget/WidgetPropsSettingModal/WidgetPropsButtons.tsx&#45;&gt;store/WidgetProvider.tsx -->
<g id="edge41" class="edge">
<title>component/Widget/WidgetPropsSettingModal/WidgetPropsButtons.tsx&#45;&gt;store/WidgetProvider.tsx</title>
<path fill="none" stroke="#757575" d="M1193.41,-306.49C1276.28,-312.87 1375.57,-320.51 1447.39,-326.03"/>
<polygon fill="#757575" stroke="#757575" points="1446.92,-329.5 1457.16,-326.78 1447.46,-322.52 1446.92,-329.5"/>
</g>
<!-- hook/useGetApiList.tsx&#45;&gt;common/api.ts -->
<g id="edge65" class="edge">
<title>hook/useGetApiList.tsx&#45;&gt;common/api.ts</title>
<path fill="none" stroke="#757575" d="M1118.48,-91.33C1171.49,-84.87 1242.3,-76.61 1305,-70.5 1556.54,-46.01 1856.46,-24.73 1986.72,-15.88"/>
<polygon fill="#757575" stroke="#757575" points="1986.79,-19.38 1996.53,-15.21 1986.32,-12.4 1986.79,-19.38"/>
</g>
<!-- component/chart/InformaticsChart/InforMaticsBox.tsx&#45;&gt;types/chart.d.ts -->
<g id="edge48" class="edge">
<title>component/chart/InformaticsChart/InforMaticsBox.tsx&#45;&gt;types/chart.d.ts</title>
<path fill="none" stroke="#757575" d="M2171.02,-103.48C2207.56,-107.55 2248,-112.37 2285,-117.5 2331.61,-123.96 2383.92,-132.59 2424.22,-139.53"/>
<polygon fill="#757575" stroke="#757575" points="2423.58,-142.98 2434.03,-141.23 2424.78,-136.08 2423.58,-142.98"/>
</g>
<!-- types/common.d.ts -->
<g id="node47" class="node">
<title>types/common.d.ts</title>
<path fill="none" stroke="#cfffac" d="M2929.33,-789C2929.33,-789 2807.67,-789 2807.67,-789 2803.83,-789 2800,-785.17 2800,-781.33 2800,-781.33 2800,-773.67 2800,-773.67 2800,-769.83 2803.83,-766 2807.67,-766 2807.67,-766 2929.33,-766 2929.33,-766 2933.17,-766 2937,-769.83 2937,-773.67 2937,-773.67 2937,-781.33 2937,-781.33 2937,-785.17 2933.17,-789 2929.33,-789"/>
<text text-anchor="middle" x="2868.5" y="-773.8" font-family="Arial" font-size="14.00" fill="#cfffac">types/common.d.ts</text>
</g>
<!-- component/common/DatePicker/DatePickerTitle.tsx&#45;&gt;types/common.d.ts -->
<g id="edge56" class="edge">
<title>component/common/DatePicker/DatePickerTitle.tsx&#45;&gt;types/common.d.ts</title>
<path fill="none" stroke="#757575" d="M2664.36,-776.96C2707.61,-777.07 2752.02,-777.19 2788.24,-777.29"/>
<polygon fill="#757575" stroke="#757575" points="2788.18,-780.79 2798.19,-777.31 2788.2,-773.79 2788.18,-780.79"/>
</g>
<!-- component/common/DatePicker/ListPicker.tsx&#45;&gt;types/datePicker.d.ts -->
<g id="edge58" class="edge">
<title>component/common/DatePicker/ListPicker.tsx&#45;&gt;types/datePicker.d.ts</title>
<path fill="none" stroke="#757575" d="M2605.46,-708.47C2662.2,-714.54 2729.99,-721.79 2782.4,-727.4"/>
<polygon fill="#757575" stroke="#757575" points="2781.86,-730.86 2792.18,-728.44 2782.6,-723.9 2781.86,-730.86"/>
</g>
<!-- component/common/DatePicker/ListPickerItem.tsx -->
<g id="node48" class="node">
<title>component/common/DatePicker/ListPickerItem.tsx</title>
<path fill="none" stroke="#cfffac" d="M3029.33,-707C3029.33,-707 2707.67,-707 2707.67,-707 2703.83,-707 2700,-703.17 2700,-699.33 2700,-699.33 2700,-691.67 2700,-691.67 2700,-687.83 2703.83,-684 2707.67,-684 2707.67,-684 3029.33,-684 3029.33,-684 3033.17,-684 3037,-687.83 3037,-691.67 3037,-691.67 3037,-699.33 3037,-699.33 3037,-703.17 3033.17,-707 3029.33,-707"/>
<text text-anchor="middle" x="2868.5" y="-691.8" font-family="Arial" font-size="14.00" fill="#cfffac">component/common/DatePicker/ListPickerItem.tsx</text>
</g>
<!-- component/common/DatePicker/ListPicker.tsx&#45;&gt;component/common/DatePicker/ListPickerItem.tsx -->
<g id="edge57" class="edge">
<title>component/common/DatePicker/ListPicker.tsx&#45;&gt;component/common/DatePicker/ListPickerItem.tsx</title>
<path fill="none" stroke="#757575" d="M2646.97,-696.09C2660.65,-696.05 2674.58,-696.02 2688.45,-695.98"/>
<polygon fill="#757575" stroke="#757575" points="2688.05,-699.48 2698.04,-695.95 2688.03,-692.48 2688.05,-699.48"/>
</g>
<!-- page/Dashboard.tsx&#45;&gt;component/Dashboard/DashboardHeader.tsx -->
<g id="edge66" class="edge">
<title>page/Dashboard.tsx&#45;&gt;component/Dashboard/DashboardHeader.tsx</title>
<path fill="none" stroke="#757575" d="M344.68,-384.46C387.72,-425.03 528.48,-557.72 581.79,-607.97"/>
<polygon fill="#757575" stroke="#757575" points="579.06,-610.22 588.74,-614.53 583.87,-605.12 579.06,-610.22"/>
</g>
<!-- page/Dashboard.tsx&#45;&gt;component/Widget/Widget.tsx -->
<g id="edge67" class="edge">
<title>page/Dashboard.tsx&#45;&gt;component/Widget/Widget.tsx</title>
<path fill="none" stroke="#757575" d="M387.72,-384.45C430.64,-393.65 490.12,-406.4 535.61,-416.16"/>
<polygon fill="#757575" stroke="#757575" points="534.86,-419.58 545.37,-418.25 536.33,-412.73 534.86,-419.58"/>
</g>
<!-- page/Dashboard.tsx&#45;&gt;store/WidgetProvider.tsx -->
<g id="edge69" class="edge">
<title>page/Dashboard.tsx&#45;&gt;store/WidgetProvider.tsx</title>
<path fill="none" stroke="#757575" d="M403.32,-370.21C610.22,-363.55 1210.87,-344.23 1447.27,-336.63"/>
<polygon fill="#757575" stroke="#757575" points="1447.2,-340.13 1457.08,-336.31 1446.97,-333.14 1447.2,-340.13"/>
</g>
<!-- page/Dashboard.tsx&#45;&gt;component/Widget/WidgetPropsSettingModal.tsx -->
<g id="edge68" class="edge">
<title>page/Dashboard.tsx&#45;&gt;component/Widget/WidgetPropsSettingModal.tsx</title>
<path fill="none" stroke="#757575" d="M351.78,-360.68C372.71,-348.7 407.09,-330.55 439,-320.5 454.15,-315.73 470.37,-311.81 486.5,-308.59"/>
<polygon fill="#757575" stroke="#757575" points="486.98,-312.06 496.15,-306.76 485.68,-305.19 486.98,-312.06"/>
</g>
</g>
</svg>
