<?xml version="1.0" encoding="UTF-8" standalone="no"?>
<!DOCTYPE svg PUBLIC "-//W3C//DTD SVG 1.1//EN"
 "http://www.w3.org/Graphics/SVG/1.1/DTD/svg11.dtd">
<!-- Generated by graphviz version 7.1.0 (20230121.1956)
 -->
<!-- Title: G Pages: 1 -->
<svg width="2398pt" height="1180pt"
 viewBox="0.00 0.00 2398.20 1179.55" xmlns="http://www.w3.org/2000/svg" xmlns:xlink="http://www.w3.org/1999/xlink">
<g id="graph0" class="graph" transform="scale(1 1) rotate(0) translate(21.6 1157.95)">
<title>G</title>
<polygon fill="#111111" stroke="none" points="-21.6,21.6 -21.6,-1157.95 2376.6,-1157.95 2376.6,21.6 -21.6,21.6"/>
<!-- App.tsx -->
<g id="node1" class="node">
<title>App.tsx</title>
<path fill="none" stroke="#c6c5fe" d="M57.33,-779.35C57.33,-779.35 7.67,-779.35 7.67,-779.35 3.83,-779.35 0,-775.51 0,-771.68 0,-771.68 0,-764.01 0,-764.01 0,-760.18 3.83,-756.35 7.67,-756.35 7.67,-756.35 57.33,-756.35 57.33,-756.35 61.17,-756.35 65,-760.18 65,-764.01 65,-764.01 65,-771.68 65,-771.68 65,-775.51 61.17,-779.35 57.33,-779.35"/>
<text text-anchor="middle" x="32.5" y="-764.15" font-family="Arial" font-size="14.00" fill="#c6c5fe">App.tsx</text>
</g>
<!-- router/Router.tsx -->
<g id="node2" class="node">
<title>router/Router.tsx</title>
<path fill="none" stroke="#c6c5fe" d="M215.33,-779.35C215.33,-779.35 108.67,-779.35 108.67,-779.35 104.83,-779.35 101,-775.51 101,-771.68 101,-771.68 101,-764.01 101,-764.01 101,-760.18 104.83,-756.35 108.67,-756.35 108.67,-756.35 215.33,-756.35 215.33,-756.35 219.17,-756.35 223,-760.18 223,-764.01 223,-764.01 223,-771.68 223,-771.68 223,-775.51 219.17,-779.35 215.33,-779.35"/>
<text text-anchor="middle" x="162" y="-764.15" font-family="Arial" font-size="14.00" fill="#c6c5fe">router/Router.tsx</text>
</g>
<!-- App.tsx&#45;&gt;router/Router.tsx -->
<g id="edge1" class="edge">
<title>App.tsx&#45;&gt;router/Router.tsx</title>
<path fill="none" stroke="#757575" d="M65.34,-767.85C72.7,-767.85 80.81,-767.85 89.12,-767.85"/>
<polygon fill="#757575" stroke="#757575" points="88.99,-771.35 98.99,-767.85 88.99,-764.35 88.99,-771.35"/>
</g>
<!-- page/Dashboard.tsx -->
<g id="node41" class="node">
<title>page/Dashboard.tsx</title>
<path fill="none" stroke="#c6c5fe" d="M395.33,-779.35C395.33,-779.35 266.67,-779.35 266.67,-779.35 262.83,-779.35 259,-775.51 259,-771.68 259,-771.68 259,-764.01 259,-764.01 259,-760.18 262.83,-756.35 266.67,-756.35 266.67,-756.35 395.33,-756.35 395.33,-756.35 399.17,-756.35 403,-760.18 403,-764.01 403,-764.01 403,-771.68 403,-771.68 403,-775.51 399.17,-779.35 395.33,-779.35"/>
<text text-anchor="middle" x="331" y="-764.15" font-family="Arial" font-size="14.00" fill="#c6c5fe">page/Dashboard.tsx</text>
</g>
<!-- router/Router.tsx&#45;&gt;page/Dashboard.tsx -->
<g id="edge65" class="edge">
<title>router/Router.tsx&#45;&gt;page/Dashboard.tsx</title>
<path fill="none" stroke="#757575" d="M223.29,-767.85C231.1,-767.85 239.21,-767.85 247.3,-767.85"/>
<polygon fill="#757575" stroke="#757575" points="247.19,-771.35 257.19,-767.85 247.19,-764.35 247.19,-771.35"/>
</g>
<!-- asset/image/pause.png -->
<g id="node3" class="node">
<title>asset/image/pause.png</title>
<path fill="none" stroke="#cfffac" d="M1118.83,-1097.35C1118.83,-1097.35 970.17,-1097.35 970.17,-1097.35 966.33,-1097.35 962.5,-1093.51 962.5,-1089.68 962.5,-1089.68 962.5,-1082.01 962.5,-1082.01 962.5,-1078.18 966.33,-1074.35 970.17,-1074.35 970.17,-1074.35 1118.83,-1074.35 1118.83,-1074.35 1122.67,-1074.35 1126.5,-1078.18 1126.5,-1082.01 1126.5,-1082.01 1126.5,-1089.68 1126.5,-1089.68 1126.5,-1093.51 1122.67,-1097.35 1118.83,-1097.35"/>
<text text-anchor="middle" x="1044.5" y="-1082.15" font-family="Arial" font-size="14.00" fill="#cfffac">asset/image/pause.png</text>
</g>
<!-- asset/image/play.png -->
<g id="node4" class="node">
<title>asset/image/play.png</title>
<path fill="none" stroke="#cfffac" d="M1112.33,-1056.35C1112.33,-1056.35 976.67,-1056.35 976.67,-1056.35 972.83,-1056.35 969,-1052.51 969,-1048.68 969,-1048.68 969,-1041.01 969,-1041.01 969,-1037.18 972.83,-1033.35 976.67,-1033.35 976.67,-1033.35 1112.33,-1033.35 1112.33,-1033.35 1116.17,-1033.35 1120,-1037.18 1120,-1041.01 1120,-1041.01 1120,-1048.68 1120,-1048.68 1120,-1052.51 1116.17,-1056.35 1112.33,-1056.35"/>
<text text-anchor="middle" x="1044.5" y="-1041.15" font-family="Arial" font-size="14.00" fill="#cfffac">asset/image/play.png</text>
</g>
<!-- common/api.ts -->
<g id="node5" class="node">
<title>common/api.ts</title>
<path fill="none" stroke="#c6c5fe" d="M1091.83,-538.35C1091.83,-538.35 997.17,-538.35 997.17,-538.35 993.33,-538.35 989.5,-534.51 989.5,-530.68 989.5,-530.68 989.5,-523.01 989.5,-523.01 989.5,-519.18 993.33,-515.35 997.17,-515.35 997.17,-515.35 1091.83,-515.35 1091.83,-515.35 1095.67,-515.35 1099.5,-519.18 1099.5,-523.01 1099.5,-523.01 1099.5,-530.68 1099.5,-530.68 1099.5,-534.51 1095.67,-538.35 1091.83,-538.35"/>
<text text-anchor="middle" x="1044.5" y="-523.15" font-family="Arial" font-size="14.00" fill="#c6c5fe">common/api.ts</text>
</g>
<!-- types/api.d.ts -->
<g id="node6" class="node">
<title>types/api.d.ts</title>
<path fill="none" stroke="#cfffac" d="M1595.33,-520.35C1595.33,-520.35 1509.67,-520.35 1509.67,-520.35 1505.83,-520.35 1502,-516.51 1502,-512.68 1502,-512.68 1502,-505.01 1502,-505.01 1502,-501.18 1505.83,-497.35 1509.67,-497.35 1509.67,-497.35 1595.33,-497.35 1595.33,-497.35 1599.17,-497.35 1603,-501.18 1603,-505.01 1603,-505.01 1603,-512.68 1603,-512.68 1603,-516.51 1599.17,-520.35 1595.33,-520.35"/>
<text text-anchor="middle" x="1552.5" y="-505.15" font-family="Arial" font-size="14.00" fill="#cfffac">types/api.d.ts</text>
</g>
<!-- common/api.ts&#45;&gt;types/api.d.ts -->
<g id="edge2" class="edge">
<title>common/api.ts&#45;&gt;types/api.d.ts</title>
<path fill="none" stroke="#757575" d="M1099.65,-524.92C1194.68,-521.54 1390.83,-514.56 1490.49,-511.02"/>
<polygon fill="#757575" stroke="#757575" points="1490.48,-514.52 1500.35,-510.67 1490.24,-507.52 1490.48,-514.52"/>
</g>
<!-- common/chart.ts -->
<g id="node7" class="node">
<title>common/chart.ts</title>
<path fill="none" stroke="#c6c5fe" d="M2048.33,-110.35C2048.33,-110.35 1941.67,-110.35 1941.67,-110.35 1937.83,-110.35 1934,-106.51 1934,-102.68 1934,-102.68 1934,-95.01 1934,-95.01 1934,-91.18 1937.83,-87.35 1941.67,-87.35 1941.67,-87.35 2048.33,-87.35 2048.33,-87.35 2052.17,-87.35 2056,-91.18 2056,-95.01 2056,-95.01 2056,-102.68 2056,-102.68 2056,-106.51 2052.17,-110.35 2048.33,-110.35"/>
<text text-anchor="middle" x="1995" y="-95.15" font-family="Arial" font-size="14.00" fill="#c6c5fe">common/chart.ts</text>
</g>
<!-- types/chart.d.ts -->
<g id="node8" class="node">
<title>types/chart.d.ts</title>
<path fill="none" stroke="#cfffac" d="M2329.33,-150.35C2329.33,-150.35 2231.67,-150.35 2231.67,-150.35 2227.83,-150.35 2224,-146.51 2224,-142.68 2224,-142.68 2224,-135.01 2224,-135.01 2224,-131.18 2227.83,-127.35 2231.67,-127.35 2231.67,-127.35 2329.33,-127.35 2329.33,-127.35 2333.17,-127.35 2337,-131.18 2337,-135.01 2337,-135.01 2337,-142.68 2337,-142.68 2337,-146.51 2333.17,-150.35 2329.33,-150.35"/>
<text text-anchor="middle" x="2280.5" y="-135.15" font-family="Arial" font-size="14.00" fill="#cfffac">types/chart.d.ts</text>
</g>
<!-- common/chart.ts&#45;&gt;types/chart.d.ts -->
<g id="edge3" class="edge">
<title>common/chart.ts&#45;&gt;types/chart.d.ts</title>
<path fill="none" stroke="#757575" d="M2056.47,-107.38C2102.29,-113.84 2165.23,-122.72 2212.56,-129.4"/>
<polygon fill="#757575" stroke="#757575" points="2212.04,-132.86 2222.43,-130.79 2213.02,-125.93 2212.04,-132.86"/>
</g>
<!-- common/date.ts -->
<g id="node9" class="node">
<title>common/date.ts</title>
<path fill="none" stroke="#cfffac" d="M2046.83,-463.35C2046.83,-463.35 1943.17,-463.35 1943.17,-463.35 1939.33,-463.35 1935.5,-459.51 1935.5,-455.68 1935.5,-455.68 1935.5,-448.01 1935.5,-448.01 1935.5,-444.18 1939.33,-440.35 1943.17,-440.35 1943.17,-440.35 2046.83,-440.35 2046.83,-440.35 2050.67,-440.35 2054.5,-444.18 2054.5,-448.01 2054.5,-448.01 2054.5,-455.68 2054.5,-455.68 2054.5,-459.51 2050.67,-463.35 2046.83,-463.35"/>
<text text-anchor="middle" x="1995" y="-448.15" font-family="Arial" font-size="14.00" fill="#cfffac">common/date.ts</text>
</g>
<!-- common/widget.ts -->
<g id="node10" class="node">
<title>common/widget.ts</title>
<path fill="none" stroke="#cfffac" d="M1610.83,-383.35C1610.83,-383.35 1494.17,-383.35 1494.17,-383.35 1490.33,-383.35 1486.5,-379.51 1486.5,-375.68 1486.5,-375.68 1486.5,-368.01 1486.5,-368.01 1486.5,-364.18 1490.33,-360.35 1494.17,-360.35 1494.17,-360.35 1610.83,-360.35 1610.83,-360.35 1614.67,-360.35 1618.5,-364.18 1618.5,-368.01 1618.5,-368.01 1618.5,-375.68 1618.5,-375.68 1618.5,-379.51 1614.67,-383.35 1610.83,-383.35"/>
<text text-anchor="middle" x="1552.5" y="-368.15" font-family="Arial" font-size="14.00" fill="#cfffac">common/widget.ts</text>
</g>
<!-- component/Dashboard/CommonStyle.ts -->
<g id="node11" class="node">
<title>component/Dashboard/CommonStyle.ts</title>
<path fill="none" stroke="#cfffac" d="M1679.83,-897.35C1679.83,-897.35 1425.17,-897.35 1425.17,-897.35 1421.33,-897.35 1417.5,-893.51 1417.5,-889.68 1417.5,-889.68 1417.5,-882.01 1417.5,-882.01 1417.5,-878.18 1421.33,-874.35 1425.17,-874.35 1425.17,-874.35 1679.83,-874.35 1679.83,-874.35 1683.67,-874.35 1687.5,-878.18 1687.5,-882.01 1687.5,-882.01 1687.5,-889.68 1687.5,-889.68 1687.5,-893.51 1683.67,-897.35 1679.83,-897.35"/>
<text text-anchor="middle" x="1552.5" y="-882.15" font-family="Arial" font-size="14.00" fill="#cfffac">component/Dashboard/CommonStyle.ts</text>
</g>
<!-- component/Dashboard/DashboardHeader.tsx -->
<g id="node12" class="node">
<title>component/Dashboard/DashboardHeader.tsx</title>
<path fill="none" stroke="#c6c5fe" d="M747.33,-953.35C747.33,-953.35 459.67,-953.35 459.67,-953.35 455.83,-953.35 452,-949.51 452,-945.68 452,-945.68 452,-938.01 452,-938.01 452,-934.18 455.83,-930.35 459.67,-930.35 459.67,-930.35 747.33,-930.35 747.33,-930.35 751.17,-930.35 755,-934.18 755,-938.01 755,-938.01 755,-945.68 755,-945.68 755,-949.51 751.17,-953.35 747.33,-953.35"/>
<text text-anchor="middle" x="603.5" y="-938.15" font-family="Arial" font-size="14.00" fill="#c6c5fe">component/Dashboard/DashboardHeader.tsx</text>
</g>
<!-- component/Dashboard/DashboardHeader.tsx&#45;&gt;asset/image/pause.png -->
<g id="edge4" class="edge">
<title>component/Dashboard/DashboardHeader.tsx&#45;&gt;asset/image/pause.png</title>
<path fill="none" stroke="#757575" d="M618.34,-953.64C649.22,-979.18 727.14,-1039.38 804,-1064.85 850.84,-1080.37 905.5,-1086.03 950.77,-1087.63"/>
<polygon fill="#757575" stroke="#757575" points="950.45,-1091.13 960.55,-1087.91 950.65,-1084.13 950.45,-1091.13"/>
</g>
<!-- component/Dashboard/DashboardHeader.tsx&#45;&gt;asset/image/play.png -->
<g id="edge5" class="edge">
<title>component/Dashboard/DashboardHeader.tsx&#45;&gt;asset/image/play.png</title>
<path fill="none" stroke="#757575" d="M627.08,-953.79C663.28,-972.32 737.05,-1007.55 804,-1023.85 853.91,-1035.99 911.19,-1041.31 957.21,-1043.56"/>
<polygon fill="#757575" stroke="#757575" points="957,-1047.06 967.14,-1044.01 957.31,-1040.07 957,-1047.06"/>
</g>
<!-- component/Dashboard/DashboardHeader/CurrentTime.tsx -->
<g id="node13" class="node">
<title>component/Dashboard/DashboardHeader/CurrentTime.tsx</title>
<path fill="none" stroke="#cfffac" d="M1229.83,-1015.35C1229.83,-1015.35 859.17,-1015.35 859.17,-1015.35 855.33,-1015.35 851.5,-1011.51 851.5,-1007.68 851.5,-1007.68 851.5,-1000.01 851.5,-1000.01 851.5,-996.18 855.33,-992.35 859.17,-992.35 859.17,-992.35 1229.83,-992.35 1229.83,-992.35 1233.67,-992.35 1237.5,-996.18 1237.5,-1000.01 1237.5,-1000.01 1237.5,-1007.68 1237.5,-1007.68 1237.5,-1011.51 1233.67,-1015.35 1229.83,-1015.35"/>
<text text-anchor="middle" x="1044.5" y="-1000.15" font-family="Arial" font-size="14.00" fill="#cfffac">component/Dashboard/DashboardHeader/CurrentTime.tsx</text>
</g>
<!-- component/Dashboard/DashboardHeader.tsx&#45;&gt;component/Dashboard/DashboardHeader/CurrentTime.tsx -->
<g id="edge6" class="edge">
<title>component/Dashboard/DashboardHeader.tsx&#45;&gt;component/Dashboard/DashboardHeader/CurrentTime.tsx</title>
<path fill="none" stroke="#757575" d="M654.64,-953.82C694.82,-963.01 752.74,-975.36 804,-982.85 824.31,-985.81 845.64,-988.41 866.87,-990.68"/>
<polygon fill="#757575" stroke="#757575" points="866.49,-994.16 876.79,-991.72 867.21,-987.2 866.49,-994.16"/>
</g>
<!-- component/Dashboard/DashboardHeader/DatePickerArea.tsx -->
<g id="node14" class="node">
<title>component/Dashboard/DashboardHeader/DatePickerArea.tsx</title>
<path fill="none" stroke="#c6c5fe" d="M1240.33,-974.35C1240.33,-974.35 848.67,-974.35 848.67,-974.35 844.83,-974.35 841,-970.51 841,-966.68 841,-966.68 841,-959.01 841,-959.01 841,-955.18 844.83,-951.35 848.67,-951.35 848.67,-951.35 1240.33,-951.35 1240.33,-951.35 1244.17,-951.35 1248,-955.18 1248,-959.01 1248,-959.01 1248,-966.68 1248,-966.68 1248,-970.51 1244.17,-974.35 1240.33,-974.35"/>
<text text-anchor="middle" x="1044.5" y="-959.15" font-family="Arial" font-size="14.00" fill="#c6c5fe">component/Dashboard/DashboardHeader/DatePickerArea.tsx</text>
</g>
<!-- component/Dashboard/DashboardHeader.tsx&#45;&gt;component/Dashboard/DashboardHeader/DatePickerArea.tsx -->
<g id="edge7" class="edge">
<title>component/Dashboard/DashboardHeader.tsx&#45;&gt;component/Dashboard/DashboardHeader/DatePickerArea.tsx</title>
<path fill="none" stroke="#757575" d="M755.27,-949.06C779.15,-950.2 804.24,-951.4 829.24,-952.6"/>
<polygon fill="#757575" stroke="#757575" points="829.05,-956.09 839.21,-953.07 829.39,-949.1 829.05,-956.09"/>
</g>
<!-- component/Dashboard/DashboardHeader/SelectRealTimeRangeArea.tsx -->
<g id="node15" class="node">
<title>component/Dashboard/DashboardHeader/SelectRealTimeRangeArea.tsx</title>
<path fill="none" stroke="#c6c5fe" d="M1277.33,-933.35C1277.33,-933.35 811.67,-933.35 811.67,-933.35 807.83,-933.35 804,-929.51 804,-925.68 804,-925.68 804,-918.01 804,-918.01 804,-914.18 807.83,-910.35 811.67,-910.35 811.67,-910.35 1277.33,-910.35 1277.33,-910.35 1281.17,-910.35 1285,-914.18 1285,-918.01 1285,-918.01 1285,-925.68 1285,-925.68 1285,-929.51 1281.17,-933.35 1277.33,-933.35"/>
<text text-anchor="middle" x="1044.5" y="-918.15" font-family="Arial" font-size="14.00" fill="#c6c5fe">component/Dashboard/DashboardHeader/SelectRealTimeRangeArea.tsx</text>
</g>
<!-- component/Dashboard/DashboardHeader.tsx&#45;&gt;component/Dashboard/DashboardHeader/SelectRealTimeRangeArea.tsx -->
<g id="edge8" class="edge">
<title>component/Dashboard/DashboardHeader.tsx&#45;&gt;component/Dashboard/DashboardHeader/SelectRealTimeRangeArea.tsx</title>
<path fill="none" stroke="#757575" d="M755.27,-934.98C767.46,-934.42 779.96,-933.85 792.6,-933.28"/>
<polygon fill="#757575" stroke="#757575" points="792.4,-936.79 802.23,-932.84 792.08,-929.8 792.4,-936.79"/>
</g>
<!-- store/DashboardProvider.tsx -->
<g id="node16" class="node">
<title>store/DashboardProvider.tsx</title>
<path fill="none" stroke="#c6c5fe" d="M1643.33,-735.35C1643.33,-735.35 1461.67,-735.35 1461.67,-735.35 1457.83,-735.35 1454,-731.51 1454,-727.68 1454,-727.68 1454,-720.01 1454,-720.01 1454,-716.18 1457.83,-712.35 1461.67,-712.35 1461.67,-712.35 1643.33,-712.35 1643.33,-712.35 1647.17,-712.35 1651,-716.18 1651,-720.01 1651,-720.01 1651,-727.68 1651,-727.68 1651,-731.51 1647.17,-735.35 1643.33,-735.35"/>
<text text-anchor="middle" x="1552.5" y="-720.15" font-family="Arial" font-size="14.00" fill="#c6c5fe">store/DashboardProvider.tsx</text>
</g>
<!-- component/Dashboard/DashboardHeader.tsx&#45;&gt;store/DashboardProvider.tsx -->
<g id="edge9" class="edge">
<title>component/Dashboard/DashboardHeader.tsx&#45;&gt;store/DashboardProvider.tsx</title>
<path fill="none" stroke="#757575" d="M654.65,-929.89C694.82,-920.72 752.75,-908.38 804,-900.85 910.17,-885.24 1201.36,-925.08 1285,-857.85 1326.41,-824.56 1279.54,-777.08 1321,-743.85 1364.47,-709 1428.49,-706.04 1478.04,-710.65"/>
<polygon fill="#757575" stroke="#757575" points="1477.52,-714.11 1487.84,-711.69 1478.26,-707.15 1477.52,-714.11"/>
</g>
<!-- store/WidgetProvider.tsx -->
<g id="node17" class="node">
<title>store/WidgetProvider.tsx</title>
<path fill="none" stroke="#c6c5fe" d="M1631.33,-694.35C1631.33,-694.35 1473.67,-694.35 1473.67,-694.35 1469.83,-694.35 1466,-690.51 1466,-686.68 1466,-686.68 1466,-679.01 1466,-679.01 1466,-675.18 1469.83,-671.35 1473.67,-671.35 1473.67,-671.35 1631.33,-671.35 1631.33,-671.35 1635.17,-671.35 1639,-675.18 1639,-679.01 1639,-679.01 1639,-686.68 1639,-686.68 1639,-690.51 1635.17,-694.35 1631.33,-694.35"/>
<text text-anchor="middle" x="1552.5" y="-679.15" font-family="Arial" font-size="14.00" fill="#c6c5fe">store/WidgetProvider.tsx</text>
</g>
<!-- component/Dashboard/DashboardHeader.tsx&#45;&gt;store/WidgetProvider.tsx -->
<g id="edge10" class="edge">
<title>component/Dashboard/DashboardHeader.tsx&#45;&gt;store/WidgetProvider.tsx</title>
<path fill="none" stroke="#757575" d="M626.21,-929.95C662.1,-910.81 736.55,-873.39 804,-853.85 1011.62,-793.69 1112.38,-911.96 1285,-781.85 1315.81,-758.62 1289.48,-725.1 1321,-702.85 1360.93,-674.65 1414.98,-668.74 1460.7,-670.3"/>
<polygon fill="#757575" stroke="#757575" points="1460.47,-673.79 1470.62,-670.78 1460.8,-666.8 1460.47,-673.79"/>
</g>
<!-- component/Dashboard/DashboardHeader/DatePickerArea.tsx&#45;&gt;common/date.ts -->
<g id="edge11" class="edge">
<title>component/Dashboard/DashboardHeader/DatePickerArea.tsx&#45;&gt;common/date.ts</title>
<path fill="none" stroke="#757575" d="M1248.41,-971.78C1453.29,-978.72 1744.97,-982.02 1784,-946.85 1831.42,-904.11 1794.63,-720.42 1820,-661.85 1855.37,-580.2 1932.58,-505.25 1971.14,-471.17"/>
<polygon fill="#757575" stroke="#757575" points="1973.24,-473.98 1978.49,-464.78 1968.65,-468.7 1973.24,-473.98"/>
</g>
<!-- component/Dashboard/DashboardHeader/DatePickerArea.tsx&#45;&gt;component/Dashboard/CommonStyle.ts -->
<g id="edge12" class="edge">
<title>component/Dashboard/DashboardHeader/DatePickerArea.tsx&#45;&gt;component/Dashboard/CommonStyle.ts</title>
<path fill="none" stroke="#757575" d="M1248.45,-955.28C1261.08,-951.7 1273.37,-947.27 1285,-941.85 1305.51,-932.28 1300.49,-915.4 1321,-905.85 1347.23,-893.63 1376.96,-886.7 1406.13,-883.06"/>
<polygon fill="#757575" stroke="#757575" points="1406.22,-886.57 1415.77,-881.98 1405.44,-879.61 1406.22,-886.57"/>
</g>
<!-- component/Dashboard/DashboardHeader/DatePickerArea.tsx&#45;&gt;store/DashboardProvider.tsx -->
<g id="edge17" class="edge">
<title>component/Dashboard/DashboardHeader/DatePickerArea.tsx&#45;&gt;store/DashboardProvider.tsx</title>
<path fill="none" stroke="#757575" d="M1097.95,-974.77C1151.88,-983.69 1234.88,-987.54 1285,-941.85 1351.1,-881.59 1254.87,-804.07 1321,-743.85 1365.17,-703.61 1435.84,-703.38 1487.29,-710.25"/>
<polygon fill="#757575" stroke="#757575" points="1486.71,-713.7 1497.12,-711.7 1487.73,-706.78 1486.71,-713.7"/>
</g>
<!-- component/Dashboard/DashboardHeader/DateBox.tsx -->
<g id="node18" class="node">
<title>component/Dashboard/DashboardHeader/DateBox.tsx</title>
<path fill="none" stroke="#cfffac" d="M1725.83,-1056.35C1725.83,-1056.35 1379.17,-1056.35 1379.17,-1056.35 1375.33,-1056.35 1371.5,-1052.51 1371.5,-1048.68 1371.5,-1048.68 1371.5,-1041.01 1371.5,-1041.01 1371.5,-1037.18 1375.33,-1033.35 1379.17,-1033.35 1379.17,-1033.35 1725.83,-1033.35 1725.83,-1033.35 1729.67,-1033.35 1733.5,-1037.18 1733.5,-1041.01 1733.5,-1041.01 1733.5,-1048.68 1733.5,-1048.68 1733.5,-1052.51 1729.67,-1056.35 1725.83,-1056.35"/>
<text text-anchor="middle" x="1552.5" y="-1041.15" font-family="Arial" font-size="14.00" fill="#cfffac">component/Dashboard/DashboardHeader/DateBox.tsx</text>
</g>
<!-- component/Dashboard/DashboardHeader/DatePickerArea.tsx&#45;&gt;component/Dashboard/DashboardHeader/DateBox.tsx -->
<g id="edge13" class="edge">
<title>component/Dashboard/DashboardHeader/DatePickerArea.tsx&#45;&gt;component/Dashboard/DashboardHeader/DateBox.tsx</title>
<path fill="none" stroke="#757575" d="M1248.43,-969.51C1261.06,-973.06 1273.36,-977.45 1285,-982.85 1305.53,-992.37 1300.61,-1009.03 1321,-1018.85 1333.38,-1024.81 1346.56,-1029.65 1360.1,-1033.55"/>
<polygon fill="#757575" stroke="#757575" points="1359,-1036.88 1369.57,-1036.09 1360.81,-1030.12 1359,-1036.88"/>
</g>
<!-- component/common/DatePicker.tsx -->
<g id="node19" class="node">
<title>component/common/DatePicker.tsx</title>
<path fill="none" stroke="#c6c5fe" d="M1665.83,-1136.35C1665.83,-1136.35 1439.17,-1136.35 1439.17,-1136.35 1435.33,-1136.35 1431.5,-1132.51 1431.5,-1128.68 1431.5,-1128.68 1431.5,-1121.01 1431.5,-1121.01 1431.5,-1117.18 1435.33,-1113.35 1439.17,-1113.35 1439.17,-1113.35 1665.83,-1113.35 1665.83,-1113.35 1669.67,-1113.35 1673.5,-1117.18 1673.5,-1121.01 1673.5,-1121.01 1673.5,-1128.68 1673.5,-1128.68 1673.5,-1132.51 1669.67,-1136.35 1665.83,-1136.35"/>
<text text-anchor="middle" x="1552.5" y="-1121.15" font-family="Arial" font-size="14.00" fill="#c6c5fe">component/common/DatePicker.tsx</text>
</g>
<!-- component/Dashboard/DashboardHeader/DatePickerArea.tsx&#45;&gt;component/common/DatePicker.tsx -->
<g id="edge14" class="edge">
<title>component/Dashboard/DashboardHeader/DatePickerArea.tsx&#45;&gt;component/common/DatePicker.tsx</title>
<path fill="none" stroke="#757575" d="M1104.12,-950.85C1157.16,-943.57 1234.49,-942.29 1285,-982.85 1327.09,-1016.65 1279.4,-1064.44 1321,-1098.85 1348.44,-1121.54 1384.43,-1131.66 1419.78,-1135.19"/>
<polygon fill="#757575" stroke="#757575" points="1419.47,-1138.67 1429.72,-1135.98 1420.03,-1131.69 1419.47,-1138.67"/>
</g>
<!-- hook/useBoolean.tsx -->
<g id="node20" class="node">
<title>hook/useBoolean.tsx</title>
<path fill="none" stroke="#cfffac" d="M2061.83,-796.35C2061.83,-796.35 1928.17,-796.35 1928.17,-796.35 1924.33,-796.35 1920.5,-792.51 1920.5,-788.68 1920.5,-788.68 1920.5,-781.01 1920.5,-781.01 1920.5,-777.18 1924.33,-773.35 1928.17,-773.35 1928.17,-773.35 2061.83,-773.35 2061.83,-773.35 2065.67,-773.35 2069.5,-777.18 2069.5,-781.01 2069.5,-781.01 2069.5,-788.68 2069.5,-788.68 2069.5,-792.51 2065.67,-796.35 2061.83,-796.35"/>
<text text-anchor="middle" x="1995" y="-781.15" font-family="Arial" font-size="14.00" fill="#cfffac">hook/useBoolean.tsx</text>
</g>
<!-- component/Dashboard/DashboardHeader/DatePickerArea.tsx&#45;&gt;hook/useBoolean.tsx -->
<g id="edge15" class="edge">
<title>component/Dashboard/DashboardHeader/DatePickerArea.tsx&#45;&gt;hook/useBoolean.tsx</title>
<path fill="none" stroke="#757575" d="M1115.65,-950.85C1167.16,-945.98 1236.36,-948.11 1285,-982.85 1317.39,-1005.98 1287.68,-1043.08 1321,-1064.85 1407.14,-1121.11 1691.97,-1110.86 1784,-1064.85 1895.37,-1009.16 1963,-863.21 1985.56,-807.19"/>
<polygon fill="#757575" stroke="#757575" points="1988.74,-808.66 1989.13,-798.07 1982.22,-806.1 1988.74,-808.66"/>
</g>
<!-- hook/useOutsideClick.tsx -->
<g id="node21" class="node">
<title>hook/useOutsideClick.tsx</title>
<path fill="none" stroke="#cfffac" d="M1632.83,-938.35C1632.83,-938.35 1472.17,-938.35 1472.17,-938.35 1468.33,-938.35 1464.5,-934.51 1464.5,-930.68 1464.5,-930.68 1464.5,-923.01 1464.5,-923.01 1464.5,-919.18 1468.33,-915.35 1472.17,-915.35 1472.17,-915.35 1632.83,-915.35 1632.83,-915.35 1636.67,-915.35 1640.5,-919.18 1640.5,-923.01 1640.5,-923.01 1640.5,-930.68 1640.5,-930.68 1640.5,-934.51 1636.67,-938.35 1632.83,-938.35"/>
<text text-anchor="middle" x="1552.5" y="-923.15" font-family="Arial" font-size="14.00" fill="#cfffac">hook/useOutsideClick.tsx</text>
</g>
<!-- component/Dashboard/DashboardHeader/DatePickerArea.tsx&#45;&gt;hook/useOutsideClick.tsx -->
<g id="edge16" class="edge">
<title>component/Dashboard/DashboardHeader/DatePickerArea.tsx&#45;&gt;hook/useOutsideClick.tsx</title>
<path fill="none" stroke="#757575" d="M1213.99,-950.86C1293.38,-945.21 1385.3,-938.67 1453.15,-933.84"/>
<polygon fill="#757575" stroke="#757575" points="1453.02,-937.36 1462.74,-933.16 1452.52,-930.38 1453.02,-937.36"/>
</g>
<!-- types/widget.d.ts -->
<g id="node22" class="node">
<title>types/widget.d.ts</title>
<path fill="none" stroke="#cfffac" d="M2048.83,-694.35C2048.83,-694.35 1941.17,-694.35 1941.17,-694.35 1937.33,-694.35 1933.5,-690.51 1933.5,-686.68 1933.5,-686.68 1933.5,-679.01 1933.5,-679.01 1933.5,-675.18 1937.33,-671.35 1941.17,-671.35 1941.17,-671.35 2048.83,-671.35 2048.83,-671.35 2052.67,-671.35 2056.5,-675.18 2056.5,-679.01 2056.5,-679.01 2056.5,-686.68 2056.5,-686.68 2056.5,-690.51 2052.67,-694.35 2048.83,-694.35"/>
<text text-anchor="middle" x="1995" y="-679.15" font-family="Arial" font-size="14.00" fill="#cfffac">types/widget.d.ts</text>
</g>
<!-- component/Dashboard/DashboardHeader/DatePickerArea.tsx&#45;&gt;types/widget.d.ts -->
<g id="edge18" class="edge">
<title>component/Dashboard/DashboardHeader/DatePickerArea.tsx&#45;&gt;types/widget.d.ts</title>
<path fill="none" stroke="#757575" d="M1201.67,-974.83C1240.62,-977.33 1282.32,-979.58 1321,-980.85 1423.83,-984.2 1705.52,-1047.38 1784,-980.85 1858.57,-917.63 1760.85,-841.69 1820,-763.85 1845.69,-730.04 1888.91,-709.82 1925.85,-698.04"/>
<polygon fill="#757575" stroke="#757575" points="1926.58,-701.47 1935.13,-695.23 1924.55,-694.77 1926.58,-701.47"/>
</g>
<!-- component/Dashboard/DashboardHeader/SelectRealTimeRangeArea.tsx&#45;&gt;component/Dashboard/CommonStyle.ts -->
<g id="edge19" class="edge">
<title>component/Dashboard/DashboardHeader/SelectRealTimeRangeArea.tsx&#45;&gt;component/Dashboard/CommonStyle.ts</title>
<path fill="none" stroke="#757575" d="M1213.99,-909.86C1276.11,-905.44 1345.91,-900.47 1405.84,-896.21"/>
<polygon fill="#757575" stroke="#757575" points="1406.07,-899.7 1415.79,-895.5 1405.57,-892.72 1406.07,-899.7"/>
</g>
<!-- component/Dashboard/DashboardHeader/SelectRealTimeRangeArea.tsx&#45;&gt;store/DashboardProvider.tsx -->
<g id="edge24" class="edge">
<title>component/Dashboard/DashboardHeader/SelectRealTimeRangeArea.tsx&#45;&gt;store/DashboardProvider.tsx</title>
<path fill="none" stroke="#757575" d="M1113.44,-933.82C1166.53,-939.08 1238.83,-936.6 1285,-895.85 1337.05,-849.9 1268.46,-789.23 1321,-743.85 1365.09,-705.77 1433.2,-704.41 1483.97,-710.4"/>
<polygon fill="#757575" stroke="#757575" points="1483.3,-713.84 1493.67,-711.67 1484.21,-706.9 1483.3,-713.84"/>
</g>
<!-- component/Dashboard/DashboardHeader/SelectRealTimeRangeArea.tsx&#45;&gt;hook/useBoolean.tsx -->
<g id="edge22" class="edge">
<title>component/Dashboard/DashboardHeader/SelectRealTimeRangeArea.tsx&#45;&gt;hook/useBoolean.tsx</title>
<path fill="none" stroke="#757575" d="M1244.02,-909.87C1258.15,-906.12 1271.96,-901.51 1285,-895.85 1304.37,-887.44 1301.53,-873.02 1321,-864.85 1416.2,-824.88 1681.73,-840.09 1784,-825.85 1833.37,-818.97 1888.69,-808.03 1930.15,-799.19"/>
<polygon fill="#757575" stroke="#757575" points="1930.67,-802.66 1939.71,-797.13 1929.2,-795.81 1930.67,-802.66"/>
</g>
<!-- component/Dashboard/DashboardHeader/SelectRealTimeRangeArea.tsx&#45;&gt;hook/useOutsideClick.tsx -->
<g id="edge23" class="edge">
<title>component/Dashboard/DashboardHeader/SelectRealTimeRangeArea.tsx&#45;&gt;hook/useOutsideClick.tsx</title>
<path fill="none" stroke="#757575" d="M1285.16,-924.21C1344.4,-924.8 1404.62,-925.39 1452.77,-925.87"/>
<polygon fill="#757575" stroke="#757575" points="1452.57,-929.37 1462.6,-925.97 1452.64,-922.37 1452.57,-929.37"/>
</g>
<!-- component/Dashboard/DashboardHeader/RealTime.tsx -->
<g id="node23" class="node">
<title>component/Dashboard/DashboardHeader/RealTime.tsx</title>
<path fill="none" stroke="#cfffac" d="M1728.83,-776.35C1728.83,-776.35 1376.17,-776.35 1376.17,-776.35 1372.33,-776.35 1368.5,-772.51 1368.5,-768.68 1368.5,-768.68 1368.5,-761.01 1368.5,-761.01 1368.5,-757.18 1372.33,-753.35 1376.17,-753.35 1376.17,-753.35 1728.83,-753.35 1728.83,-753.35 1732.67,-753.35 1736.5,-757.18 1736.5,-761.01 1736.5,-761.01 1736.5,-768.68 1736.5,-768.68 1736.5,-772.51 1732.67,-776.35 1728.83,-776.35"/>
<text text-anchor="middle" x="1552.5" y="-761.15" font-family="Arial" font-size="14.00" fill="#cfffac">component/Dashboard/DashboardHeader/RealTime.tsx</text>
</g>
<!-- component/Dashboard/DashboardHeader/SelectRealTimeRangeArea.tsx&#45;&gt;component/Dashboard/DashboardHeader/RealTime.tsx -->
<g id="edge20" class="edge">
<title>component/Dashboard/DashboardHeader/SelectRealTimeRangeArea.tsx&#45;&gt;component/Dashboard/DashboardHeader/RealTime.tsx</title>
<path fill="none" stroke="#757575" d="M1126.92,-933.83C1177.7,-936.69 1241.43,-931.27 1285,-895.85 1325.24,-863.13 1280.41,-817.13 1321,-784.85 1364.38,-750.34 1427.98,-747.23 1477.38,-751.68"/>
<polygon fill="#757575" stroke="#757575" points="1476.84,-755.15 1487.15,-752.7 1477.56,-748.18 1476.84,-755.15"/>
</g>
<!-- component/Dashboard/DashboardHeader/SelectRealTimeListItem.tsx -->
<g id="node24" class="node">
<title>component/Dashboard/DashboardHeader/SelectRealTimeListItem.tsx</title>
<path fill="none" stroke="#cfffac" d="M1774.83,-817.35C1774.83,-817.35 1330.17,-817.35 1330.17,-817.35 1326.33,-817.35 1322.5,-813.51 1322.5,-809.68 1322.5,-809.68 1322.5,-802.01 1322.5,-802.01 1322.5,-798.18 1326.33,-794.35 1330.17,-794.35 1330.17,-794.35 1774.83,-794.35 1774.83,-794.35 1778.67,-794.35 1782.5,-798.18 1782.5,-802.01 1782.5,-802.01 1782.5,-809.68 1782.5,-809.68 1782.5,-813.51 1778.67,-817.35 1774.83,-817.35"/>
<text text-anchor="middle" x="1552.5" y="-802.15" font-family="Arial" font-size="14.00" fill="#cfffac">component/Dashboard/DashboardHeader/SelectRealTimeListItem.tsx</text>
</g>
<!-- component/Dashboard/DashboardHeader/SelectRealTimeRangeArea.tsx&#45;&gt;component/Dashboard/DashboardHeader/SelectRealTimeListItem.tsx -->
<g id="edge21" class="edge">
<title>component/Dashboard/DashboardHeader/SelectRealTimeRangeArea.tsx&#45;&gt;component/Dashboard/DashboardHeader/SelectRealTimeListItem.tsx</title>
<path fill="none" stroke="#757575" d="M1259.02,-909.86C1268.08,-905.9 1276.8,-901.26 1285,-895.85 1312.24,-877.87 1293.8,-849.88 1321,-831.85 1326.14,-828.44 1331.49,-825.35 1337.01,-822.54"/>
<polygon fill="#757575" stroke="#757575" points="1338.17,-825.86 1345.73,-818.45 1335.19,-819.53 1338.17,-825.86"/>
</g>
<!-- store/DashboardProvider.tsx&#45;&gt;common/date.ts -->
<g id="edge66" class="edge">
<title>store/DashboardProvider.tsx&#45;&gt;common/date.ts</title>
<path fill="none" stroke="#757575" d="M1651.26,-731.23C1694.15,-730.47 1743.78,-723.91 1784,-702.85 1787.32,-701.11 1928.1,-531.4 1977.26,-472.06"/>
<polygon fill="#757575" stroke="#757575" points="1979.68,-474.62 1983.37,-464.69 1974.29,-470.16 1979.68,-474.62"/>
</g>
<!-- store/WidgetProvider.tsx&#45;&gt;hook/useBoolean.tsx -->
<g id="edge67" class="edge">
<title>store/WidgetProvider.tsx&#45;&gt;hook/useBoolean.tsx</title>
<path fill="none" stroke="#757575" d="M1639.25,-684.47C1683.03,-686.76 1736.87,-691.84 1784,-702.85 1848.38,-717.88 1919.22,-748.77 1959.97,-768.05"/>
<polygon fill="#757575" stroke="#757575" points="1958.26,-771.11 1968.79,-772.27 1961.28,-764.79 1958.26,-771.11"/>
</g>
<!-- store/WidgetProvider.tsx&#45;&gt;types/widget.d.ts -->
<g id="edge68" class="edge">
<title>store/WidgetProvider.tsx&#45;&gt;types/widget.d.ts</title>
<path fill="none" stroke="#757575" d="M1639.48,-682.85C1721.81,-682.85 1844.62,-682.85 1921.95,-682.85"/>
<polygon fill="#757575" stroke="#757575" points="1921.51,-686.35 1931.51,-682.85 1921.51,-679.35 1921.51,-686.35"/>
</g>
<!-- component/common/DatePicker/ListPicker.tsx -->
<g id="node39" class="node">
<title>component/common/DatePicker/ListPicker.tsx</title>
<path fill="none" stroke="#c6c5fe" d="M2141.33,-1116.35C2141.33,-1116.35 1848.67,-1116.35 1848.67,-1116.35 1844.83,-1116.35 1841,-1112.51 1841,-1108.68 1841,-1108.68 1841,-1101.01 1841,-1101.01 1841,-1097.18 1844.83,-1093.35 1848.67,-1093.35 1848.67,-1093.35 2141.33,-1093.35 2141.33,-1093.35 2145.17,-1093.35 2149,-1097.18 2149,-1101.01 2149,-1101.01 2149,-1108.68 2149,-1108.68 2149,-1112.51 2145.17,-1116.35 2141.33,-1116.35"/>
<text text-anchor="middle" x="1995" y="-1101.15" font-family="Arial" font-size="14.00" fill="#c6c5fe">component/common/DatePicker/ListPicker.tsx</text>
</g>
<!-- component/common/DatePicker.tsx&#45;&gt;component/common/DatePicker/ListPicker.tsx -->
<g id="edge57" class="edge">
<title>component/common/DatePicker.tsx&#45;&gt;component/common/DatePicker/ListPicker.tsx</title>
<path fill="none" stroke="#757575" d="M1673.87,-1119.38C1721.81,-1117.2 1777.76,-1114.66 1829.35,-1112.32"/>
<polygon fill="#757575" stroke="#757575" points="1829.29,-1115.83 1839.12,-1111.88 1828.97,-1108.84 1829.29,-1115.83"/>
</g>
<!-- types/datePicker.d.ts -->
<g id="node40" class="node">
<title>types/datePicker.d.ts</title>
<path fill="none" stroke="#cfffac" d="M2347.33,-1136.35C2347.33,-1136.35 2213.67,-1136.35 2213.67,-1136.35 2209.83,-1136.35 2206,-1132.51 2206,-1128.68 2206,-1128.68 2206,-1121.01 2206,-1121.01 2206,-1117.18 2209.83,-1113.35 2213.67,-1113.35 2213.67,-1113.35 2347.33,-1113.35 2347.33,-1113.35 2351.17,-1113.35 2355,-1117.18 2355,-1121.01 2355,-1121.01 2355,-1128.68 2355,-1128.68 2355,-1132.51 2351.17,-1136.35 2347.33,-1136.35"/>
<text text-anchor="middle" x="2280.5" y="-1121.15" font-family="Arial" font-size="14.00" fill="#cfffac">types/datePicker.d.ts</text>
</g>
<!-- component/common/DatePicker.tsx&#45;&gt;types/datePicker.d.ts -->
<g id="edge58" class="edge">
<title>component/common/DatePicker.tsx&#45;&gt;types/datePicker.d.ts</title>
<path fill="none" stroke="#757575" d="M1673.99,-1125.48C1798.27,-1126.03 1997.68,-1126.63 2170,-1125.85 2177.82,-1125.81 2185.95,-1125.76 2194.09,-1125.7"/>
<polygon fill="#757575" stroke="#757575" points="2194.09,-1129.2 2204.07,-1125.62 2194.04,-1122.2 2194.09,-1129.2"/>
</g>
<!-- component/Widget.tsx -->
<g id="node25" class="node">
<title>component/Widget.tsx</title>
<path fill="none" stroke="#c6c5fe" d="M675.33,-460.35C675.33,-460.35 531.67,-460.35 531.67,-460.35 527.83,-460.35 524,-456.51 524,-452.68 524,-452.68 524,-445.01 524,-445.01 524,-441.18 527.83,-437.35 531.67,-437.35 531.67,-437.35 675.33,-437.35 675.33,-437.35 679.17,-437.35 683,-441.18 683,-445.01 683,-445.01 683,-452.68 683,-452.68 683,-456.51 679.17,-460.35 675.33,-460.35"/>
<text text-anchor="middle" x="603.5" y="-445.15" font-family="Arial" font-size="14.00" fill="#c6c5fe">component/Widget.tsx</text>
</g>
<!-- component/Widget.tsx&#45;&gt;common/api.ts -->
<g id="edge25" class="edge">
<title>component/Widget.tsx&#45;&gt;common/api.ts</title>
<path fill="none" stroke="#757575" d="M643.49,-460.83C683.43,-472.67 747.5,-490.47 804,-500.85 862.46,-511.58 929.82,-518.41 978.18,-522.36"/>
<polygon fill="#757575" stroke="#757575" points="977.68,-525.83 987.92,-523.13 978.23,-518.85 977.68,-525.83"/>
</g>
<!-- component/Widget.tsx&#45;&gt;types/api.d.ts -->
<g id="edge33" class="edge">
<title>component/Widget.tsx&#45;&gt;types/api.d.ts</title>
<path fill="none" stroke="#757575" d="M683.13,-454.52C719.85,-457.13 764.16,-460.22 804,-462.85 1058.77,-479.62 1362.51,-497.73 1490.19,-505.25"/>
<polygon fill="#757575" stroke="#757575" points="1489.93,-508.74 1500.12,-505.84 1490.34,-501.75 1489.93,-508.74"/>
</g>
<!-- component/Widget.tsx&#45;&gt;common/date.ts -->
<g id="edge26" class="edge">
<title>component/Widget.tsx&#45;&gt;common/date.ts</title>
<path fill="none" stroke="#757575" d="M616.84,-437.17C646.44,-409.89 724.96,-341.85 804,-309.85 1019.77,-222.46 1088.96,-244.57 1321,-225.85 1423.56,-217.57 1689.68,-184.74 1784,-225.85 1881.93,-268.53 1954.74,-381.9 1982.13,-429.89"/>
<polygon fill="#757575" stroke="#757575" points="1979.02,-431.51 1986.95,-438.53 1985.13,-428.09 1979.02,-431.51"/>
</g>
<!-- component/Widget.tsx&#45;&gt;common/widget.ts -->
<g id="edge27" class="edge">
<title>component/Widget.tsx&#45;&gt;common/widget.ts</title>
<path fill="none" stroke="#757575" d="M640.41,-436.91C679.97,-424.37 745.73,-405.31 804,-396.85 1046.85,-361.58 1338.53,-364.76 1474.58,-368.84"/>
<polygon fill="#757575" stroke="#757575" points="1474.46,-372.34 1484.57,-369.15 1474.68,-365.34 1474.46,-372.34"/>
</g>
<!-- component/Widget.tsx&#45;&gt;store/DashboardProvider.tsx -->
<g id="edge32" class="edge">
<title>component/Widget.tsx&#45;&gt;store/DashboardProvider.tsx</title>
<path fill="none" stroke="#757575" d="M616.24,-460.53C645.16,-488.45 723.35,-558.89 804,-587.85 904.93,-624.09 1196.77,-565.88 1285,-626.85 1315.75,-648.09 1290.36,-681.45 1321,-702.85 1355.71,-727.08 1400.88,-734.93 1442.03,-735.77"/>
<polygon fill="#757575" stroke="#757575" points="1441.99,-739.27 1452.01,-735.82 1442.02,-732.27 1441.99,-739.27"/>
</g>
<!-- component/Widget.tsx&#45;&gt;hook/useBoolean.tsx -->
<g id="edge31" class="edge">
<title>component/Widget.tsx&#45;&gt;hook/useBoolean.tsx</title>
<path fill="none" stroke="#757575" d="M683.16,-445.75C933.81,-436.65 1702.18,-415 1784,-487.85 1856.36,-552.27 1761.51,-625.61 1820,-702.85 1845.96,-737.13 1889.84,-757.67 1927.04,-769.62"/>
<polygon fill="#757575" stroke="#757575" points="1925.8,-772.91 1936.39,-772.47 1927.84,-766.21 1925.8,-772.91"/>
</g>
<!-- component/Widget.tsx&#45;&gt;types/widget.d.ts -->
<g id="edge34" class="edge">
<title>component/Widget.tsx&#45;&gt;types/widget.d.ts</title>
<path fill="none" stroke="#757575" d="M683.08,-442.06C719.78,-439.21 764.1,-436.24 804,-434.85 1021.64,-427.22 1586.42,-344.25 1784,-435.85 1797.39,-442.05 1929.9,-604.01 1977.27,-662.24"/>
<polygon fill="#757575" stroke="#757575" points="1974.38,-664.23 1983.4,-669.78 1979.81,-659.81 1974.38,-664.23"/>
</g>
<!-- component/Widget/WidgetButtons.tsx -->
<g id="node26" class="node">
<title>component/Widget/WidgetButtons.tsx</title>
<path fill="none" stroke="#c6c5fe" d="M1165.33,-579.35C1165.33,-579.35 923.67,-579.35 923.67,-579.35 919.83,-579.35 916,-575.51 916,-571.68 916,-571.68 916,-564.01 916,-564.01 916,-560.18 919.83,-556.35 923.67,-556.35 923.67,-556.35 1165.33,-556.35 1165.33,-556.35 1169.17,-556.35 1173,-560.18 1173,-564.01 1173,-564.01 1173,-571.68 1173,-571.68 1173,-575.51 1169.17,-579.35 1165.33,-579.35"/>
<text text-anchor="middle" x="1044.5" y="-564.15" font-family="Arial" font-size="14.00" fill="#c6c5fe">component/Widget/WidgetButtons.tsx</text>
</g>
<!-- component/Widget.tsx&#45;&gt;component/Widget/WidgetButtons.tsx -->
<g id="edge28" class="edge">
<title>component/Widget.tsx&#45;&gt;component/Widget/WidgetButtons.tsx</title>
<path fill="none" stroke="#757575" d="M622.82,-460.76C656.9,-482.24 733.01,-527.04 804,-546.85 835.97,-555.76 871.18,-561.17 904.54,-564.38"/>
<polygon fill="#757575" stroke="#757575" points="904,-567.84 914.27,-565.25 904.62,-560.87 904,-567.84"/>
</g>
<!-- component/Widget/WidgetCallCycleSettingModal.tsx -->
<g id="node27" class="node">
<title>component/Widget/WidgetCallCycleSettingModal.tsx</title>
<path fill="none" stroke="#c6c5fe" d="M1212.33,-342.35C1212.33,-342.35 876.67,-342.35 876.67,-342.35 872.83,-342.35 869,-338.51 869,-334.68 869,-334.68 869,-327.01 869,-327.01 869,-323.18 872.83,-319.35 876.67,-319.35 876.67,-319.35 1212.33,-319.35 1212.33,-319.35 1216.17,-319.35 1220,-323.18 1220,-327.01 1220,-327.01 1220,-334.68 1220,-334.68 1220,-338.51 1216.17,-342.35 1212.33,-342.35"/>
<text text-anchor="middle" x="1044.5" y="-327.15" font-family="Arial" font-size="14.00" fill="#c6c5fe">component/Widget/WidgetCallCycleSettingModal.tsx</text>
</g>
<!-- component/Widget.tsx&#45;&gt;component/Widget/WidgetCallCycleSettingModal.tsx -->
<g id="edge29" class="edge">
<title>component/Widget.tsx&#45;&gt;component/Widget/WidgetCallCycleSettingModal.tsx</title>
<path fill="none" stroke="#757575" d="M624.93,-436.88C660.17,-416.85 735.21,-376.89 804,-357.85 823.57,-352.43 844.33,-348.09 865.12,-344.63"/>
<polygon fill="#757575" stroke="#757575" points="865.5,-348.11 874.83,-343.08 864.4,-341.2 865.5,-348.11"/>
</g>
<!-- component/Widget/WidgetChart.tsx -->
<g id="node28" class="node">
<title>component/Widget/WidgetChart.tsx</title>
<path fill="none" stroke="#c6c5fe" d="M1157.83,-160.35C1157.83,-160.35 931.17,-160.35 931.17,-160.35 927.33,-160.35 923.5,-156.51 923.5,-152.68 923.5,-152.68 923.5,-145.01 923.5,-145.01 923.5,-141.18 927.33,-137.35 931.17,-137.35 931.17,-137.35 1157.83,-137.35 1157.83,-137.35 1161.67,-137.35 1165.5,-141.18 1165.5,-145.01 1165.5,-145.01 1165.5,-152.68 1165.5,-152.68 1165.5,-156.51 1161.67,-160.35 1157.83,-160.35"/>
<text text-anchor="middle" x="1044.5" y="-145.15" font-family="Arial" font-size="14.00" fill="#c6c5fe">component/Widget/WidgetChart.tsx</text>
</g>
<!-- component/Widget.tsx&#45;&gt;component/Widget/WidgetChart.tsx -->
<g id="edge30" class="edge">
<title>component/Widget.tsx&#45;&gt;component/Widget/WidgetChart.tsx</title>
<path fill="none" stroke="#757575" d="M610.08,-436.98C629.95,-396.19 701.53,-260.74 804,-197.85 836.34,-177.99 875.32,-166.03 912.34,-158.87"/>
<polygon fill="#757575" stroke="#757575" points="912.53,-162.39 921.75,-157.16 911.28,-155.5 912.53,-162.39"/>
</g>
<!-- component/Widget/WidgetButtons.tsx&#45;&gt;store/WidgetProvider.tsx -->
<g id="edge35" class="edge">
<title>component/Widget/WidgetButtons.tsx&#45;&gt;store/WidgetProvider.tsx</title>
<path fill="none" stroke="#757575" d="M1173.41,-576.62C1209.73,-580.49 1249.15,-586.01 1285,-593.85 1367.58,-611.9 1460.47,-646.29 1511.88,-666.63"/>
<polygon fill="#757575" stroke="#757575" points="1510.51,-669.85 1521.1,-670.31 1513.1,-663.35 1510.51,-669.85"/>
</g>
<!-- component/Widget/WidgetCallCycleSettingModal.tsx&#45;&gt;common/date.ts -->
<g id="edge36" class="edge">
<title>component/Widget/WidgetCallCycleSettingModal.tsx&#45;&gt;common/date.ts</title>
<path fill="none" stroke="#757575" d="M1077.05,-318.85C1181.74,-280.99 1525.55,-172.04 1784,-268.85 1872.28,-301.91 1947.87,-390.72 1978.92,-431.22"/>
<polygon fill="#757575" stroke="#757575" points="1975.95,-433.09 1984.76,-438.98 1981.55,-428.88 1975.95,-433.09"/>
</g>
<!-- component/Widget/WidgetCallCycleSettingModal.tsx&#45;&gt;common/widget.ts -->
<g id="edge37" class="edge">
<title>component/Widget/WidgetCallCycleSettingModal.tsx&#45;&gt;common/widget.ts</title>
<path fill="none" stroke="#757575" d="M1193.56,-342.84C1285.8,-350.32 1400.66,-359.62 1475,-365.65"/>
<polygon fill="#757575" stroke="#757575" points="1474.36,-369.11 1484.61,-366.43 1474.93,-362.13 1474.36,-369.11"/>
</g>
<!-- component/Widget/WidgetCallCycleSettingModal/CycleInput.tsx -->
<g id="node29" class="node">
<title>component/Widget/WidgetCallCycleSettingModal/CycleInput.tsx</title>
<path fill="none" stroke="#cfffac" d="M1755.83,-301.35C1755.83,-301.35 1349.17,-301.35 1349.17,-301.35 1345.33,-301.35 1341.5,-297.51 1341.5,-293.68 1341.5,-293.68 1341.5,-286.01 1341.5,-286.01 1341.5,-282.18 1345.33,-278.35 1349.17,-278.35 1349.17,-278.35 1755.83,-278.35 1755.83,-278.35 1759.67,-278.35 1763.5,-282.18 1763.5,-286.01 1763.5,-286.01 1763.5,-293.68 1763.5,-293.68 1763.5,-297.51 1759.67,-301.35 1755.83,-301.35"/>
<text text-anchor="middle" x="1552.5" y="-286.15" font-family="Arial" font-size="14.00" fill="#cfffac">component/Widget/WidgetCallCycleSettingModal/CycleInput.tsx</text>
</g>
<!-- component/Widget/WidgetCallCycleSettingModal.tsx&#45;&gt;component/Widget/WidgetCallCycleSettingModal/CycleInput.tsx -->
<g id="edge38" class="edge">
<title>component/Widget/WidgetCallCycleSettingModal.tsx&#45;&gt;component/Widget/WidgetCallCycleSettingModal/CycleInput.tsx</title>
<path fill="none" stroke="#757575" d="M1193.56,-318.85C1256.01,-313.79 1328.84,-307.89 1392.44,-302.73"/>
<polygon fill="#757575" stroke="#757575" points="1392.6,-306.23 1402.28,-301.94 1392.03,-299.26 1392.6,-306.23"/>
</g>
<!-- component/Widget/WidgetCallCycleSettingModal/LastCallTimeBox.tsx -->
<g id="node30" class="node">
<title>component/Widget/WidgetCallCycleSettingModal/LastCallTimeBox.tsx</title>
<path fill="none" stroke="#cfffac" d="M1776.33,-342.35C1776.33,-342.35 1328.67,-342.35 1328.67,-342.35 1324.83,-342.35 1321,-338.51 1321,-334.68 1321,-334.68 1321,-327.01 1321,-327.01 1321,-323.18 1324.83,-319.35 1328.67,-319.35 1328.67,-319.35 1776.33,-319.35 1776.33,-319.35 1780.17,-319.35 1784,-323.18 1784,-327.01 1784,-327.01 1784,-334.68 1784,-334.68 1784,-338.51 1780.17,-342.35 1776.33,-342.35"/>
<text text-anchor="middle" x="1552.5" y="-327.15" font-family="Arial" font-size="14.00" fill="#cfffac">component/Widget/WidgetCallCycleSettingModal/LastCallTimeBox.tsx</text>
</g>
<!-- component/Widget/WidgetCallCycleSettingModal.tsx&#45;&gt;component/Widget/WidgetCallCycleSettingModal/LastCallTimeBox.tsx -->
<g id="edge39" class="edge">
<title>component/Widget/WidgetCallCycleSettingModal.tsx&#45;&gt;component/Widget/WidgetCallCycleSettingModal/LastCallTimeBox.tsx</title>
<path fill="none" stroke="#757575" d="M1220.35,-330.85C1249.09,-330.85 1279.34,-330.85 1309.37,-330.85"/>
<polygon fill="#757575" stroke="#757575" points="1309.36,-334.35 1319.36,-330.85 1309.36,-327.35 1309.36,-334.35"/>
</g>
<!-- component/chart/BarChart.tsx -->
<g id="node31" class="node">
<title>component/chart/BarChart.tsx</title>
<path fill="none" stroke="#c6c5fe" d="M1646.33,-87.35C1646.33,-87.35 1458.67,-87.35 1458.67,-87.35 1454.83,-87.35 1451,-83.51 1451,-79.68 1451,-79.68 1451,-72.01 1451,-72.01 1451,-68.18 1454.83,-64.35 1458.67,-64.35 1458.67,-64.35 1646.33,-64.35 1646.33,-64.35 1650.17,-64.35 1654,-68.18 1654,-72.01 1654,-72.01 1654,-79.68 1654,-79.68 1654,-83.51 1650.17,-87.35 1646.33,-87.35"/>
<text text-anchor="middle" x="1552.5" y="-72.15" font-family="Arial" font-size="14.00" fill="#c6c5fe">component/chart/BarChart.tsx</text>
</g>
<!-- component/Widget/WidgetChart.tsx&#45;&gt;component/chart/BarChart.tsx -->
<g id="edge40" class="edge">
<title>component/Widget/WidgetChart.tsx&#45;&gt;component/chart/BarChart.tsx</title>
<path fill="none" stroke="#757575" d="M1116.47,-136.85C1172.05,-127.61 1251.35,-114.79 1321,-104.85 1359.61,-99.34 1401.94,-93.85 1439.68,-89.16"/>
<polygon fill="#757575" stroke="#757575" points="1439.71,-92.68 1449.2,-87.98 1438.85,-85.73 1439.71,-92.68"/>
</g>
<!-- component/chart/InformaticsChart.tsx -->
<g id="node32" class="node">
<title>component/chart/InformaticsChart.tsx</title>
<path fill="none" stroke="#c6c5fe" d="M1670.83,-183.35C1670.83,-183.35 1434.17,-183.35 1434.17,-183.35 1430.33,-183.35 1426.5,-179.51 1426.5,-175.68 1426.5,-175.68 1426.5,-168.01 1426.5,-168.01 1426.5,-164.18 1430.33,-160.35 1434.17,-160.35 1434.17,-160.35 1670.83,-160.35 1670.83,-160.35 1674.67,-160.35 1678.5,-164.18 1678.5,-168.01 1678.5,-168.01 1678.5,-175.68 1678.5,-175.68 1678.5,-179.51 1674.67,-183.35 1670.83,-183.35"/>
<text text-anchor="middle" x="1552.5" y="-168.15" font-family="Arial" font-size="14.00" fill="#c6c5fe">component/chart/InformaticsChart.tsx</text>
</g>
<!-- component/Widget/WidgetChart.tsx&#45;&gt;component/chart/InformaticsChart.tsx -->
<g id="edge41" class="edge">
<title>component/Widget/WidgetChart.tsx&#45;&gt;component/chart/InformaticsChart.tsx</title>
<path fill="none" stroke="#757575" d="M1165.74,-154.31C1240.67,-157.72 1337.3,-162.11 1415.09,-165.65"/>
<polygon fill="#757575" stroke="#757575" points="1414.77,-169.13 1424.92,-166.09 1415.09,-162.14 1414.77,-169.13"/>
</g>
<!-- component/chart/LineChart.tsx -->
<g id="node33" class="node">
<title>component/chart/LineChart.tsx</title>
<path fill="none" stroke="#c6c5fe" d="M1649.33,-137.35C1649.33,-137.35 1455.67,-137.35 1455.67,-137.35 1451.83,-137.35 1448,-133.51 1448,-129.68 1448,-129.68 1448,-122.01 1448,-122.01 1448,-118.18 1451.83,-114.35 1455.67,-114.35 1455.67,-114.35 1649.33,-114.35 1649.33,-114.35 1653.17,-114.35 1657,-118.18 1657,-122.01 1657,-122.01 1657,-129.68 1657,-129.68 1657,-133.51 1653.17,-137.35 1649.33,-137.35"/>
<text text-anchor="middle" x="1552.5" y="-122.15" font-family="Arial" font-size="14.00" fill="#c6c5fe">component/chart/LineChart.tsx</text>
</g>
<!-- component/Widget/WidgetChart.tsx&#45;&gt;component/chart/LineChart.tsx -->
<g id="edge42" class="edge">
<title>component/Widget/WidgetChart.tsx&#45;&gt;component/chart/LineChart.tsx</title>
<path fill="none" stroke="#757575" d="M1165.74,-143.38C1247.67,-139.66 1355.52,-134.75 1436.35,-131.08"/>
<polygon fill="#757575" stroke="#757575" points="1436.22,-134.59 1446.05,-130.64 1435.91,-127.6 1436.22,-134.59"/>
</g>
<!-- component/chart/BarChart.tsx&#45;&gt;common/chart.ts -->
<g id="edge48" class="edge">
<title>component/chart/BarChart.tsx&#45;&gt;common/chart.ts</title>
<path fill="none" stroke="#757575" d="M1654.28,-81.11C1736.13,-85.38 1849.53,-91.3 1922.33,-95.1"/>
<polygon fill="#757575" stroke="#757575" points="1921.98,-98.59 1932.15,-95.62 1922.34,-91.6 1921.98,-98.59"/>
</g>
<!-- component/chart/BarChart.tsx&#45;&gt;types/chart.d.ts -->
<g id="edge50" class="edge">
<title>component/chart/BarChart.tsx&#45;&gt;types/chart.d.ts</title>
<path fill="none" stroke="#757575" d="M1587.81,-63.86C1683.84,-32.33 1961.93,45.05 2170,-36.85 2211.22,-53.07 2246.11,-92.93 2264.81,-117.75"/>
<polygon fill="#757575" stroke="#757575" points="2261.98,-119.81 2270.7,-125.82 2267.64,-115.68 2261.98,-119.81"/>
</g>
<!-- hook/useResize.tsx -->
<g id="node37" class="node">
<title>hook/useResize.tsx</title>
<path fill="none" stroke="#cfffac" d="M2057.33,-69.35C2057.33,-69.35 1932.67,-69.35 1932.67,-69.35 1928.83,-69.35 1925,-65.51 1925,-61.68 1925,-61.68 1925,-54.01 1925,-54.01 1925,-50.18 1928.83,-46.35 1932.67,-46.35 1932.67,-46.35 2057.33,-46.35 2057.33,-46.35 2061.17,-46.35 2065,-50.18 2065,-54.01 2065,-54.01 2065,-61.68 2065,-61.68 2065,-65.51 2061.17,-69.35 2057.33,-69.35"/>
<text text-anchor="middle" x="1995" y="-54.15" font-family="Arial" font-size="14.00" fill="#cfffac">hook/useResize.tsx</text>
</g>
<!-- component/chart/BarChart.tsx&#45;&gt;hook/useResize.tsx -->
<g id="edge49" class="edge">
<title>component/chart/BarChart.tsx&#45;&gt;hook/useResize.tsx</title>
<path fill="none" stroke="#757575" d="M1654.28,-71.73C1732.75,-68.52 1840.23,-64.13 1913.13,-61.15"/>
<polygon fill="#757575" stroke="#757575" points="1913.16,-64.65 1923.01,-60.75 1912.87,-57.66 1913.16,-64.65"/>
</g>
<!-- component/chart/InformaticsChart.tsx&#45;&gt;types/chart.d.ts -->
<g id="edge52" class="edge">
<title>component/chart/InformaticsChart.tsx&#45;&gt;types/chart.d.ts</title>
<path fill="none" stroke="#757575" d="M1678.74,-168.55C1803.35,-164.9 2000,-158.14 2170,-147.85 2183.75,-147.01 2198.45,-145.94 2212.47,-144.82"/>
<polygon fill="#757575" stroke="#757575" points="2212.36,-148.34 2222.04,-144.04 2211.79,-141.36 2212.36,-148.34"/>
</g>
<!-- component/chart/InformaticsChart/InforMaticsBox.tsx -->
<g id="node38" class="node">
<title>component/chart/InformaticsChart/InforMaticsBox.tsx</title>
<path fill="none" stroke="#c6c5fe" d="M2162.33,-228.35C2162.33,-228.35 1827.67,-228.35 1827.67,-228.35 1823.83,-228.35 1820,-224.51 1820,-220.68 1820,-220.68 1820,-213.01 1820,-213.01 1820,-209.18 1823.83,-205.35 1827.67,-205.35 1827.67,-205.35 2162.33,-205.35 2162.33,-205.35 2166.17,-205.35 2170,-209.18 2170,-213.01 2170,-213.01 2170,-220.68 2170,-220.68 2170,-224.51 2166.17,-228.35 2162.33,-228.35"/>
<text text-anchor="middle" x="1995" y="-213.15" font-family="Arial" font-size="14.00" fill="#c6c5fe">component/chart/InformaticsChart/InforMaticsBox.tsx</text>
</g>
<!-- component/chart/InformaticsChart.tsx&#45;&gt;component/chart/InformaticsChart/InforMaticsBox.tsx -->
<g id="edge51" class="edge">
<title>component/chart/InformaticsChart.tsx&#45;&gt;component/chart/InformaticsChart/InforMaticsBox.tsx</title>
<path fill="none" stroke="#757575" d="M1670.68,-183.82C1730.66,-189.94 1803.82,-197.42 1865.36,-203.7"/>
<polygon fill="#757575" stroke="#757575" points="1864.9,-207.18 1875.21,-204.71 1865.61,-200.21 1864.9,-207.18"/>
</g>
<!-- component/chart/LineChart.tsx&#45;&gt;common/chart.ts -->
<g id="edge54" class="edge">
<title>component/chart/LineChart.tsx&#45;&gt;common/chart.ts</title>
<path fill="none" stroke="#757575" d="M1657.33,-119.48C1738.94,-114.48 1850.47,-107.64 1922.38,-103.24"/>
<polygon fill="#757575" stroke="#757575" points="1922.29,-106.75 1932.06,-102.64 1921.86,-99.76 1922.29,-106.75"/>
</g>
<!-- component/chart/LineChart.tsx&#45;&gt;types/chart.d.ts -->
<g id="edge56" class="edge">
<title>component/chart/LineChart.tsx&#45;&gt;types/chart.d.ts</title>
<path fill="none" stroke="#757575" d="M1657.13,-127.7C1808.34,-130.41 2085.23,-135.37 2212.4,-137.64"/>
<polygon fill="#757575" stroke="#757575" points="2212.29,-141.14 2222.35,-137.82 2212.42,-134.14 2212.29,-141.14"/>
</g>
<!-- component/chart/LineChart.tsx&#45;&gt;hook/useResize.tsx -->
<g id="edge55" class="edge">
<title>component/chart/LineChart.tsx&#45;&gt;hook/useResize.tsx</title>
<path fill="none" stroke="#757575" d="M1657.47,-119.74C1697.64,-115.46 1743.57,-108.2 1784,-95.85 1801.11,-90.62 1802.85,-82.95 1820,-77.85 1849.85,-68.97 1883.66,-63.99 1913.49,-61.22"/>
<polygon fill="#757575" stroke="#757575" points="1913.54,-64.73 1923.21,-60.39 1912.95,-57.75 1913.54,-64.73"/>
</g>
<!-- component/Widget/WidgetPropsSettingModal.tsx -->
<g id="node34" class="node">
<title>component/Widget/WidgetPropsSettingModal.tsx</title>
<path fill="none" stroke="#c6c5fe" d="M760.33,-699.35C760.33,-699.35 446.67,-699.35 446.67,-699.35 442.83,-699.35 439,-695.51 439,-691.68 439,-691.68 439,-684.01 439,-684.01 439,-680.18 442.83,-676.35 446.67,-676.35 446.67,-676.35 760.33,-676.35 760.33,-676.35 764.17,-676.35 768,-680.18 768,-684.01 768,-684.01 768,-691.68 768,-691.68 768,-695.51 764.17,-699.35 760.33,-699.35"/>
<text text-anchor="middle" x="603.5" y="-684.15" font-family="Arial" font-size="14.00" fill="#c6c5fe">component/Widget/WidgetPropsSettingModal.tsx</text>
</g>
<!-- component/Widget/WidgetPropsSettingModal.tsx&#45;&gt;common/api.ts -->
<g id="edge43" class="edge">
<title>component/Widget/WidgetPropsSettingModal.tsx&#45;&gt;common/api.ts</title>
<path fill="none" stroke="#757575" d="M616.21,-676.01C645.06,-647.71 723.1,-576.31 804,-546.85 860.26,-526.36 928.7,-522.55 977.99,-523.17"/>
<polygon fill="#757575" stroke="#757575" points="977.87,-526.67 987.94,-523.36 978.01,-519.67 977.87,-526.67"/>
</g>
<!-- component/Widget/WidgetPropsSettingModal.tsx&#45;&gt;store/WidgetProvider.tsx -->
<g id="edge46" class="edge">
<title>component/Widget/WidgetPropsSettingModal.tsx&#45;&gt;store/WidgetProvider.tsx</title>
<path fill="none" stroke="#757575" d="M768.37,-686.98C966.25,-685.94 1292.58,-684.21 1454.36,-683.36"/>
<polygon fill="#757575" stroke="#757575" points="1454.22,-686.86 1464.2,-683.31 1454.18,-679.86 1454.22,-686.86"/>
</g>
<!-- component/Widget/WidgetPropsSettingModal/WidgetPropsButtons.tsx -->
<g id="node35" class="node">
<title>component/Widget/WidgetPropsSettingModal/WidgetPropsButtons.tsx</title>
<path fill="none" stroke="#c6c5fe" d="M1269.33,-659.35C1269.33,-659.35 819.67,-659.35 819.67,-659.35 815.83,-659.35 812,-655.51 812,-651.68 812,-651.68 812,-644.01 812,-644.01 812,-640.18 815.83,-636.35 819.67,-636.35 819.67,-636.35 1269.33,-636.35 1269.33,-636.35 1273.17,-636.35 1277,-640.18 1277,-644.01 1277,-644.01 1277,-651.68 1277,-651.68 1277,-655.51 1273.17,-659.35 1269.33,-659.35"/>
<text text-anchor="middle" x="1044.5" y="-644.15" font-family="Arial" font-size="14.00" fill="#c6c5fe">component/Widget/WidgetPropsSettingModal/WidgetPropsButtons.tsx</text>
</g>
<!-- component/Widget/WidgetPropsSettingModal.tsx&#45;&gt;component/Widget/WidgetPropsSettingModal/WidgetPropsButtons.tsx -->
<g id="edge44" class="edge">
<title>component/Widget/WidgetPropsSettingModal.tsx&#45;&gt;component/Widget/WidgetPropsSettingModal/WidgetPropsButtons.tsx</title>
<path fill="none" stroke="#757575" d="M735.92,-675.87C787.92,-671.13 847.83,-665.68 900.88,-660.84"/>
<polygon fill="#757575" stroke="#757575" points="900.94,-664.35 910.58,-659.96 900.3,-657.38 900.94,-664.35"/>
</g>
<!-- component/Widget/WidgetPropsSettingModal/WidgetPropsList.tsx -->
<g id="node36" class="node">
<title>component/Widget/WidgetPropsSettingModal/WidgetPropsList.tsx</title>
<path fill="none" stroke="#cfffac" d="M1256.83,-739.35C1256.83,-739.35 832.17,-739.35 832.17,-739.35 828.33,-739.35 824.5,-735.51 824.5,-731.68 824.5,-731.68 824.5,-724.01 824.5,-724.01 824.5,-720.18 828.33,-716.35 832.17,-716.35 832.17,-716.35 1256.83,-716.35 1256.83,-716.35 1260.67,-716.35 1264.5,-720.18 1264.5,-724.01 1264.5,-724.01 1264.5,-731.68 1264.5,-731.68 1264.5,-735.51 1260.67,-739.35 1256.83,-739.35"/>
<text text-anchor="middle" x="1044.5" y="-724.15" font-family="Arial" font-size="14.00" fill="#cfffac">component/Widget/WidgetPropsSettingModal/WidgetPropsList.tsx</text>
</g>
<!-- component/Widget/WidgetPropsSettingModal.tsx&#45;&gt;component/Widget/WidgetPropsSettingModal/WidgetPropsList.tsx -->
<g id="edge45" class="edge">
<title>component/Widget/WidgetPropsSettingModal.tsx&#45;&gt;component/Widget/WidgetPropsSettingModal/WidgetPropsList.tsx</title>
<path fill="none" stroke="#757575" d="M735.92,-699.82C787.92,-704.56 847.83,-710.02 900.88,-714.85"/>
<polygon fill="#757575" stroke="#757575" points="900.3,-718.31 910.58,-715.74 900.94,-711.34 900.3,-718.31"/>
</g>
<!-- component/Widget/WidgetPropsSettingModal/WidgetPropsButtons.tsx&#45;&gt;store/WidgetProvider.tsx -->
<g id="edge47" class="edge">
<title>component/Widget/WidgetPropsSettingModal/WidgetPropsButtons.tsx&#45;&gt;store/WidgetProvider.tsx</title>
<path fill="none" stroke="#757575" d="M1218.93,-659.84C1297.63,-665.29 1387.76,-671.52 1454.33,-676.12"/>
<polygon fill="#757575" stroke="#757575" points="1453.91,-679.6 1464.13,-676.8 1454.39,-672.62 1453.91,-679.6"/>
</g>
<!-- component/chart/InformaticsChart/InforMaticsBox.tsx&#45;&gt;types/chart.d.ts -->
<g id="edge53" class="edge">
<title>component/chart/InformaticsChart/InforMaticsBox.tsx&#45;&gt;types/chart.d.ts</title>
<path fill="none" stroke="#757575" d="M2109.4,-204.85C2129.81,-201.3 2150.72,-196.72 2170,-190.85 2198.03,-182.3 2227.95,-167.67 2249.43,-156.1"/>
<polygon fill="#757575" stroke="#757575" points="2250.84,-159.32 2257.92,-151.44 2247.47,-153.19 2250.84,-159.32"/>
</g>
<!-- component/common/DatePicker/ListPicker.tsx&#45;&gt;types/datePicker.d.ts -->
<g id="edge59" class="edge">
<title>component/common/DatePicker/ListPicker.tsx&#45;&gt;types/datePicker.d.ts</title>
<path fill="none" stroke="#757575" d="M2149.37,-1115.67C2164.81,-1116.76 2180.07,-1117.83 2194.4,-1118.84"/>
<polygon fill="#757575" stroke="#757575" points="2193.95,-1122.32 2204.17,-1119.53 2194.44,-1115.34 2193.95,-1122.32"/>
</g>
<!-- page/Dashboard.tsx&#45;&gt;component/Dashboard/DashboardHeader.tsx -->
<g id="edge60" class="edge">
<title>page/Dashboard.tsx&#45;&gt;component/Dashboard/DashboardHeader.tsx</title>
<path fill="none" stroke="#757575" d="M344.12,-779.63C363.23,-797.83 402.01,-833.24 439,-857.85 479.76,-884.96 530.38,-909.74 564.4,-925.25"/>
<polygon fill="#757575" stroke="#757575" points="562.9,-928.41 573.46,-929.33 565.78,-922.03 562.9,-928.41"/>
</g>
<!-- page/Dashboard.tsx&#45;&gt;store/DashboardProvider.tsx -->
<g id="edge63" class="edge">
<title>page/Dashboard.tsx&#45;&gt;store/DashboardProvider.tsx</title>
<path fill="none" stroke="#757575" d="M403.24,-778.48C415.16,-779.88 427.41,-781.09 439,-781.85 814.2,-806.29 939.6,-930.42 1285,-781.85 1306.37,-772.65 1300.05,-753.95 1321,-743.85 1358.12,-725.94 1402.52,-719.17 1442.39,-717.49"/>
<polygon fill="#757575" stroke="#757575" points="1442.38,-721 1452.27,-717.19 1442.17,-714 1442.38,-721"/>
</g>
<!-- page/Dashboard.tsx&#45;&gt;store/WidgetProvider.tsx -->
<g id="edge64" class="edge">
<title>page/Dashboard.tsx&#45;&gt;store/WidgetProvider.tsx</title>
<path fill="none" stroke="#757575" d="M403.47,-769.81C611.49,-775.04 1206.81,-786.44 1285,-747.85 1307.97,-736.51 1298.42,-714.93 1321,-702.85 1361.23,-681.32 1411.15,-674.96 1454.23,-674.54"/>
<polygon fill="#757575" stroke="#757575" points="1454.08,-678.04 1464.09,-674.57 1454.1,-671.04 1454.08,-678.04"/>
</g>
<!-- page/Dashboard.tsx&#45;&gt;component/Widget.tsx -->
<g id="edge61" class="edge">
<title>page/Dashboard.tsx&#45;&gt;component/Widget.tsx</title>
<path fill="none" stroke="#757575" d="M341.95,-756.11C382.21,-708.63 533.38,-530.36 585.05,-469.42"/>
<polygon fill="#757575" stroke="#757575" points="587.68,-471.73 591.48,-461.84 582.35,-467.2 587.68,-471.73"/>
</g>
<!-- page/Dashboard.tsx&#45;&gt;component/Widget/WidgetPropsSettingModal.tsx -->
<g id="edge62" class="edge">
<title>page/Dashboard.tsx&#45;&gt;component/Widget/WidgetPropsSettingModal.tsx</title>
<path fill="none" stroke="#757575" d="M372.5,-755.87C420.14,-741.78 499.32,-718.36 551.21,-703.02"/>
<polygon fill="#757575" stroke="#757575" points="552.12,-706.4 560.72,-700.2 550.14,-699.68 552.12,-706.4"/>
</g>
</g>
</svg>
