<?xml version="1.0" encoding="UTF-8" standalone="no"?>
<!DOCTYPE svg PUBLIC "-//W3C//DTD SVG 1.1//EN"
 "http://www.w3.org/Graphics/SVG/1.1/DTD/svg11.dtd">
<!-- Generated by graphviz version 7.1.0 (20230121.1956)
 -->
<!-- Title: G Pages: 1 -->
<svg width="3414pt" height="1267pt"
 viewBox="0.00 0.00 3414.20 1266.63" xmlns="http://www.w3.org/2000/svg" xmlns:xlink="http://www.w3.org/1999/xlink">
<g id="graph0" class="graph" transform="scale(1 1) rotate(0) translate(21.6 1245.03)">
<title>G</title>
<polygon fill="#111111" stroke="none" points="-21.6,21.6 -21.6,-1245.03 3392.6,-1245.03 3392.6,21.6 -21.6,21.6"/>
<!-- App.tsx -->
<g id="node1" class="node">
<title>App.tsx</title>
<path fill="none" stroke="#c6c5fe" d="M57.33,-683.68C57.33,-683.68 7.67,-683.68 7.67,-683.68 3.83,-683.68 0,-679.84 0,-676.01 0,-676.01 0,-668.34 0,-668.34 0,-664.51 3.83,-660.68 7.67,-660.68 7.67,-660.68 57.33,-660.68 57.33,-660.68 61.17,-660.68 65,-664.51 65,-668.34 65,-668.34 65,-676.01 65,-676.01 65,-679.84 61.17,-683.68 57.33,-683.68"/>
<text text-anchor="middle" x="32.5" y="-668.48" font-family="Arial" font-size="14.00" fill="#c6c5fe">App.tsx</text>
</g>
<!-- router/Router.tsx -->
<g id="node2" class="node">
<title>router/Router.tsx</title>
<path fill="none" stroke="#c6c5fe" d="M215.33,-683.68C215.33,-683.68 108.67,-683.68 108.67,-683.68 104.83,-683.68 101,-679.84 101,-676.01 101,-676.01 101,-668.34 101,-668.34 101,-664.51 104.83,-660.68 108.67,-660.68 108.67,-660.68 215.33,-660.68 215.33,-660.68 219.17,-660.68 223,-664.51 223,-668.34 223,-668.34 223,-676.01 223,-676.01 223,-679.84 219.17,-683.68 215.33,-683.68"/>
<text text-anchor="middle" x="162" y="-668.48" font-family="Arial" font-size="14.00" fill="#c6c5fe">router/Router.tsx</text>
</g>
<!-- App.tsx&#45;&gt;router/Router.tsx -->
<g id="edge1" class="edge">
<title>App.tsx&#45;&gt;router/Router.tsx</title>
<path fill="none" stroke="#757575" d="M65.34,-672.18C72.7,-672.18 80.81,-672.18 89.12,-672.18"/>
<polygon fill="#757575" stroke="#757575" points="88.99,-675.68 98.99,-672.18 88.99,-668.68 88.99,-675.68"/>
</g>
<!-- page/Dashboard.tsx -->
<g id="node47" class="node">
<title>page/Dashboard.tsx</title>
<path fill="none" stroke="#c6c5fe" d="M395.33,-683.68C395.33,-683.68 266.67,-683.68 266.67,-683.68 262.83,-683.68 259,-679.84 259,-676.01 259,-676.01 259,-668.34 259,-668.34 259,-664.51 262.83,-660.68 266.67,-660.68 266.67,-660.68 395.33,-660.68 395.33,-660.68 399.17,-660.68 403,-664.51 403,-668.34 403,-668.34 403,-676.01 403,-676.01 403,-679.84 399.17,-683.68 395.33,-683.68"/>
<text text-anchor="middle" x="331" y="-668.48" font-family="Arial" font-size="14.00" fill="#c6c5fe">page/Dashboard.tsx</text>
</g>
<!-- router/Router.tsx&#45;&gt;page/Dashboard.tsx -->
<g id="edge77" class="edge">
<title>router/Router.tsx&#45;&gt;page/Dashboard.tsx</title>
<path fill="none" stroke="#757575" d="M223.29,-672.18C231.1,-672.18 239.21,-672.18 247.3,-672.18"/>
<polygon fill="#757575" stroke="#757575" points="247.19,-675.68 257.19,-672.18 247.19,-668.68 247.19,-675.68"/>
</g>
<!-- asset/image/pause.png -->
<g id="node3" class="node">
<title>asset/image/pause.png</title>
<path fill="none" stroke="#cfffac" d="M1619.83,-1019.68C1619.83,-1019.68 1471.17,-1019.68 1471.17,-1019.68 1467.33,-1019.68 1463.5,-1015.84 1463.5,-1012.01 1463.5,-1012.01 1463.5,-1004.34 1463.5,-1004.34 1463.5,-1000.51 1467.33,-996.68 1471.17,-996.68 1471.17,-996.68 1619.83,-996.68 1619.83,-996.68 1623.67,-996.68 1627.5,-1000.51 1627.5,-1004.34 1627.5,-1004.34 1627.5,-1012.01 1627.5,-1012.01 1627.5,-1015.84 1623.67,-1019.68 1619.83,-1019.68"/>
<text text-anchor="middle" x="1545.5" y="-1004.48" font-family="Arial" font-size="14.00" fill="#cfffac">asset/image/pause.png</text>
</g>
<!-- asset/image/play.png -->
<g id="node4" class="node">
<title>asset/image/play.png</title>
<path fill="none" stroke="#cfffac" d="M1613.33,-1060.68C1613.33,-1060.68 1477.67,-1060.68 1477.67,-1060.68 1473.83,-1060.68 1470,-1056.84 1470,-1053.01 1470,-1053.01 1470,-1045.34 1470,-1045.34 1470,-1041.51 1473.83,-1037.68 1477.67,-1037.68 1477.67,-1037.68 1613.33,-1037.68 1613.33,-1037.68 1617.17,-1037.68 1621,-1041.51 1621,-1045.34 1621,-1045.34 1621,-1053.01 1621,-1053.01 1621,-1056.84 1617.17,-1060.68 1613.33,-1060.68"/>
<text text-anchor="middle" x="1545.5" y="-1045.48" font-family="Arial" font-size="14.00" fill="#cfffac">asset/image/play.png</text>
</g>
<!-- common/api.ts -->
<g id="node5" class="node">
<title>common/api.ts</title>
<path fill="none" stroke="#c6c5fe" d="M1083.83,-542.68C1083.83,-542.68 989.17,-542.68 989.17,-542.68 985.33,-542.68 981.5,-538.84 981.5,-535.01 981.5,-535.01 981.5,-527.34 981.5,-527.34 981.5,-523.51 985.33,-519.68 989.17,-519.68 989.17,-519.68 1083.83,-519.68 1083.83,-519.68 1087.67,-519.68 1091.5,-523.51 1091.5,-527.34 1091.5,-527.34 1091.5,-535.01 1091.5,-535.01 1091.5,-538.84 1087.67,-542.68 1083.83,-542.68"/>
<text text-anchor="middle" x="1036.5" y="-527.48" font-family="Arial" font-size="14.00" fill="#c6c5fe">common/api.ts</text>
</g>
<!-- types/api.d.ts -->
<g id="node6" class="node">
<title>types/api.d.ts</title>
<path fill="none" stroke="#cfffac" d="M1588.33,-622.68C1588.33,-622.68 1502.67,-622.68 1502.67,-622.68 1498.83,-622.68 1495,-618.84 1495,-615.01 1495,-615.01 1495,-607.34 1495,-607.34 1495,-603.51 1498.83,-599.68 1502.67,-599.68 1502.67,-599.68 1588.33,-599.68 1588.33,-599.68 1592.17,-599.68 1596,-603.51 1596,-607.34 1596,-607.34 1596,-615.01 1596,-615.01 1596,-618.84 1592.17,-622.68 1588.33,-622.68"/>
<text text-anchor="middle" x="1545.5" y="-607.48" font-family="Arial" font-size="14.00" fill="#cfffac">types/api.d.ts</text>
</g>
<!-- common/api.ts&#45;&gt;types/api.d.ts -->
<g id="edge2" class="edge">
<title>common/api.ts&#45;&gt;types/api.d.ts</title>
<path fill="none" stroke="#757575" d="M1091.94,-526.04C1140.52,-523.7 1212.5,-525.84 1269,-551.18 1289.08,-560.18 1285.02,-575.95 1305,-585.18 1361.54,-611.28 1433.34,-615.81 1483.51,-615.04"/>
<polygon fill="#757575" stroke="#757575" points="1483.4,-618.54 1493.31,-614.8 1483.23,-611.54 1483.4,-618.54"/>
</g>
<!-- common/chart.ts -->
<g id="node7" class="node">
<title>common/chart.ts</title>
<path fill="none" stroke="#c6c5fe" d="M2059.33,-263.68C2059.33,-263.68 1952.67,-263.68 1952.67,-263.68 1948.83,-263.68 1945,-259.84 1945,-256.01 1945,-256.01 1945,-248.34 1945,-248.34 1945,-244.51 1948.83,-240.68 1952.67,-240.68 1952.67,-240.68 2059.33,-240.68 2059.33,-240.68 2063.17,-240.68 2067,-244.51 2067,-248.34 2067,-248.34 2067,-256.01 2067,-256.01 2067,-259.84 2063.17,-263.68 2059.33,-263.68"/>
<text text-anchor="middle" x="2006" y="-248.48" font-family="Arial" font-size="14.00" fill="#c6c5fe">common/chart.ts</text>
</g>
<!-- types/chart.d.ts -->
<g id="node8" class="node">
<title>types/chart.d.ts</title>
<path fill="none" stroke="#cfffac" d="M2446.33,-185.68C2446.33,-185.68 2348.67,-185.68 2348.67,-185.68 2344.83,-185.68 2341,-181.84 2341,-178.01 2341,-178.01 2341,-170.34 2341,-170.34 2341,-166.51 2344.83,-162.68 2348.67,-162.68 2348.67,-162.68 2446.33,-162.68 2446.33,-162.68 2450.17,-162.68 2454,-166.51 2454,-170.34 2454,-170.34 2454,-178.01 2454,-178.01 2454,-181.84 2450.17,-185.68 2446.33,-185.68"/>
<text text-anchor="middle" x="2397.5" y="-170.48" font-family="Arial" font-size="14.00" fill="#cfffac">types/chart.d.ts</text>
</g>
<!-- common/chart.ts&#45;&gt;types/chart.d.ts -->
<g id="edge3" class="edge">
<title>common/chart.ts&#45;&gt;types/chart.d.ts</title>
<path fill="none" stroke="#757575" d="M2067.44,-245.22C2103.23,-240.69 2149.38,-234.15 2190,-226.18 2242.67,-215.83 2302.02,-200.5 2343.53,-189.16"/>
<polygon fill="#757575" stroke="#757575" points="2344.3,-192.57 2353.02,-186.55 2342.45,-185.83 2344.3,-192.57"/>
</g>
<!-- common/date.ts -->
<g id="node9" class="node">
<title>common/date.ts</title>
<path fill="none" stroke="#cfffac" d="M2449.33,-624.68C2449.33,-624.68 2345.67,-624.68 2345.67,-624.68 2341.83,-624.68 2338,-620.84 2338,-617.01 2338,-617.01 2338,-609.34 2338,-609.34 2338,-605.51 2341.83,-601.68 2345.67,-601.68 2345.67,-601.68 2449.33,-601.68 2449.33,-601.68 2453.17,-601.68 2457,-605.51 2457,-609.34 2457,-609.34 2457,-617.01 2457,-617.01 2457,-620.84 2453.17,-624.68 2449.33,-624.68"/>
<text text-anchor="middle" x="2397.5" y="-609.48" font-family="Arial" font-size="14.00" fill="#cfffac">common/date.ts</text>
</g>
<!-- common/widget.ts -->
<g id="node10" class="node">
<title>common/widget.ts</title>
<path fill="none" stroke="#cfffac" d="M1603.83,-384.68C1603.83,-384.68 1487.17,-384.68 1487.17,-384.68 1483.33,-384.68 1479.5,-380.84 1479.5,-377.01 1479.5,-377.01 1479.5,-369.34 1479.5,-369.34 1479.5,-365.51 1483.33,-361.68 1487.17,-361.68 1487.17,-361.68 1603.83,-361.68 1603.83,-361.68 1607.67,-361.68 1611.5,-365.51 1611.5,-369.34 1611.5,-369.34 1611.5,-377.01 1611.5,-377.01 1611.5,-380.84 1607.67,-384.68 1603.83,-384.68"/>
<text text-anchor="middle" x="1545.5" y="-369.48" font-family="Arial" font-size="14.00" fill="#cfffac">common/widget.ts</text>
</g>
<!-- component/Dashboard/CommonStyle.ts -->
<g id="node11" class="node">
<title>component/Dashboard/CommonStyle.ts</title>
<path fill="none" stroke="#cfffac" d="M3363.33,-1119.68C3363.33,-1119.68 3108.67,-1119.68 3108.67,-1119.68 3104.83,-1119.68 3101,-1115.84 3101,-1112.01 3101,-1112.01 3101,-1104.34 3101,-1104.34 3101,-1100.51 3104.83,-1096.68 3108.67,-1096.68 3108.67,-1096.68 3363.33,-1096.68 3363.33,-1096.68 3367.17,-1096.68 3371,-1100.51 3371,-1104.34 3371,-1104.34 3371,-1112.01 3371,-1112.01 3371,-1115.84 3367.17,-1119.68 3363.33,-1119.68"/>
<text text-anchor="middle" x="3236" y="-1104.48" font-family="Arial" font-size="14.00" fill="#cfffac">component/Dashboard/CommonStyle.ts</text>
</g>
<!-- component/Dashboard/DashboardHeader.tsx -->
<g id="node12" class="node">
<title>component/Dashboard/DashboardHeader.tsx</title>
<path fill="none" stroke="#c6c5fe" d="M747.33,-897.68C747.33,-897.68 459.67,-897.68 459.67,-897.68 455.83,-897.68 452,-893.84 452,-890.01 452,-890.01 452,-882.34 452,-882.34 452,-878.51 455.83,-874.68 459.67,-874.68 459.67,-874.68 747.33,-874.68 747.33,-874.68 751.17,-874.68 755,-878.51 755,-882.34 755,-882.34 755,-890.01 755,-890.01 755,-893.84 751.17,-897.68 747.33,-897.68"/>
<text text-anchor="middle" x="603.5" y="-882.48" font-family="Arial" font-size="14.00" fill="#c6c5fe">component/Dashboard/DashboardHeader.tsx</text>
</g>
<!-- component/Dashboard/DashboardHeader/PlayIcon.tsx -->
<g id="node13" class="node">
<title>component/Dashboard/DashboardHeader/PlayIcon.tsx</title>
<path fill="none" stroke="#c6c5fe" d="M1209.83,-1019.68C1209.83,-1019.68 863.17,-1019.68 863.17,-1019.68 859.33,-1019.68 855.5,-1015.84 855.5,-1012.01 855.5,-1012.01 855.5,-1004.34 855.5,-1004.34 855.5,-1000.51 859.33,-996.68 863.17,-996.68 863.17,-996.68 1209.83,-996.68 1209.83,-996.68 1213.67,-996.68 1217.5,-1000.51 1217.5,-1004.34 1217.5,-1004.34 1217.5,-1012.01 1217.5,-1012.01 1217.5,-1015.84 1213.67,-1019.68 1209.83,-1019.68"/>
<text text-anchor="middle" x="1036.5" y="-1004.48" font-family="Arial" font-size="14.00" fill="#c6c5fe">component/Dashboard/DashboardHeader/PlayIcon.tsx</text>
</g>
<!-- component/Dashboard/DashboardHeader.tsx&#45;&gt;component/Dashboard/DashboardHeader/PlayIcon.tsx -->
<g id="edge4" class="edge">
<title>component/Dashboard/DashboardHeader.tsx&#45;&gt;component/Dashboard/DashboardHeader/PlayIcon.tsx</title>
<path fill="none" stroke="#757575" d="M643.02,-898.14C683.12,-910.51 747.81,-930.21 804,-946.18 863.28,-963.03 931.47,-981.13 978.4,-993.4"/>
<polygon fill="#757575" stroke="#757575" points="977.24,-996.72 987.8,-995.86 979.01,-989.94 977.24,-996.72"/>
</g>
<!-- component/Dashboard/DashboardHeader/SelectRealTimeRangeArea.tsx -->
<g id="node14" class="node">
<title>component/Dashboard/DashboardHeader/SelectRealTimeRangeArea.tsx</title>
<path fill="none" stroke="#c6c5fe" d="M1778.33,-1101.68C1778.33,-1101.68 1312.67,-1101.68 1312.67,-1101.68 1308.83,-1101.68 1305,-1097.84 1305,-1094.01 1305,-1094.01 1305,-1086.34 1305,-1086.34 1305,-1082.51 1308.83,-1078.68 1312.67,-1078.68 1312.67,-1078.68 1778.33,-1078.68 1778.33,-1078.68 1782.17,-1078.68 1786,-1082.51 1786,-1086.34 1786,-1086.34 1786,-1094.01 1786,-1094.01 1786,-1097.84 1782.17,-1101.68 1778.33,-1101.68"/>
<text text-anchor="middle" x="1545.5" y="-1086.48" font-family="Arial" font-size="14.00" fill="#c6c5fe">component/Dashboard/DashboardHeader/SelectRealTimeRangeArea.tsx</text>
</g>
<!-- component/Dashboard/DashboardHeader.tsx&#45;&gt;component/Dashboard/DashboardHeader/SelectRealTimeRangeArea.tsx -->
<g id="edge5" class="edge">
<title>component/Dashboard/DashboardHeader.tsx&#45;&gt;component/Dashboard/DashboardHeader/SelectRealTimeRangeArea.tsx</title>
<path fill="none" stroke="#757575" d="M615.75,-897.77C644.17,-926.19 722.4,-999.2 804,-1029.18 973.36,-1091.39 1178.72,-1103.83 1330.17,-1102.32"/>
<polygon fill="#757575" stroke="#757575" points="1329.97,-1105.82 1339.93,-1102.19 1329.88,-1098.82 1329.97,-1105.82"/>
</g>
<!-- component/Dashboard/DashboardHeader/TimeBlock.tsx -->
<g id="node15" class="node">
<title>component/Dashboard/DashboardHeader/TimeBlock.tsx</title>
<path fill="none" stroke="#c6c5fe" d="M1215.83,-937.68C1215.83,-937.68 857.17,-937.68 857.17,-937.68 853.33,-937.68 849.5,-933.84 849.5,-930.01 849.5,-930.01 849.5,-922.34 849.5,-922.34 849.5,-918.51 853.33,-914.68 857.17,-914.68 857.17,-914.68 1215.83,-914.68 1215.83,-914.68 1219.67,-914.68 1223.5,-918.51 1223.5,-922.34 1223.5,-922.34 1223.5,-930.01 1223.5,-930.01 1223.5,-933.84 1219.67,-937.68 1215.83,-937.68"/>
<text text-anchor="middle" x="1036.5" y="-922.48" font-family="Arial" font-size="14.00" fill="#c6c5fe">component/Dashboard/DashboardHeader/TimeBlock.tsx</text>
</g>
<!-- component/Dashboard/DashboardHeader.tsx&#45;&gt;component/Dashboard/DashboardHeader/TimeBlock.tsx -->
<g id="edge6" class="edge">
<title>component/Dashboard/DashboardHeader.tsx&#45;&gt;component/Dashboard/DashboardHeader/TimeBlock.tsx</title>
<path fill="none" stroke="#757575" d="M733.52,-898.15C784.47,-902.88 843.15,-908.33 895.15,-913.15"/>
<polygon fill="#757575" stroke="#757575" points="894.69,-916.62 904.98,-914.06 895.34,-909.65 894.69,-916.62"/>
</g>
<!-- store/DashboardProvider.tsx -->
<g id="node16" class="node">
<title>store/DashboardProvider.tsx</title>
<path fill="none" stroke="#c6c5fe" d="M2096.83,-819.68C2096.83,-819.68 1915.17,-819.68 1915.17,-819.68 1911.33,-819.68 1907.5,-815.84 1907.5,-812.01 1907.5,-812.01 1907.5,-804.34 1907.5,-804.34 1907.5,-800.51 1911.33,-796.68 1915.17,-796.68 1915.17,-796.68 2096.83,-796.68 2096.83,-796.68 2100.67,-796.68 2104.5,-800.51 2104.5,-804.34 2104.5,-804.34 2104.5,-812.01 2104.5,-812.01 2104.5,-815.84 2100.67,-819.68 2096.83,-819.68"/>
<text text-anchor="middle" x="2006" y="-804.48" font-family="Arial" font-size="14.00" fill="#c6c5fe">store/DashboardProvider.tsx</text>
</g>
<!-- component/Dashboard/DashboardHeader.tsx&#45;&gt;store/DashboardProvider.tsx -->
<g id="edge7" class="edge">
<title>component/Dashboard/DashboardHeader.tsx&#45;&gt;store/DashboardProvider.tsx</title>
<path fill="none" stroke="#757575" d="M755.44,-889.15C1052.68,-894.13 1693.17,-900.18 1786,-862.18 1806.37,-853.84 1802.02,-837.41 1822,-828.18 1844.87,-817.61 1871.01,-811.65 1896.24,-808.47"/>
<polygon fill="#757575" stroke="#757575" points="1896.3,-811.99 1905.86,-807.4 1895.53,-805.03 1896.3,-811.99"/>
</g>
<!-- store/WidgetProvider.tsx -->
<g id="node17" class="node">
<title>store/WidgetProvider.tsx</title>
<path fill="none" stroke="#c6c5fe" d="M1624.33,-703.68C1624.33,-703.68 1466.67,-703.68 1466.67,-703.68 1462.83,-703.68 1459,-699.84 1459,-696.01 1459,-696.01 1459,-688.34 1459,-688.34 1459,-684.51 1462.83,-680.68 1466.67,-680.68 1466.67,-680.68 1624.33,-680.68 1624.33,-680.68 1628.17,-680.68 1632,-684.51 1632,-688.34 1632,-688.34 1632,-696.01 1632,-696.01 1632,-699.84 1628.17,-703.68 1624.33,-703.68"/>
<text text-anchor="middle" x="1545.5" y="-688.48" font-family="Arial" font-size="14.00" fill="#c6c5fe">store/WidgetProvider.tsx</text>
</g>
<!-- component/Dashboard/DashboardHeader.tsx&#45;&gt;store/WidgetProvider.tsx -->
<g id="edge8" class="edge">
<title>component/Dashboard/DashboardHeader.tsx&#45;&gt;store/WidgetProvider.tsx</title>
<path fill="none" stroke="#757575" d="M646.3,-874.24C686.5,-863 749.1,-846.15 804,-834.18 1009.03,-789.45 1063.1,-792.74 1269,-752.18 1342.13,-737.77 1425.72,-719.28 1481.47,-706.65"/>
<polygon fill="#757575" stroke="#757575" points="1482.13,-710.09 1491.11,-704.47 1480.58,-703.27 1482.13,-710.09"/>
</g>
<!-- types/widget.d.ts -->
<g id="node18" class="node">
<title>types/widget.d.ts</title>
<path fill="none" stroke="#cfffac" d="M2888.83,-779.68C2888.83,-779.68 2781.17,-779.68 2781.17,-779.68 2777.33,-779.68 2773.5,-775.84 2773.5,-772.01 2773.5,-772.01 2773.5,-764.34 2773.5,-764.34 2773.5,-760.51 2777.33,-756.68 2781.17,-756.68 2781.17,-756.68 2888.83,-756.68 2888.83,-756.68 2892.67,-756.68 2896.5,-760.51 2896.5,-764.34 2896.5,-764.34 2896.5,-772.01 2896.5,-772.01 2896.5,-775.84 2892.67,-779.68 2888.83,-779.68"/>
<text text-anchor="middle" x="2835" y="-764.48" font-family="Arial" font-size="14.00" fill="#cfffac">types/widget.d.ts</text>
</g>
<!-- component/Dashboard/DashboardHeader.tsx&#45;&gt;types/widget.d.ts -->
<g id="edge9" class="edge">
<title>component/Dashboard/DashboardHeader.tsx&#45;&gt;types/widget.d.ts</title>
<path fill="none" stroke="#757575" d="M721.87,-874.18C938.84,-852.56 1417.45,-807.4 1822,-787.18 2174,-769.58 2595.6,-767.89 2761.7,-767.99"/>
<polygon fill="#757575" stroke="#757575" points="2761.7,-771.49 2771.7,-768 2761.7,-764.49 2761.7,-771.49"/>
</g>
<!-- component/Dashboard/DashboardHeader/PlayIcon.tsx&#45;&gt;asset/image/pause.png -->
<g id="edge19" class="edge">
<title>component/Dashboard/DashboardHeader/PlayIcon.tsx&#45;&gt;asset/image/pause.png</title>
<path fill="none" stroke="#757575" d="M1217.68,-1008.18C1296.75,-1008.18 1386.24,-1008.18 1451.56,-1008.18"/>
<polygon fill="#757575" stroke="#757575" points="1451.54,-1011.68 1461.54,-1008.18 1451.54,-1004.68 1451.54,-1011.68"/>
</g>
<!-- component/Dashboard/DashboardHeader/PlayIcon.tsx&#45;&gt;asset/image/play.png -->
<g id="edge20" class="edge">
<title>component/Dashboard/DashboardHeader/PlayIcon.tsx&#45;&gt;asset/image/play.png</title>
<path fill="none" stroke="#757575" d="M1185.85,-1020.17C1274.52,-1027.34 1384.05,-1036.2 1458.58,-1042.23"/>
<polygon fill="#757575" stroke="#757575" points="1458.02,-1045.7 1468.27,-1043.01 1458.58,-1038.72 1458.02,-1045.7"/>
</g>
<!-- component/Dashboard/DashboardHeader/SelectRealTimeRangeArea.tsx&#45;&gt;component/Dashboard/CommonStyle.ts -->
<g id="edge22" class="edge">
<title>component/Dashboard/DashboardHeader/SelectRealTimeRangeArea.tsx&#45;&gt;component/Dashboard/CommonStyle.ts</title>
<path fill="none" stroke="#757575" d="M1692.96,-1102.16C1734.62,-1105.06 1780.07,-1107.73 1822,-1109.18 2284.62,-1125.11 2832.94,-1117.01 3089.28,-1111.65"/>
<polygon fill="#757575" stroke="#757575" points="3089.08,-1115.16 3099,-1111.45 3088.93,-1108.16 3089.08,-1115.16"/>
</g>
<!-- component/Dashboard/DashboardHeader/SelectRealTimeRangeArea.tsx&#45;&gt;store/DashboardProvider.tsx -->
<g id="edge27" class="edge">
<title>component/Dashboard/DashboardHeader/SelectRealTimeRangeArea.tsx&#45;&gt;store/DashboardProvider.tsx</title>
<path fill="none" stroke="#757575" d="M1596.24,-1102.15C1650.29,-1111.93 1735.63,-1117.41 1786,-1070.18 1865.32,-995.8 1743.63,-903.56 1822,-828.18 1841.74,-809.19 1868.77,-800.67 1895.99,-797.75"/>
<polygon fill="#757575" stroke="#757575" points="1896.05,-801.25 1905.73,-796.96 1895.48,-794.28 1896.05,-801.25"/>
</g>
<!-- hook/useBoolean.tsx -->
<g id="node24" class="node">
<title>hook/useBoolean.tsx</title>
<path fill="none" stroke="#cfffac" d="M2072.83,-721.68C2072.83,-721.68 1939.17,-721.68 1939.17,-721.68 1935.33,-721.68 1931.5,-717.84 1931.5,-714.01 1931.5,-714.01 1931.5,-706.34 1931.5,-706.34 1931.5,-702.51 1935.33,-698.68 1939.17,-698.68 1939.17,-698.68 2072.83,-698.68 2072.83,-698.68 2076.67,-698.68 2080.5,-702.51 2080.5,-706.34 2080.5,-706.34 2080.5,-714.01 2080.5,-714.01 2080.5,-717.84 2076.67,-721.68 2072.83,-721.68"/>
<text text-anchor="middle" x="2006" y="-706.48" font-family="Arial" font-size="14.00" fill="#cfffac">hook/useBoolean.tsx</text>
</g>
<!-- component/Dashboard/DashboardHeader/SelectRealTimeRangeArea.tsx&#45;&gt;hook/useBoolean.tsx -->
<g id="edge25" class="edge">
<title>component/Dashboard/DashboardHeader/SelectRealTimeRangeArea.tsx&#45;&gt;hook/useBoolean.tsx</title>
<path fill="none" stroke="#757575" d="M1595.45,-1102.17C1649.61,-1112.24 1735.83,-1118.23 1786,-1070.18 1877.57,-982.48 1745.32,-888.15 1822,-787.18 1846.48,-754.95 1886.99,-736.09 1923.69,-725.11"/>
<polygon fill="#757575" stroke="#757575" points="1924.3,-728.57 1932.97,-722.49 1922.4,-721.84 1924.3,-728.57"/>
</g>
<!-- hook/useOutsideClick.tsx -->
<g id="node25" class="node">
<title>hook/useOutsideClick.tsx</title>
<path fill="none" stroke="#cfffac" d="M2086.33,-1099.68C2086.33,-1099.68 1925.67,-1099.68 1925.67,-1099.68 1921.83,-1099.68 1918,-1095.84 1918,-1092.01 1918,-1092.01 1918,-1084.34 1918,-1084.34 1918,-1080.51 1921.83,-1076.68 1925.67,-1076.68 1925.67,-1076.68 2086.33,-1076.68 2086.33,-1076.68 2090.17,-1076.68 2094,-1080.51 2094,-1084.34 2094,-1084.34 2094,-1092.01 2094,-1092.01 2094,-1095.84 2090.17,-1099.68 2086.33,-1099.68"/>
<text text-anchor="middle" x="2006" y="-1084.48" font-family="Arial" font-size="14.00" fill="#cfffac">hook/useOutsideClick.tsx</text>
</g>
<!-- component/Dashboard/DashboardHeader/SelectRealTimeRangeArea.tsx&#45;&gt;hook/useOutsideClick.tsx -->
<g id="edge26" class="edge">
<title>component/Dashboard/DashboardHeader/SelectRealTimeRangeArea.tsx&#45;&gt;hook/useOutsideClick.tsx</title>
<path fill="none" stroke="#757575" d="M1786.49,-1089.13C1828.82,-1088.95 1870.66,-1088.76 1906.22,-1088.61"/>
<polygon fill="#757575" stroke="#757575" points="1906.04,-1092.11 1916.02,-1088.57 1906.01,-1085.11 1906.04,-1092.11"/>
</g>
<!-- component/Dashboard/DashboardHeader/RealTime.tsx -->
<g id="node26" class="node">
<title>component/Dashboard/DashboardHeader/RealTime.tsx</title>
<path fill="none" stroke="#cfffac" d="M2182.33,-1179.68C2182.33,-1179.68 1829.67,-1179.68 1829.67,-1179.68 1825.83,-1179.68 1822,-1175.84 1822,-1172.01 1822,-1172.01 1822,-1164.34 1822,-1164.34 1822,-1160.51 1825.83,-1156.68 1829.67,-1156.68 1829.67,-1156.68 2182.33,-1156.68 2182.33,-1156.68 2186.17,-1156.68 2190,-1160.51 2190,-1164.34 2190,-1164.34 2190,-1172.01 2190,-1172.01 2190,-1175.84 2186.17,-1179.68 2182.33,-1179.68"/>
<text text-anchor="middle" x="2006" y="-1164.48" font-family="Arial" font-size="14.00" fill="#cfffac">component/Dashboard/DashboardHeader/RealTime.tsx</text>
</g>
<!-- component/Dashboard/DashboardHeader/SelectRealTimeRangeArea.tsx&#45;&gt;component/Dashboard/DashboardHeader/RealTime.tsx -->
<g id="edge23" class="edge">
<title>component/Dashboard/DashboardHeader/SelectRealTimeRangeArea.tsx&#45;&gt;component/Dashboard/DashboardHeader/RealTime.tsx</title>
<path fill="none" stroke="#757575" d="M1605.75,-1102.17C1661.44,-1113.25 1747.2,-1129.81 1822,-1142.18 1848.46,-1146.55 1877.14,-1150.84 1903.78,-1154.63"/>
<polygon fill="#757575" stroke="#757575" points="1903.16,-1158.08 1913.56,-1156.02 1904.14,-1151.15 1903.16,-1158.08"/>
</g>
<!-- component/Dashboard/DashboardHeader/SelectRealTimeListItem.tsx -->
<g id="node27" class="node">
<title>component/Dashboard/DashboardHeader/SelectRealTimeListItem.tsx</title>
<path fill="none" stroke="#c6c5fe" d="M3057.33,-1199.68C3057.33,-1199.68 2612.67,-1199.68 2612.67,-1199.68 2608.83,-1199.68 2605,-1195.84 2605,-1192.01 2605,-1192.01 2605,-1184.34 2605,-1184.34 2605,-1180.51 2608.83,-1176.68 2612.67,-1176.68 2612.67,-1176.68 3057.33,-1176.68 3057.33,-1176.68 3061.17,-1176.68 3065,-1180.51 3065,-1184.34 3065,-1184.34 3065,-1192.01 3065,-1192.01 3065,-1195.84 3061.17,-1199.68 3057.33,-1199.68"/>
<text text-anchor="middle" x="2835" y="-1184.48" font-family="Arial" font-size="14.00" fill="#c6c5fe">component/Dashboard/DashboardHeader/SelectRealTimeListItem.tsx</text>
</g>
<!-- component/Dashboard/DashboardHeader/SelectRealTimeRangeArea.tsx&#45;&gt;component/Dashboard/DashboardHeader/SelectRealTimeListItem.tsx -->
<g id="edge24" class="edge">
<title>component/Dashboard/DashboardHeader/SelectRealTimeRangeArea.tsx&#45;&gt;component/Dashboard/DashboardHeader/SelectRealTimeListItem.tsx</title>
<path fill="none" stroke="#757575" d="M1570.79,-1102.15C1617.85,-1124.62 1725.36,-1172.34 1822,-1189.18 2141.95,-1244.92 2527.49,-1219.64 2717.08,-1201.28"/>
<polygon fill="#757575" stroke="#757575" points="2717.33,-1204.78 2726.94,-1200.32 2716.65,-1197.81 2717.33,-1204.78"/>
</g>
<!-- component/Dashboard/DashboardHeader/CurrentTime.tsx -->
<g id="node19" class="node">
<title>component/Dashboard/DashboardHeader/CurrentTime.tsx</title>
<path fill="none" stroke="#c6c5fe" d="M1730.83,-937.68C1730.83,-937.68 1360.17,-937.68 1360.17,-937.68 1356.33,-937.68 1352.5,-933.84 1352.5,-930.01 1352.5,-930.01 1352.5,-922.34 1352.5,-922.34 1352.5,-918.51 1356.33,-914.68 1360.17,-914.68 1360.17,-914.68 1730.83,-914.68 1730.83,-914.68 1734.67,-914.68 1738.5,-918.51 1738.5,-922.34 1738.5,-922.34 1738.5,-930.01 1738.5,-930.01 1738.5,-933.84 1734.67,-937.68 1730.83,-937.68"/>
<text text-anchor="middle" x="1545.5" y="-922.48" font-family="Arial" font-size="14.00" fill="#c6c5fe">component/Dashboard/DashboardHeader/CurrentTime.tsx</text>
</g>
<!-- component/Dashboard/DashboardHeader/TimeBlock.tsx&#45;&gt;component/Dashboard/DashboardHeader/CurrentTime.tsx -->
<g id="edge28" class="edge">
<title>component/Dashboard/DashboardHeader/TimeBlock.tsx&#45;&gt;component/Dashboard/DashboardHeader/CurrentTime.tsx</title>
<path fill="none" stroke="#757575" d="M1223.77,-926.18C1261.82,-926.18 1302.05,-926.18 1340.68,-926.18"/>
<polygon fill="#757575" stroke="#757575" points="1340.55,-929.68 1350.55,-926.18 1340.55,-922.68 1340.55,-929.68"/>
</g>
<!-- component/Dashboard/DashboardHeader/DatePickerArea.tsx -->
<g id="node22" class="node">
<title>component/Dashboard/DashboardHeader/DatePickerArea.tsx</title>
<path fill="none" stroke="#c6c5fe" d="M1741.33,-978.68C1741.33,-978.68 1349.67,-978.68 1349.67,-978.68 1345.83,-978.68 1342,-974.84 1342,-971.01 1342,-971.01 1342,-963.34 1342,-963.34 1342,-959.51 1345.83,-955.68 1349.67,-955.68 1349.67,-955.68 1741.33,-955.68 1741.33,-955.68 1745.17,-955.68 1749,-959.51 1749,-963.34 1749,-963.34 1749,-971.01 1749,-971.01 1749,-974.84 1745.17,-978.68 1741.33,-978.68"/>
<text text-anchor="middle" x="1545.5" y="-963.48" font-family="Arial" font-size="14.00" fill="#c6c5fe">component/Dashboard/DashboardHeader/DatePickerArea.tsx</text>
</g>
<!-- component/Dashboard/DashboardHeader/TimeBlock.tsx&#45;&gt;component/Dashboard/DashboardHeader/DatePickerArea.tsx -->
<g id="edge29" class="edge">
<title>component/Dashboard/DashboardHeader/TimeBlock.tsx&#45;&gt;component/Dashboard/DashboardHeader/DatePickerArea.tsx</title>
<path fill="none" stroke="#757575" d="M1185.85,-938.17C1248.43,-943.23 1321.4,-949.14 1385.12,-954.29"/>
<polygon fill="#757575" stroke="#757575" points="1384.74,-957.77 1394.99,-955.09 1385.3,-950.79 1384.74,-957.77"/>
</g>
<!-- store/DashboardProvider.tsx&#45;&gt;common/date.ts -->
<g id="edge78" class="edge">
<title>store/DashboardProvider.tsx&#45;&gt;common/date.ts</title>
<path fill="none" stroke="#757575" d="M2037.91,-796.24C2074.69,-781.75 2137.68,-756.05 2190,-730.18 2254.93,-698.07 2328.06,-654.89 2367.51,-630.98"/>
<polygon fill="#757575" stroke="#757575" points="2369.23,-634.03 2375.96,-625.84 2365.59,-628.05 2369.23,-634.03"/>
</g>
<!-- store/WidgetProvider.tsx&#45;&gt;types/widget.d.ts -->
<g id="edge80" class="edge">
<title>store/WidgetProvider.tsx&#45;&gt;types/widget.d.ts</title>
<path fill="none" stroke="#757575" d="M1606.95,-680.21C1797.99,-643.34 2386.82,-537.19 2569,-592.18 2672.44,-623.4 2772.55,-709.69 2814.01,-748.65"/>
<polygon fill="#757575" stroke="#757575" points="2811.41,-751.01 2821.07,-755.37 2816.24,-745.94 2811.41,-751.01"/>
</g>
<!-- store/WidgetProvider.tsx&#45;&gt;hook/useBoolean.tsx -->
<g id="edge79" class="edge">
<title>store/WidgetProvider.tsx&#45;&gt;hook/useBoolean.tsx</title>
<path fill="none" stroke="#757575" d="M1632.47,-695.55C1714.69,-698.78 1837.95,-703.62 1919.89,-706.84"/>
<polygon fill="#757575" stroke="#757575" points="1919.52,-710.32 1929.65,-707.22 1919.8,-703.33 1919.52,-710.32"/>
</g>
<!-- hook/useCurrentTime.tsx -->
<g id="node20" class="node">
<title>hook/useCurrentTime.tsx</title>
<path fill="none" stroke="#cfffac" d="M2085.83,-860.68C2085.83,-860.68 1926.17,-860.68 1926.17,-860.68 1922.33,-860.68 1918.5,-856.84 1918.5,-853.01 1918.5,-853.01 1918.5,-845.34 1918.5,-845.34 1918.5,-841.51 1922.33,-837.68 1926.17,-837.68 1926.17,-837.68 2085.83,-837.68 2085.83,-837.68 2089.67,-837.68 2093.5,-841.51 2093.5,-845.34 2093.5,-845.34 2093.5,-853.01 2093.5,-853.01 2093.5,-856.84 2089.67,-860.68 2085.83,-860.68"/>
<text text-anchor="middle" x="2006" y="-845.48" font-family="Arial" font-size="14.00" fill="#cfffac">hook/useCurrentTime.tsx</text>
</g>
<!-- component/Dashboard/DashboardHeader/CurrentTime.tsx&#45;&gt;hook/useCurrentTime.tsx -->
<g id="edge10" class="edge">
<title>component/Dashboard/DashboardHeader/CurrentTime.tsx&#45;&gt;hook/useCurrentTime.tsx</title>
<path fill="none" stroke="#757575" d="M1738.77,-915.8C1755.08,-911.79 1771.04,-906.67 1786,-900.18 1805.37,-891.77 1802.63,-877.59 1822,-869.18 1848.27,-857.77 1878.56,-851.89 1906.86,-849.08"/>
<polygon fill="#757575" stroke="#757575" points="1906.83,-852.59 1916.49,-848.24 1906.23,-845.62 1906.83,-852.59"/>
</g>
<!-- component/Dashboard/DashboardHeader/DateBox.tsx -->
<g id="node21" class="node">
<title>component/Dashboard/DashboardHeader/DateBox.tsx</title>
<path fill="none" stroke="#cfffac" d="M2179.33,-901.68C2179.33,-901.68 1832.67,-901.68 1832.67,-901.68 1828.83,-901.68 1825,-897.84 1825,-894.01 1825,-894.01 1825,-886.34 1825,-886.34 1825,-882.51 1828.83,-878.68 1832.67,-878.68 1832.67,-878.68 2179.33,-878.68 2179.33,-878.68 2183.17,-878.68 2187,-882.51 2187,-886.34 2187,-886.34 2187,-894.01 2187,-894.01 2187,-897.84 2183.17,-901.68 2179.33,-901.68"/>
<text text-anchor="middle" x="2006" y="-886.48" font-family="Arial" font-size="14.00" fill="#cfffac">component/Dashboard/DashboardHeader/DateBox.tsx</text>
</g>
<!-- component/Dashboard/DashboardHeader/DatePickerArea.tsx&#45;&gt;common/date.ts -->
<g id="edge11" class="edge">
<title>component/Dashboard/DashboardHeader/DatePickerArea.tsx&#45;&gt;common/date.ts</title>
<path fill="none" stroke="#757575" d="M1749.14,-957.82C1923.34,-948.37 2152.32,-932.05 2190,-910.18 2301.55,-845.41 2367.03,-693.39 2388.56,-635.82"/>
<polygon fill="#757575" stroke="#757575" points="2391.84,-637.05 2391.97,-626.45 2385.26,-634.65 2391.84,-637.05"/>
</g>
<!-- component/Dashboard/DashboardHeader/DatePickerArea.tsx&#45;&gt;component/Dashboard/CommonStyle.ts -->
<g id="edge12" class="edge">
<title>component/Dashboard/DashboardHeader/DatePickerArea.tsx&#45;&gt;component/Dashboard/CommonStyle.ts</title>
<path fill="none" stroke="#757575" d="M1749.26,-973.69C1762,-977.52 1774.36,-982.28 1786,-988.18 1807.63,-999.14 1800.43,-1018.1 1822,-1029.18 1902.25,-1070.39 2136,-1062.99 2226,-1069.18 2532.88,-1090.28 2893.11,-1100.78 3089.38,-1105.29"/>
<polygon fill="#757575" stroke="#757575" points="3089.03,-1108.79 3099.11,-1105.51 3089.19,-1101.79 3089.03,-1108.79"/>
</g>
<!-- component/Dashboard/DashboardHeader/DatePickerArea.tsx&#45;&gt;store/DashboardProvider.tsx -->
<g id="edge17" class="edge">
<title>component/Dashboard/DashboardHeader/DatePickerArea.tsx&#45;&gt;store/DashboardProvider.tsx</title>
<path fill="none" stroke="#757575" d="M1607,-979.17C1660.03,-986.03 1736.22,-986.52 1786,-946.18 1828.6,-911.65 1779.77,-863.15 1822,-828.18 1842.57,-811.14 1869.21,-803.1 1895.76,-799.99"/>
<polygon fill="#757575" stroke="#757575" points="1895.97,-803.48 1905.61,-799.08 1895.33,-796.51 1895.97,-803.48"/>
</g>
<!-- component/Dashboard/DashboardHeader/DatePickerArea.tsx&#45;&gt;types/widget.d.ts -->
<g id="edge18" class="edge">
<title>component/Dashboard/DashboardHeader/DatePickerArea.tsx&#45;&gt;types/widget.d.ts</title>
<path fill="none" stroke="#757575" d="M1749.42,-972.8C1876.66,-973.31 2043.72,-968.46 2190,-946.18 2421.52,-910.92 2688.41,-820.56 2790.88,-783.94"/>
<polygon fill="#757575" stroke="#757575" points="2791.77,-787.35 2800,-780.67 2789.4,-780.76 2791.77,-787.35"/>
</g>
<!-- component/Dashboard/DashboardHeader/DatePickerArea.tsx&#45;&gt;component/Dashboard/DashboardHeader/DateBox.tsx -->
<g id="edge13" class="edge">
<title>component/Dashboard/DashboardHeader/DatePickerArea.tsx&#45;&gt;component/Dashboard/DashboardHeader/DateBox.tsx</title>
<path fill="none" stroke="#757575" d="M1749.22,-958.3C1761.87,-955.03 1774.23,-951.03 1786,-946.18 1805.25,-938.24 1802.97,-924.63 1822,-916.18 1831.9,-911.78 1842.37,-908.09 1853.08,-905"/>
<polygon fill="#757575" stroke="#757575" points="1853.66,-908.47 1862.41,-902.5 1851.85,-901.71 1853.66,-908.47"/>
</g>
<!-- component/common/DatePicker.tsx -->
<g id="node23" class="node">
<title>component/common/DatePicker.tsx</title>
<path fill="none" stroke="#c6c5fe" d="M2119.33,-1019.68C2119.33,-1019.68 1892.67,-1019.68 1892.67,-1019.68 1888.83,-1019.68 1885,-1015.84 1885,-1012.01 1885,-1012.01 1885,-1004.34 1885,-1004.34 1885,-1000.51 1888.83,-996.68 1892.67,-996.68 1892.67,-996.68 2119.33,-996.68 2119.33,-996.68 2123.17,-996.68 2127,-1000.51 2127,-1004.34 2127,-1004.34 2127,-1012.01 2127,-1012.01 2127,-1015.84 2123.17,-1019.68 2119.33,-1019.68"/>
<text text-anchor="middle" x="2006" y="-1004.48" font-family="Arial" font-size="14.00" fill="#c6c5fe">component/common/DatePicker.tsx</text>
</g>
<!-- component/Dashboard/DashboardHeader/DatePickerArea.tsx&#45;&gt;component/common/DatePicker.tsx -->
<g id="edge14" class="edge">
<title>component/Dashboard/DashboardHeader/DatePickerArea.tsx&#45;&gt;component/common/DatePicker.tsx</title>
<path fill="none" stroke="#757575" d="M1684.24,-979.17C1717.55,-982.09 1753.05,-985.23 1786,-988.18 1814.2,-990.7 1844.44,-993.44 1873.17,-996.06"/>
<polygon fill="#757575" stroke="#757575" points="1872.74,-999.54 1883.01,-996.96 1873.37,-992.56 1872.74,-999.54"/>
</g>
<!-- component/Dashboard/DashboardHeader/DatePickerArea.tsx&#45;&gt;hook/useBoolean.tsx -->
<g id="edge15" class="edge">
<title>component/Dashboard/DashboardHeader/DatePickerArea.tsx&#45;&gt;hook/useBoolean.tsx</title>
<path fill="none" stroke="#757575" d="M1601.56,-979.14C1655.22,-987.34 1735.85,-989.97 1786,-946.18 1840.58,-898.52 1775.46,-842.71 1822,-787.18 1848.8,-755.2 1891.18,-736.25 1928.4,-725.15"/>
<polygon fill="#757575" stroke="#757575" points="1929.12,-728.58 1937.8,-722.5 1927.22,-721.85 1929.12,-728.58"/>
</g>
<!-- component/Dashboard/DashboardHeader/DatePickerArea.tsx&#45;&gt;hook/useOutsideClick.tsx -->
<g id="edge16" class="edge">
<title>component/Dashboard/DashboardHeader/DatePickerArea.tsx&#45;&gt;hook/useOutsideClick.tsx</title>
<path fill="none" stroke="#757575" d="M1628.97,-955.19C1678.59,-952.35 1740.7,-957 1786,-988.18 1816.13,-1008.91 1792.44,-1040.64 1822,-1062.18 1846.15,-1079.77 1876.94,-1088 1906.34,-1091.36"/>
<polygon fill="#757575" stroke="#757575" points="1905.74,-1094.82 1916.02,-1092.28 1906.4,-1087.85 1905.74,-1094.82"/>
</g>
<!-- component/common/DatePicker/DatePickerTitle.tsx -->
<g id="node43" class="node">
<title>component/common/DatePicker/DatePickerTitle.tsx</title>
<path fill="none" stroke="#c6c5fe" d="M2561.33,-979.68C2561.33,-979.68 2233.67,-979.68 2233.67,-979.68 2229.83,-979.68 2226,-975.84 2226,-972.01 2226,-972.01 2226,-964.34 2226,-964.34 2226,-960.51 2229.83,-956.68 2233.67,-956.68 2233.67,-956.68 2561.33,-956.68 2561.33,-956.68 2565.17,-956.68 2569,-960.51 2569,-964.34 2569,-964.34 2569,-972.01 2569,-972.01 2569,-975.84 2565.17,-979.68 2561.33,-979.68"/>
<text text-anchor="middle" x="2397.5" y="-964.48" font-family="Arial" font-size="14.00" fill="#c6c5fe">component/common/DatePicker/DatePickerTitle.tsx</text>
</g>
<!-- component/common/DatePicker.tsx&#45;&gt;component/common/DatePicker/DatePickerTitle.tsx -->
<g id="edge65" class="edge">
<title>component/common/DatePicker.tsx&#45;&gt;component/common/DatePicker/DatePickerTitle.tsx</title>
<path fill="none" stroke="#757575" d="M2123.6,-996.2C2169.25,-991.51 2221.78,-986.12 2268.48,-981.32"/>
<polygon fill="#757575" stroke="#757575" points="2268.81,-984.81 2278.4,-980.31 2268.09,-977.85 2268.81,-984.81"/>
</g>
<!-- component/common/DatePicker/ListPicker.tsx -->
<g id="node44" class="node">
<title>component/common/DatePicker/ListPicker.tsx</title>
<path fill="none" stroke="#c6c5fe" d="M2543.83,-1059.68C2543.83,-1059.68 2251.17,-1059.68 2251.17,-1059.68 2247.33,-1059.68 2243.5,-1055.84 2243.5,-1052.01 2243.5,-1052.01 2243.5,-1044.34 2243.5,-1044.34 2243.5,-1040.51 2247.33,-1036.68 2251.17,-1036.68 2251.17,-1036.68 2543.83,-1036.68 2543.83,-1036.68 2547.67,-1036.68 2551.5,-1040.51 2551.5,-1044.34 2551.5,-1044.34 2551.5,-1052.01 2551.5,-1052.01 2551.5,-1055.84 2547.67,-1059.68 2543.83,-1059.68"/>
<text text-anchor="middle" x="2397.5" y="-1044.48" font-family="Arial" font-size="14.00" fill="#c6c5fe">component/common/DatePicker/ListPicker.tsx</text>
</g>
<!-- component/common/DatePicker.tsx&#45;&gt;component/common/DatePicker/ListPicker.tsx -->
<g id="edge66" class="edge">
<title>component/common/DatePicker.tsx&#45;&gt;component/common/DatePicker/ListPicker.tsx</title>
<path fill="none" stroke="#757575" d="M2123.6,-1020.15C2169.25,-1024.84 2221.78,-1030.23 2268.48,-1035.03"/>
<polygon fill="#757575" stroke="#757575" points="2268.09,-1038.51 2278.4,-1036.05 2268.81,-1031.55 2268.09,-1038.51"/>
</g>
<!-- types/datePicker.d.ts -->
<g id="node45" class="node">
<title>types/datePicker.d.ts</title>
<path fill="none" stroke="#cfffac" d="M2901.83,-1018.68C2901.83,-1018.68 2768.17,-1018.68 2768.17,-1018.68 2764.33,-1018.68 2760.5,-1014.84 2760.5,-1011.01 2760.5,-1011.01 2760.5,-1003.34 2760.5,-1003.34 2760.5,-999.51 2764.33,-995.68 2768.17,-995.68 2768.17,-995.68 2901.83,-995.68 2901.83,-995.68 2905.67,-995.68 2909.5,-999.51 2909.5,-1003.34 2909.5,-1003.34 2909.5,-1011.01 2909.5,-1011.01 2909.5,-1014.84 2905.67,-1018.68 2901.83,-1018.68"/>
<text text-anchor="middle" x="2835" y="-1003.48" font-family="Arial" font-size="14.00" fill="#cfffac">types/datePicker.d.ts</text>
</g>
<!-- component/common/DatePicker.tsx&#45;&gt;types/datePicker.d.ts -->
<g id="edge67" class="edge">
<title>component/common/DatePicker.tsx&#45;&gt;types/datePicker.d.ts</title>
<path fill="none" stroke="#757575" d="M2127.25,-1008.03C2296.55,-1007.83 2600.96,-1007.46 2748.8,-1007.28"/>
<polygon fill="#757575" stroke="#757575" points="2748.52,-1010.78 2758.51,-1007.27 2748.51,-1003.78 2748.52,-1010.78"/>
</g>
<!-- component/Dashboard/DashboardHeader/SelectRealTimeListItem.tsx&#45;&gt;component/Dashboard/CommonStyle.ts -->
<g id="edge21" class="edge">
<title>component/Dashboard/DashboardHeader/SelectRealTimeListItem.tsx&#45;&gt;component/Dashboard/CommonStyle.ts</title>
<path fill="none" stroke="#757575" d="M2895.73,-1176.2C2967.53,-1161.81 3087.86,-1137.68 3164.24,-1122.36"/>
<polygon fill="#757575" stroke="#757575" points="3164.58,-1125.87 3173.7,-1120.47 3163.21,-1119 3164.58,-1125.87"/>
</g>
<!-- component/Widget.tsx -->
<g id="node28" class="node">
<title>component/Widget.tsx</title>
<path fill="none" stroke="#c6c5fe" d="M675.33,-424.68C675.33,-424.68 531.67,-424.68 531.67,-424.68 527.83,-424.68 524,-420.84 524,-417.01 524,-417.01 524,-409.34 524,-409.34 524,-405.51 527.83,-401.68 531.67,-401.68 531.67,-401.68 675.33,-401.68 675.33,-401.68 679.17,-401.68 683,-405.51 683,-409.34 683,-409.34 683,-417.01 683,-417.01 683,-420.84 679.17,-424.68 675.33,-424.68"/>
<text text-anchor="middle" x="603.5" y="-409.48" font-family="Arial" font-size="14.00" fill="#c6c5fe">component/Widget.tsx</text>
</g>
<!-- component/Widget.tsx&#45;&gt;common/api.ts -->
<g id="edge30" class="edge">
<title>component/Widget.tsx&#45;&gt;common/api.ts</title>
<path fill="none" stroke="#757575" d="M624.63,-425.13C659.72,-445.33 734.93,-485.92 804,-505.18 858.7,-520.43 923.05,-526.78 970,-529.39"/>
<polygon fill="#757575" stroke="#757575" points="969.56,-532.88 979.73,-529.89 969.92,-525.88 969.56,-532.88"/>
</g>
<!-- component/Widget.tsx&#45;&gt;types/chart.d.ts -->
<g id="edge38" class="edge">
<title>component/Widget.tsx&#45;&gt;types/chart.d.ts</title>
<path fill="none" stroke="#757575" d="M613.81,-401.18C639.95,-368.39 717.75,-276.68 804,-231.18 1006.33,-124.44 1078.23,-143.31 1305,-113.18 1694.98,-61.36 1802.99,-25.52 2190,-96.18 2253.71,-107.81 2323.3,-138.08 2363.24,-157.31"/>
<polygon fill="#757575" stroke="#757575" points="2361.57,-160.39 2372.09,-161.63 2364.64,-154.1 2361.57,-160.39"/>
</g>
<!-- component/Widget.tsx&#45;&gt;common/date.ts -->
<g id="edge31" class="edge">
<title>component/Widget.tsx&#45;&gt;common/date.ts</title>
<path fill="none" stroke="#757575" d="M650.09,-401.27C690.28,-391.33 750.6,-377.76 804,-371.18 1020.62,-344.46 1579.55,-281.34 1786,-352.18 1805.17,-358.76 1804.34,-370.22 1822,-380.18 1974.56,-466.21 2028.17,-454.18 2190,-521.18 2250.42,-546.19 2319.66,-577.61 2360.65,-596.51"/>
<polygon fill="#757575" stroke="#757575" points="2359.02,-599.61 2369.56,-600.63 2361.95,-593.25 2359.02,-599.61"/>
</g>
<!-- component/Widget.tsx&#45;&gt;common/widget.ts -->
<g id="edge32" class="edge">
<title>component/Widget.tsx&#45;&gt;common/widget.ts</title>
<path fill="none" stroke="#757575" d="M683.02,-403.46C719.72,-399.29 764.03,-394.79 804,-392.18 1045.9,-376.37 1333.06,-373.54 1467.67,-373.15"/>
<polygon fill="#757575" stroke="#757575" points="1467.54,-376.65 1477.53,-373.12 1467.52,-369.65 1467.54,-376.65"/>
</g>
<!-- component/Widget.tsx&#45;&gt;store/DashboardProvider.tsx -->
<g id="edge37" class="edge">
<title>component/Widget.tsx&#45;&gt;store/DashboardProvider.tsx</title>
<path fill="none" stroke="#757575" d="M639.35,-425.09C678.81,-438.08 745.26,-458.44 804,-469.18 906.04,-487.83 1175.6,-465.04 1269,-510.18 1289.95,-520.3 1284.05,-538.06 1305,-548.18 1401.63,-594.82 1704.15,-520.8 1786,-590.18 1835.01,-631.72 1780.13,-681.45 1822,-730.18 1849.76,-762.48 1893.24,-781.77 1930.86,-793.07"/>
<polygon fill="#757575" stroke="#757575" points="1929.77,-796.4 1940.35,-795.78 1931.69,-789.67 1929.77,-796.4"/>
</g>
<!-- component/Widget.tsx&#45;&gt;types/widget.d.ts -->
<g id="edge39" class="edge">
<title>component/Widget.tsx&#45;&gt;types/widget.d.ts</title>
<path fill="none" stroke="#757575" d="M608.31,-401.4C623.86,-355.36 687.37,-186.6 804,-114.18 1085.94,60.88 1212.63,-18.18 1544.5,-18.18 1544.5,-18.18 1544.5,-18.18 2007,-18.18 2136.91,-18.18 2554.41,-140.61 2569,-153.18 2762.74,-320.03 2819.18,-654.07 2831.24,-744.92"/>
<polygon fill="#757575" stroke="#757575" points="2827.76,-745.31 2832.49,-754.79 2834.7,-744.43 2827.76,-745.31"/>
</g>
<!-- component/Widget.tsx&#45;&gt;hook/useBoolean.tsx -->
<g id="edge36" class="edge">
<title>component/Widget.tsx&#45;&gt;hook/useBoolean.tsx</title>
<path fill="none" stroke="#757575" d="M683.13,-421.16C719.85,-424.87 764.16,-429.3 804,-433.18 907.31,-443.24 1174.46,-434.33 1269,-477.18 1289.04,-486.26 1284.96,-502.08 1305,-511.18 1500.55,-599.94 1584.46,-483.02 1786,-557.18 1868.26,-587.45 1948.42,-656.4 1984.75,-690.43"/>
<polygon fill="#757575" stroke="#757575" points="1982.25,-692.9 1991.92,-697.25 1987.08,-687.82 1982.25,-692.9"/>
</g>
<!-- component/Widget/WidgetButtons.tsx -->
<g id="node29" class="node">
<title>component/Widget/WidgetButtons.tsx</title>
<path fill="none" stroke="#c6c5fe" d="M1157.33,-583.68C1157.33,-583.68 915.67,-583.68 915.67,-583.68 911.83,-583.68 908,-579.84 908,-576.01 908,-576.01 908,-568.34 908,-568.34 908,-564.51 911.83,-560.68 915.67,-560.68 915.67,-560.68 1157.33,-560.68 1157.33,-560.68 1161.17,-560.68 1165,-564.51 1165,-568.34 1165,-568.34 1165,-576.01 1165,-576.01 1165,-579.84 1161.17,-583.68 1157.33,-583.68"/>
<text text-anchor="middle" x="1036.5" y="-568.48" font-family="Arial" font-size="14.00" fill="#c6c5fe">component/Widget/WidgetButtons.tsx</text>
</g>
<!-- component/Widget.tsx&#45;&gt;component/Widget/WidgetButtons.tsx -->
<g id="edge33" class="edge">
<title>component/Widget.tsx&#45;&gt;component/Widget/WidgetButtons.tsx</title>
<path fill="none" stroke="#757575" d="M616.71,-425.14C646.05,-453.02 724.02,-522.18 804,-551.18 832.97,-561.68 865.26,-567.79 896.31,-571.19"/>
<polygon fill="#757575" stroke="#757575" points="895.88,-574.66 906.18,-572.17 896.58,-567.69 895.88,-574.66"/>
</g>
<!-- component/Widget/WidgetCallCycleSettingModal.tsx -->
<g id="node30" class="node">
<title>component/Widget/WidgetCallCycleSettingModal.tsx</title>
<path fill="none" stroke="#c6c5fe" d="M1204.33,-424.68C1204.33,-424.68 868.67,-424.68 868.67,-424.68 864.83,-424.68 861,-420.84 861,-417.01 861,-417.01 861,-409.34 861,-409.34 861,-405.51 864.83,-401.68 868.67,-401.68 868.67,-401.68 1204.33,-401.68 1204.33,-401.68 1208.17,-401.68 1212,-405.51 1212,-409.34 1212,-409.34 1212,-417.01 1212,-417.01 1212,-420.84 1208.17,-424.68 1204.33,-424.68"/>
<text text-anchor="middle" x="1036.5" y="-409.48" font-family="Arial" font-size="14.00" fill="#c6c5fe">component/Widget/WidgetCallCycleSettingModal.tsx</text>
</g>
<!-- component/Widget.tsx&#45;&gt;component/Widget/WidgetCallCycleSettingModal.tsx -->
<g id="edge34" class="edge">
<title>component/Widget.tsx&#45;&gt;component/Widget/WidgetCallCycleSettingModal.tsx</title>
<path fill="none" stroke="#757575" d="M683.3,-413.18C729.97,-413.18 791.2,-413.18 849.5,-413.18"/>
<polygon fill="#757575" stroke="#757575" points="849.22,-416.68 859.22,-413.18 849.22,-409.68 849.22,-416.68"/>
</g>
<!-- component/Widget/WidgetChart.tsx -->
<g id="node31" class="node">
<title>component/Widget/WidgetChart.tsx</title>
<path fill="none" stroke="#c6c5fe" d="M1149.83,-263.68C1149.83,-263.68 923.17,-263.68 923.17,-263.68 919.33,-263.68 915.5,-259.84 915.5,-256.01 915.5,-256.01 915.5,-248.34 915.5,-248.34 915.5,-244.51 919.33,-240.68 923.17,-240.68 923.17,-240.68 1149.83,-240.68 1149.83,-240.68 1153.67,-240.68 1157.5,-244.51 1157.5,-248.34 1157.5,-248.34 1157.5,-256.01 1157.5,-256.01 1157.5,-259.84 1153.67,-263.68 1149.83,-263.68"/>
<text text-anchor="middle" x="1036.5" y="-248.48" font-family="Arial" font-size="14.00" fill="#c6c5fe">component/Widget/WidgetChart.tsx</text>
</g>
<!-- component/Widget.tsx&#45;&gt;component/Widget/WidgetChart.tsx -->
<g id="edge35" class="edge">
<title>component/Widget.tsx&#45;&gt;component/Widget/WidgetChart.tsx</title>
<path fill="none" stroke="#757575" d="M626.73,-401.27C663.06,-382.15 737.73,-344.2 804,-319.18 860.89,-297.7 927.81,-279.01 975.03,-266.87"/>
<polygon fill="#757575" stroke="#757575" points="975.69,-270.31 984.52,-264.45 973.96,-263.53 975.69,-270.31"/>
</g>
<!-- component/Widget/WidgetButtons.tsx&#45;&gt;store/WidgetProvider.tsx -->
<g id="edge40" class="edge">
<title>component/Widget/WidgetButtons.tsx&#45;&gt;store/WidgetProvider.tsx</title>
<path fill="none" stroke="#757575" d="M1165.39,-572.2C1200.19,-575.98 1237.06,-583.65 1269,-598.18 1288.76,-607.16 1285.91,-620.85 1305,-631.18 1348.93,-654.93 1402.43,-669.7 1447.71,-678.73"/>
<polygon fill="#757575" stroke="#757575" points="1446.77,-682.12 1457.25,-680.57 1448.09,-675.24 1446.77,-682.12"/>
</g>
<!-- component/Widget/WidgetCallCycleSettingModal.tsx&#45;&gt;common/date.ts -->
<g id="edge41" class="edge">
<title>component/Widget/WidgetCallCycleSettingModal.tsx&#45;&gt;common/date.ts</title>
<path fill="none" stroke="#757575" d="M1212.39,-419.96C1232.04,-424.45 1251.33,-430.67 1269,-439.18 1289.39,-448.99 1284.51,-465.57 1305,-475.18 1402.19,-520.73 1679.46,-506.12 1786,-519.18 1982.55,-543.28 2213.2,-581.52 2326.48,-600.96"/>
<polygon fill="#757575" stroke="#757575" points="2325.79,-604.39 2336.24,-602.64 2326.98,-597.49 2325.79,-604.39"/>
</g>
<!-- component/Widget/WidgetCallCycleSettingModal.tsx&#45;&gt;common/widget.ts -->
<g id="edge42" class="edge">
<title>component/Widget/WidgetCallCycleSettingModal.tsx&#45;&gt;common/widget.ts</title>
<path fill="none" stroke="#757575" d="M1189.27,-401.2C1281.07,-393.96 1394.21,-385.03 1467.78,-379.23"/>
<polygon fill="#757575" stroke="#757575" points="1468.04,-382.72 1477.73,-378.45 1467.49,-375.74 1468.04,-382.72"/>
</g>
<!-- component/Widget/WidgetCallCycleSettingModal/CycleInput.tsx -->
<g id="node32" class="node">
<title>component/Widget/WidgetCallCycleSettingModal/CycleInput.tsx</title>
<path fill="none" stroke="#cfffac" d="M1748.83,-466.68C1748.83,-466.68 1342.17,-466.68 1342.17,-466.68 1338.33,-466.68 1334.5,-462.84 1334.5,-459.01 1334.5,-459.01 1334.5,-451.34 1334.5,-451.34 1334.5,-447.51 1338.33,-443.68 1342.17,-443.68 1342.17,-443.68 1748.83,-443.68 1748.83,-443.68 1752.67,-443.68 1756.5,-447.51 1756.5,-451.34 1756.5,-451.34 1756.5,-459.01 1756.5,-459.01 1756.5,-462.84 1752.67,-466.68 1748.83,-466.68"/>
<text text-anchor="middle" x="1545.5" y="-451.48" font-family="Arial" font-size="14.00" fill="#cfffac">component/Widget/WidgetCallCycleSettingModal/CycleInput.tsx</text>
</g>
<!-- component/Widget/WidgetCallCycleSettingModal.tsx&#45;&gt;component/Widget/WidgetCallCycleSettingModal/CycleInput.tsx -->
<g id="edge43" class="edge">
<title>component/Widget/WidgetCallCycleSettingModal.tsx&#45;&gt;component/Widget/WidgetCallCycleSettingModal/CycleInput.tsx</title>
<path fill="none" stroke="#757575" d="M1182.11,-425.16C1246.57,-430.5 1322.64,-436.8 1388.4,-442.25"/>
<polygon fill="#757575" stroke="#757575" points="1387.94,-445.72 1398.19,-443.06 1388.52,-438.74 1387.94,-445.72"/>
</g>
<!-- component/Widget/WidgetCallCycleSettingModal/LastCallTimeBox.tsx -->
<g id="node33" class="node">
<title>component/Widget/WidgetCallCycleSettingModal/LastCallTimeBox.tsx</title>
<path fill="none" stroke="#cfffac" d="M1769.33,-425.68C1769.33,-425.68 1321.67,-425.68 1321.67,-425.68 1317.83,-425.68 1314,-421.84 1314,-418.01 1314,-418.01 1314,-410.34 1314,-410.34 1314,-406.51 1317.83,-402.68 1321.67,-402.68 1321.67,-402.68 1769.33,-402.68 1769.33,-402.68 1773.17,-402.68 1777,-406.51 1777,-410.34 1777,-410.34 1777,-418.01 1777,-418.01 1777,-421.84 1773.17,-425.68 1769.33,-425.68"/>
<text text-anchor="middle" x="1545.5" y="-410.48" font-family="Arial" font-size="14.00" fill="#cfffac">component/Widget/WidgetCallCycleSettingModal/LastCallTimeBox.tsx</text>
</g>
<!-- component/Widget/WidgetCallCycleSettingModal.tsx&#45;&gt;component/Widget/WidgetCallCycleSettingModal/LastCallTimeBox.tsx -->
<g id="edge44" class="edge">
<title>component/Widget/WidgetCallCycleSettingModal.tsx&#45;&gt;component/Widget/WidgetCallCycleSettingModal/LastCallTimeBox.tsx</title>
<path fill="none" stroke="#757575" d="M1212.34,-413.52C1241.41,-413.58 1272.01,-413.64 1302.4,-413.7"/>
<polygon fill="#757575" stroke="#757575" points="1302.06,-417.2 1312.06,-413.72 1302.07,-410.2 1302.06,-417.2"/>
</g>
<!-- component/Widget/WidgetChart.tsx&#45;&gt;types/chart.d.ts -->
<g id="edge48" class="edge">
<title>component/Widget/WidgetChart.tsx&#45;&gt;types/chart.d.ts</title>
<path fill="none" stroke="#757575" d="M1157.68,-242.71C1203.75,-239.09 1256.82,-234.93 1305,-231.18 1534.77,-213.27 1591.86,-203.48 1822,-191.18 2005.38,-181.38 2222.02,-176.88 2329.31,-175.13"/>
<polygon fill="#757575" stroke="#757575" points="2329.15,-178.63 2339.09,-174.97 2329.03,-171.63 2329.15,-178.63"/>
</g>
<!-- component/chart/BarChart.tsx -->
<g id="node34" class="node">
<title>component/chart/BarChart.tsx</title>
<path fill="none" stroke="#c6c5fe" d="M1639.33,-304.68C1639.33,-304.68 1451.67,-304.68 1451.67,-304.68 1447.83,-304.68 1444,-300.84 1444,-297.01 1444,-297.01 1444,-289.34 1444,-289.34 1444,-285.51 1447.83,-281.68 1451.67,-281.68 1451.67,-281.68 1639.33,-281.68 1639.33,-281.68 1643.17,-281.68 1647,-285.51 1647,-289.34 1647,-289.34 1647,-297.01 1647,-297.01 1647,-300.84 1643.17,-304.68 1639.33,-304.68"/>
<text text-anchor="middle" x="1545.5" y="-289.48" font-family="Arial" font-size="14.00" fill="#c6c5fe">component/chart/BarChart.tsx</text>
</g>
<!-- component/Widget/WidgetChart.tsx&#45;&gt;component/chart/BarChart.tsx -->
<g id="edge45" class="edge">
<title>component/Widget/WidgetChart.tsx&#45;&gt;component/chart/BarChart.tsx</title>
<path fill="none" stroke="#757575" d="M1157.97,-261.92C1241.18,-268.65 1351.08,-277.54 1432.41,-284.11"/>
<polygon fill="#757575" stroke="#757575" points="1431.94,-287.59 1442.19,-284.9 1432.5,-280.61 1431.94,-287.59"/>
</g>
<!-- component/chart/InformaticsChart.tsx -->
<g id="node35" class="node">
<title>component/chart/InformaticsChart.tsx</title>
<path fill="none" stroke="#c6c5fe" d="M1663.83,-145.68C1663.83,-145.68 1427.17,-145.68 1427.17,-145.68 1423.33,-145.68 1419.5,-141.84 1419.5,-138.01 1419.5,-138.01 1419.5,-130.34 1419.5,-130.34 1419.5,-126.51 1423.33,-122.68 1427.17,-122.68 1427.17,-122.68 1663.83,-122.68 1663.83,-122.68 1667.67,-122.68 1671.5,-126.51 1671.5,-130.34 1671.5,-130.34 1671.5,-138.01 1671.5,-138.01 1671.5,-141.84 1667.67,-145.68 1663.83,-145.68"/>
<text text-anchor="middle" x="1545.5" y="-130.48" font-family="Arial" font-size="14.00" fill="#c6c5fe">component/chart/InformaticsChart.tsx</text>
</g>
<!-- component/Widget/WidgetChart.tsx&#45;&gt;component/chart/InformaticsChart.tsx -->
<g id="edge46" class="edge">
<title>component/Widget/WidgetChart.tsx&#45;&gt;component/chart/InformaticsChart.tsx</title>
<path fill="none" stroke="#757575" d="M1065.4,-240.25C1113.41,-220.27 1215.13,-180.25 1305,-160.18 1337.91,-152.83 1373.86,-147.53 1407.65,-143.72"/>
<polygon fill="#757575" stroke="#757575" points="1407.95,-147.21 1417.52,-142.64 1407.2,-140.25 1407.95,-147.21"/>
</g>
<!-- component/chart/LineChart.tsx -->
<g id="node36" class="node">
<title>component/chart/LineChart.tsx</title>
<path fill="none" stroke="#c6c5fe" d="M1642.33,-263.68C1642.33,-263.68 1448.67,-263.68 1448.67,-263.68 1444.83,-263.68 1441,-259.84 1441,-256.01 1441,-256.01 1441,-248.34 1441,-248.34 1441,-244.51 1444.83,-240.68 1448.67,-240.68 1448.67,-240.68 1642.33,-240.68 1642.33,-240.68 1646.17,-240.68 1650,-244.51 1650,-248.34 1650,-248.34 1650,-256.01 1650,-256.01 1650,-259.84 1646.17,-263.68 1642.33,-263.68"/>
<text text-anchor="middle" x="1545.5" y="-248.48" font-family="Arial" font-size="14.00" fill="#c6c5fe">component/chart/LineChart.tsx</text>
</g>
<!-- component/Widget/WidgetChart.tsx&#45;&gt;component/chart/LineChart.tsx -->
<g id="edge47" class="edge">
<title>component/Widget/WidgetChart.tsx&#45;&gt;component/chart/LineChart.tsx</title>
<path fill="none" stroke="#757575" d="M1157.97,-252.18C1240.21,-252.18 1348.5,-252.18 1429.53,-252.18"/>
<polygon fill="#757575" stroke="#757575" points="1429.27,-255.68 1439.27,-252.18 1429.27,-248.68 1429.27,-255.68"/>
</g>
<!-- component/chart/BarChart.tsx&#45;&gt;common/chart.ts -->
<g id="edge54" class="edge">
<title>component/chart/BarChart.tsx&#45;&gt;common/chart.ts</title>
<path fill="none" stroke="#757575" d="M1647.31,-284.42C1690.08,-280.68 1740.48,-276.25 1786,-272.18 1835.12,-267.78 1890.42,-262.73 1933.16,-258.8"/>
<polygon fill="#757575" stroke="#757575" points="1933.44,-262.29 1943.08,-257.89 1932.8,-255.32 1933.44,-262.29"/>
</g>
<!-- component/chart/BarChart.tsx&#45;&gt;types/chart.d.ts -->
<g id="edge57" class="edge">
<title>component/chart/BarChart.tsx&#45;&gt;types/chart.d.ts</title>
<path fill="none" stroke="#757575" d="M1647.47,-289.63C1691.79,-291.67 1743.33,-299.1 1786,-319.18 1806.19,-328.68 1801.32,-345.78 1822,-354.18 1897.77,-384.94 2113.42,-382.87 2190,-354.18 2276.22,-321.88 2350.13,-235.49 2381.04,-195.29"/>
<polygon fill="#757575" stroke="#757575" points="2383.81,-197.43 2387.04,-187.34 2378.22,-193.21 2383.81,-197.43"/>
</g>
<!-- component/chart/ChartSvg.tsx -->
<g id="node40" class="node">
<title>component/chart/ChartSvg.tsx</title>
<path fill="none" stroke="#cfffac" d="M2101.33,-345.68C2101.33,-345.68 1910.67,-345.68 1910.67,-345.68 1906.83,-345.68 1903,-341.84 1903,-338.01 1903,-338.01 1903,-330.34 1903,-330.34 1903,-326.51 1906.83,-322.68 1910.67,-322.68 1910.67,-322.68 2101.33,-322.68 2101.33,-322.68 2105.17,-322.68 2109,-326.51 2109,-330.34 2109,-330.34 2109,-338.01 2109,-338.01 2109,-341.84 2105.17,-345.68 2101.33,-345.68"/>
<text text-anchor="middle" x="2006" y="-330.48" font-family="Arial" font-size="14.00" fill="#cfffac">component/chart/ChartSvg.tsx</text>
</g>
<!-- component/chart/BarChart.tsx&#45;&gt;component/chart/ChartSvg.tsx -->
<g id="edge55" class="edge">
<title>component/chart/BarChart.tsx&#45;&gt;component/chart/ChartSvg.tsx</title>
<path fill="none" stroke="#757575" d="M1647.4,-302.2C1719.51,-308.65 1816.6,-317.33 1891.42,-324.02"/>
<polygon fill="#757575" stroke="#757575" points="1890.98,-327.5 1901.25,-324.9 1891.6,-320.52 1890.98,-327.5"/>
</g>
<!-- hook/useResize.tsx -->
<g id="node41" class="node">
<title>hook/useResize.tsx</title>
<path fill="none" stroke="#cfffac" d="M2068.33,-304.68C2068.33,-304.68 1943.67,-304.68 1943.67,-304.68 1939.83,-304.68 1936,-300.84 1936,-297.01 1936,-297.01 1936,-289.34 1936,-289.34 1936,-285.51 1939.83,-281.68 1943.67,-281.68 1943.67,-281.68 2068.33,-281.68 2068.33,-281.68 2072.17,-281.68 2076,-285.51 2076,-289.34 2076,-289.34 2076,-297.01 2076,-297.01 2076,-300.84 2072.17,-304.68 2068.33,-304.68"/>
<text text-anchor="middle" x="2006" y="-289.48" font-family="Arial" font-size="14.00" fill="#cfffac">hook/useResize.tsx</text>
</g>
<!-- component/chart/BarChart.tsx&#45;&gt;hook/useResize.tsx -->
<g id="edge56" class="edge">
<title>component/chart/BarChart.tsx&#45;&gt;hook/useResize.tsx</title>
<path fill="none" stroke="#757575" d="M1647.4,-293.18C1730.71,-293.18 1847.38,-293.18 1924.51,-293.18"/>
<polygon fill="#757575" stroke="#757575" points="1924.08,-296.68 1934.08,-293.18 1924.08,-289.68 1924.08,-296.68"/>
</g>
<!-- component/chart/InformaticsChart.tsx&#45;&gt;types/chart.d.ts -->
<g id="edge59" class="edge">
<title>component/chart/InformaticsChart.tsx&#45;&gt;types/chart.d.ts</title>
<path fill="none" stroke="#757575" d="M1629.55,-122.21C1752.64,-106.55 1990.46,-84.32 2190,-113.18 2248.97,-121.71 2314.56,-143.26 2355.66,-158.31"/>
<polygon fill="#757575" stroke="#757575" points="2354.32,-161.55 2364.91,-161.75 2356.75,-154.99 2354.32,-161.55"/>
</g>
<!-- component/chart/InformaticsChart/InforMaticsBox.tsx -->
<g id="node42" class="node">
<title>component/chart/InformaticsChart/InforMaticsBox.tsx</title>
<path fill="none" stroke="#c6c5fe" d="M2173.33,-145.68C2173.33,-145.68 1838.67,-145.68 1838.67,-145.68 1834.83,-145.68 1831,-141.84 1831,-138.01 1831,-138.01 1831,-130.34 1831,-130.34 1831,-126.51 1834.83,-122.68 1838.67,-122.68 1838.67,-122.68 2173.33,-122.68 2173.33,-122.68 2177.17,-122.68 2181,-126.51 2181,-130.34 2181,-130.34 2181,-138.01 2181,-138.01 2181,-141.84 2177.17,-145.68 2173.33,-145.68"/>
<text text-anchor="middle" x="2006" y="-130.48" font-family="Arial" font-size="14.00" fill="#c6c5fe">component/chart/InformaticsChart/InforMaticsBox.tsx</text>
</g>
<!-- component/chart/InformaticsChart.tsx&#45;&gt;component/chart/InformaticsChart/InforMaticsBox.tsx -->
<g id="edge58" class="edge">
<title>component/chart/InformaticsChart.tsx&#45;&gt;component/chart/InformaticsChart/InforMaticsBox.tsx</title>
<path fill="none" stroke="#757575" d="M1671.79,-134.18C1717.39,-134.18 1769.96,-134.18 1819.66,-134.18"/>
<polygon fill="#757575" stroke="#757575" points="1819.37,-137.68 1829.37,-134.18 1819.37,-130.68 1819.37,-137.68"/>
</g>
<!-- component/chart/LineChart.tsx&#45;&gt;common/chart.ts -->
<g id="edge61" class="edge">
<title>component/chart/LineChart.tsx&#45;&gt;common/chart.ts</title>
<path fill="none" stroke="#757575" d="M1650.25,-252.18C1736.56,-252.18 1857.18,-252.18 1933.17,-252.18"/>
<polygon fill="#757575" stroke="#757575" points="1932.99,-255.68 1942.99,-252.18 1932.99,-248.68 1932.99,-255.68"/>
</g>
<!-- component/chart/LineChart.tsx&#45;&gt;types/chart.d.ts -->
<g id="edge64" class="edge">
<title>component/chart/LineChart.tsx&#45;&gt;types/chart.d.ts</title>
<path fill="none" stroke="#757575" d="M1650.3,-242.65C1827.05,-226.43 2181.65,-193.89 2329.44,-180.33"/>
<polygon fill="#757575" stroke="#757575" points="2329.42,-183.85 2339.05,-179.45 2328.78,-176.88 2329.42,-183.85"/>
</g>
<!-- component/chart/LineChart.tsx&#45;&gt;component/chart/ChartSvg.tsx -->
<g id="edge62" class="edge">
<title>component/chart/LineChart.tsx&#45;&gt;component/chart/ChartSvg.tsx</title>
<path fill="none" stroke="#757575" d="M1650.46,-244.1C1694.35,-244.84 1744.73,-251.38 1786,-272.18 1807.66,-283.09 1800.52,-301.93 1822,-313.18 1843.16,-324.25 1867.54,-330.65 1891.47,-334.16"/>
<polygon fill="#757575" stroke="#757575" points="1890.93,-337.62 1901.29,-335.43 1891.82,-330.68 1890.93,-337.62"/>
</g>
<!-- component/chart/LineChart.tsx&#45;&gt;hook/useResize.tsx -->
<g id="edge63" class="edge">
<title>component/chart/LineChart.tsx&#45;&gt;hook/useResize.tsx</title>
<path fill="none" stroke="#757575" d="M1650.26,-260.56C1692.4,-264.04 1741.53,-268.19 1786,-272.18 1831.9,-276.29 1883.18,-281.2 1924.58,-285.23"/>
<polygon fill="#757575" stroke="#757575" points="1924.18,-288.7 1934.47,-286.19 1924.86,-281.74 1924.18,-288.7"/>
</g>
<!-- component/Widget/WidgetPropsSettingModal.tsx -->
<g id="node37" class="node">
<title>component/Widget/WidgetPropsSettingModal.tsx</title>
<path fill="none" stroke="#c6c5fe" d="M760.33,-683.68C760.33,-683.68 446.67,-683.68 446.67,-683.68 442.83,-683.68 439,-679.84 439,-676.01 439,-676.01 439,-668.34 439,-668.34 439,-664.51 442.83,-660.68 446.67,-660.68 446.67,-660.68 760.33,-660.68 760.33,-660.68 764.17,-660.68 768,-664.51 768,-668.34 768,-668.34 768,-676.01 768,-676.01 768,-679.84 764.17,-683.68 760.33,-683.68"/>
<text text-anchor="middle" x="603.5" y="-668.48" font-family="Arial" font-size="14.00" fill="#c6c5fe">component/Widget/WidgetPropsSettingModal.tsx</text>
</g>
<!-- component/Widget/WidgetPropsSettingModal.tsx&#45;&gt;common/api.ts -->
<g id="edge49" class="edge">
<title>component/Widget/WidgetPropsSettingModal.tsx&#45;&gt;common/api.ts</title>
<path fill="none" stroke="#757575" d="M618.84,-660.19C650.11,-634.84 727.76,-576.08 804,-551.18 858.02,-533.53 922.7,-529.25 969.94,-528.97"/>
<polygon fill="#757575" stroke="#757575" points="969.74,-532.47 979.74,-528.97 969.74,-525.47 969.74,-532.47"/>
</g>
<!-- component/Widget/WidgetPropsSettingModal.tsx&#45;&gt;store/WidgetProvider.tsx -->
<g id="edge52" class="edge">
<title>component/Widget/WidgetPropsSettingModal.tsx&#45;&gt;store/WidgetProvider.tsx</title>
<path fill="none" stroke="#757575" d="M768.24,-675.66C964.46,-679.84 1286.84,-686.7 1447.37,-690.11"/>
<polygon fill="#757575" stroke="#757575" points="1447.06,-693.6 1457.13,-690.32 1447.21,-686.61 1447.06,-693.6"/>
</g>
<!-- component/Widget/WidgetPropsSettingModal/WidgetPropsButtons.tsx -->
<g id="node38" class="node">
<title>component/Widget/WidgetPropsSettingModal/WidgetPropsButtons.tsx</title>
<path fill="none" stroke="#c6c5fe" d="M1261.33,-743.68C1261.33,-743.68 811.67,-743.68 811.67,-743.68 807.83,-743.68 804,-739.84 804,-736.01 804,-736.01 804,-728.34 804,-728.34 804,-724.51 807.83,-720.68 811.67,-720.68 811.67,-720.68 1261.33,-720.68 1261.33,-720.68 1265.17,-720.68 1269,-724.51 1269,-728.34 1269,-728.34 1269,-736.01 1269,-736.01 1269,-739.84 1265.17,-743.68 1261.33,-743.68"/>
<text text-anchor="middle" x="1036.5" y="-728.48" font-family="Arial" font-size="14.00" fill="#c6c5fe">component/Widget/WidgetPropsSettingModal/WidgetPropsButtons.tsx</text>
</g>
<!-- component/Widget/WidgetPropsSettingModal.tsx&#45;&gt;component/Widget/WidgetPropsSettingModal/WidgetPropsButtons.tsx -->
<g id="edge50" class="edge">
<title>component/Widget/WidgetPropsSettingModal.tsx&#45;&gt;component/Widget/WidgetPropsSettingModal/WidgetPropsButtons.tsx</title>
<path fill="none" stroke="#757575" d="M669.04,-684.14C708.03,-691.12 758.77,-699.79 804,-706.18 836.92,-710.83 872.57,-715.17 905.8,-718.93"/>
<polygon fill="#757575" stroke="#757575" points="905.14,-722.38 915.47,-720.01 905.92,-715.42 905.14,-722.38"/>
</g>
<!-- component/Widget/WidgetPropsSettingModal/WidgetPropsList.tsx -->
<g id="node39" class="node">
<title>component/Widget/WidgetPropsSettingModal/WidgetPropsList.tsx</title>
<path fill="none" stroke="#cfffac" d="M1248.83,-663.68C1248.83,-663.68 824.17,-663.68 824.17,-663.68 820.33,-663.68 816.5,-659.84 816.5,-656.01 816.5,-656.01 816.5,-648.34 816.5,-648.34 816.5,-644.51 820.33,-640.68 824.17,-640.68 824.17,-640.68 1248.83,-640.68 1248.83,-640.68 1252.67,-640.68 1256.5,-644.51 1256.5,-648.34 1256.5,-648.34 1256.5,-656.01 1256.5,-656.01 1256.5,-659.84 1252.67,-663.68 1248.83,-663.68"/>
<text text-anchor="middle" x="1036.5" y="-648.48" font-family="Arial" font-size="14.00" fill="#cfffac">component/Widget/WidgetPropsSettingModal/WidgetPropsList.tsx</text>
</g>
<!-- component/Widget/WidgetPropsSettingModal.tsx&#45;&gt;component/Widget/WidgetPropsSettingModal/WidgetPropsList.tsx -->
<g id="edge51" class="edge">
<title>component/Widget/WidgetPropsSettingModal.tsx&#45;&gt;component/Widget/WidgetPropsSettingModal/WidgetPropsList.tsx</title>
<path fill="none" stroke="#757575" d="M768.36,-664.57C780.39,-664.02 792.65,-663.45 804.97,-662.88"/>
<polygon fill="#757575" stroke="#757575" points="804.96,-666.38 814.79,-662.42 804.63,-659.39 804.96,-666.38"/>
</g>
<!-- component/Widget/WidgetPropsSettingModal/WidgetPropsButtons.tsx&#45;&gt;store/WidgetProvider.tsx -->
<g id="edge53" class="edge">
<title>component/Widget/WidgetPropsSettingModal/WidgetPropsButtons.tsx&#45;&gt;store/WidgetProvider.tsx</title>
<path fill="none" stroke="#757575" d="M1189.27,-720.2C1272.9,-713.61 1374.24,-705.61 1447.24,-699.85"/>
<polygon fill="#757575" stroke="#757575" points="1447.51,-703.34 1457.2,-699.07 1446.96,-696.36 1447.51,-703.34"/>
</g>
<!-- component/chart/InformaticsChart/InforMaticsBox.tsx&#45;&gt;types/chart.d.ts -->
<g id="edge60" class="edge">
<title>component/chart/InformaticsChart/InforMaticsBox.tsx&#45;&gt;types/chart.d.ts</title>
<path fill="none" stroke="#757575" d="M2123.6,-146.15C2190.8,-153.05 2272.89,-161.48 2329.38,-167.28"/>
<polygon fill="#757575" stroke="#757575" points="2328.86,-170.75 2339.17,-168.29 2329.58,-163.79 2328.86,-170.75"/>
</g>
<!-- component/common/DatePicker/DatePickerTitle.tsx&#45;&gt;types/widget.d.ts -->
<g id="edge68" class="edge">
<title>component/common/DatePicker/DatePickerTitle.tsx&#45;&gt;types/widget.d.ts</title>
<path fill="none" stroke="#757575" d="M2519.88,-956.26C2536.68,-952.72 2553.48,-948.13 2569,-942.18 2668.34,-904.08 2768.76,-824.3 2811.98,-787.51"/>
<polygon fill="#757575" stroke="#757575" points="2814.11,-790.31 2819.4,-781.13 2809.54,-785 2814.11,-790.31"/>
</g>
<!-- component/common/DatePicker/ListPicker.tsx&#45;&gt;types/datePicker.d.ts -->
<g id="edge70" class="edge">
<title>component/common/DatePicker/ListPicker.tsx&#45;&gt;types/datePicker.d.ts</title>
<path fill="none" stroke="#757575" d="M2521.06,-1036.2C2548.67,-1033.53 2577.84,-1030.74 2605,-1028.18 2652.62,-1023.69 2705.81,-1018.8 2748.94,-1014.87"/>
<polygon fill="#757575" stroke="#757575" points="2749.1,-1018.37 2758.74,-1013.98 2748.47,-1011.4 2749.1,-1018.37"/>
</g>
<!-- component/common/DatePicker/ListPickerItem.tsx -->
<g id="node46" class="node">
<title>component/common/DatePicker/ListPickerItem.tsx</title>
<path fill="none" stroke="#c6c5fe" d="M2995.83,-1059.68C2995.83,-1059.68 2674.17,-1059.68 2674.17,-1059.68 2670.33,-1059.68 2666.5,-1055.84 2666.5,-1052.01 2666.5,-1052.01 2666.5,-1044.34 2666.5,-1044.34 2666.5,-1040.51 2670.33,-1036.68 2674.17,-1036.68 2674.17,-1036.68 2995.83,-1036.68 2995.83,-1036.68 2999.67,-1036.68 3003.5,-1040.51 3003.5,-1044.34 3003.5,-1044.34 3003.5,-1052.01 3003.5,-1052.01 3003.5,-1055.84 2999.67,-1059.68 2995.83,-1059.68"/>
<text text-anchor="middle" x="2835" y="-1044.48" font-family="Arial" font-size="14.00" fill="#c6c5fe">component/common/DatePicker/ListPickerItem.tsx</text>
</g>
<!-- component/common/DatePicker/ListPicker.tsx&#45;&gt;component/common/DatePicker/ListPickerItem.tsx -->
<g id="edge69" class="edge">
<title>component/common/DatePicker/ListPicker.tsx&#45;&gt;component/common/DatePicker/ListPickerItem.tsx</title>
<path fill="none" stroke="#757575" d="M2551.73,-1048.18C2585.12,-1048.18 2620.72,-1048.18 2655,-1048.18"/>
<polygon fill="#757575" stroke="#757575" points="2654.57,-1051.68 2664.57,-1048.18 2654.57,-1044.68 2654.57,-1051.68"/>
</g>
<!-- component/common/DatePicker/ListPickerItem.tsx&#45;&gt;component/Dashboard/CommonStyle.ts -->
<g id="edge71" class="edge">
<title>component/common/DatePicker/ListPickerItem.tsx&#45;&gt;component/Dashboard/CommonStyle.ts</title>
<path fill="none" stroke="#757575" d="M2958.67,-1060.17C2993.14,-1064.07 3030.61,-1068.8 3065,-1074.18 3099.98,-1079.65 3138.71,-1087.27 3170.35,-1093.91"/>
<polygon fill="#757575" stroke="#757575" points="3169.24,-1097.26 3179.75,-1095.9 3170.69,-1090.41 3169.24,-1097.26"/>
</g>
<!-- page/Dashboard.tsx&#45;&gt;component/Dashboard/DashboardHeader.tsx -->
<g id="edge72" class="edge">
<title>page/Dashboard.tsx&#45;&gt;component/Dashboard/DashboardHeader.tsx</title>
<path fill="none" stroke="#757575" d="M337.2,-683.86C350.29,-711.97 387.24,-784.01 439,-824.18 467.64,-846.4 505.14,-861.38 537,-871.04"/>
<polygon fill="#757575" stroke="#757575" points="535.98,-874.39 546.56,-873.82 537.93,-867.67 535.98,-874.39"/>
</g>
<!-- page/Dashboard.tsx&#45;&gt;store/DashboardProvider.tsx -->
<g id="edge75" class="edge">
<title>page/Dashboard.tsx&#45;&gt;store/DashboardProvider.tsx</title>
<path fill="none" stroke="#757575" d="M388.71,-684.18C477.02,-702.32 652.94,-736.29 804,-752.18 1204.8,-794.32 1684.17,-804.75 1895.63,-807.33"/>
<polygon fill="#757575" stroke="#757575" points="1895.47,-810.83 1905.51,-807.45 1895.55,-803.83 1895.47,-810.83"/>
</g>
<!-- page/Dashboard.tsx&#45;&gt;store/WidgetProvider.tsx -->
<g id="edge76" class="edge">
<title>page/Dashboard.tsx&#45;&gt;store/WidgetProvider.tsx</title>
<path fill="none" stroke="#757575" d="M385.38,-660.19C402.43,-656.76 421.44,-653.37 439,-651.18 805.15,-605.44 902.19,-591.05 1269,-631.18 1348.27,-639.85 1438.13,-662.16 1493.05,-677.25"/>
<polygon fill="#757575" stroke="#757575" points="1491.86,-680.56 1502.43,-679.86 1493.73,-673.81 1491.86,-680.56"/>
</g>
<!-- page/Dashboard.tsx&#45;&gt;component/Widget.tsx -->
<g id="edge73" class="edge">
<title>page/Dashboard.tsx&#45;&gt;component/Widget.tsx</title>
<path fill="none" stroke="#757575" d="M344.33,-660.38C387.01,-619.5 528.82,-483.72 582.07,-432.74"/>
<polygon fill="#757575" stroke="#757575" points="584.21,-435.54 589.01,-426.1 579.37,-430.48 584.21,-435.54"/>
</g>
<!-- page/Dashboard.tsx&#45;&gt;component/Widget/WidgetPropsSettingModal.tsx -->
<g id="edge74" class="edge">
<title>page/Dashboard.tsx&#45;&gt;component/Widget/WidgetPropsSettingModal.tsx</title>
<path fill="none" stroke="#757575" d="M403.42,-672.18C411.06,-672.18 419.06,-672.18 427.27,-672.18"/>
<polygon fill="#757575" stroke="#757575" points="427.07,-675.68 437.07,-672.18 427.07,-668.68 427.07,-675.68"/>
</g>
</g>
</svg>
