<?xml version="1.0" encoding="UTF-8" standalone="no"?>
<!DOCTYPE svg PUBLIC "-//W3C//DTD SVG 1.1//EN"
 "http://www.w3.org/Graphics/SVG/1.1/DTD/svg11.dtd">
<!-- Generated by graphviz version 7.1.0 (20230121.1956)
 -->
<!-- Title: G Pages: 1 -->
<svg width="2369pt" height="963pt"
 viewBox="0.00 0.00 2369.20 962.75" xmlns="http://www.w3.org/2000/svg" xmlns:xlink="http://www.w3.org/1999/xlink">
<g id="graph0" class="graph" transform="scale(1 1) rotate(0) translate(21.6 941.15)">
<title>G</title>
<polygon fill="#111111" stroke="none" points="-21.6,21.6 -21.6,-941.15 2347.6,-941.15 2347.6,21.6 -21.6,21.6"/>
<!-- App.tsx -->
<g id="node1" class="node">
<title>App.tsx</title>
<path fill="none" stroke="#c6c5fe" d="M57.33,-474.55C57.33,-474.55 7.67,-474.55 7.67,-474.55 3.83,-474.55 0,-470.72 0,-466.89 0,-466.89 0,-459.22 0,-459.22 0,-455.39 3.83,-451.55 7.67,-451.55 7.67,-451.55 57.33,-451.55 57.33,-451.55 61.17,-451.55 65,-455.39 65,-459.22 65,-459.22 65,-466.89 65,-466.89 65,-470.72 61.17,-474.55 57.33,-474.55"/>
<text text-anchor="middle" x="32.5" y="-459.35" font-family="Arial" font-size="14.00" fill="#c6c5fe">App.tsx</text>
</g>
<!-- router/Router.tsx -->
<g id="node2" class="node">
<title>router/Router.tsx</title>
<path fill="none" stroke="#c6c5fe" d="M215.33,-474.55C215.33,-474.55 108.67,-474.55 108.67,-474.55 104.83,-474.55 101,-470.72 101,-466.89 101,-466.89 101,-459.22 101,-459.22 101,-455.39 104.83,-451.55 108.67,-451.55 108.67,-451.55 215.33,-451.55 215.33,-451.55 219.17,-451.55 223,-455.39 223,-459.22 223,-459.22 223,-466.89 223,-466.89 223,-470.72 219.17,-474.55 215.33,-474.55"/>
<text text-anchor="middle" x="162" y="-459.35" font-family="Arial" font-size="14.00" fill="#c6c5fe">router/Router.tsx</text>
</g>
<!-- App.tsx&#45;&gt;router/Router.tsx -->
<g id="edge1" class="edge">
<title>App.tsx&#45;&gt;router/Router.tsx</title>
<path fill="none" stroke="#757575" d="M65.34,-463.05C72.7,-463.05 80.81,-463.05 89.12,-463.05"/>
<polygon fill="#757575" stroke="#757575" points="88.99,-466.55 98.99,-463.05 88.99,-459.55 88.99,-466.55"/>
</g>
<!-- page/Dashboard.tsx -->
<g id="node33" class="node">
<title>page/Dashboard.tsx</title>
<path fill="none" stroke="#c6c5fe" d="M395.33,-474.55C395.33,-474.55 266.67,-474.55 266.67,-474.55 262.83,-474.55 259,-470.72 259,-466.89 259,-466.89 259,-459.22 259,-459.22 259,-455.39 262.83,-451.55 266.67,-451.55 266.67,-451.55 395.33,-451.55 395.33,-451.55 399.17,-451.55 403,-455.39 403,-459.22 403,-459.22 403,-466.89 403,-466.89 403,-470.72 399.17,-474.55 395.33,-474.55"/>
<text text-anchor="middle" x="331" y="-459.35" font-family="Arial" font-size="14.00" fill="#c6c5fe">page/Dashboard.tsx</text>
</g>
<!-- router/Router.tsx&#45;&gt;page/Dashboard.tsx -->
<g id="edge54" class="edge">
<title>router/Router.tsx&#45;&gt;page/Dashboard.tsx</title>
<path fill="none" stroke="#757575" d="M223.29,-463.05C231.1,-463.05 239.21,-463.05 247.3,-463.05"/>
<polygon fill="#757575" stroke="#757575" points="247.19,-466.55 257.19,-463.05 247.19,-459.55 247.19,-466.55"/>
</g>
<!-- api.ts -->
<g id="node3" class="node">
<title>api.ts</title>
<path fill="none" stroke="#c6c5fe" d="M1544.33,-339.55C1544.33,-339.55 1505.67,-339.55 1505.67,-339.55 1501.83,-339.55 1498,-335.72 1498,-331.89 1498,-331.89 1498,-324.22 1498,-324.22 1498,-320.39 1501.83,-316.55 1505.67,-316.55 1505.67,-316.55 1544.33,-316.55 1544.33,-316.55 1548.17,-316.55 1552,-320.39 1552,-324.22 1552,-324.22 1552,-331.89 1552,-331.89 1552,-335.72 1548.17,-339.55 1544.33,-339.55"/>
<text text-anchor="middle" x="1525" y="-324.35" font-family="Arial" font-size="14.00" fill="#c6c5fe">api.ts</text>
</g>
<!-- types/api.d.ts -->
<g id="node4" class="node">
<title>types/api.d.ts</title>
<path fill="none" stroke="#cfffac" d="M2008.83,-339.55C2008.83,-339.55 1923.17,-339.55 1923.17,-339.55 1919.33,-339.55 1915.5,-335.72 1915.5,-331.89 1915.5,-331.89 1915.5,-324.22 1915.5,-324.22 1915.5,-320.39 1919.33,-316.55 1923.17,-316.55 1923.17,-316.55 2008.83,-316.55 2008.83,-316.55 2012.67,-316.55 2016.5,-320.39 2016.5,-324.22 2016.5,-324.22 2016.5,-331.89 2016.5,-331.89 2016.5,-335.72 2012.67,-339.55 2008.83,-339.55"/>
<text text-anchor="middle" x="1966" y="-324.35" font-family="Arial" font-size="14.00" fill="#cfffac">types/api.d.ts</text>
</g>
<!-- api.ts&#45;&gt;types/api.d.ts -->
<g id="edge2" class="edge">
<title>api.ts&#45;&gt;types/api.d.ts</title>
<path fill="none" stroke="#757575" d="M1552.47,-328.05C1621.23,-328.05 1806.88,-328.05 1903.96,-328.05"/>
<polygon fill="#757575" stroke="#757575" points="1903.83,-331.55 1913.83,-328.05 1903.83,-324.55 1903.83,-331.55"/>
</g>
<!-- asset/image/pause.png -->
<g id="node5" class="node">
<title>asset/image/pause.png</title>
<path fill="none" stroke="#cfffac" d="M1092.83,-821.55C1092.83,-821.55 944.17,-821.55 944.17,-821.55 940.33,-821.55 936.5,-817.72 936.5,-813.89 936.5,-813.89 936.5,-806.22 936.5,-806.22 936.5,-802.39 940.33,-798.55 944.17,-798.55 944.17,-798.55 1092.83,-798.55 1092.83,-798.55 1096.67,-798.55 1100.5,-802.39 1100.5,-806.22 1100.5,-806.22 1100.5,-813.89 1100.5,-813.89 1100.5,-817.72 1096.67,-821.55 1092.83,-821.55"/>
<text text-anchor="middle" x="1018.5" y="-806.35" font-family="Arial" font-size="14.00" fill="#cfffac">asset/image/pause.png</text>
</g>
<!-- asset/image/play.png -->
<g id="node6" class="node">
<title>asset/image/play.png</title>
<path fill="none" stroke="#cfffac" d="M1086.33,-780.55C1086.33,-780.55 950.67,-780.55 950.67,-780.55 946.83,-780.55 943,-776.72 943,-772.89 943,-772.89 943,-765.22 943,-765.22 943,-761.39 946.83,-757.55 950.67,-757.55 950.67,-757.55 1086.33,-757.55 1086.33,-757.55 1090.17,-757.55 1094,-761.39 1094,-765.22 1094,-765.22 1094,-772.89 1094,-772.89 1094,-776.72 1090.17,-780.55 1086.33,-780.55"/>
<text text-anchor="middle" x="1018.5" y="-765.35" font-family="Arial" font-size="14.00" fill="#cfffac">asset/image/play.png</text>
</g>
<!-- common/chart.ts -->
<g id="node7" class="node">
<title>common/chart.ts</title>
<path fill="none" stroke="#c6c5fe" d="M2019.33,-179.55C2019.33,-179.55 1912.67,-179.55 1912.67,-179.55 1908.83,-179.55 1905,-175.72 1905,-171.89 1905,-171.89 1905,-164.22 1905,-164.22 1905,-160.39 1908.83,-156.55 1912.67,-156.55 1912.67,-156.55 2019.33,-156.55 2019.33,-156.55 2023.17,-156.55 2027,-160.39 2027,-164.22 2027,-164.22 2027,-171.89 2027,-171.89 2027,-175.72 2023.17,-179.55 2019.33,-179.55"/>
<text text-anchor="middle" x="1966" y="-164.35" font-family="Arial" font-size="14.00" fill="#c6c5fe">common/chart.ts</text>
</g>
<!-- types/chart.d.ts -->
<g id="node8" class="node">
<title>types/chart.d.ts</title>
<path fill="none" stroke="#cfffac" d="M2300.33,-98.55C2300.33,-98.55 2202.67,-98.55 2202.67,-98.55 2198.83,-98.55 2195,-94.72 2195,-90.89 2195,-90.89 2195,-83.22 2195,-83.22 2195,-79.39 2198.83,-75.55 2202.67,-75.55 2202.67,-75.55 2300.33,-75.55 2300.33,-75.55 2304.17,-75.55 2308,-79.39 2308,-83.22 2308,-83.22 2308,-90.89 2308,-90.89 2308,-94.72 2304.17,-98.55 2300.33,-98.55"/>
<text text-anchor="middle" x="2251.5" y="-83.35" font-family="Arial" font-size="14.00" fill="#cfffac">types/chart.d.ts</text>
</g>
<!-- common/chart.ts&#45;&gt;types/chart.d.ts -->
<g id="edge3" class="edge">
<title>common/chart.ts&#45;&gt;types/chart.d.ts</title>
<path fill="none" stroke="#757575" d="M2027.4,-166.4C2061.44,-164.09 2104.35,-158.82 2141,-147.05 2171.29,-137.33 2202.84,-119.03 2224.25,-105.19"/>
<polygon fill="#757575" stroke="#757575" points="2225.93,-108.27 2232.35,-99.84 2222.07,-102.43 2225.93,-108.27"/>
</g>
<!-- common/date.ts -->
<g id="node9" class="node">
<title>common/date.ts</title>
<path fill="none" stroke="#c6c5fe" d="M2017.83,-495.55C2017.83,-495.55 1914.17,-495.55 1914.17,-495.55 1910.33,-495.55 1906.5,-491.72 1906.5,-487.89 1906.5,-487.89 1906.5,-480.22 1906.5,-480.22 1906.5,-476.39 1910.33,-472.55 1914.17,-472.55 1914.17,-472.55 2017.83,-472.55 2017.83,-472.55 2021.67,-472.55 2025.5,-476.39 2025.5,-480.22 2025.5,-480.22 2025.5,-487.89 2025.5,-487.89 2025.5,-491.72 2021.67,-495.55 2017.83,-495.55"/>
<text text-anchor="middle" x="1966" y="-480.35" font-family="Arial" font-size="14.00" fill="#c6c5fe">common/date.ts</text>
</g>
<!-- types/widget.d.ts -->
<g id="node10" class="node">
<title>types/widget.d.ts</title>
<path fill="none" stroke="#cfffac" d="M2305.33,-475.55C2305.33,-475.55 2197.67,-475.55 2197.67,-475.55 2193.83,-475.55 2190,-471.72 2190,-467.89 2190,-467.89 2190,-460.22 2190,-460.22 2190,-456.39 2193.83,-452.55 2197.67,-452.55 2197.67,-452.55 2305.33,-452.55 2305.33,-452.55 2309.17,-452.55 2313,-456.39 2313,-460.22 2313,-460.22 2313,-467.89 2313,-467.89 2313,-471.72 2309.17,-475.55 2305.33,-475.55"/>
<text text-anchor="middle" x="2251.5" y="-460.35" font-family="Arial" font-size="14.00" fill="#cfffac">types/widget.d.ts</text>
</g>
<!-- common/date.ts&#45;&gt;types/widget.d.ts -->
<g id="edge4" class="edge">
<title>common/date.ts&#45;&gt;types/widget.d.ts</title>
<path fill="none" stroke="#757575" d="M2025.74,-479.91C2070.09,-476.78 2131.18,-472.47 2178.48,-469.13"/>
<polygon fill="#757575" stroke="#757575" points="2178.64,-472.63 2188.37,-468.44 2178.15,-465.65 2178.64,-472.63"/>
</g>
<!-- common/widget.ts -->
<g id="node11" class="node">
<title>common/widget.ts</title>
<path fill="none" stroke="#cfffac" d="M2024.33,-259.55C2024.33,-259.55 1907.67,-259.55 1907.67,-259.55 1903.83,-259.55 1900,-255.72 1900,-251.89 1900,-251.89 1900,-244.22 1900,-244.22 1900,-240.39 1903.83,-236.55 1907.67,-236.55 1907.67,-236.55 2024.33,-236.55 2024.33,-236.55 2028.17,-236.55 2032,-240.39 2032,-244.22 2032,-244.22 2032,-251.89 2032,-251.89 2032,-255.72 2028.17,-259.55 2024.33,-259.55"/>
<text text-anchor="middle" x="1966" y="-244.35" font-family="Arial" font-size="14.00" fill="#cfffac">common/widget.ts</text>
</g>
<!-- component/Dashboard/CommonStyle.ts -->
<g id="node12" class="node">
<title>component/Dashboard/CommonStyle.ts</title>
<path fill="none" stroke="#cfffac" d="M1652.33,-698.55C1652.33,-698.55 1397.67,-698.55 1397.67,-698.55 1393.83,-698.55 1390,-694.72 1390,-690.89 1390,-690.89 1390,-683.22 1390,-683.22 1390,-679.39 1393.83,-675.55 1397.67,-675.55 1397.67,-675.55 1652.33,-675.55 1652.33,-675.55 1656.17,-675.55 1660,-679.39 1660,-683.22 1660,-683.22 1660,-690.89 1660,-690.89 1660,-694.72 1656.17,-698.55 1652.33,-698.55"/>
<text text-anchor="middle" x="1525" y="-683.35" font-family="Arial" font-size="14.00" fill="#cfffac">component/Dashboard/CommonStyle.ts</text>
</g>
<!-- component/Dashboard/DashboardHeader.tsx -->
<g id="node13" class="node">
<title>component/Dashboard/DashboardHeader.tsx</title>
<path fill="none" stroke="#c6c5fe" d="M734.33,-698.55C734.33,-698.55 446.67,-698.55 446.67,-698.55 442.83,-698.55 439,-694.72 439,-690.89 439,-690.89 439,-683.22 439,-683.22 439,-679.39 442.83,-675.55 446.67,-675.55 446.67,-675.55 734.33,-675.55 734.33,-675.55 738.17,-675.55 742,-679.39 742,-683.22 742,-683.22 742,-690.89 742,-690.89 742,-694.72 738.17,-698.55 734.33,-698.55"/>
<text text-anchor="middle" x="590.5" y="-683.35" font-family="Arial" font-size="14.00" fill="#c6c5fe">component/Dashboard/DashboardHeader.tsx</text>
</g>
<!-- component/Dashboard/DashboardHeader.tsx&#45;&gt;asset/image/pause.png -->
<g id="edge5" class="edge">
<title>component/Dashboard/DashboardHeader.tsx&#45;&gt;asset/image/pause.png</title>
<path fill="none" stroke="#757575" d="M607.44,-698.79C638.45,-720.92 709.83,-768.41 778,-789.05 825.14,-803.32 879.71,-808.9 924.84,-810.77"/>
<polygon fill="#757575" stroke="#757575" points="924.47,-814.25 934.59,-811.11 924.72,-807.26 924.47,-814.25"/>
</g>
<!-- component/Dashboard/DashboardHeader.tsx&#45;&gt;asset/image/play.png -->
<g id="edge6" class="edge">
<title>component/Dashboard/DashboardHeader.tsx&#45;&gt;asset/image/play.png</title>
<path fill="none" stroke="#757575" d="M620.97,-699.03C657.26,-713.22 721.1,-736.41 778,-748.05 828.23,-758.33 885.4,-763.58 931.29,-766.26"/>
<polygon fill="#757575" stroke="#757575" points="931.01,-769.75 941.19,-766.8 931.39,-762.76 931.01,-769.75"/>
</g>
<!-- component/Dashboard/DashboardHeader/CurrentTime.tsx -->
<g id="node14" class="node">
<title>component/Dashboard/DashboardHeader/CurrentTime.tsx</title>
<path fill="none" stroke="#cfffac" d="M1203.83,-739.55C1203.83,-739.55 833.17,-739.55 833.17,-739.55 829.33,-739.55 825.5,-735.72 825.5,-731.89 825.5,-731.89 825.5,-724.22 825.5,-724.22 825.5,-720.39 829.33,-716.55 833.17,-716.55 833.17,-716.55 1203.83,-716.55 1203.83,-716.55 1207.67,-716.55 1211.5,-720.39 1211.5,-724.22 1211.5,-724.22 1211.5,-731.89 1211.5,-731.89 1211.5,-735.72 1207.67,-739.55 1203.83,-739.55"/>
<text text-anchor="middle" x="1018.5" y="-724.35" font-family="Arial" font-size="14.00" fill="#cfffac">component/Dashboard/DashboardHeader/CurrentTime.tsx</text>
</g>
<!-- component/Dashboard/DashboardHeader.tsx&#45;&gt;component/Dashboard/DashboardHeader/CurrentTime.tsx -->
<g id="edge7" class="edge">
<title>component/Dashboard/DashboardHeader.tsx&#45;&gt;component/Dashboard/DashboardHeader/CurrentTime.tsx</title>
<path fill="none" stroke="#757575" d="M699.94,-699.04C725.53,-701.77 752.72,-704.59 778,-707.05 805.87,-709.77 835.59,-712.5 864.26,-715.06"/>
<polygon fill="#757575" stroke="#757575" points="863.84,-718.54 874.11,-715.94 864.46,-711.56 863.84,-718.54"/>
</g>
<!-- component/Dashboard/DashboardHeader/DatePickerArea.tsx -->
<g id="node15" class="node">
<title>component/Dashboard/DashboardHeader/DatePickerArea.tsx</title>
<path fill="none" stroke="#c6c5fe" d="M1214.33,-698.55C1214.33,-698.55 822.67,-698.55 822.67,-698.55 818.83,-698.55 815,-694.72 815,-690.89 815,-690.89 815,-683.22 815,-683.22 815,-679.39 818.83,-675.55 822.67,-675.55 822.67,-675.55 1214.33,-675.55 1214.33,-675.55 1218.17,-675.55 1222,-679.39 1222,-683.22 1222,-683.22 1222,-690.89 1222,-690.89 1222,-694.72 1218.17,-698.55 1214.33,-698.55"/>
<text text-anchor="middle" x="1018.5" y="-683.35" font-family="Arial" font-size="14.00" fill="#c6c5fe">component/Dashboard/DashboardHeader/DatePickerArea.tsx</text>
</g>
<!-- component/Dashboard/DashboardHeader.tsx&#45;&gt;component/Dashboard/DashboardHeader/DatePickerArea.tsx -->
<g id="edge8" class="edge">
<title>component/Dashboard/DashboardHeader.tsx&#45;&gt;component/Dashboard/DashboardHeader/DatePickerArea.tsx</title>
<path fill="none" stroke="#757575" d="M742.29,-687.05C762.08,-687.05 782.66,-687.05 803.25,-687.05"/>
<polygon fill="#757575" stroke="#757575" points="803.17,-690.55 813.17,-687.05 803.17,-683.55 803.17,-690.55"/>
</g>
<!-- component/Dashboard/DashboardHeader/SelectRealTimeRangeArea.tsx -->
<g id="node16" class="node">
<title>component/Dashboard/DashboardHeader/SelectRealTimeRangeArea.tsx</title>
<path fill="none" stroke="#c6c5fe" d="M1251.33,-637.55C1251.33,-637.55 785.67,-637.55 785.67,-637.55 781.83,-637.55 778,-633.72 778,-629.89 778,-629.89 778,-622.22 778,-622.22 778,-618.39 781.83,-614.55 785.67,-614.55 785.67,-614.55 1251.33,-614.55 1251.33,-614.55 1255.17,-614.55 1259,-618.39 1259,-622.22 1259,-622.22 1259,-629.89 1259,-629.89 1259,-633.72 1255.17,-637.55 1251.33,-637.55"/>
<text text-anchor="middle" x="1018.5" y="-622.35" font-family="Arial" font-size="14.00" fill="#c6c5fe">component/Dashboard/DashboardHeader/SelectRealTimeRangeArea.tsx</text>
</g>
<!-- component/Dashboard/DashboardHeader.tsx&#45;&gt;component/Dashboard/DashboardHeader/SelectRealTimeRangeArea.tsx -->
<g id="edge9" class="edge">
<title>component/Dashboard/DashboardHeader.tsx&#45;&gt;component/Dashboard/DashboardHeader/SelectRealTimeRangeArea.tsx</title>
<path fill="none" stroke="#757575" d="M675.16,-675.07C746.37,-664.88 848.64,-650.23 922.84,-639.61"/>
<polygon fill="#757575" stroke="#757575" points="923.13,-643.1 932.54,-638.22 922.14,-636.17 923.13,-643.1"/>
</g>
<!-- store/DashboardProvider.tsx -->
<g id="node17" class="node">
<title>store/DashboardProvider.tsx</title>
<path fill="none" stroke="#c6c5fe" d="M1615.83,-495.55C1615.83,-495.55 1434.17,-495.55 1434.17,-495.55 1430.33,-495.55 1426.5,-491.72 1426.5,-487.89 1426.5,-487.89 1426.5,-480.22 1426.5,-480.22 1426.5,-476.39 1430.33,-472.55 1434.17,-472.55 1434.17,-472.55 1615.83,-472.55 1615.83,-472.55 1619.67,-472.55 1623.5,-476.39 1623.5,-480.22 1623.5,-480.22 1623.5,-487.89 1623.5,-487.89 1623.5,-491.72 1619.67,-495.55 1615.83,-495.55"/>
<text text-anchor="middle" x="1525" y="-480.35" font-family="Arial" font-size="14.00" fill="#c6c5fe">store/DashboardProvider.tsx</text>
</g>
<!-- component/Dashboard/DashboardHeader.tsx&#45;&gt;store/DashboardProvider.tsx -->
<g id="edge10" class="edge">
<title>component/Dashboard/DashboardHeader.tsx&#45;&gt;store/DashboardProvider.tsx</title>
<path fill="none" stroke="#757575" d="M614.13,-675.14C648.6,-657.44 716.74,-624.24 778,-605.05 1001.42,-535.06 1063.17,-536.73 1295,-504.05 1334.02,-498.55 1377.02,-494.32 1415.11,-491.19"/>
<polygon fill="#757575" stroke="#757575" points="1415.04,-494.71 1424.73,-490.42 1414.48,-487.73 1415.04,-494.71"/>
</g>
<!-- component/Dashboard/DashboardHeader/DatePickerArea.tsx&#45;&gt;common/date.ts -->
<g id="edge11" class="edge">
<title>component/Dashboard/DashboardHeader/DatePickerArea.tsx&#45;&gt;common/date.ts</title>
<path fill="none" stroke="#757575" d="M1222.24,-692.66C1234.99,-696.45 1247.36,-701.19 1259,-707.05 1280.66,-717.97 1272.91,-738.05 1295,-748.05 1388.12,-790.21 1662.93,-792.46 1755,-748.05 1862.38,-696.26 1931.77,-559.91 1955.69,-506.22"/>
<polygon fill="#757575" stroke="#757575" points="1958.84,-507.76 1959.62,-497.2 1952.42,-504.97 1958.84,-507.76"/>
</g>
<!-- component/Dashboard/DashboardHeader/DatePickerArea.tsx&#45;&gt;types/widget.d.ts -->
<g id="edge18" class="edge">
<title>component/Dashboard/DashboardHeader/DatePickerArea.tsx&#45;&gt;types/widget.d.ts</title>
<path fill="none" stroke="#757575" d="M1077.21,-675.07C1130.35,-667.56 1208.41,-665.93 1259,-707.05 1302.54,-742.44 1250.02,-794.51 1295,-828.05 1376.94,-889.17 1657.53,-858.85 1755,-828.05 1973.23,-759.09 2173.5,-550.3 2232.8,-484.29"/>
<polygon fill="#757575" stroke="#757575" points="2235.18,-486.88 2239.21,-477.08 2229.95,-482.22 2235.18,-486.88"/>
</g>
<!-- component/Dashboard/DashboardHeader/DatePickerArea.tsx&#45;&gt;component/Dashboard/CommonStyle.ts -->
<g id="edge12" class="edge">
<title>component/Dashboard/DashboardHeader/DatePickerArea.tsx&#45;&gt;component/Dashboard/CommonStyle.ts</title>
<path fill="none" stroke="#757575" d="M1222.16,-687.05C1274.39,-687.05 1329.57,-687.05 1378.27,-687.05"/>
<polygon fill="#757575" stroke="#757575" points="1378.01,-690.55 1388.01,-687.05 1378.01,-683.55 1378.01,-690.55"/>
</g>
<!-- component/Dashboard/DashboardHeader/DatePickerArea.tsx&#45;&gt;store/DashboardProvider.tsx -->
<g id="edge17" class="edge">
<title>component/Dashboard/DashboardHeader/DatePickerArea.tsx&#45;&gt;store/DashboardProvider.tsx</title>
<path fill="none" stroke="#757575" d="M1212.46,-675.07C1229.53,-668.02 1245.45,-658.58 1259,-646.05 1306.81,-601.86 1245.41,-546.24 1295,-504.05 1338.43,-467.11 1404.71,-465.17 1454.81,-470.68"/>
<polygon fill="#757575" stroke="#757575" points="1454.35,-474.15 1464.7,-471.9 1455.21,-467.2 1454.35,-474.15"/>
</g>
<!-- component/Dashboard/DashboardHeader/DateBox.tsx -->
<g id="node18" class="node">
<title>component/Dashboard/DashboardHeader/DateBox.tsx</title>
<path fill="none" stroke="#cfffac" d="M1698.33,-819.55C1698.33,-819.55 1351.67,-819.55 1351.67,-819.55 1347.83,-819.55 1344,-815.72 1344,-811.89 1344,-811.89 1344,-804.22 1344,-804.22 1344,-800.39 1347.83,-796.55 1351.67,-796.55 1351.67,-796.55 1698.33,-796.55 1698.33,-796.55 1702.17,-796.55 1706,-800.39 1706,-804.22 1706,-804.22 1706,-811.89 1706,-811.89 1706,-815.72 1702.17,-819.55 1698.33,-819.55"/>
<text text-anchor="middle" x="1525" y="-804.35" font-family="Arial" font-size="14.00" fill="#cfffac">component/Dashboard/DashboardHeader/DateBox.tsx</text>
</g>
<!-- component/Dashboard/DashboardHeader/DatePickerArea.tsx&#45;&gt;component/Dashboard/DashboardHeader/DateBox.tsx -->
<g id="edge13" class="edge">
<title>component/Dashboard/DashboardHeader/DatePickerArea.tsx&#45;&gt;component/Dashboard/DashboardHeader/DateBox.tsx</title>
<path fill="none" stroke="#757575" d="M1095.02,-675.06C1145.69,-671.12 1211.58,-674.38 1259,-707.05 1289.45,-728.03 1264.87,-760.62 1295,-782.05 1306.58,-790.29 1319.35,-796.74 1332.76,-801.74"/>
<polygon fill="#757575" stroke="#757575" points="1331.62,-805.05 1342.21,-804.96 1333.88,-798.42 1331.62,-805.05"/>
</g>
<!-- component/common/DatePicker.tsx -->
<g id="node19" class="node">
<title>component/common/DatePicker.tsx</title>
<path fill="none" stroke="#c6c5fe" d="M1638.33,-899.55C1638.33,-899.55 1411.67,-899.55 1411.67,-899.55 1407.83,-899.55 1404,-895.72 1404,-891.89 1404,-891.89 1404,-884.22 1404,-884.22 1404,-880.39 1407.83,-876.55 1411.67,-876.55 1411.67,-876.55 1638.33,-876.55 1638.33,-876.55 1642.17,-876.55 1646,-880.39 1646,-884.22 1646,-884.22 1646,-891.89 1646,-891.89 1646,-895.72 1642.17,-899.55 1638.33,-899.55"/>
<text text-anchor="middle" x="1525" y="-884.35" font-family="Arial" font-size="14.00" fill="#c6c5fe">component/common/DatePicker.tsx</text>
</g>
<!-- component/Dashboard/DashboardHeader/DatePickerArea.tsx&#45;&gt;component/common/DatePicker.tsx -->
<g id="edge14" class="edge">
<title>component/Dashboard/DashboardHeader/DatePickerArea.tsx&#45;&gt;component/common/DatePicker.tsx</title>
<path fill="none" stroke="#757575" d="M1073.22,-675.08C1126.81,-666.52 1208.26,-663.18 1259,-707.05 1312.5,-753.31 1242.2,-815.01 1295,-862.05 1332.96,-895.87 1389.65,-902.53 1437.13,-900.65"/>
<polygon fill="#757575" stroke="#757575" points="1437.05,-904.16 1446.85,-900.12 1436.67,-897.17 1437.05,-904.16"/>
</g>
<!-- hook/useBoolean.tsx -->
<g id="node20" class="node">
<title>hook/useBoolean.tsx</title>
<path fill="none" stroke="#cfffac" d="M1591.83,-739.55C1591.83,-739.55 1458.17,-739.55 1458.17,-739.55 1454.33,-739.55 1450.5,-735.72 1450.5,-731.89 1450.5,-731.89 1450.5,-724.22 1450.5,-724.22 1450.5,-720.39 1454.33,-716.55 1458.17,-716.55 1458.17,-716.55 1591.83,-716.55 1591.83,-716.55 1595.67,-716.55 1599.5,-720.39 1599.5,-724.22 1599.5,-724.22 1599.5,-731.89 1599.5,-731.89 1599.5,-735.72 1595.67,-739.55 1591.83,-739.55"/>
<text text-anchor="middle" x="1525" y="-724.35" font-family="Arial" font-size="14.00" fill="#cfffac">hook/useBoolean.tsx</text>
</g>
<!-- component/Dashboard/DashboardHeader/DatePickerArea.tsx&#45;&gt;hook/useBoolean.tsx -->
<g id="edge15" class="edge">
<title>component/Dashboard/DashboardHeader/DatePickerArea.tsx&#45;&gt;hook/useBoolean.tsx</title>
<path fill="none" stroke="#757575" d="M1167.12,-699.05C1255.63,-706.24 1365.03,-715.13 1439.2,-721.16"/>
<polygon fill="#757575" stroke="#757575" points="1438.58,-724.62 1448.83,-721.94 1439.15,-717.65 1438.58,-724.62"/>
</g>
<!-- hook/useOutsideClick.tsx -->
<g id="node21" class="node">
<title>hook/useOutsideClick.tsx</title>
<path fill="none" stroke="#cfffac" d="M1605.33,-657.55C1605.33,-657.55 1444.67,-657.55 1444.67,-657.55 1440.83,-657.55 1437,-653.72 1437,-649.89 1437,-649.89 1437,-642.22 1437,-642.22 1437,-638.39 1440.83,-634.55 1444.67,-634.55 1444.67,-634.55 1605.33,-634.55 1605.33,-634.55 1609.17,-634.55 1613,-638.39 1613,-642.22 1613,-642.22 1613,-649.89 1613,-649.89 1613,-653.72 1609.17,-657.55 1605.33,-657.55"/>
<text text-anchor="middle" x="1525" y="-642.35" font-family="Arial" font-size="14.00" fill="#cfffac">hook/useOutsideClick.tsx</text>
</g>
<!-- component/Dashboard/DashboardHeader/DatePickerArea.tsx&#45;&gt;hook/useOutsideClick.tsx -->
<g id="edge16" class="edge">
<title>component/Dashboard/DashboardHeader/DatePickerArea.tsx&#45;&gt;hook/useOutsideClick.tsx</title>
<path fill="none" stroke="#757575" d="M1167.12,-675.06C1250.37,-668.29 1352.11,-660.02 1425.63,-654.05"/>
<polygon fill="#757575" stroke="#757575" points="1425.53,-657.57 1435.21,-653.27 1424.96,-650.59 1425.53,-657.57"/>
</g>
<!-- component/Dashboard/DashboardHeader/SelectRealTimeRangeArea.tsx&#45;&gt;types/widget.d.ts -->
<g id="edge25" class="edge">
<title>component/Dashboard/DashboardHeader/SelectRealTimeRangeArea.tsx&#45;&gt;types/widget.d.ts</title>
<path fill="none" stroke="#757575" d="M1259.28,-622.39C1403.47,-617.86 1590.36,-607.88 1755,-586.05 1928.86,-563 1972.44,-552.48 2141,-504.05 2164.58,-497.28 2190.38,-487.95 2211.01,-480.01"/>
<polygon fill="#757575" stroke="#757575" points="2212.13,-483.33 2220.18,-476.43 2209.59,-476.8 2212.13,-483.33"/>
</g>
<!-- component/Dashboard/DashboardHeader/SelectRealTimeRangeArea.tsx&#45;&gt;component/Dashboard/CommonStyle.ts -->
<g id="edge19" class="edge">
<title>component/Dashboard/DashboardHeader/SelectRealTimeRangeArea.tsx&#45;&gt;component/Dashboard/CommonStyle.ts</title>
<path fill="none" stroke="#757575" d="M1094.49,-638.03C1149.81,-646.6 1226.97,-658 1295,-666.05 1321.92,-669.24 1350.67,-672.21 1378.38,-674.86"/>
<polygon fill="#757575" stroke="#757575" points="1377.98,-678.34 1388.26,-675.8 1378.64,-671.37 1377.98,-678.34"/>
</g>
<!-- component/Dashboard/DashboardHeader/SelectRealTimeRangeArea.tsx&#45;&gt;store/DashboardProvider.tsx -->
<g id="edge24" class="edge">
<title>component/Dashboard/DashboardHeader/SelectRealTimeRangeArea.tsx&#45;&gt;store/DashboardProvider.tsx</title>
<path fill="none" stroke="#757575" d="M1118.2,-614.08C1164.36,-604.67 1218.04,-587.9 1259,-558.05 1282.31,-541.07 1270.19,-518.76 1295,-504.05 1330.46,-483.04 1374.59,-475.72 1414.62,-474.48"/>
<polygon fill="#757575" stroke="#757575" points="1414.61,-477.98 1424.55,-474.31 1414.49,-470.98 1414.61,-477.98"/>
</g>
<!-- component/Dashboard/DashboardHeader/SelectRealTimeRangeArea.tsx&#45;&gt;hook/useBoolean.tsx -->
<g id="edge22" class="edge">
<title>component/Dashboard/DashboardHeader/SelectRealTimeRangeArea.tsx&#45;&gt;hook/useBoolean.tsx</title>
<path fill="none" stroke="#757575" d="M1183.37,-638.03C1209.71,-644.23 1235.89,-653.19 1259,-666.05 1280.19,-677.85 1273.39,-696.05 1295,-707.05 1338.86,-729.38 1393.58,-735.07 1438.53,-734.98"/>
<polygon fill="#757575" stroke="#757575" points="1438.56,-738.48 1448.52,-734.85 1438.47,-731.48 1438.56,-738.48"/>
</g>
<!-- component/Dashboard/DashboardHeader/SelectRealTimeRangeArea.tsx&#45;&gt;hook/useOutsideClick.tsx -->
<g id="edge23" class="edge">
<title>component/Dashboard/DashboardHeader/SelectRealTimeRangeArea.tsx&#45;&gt;hook/useOutsideClick.tsx</title>
<path fill="none" stroke="#757575" d="M1259.19,-635.55C1317.92,-637.88 1377.55,-640.25 1425.32,-642.14"/>
<polygon fill="#757575" stroke="#757575" points="1424.93,-645.63 1435.06,-642.53 1425.21,-638.63 1424.93,-645.63"/>
</g>
<!-- component/Dashboard/DashboardHeader/RealTime.tsx -->
<g id="node22" class="node">
<title>component/Dashboard/DashboardHeader/RealTime.tsx</title>
<path fill="none" stroke="#cfffac" d="M1701.33,-536.55C1701.33,-536.55 1348.67,-536.55 1348.67,-536.55 1344.83,-536.55 1341,-532.72 1341,-528.89 1341,-528.89 1341,-521.22 1341,-521.22 1341,-517.39 1344.83,-513.55 1348.67,-513.55 1348.67,-513.55 1701.33,-513.55 1701.33,-513.55 1705.17,-513.55 1709,-517.39 1709,-521.22 1709,-521.22 1709,-528.89 1709,-528.89 1709,-532.72 1705.17,-536.55 1701.33,-536.55"/>
<text text-anchor="middle" x="1525" y="-521.35" font-family="Arial" font-size="14.00" fill="#cfffac">component/Dashboard/DashboardHeader/RealTime.tsx</text>
</g>
<!-- component/Dashboard/DashboardHeader/SelectRealTimeRangeArea.tsx&#45;&gt;component/Dashboard/DashboardHeader/RealTime.tsx -->
<g id="edge20" class="edge">
<title>component/Dashboard/DashboardHeader/SelectRealTimeRangeArea.tsx&#45;&gt;component/Dashboard/DashboardHeader/RealTime.tsx</title>
<path fill="none" stroke="#757575" d="M1065.25,-614.08C1113.66,-601.18 1192.14,-579.59 1259,-558.05 1275.19,-552.84 1278.39,-548.71 1295,-545.05 1306.15,-542.6 1317.67,-540.44 1329.33,-538.55"/>
<polygon fill="#757575" stroke="#757575" points="1329.71,-542.03 1339.05,-537.04 1328.64,-535.11 1329.71,-542.03"/>
</g>
<!-- component/Dashboard/DashboardHeader/SelectRealTimeListItem.tsx -->
<g id="node23" class="node">
<title>component/Dashboard/DashboardHeader/SelectRealTimeListItem.tsx</title>
<path fill="none" stroke="#cfffac" d="M1747.33,-577.55C1747.33,-577.55 1302.67,-577.55 1302.67,-577.55 1298.83,-577.55 1295,-573.72 1295,-569.89 1295,-569.89 1295,-562.22 1295,-562.22 1295,-558.39 1298.83,-554.55 1302.67,-554.55 1302.67,-554.55 1747.33,-554.55 1747.33,-554.55 1751.17,-554.55 1755,-558.39 1755,-562.22 1755,-562.22 1755,-569.89 1755,-569.89 1755,-573.72 1751.17,-577.55 1747.33,-577.55"/>
<text text-anchor="middle" x="1525" y="-562.35" font-family="Arial" font-size="14.00" fill="#cfffac">component/Dashboard/DashboardHeader/SelectRealTimeListItem.tsx</text>
</g>
<!-- component/Dashboard/DashboardHeader/SelectRealTimeRangeArea.tsx&#45;&gt;component/Dashboard/DashboardHeader/SelectRealTimeListItem.tsx -->
<g id="edge21" class="edge">
<title>component/Dashboard/DashboardHeader/SelectRealTimeRangeArea.tsx&#45;&gt;component/Dashboard/DashboardHeader/SelectRealTimeListItem.tsx</title>
<path fill="none" stroke="#757575" d="M1114.78,-614.06C1167.82,-607.45 1235.06,-599.15 1295,-592.05 1330.76,-587.82 1369.69,-583.34 1405.13,-579.33"/>
<polygon fill="#757575" stroke="#757575" points="1405.46,-582.81 1415,-578.21 1404.67,-575.86 1405.46,-582.81"/>
</g>
<!-- store/DashboardProvider.tsx&#45;&gt;common/date.ts -->
<g id="edge55" class="edge">
<title>store/DashboardProvider.tsx&#45;&gt;common/date.ts</title>
<path fill="none" stroke="#757575" d="M1623.97,-484.05C1706.13,-484.05 1821.45,-484.05 1894.69,-484.05"/>
<polygon fill="#757575" stroke="#757575" points="1894.56,-487.55 1904.56,-484.05 1894.56,-480.55 1894.56,-487.55"/>
</g>
<!-- component/common/DatePicker/ListPicker.tsx -->
<g id="node31" class="node">
<title>component/common/DatePicker/ListPicker.tsx</title>
<path fill="none" stroke="#c6c5fe" d="M2112.33,-899.55C2112.33,-899.55 1819.67,-899.55 1819.67,-899.55 1815.83,-899.55 1812,-895.72 1812,-891.89 1812,-891.89 1812,-884.22 1812,-884.22 1812,-880.39 1815.83,-876.55 1819.67,-876.55 1819.67,-876.55 2112.33,-876.55 2112.33,-876.55 2116.17,-876.55 2120,-880.39 2120,-884.22 2120,-884.22 2120,-891.89 2120,-891.89 2120,-895.72 2116.17,-899.55 2112.33,-899.55"/>
<text text-anchor="middle" x="1966" y="-884.35" font-family="Arial" font-size="14.00" fill="#c6c5fe">component/common/DatePicker/ListPicker.tsx</text>
</g>
<!-- component/common/DatePicker.tsx&#45;&gt;component/common/DatePicker/ListPicker.tsx -->
<g id="edge47" class="edge">
<title>component/common/DatePicker.tsx&#45;&gt;component/common/DatePicker/ListPicker.tsx</title>
<path fill="none" stroke="#757575" d="M1646.25,-888.05C1693.69,-888.05 1748.95,-888.05 1800.02,-888.05"/>
<polygon fill="#757575" stroke="#757575" points="1800.02,-891.55 1810.02,-888.05 1800.02,-884.55 1800.02,-891.55"/>
</g>
<!-- types/datePicker.d.ts -->
<g id="node32" class="node">
<title>types/datePicker.d.ts</title>
<path fill="none" stroke="#cfffac" d="M2318.33,-919.55C2318.33,-919.55 2184.67,-919.55 2184.67,-919.55 2180.83,-919.55 2177,-915.72 2177,-911.89 2177,-911.89 2177,-904.22 2177,-904.22 2177,-900.39 2180.83,-896.55 2184.67,-896.55 2184.67,-896.55 2318.33,-896.55 2318.33,-896.55 2322.17,-896.55 2326,-900.39 2326,-904.22 2326,-904.22 2326,-911.89 2326,-911.89 2326,-915.72 2322.17,-919.55 2318.33,-919.55"/>
<text text-anchor="middle" x="2251.5" y="-904.35" font-family="Arial" font-size="14.00" fill="#cfffac">types/datePicker.d.ts</text>
</g>
<!-- component/common/DatePicker.tsx&#45;&gt;types/datePicker.d.ts -->
<g id="edge48" class="edge">
<title>component/common/DatePicker.tsx&#45;&gt;types/datePicker.d.ts</title>
<path fill="none" stroke="#757575" d="M1646.26,-899.6C1691.58,-903.43 1743.62,-907.18 1791,-909.05 1946.43,-915.2 1985.45,-909.76 2141,-909.05 2148.82,-909.02 2156.95,-908.97 2165.09,-908.91"/>
<polygon fill="#757575" stroke="#757575" points="2165.09,-912.41 2175.07,-908.83 2165.04,-905.41 2165.09,-912.41"/>
</g>
<!-- component/Widget.tsx -->
<g id="node24" class="node">
<title>component/Widget.tsx</title>
<path fill="none" stroke="#c6c5fe" d="M1090.33,-299.55C1090.33,-299.55 946.67,-299.55 946.67,-299.55 942.83,-299.55 939,-295.72 939,-291.89 939,-291.89 939,-284.22 939,-284.22 939,-280.39 942.83,-276.55 946.67,-276.55 946.67,-276.55 1090.33,-276.55 1090.33,-276.55 1094.17,-276.55 1098,-280.39 1098,-284.22 1098,-284.22 1098,-291.89 1098,-291.89 1098,-295.72 1094.17,-299.55 1090.33,-299.55"/>
<text text-anchor="middle" x="1018.5" y="-284.35" font-family="Arial" font-size="14.00" fill="#c6c5fe">component/Widget.tsx</text>
</g>
<!-- component/Widget.tsx&#45;&gt;api.ts -->
<g id="edge26" class="edge">
<title>component/Widget.tsx&#45;&gt;api.ts</title>
<path fill="none" stroke="#757575" d="M1098.33,-294.3C1208.49,-303.04 1404.19,-318.55 1486.2,-325.06"/>
<polygon fill="#757575" stroke="#757575" points="1485.92,-328.54 1496.17,-325.85 1486.47,-321.57 1485.92,-328.54"/>
</g>
<!-- component/Widget.tsx&#45;&gt;types/api.d.ts -->
<g id="edge34" class="edge">
<title>component/Widget.tsx&#45;&gt;types/api.d.ts</title>
<path fill="none" stroke="#757575" d="M1098.5,-288.18C1233.28,-288.83 1516.29,-292.05 1755,-307.05 1805.14,-310.2 1861.81,-316 1903.63,-320.71"/>
<polygon fill="#757575" stroke="#757575" points="1903.18,-324.18 1913.51,-321.83 1903.97,-317.23 1903.18,-324.18"/>
</g>
<!-- component/Widget.tsx&#45;&gt;common/date.ts -->
<g id="edge27" class="edge">
<title>component/Widget.tsx&#45;&gt;common/date.ts</title>
<path fill="none" stroke="#757575" d="M1048.75,-299.96C1098.51,-319.79 1203.2,-359.59 1295,-382.05 1510.56,-434.79 1772.18,-465.19 1894.97,-477.53"/>
<polygon fill="#757575" stroke="#757575" points="1894.26,-480.98 1904.56,-478.49 1894.95,-474.01 1894.26,-480.98"/>
</g>
<!-- component/Widget.tsx&#45;&gt;types/widget.d.ts -->
<g id="edge35" class="edge">
<title>component/Widget.tsx&#45;&gt;types/widget.d.ts</title>
<path fill="none" stroke="#757575" d="M1064.96,-300.02C1119.29,-313.83 1213.13,-336.17 1295,-348.05 1668.85,-402.3 1771.73,-350.42 2141,-430.05 2162.9,-434.77 2186.7,-441.92 2206.51,-448.44"/>
<polygon fill="#757575" stroke="#757575" points="2205.33,-451.73 2215.93,-451.6 2207.56,-445.1 2205.33,-451.73"/>
</g>
<!-- component/Widget.tsx&#45;&gt;common/widget.ts -->
<g id="edge28" class="edge">
<title>component/Widget.tsx&#45;&gt;common/widget.ts</title>
<path fill="none" stroke="#757575" d="M1060.11,-276.14C1113.44,-261.17 1210.27,-236.32 1295,-227.05 1498.23,-204.82 1550.81,-216.87 1755,-227.05 1799.39,-229.27 1848.87,-234.1 1888.64,-238.57"/>
<polygon fill="#757575" stroke="#757575" points="1888.02,-242.02 1898.35,-239.68 1888.81,-235.07 1888.02,-242.02"/>
</g>
<!-- component/Widget.tsx&#45;&gt;store/DashboardProvider.tsx -->
<g id="edge33" class="edge">
<title>component/Widget.tsx&#45;&gt;store/DashboardProvider.tsx</title>
<path fill="none" stroke="#757575" d="M1041.07,-300C1086.78,-324.93 1197.2,-383.28 1295,-420.05 1349.61,-440.59 1413.73,-457.96 1460.21,-469.4"/>
<polygon fill="#757575" stroke="#757575" points="1459.31,-472.78 1469.86,-471.75 1460.97,-465.98 1459.31,-472.78"/>
</g>
<!-- component/Widget/WidgetModal.tsx -->
<g id="node25" class="node">
<title>component/Widget/WidgetModal.tsx</title>
<path fill="none" stroke="#c6c5fe" d="M1640.83,-259.55C1640.83,-259.55 1409.17,-259.55 1409.17,-259.55 1405.33,-259.55 1401.5,-255.72 1401.5,-251.89 1401.5,-251.89 1401.5,-244.22 1401.5,-244.22 1401.5,-240.39 1405.33,-236.55 1409.17,-236.55 1409.17,-236.55 1640.83,-236.55 1640.83,-236.55 1644.67,-236.55 1648.5,-240.39 1648.5,-244.22 1648.5,-244.22 1648.5,-251.89 1648.5,-251.89 1648.5,-255.72 1644.67,-259.55 1640.83,-259.55"/>
<text text-anchor="middle" x="1525" y="-244.35" font-family="Arial" font-size="14.00" fill="#c6c5fe">component/Widget/WidgetModal.tsx</text>
</g>
<!-- component/Widget.tsx&#45;&gt;component/Widget/WidgetModal.tsx -->
<g id="edge29" class="edge">
<title>component/Widget.tsx&#45;&gt;component/Widget/WidgetModal.tsx</title>
<path fill="none" stroke="#757575" d="M1098.33,-281.8C1176.22,-275.63 1296.88,-266.06 1389.87,-258.69"/>
<polygon fill="#757575" stroke="#757575" points="1389.87,-262.2 1399.56,-257.92 1389.32,-255.22 1389.87,-262.2"/>
</g>
<!-- component/chart/BarChart.tsx -->
<g id="node26" class="node">
<title>component/chart/BarChart.tsx</title>
<path fill="none" stroke="#c6c5fe" d="M1618.83,-179.55C1618.83,-179.55 1431.17,-179.55 1431.17,-179.55 1427.33,-179.55 1423.5,-175.72 1423.5,-171.89 1423.5,-171.89 1423.5,-164.22 1423.5,-164.22 1423.5,-160.39 1427.33,-156.55 1431.17,-156.55 1431.17,-156.55 1618.83,-156.55 1618.83,-156.55 1622.67,-156.55 1626.5,-160.39 1626.5,-164.22 1626.5,-164.22 1626.5,-171.89 1626.5,-171.89 1626.5,-175.72 1622.67,-179.55 1618.83,-179.55"/>
<text text-anchor="middle" x="1525" y="-164.35" font-family="Arial" font-size="14.00" fill="#c6c5fe">component/chart/BarChart.tsx</text>
</g>
<!-- component/Widget.tsx&#45;&gt;component/chart/BarChart.tsx -->
<g id="edge30" class="edge">
<title>component/Widget.tsx&#45;&gt;component/chart/BarChart.tsx</title>
<path fill="none" stroke="#757575" d="M1047.87,-276.09C1097.17,-255.81 1202.3,-214.87 1295,-194.05 1332.75,-185.57 1374.66,-179.79 1412.2,-175.88"/>
<polygon fill="#757575" stroke="#757575" points="1412.07,-179.41 1421.67,-174.92 1411.37,-172.44 1412.07,-179.41"/>
</g>
<!-- component/chart/InformaticsChart.tsx -->
<g id="node27" class="node">
<title>component/chart/InformaticsChart.tsx</title>
<path fill="none" stroke="#c6c5fe" d="M1643.33,-58.55C1643.33,-58.55 1406.67,-58.55 1406.67,-58.55 1402.83,-58.55 1399,-54.72 1399,-50.89 1399,-50.89 1399,-43.22 1399,-43.22 1399,-39.39 1402.83,-35.55 1406.67,-35.55 1406.67,-35.55 1643.33,-35.55 1643.33,-35.55 1647.17,-35.55 1651,-39.39 1651,-43.22 1651,-43.22 1651,-50.89 1651,-50.89 1651,-54.72 1647.17,-58.55 1643.33,-58.55"/>
<text text-anchor="middle" x="1525" y="-43.35" font-family="Arial" font-size="14.00" fill="#c6c5fe">component/chart/InformaticsChart.tsx</text>
</g>
<!-- component/Widget.tsx&#45;&gt;component/chart/InformaticsChart.tsx -->
<g id="edge31" class="edge">
<title>component/Widget.tsx&#45;&gt;component/chart/InformaticsChart.tsx</title>
<path fill="none" stroke="#757575" d="M1033.71,-276.13C1072.81,-243.92 1186.29,-154.34 1295,-106.05 1341.78,-85.27 1397.32,-70.74 1441.98,-61.3"/>
<polygon fill="#757575" stroke="#757575" points="1442.52,-64.76 1451.61,-59.31 1441.11,-57.9 1442.52,-64.76"/>
</g>
<!-- component/chart/LineChart.tsx -->
<g id="node28" class="node">
<title>component/chart/LineChart.tsx</title>
<path fill="none" stroke="#c6c5fe" d="M1621.83,-138.55C1621.83,-138.55 1428.17,-138.55 1428.17,-138.55 1424.33,-138.55 1420.5,-134.72 1420.5,-130.89 1420.5,-130.89 1420.5,-123.22 1420.5,-123.22 1420.5,-119.39 1424.33,-115.55 1428.17,-115.55 1428.17,-115.55 1621.83,-115.55 1621.83,-115.55 1625.67,-115.55 1629.5,-119.39 1629.5,-123.22 1629.5,-123.22 1629.5,-130.89 1629.5,-130.89 1629.5,-134.72 1625.67,-138.55 1621.83,-138.55"/>
<text text-anchor="middle" x="1525" y="-123.35" font-family="Arial" font-size="14.00" fill="#c6c5fe">component/chart/LineChart.tsx</text>
</g>
<!-- component/Widget.tsx&#45;&gt;component/chart/LineChart.tsx -->
<g id="edge32" class="edge">
<title>component/Widget.tsx&#45;&gt;component/chart/LineChart.tsx</title>
<path fill="none" stroke="#757575" d="M1036.87,-276.09C1078.91,-247.85 1190.44,-177.13 1295,-147.05 1331.23,-136.63 1371.91,-131.18 1408.82,-128.44"/>
<polygon fill="#757575" stroke="#757575" points="1408.89,-131.95 1418.64,-127.78 1408.42,-124.96 1408.89,-131.95"/>
</g>
<!-- component/Widget/WidgetModal.tsx&#45;&gt;types/widget.d.ts -->
<g id="edge37" class="edge">
<title>component/Widget/WidgetModal.tsx&#45;&gt;types/widget.d.ts</title>
<path fill="none" stroke="#757575" d="M1648.75,-257.18C1822.11,-270.45 2120.07,-294.83 2141,-307.05 2194.11,-338.08 2227.66,-406.3 2242.17,-441.72"/>
<polygon fill="#757575" stroke="#757575" points="2238.89,-442.95 2245.81,-450.97 2245.41,-440.38 2238.89,-442.95"/>
</g>
<!-- component/Widget/WidgetModal.tsx&#45;&gt;common/widget.ts -->
<g id="edge36" class="edge">
<title>component/Widget/WidgetModal.tsx&#45;&gt;common/widget.ts</title>
<path fill="none" stroke="#757575" d="M1648.87,-248.05C1725.72,-248.05 1822.32,-248.05 1888.38,-248.05"/>
<polygon fill="#757575" stroke="#757575" points="1888.01,-251.55 1898.01,-248.05 1888.01,-244.55 1888.01,-251.55"/>
</g>
<!-- component/chart/BarChart.tsx&#45;&gt;common/chart.ts -->
<g id="edge38" class="edge">
<title>component/chart/BarChart.tsx&#45;&gt;common/chart.ts</title>
<path fill="none" stroke="#757575" d="M1626.99,-168.05C1708.46,-168.05 1821.04,-168.05 1893.44,-168.05"/>
<polygon fill="#757575" stroke="#757575" points="1893.19,-171.55 1903.19,-168.05 1893.19,-164.55 1893.19,-171.55"/>
</g>
<!-- component/chart/BarChart.tsx&#45;&gt;types/chart.d.ts -->
<g id="edge40" class="edge">
<title>component/chart/BarChart.tsx&#45;&gt;types/chart.d.ts</title>
<path fill="none" stroke="#757575" d="M1619.84,-180.04C1768.02,-197.49 2048.84,-224.07 2141,-188.05 2182.07,-172 2217.01,-132.53 2235.76,-107.95"/>
<polygon fill="#757575" stroke="#757575" points="2238.54,-110.08 2241.67,-99.96 2232.91,-105.92 2238.54,-110.08"/>
</g>
<!-- hook/useResize.tsx -->
<g id="node29" class="node">
<title>hook/useResize.tsx</title>
<path fill="none" stroke="#cfffac" d="M2028.33,-138.55C2028.33,-138.55 1903.67,-138.55 1903.67,-138.55 1899.83,-138.55 1896,-134.72 1896,-130.89 1896,-130.89 1896,-123.22 1896,-123.22 1896,-119.39 1899.83,-115.55 1903.67,-115.55 1903.67,-115.55 2028.33,-115.55 2028.33,-115.55 2032.17,-115.55 2036,-119.39 2036,-123.22 2036,-123.22 2036,-130.89 2036,-130.89 2036,-134.72 2032.17,-138.55 2028.33,-138.55"/>
<text text-anchor="middle" x="1966" y="-123.35" font-family="Arial" font-size="14.00" fill="#cfffac">hook/useResize.tsx</text>
</g>
<!-- component/chart/BarChart.tsx&#45;&gt;hook/useResize.tsx -->
<g id="edge39" class="edge">
<title>component/chart/BarChart.tsx&#45;&gt;hook/useResize.tsx</title>
<path fill="none" stroke="#757575" d="M1626.9,-158.88C1666.8,-155.23 1713.06,-150.97 1755,-147.05 1797.81,-143.05 1845.53,-138.51 1884.64,-134.77"/>
<polygon fill="#757575" stroke="#757575" points="1884.83,-138.27 1894.45,-133.83 1884.17,-131.3 1884.83,-138.27"/>
</g>
<!-- component/chart/InformaticsChart.tsx&#45;&gt;types/chart.d.ts -->
<g id="edge42" class="edge">
<title>component/chart/InformaticsChart.tsx&#45;&gt;types/chart.d.ts</title>
<path fill="none" stroke="#757575" d="M1579.77,-35.12C1688.08,-13.28 1939.37,26.32 2141,-26.05 2172.64,-34.27 2204.85,-53.85 2226.07,-68.62"/>
<polygon fill="#757575" stroke="#757575" points="2223.88,-71.36 2234.04,-74.34 2227.95,-65.67 2223.88,-71.36"/>
</g>
<!-- component/chart/InformaticsChart/InforMaticsBox.tsx -->
<g id="node30" class="node">
<title>component/chart/InformaticsChart/InforMaticsBox.tsx</title>
<path fill="none" stroke="#c6c5fe" d="M2133.33,-58.55C2133.33,-58.55 1798.67,-58.55 1798.67,-58.55 1794.83,-58.55 1791,-54.72 1791,-50.89 1791,-50.89 1791,-43.22 1791,-43.22 1791,-39.39 1794.83,-35.55 1798.67,-35.55 1798.67,-35.55 2133.33,-35.55 2133.33,-35.55 2137.17,-35.55 2141,-39.39 2141,-43.22 2141,-43.22 2141,-50.89 2141,-50.89 2141,-54.72 2137.17,-58.55 2133.33,-58.55"/>
<text text-anchor="middle" x="1966" y="-43.35" font-family="Arial" font-size="14.00" fill="#c6c5fe">component/chart/InformaticsChart/InforMaticsBox.tsx</text>
</g>
<!-- component/chart/InformaticsChart.tsx&#45;&gt;component/chart/InformaticsChart/InforMaticsBox.tsx -->
<g id="edge41" class="edge">
<title>component/chart/InformaticsChart.tsx&#45;&gt;component/chart/InformaticsChart/InforMaticsBox.tsx</title>
<path fill="none" stroke="#757575" d="M1651.21,-47.05C1690.99,-47.05 1735.88,-47.05 1778.99,-47.05"/>
<polygon fill="#757575" stroke="#757575" points="1778.99,-50.55 1788.99,-47.05 1778.99,-43.55 1778.99,-50.55"/>
</g>
<!-- component/chart/LineChart.tsx&#45;&gt;common/chart.ts -->
<g id="edge44" class="edge">
<title>component/chart/LineChart.tsx&#45;&gt;common/chart.ts</title>
<path fill="none" stroke="#757575" d="M1629.76,-135.84C1669.01,-139.23 1714.07,-143.22 1755,-147.05 1801.08,-151.37 1852.82,-156.54 1893.41,-160.67"/>
<polygon fill="#757575" stroke="#757575" points="1893.01,-164.15 1903.32,-161.68 1893.72,-157.18 1893.01,-164.15"/>
</g>
<!-- component/chart/LineChart.tsx&#45;&gt;types/chart.d.ts -->
<g id="edge46" class="edge">
<title>component/chart/LineChart.tsx&#45;&gt;types/chart.d.ts</title>
<path fill="none" stroke="#757575" d="M1629.77,-117.92C1678.65,-113.85 1737.79,-109.26 1791,-106.05 1930.34,-97.65 2093.68,-91.86 2183.24,-89.04"/>
<polygon fill="#757575" stroke="#757575" points="2183.19,-92.54 2193.07,-88.73 2182.97,-85.55 2183.19,-92.54"/>
</g>
<!-- component/chart/LineChart.tsx&#45;&gt;hook/useResize.tsx -->
<g id="edge45" class="edge">
<title>component/chart/LineChart.tsx&#45;&gt;hook/useResize.tsx</title>
<path fill="none" stroke="#757575" d="M1629.76,-127.05C1707.73,-127.05 1812.99,-127.05 1884.62,-127.05"/>
<polygon fill="#757575" stroke="#757575" points="1884.31,-130.55 1894.31,-127.05 1884.31,-123.55 1884.31,-130.55"/>
</g>
<!-- component/chart/InformaticsChart/InforMaticsBox.tsx&#45;&gt;types/chart.d.ts -->
<g id="edge43" class="edge">
<title>component/chart/InformaticsChart/InforMaticsBox.tsx&#45;&gt;types/chart.d.ts</title>
<path fill="none" stroke="#757575" d="M2051.68,-59C2093.85,-64.95 2144.12,-72.04 2183.55,-77.61"/>
<polygon fill="#757575" stroke="#757575" points="2183.01,-81.06 2193.4,-79 2183.99,-74.13 2183.01,-81.06"/>
</g>
<!-- component/common/DatePicker/ListPicker.tsx&#45;&gt;types/datePicker.d.ts -->
<g id="edge49" class="edge">
<title>component/common/DatePicker/ListPicker.tsx&#45;&gt;types/datePicker.d.ts</title>
<path fill="none" stroke="#757575" d="M2120.37,-898.87C2135.81,-899.96 2151.07,-901.04 2165.4,-902.05"/>
<polygon fill="#757575" stroke="#757575" points="2164.95,-905.53 2175.17,-902.74 2165.44,-898.54 2164.95,-905.53"/>
</g>
<!-- page/Dashboard.tsx&#45;&gt;types/widget.d.ts -->
<g id="edge53" class="edge">
<title>page/Dashboard.tsx&#45;&gt;types/widget.d.ts</title>
<path fill="none" stroke="#757575" d="M403.03,-459.79C527.49,-454.35 793.08,-444.05 1017.5,-444.05 1017.5,-444.05 1017.5,-444.05 1526,-444.05 1765.09,-444.05 2048.4,-455.07 2178.57,-460.75"/>
<polygon fill="#757575" stroke="#757575" points="2178.27,-464.24 2188.42,-461.18 2178.58,-457.25 2178.27,-464.24"/>
</g>
<!-- page/Dashboard.tsx&#45;&gt;component/Dashboard/DashboardHeader.tsx -->
<g id="edge50" class="edge">
<title>page/Dashboard.tsx&#45;&gt;component/Dashboard/DashboardHeader.tsx</title>
<path fill="none" stroke="#757575" d="M345.48,-474.78C387.36,-511.21 515.49,-622.67 567.36,-667.79"/>
<polygon fill="#757575" stroke="#757575" points="564.86,-670.25 574.7,-674.18 569.45,-664.97 564.86,-670.25"/>
</g>
<!-- page/Dashboard.tsx&#45;&gt;store/DashboardProvider.tsx -->
<g id="edge52" class="edge">
<title>page/Dashboard.tsx&#45;&gt;store/DashboardProvider.tsx</title>
<path fill="none" stroke="#757575" d="M403.44,-464.31C604.17,-467.85 1174.29,-477.89 1414.82,-482.13"/>
<polygon fill="#757575" stroke="#757575" points="1414.45,-485.62 1424.51,-482.3 1414.57,-478.62 1414.45,-485.62"/>
</g>
<!-- page/Dashboard.tsx&#45;&gt;component/Widget.tsx -->
<g id="edge51" class="edge">
<title>page/Dashboard.tsx&#45;&gt;component/Widget.tsx</title>
<path fill="none" stroke="#757575" d="M368.98,-451.06C389.52,-444.55 415.58,-436.53 439,-430.05 624.55,-378.71 846.16,-326.95 953.26,-302.53"/>
<polygon fill="#757575" stroke="#757575" points="953.74,-306.01 962.72,-300.38 952.19,-299.18 953.74,-306.01"/>
</g>
</g>
</svg>
