<?xml version="1.0" encoding="UTF-8" standalone="no"?>
<!DOCTYPE svg PUBLIC "-//W3C//DTD SVG 1.1//EN"
 "http://www.w3.org/Graphics/SVG/1.1/DTD/svg11.dtd">
<!-- Generated by graphviz version 7.1.0 (20230121.1956)
 -->
<!-- Title: G Pages: 1 -->
<svg width="2963pt" height="1041pt"
 viewBox="0.00 0.00 2963.20 1041.27" xmlns="http://www.w3.org/2000/svg" xmlns:xlink="http://www.w3.org/1999/xlink">
<g id="graph0" class="graph" transform="scale(1 1) rotate(0) translate(21.6 1019.67)">
<title>G</title>
<polygon fill="#111111" stroke="none" points="-21.6,21.6 -21.6,-1019.67 2941.6,-1019.67 2941.6,21.6 -21.6,21.6"/>
<!-- App.tsx -->
<g id="node1" class="node">
<title>App.tsx</title>
<path fill="none" stroke="#c6c5fe" d="M57.33,-616.07C57.33,-616.07 7.67,-616.07 7.67,-616.07 3.83,-616.07 0,-612.23 0,-608.4 0,-608.4 0,-600.73 0,-600.73 0,-596.9 3.83,-593.07 7.67,-593.07 7.67,-593.07 57.33,-593.07 57.33,-593.07 61.17,-593.07 65,-596.9 65,-600.73 65,-600.73 65,-608.4 65,-608.4 65,-612.23 61.17,-616.07 57.33,-616.07"/>
<text text-anchor="middle" x="32.5" y="-600.87" font-family="Arial" font-size="14.00" fill="#c6c5fe">App.tsx</text>
</g>
<!-- router/Router.tsx -->
<g id="node2" class="node">
<title>router/Router.tsx</title>
<path fill="none" stroke="#c6c5fe" d="M215.33,-616.07C215.33,-616.07 108.67,-616.07 108.67,-616.07 104.83,-616.07 101,-612.23 101,-608.4 101,-608.4 101,-600.73 101,-600.73 101,-596.9 104.83,-593.07 108.67,-593.07 108.67,-593.07 215.33,-593.07 215.33,-593.07 219.17,-593.07 223,-596.9 223,-600.73 223,-600.73 223,-608.4 223,-608.4 223,-612.23 219.17,-616.07 215.33,-616.07"/>
<text text-anchor="middle" x="162" y="-600.87" font-family="Arial" font-size="14.00" fill="#c6c5fe">router/Router.tsx</text>
</g>
<!-- App.tsx&#45;&gt;router/Router.tsx -->
<g id="edge1" class="edge">
<title>App.tsx&#45;&gt;router/Router.tsx</title>
<path fill="none" stroke="#757575" d="M65.34,-604.57C72.7,-604.57 80.81,-604.57 89.12,-604.57"/>
<polygon fill="#757575" stroke="#757575" points="88.99,-608.07 98.99,-604.57 88.99,-601.07 88.99,-608.07"/>
</g>
<!-- page/Dashboard.tsx -->
<g id="node49" class="node">
<title>page/Dashboard.tsx</title>
<path fill="none" stroke="#c6c5fe" d="M395.33,-616.07C395.33,-616.07 266.67,-616.07 266.67,-616.07 262.83,-616.07 259,-612.23 259,-608.4 259,-608.4 259,-600.73 259,-600.73 259,-596.9 262.83,-593.07 266.67,-593.07 266.67,-593.07 395.33,-593.07 395.33,-593.07 399.17,-593.07 403,-596.9 403,-600.73 403,-600.73 403,-608.4 403,-608.4 403,-612.23 399.17,-616.07 395.33,-616.07"/>
<text text-anchor="middle" x="331" y="-600.87" font-family="Arial" font-size="14.00" fill="#c6c5fe">page/Dashboard.tsx</text>
</g>
<!-- router/Router.tsx&#45;&gt;page/Dashboard.tsx -->
<g id="edge71" class="edge">
<title>router/Router.tsx&#45;&gt;page/Dashboard.tsx</title>
<path fill="none" stroke="#757575" d="M223.29,-604.57C231.1,-604.57 239.21,-604.57 247.3,-604.57"/>
<polygon fill="#757575" stroke="#757575" points="247.19,-608.07 257.19,-604.57 247.19,-601.07 247.19,-608.07"/>
</g>
<!-- asset/image/pause.png -->
<g id="node3" class="node">
<title>asset/image/pause.png</title>
<path fill="none" stroke="#cfffac" d="M1502.83,-793.07C1502.83,-793.07 1354.17,-793.07 1354.17,-793.07 1350.33,-793.07 1346.5,-789.23 1346.5,-785.4 1346.5,-785.4 1346.5,-777.73 1346.5,-777.73 1346.5,-773.9 1350.33,-770.07 1354.17,-770.07 1354.17,-770.07 1502.83,-770.07 1502.83,-770.07 1506.67,-770.07 1510.5,-773.9 1510.5,-777.73 1510.5,-777.73 1510.5,-785.4 1510.5,-785.4 1510.5,-789.23 1506.67,-793.07 1502.83,-793.07"/>
<text text-anchor="middle" x="1428.5" y="-777.87" font-family="Arial" font-size="14.00" fill="#cfffac">asset/image/pause.png</text>
</g>
<!-- asset/image/play.png -->
<g id="node4" class="node">
<title>asset/image/play.png</title>
<path fill="none" stroke="#cfffac" d="M1496.33,-752.07C1496.33,-752.07 1360.67,-752.07 1360.67,-752.07 1356.83,-752.07 1353,-748.23 1353,-744.4 1353,-744.4 1353,-736.73 1353,-736.73 1353,-732.9 1356.83,-729.07 1360.67,-729.07 1360.67,-729.07 1496.33,-729.07 1496.33,-729.07 1500.17,-729.07 1504,-732.9 1504,-736.73 1504,-736.73 1504,-744.4 1504,-744.4 1504,-748.23 1500.17,-752.07 1496.33,-752.07"/>
<text text-anchor="middle" x="1428.5" y="-736.87" font-family="Arial" font-size="14.00" fill="#cfffac">asset/image/play.png</text>
</g>
<!-- common/api.ts -->
<g id="node5" class="node">
<title>common/api.ts</title>
<path fill="none" stroke="#c6c5fe" d="M1983.83,-513.07C1983.83,-513.07 1889.17,-513.07 1889.17,-513.07 1885.33,-513.07 1881.5,-509.23 1881.5,-505.4 1881.5,-505.4 1881.5,-497.73 1881.5,-497.73 1881.5,-493.9 1885.33,-490.07 1889.17,-490.07 1889.17,-490.07 1983.83,-490.07 1983.83,-490.07 1987.67,-490.07 1991.5,-493.9 1991.5,-497.73 1991.5,-497.73 1991.5,-505.4 1991.5,-505.4 1991.5,-509.23 1987.67,-513.07 1983.83,-513.07"/>
<text text-anchor="middle" x="1936.5" y="-497.87" font-family="Arial" font-size="14.00" fill="#c6c5fe">common/api.ts</text>
</g>
<!-- types/api.d.ts -->
<g id="node6" class="node">
<title>types/api.d.ts</title>
<path fill="none" stroke="#cfffac" d="M2418.33,-513.07C2418.33,-513.07 2332.67,-513.07 2332.67,-513.07 2328.83,-513.07 2325,-509.23 2325,-505.4 2325,-505.4 2325,-497.73 2325,-497.73 2325,-493.9 2328.83,-490.07 2332.67,-490.07 2332.67,-490.07 2418.33,-490.07 2418.33,-490.07 2422.17,-490.07 2426,-493.9 2426,-497.73 2426,-497.73 2426,-505.4 2426,-505.4 2426,-509.23 2422.17,-513.07 2418.33,-513.07"/>
<text text-anchor="middle" x="2375.5" y="-497.87" font-family="Arial" font-size="14.00" fill="#cfffac">types/api.d.ts</text>
</g>
<!-- common/api.ts&#45;&gt;types/api.d.ts -->
<g id="edge2" class="edge">
<title>common/api.ts&#45;&gt;types/api.d.ts</title>
<path fill="none" stroke="#757575" d="M1991.96,-501.57C2073.77,-501.57 2227.89,-501.57 2313.41,-501.57"/>
<polygon fill="#757575" stroke="#757575" points="2313.25,-505.07 2323.25,-501.57 2313.25,-498.07 2313.25,-505.07"/>
</g>
<!-- types/widget.d.ts -->
<g id="node7" class="node">
<title>types/widget.d.ts</title>
<path fill="none" stroke="#cfffac" d="M2805.33,-573.07C2805.33,-573.07 2697.67,-573.07 2697.67,-573.07 2693.83,-573.07 2690,-569.23 2690,-565.4 2690,-565.4 2690,-557.73 2690,-557.73 2690,-553.9 2693.83,-550.07 2697.67,-550.07 2697.67,-550.07 2805.33,-550.07 2805.33,-550.07 2809.17,-550.07 2813,-553.9 2813,-557.73 2813,-557.73 2813,-565.4 2813,-565.4 2813,-569.23 2809.17,-573.07 2805.33,-573.07"/>
<text text-anchor="middle" x="2751.5" y="-557.87" font-family="Arial" font-size="14.00" fill="#cfffac">types/widget.d.ts</text>
</g>
<!-- common/api.ts&#45;&gt;types/widget.d.ts -->
<g id="edge3" class="edge">
<title>common/api.ts&#45;&gt;types/widget.d.ts</title>
<path fill="none" stroke="#757575" d="M1991.86,-505.68C2045.71,-509.74 2130.55,-516.12 2204,-521.57 2374.09,-534.17 2573.97,-548.74 2678.5,-556.34"/>
<polygon fill="#757575" stroke="#757575" points="2678.11,-559.82 2688.34,-557.06 2678.62,-552.84 2678.11,-559.82"/>
</g>
<!-- common/chart.ts -->
<g id="node8" class="node">
<title>common/chart.ts</title>
<path fill="none" stroke="#c6c5fe" d="M1989.83,-151.07C1989.83,-151.07 1883.17,-151.07 1883.17,-151.07 1879.33,-151.07 1875.5,-147.23 1875.5,-143.4 1875.5,-143.4 1875.5,-135.73 1875.5,-135.73 1875.5,-131.9 1879.33,-128.07 1883.17,-128.07 1883.17,-128.07 1989.83,-128.07 1989.83,-128.07 1993.67,-128.07 1997.5,-131.9 1997.5,-135.73 1997.5,-135.73 1997.5,-143.4 1997.5,-143.4 1997.5,-147.23 1993.67,-151.07 1989.83,-151.07"/>
<text text-anchor="middle" x="1936.5" y="-135.87" font-family="Arial" font-size="14.00" fill="#c6c5fe">common/chart.ts</text>
</g>
<!-- types/chart.d.ts -->
<g id="node9" class="node">
<title>types/chart.d.ts</title>
<path fill="none" stroke="#cfffac" d="M2424.33,-211.07C2424.33,-211.07 2326.67,-211.07 2326.67,-211.07 2322.83,-211.07 2319,-207.23 2319,-203.4 2319,-203.4 2319,-195.73 2319,-195.73 2319,-191.9 2322.83,-188.07 2326.67,-188.07 2326.67,-188.07 2424.33,-188.07 2424.33,-188.07 2428.17,-188.07 2432,-191.9 2432,-195.73 2432,-195.73 2432,-203.4 2432,-203.4 2432,-207.23 2428.17,-211.07 2424.33,-211.07"/>
<text text-anchor="middle" x="2375.5" y="-195.87" font-family="Arial" font-size="14.00" fill="#cfffac">types/chart.d.ts</text>
</g>
<!-- common/chart.ts&#45;&gt;types/chart.d.ts -->
<g id="edge4" class="edge">
<title>common/chart.ts&#45;&gt;types/chart.d.ts</title>
<path fill="none" stroke="#757575" d="M1997.79,-145.52C2044.35,-150.32 2110.36,-157.58 2168,-165.57 2214.61,-172.03 2266.92,-180.66 2307.22,-187.6"/>
<polygon fill="#757575" stroke="#757575" points="2306.58,-191.04 2317.03,-189.3 2307.78,-184.15 2306.58,-191.04"/>
</g>
<!-- common/date.ts -->
<g id="node10" class="node">
<title>common/date.ts</title>
<path fill="none" stroke="#cfffac" d="M2427.33,-672.07C2427.33,-672.07 2323.67,-672.07 2323.67,-672.07 2319.83,-672.07 2316,-668.23 2316,-664.4 2316,-664.4 2316,-656.73 2316,-656.73 2316,-652.9 2319.83,-649.07 2323.67,-649.07 2323.67,-649.07 2427.33,-649.07 2427.33,-649.07 2431.17,-649.07 2435,-652.9 2435,-656.73 2435,-656.73 2435,-664.4 2435,-664.4 2435,-668.23 2431.17,-672.07 2427.33,-672.07"/>
<text text-anchor="middle" x="2375.5" y="-656.87" font-family="Arial" font-size="14.00" fill="#cfffac">common/date.ts</text>
</g>
<!-- common/widget.ts -->
<g id="node11" class="node">
<title>common/widget.ts</title>
<path fill="none" stroke="#cfffac" d="M1994.83,-393.07C1994.83,-393.07 1878.17,-393.07 1878.17,-393.07 1874.33,-393.07 1870.5,-389.23 1870.5,-385.4 1870.5,-385.4 1870.5,-377.73 1870.5,-377.73 1870.5,-373.9 1874.33,-370.07 1878.17,-370.07 1878.17,-370.07 1994.83,-370.07 1994.83,-370.07 1998.67,-370.07 2002.5,-373.9 2002.5,-377.73 2002.5,-377.73 2002.5,-385.4 2002.5,-385.4 2002.5,-389.23 1998.67,-393.07 1994.83,-393.07"/>
<text text-anchor="middle" x="1936.5" y="-377.87" font-family="Arial" font-size="14.00" fill="#cfffac">common/widget.ts</text>
</g>
<!-- component/Dashboard/DashboardHeader.tsx -->
<g id="node12" class="node">
<title>component/Dashboard/DashboardHeader.tsx</title>
<path fill="none" stroke="#c6c5fe" d="M734.33,-732.07C734.33,-732.07 446.67,-732.07 446.67,-732.07 442.83,-732.07 439,-728.23 439,-724.4 439,-724.4 439,-716.73 439,-716.73 439,-712.9 442.83,-709.07 446.67,-709.07 446.67,-709.07 734.33,-709.07 734.33,-709.07 738.17,-709.07 742,-712.9 742,-716.73 742,-716.73 742,-724.4 742,-724.4 742,-728.23 738.17,-732.07 734.33,-732.07"/>
<text text-anchor="middle" x="590.5" y="-716.87" font-family="Arial" font-size="14.00" fill="#c6c5fe">component/Dashboard/DashboardHeader.tsx</text>
</g>
<!-- component/Dashboard/DashboardHeader/PlayIcon.tsx -->
<g id="node13" class="node">
<title>component/Dashboard/DashboardHeader/PlayIcon.tsx</title>
<path fill="none" stroke="#c6c5fe" d="M1138.33,-752.07C1138.33,-752.07 791.67,-752.07 791.67,-752.07 787.83,-752.07 784,-748.23 784,-744.4 784,-744.4 784,-736.73 784,-736.73 784,-732.9 787.83,-729.07 791.67,-729.07 791.67,-729.07 1138.33,-729.07 1138.33,-729.07 1142.17,-729.07 1146,-732.9 1146,-736.73 1146,-736.73 1146,-744.4 1146,-744.4 1146,-748.23 1142.17,-752.07 1138.33,-752.07"/>
<text text-anchor="middle" x="965" y="-736.87" font-family="Arial" font-size="14.00" fill="#c6c5fe">component/Dashboard/DashboardHeader/PlayIcon.tsx</text>
</g>
<!-- component/Dashboard/DashboardHeader.tsx&#45;&gt;component/Dashboard/DashboardHeader/PlayIcon.tsx -->
<g id="edge5" class="edge">
<title>component/Dashboard/DashboardHeader.tsx&#45;&gt;component/Dashboard/DashboardHeader/PlayIcon.tsx</title>
<path fill="none" stroke="#757575" d="M742.47,-728.67C752.36,-729.2 762.39,-729.74 772.44,-730.28"/>
<polygon fill="#757575" stroke="#757575" points="772.1,-733.77 782.28,-730.81 772.48,-726.78 772.1,-733.77"/>
</g>
<!-- component/Dashboard/DashboardHeader/SelectRealTimeRangeArea.tsx -->
<g id="node14" class="node">
<title>component/Dashboard/DashboardHeader/SelectRealTimeRangeArea.tsx</title>
<path fill="none" stroke="#c6c5fe" d="M1661.33,-916.07C1661.33,-916.07 1195.67,-916.07 1195.67,-916.07 1191.83,-916.07 1188,-912.23 1188,-908.4 1188,-908.4 1188,-900.73 1188,-900.73 1188,-896.9 1191.83,-893.07 1195.67,-893.07 1195.67,-893.07 1661.33,-893.07 1661.33,-893.07 1665.17,-893.07 1669,-896.9 1669,-900.73 1669,-900.73 1669,-908.4 1669,-908.4 1669,-912.23 1665.17,-916.07 1661.33,-916.07"/>
<text text-anchor="middle" x="1428.5" y="-900.87" font-family="Arial" font-size="14.00" fill="#c6c5fe">component/Dashboard/DashboardHeader/SelectRealTimeRangeArea.tsx</text>
</g>
<!-- component/Dashboard/DashboardHeader.tsx&#45;&gt;component/Dashboard/DashboardHeader/SelectRealTimeRangeArea.tsx -->
<g id="edge6" class="edge">
<title>component/Dashboard/DashboardHeader.tsx&#45;&gt;component/Dashboard/DashboardHeader/SelectRealTimeRangeArea.tsx</title>
<path fill="none" stroke="#757575" d="M604.3,-732.3C632.92,-757.74 705.27,-817.73 778,-843.57 904.52,-888.51 1053.14,-904.91 1176.27,-909.57"/>
<polygon fill="#757575" stroke="#757575" points="1176.09,-913.06 1186.21,-909.92 1176.34,-906.07 1176.09,-913.06"/>
</g>
<!-- component/Dashboard/DashboardHeader/TimeBlock.tsx -->
<g id="node15" class="node">
<title>component/Dashboard/DashboardHeader/TimeBlock.tsx</title>
<path fill="none" stroke="#c6c5fe" d="M1144.33,-834.07C1144.33,-834.07 785.67,-834.07 785.67,-834.07 781.83,-834.07 778,-830.23 778,-826.4 778,-826.4 778,-818.73 778,-818.73 778,-814.9 781.83,-811.07 785.67,-811.07 785.67,-811.07 1144.33,-811.07 1144.33,-811.07 1148.17,-811.07 1152,-814.9 1152,-818.73 1152,-818.73 1152,-826.4 1152,-826.4 1152,-830.23 1148.17,-834.07 1144.33,-834.07"/>
<text text-anchor="middle" x="965" y="-818.87" font-family="Arial" font-size="14.00" fill="#c6c5fe">component/Dashboard/DashboardHeader/TimeBlock.tsx</text>
</g>
<!-- component/Dashboard/DashboardHeader.tsx&#45;&gt;component/Dashboard/DashboardHeader/TimeBlock.tsx -->
<g id="edge7" class="edge">
<title>component/Dashboard/DashboardHeader.tsx&#45;&gt;component/Dashboard/DashboardHeader/TimeBlock.tsx</title>
<path fill="none" stroke="#757575" d="M634.96,-732.47C703.05,-751.11 834.77,-787.18 909.24,-807.57"/>
<polygon fill="#757575" stroke="#757575" points="908.21,-810.92 918.78,-810.19 910.06,-804.17 908.21,-810.92"/>
</g>
<!-- store/DashboardProvider.tsx -->
<g id="node16" class="node">
<title>store/DashboardProvider.tsx</title>
<path fill="none" stroke="#c6c5fe" d="M2027.33,-672.07C2027.33,-672.07 1845.67,-672.07 1845.67,-672.07 1841.83,-672.07 1838,-668.23 1838,-664.4 1838,-664.4 1838,-656.73 1838,-656.73 1838,-652.9 1841.83,-649.07 1845.67,-649.07 1845.67,-649.07 2027.33,-649.07 2027.33,-649.07 2031.17,-649.07 2035,-652.9 2035,-656.73 2035,-656.73 2035,-664.4 2035,-664.4 2035,-668.23 2031.17,-672.07 2027.33,-672.07"/>
<text text-anchor="middle" x="1936.5" y="-656.87" font-family="Arial" font-size="14.00" fill="#c6c5fe">store/DashboardProvider.tsx</text>
</g>
<!-- component/Dashboard/DashboardHeader.tsx&#45;&gt;store/DashboardProvider.tsx -->
<g id="edge8" class="edge">
<title>component/Dashboard/DashboardHeader.tsx&#45;&gt;store/DashboardProvider.tsx</title>
<path fill="none" stroke="#757575" d="M742.33,-715.32C950.74,-707.86 1338.51,-693.24 1669,-676.57 1720.75,-673.96 1778.12,-670.58 1826.34,-667.59"/>
<polygon fill="#757575" stroke="#757575" points="1826.47,-671.09 1836.24,-666.98 1826.04,-664.11 1826.47,-671.09"/>
</g>
<!-- store/WidgetPropsSettingModalProvider.tsx -->
<g id="node17" class="node">
<title>store/WidgetPropsSettingModalProvider.tsx</title>
<path fill="none" stroke="#c6c5fe" d="M1567.83,-634.07C1567.83,-634.07 1289.17,-634.07 1289.17,-634.07 1285.33,-634.07 1281.5,-630.23 1281.5,-626.4 1281.5,-626.4 1281.5,-618.73 1281.5,-618.73 1281.5,-614.9 1285.33,-611.07 1289.17,-611.07 1289.17,-611.07 1567.83,-611.07 1567.83,-611.07 1571.67,-611.07 1575.5,-614.9 1575.5,-618.73 1575.5,-618.73 1575.5,-626.4 1575.5,-626.4 1575.5,-630.23 1571.67,-634.07 1567.83,-634.07"/>
<text text-anchor="middle" x="1428.5" y="-618.87" font-family="Arial" font-size="14.00" fill="#c6c5fe">store/WidgetPropsSettingModalProvider.tsx</text>
</g>
<!-- component/Dashboard/DashboardHeader.tsx&#45;&gt;store/WidgetPropsSettingModalProvider.tsx -->
<g id="edge9" class="edge">
<title>component/Dashboard/DashboardHeader.tsx&#45;&gt;store/WidgetPropsSettingModalProvider.tsx</title>
<path fill="none" stroke="#757575" d="M650.1,-708.61C686.74,-701.45 734.98,-692.6 778,-686.57 945.23,-663.13 1137.87,-645.29 1269.66,-634.47"/>
<polygon fill="#757575" stroke="#757575" points="1269.84,-637.97 1279.52,-633.67 1269.27,-630.99 1269.84,-637.97"/>
</g>
<!-- component/Dashboard/DashboardHeader/PlayIcon.tsx&#45;&gt;asset/image/pause.png -->
<g id="edge17" class="edge">
<title>component/Dashboard/DashboardHeader/PlayIcon.tsx&#45;&gt;asset/image/pause.png</title>
<path fill="none" stroke="#757575" d="M1098.35,-752.54C1127.86,-755.2 1158.99,-757.99 1188,-760.57 1236.38,-764.87 1290.27,-769.6 1334.65,-773.48"/>
<polygon fill="#757575" stroke="#757575" points="1334.25,-776.96 1344.51,-774.34 1334.85,-769.98 1334.25,-776.96"/>
</g>
<!-- component/Dashboard/DashboardHeader/PlayIcon.tsx&#45;&gt;asset/image/play.png -->
<g id="edge18" class="edge">
<title>component/Dashboard/DashboardHeader/PlayIcon.tsx&#45;&gt;asset/image/play.png</title>
<path fill="none" stroke="#757575" d="M1146.41,-740.57C1213.44,-740.57 1286.43,-740.57 1341.23,-740.57"/>
<polygon fill="#757575" stroke="#757575" points="1341.12,-744.07 1351.12,-740.57 1341.12,-737.07 1341.12,-744.07"/>
</g>
<!-- hook/useBoolean.tsx -->
<g id="node23" class="node">
<title>hook/useBoolean.tsx</title>
<path fill="none" stroke="#cfffac" d="M2003.33,-713.07C2003.33,-713.07 1869.67,-713.07 1869.67,-713.07 1865.83,-713.07 1862,-709.23 1862,-705.4 1862,-705.4 1862,-697.73 1862,-697.73 1862,-693.9 1865.83,-690.07 1869.67,-690.07 1869.67,-690.07 2003.33,-690.07 2003.33,-690.07 2007.17,-690.07 2011,-693.9 2011,-697.73 2011,-697.73 2011,-705.4 2011,-705.4 2011,-709.23 2007.17,-713.07 2003.33,-713.07"/>
<text text-anchor="middle" x="1936.5" y="-697.87" font-family="Arial" font-size="14.00" fill="#cfffac">hook/useBoolean.tsx</text>
</g>
<!-- component/Dashboard/DashboardHeader/SelectRealTimeRangeArea.tsx&#45;&gt;hook/useBoolean.tsx -->
<g id="edge21" class="edge">
<title>component/Dashboard/DashboardHeader/SelectRealTimeRangeArea.tsx&#45;&gt;hook/useBoolean.tsx</title>
<path fill="none" stroke="#757575" d="M1482.57,-916.53C1536.23,-925.27 1618.27,-928.92 1669,-884.57 1724.86,-835.74 1649.22,-770.49 1705,-721.57 1749.08,-682.91 1817.82,-681.83 1868.78,-688.05"/>
<polygon fill="#757575" stroke="#757575" points="1868.14,-691.49 1878.52,-689.37 1869.08,-684.56 1868.14,-691.49"/>
</g>
<!-- hook/useOutsideClick.tsx -->
<g id="node24" class="node">
<title>hook/useOutsideClick.tsx</title>
<path fill="none" stroke="#cfffac" d="M2016.83,-916.07C2016.83,-916.07 1856.17,-916.07 1856.17,-916.07 1852.33,-916.07 1848.5,-912.23 1848.5,-908.4 1848.5,-908.4 1848.5,-900.73 1848.5,-900.73 1848.5,-896.9 1852.33,-893.07 1856.17,-893.07 1856.17,-893.07 2016.83,-893.07 2016.83,-893.07 2020.67,-893.07 2024.5,-896.9 2024.5,-900.73 2024.5,-900.73 2024.5,-908.4 2024.5,-908.4 2024.5,-912.23 2020.67,-916.07 2016.83,-916.07"/>
<text text-anchor="middle" x="1936.5" y="-900.87" font-family="Arial" font-size="14.00" fill="#cfffac">hook/useOutsideClick.tsx</text>
</g>
<!-- component/Dashboard/DashboardHeader/SelectRealTimeRangeArea.tsx&#45;&gt;hook/useOutsideClick.tsx -->
<g id="edge22" class="edge">
<title>component/Dashboard/DashboardHeader/SelectRealTimeRangeArea.tsx&#45;&gt;hook/useOutsideClick.tsx</title>
<path fill="none" stroke="#757575" d="M1669.16,-904.57C1728.4,-904.57 1788.62,-904.57 1836.77,-904.57"/>
<polygon fill="#757575" stroke="#757575" points="1836.6,-908.07 1846.6,-904.57 1836.6,-901.07 1836.6,-908.07"/>
</g>
<!-- component/Dashboard/DashboardHeader/RealTime.tsx -->
<g id="node25" class="node">
<title>component/Dashboard/DashboardHeader/RealTime.tsx</title>
<path fill="none" stroke="#cfffac" d="M2112.83,-998.07C2112.83,-998.07 1760.17,-998.07 1760.17,-998.07 1756.33,-998.07 1752.5,-994.23 1752.5,-990.4 1752.5,-990.4 1752.5,-982.73 1752.5,-982.73 1752.5,-978.9 1756.33,-975.07 1760.17,-975.07 1760.17,-975.07 2112.83,-975.07 2112.83,-975.07 2116.67,-975.07 2120.5,-978.9 2120.5,-982.73 2120.5,-982.73 2120.5,-990.4 2120.5,-990.4 2120.5,-994.23 2116.67,-998.07 2112.83,-998.07"/>
<text text-anchor="middle" x="1936.5" y="-982.87" font-family="Arial" font-size="14.00" fill="#cfffac">component/Dashboard/DashboardHeader/RealTime.tsx</text>
</g>
<!-- component/Dashboard/DashboardHeader/SelectRealTimeRangeArea.tsx&#45;&gt;component/Dashboard/DashboardHeader/RealTime.tsx -->
<g id="edge19" class="edge">
<title>component/Dashboard/DashboardHeader/SelectRealTimeRangeArea.tsx&#45;&gt;component/Dashboard/DashboardHeader/RealTime.tsx</title>
<path fill="none" stroke="#757575" d="M1474,-916.53C1528.18,-930.64 1622.64,-953.79 1705,-966.57 1721.36,-969.11 1738.43,-971.35 1755.55,-973.32"/>
<polygon fill="#757575" stroke="#757575" points="1754.98,-976.78 1765.3,-974.41 1755.75,-969.82 1754.98,-976.78"/>
</g>
<!-- component/Dashboard/DashboardHeader/SelectRealTimeListItem.tsx -->
<g id="node26" class="node">
<title>component/Dashboard/DashboardHeader/SelectRealTimeListItem.tsx</title>
<path fill="none" stroke="#cfffac" d="M2158.83,-957.07C2158.83,-957.07 1714.17,-957.07 1714.17,-957.07 1710.33,-957.07 1706.5,-953.23 1706.5,-949.4 1706.5,-949.4 1706.5,-941.73 1706.5,-941.73 1706.5,-937.9 1710.33,-934.07 1714.17,-934.07 1714.17,-934.07 2158.83,-934.07 2158.83,-934.07 2162.67,-934.07 2166.5,-937.9 2166.5,-941.73 2166.5,-941.73 2166.5,-949.4 2166.5,-949.4 2166.5,-953.23 2162.67,-957.07 2158.83,-957.07"/>
<text text-anchor="middle" x="1936.5" y="-941.87" font-family="Arial" font-size="14.00" fill="#cfffac">component/Dashboard/DashboardHeader/SelectRealTimeListItem.tsx</text>
</g>
<!-- component/Dashboard/DashboardHeader/SelectRealTimeRangeArea.tsx&#45;&gt;component/Dashboard/DashboardHeader/SelectRealTimeListItem.tsx -->
<g id="edge20" class="edge">
<title>component/Dashboard/DashboardHeader/SelectRealTimeRangeArea.tsx&#45;&gt;component/Dashboard/DashboardHeader/SelectRealTimeListItem.tsx</title>
<path fill="none" stroke="#757575" d="M1577.56,-916.56C1640.01,-921.63 1712.84,-927.53 1776.44,-932.68"/>
<polygon fill="#757575" stroke="#757575" points="1776.03,-936.16 1786.28,-933.48 1776.6,-929.18 1776.03,-936.16"/>
</g>
<!-- component/Dashboard/DashboardHeader/CurrentTime.tsx -->
<g id="node18" class="node">
<title>component/Dashboard/DashboardHeader/CurrentTime.tsx</title>
<path fill="none" stroke="#c6c5fe" d="M1613.83,-834.07C1613.83,-834.07 1243.17,-834.07 1243.17,-834.07 1239.33,-834.07 1235.5,-830.23 1235.5,-826.4 1235.5,-826.4 1235.5,-818.73 1235.5,-818.73 1235.5,-814.9 1239.33,-811.07 1243.17,-811.07 1243.17,-811.07 1613.83,-811.07 1613.83,-811.07 1617.67,-811.07 1621.5,-814.9 1621.5,-818.73 1621.5,-818.73 1621.5,-826.4 1621.5,-826.4 1621.5,-830.23 1617.67,-834.07 1613.83,-834.07"/>
<text text-anchor="middle" x="1428.5" y="-818.87" font-family="Arial" font-size="14.00" fill="#c6c5fe">component/Dashboard/DashboardHeader/CurrentTime.tsx</text>
</g>
<!-- component/Dashboard/DashboardHeader/TimeBlock.tsx&#45;&gt;component/Dashboard/DashboardHeader/CurrentTime.tsx -->
<g id="edge23" class="edge">
<title>component/Dashboard/DashboardHeader/TimeBlock.tsx&#45;&gt;component/Dashboard/DashboardHeader/CurrentTime.tsx</title>
<path fill="none" stroke="#757575" d="M1152.38,-822.57C1175.92,-822.57 1200.1,-822.57 1223.89,-822.57"/>
<polygon fill="#757575" stroke="#757575" points="1223.64,-826.07 1233.64,-822.57 1223.64,-819.07 1223.64,-826.07"/>
</g>
<!-- component/Dashboard/DashboardHeader/DatePickerArea.tsx -->
<g id="node21" class="node">
<title>component/Dashboard/DashboardHeader/DatePickerArea.tsx</title>
<path fill="none" stroke="#c6c5fe" d="M1624.33,-875.07C1624.33,-875.07 1232.67,-875.07 1232.67,-875.07 1228.83,-875.07 1225,-871.23 1225,-867.4 1225,-867.4 1225,-859.73 1225,-859.73 1225,-855.9 1228.83,-852.07 1232.67,-852.07 1232.67,-852.07 1624.33,-852.07 1624.33,-852.07 1628.17,-852.07 1632,-855.9 1632,-859.73 1632,-859.73 1632,-867.4 1632,-867.4 1632,-871.23 1628.17,-875.07 1624.33,-875.07"/>
<text text-anchor="middle" x="1428.5" y="-859.87" font-family="Arial" font-size="14.00" fill="#c6c5fe">component/Dashboard/DashboardHeader/DatePickerArea.tsx</text>
</g>
<!-- component/Dashboard/DashboardHeader/TimeBlock.tsx&#45;&gt;component/Dashboard/DashboardHeader/DatePickerArea.tsx -->
<g id="edge24" class="edge">
<title>component/Dashboard/DashboardHeader/TimeBlock.tsx&#45;&gt;component/Dashboard/DashboardHeader/DatePickerArea.tsx</title>
<path fill="none" stroke="#757575" d="M1090.15,-834.55C1122.03,-837.57 1156.28,-840.74 1188,-843.57 1214.39,-845.92 1242.43,-848.33 1269.66,-850.64"/>
<polygon fill="#757575" stroke="#757575" points="1269.1,-854.1 1279.36,-851.45 1269.69,-847.13 1269.1,-854.1"/>
</g>
<!-- store/DashboardProvider.tsx&#45;&gt;common/date.ts -->
<g id="edge72" class="edge">
<title>store/DashboardProvider.tsx&#45;&gt;common/date.ts</title>
<path fill="none" stroke="#757575" d="M2035.3,-660.57C2116.98,-660.57 2231.44,-660.57 2304.28,-660.57"/>
<polygon fill="#757575" stroke="#757575" points="2304.09,-664.07 2314.09,-660.57 2304.09,-657.07 2304.09,-664.07"/>
</g>
<!-- store/WidgetPropsSettingModalProvider.tsx&#45;&gt;hook/useBoolean.tsx -->
<g id="edge73" class="edge">
<title>store/WidgetPropsSettingModalProvider.tsx&#45;&gt;hook/useBoolean.tsx</title>
<path fill="none" stroke="#757575" d="M1477.96,-634.56C1532.74,-647.7 1624.76,-668.51 1705,-680.57 1752.79,-687.75 1806.54,-692.82 1850.11,-696.17"/>
<polygon fill="#757575" stroke="#757575" points="1849.79,-699.66 1860.02,-696.92 1850.32,-692.68 1849.79,-699.66"/>
</g>
<!-- hook/useCurrentTime.tsx -->
<g id="node19" class="node">
<title>hook/useCurrentTime.tsx</title>
<path fill="none" stroke="#cfffac" d="M2016.33,-754.07C2016.33,-754.07 1856.67,-754.07 1856.67,-754.07 1852.83,-754.07 1849,-750.23 1849,-746.4 1849,-746.4 1849,-738.73 1849,-738.73 1849,-734.9 1852.83,-731.07 1856.67,-731.07 1856.67,-731.07 2016.33,-731.07 2016.33,-731.07 2020.17,-731.07 2024,-734.9 2024,-738.73 2024,-738.73 2024,-746.4 2024,-746.4 2024,-750.23 2020.17,-754.07 2016.33,-754.07"/>
<text text-anchor="middle" x="1936.5" y="-738.87" font-family="Arial" font-size="14.00" fill="#cfffac">hook/useCurrentTime.tsx</text>
</g>
<!-- component/Dashboard/DashboardHeader/CurrentTime.tsx&#45;&gt;hook/useCurrentTime.tsx -->
<g id="edge10" class="edge">
<title>component/Dashboard/DashboardHeader/CurrentTime.tsx&#45;&gt;hook/useCurrentTime.tsx</title>
<path fill="none" stroke="#757575" d="M1621.99,-818.12C1638.25,-814.28 1654.14,-809.2 1669,-802.57 1689.09,-793.59 1685.04,-777.83 1705,-768.57 1745.74,-749.66 1794.73,-742.29 1837.05,-740"/>
<polygon fill="#757575" stroke="#757575" points="1837.16,-743.49 1846.99,-739.56 1836.85,-736.5 1837.16,-743.49"/>
</g>
<!-- component/Dashboard/DashboardHeader/DateBox.tsx -->
<g id="node20" class="node">
<title>component/Dashboard/DashboardHeader/DateBox.tsx</title>
<path fill="none" stroke="#cfffac" d="M2109.83,-834.07C2109.83,-834.07 1763.17,-834.07 1763.17,-834.07 1759.33,-834.07 1755.5,-830.23 1755.5,-826.4 1755.5,-826.4 1755.5,-818.73 1755.5,-818.73 1755.5,-814.9 1759.33,-811.07 1763.17,-811.07 1763.17,-811.07 2109.83,-811.07 2109.83,-811.07 2113.67,-811.07 2117.5,-814.9 2117.5,-818.73 2117.5,-818.73 2117.5,-826.4 2117.5,-826.4 2117.5,-830.23 2113.67,-834.07 2109.83,-834.07"/>
<text text-anchor="middle" x="1936.5" y="-818.87" font-family="Arial" font-size="14.00" fill="#cfffac">component/Dashboard/DashboardHeader/DateBox.tsx</text>
</g>
<!-- component/Dashboard/DashboardHeader/DatePickerArea.tsx&#45;&gt;common/date.ts -->
<g id="edge11" class="edge">
<title>component/Dashboard/DashboardHeader/DatePickerArea.tsx&#45;&gt;common/date.ts</title>
<path fill="none" stroke="#757575" d="M1632.24,-857.96C1644.99,-854.17 1657.36,-849.44 1669,-843.57 1690.66,-832.66 1683.36,-813.51 1705,-802.57 1889.32,-709.36 1971.12,-825.01 2168,-762.57 2185.66,-756.97 2187.62,-750.22 2204,-741.57 2249.17,-717.72 2302.55,-692.88 2337.39,-677.1"/>
<polygon fill="#757575" stroke="#757575" points="2338.52,-680.43 2346.2,-673.13 2335.64,-674.05 2338.52,-680.43"/>
</g>
<!-- component/Dashboard/DashboardHeader/DatePickerArea.tsx&#45;&gt;store/DashboardProvider.tsx -->
<g id="edge16" class="edge">
<title>component/Dashboard/DashboardHeader/DatePickerArea.tsx&#45;&gt;store/DashboardProvider.tsx</title>
<path fill="none" stroke="#757575" d="M1482.57,-875.53C1536.23,-884.27 1618.27,-887.92 1669,-843.57 1724.86,-794.74 1649.22,-729.49 1705,-680.57 1749.08,-641.91 1817.82,-640.83 1868.78,-647.05"/>
<polygon fill="#757575" stroke="#757575" points="1868.14,-650.49 1878.52,-648.37 1869.08,-643.56 1868.14,-650.49"/>
</g>
<!-- component/Dashboard/DashboardHeader/DatePickerArea.tsx&#45;&gt;component/Dashboard/DashboardHeader/DateBox.tsx -->
<g id="edge12" class="edge">
<title>component/Dashboard/DashboardHeader/DatePickerArea.tsx&#45;&gt;component/Dashboard/DashboardHeader/DateBox.tsx</title>
<path fill="none" stroke="#757575" d="M1577.56,-851.57C1640.01,-846.51 1712.84,-840.61 1776.44,-835.46"/>
<polygon fill="#757575" stroke="#757575" points="1776.6,-838.95 1786.28,-834.66 1776.03,-831.98 1776.6,-838.95"/>
</g>
<!-- component/common/DatePicker.tsx -->
<g id="node22" class="node">
<title>component/common/DatePicker.tsx</title>
<path fill="none" stroke="#c6c5fe" d="M2049.83,-875.07C2049.83,-875.07 1823.17,-875.07 1823.17,-875.07 1819.33,-875.07 1815.5,-871.23 1815.5,-867.4 1815.5,-867.4 1815.5,-859.73 1815.5,-859.73 1815.5,-855.9 1819.33,-852.07 1823.17,-852.07 1823.17,-852.07 2049.83,-852.07 2049.83,-852.07 2053.67,-852.07 2057.5,-855.9 2057.5,-859.73 2057.5,-859.73 2057.5,-867.4 2057.5,-867.4 2057.5,-871.23 2053.67,-875.07 2049.83,-875.07"/>
<text text-anchor="middle" x="1936.5" y="-859.87" font-family="Arial" font-size="14.00" fill="#c6c5fe">component/common/DatePicker.tsx</text>
</g>
<!-- component/Dashboard/DashboardHeader/DatePickerArea.tsx&#45;&gt;component/common/DatePicker.tsx -->
<g id="edge13" class="edge">
<title>component/Dashboard/DashboardHeader/DatePickerArea.tsx&#45;&gt;component/common/DatePicker.tsx</title>
<path fill="none" stroke="#757575" d="M1632.39,-863.57C1690.16,-863.57 1751.55,-863.57 1803.87,-863.57"/>
<polygon fill="#757575" stroke="#757575" points="1803.72,-867.07 1813.72,-863.57 1803.72,-860.07 1803.72,-867.07"/>
</g>
<!-- component/Dashboard/DashboardHeader/DatePickerArea.tsx&#45;&gt;hook/useBoolean.tsx -->
<g id="edge14" class="edge">
<title>component/Dashboard/DashboardHeader/DatePickerArea.tsx&#45;&gt;hook/useBoolean.tsx</title>
<path fill="none" stroke="#757575" d="M1486.97,-875.54C1540.14,-883.1 1618.37,-884.81 1669,-843.57 1712.83,-807.86 1661.23,-757.34 1705,-721.57 1748.71,-685.84 1813.91,-683.32 1863.82,-688.3"/>
<polygon fill="#757575" stroke="#757575" points="1863.35,-691.77 1873.68,-689.42 1864.14,-684.82 1863.35,-691.77"/>
</g>
<!-- component/Dashboard/DashboardHeader/DatePickerArea.tsx&#45;&gt;hook/useOutsideClick.tsx -->
<g id="edge15" class="edge">
<title>component/Dashboard/DashboardHeader/DatePickerArea.tsx&#45;&gt;hook/useOutsideClick.tsx</title>
<path fill="none" stroke="#757575" d="M1577.56,-875.56C1661.2,-882.34 1763.44,-890.63 1837.2,-896.6"/>
<polygon fill="#757575" stroke="#757575" points="1836.57,-900.06 1846.82,-897.38 1837.14,-893.09 1836.57,-900.06"/>
</g>
<!-- component/common/DatePicker/DatePickerTitle.tsx -->
<g id="node45" class="node">
<title>component/common/DatePicker/DatePickerTitle.tsx</title>
<path fill="none" stroke="#c6c5fe" d="M2539.33,-774.07C2539.33,-774.07 2211.67,-774.07 2211.67,-774.07 2207.83,-774.07 2204,-770.23 2204,-766.4 2204,-766.4 2204,-758.73 2204,-758.73 2204,-754.9 2207.83,-751.07 2211.67,-751.07 2211.67,-751.07 2539.33,-751.07 2539.33,-751.07 2543.17,-751.07 2547,-754.9 2547,-758.73 2547,-758.73 2547,-766.4 2547,-766.4 2547,-770.23 2543.17,-774.07 2539.33,-774.07"/>
<text text-anchor="middle" x="2375.5" y="-758.87" font-family="Arial" font-size="14.00" fill="#c6c5fe">component/common/DatePicker/DatePickerTitle.tsx</text>
</g>
<!-- component/common/DatePicker.tsx&#45;&gt;component/common/DatePicker/DatePickerTitle.tsx -->
<g id="edge54" class="edge">
<title>component/common/DatePicker.tsx&#45;&gt;component/common/DatePicker/DatePickerTitle.tsx</title>
<path fill="none" stroke="#757575" d="M2057.77,-862.68C2093.82,-859.88 2133.05,-854.26 2168,-843.57 2185.5,-838.21 2187.33,-831.12 2204,-823.57 2243.66,-805.6 2290.32,-789.22 2324.79,-777.97"/>
<polygon fill="#757575" stroke="#757575" points="2325.65,-781.37 2334.09,-774.96 2323.5,-774.71 2325.65,-781.37"/>
</g>
<!-- component/common/DatePicker/ListPicker.tsx -->
<g id="node46" class="node">
<title>component/common/DatePicker/ListPicker.tsx</title>
<path fill="none" stroke="#c6c5fe" d="M2521.83,-855.07C2521.83,-855.07 2229.17,-855.07 2229.17,-855.07 2225.33,-855.07 2221.5,-851.23 2221.5,-847.4 2221.5,-847.4 2221.5,-839.73 2221.5,-839.73 2221.5,-835.9 2225.33,-832.07 2229.17,-832.07 2229.17,-832.07 2521.83,-832.07 2521.83,-832.07 2525.67,-832.07 2529.5,-835.9 2529.5,-839.73 2529.5,-839.73 2529.5,-847.4 2529.5,-847.4 2529.5,-851.23 2525.67,-855.07 2521.83,-855.07"/>
<text text-anchor="middle" x="2375.5" y="-839.87" font-family="Arial" font-size="14.00" fill="#c6c5fe">component/common/DatePicker/ListPicker.tsx</text>
</g>
<!-- component/common/DatePicker.tsx&#45;&gt;component/common/DatePicker/ListPicker.tsx -->
<g id="edge55" class="edge">
<title>component/common/DatePicker.tsx&#45;&gt;component/common/DatePicker/ListPicker.tsx</title>
<path fill="none" stroke="#757575" d="M2057.78,-858.06C2104.76,-855.91 2159.39,-853.41 2209.91,-851.1"/>
<polygon fill="#757575" stroke="#757575" points="2209.96,-854.6 2219.79,-850.65 2209.64,-847.61 2209.96,-854.6"/>
</g>
<!-- types/datePicker.d.ts -->
<g id="node47" class="node">
<title>types/datePicker.d.ts</title>
<path fill="none" stroke="#cfffac" d="M2818.33,-895.07C2818.33,-895.07 2684.67,-895.07 2684.67,-895.07 2680.83,-895.07 2677,-891.23 2677,-887.4 2677,-887.4 2677,-879.73 2677,-879.73 2677,-875.9 2680.83,-872.07 2684.67,-872.07 2684.67,-872.07 2818.33,-872.07 2818.33,-872.07 2822.17,-872.07 2826,-875.9 2826,-879.73 2826,-879.73 2826,-887.4 2826,-887.4 2826,-891.23 2822.17,-895.07 2818.33,-895.07"/>
<text text-anchor="middle" x="2751.5" y="-879.87" font-family="Arial" font-size="14.00" fill="#cfffac">types/datePicker.d.ts</text>
</g>
<!-- component/common/DatePicker.tsx&#45;&gt;types/datePicker.d.ts -->
<g id="edge56" class="edge">
<title>component/common/DatePicker.tsx&#45;&gt;types/datePicker.d.ts</title>
<path fill="none" stroke="#757575" d="M2057.9,-866.53C2224.13,-870.62 2519.82,-877.89 2665.11,-881.47"/>
<polygon fill="#757575" stroke="#757575" points="2664.99,-884.97 2675.07,-881.71 2665.16,-877.97 2664.99,-884.97"/>
</g>
<!-- component/Widget/Widget.tsx -->
<g id="node27" class="node">
<title>component/Widget/Widget.tsx</title>
<path fill="none" stroke="#c6c5fe" d="M687.33,-414.07C687.33,-414.07 493.67,-414.07 493.67,-414.07 489.83,-414.07 486,-410.23 486,-406.4 486,-406.4 486,-398.73 486,-398.73 486,-394.9 489.83,-391.07 493.67,-391.07 493.67,-391.07 687.33,-391.07 687.33,-391.07 691.17,-391.07 695,-394.9 695,-398.73 695,-398.73 695,-406.4 695,-406.4 695,-410.23 691.17,-414.07 687.33,-414.07"/>
<text text-anchor="middle" x="590.5" y="-398.87" font-family="Arial" font-size="14.00" fill="#c6c5fe">component/Widget/Widget.tsx</text>
</g>
<!-- component/Widget/Widget.tsx&#45;&gt;hook/useBoolean.tsx -->
<g id="edge29" class="edge">
<title>component/Widget/Widget.tsx&#45;&gt;hook/useBoolean.tsx</title>
<path fill="none" stroke="#757575" d="M695.13,-406.45C958.11,-416.76 1633.16,-446.24 1669,-478.57 1736.72,-539.65 1637.82,-618.9 1705,-680.57 1748.48,-720.48 1817.95,-721.51 1869.27,-715.13"/>
<polygon fill="#757575" stroke="#757575" points="1869.66,-718.61 1879.09,-713.77 1868.7,-711.67 1869.66,-718.61"/>
</g>
<!-- component/Widget/WidgetButtons.tsx -->
<g id="node28" class="node">
<title>component/Widget/WidgetButtons.tsx</title>
<path fill="none" stroke="#c6c5fe" d="M1085.83,-473.07C1085.83,-473.07 844.17,-473.07 844.17,-473.07 840.33,-473.07 836.5,-469.23 836.5,-465.4 836.5,-465.4 836.5,-457.73 836.5,-457.73 836.5,-453.9 840.33,-450.07 844.17,-450.07 844.17,-450.07 1085.83,-450.07 1085.83,-450.07 1089.67,-450.07 1093.5,-453.9 1093.5,-457.73 1093.5,-457.73 1093.5,-465.4 1093.5,-465.4 1093.5,-469.23 1089.67,-473.07 1085.83,-473.07"/>
<text text-anchor="middle" x="965" y="-457.87" font-family="Arial" font-size="14.00" fill="#c6c5fe">component/Widget/WidgetButtons.tsx</text>
</g>
<!-- component/Widget/Widget.tsx&#45;&gt;component/Widget/WidgetButtons.tsx -->
<g id="edge25" class="edge">
<title>component/Widget/Widget.tsx&#45;&gt;component/Widget/WidgetButtons.tsx</title>
<path fill="none" stroke="#757575" d="M655.71,-414.52C691.62,-421.06 737.24,-429.12 778,-435.57 805.31,-439.89 834.95,-444.2 862.36,-448.04"/>
<polygon fill="#757575" stroke="#757575" points="861.67,-451.48 872.06,-449.39 862.63,-444.54 861.67,-451.48"/>
</g>
<!-- component/Widget/WidgetCallCycleSettingModal.tsx -->
<g id="node29" class="node">
<title>component/Widget/WidgetCallCycleSettingModal.tsx</title>
<path fill="none" stroke="#c6c5fe" d="M1596.33,-352.07C1596.33,-352.07 1260.67,-352.07 1260.67,-352.07 1256.83,-352.07 1253,-348.23 1253,-344.4 1253,-344.4 1253,-336.73 1253,-336.73 1253,-332.9 1256.83,-329.07 1260.67,-329.07 1260.67,-329.07 1596.33,-329.07 1596.33,-329.07 1600.17,-329.07 1604,-332.9 1604,-336.73 1604,-336.73 1604,-344.4 1604,-344.4 1604,-348.23 1600.17,-352.07 1596.33,-352.07"/>
<text text-anchor="middle" x="1428.5" y="-336.87" font-family="Arial" font-size="14.00" fill="#c6c5fe">component/Widget/WidgetCallCycleSettingModal.tsx</text>
</g>
<!-- component/Widget/Widget.tsx&#45;&gt;component/Widget/WidgetCallCycleSettingModal.tsx -->
<g id="edge26" class="edge">
<title>component/Widget/Widget.tsx&#45;&gt;component/Widget/WidgetCallCycleSettingModal.tsx</title>
<path fill="none" stroke="#757575" d="M695.05,-392.73C722.04,-390.27 751.1,-387.73 778,-385.57 934.14,-373.04 1111.57,-360.89 1241.48,-352.38"/>
<polygon fill="#757575" stroke="#757575" points="1241.46,-355.89 1251.21,-351.74 1241,-348.9 1241.46,-355.89"/>
</g>
<!-- component/Widget/WidgetChart.tsx -->
<g id="node30" class="node">
<title>component/Widget/WidgetChart.tsx</title>
<path fill="none" stroke="#c6c5fe" d="M1078.33,-191.07C1078.33,-191.07 851.67,-191.07 851.67,-191.07 847.83,-191.07 844,-187.23 844,-183.4 844,-183.4 844,-175.73 844,-175.73 844,-171.9 847.83,-168.07 851.67,-168.07 851.67,-168.07 1078.33,-168.07 1078.33,-168.07 1082.17,-168.07 1086,-171.9 1086,-175.73 1086,-175.73 1086,-183.4 1086,-183.4 1086,-187.23 1082.17,-191.07 1078.33,-191.07"/>
<text text-anchor="middle" x="965" y="-175.87" font-family="Arial" font-size="14.00" fill="#c6c5fe">component/Widget/WidgetChart.tsx</text>
</g>
<!-- component/Widget/Widget.tsx&#45;&gt;component/Widget/WidgetChart.tsx -->
<g id="edge27" class="edge">
<title>component/Widget/Widget.tsx&#45;&gt;component/Widget/WidgetChart.tsx</title>
<path fill="none" stroke="#757575" d="M611.53,-390.58C673.44,-353.51 861.99,-240.64 934.84,-197.03"/>
<polygon fill="#757575" stroke="#757575" points="936.24,-200.26 943.03,-192.12 932.65,-194.26 936.24,-200.26"/>
</g>
<!-- hook/Widget/useHandleWidgetApi.tsx -->
<g id="node31" class="node">
<title>hook/Widget/useHandleWidgetApi.tsx</title>
<path fill="none" stroke="#c6c5fe" d="M1549.33,-393.07C1549.33,-393.07 1307.67,-393.07 1307.67,-393.07 1303.83,-393.07 1300,-389.23 1300,-385.4 1300,-385.4 1300,-377.73 1300,-377.73 1300,-373.9 1303.83,-370.07 1307.67,-370.07 1307.67,-370.07 1549.33,-370.07 1549.33,-370.07 1553.17,-370.07 1557,-373.9 1557,-377.73 1557,-377.73 1557,-385.4 1557,-385.4 1557,-389.23 1553.17,-393.07 1549.33,-393.07"/>
<text text-anchor="middle" x="1428.5" y="-377.87" font-family="Arial" font-size="14.00" fill="#c6c5fe">hook/Widget/useHandleWidgetApi.tsx</text>
</g>
<!-- component/Widget/Widget.tsx&#45;&gt;hook/Widget/useHandleWidgetApi.tsx -->
<g id="edge28" class="edge">
<title>component/Widget/Widget.tsx&#45;&gt;hook/Widget/useHandleWidgetApi.tsx</title>
<path fill="none" stroke="#757575" d="M695.27,-399.96C844.77,-396.21 1121.12,-389.26 1288.24,-385.07"/>
<polygon fill="#757575" stroke="#757575" points="1288.16,-388.57 1298.07,-384.82 1287.99,-381.57 1288.16,-388.57"/>
</g>
<!-- component/Widget/WidgetButtons.tsx&#45;&gt;store/WidgetPropsSettingModalProvider.tsx -->
<g id="edge30" class="edge">
<title>component/Widget/WidgetButtons.tsx&#45;&gt;store/WidgetPropsSettingModalProvider.tsx</title>
<path fill="none" stroke="#757575" d="M996,-473.51C1034.49,-489.7 1102.24,-521.17 1152,-560.57 1171.01,-575.62 1166.37,-590.61 1188,-601.57 1213.06,-614.26 1241.51,-621.73 1269.82,-625.85"/>
<polygon fill="#757575" stroke="#757575" points="1269.21,-629.3 1279.58,-627.12 1270.11,-622.36 1269.21,-629.3"/>
</g>
<!-- store/WidgetProvider.tsx -->
<g id="node32" class="node">
<title>store/WidgetProvider.tsx</title>
<path fill="none" stroke="#c6c5fe" d="M2015.33,-593.07C2015.33,-593.07 1857.67,-593.07 1857.67,-593.07 1853.83,-593.07 1850,-589.23 1850,-585.4 1850,-585.4 1850,-577.73 1850,-577.73 1850,-573.9 1853.83,-570.07 1857.67,-570.07 1857.67,-570.07 2015.33,-570.07 2015.33,-570.07 2019.17,-570.07 2023,-573.9 2023,-577.73 2023,-577.73 2023,-585.4 2023,-585.4 2023,-589.23 2019.17,-593.07 2015.33,-593.07"/>
<text text-anchor="middle" x="1936.5" y="-577.87" font-family="Arial" font-size="14.00" fill="#c6c5fe">store/WidgetProvider.tsx</text>
</g>
<!-- component/Widget/WidgetButtons.tsx&#45;&gt;store/WidgetProvider.tsx -->
<g id="edge31" class="edge">
<title>component/Widget/WidgetButtons.tsx&#45;&gt;store/WidgetProvider.tsx</title>
<path fill="none" stroke="#757575" d="M1087.12,-449.59C1262.52,-434.7 1576.38,-418.04 1669,-478.57 1700.62,-499.23 1674.32,-533.53 1705,-555.57 1742.99,-582.85 1793.95,-590.73 1838.29,-591.2"/>
<polygon fill="#757575" stroke="#757575" points="1838.21,-594.7 1848.2,-591.16 1838.18,-587.7 1838.21,-594.7"/>
</g>
<!-- component/Widget/WidgetCallCycleSettingModal.tsx&#45;&gt;common/widget.ts -->
<g id="edge32" class="edge">
<title>component/Widget/WidgetCallCycleSettingModal.tsx&#45;&gt;common/widget.ts</title>
<path fill="none" stroke="#757575" d="M1577.56,-352.56C1669.8,-360.04 1784.66,-369.35 1859,-375.37"/>
<polygon fill="#757575" stroke="#757575" points="1858.36,-378.83 1868.61,-376.15 1858.93,-371.85 1858.36,-378.83"/>
</g>
<!-- component/Widget/WidgetCallCycleSettingModal/CycleInput.tsx -->
<g id="node33" class="node">
<title>component/Widget/WidgetCallCycleSettingModal/CycleInput.tsx</title>
<path fill="none" stroke="#cfffac" d="M2139.83,-311.07C2139.83,-311.07 1733.17,-311.07 1733.17,-311.07 1729.33,-311.07 1725.5,-307.23 1725.5,-303.4 1725.5,-303.4 1725.5,-295.73 1725.5,-295.73 1725.5,-291.9 1729.33,-288.07 1733.17,-288.07 1733.17,-288.07 2139.83,-288.07 2139.83,-288.07 2143.67,-288.07 2147.5,-291.9 2147.5,-295.73 2147.5,-295.73 2147.5,-303.4 2147.5,-303.4 2147.5,-307.23 2143.67,-311.07 2139.83,-311.07"/>
<text text-anchor="middle" x="1936.5" y="-295.87" font-family="Arial" font-size="14.00" fill="#cfffac">component/Widget/WidgetCallCycleSettingModal/CycleInput.tsx</text>
</g>
<!-- component/Widget/WidgetCallCycleSettingModal.tsx&#45;&gt;component/Widget/WidgetCallCycleSettingModal/CycleInput.tsx -->
<g id="edge33" class="edge">
<title>component/Widget/WidgetCallCycleSettingModal.tsx&#45;&gt;component/Widget/WidgetCallCycleSettingModal/CycleInput.tsx</title>
<path fill="none" stroke="#757575" d="M1577.56,-328.57C1640.01,-323.51 1712.84,-317.61 1776.44,-312.46"/>
<polygon fill="#757575" stroke="#757575" points="1776.6,-315.95 1786.28,-311.66 1776.03,-308.98 1776.6,-315.95"/>
</g>
<!-- component/Widget/WidgetCallCycleSettingModal/LastCallTimeBox.tsx -->
<g id="node34" class="node">
<title>component/Widget/WidgetCallCycleSettingModal/LastCallTimeBox.tsx</title>
<path fill="none" stroke="#cfffac" d="M2160.33,-352.07C2160.33,-352.07 1712.67,-352.07 1712.67,-352.07 1708.83,-352.07 1705,-348.23 1705,-344.4 1705,-344.4 1705,-336.73 1705,-336.73 1705,-332.9 1708.83,-329.07 1712.67,-329.07 1712.67,-329.07 2160.33,-329.07 2160.33,-329.07 2164.17,-329.07 2168,-332.9 2168,-336.73 2168,-336.73 2168,-344.4 2168,-344.4 2168,-348.23 2164.17,-352.07 2160.33,-352.07"/>
<text text-anchor="middle" x="1936.5" y="-336.87" font-family="Arial" font-size="14.00" fill="#cfffac">component/Widget/WidgetCallCycleSettingModal/LastCallTimeBox.tsx</text>
</g>
<!-- component/Widget/WidgetCallCycleSettingModal.tsx&#45;&gt;component/Widget/WidgetCallCycleSettingModal/LastCallTimeBox.tsx -->
<g id="edge34" class="edge">
<title>component/Widget/WidgetCallCycleSettingModal.tsx&#45;&gt;component/Widget/WidgetCallCycleSettingModal/LastCallTimeBox.tsx</title>
<path fill="none" stroke="#757575" d="M1604.35,-340.57C1633.09,-340.57 1663.34,-340.57 1693.37,-340.57"/>
<polygon fill="#757575" stroke="#757575" points="1693.36,-344.07 1703.36,-340.57 1693.36,-337.07 1693.36,-344.07"/>
</g>
<!-- component/chart/BarChart.tsx -->
<g id="node35" class="node">
<title>component/chart/BarChart.tsx</title>
<path fill="none" stroke="#c6c5fe" d="M1522.33,-151.07C1522.33,-151.07 1334.67,-151.07 1334.67,-151.07 1330.83,-151.07 1327,-147.23 1327,-143.4 1327,-143.4 1327,-135.73 1327,-135.73 1327,-131.9 1330.83,-128.07 1334.67,-128.07 1334.67,-128.07 1522.33,-128.07 1522.33,-128.07 1526.17,-128.07 1530,-131.9 1530,-135.73 1530,-135.73 1530,-143.4 1530,-143.4 1530,-147.23 1526.17,-151.07 1522.33,-151.07"/>
<text text-anchor="middle" x="1428.5" y="-135.87" font-family="Arial" font-size="14.00" fill="#c6c5fe">component/chart/BarChart.tsx</text>
</g>
<!-- component/Widget/WidgetChart.tsx&#45;&gt;component/chart/BarChart.tsx -->
<g id="edge35" class="edge">
<title>component/Widget/WidgetChart.tsx&#45;&gt;component/chart/BarChart.tsx</title>
<path fill="none" stroke="#757575" d="M1086.35,-169.14C1157.06,-163.01 1245.86,-155.31 1315.14,-149.31"/>
<polygon fill="#757575" stroke="#757575" points="1315.36,-152.8 1325.02,-148.45 1314.75,-145.83 1315.36,-152.8"/>
</g>
<!-- component/chart/InformaticsChart.tsx -->
<g id="node36" class="node">
<title>component/chart/InformaticsChart.tsx</title>
<path fill="none" stroke="#c6c5fe" d="M1546.83,-231.07C1546.83,-231.07 1310.17,-231.07 1310.17,-231.07 1306.33,-231.07 1302.5,-227.23 1302.5,-223.4 1302.5,-223.4 1302.5,-215.73 1302.5,-215.73 1302.5,-211.9 1306.33,-208.07 1310.17,-208.07 1310.17,-208.07 1546.83,-208.07 1546.83,-208.07 1550.67,-208.07 1554.5,-211.9 1554.5,-215.73 1554.5,-215.73 1554.5,-223.4 1554.5,-223.4 1554.5,-227.23 1550.67,-231.07 1546.83,-231.07"/>
<text text-anchor="middle" x="1428.5" y="-215.87" font-family="Arial" font-size="14.00" fill="#c6c5fe">component/chart/InformaticsChart.tsx</text>
</g>
<!-- component/Widget/WidgetChart.tsx&#45;&gt;component/chart/InformaticsChart.tsx -->
<g id="edge36" class="edge">
<title>component/Widget/WidgetChart.tsx&#45;&gt;component/chart/InformaticsChart.tsx</title>
<path fill="none" stroke="#757575" d="M1086.35,-190C1149.09,-195.44 1226.07,-202.11 1291.02,-207.74"/>
<polygon fill="#757575" stroke="#757575" points="1290.39,-211.2 1300.66,-208.57 1291,-204.22 1290.39,-211.2"/>
</g>
<!-- component/chart/LineChart.tsx -->
<g id="node37" class="node">
<title>component/chart/LineChart.tsx</title>
<path fill="none" stroke="#c6c5fe" d="M1525.33,-110.07C1525.33,-110.07 1331.67,-110.07 1331.67,-110.07 1327.83,-110.07 1324,-106.23 1324,-102.4 1324,-102.4 1324,-94.73 1324,-94.73 1324,-90.9 1327.83,-87.07 1331.67,-87.07 1331.67,-87.07 1525.33,-87.07 1525.33,-87.07 1529.17,-87.07 1533,-90.9 1533,-94.73 1533,-94.73 1533,-102.4 1533,-102.4 1533,-106.23 1529.17,-110.07 1525.33,-110.07"/>
<text text-anchor="middle" x="1428.5" y="-94.87" font-family="Arial" font-size="14.00" fill="#c6c5fe">component/chart/LineChart.tsx</text>
</g>
<!-- component/Widget/WidgetChart.tsx&#45;&gt;component/chart/LineChart.tsx -->
<g id="edge37" class="edge">
<title>component/Widget/WidgetChart.tsx&#45;&gt;component/chart/LineChart.tsx</title>
<path fill="none" stroke="#757575" d="M1001.29,-167.69C1044.71,-153.58 1120.9,-130.48 1188,-118.57 1228.19,-111.43 1272.63,-106.83 1312.22,-103.87"/>
<polygon fill="#757575" stroke="#757575" points="1312.28,-107.37 1322,-103.16 1311.78,-100.39 1312.28,-107.37"/>
</g>
<!-- hook/Widget/useHandleWidgetApi.tsx&#45;&gt;common/api.ts -->
<g id="edge60" class="edge">
<title>hook/Widget/useHandleWidgetApi.tsx&#45;&gt;common/api.ts</title>
<path fill="none" stroke="#757575" d="M1557.29,-373.28C1595.88,-376.36 1636.57,-385.72 1669,-407.57 1697.03,-426.46 1677.05,-455.56 1705,-474.57 1753.22,-507.36 1820.59,-511.7 1870.04,-509.28"/>
<polygon fill="#757575" stroke="#757575" points="1869.97,-512.79 1879.74,-508.7 1869.55,-505.81 1869.97,-512.79"/>
</g>
<!-- hook/Widget/useHandleWidgetApi.tsx&#45;&gt;types/widget.d.ts -->
<g id="edge65" class="edge">
<title>hook/Widget/useHandleWidgetApi.tsx&#45;&gt;types/widget.d.ts</title>
<path fill="none" stroke="#757575" d="M1557.46,-382.82C1594.43,-386.52 1634.18,-393.83 1669,-407.57 1687.6,-414.91 1686.21,-427.73 1705,-434.57 1881.09,-498.65 2363.99,-440.28 2547,-480.57 2609.76,-494.38 2678.35,-525.26 2717.71,-544.65"/>
<polygon fill="#757575" stroke="#757575" points="2715.91,-547.66 2726.42,-549 2719.04,-541.4 2715.91,-547.66"/>
</g>
<!-- hook/Widget/useHandleWidgetApi.tsx&#45;&gt;types/chart.d.ts -->
<g id="edge64" class="edge">
<title>hook/Widget/useHandleWidgetApi.tsx&#45;&gt;types/chart.d.ts</title>
<path fill="none" stroke="#757575" d="M1557.3,-392.78C1603.77,-396.35 1656.72,-399.82 1705,-401.57 1910.64,-409.02 1977.46,-479.27 2168,-401.57 2259.38,-364.31 2332.29,-264.98 2361.13,-221.02"/>
<polygon fill="#757575" stroke="#757575" points="2364.07,-222.91 2366.53,-212.61 2358.18,-219.13 2364.07,-222.91"/>
</g>
<!-- hook/Widget/useHandleWidgetApi.tsx&#45;&gt;common/date.ts -->
<g id="edge61" class="edge">
<title>hook/Widget/useHandleWidgetApi.tsx&#45;&gt;common/date.ts</title>
<path fill="none" stroke="#757575" d="M1509.04,-369.58C1560.16,-366.43 1625.01,-371.51 1669,-407.57 1710.1,-441.25 1663.5,-488.39 1705,-521.57 1785.64,-586.05 2068.42,-533.28 2168,-560.57 2235.71,-579.13 2308.07,-619.53 2346.58,-642.9"/>
<polygon fill="#757575" stroke="#757575" points="2344.42,-645.69 2354.77,-647.94 2348.09,-639.72 2344.42,-645.69"/>
</g>
<!-- hook/Widget/useHandleWidgetApi.tsx&#45;&gt;common/widget.ts -->
<g id="edge62" class="edge">
<title>hook/Widget/useHandleWidgetApi.tsx&#45;&gt;common/widget.ts</title>
<path fill="none" stroke="#757575" d="M1557.19,-381.57C1652.2,-381.57 1778.76,-381.57 1858.7,-381.57"/>
<polygon fill="#757575" stroke="#757575" points="1858.64,-385.07 1868.64,-381.57 1858.64,-378.07 1858.64,-385.07"/>
</g>
<!-- hook/Widget/useHandleWidgetApi.tsx&#45;&gt;store/DashboardProvider.tsx -->
<g id="edge63" class="edge">
<title>hook/Widget/useHandleWidgetApi.tsx&#45;&gt;store/DashboardProvider.tsx</title>
<path fill="none" stroke="#757575" d="M1492.62,-369.58C1546.44,-363.28 1622.31,-364.27 1669,-407.57 1733.3,-467.2 1645.11,-537.51 1705,-601.57 1736.01,-634.74 1782.9,-650.3 1826.3,-657.26"/>
<polygon fill="#757575" stroke="#757575" points="1825.65,-660.7 1836.04,-658.67 1826.65,-653.77 1825.65,-660.7"/>
</g>
<!-- store/WidgetProvider.tsx&#45;&gt;types/widget.d.ts -->
<g id="edge74" class="edge">
<title>store/WidgetProvider.tsx&#45;&gt;types/widget.d.ts</title>
<path fill="none" stroke="#757575" d="M2023.35,-579.46C2184.27,-575.5 2528.48,-567.03 2678.32,-563.34"/>
<polygon fill="#757575" stroke="#757575" points="2678.21,-566.85 2688.12,-563.1 2678.03,-559.85 2678.21,-566.85"/>
</g>
<!-- component/chart/BarChart.tsx&#45;&gt;common/chart.ts -->
<g id="edge43" class="edge">
<title>component/chart/BarChart.tsx&#45;&gt;common/chart.ts</title>
<path fill="none" stroke="#757575" d="M1530.38,-139.57C1629.02,-139.57 1776.73,-139.57 1863.89,-139.57"/>
<polygon fill="#757575" stroke="#757575" points="1863.74,-143.07 1873.74,-139.57 1863.74,-136.07 1863.74,-143.07"/>
</g>
<!-- component/chart/BarChart.tsx&#45;&gt;types/chart.d.ts -->
<g id="edge46" class="edge">
<title>component/chart/BarChart.tsx&#45;&gt;types/chart.d.ts</title>
<path fill="none" stroke="#757575" d="M1530.23,-147.19C1582.39,-151.06 1647.1,-155.74 1705,-159.57 1925.61,-174.16 2187.27,-189.11 2307.73,-195.86"/>
<polygon fill="#757575" stroke="#757575" points="2307.25,-199.34 2317.43,-196.4 2307.64,-192.35 2307.25,-199.34"/>
</g>
<!-- component/chart/ChartSvg.tsx -->
<g id="node42" class="node">
<title>component/chart/ChartSvg.tsx</title>
<path fill="none" stroke="#cfffac" d="M2031.83,-69.07C2031.83,-69.07 1841.17,-69.07 1841.17,-69.07 1837.33,-69.07 1833.5,-65.23 1833.5,-61.4 1833.5,-61.4 1833.5,-53.73 1833.5,-53.73 1833.5,-49.9 1837.33,-46.07 1841.17,-46.07 1841.17,-46.07 2031.83,-46.07 2031.83,-46.07 2035.67,-46.07 2039.5,-49.9 2039.5,-53.73 2039.5,-53.73 2039.5,-61.4 2039.5,-61.4 2039.5,-65.23 2035.67,-69.07 2031.83,-69.07"/>
<text text-anchor="middle" x="1936.5" y="-53.87" font-family="Arial" font-size="14.00" fill="#cfffac">component/chart/ChartSvg.tsx</text>
</g>
<!-- component/chart/BarChart.tsx&#45;&gt;component/chart/ChartSvg.tsx -->
<g id="edge44" class="edge">
<title>component/chart/BarChart.tsx&#45;&gt;component/chart/ChartSvg.tsx</title>
<path fill="none" stroke="#757575" d="M1530.23,-147.19C1574.87,-146.53 1626.74,-139.97 1669,-118.57 1690.63,-107.61 1683.36,-88.52 1705,-77.57 1740.48,-59.62 1782.98,-52.56 1821.77,-50.65"/>
<polygon fill="#757575" stroke="#757575" points="1821.76,-54.16 1831.62,-50.29 1821.5,-47.16 1821.76,-54.16"/>
</g>
<!-- hook/useResize.tsx -->
<g id="node43" class="node">
<title>hook/useResize.tsx</title>
<path fill="none" stroke="#cfffac" d="M1998.83,-110.07C1998.83,-110.07 1874.17,-110.07 1874.17,-110.07 1870.33,-110.07 1866.5,-106.23 1866.5,-102.4 1866.5,-102.4 1866.5,-94.73 1866.5,-94.73 1866.5,-90.9 1870.33,-87.07 1874.17,-87.07 1874.17,-87.07 1998.83,-87.07 1998.83,-87.07 2002.67,-87.07 2006.5,-90.9 2006.5,-94.73 2006.5,-94.73 2006.5,-102.4 2006.5,-102.4 2006.5,-106.23 2002.67,-110.07 1998.83,-110.07"/>
<text text-anchor="middle" x="1936.5" y="-94.87" font-family="Arial" font-size="14.00" fill="#cfffac">hook/useResize.tsx</text>
</g>
<!-- component/chart/BarChart.tsx&#45;&gt;hook/useResize.tsx -->
<g id="edge45" class="edge">
<title>component/chart/BarChart.tsx&#45;&gt;hook/useResize.tsx</title>
<path fill="none" stroke="#757575" d="M1530.38,-131.39C1625.67,-123.67 1766.75,-112.24 1854.8,-105.11"/>
<polygon fill="#757575" stroke="#757575" points="1854.87,-108.61 1864.55,-104.32 1854.3,-101.64 1854.87,-108.61"/>
</g>
<!-- component/chart/InformaticsChart.tsx&#45;&gt;types/chart.d.ts -->
<g id="edge48" class="edge">
<title>component/chart/InformaticsChart.tsx&#45;&gt;types/chart.d.ts</title>
<path fill="none" stroke="#757575" d="M1546.52,-231.56C1692.39,-244.49 1949.2,-260.56 2168,-239.57 2218.34,-234.74 2274.64,-223.43 2315.73,-214.06"/>
<polygon fill="#757575" stroke="#757575" points="2316.47,-217.48 2325.42,-211.82 2314.89,-210.66 2316.47,-217.48"/>
</g>
<!-- component/chart/InformaticsChart/InforMaticsBox.tsx -->
<g id="node44" class="node">
<title>component/chart/InformaticsChart/InforMaticsBox.tsx</title>
<path fill="none" stroke="#c6c5fe" d="M2103.83,-231.07C2103.83,-231.07 1769.17,-231.07 1769.17,-231.07 1765.33,-231.07 1761.5,-227.23 1761.5,-223.4 1761.5,-223.4 1761.5,-215.73 1761.5,-215.73 1761.5,-211.9 1765.33,-208.07 1769.17,-208.07 1769.17,-208.07 2103.83,-208.07 2103.83,-208.07 2107.67,-208.07 2111.5,-211.9 2111.5,-215.73 2111.5,-215.73 2111.5,-223.4 2111.5,-223.4 2111.5,-227.23 2107.67,-231.07 2103.83,-231.07"/>
<text text-anchor="middle" x="1936.5" y="-215.87" font-family="Arial" font-size="14.00" fill="#c6c5fe">component/chart/InformaticsChart/InforMaticsBox.tsx</text>
</g>
<!-- component/chart/InformaticsChart.tsx&#45;&gt;component/chart/InformaticsChart/InforMaticsBox.tsx -->
<g id="edge47" class="edge">
<title>component/chart/InformaticsChart.tsx&#45;&gt;component/chart/InformaticsChart/InforMaticsBox.tsx</title>
<path fill="none" stroke="#757575" d="M1554.9,-219.57C1613.7,-219.57 1684.94,-219.57 1749.82,-219.57"/>
<polygon fill="#757575" stroke="#757575" points="1749.5,-223.07 1759.5,-219.57 1749.5,-216.07 1749.5,-223.07"/>
</g>
<!-- component/chart/LineChart.tsx&#45;&gt;common/chart.ts -->
<g id="edge50" class="edge">
<title>component/chart/LineChart.tsx&#45;&gt;common/chart.ts</title>
<path fill="none" stroke="#757575" d="M1533.42,-106.99C1632.1,-114.98 1777.81,-126.79 1864.05,-133.78"/>
<polygon fill="#757575" stroke="#757575" points="1863.54,-137.25 1873.79,-134.57 1864.1,-130.27 1863.54,-137.25"/>
</g>
<!-- component/chart/LineChart.tsx&#45;&gt;types/chart.d.ts -->
<g id="edge53" class="edge">
<title>component/chart/LineChart.tsx&#45;&gt;types/chart.d.ts</title>
<path fill="none" stroke="#757575" d="M1461.98,-86.69C1567.39,-50.02 1908.19,53.62 2168,-36.57 2250.74,-65.29 2325.38,-142.43 2357.64,-179.35"/>
<polygon fill="#757575" stroke="#757575" points="2354.75,-181.36 2363.92,-186.66 2360.06,-176.8 2354.75,-181.36"/>
</g>
<!-- component/chart/LineChart.tsx&#45;&gt;component/chart/ChartSvg.tsx -->
<g id="edge51" class="edge">
<title>component/chart/LineChart.tsx&#45;&gt;component/chart/ChartSvg.tsx</title>
<path fill="none" stroke="#757575" d="M1533.42,-90.15C1617.29,-83.35 1735.13,-73.8 1821.57,-66.8"/>
<polygon fill="#757575" stroke="#757575" points="1821.82,-70.29 1831.5,-65.99 1821.25,-63.31 1821.82,-70.29"/>
</g>
<!-- component/chart/LineChart.tsx&#45;&gt;hook/useResize.tsx -->
<g id="edge52" class="edge">
<title>component/chart/LineChart.tsx&#45;&gt;hook/useResize.tsx</title>
<path fill="none" stroke="#757575" d="M1533.42,-98.57C1628.64,-98.57 1767.65,-98.57 1854.76,-98.57"/>
<polygon fill="#757575" stroke="#757575" points="1854.66,-102.07 1864.66,-98.57 1854.66,-95.07 1854.66,-102.07"/>
</g>
<!-- component/Widget/WidgetPropsSettingModal.tsx -->
<g id="node38" class="node">
<title>component/Widget/WidgetPropsSettingModal.tsx</title>
<path fill="none" stroke="#c6c5fe" d="M1121.83,-593.07C1121.83,-593.07 808.17,-593.07 808.17,-593.07 804.33,-593.07 800.5,-589.23 800.5,-585.4 800.5,-585.4 800.5,-577.73 800.5,-577.73 800.5,-573.9 804.33,-570.07 808.17,-570.07 808.17,-570.07 1121.83,-570.07 1121.83,-570.07 1125.67,-570.07 1129.5,-573.9 1129.5,-577.73 1129.5,-577.73 1129.5,-585.4 1129.5,-585.4 1129.5,-589.23 1125.67,-593.07 1121.83,-593.07"/>
<text text-anchor="middle" x="965" y="-577.87" font-family="Arial" font-size="14.00" fill="#c6c5fe">component/Widget/WidgetPropsSettingModal.tsx</text>
</g>
<!-- component/Widget/WidgetPropsSettingModal.tsx&#45;&gt;store/WidgetPropsSettingModalProvider.tsx -->
<g id="edge41" class="edge">
<title>component/Widget/WidgetPropsSettingModal.tsx&#45;&gt;store/WidgetPropsSettingModalProvider.tsx</title>
<path fill="none" stroke="#757575" d="M1098.35,-593.54C1127.86,-596.2 1158.99,-598.99 1188,-601.57 1217.31,-604.17 1248.64,-606.94 1278.65,-609.57"/>
<polygon fill="#757575" stroke="#757575" points="1278.3,-613.05 1288.57,-610.44 1278.92,-606.08 1278.3,-613.05"/>
</g>
<!-- component/Widget/WidgetPropsSettingModal/WidgetPropsButtons.tsx -->
<g id="node39" class="node">
<title>component/Widget/WidgetPropsSettingModal/WidgetPropsButtons.tsx</title>
<path fill="none" stroke="#c6c5fe" d="M1653.33,-593.07C1653.33,-593.07 1203.67,-593.07 1203.67,-593.07 1199.83,-593.07 1196,-589.23 1196,-585.4 1196,-585.4 1196,-577.73 1196,-577.73 1196,-573.9 1199.83,-570.07 1203.67,-570.07 1203.67,-570.07 1653.33,-570.07 1653.33,-570.07 1657.17,-570.07 1661,-573.9 1661,-577.73 1661,-577.73 1661,-585.4 1661,-585.4 1661,-589.23 1657.17,-593.07 1653.33,-593.07"/>
<text text-anchor="middle" x="1428.5" y="-577.87" font-family="Arial" font-size="14.00" fill="#c6c5fe">component/Widget/WidgetPropsSettingModal/WidgetPropsButtons.tsx</text>
</g>
<!-- component/Widget/WidgetPropsSettingModal.tsx&#45;&gt;component/Widget/WidgetPropsSettingModal/WidgetPropsButtons.tsx -->
<g id="edge38" class="edge">
<title>component/Widget/WidgetPropsSettingModal.tsx&#45;&gt;component/Widget/WidgetPropsSettingModal/WidgetPropsButtons.tsx</title>
<path fill="none" stroke="#757575" d="M1129.68,-581.57C1147.39,-581.57 1165.67,-581.57 1184.07,-581.57"/>
<polygon fill="#757575" stroke="#757575" points="1184.02,-585.07 1194.02,-581.57 1184.02,-578.07 1184.02,-585.07"/>
</g>
<!-- component/Widget/WidgetPropsSettingModal/WidgetPropsList.tsx -->
<g id="node40" class="node">
<title>component/Widget/WidgetPropsSettingModal/WidgetPropsList.tsx</title>
<path fill="none" stroke="#cfffac" d="M1640.83,-511.07C1640.83,-511.07 1216.17,-511.07 1216.17,-511.07 1212.33,-511.07 1208.5,-507.23 1208.5,-503.4 1208.5,-503.4 1208.5,-495.73 1208.5,-495.73 1208.5,-491.9 1212.33,-488.07 1216.17,-488.07 1216.17,-488.07 1640.83,-488.07 1640.83,-488.07 1644.67,-488.07 1648.5,-491.9 1648.5,-495.73 1648.5,-495.73 1648.5,-503.4 1648.5,-503.4 1648.5,-507.23 1644.67,-511.07 1640.83,-511.07"/>
<text text-anchor="middle" x="1428.5" y="-495.87" font-family="Arial" font-size="14.00" fill="#cfffac">component/Widget/WidgetPropsSettingModal/WidgetPropsList.tsx</text>
</g>
<!-- component/Widget/WidgetPropsSettingModal.tsx&#45;&gt;component/Widget/WidgetPropsSettingModal/WidgetPropsList.tsx -->
<g id="edge39" class="edge">
<title>component/Widget/WidgetPropsSettingModal.tsx&#45;&gt;component/Widget/WidgetPropsSettingModal/WidgetPropsList.tsx</title>
<path fill="none" stroke="#757575" d="M1000.9,-569.6C1044.22,-555.27 1120.65,-531.67 1188,-519.57 1201.91,-517.07 1216.33,-514.88 1230.88,-512.96"/>
<polygon fill="#757575" stroke="#757575" points="1231.05,-516.47 1240.53,-511.74 1230.17,-509.53 1231.05,-516.47"/>
</g>
<!-- hook/useGetApiList.tsx -->
<g id="node41" class="node">
<title>hook/useGetApiList.tsx</title>
<path fill="none" stroke="#c6c5fe" d="M1502.33,-552.07C1502.33,-552.07 1354.67,-552.07 1354.67,-552.07 1350.83,-552.07 1347,-548.23 1347,-544.4 1347,-544.4 1347,-536.73 1347,-536.73 1347,-532.9 1350.83,-529.07 1354.67,-529.07 1354.67,-529.07 1502.33,-529.07 1502.33,-529.07 1506.17,-529.07 1510,-532.9 1510,-536.73 1510,-536.73 1510,-544.4 1510,-544.4 1510,-548.23 1506.17,-552.07 1502.33,-552.07"/>
<text text-anchor="middle" x="1428.5" y="-536.87" font-family="Arial" font-size="14.00" fill="#c6c5fe">hook/useGetApiList.tsx</text>
</g>
<!-- component/Widget/WidgetPropsSettingModal.tsx&#45;&gt;hook/useGetApiList.tsx -->
<g id="edge40" class="edge">
<title>component/Widget/WidgetPropsSettingModal.tsx&#45;&gt;hook/useGetApiList.tsx</title>
<path fill="none" stroke="#757575" d="M1090.15,-569.58C1122.03,-566.57 1156.28,-563.39 1188,-560.57 1236.55,-556.24 1290.67,-551.7 1335.16,-548.04"/>
<polygon fill="#757575" stroke="#757575" points="1335.37,-551.54 1345.05,-547.23 1334.79,-544.56 1335.37,-551.54"/>
</g>
<!-- component/Widget/WidgetPropsSettingModal/WidgetPropsButtons.tsx&#45;&gt;store/WidgetProvider.tsx -->
<g id="edge42" class="edge">
<title>component/Widget/WidgetPropsSettingModal/WidgetPropsButtons.tsx&#45;&gt;store/WidgetProvider.tsx</title>
<path fill="none" stroke="#757575" d="M1661.4,-581.57C1723.76,-581.57 1787.85,-581.57 1838.36,-581.57"/>
<polygon fill="#757575" stroke="#757575" points="1838.07,-585.07 1848.07,-581.57 1838.07,-578.07 1838.07,-585.07"/>
</g>
<!-- hook/useGetApiList.tsx&#45;&gt;common/api.ts -->
<g id="edge66" class="edge">
<title>hook/useGetApiList.tsx&#45;&gt;common/api.ts</title>
<path fill="none" stroke="#757575" d="M1510.24,-534.34C1609.91,-526.66 1777.51,-513.74 1869.73,-506.64"/>
<polygon fill="#757575" stroke="#757575" points="1869.93,-510.13 1879.63,-505.87 1869.39,-503.15 1869.93,-510.13"/>
</g>
<!-- component/chart/InformaticsChart/InforMaticsBox.tsx&#45;&gt;types/chart.d.ts -->
<g id="edge49" class="edge">
<title>component/chart/InformaticsChart/InforMaticsBox.tsx&#45;&gt;types/chart.d.ts</title>
<path fill="none" stroke="#757575" d="M2111.78,-211.59C2180.34,-208.45 2254.96,-205.04 2307.09,-202.65"/>
<polygon fill="#757575" stroke="#757575" points="2307.18,-206.15 2317.01,-202.2 2306.86,-199.16 2307.18,-206.15"/>
</g>
<!-- component/common/DatePicker/DatePickerTitle.tsx&#45;&gt;types/widget.d.ts -->
<g id="edge57" class="edge">
<title>component/common/DatePicker/DatePickerTitle.tsx&#45;&gt;types/widget.d.ts</title>
<path fill="none" stroke="#757575" d="M2403.12,-750.58C2436.95,-735.15 2496.97,-707.17 2547,-680.57 2610.52,-646.79 2682.76,-603.29 2721.8,-579.35"/>
<polygon fill="#757575" stroke="#757575" points="2723.46,-582.43 2730.14,-574.21 2719.79,-576.47 2723.46,-582.43"/>
</g>
<!-- component/common/DatePicker/ListPicker.tsx&#45;&gt;types/datePicker.d.ts -->
<g id="edge59" class="edge">
<title>component/common/DatePicker/ListPicker.tsx&#45;&gt;types/datePicker.d.ts</title>
<path fill="none" stroke="#757575" d="M2488.46,-855.54C2545.2,-861.61 2612.99,-868.86 2665.4,-874.47"/>
<polygon fill="#757575" stroke="#757575" points="2664.86,-877.93 2675.18,-875.51 2665.6,-870.97 2664.86,-877.93"/>
</g>
<!-- component/common/DatePicker/ListPickerItem.tsx -->
<g id="node48" class="node">
<title>component/common/DatePicker/ListPickerItem.tsx</title>
<path fill="none" stroke="#cfffac" d="M2912.33,-854.07C2912.33,-854.07 2590.67,-854.07 2590.67,-854.07 2586.83,-854.07 2583,-850.23 2583,-846.4 2583,-846.4 2583,-838.73 2583,-838.73 2583,-834.9 2586.83,-831.07 2590.67,-831.07 2590.67,-831.07 2912.33,-831.07 2912.33,-831.07 2916.17,-831.07 2920,-834.9 2920,-838.73 2920,-838.73 2920,-846.4 2920,-846.4 2920,-850.23 2916.17,-854.07 2912.33,-854.07"/>
<text text-anchor="middle" x="2751.5" y="-838.87" font-family="Arial" font-size="14.00" fill="#cfffac">component/common/DatePicker/ListPickerItem.tsx</text>
</g>
<!-- component/common/DatePicker/ListPicker.tsx&#45;&gt;component/common/DatePicker/ListPickerItem.tsx -->
<g id="edge58" class="edge">
<title>component/common/DatePicker/ListPicker.tsx&#45;&gt;component/common/DatePicker/ListPickerItem.tsx</title>
<path fill="none" stroke="#757575" d="M2529.97,-843.16C2543.65,-843.12 2557.58,-843.08 2571.45,-843.05"/>
<polygon fill="#757575" stroke="#757575" points="2571.05,-846.55 2581.04,-843.02 2571.03,-839.55 2571.05,-846.55"/>
</g>
<!-- page/Dashboard.tsx&#45;&gt;component/Dashboard/DashboardHeader.tsx -->
<g id="edge67" class="edge">
<title>page/Dashboard.tsx&#45;&gt;component/Dashboard/DashboardHeader.tsx</title>
<path fill="none" stroke="#757575" d="M358.59,-616.54C404.87,-637.39 500.31,-680.39 552.84,-704.05"/>
<polygon fill="#757575" stroke="#757575" points="551.12,-707.12 561.68,-708.03 554,-700.74 551.12,-707.12"/>
</g>
<!-- page/Dashboard.tsx&#45;&gt;component/Widget/Widget.tsx -->
<g id="edge68" class="edge">
<title>page/Dashboard.tsx&#45;&gt;component/Widget/Widget.tsx</title>
<path fill="none" stroke="#757575" d="M346.96,-592.83C389.8,-559.22 513.26,-462.38 565.59,-421.32"/>
<polygon fill="#757575" stroke="#757575" points="567.6,-424.19 573.31,-415.27 563.28,-418.69 567.6,-424.19"/>
</g>
<!-- page/Dashboard.tsx&#45;&gt;store/WidgetProvider.tsx -->
<g id="edge70" class="edge">
<title>page/Dashboard.tsx&#45;&gt;store/WidgetProvider.tsx</title>
<path fill="none" stroke="#757575" d="M403.32,-613.62C603.59,-637.53 1187.9,-696.93 1669,-642.57 1745.62,-633.91 1832.31,-611.68 1885.44,-596.59"/>
<polygon fill="#757575" stroke="#757575" points="1886.15,-600.02 1894.79,-593.9 1884.22,-593.29 1886.15,-600.02"/>
</g>
<!-- page/Dashboard.tsx&#45;&gt;component/Widget/WidgetPropsSettingModal.tsx -->
<g id="edge69" class="edge">
<title>page/Dashboard.tsx&#45;&gt;component/Widget/WidgetPropsSettingModal.tsx</title>
<path fill="none" stroke="#757575" d="M403.27,-601.97C496.1,-598.6 661.55,-592.57 788.75,-587.95"/>
<polygon fill="#757575" stroke="#757575" points="788.78,-591.45 798.64,-587.59 788.52,-584.45 788.78,-591.45"/>
</g>
</g>
</svg>
