<?xml version="1.0" encoding="UTF-8" standalone="no"?>
<!DOCTYPE svg PUBLIC "-//W3C//DTD SVG 1.1//EN"
 "http://www.w3.org/Graphics/SVG/1.1/DTD/svg11.dtd">
<!-- Generated by graphviz version 7.1.0 (20230121.1956)
 -->
<!-- Title: G Pages: 1 -->
<svg width="3414pt" height="939pt"
 viewBox="0.00 0.00 3414.20 938.51" xmlns="http://www.w3.org/2000/svg" xmlns:xlink="http://www.w3.org/1999/xlink">
<g id="graph0" class="graph" transform="scale(1 1) rotate(0) translate(21.6 916.91)">
<title>G</title>
<polygon fill="#111111" stroke="none" points="-21.6,21.6 -21.6,-916.91 3392.6,-916.91 3392.6,21.6 -21.6,21.6"/>
<!-- App.tsx -->
<g id="node1" class="node">
<title>App.tsx</title>
<path fill="none" stroke="#c6c5fe" d="M57.33,-561.46C57.33,-561.46 7.67,-561.46 7.67,-561.46 3.83,-561.46 0,-557.62 0,-553.79 0,-553.79 0,-546.12 0,-546.12 0,-542.29 3.83,-538.46 7.67,-538.46 7.67,-538.46 57.33,-538.46 57.33,-538.46 61.17,-538.46 65,-542.29 65,-546.12 65,-546.12 65,-553.79 65,-553.79 65,-557.62 61.17,-561.46 57.33,-561.46"/>
<text text-anchor="middle" x="32.5" y="-546.26" font-family="Arial" font-size="14.00" fill="#c6c5fe">App.tsx</text>
</g>
<!-- router/Router.tsx -->
<g id="node2" class="node">
<title>router/Router.tsx</title>
<path fill="none" stroke="#c6c5fe" d="M215.33,-561.46C215.33,-561.46 108.67,-561.46 108.67,-561.46 104.83,-561.46 101,-557.62 101,-553.79 101,-553.79 101,-546.12 101,-546.12 101,-542.29 104.83,-538.46 108.67,-538.46 108.67,-538.46 215.33,-538.46 215.33,-538.46 219.17,-538.46 223,-542.29 223,-546.12 223,-546.12 223,-553.79 223,-553.79 223,-557.62 219.17,-561.46 215.33,-561.46"/>
<text text-anchor="middle" x="162" y="-546.26" font-family="Arial" font-size="14.00" fill="#c6c5fe">router/Router.tsx</text>
</g>
<!-- App.tsx&#45;&gt;router/Router.tsx -->
<g id="edge1" class="edge">
<title>App.tsx&#45;&gt;router/Router.tsx</title>
<path fill="none" stroke="#757575" d="M65.34,-549.96C72.7,-549.96 80.81,-549.96 89.12,-549.96"/>
<polygon fill="#757575" stroke="#757575" points="88.99,-553.46 98.99,-549.96 88.99,-546.46 88.99,-553.46"/>
</g>
<!-- page/Dashboard.tsx -->
<g id="node45" class="node">
<title>page/Dashboard.tsx</title>
<path fill="none" stroke="#c6c5fe" d="M395.33,-561.46C395.33,-561.46 266.67,-561.46 266.67,-561.46 262.83,-561.46 259,-557.62 259,-553.79 259,-553.79 259,-546.12 259,-546.12 259,-542.29 262.83,-538.46 266.67,-538.46 266.67,-538.46 395.33,-538.46 395.33,-538.46 399.17,-538.46 403,-542.29 403,-546.12 403,-546.12 403,-553.79 403,-553.79 403,-557.62 399.17,-561.46 395.33,-561.46"/>
<text text-anchor="middle" x="331" y="-546.26" font-family="Arial" font-size="14.00" fill="#c6c5fe">page/Dashboard.tsx</text>
</g>
<!-- router/Router.tsx&#45;&gt;page/Dashboard.tsx -->
<g id="edge70" class="edge">
<title>router/Router.tsx&#45;&gt;page/Dashboard.tsx</title>
<path fill="none" stroke="#757575" d="M223.29,-549.96C231.1,-549.96 239.21,-549.96 247.3,-549.96"/>
<polygon fill="#757575" stroke="#757575" points="247.19,-553.46 257.19,-549.96 247.19,-546.46 247.19,-553.46"/>
</g>
<!-- asset/image/pause.png -->
<g id="node3" class="node">
<title>asset/image/pause.png</title>
<path fill="none" stroke="#cfffac" d="M1619.83,-798.46C1619.83,-798.46 1471.17,-798.46 1471.17,-798.46 1467.33,-798.46 1463.5,-794.62 1463.5,-790.79 1463.5,-790.79 1463.5,-783.12 1463.5,-783.12 1463.5,-779.29 1467.33,-775.46 1471.17,-775.46 1471.17,-775.46 1619.83,-775.46 1619.83,-775.46 1623.67,-775.46 1627.5,-779.29 1627.5,-783.12 1627.5,-783.12 1627.5,-790.79 1627.5,-790.79 1627.5,-794.62 1623.67,-798.46 1619.83,-798.46"/>
<text text-anchor="middle" x="1545.5" y="-783.26" font-family="Arial" font-size="14.00" fill="#cfffac">asset/image/pause.png</text>
</g>
<!-- asset/image/play.png -->
<g id="node4" class="node">
<title>asset/image/play.png</title>
<path fill="none" stroke="#cfffac" d="M1613.33,-757.46C1613.33,-757.46 1477.67,-757.46 1477.67,-757.46 1473.83,-757.46 1470,-753.62 1470,-749.79 1470,-749.79 1470,-742.12 1470,-742.12 1470,-738.29 1473.83,-734.46 1477.67,-734.46 1477.67,-734.46 1613.33,-734.46 1613.33,-734.46 1617.17,-734.46 1621,-738.29 1621,-742.12 1621,-742.12 1621,-749.79 1621,-749.79 1621,-753.62 1617.17,-757.46 1613.33,-757.46"/>
<text text-anchor="middle" x="1545.5" y="-742.26" font-family="Arial" font-size="14.00" fill="#cfffac">asset/image/play.png</text>
</g>
<!-- common/api.ts -->
<g id="node5" class="node">
<title>common/api.ts</title>
<path fill="none" stroke="#c6c5fe" d="M1083.83,-146.46C1083.83,-146.46 989.17,-146.46 989.17,-146.46 985.33,-146.46 981.5,-142.62 981.5,-138.79 981.5,-138.79 981.5,-131.12 981.5,-131.12 981.5,-127.29 985.33,-123.46 989.17,-123.46 989.17,-123.46 1083.83,-123.46 1083.83,-123.46 1087.67,-123.46 1091.5,-127.29 1091.5,-131.12 1091.5,-131.12 1091.5,-138.79 1091.5,-138.79 1091.5,-142.62 1087.67,-146.46 1083.83,-146.46"/>
<text text-anchor="middle" x="1036.5" y="-131.26" font-family="Arial" font-size="14.00" fill="#c6c5fe">common/api.ts</text>
</g>
<!-- types/api.d.ts -->
<g id="node6" class="node">
<title>types/api.d.ts</title>
<path fill="none" stroke="#cfffac" d="M1588.33,-25.46C1588.33,-25.46 1502.67,-25.46 1502.67,-25.46 1498.83,-25.46 1495,-21.62 1495,-17.79 1495,-17.79 1495,-10.12 1495,-10.12 1495,-6.29 1498.83,-2.46 1502.67,-2.46 1502.67,-2.46 1588.33,-2.46 1588.33,-2.46 1592.17,-2.46 1596,-6.29 1596,-10.12 1596,-10.12 1596,-17.79 1596,-17.79 1596,-21.62 1592.17,-25.46 1588.33,-25.46"/>
<text text-anchor="middle" x="1545.5" y="-10.26" font-family="Arial" font-size="14.00" fill="#cfffac">types/api.d.ts</text>
</g>
<!-- common/api.ts&#45;&gt;types/api.d.ts -->
<g id="edge2" class="edge">
<title>common/api.ts&#45;&gt;types/api.d.ts</title>
<path fill="none" stroke="#757575" d="M1091.92,-144.52C1142.5,-150.3 1217.57,-150.61 1269,-113.96 1300.75,-91.33 1273.17,-56.47 1305,-33.96 1356.73,2.63 1431.36,2.85 1483.52,-3.03"/>
<polygon fill="#757575" stroke="#757575" points="1482.77,-6.46 1493.12,-4.22 1483.63,0.49 1482.77,-6.46"/>
</g>
<!-- common/chart.ts -->
<g id="node7" class="node">
<title>common/chart.ts</title>
<path fill="none" stroke="#c6c5fe" d="M2059.33,-136.46C2059.33,-136.46 1952.67,-136.46 1952.67,-136.46 1948.83,-136.46 1945,-132.62 1945,-128.79 1945,-128.79 1945,-121.12 1945,-121.12 1945,-117.29 1948.83,-113.46 1952.67,-113.46 1952.67,-113.46 2059.33,-113.46 2059.33,-113.46 2063.17,-113.46 2067,-117.29 2067,-121.12 2067,-121.12 2067,-128.79 2067,-128.79 2067,-132.62 2063.17,-136.46 2059.33,-136.46"/>
<text text-anchor="middle" x="2006" y="-121.26" font-family="Arial" font-size="14.00" fill="#c6c5fe">common/chart.ts</text>
</g>
<!-- types/chart.d.ts -->
<g id="node8" class="node">
<title>types/chart.d.ts</title>
<path fill="none" stroke="#cfffac" d="M2446.33,-96.46C2446.33,-96.46 2348.67,-96.46 2348.67,-96.46 2344.83,-96.46 2341,-92.62 2341,-88.79 2341,-88.79 2341,-81.12 2341,-81.12 2341,-77.29 2344.83,-73.46 2348.67,-73.46 2348.67,-73.46 2446.33,-73.46 2446.33,-73.46 2450.17,-73.46 2454,-77.29 2454,-81.12 2454,-81.12 2454,-88.79 2454,-88.79 2454,-92.62 2450.17,-96.46 2446.33,-96.46"/>
<text text-anchor="middle" x="2397.5" y="-81.26" font-family="Arial" font-size="14.00" fill="#cfffac">types/chart.d.ts</text>
</g>
<!-- common/chart.ts&#45;&gt;types/chart.d.ts -->
<g id="edge3" class="edge">
<title>common/chart.ts&#45;&gt;types/chart.d.ts</title>
<path fill="none" stroke="#757575" d="M2067.43,-118.75C2138.32,-111.47 2255.5,-99.44 2329.22,-91.87"/>
<polygon fill="#757575" stroke="#757575" points="2329.57,-95.35 2339.16,-90.84 2328.86,-88.38 2329.57,-95.35"/>
</g>
<!-- common/date.ts -->
<g id="node9" class="node">
<title>common/date.ts</title>
<path fill="none" stroke="#cfffac" d="M2449.33,-524.46C2449.33,-524.46 2345.67,-524.46 2345.67,-524.46 2341.83,-524.46 2338,-520.62 2338,-516.79 2338,-516.79 2338,-509.12 2338,-509.12 2338,-505.29 2341.83,-501.46 2345.67,-501.46 2345.67,-501.46 2449.33,-501.46 2449.33,-501.46 2453.17,-501.46 2457,-505.29 2457,-509.12 2457,-509.12 2457,-516.79 2457,-516.79 2457,-520.62 2453.17,-524.46 2449.33,-524.46"/>
<text text-anchor="middle" x="2397.5" y="-509.26" font-family="Arial" font-size="14.00" fill="#cfffac">common/date.ts</text>
</g>
<!-- common/widget.ts -->
<g id="node10" class="node">
<title>common/widget.ts</title>
<path fill="none" stroke="#cfffac" d="M1603.83,-329.46C1603.83,-329.46 1487.17,-329.46 1487.17,-329.46 1483.33,-329.46 1479.5,-325.62 1479.5,-321.79 1479.5,-321.79 1479.5,-314.12 1479.5,-314.12 1479.5,-310.29 1483.33,-306.46 1487.17,-306.46 1487.17,-306.46 1603.83,-306.46 1603.83,-306.46 1607.67,-306.46 1611.5,-310.29 1611.5,-314.12 1611.5,-314.12 1611.5,-321.79 1611.5,-321.79 1611.5,-325.62 1607.67,-329.46 1603.83,-329.46"/>
<text text-anchor="middle" x="1545.5" y="-314.26" font-family="Arial" font-size="14.00" fill="#cfffac">common/widget.ts</text>
</g>
<!-- component/Dashboard/CommonStyle.ts -->
<g id="node11" class="node">
<title>component/Dashboard/CommonStyle.ts</title>
<path fill="none" stroke="#cfffac" d="M3363.33,-783.46C3363.33,-783.46 3108.67,-783.46 3108.67,-783.46 3104.83,-783.46 3101,-779.62 3101,-775.79 3101,-775.79 3101,-768.12 3101,-768.12 3101,-764.29 3104.83,-760.46 3108.67,-760.46 3108.67,-760.46 3363.33,-760.46 3363.33,-760.46 3367.17,-760.46 3371,-764.29 3371,-768.12 3371,-768.12 3371,-775.79 3371,-775.79 3371,-779.62 3367.17,-783.46 3363.33,-783.46"/>
<text text-anchor="middle" x="3236" y="-768.26" font-family="Arial" font-size="14.00" fill="#cfffac">component/Dashboard/CommonStyle.ts</text>
</g>
<!-- component/Dashboard/DashboardHeader.tsx -->
<g id="node12" class="node">
<title>component/Dashboard/DashboardHeader.tsx</title>
<path fill="none" stroke="#c6c5fe" d="M747.33,-697.46C747.33,-697.46 459.67,-697.46 459.67,-697.46 455.83,-697.46 452,-693.62 452,-689.79 452,-689.79 452,-682.12 452,-682.12 452,-678.29 455.83,-674.46 459.67,-674.46 459.67,-674.46 747.33,-674.46 747.33,-674.46 751.17,-674.46 755,-678.29 755,-682.12 755,-682.12 755,-689.79 755,-689.79 755,-693.62 751.17,-697.46 747.33,-697.46"/>
<text text-anchor="middle" x="603.5" y="-682.26" font-family="Arial" font-size="14.00" fill="#c6c5fe">component/Dashboard/DashboardHeader.tsx</text>
</g>
<!-- component/Dashboard/DashboardHeader/PlayIcon.tsx -->
<g id="node13" class="node">
<title>component/Dashboard/DashboardHeader/PlayIcon.tsx</title>
<path fill="none" stroke="#c6c5fe" d="M1209.83,-757.46C1209.83,-757.46 863.17,-757.46 863.17,-757.46 859.33,-757.46 855.5,-753.62 855.5,-749.79 855.5,-749.79 855.5,-742.12 855.5,-742.12 855.5,-738.29 859.33,-734.46 863.17,-734.46 863.17,-734.46 1209.83,-734.46 1209.83,-734.46 1213.67,-734.46 1217.5,-738.29 1217.5,-742.12 1217.5,-742.12 1217.5,-749.79 1217.5,-749.79 1217.5,-753.62 1213.67,-757.46 1209.83,-757.46"/>
<text text-anchor="middle" x="1036.5" y="-742.26" font-family="Arial" font-size="14.00" fill="#c6c5fe">component/Dashboard/DashboardHeader/PlayIcon.tsx</text>
</g>
<!-- component/Dashboard/DashboardHeader.tsx&#45;&gt;component/Dashboard/DashboardHeader/PlayIcon.tsx -->
<g id="edge4" class="edge">
<title>component/Dashboard/DashboardHeader.tsx&#45;&gt;component/Dashboard/DashboardHeader/PlayIcon.tsx</title>
<path fill="none" stroke="#757575" d="M669.04,-697.92C708.03,-704.9 758.77,-713.57 804,-719.96 836.92,-724.61 872.57,-728.95 905.8,-732.71"/>
<polygon fill="#757575" stroke="#757575" points="905.14,-736.15 915.47,-733.79 905.92,-729.2 905.14,-736.15"/>
</g>
<!-- component/Dashboard/DashboardHeader/SelectRealTimeRangeArea.tsx -->
<g id="node14" class="node">
<title>component/Dashboard/DashboardHeader/SelectRealTimeRangeArea.tsx</title>
<path fill="none" stroke="#c6c5fe" d="M1778.33,-839.46C1778.33,-839.46 1312.67,-839.46 1312.67,-839.46 1308.83,-839.46 1305,-835.62 1305,-831.79 1305,-831.79 1305,-824.12 1305,-824.12 1305,-820.29 1308.83,-816.46 1312.67,-816.46 1312.67,-816.46 1778.33,-816.46 1778.33,-816.46 1782.17,-816.46 1786,-820.29 1786,-824.12 1786,-824.12 1786,-831.79 1786,-831.79 1786,-835.62 1782.17,-839.46 1778.33,-839.46"/>
<text text-anchor="middle" x="1545.5" y="-824.26" font-family="Arial" font-size="14.00" fill="#c6c5fe">component/Dashboard/DashboardHeader/SelectRealTimeRangeArea.tsx</text>
</g>
<!-- component/Dashboard/DashboardHeader.tsx&#45;&gt;component/Dashboard/DashboardHeader/SelectRealTimeRangeArea.tsx -->
<g id="edge5" class="edge">
<title>component/Dashboard/DashboardHeader.tsx&#45;&gt;component/Dashboard/DashboardHeader/SelectRealTimeRangeArea.tsx</title>
<path fill="none" stroke="#757575" d="M627.38,-697.94C663.7,-716.33 737.27,-751.06 804,-766.96 964.21,-805.13 1148.8,-820.4 1293.6,-826.12"/>
<polygon fill="#757575" stroke="#757575" points="1293.2,-829.61 1303.33,-826.49 1293.47,-822.61 1293.2,-829.61"/>
</g>
<!-- component/Dashboard/DashboardHeader/TimeBlock.tsx -->
<g id="node15" class="node">
<title>component/Dashboard/DashboardHeader/TimeBlock.tsx</title>
<path fill="none" stroke="#c6c5fe" d="M1215.83,-677.46C1215.83,-677.46 857.17,-677.46 857.17,-677.46 853.33,-677.46 849.5,-673.62 849.5,-669.79 849.5,-669.79 849.5,-662.12 849.5,-662.12 849.5,-658.29 853.33,-654.46 857.17,-654.46 857.17,-654.46 1215.83,-654.46 1215.83,-654.46 1219.67,-654.46 1223.5,-658.29 1223.5,-662.12 1223.5,-662.12 1223.5,-669.79 1223.5,-669.79 1223.5,-673.62 1219.67,-677.46 1215.83,-677.46"/>
<text text-anchor="middle" x="1036.5" y="-662.26" font-family="Arial" font-size="14.00" fill="#c6c5fe">component/Dashboard/DashboardHeader/TimeBlock.tsx</text>
</g>
<!-- component/Dashboard/DashboardHeader.tsx&#45;&gt;component/Dashboard/DashboardHeader/TimeBlock.tsx -->
<g id="edge6" class="edge">
<title>component/Dashboard/DashboardHeader.tsx&#45;&gt;component/Dashboard/DashboardHeader/TimeBlock.tsx</title>
<path fill="none" stroke="#757575" d="M755.24,-678.96C781.91,-677.72 810.04,-676.42 837.77,-675.13"/>
<polygon fill="#757575" stroke="#757575" points="837.87,-678.63 847.7,-674.67 837.55,-671.64 837.87,-678.63"/>
</g>
<!-- store/DashboardProvider.tsx -->
<g id="node16" class="node">
<title>store/DashboardProvider.tsx</title>
<path fill="none" stroke="#c6c5fe" d="M2096.83,-766.46C2096.83,-766.46 1915.17,-766.46 1915.17,-766.46 1911.33,-766.46 1907.5,-762.62 1907.5,-758.79 1907.5,-758.79 1907.5,-751.12 1907.5,-751.12 1907.5,-747.29 1911.33,-743.46 1915.17,-743.46 1915.17,-743.46 2096.83,-743.46 2096.83,-743.46 2100.67,-743.46 2104.5,-747.29 2104.5,-751.12 2104.5,-751.12 2104.5,-758.79 2104.5,-758.79 2104.5,-762.62 2100.67,-766.46 2096.83,-766.46"/>
<text text-anchor="middle" x="2006" y="-751.26" font-family="Arial" font-size="14.00" fill="#c6c5fe">store/DashboardProvider.tsx</text>
</g>
<!-- component/Dashboard/DashboardHeader.tsx&#45;&gt;store/DashboardProvider.tsx -->
<g id="edge7" class="edge">
<title>component/Dashboard/DashboardHeader.tsx&#45;&gt;store/DashboardProvider.tsx</title>
<path fill="none" stroke="#757575" d="M755.45,-686.96C1027.9,-689.43 1591.57,-697.76 1786,-724.96 1802.33,-727.24 1805.77,-731.01 1822,-733.96 1845.88,-738.29 1871.67,-741.9 1896.16,-744.84"/>
<polygon fill="#757575" stroke="#757575" points="1895.46,-748.28 1905.8,-745.96 1896.28,-741.33 1895.46,-748.28"/>
</g>
<!-- store/WidgetProvider.tsx -->
<g id="node17" class="node">
<title>store/WidgetProvider.tsx</title>
<path fill="none" stroke="#c6c5fe" d="M1624.33,-445.46C1624.33,-445.46 1466.67,-445.46 1466.67,-445.46 1462.83,-445.46 1459,-441.62 1459,-437.79 1459,-437.79 1459,-430.12 1459,-430.12 1459,-426.29 1462.83,-422.46 1466.67,-422.46 1466.67,-422.46 1624.33,-422.46 1624.33,-422.46 1628.17,-422.46 1632,-426.29 1632,-430.12 1632,-430.12 1632,-437.79 1632,-437.79 1632,-441.62 1628.17,-445.46 1624.33,-445.46"/>
<text text-anchor="middle" x="1545.5" y="-430.26" font-family="Arial" font-size="14.00" fill="#c6c5fe">store/WidgetProvider.tsx</text>
</g>
<!-- component/Dashboard/DashboardHeader.tsx&#45;&gt;store/WidgetProvider.tsx -->
<g id="edge8" class="edge">
<title>component/Dashboard/DashboardHeader.tsx&#45;&gt;store/WidgetProvider.tsx</title>
<path fill="none" stroke="#757575" d="M660.31,-674.02C700.26,-665.58 755.37,-654.19 804,-644.96 1010.1,-605.84 1069.01,-627.29 1269,-563.96 1362.44,-534.37 1464.97,-479.49 1514.46,-451.45"/>
<polygon fill="#757575" stroke="#757575" points="1515.93,-454.64 1522.88,-446.64 1512.46,-448.56 1515.93,-454.64"/>
</g>
<!-- component/Dashboard/DashboardHeader/PlayIcon.tsx&#45;&gt;asset/image/pause.png -->
<g id="edge17" class="edge">
<title>component/Dashboard/DashboardHeader/PlayIcon.tsx&#45;&gt;asset/image/pause.png</title>
<path fill="none" stroke="#757575" d="M1185.85,-757.95C1271.88,-764.91 1377.55,-773.46 1451.83,-779.46"/>
<polygon fill="#757575" stroke="#757575" points="1451.26,-782.93 1461.51,-780.24 1451.82,-775.95 1451.26,-782.93"/>
</g>
<!-- component/Dashboard/DashboardHeader/PlayIcon.tsx&#45;&gt;asset/image/play.png -->
<g id="edge18" class="edge">
<title>component/Dashboard/DashboardHeader/PlayIcon.tsx&#45;&gt;asset/image/play.png</title>
<path fill="none" stroke="#757575" d="M1217.68,-745.96C1299.6,-745.96 1392.71,-745.96 1458.53,-745.96"/>
<polygon fill="#757575" stroke="#757575" points="1458.16,-749.46 1468.16,-745.96 1458.16,-742.46 1458.16,-749.46"/>
</g>
<!-- component/Dashboard/DashboardHeader/SelectRealTimeRangeArea.tsx&#45;&gt;component/Dashboard/CommonStyle.ts -->
<g id="edge20" class="edge">
<title>component/Dashboard/DashboardHeader/SelectRealTimeRangeArea.tsx&#45;&gt;component/Dashboard/CommonStyle.ts</title>
<path fill="none" stroke="#757575" d="M1786.26,-832.54C2150.25,-838.34 2825.26,-844.25 3065,-813.96 3106.6,-808.7 3152.71,-796.92 3186.4,-787.17"/>
<polygon fill="#757575" stroke="#757575" points="3187.27,-790.56 3195.88,-784.38 3185.3,-783.84 3187.27,-790.56"/>
</g>
<!-- component/Dashboard/DashboardHeader/SelectRealTimeRangeArea.tsx&#45;&gt;store/DashboardProvider.tsx -->
<g id="edge25" class="edge">
<title>component/Dashboard/DashboardHeader/SelectRealTimeRangeArea.tsx&#45;&gt;store/DashboardProvider.tsx</title>
<path fill="none" stroke="#757575" d="M1761.34,-816.04C1769.75,-813.68 1778.01,-811 1786,-807.96 1804.69,-800.85 1803.52,-788.6 1822,-780.96 1845.01,-771.43 1870.89,-765.3 1895.79,-761.36"/>
<polygon fill="#757575" stroke="#757575" points="1896.25,-764.83 1905.64,-759.93 1895.24,-757.91 1896.25,-764.83"/>
</g>
<!-- hook/useBoolean.tsx -->
<g id="node22" class="node">
<title>hook/useBoolean.tsx</title>
<path fill="none" stroke="#cfffac" d="M2072.83,-524.46C2072.83,-524.46 1939.17,-524.46 1939.17,-524.46 1935.33,-524.46 1931.5,-520.62 1931.5,-516.79 1931.5,-516.79 1931.5,-509.12 1931.5,-509.12 1931.5,-505.29 1935.33,-501.46 1939.17,-501.46 1939.17,-501.46 2072.83,-501.46 2072.83,-501.46 2076.67,-501.46 2080.5,-505.29 2080.5,-509.12 2080.5,-509.12 2080.5,-516.79 2080.5,-516.79 2080.5,-520.62 2076.67,-524.46 2072.83,-524.46"/>
<text text-anchor="middle" x="2006" y="-509.26" font-family="Arial" font-size="14.00" fill="#cfffac">hook/useBoolean.tsx</text>
</g>
<!-- component/Dashboard/DashboardHeader/SelectRealTimeRangeArea.tsx&#45;&gt;hook/useBoolean.tsx -->
<g id="edge23" class="edge">
<title>component/Dashboard/DashboardHeader/SelectRealTimeRangeArea.tsx&#45;&gt;hook/useBoolean.tsx</title>
<path fill="none" stroke="#757575" d="M1596.21,-839.9C1650.22,-849.64 1735.54,-855.1 1786,-807.96 1863.53,-735.53 1753.23,-652.76 1822,-571.96 1846.41,-543.27 1884.85,-528.41 1920.21,-520.76"/>
<polygon fill="#757575" stroke="#757575" points="1920.46,-524.28 1929.59,-518.91 1919.1,-517.42 1920.46,-524.28"/>
</g>
<!-- hook/useOutsideClick.tsx -->
<g id="node23" class="node">
<title>hook/useOutsideClick.tsx</title>
<path fill="none" stroke="#cfffac" d="M2086.33,-725.46C2086.33,-725.46 1925.67,-725.46 1925.67,-725.46 1921.83,-725.46 1918,-721.62 1918,-717.79 1918,-717.79 1918,-710.12 1918,-710.12 1918,-706.29 1921.83,-702.46 1925.67,-702.46 1925.67,-702.46 2086.33,-702.46 2086.33,-702.46 2090.17,-702.46 2094,-706.29 2094,-710.12 2094,-710.12 2094,-717.79 2094,-717.79 2094,-721.62 2090.17,-725.46 2086.33,-725.46"/>
<text text-anchor="middle" x="2006" y="-710.26" font-family="Arial" font-size="14.00" fill="#cfffac">hook/useOutsideClick.tsx</text>
</g>
<!-- component/Dashboard/DashboardHeader/SelectRealTimeRangeArea.tsx&#45;&gt;hook/useOutsideClick.tsx -->
<g id="edge24" class="edge">
<title>component/Dashboard/DashboardHeader/SelectRealTimeRangeArea.tsx&#45;&gt;hook/useOutsideClick.tsx</title>
<path fill="none" stroke="#757575" d="M1623.07,-839.95C1673.57,-843.72 1738.84,-840.26 1786,-807.96 1816.17,-787.28 1792.09,-755.01 1822,-733.96 1846.33,-716.83 1877.17,-709.51 1906.56,-707.14"/>
<polygon fill="#757575" stroke="#757575" points="1906.46,-710.65 1916.23,-706.55 1906.04,-703.66 1906.46,-710.65"/>
</g>
<!-- component/Dashboard/DashboardHeader/RealTime.tsx -->
<g id="node25" class="node">
<title>component/Dashboard/DashboardHeader/RealTime.tsx</title>
<path fill="none" stroke="#cfffac" d="M2182.33,-884.46C2182.33,-884.46 1829.67,-884.46 1829.67,-884.46 1825.83,-884.46 1822,-880.62 1822,-876.79 1822,-876.79 1822,-869.12 1822,-869.12 1822,-865.29 1825.83,-861.46 1829.67,-861.46 1829.67,-861.46 2182.33,-861.46 2182.33,-861.46 2186.17,-861.46 2190,-865.29 2190,-869.12 2190,-869.12 2190,-876.79 2190,-876.79 2190,-880.62 2186.17,-884.46 2182.33,-884.46"/>
<text text-anchor="middle" x="2006" y="-869.26" font-family="Arial" font-size="14.00" fill="#cfffac">component/Dashboard/DashboardHeader/RealTime.tsx</text>
</g>
<!-- component/Dashboard/DashboardHeader/SelectRealTimeRangeArea.tsx&#45;&gt;component/Dashboard/DashboardHeader/RealTime.tsx -->
<g id="edge21" class="edge">
<title>component/Dashboard/DashboardHeader/SelectRealTimeRangeArea.tsx&#45;&gt;component/Dashboard/DashboardHeader/RealTime.tsx</title>
<path fill="none" stroke="#757575" d="M1668.47,-839.93C1731.03,-846.07 1807.36,-853.56 1871.5,-859.85"/>
<polygon fill="#757575" stroke="#757575" points="1871.12,-863.33 1881.41,-860.83 1871.8,-856.37 1871.12,-863.33"/>
</g>
<!-- component/Dashboard/DashboardHeader/SelectRealTimeListItem.tsx -->
<g id="node26" class="node">
<title>component/Dashboard/DashboardHeader/SelectRealTimeListItem.tsx</title>
<path fill="none" stroke="#c6c5fe" d="M3057.33,-804.46C3057.33,-804.46 2612.67,-804.46 2612.67,-804.46 2608.83,-804.46 2605,-800.62 2605,-796.79 2605,-796.79 2605,-789.12 2605,-789.12 2605,-785.29 2608.83,-781.46 2612.67,-781.46 2612.67,-781.46 3057.33,-781.46 3057.33,-781.46 3061.17,-781.46 3065,-785.29 3065,-789.12 3065,-789.12 3065,-796.79 3065,-796.79 3065,-800.62 3061.17,-804.46 3057.33,-804.46"/>
<text text-anchor="middle" x="2835" y="-789.26" font-family="Arial" font-size="14.00" fill="#c6c5fe">component/Dashboard/DashboardHeader/SelectRealTimeListItem.tsx</text>
</g>
<!-- component/Dashboard/DashboardHeader/SelectRealTimeRangeArea.tsx&#45;&gt;component/Dashboard/DashboardHeader/SelectRealTimeListItem.tsx -->
<g id="edge22" class="edge">
<title>component/Dashboard/DashboardHeader/SelectRealTimeRangeArea.tsx&#45;&gt;component/Dashboard/DashboardHeader/SelectRealTimeListItem.tsx</title>
<path fill="none" stroke="#757575" d="M1786.16,-820.03C1798.28,-819.66 1810.28,-819.3 1822,-818.96 2085.82,-811.26 2388.37,-803.64 2593.42,-798.67"/>
<polygon fill="#757575" stroke="#757575" points="2593.21,-802.17 2603.13,-798.43 2593.04,-795.17 2593.21,-802.17"/>
</g>
<!-- component/Dashboard/DashboardHeader/CurrentTime.tsx -->
<g id="node18" class="node">
<title>component/Dashboard/DashboardHeader/CurrentTime.tsx</title>
<path fill="none" stroke="#cfffac" d="M1730.83,-677.46C1730.83,-677.46 1360.17,-677.46 1360.17,-677.46 1356.33,-677.46 1352.5,-673.62 1352.5,-669.79 1352.5,-669.79 1352.5,-662.12 1352.5,-662.12 1352.5,-658.29 1356.33,-654.46 1360.17,-654.46 1360.17,-654.46 1730.83,-654.46 1730.83,-654.46 1734.67,-654.46 1738.5,-658.29 1738.5,-662.12 1738.5,-662.12 1738.5,-669.79 1738.5,-669.79 1738.5,-673.62 1734.67,-677.46 1730.83,-677.46"/>
<text text-anchor="middle" x="1545.5" y="-662.26" font-family="Arial" font-size="14.00" fill="#cfffac">component/Dashboard/DashboardHeader/CurrentTime.tsx</text>
</g>
<!-- component/Dashboard/DashboardHeader/TimeBlock.tsx&#45;&gt;component/Dashboard/DashboardHeader/CurrentTime.tsx -->
<g id="edge26" class="edge">
<title>component/Dashboard/DashboardHeader/TimeBlock.tsx&#45;&gt;component/Dashboard/DashboardHeader/CurrentTime.tsx</title>
<path fill="none" stroke="#757575" d="M1223.77,-665.96C1261.82,-665.96 1302.05,-665.96 1340.68,-665.96"/>
<polygon fill="#757575" stroke="#757575" points="1340.55,-669.46 1350.55,-665.96 1340.55,-662.46 1340.55,-669.46"/>
</g>
<!-- component/Dashboard/DashboardHeader/DatePickerArea.tsx -->
<g id="node20" class="node">
<title>component/Dashboard/DashboardHeader/DatePickerArea.tsx</title>
<path fill="none" stroke="#c6c5fe" d="M1741.33,-597.46C1741.33,-597.46 1349.67,-597.46 1349.67,-597.46 1345.83,-597.46 1342,-593.62 1342,-589.79 1342,-589.79 1342,-582.12 1342,-582.12 1342,-578.29 1345.83,-574.46 1349.67,-574.46 1349.67,-574.46 1741.33,-574.46 1741.33,-574.46 1745.17,-574.46 1749,-578.29 1749,-582.12 1749,-582.12 1749,-589.79 1749,-589.79 1749,-593.62 1745.17,-597.46 1741.33,-597.46"/>
<text text-anchor="middle" x="1545.5" y="-582.26" font-family="Arial" font-size="14.00" fill="#c6c5fe">component/Dashboard/DashboardHeader/DatePickerArea.tsx</text>
</g>
<!-- component/Dashboard/DashboardHeader/TimeBlock.tsx&#45;&gt;component/Dashboard/DashboardHeader/DatePickerArea.tsx -->
<g id="edge27" class="edge">
<title>component/Dashboard/DashboardHeader/TimeBlock.tsx&#45;&gt;component/Dashboard/DashboardHeader/DatePickerArea.tsx</title>
<path fill="none" stroke="#757575" d="M1113.4,-653.98C1205.48,-639.45 1360.36,-615.01 1457.26,-599.72"/>
<polygon fill="#757575" stroke="#757575" points="1457.67,-603.2 1467,-598.19 1456.57,-596.29 1457.67,-603.2"/>
</g>
<!-- store/DashboardProvider.tsx&#45;&gt;common/date.ts -->
<g id="edge71" class="edge">
<title>store/DashboardProvider.tsx&#45;&gt;common/date.ts</title>
<path fill="none" stroke="#757575" d="M2104.76,-757.45C2133.61,-754.66 2164.32,-747.98 2190,-733.96 2212.18,-721.85 2209.22,-708.85 2226,-689.96 2278.54,-630.8 2344.42,-564.48 2376.75,-532.41"/>
<polygon fill="#757575" stroke="#757575" points="2378.86,-535.24 2383.51,-525.72 2373.93,-530.27 2378.86,-535.24"/>
</g>
<!-- store/WidgetProvider.tsx&#45;&gt;hook/useBoolean.tsx -->
<g id="edge72" class="edge">
<title>store/WidgetProvider.tsx&#45;&gt;hook/useBoolean.tsx</title>
<path fill="none" stroke="#757575" d="M1616.14,-445.95C1698.93,-460.22 1836.88,-483.99 1924.27,-499.05"/>
<polygon fill="#757575" stroke="#757575" points="1923.52,-502.47 1933.97,-500.72 1924.71,-495.57 1923.52,-502.47"/>
</g>
<!-- types/widget.d.ts -->
<g id="node24" class="node">
<title>types/widget.d.ts</title>
<path fill="none" stroke="#cfffac" d="M2059.83,-444.46C2059.83,-444.46 1952.17,-444.46 1952.17,-444.46 1948.33,-444.46 1944.5,-440.62 1944.5,-436.79 1944.5,-436.79 1944.5,-429.12 1944.5,-429.12 1944.5,-425.29 1948.33,-421.46 1952.17,-421.46 1952.17,-421.46 2059.83,-421.46 2059.83,-421.46 2063.67,-421.46 2067.5,-425.29 2067.5,-429.12 2067.5,-429.12 2067.5,-436.79 2067.5,-436.79 2067.5,-440.62 2063.67,-444.46 2059.83,-444.46"/>
<text text-anchor="middle" x="2006" y="-429.26" font-family="Arial" font-size="14.00" fill="#cfffac">types/widget.d.ts</text>
</g>
<!-- store/WidgetProvider.tsx&#45;&gt;types/widget.d.ts -->
<g id="edge73" class="edge">
<title>store/WidgetProvider.tsx&#45;&gt;types/widget.d.ts</title>
<path fill="none" stroke="#757575" d="M1632.47,-433.77C1719.27,-433.58 1851.82,-433.29 1933.18,-433.11"/>
<polygon fill="#757575" stroke="#757575" points="1932.81,-436.61 1942.8,-433.09 1932.79,-429.61 1932.81,-436.61"/>
</g>
<!-- component/Dashboard/DashboardHeader/DateBox.tsx -->
<g id="node19" class="node">
<title>component/Dashboard/DashboardHeader/DateBox.tsx</title>
<path fill="none" stroke="#cfffac" d="M2179.33,-604.46C2179.33,-604.46 1832.67,-604.46 1832.67,-604.46 1828.83,-604.46 1825,-600.62 1825,-596.79 1825,-596.79 1825,-589.12 1825,-589.12 1825,-585.29 1828.83,-581.46 1832.67,-581.46 1832.67,-581.46 2179.33,-581.46 2179.33,-581.46 2183.17,-581.46 2187,-585.29 2187,-589.12 2187,-589.12 2187,-596.79 2187,-596.79 2187,-600.62 2183.17,-604.46 2179.33,-604.46"/>
<text text-anchor="middle" x="2006" y="-589.26" font-family="Arial" font-size="14.00" fill="#cfffac">component/Dashboard/DashboardHeader/DateBox.tsx</text>
</g>
<!-- component/Dashboard/DashboardHeader/DatePickerArea.tsx&#45;&gt;common/date.ts -->
<g id="edge9" class="edge">
<title>component/Dashboard/DashboardHeader/DatePickerArea.tsx&#45;&gt;common/date.ts</title>
<path fill="none" stroke="#757575" d="M1699.65,-573.97C1830.06,-563.61 2022.39,-547.97 2190,-532.96 2235.48,-528.88 2286.56,-523.94 2326.54,-519.98"/>
<polygon fill="#757575" stroke="#757575" points="2326.66,-523.49 2336.27,-519.02 2325.97,-516.52 2326.66,-523.49"/>
</g>
<!-- component/Dashboard/DashboardHeader/DatePickerArea.tsx&#45;&gt;component/Dashboard/CommonStyle.ts -->
<g id="edge10" class="edge">
<title>component/Dashboard/DashboardHeader/DatePickerArea.tsx&#45;&gt;component/Dashboard/CommonStyle.ts</title>
<path fill="none" stroke="#757575" d="M1749.44,-596.24C1761.85,-597.88 1774.11,-599.77 1786,-601.96 1802.46,-604.98 1805.52,-610.1 1822,-612.96 2366.92,-707.39 2535.26,-512.09 3065,-670.96 3122.51,-688.2 3180.79,-729.03 3211.95,-753.16"/>
<polygon fill="#757575" stroke="#757575" points="3209.5,-755.7 3219.52,-759.14 3213.84,-750.2 3209.5,-755.7"/>
</g>
<!-- component/Dashboard/DashboardHeader/DatePickerArea.tsx&#45;&gt;store/DashboardProvider.tsx -->
<g id="edge15" class="edge">
<title>component/Dashboard/DashboardHeader/DatePickerArea.tsx&#45;&gt;store/DashboardProvider.tsx</title>
<path fill="none" stroke="#757575" d="M1622.34,-573.97C1674.13,-570.19 1741.23,-574.55 1786,-611.96 1829.38,-648.2 1778.73,-697.58 1822,-733.96 1842.56,-751.24 1869.33,-759.45 1896.02,-762.67"/>
<polygon fill="#757575" stroke="#757575" points="1895.65,-766.14 1905.93,-763.61 1896.31,-759.18 1895.65,-766.14"/>
</g>
<!-- component/Dashboard/DashboardHeader/DatePickerArea.tsx&#45;&gt;component/Dashboard/DashboardHeader/DateBox.tsx -->
<g id="edge11" class="edge">
<title>component/Dashboard/DashboardHeader/DatePickerArea.tsx&#45;&gt;component/Dashboard/DashboardHeader/DateBox.tsx</title>
<path fill="none" stroke="#757575" d="M1749.27,-589.05C1770.61,-589.38 1792.25,-589.71 1813.46,-590.03"/>
<polygon fill="#757575" stroke="#757575" points="1813.28,-593.53 1823.33,-590.18 1813.38,-586.53 1813.28,-593.53"/>
</g>
<!-- component/common/DatePicker.tsx -->
<g id="node21" class="node">
<title>component/common/DatePicker.tsx</title>
<path fill="none" stroke="#c6c5fe" d="M2119.33,-684.46C2119.33,-684.46 1892.67,-684.46 1892.67,-684.46 1888.83,-684.46 1885,-680.62 1885,-676.79 1885,-676.79 1885,-669.12 1885,-669.12 1885,-665.29 1888.83,-661.46 1892.67,-661.46 1892.67,-661.46 2119.33,-661.46 2119.33,-661.46 2123.17,-661.46 2127,-665.29 2127,-669.12 2127,-669.12 2127,-676.79 2127,-676.79 2127,-680.62 2123.17,-684.46 2119.33,-684.46"/>
<text text-anchor="middle" x="2006" y="-669.26" font-family="Arial" font-size="14.00" fill="#c6c5fe">component/common/DatePicker.tsx</text>
</g>
<!-- component/Dashboard/DashboardHeader/DatePickerArea.tsx&#45;&gt;component/common/DatePicker.tsx -->
<g id="edge12" class="edge">
<title>component/Dashboard/DashboardHeader/DatePickerArea.tsx&#45;&gt;component/common/DatePicker.tsx</title>
<path fill="none" stroke="#757575" d="M1748.51,-597.93C1761.47,-601.73 1774.08,-606.35 1786,-611.96 1806.19,-621.46 1801.97,-637.13 1822,-646.96 1837.98,-654.8 1855.64,-660.47 1873.48,-664.53"/>
<polygon fill="#757575" stroke="#757575" points="1872.62,-667.92 1883.12,-666.55 1874.05,-661.07 1872.62,-667.92"/>
</g>
<!-- component/Dashboard/DashboardHeader/DatePickerArea.tsx&#45;&gt;hook/useBoolean.tsx -->
<g id="edge13" class="edge">
<title>component/Dashboard/DashboardHeader/DatePickerArea.tsx&#45;&gt;hook/useBoolean.tsx</title>
<path fill="none" stroke="#757575" d="M1613.5,-573.99C1669.24,-564.16 1750.69,-550.1 1822,-538.96 1853.91,-533.97 1889.01,-528.88 1919.86,-524.55"/>
<polygon fill="#757575" stroke="#757575" points="1920.11,-528.05 1929.53,-523.2 1919.14,-521.12 1920.11,-528.05"/>
</g>
<!-- component/Dashboard/DashboardHeader/DatePickerArea.tsx&#45;&gt;hook/useOutsideClick.tsx -->
<g id="edge14" class="edge">
<title>component/Dashboard/DashboardHeader/DatePickerArea.tsx&#45;&gt;hook/useOutsideClick.tsx</title>
<path fill="none" stroke="#757575" d="M1749.41,-592.14C1762.41,-597.25 1774.77,-603.76 1786,-611.96 1817.82,-635.18 1790.25,-669.64 1822,-692.96 1846.11,-710.66 1877.04,-718.23 1906.58,-720.71"/>
<polygon fill="#757575" stroke="#757575" points="1906.11,-724.19 1916.31,-721.33 1906.55,-717.2 1906.11,-724.19"/>
</g>
<!-- component/Dashboard/DashboardHeader/DatePickerArea.tsx&#45;&gt;types/widget.d.ts -->
<g id="edge16" class="edge">
<title>component/Dashboard/DashboardHeader/DatePickerArea.tsx&#45;&gt;types/widget.d.ts</title>
<path fill="none" stroke="#757575" d="M1580.8,-574.05C1632.85,-556.02 1734.94,-520.84 1822,-491.96 1867.51,-476.86 1919.56,-460.13 1956.49,-448.35"/>
<polygon fill="#757575" stroke="#757575" points="1957.53,-451.69 1966,-445.32 1955.41,-445.02 1957.53,-451.69"/>
</g>
<!-- component/common/DatePicker/DatePickerTitle.tsx -->
<g id="node41" class="node">
<title>component/common/DatePicker/DatePickerTitle.tsx</title>
<path fill="none" stroke="#cfffac" d="M2561.33,-722.46C2561.33,-722.46 2233.67,-722.46 2233.67,-722.46 2229.83,-722.46 2226,-718.62 2226,-714.79 2226,-714.79 2226,-707.12 2226,-707.12 2226,-703.29 2229.83,-699.46 2233.67,-699.46 2233.67,-699.46 2561.33,-699.46 2561.33,-699.46 2565.17,-699.46 2569,-703.29 2569,-707.12 2569,-707.12 2569,-714.79 2569,-714.79 2569,-718.62 2565.17,-722.46 2561.33,-722.46"/>
<text text-anchor="middle" x="2397.5" y="-707.26" font-family="Arial" font-size="14.00" fill="#cfffac">component/common/DatePicker/DatePickerTitle.tsx</text>
</g>
<!-- component/common/DatePicker.tsx&#45;&gt;component/common/DatePicker/DatePickerTitle.tsx -->
<g id="edge59" class="edge">
<title>component/common/DatePicker.tsx&#45;&gt;component/common/DatePicker/DatePickerTitle.tsx</title>
<path fill="none" stroke="#757575" d="M2127.31,-684.69C2170.07,-688.87 2218.46,-693.59 2262.31,-697.86"/>
<polygon fill="#757575" stroke="#757575" points="2261.85,-701.34 2272.15,-698.82 2262.53,-694.37 2261.85,-701.34"/>
</g>
<!-- component/common/DatePicker/ListPicker.tsx -->
<g id="node42" class="node">
<title>component/common/DatePicker/ListPicker.tsx</title>
<path fill="none" stroke="#c6c5fe" d="M2543.83,-763.46C2543.83,-763.46 2251.17,-763.46 2251.17,-763.46 2247.33,-763.46 2243.5,-759.62 2243.5,-755.79 2243.5,-755.79 2243.5,-748.12 2243.5,-748.12 2243.5,-744.29 2247.33,-740.46 2251.17,-740.46 2251.17,-740.46 2543.83,-740.46 2543.83,-740.46 2547.67,-740.46 2551.5,-744.29 2551.5,-748.12 2551.5,-748.12 2551.5,-755.79 2551.5,-755.79 2551.5,-759.62 2547.67,-763.46 2543.83,-763.46"/>
<text text-anchor="middle" x="2397.5" y="-748.26" font-family="Arial" font-size="14.00" fill="#c6c5fe">component/common/DatePicker/ListPicker.tsx</text>
</g>
<!-- component/common/DatePicker.tsx&#45;&gt;component/common/DatePicker/ListPicker.tsx -->
<g id="edge60" class="edge">
<title>component/common/DatePicker.tsx&#45;&gt;component/common/DatePicker/ListPicker.tsx</title>
<path fill="none" stroke="#757575" d="M2127.11,-673.92C2148.82,-677.44 2170.68,-683.37 2190,-692.96 2210.84,-703.3 2205.23,-720.47 2226,-730.96 2229.57,-732.76 2233.23,-734.43 2236.97,-735.98"/>
<polygon fill="#757575" stroke="#757575" points="2235.67,-739.23 2246.27,-739.49 2238.15,-732.68 2235.67,-739.23"/>
</g>
<!-- types/datePicker.d.ts -->
<g id="node43" class="node">
<title>types/datePicker.d.ts</title>
<path fill="none" stroke="#cfffac" d="M2901.83,-703.46C2901.83,-703.46 2768.17,-703.46 2768.17,-703.46 2764.33,-703.46 2760.5,-699.62 2760.5,-695.79 2760.5,-695.79 2760.5,-688.12 2760.5,-688.12 2760.5,-684.29 2764.33,-680.46 2768.17,-680.46 2768.17,-680.46 2901.83,-680.46 2901.83,-680.46 2905.67,-680.46 2909.5,-684.29 2909.5,-688.12 2909.5,-688.12 2909.5,-695.79 2909.5,-695.79 2909.5,-699.62 2905.67,-703.46 2901.83,-703.46"/>
<text text-anchor="middle" x="2835" y="-688.26" font-family="Arial" font-size="14.00" fill="#cfffac">types/datePicker.d.ts</text>
</g>
<!-- component/common/DatePicker.tsx&#45;&gt;types/datePicker.d.ts -->
<g id="edge61" class="edge">
<title>component/common/DatePicker.tsx&#45;&gt;types/datePicker.d.ts</title>
<path fill="none" stroke="#757575" d="M2127.25,-675.72C2296.55,-679.61 2600.96,-686.6 2748.8,-690"/>
<polygon fill="#757575" stroke="#757575" points="2748.44,-693.49 2758.51,-690.22 2748.6,-686.49 2748.44,-693.49"/>
</g>
<!-- component/Dashboard/DashboardHeader/SelectRealTimeListItem.tsx&#45;&gt;component/Dashboard/CommonStyle.ts -->
<g id="edge19" class="edge">
<title>component/Dashboard/DashboardHeader/SelectRealTimeListItem.tsx&#45;&gt;component/Dashboard/CommonStyle.ts</title>
<path fill="none" stroke="#757575" d="M3063.76,-780.97C3072.35,-780.52 3080.87,-780.07 3089.26,-779.63"/>
<polygon fill="#757575" stroke="#757575" points="3089.29,-783.13 3099.09,-779.11 3088.92,-776.14 3089.29,-783.13"/>
</g>
<!-- component/Widget.tsx -->
<g id="node27" class="node">
<title>component/Widget.tsx</title>
<path fill="none" stroke="#c6c5fe" d="M675.33,-406.46C675.33,-406.46 531.67,-406.46 531.67,-406.46 527.83,-406.46 524,-402.62 524,-398.79 524,-398.79 524,-391.12 524,-391.12 524,-387.29 527.83,-383.46 531.67,-383.46 531.67,-383.46 675.33,-383.46 675.33,-383.46 679.17,-383.46 683,-387.29 683,-391.12 683,-391.12 683,-398.79 683,-398.79 683,-402.62 679.17,-406.46 675.33,-406.46"/>
<text text-anchor="middle" x="603.5" y="-391.26" font-family="Arial" font-size="14.00" fill="#c6c5fe">component/Widget.tsx</text>
</g>
<!-- component/Widget.tsx&#45;&gt;common/api.ts -->
<g id="edge28" class="edge">
<title>component/Widget.tsx&#45;&gt;common/api.ts</title>
<path fill="none" stroke="#757575" d="M640.47,-383.06C677.99,-368.78 735.73,-341.21 768,-297.96 807.19,-245.43 754.09,-197.44 804,-154.96 849.12,-116.55 918.68,-115.63 969.78,-121.83"/>
<polygon fill="#757575" stroke="#757575" points="969.16,-125.28 979.54,-123.14 970.09,-118.34 969.16,-125.28"/>
</g>
<!-- component/Widget.tsx&#45;&gt;common/date.ts -->
<g id="edge29" class="edge">
<title>component/Widget.tsx&#45;&gt;common/date.ts</title>
<path fill="none" stroke="#757575" d="M635.7,-406.95C674.48,-421.2 743,-444.27 804,-453.96 1108.3,-502.28 1882.52,-472.13 2190,-491.96 2235.59,-494.9 2286.67,-500.07 2326.63,-504.55"/>
<polygon fill="#757575" stroke="#757575" points="2326.01,-508.01 2336.35,-505.66 2326.8,-501.05 2326.01,-508.01"/>
</g>
<!-- component/Widget.tsx&#45;&gt;common/widget.ts -->
<g id="edge30" class="edge">
<title>component/Widget.tsx&#45;&gt;common/widget.ts</title>
<path fill="none" stroke="#757575" d="M639.67,-383C679.13,-370.21 745.32,-350.59 804,-341.96 1044.2,-306.63 1332.74,-310.35 1467.77,-314.74"/>
<polygon fill="#757575" stroke="#757575" points="1467.55,-318.24 1477.67,-315.07 1467.79,-311.24 1467.55,-318.24"/>
</g>
<!-- component/Widget.tsx&#45;&gt;store/DashboardProvider.tsx -->
<g id="edge35" class="edge">
<title>component/Widget.tsx&#45;&gt;store/DashboardProvider.tsx</title>
<path fill="none" stroke="#757575" d="M618.96,-406.74C650.47,-431.75 728.55,-490.21 804,-518.96 1015.19,-599.42 1080.8,-577.46 1305,-605.96 1411.38,-619.48 1699.58,-581.46 1786,-644.96 1820.39,-670.22 1788.04,-708.12 1822,-733.96 1843.05,-749.97 1869.59,-757.82 1895.88,-761.13"/>
<polygon fill="#757575" stroke="#757575" points="1895.31,-764.59 1905.61,-762.12 1896.02,-757.62 1895.31,-764.59"/>
</g>
<!-- component/Widget.tsx&#45;&gt;hook/useBoolean.tsx -->
<g id="edge34" class="edge">
<title>component/Widget.tsx&#45;&gt;hook/useBoolean.tsx</title>
<path fill="none" stroke="#757575" d="M623.07,-406.87C657.24,-428.02 733.1,-471.47 804,-487.96 1016.22,-537.31 1682.13,-522.75 1919.72,-515.73"/>
<polygon fill="#757575" stroke="#757575" points="1919.64,-519.24 1929.54,-515.44 1919.44,-512.24 1919.64,-519.24"/>
</g>
<!-- component/Widget.tsx&#45;&gt;types/widget.d.ts -->
<g id="edge36" class="edge">
<title>component/Widget.tsx&#45;&gt;types/widget.d.ts</title>
<path fill="none" stroke="#757575" d="M683.38,-394.09C873.34,-392.47 1371.17,-390.89 1786,-412.96 1835.07,-415.57 1890.15,-420.61 1932.8,-424.97"/>
<polygon fill="#757575" stroke="#757575" points="1932.39,-428.45 1942.69,-426 1933.11,-421.49 1932.39,-428.45"/>
</g>
<!-- component/Widget/WidgetButtons.tsx -->
<g id="node28" class="node">
<title>component/Widget/WidgetButtons.tsx</title>
<path fill="none" stroke="#c6c5fe" d="M1157.33,-445.46C1157.33,-445.46 915.67,-445.46 915.67,-445.46 911.83,-445.46 908,-441.62 908,-437.79 908,-437.79 908,-430.12 908,-430.12 908,-426.29 911.83,-422.46 915.67,-422.46 915.67,-422.46 1157.33,-422.46 1157.33,-422.46 1161.17,-422.46 1165,-426.29 1165,-430.12 1165,-430.12 1165,-437.79 1165,-437.79 1165,-441.62 1161.17,-445.46 1157.33,-445.46"/>
<text text-anchor="middle" x="1036.5" y="-430.26" font-family="Arial" font-size="14.00" fill="#c6c5fe">component/Widget/WidgetButtons.tsx</text>
</g>
<!-- component/Widget.tsx&#45;&gt;component/Widget/WidgetButtons.tsx -->
<g id="edge31" class="edge">
<title>component/Widget.tsx&#45;&gt;component/Widget/WidgetButtons.tsx</title>
<path fill="none" stroke="#757575" d="M683.3,-402.09C742.79,-407.47 825.95,-414.99 896.52,-421.38"/>
<polygon fill="#757575" stroke="#757575" points="895.95,-424.84 906.23,-422.26 896.58,-417.87 895.95,-424.84"/>
</g>
<!-- component/Widget/WidgetCallCycleSettingModal.tsx -->
<g id="node29" class="node">
<title>component/Widget/WidgetCallCycleSettingModal.tsx</title>
<path fill="none" stroke="#c6c5fe" d="M1204.33,-248.46C1204.33,-248.46 868.67,-248.46 868.67,-248.46 864.83,-248.46 861,-244.62 861,-240.79 861,-240.79 861,-233.12 861,-233.12 861,-229.29 864.83,-225.46 868.67,-225.46 868.67,-225.46 1204.33,-225.46 1204.33,-225.46 1208.17,-225.46 1212,-229.29 1212,-233.12 1212,-233.12 1212,-240.79 1212,-240.79 1212,-244.62 1208.17,-248.46 1204.33,-248.46"/>
<text text-anchor="middle" x="1036.5" y="-233.26" font-family="Arial" font-size="14.00" fill="#c6c5fe">component/Widget/WidgetCallCycleSettingModal.tsx</text>
</g>
<!-- component/Widget.tsx&#45;&gt;component/Widget/WidgetCallCycleSettingModal.tsx -->
<g id="edge32" class="edge">
<title>component/Widget.tsx&#45;&gt;component/Widget/WidgetCallCycleSettingModal.tsx</title>
<path fill="none" stroke="#757575" d="M629.9,-383.05C663.47,-366.63 723.56,-334.85 768,-297.96 786.66,-282.47 782.36,-267.9 804,-256.96 818.33,-249.71 833.81,-244.23 849.72,-240.15"/>
<polygon fill="#757575" stroke="#757575" points="850.39,-243.59 859.32,-237.89 848.79,-236.77 850.39,-243.59"/>
</g>
<!-- component/Widget/WidgetChart.tsx -->
<g id="node30" class="node">
<title>component/Widget/WidgetChart.tsx</title>
<path fill="none" stroke="#c6c5fe" d="M1149.83,-187.46C1149.83,-187.46 923.17,-187.46 923.17,-187.46 919.33,-187.46 915.5,-183.62 915.5,-179.79 915.5,-179.79 915.5,-172.12 915.5,-172.12 915.5,-168.29 919.33,-164.46 923.17,-164.46 923.17,-164.46 1149.83,-164.46 1149.83,-164.46 1153.67,-164.46 1157.5,-168.29 1157.5,-172.12 1157.5,-172.12 1157.5,-179.79 1157.5,-179.79 1157.5,-183.62 1153.67,-187.46 1149.83,-187.46"/>
<text text-anchor="middle" x="1036.5" y="-172.26" font-family="Arial" font-size="14.00" fill="#c6c5fe">component/Widget/WidgetChart.tsx</text>
</g>
<!-- component/Widget.tsx&#45;&gt;component/Widget/WidgetChart.tsx -->
<g id="edge33" class="edge">
<title>component/Widget.tsx&#45;&gt;component/Widget/WidgetChart.tsx</title>
<path fill="none" stroke="#757575" d="M636.47,-383.04C672.67,-368.1 731.36,-339.35 768,-297.96 794.38,-268.15 772.66,-240.49 804,-215.96 832.38,-193.74 868.75,-182.1 904.21,-176.37"/>
<polygon fill="#757575" stroke="#757575" points="904.28,-179.9 913.68,-175 903.28,-172.97 904.28,-179.9"/>
</g>
<!-- component/Widget/WidgetButtons.tsx&#45;&gt;store/WidgetProvider.tsx -->
<g id="edge37" class="edge">
<title>component/Widget/WidgetButtons.tsx&#45;&gt;store/WidgetProvider.tsx</title>
<path fill="none" stroke="#757575" d="M1165.44,-433.96C1253.13,-433.96 1367.64,-433.96 1447.76,-433.96"/>
<polygon fill="#757575" stroke="#757575" points="1447.32,-437.46 1457.32,-433.96 1447.32,-430.46 1447.32,-437.46"/>
</g>
<!-- component/Widget/WidgetCallCycleSettingModal.tsx&#45;&gt;common/date.ts -->
<g id="edge38" class="edge">
<title>component/Widget/WidgetCallCycleSettingModal.tsx&#45;&gt;common/date.ts</title>
<path fill="none" stroke="#757575" d="M1189.38,-248.94C1406.04,-266.07 1778.73,-295.64 1786,-296.96 1969.72,-330.13 2015.68,-345.13 2190,-411.96 2254.31,-436.61 2325.76,-473.93 2365.49,-495.63"/>
<polygon fill="#757575" stroke="#757575" points="2363.58,-498.57 2374.03,-500.32 2366.96,-492.44 2363.58,-498.57"/>
</g>
<!-- component/Widget/WidgetCallCycleSettingModal.tsx&#45;&gt;common/widget.ts -->
<g id="edge39" class="edge">
<title>component/Widget/WidgetCallCycleSettingModal.tsx&#45;&gt;common/widget.ts</title>
<path fill="none" stroke="#757575" d="M1212.45,-239.11C1232.04,-243.11 1251.3,-248.86 1269,-256.96 1289.3,-266.23 1284.81,-282.46 1305,-291.96 1355.72,-315.82 1418.96,-321.82 1467.72,-322.12"/>
<polygon fill="#757575" stroke="#757575" points="1467.65,-325.63 1477.64,-322.1 1467.64,-318.63 1467.65,-325.63"/>
</g>
<!-- component/Widget/WidgetCallCycleSettingModal/CycleInput.tsx -->
<g id="node31" class="node">
<title>component/Widget/WidgetCallCycleSettingModal/CycleInput.tsx</title>
<path fill="none" stroke="#cfffac" d="M1748.83,-249.46C1748.83,-249.46 1342.17,-249.46 1342.17,-249.46 1338.33,-249.46 1334.5,-245.62 1334.5,-241.79 1334.5,-241.79 1334.5,-234.12 1334.5,-234.12 1334.5,-230.29 1338.33,-226.46 1342.17,-226.46 1342.17,-226.46 1748.83,-226.46 1748.83,-226.46 1752.67,-226.46 1756.5,-230.29 1756.5,-234.12 1756.5,-234.12 1756.5,-241.79 1756.5,-241.79 1756.5,-245.62 1752.67,-249.46 1748.83,-249.46"/>
<text text-anchor="middle" x="1545.5" y="-234.26" font-family="Arial" font-size="14.00" fill="#cfffac">component/Widget/WidgetCallCycleSettingModal/CycleInput.tsx</text>
</g>
<!-- component/Widget/WidgetCallCycleSettingModal.tsx&#45;&gt;component/Widget/WidgetCallCycleSettingModal/CycleInput.tsx -->
<g id="edge40" class="edge">
<title>component/Widget/WidgetCallCycleSettingModal.tsx&#45;&gt;component/Widget/WidgetCallCycleSettingModal/CycleInput.tsx</title>
<path fill="none" stroke="#757575" d="M1212.34,-237.3C1247.89,-237.37 1285.73,-237.45 1322.66,-237.52"/>
<polygon fill="#757575" stroke="#757575" points="1322.56,-241.02 1332.57,-237.54 1322.58,-234.02 1322.56,-241.02"/>
</g>
<!-- component/Widget/WidgetCallCycleSettingModal/LastCallTimeBox.tsx -->
<g id="node32" class="node">
<title>component/Widget/WidgetCallCycleSettingModal/LastCallTimeBox.tsx</title>
<path fill="none" stroke="#cfffac" d="M1769.33,-208.46C1769.33,-208.46 1321.67,-208.46 1321.67,-208.46 1317.83,-208.46 1314,-204.62 1314,-200.79 1314,-200.79 1314,-193.12 1314,-193.12 1314,-189.29 1317.83,-185.46 1321.67,-185.46 1321.67,-185.46 1769.33,-185.46 1769.33,-185.46 1773.17,-185.46 1777,-189.29 1777,-193.12 1777,-193.12 1777,-200.79 1777,-200.79 1777,-204.62 1773.17,-208.46 1769.33,-208.46"/>
<text text-anchor="middle" x="1545.5" y="-193.26" font-family="Arial" font-size="14.00" fill="#cfffac">component/Widget/WidgetCallCycleSettingModal/LastCallTimeBox.tsx</text>
</g>
<!-- component/Widget/WidgetCallCycleSettingModal.tsx&#45;&gt;component/Widget/WidgetCallCycleSettingModal/LastCallTimeBox.tsx -->
<g id="edge41" class="edge">
<title>component/Widget/WidgetCallCycleSettingModal.tsx&#45;&gt;component/Widget/WidgetCallCycleSettingModal/LastCallTimeBox.tsx</title>
<path fill="none" stroke="#757575" d="M1189.27,-224.98C1249.83,-220.2 1319.68,-214.69 1381.32,-209.83"/>
<polygon fill="#757575" stroke="#757575" points="1381.53,-213.32 1391.22,-209.05 1380.98,-206.35 1381.53,-213.32"/>
</g>
<!-- component/chart/BarChart.tsx -->
<g id="node33" class="node">
<title>component/chart/BarChart.tsx</title>
<path fill="none" stroke="#c6c5fe" d="M1639.33,-126.46C1639.33,-126.46 1451.67,-126.46 1451.67,-126.46 1447.83,-126.46 1444,-122.62 1444,-118.79 1444,-118.79 1444,-111.12 1444,-111.12 1444,-107.29 1447.83,-103.46 1451.67,-103.46 1451.67,-103.46 1639.33,-103.46 1639.33,-103.46 1643.17,-103.46 1647,-107.29 1647,-111.12 1647,-111.12 1647,-118.79 1647,-118.79 1647,-122.62 1643.17,-126.46 1639.33,-126.46"/>
<text text-anchor="middle" x="1545.5" y="-111.26" font-family="Arial" font-size="14.00" fill="#c6c5fe">component/chart/BarChart.tsx</text>
</g>
<!-- component/Widget/WidgetChart.tsx&#45;&gt;component/chart/BarChart.tsx -->
<g id="edge42" class="edge">
<title>component/Widget/WidgetChart.tsx&#45;&gt;component/chart/BarChart.tsx</title>
<path fill="none" stroke="#757575" d="M1157.7,-174.55C1194.07,-171.61 1233.71,-165.83 1269,-154.96 1286.49,-149.57 1287.49,-140.28 1305,-134.96 1345.5,-122.64 1391.52,-116.94 1432.32,-114.56"/>
<polygon fill="#757575" stroke="#757575" points="1432.36,-118.06 1442.17,-114.05 1432,-111.07 1432.36,-118.06"/>
</g>
<!-- component/chart/InformaticsChart.tsx -->
<g id="node34" class="node">
<title>component/chart/InformaticsChart.tsx</title>
<path fill="none" stroke="#c6c5fe" d="M1663.83,-66.46C1663.83,-66.46 1427.17,-66.46 1427.17,-66.46 1423.33,-66.46 1419.5,-62.62 1419.5,-58.79 1419.5,-58.79 1419.5,-51.12 1419.5,-51.12 1419.5,-47.29 1423.33,-43.46 1427.17,-43.46 1427.17,-43.46 1663.83,-43.46 1663.83,-43.46 1667.67,-43.46 1671.5,-47.29 1671.5,-51.12 1671.5,-51.12 1671.5,-58.79 1671.5,-58.79 1671.5,-62.62 1667.67,-66.46 1663.83,-66.46"/>
<text text-anchor="middle" x="1545.5" y="-51.26" font-family="Arial" font-size="14.00" fill="#c6c5fe">component/chart/InformaticsChart.tsx</text>
</g>
<!-- component/Widget/WidgetChart.tsx&#45;&gt;component/chart/InformaticsChart.tsx -->
<g id="edge43" class="edge">
<title>component/Widget/WidgetChart.tsx&#45;&gt;component/chart/InformaticsChart.tsx</title>
<path fill="none" stroke="#757575" d="M1157.98,-185.84C1195.94,-183.71 1236.43,-175.56 1269,-154.96 1295.6,-138.13 1279.01,-111.72 1305,-93.96 1335.1,-73.38 1372.22,-62.26 1408.18,-56.56"/>
<polygon fill="#757575" stroke="#757575" points="1408.39,-60.06 1417.79,-55.17 1407.39,-53.13 1408.39,-60.06"/>
</g>
<!-- component/chart/LineChart.tsx -->
<g id="node35" class="node">
<title>component/chart/LineChart.tsx</title>
<path fill="none" stroke="#c6c5fe" d="M1642.33,-167.46C1642.33,-167.46 1448.67,-167.46 1448.67,-167.46 1444.83,-167.46 1441,-163.62 1441,-159.79 1441,-159.79 1441,-152.12 1441,-152.12 1441,-148.29 1444.83,-144.46 1448.67,-144.46 1448.67,-144.46 1642.33,-144.46 1642.33,-144.46 1646.17,-144.46 1650,-148.29 1650,-152.12 1650,-152.12 1650,-159.79 1650,-159.79 1650,-163.62 1646.17,-167.46 1642.33,-167.46"/>
<text text-anchor="middle" x="1545.5" y="-152.26" font-family="Arial" font-size="14.00" fill="#c6c5fe">component/chart/LineChart.tsx</text>
</g>
<!-- component/Widget/WidgetChart.tsx&#45;&gt;component/chart/LineChart.tsx -->
<g id="edge44" class="edge">
<title>component/Widget/WidgetChart.tsx&#45;&gt;component/chart/LineChart.tsx</title>
<path fill="none" stroke="#757575" d="M1157.97,-171.2C1240.21,-167.96 1348.5,-163.69 1429.53,-160.49"/>
<polygon fill="#757575" stroke="#757575" points="1429.41,-164 1439.27,-160.11 1429.14,-157 1429.41,-164"/>
</g>
<!-- component/chart/BarChart.tsx&#45;&gt;common/chart.ts -->
<g id="edge50" class="edge">
<title>component/chart/BarChart.tsx&#45;&gt;common/chart.ts</title>
<path fill="none" stroke="#757575" d="M1647.4,-117.16C1733.93,-119.04 1856.43,-121.72 1933.26,-123.39"/>
<polygon fill="#757575" stroke="#757575" points="1933.13,-126.89 1943.2,-123.61 1933.28,-119.89 1933.13,-126.89"/>
</g>
<!-- component/chart/BarChart.tsx&#45;&gt;types/chart.d.ts -->
<g id="edge52" class="edge">
<title>component/chart/BarChart.tsx&#45;&gt;types/chart.d.ts</title>
<path fill="none" stroke="#757575" d="M1647.25,-110.77C1699.41,-108.64 1764.12,-106.07 1822,-103.96 2005.54,-97.26 2222.11,-90.37 2329.35,-87.03"/>
<polygon fill="#757575" stroke="#757575" points="2329.23,-90.53 2339.12,-86.72 2329.02,-83.54 2329.23,-90.53"/>
</g>
<!-- hook/useResize.tsx -->
<g id="node39" class="node">
<title>hook/useResize.tsx</title>
<path fill="none" stroke="#cfffac" d="M2068.33,-177.46C2068.33,-177.46 1943.67,-177.46 1943.67,-177.46 1939.83,-177.46 1936,-173.62 1936,-169.79 1936,-169.79 1936,-162.12 1936,-162.12 1936,-158.29 1939.83,-154.46 1943.67,-154.46 1943.67,-154.46 2068.33,-154.46 2068.33,-154.46 2072.17,-154.46 2076,-158.29 2076,-162.12 2076,-162.12 2076,-169.79 2076,-169.79 2076,-173.62 2072.17,-177.46 2068.33,-177.46"/>
<text text-anchor="middle" x="2006" y="-162.26" font-family="Arial" font-size="14.00" fill="#cfffac">hook/useResize.tsx</text>
</g>
<!-- component/chart/BarChart.tsx&#45;&gt;hook/useResize.tsx -->
<g id="edge51" class="edge">
<title>component/chart/BarChart.tsx&#45;&gt;hook/useResize.tsx</title>
<path fill="none" stroke="#757575" d="M1647.26,-119.16C1690.25,-122.04 1740.82,-126.87 1786,-134.96 1802.35,-137.88 1805.7,-141.78 1822,-144.96 1855.27,-151.44 1892.37,-156.16 1924.41,-159.46"/>
<polygon fill="#757575" stroke="#757575" points="1923.72,-162.91 1934.02,-160.42 1924.41,-155.94 1923.72,-162.91"/>
</g>
<!-- component/chart/InformaticsChart.tsx&#45;&gt;types/chart.d.ts -->
<g id="edge54" class="edge">
<title>component/chart/InformaticsChart.tsx&#45;&gt;types/chart.d.ts</title>
<path fill="none" stroke="#757575" d="M1671.69,-48.34C1708.69,-45.21 1749.14,-40.63 1786,-33.96 1802.34,-31 1805.55,-26.2 1822,-23.96 1984.06,-1.87 2028.13,-0.55 2190,-23.96 2248.97,-32.48 2314.56,-54.04 2355.66,-69.09"/>
<polygon fill="#757575" stroke="#757575" points="2354.32,-72.33 2364.91,-72.53 2356.75,-65.76 2354.32,-72.33"/>
</g>
<!-- component/chart/InformaticsChart/InforMaticsBox.tsx -->
<g id="node40" class="node">
<title>component/chart/InformaticsChart/InforMaticsBox.tsx</title>
<path fill="none" stroke="#c6c5fe" d="M2173.33,-56.46C2173.33,-56.46 1838.67,-56.46 1838.67,-56.46 1834.83,-56.46 1831,-52.62 1831,-48.79 1831,-48.79 1831,-41.12 1831,-41.12 1831,-37.29 1834.83,-33.46 1838.67,-33.46 1838.67,-33.46 2173.33,-33.46 2173.33,-33.46 2177.17,-33.46 2181,-37.29 2181,-41.12 2181,-41.12 2181,-48.79 2181,-48.79 2181,-52.62 2177.17,-56.46 2173.33,-56.46"/>
<text text-anchor="middle" x="2006" y="-41.26" font-family="Arial" font-size="14.00" fill="#c6c5fe">component/chart/InformaticsChart/InforMaticsBox.tsx</text>
</g>
<!-- component/chart/InformaticsChart.tsx&#45;&gt;component/chart/InformaticsChart/InforMaticsBox.tsx -->
<g id="edge53" class="edge">
<title>component/chart/InformaticsChart.tsx&#45;&gt;component/chart/InformaticsChart/InforMaticsBox.tsx</title>
<path fill="none" stroke="#757575" d="M1671.79,-52.22C1717.39,-51.23 1769.96,-50.08 1819.66,-49"/>
<polygon fill="#757575" stroke="#757575" points="1819.45,-52.5 1829.37,-48.79 1819.3,-45.51 1819.45,-52.5"/>
</g>
<!-- component/chart/LineChart.tsx&#45;&gt;common/chart.ts -->
<g id="edge56" class="edge">
<title>component/chart/LineChart.tsx&#45;&gt;common/chart.ts</title>
<path fill="none" stroke="#757575" d="M1650.25,-148.94C1736.56,-143.11 1857.18,-134.95 1933.17,-129.81"/>
<polygon fill="#757575" stroke="#757575" points="1933.26,-133.32 1943,-129.15 1932.78,-126.33 1933.26,-133.32"/>
</g>
<!-- component/chart/LineChart.tsx&#45;&gt;types/chart.d.ts -->
<g id="edge58" class="edge">
<title>component/chart/LineChart.tsx&#45;&gt;types/chart.d.ts</title>
<path fill="none" stroke="#757575" d="M1650.5,-160.38C1692.77,-163.28 1741.95,-168.07 1786,-175.96 1802.35,-178.88 1805.55,-183.71 1822,-185.96 1984.06,-208.05 2030.66,-222.84 2190,-185.96 2259.24,-169.93 2332.08,-127.32 2370,-102.87"/>
<polygon fill="#757575" stroke="#757575" points="2371.59,-106.02 2378.04,-97.62 2367.75,-100.16 2371.59,-106.02"/>
</g>
<!-- component/chart/LineChart.tsx&#45;&gt;hook/useResize.tsx -->
<g id="edge57" class="edge">
<title>component/chart/LineChart.tsx&#45;&gt;hook/useResize.tsx</title>
<path fill="none" stroke="#757575" d="M1650.25,-158.22C1733.3,-160.03 1848.1,-162.53 1924.35,-164.2"/>
<polygon fill="#757575" stroke="#757575" points="1924.2,-167.69 1934.27,-164.41 1924.35,-160.7 1924.2,-167.69"/>
</g>
<!-- component/Widget/WidgetPropsSettingModal.tsx -->
<g id="node36" class="node">
<title>component/Widget/WidgetPropsSettingModal.tsx</title>
<path fill="none" stroke="#c6c5fe" d="M760.33,-289.46C760.33,-289.46 446.67,-289.46 446.67,-289.46 442.83,-289.46 439,-285.62 439,-281.79 439,-281.79 439,-274.12 439,-274.12 439,-270.29 442.83,-266.46 446.67,-266.46 446.67,-266.46 760.33,-266.46 760.33,-266.46 764.17,-266.46 768,-270.29 768,-274.12 768,-274.12 768,-281.79 768,-281.79 768,-285.62 764.17,-289.46 760.33,-289.46"/>
<text text-anchor="middle" x="603.5" y="-274.26" font-family="Arial" font-size="14.00" fill="#c6c5fe">component/Widget/WidgetPropsSettingModal.tsx</text>
</g>
<!-- component/Widget/WidgetPropsSettingModal.tsx&#45;&gt;common/api.ts -->
<g id="edge45" class="edge">
<title>component/Widget/WidgetPropsSettingModal.tsx&#45;&gt;common/api.ts</title>
<path fill="none" stroke="#757575" d="M618.33,-266.16C649.21,-240.6 727.12,-180.38 804,-154.96 857.96,-137.11 922.64,-132.85 969.9,-132.63"/>
<polygon fill="#757575" stroke="#757575" points="969.7,-136.13 979.71,-132.65 969.71,-129.13 969.7,-136.13"/>
</g>
<!-- component/Widget/WidgetPropsSettingModal.tsx&#45;&gt;store/WidgetProvider.tsx -->
<g id="edge48" class="edge">
<title>component/Widget/WidgetPropsSettingModal.tsx&#45;&gt;store/WidgetProvider.tsx</title>
<path fill="none" stroke="#757575" d="M676.7,-289.94C848.19,-318.4 1279.21,-389.93 1461.27,-420.14"/>
<polygon fill="#757575" stroke="#757575" points="1460.45,-423.55 1470.88,-421.74 1461.59,-416.65 1460.45,-423.55"/>
</g>
<!-- component/Widget/WidgetPropsSettingModal/WidgetPropsButtons.tsx -->
<g id="node37" class="node">
<title>component/Widget/WidgetPropsSettingModal/WidgetPropsButtons.tsx</title>
<path fill="none" stroke="#c6c5fe" d="M1261.33,-289.46C1261.33,-289.46 811.67,-289.46 811.67,-289.46 807.83,-289.46 804,-285.62 804,-281.79 804,-281.79 804,-274.12 804,-274.12 804,-270.29 807.83,-266.46 811.67,-266.46 811.67,-266.46 1261.33,-266.46 1261.33,-266.46 1265.17,-266.46 1269,-270.29 1269,-274.12 1269,-274.12 1269,-281.79 1269,-281.79 1269,-285.62 1265.17,-289.46 1261.33,-289.46"/>
<text text-anchor="middle" x="1036.5" y="-274.26" font-family="Arial" font-size="14.00" fill="#c6c5fe">component/Widget/WidgetPropsSettingModal/WidgetPropsButtons.tsx</text>
</g>
<!-- component/Widget/WidgetPropsSettingModal.tsx&#45;&gt;component/Widget/WidgetPropsSettingModal/WidgetPropsButtons.tsx -->
<g id="edge46" class="edge">
<title>component/Widget/WidgetPropsSettingModal.tsx&#45;&gt;component/Widget/WidgetPropsSettingModal/WidgetPropsButtons.tsx</title>
<path fill="none" stroke="#757575" d="M768.36,-277.96C776.29,-277.96 784.32,-277.96 792.4,-277.96"/>
<polygon fill="#757575" stroke="#757575" points="792.33,-281.46 802.33,-277.96 792.33,-274.46 792.33,-281.46"/>
</g>
<!-- component/Widget/WidgetPropsSettingModal/WidgetPropsList.tsx -->
<g id="node38" class="node">
<title>component/Widget/WidgetPropsSettingModal/WidgetPropsList.tsx</title>
<path fill="none" stroke="#cfffac" d="M1248.83,-105.46C1248.83,-105.46 824.17,-105.46 824.17,-105.46 820.33,-105.46 816.5,-101.62 816.5,-97.79 816.5,-97.79 816.5,-90.12 816.5,-90.12 816.5,-86.29 820.33,-82.46 824.17,-82.46 824.17,-82.46 1248.83,-82.46 1248.83,-82.46 1252.67,-82.46 1256.5,-86.29 1256.5,-90.12 1256.5,-90.12 1256.5,-97.79 1256.5,-97.79 1256.5,-101.62 1252.67,-105.46 1248.83,-105.46"/>
<text text-anchor="middle" x="1036.5" y="-90.26" font-family="Arial" font-size="14.00" fill="#cfffac">component/Widget/WidgetPropsSettingModal/WidgetPropsList.tsx</text>
</g>
<!-- component/Widget/WidgetPropsSettingModal.tsx&#45;&gt;component/Widget/WidgetPropsSettingModal/WidgetPropsList.tsx -->
<g id="edge47" class="edge">
<title>component/Widget/WidgetPropsSettingModal.tsx&#45;&gt;component/Widget/WidgetPropsSettingModal/WidgetPropsList.tsx</title>
<path fill="none" stroke="#757575" d="M614.18,-266.08C640.66,-234.6 718.06,-148.99 804,-113.96 807.92,-112.36 811.91,-110.86 815.95,-109.45"/>
<polygon fill="#757575" stroke="#757575" points="816.9,-112.82 825.33,-106.4 814.74,-106.16 816.9,-112.82"/>
</g>
<!-- component/Widget/WidgetPropsSettingModal/WidgetPropsButtons.tsx&#45;&gt;store/WidgetProvider.tsx -->
<g id="edge49" class="edge">
<title>component/Widget/WidgetPropsSettingModal/WidgetPropsButtons.tsx&#45;&gt;store/WidgetProvider.tsx</title>
<path fill="none" stroke="#757575" d="M1076.44,-289.94C1167.52,-317.96 1394.31,-387.74 1495,-418.72"/>
<polygon fill="#757575" stroke="#757575" points="1493.74,-422 1504.33,-421.6 1495.8,-415.31 1493.74,-422"/>
</g>
<!-- component/chart/InformaticsChart/InforMaticsBox.tsx&#45;&gt;types/chart.d.ts -->
<g id="edge55" class="edge">
<title>component/chart/InformaticsChart/InforMaticsBox.tsx&#45;&gt;types/chart.d.ts</title>
<path fill="none" stroke="#757575" d="M2123.6,-56.93C2190.8,-63.83 2272.89,-72.26 2329.38,-78.06"/>
<polygon fill="#757575" stroke="#757575" points="2328.86,-81.53 2339.17,-79.07 2329.58,-74.57 2328.86,-81.53"/>
</g>
<!-- component/common/DatePicker/ListPicker.tsx&#45;&gt;types/datePicker.d.ts -->
<g id="edge63" class="edge">
<title>component/common/DatePicker/ListPicker.tsx&#45;&gt;types/datePicker.d.ts</title>
<path fill="none" stroke="#757575" d="M2499.08,-739.97C2522.07,-737.12 2546.39,-734.01 2569,-730.96 2629.21,-722.82 2697,-712.83 2748.93,-705"/>
<polygon fill="#757575" stroke="#757575" points="2749.24,-708.49 2758.61,-703.53 2748.2,-701.57 2749.24,-708.49"/>
</g>
<!-- component/common/DatePicker/ListPickerItem.tsx -->
<g id="node44" class="node">
<title>component/common/DatePicker/ListPickerItem.tsx</title>
<path fill="none" stroke="#c6c5fe" d="M2995.83,-763.46C2995.83,-763.46 2674.17,-763.46 2674.17,-763.46 2670.33,-763.46 2666.5,-759.62 2666.5,-755.79 2666.5,-755.79 2666.5,-748.12 2666.5,-748.12 2666.5,-744.29 2670.33,-740.46 2674.17,-740.46 2674.17,-740.46 2995.83,-740.46 2995.83,-740.46 2999.67,-740.46 3003.5,-744.29 3003.5,-748.12 3003.5,-748.12 3003.5,-755.79 3003.5,-755.79 3003.5,-759.62 2999.67,-763.46 2995.83,-763.46"/>
<text text-anchor="middle" x="2835" y="-748.26" font-family="Arial" font-size="14.00" fill="#c6c5fe">component/common/DatePicker/ListPickerItem.tsx</text>
</g>
<!-- component/common/DatePicker/ListPicker.tsx&#45;&gt;component/common/DatePicker/ListPickerItem.tsx -->
<g id="edge62" class="edge">
<title>component/common/DatePicker/ListPicker.tsx&#45;&gt;component/common/DatePicker/ListPickerItem.tsx</title>
<path fill="none" stroke="#757575" d="M2551.73,-751.96C2585.12,-751.96 2620.72,-751.96 2655,-751.96"/>
<polygon fill="#757575" stroke="#757575" points="2654.57,-755.46 2664.57,-751.96 2654.57,-748.46 2654.57,-755.46"/>
</g>
<!-- component/common/DatePicker/ListPickerItem.tsx&#45;&gt;component/Dashboard/CommonStyle.ts -->
<g id="edge64" class="edge">
<title>component/common/DatePicker/ListPickerItem.tsx&#45;&gt;component/Dashboard/CommonStyle.ts</title>
<path fill="none" stroke="#757575" d="M3003.77,-760.37C3032.14,-761.79 3061.4,-763.25 3089.16,-764.65"/>
<polygon fill="#757575" stroke="#757575" points="3088.87,-768.14 3099.03,-765.14 3089.22,-761.14 3088.87,-768.14"/>
</g>
<!-- page/Dashboard.tsx&#45;&gt;component/Dashboard/DashboardHeader.tsx -->
<g id="edge65" class="edge">
<title>page/Dashboard.tsx&#45;&gt;component/Dashboard/DashboardHeader.tsx</title>
<path fill="none" stroke="#757575" d="M355.53,-561.79C403.59,-585.95 513.17,-641.04 568.78,-669"/>
<polygon fill="#757575" stroke="#757575" points="566.97,-672.01 577.48,-673.38 570.12,-665.76 566.97,-672.01"/>
</g>
<!-- page/Dashboard.tsx&#45;&gt;store/DashboardProvider.tsx -->
<g id="edge68" class="edge">
<title>page/Dashboard.tsx&#45;&gt;store/DashboardProvider.tsx</title>
<path fill="none" stroke="#757575" d="M336.71,-561.82C348.94,-591.03 384.56,-666.9 439,-705.96 575.96,-804.21 638.09,-779.22 804,-808.96 1233.95,-886.02 1358.14,-936.9 1786,-848.96 1857.4,-834.28 1934.24,-795.29 1975.22,-772.4"/>
<polygon fill="#757575" stroke="#757575" points="1976.79,-775.53 1983.76,-767.56 1973.34,-769.44 1976.79,-775.53"/>
</g>
<!-- page/Dashboard.tsx&#45;&gt;store/WidgetProvider.tsx -->
<g id="edge69" class="edge">
<title>page/Dashboard.tsx&#45;&gt;store/WidgetProvider.tsx</title>
<path fill="none" stroke="#757575" d="M403.32,-543.13C610.22,-523.34 1210.87,-465.87 1447.27,-443.26"/>
<polygon fill="#757575" stroke="#757575" points="1447.46,-446.76 1457.08,-442.32 1446.8,-439.79 1447.46,-446.76"/>
</g>
<!-- page/Dashboard.tsx&#45;&gt;component/Widget.tsx -->
<g id="edge66" class="edge">
<title>page/Dashboard.tsx&#45;&gt;component/Widget.tsx</title>
<path fill="none" stroke="#757575" d="M352.78,-538.05C400.08,-510.95 516,-444.52 571.67,-412.62"/>
<polygon fill="#757575" stroke="#757575" points="573.4,-415.66 580.34,-407.65 569.92,-409.59 573.4,-415.66"/>
</g>
<!-- page/Dashboard.tsx&#45;&gt;component/Widget/WidgetPropsSettingModal.tsx -->
<g id="edge67" class="edge">
<title>page/Dashboard.tsx&#45;&gt;component/Widget/WidgetPropsSettingModal.tsx</title>
<path fill="none" stroke="#757575" d="M336.64,-538.35C349.21,-508.11 386.51,-425.64 439,-373.96 475.13,-338.37 526.99,-310.85 562.56,-294.57"/>
<polygon fill="#757575" stroke="#757575" points="563.96,-297.78 571.66,-290.5 561.1,-291.39 563.96,-297.78"/>
</g>
</g>
</svg>
