<?xml version="1.0" encoding="UTF-8" standalone="no"?>
<!DOCTYPE svg PUBLIC "-//W3C//DTD SVG 1.1//EN"
 "http://www.w3.org/Graphics/SVG/1.1/DTD/svg11.dtd">
<!-- Generated by graphviz version 7.1.0 (20230121.1956)
 -->
<!-- Title: G Pages: 1 -->
<svg width="3509pt" height="1218pt"
 viewBox="0.00 0.00 3509.20 1218.05" xmlns="http://www.w3.org/2000/svg" xmlns:xlink="http://www.w3.org/1999/xlink">
<g id="graph0" class="graph" transform="scale(1 1) rotate(0) translate(21.6 1196.45)">
<title>G</title>
<polygon fill="#111111" stroke="none" points="-21.6,21.6 -21.6,-1196.45 3487.6,-1196.45 3487.6,21.6 -21.6,21.6"/>
<!-- App.tsx -->
<g id="node1" class="node">
<title>App.tsx</title>
<path fill="none" stroke="#c6c5fe" d="M57.33,-611.85C57.33,-611.85 7.67,-611.85 7.67,-611.85 3.83,-611.85 0,-608.02 0,-604.18 0,-604.18 0,-596.52 0,-596.52 0,-592.68 3.83,-588.85 7.67,-588.85 7.67,-588.85 57.33,-588.85 57.33,-588.85 61.17,-588.85 65,-592.68 65,-596.52 65,-596.52 65,-604.18 65,-604.18 65,-608.02 61.17,-611.85 57.33,-611.85"/>
<text text-anchor="middle" x="32.5" y="-596.65" font-family="Arial" font-size="14.00" fill="#c6c5fe">App.tsx</text>
</g>
<!-- router/Router.tsx -->
<g id="node2" class="node">
<title>router/Router.tsx</title>
<path fill="none" stroke="#c6c5fe" d="M215.33,-611.85C215.33,-611.85 108.67,-611.85 108.67,-611.85 104.83,-611.85 101,-608.02 101,-604.18 101,-604.18 101,-596.52 101,-596.52 101,-592.68 104.83,-588.85 108.67,-588.85 108.67,-588.85 215.33,-588.85 215.33,-588.85 219.17,-588.85 223,-592.68 223,-596.52 223,-596.52 223,-604.18 223,-604.18 223,-608.02 219.17,-611.85 215.33,-611.85"/>
<text text-anchor="middle" x="162" y="-596.65" font-family="Arial" font-size="14.00" fill="#c6c5fe">router/Router.tsx</text>
</g>
<!-- App.tsx&#45;&gt;router/Router.tsx -->
<g id="edge1" class="edge">
<title>App.tsx&#45;&gt;router/Router.tsx</title>
<path fill="none" stroke="#757575" d="M65.34,-600.35C72.7,-600.35 80.81,-600.35 89.12,-600.35"/>
<polygon fill="#757575" stroke="#757575" points="88.99,-603.85 98.99,-600.35 88.99,-596.85 88.99,-603.85"/>
</g>
<!-- page/Dashboard.tsx -->
<g id="node48" class="node">
<title>page/Dashboard.tsx</title>
<path fill="none" stroke="#c6c5fe" d="M395.33,-611.85C395.33,-611.85 266.67,-611.85 266.67,-611.85 262.83,-611.85 259,-608.02 259,-604.18 259,-604.18 259,-596.52 259,-596.52 259,-592.68 262.83,-588.85 266.67,-588.85 266.67,-588.85 395.33,-588.85 395.33,-588.85 399.17,-588.85 403,-592.68 403,-596.52 403,-596.52 403,-604.18 403,-604.18 403,-608.02 399.17,-611.85 395.33,-611.85"/>
<text text-anchor="middle" x="331" y="-596.65" font-family="Arial" font-size="14.00" fill="#c6c5fe">page/Dashboard.tsx</text>
</g>
<!-- router/Router.tsx&#45;&gt;page/Dashboard.tsx -->
<g id="edge77" class="edge">
<title>router/Router.tsx&#45;&gt;page/Dashboard.tsx</title>
<path fill="none" stroke="#757575" d="M223.29,-600.35C231.1,-600.35 239.21,-600.35 247.3,-600.35"/>
<polygon fill="#757575" stroke="#757575" points="247.19,-603.85 257.19,-600.35 247.19,-596.85 247.19,-603.85"/>
</g>
<!-- asset/image/pause.png -->
<g id="node3" class="node">
<title>asset/image/pause.png</title>
<path fill="none" stroke="#cfffac" d="M1619.83,-817.85C1619.83,-817.85 1471.17,-817.85 1471.17,-817.85 1467.33,-817.85 1463.5,-814.02 1463.5,-810.18 1463.5,-810.18 1463.5,-802.52 1463.5,-802.52 1463.5,-798.68 1467.33,-794.85 1471.17,-794.85 1471.17,-794.85 1619.83,-794.85 1619.83,-794.85 1623.67,-794.85 1627.5,-798.68 1627.5,-802.52 1627.5,-802.52 1627.5,-810.18 1627.5,-810.18 1627.5,-814.02 1623.67,-817.85 1619.83,-817.85"/>
<text text-anchor="middle" x="1545.5" y="-802.65" font-family="Arial" font-size="14.00" fill="#cfffac">asset/image/pause.png</text>
</g>
<!-- asset/image/play.png -->
<g id="node4" class="node">
<title>asset/image/play.png</title>
<path fill="none" stroke="#cfffac" d="M1613.33,-858.85C1613.33,-858.85 1477.67,-858.85 1477.67,-858.85 1473.83,-858.85 1470,-855.02 1470,-851.18 1470,-851.18 1470,-843.52 1470,-843.52 1470,-839.68 1473.83,-835.85 1477.67,-835.85 1477.67,-835.85 1613.33,-835.85 1613.33,-835.85 1617.17,-835.85 1621,-839.68 1621,-843.52 1621,-843.52 1621,-851.18 1621,-851.18 1621,-855.02 1617.17,-858.85 1613.33,-858.85"/>
<text text-anchor="middle" x="1545.5" y="-843.65" font-family="Arial" font-size="14.00" fill="#cfffac">asset/image/play.png</text>
</g>
<!-- common/api.ts -->
<g id="node5" class="node">
<title>common/api.ts</title>
<path fill="none" stroke="#c6c5fe" d="M2100.83,-378.85C2100.83,-378.85 2006.17,-378.85 2006.17,-378.85 2002.33,-378.85 1998.5,-375.02 1998.5,-371.18 1998.5,-371.18 1998.5,-363.52 1998.5,-363.52 1998.5,-359.68 2002.33,-355.85 2006.17,-355.85 2006.17,-355.85 2100.83,-355.85 2100.83,-355.85 2104.67,-355.85 2108.5,-359.68 2108.5,-363.52 2108.5,-363.52 2108.5,-371.18 2108.5,-371.18 2108.5,-375.02 2104.67,-378.85 2100.83,-378.85"/>
<text text-anchor="middle" x="2053.5" y="-363.65" font-family="Arial" font-size="14.00" fill="#c6c5fe">common/api.ts</text>
</g>
<!-- types/api.d.ts -->
<g id="node6" class="node">
<title>types/api.d.ts</title>
<path fill="none" stroke="#cfffac" d="M2535.33,-378.85C2535.33,-378.85 2449.67,-378.85 2449.67,-378.85 2445.83,-378.85 2442,-375.02 2442,-371.18 2442,-371.18 2442,-363.52 2442,-363.52 2442,-359.68 2445.83,-355.85 2449.67,-355.85 2449.67,-355.85 2535.33,-355.85 2535.33,-355.85 2539.17,-355.85 2543,-359.68 2543,-363.52 2543,-363.52 2543,-371.18 2543,-371.18 2543,-375.02 2539.17,-378.85 2535.33,-378.85"/>
<text text-anchor="middle" x="2492.5" y="-363.65" font-family="Arial" font-size="14.00" fill="#cfffac">types/api.d.ts</text>
</g>
<!-- common/api.ts&#45;&gt;types/api.d.ts -->
<g id="edge2" class="edge">
<title>common/api.ts&#45;&gt;types/api.d.ts</title>
<path fill="none" stroke="#757575" d="M2108.96,-367.35C2190.77,-367.35 2344.89,-367.35 2430.41,-367.35"/>
<polygon fill="#757575" stroke="#757575" points="2430.25,-370.85 2440.25,-367.35 2430.25,-363.85 2430.25,-370.85"/>
</g>
<!-- common/chart.ts -->
<g id="node7" class="node">
<title>common/chart.ts</title>
<path fill="none" stroke="#c6c5fe" d="M2106.83,-140.85C2106.83,-140.85 2000.17,-140.85 2000.17,-140.85 1996.33,-140.85 1992.5,-137.02 1992.5,-133.18 1992.5,-133.18 1992.5,-125.52 1992.5,-125.52 1992.5,-121.68 1996.33,-117.85 2000.17,-117.85 2000.17,-117.85 2106.83,-117.85 2106.83,-117.85 2110.67,-117.85 2114.5,-121.68 2114.5,-125.52 2114.5,-125.52 2114.5,-133.18 2114.5,-133.18 2114.5,-137.02 2110.67,-140.85 2106.83,-140.85"/>
<text text-anchor="middle" x="2053.5" y="-125.65" font-family="Arial" font-size="14.00" fill="#c6c5fe">common/chart.ts</text>
</g>
<!-- types/chart.d.ts -->
<g id="node8" class="node">
<title>types/chart.d.ts</title>
<path fill="none" stroke="#cfffac" d="M2541.33,-140.85C2541.33,-140.85 2443.67,-140.85 2443.67,-140.85 2439.83,-140.85 2436,-137.02 2436,-133.18 2436,-133.18 2436,-125.52 2436,-125.52 2436,-121.68 2439.83,-117.85 2443.67,-117.85 2443.67,-117.85 2541.33,-117.85 2541.33,-117.85 2545.17,-117.85 2549,-121.68 2549,-125.52 2549,-125.52 2549,-133.18 2549,-133.18 2549,-137.02 2545.17,-140.85 2541.33,-140.85"/>
<text text-anchor="middle" x="2492.5" y="-125.65" font-family="Arial" font-size="14.00" fill="#cfffac">types/chart.d.ts</text>
</g>
<!-- common/chart.ts&#45;&gt;types/chart.d.ts -->
<g id="edge3" class="edge">
<title>common/chart.ts&#45;&gt;types/chart.d.ts</title>
<path fill="none" stroke="#757575" d="M2114.8,-129.35C2195.95,-129.35 2339.84,-129.35 2424.35,-129.35"/>
<polygon fill="#757575" stroke="#757575" points="2424.1,-132.85 2434.1,-129.35 2424.1,-125.85 2424.1,-132.85"/>
</g>
<!-- common/date.ts -->
<g id="node9" class="node">
<title>common/date.ts</title>
<path fill="none" stroke="#cfffac" d="M2544.33,-777.85C2544.33,-777.85 2440.67,-777.85 2440.67,-777.85 2436.83,-777.85 2433,-774.02 2433,-770.18 2433,-770.18 2433,-762.52 2433,-762.52 2433,-758.68 2436.83,-754.85 2440.67,-754.85 2440.67,-754.85 2544.33,-754.85 2544.33,-754.85 2548.17,-754.85 2552,-758.68 2552,-762.52 2552,-762.52 2552,-770.18 2552,-770.18 2552,-774.02 2548.17,-777.85 2544.33,-777.85"/>
<text text-anchor="middle" x="2492.5" y="-762.65" font-family="Arial" font-size="14.00" fill="#cfffac">common/date.ts</text>
</g>
<!-- common/widget.ts -->
<g id="node10" class="node">
<title>common/widget.ts</title>
<path fill="none" stroke="#cfffac" d="M2111.83,-535.85C2111.83,-535.85 1995.17,-535.85 1995.17,-535.85 1991.33,-535.85 1987.5,-532.02 1987.5,-528.18 1987.5,-528.18 1987.5,-520.52 1987.5,-520.52 1987.5,-516.68 1991.33,-512.85 1995.17,-512.85 1995.17,-512.85 2111.83,-512.85 2111.83,-512.85 2115.67,-512.85 2119.5,-516.68 2119.5,-520.52 2119.5,-520.52 2119.5,-528.18 2119.5,-528.18 2119.5,-532.02 2115.67,-535.85 2111.83,-535.85"/>
<text text-anchor="middle" x="2053.5" y="-520.65" font-family="Arial" font-size="14.00" fill="#cfffac">common/widget.ts</text>
</g>
<!-- component/Dashboard/CommonStyle.ts -->
<g id="node11" class="node">
<title>component/Dashboard/CommonStyle.ts</title>
<path fill="none" stroke="#cfffac" d="M3458.33,-974.85C3458.33,-974.85 3203.67,-974.85 3203.67,-974.85 3199.83,-974.85 3196,-971.02 3196,-967.18 3196,-967.18 3196,-959.52 3196,-959.52 3196,-955.68 3199.83,-951.85 3203.67,-951.85 3203.67,-951.85 3458.33,-951.85 3458.33,-951.85 3462.17,-951.85 3466,-955.68 3466,-959.52 3466,-959.52 3466,-967.18 3466,-967.18 3466,-971.02 3462.17,-974.85 3458.33,-974.85"/>
<text text-anchor="middle" x="3331" y="-959.65" font-family="Arial" font-size="14.00" fill="#cfffac">component/Dashboard/CommonStyle.ts</text>
</g>
<!-- component/Dashboard/DashboardHeader.tsx -->
<g id="node12" class="node">
<title>component/Dashboard/DashboardHeader.tsx</title>
<path fill="none" stroke="#c6c5fe" d="M747.33,-803.85C747.33,-803.85 459.67,-803.85 459.67,-803.85 455.83,-803.85 452,-800.02 452,-796.18 452,-796.18 452,-788.52 452,-788.52 452,-784.68 455.83,-780.85 459.67,-780.85 459.67,-780.85 747.33,-780.85 747.33,-780.85 751.17,-780.85 755,-784.68 755,-788.52 755,-788.52 755,-796.18 755,-796.18 755,-800.02 751.17,-803.85 747.33,-803.85"/>
<text text-anchor="middle" x="603.5" y="-788.65" font-family="Arial" font-size="14.00" fill="#c6c5fe">component/Dashboard/DashboardHeader.tsx</text>
</g>
<!-- component/Dashboard/DashboardHeader/PlayIcon.tsx -->
<g id="node13" class="node">
<title>component/Dashboard/DashboardHeader/PlayIcon.tsx</title>
<path fill="none" stroke="#c6c5fe" d="M1209.83,-843.85C1209.83,-843.85 863.17,-843.85 863.17,-843.85 859.33,-843.85 855.5,-840.02 855.5,-836.18 855.5,-836.18 855.5,-828.52 855.5,-828.52 855.5,-824.68 859.33,-820.85 863.17,-820.85 863.17,-820.85 1209.83,-820.85 1209.83,-820.85 1213.67,-820.85 1217.5,-824.68 1217.5,-828.52 1217.5,-828.52 1217.5,-836.18 1217.5,-836.18 1217.5,-840.02 1213.67,-843.85 1209.83,-843.85"/>
<text text-anchor="middle" x="1036.5" y="-828.65" font-family="Arial" font-size="14.00" fill="#c6c5fe">component/Dashboard/DashboardHeader/PlayIcon.tsx</text>
</g>
<!-- component/Dashboard/DashboardHeader.tsx&#45;&gt;component/Dashboard/DashboardHeader/PlayIcon.tsx -->
<g id="edge4" class="edge">
<title>component/Dashboard/DashboardHeader.tsx&#45;&gt;component/Dashboard/DashboardHeader/PlayIcon.tsx</title>
<path fill="none" stroke="#757575" d="M733.52,-804.32C784.47,-809.05 843.15,-814.5 895.15,-819.32"/>
<polygon fill="#757575" stroke="#757575" points="894.69,-822.8 904.98,-820.24 895.34,-815.83 894.69,-822.8"/>
</g>
<!-- component/Dashboard/DashboardHeader/SelectRealTimeRangeArea.tsx -->
<g id="node14" class="node">
<title>component/Dashboard/DashboardHeader/SelectRealTimeRangeArea.tsx</title>
<path fill="none" stroke="#c6c5fe" d="M1778.33,-899.85C1778.33,-899.85 1312.67,-899.85 1312.67,-899.85 1308.83,-899.85 1305,-896.02 1305,-892.18 1305,-892.18 1305,-884.52 1305,-884.52 1305,-880.68 1308.83,-876.85 1312.67,-876.85 1312.67,-876.85 1778.33,-876.85 1778.33,-876.85 1782.17,-876.85 1786,-880.68 1786,-884.52 1786,-884.52 1786,-892.18 1786,-892.18 1786,-896.02 1782.17,-899.85 1778.33,-899.85"/>
<text text-anchor="middle" x="1545.5" y="-884.65" font-family="Arial" font-size="14.00" fill="#c6c5fe">component/Dashboard/DashboardHeader/SelectRealTimeRangeArea.tsx</text>
</g>
<!-- component/Dashboard/DashboardHeader.tsx&#45;&gt;component/Dashboard/DashboardHeader/SelectRealTimeRangeArea.tsx -->
<g id="edge5" class="edge">
<title>component/Dashboard/DashboardHeader.tsx&#45;&gt;component/Dashboard/DashboardHeader/SelectRealTimeRangeArea.tsx</title>
<path fill="none" stroke="#757575" d="M635.02,-804.3C673.66,-818.82 742.62,-842.69 804,-853.35 965.43,-881.39 1149.43,-890.2 1293.63,-891.97"/>
<polygon fill="#757575" stroke="#757575" points="1293.27,-895.46 1303.31,-892.07 1293.35,-888.46 1293.27,-895.46"/>
</g>
<!-- component/Dashboard/DashboardHeader/TimeBlock.tsx -->
<g id="node15" class="node">
<title>component/Dashboard/DashboardHeader/TimeBlock.tsx</title>
<path fill="none" stroke="#c6c5fe" d="M1215.83,-995.85C1215.83,-995.85 857.17,-995.85 857.17,-995.85 853.33,-995.85 849.5,-992.02 849.5,-988.18 849.5,-988.18 849.5,-980.52 849.5,-980.52 849.5,-976.68 853.33,-972.85 857.17,-972.85 857.17,-972.85 1215.83,-972.85 1215.83,-972.85 1219.67,-972.85 1223.5,-976.68 1223.5,-980.52 1223.5,-980.52 1223.5,-988.18 1223.5,-988.18 1223.5,-992.02 1219.67,-995.85 1215.83,-995.85"/>
<text text-anchor="middle" x="1036.5" y="-980.65" font-family="Arial" font-size="14.00" fill="#c6c5fe">component/Dashboard/DashboardHeader/TimeBlock.tsx</text>
</g>
<!-- component/Dashboard/DashboardHeader.tsx&#45;&gt;component/Dashboard/DashboardHeader/TimeBlock.tsx -->
<g id="edge6" class="edge">
<title>component/Dashboard/DashboardHeader.tsx&#45;&gt;component/Dashboard/DashboardHeader/TimeBlock.tsx</title>
<path fill="none" stroke="#757575" d="M625.99,-804.25C662.18,-824.09 737.81,-864.65 804,-894.35 867.92,-923.03 943.96,-951.55 990.98,-968.57"/>
<polygon fill="#757575" stroke="#757575" points="989.69,-971.83 1000.28,-971.92 992.06,-965.24 989.69,-971.83"/>
</g>
<!-- store/DashboardProvider.tsx -->
<g id="node16" class="node">
<title>store/DashboardProvider.tsx</title>
<path fill="none" stroke="#c6c5fe" d="M2144.33,-777.85C2144.33,-777.85 1962.67,-777.85 1962.67,-777.85 1958.83,-777.85 1955,-774.02 1955,-770.18 1955,-770.18 1955,-762.52 1955,-762.52 1955,-758.68 1958.83,-754.85 1962.67,-754.85 1962.67,-754.85 2144.33,-754.85 2144.33,-754.85 2148.17,-754.85 2152,-758.68 2152,-762.52 2152,-762.52 2152,-770.18 2152,-770.18 2152,-774.02 2148.17,-777.85 2144.33,-777.85"/>
<text text-anchor="middle" x="2053.5" y="-762.65" font-family="Arial" font-size="14.00" fill="#c6c5fe">store/DashboardProvider.tsx</text>
</g>
<!-- component/Dashboard/DashboardHeader.tsx&#45;&gt;store/DashboardProvider.tsx -->
<g id="edge7" class="edge">
<title>component/Dashboard/DashboardHeader.tsx&#45;&gt;store/DashboardProvider.tsx</title>
<path fill="none" stroke="#757575" d="M755.36,-789.64C1048.35,-784.38 1687.98,-772.89 1943.69,-768.3"/>
<polygon fill="#757575" stroke="#757575" points="1943.39,-771.81 1953.32,-768.13 1943.26,-764.81 1943.39,-771.81"/>
</g>
<!-- store/WidgetProvider.tsx -->
<g id="node17" class="node">
<title>store/WidgetProvider.tsx</title>
<path fill="none" stroke="#c6c5fe" d="M1624.33,-649.85C1624.33,-649.85 1466.67,-649.85 1466.67,-649.85 1462.83,-649.85 1459,-646.02 1459,-642.18 1459,-642.18 1459,-634.52 1459,-634.52 1459,-630.68 1462.83,-626.85 1466.67,-626.85 1466.67,-626.85 1624.33,-626.85 1624.33,-626.85 1628.17,-626.85 1632,-630.68 1632,-634.52 1632,-634.52 1632,-642.18 1632,-642.18 1632,-646.02 1628.17,-649.85 1624.33,-649.85"/>
<text text-anchor="middle" x="1545.5" y="-634.65" font-family="Arial" font-size="14.00" fill="#c6c5fe">store/WidgetProvider.tsx</text>
</g>
<!-- component/Dashboard/DashboardHeader.tsx&#45;&gt;store/WidgetProvider.tsx -->
<g id="edge8" class="edge">
<title>component/Dashboard/DashboardHeader.tsx&#45;&gt;store/WidgetProvider.tsx</title>
<path fill="none" stroke="#757575" d="M644.68,-780.38C684.74,-768.8 748.18,-751.43 804,-740.35 1032.81,-694.94 1305.4,-663.01 1447.46,-648.02"/>
<polygon fill="#757575" stroke="#757575" points="1447.63,-651.52 1457.21,-646.99 1446.9,-644.56 1447.63,-651.52"/>
</g>
<!-- types/widget.d.ts -->
<g id="node18" class="node">
<title>types/widget.d.ts</title>
<path fill="none" stroke="#cfffac" d="M2983.83,-697.85C2983.83,-697.85 2876.17,-697.85 2876.17,-697.85 2872.33,-697.85 2868.5,-694.02 2868.5,-690.18 2868.5,-690.18 2868.5,-682.52 2868.5,-682.52 2868.5,-678.68 2872.33,-674.85 2876.17,-674.85 2876.17,-674.85 2983.83,-674.85 2983.83,-674.85 2987.67,-674.85 2991.5,-678.68 2991.5,-682.52 2991.5,-682.52 2991.5,-690.18 2991.5,-690.18 2991.5,-694.02 2987.67,-697.85 2983.83,-697.85"/>
<text text-anchor="middle" x="2930" y="-682.65" font-family="Arial" font-size="14.00" fill="#cfffac">types/widget.d.ts</text>
</g>
<!-- component/Dashboard/DashboardHeader.tsx&#45;&gt;types/widget.d.ts -->
<g id="edge9" class="edge">
<title>component/Dashboard/DashboardHeader.tsx&#45;&gt;types/widget.d.ts</title>
<path fill="none" stroke="#757575" d="M745.59,-780.37C765.2,-778.9 785.1,-777.51 804,-776.35 1216.85,-751.06 2534.52,-701.11 2857.18,-689.03"/>
<polygon fill="#757575" stroke="#757575" points="2856.86,-692.54 2866.72,-688.67 2856.59,-685.55 2856.86,-692.54"/>
</g>
<!-- component/Dashboard/DashboardHeader/PlayIcon.tsx&#45;&gt;asset/image/pause.png -->
<g id="edge19" class="edge">
<title>component/Dashboard/DashboardHeader/PlayIcon.tsx&#45;&gt;asset/image/pause.png</title>
<path fill="none" stroke="#757575" d="M1217.68,-823.11C1296.75,-819.05 1386.24,-814.47 1451.56,-811.12"/>
<polygon fill="#757575" stroke="#757575" points="1451.73,-814.61 1461.54,-810.6 1451.37,-807.62 1451.73,-814.61"/>
</g>
<!-- component/Dashboard/DashboardHeader/PlayIcon.tsx&#45;&gt;asset/image/play.png -->
<g id="edge20" class="edge">
<title>component/Dashboard/DashboardHeader/PlayIcon.tsx&#45;&gt;asset/image/play.png</title>
<path fill="none" stroke="#757575" d="M1217.68,-837.68C1299.6,-840.1 1392.71,-842.86 1458.53,-844.81"/>
<polygon fill="#757575" stroke="#757575" points="1458.06,-848.29 1468.16,-845.09 1458.27,-841.3 1458.06,-848.29"/>
</g>
<!-- component/Dashboard/DashboardHeader/SelectRealTimeRangeArea.tsx&#45;&gt;component/Dashboard/CommonStyle.ts -->
<g id="edge22" class="edge">
<title>component/Dashboard/DashboardHeader/SelectRealTimeRangeArea.tsx&#45;&gt;component/Dashboard/CommonStyle.ts</title>
<path fill="none" stroke="#757575" d="M1786.44,-891.91C1930.93,-894.54 2118.57,-898.82 2285,-905.35 2606.2,-917.96 2982.5,-940.84 3184.36,-953.77"/>
<polygon fill="#757575" stroke="#757575" points="3183.91,-957.25 3194.11,-954.4 3184.36,-950.26 3183.91,-957.25"/>
</g>
<!-- component/Dashboard/DashboardHeader/SelectRealTimeRangeArea.tsx&#45;&gt;store/DashboardProvider.tsx -->
<g id="edge27" class="edge">
<title>component/Dashboard/DashboardHeader/SelectRealTimeRangeArea.tsx&#45;&gt;store/DashboardProvider.tsx</title>
<path fill="none" stroke="#757575" d="M1617.14,-900.33C1668.58,-905.1 1737.45,-902.86 1786,-868.35 1818.11,-845.52 1789.98,-810.29 1822,-787.35 1860.31,-759.9 1911.9,-753.19 1956.56,-753.99"/>
<polygon fill="#757575" stroke="#757575" points="1956.43,-757.48 1966.54,-754.31 1956.66,-750.49 1956.43,-757.48"/>
</g>
<!-- hook/useBoolean.tsx -->
<g id="node24" class="node">
<title>hook/useBoolean.tsx</title>
<path fill="none" stroke="#cfffac" d="M2120.33,-697.85C2120.33,-697.85 1986.67,-697.85 1986.67,-697.85 1982.83,-697.85 1979,-694.02 1979,-690.18 1979,-690.18 1979,-682.52 1979,-682.52 1979,-678.68 1982.83,-674.85 1986.67,-674.85 1986.67,-674.85 2120.33,-674.85 2120.33,-674.85 2124.17,-674.85 2128,-678.68 2128,-682.52 2128,-682.52 2128,-690.18 2128,-690.18 2128,-694.02 2124.17,-697.85 2120.33,-697.85"/>
<text text-anchor="middle" x="2053.5" y="-682.65" font-family="Arial" font-size="14.00" fill="#cfffac">hook/useBoolean.tsx</text>
</g>
<!-- component/Dashboard/DashboardHeader/SelectRealTimeRangeArea.tsx&#45;&gt;hook/useBoolean.tsx -->
<g id="edge25" class="edge">
<title>component/Dashboard/DashboardHeader/SelectRealTimeRangeArea.tsx&#45;&gt;hook/useBoolean.tsx</title>
<path fill="none" stroke="#757575" d="M1603.97,-900.32C1657.14,-907.88 1735.37,-909.59 1786,-868.35 1829.83,-832.64 1781.38,-785.67 1822,-746.35 1860.44,-709.14 1918.89,-694.21 1967.32,-688.55"/>
<polygon fill="#757575" stroke="#757575" points="1967.67,-692.03 1977.25,-687.52 1966.94,-685.07 1967.67,-692.03"/>
</g>
<!-- hook/useOutsideClick.tsx -->
<g id="node25" class="node">
<title>hook/useOutsideClick.tsx</title>
<path fill="none" stroke="#cfffac" d="M2133.83,-936.85C2133.83,-936.85 1973.17,-936.85 1973.17,-936.85 1969.33,-936.85 1965.5,-933.02 1965.5,-929.18 1965.5,-929.18 1965.5,-921.52 1965.5,-921.52 1965.5,-917.68 1969.33,-913.85 1973.17,-913.85 1973.17,-913.85 2133.83,-913.85 2133.83,-913.85 2137.67,-913.85 2141.5,-917.68 2141.5,-921.52 2141.5,-921.52 2141.5,-929.18 2141.5,-929.18 2141.5,-933.02 2137.67,-936.85 2133.83,-936.85"/>
<text text-anchor="middle" x="2053.5" y="-921.65" font-family="Arial" font-size="14.00" fill="#cfffac">hook/useOutsideClick.tsx</text>
</g>
<!-- component/Dashboard/DashboardHeader/SelectRealTimeRangeArea.tsx&#45;&gt;hook/useOutsideClick.tsx -->
<g id="edge26" class="edge">
<title>component/Dashboard/DashboardHeader/SelectRealTimeRangeArea.tsx&#45;&gt;hook/useOutsideClick.tsx</title>
<path fill="none" stroke="#757575" d="M1710.43,-900.34C1790.69,-906.2 1884.65,-913.08 1953.76,-918.13"/>
<polygon fill="#757575" stroke="#757575" points="1953.33,-921.61 1963.56,-918.85 1953.84,-914.63 1953.33,-921.61"/>
</g>
<!-- component/Dashboard/DashboardHeader/RealTime.tsx -->
<g id="node26" class="node">
<title>component/Dashboard/DashboardHeader/RealTime.tsx</title>
<path fill="none" stroke="#cfffac" d="M2229.83,-818.85C2229.83,-818.85 1877.17,-818.85 1877.17,-818.85 1873.33,-818.85 1869.5,-815.02 1869.5,-811.18 1869.5,-811.18 1869.5,-803.52 1869.5,-803.52 1869.5,-799.68 1873.33,-795.85 1877.17,-795.85 1877.17,-795.85 2229.83,-795.85 2229.83,-795.85 2233.67,-795.85 2237.5,-799.68 2237.5,-803.52 2237.5,-803.52 2237.5,-811.18 2237.5,-811.18 2237.5,-815.02 2233.67,-818.85 2229.83,-818.85"/>
<text text-anchor="middle" x="2053.5" y="-803.65" font-family="Arial" font-size="14.00" fill="#cfffac">component/Dashboard/DashboardHeader/RealTime.tsx</text>
</g>
<!-- component/Dashboard/DashboardHeader/SelectRealTimeRangeArea.tsx&#45;&gt;component/Dashboard/DashboardHeader/RealTime.tsx -->
<g id="edge23" class="edge">
<title>component/Dashboard/DashboardHeader/SelectRealTimeRangeArea.tsx&#45;&gt;component/Dashboard/DashboardHeader/RealTime.tsx</title>
<path fill="none" stroke="#757575" d="M1765.79,-876.39C1772.69,-874 1779.45,-871.33 1786,-868.35 1806.31,-859.1 1801.83,-842.89 1822,-833.35 1833.47,-827.92 1845.62,-823.44 1858.09,-819.74"/>
<polygon fill="#757575" stroke="#757575" points="1858.96,-823.14 1867.67,-817.1 1857.1,-816.39 1858.96,-823.14"/>
</g>
<!-- component/Dashboard/DashboardHeader/SelectRealTimeListItem.tsx -->
<g id="node27" class="node">
<title>component/Dashboard/DashboardHeader/SelectRealTimeListItem.tsx</title>
<path fill="none" stroke="#c6c5fe" d="M3152.33,-856.85C3152.33,-856.85 2707.67,-856.85 2707.67,-856.85 2703.83,-856.85 2700,-853.02 2700,-849.18 2700,-849.18 2700,-841.52 2700,-841.52 2700,-837.68 2703.83,-833.85 2707.67,-833.85 2707.67,-833.85 3152.33,-833.85 3152.33,-833.85 3156.17,-833.85 3160,-837.68 3160,-841.52 3160,-841.52 3160,-849.18 3160,-849.18 3160,-853.02 3156.17,-856.85 3152.33,-856.85"/>
<text text-anchor="middle" x="2930" y="-841.65" font-family="Arial" font-size="14.00" fill="#c6c5fe">component/Dashboard/DashboardHeader/SelectRealTimeListItem.tsx</text>
</g>
<!-- component/Dashboard/DashboardHeader/SelectRealTimeRangeArea.tsx&#45;&gt;component/Dashboard/DashboardHeader/SelectRealTimeListItem.tsx -->
<g id="edge24" class="edge">
<title>component/Dashboard/DashboardHeader/SelectRealTimeRangeArea.tsx&#45;&gt;component/Dashboard/DashboardHeader/SelectRealTimeListItem.tsx</title>
<path fill="none" stroke="#757575" d="M1724.66,-876.36C1757.04,-874.46 1790.52,-872.69 1822,-871.35 2120.31,-858.65 2464.12,-851.79 2688.42,-848.36"/>
<polygon fill="#757575" stroke="#757575" points="2688.22,-851.86 2698.16,-848.21 2688.11,-844.86 2688.22,-851.86"/>
</g>
<!-- component/Dashboard/DashboardHeader/CurrentTime.tsx -->
<g id="node19" class="node">
<title>component/Dashboard/DashboardHeader/CurrentTime.tsx</title>
<path fill="none" stroke="#c6c5fe" d="M1730.83,-1114.85C1730.83,-1114.85 1360.17,-1114.85 1360.17,-1114.85 1356.33,-1114.85 1352.5,-1111.02 1352.5,-1107.18 1352.5,-1107.18 1352.5,-1099.52 1352.5,-1099.52 1352.5,-1095.68 1356.33,-1091.85 1360.17,-1091.85 1360.17,-1091.85 1730.83,-1091.85 1730.83,-1091.85 1734.67,-1091.85 1738.5,-1095.68 1738.5,-1099.52 1738.5,-1099.52 1738.5,-1107.18 1738.5,-1107.18 1738.5,-1111.02 1734.67,-1114.85 1730.83,-1114.85"/>
<text text-anchor="middle" x="1545.5" y="-1099.65" font-family="Arial" font-size="14.00" fill="#c6c5fe">component/Dashboard/DashboardHeader/CurrentTime.tsx</text>
</g>
<!-- component/Dashboard/DashboardHeader/TimeBlock.tsx&#45;&gt;component/Dashboard/DashboardHeader/CurrentTime.tsx -->
<g id="edge28" class="edge">
<title>component/Dashboard/DashboardHeader/TimeBlock.tsx&#45;&gt;component/Dashboard/DashboardHeader/CurrentTime.tsx</title>
<path fill="none" stroke="#757575" d="M1088.43,-996.3C1182.1,-1018.29 1381.36,-1065.06 1482.63,-1088.83"/>
<polygon fill="#757575" stroke="#757575" points="1481.59,-1092.18 1492.13,-1091.06 1483.19,-1085.36 1481.59,-1092.18"/>
</g>
<!-- component/Dashboard/DashboardHeader/DatePickerArea.tsx -->
<g id="node22" class="node">
<title>component/Dashboard/DashboardHeader/DatePickerArea.tsx</title>
<path fill="none" stroke="#c6c5fe" d="M1741.33,-995.85C1741.33,-995.85 1349.67,-995.85 1349.67,-995.85 1345.83,-995.85 1342,-992.02 1342,-988.18 1342,-988.18 1342,-980.52 1342,-980.52 1342,-976.68 1345.83,-972.85 1349.67,-972.85 1349.67,-972.85 1741.33,-972.85 1741.33,-972.85 1745.17,-972.85 1749,-976.68 1749,-980.52 1749,-980.52 1749,-988.18 1749,-988.18 1749,-992.02 1745.17,-995.85 1741.33,-995.85"/>
<text text-anchor="middle" x="1545.5" y="-980.65" font-family="Arial" font-size="14.00" fill="#c6c5fe">component/Dashboard/DashboardHeader/DatePickerArea.tsx</text>
</g>
<!-- component/Dashboard/DashboardHeader/TimeBlock.tsx&#45;&gt;component/Dashboard/DashboardHeader/DatePickerArea.tsx -->
<g id="edge29" class="edge">
<title>component/Dashboard/DashboardHeader/TimeBlock.tsx&#45;&gt;component/Dashboard/DashboardHeader/DatePickerArea.tsx</title>
<path fill="none" stroke="#757575" d="M1223.77,-984.35C1258.43,-984.35 1294.91,-984.35 1330.33,-984.35"/>
<polygon fill="#757575" stroke="#757575" points="1330.28,-987.85 1340.28,-984.35 1330.28,-980.85 1330.28,-987.85"/>
</g>
<!-- store/DashboardProvider.tsx&#45;&gt;common/date.ts -->
<g id="edge78" class="edge">
<title>store/DashboardProvider.tsx&#45;&gt;common/date.ts</title>
<path fill="none" stroke="#757575" d="M2152.3,-766.35C2233.98,-766.35 2348.44,-766.35 2421.28,-766.35"/>
<polygon fill="#757575" stroke="#757575" points="2421.09,-769.85 2431.09,-766.35 2421.09,-762.85 2421.09,-769.85"/>
</g>
<!-- store/WidgetProvider.tsx&#45;&gt;types/widget.d.ts -->
<g id="edge80" class="edge">
<title>store/WidgetProvider.tsx&#45;&gt;types/widget.d.ts</title>
<path fill="none" stroke="#757575" d="M1632.46,-641.33C1885.11,-650.11 2622.25,-675.7 2856.59,-683.84"/>
<polygon fill="#757575" stroke="#757575" points="2856.39,-687.33 2866.51,-684.18 2856.64,-680.33 2856.39,-687.33"/>
</g>
<!-- store/WidgetProvider.tsx&#45;&gt;hook/useBoolean.tsx -->
<g id="edge79" class="edge">
<title>store/WidgetProvider.tsx&#45;&gt;hook/useBoolean.tsx</title>
<path fill="none" stroke="#757575" d="M1632.34,-646.49C1725.72,-655.35 1874.09,-669.43 1967.25,-678.26"/>
<polygon fill="#757575" stroke="#757575" points="1966.81,-681.74 1977.1,-679.2 1967.47,-674.77 1966.81,-681.74"/>
</g>
<!-- hook/useCurrentTime.tsx -->
<g id="node20" class="node">
<title>hook/useCurrentTime.tsx</title>
<path fill="none" stroke="#cfffac" d="M2133.33,-1174.85C2133.33,-1174.85 1973.67,-1174.85 1973.67,-1174.85 1969.83,-1174.85 1966,-1171.02 1966,-1167.18 1966,-1167.18 1966,-1159.52 1966,-1159.52 1966,-1155.68 1969.83,-1151.85 1973.67,-1151.85 1973.67,-1151.85 2133.33,-1151.85 2133.33,-1151.85 2137.17,-1151.85 2141,-1155.68 2141,-1159.52 2141,-1159.52 2141,-1167.18 2141,-1167.18 2141,-1171.02 2137.17,-1174.85 2133.33,-1174.85"/>
<text text-anchor="middle" x="2053.5" y="-1159.65" font-family="Arial" font-size="14.00" fill="#cfffac">hook/useCurrentTime.tsx</text>
</g>
<!-- component/Dashboard/DashboardHeader/CurrentTime.tsx&#45;&gt;hook/useCurrentTime.tsx -->
<g id="edge10" class="edge">
<title>component/Dashboard/DashboardHeader/CurrentTime.tsx&#45;&gt;hook/useCurrentTime.tsx</title>
<path fill="none" stroke="#757575" d="M1620.89,-1115.34C1676.24,-1123.97 1753.71,-1135.44 1822,-1143.35 1865.31,-1148.37 1913.33,-1152.73 1954.28,-1156.08"/>
<polygon fill="#757575" stroke="#757575" points="1953.88,-1159.56 1964.13,-1156.88 1954.44,-1152.58 1953.88,-1159.56"/>
</g>
<!-- component/Dashboard/DashboardHeader/DateBox.tsx -->
<g id="node21" class="node">
<title>component/Dashboard/DashboardHeader/DateBox.tsx</title>
<path fill="none" stroke="#cfffac" d="M2226.83,-1133.85C2226.83,-1133.85 1880.17,-1133.85 1880.17,-1133.85 1876.33,-1133.85 1872.5,-1130.02 1872.5,-1126.18 1872.5,-1126.18 1872.5,-1118.52 1872.5,-1118.52 1872.5,-1114.68 1876.33,-1110.85 1880.17,-1110.85 1880.17,-1110.85 2226.83,-1110.85 2226.83,-1110.85 2230.67,-1110.85 2234.5,-1114.68 2234.5,-1118.52 2234.5,-1118.52 2234.5,-1126.18 2234.5,-1126.18 2234.5,-1130.02 2230.67,-1133.85 2226.83,-1133.85"/>
<text text-anchor="middle" x="2053.5" y="-1118.65" font-family="Arial" font-size="14.00" fill="#cfffac">component/Dashboard/DashboardHeader/DateBox.tsx</text>
</g>
<!-- component/Dashboard/DashboardHeader/DatePickerArea.tsx&#45;&gt;common/date.ts -->
<g id="edge11" class="edge">
<title>component/Dashboard/DashboardHeader/DatePickerArea.tsx&#45;&gt;common/date.ts</title>
<path fill="none" stroke="#757575" d="M1749.17,-988.63C1933.75,-989.88 2191.34,-984.21 2285,-946.35 2370.36,-911.84 2444.71,-826.59 2475.89,-787.07"/>
<polygon fill="#757575" stroke="#757575" points="2478.58,-789.31 2481.94,-779.27 2473.04,-785.03 2478.58,-789.31"/>
</g>
<!-- component/Dashboard/DashboardHeader/DatePickerArea.tsx&#45;&gt;component/Dashboard/CommonStyle.ts -->
<g id="edge12" class="edge">
<title>component/Dashboard/DashboardHeader/DatePickerArea.tsx&#45;&gt;component/Dashboard/CommonStyle.ts</title>
<path fill="none" stroke="#757575" d="M1649.71,-996.33C1701.37,-1001.85 1764.91,-1007.93 1822,-1011.35 2195.58,-1033.74 2290.11,-1038.88 2664,-1022.35 2858.09,-1013.77 3083.07,-991.19 3215.59,-976.58"/>
<polygon fill="#757575" stroke="#757575" points="3215.88,-980.07 3225.43,-975.49 3215.11,-973.11 3215.88,-980.07"/>
</g>
<!-- component/Dashboard/DashboardHeader/DatePickerArea.tsx&#45;&gt;store/DashboardProvider.tsx -->
<g id="edge17" class="edge">
<title>component/Dashboard/DashboardHeader/DatePickerArea.tsx&#45;&gt;store/DashboardProvider.tsx</title>
<path fill="none" stroke="#757575" d="M1658.24,-972.4C1703.22,-962.26 1752.31,-943.6 1786,-909.35 1825.64,-869.04 1778.3,-823.22 1822,-787.35 1864.93,-752.11 1928.71,-748.8 1978.3,-753.22"/>
<polygon fill="#757575" stroke="#757575" points="1977.8,-756.68 1988.11,-754.22 1978.52,-749.72 1977.8,-756.68"/>
</g>
<!-- component/Dashboard/DashboardHeader/DatePickerArea.tsx&#45;&gt;types/widget.d.ts -->
<g id="edge18" class="edge">
<title>component/Dashboard/DashboardHeader/DatePickerArea.tsx&#45;&gt;types/widget.d.ts</title>
<path fill="none" stroke="#757575" d="M1638.82,-996.32C1779.99,-1011.88 2057.12,-1031.54 2285,-981.35 2539.76,-925.23 2814.5,-759.56 2901.19,-704.43"/>
<polygon fill="#757575" stroke="#757575" points="2903,-707.42 2909.54,-699.08 2899.23,-701.53 2903,-707.42"/>
</g>
<!-- component/Dashboard/DashboardHeader/DatePickerArea.tsx&#45;&gt;component/Dashboard/DashboardHeader/DateBox.tsx -->
<g id="edge13" class="edge">
<title>component/Dashboard/DashboardHeader/DatePickerArea.tsx&#45;&gt;component/Dashboard/DashboardHeader/DateBox.tsx</title>
<path fill="none" stroke="#757575" d="M1577.91,-996.25C1624.06,-1013.98 1712.69,-1048.94 1786,-1083.35 1802.38,-1091.04 1804.64,-1097.24 1822,-1102.35 1834.57,-1106.05 1847.68,-1109.13 1860.98,-1111.69"/>
<polygon fill="#757575" stroke="#757575" points="1860.25,-1115.11 1870.71,-1113.45 1861.49,-1108.22 1860.25,-1115.11"/>
</g>
<!-- component/common/DatePicker.tsx -->
<g id="node23" class="node">
<title>component/common/DatePicker.tsx</title>
<path fill="none" stroke="#c6c5fe" d="M2166.83,-1092.85C2166.83,-1092.85 1940.17,-1092.85 1940.17,-1092.85 1936.33,-1092.85 1932.5,-1089.02 1932.5,-1085.18 1932.5,-1085.18 1932.5,-1077.52 1932.5,-1077.52 1932.5,-1073.68 1936.33,-1069.85 1940.17,-1069.85 1940.17,-1069.85 2166.83,-1069.85 2166.83,-1069.85 2170.67,-1069.85 2174.5,-1073.68 2174.5,-1077.52 2174.5,-1077.52 2174.5,-1085.18 2174.5,-1085.18 2174.5,-1089.02 2170.67,-1092.85 2166.83,-1092.85"/>
<text text-anchor="middle" x="2053.5" y="-1077.65" font-family="Arial" font-size="14.00" fill="#c6c5fe">component/common/DatePicker.tsx</text>
</g>
<!-- component/Dashboard/DashboardHeader/DatePickerArea.tsx&#45;&gt;component/common/DatePicker.tsx -->
<g id="edge14" class="edge">
<title>component/Dashboard/DashboardHeader/DatePickerArea.tsx&#45;&gt;component/common/DatePicker.tsx</title>
<path fill="none" stroke="#757575" d="M1585.8,-996.33C1638.91,-1012.1 1736.75,-1039.64 1822,-1055.35 1853.8,-1061.21 1888.32,-1065.95 1920.73,-1069.7"/>
<polygon fill="#757575" stroke="#757575" points="1920.27,-1073.17 1930.6,-1070.81 1921.05,-1066.21 1920.27,-1073.17"/>
</g>
<!-- component/Dashboard/DashboardHeader/DatePickerArea.tsx&#45;&gt;hook/useBoolean.tsx -->
<g id="edge15" class="edge">
<title>component/Dashboard/DashboardHeader/DatePickerArea.tsx&#45;&gt;hook/useBoolean.tsx</title>
<path fill="none" stroke="#757575" d="M1664.35,-972.4C1708.13,-962.18 1754.7,-943.46 1786,-909.35 1836.15,-854.68 1770.53,-799.78 1822,-746.35 1859.4,-707.53 1918.47,-692.69 1967.45,-687.47"/>
<polygon fill="#757575" stroke="#757575" points="1967.56,-690.97 1977.19,-686.56 1966.9,-684.01 1967.56,-690.97"/>
</g>
<!-- component/Dashboard/DashboardHeader/DatePickerArea.tsx&#45;&gt;hook/useOutsideClick.tsx -->
<g id="edge16" class="edge">
<title>component/Dashboard/DashboardHeader/DatePickerArea.tsx&#45;&gt;hook/useOutsideClick.tsx</title>
<path fill="none" stroke="#757575" d="M1644.98,-972.39C1697.51,-966.05 1763.26,-958.18 1822,-951.35 1865.24,-946.32 1913.05,-940.9 1953.88,-936.32"/>
<polygon fill="#757575" stroke="#757575" points="1954.14,-939.81 1963.69,-935.22 1953.36,-932.86 1954.14,-939.81"/>
</g>
<!-- component/common/DatePicker/DatePickerTitle.tsx -->
<g id="node44" class="node">
<title>component/common/DatePicker/DatePickerTitle.tsx</title>
<path fill="none" stroke="#c6c5fe" d="M2656.33,-1012.85C2656.33,-1012.85 2328.67,-1012.85 2328.67,-1012.85 2324.83,-1012.85 2321,-1009.02 2321,-1005.18 2321,-1005.18 2321,-997.52 2321,-997.52 2321,-993.68 2324.83,-989.85 2328.67,-989.85 2328.67,-989.85 2656.33,-989.85 2656.33,-989.85 2660.17,-989.85 2664,-993.68 2664,-997.52 2664,-997.52 2664,-1005.18 2664,-1005.18 2664,-1009.02 2660.17,-1012.85 2656.33,-1012.85"/>
<text text-anchor="middle" x="2492.5" y="-997.65" font-family="Arial" font-size="14.00" fill="#c6c5fe">component/common/DatePicker/DatePickerTitle.tsx</text>
</g>
<!-- component/common/DatePicker.tsx&#45;&gt;component/common/DatePicker/DatePickerTitle.tsx -->
<g id="edge60" class="edge">
<title>component/common/DatePicker.tsx&#45;&gt;component/common/DatePicker/DatePickerTitle.tsx</title>
<path fill="none" stroke="#757575" d="M2119.92,-1069.37C2198.8,-1054.93 2331.16,-1030.7 2414.78,-1015.39"/>
<polygon fill="#757575" stroke="#757575" points="2415.29,-1018.86 2424.5,-1013.61 2414.03,-1011.97 2415.29,-1018.86"/>
</g>
<!-- component/common/DatePicker/ListPicker.tsx -->
<g id="node45" class="node">
<title>component/common/DatePicker/ListPicker.tsx</title>
<path fill="none" stroke="#c6c5fe" d="M2638.83,-1092.85C2638.83,-1092.85 2346.17,-1092.85 2346.17,-1092.85 2342.33,-1092.85 2338.5,-1089.02 2338.5,-1085.18 2338.5,-1085.18 2338.5,-1077.52 2338.5,-1077.52 2338.5,-1073.68 2342.33,-1069.85 2346.17,-1069.85 2346.17,-1069.85 2638.83,-1069.85 2638.83,-1069.85 2642.67,-1069.85 2646.5,-1073.68 2646.5,-1077.52 2646.5,-1077.52 2646.5,-1085.18 2646.5,-1085.18 2646.5,-1089.02 2642.67,-1092.85 2638.83,-1092.85"/>
<text text-anchor="middle" x="2492.5" y="-1077.65" font-family="Arial" font-size="14.00" fill="#c6c5fe">component/common/DatePicker/ListPicker.tsx</text>
</g>
<!-- component/common/DatePicker.tsx&#45;&gt;component/common/DatePicker/ListPicker.tsx -->
<g id="edge61" class="edge">
<title>component/common/DatePicker.tsx&#45;&gt;component/common/DatePicker/ListPicker.tsx</title>
<path fill="none" stroke="#757575" d="M2174.78,-1081.35C2221.76,-1081.35 2276.39,-1081.35 2326.91,-1081.35"/>
<polygon fill="#757575" stroke="#757575" points="2326.79,-1084.85 2336.79,-1081.35 2326.79,-1077.85 2326.79,-1084.85"/>
</g>
<!-- types/datePicker.d.ts -->
<g id="node46" class="node">
<title>types/datePicker.d.ts</title>
<path fill="none" stroke="#cfffac" d="M2996.83,-1133.85C2996.83,-1133.85 2863.17,-1133.85 2863.17,-1133.85 2859.33,-1133.85 2855.5,-1130.02 2855.5,-1126.18 2855.5,-1126.18 2855.5,-1118.52 2855.5,-1118.52 2855.5,-1114.68 2859.33,-1110.85 2863.17,-1110.85 2863.17,-1110.85 2996.83,-1110.85 2996.83,-1110.85 3000.67,-1110.85 3004.5,-1114.68 3004.5,-1118.52 3004.5,-1118.52 3004.5,-1126.18 3004.5,-1126.18 3004.5,-1130.02 3000.67,-1133.85 2996.83,-1133.85"/>
<text text-anchor="middle" x="2930" y="-1118.65" font-family="Arial" font-size="14.00" fill="#cfffac">types/datePicker.d.ts</text>
</g>
<!-- component/common/DatePicker.tsx&#45;&gt;types/datePicker.d.ts -->
<g id="edge62" class="edge">
<title>component/common/DatePicker.tsx&#45;&gt;types/datePicker.d.ts</title>
<path fill="none" stroke="#757575" d="M2174.81,-1092C2220.55,-1095.75 2273.16,-1099.68 2321,-1102.35 2507.24,-1112.74 2725.9,-1118.32 2843.6,-1120.77"/>
<polygon fill="#757575" stroke="#757575" points="2843.43,-1124.27 2853.5,-1120.98 2843.57,-1117.27 2843.43,-1124.27"/>
</g>
<!-- component/Dashboard/DashboardHeader/SelectRealTimeListItem.tsx&#45;&gt;component/Dashboard/CommonStyle.ts -->
<g id="edge21" class="edge">
<title>component/Dashboard/DashboardHeader/SelectRealTimeListItem.tsx&#45;&gt;component/Dashboard/CommonStyle.ts</title>
<path fill="none" stroke="#757575" d="M3101.36,-857.32C3121.36,-860.89 3141.3,-865.47 3160,-871.35 3214.83,-888.59 3272.39,-923.94 3304.48,-945.45"/>
<polygon fill="#757575" stroke="#757575" points="3302.11,-948.07 3312.34,-950.8 3306.04,-942.28 3302.11,-948.07"/>
</g>
<!-- component/Widget.tsx -->
<g id="node28" class="node">
<title>component/Widget.tsx</title>
<path fill="none" stroke="#c6c5fe" d="M675.33,-571.85C675.33,-571.85 531.67,-571.85 531.67,-571.85 527.83,-571.85 524,-568.02 524,-564.18 524,-564.18 524,-556.52 524,-556.52 524,-552.68 527.83,-548.85 531.67,-548.85 531.67,-548.85 675.33,-548.85 675.33,-548.85 679.17,-548.85 683,-552.68 683,-556.52 683,-556.52 683,-564.18 683,-564.18 683,-568.02 679.17,-571.85 675.33,-571.85"/>
<text text-anchor="middle" x="603.5" y="-556.65" font-family="Arial" font-size="14.00" fill="#c6c5fe">component/Widget.tsx</text>
</g>
<!-- component/Widget.tsx&#45;&gt;types/widget.d.ts -->
<g id="edge35" class="edge">
<title>component/Widget.tsx&#45;&gt;types/widget.d.ts</title>
<path fill="none" stroke="#757575" d="M630.2,-548.48C663.84,-532.25 723.72,-500.94 768,-464.35 786.69,-448.9 781.91,-433.35 804,-423.35 858.07,-398.87 1622.7,-412.98 2285,-440.35 2453.67,-447.32 2507.26,-402.66 2664,-465.35 2775.39,-509.9 2874.67,-619.98 2912.62,-665.81"/>
<polygon fill="#757575" stroke="#757575" points="2909.78,-667.87 2918.81,-673.4 2915.2,-663.44 2909.78,-667.87"/>
</g>
<!-- component/Widget.tsx&#45;&gt;hook/useBoolean.tsx -->
<g id="edge34" class="edge">
<title>component/Widget.tsx&#45;&gt;hook/useBoolean.tsx</title>
<path fill="none" stroke="#757575" d="M636.45,-572.31C675.41,-586.34 743.55,-609.1 804,-620.35 1235.22,-700.57 1763.6,-695.27 1967.05,-689.48"/>
<polygon fill="#757575" stroke="#757575" points="1967.13,-692.97 1977.02,-689.18 1966.92,-685.98 1967.13,-692.97"/>
</g>
<!-- component/Widget/WidgetButtons.tsx -->
<g id="node29" class="node">
<title>component/Widget/WidgetButtons.tsx</title>
<path fill="none" stroke="#c6c5fe" d="M1157.33,-611.85C1157.33,-611.85 915.67,-611.85 915.67,-611.85 911.83,-611.85 908,-608.02 908,-604.18 908,-604.18 908,-596.52 908,-596.52 908,-592.68 911.83,-588.85 915.67,-588.85 915.67,-588.85 1157.33,-588.85 1157.33,-588.85 1161.17,-588.85 1165,-592.68 1165,-596.52 1165,-596.52 1165,-604.18 1165,-604.18 1165,-608.02 1161.17,-611.85 1157.33,-611.85"/>
<text text-anchor="middle" x="1036.5" y="-596.65" font-family="Arial" font-size="14.00" fill="#c6c5fe">component/Widget/WidgetButtons.tsx</text>
</g>
<!-- component/Widget.tsx&#45;&gt;component/Widget/WidgetButtons.tsx -->
<g id="edge30" class="edge">
<title>component/Widget.tsx&#45;&gt;component/Widget/WidgetButtons.tsx</title>
<path fill="none" stroke="#757575" d="M683.3,-567.66C742.79,-573.18 825.95,-580.9 896.52,-587.45"/>
<polygon fill="#757575" stroke="#757575" points="895.95,-590.91 906.23,-588.35 896.6,-583.94 895.95,-590.91"/>
</g>
<!-- component/Widget/WidgetCallCycleSettingModal.tsx -->
<g id="node30" class="node">
<title>component/Widget/WidgetCallCycleSettingModal.tsx</title>
<path fill="none" stroke="#c6c5fe" d="M1713.33,-574.85C1713.33,-574.85 1377.67,-574.85 1377.67,-574.85 1373.83,-574.85 1370,-571.02 1370,-567.18 1370,-567.18 1370,-559.52 1370,-559.52 1370,-555.68 1373.83,-551.85 1377.67,-551.85 1377.67,-551.85 1713.33,-551.85 1713.33,-551.85 1717.17,-551.85 1721,-555.68 1721,-559.52 1721,-559.52 1721,-567.18 1721,-567.18 1721,-571.02 1717.17,-574.85 1713.33,-574.85"/>
<text text-anchor="middle" x="1545.5" y="-559.65" font-family="Arial" font-size="14.00" fill="#c6c5fe">component/Widget/WidgetCallCycleSettingModal.tsx</text>
</g>
<!-- component/Widget.tsx&#45;&gt;component/Widget/WidgetCallCycleSettingModal.tsx -->
<g id="edge31" class="edge">
<title>component/Widget.tsx&#45;&gt;component/Widget/WidgetCallCycleSettingModal.tsx</title>
<path fill="none" stroke="#757575" d="M683.43,-560.6C831.08,-561.07 1152.69,-562.1 1358.36,-562.76"/>
<polygon fill="#757575" stroke="#757575" points="1358.06,-566.25 1368.07,-562.79 1358.09,-559.25 1358.06,-566.25"/>
</g>
<!-- component/Widget/WidgetChart.tsx -->
<g id="node31" class="node">
<title>component/Widget/WidgetChart.tsx</title>
<path fill="none" stroke="#c6c5fe" d="M1149.83,-261.85C1149.83,-261.85 923.17,-261.85 923.17,-261.85 919.33,-261.85 915.5,-258.02 915.5,-254.18 915.5,-254.18 915.5,-246.52 915.5,-246.52 915.5,-242.68 919.33,-238.85 923.17,-238.85 923.17,-238.85 1149.83,-238.85 1149.83,-238.85 1153.67,-238.85 1157.5,-242.68 1157.5,-246.52 1157.5,-246.52 1157.5,-254.18 1157.5,-254.18 1157.5,-258.02 1153.67,-261.85 1149.83,-261.85"/>
<text text-anchor="middle" x="1036.5" y="-246.65" font-family="Arial" font-size="14.00" fill="#c6c5fe">component/Widget/WidgetChart.tsx</text>
</g>
<!-- component/Widget.tsx&#45;&gt;component/Widget/WidgetChart.tsx -->
<g id="edge32" class="edge">
<title>component/Widget.tsx&#45;&gt;component/Widget/WidgetChart.tsx</title>
<path fill="none" stroke="#757575" d="M636.19,-548.38C672.12,-533.44 730.57,-504.83 768,-464.35 792.83,-437.5 779.34,-417.36 804,-390.35 858.28,-330.88 943.67,-288.28 994.16,-266.62"/>
<polygon fill="#757575" stroke="#757575" points="995.43,-269.89 1003.3,-262.78 992.72,-263.43 995.43,-269.89"/>
</g>
<!-- hook/Widget/useHandleWidgetApi.tsx -->
<g id="node32" class="node">
<title>hook/Widget/useHandleWidgetApi.tsx</title>
<path fill="none" stroke="#c6c5fe" d="M1666.33,-495.85C1666.33,-495.85 1424.67,-495.85 1424.67,-495.85 1420.83,-495.85 1417,-492.02 1417,-488.18 1417,-488.18 1417,-480.52 1417,-480.52 1417,-476.68 1420.83,-472.85 1424.67,-472.85 1424.67,-472.85 1666.33,-472.85 1666.33,-472.85 1670.17,-472.85 1674,-476.68 1674,-480.52 1674,-480.52 1674,-488.18 1674,-488.18 1674,-492.02 1670.17,-495.85 1666.33,-495.85"/>
<text text-anchor="middle" x="1545.5" y="-480.65" font-family="Arial" font-size="14.00" fill="#c6c5fe">hook/Widget/useHandleWidgetApi.tsx</text>
</g>
<!-- component/Widget.tsx&#45;&gt;hook/Widget/useHandleWidgetApi.tsx -->
<g id="edge33" class="edge">
<title>component/Widget.tsx&#45;&gt;hook/Widget/useHandleWidgetApi.tsx</title>
<path fill="none" stroke="#757575" d="M683.43,-553.97C842.86,-541.08 1205.09,-511.79 1405.2,-495.61"/>
<polygon fill="#757575" stroke="#757575" points="1405.47,-499.1 1415.16,-494.81 1404.91,-492.12 1405.47,-499.1"/>
</g>
<!-- component/Widget/WidgetButtons.tsx&#45;&gt;store/WidgetProvider.tsx -->
<g id="edge36" class="edge">
<title>component/Widget/WidgetButtons.tsx&#45;&gt;store/WidgetProvider.tsx</title>
<path fill="none" stroke="#757575" d="M1165.44,-609.94C1253.13,-616.51 1367.64,-625.09 1447.76,-631.1"/>
<polygon fill="#757575" stroke="#757575" points="1447.09,-634.56 1457.33,-631.82 1447.62,-627.58 1447.09,-634.56"/>
</g>
<!-- component/Widget/WidgetCallCycleSettingModal.tsx&#45;&gt;common/widget.ts -->
<g id="edge37" class="edge">
<title>component/Widget/WidgetCallCycleSettingModal.tsx&#45;&gt;common/widget.ts</title>
<path fill="none" stroke="#757575" d="M1702.1,-551.36C1792.94,-544.35 1903.56,-535.83 1975.89,-530.25"/>
<polygon fill="#757575" stroke="#757575" points="1975.95,-533.76 1985.65,-529.5 1975.41,-526.78 1975.95,-533.76"/>
</g>
<!-- component/Widget/WidgetCallCycleSettingModal/CycleInput.tsx -->
<g id="node33" class="node">
<title>component/Widget/WidgetCallCycleSettingModal/CycleInput.tsx</title>
<path fill="none" stroke="#cfffac" d="M2256.83,-617.85C2256.83,-617.85 1850.17,-617.85 1850.17,-617.85 1846.33,-617.85 1842.5,-614.02 1842.5,-610.18 1842.5,-610.18 1842.5,-602.52 1842.5,-602.52 1842.5,-598.68 1846.33,-594.85 1850.17,-594.85 1850.17,-594.85 2256.83,-594.85 2256.83,-594.85 2260.67,-594.85 2264.5,-598.68 2264.5,-602.52 2264.5,-602.52 2264.5,-610.18 2264.5,-610.18 2264.5,-614.02 2260.67,-617.85 2256.83,-617.85"/>
<text text-anchor="middle" x="2053.5" y="-602.65" font-family="Arial" font-size="14.00" fill="#cfffac">component/Widget/WidgetCallCycleSettingModal/CycleInput.tsx</text>
</g>
<!-- component/Widget/WidgetCallCycleSettingModal.tsx&#45;&gt;component/Widget/WidgetCallCycleSettingModal/CycleInput.tsx -->
<g id="edge38" class="edge">
<title>component/Widget/WidgetCallCycleSettingModal.tsx&#45;&gt;component/Widget/WidgetCallCycleSettingModal/CycleInput.tsx</title>
<path fill="none" stroke="#757575" d="M1687.45,-575.33C1753.65,-580.95 1832.68,-587.67 1900.26,-593.41"/>
<polygon fill="#757575" stroke="#757575" points="1899.66,-596.87 1909.92,-594.23 1900.25,-589.9 1899.66,-596.87"/>
</g>
<!-- component/Widget/WidgetCallCycleSettingModal/LastCallTimeBox.tsx -->
<g id="node34" class="node">
<title>component/Widget/WidgetCallCycleSettingModal/LastCallTimeBox.tsx</title>
<path fill="none" stroke="#cfffac" d="M2277.33,-576.85C2277.33,-576.85 1829.67,-576.85 1829.67,-576.85 1825.83,-576.85 1822,-573.02 1822,-569.18 1822,-569.18 1822,-561.52 1822,-561.52 1822,-557.68 1825.83,-553.85 1829.67,-553.85 1829.67,-553.85 2277.33,-553.85 2277.33,-553.85 2281.17,-553.85 2285,-557.68 2285,-561.52 2285,-561.52 2285,-569.18 2285,-569.18 2285,-573.02 2281.17,-576.85 2277.33,-576.85"/>
<text text-anchor="middle" x="2053.5" y="-561.65" font-family="Arial" font-size="14.00" fill="#cfffac">component/Widget/WidgetCallCycleSettingModal/LastCallTimeBox.tsx</text>
</g>
<!-- component/Widget/WidgetCallCycleSettingModal.tsx&#45;&gt;component/Widget/WidgetCallCycleSettingModal/LastCallTimeBox.tsx -->
<g id="edge39" class="edge">
<title>component/Widget/WidgetCallCycleSettingModal.tsx&#45;&gt;component/Widget/WidgetCallCycleSettingModal/LastCallTimeBox.tsx</title>
<path fill="none" stroke="#757575" d="M1721.35,-564.04C1750.09,-564.15 1780.34,-564.27 1810.37,-564.39"/>
<polygon fill="#757575" stroke="#757575" points="1810.35,-567.89 1820.36,-564.43 1810.37,-560.89 1810.35,-567.89"/>
</g>
<!-- component/Widget/WidgetChart.tsx&#45;&gt;types/chart.d.ts -->
<g id="edge43" class="edge">
<title>component/Widget/WidgetChart.tsx&#45;&gt;types/chart.d.ts</title>
<path fill="none" stroke="#757575" d="M1157.82,-260.04C1428.15,-280.4 2076.29,-320.97 2285,-260.35 2360.6,-238.39 2435.02,-179.51 2470.31,-148.72"/>
<polygon fill="#757575" stroke="#757575" points="2472.51,-151.44 2477.67,-142.19 2467.87,-146.21 2472.51,-151.44"/>
</g>
<!-- component/chart/BarChart.tsx -->
<g id="node35" class="node">
<title>component/chart/BarChart.tsx</title>
<path fill="none" stroke="#c6c5fe" d="M1639.33,-181.85C1639.33,-181.85 1451.67,-181.85 1451.67,-181.85 1447.83,-181.85 1444,-178.02 1444,-174.18 1444,-174.18 1444,-166.52 1444,-166.52 1444,-162.68 1447.83,-158.85 1451.67,-158.85 1451.67,-158.85 1639.33,-158.85 1639.33,-158.85 1643.17,-158.85 1647,-162.68 1647,-166.52 1647,-166.52 1647,-174.18 1647,-174.18 1647,-178.02 1643.17,-181.85 1639.33,-181.85"/>
<text text-anchor="middle" x="1545.5" y="-166.65" font-family="Arial" font-size="14.00" fill="#c6c5fe">component/chart/BarChart.tsx</text>
</g>
<!-- component/Widget/WidgetChart.tsx&#45;&gt;component/chart/BarChart.tsx -->
<g id="edge40" class="edge">
<title>component/Widget/WidgetChart.tsx&#45;&gt;component/chart/BarChart.tsx</title>
<path fill="none" stroke="#757575" d="M1157.7,-255.89C1194.94,-253.37 1235.06,-246.07 1269,-229.35 1290.16,-218.92 1283.8,-200.7 1305,-190.35 1343.89,-171.35 1390.59,-164.47 1432.39,-163"/>
<polygon fill="#757575" stroke="#757575" points="1432.32,-166.5 1442.24,-162.76 1432.15,-159.5 1432.32,-166.5"/>
</g>
<!-- component/chart/InformaticsChart.tsx -->
<g id="node36" class="node">
<title>component/chart/InformaticsChart.tsx</title>
<path fill="none" stroke="#c6c5fe" d="M1663.83,-60.85C1663.83,-60.85 1427.17,-60.85 1427.17,-60.85 1423.33,-60.85 1419.5,-57.02 1419.5,-53.18 1419.5,-53.18 1419.5,-45.52 1419.5,-45.52 1419.5,-41.68 1423.33,-37.85 1427.17,-37.85 1427.17,-37.85 1663.83,-37.85 1663.83,-37.85 1667.67,-37.85 1671.5,-41.68 1671.5,-45.52 1671.5,-45.52 1671.5,-53.18 1671.5,-53.18 1671.5,-57.02 1667.67,-60.85 1663.83,-60.85"/>
<text text-anchor="middle" x="1545.5" y="-45.65" font-family="Arial" font-size="14.00" fill="#c6c5fe">component/chart/InformaticsChart.tsx</text>
</g>
<!-- component/Widget/WidgetChart.tsx&#45;&gt;component/chart/InformaticsChart.tsx -->
<g id="edge41" class="edge">
<title>component/Widget/WidgetChart.tsx&#45;&gt;component/chart/InformaticsChart.tsx</title>
<path fill="none" stroke="#757575" d="M1121.98,-262.35C1169.29,-264.56 1227.02,-259.27 1269,-229.35 1300.75,-206.72 1277.06,-176.54 1305,-149.35 1351.35,-104.24 1421.02,-78.28 1473.29,-64.18"/>
<polygon fill="#757575" stroke="#757575" points="1473.9,-67.63 1482.7,-61.72 1472.14,-60.86 1473.9,-67.63"/>
</g>
<!-- component/chart/LineChart.tsx -->
<g id="node37" class="node">
<title>component/chart/LineChart.tsx</title>
<path fill="none" stroke="#c6c5fe" d="M1642.33,-222.85C1642.33,-222.85 1448.67,-222.85 1448.67,-222.85 1444.83,-222.85 1441,-219.02 1441,-215.18 1441,-215.18 1441,-207.52 1441,-207.52 1441,-203.68 1444.83,-199.85 1448.67,-199.85 1448.67,-199.85 1642.33,-199.85 1642.33,-199.85 1646.17,-199.85 1650,-203.68 1650,-207.52 1650,-207.52 1650,-215.18 1650,-215.18 1650,-219.02 1646.17,-222.85 1642.33,-222.85"/>
<text text-anchor="middle" x="1545.5" y="-207.65" font-family="Arial" font-size="14.00" fill="#c6c5fe">component/chart/LineChart.tsx</text>
</g>
<!-- component/Widget/WidgetChart.tsx&#45;&gt;component/chart/LineChart.tsx -->
<g id="edge42" class="edge">
<title>component/Widget/WidgetChart.tsx&#45;&gt;component/chart/LineChart.tsx</title>
<path fill="none" stroke="#757575" d="M1157.97,-241.08C1240.21,-234.76 1348.5,-226.43 1429.53,-220.19"/>
<polygon fill="#757575" stroke="#757575" points="1429.57,-223.7 1439.27,-219.44 1429.03,-216.72 1429.57,-223.7"/>
</g>
<!-- hook/Widget/useHandleWidgetApi.tsx&#45;&gt;common/api.ts -->
<g id="edge67" class="edge">
<title>hook/Widget/useHandleWidgetApi.tsx&#45;&gt;common/api.ts</title>
<path fill="none" stroke="#757575" d="M1598.27,-472.38C1691.86,-450.74 1888.84,-405.19 1989.86,-381.83"/>
<polygon fill="#757575" stroke="#757575" points="1990.37,-385.31 1999.33,-379.64 1988.79,-378.49 1990.37,-385.31"/>
</g>
<!-- hook/Widget/useHandleWidgetApi.tsx&#45;&gt;types/chart.d.ts -->
<g id="edge71" class="edge">
<title>hook/Widget/useHandleWidgetApi.tsx&#45;&gt;types/chart.d.ts</title>
<path fill="none" stroke="#757575" d="M1564.23,-472.48C1606.64,-444.8 1718.1,-376.06 1822,-346.35 2020.7,-289.54 2094.36,-383.14 2285,-303.35 2368.32,-268.47 2443.19,-187.53 2475.14,-149.62"/>
<polygon fill="#757575" stroke="#757575" points="2477.66,-152.06 2481.35,-142.13 2472.27,-147.6 2477.66,-152.06"/>
</g>
<!-- hook/Widget/useHandleWidgetApi.tsx&#45;&gt;common/date.ts -->
<g id="edge68" class="edge">
<title>hook/Widget/useHandleWidgetApi.tsx&#45;&gt;common/date.ts</title>
<path fill="none" stroke="#757575" d="M1674.32,-474.78C1856.85,-463.26 2181.56,-451.4 2285,-503.35 2390.36,-556.27 2458.52,-690.75 2482.19,-744.08"/>
<polygon fill="#757575" stroke="#757575" points="2478.89,-745.27 2486.07,-753.05 2485.31,-742.48 2478.89,-745.27"/>
</g>
<!-- hook/Widget/useHandleWidgetApi.tsx&#45;&gt;common/widget.ts -->
<g id="edge69" class="edge">
<title>hook/Widget/useHandleWidgetApi.tsx&#45;&gt;common/widget.ts</title>
<path fill="none" stroke="#757575" d="M1674.19,-494.44C1769.2,-501.95 1895.76,-511.96 1975.7,-518.28"/>
<polygon fill="#757575" stroke="#757575" points="1975.4,-521.76 1985.64,-519.06 1975.95,-514.79 1975.4,-521.76"/>
</g>
<!-- hook/Widget/useHandleWidgetApi.tsx&#45;&gt;store/DashboardProvider.tsx -->
<g id="edge70" class="edge">
<title>hook/Widget/useHandleWidgetApi.tsx&#45;&gt;store/DashboardProvider.tsx</title>
<path fill="none" stroke="#757575" d="M1674.4,-489.15C1714.94,-496.92 1756.77,-512.44 1786,-542.35 1838.47,-596.02 1769.88,-653.33 1822,-707.35 1853.46,-739.96 1900.29,-755.46 1943.53,-762.52"/>
<polygon fill="#757575" stroke="#757575" points="1942.83,-765.95 1953.23,-763.95 1943.85,-759.03 1942.83,-765.95"/>
</g>
<!-- hook/Widget/useHandleWidgetApi.tsx&#45;&gt;types/widget.d.ts -->
<g id="edge72" class="edge">
<title>hook/Widget/useHandleWidgetApi.tsx&#45;&gt;types/widget.d.ts</title>
<path fill="none" stroke="#757575" d="M1664,-472.37C1712.82,-467.96 1770.09,-463.51 1822,-461.35 2027.6,-452.78 2082.12,-426.93 2285,-461.35 2527.29,-502.46 2799.91,-624.75 2894.51,-669.61"/>
<polygon fill="#757575" stroke="#757575" points="2892.74,-672.64 2903.27,-673.79 2895.75,-666.33 2892.74,-672.64"/>
</g>
<!-- component/chart/BarChart.tsx&#45;&gt;common/chart.ts -->
<g id="edge49" class="edge">
<title>component/chart/BarChart.tsx&#45;&gt;common/chart.ts</title>
<path fill="none" stroke="#757575" d="M1647.38,-162.18C1746.02,-154.18 1893.73,-142.21 1980.89,-135.15"/>
<polygon fill="#757575" stroke="#757575" points="1981.06,-138.65 1990.74,-134.35 1980.49,-131.67 1981.06,-138.65"/>
</g>
<!-- component/chart/BarChart.tsx&#45;&gt;types/chart.d.ts -->
<g id="edge52" class="edge">
<title>component/chart/BarChart.tsx&#45;&gt;types/chart.d.ts</title>
<path fill="none" stroke="#757575" d="M1586.64,-158.37C1639.86,-143.17 1736.97,-117.8 1822,-108.35 2026.52,-85.62 2079.49,-97.93 2285,-108.35 2331.61,-110.71 2383.92,-116.06 2424.22,-120.77"/>
<polygon fill="#757575" stroke="#757575" points="2423.68,-124.23 2434.02,-121.93 2424.5,-117.28 2423.68,-124.23"/>
</g>
<!-- component/chart/ChartSvg.tsx -->
<g id="node41" class="node">
<title>component/chart/ChartSvg.tsx</title>
<path fill="none" stroke="#cfffac" d="M2148.83,-222.85C2148.83,-222.85 1958.17,-222.85 1958.17,-222.85 1954.33,-222.85 1950.5,-219.02 1950.5,-215.18 1950.5,-215.18 1950.5,-207.52 1950.5,-207.52 1950.5,-203.68 1954.33,-199.85 1958.17,-199.85 1958.17,-199.85 2148.83,-199.85 2148.83,-199.85 2152.67,-199.85 2156.5,-203.68 2156.5,-207.52 2156.5,-207.52 2156.5,-215.18 2156.5,-215.18 2156.5,-219.02 2152.67,-222.85 2148.83,-222.85"/>
<text text-anchor="middle" x="2053.5" y="-207.65" font-family="Arial" font-size="14.00" fill="#cfffac">component/chart/ChartSvg.tsx</text>
</g>
<!-- component/chart/BarChart.tsx&#45;&gt;component/chart/ChartSvg.tsx -->
<g id="edge50" class="edge">
<title>component/chart/BarChart.tsx&#45;&gt;component/chart/ChartSvg.tsx</title>
<path fill="none" stroke="#757575" d="M1647.38,-178.52C1731.48,-185.34 1851.26,-195.04 1938.76,-202.13"/>
<polygon fill="#757575" stroke="#757575" points="1938.31,-205.61 1948.56,-202.93 1938.88,-198.63 1938.31,-205.61"/>
</g>
<!-- hook/useResize.tsx -->
<g id="node42" class="node">
<title>hook/useResize.tsx</title>
<path fill="none" stroke="#cfffac" d="M2115.83,-181.85C2115.83,-181.85 1991.17,-181.85 1991.17,-181.85 1987.33,-181.85 1983.5,-178.02 1983.5,-174.18 1983.5,-174.18 1983.5,-166.52 1983.5,-166.52 1983.5,-162.68 1987.33,-158.85 1991.17,-158.85 1991.17,-158.85 2115.83,-158.85 2115.83,-158.85 2119.67,-158.85 2123.5,-162.68 2123.5,-166.52 2123.5,-166.52 2123.5,-174.18 2123.5,-174.18 2123.5,-178.02 2119.67,-181.85 2115.83,-181.85"/>
<text text-anchor="middle" x="2053.5" y="-166.65" font-family="Arial" font-size="14.00" fill="#cfffac">hook/useResize.tsx</text>
</g>
<!-- component/chart/BarChart.tsx&#45;&gt;hook/useResize.tsx -->
<g id="edge51" class="edge">
<title>component/chart/BarChart.tsx&#45;&gt;hook/useResize.tsx</title>
<path fill="none" stroke="#757575" d="M1647.38,-170.35C1742.67,-170.35 1883.75,-170.35 1971.8,-170.35"/>
<polygon fill="#757575" stroke="#757575" points="1971.55,-173.85 1981.55,-170.35 1971.55,-166.85 1971.55,-173.85"/>
</g>
<!-- component/chart/InformaticsChart.tsx&#45;&gt;types/chart.d.ts -->
<g id="edge54" class="edge">
<title>component/chart/InformaticsChart.tsx&#45;&gt;types/chart.d.ts</title>
<path fill="none" stroke="#757575" d="M1607.36,-37.35C1734.98,-14.41 2039.14,28.56 2285,-28.35 2354.24,-44.38 2427.08,-86.98 2465,-111.43"/>
<polygon fill="#757575" stroke="#757575" points="2462.75,-114.14 2473.04,-116.69 2466.59,-108.28 2462.75,-114.14"/>
</g>
<!-- component/chart/InformaticsChart/InforMaticsBox.tsx -->
<g id="node43" class="node">
<title>component/chart/InformaticsChart/InforMaticsBox.tsx</title>
<path fill="none" stroke="#c6c5fe" d="M2220.83,-60.85C2220.83,-60.85 1886.17,-60.85 1886.17,-60.85 1882.33,-60.85 1878.5,-57.02 1878.5,-53.18 1878.5,-53.18 1878.5,-45.52 1878.5,-45.52 1878.5,-41.68 1882.33,-37.85 1886.17,-37.85 1886.17,-37.85 2220.83,-37.85 2220.83,-37.85 2224.67,-37.85 2228.5,-41.68 2228.5,-45.52 2228.5,-45.52 2228.5,-53.18 2228.5,-53.18 2228.5,-57.02 2224.67,-60.85 2220.83,-60.85"/>
<text text-anchor="middle" x="2053.5" y="-45.65" font-family="Arial" font-size="14.00" fill="#c6c5fe">component/chart/InformaticsChart/InforMaticsBox.tsx</text>
</g>
<!-- component/chart/InformaticsChart.tsx&#45;&gt;component/chart/InformaticsChart/InforMaticsBox.tsx -->
<g id="edge53" class="edge">
<title>component/chart/InformaticsChart.tsx&#45;&gt;component/chart/InformaticsChart/InforMaticsBox.tsx</title>
<path fill="none" stroke="#757575" d="M1671.9,-49.35C1730.7,-49.35 1801.94,-49.35 1866.82,-49.35"/>
<polygon fill="#757575" stroke="#757575" points="1866.5,-52.85 1876.5,-49.35 1866.5,-45.85 1866.5,-52.85"/>
</g>
<!-- component/chart/LineChart.tsx&#45;&gt;common/chart.ts -->
<g id="edge56" class="edge">
<title>component/chart/LineChart.tsx&#45;&gt;common/chart.ts</title>
<path fill="none" stroke="#757575" d="M1650.48,-218.91C1694.38,-217.98 1744.76,-211.24 1786,-190.35 1807.63,-179.39 1800.36,-160.3 1822,-149.35 1871,-124.56 1933.41,-120.54 1980.93,-122.18"/>
<polygon fill="#757575" stroke="#757575" points="1980.71,-125.68 1990.85,-122.63 1981.02,-118.68 1980.71,-125.68"/>
</g>
<!-- component/chart/LineChart.tsx&#45;&gt;types/chart.d.ts -->
<g id="edge59" class="edge">
<title>component/chart/LineChart.tsx&#45;&gt;types/chart.d.ts</title>
<path fill="none" stroke="#757575" d="M1607.38,-223.29C1735.04,-246.1 2039.26,-288.73 2285,-231.35 2354.34,-215.16 2427.14,-172.13 2465.03,-147.44"/>
<polygon fill="#757575" stroke="#757575" points="2466.65,-150.57 2473.06,-142.13 2462.79,-144.73 2466.65,-150.57"/>
</g>
<!-- component/chart/LineChart.tsx&#45;&gt;component/chart/ChartSvg.tsx -->
<g id="edge57" class="edge">
<title>component/chart/LineChart.tsx&#45;&gt;component/chart/ChartSvg.tsx</title>
<path fill="none" stroke="#757575" d="M1650.42,-211.35C1734.29,-211.35 1852.13,-211.35 1938.57,-211.35"/>
<polygon fill="#757575" stroke="#757575" points="1938.5,-214.85 1948.5,-211.35 1938.5,-207.85 1938.5,-214.85"/>
</g>
<!-- component/chart/LineChart.tsx&#45;&gt;hook/useResize.tsx -->
<g id="edge58" class="edge">
<title>component/chart/LineChart.tsx&#45;&gt;hook/useResize.tsx</title>
<path fill="none" stroke="#757575" d="M1650.42,-202.93C1745.64,-195.21 1884.65,-183.95 1971.76,-176.89"/>
<polygon fill="#757575" stroke="#757575" points="1971.98,-180.38 1981.67,-176.09 1971.42,-173.41 1971.98,-180.38"/>
</g>
<!-- component/Widget/WidgetPropsSettingModal.tsx -->
<g id="node38" class="node">
<title>component/Widget/WidgetPropsSettingModal.tsx</title>
<path fill="none" stroke="#c6c5fe" d="M760.33,-455.85C760.33,-455.85 446.67,-455.85 446.67,-455.85 442.83,-455.85 439,-452.02 439,-448.18 439,-448.18 439,-440.52 439,-440.52 439,-436.68 442.83,-432.85 446.67,-432.85 446.67,-432.85 760.33,-432.85 760.33,-432.85 764.17,-432.85 768,-436.68 768,-440.52 768,-440.52 768,-448.18 768,-448.18 768,-452.02 764.17,-455.85 760.33,-455.85"/>
<text text-anchor="middle" x="603.5" y="-440.65" font-family="Arial" font-size="14.00" fill="#c6c5fe">component/Widget/WidgetPropsSettingModal.tsx</text>
</g>
<!-- component/Widget/WidgetPropsSettingModal.tsx&#45;&gt;common/api.ts -->
<g id="edge44" class="edge">
<title>component/Widget/WidgetPropsSettingModal.tsx&#45;&gt;common/api.ts</title>
<path fill="none" stroke="#757575" d="M638.56,-432.37C677.85,-419.2 744.68,-398.79 804,-390.35 1252.57,-326.5 1800.85,-351.58 1987.06,-362.93"/>
<polygon fill="#757575" stroke="#757575" points="1986.57,-366.41 1996.77,-363.53 1987,-359.42 1986.57,-366.41"/>
</g>
<!-- component/Widget/WidgetPropsSettingModal.tsx&#45;&gt;store/WidgetProvider.tsx -->
<g id="edge47" class="edge">
<title>component/Widget/WidgetPropsSettingModal.tsx&#45;&gt;store/WidgetProvider.tsx</title>
<path fill="none" stroke="#757575" d="M664.56,-456.33C781.16,-479.64 1046.3,-532.88 1269,-579.35 1340.56,-594.28 1422.47,-611.89 1478.25,-623.96"/>
<polygon fill="#757575" stroke="#757575" points="1477.4,-627.35 1487.91,-626.05 1478.88,-620.51 1477.4,-627.35"/>
</g>
<!-- component/Widget/WidgetPropsSettingModal/WidgetPropsButtons.tsx -->
<g id="node39" class="node">
<title>component/Widget/WidgetPropsSettingModal/WidgetPropsButtons.tsx</title>
<path fill="none" stroke="#c6c5fe" d="M1261.33,-455.85C1261.33,-455.85 811.67,-455.85 811.67,-455.85 807.83,-455.85 804,-452.02 804,-448.18 804,-448.18 804,-440.52 804,-440.52 804,-436.68 807.83,-432.85 811.67,-432.85 811.67,-432.85 1261.33,-432.85 1261.33,-432.85 1265.17,-432.85 1269,-436.68 1269,-440.52 1269,-440.52 1269,-448.18 1269,-448.18 1269,-452.02 1265.17,-455.85 1261.33,-455.85"/>
<text text-anchor="middle" x="1036.5" y="-440.65" font-family="Arial" font-size="14.00" fill="#c6c5fe">component/Widget/WidgetPropsSettingModal/WidgetPropsButtons.tsx</text>
</g>
<!-- component/Widget/WidgetPropsSettingModal.tsx&#45;&gt;component/Widget/WidgetPropsSettingModal/WidgetPropsButtons.tsx -->
<g id="edge45" class="edge">
<title>component/Widget/WidgetPropsSettingModal.tsx&#45;&gt;component/Widget/WidgetPropsSettingModal/WidgetPropsButtons.tsx</title>
<path fill="none" stroke="#757575" d="M768.36,-444.35C776.29,-444.35 784.32,-444.35 792.4,-444.35"/>
<polygon fill="#757575" stroke="#757575" points="792.33,-447.85 802.33,-444.35 792.33,-440.85 792.33,-447.85"/>
</g>
<!-- component/Widget/WidgetPropsSettingModal/WidgetPropsList.tsx -->
<g id="node40" class="node">
<title>component/Widget/WidgetPropsSettingModal/WidgetPropsList.tsx</title>
<path fill="none" stroke="#cfffac" d="M1248.83,-220.85C1248.83,-220.85 824.17,-220.85 824.17,-220.85 820.33,-220.85 816.5,-217.02 816.5,-213.18 816.5,-213.18 816.5,-205.52 816.5,-205.52 816.5,-201.68 820.33,-197.85 824.17,-197.85 824.17,-197.85 1248.83,-197.85 1248.83,-197.85 1252.67,-197.85 1256.5,-201.68 1256.5,-205.52 1256.5,-205.52 1256.5,-213.18 1256.5,-213.18 1256.5,-217.02 1252.67,-220.85 1248.83,-220.85"/>
<text text-anchor="middle" x="1036.5" y="-205.65" font-family="Arial" font-size="14.00" fill="#cfffac">component/Widget/WidgetPropsSettingModal/WidgetPropsList.tsx</text>
</g>
<!-- component/Widget/WidgetPropsSettingModal.tsx&#45;&gt;component/Widget/WidgetPropsSettingModal/WidgetPropsList.tsx -->
<g id="edge46" class="edge">
<title>component/Widget/WidgetPropsSettingModal.tsx&#45;&gt;component/Widget/WidgetPropsSettingModal/WidgetPropsList.tsx</title>
<path fill="none" stroke="#757575" d="M611.09,-432.49C632.81,-394.73 706.32,-277.07 804,-229.35 806.66,-228.05 809.35,-226.81 812.08,-225.63"/>
<polygon fill="#757575" stroke="#757575" points="813.38,-228.88 821.35,-221.9 810.76,-222.38 813.38,-228.88"/>
</g>
<!-- component/Widget/WidgetPropsSettingModal/WidgetPropsButtons.tsx&#45;&gt;store/WidgetProvider.tsx -->
<g id="edge48" class="edge">
<title>component/Widget/WidgetPropsSettingModal/WidgetPropsButtons.tsx&#45;&gt;store/WidgetProvider.tsx</title>
<path fill="none" stroke="#757575" d="M1152.61,-456.34C1193,-465.36 1236.37,-481.06 1269,-508.35 1297.36,-532.07 1276.12,-560.26 1305,-583.35 1345.02,-615.35 1400.22,-629.43 1447.53,-635.36"/>
<polygon fill="#757575" stroke="#757575" points="1446.91,-638.81 1457.25,-636.47 1447.7,-631.86 1446.91,-638.81"/>
</g>
<!-- component/chart/InformaticsChart/InforMaticsBox.tsx&#45;&gt;types/chart.d.ts -->
<g id="edge55" class="edge">
<title>component/chart/InformaticsChart/InforMaticsBox.tsx&#45;&gt;types/chart.d.ts</title>
<path fill="none" stroke="#757575" d="M2189.97,-61.35C2221.3,-65.03 2254.42,-69.66 2285,-75.35 2339.23,-85.44 2400.21,-102.06 2441.76,-114.19"/>
<polygon fill="#757575" stroke="#757575" points="2440.64,-117.51 2451.22,-116.98 2442.62,-110.8 2440.64,-117.51"/>
</g>
<!-- component/common/DatePicker/DatePickerTitle.tsx&#45;&gt;types/widget.d.ts -->
<g id="edge63" class="edge">
<title>component/common/DatePicker/DatePickerTitle.tsx&#45;&gt;types/widget.d.ts</title>
<path fill="none" stroke="#757575" d="M2644.03,-989.5C2651.21,-985.6 2657.94,-980.92 2664,-975.35 2714.48,-928.95 2659.59,-880.73 2700,-825.35 2745.81,-762.57 2829.4,-722.52 2881.92,-702.28"/>
<polygon fill="#757575" stroke="#757575" points="2883.08,-705.58 2891.21,-698.79 2880.62,-699.03 2883.08,-705.58"/>
</g>
<!-- component/common/DatePicker/ListPicker.tsx&#45;&gt;types/datePicker.d.ts -->
<g id="edge65" class="edge">
<title>component/common/DatePicker/ListPicker.tsx&#45;&gt;types/datePicker.d.ts</title>
<path fill="none" stroke="#757575" d="M2608.43,-1093.33C2638.24,-1096.36 2670.31,-1099.54 2700,-1102.35 2747.6,-1106.85 2800.79,-1111.52 2843.93,-1115.21"/>
<polygon fill="#757575" stroke="#757575" points="2843.47,-1118.68 2853.73,-1116.05 2844.06,-1111.71 2843.47,-1118.68"/>
</g>
<!-- component/common/DatePicker/ListPickerItem.tsx -->
<g id="node47" class="node">
<title>component/common/DatePicker/ListPickerItem.tsx</title>
<path fill="none" stroke="#c6c5fe" d="M3090.83,-1092.85C3090.83,-1092.85 2769.17,-1092.85 2769.17,-1092.85 2765.33,-1092.85 2761.5,-1089.02 2761.5,-1085.18 2761.5,-1085.18 2761.5,-1077.52 2761.5,-1077.52 2761.5,-1073.68 2765.33,-1069.85 2769.17,-1069.85 2769.17,-1069.85 3090.83,-1069.85 3090.83,-1069.85 3094.67,-1069.85 3098.5,-1073.68 3098.5,-1077.52 3098.5,-1077.52 3098.5,-1085.18 3098.5,-1085.18 3098.5,-1089.02 3094.67,-1092.85 3090.83,-1092.85"/>
<text text-anchor="middle" x="2930" y="-1077.65" font-family="Arial" font-size="14.00" fill="#c6c5fe">component/common/DatePicker/ListPickerItem.tsx</text>
</g>
<!-- component/common/DatePicker/ListPicker.tsx&#45;&gt;component/common/DatePicker/ListPickerItem.tsx -->
<g id="edge64" class="edge">
<title>component/common/DatePicker/ListPicker.tsx&#45;&gt;component/common/DatePicker/ListPickerItem.tsx</title>
<path fill="none" stroke="#757575" d="M2646.73,-1081.35C2680.12,-1081.35 2715.72,-1081.35 2750,-1081.35"/>
<polygon fill="#757575" stroke="#757575" points="2749.57,-1084.85 2759.57,-1081.35 2749.57,-1077.85 2749.57,-1084.85"/>
</g>
<!-- component/common/DatePicker/ListPickerItem.tsx&#45;&gt;component/Dashboard/CommonStyle.ts -->
<g id="edge66" class="edge">
<title>component/common/DatePicker/ListPickerItem.tsx&#45;&gt;component/Dashboard/CommonStyle.ts</title>
<path fill="none" stroke="#757575" d="M3098.91,-1069.81C3119.73,-1066.18 3140.53,-1061.47 3160,-1055.35 3214.83,-1038.11 3272.39,-1002.76 3304.48,-981.24"/>
<polygon fill="#757575" stroke="#757575" points="3306.04,-984.42 3312.34,-975.9 3302.11,-978.63 3306.04,-984.42"/>
</g>
<!-- page/Dashboard.tsx&#45;&gt;component/Dashboard/DashboardHeader.tsx -->
<g id="edge73" class="edge">
<title>page/Dashboard.tsx&#45;&gt;component/Dashboard/DashboardHeader.tsx</title>
<path fill="none" stroke="#757575" d="M348.51,-612.07C394.07,-644.41 521.77,-735.05 576.77,-774.09"/>
<polygon fill="#757575" stroke="#757575" points="574.44,-776.73 584.62,-779.66 578.5,-771.02 574.44,-776.73"/>
</g>
<!-- page/Dashboard.tsx&#45;&gt;store/WidgetProvider.tsx -->
<g id="edge76" class="edge">
<title>page/Dashboard.tsx&#45;&gt;store/WidgetProvider.tsx</title>
<path fill="none" stroke="#757575" d="M403.15,-603.76C495.53,-608.11 661.78,-615.61 804,-620.35 1034.72,-628.04 1305.98,-633.8 1447.48,-636.55"/>
<polygon fill="#757575" stroke="#757575" points="1447.11,-640.04 1457.17,-636.74 1447.24,-633.04 1447.11,-640.04"/>
</g>
<!-- page/Dashboard.tsx&#45;&gt;component/Widget.tsx -->
<g id="edge74" class="edge">
<title>page/Dashboard.tsx&#45;&gt;component/Widget.tsx</title>
<path fill="none" stroke="#757575" d="M403.42,-589.79C436.76,-584.86 476.8,-578.94 512.21,-573.7"/>
<polygon fill="#757575" stroke="#757575" points="512.65,-577.17 522.03,-572.25 511.62,-570.25 512.65,-577.17"/>
</g>
<!-- page/Dashboard.tsx&#45;&gt;component/Widget/WidgetPropsSettingModal.tsx -->
<g id="edge75" class="edge">
<title>page/Dashboard.tsx&#45;&gt;component/Widget/WidgetPropsSettingModal.tsx</title>
<path fill="none" stroke="#757575" d="M352.78,-588.37C400.2,-561.02 516.57,-493.9 572.08,-461.89"/>
<polygon fill="#757575" stroke="#757575" points="573.8,-464.94 580.71,-456.91 570.3,-458.88 573.8,-464.94"/>
</g>
</g>
</svg>
