<?xml version="1.0" encoding="UTF-8" standalone="no"?>
<!DOCTYPE svg PUBLIC "-//W3C//DTD SVG 1.1//EN"
 "http://www.w3.org/Graphics/SVG/1.1/DTD/svg11.dtd">
<!-- Generated by graphviz version 7.1.0 (20230121.1956)
 -->
<!-- Title: G Pages: 1 -->
<svg width="2970pt" height="1033pt"
 viewBox="0.00 0.00 2970.20 1032.64" xmlns="http://www.w3.org/2000/svg" xmlns:xlink="http://www.w3.org/1999/xlink">
<g id="graph0" class="graph" transform="scale(1 1) rotate(0) translate(21.6 1011.04)">
<title>G</title>
<polygon fill="#111111" stroke="none" points="-21.6,21.6 -21.6,-1011.04 2948.6,-1011.04 2948.6,21.6 -21.6,21.6"/>
<!-- App.tsx -->
<g id="node1" class="node">
<title>App.tsx</title>
<path fill="none" stroke="#c6c5fe" d="M57.33,-469.44C57.33,-469.44 7.67,-469.44 7.67,-469.44 3.83,-469.44 0,-465.6 0,-461.77 0,-461.77 0,-454.1 0,-454.1 0,-450.27 3.83,-446.44 7.67,-446.44 7.67,-446.44 57.33,-446.44 57.33,-446.44 61.17,-446.44 65,-450.27 65,-454.1 65,-454.1 65,-461.77 65,-461.77 65,-465.6 61.17,-469.44 57.33,-469.44"/>
<text text-anchor="middle" x="32.5" y="-454.24" font-family="Arial" font-size="14.00" fill="#c6c5fe">App.tsx</text>
</g>
<!-- router/Router.tsx -->
<g id="node2" class="node">
<title>router/Router.tsx</title>
<path fill="none" stroke="#c6c5fe" d="M215.33,-469.44C215.33,-469.44 108.67,-469.44 108.67,-469.44 104.83,-469.44 101,-465.6 101,-461.77 101,-461.77 101,-454.1 101,-454.1 101,-450.27 104.83,-446.44 108.67,-446.44 108.67,-446.44 215.33,-446.44 215.33,-446.44 219.17,-446.44 223,-450.27 223,-454.1 223,-454.1 223,-461.77 223,-461.77 223,-465.6 219.17,-469.44 215.33,-469.44"/>
<text text-anchor="middle" x="162" y="-454.24" font-family="Arial" font-size="14.00" fill="#c6c5fe">router/Router.tsx</text>
</g>
<!-- App.tsx&#45;&gt;router/Router.tsx -->
<g id="edge1" class="edge">
<title>App.tsx&#45;&gt;router/Router.tsx</title>
<path fill="none" stroke="#757575" d="M65.34,-457.94C72.7,-457.94 80.81,-457.94 89.12,-457.94"/>
<polygon fill="#757575" stroke="#757575" points="88.99,-461.44 98.99,-457.94 88.99,-454.44 88.99,-461.44"/>
</g>
<!-- page/Dashboard.tsx -->
<g id="node49" class="node">
<title>page/Dashboard.tsx</title>
<path fill="none" stroke="#c6c5fe" d="M395.33,-469.44C395.33,-469.44 266.67,-469.44 266.67,-469.44 262.83,-469.44 259,-465.6 259,-461.77 259,-461.77 259,-454.1 259,-454.1 259,-450.27 262.83,-446.44 266.67,-446.44 266.67,-446.44 395.33,-446.44 395.33,-446.44 399.17,-446.44 403,-450.27 403,-454.1 403,-454.1 403,-461.77 403,-461.77 403,-465.6 399.17,-469.44 395.33,-469.44"/>
<text text-anchor="middle" x="331" y="-454.24" font-family="Arial" font-size="14.00" fill="#c6c5fe">page/Dashboard.tsx</text>
</g>
<!-- router/Router.tsx&#45;&gt;page/Dashboard.tsx -->
<g id="edge70" class="edge">
<title>router/Router.tsx&#45;&gt;page/Dashboard.tsx</title>
<path fill="none" stroke="#757575" d="M223.29,-457.94C231.1,-457.94 239.21,-457.94 247.3,-457.94"/>
<polygon fill="#757575" stroke="#757575" points="247.19,-461.44 257.19,-457.94 247.19,-454.44 247.19,-461.44"/>
</g>
<!-- asset/image/pause.png -->
<g id="node3" class="node">
<title>asset/image/pause.png</title>
<path fill="none" stroke="#cfffac" d="M1502.83,-62.44C1502.83,-62.44 1354.17,-62.44 1354.17,-62.44 1350.33,-62.44 1346.5,-58.6 1346.5,-54.77 1346.5,-54.77 1346.5,-47.1 1346.5,-47.1 1346.5,-43.27 1350.33,-39.44 1354.17,-39.44 1354.17,-39.44 1502.83,-39.44 1502.83,-39.44 1506.67,-39.44 1510.5,-43.27 1510.5,-47.1 1510.5,-47.1 1510.5,-54.77 1510.5,-54.77 1510.5,-58.6 1506.67,-62.44 1502.83,-62.44"/>
<text text-anchor="middle" x="1428.5" y="-47.24" font-family="Arial" font-size="14.00" fill="#cfffac">asset/image/pause.png</text>
</g>
<!-- asset/image/play.png -->
<g id="node4" class="node">
<title>asset/image/play.png</title>
<path fill="none" stroke="#cfffac" d="M1496.33,-103.44C1496.33,-103.44 1360.67,-103.44 1360.67,-103.44 1356.83,-103.44 1353,-99.6 1353,-95.77 1353,-95.77 1353,-88.1 1353,-88.1 1353,-84.27 1356.83,-80.44 1360.67,-80.44 1360.67,-80.44 1496.33,-80.44 1496.33,-80.44 1500.17,-80.44 1504,-84.27 1504,-88.1 1504,-88.1 1504,-95.77 1504,-95.77 1504,-99.6 1500.17,-103.44 1496.33,-103.44"/>
<text text-anchor="middle" x="1428.5" y="-88.24" font-family="Arial" font-size="14.00" fill="#cfffac">asset/image/play.png</text>
</g>
<!-- common/api.ts -->
<g id="node5" class="node">
<title>common/api.ts</title>
<path fill="none" stroke="#c6c5fe" d="M1983.83,-749.44C1983.83,-749.44 1889.17,-749.44 1889.17,-749.44 1885.33,-749.44 1881.5,-745.6 1881.5,-741.77 1881.5,-741.77 1881.5,-734.1 1881.5,-734.1 1881.5,-730.27 1885.33,-726.44 1889.17,-726.44 1889.17,-726.44 1983.83,-726.44 1983.83,-726.44 1987.67,-726.44 1991.5,-730.27 1991.5,-734.1 1991.5,-734.1 1991.5,-741.77 1991.5,-741.77 1991.5,-745.6 1987.67,-749.44 1983.83,-749.44"/>
<text text-anchor="middle" x="1936.5" y="-734.24" font-family="Arial" font-size="14.00" fill="#c6c5fe">common/api.ts</text>
</g>
<!-- types/api.d.ts -->
<g id="node6" class="node">
<title>types/api.d.ts</title>
<path fill="none" stroke="#cfffac" d="M2421.83,-709.44C2421.83,-709.44 2336.17,-709.44 2336.17,-709.44 2332.33,-709.44 2328.5,-705.6 2328.5,-701.77 2328.5,-701.77 2328.5,-694.1 2328.5,-694.1 2328.5,-690.27 2332.33,-686.44 2336.17,-686.44 2336.17,-686.44 2421.83,-686.44 2421.83,-686.44 2425.67,-686.44 2429.5,-690.27 2429.5,-694.1 2429.5,-694.1 2429.5,-701.77 2429.5,-701.77 2429.5,-705.6 2425.67,-709.44 2421.83,-709.44"/>
<text text-anchor="middle" x="2379" y="-694.24" font-family="Arial" font-size="14.00" fill="#cfffac">types/api.d.ts</text>
</g>
<!-- common/api.ts&#45;&gt;types/api.d.ts -->
<g id="edge2" class="edge">
<title>common/api.ts&#45;&gt;types/api.d.ts</title>
<path fill="none" stroke="#757575" d="M1991.96,-732.99C2074.37,-725.51 2230.31,-711.35 2316.63,-703.51"/>
<polygon fill="#757575" stroke="#757575" points="2316.93,-707 2326.57,-702.61 2316.3,-700.02 2316.93,-707"/>
</g>
<!-- common/chart.ts -->
<g id="node7" class="node">
<title>common/chart.ts</title>
<path fill="none" stroke="#c6c5fe" d="M2432.33,-871.44C2432.33,-871.44 2325.67,-871.44 2325.67,-871.44 2321.83,-871.44 2318,-867.6 2318,-863.77 2318,-863.77 2318,-856.1 2318,-856.1 2318,-852.27 2321.83,-848.44 2325.67,-848.44 2325.67,-848.44 2432.33,-848.44 2432.33,-848.44 2436.17,-848.44 2440,-852.27 2440,-856.1 2440,-856.1 2440,-863.77 2440,-863.77 2440,-867.6 2436.17,-871.44 2432.33,-871.44"/>
<text text-anchor="middle" x="2379" y="-856.24" font-family="Arial" font-size="14.00" fill="#c6c5fe">common/chart.ts</text>
</g>
<!-- types/chart.d.ts -->
<g id="node8" class="node">
<title>types/chart.d.ts</title>
<path fill="none" stroke="#cfffac" d="M2807.33,-911.44C2807.33,-911.44 2709.67,-911.44 2709.67,-911.44 2705.83,-911.44 2702,-907.6 2702,-903.77 2702,-903.77 2702,-896.1 2702,-896.1 2702,-892.27 2705.83,-888.44 2709.67,-888.44 2709.67,-888.44 2807.33,-888.44 2807.33,-888.44 2811.17,-888.44 2815,-892.27 2815,-896.1 2815,-896.1 2815,-903.77 2815,-903.77 2815,-907.6 2811.17,-911.44 2807.33,-911.44"/>
<text text-anchor="middle" x="2758.5" y="-896.24" font-family="Arial" font-size="14.00" fill="#cfffac">types/chart.d.ts</text>
</g>
<!-- common/chart.ts&#45;&gt;types/chart.d.ts -->
<g id="edge3" class="edge">
<title>common/chart.ts&#45;&gt;types/chart.d.ts</title>
<path fill="none" stroke="#757575" d="M2440.23,-866.32C2508.6,-873.56 2619.8,-885.35 2690.76,-892.86"/>
<polygon fill="#757575" stroke="#757575" points="2689.97,-896.3 2700.28,-893.87 2690.71,-889.34 2689.97,-896.3"/>
</g>
<!-- common/date.ts -->
<g id="node9" class="node">
<title>common/date.ts</title>
<path fill="none" stroke="#cfffac" d="M2430.83,-266.44C2430.83,-266.44 2327.17,-266.44 2327.17,-266.44 2323.33,-266.44 2319.5,-262.6 2319.5,-258.77 2319.5,-258.77 2319.5,-251.1 2319.5,-251.1 2319.5,-247.27 2323.33,-243.44 2327.17,-243.44 2327.17,-243.44 2430.83,-243.44 2430.83,-243.44 2434.67,-243.44 2438.5,-247.27 2438.5,-251.1 2438.5,-251.1 2438.5,-258.77 2438.5,-258.77 2438.5,-262.6 2434.67,-266.44 2430.83,-266.44"/>
<text text-anchor="middle" x="2379" y="-251.24" font-family="Arial" font-size="14.00" fill="#cfffac">common/date.ts</text>
</g>
<!-- common/widget.ts -->
<g id="node10" class="node">
<title>common/widget.ts</title>
<path fill="none" stroke="#cfffac" d="M1994.83,-631.44C1994.83,-631.44 1878.17,-631.44 1878.17,-631.44 1874.33,-631.44 1870.5,-627.6 1870.5,-623.77 1870.5,-623.77 1870.5,-616.1 1870.5,-616.1 1870.5,-612.27 1874.33,-608.44 1878.17,-608.44 1878.17,-608.44 1994.83,-608.44 1994.83,-608.44 1998.67,-608.44 2002.5,-612.27 2002.5,-616.1 2002.5,-616.1 2002.5,-623.77 2002.5,-623.77 2002.5,-627.6 1998.67,-631.44 1994.83,-631.44"/>
<text text-anchor="middle" x="1936.5" y="-616.24" font-family="Arial" font-size="14.00" fill="#cfffac">common/widget.ts</text>
</g>
<!-- component/Dashboard/DashboardBody.tsx -->
<g id="node11" class="node">
<title>component/Dashboard/DashboardBody.tsx</title>
<path fill="none" stroke="#c6c5fe" d="M727.83,-548.44C727.83,-548.44 453.17,-548.44 453.17,-548.44 449.33,-548.44 445.5,-544.6 445.5,-540.77 445.5,-540.77 445.5,-533.1 445.5,-533.1 445.5,-529.27 449.33,-525.44 453.17,-525.44 453.17,-525.44 727.83,-525.44 727.83,-525.44 731.67,-525.44 735.5,-529.27 735.5,-533.1 735.5,-533.1 735.5,-540.77 735.5,-540.77 735.5,-544.6 731.67,-548.44 727.83,-548.44"/>
<text text-anchor="middle" x="590.5" y="-533.24" font-family="Arial" font-size="14.00" fill="#c6c5fe">component/Dashboard/DashboardBody.tsx</text>
</g>
<!-- component/Widget/Widget.tsx -->
<g id="node12" class="node">
<title>component/Widget/Widget.tsx</title>
<path fill="none" stroke="#c6c5fe" d="M1061.83,-608.44C1061.83,-608.44 868.17,-608.44 868.17,-608.44 864.33,-608.44 860.5,-604.6 860.5,-600.77 860.5,-600.77 860.5,-593.1 860.5,-593.1 860.5,-589.27 864.33,-585.44 868.17,-585.44 868.17,-585.44 1061.83,-585.44 1061.83,-585.44 1065.67,-585.44 1069.5,-589.27 1069.5,-593.1 1069.5,-593.1 1069.5,-600.77 1069.5,-600.77 1069.5,-604.6 1065.67,-608.44 1061.83,-608.44"/>
<text text-anchor="middle" x="965" y="-593.24" font-family="Arial" font-size="14.00" fill="#c6c5fe">component/Widget/Widget.tsx</text>
</g>
<!-- component/Dashboard/DashboardBody.tsx&#45;&gt;component/Widget/Widget.tsx -->
<g id="edge4" class="edge">
<title>component/Dashboard/DashboardBody.tsx&#45;&gt;component/Widget/Widget.tsx</title>
<path fill="none" stroke="#757575" d="M665.99,-548.93C727.27,-558.81 814.18,-572.8 878.34,-583.14"/>
<polygon fill="#757575" stroke="#757575" points="877.72,-586.58 888.15,-584.72 878.83,-579.67 877.72,-586.58"/>
</g>
<!-- store/WidgetProvider.tsx -->
<g id="node13" class="node">
<title>store/WidgetProvider.tsx</title>
<path fill="none" stroke="#c6c5fe" d="M2015.33,-508.44C2015.33,-508.44 1857.67,-508.44 1857.67,-508.44 1853.83,-508.44 1850,-504.6 1850,-500.77 1850,-500.77 1850,-493.1 1850,-493.1 1850,-489.27 1853.83,-485.44 1857.67,-485.44 1857.67,-485.44 2015.33,-485.44 2015.33,-485.44 2019.17,-485.44 2023,-489.27 2023,-493.1 2023,-493.1 2023,-500.77 2023,-500.77 2023,-504.6 2019.17,-508.44 2015.33,-508.44"/>
<text text-anchor="middle" x="1936.5" y="-493.24" font-family="Arial" font-size="14.00" fill="#c6c5fe">store/WidgetProvider.tsx</text>
</g>
<!-- component/Dashboard/DashboardBody.tsx&#45;&gt;store/WidgetProvider.tsx -->
<g id="edge5" class="edge">
<title>component/Dashboard/DashboardBody.tsx&#45;&gt;store/WidgetProvider.tsx</title>
<path fill="none" stroke="#757575" d="M735.8,-536.84C942.6,-536.11 1335.16,-532.55 1669,-516.94 1725.23,-514.31 1788.02,-509.68 1838.52,-505.53"/>
<polygon fill="#757575" stroke="#757575" points="1838.58,-509.04 1848.25,-504.73 1838,-502.07 1838.58,-509.04"/>
</g>
<!-- hook/useBoolean.tsx -->
<g id="node25" class="node">
<title>hook/useBoolean.tsx</title>
<path fill="none" stroke="#cfffac" d="M2445.83,-408.44C2445.83,-408.44 2312.17,-408.44 2312.17,-408.44 2308.33,-408.44 2304.5,-404.6 2304.5,-400.77 2304.5,-400.77 2304.5,-393.1 2304.5,-393.1 2304.5,-389.27 2308.33,-385.44 2312.17,-385.44 2312.17,-385.44 2445.83,-385.44 2445.83,-385.44 2449.67,-385.44 2453.5,-389.27 2453.5,-393.1 2453.5,-393.1 2453.5,-400.77 2453.5,-400.77 2453.5,-404.6 2449.67,-408.44 2445.83,-408.44"/>
<text text-anchor="middle" x="2379" y="-393.24" font-family="Arial" font-size="14.00" fill="#cfffac">hook/useBoolean.tsx</text>
</g>
<!-- component/Widget/Widget.tsx&#45;&gt;hook/useBoolean.tsx -->
<g id="edge30" class="edge">
<title>component/Widget/Widget.tsx&#45;&gt;hook/useBoolean.tsx</title>
<path fill="none" stroke="#757575" d="M981.59,-585.07C1016.36,-559.4 1103.8,-499.18 1188,-475.94 1398.09,-417.93 1951.46,-461.73 2168,-436.94 2218.16,-431.19 2274.3,-420.26 2315.91,-411.27"/>
<polygon fill="#757575" stroke="#757575" points="2316.47,-414.73 2325.5,-409.18 2314.98,-407.89 2316.47,-414.73"/>
</g>
<!-- component/Widget/WidgetButtons.tsx -->
<g id="node29" class="node">
<title>component/Widget/WidgetButtons.tsx</title>
<path fill="none" stroke="#c6c5fe" d="M1549.33,-588.44C1549.33,-588.44 1307.67,-588.44 1307.67,-588.44 1303.83,-588.44 1300,-584.6 1300,-580.77 1300,-580.77 1300,-573.1 1300,-573.1 1300,-569.27 1303.83,-565.44 1307.67,-565.44 1307.67,-565.44 1549.33,-565.44 1549.33,-565.44 1553.17,-565.44 1557,-569.27 1557,-573.1 1557,-573.1 1557,-580.77 1557,-580.77 1557,-584.6 1553.17,-588.44 1549.33,-588.44"/>
<text text-anchor="middle" x="1428.5" y="-573.24" font-family="Arial" font-size="14.00" fill="#c6c5fe">component/Widget/WidgetButtons.tsx</text>
</g>
<!-- component/Widget/Widget.tsx&#45;&gt;component/Widget/WidgetButtons.tsx -->
<g id="edge26" class="edge">
<title>component/Widget/Widget.tsx&#45;&gt;component/Widget/WidgetButtons.tsx</title>
<path fill="none" stroke="#757575" d="M1069.86,-592.43C1134.45,-589.64 1218.29,-586 1288.56,-582.96"/>
<polygon fill="#757575" stroke="#757575" points="1288.36,-586.47 1298.2,-582.54 1288.06,-579.48 1288.36,-586.47"/>
</g>
<!-- component/Widget/WidgetCallCycleSettingModal.tsx -->
<g id="node30" class="node">
<title>component/Widget/WidgetCallCycleSettingModal.tsx</title>
<path fill="none" stroke="#c6c5fe" d="M1596.33,-629.44C1596.33,-629.44 1260.67,-629.44 1260.67,-629.44 1256.83,-629.44 1253,-625.6 1253,-621.77 1253,-621.77 1253,-614.1 1253,-614.1 1253,-610.27 1256.83,-606.44 1260.67,-606.44 1260.67,-606.44 1596.33,-606.44 1596.33,-606.44 1600.17,-606.44 1604,-610.27 1604,-614.1 1604,-614.1 1604,-621.77 1604,-621.77 1604,-625.6 1600.17,-629.44 1596.33,-629.44"/>
<text text-anchor="middle" x="1428.5" y="-614.24" font-family="Arial" font-size="14.00" fill="#c6c5fe">component/Widget/WidgetCallCycleSettingModal.tsx</text>
</g>
<!-- component/Widget/Widget.tsx&#45;&gt;component/Widget/WidgetCallCycleSettingModal.tsx -->
<g id="edge27" class="edge">
<title>component/Widget/Widget.tsx&#45;&gt;component/Widget/WidgetCallCycleSettingModal.tsx</title>
<path fill="none" stroke="#757575" d="M1069.86,-601.66C1120.55,-603.97 1183.1,-606.81 1241.63,-609.48"/>
<polygon fill="#757575" stroke="#757575" points="1241.24,-612.96 1251.39,-609.92 1241.56,-605.97 1241.24,-612.96"/>
</g>
<!-- component/Widget/WidgetChart.tsx -->
<g id="node31" class="node">
<title>component/Widget/WidgetChart.tsx</title>
<path fill="none" stroke="#c6c5fe" d="M1541.83,-830.44C1541.83,-830.44 1315.17,-830.44 1315.17,-830.44 1311.33,-830.44 1307.5,-826.6 1307.5,-822.77 1307.5,-822.77 1307.5,-815.1 1307.5,-815.1 1307.5,-811.27 1311.33,-807.44 1315.17,-807.44 1315.17,-807.44 1541.83,-807.44 1541.83,-807.44 1545.67,-807.44 1549.5,-811.27 1549.5,-815.1 1549.5,-815.1 1549.5,-822.77 1549.5,-822.77 1549.5,-826.6 1545.67,-830.44 1541.83,-830.44"/>
<text text-anchor="middle" x="1428.5" y="-815.24" font-family="Arial" font-size="14.00" fill="#c6c5fe">component/Widget/WidgetChart.tsx</text>
</g>
<!-- component/Widget/Widget.tsx&#45;&gt;component/Widget/WidgetChart.tsx -->
<g id="edge28" class="edge">
<title>component/Widget/Widget.tsx&#45;&gt;component/Widget/WidgetChart.tsx</title>
<path fill="none" stroke="#757575" d="M981.34,-608.8C1016.3,-635.37 1105.26,-700.43 1188,-739.94 1247.32,-768.26 1319.45,-790.53 1368.95,-804.11"/>
<polygon fill="#757575" stroke="#757575" points="1367.75,-807.41 1378.31,-806.65 1369.57,-800.66 1367.75,-807.41"/>
</g>
<!-- hook/Widget/useHandleWidgetApi.tsx -->
<g id="node32" class="node">
<title>hook/Widget/useHandleWidgetApi.tsx</title>
<path fill="none" stroke="#c6c5fe" d="M1549.33,-671.44C1549.33,-671.44 1307.67,-671.44 1307.67,-671.44 1303.83,-671.44 1300,-667.6 1300,-663.77 1300,-663.77 1300,-656.1 1300,-656.1 1300,-652.27 1303.83,-648.44 1307.67,-648.44 1307.67,-648.44 1549.33,-648.44 1549.33,-648.44 1553.17,-648.44 1557,-652.27 1557,-656.1 1557,-656.1 1557,-663.77 1557,-663.77 1557,-667.6 1553.17,-671.44 1549.33,-671.44"/>
<text text-anchor="middle" x="1428.5" y="-656.24" font-family="Arial" font-size="14.00" fill="#c6c5fe">hook/Widget/useHandleWidgetApi.tsx</text>
</g>
<!-- component/Widget/Widget.tsx&#45;&gt;hook/Widget/useHandleWidgetApi.tsx -->
<g id="edge29" class="edge">
<title>component/Widget/Widget.tsx&#45;&gt;hook/Widget/useHandleWidgetApi.tsx</title>
<path fill="none" stroke="#757575" d="M1022.8,-608.9C1067.52,-617.96 1131.51,-630.14 1188,-637.94 1220.42,-642.41 1255.45,-646.21 1288.44,-649.32"/>
<polygon fill="#757575" stroke="#757575" points="1287.75,-652.77 1298.03,-650.21 1288.4,-645.8 1287.75,-652.77"/>
</g>
<!-- types/widget.d.ts -->
<g id="node50" class="node">
<title>types/widget.d.ts</title>
<path fill="none" stroke="#cfffac" d="M2432.83,-508.44C2432.83,-508.44 2325.17,-508.44 2325.17,-508.44 2321.33,-508.44 2317.5,-504.6 2317.5,-500.77 2317.5,-500.77 2317.5,-493.1 2317.5,-493.1 2317.5,-489.27 2321.33,-485.44 2325.17,-485.44 2325.17,-485.44 2432.83,-485.44 2432.83,-485.44 2436.67,-485.44 2440.5,-489.27 2440.5,-493.1 2440.5,-493.1 2440.5,-500.77 2440.5,-500.77 2440.5,-504.6 2436.67,-508.44 2432.83,-508.44"/>
<text text-anchor="middle" x="2379" y="-493.24" font-family="Arial" font-size="14.00" fill="#cfffac">types/widget.d.ts</text>
</g>
<!-- store/WidgetProvider.tsx&#45;&gt;types/widget.d.ts -->
<g id="edge73" class="edge">
<title>store/WidgetProvider.tsx&#45;&gt;types/widget.d.ts</title>
<path fill="none" stroke="#757575" d="M2023.48,-496.94C2105.81,-496.94 2228.62,-496.94 2305.95,-496.94"/>
<polygon fill="#757575" stroke="#757575" points="2305.51,-500.44 2315.51,-496.94 2305.51,-493.44 2305.51,-500.44"/>
</g>
<!-- component/Dashboard/DashboardHeader.tsx -->
<g id="node14" class="node">
<title>component/Dashboard/DashboardHeader.tsx</title>
<path fill="none" stroke="#c6c5fe" d="M734.33,-286.44C734.33,-286.44 446.67,-286.44 446.67,-286.44 442.83,-286.44 439,-282.6 439,-278.77 439,-278.77 439,-271.1 439,-271.1 439,-267.27 442.83,-263.44 446.67,-263.44 446.67,-263.44 734.33,-263.44 734.33,-263.44 738.17,-263.44 742,-267.27 742,-271.1 742,-271.1 742,-278.77 742,-278.77 742,-282.6 738.17,-286.44 734.33,-286.44"/>
<text text-anchor="middle" x="590.5" y="-271.24" font-family="Arial" font-size="14.00" fill="#c6c5fe">component/Dashboard/DashboardHeader.tsx</text>
</g>
<!-- component/Dashboard/DashboardHeader/PlayIcon.tsx -->
<g id="node15" class="node">
<title>component/Dashboard/DashboardHeader/PlayIcon.tsx</title>
<path fill="none" stroke="#c6c5fe" d="M1138.33,-103.44C1138.33,-103.44 791.67,-103.44 791.67,-103.44 787.83,-103.44 784,-99.6 784,-95.77 784,-95.77 784,-88.1 784,-88.1 784,-84.27 787.83,-80.44 791.67,-80.44 791.67,-80.44 1138.33,-80.44 1138.33,-80.44 1142.17,-80.44 1146,-84.27 1146,-88.1 1146,-88.1 1146,-95.77 1146,-95.77 1146,-99.6 1142.17,-103.44 1138.33,-103.44"/>
<text text-anchor="middle" x="965" y="-88.24" font-family="Arial" font-size="14.00" fill="#c6c5fe">component/Dashboard/DashboardHeader/PlayIcon.tsx</text>
</g>
<!-- component/Dashboard/DashboardHeader.tsx&#45;&gt;component/Dashboard/DashboardHeader/PlayIcon.tsx -->
<g id="edge6" class="edge">
<title>component/Dashboard/DashboardHeader.tsx&#45;&gt;component/Dashboard/DashboardHeader/PlayIcon.tsx</title>
<path fill="none" stroke="#757575" d="M606.64,-263.02C637.38,-239.3 710,-185.62 778,-152.94 818.98,-133.24 867.93,-117.47 905.32,-106.9"/>
<polygon fill="#757575" stroke="#757575" points="905.88,-110.38 914.58,-104.33 904.01,-103.63 905.88,-110.38"/>
</g>
<!-- component/Dashboard/DashboardHeader/SelectRealTimeRangeArea.tsx -->
<g id="node16" class="node">
<title>component/Dashboard/DashboardHeader/SelectRealTimeRangeArea.tsx</title>
<path fill="none" stroke="#c6c5fe" d="M1661.33,-307.44C1661.33,-307.44 1195.67,-307.44 1195.67,-307.44 1191.83,-307.44 1188,-303.6 1188,-299.77 1188,-299.77 1188,-292.1 1188,-292.1 1188,-288.27 1191.83,-284.44 1195.67,-284.44 1195.67,-284.44 1661.33,-284.44 1661.33,-284.44 1665.17,-284.44 1669,-288.27 1669,-292.1 1669,-292.1 1669,-299.77 1669,-299.77 1669,-303.6 1665.17,-307.44 1661.33,-307.44"/>
<text text-anchor="middle" x="1428.5" y="-292.24" font-family="Arial" font-size="14.00" fill="#c6c5fe">component/Dashboard/DashboardHeader/SelectRealTimeRangeArea.tsx</text>
</g>
<!-- component/Dashboard/DashboardHeader.tsx&#45;&gt;component/Dashboard/DashboardHeader/SelectRealTimeRangeArea.tsx -->
<g id="edge7" class="edge">
<title>component/Dashboard/DashboardHeader.tsx&#45;&gt;component/Dashboard/DashboardHeader/SelectRealTimeRangeArea.tsx</title>
<path fill="none" stroke="#757575" d="M742.41,-278.73C863.07,-281.76 1034.82,-286.07 1176.17,-289.62"/>
<polygon fill="#757575" stroke="#757575" points="1175.99,-293.12 1186.07,-289.87 1176.16,-286.12 1175.99,-293.12"/>
</g>
<!-- component/Dashboard/DashboardHeader/TimeBlock.tsx -->
<g id="node17" class="node">
<title>component/Dashboard/DashboardHeader/TimeBlock.tsx</title>
<path fill="none" stroke="#c6c5fe" d="M1144.33,-185.44C1144.33,-185.44 785.67,-185.44 785.67,-185.44 781.83,-185.44 778,-181.6 778,-177.77 778,-177.77 778,-170.1 778,-170.1 778,-166.27 781.83,-162.44 785.67,-162.44 785.67,-162.44 1144.33,-162.44 1144.33,-162.44 1148.17,-162.44 1152,-166.27 1152,-170.1 1152,-170.1 1152,-177.77 1152,-177.77 1152,-181.6 1148.17,-185.44 1144.33,-185.44"/>
<text text-anchor="middle" x="965" y="-170.24" font-family="Arial" font-size="14.00" fill="#c6c5fe">component/Dashboard/DashboardHeader/TimeBlock.tsx</text>
</g>
<!-- component/Dashboard/DashboardHeader.tsx&#45;&gt;component/Dashboard/DashboardHeader/TimeBlock.tsx -->
<g id="edge8" class="edge">
<title>component/Dashboard/DashboardHeader.tsx&#45;&gt;component/Dashboard/DashboardHeader/TimeBlock.tsx</title>
<path fill="none" stroke="#757575" d="M635.69,-262.95C703.88,-244.46 834.62,-209.02 908.89,-188.88"/>
<polygon fill="#757575" stroke="#757575" points="909.67,-192.29 918.4,-186.3 907.84,-185.54 909.67,-192.29"/>
</g>
<!-- store/DashboardProvider.tsx -->
<g id="node18" class="node">
<title>store/DashboardProvider.tsx</title>
<path fill="none" stroke="#c6c5fe" d="M2027.33,-266.44C2027.33,-266.44 1845.67,-266.44 1845.67,-266.44 1841.83,-266.44 1838,-262.6 1838,-258.77 1838,-258.77 1838,-251.1 1838,-251.1 1838,-247.27 1841.83,-243.44 1845.67,-243.44 1845.67,-243.44 2027.33,-243.44 2027.33,-243.44 2031.17,-243.44 2035,-247.27 2035,-251.1 2035,-251.1 2035,-258.77 2035,-258.77 2035,-262.6 2031.17,-266.44 2027.33,-266.44"/>
<text text-anchor="middle" x="1936.5" y="-251.24" font-family="Arial" font-size="14.00" fill="#c6c5fe">store/DashboardProvider.tsx</text>
</g>
<!-- component/Dashboard/DashboardHeader.tsx&#45;&gt;store/DashboardProvider.tsx -->
<g id="edge9" class="edge">
<title>component/Dashboard/DashboardHeader.tsx&#45;&gt;store/DashboardProvider.tsx</title>
<path fill="none" stroke="#757575" d="M742.41,-272.69C1015.83,-268.62 1586.95,-260.12 1826.29,-256.56"/>
<polygon fill="#757575" stroke="#757575" points="1826.32,-260.06 1836.26,-256.41 1826.21,-253.06 1826.32,-260.06"/>
</g>
<!-- store/WidgetPropsSettingModalProvider.tsx -->
<g id="node19" class="node">
<title>store/WidgetPropsSettingModalProvider.tsx</title>
<path fill="none" stroke="#c6c5fe" d="M2075.83,-428.44C2075.83,-428.44 1797.17,-428.44 1797.17,-428.44 1793.33,-428.44 1789.5,-424.6 1789.5,-420.77 1789.5,-420.77 1789.5,-413.1 1789.5,-413.1 1789.5,-409.27 1793.33,-405.44 1797.17,-405.44 1797.17,-405.44 2075.83,-405.44 2075.83,-405.44 2079.67,-405.44 2083.5,-409.27 2083.5,-413.1 2083.5,-413.1 2083.5,-420.77 2083.5,-420.77 2083.5,-424.6 2079.67,-428.44 2075.83,-428.44"/>
<text text-anchor="middle" x="1936.5" y="-413.24" font-family="Arial" font-size="14.00" fill="#c6c5fe">store/WidgetPropsSettingModalProvider.tsx</text>
</g>
<!-- component/Dashboard/DashboardHeader.tsx&#45;&gt;store/WidgetPropsSettingModalProvider.tsx -->
<g id="edge10" class="edge">
<title>component/Dashboard/DashboardHeader.tsx&#45;&gt;store/WidgetPropsSettingModalProvider.tsx</title>
<path fill="none" stroke="#757575" d="M675.86,-286.92C707.81,-291.16 744.53,-295.68 778,-298.94 876.75,-308.55 1577.18,-320.35 1669,-357.94 1688.54,-365.93 1685.69,-380.41 1705,-388.94 1727.73,-398.97 1752.87,-405.8 1777.95,-410.38"/>
<polygon fill="#757575" stroke="#757575" points="1777.13,-413.79 1787.58,-412.02 1778.3,-406.89 1777.13,-413.79"/>
</g>
<!-- component/Dashboard/DashboardHeader/PlayIcon.tsx&#45;&gt;asset/image/pause.png -->
<g id="edge18" class="edge">
<title>component/Dashboard/DashboardHeader/PlayIcon.tsx&#45;&gt;asset/image/pause.png</title>
<path fill="none" stroke="#757575" d="M1090.15,-79.95C1122.03,-76.94 1156.28,-73.76 1188,-70.94 1236.36,-66.63 1290.25,-62.1 1334.64,-58.45"/>
<polygon fill="#757575" stroke="#757575" points="1334.82,-61.95 1344.5,-57.64 1334.24,-54.97 1334.82,-61.95"/>
</g>
<!-- component/Dashboard/DashboardHeader/PlayIcon.tsx&#45;&gt;asset/image/play.png -->
<g id="edge19" class="edge">
<title>component/Dashboard/DashboardHeader/PlayIcon.tsx&#45;&gt;asset/image/play.png</title>
<path fill="none" stroke="#757575" d="M1146.41,-91.94C1213.44,-91.94 1286.43,-91.94 1341.23,-91.94"/>
<polygon fill="#757575" stroke="#757575" points="1341.12,-95.44 1351.12,-91.94 1341.12,-88.44 1341.12,-95.44"/>
</g>
<!-- component/Dashboard/DashboardHeader/SelectRealTimeRangeArea.tsx&#45;&gt;hook/useBoolean.tsx -->
<g id="edge22" class="edge">
<title>component/Dashboard/DashboardHeader/SelectRealTimeRangeArea.tsx&#45;&gt;hook/useBoolean.tsx</title>
<path fill="none" stroke="#757575" d="M1623.27,-307.87C1639.09,-312.04 1654.53,-317.32 1669,-323.94 1688.74,-332.97 1685.01,-348.47 1705,-356.94 1757.78,-379.29 2123.79,-390.85 2292.8,-395.05"/>
<polygon fill="#757575" stroke="#757575" points="2292.54,-398.55 2302.62,-395.29 2292.71,-391.55 2292.54,-398.55"/>
</g>
<!-- hook/useOutsideClick.tsx -->
<g id="node26" class="node">
<title>hook/useOutsideClick.tsx</title>
<path fill="none" stroke="#cfffac" d="M2016.83,-225.44C2016.83,-225.44 1856.17,-225.44 1856.17,-225.44 1852.33,-225.44 1848.5,-221.6 1848.5,-217.77 1848.5,-217.77 1848.5,-210.1 1848.5,-210.1 1848.5,-206.27 1852.33,-202.44 1856.17,-202.44 1856.17,-202.44 2016.83,-202.44 2016.83,-202.44 2020.67,-202.44 2024.5,-206.27 2024.5,-210.1 2024.5,-210.1 2024.5,-217.77 2024.5,-217.77 2024.5,-221.6 2020.67,-225.44 2016.83,-225.44"/>
<text text-anchor="middle" x="1936.5" y="-210.24" font-family="Arial" font-size="14.00" fill="#cfffac">hook/useOutsideClick.tsx</text>
</g>
<!-- component/Dashboard/DashboardHeader/SelectRealTimeRangeArea.tsx&#45;&gt;hook/useOutsideClick.tsx -->
<g id="edge23" class="edge">
<title>component/Dashboard/DashboardHeader/SelectRealTimeRangeArea.tsx&#45;&gt;hook/useOutsideClick.tsx</title>
<path fill="none" stroke="#757575" d="M1474,-283.97C1528.18,-269.86 1622.64,-246.72 1705,-233.94 1747.99,-227.26 1795.87,-222.66 1836.8,-219.56"/>
<polygon fill="#757575" stroke="#757575" points="1836.92,-223.06 1846.64,-218.84 1836.41,-216.08 1836.92,-223.06"/>
</g>
<!-- component/Dashboard/DashboardHeader/RealTime.tsx -->
<g id="node27" class="node">
<title>component/Dashboard/DashboardHeader/RealTime.tsx</title>
<path fill="none" stroke="#cfffac" d="M2112.83,-348.44C2112.83,-348.44 1760.17,-348.44 1760.17,-348.44 1756.33,-348.44 1752.5,-344.6 1752.5,-340.77 1752.5,-340.77 1752.5,-333.1 1752.5,-333.1 1752.5,-329.27 1756.33,-325.44 1760.17,-325.44 1760.17,-325.44 2112.83,-325.44 2112.83,-325.44 2116.67,-325.44 2120.5,-329.27 2120.5,-333.1 2120.5,-333.1 2120.5,-340.77 2120.5,-340.77 2120.5,-344.6 2116.67,-348.44 2112.83,-348.44"/>
<text text-anchor="middle" x="1936.5" y="-333.24" font-family="Arial" font-size="14.00" fill="#cfffac">component/Dashboard/DashboardHeader/RealTime.tsx</text>
</g>
<!-- component/Dashboard/DashboardHeader/SelectRealTimeRangeArea.tsx&#45;&gt;component/Dashboard/DashboardHeader/RealTime.tsx -->
<g id="edge20" class="edge">
<title>component/Dashboard/DashboardHeader/SelectRealTimeRangeArea.tsx&#45;&gt;component/Dashboard/DashboardHeader/RealTime.tsx</title>
<path fill="none" stroke="#757575" d="M1577.56,-307.93C1640.01,-312.99 1712.84,-318.89 1776.44,-324.05"/>
<polygon fill="#757575" stroke="#757575" points="1776.03,-327.53 1786.28,-324.84 1776.6,-320.55 1776.03,-327.53"/>
</g>
<!-- component/Dashboard/DashboardHeader/SelectRealTimeListItem.tsx -->
<g id="node28" class="node">
<title>component/Dashboard/DashboardHeader/SelectRealTimeListItem.tsx</title>
<path fill="none" stroke="#cfffac" d="M2158.83,-307.44C2158.83,-307.44 1714.17,-307.44 1714.17,-307.44 1710.33,-307.44 1706.5,-303.6 1706.5,-299.77 1706.5,-299.77 1706.5,-292.1 1706.5,-292.1 1706.5,-288.27 1710.33,-284.44 1714.17,-284.44 1714.17,-284.44 2158.83,-284.44 2158.83,-284.44 2162.67,-284.44 2166.5,-288.27 2166.5,-292.1 2166.5,-292.1 2166.5,-299.77 2166.5,-299.77 2166.5,-303.6 2162.67,-307.44 2158.83,-307.44"/>
<text text-anchor="middle" x="1936.5" y="-292.24" font-family="Arial" font-size="14.00" fill="#cfffac">component/Dashboard/DashboardHeader/SelectRealTimeListItem.tsx</text>
</g>
<!-- component/Dashboard/DashboardHeader/SelectRealTimeRangeArea.tsx&#45;&gt;component/Dashboard/DashboardHeader/SelectRealTimeListItem.tsx -->
<g id="edge21" class="edge">
<title>component/Dashboard/DashboardHeader/SelectRealTimeRangeArea.tsx&#45;&gt;component/Dashboard/DashboardHeader/SelectRealTimeListItem.tsx</title>
<path fill="none" stroke="#757575" d="M1669.16,-295.94C1677.78,-295.94 1686.41,-295.94 1695.03,-295.94"/>
<polygon fill="#757575" stroke="#757575" points="1694.83,-299.44 1704.83,-295.94 1694.83,-292.44 1694.83,-299.44"/>
</g>
<!-- component/Dashboard/DashboardHeader/CurrentTime.tsx -->
<g id="node20" class="node">
<title>component/Dashboard/DashboardHeader/CurrentTime.tsx</title>
<path fill="none" stroke="#c6c5fe" d="M1613.83,-144.44C1613.83,-144.44 1243.17,-144.44 1243.17,-144.44 1239.33,-144.44 1235.5,-140.6 1235.5,-136.77 1235.5,-136.77 1235.5,-129.1 1235.5,-129.1 1235.5,-125.27 1239.33,-121.44 1243.17,-121.44 1243.17,-121.44 1613.83,-121.44 1613.83,-121.44 1617.67,-121.44 1621.5,-125.27 1621.5,-129.1 1621.5,-129.1 1621.5,-136.77 1621.5,-136.77 1621.5,-140.6 1617.67,-144.44 1613.83,-144.44"/>
<text text-anchor="middle" x="1428.5" y="-129.24" font-family="Arial" font-size="14.00" fill="#c6c5fe">component/Dashboard/DashboardHeader/CurrentTime.tsx</text>
</g>
<!-- component/Dashboard/DashboardHeader/TimeBlock.tsx&#45;&gt;component/Dashboard/DashboardHeader/CurrentTime.tsx -->
<g id="edge24" class="edge">
<title>component/Dashboard/DashboardHeader/TimeBlock.tsx&#45;&gt;component/Dashboard/DashboardHeader/CurrentTime.tsx</title>
<path fill="none" stroke="#757575" d="M1090.15,-161.95C1122.03,-158.94 1156.28,-155.76 1188,-152.94 1214.39,-150.59 1242.43,-148.17 1269.66,-145.87"/>
<polygon fill="#757575" stroke="#757575" points="1269.69,-149.38 1279.36,-145.05 1269.1,-142.4 1269.69,-149.38"/>
</g>
<!-- component/Dashboard/DashboardHeader/DatePickerArea.tsx -->
<g id="node23" class="node">
<title>component/Dashboard/DashboardHeader/DatePickerArea.tsx</title>
<path fill="none" stroke="#c6c5fe" d="M1624.33,-185.44C1624.33,-185.44 1232.67,-185.44 1232.67,-185.44 1228.83,-185.44 1225,-181.6 1225,-177.77 1225,-177.77 1225,-170.1 1225,-170.1 1225,-166.27 1228.83,-162.44 1232.67,-162.44 1232.67,-162.44 1624.33,-162.44 1624.33,-162.44 1628.17,-162.44 1632,-166.27 1632,-170.1 1632,-170.1 1632,-177.77 1632,-177.77 1632,-181.6 1628.17,-185.44 1624.33,-185.44"/>
<text text-anchor="middle" x="1428.5" y="-170.24" font-family="Arial" font-size="14.00" fill="#c6c5fe">component/Dashboard/DashboardHeader/DatePickerArea.tsx</text>
</g>
<!-- component/Dashboard/DashboardHeader/TimeBlock.tsx&#45;&gt;component/Dashboard/DashboardHeader/DatePickerArea.tsx -->
<g id="edge25" class="edge">
<title>component/Dashboard/DashboardHeader/TimeBlock.tsx&#45;&gt;component/Dashboard/DashboardHeader/DatePickerArea.tsx</title>
<path fill="none" stroke="#757575" d="M1152.38,-173.94C1172.43,-173.94 1192.95,-173.94 1213.29,-173.94"/>
<polygon fill="#757575" stroke="#757575" points="1213.06,-177.44 1223.06,-173.94 1213.06,-170.44 1213.06,-177.44"/>
</g>
<!-- store/DashboardProvider.tsx&#45;&gt;common/date.ts -->
<g id="edge71" class="edge">
<title>store/DashboardProvider.tsx&#45;&gt;common/date.ts</title>
<path fill="none" stroke="#757575" d="M2035.26,-254.94C2117.79,-254.94 2233.95,-254.94 2307.6,-254.94"/>
<polygon fill="#757575" stroke="#757575" points="2307.53,-258.44 2317.53,-254.94 2307.53,-251.44 2307.53,-258.44"/>
</g>
<!-- store/WidgetPropsSettingModalProvider.tsx&#45;&gt;hook/useBoolean.tsx -->
<g id="edge72" class="edge">
<title>store/WidgetPropsSettingModalProvider.tsx&#45;&gt;hook/useBoolean.tsx</title>
<path fill="none" stroke="#757575" d="M2083.87,-410.29C2153.26,-407.14 2233.71,-403.49 2292.91,-400.8"/>
<polygon fill="#757575" stroke="#757575" points="2292.74,-404.31 2302.57,-400.36 2292.42,-397.32 2292.74,-404.31"/>
</g>
<!-- hook/useCurrentTime.tsx -->
<g id="node21" class="node">
<title>hook/useCurrentTime.tsx</title>
<path fill="none" stroke="#cfffac" d="M2016.33,-24.44C2016.33,-24.44 1856.67,-24.44 1856.67,-24.44 1852.83,-24.44 1849,-20.6 1849,-16.77 1849,-16.77 1849,-9.1 1849,-9.1 1849,-5.27 1852.83,-1.44 1856.67,-1.44 1856.67,-1.44 2016.33,-1.44 2016.33,-1.44 2020.17,-1.44 2024,-5.27 2024,-9.1 2024,-9.1 2024,-16.77 2024,-16.77 2024,-20.6 2020.17,-24.44 2016.33,-24.44"/>
<text text-anchor="middle" x="1936.5" y="-9.24" font-family="Arial" font-size="14.00" fill="#cfffac">hook/useCurrentTime.tsx</text>
</g>
<!-- component/Dashboard/DashboardHeader/CurrentTime.tsx&#45;&gt;hook/useCurrentTime.tsx -->
<g id="edge11" class="edge">
<title>component/Dashboard/DashboardHeader/CurrentTime.tsx&#45;&gt;hook/useCurrentTime.tsx</title>
<path fill="none" stroke="#757575" d="M1506.09,-144.92C1556.76,-148.65 1622.22,-145 1669,-111.94 1700.51,-89.66 1673.48,-55.19 1705,-32.94 1744.93,-4.74 1798.98,1.17 1844.7,-0.39"/>
<polygon fill="#757575" stroke="#757575" points="1844.47,-3.88 1854.62,-0.87 1844.8,3.11 1844.47,-3.88"/>
</g>
<!-- component/Dashboard/DashboardHeader/DateBox.tsx -->
<g id="node22" class="node">
<title>component/Dashboard/DashboardHeader/DateBox.tsx</title>
<path fill="none" stroke="#cfffac" d="M2109.83,-145.44C2109.83,-145.44 1763.17,-145.44 1763.17,-145.44 1759.33,-145.44 1755.5,-141.6 1755.5,-137.77 1755.5,-137.77 1755.5,-130.1 1755.5,-130.1 1755.5,-126.27 1759.33,-122.44 1763.17,-122.44 1763.17,-122.44 2109.83,-122.44 2109.83,-122.44 2113.67,-122.44 2117.5,-126.27 2117.5,-130.1 2117.5,-130.1 2117.5,-137.77 2117.5,-137.77 2117.5,-141.6 2113.67,-145.44 2109.83,-145.44"/>
<text text-anchor="middle" x="1936.5" y="-130.24" font-family="Arial" font-size="14.00" fill="#cfffac">component/Dashboard/DashboardHeader/DateBox.tsx</text>
</g>
<!-- component/Dashboard/DashboardHeader/DatePickerArea.tsx&#45;&gt;common/date.ts -->
<g id="edge12" class="edge">
<title>component/Dashboard/DashboardHeader/DatePickerArea.tsx&#45;&gt;common/date.ts</title>
<path fill="none" stroke="#757575" d="M1632.48,-167.17C1645.14,-163.4 1657.42,-158.71 1669,-152.94 1690.4,-142.26 1683.15,-122.67 1705,-112.94 1798.99,-71.08 2069.62,-82.8 2168,-112.94 2247.14,-137.18 2323.33,-202.44 2358.2,-235.36"/>
<polygon fill="#757575" stroke="#757575" points="2355.42,-237.55 2365.06,-241.95 2360.27,-232.5 2355.42,-237.55"/>
</g>
<!-- component/Dashboard/DashboardHeader/DatePickerArea.tsx&#45;&gt;store/DashboardProvider.tsx -->
<g id="edge17" class="edge">
<title>component/Dashboard/DashboardHeader/DatePickerArea.tsx&#45;&gt;store/DashboardProvider.tsx</title>
<path fill="none" stroke="#757575" d="M1475.97,-185.9C1530.47,-199.5 1623.72,-221.43 1705,-233.94 1744.4,-240 1787.88,-244.51 1826.36,-247.77"/>
<polygon fill="#757575" stroke="#757575" points="1825.84,-251.24 1836.09,-248.58 1826.41,-244.27 1825.84,-251.24"/>
</g>
<!-- component/Dashboard/DashboardHeader/DatePickerArea.tsx&#45;&gt;component/Dashboard/DashboardHeader/DateBox.tsx -->
<g id="edge13" class="edge">
<title>component/Dashboard/DashboardHeader/DatePickerArea.tsx&#45;&gt;component/Dashboard/DashboardHeader/DateBox.tsx</title>
<path fill="none" stroke="#757575" d="M1580.97,-161.96C1641.41,-157.18 1711.12,-151.67 1772.64,-146.81"/>
<polygon fill="#757575" stroke="#757575" points="1772.83,-150.31 1782.52,-146.03 1772.28,-143.33 1772.83,-150.31"/>
</g>
<!-- component/common/DatePicker.tsx -->
<g id="node24" class="node">
<title>component/common/DatePicker.tsx</title>
<path fill="none" stroke="#c6c5fe" d="M2049.83,-65.44C2049.83,-65.44 1823.17,-65.44 1823.17,-65.44 1819.33,-65.44 1815.5,-61.6 1815.5,-57.77 1815.5,-57.77 1815.5,-50.1 1815.5,-50.1 1815.5,-46.27 1819.33,-42.44 1823.17,-42.44 1823.17,-42.44 2049.83,-42.44 2049.83,-42.44 2053.67,-42.44 2057.5,-46.27 2057.5,-50.1 2057.5,-50.1 2057.5,-57.77 2057.5,-57.77 2057.5,-61.6 2053.67,-65.44 2049.83,-65.44"/>
<text text-anchor="middle" x="1936.5" y="-50.24" font-family="Arial" font-size="14.00" fill="#c6c5fe">component/common/DatePicker.tsx</text>
</g>
<!-- component/Dashboard/DashboardHeader/DatePickerArea.tsx&#45;&gt;component/common/DatePicker.tsx -->
<g id="edge14" class="edge">
<title>component/Dashboard/DashboardHeader/DatePickerArea.tsx&#45;&gt;component/common/DatePicker.tsx</title>
<path fill="none" stroke="#757575" d="M1513.61,-185.93C1562.92,-188.53 1624.13,-183.64 1669,-152.94 1698.86,-132.51 1675.4,-100.73 1705,-79.94 1733.54,-59.88 1769.16,-50.42 1803.8,-46.68"/>
<polygon fill="#757575" stroke="#757575" points="1803.85,-50.19 1813.49,-45.8 1803.22,-43.22 1803.85,-50.19"/>
</g>
<!-- component/Dashboard/DashboardHeader/DatePickerArea.tsx&#45;&gt;hook/useBoolean.tsx -->
<g id="edge15" class="edge">
<title>component/Dashboard/DashboardHeader/DatePickerArea.tsx&#45;&gt;hook/useBoolean.tsx</title>
<path fill="none" stroke="#757575" d="M1632.5,-168.13C1835.76,-164.06 2124.51,-163.73 2168,-192.94 2201.04,-215.13 2178.77,-244.15 2204,-274.94 2242.85,-322.35 2304.57,-359.61 2343.1,-379.92"/>
<polygon fill="#757575" stroke="#757575" points="2341.01,-382.78 2351.5,-384.26 2344.22,-376.56 2341.01,-382.78"/>
</g>
<!-- component/Dashboard/DashboardHeader/DatePickerArea.tsx&#45;&gt;hook/useOutsideClick.tsx -->
<g id="edge16" class="edge">
<title>component/Dashboard/DashboardHeader/DatePickerArea.tsx&#45;&gt;hook/useOutsideClick.tsx</title>
<path fill="none" stroke="#757575" d="M1580.97,-185.91C1663.75,-192.45 1763.9,-200.37 1836.62,-206.12"/>
<polygon fill="#757575" stroke="#757575" points="1836.29,-209.6 1846.54,-206.9 1836.85,-202.63 1836.29,-209.6"/>
</g>
<!-- component/common/DatePicker/DatePickerTitle.tsx -->
<g id="node45" class="node">
<title>component/common/DatePicker/DatePickerTitle.tsx</title>
<path fill="none" stroke="#c6c5fe" d="M2542.83,-65.44C2542.83,-65.44 2215.17,-65.44 2215.17,-65.44 2211.33,-65.44 2207.5,-61.6 2207.5,-57.77 2207.5,-57.77 2207.5,-50.1 2207.5,-50.1 2207.5,-46.27 2211.33,-42.44 2215.17,-42.44 2215.17,-42.44 2542.83,-42.44 2542.83,-42.44 2546.67,-42.44 2550.5,-46.27 2550.5,-50.1 2550.5,-50.1 2550.5,-57.77 2550.5,-57.77 2550.5,-61.6 2546.67,-65.44 2542.83,-65.44"/>
<text text-anchor="middle" x="2379" y="-50.24" font-family="Arial" font-size="14.00" fill="#c6c5fe">component/common/DatePicker/DatePickerTitle.tsx</text>
</g>
<!-- component/common/DatePicker.tsx&#45;&gt;component/common/DatePicker/DatePickerTitle.tsx -->
<g id="edge55" class="edge">
<title>component/common/DatePicker.tsx&#45;&gt;component/common/DatePicker/DatePickerTitle.tsx</title>
<path fill="none" stroke="#757575" d="M2057.87,-53.94C2100.35,-53.94 2149.11,-53.94 2195.56,-53.94"/>
<polygon fill="#757575" stroke="#757575" points="2195.49,-57.44 2205.49,-53.94 2195.49,-50.44 2195.49,-57.44"/>
</g>
<!-- component/common/DatePicker/ListPicker.tsx -->
<g id="node46" class="node">
<title>component/common/DatePicker/ListPicker.tsx</title>
<path fill="none" stroke="#c6c5fe" d="M2525.33,-106.44C2525.33,-106.44 2232.67,-106.44 2232.67,-106.44 2228.83,-106.44 2225,-102.6 2225,-98.77 2225,-98.77 2225,-91.1 2225,-91.1 2225,-87.27 2228.83,-83.44 2232.67,-83.44 2232.67,-83.44 2525.33,-83.44 2525.33,-83.44 2529.17,-83.44 2533,-87.27 2533,-91.1 2533,-91.1 2533,-98.77 2533,-98.77 2533,-102.6 2529.17,-106.44 2525.33,-106.44"/>
<text text-anchor="middle" x="2379" y="-91.24" font-family="Arial" font-size="14.00" fill="#c6c5fe">component/common/DatePicker/ListPicker.tsx</text>
</g>
<!-- component/common/DatePicker.tsx&#45;&gt;component/common/DatePicker/ListPicker.tsx -->
<g id="edge56" class="edge">
<title>component/common/DatePicker.tsx&#45;&gt;component/common/DatePicker/ListPicker.tsx</title>
<path fill="none" stroke="#757575" d="M2057.87,-65.14C2113.51,-70.32 2179.95,-76.5 2237.84,-81.89"/>
<polygon fill="#757575" stroke="#757575" points="2237.51,-85.37 2247.79,-82.82 2238.15,-78.4 2237.51,-85.37"/>
</g>
<!-- types/common.d.ts -->
<g id="node47" class="node">
<title>types/common.d.ts</title>
<path fill="none" stroke="#cfffac" d="M2819.33,-65.44C2819.33,-65.44 2697.67,-65.44 2697.67,-65.44 2693.83,-65.44 2690,-61.6 2690,-57.77 2690,-57.77 2690,-50.1 2690,-50.1 2690,-46.27 2693.83,-42.44 2697.67,-42.44 2697.67,-42.44 2819.33,-42.44 2819.33,-42.44 2823.17,-42.44 2827,-46.27 2827,-50.1 2827,-50.1 2827,-57.77 2827,-57.77 2827,-61.6 2823.17,-65.44 2819.33,-65.44"/>
<text text-anchor="middle" x="2758.5" y="-50.24" font-family="Arial" font-size="14.00" fill="#cfffac">types/common.d.ts</text>
</g>
<!-- component/common/DatePicker.tsx&#45;&gt;types/common.d.ts -->
<g id="edge57" class="edge">
<title>component/common/DatePicker.tsx&#45;&gt;types/common.d.ts</title>
<path fill="none" stroke="#757575" d="M2057.77,-42.44C2103.51,-38.6 2156.12,-34.82 2204,-32.94 2359.44,-26.82 2398.65,-24.94 2554,-32.94 2595.15,-35.05 2640.79,-39.56 2678.4,-43.86"/>
<polygon fill="#757575" stroke="#757575" points="2677.96,-47.34 2688.3,-45.01 2678.77,-40.38 2677.96,-47.34"/>
</g>
<!-- component/Widget/WidgetButtons.tsx&#45;&gt;store/WidgetProvider.tsx -->
<g id="edge32" class="edge">
<title>component/Widget/WidgetButtons.tsx&#45;&gt;store/WidgetProvider.tsx</title>
<path fill="none" stroke="#757575" d="M1557.28,-578.28C1594.63,-574.7 1634.63,-566.8 1669,-550.94 1688.98,-541.71 1684.92,-525.94 1705,-516.94 1746.21,-498.45 1795.68,-492.34 1838.22,-491.31"/>
<polygon fill="#757575" stroke="#757575" points="1838.26,-494.81 1848.21,-491.17 1838.17,-487.81 1838.26,-494.81"/>
</g>
<!-- component/Widget/WidgetButtons.tsx&#45;&gt;store/WidgetPropsSettingModalProvider.tsx -->
<g id="edge31" class="edge">
<title>component/Widget/WidgetButtons.tsx&#45;&gt;store/WidgetPropsSettingModalProvider.tsx</title>
<path fill="none" stroke="#757575" d="M1533.28,-564.96C1577.51,-556.42 1628.2,-541.83 1669,-516.94 1689.7,-504.3 1684.33,-488.62 1705,-475.94 1741.12,-453.77 1785.32,-439.89 1825.31,-431.22"/>
<polygon fill="#757575" stroke="#757575" points="1825.9,-434.67 1834.99,-429.22 1824.48,-427.82 1825.9,-434.67"/>
</g>
<!-- component/Widget/WidgetCallCycleSettingModal.tsx&#45;&gt;common/widget.ts -->
<g id="edge33" class="edge">
<title>component/Widget/WidgetCallCycleSettingModal.tsx&#45;&gt;common/widget.ts</title>
<path fill="none" stroke="#757575" d="M1604.35,-618.63C1691.16,-618.97 1791.59,-619.37 1858.89,-619.63"/>
<polygon fill="#757575" stroke="#757575" points="1858.7,-623.13 1868.71,-619.67 1858.72,-616.13 1858.7,-623.13"/>
</g>
<!-- component/Widget/WidgetCallCycleSettingModal/CycleInput.tsx -->
<g id="node33" class="node">
<title>component/Widget/WidgetCallCycleSettingModal/CycleInput.tsx</title>
<path fill="none" stroke="#cfffac" d="M2139.83,-590.44C2139.83,-590.44 1733.17,-590.44 1733.17,-590.44 1729.33,-590.44 1725.5,-586.6 1725.5,-582.77 1725.5,-582.77 1725.5,-575.1 1725.5,-575.1 1725.5,-571.27 1729.33,-567.44 1733.17,-567.44 1733.17,-567.44 2139.83,-567.44 2139.83,-567.44 2143.67,-567.44 2147.5,-571.27 2147.5,-575.1 2147.5,-575.1 2147.5,-582.77 2147.5,-582.77 2147.5,-586.6 2143.67,-590.44 2139.83,-590.44"/>
<text text-anchor="middle" x="1936.5" y="-575.24" font-family="Arial" font-size="14.00" fill="#cfffac">component/Widget/WidgetCallCycleSettingModal/CycleInput.tsx</text>
</g>
<!-- component/Widget/WidgetCallCycleSettingModal.tsx&#45;&gt;component/Widget/WidgetCallCycleSettingModal/CycleInput.tsx -->
<g id="edge34" class="edge">
<title>component/Widget/WidgetCallCycleSettingModal.tsx&#45;&gt;component/Widget/WidgetCallCycleSettingModal/CycleInput.tsx</title>
<path fill="none" stroke="#757575" d="M1585.1,-605.94C1643.22,-601.46 1709.43,-596.36 1768.53,-591.8"/>
<polygon fill="#757575" stroke="#757575" points="1768.66,-595.31 1778.36,-591.05 1768.12,-588.33 1768.66,-595.31"/>
</g>
<!-- component/Widget/WidgetCallCycleSettingModal/LastCallTimeBox.tsx -->
<g id="node34" class="node">
<title>component/Widget/WidgetCallCycleSettingModal/LastCallTimeBox.tsx</title>
<path fill="none" stroke="#cfffac" d="M2160.33,-549.44C2160.33,-549.44 1712.67,-549.44 1712.67,-549.44 1708.83,-549.44 1705,-545.6 1705,-541.77 1705,-541.77 1705,-534.1 1705,-534.1 1705,-530.27 1708.83,-526.44 1712.67,-526.44 1712.67,-526.44 2160.33,-526.44 2160.33,-526.44 2164.17,-526.44 2168,-530.27 2168,-534.1 2168,-534.1 2168,-541.77 2168,-541.77 2168,-545.6 2164.17,-549.44 2160.33,-549.44"/>
<text text-anchor="middle" x="1936.5" y="-534.24" font-family="Arial" font-size="14.00" fill="#cfffac">component/Widget/WidgetCallCycleSettingModal/LastCallTimeBox.tsx</text>
</g>
<!-- component/Widget/WidgetCallCycleSettingModal.tsx&#45;&gt;component/Widget/WidgetCallCycleSettingModal/LastCallTimeBox.tsx -->
<g id="edge35" class="edge">
<title>component/Widget/WidgetCallCycleSettingModal.tsx&#45;&gt;component/Widget/WidgetCallCycleSettingModal/LastCallTimeBox.tsx</title>
<path fill="none" stroke="#757575" d="M1604.37,-617.78C1626.83,-613.42 1648.96,-606.78 1669,-596.94 1690.17,-586.54 1683.82,-568.32 1705,-557.94 1707.64,-556.64 1710.32,-555.4 1713.04,-554.22"/>
<polygon fill="#757575" stroke="#757575" points="1714.3,-557.49 1722.26,-550.49 1711.67,-550.99 1714.3,-557.49"/>
</g>
<!-- component/chart/BarChart.tsx -->
<g id="node35" class="node">
<title>component/chart/BarChart.tsx</title>
<path fill="none" stroke="#c6c5fe" d="M2030.33,-851.44C2030.33,-851.44 1842.67,-851.44 1842.67,-851.44 1838.83,-851.44 1835,-847.6 1835,-843.77 1835,-843.77 1835,-836.1 1835,-836.1 1835,-832.27 1838.83,-828.44 1842.67,-828.44 1842.67,-828.44 2030.33,-828.44 2030.33,-828.44 2034.17,-828.44 2038,-832.27 2038,-836.1 2038,-836.1 2038,-843.77 2038,-843.77 2038,-847.6 2034.17,-851.44 2030.33,-851.44"/>
<text text-anchor="middle" x="1936.5" y="-836.24" font-family="Arial" font-size="14.00" fill="#c6c5fe">component/chart/BarChart.tsx</text>
</g>
<!-- component/Widget/WidgetChart.tsx&#45;&gt;component/chart/BarChart.tsx -->
<g id="edge36" class="edge">
<title>component/Widget/WidgetChart.tsx&#45;&gt;component/chart/BarChart.tsx</title>
<path fill="none" stroke="#757575" d="M1549.74,-823.93C1632.78,-827.37 1742.46,-831.92 1823.63,-835.29"/>
<polygon fill="#757575" stroke="#757575" points="1823.25,-838.78 1833.38,-835.7 1823.54,-831.79 1823.25,-838.78"/>
</g>
<!-- component/chart/InformaticsChart.tsx -->
<g id="node36" class="node">
<title>component/chart/InformaticsChart.tsx</title>
<path fill="none" stroke="#c6c5fe" d="M2054.83,-949.44C2054.83,-949.44 1818.17,-949.44 1818.17,-949.44 1814.33,-949.44 1810.5,-945.6 1810.5,-941.77 1810.5,-941.77 1810.5,-934.1 1810.5,-934.1 1810.5,-930.27 1814.33,-926.44 1818.17,-926.44 1818.17,-926.44 2054.83,-926.44 2054.83,-926.44 2058.67,-926.44 2062.5,-930.27 2062.5,-934.1 2062.5,-934.1 2062.5,-941.77 2062.5,-941.77 2062.5,-945.6 2058.67,-949.44 2054.83,-949.44"/>
<text text-anchor="middle" x="1936.5" y="-934.24" font-family="Arial" font-size="14.00" fill="#c6c5fe">component/chart/InformaticsChart.tsx</text>
</g>
<!-- component/Widget/WidgetChart.tsx&#45;&gt;component/chart/InformaticsChart.tsx -->
<g id="edge37" class="edge">
<title>component/Widget/WidgetChart.tsx&#45;&gt;component/chart/InformaticsChart.tsx</title>
<path fill="none" stroke="#757575" d="M1480.33,-830.89C1573.82,-852.88 1772.68,-899.64 1873.76,-923.41"/>
<polygon fill="#757575" stroke="#757575" points="1872.69,-926.76 1883.23,-925.64 1874.29,-919.95 1872.69,-926.76"/>
</g>
<!-- component/chart/LineChart.tsx -->
<g id="node37" class="node">
<title>component/chart/LineChart.tsx</title>
<path fill="none" stroke="#c6c5fe" d="M2033.33,-810.44C2033.33,-810.44 1839.67,-810.44 1839.67,-810.44 1835.83,-810.44 1832,-806.6 1832,-802.77 1832,-802.77 1832,-795.1 1832,-795.1 1832,-791.27 1835.83,-787.44 1839.67,-787.44 1839.67,-787.44 2033.33,-787.44 2033.33,-787.44 2037.17,-787.44 2041,-791.27 2041,-795.1 2041,-795.1 2041,-802.77 2041,-802.77 2041,-806.6 2037.17,-810.44 2033.33,-810.44"/>
<text text-anchor="middle" x="1936.5" y="-795.24" font-family="Arial" font-size="14.00" fill="#c6c5fe">component/chart/LineChart.tsx</text>
</g>
<!-- component/Widget/WidgetChart.tsx&#45;&gt;component/chart/LineChart.tsx -->
<g id="edge38" class="edge">
<title>component/Widget/WidgetChart.tsx&#45;&gt;component/chart/LineChart.tsx</title>
<path fill="none" stroke="#757575" d="M1549.74,-814.18C1631.67,-810.94 1739.52,-806.68 1820.35,-803.49"/>
<polygon fill="#757575" stroke="#757575" points="1820.2,-807 1830.05,-803.1 1819.92,-800 1820.2,-807"/>
</g>
<!-- hook/Widget/useHandleWidgetApi.tsx&#45;&gt;common/api.ts -->
<g id="edge61" class="edge">
<title>hook/Widget/useHandleWidgetApi.tsx&#45;&gt;common/api.ts</title>
<path fill="none" stroke="#757575" d="M1528.82,-671.9C1572.24,-678.21 1623.53,-687.13 1669,-698.94 1685.47,-703.21 1688.43,-708.07 1705,-711.94 1759.77,-724.73 1823.39,-731.3 1869.89,-734.63"/>
<polygon fill="#757575" stroke="#757575" points="1869.61,-738.12 1879.82,-735.31 1870.08,-731.14 1869.61,-738.12"/>
</g>
<!-- hook/Widget/useHandleWidgetApi.tsx&#45;&gt;types/api.d.ts -->
<g id="edge65" class="edge">
<title>hook/Widget/useHandleWidgetApi.tsx&#45;&gt;types/api.d.ts</title>
<path fill="none" stroke="#757575" d="M1557.39,-666.84C1603.86,-669.24 1656.79,-671.85 1705,-673.94 1930.52,-683.69 2198.67,-692.38 2316.87,-696.07"/>
<polygon fill="#757575" stroke="#757575" points="2316.56,-699.56 2326.66,-696.37 2316.78,-692.56 2316.56,-699.56"/>
</g>
<!-- hook/Widget/useHandleWidgetApi.tsx&#45;&gt;common/date.ts -->
<g id="edge62" class="edge">
<title>hook/Widget/useHandleWidgetApi.tsx&#45;&gt;common/date.ts</title>
<path fill="none" stroke="#757575" d="M1557.41,-665.29C1756.85,-672.33 2123.78,-679.6 2168,-639.94 2256.15,-560.86 2142.17,-476.93 2204,-375.94 2235.04,-325.24 2296.2,-290.34 2337.11,-271.49"/>
<polygon fill="#757575" stroke="#757575" points="2338.47,-274.71 2346.17,-267.44 2335.61,-268.32 2338.47,-274.71"/>
</g>
<!-- hook/Widget/useHandleWidgetApi.tsx&#45;&gt;common/widget.ts -->
<g id="edge63" class="edge">
<title>hook/Widget/useHandleWidgetApi.tsx&#45;&gt;common/widget.ts</title>
<path fill="none" stroke="#757575" d="M1557.19,-649.84C1652.2,-642.33 1778.76,-632.33 1858.7,-626.01"/>
<polygon fill="#757575" stroke="#757575" points="1858.95,-629.5 1868.64,-625.22 1858.4,-622.52 1858.95,-629.5"/>
</g>
<!-- hook/Widget/useHandleWidgetApi.tsx&#45;&gt;store/DashboardProvider.tsx -->
<g id="edge64" class="edge">
<title>hook/Widget/useHandleWidgetApi.tsx&#45;&gt;store/DashboardProvider.tsx</title>
<path fill="none" stroke="#757575" d="M1479.74,-671.88C1534.23,-681.55 1619.96,-686.62 1669,-637.94 1726.53,-580.82 1647.33,-331.9 1705,-274.94 1748.8,-231.68 1822.76,-233.04 1875.08,-241.11"/>
<polygon fill="#757575" stroke="#757575" points="1874.29,-244.53 1884.73,-242.73 1875.45,-237.62 1874.29,-244.53"/>
</g>
<!-- component/chart/BarChart.tsx&#45;&gt;common/chart.ts -->
<g id="edge44" class="edge">
<title>component/chart/BarChart.tsx&#45;&gt;common/chart.ts</title>
<path fill="none" stroke="#757575" d="M2038.28,-844.51C2120.13,-848.23 2233.53,-853.38 2306.33,-856.68"/>
<polygon fill="#757575" stroke="#757575" points="2306,-860.17 2316.15,-857.13 2306.32,-853.18 2306,-860.17"/>
</g>
<!-- component/chart/BarChart.tsx&#45;&gt;types/chart.d.ts -->
<g id="edge47" class="edge">
<title>component/chart/BarChart.tsx&#45;&gt;types/chart.d.ts</title>
<path fill="none" stroke="#757575" d="M2001.32,-851.93C2055.14,-861.52 2134.32,-874.4 2204,-880.94 2378.85,-897.33 2585.96,-900 2690.29,-900.19"/>
<polygon fill="#757575" stroke="#757575" points="2690.06,-903.69 2700.07,-900.2 2690.07,-896.69 2690.06,-903.69"/>
</g>
<!-- component/chart/ChartSvg.tsx -->
<g id="node42" class="node">
<title>component/chart/ChartSvg.tsx</title>
<path fill="none" stroke="#cfffac" d="M2474.33,-830.44C2474.33,-830.44 2283.67,-830.44 2283.67,-830.44 2279.83,-830.44 2276,-826.6 2276,-822.77 2276,-822.77 2276,-815.1 2276,-815.1 2276,-811.27 2279.83,-807.44 2283.67,-807.44 2283.67,-807.44 2474.33,-807.44 2474.33,-807.44 2478.17,-807.44 2482,-811.27 2482,-815.1 2482,-815.1 2482,-822.77 2482,-822.77 2482,-826.6 2478.17,-830.44 2474.33,-830.44"/>
<text text-anchor="middle" x="2379" y="-815.24" font-family="Arial" font-size="14.00" fill="#cfffac">component/chart/ChartSvg.tsx</text>
</g>
<!-- component/chart/BarChart.tsx&#45;&gt;component/chart/ChartSvg.tsx -->
<g id="edge45" class="edge">
<title>component/chart/BarChart.tsx&#45;&gt;component/chart/ChartSvg.tsx</title>
<path fill="none" stroke="#757575" d="M2038.28,-835.13C2105.64,-831.92 2194.38,-827.69 2264.27,-824.36"/>
<polygon fill="#757575" stroke="#757575" points="2264.43,-827.85 2274.25,-823.88 2264.09,-820.86 2264.43,-827.85"/>
</g>
<!-- hook/useResize.tsx -->
<g id="node43" class="node">
<title>hook/useResize.tsx</title>
<path fill="none" stroke="#cfffac" d="M2441.33,-789.44C2441.33,-789.44 2316.67,-789.44 2316.67,-789.44 2312.83,-789.44 2309,-785.6 2309,-781.77 2309,-781.77 2309,-774.1 2309,-774.1 2309,-770.27 2312.83,-766.44 2316.67,-766.44 2316.67,-766.44 2441.33,-766.44 2441.33,-766.44 2445.17,-766.44 2449,-770.27 2449,-774.1 2449,-774.1 2449,-781.77 2449,-781.77 2449,-785.6 2445.17,-789.44 2441.33,-789.44"/>
<text text-anchor="middle" x="2379" y="-774.24" font-family="Arial" font-size="14.00" fill="#cfffac">hook/useResize.tsx</text>
</g>
<!-- component/chart/BarChart.tsx&#45;&gt;hook/useResize.tsx -->
<g id="edge46" class="edge">
<title>component/chart/BarChart.tsx&#45;&gt;hook/useResize.tsx</title>
<path fill="none" stroke="#757575" d="M2038.22,-841.19C2079.32,-839.16 2126.79,-833.48 2168,-819.94 2185.81,-814.08 2186.27,-804.04 2204,-797.94 2233.57,-787.76 2267.47,-782.53 2297.45,-779.92"/>
<polygon fill="#757575" stroke="#757575" points="2297.52,-783.42 2307.22,-779.16 2296.98,-776.44 2297.52,-783.42"/>
</g>
<!-- component/chart/InformaticsChart.tsx&#45;&gt;types/chart.d.ts -->
<g id="edge49" class="edge">
<title>component/chart/InformaticsChart.tsx&#45;&gt;types/chart.d.ts</title>
<path fill="none" stroke="#757575" d="M2062.71,-934.15C2187.31,-930.13 2383.94,-923.09 2554,-913.94 2599.54,-911.48 2650.76,-907.96 2690.43,-905.05"/>
<polygon fill="#757575" stroke="#757575" points="2690.59,-908.55 2700.31,-904.33 2690.08,-901.57 2690.59,-908.55"/>
</g>
<!-- component/chart/InformaticsChart/InforMaticsBox.tsx -->
<g id="node44" class="node">
<title>component/chart/InformaticsChart/InforMaticsBox.tsx</title>
<path fill="none" stroke="#c6c5fe" d="M2546.33,-989.44C2546.33,-989.44 2211.67,-989.44 2211.67,-989.44 2207.83,-989.44 2204,-985.6 2204,-981.77 2204,-981.77 2204,-974.1 2204,-974.1 2204,-970.27 2207.83,-966.44 2211.67,-966.44 2211.67,-966.44 2546.33,-966.44 2546.33,-966.44 2550.17,-966.44 2554,-970.27 2554,-974.1 2554,-974.1 2554,-981.77 2554,-981.77 2554,-985.6 2550.17,-989.44 2546.33,-989.44"/>
<text text-anchor="middle" x="2379" y="-974.24" font-family="Arial" font-size="14.00" fill="#c6c5fe">component/chart/InformaticsChart/InforMaticsBox.tsx</text>
</g>
<!-- component/chart/InformaticsChart.tsx&#45;&gt;component/chart/InformaticsChart/InforMaticsBox.tsx -->
<g id="edge48" class="edge">
<title>component/chart/InformaticsChart.tsx&#45;&gt;component/chart/InformaticsChart/InforMaticsBox.tsx</title>
<path fill="none" stroke="#757575" d="M2062.85,-949.32C2116.38,-954.18 2179.17,-959.88 2234.55,-964.91"/>
<polygon fill="#757575" stroke="#757575" points="2234.1,-968.38 2244.37,-965.8 2234.73,-961.41 2234.1,-968.38"/>
</g>
<!-- component/chart/LineChart.tsx&#45;&gt;common/chart.ts -->
<g id="edge51" class="edge">
<title>component/chart/LineChart.tsx&#45;&gt;common/chart.ts</title>
<path fill="none" stroke="#757575" d="M2041.39,-799.26C2081.66,-801.74 2127.68,-807.51 2168,-819.94 2185.49,-825.33 2186.57,-834.34 2204,-839.94 2236.62,-850.41 2274.23,-855.54 2306.12,-858"/>
<polygon fill="#757575" stroke="#757575" points="2305.86,-861.49 2316.08,-858.69 2306.34,-854.51 2305.86,-861.49"/>
</g>
<!-- component/chart/LineChart.tsx&#45;&gt;types/chart.d.ts -->
<g id="edge54" class="edge">
<title>component/chart/LineChart.tsx&#45;&gt;types/chart.d.ts</title>
<path fill="none" stroke="#757575" d="M1996.2,-786.98C2049.99,-776.67 2131.97,-762.58 2204,-756.94 2359.08,-744.79 2405.68,-710.04 2554,-756.94 2631.48,-781.44 2705.01,-847.19 2738.53,-880.3"/>
<polygon fill="#757575" stroke="#757575" points="2735.94,-882.65 2745.47,-887.28 2740.9,-877.72 2735.94,-882.65"/>
</g>
<!-- component/chart/LineChart.tsx&#45;&gt;component/chart/ChartSvg.tsx -->
<g id="edge52" class="edge">
<title>component/chart/LineChart.tsx&#45;&gt;component/chart/ChartSvg.tsx</title>
<path fill="none" stroke="#757575" d="M2041.33,-803.65C2108.32,-806.69 2195.46,-810.65 2264.3,-813.77"/>
<polygon fill="#757575" stroke="#757575" points="2263.96,-817.26 2274.11,-814.22 2264.28,-810.27 2263.96,-817.26"/>
</g>
<!-- component/chart/LineChart.tsx&#45;&gt;hook/useResize.tsx -->
<g id="edge53" class="edge">
<title>component/chart/LineChart.tsx&#45;&gt;hook/useResize.tsx</title>
<path fill="none" stroke="#757575" d="M2041.33,-793.99C2119.68,-790.25 2225.61,-785.2 2297.58,-781.77"/>
<polygon fill="#757575" stroke="#757575" points="2297.49,-785.28 2307.31,-781.31 2297.16,-778.29 2297.49,-785.28"/>
</g>
<!-- component/Widget/WidgetPropsSettingModal.tsx -->
<g id="node38" class="node">
<title>component/Widget/WidgetPropsSettingModal.tsx</title>
<path fill="none" stroke="#c6c5fe" d="M1121.83,-469.44C1121.83,-469.44 808.17,-469.44 808.17,-469.44 804.33,-469.44 800.5,-465.6 800.5,-461.77 800.5,-461.77 800.5,-454.1 800.5,-454.1 800.5,-450.27 804.33,-446.44 808.17,-446.44 808.17,-446.44 1121.83,-446.44 1121.83,-446.44 1125.67,-446.44 1129.5,-450.27 1129.5,-454.1 1129.5,-454.1 1129.5,-461.77 1129.5,-461.77 1129.5,-465.6 1125.67,-469.44 1121.83,-469.44"/>
<text text-anchor="middle" x="965" y="-454.24" font-family="Arial" font-size="14.00" fill="#c6c5fe">component/Widget/WidgetPropsSettingModal.tsx</text>
</g>
<!-- component/Widget/WidgetPropsSettingModal.tsx&#45;&gt;store/WidgetPropsSettingModalProvider.tsx -->
<g id="edge42" class="edge">
<title>component/Widget/WidgetPropsSettingModal.tsx&#45;&gt;store/WidgetPropsSettingModalProvider.tsx</title>
<path fill="none" stroke="#757575" d="M1129.94,-446.25C1149.5,-445.04 1169.19,-443.9 1188,-442.94 1391.69,-432.51 1626.83,-425.09 1778.14,-420.91"/>
<polygon fill="#757575" stroke="#757575" points="1777.93,-424.42 1787.83,-420.65 1777.74,-417.42 1777.93,-424.42"/>
</g>
<!-- component/Widget/WidgetPropsSettingModal/WidgetPropsButtons.tsx -->
<g id="node39" class="node">
<title>component/Widget/WidgetPropsSettingModal/WidgetPropsButtons.tsx</title>
<path fill="none" stroke="#c6c5fe" d="M1653.33,-508.44C1653.33,-508.44 1203.67,-508.44 1203.67,-508.44 1199.83,-508.44 1196,-504.6 1196,-500.77 1196,-500.77 1196,-493.1 1196,-493.1 1196,-489.27 1199.83,-485.44 1203.67,-485.44 1203.67,-485.44 1653.33,-485.44 1653.33,-485.44 1657.17,-485.44 1661,-489.27 1661,-493.1 1661,-493.1 1661,-500.77 1661,-500.77 1661,-504.6 1657.17,-508.44 1653.33,-508.44"/>
<text text-anchor="middle" x="1428.5" y="-493.24" font-family="Arial" font-size="14.00" fill="#c6c5fe">component/Widget/WidgetPropsSettingModal/WidgetPropsButtons.tsx</text>
</g>
<!-- component/Widget/WidgetPropsSettingModal.tsx&#45;&gt;component/Widget/WidgetPropsSettingModal/WidgetPropsButtons.tsx -->
<g id="edge39" class="edge">
<title>component/Widget/WidgetPropsSettingModal.tsx&#45;&gt;component/Widget/WidgetPropsSettingModal/WidgetPropsButtons.tsx</title>
<path fill="none" stroke="#757575" d="M1107.92,-469.93C1160.59,-474.38 1220.56,-479.45 1274.21,-483.98"/>
<polygon fill="#757575" stroke="#757575" points="1273.79,-487.46 1284.05,-484.81 1274.38,-480.48 1273.79,-487.46"/>
</g>
<!-- component/Widget/WidgetPropsSettingModal/WidgetPropsList.tsx -->
<g id="node40" class="node">
<title>component/Widget/WidgetPropsSettingModal/WidgetPropsList.tsx</title>
<path fill="none" stroke="#cfffac" d="M1640.83,-390.44C1640.83,-390.44 1216.17,-390.44 1216.17,-390.44 1212.33,-390.44 1208.5,-386.6 1208.5,-382.77 1208.5,-382.77 1208.5,-375.1 1208.5,-375.1 1208.5,-371.27 1212.33,-367.44 1216.17,-367.44 1216.17,-367.44 1640.83,-367.44 1640.83,-367.44 1644.67,-367.44 1648.5,-371.27 1648.5,-375.1 1648.5,-375.1 1648.5,-382.77 1648.5,-382.77 1648.5,-386.6 1644.67,-390.44 1640.83,-390.44"/>
<text text-anchor="middle" x="1428.5" y="-375.24" font-family="Arial" font-size="14.00" fill="#cfffac">component/Widget/WidgetPropsSettingModal/WidgetPropsList.tsx</text>
</g>
<!-- component/Widget/WidgetPropsSettingModal.tsx&#45;&gt;component/Widget/WidgetPropsSettingModal/WidgetPropsList.tsx -->
<g id="edge40" class="edge">
<title>component/Widget/WidgetPropsSettingModal.tsx&#45;&gt;component/Widget/WidgetPropsSettingModal/WidgetPropsList.tsx</title>
<path fill="none" stroke="#757575" d="M1009.05,-445.95C1053.54,-433.97 1125.14,-415.81 1188,-404.94 1216.96,-399.93 1248.07,-395.71 1277.96,-392.23"/>
<polygon fill="#757575" stroke="#757575" points="1278.31,-395.71 1287.85,-391.1 1277.52,-388.75 1278.31,-395.71"/>
</g>
<!-- hook/useGetApiList.tsx -->
<g id="node41" class="node">
<title>hook/useGetApiList.tsx</title>
<path fill="none" stroke="#c6c5fe" d="M1502.33,-731.44C1502.33,-731.44 1354.67,-731.44 1354.67,-731.44 1350.83,-731.44 1347,-727.6 1347,-723.77 1347,-723.77 1347,-716.1 1347,-716.1 1347,-712.27 1350.83,-708.44 1354.67,-708.44 1354.67,-708.44 1502.33,-708.44 1502.33,-708.44 1506.17,-708.44 1510,-712.27 1510,-716.1 1510,-716.1 1510,-723.77 1510,-723.77 1510,-727.6 1506.17,-731.44 1502.33,-731.44"/>
<text text-anchor="middle" x="1428.5" y="-716.24" font-family="Arial" font-size="14.00" fill="#c6c5fe">hook/useGetApiList.tsx</text>
</g>
<!-- component/Widget/WidgetPropsSettingModal.tsx&#45;&gt;hook/useGetApiList.tsx -->
<g id="edge41" class="edge">
<title>component/Widget/WidgetPropsSettingModal.tsx&#45;&gt;hook/useGetApiList.tsx</title>
<path fill="none" stroke="#757575" d="M996.9,-469.84C1037.98,-487.17 1110.24,-523.15 1152,-575.94 1182.35,-614.29 1150.64,-648.37 1188,-679.94 1228.33,-714.01 1286.52,-724.32 1335.45,-725.96"/>
<polygon fill="#757575" stroke="#757575" points="1335.12,-729.45 1345.19,-726.16 1335.26,-722.45 1335.12,-729.45"/>
</g>
<!-- component/Widget/WidgetPropsSettingModal/WidgetPropsButtons.tsx&#45;&gt;store/WidgetProvider.tsx -->
<g id="edge43" class="edge">
<title>component/Widget/WidgetPropsSettingModal/WidgetPropsButtons.tsx&#45;&gt;store/WidgetProvider.tsx</title>
<path fill="none" stroke="#757575" d="M1661.4,-496.94C1723.76,-496.94 1787.85,-496.94 1838.36,-496.94"/>
<polygon fill="#757575" stroke="#757575" points="1838.07,-500.44 1848.07,-496.94 1838.07,-493.44 1838.07,-500.44"/>
</g>
<!-- hook/useGetApiList.tsx&#45;&gt;common/api.ts -->
<g id="edge66" class="edge">
<title>hook/useGetApiList.tsx&#45;&gt;common/api.ts</title>
<path fill="none" stroke="#757575" d="M1510.24,-722.81C1609.91,-726.35 1777.51,-732.32 1869.73,-735.6"/>
<polygon fill="#757575" stroke="#757575" points="1869.51,-739.09 1879.63,-735.95 1869.76,-732.09 1869.51,-739.09"/>
</g>
<!-- component/chart/InformaticsChart/InforMaticsBox.tsx&#45;&gt;types/chart.d.ts -->
<g id="edge50" class="edge">
<title>component/chart/InformaticsChart/InforMaticsBox.tsx&#45;&gt;types/chart.d.ts</title>
<path fill="none" stroke="#757575" d="M2471.96,-965.98C2498.53,-962.04 2527.5,-957.29 2554,-951.94 2605.78,-941.48 2664.13,-926.2 2705.03,-914.91"/>
<polygon fill="#757575" stroke="#757575" points="2705.93,-918.3 2714.62,-912.25 2704.05,-911.55 2705.93,-918.3"/>
</g>
<!-- component/common/DatePicker/DatePickerTitle.tsx&#45;&gt;types/common.d.ts -->
<g id="edge58" class="edge">
<title>component/common/DatePicker/DatePickerTitle.tsx&#45;&gt;types/common.d.ts</title>
<path fill="none" stroke="#757575" d="M2550.8,-53.94C2595.39,-53.94 2641.32,-53.94 2678.53,-53.94"/>
<polygon fill="#757575" stroke="#757575" points="2678.28,-57.44 2688.28,-53.94 2678.28,-50.44 2678.28,-57.44"/>
</g>
<!-- component/common/DatePicker/ListPicker.tsx&#45;&gt;types/common.d.ts -->
<g id="edge60" class="edge">
<title>component/common/DatePicker/ListPicker.tsx&#45;&gt;types/common.d.ts</title>
<path fill="none" stroke="#757575" d="M2490.46,-82.94C2550.69,-76.4 2623.85,-68.45 2678.35,-62.53"/>
<polygon fill="#757575" stroke="#757575" points="2678.62,-66.02 2688.18,-61.46 2677.86,-59.06 2678.62,-66.02"/>
</g>
<!-- component/common/DatePicker/ListPickerItem.tsx -->
<g id="node48" class="node">
<title>component/common/DatePicker/ListPickerItem.tsx</title>
<path fill="none" stroke="#cfffac" d="M2919.33,-106.44C2919.33,-106.44 2597.67,-106.44 2597.67,-106.44 2593.83,-106.44 2590,-102.6 2590,-98.77 2590,-98.77 2590,-91.1 2590,-91.1 2590,-87.27 2593.83,-83.44 2597.67,-83.44 2597.67,-83.44 2919.33,-83.44 2919.33,-83.44 2923.17,-83.44 2927,-87.27 2927,-91.1 2927,-91.1 2927,-98.77 2927,-98.77 2927,-102.6 2923.17,-106.44 2919.33,-106.44"/>
<text text-anchor="middle" x="2758.5" y="-91.24" font-family="Arial" font-size="14.00" fill="#cfffac">component/common/DatePicker/ListPickerItem.tsx</text>
</g>
<!-- component/common/DatePicker/ListPicker.tsx&#45;&gt;component/common/DatePicker/ListPickerItem.tsx -->
<g id="edge59" class="edge">
<title>component/common/DatePicker/ListPicker.tsx&#45;&gt;component/common/DatePicker/ListPickerItem.tsx</title>
<path fill="none" stroke="#757575" d="M2533.27,-94.94C2548.08,-94.94 2563.2,-94.94 2578.23,-94.94"/>
<polygon fill="#757575" stroke="#757575" points="2578.19,-98.44 2588.19,-94.94 2578.19,-91.44 2578.19,-98.44"/>
</g>
<!-- page/Dashboard.tsx&#45;&gt;component/Dashboard/DashboardBody.tsx -->
<g id="edge67" class="edge">
<title>page/Dashboard.tsx&#45;&gt;component/Dashboard/DashboardBody.tsx</title>
<path fill="none" stroke="#757575" d="M371.11,-469.93C416.23,-483.78 490.53,-506.57 539.74,-521.67"/>
<polygon fill="#757575" stroke="#757575" points="538.41,-524.92 549,-524.51 540.47,-518.23 538.41,-524.92"/>
</g>
<!-- page/Dashboard.tsx&#45;&gt;component/Dashboard/DashboardHeader.tsx -->
<g id="edge68" class="edge">
<title>page/Dashboard.tsx&#45;&gt;component/Dashboard/DashboardHeader.tsx</title>
<path fill="none" stroke="#757575" d="M348.5,-446.21C392.09,-415.23 510.58,-331.02 563.44,-293.46"/>
<polygon fill="#757575" stroke="#757575" points="565.45,-296.32 571.57,-287.68 561.39,-290.62 565.45,-296.32"/>
</g>
<!-- page/Dashboard.tsx&#45;&gt;component/Widget/WidgetPropsSettingModal.tsx -->
<g id="edge69" class="edge">
<title>page/Dashboard.tsx&#45;&gt;component/Widget/WidgetPropsSettingModal.tsx</title>
<path fill="none" stroke="#757575" d="M403.27,-457.94C496.1,-457.94 661.55,-457.94 788.75,-457.94"/>
<polygon fill="#757575" stroke="#757575" points="788.64,-461.44 798.64,-457.94 788.64,-454.44 788.64,-461.44"/>
</g>
</g>
</svg>
