<?xml version="1.0" encoding="UTF-8" standalone="no"?>
<!DOCTYPE svg PUBLIC "-//W3C//DTD SVG 1.1//EN"
 "http://www.w3.org/Graphics/SVG/1.1/DTD/svg11.dtd">
<!-- Generated by graphviz version 7.1.0 (20230121.1956)
 -->
<!-- Title: G Pages: 1 -->
<svg width="3077pt" height="934pt"
 viewBox="0.00 0.00 3077.20 933.97" xmlns="http://www.w3.org/2000/svg" xmlns:xlink="http://www.w3.org/1999/xlink">
<g id="graph0" class="graph" transform="scale(1 1) rotate(0) translate(21.6 912.37)">
<title>G</title>
<polygon fill="#111111" stroke="none" points="-21.6,21.6 -21.6,-912.37 3055.6,-912.37 3055.6,21.6 -21.6,21.6"/>
<!-- App.tsx -->
<g id="node1" class="node">
<title>App.tsx</title>
<path fill="none" stroke="#c6c5fe" d="M57.33,-471.77C57.33,-471.77 7.67,-471.77 7.67,-471.77 3.83,-471.77 0,-467.94 0,-464.1 0,-464.1 0,-456.44 0,-456.44 0,-452.6 3.83,-448.77 7.67,-448.77 7.67,-448.77 57.33,-448.77 57.33,-448.77 61.17,-448.77 65,-452.6 65,-456.44 65,-456.44 65,-464.1 65,-464.1 65,-467.94 61.17,-471.77 57.33,-471.77"/>
<text text-anchor="middle" x="32.5" y="-456.57" font-family="Arial" font-size="14.00" fill="#c6c5fe">App.tsx</text>
</g>
<!-- router/Router.tsx -->
<g id="node2" class="node">
<title>router/Router.tsx</title>
<path fill="none" stroke="#c6c5fe" d="M215.33,-471.77C215.33,-471.77 108.67,-471.77 108.67,-471.77 104.83,-471.77 101,-467.94 101,-464.1 101,-464.1 101,-456.44 101,-456.44 101,-452.6 104.83,-448.77 108.67,-448.77 108.67,-448.77 215.33,-448.77 215.33,-448.77 219.17,-448.77 223,-452.6 223,-456.44 223,-456.44 223,-464.1 223,-464.1 223,-467.94 219.17,-471.77 215.33,-471.77"/>
<text text-anchor="middle" x="162" y="-456.57" font-family="Arial" font-size="14.00" fill="#c6c5fe">router/Router.tsx</text>
</g>
<!-- App.tsx&#45;&gt;router/Router.tsx -->
<g id="edge1" class="edge">
<title>App.tsx&#45;&gt;router/Router.tsx</title>
<path fill="none" stroke="#757575" d="M65.34,-460.27C72.7,-460.27 80.81,-460.27 89.12,-460.27"/>
<polygon fill="#757575" stroke="#757575" points="88.99,-463.77 98.99,-460.27 88.99,-456.77 88.99,-463.77"/>
</g>
<!-- page/Dashboard.tsx -->
<g id="node48" class="node">
<title>page/Dashboard.tsx</title>
<path fill="none" stroke="#c6c5fe" d="M395.33,-471.77C395.33,-471.77 266.67,-471.77 266.67,-471.77 262.83,-471.77 259,-467.94 259,-464.1 259,-464.1 259,-456.44 259,-456.44 259,-452.6 262.83,-448.77 266.67,-448.77 266.67,-448.77 395.33,-448.77 395.33,-448.77 399.17,-448.77 403,-452.6 403,-456.44 403,-456.44 403,-464.1 403,-464.1 403,-467.94 399.17,-471.77 395.33,-471.77"/>
<text text-anchor="middle" x="331" y="-456.57" font-family="Arial" font-size="14.00" fill="#c6c5fe">page/Dashboard.tsx</text>
</g>
<!-- router/Router.tsx&#45;&gt;page/Dashboard.tsx -->
<g id="edge69" class="edge">
<title>router/Router.tsx&#45;&gt;page/Dashboard.tsx</title>
<path fill="none" stroke="#757575" d="M223.29,-460.27C231.1,-460.27 239.21,-460.27 247.3,-460.27"/>
<polygon fill="#757575" stroke="#757575" points="247.19,-463.77 257.19,-460.27 247.19,-456.77 247.19,-463.77"/>
</g>
<!-- asset/image/pause.png -->
<g id="node3" class="node">
<title>asset/image/pause.png</title>
<path fill="none" stroke="#cfffac" d="M1619.83,-828.77C1619.83,-828.77 1471.17,-828.77 1471.17,-828.77 1467.33,-828.77 1463.5,-824.94 1463.5,-821.1 1463.5,-821.1 1463.5,-813.44 1463.5,-813.44 1463.5,-809.6 1467.33,-805.77 1471.17,-805.77 1471.17,-805.77 1619.83,-805.77 1619.83,-805.77 1623.67,-805.77 1627.5,-809.6 1627.5,-813.44 1627.5,-813.44 1627.5,-821.1 1627.5,-821.1 1627.5,-824.94 1623.67,-828.77 1619.83,-828.77"/>
<text text-anchor="middle" x="1545.5" y="-813.57" font-family="Arial" font-size="14.00" fill="#cfffac">asset/image/pause.png</text>
</g>
<!-- asset/image/play.png -->
<g id="node4" class="node">
<title>asset/image/play.png</title>
<path fill="none" stroke="#cfffac" d="M1613.33,-869.77C1613.33,-869.77 1477.67,-869.77 1477.67,-869.77 1473.83,-869.77 1470,-865.94 1470,-862.1 1470,-862.1 1470,-854.44 1470,-854.44 1470,-850.6 1473.83,-846.77 1477.67,-846.77 1477.67,-846.77 1613.33,-846.77 1613.33,-846.77 1617.17,-846.77 1621,-850.6 1621,-854.44 1621,-854.44 1621,-862.1 1621,-862.1 1621,-865.94 1617.17,-869.77 1613.33,-869.77"/>
<text text-anchor="middle" x="1545.5" y="-854.57" font-family="Arial" font-size="14.00" fill="#cfffac">asset/image/play.png</text>
</g>
<!-- common/api.ts -->
<g id="node5" class="node">
<title>common/api.ts</title>
<path fill="none" stroke="#c6c5fe" d="M1592.83,-370.77C1592.83,-370.77 1498.17,-370.77 1498.17,-370.77 1494.33,-370.77 1490.5,-366.94 1490.5,-363.1 1490.5,-363.1 1490.5,-355.44 1490.5,-355.44 1490.5,-351.6 1494.33,-347.77 1498.17,-347.77 1498.17,-347.77 1592.83,-347.77 1592.83,-347.77 1596.67,-347.77 1600.5,-351.6 1600.5,-355.44 1600.5,-355.44 1600.5,-363.1 1600.5,-363.1 1600.5,-366.94 1596.67,-370.77 1592.83,-370.77"/>
<text text-anchor="middle" x="1545.5" y="-355.57" font-family="Arial" font-size="14.00" fill="#c6c5fe">common/api.ts</text>
</g>
<!-- types/api.d.ts -->
<g id="node6" class="node">
<title>types/api.d.ts</title>
<path fill="none" stroke="#cfffac" d="M2094.83,-389.77C2094.83,-389.77 2009.17,-389.77 2009.17,-389.77 2005.33,-389.77 2001.5,-385.94 2001.5,-382.1 2001.5,-382.1 2001.5,-374.44 2001.5,-374.44 2001.5,-370.6 2005.33,-366.77 2009.17,-366.77 2009.17,-366.77 2094.83,-366.77 2094.83,-366.77 2098.67,-366.77 2102.5,-370.6 2102.5,-374.44 2102.5,-374.44 2102.5,-382.1 2102.5,-382.1 2102.5,-385.94 2098.67,-389.77 2094.83,-389.77"/>
<text text-anchor="middle" x="2052" y="-374.57" font-family="Arial" font-size="14.00" fill="#cfffac">types/api.d.ts</text>
</g>
<!-- common/api.ts&#45;&gt;types/api.d.ts -->
<g id="edge2" class="edge">
<title>common/api.ts&#45;&gt;types/api.d.ts</title>
<path fill="none" stroke="#757575" d="M1600.97,-361.32C1695.82,-364.89 1890.64,-372.23 1989.93,-375.97"/>
<polygon fill="#757575" stroke="#757575" points="1989.62,-379.46 1999.75,-376.34 1989.88,-372.47 1989.62,-379.46"/>
</g>
<!-- common/chart.ts -->
<g id="node7" class="node">
<title>common/chart.ts</title>
<path fill="none" stroke="#c6c5fe" d="M2105.33,-146.77C2105.33,-146.77 1998.67,-146.77 1998.67,-146.77 1994.83,-146.77 1991,-142.94 1991,-139.1 1991,-139.1 1991,-131.44 1991,-131.44 1991,-127.6 1994.83,-123.77 1998.67,-123.77 1998.67,-123.77 2105.33,-123.77 2105.33,-123.77 2109.17,-123.77 2113,-127.6 2113,-131.44 2113,-131.44 2113,-139.1 2113,-139.1 2113,-142.94 2109.17,-146.77 2105.33,-146.77"/>
<text text-anchor="middle" x="2052" y="-131.57" font-family="Arial" font-size="14.00" fill="#c6c5fe">common/chart.ts</text>
</g>
<!-- types/chart.d.ts -->
<g id="node8" class="node">
<title>types/chart.d.ts</title>
<path fill="none" stroke="#cfffac" d="M2538.33,-186.77C2538.33,-186.77 2440.67,-186.77 2440.67,-186.77 2436.83,-186.77 2433,-182.94 2433,-179.1 2433,-179.1 2433,-171.44 2433,-171.44 2433,-167.6 2436.83,-163.77 2440.67,-163.77 2440.67,-163.77 2538.33,-163.77 2538.33,-163.77 2542.17,-163.77 2546,-167.6 2546,-171.44 2546,-171.44 2546,-179.1 2546,-179.1 2546,-182.94 2542.17,-186.77 2538.33,-186.77"/>
<text text-anchor="middle" x="2489.5" y="-171.57" font-family="Arial" font-size="14.00" fill="#cfffac">types/chart.d.ts</text>
</g>
<!-- common/chart.ts&#45;&gt;types/chart.d.ts -->
<g id="edge3" class="edge">
<title>common/chart.ts&#45;&gt;types/chart.d.ts</title>
<path fill="none" stroke="#757575" d="M2113.1,-140.79C2193.97,-148.22 2337.36,-161.39 2421.58,-169.12"/>
<polygon fill="#757575" stroke="#757575" points="2421.02,-172.59 2431.3,-170.02 2421.66,-165.62 2421.02,-172.59"/>
</g>
<!-- common/date.ts -->
<g id="node9" class="node">
<title>common/date.ts</title>
<path fill="none" stroke="#cfffac" d="M2541.33,-564.77C2541.33,-564.77 2437.67,-564.77 2437.67,-564.77 2433.83,-564.77 2430,-560.94 2430,-557.1 2430,-557.1 2430,-549.44 2430,-549.44 2430,-545.6 2433.83,-541.77 2437.67,-541.77 2437.67,-541.77 2541.33,-541.77 2541.33,-541.77 2545.17,-541.77 2549,-545.6 2549,-549.44 2549,-549.44 2549,-557.1 2549,-557.1 2549,-560.94 2545.17,-564.77 2541.33,-564.77"/>
<text text-anchor="middle" x="2489.5" y="-549.57" font-family="Arial" font-size="14.00" fill="#cfffac">common/date.ts</text>
</g>
<!-- common/widget.ts -->
<g id="node10" class="node">
<title>common/widget.ts</title>
<path fill="none" stroke="#cfffac" d="M1603.83,-329.77C1603.83,-329.77 1487.17,-329.77 1487.17,-329.77 1483.33,-329.77 1479.5,-325.94 1479.5,-322.1 1479.5,-322.1 1479.5,-314.44 1479.5,-314.44 1479.5,-310.6 1483.33,-306.77 1487.17,-306.77 1487.17,-306.77 1603.83,-306.77 1603.83,-306.77 1607.67,-306.77 1611.5,-310.6 1611.5,-314.44 1611.5,-314.44 1611.5,-322.1 1611.5,-322.1 1611.5,-325.94 1607.67,-329.77 1603.83,-329.77"/>
<text text-anchor="middle" x="1545.5" y="-314.57" font-family="Arial" font-size="14.00" fill="#cfffac">common/widget.ts</text>
</g>
<!-- component/Dashboard/DashboardHeader.tsx -->
<g id="node11" class="node">
<title>component/Dashboard/DashboardHeader.tsx</title>
<path fill="none" stroke="#c6c5fe" d="M747.33,-705.77C747.33,-705.77 459.67,-705.77 459.67,-705.77 455.83,-705.77 452,-701.94 452,-698.1 452,-698.1 452,-690.44 452,-690.44 452,-686.6 455.83,-682.77 459.67,-682.77 459.67,-682.77 747.33,-682.77 747.33,-682.77 751.17,-682.77 755,-686.6 755,-690.44 755,-690.44 755,-698.1 755,-698.1 755,-701.94 751.17,-705.77 747.33,-705.77"/>
<text text-anchor="middle" x="603.5" y="-690.57" font-family="Arial" font-size="14.00" fill="#c6c5fe">component/Dashboard/DashboardHeader.tsx</text>
</g>
<!-- component/Dashboard/DashboardHeader/PlayIcon.tsx -->
<g id="node12" class="node">
<title>component/Dashboard/DashboardHeader/PlayIcon.tsx</title>
<path fill="none" stroke="#c6c5fe" d="M1209.83,-828.77C1209.83,-828.77 863.17,-828.77 863.17,-828.77 859.33,-828.77 855.5,-824.94 855.5,-821.1 855.5,-821.1 855.5,-813.44 855.5,-813.44 855.5,-809.6 859.33,-805.77 863.17,-805.77 863.17,-805.77 1209.83,-805.77 1209.83,-805.77 1213.67,-805.77 1217.5,-809.6 1217.5,-813.44 1217.5,-813.44 1217.5,-821.1 1217.5,-821.1 1217.5,-824.94 1213.67,-828.77 1209.83,-828.77"/>
<text text-anchor="middle" x="1036.5" y="-813.57" font-family="Arial" font-size="14.00" fill="#c6c5fe">component/Dashboard/DashboardHeader/PlayIcon.tsx</text>
</g>
<!-- component/Dashboard/DashboardHeader.tsx&#45;&gt;component/Dashboard/DashboardHeader/PlayIcon.tsx -->
<g id="edge4" class="edge">
<title>component/Dashboard/DashboardHeader.tsx&#45;&gt;component/Dashboard/DashboardHeader/PlayIcon.tsx</title>
<path fill="none" stroke="#757575" d="M627.48,-706.22C663.92,-724.68 737.66,-760 804,-779.27 840.42,-789.85 880.97,-797.76 917.84,-803.55"/>
<polygon fill="#757575" stroke="#757575" points="917.24,-807 927.65,-805.04 918.3,-800.08 917.24,-807"/>
</g>
<!-- component/Dashboard/DashboardHeader/SelectRealTimeRangeArea.tsx -->
<g id="node13" class="node">
<title>component/Dashboard/DashboardHeader/SelectRealTimeRangeArea.tsx</title>
<path fill="none" stroke="#c6c5fe" d="M1778.33,-787.77C1778.33,-787.77 1312.67,-787.77 1312.67,-787.77 1308.83,-787.77 1305,-783.94 1305,-780.1 1305,-780.1 1305,-772.44 1305,-772.44 1305,-768.6 1308.83,-764.77 1312.67,-764.77 1312.67,-764.77 1778.33,-764.77 1778.33,-764.77 1782.17,-764.77 1786,-768.6 1786,-772.44 1786,-772.44 1786,-780.1 1786,-780.1 1786,-783.94 1782.17,-787.77 1778.33,-787.77"/>
<text text-anchor="middle" x="1545.5" y="-772.57" font-family="Arial" font-size="14.00" fill="#c6c5fe">component/Dashboard/DashboardHeader/SelectRealTimeRangeArea.tsx</text>
</g>
<!-- component/Dashboard/DashboardHeader.tsx&#45;&gt;component/Dashboard/DashboardHeader/SelectRealTimeRangeArea.tsx -->
<g id="edge5" class="edge">
<title>component/Dashboard/DashboardHeader.tsx&#45;&gt;component/Dashboard/DashboardHeader/SelectRealTimeRangeArea.tsx</title>
<path fill="none" stroke="#757575" d="M652.54,-706.22C692.74,-715.72 751.75,-728.49 804,-735.27 966.24,-756.32 1149.86,-766.57 1293.66,-771.56"/>
<polygon fill="#757575" stroke="#757575" points="1293.19,-775.05 1303.3,-771.89 1293.43,-768.05 1293.19,-775.05"/>
</g>
<!-- component/Dashboard/DashboardHeader/TimeBlock.tsx -->
<g id="node14" class="node">
<title>component/Dashboard/DashboardHeader/TimeBlock.tsx</title>
<path fill="none" stroke="#c6c5fe" d="M1215.83,-725.77C1215.83,-725.77 857.17,-725.77 857.17,-725.77 853.33,-725.77 849.5,-721.94 849.5,-718.1 849.5,-718.1 849.5,-710.44 849.5,-710.44 849.5,-706.6 853.33,-702.77 857.17,-702.77 857.17,-702.77 1215.83,-702.77 1215.83,-702.77 1219.67,-702.77 1223.5,-706.6 1223.5,-710.44 1223.5,-710.44 1223.5,-718.1 1223.5,-718.1 1223.5,-721.94 1219.67,-725.77 1215.83,-725.77"/>
<text text-anchor="middle" x="1036.5" y="-710.57" font-family="Arial" font-size="14.00" fill="#c6c5fe">component/Dashboard/DashboardHeader/TimeBlock.tsx</text>
</g>
<!-- component/Dashboard/DashboardHeader.tsx&#45;&gt;component/Dashboard/DashboardHeader/TimeBlock.tsx -->
<g id="edge6" class="edge">
<title>component/Dashboard/DashboardHeader.tsx&#45;&gt;component/Dashboard/DashboardHeader/TimeBlock.tsx</title>
<path fill="none" stroke="#757575" d="M755.24,-701.27C781.91,-702.5 810.04,-703.81 837.77,-705.1"/>
<polygon fill="#757575" stroke="#757575" points="837.55,-708.59 847.7,-705.56 837.87,-701.6 837.55,-708.59"/>
</g>
<!-- store/DashboardProvider.tsx -->
<g id="node15" class="node">
<title>store/DashboardProvider.tsx</title>
<path fill="none" stroke="#c6c5fe" d="M2142.83,-564.77C2142.83,-564.77 1961.17,-564.77 1961.17,-564.77 1957.33,-564.77 1953.5,-560.94 1953.5,-557.1 1953.5,-557.1 1953.5,-549.44 1953.5,-549.44 1953.5,-545.6 1957.33,-541.77 1961.17,-541.77 1961.17,-541.77 2142.83,-541.77 2142.83,-541.77 2146.67,-541.77 2150.5,-545.6 2150.5,-549.44 2150.5,-549.44 2150.5,-557.1 2150.5,-557.1 2150.5,-560.94 2146.67,-564.77 2142.83,-564.77"/>
<text text-anchor="middle" x="2052" y="-549.57" font-family="Arial" font-size="14.00" fill="#c6c5fe">store/DashboardProvider.tsx</text>
</g>
<!-- component/Dashboard/DashboardHeader.tsx&#45;&gt;store/DashboardProvider.tsx -->
<g id="edge7" class="edge">
<title>component/Dashboard/DashboardHeader.tsx&#45;&gt;store/DashboardProvider.tsx</title>
<path fill="none" stroke="#757575" d="M755.39,-682.98C890.16,-672.55 1092.9,-656.04 1269,-638.27 1515.22,-613.43 1575.82,-598.48 1822,-573.27 1861.11,-569.26 1904.04,-565.38 1942.05,-562.12"/>
<polygon fill="#757575" stroke="#757575" points="1941.98,-565.64 1951.65,-561.3 1941.39,-558.66 1941.98,-565.64"/>
</g>
<!-- store/WidgetPropsSettingModalProvider.tsx -->
<g id="node16" class="node">
<title>store/WidgetPropsSettingModalProvider.tsx</title>
<path fill="none" stroke="#c6c5fe" d="M1684.83,-567.77C1684.83,-567.77 1406.17,-567.77 1406.17,-567.77 1402.33,-567.77 1398.5,-563.94 1398.5,-560.1 1398.5,-560.1 1398.5,-552.44 1398.5,-552.44 1398.5,-548.6 1402.33,-544.77 1406.17,-544.77 1406.17,-544.77 1684.83,-544.77 1684.83,-544.77 1688.67,-544.77 1692.5,-548.6 1692.5,-552.44 1692.5,-552.44 1692.5,-560.1 1692.5,-560.1 1692.5,-563.94 1688.67,-567.77 1684.83,-567.77"/>
<text text-anchor="middle" x="1545.5" y="-552.57" font-family="Arial" font-size="14.00" fill="#c6c5fe">store/WidgetPropsSettingModalProvider.tsx</text>
</g>
<!-- component/Dashboard/DashboardHeader.tsx&#45;&gt;store/WidgetPropsSettingModalProvider.tsx -->
<g id="edge8" class="edge">
<title>component/Dashboard/DashboardHeader.tsx&#45;&gt;store/WidgetPropsSettingModalProvider.tsx</title>
<path fill="none" stroke="#757575" d="M673.24,-682.3C711.68,-675.68 760.48,-667.37 804,-660.27 1026.41,-624.01 1081.59,-611.77 1305,-582.27 1339.89,-577.66 1377.72,-573.28 1412.78,-569.46"/>
<polygon fill="#757575" stroke="#757575" points="1412.99,-572.96 1422.56,-568.41 1412.24,-566 1412.99,-572.96"/>
</g>
<!-- component/Dashboard/DashboardHeader/PlayIcon.tsx&#45;&gt;asset/image/pause.png -->
<g id="edge16" class="edge">
<title>component/Dashboard/DashboardHeader/PlayIcon.tsx&#45;&gt;asset/image/pause.png</title>
<path fill="none" stroke="#757575" d="M1217.68,-817.27C1296.75,-817.27 1386.24,-817.27 1451.56,-817.27"/>
<polygon fill="#757575" stroke="#757575" points="1451.54,-820.77 1461.54,-817.27 1451.54,-813.77 1451.54,-820.77"/>
</g>
<!-- component/Dashboard/DashboardHeader/PlayIcon.tsx&#45;&gt;asset/image/play.png -->
<g id="edge17" class="edge">
<title>component/Dashboard/DashboardHeader/PlayIcon.tsx&#45;&gt;asset/image/play.png</title>
<path fill="none" stroke="#757575" d="M1185.85,-829.27C1274.52,-836.44 1384.05,-845.3 1458.58,-851.32"/>
<polygon fill="#757575" stroke="#757575" points="1458.02,-854.79 1468.27,-852.11 1458.58,-847.81 1458.02,-854.79"/>
</g>
<!-- hook/useBoolean.tsx -->
<g id="node22" class="node">
<title>hook/useBoolean.tsx</title>
<path fill="none" stroke="#cfffac" d="M2118.83,-605.77C2118.83,-605.77 1985.17,-605.77 1985.17,-605.77 1981.33,-605.77 1977.5,-601.94 1977.5,-598.1 1977.5,-598.1 1977.5,-590.44 1977.5,-590.44 1977.5,-586.6 1981.33,-582.77 1985.17,-582.77 1985.17,-582.77 2118.83,-582.77 2118.83,-582.77 2122.67,-582.77 2126.5,-586.6 2126.5,-590.44 2126.5,-590.44 2126.5,-598.1 2126.5,-598.1 2126.5,-601.94 2122.67,-605.77 2118.83,-605.77"/>
<text text-anchor="middle" x="2052" y="-590.57" font-family="Arial" font-size="14.00" fill="#cfffac">hook/useBoolean.tsx</text>
</g>
<!-- component/Dashboard/DashboardHeader/SelectRealTimeRangeArea.tsx&#45;&gt;hook/useBoolean.tsx -->
<g id="edge20" class="edge">
<title>component/Dashboard/DashboardHeader/SelectRealTimeRangeArea.tsx&#45;&gt;hook/useBoolean.tsx</title>
<path fill="none" stroke="#757575" d="M1739.52,-764.35C1756.47,-757.5 1772.35,-748.36 1786,-736.27 1828.33,-698.8 1778.24,-650.06 1822,-614.27 1865.13,-579 1929.34,-576.25 1978.8,-581.04"/>
<polygon fill="#757575" stroke="#757575" points="1978.24,-584.5 1988.56,-582.12 1979.01,-577.55 1978.24,-584.5"/>
</g>
<!-- hook/useOutsideClick.tsx -->
<g id="node23" class="node">
<title>hook/useOutsideClick.tsx</title>
<path fill="none" stroke="#cfffac" d="M2132.33,-808.77C2132.33,-808.77 1971.67,-808.77 1971.67,-808.77 1967.83,-808.77 1964,-804.94 1964,-801.1 1964,-801.1 1964,-793.44 1964,-793.44 1964,-789.6 1967.83,-785.77 1971.67,-785.77 1971.67,-785.77 2132.33,-785.77 2132.33,-785.77 2136.17,-785.77 2140,-789.6 2140,-793.44 2140,-793.44 2140,-801.1 2140,-801.1 2140,-804.94 2136.17,-808.77 2132.33,-808.77"/>
<text text-anchor="middle" x="2052" y="-793.57" font-family="Arial" font-size="14.00" fill="#cfffac">hook/useOutsideClick.tsx</text>
</g>
<!-- component/Dashboard/DashboardHeader/SelectRealTimeRangeArea.tsx&#45;&gt;hook/useOutsideClick.tsx -->
<g id="edge21" class="edge">
<title>component/Dashboard/DashboardHeader/SelectRealTimeRangeArea.tsx&#45;&gt;hook/useOutsideClick.tsx</title>
<path fill="none" stroke="#757575" d="M1786.19,-786.25C1844.92,-788.69 1904.55,-791.17 1952.32,-793.16"/>
<polygon fill="#757575" stroke="#757575" points="1951.93,-796.65 1962.06,-793.57 1952.22,-789.66 1951.93,-796.65"/>
</g>
<!-- component/Dashboard/DashboardHeader/RealTime.tsx -->
<g id="node24" class="node">
<title>component/Dashboard/DashboardHeader/RealTime.tsx</title>
<path fill="none" stroke="#cfffac" d="M2228.33,-849.77C2228.33,-849.77 1875.67,-849.77 1875.67,-849.77 1871.83,-849.77 1868,-845.94 1868,-842.1 1868,-842.1 1868,-834.44 1868,-834.44 1868,-830.6 1871.83,-826.77 1875.67,-826.77 1875.67,-826.77 2228.33,-826.77 2228.33,-826.77 2232.17,-826.77 2236,-830.6 2236,-834.44 2236,-834.44 2236,-842.1 2236,-842.1 2236,-845.94 2232.17,-849.77 2228.33,-849.77"/>
<text text-anchor="middle" x="2052" y="-834.57" font-family="Arial" font-size="14.00" fill="#cfffac">component/Dashboard/DashboardHeader/RealTime.tsx</text>
</g>
<!-- component/Dashboard/DashboardHeader/SelectRealTimeRangeArea.tsx&#45;&gt;component/Dashboard/DashboardHeader/RealTime.tsx -->
<g id="edge18" class="edge">
<title>component/Dashboard/DashboardHeader/SelectRealTimeRangeArea.tsx&#45;&gt;component/Dashboard/DashboardHeader/RealTime.tsx</title>
<path fill="none" stroke="#757575" d="M1751.84,-788.22C1763.5,-790.77 1774.96,-793.76 1786,-797.27 1803.65,-802.88 1804.35,-812.66 1822,-818.27 1833.21,-821.83 1844.88,-824.84 1856.74,-827.37"/>
<polygon fill="#757575" stroke="#757575" points="1855.71,-830.73 1866.21,-829.27 1857.09,-823.87 1855.71,-830.73"/>
</g>
<!-- component/Dashboard/DashboardHeader/SelectRealTimeListItem.tsx -->
<g id="node25" class="node">
<title>component/Dashboard/DashboardHeader/SelectRealTimeListItem.tsx</title>
<path fill="none" stroke="#cfffac" d="M2274.33,-890.77C2274.33,-890.77 1829.67,-890.77 1829.67,-890.77 1825.83,-890.77 1822,-886.94 1822,-883.1 1822,-883.1 1822,-875.44 1822,-875.44 1822,-871.6 1825.83,-867.77 1829.67,-867.77 1829.67,-867.77 2274.33,-867.77 2274.33,-867.77 2278.17,-867.77 2282,-871.6 2282,-875.44 2282,-875.44 2282,-883.1 2282,-883.1 2282,-886.94 2278.17,-890.77 2274.33,-890.77"/>
<text text-anchor="middle" x="2052" y="-875.57" font-family="Arial" font-size="14.00" fill="#cfffac">component/Dashboard/DashboardHeader/SelectRealTimeListItem.tsx</text>
</g>
<!-- component/Dashboard/DashboardHeader/SelectRealTimeRangeArea.tsx&#45;&gt;component/Dashboard/DashboardHeader/SelectRealTimeListItem.tsx -->
<g id="edge19" class="edge">
<title>component/Dashboard/DashboardHeader/SelectRealTimeRangeArea.tsx&#45;&gt;component/Dashboard/DashboardHeader/SelectRealTimeListItem.tsx</title>
<path fill="none" stroke="#757575" d="M1769.58,-788.13C1775.23,-790.88 1780.72,-793.91 1786,-797.27 1812.89,-814.36 1795.1,-842.19 1822,-859.27 1823.45,-860.19 1824.91,-861.08 1826.39,-861.95"/>
<polygon fill="#757575" stroke="#757575" points="1824.56,-864.94 1835.02,-866.62 1827.89,-858.79 1824.56,-864.94"/>
</g>
<!-- component/Dashboard/DashboardHeader/CurrentTime.tsx -->
<g id="node17" class="node">
<title>component/Dashboard/DashboardHeader/CurrentTime.tsx</title>
<path fill="none" stroke="#c6c5fe" d="M1730.83,-685.77C1730.83,-685.77 1360.17,-685.77 1360.17,-685.77 1356.33,-685.77 1352.5,-681.94 1352.5,-678.1 1352.5,-678.1 1352.5,-670.44 1352.5,-670.44 1352.5,-666.6 1356.33,-662.77 1360.17,-662.77 1360.17,-662.77 1730.83,-662.77 1730.83,-662.77 1734.67,-662.77 1738.5,-666.6 1738.5,-670.44 1738.5,-670.44 1738.5,-678.1 1738.5,-678.1 1738.5,-681.94 1734.67,-685.77 1730.83,-685.77"/>
<text text-anchor="middle" x="1545.5" y="-670.57" font-family="Arial" font-size="14.00" fill="#c6c5fe">component/Dashboard/DashboardHeader/CurrentTime.tsx</text>
</g>
<!-- component/Dashboard/DashboardHeader/TimeBlock.tsx&#45;&gt;component/Dashboard/DashboardHeader/CurrentTime.tsx -->
<g id="edge22" class="edge">
<title>component/Dashboard/DashboardHeader/TimeBlock.tsx&#45;&gt;component/Dashboard/DashboardHeader/CurrentTime.tsx</title>
<path fill="none" stroke="#757575" d="M1189.27,-702.3C1249.83,-697.52 1319.68,-692.01 1381.32,-687.14"/>
<polygon fill="#757575" stroke="#757575" points="1381.53,-690.64 1391.22,-686.36 1380.98,-683.66 1381.53,-690.64"/>
</g>
<!-- component/Dashboard/DashboardHeader/DatePickerArea.tsx -->
<g id="node20" class="node">
<title>component/Dashboard/DashboardHeader/DatePickerArea.tsx</title>
<path fill="none" stroke="#c6c5fe" d="M1741.33,-726.77C1741.33,-726.77 1349.67,-726.77 1349.67,-726.77 1345.83,-726.77 1342,-722.94 1342,-719.1 1342,-719.1 1342,-711.44 1342,-711.44 1342,-707.6 1345.83,-703.77 1349.67,-703.77 1349.67,-703.77 1741.33,-703.77 1741.33,-703.77 1745.17,-703.77 1749,-707.6 1749,-711.44 1749,-711.44 1749,-719.1 1749,-719.1 1749,-722.94 1745.17,-726.77 1741.33,-726.77"/>
<text text-anchor="middle" x="1545.5" y="-711.57" font-family="Arial" font-size="14.00" fill="#c6c5fe">component/Dashboard/DashboardHeader/DatePickerArea.tsx</text>
</g>
<!-- component/Dashboard/DashboardHeader/TimeBlock.tsx&#45;&gt;component/Dashboard/DashboardHeader/DatePickerArea.tsx -->
<g id="edge23" class="edge">
<title>component/Dashboard/DashboardHeader/TimeBlock.tsx&#45;&gt;component/Dashboard/DashboardHeader/DatePickerArea.tsx</title>
<path fill="none" stroke="#757575" d="M1223.77,-714.64C1258.43,-714.71 1294.91,-714.78 1330.33,-714.85"/>
<polygon fill="#757575" stroke="#757575" points="1330.27,-718.35 1340.28,-714.87 1330.29,-711.35 1330.27,-718.35"/>
</g>
<!-- store/DashboardProvider.tsx&#45;&gt;common/date.ts -->
<g id="edge70" class="edge">
<title>store/DashboardProvider.tsx&#45;&gt;common/date.ts</title>
<path fill="none" stroke="#757575" d="M2150.73,-553.27C2232.03,-553.27 2345.77,-553.27 2418.3,-553.27"/>
<polygon fill="#757575" stroke="#757575" points="2418.06,-556.77 2428.06,-553.27 2418.06,-549.77 2418.06,-556.77"/>
</g>
<!-- store/WidgetPropsSettingModalProvider.tsx&#45;&gt;hook/useBoolean.tsx -->
<g id="edge71" class="edge">
<title>store/WidgetPropsSettingModalProvider.tsx&#45;&gt;hook/useBoolean.tsx</title>
<path fill="none" stroke="#757575" d="M1692.76,-567.29C1781.46,-573.97 1891.54,-582.26 1966.09,-587.87"/>
<polygon fill="#757575" stroke="#757575" points="1965.54,-591.34 1975.77,-588.6 1966.06,-584.36 1965.54,-591.34"/>
</g>
<!-- hook/useCurrentTime.tsx -->
<g id="node18" class="node">
<title>hook/useCurrentTime.tsx</title>
<path fill="none" stroke="#cfffac" d="M2131.83,-646.77C2131.83,-646.77 1972.17,-646.77 1972.17,-646.77 1968.33,-646.77 1964.5,-642.94 1964.5,-639.1 1964.5,-639.1 1964.5,-631.44 1964.5,-631.44 1964.5,-627.6 1968.33,-623.77 1972.17,-623.77 1972.17,-623.77 2131.83,-623.77 2131.83,-623.77 2135.67,-623.77 2139.5,-627.6 2139.5,-631.44 2139.5,-631.44 2139.5,-639.1 2139.5,-639.1 2139.5,-642.94 2135.67,-646.77 2131.83,-646.77"/>
<text text-anchor="middle" x="2052" y="-631.57" font-family="Arial" font-size="14.00" fill="#cfffac">hook/useCurrentTime.tsx</text>
</g>
<!-- component/Dashboard/DashboardHeader/CurrentTime.tsx&#45;&gt;hook/useCurrentTime.tsx -->
<g id="edge9" class="edge">
<title>component/Dashboard/DashboardHeader/CurrentTime.tsx&#45;&gt;hook/useCurrentTime.tsx</title>
<path fill="none" stroke="#757575" d="M1701.64,-662.28C1783.55,-655.95 1881.59,-648.37 1952.93,-642.85"/>
<polygon fill="#757575" stroke="#757575" points="1952.94,-646.36 1962.64,-642.1 1952.4,-639.38 1952.94,-646.36"/>
</g>
<!-- component/Dashboard/DashboardHeader/DateBox.tsx -->
<g id="node19" class="node">
<title>component/Dashboard/DashboardHeader/DateBox.tsx</title>
<path fill="none" stroke="#cfffac" d="M2225.33,-726.77C2225.33,-726.77 1878.67,-726.77 1878.67,-726.77 1874.83,-726.77 1871,-722.94 1871,-719.1 1871,-719.1 1871,-711.44 1871,-711.44 1871,-707.6 1874.83,-703.77 1878.67,-703.77 1878.67,-703.77 2225.33,-703.77 2225.33,-703.77 2229.17,-703.77 2233,-707.6 2233,-711.44 2233,-711.44 2233,-719.1 2233,-719.1 2233,-722.94 2229.17,-726.77 2225.33,-726.77"/>
<text text-anchor="middle" x="2052" y="-711.57" font-family="Arial" font-size="14.00" fill="#cfffac">component/Dashboard/DashboardHeader/DateBox.tsx</text>
</g>
<!-- component/Dashboard/DashboardHeader/DatePickerArea.tsx&#45;&gt;common/date.ts -->
<g id="edge10" class="edge">
<title>component/Dashboard/DashboardHeader/DatePickerArea.tsx&#45;&gt;common/date.ts</title>
<path fill="none" stroke="#757575" d="M1705.46,-703.27C1917.56,-687.16 2268.26,-660.09 2282,-656.27 2350.38,-637.25 2423.02,-595.22 2461.27,-571.14"/>
<polygon fill="#757575" stroke="#757575" points="2462.84,-574.29 2469.4,-565.96 2459.08,-568.39 2462.84,-574.29"/>
</g>
<!-- component/Dashboard/DashboardHeader/DatePickerArea.tsx&#45;&gt;store/DashboardProvider.tsx -->
<g id="edge15" class="edge">
<title>component/Dashboard/DashboardHeader/DatePickerArea.tsx&#45;&gt;store/DashboardProvider.tsx</title>
<path fill="none" stroke="#757575" d="M1603.97,-727.25C1657.14,-734.8 1735.37,-736.51 1786,-695.27 1829.83,-659.57 1778.24,-609.06 1822,-573.27 1865.13,-538 1929.34,-535.25 1978.8,-540.04"/>
<polygon fill="#757575" stroke="#757575" points="1978.24,-543.5 1988.56,-541.12 1979.01,-536.55 1978.24,-543.5"/>
</g>
<!-- component/Dashboard/DashboardHeader/DatePickerArea.tsx&#45;&gt;component/Dashboard/DashboardHeader/DateBox.tsx -->
<g id="edge11" class="edge">
<title>component/Dashboard/DashboardHeader/DatePickerArea.tsx&#45;&gt;component/Dashboard/DashboardHeader/DateBox.tsx</title>
<path fill="none" stroke="#757575" d="M1749.16,-715.27C1785.53,-715.27 1823.33,-715.27 1859.38,-715.27"/>
<polygon fill="#757575" stroke="#757575" points="1859,-718.77 1869,-715.27 1859,-711.77 1859,-718.77"/>
</g>
<!-- component/common/DatePicker.tsx -->
<g id="node21" class="node">
<title>component/common/DatePicker.tsx</title>
<path fill="none" stroke="#c6c5fe" d="M2165.33,-767.77C2165.33,-767.77 1938.67,-767.77 1938.67,-767.77 1934.83,-767.77 1931,-763.94 1931,-760.1 1931,-760.1 1931,-752.44 1931,-752.44 1931,-748.6 1934.83,-744.77 1938.67,-744.77 1938.67,-744.77 2165.33,-744.77 2165.33,-744.77 2169.17,-744.77 2173,-748.6 2173,-752.44 2173,-752.44 2173,-760.1 2173,-760.1 2173,-763.94 2169.17,-767.77 2165.33,-767.77"/>
<text text-anchor="middle" x="2052" y="-752.57" font-family="Arial" font-size="14.00" fill="#c6c5fe">component/common/DatePicker.tsx</text>
</g>
<!-- component/Dashboard/DashboardHeader/DatePickerArea.tsx&#45;&gt;component/common/DatePicker.tsx -->
<g id="edge12" class="edge">
<title>component/Dashboard/DashboardHeader/DatePickerArea.tsx&#45;&gt;component/common/DatePicker.tsx</title>
<path fill="none" stroke="#757575" d="M1694.12,-727.27C1765.46,-733.07 1850.38,-739.97 1919.48,-745.58"/>
<polygon fill="#757575" stroke="#757575" points="1919.11,-749.06 1929.36,-746.38 1919.67,-742.09 1919.11,-749.06"/>
</g>
<!-- component/Dashboard/DashboardHeader/DatePickerArea.tsx&#45;&gt;hook/useBoolean.tsx -->
<g id="edge13" class="edge">
<title>component/Dashboard/DashboardHeader/DatePickerArea.tsx&#45;&gt;hook/useBoolean.tsx</title>
<path fill="none" stroke="#757575" d="M1617.14,-727.25C1668.58,-732.02 1737.45,-729.78 1786,-695.27 1818.11,-672.45 1789.93,-637.16 1822,-614.27 1863.04,-584.98 1919.34,-579.73 1965.85,-581.92"/>
<polygon fill="#757575" stroke="#757575" points="1965.44,-585.41 1975.63,-582.52 1965.86,-578.42 1965.44,-585.41"/>
</g>
<!-- component/Dashboard/DashboardHeader/DatePickerArea.tsx&#45;&gt;hook/useOutsideClick.tsx -->
<g id="edge14" class="edge">
<title>component/Dashboard/DashboardHeader/DatePickerArea.tsx&#45;&gt;hook/useOutsideClick.tsx</title>
<path fill="none" stroke="#757575" d="M1666.84,-727.27C1705.65,-733.4 1748.34,-742.57 1786,-756.27 1803.41,-762.6 1804.35,-771.66 1822,-777.27 1863.46,-790.44 1911.13,-796.02 1952.21,-798.09"/>
<polygon fill="#757575" stroke="#757575" points="1951.95,-801.58 1962.09,-798.52 1952.25,-794.59 1951.95,-801.58"/>
</g>
<!-- component/common/DatePicker/DatePickerTitle.tsx -->
<g id="node44" class="node">
<title>component/common/DatePicker/DatePickerTitle.tsx</title>
<path fill="none" stroke="#c6c5fe" d="M2653.33,-807.77C2653.33,-807.77 2325.67,-807.77 2325.67,-807.77 2321.83,-807.77 2318,-803.94 2318,-800.1 2318,-800.1 2318,-792.44 2318,-792.44 2318,-788.6 2321.83,-784.77 2325.67,-784.77 2325.67,-784.77 2653.33,-784.77 2653.33,-784.77 2657.17,-784.77 2661,-788.6 2661,-792.44 2661,-792.44 2661,-800.1 2661,-800.1 2661,-803.94 2657.17,-807.77 2653.33,-807.77"/>
<text text-anchor="middle" x="2489.5" y="-792.57" font-family="Arial" font-size="14.00" fill="#c6c5fe">component/common/DatePicker/DatePickerTitle.tsx</text>
</g>
<!-- component/common/DatePicker.tsx&#45;&gt;component/common/DatePicker/DatePickerTitle.tsx -->
<g id="edge53" class="edge">
<title>component/common/DatePicker.tsx&#45;&gt;component/common/DatePicker/DatePickerTitle.tsx</title>
<path fill="none" stroke="#757575" d="M2173.33,-767.3C2208.37,-770.51 2246.72,-774.03 2282,-777.27 2302.99,-779.2 2325.18,-781.24 2346.92,-783.24"/>
<polygon fill="#757575" stroke="#757575" points="2346.45,-786.71 2356.73,-784.14 2347.1,-779.74 2346.45,-786.71"/>
</g>
<!-- component/common/DatePicker/ListPicker.tsx -->
<g id="node45" class="node">
<title>component/common/DatePicker/ListPicker.tsx</title>
<path fill="none" stroke="#c6c5fe" d="M2635.83,-727.77C2635.83,-727.77 2343.17,-727.77 2343.17,-727.77 2339.33,-727.77 2335.5,-723.94 2335.5,-720.1 2335.5,-720.1 2335.5,-712.44 2335.5,-712.44 2335.5,-708.6 2339.33,-704.77 2343.17,-704.77 2343.17,-704.77 2635.83,-704.77 2635.83,-704.77 2639.67,-704.77 2643.5,-708.6 2643.5,-712.44 2643.5,-712.44 2643.5,-720.1 2643.5,-720.1 2643.5,-723.94 2639.67,-727.77 2635.83,-727.77"/>
<text text-anchor="middle" x="2489.5" y="-712.57" font-family="Arial" font-size="14.00" fill="#c6c5fe">component/common/DatePicker/ListPicker.tsx</text>
</g>
<!-- component/common/DatePicker.tsx&#45;&gt;component/common/DatePicker/ListPicker.tsx -->
<g id="edge54" class="edge">
<title>component/common/DatePicker.tsx&#45;&gt;component/common/DatePicker/ListPicker.tsx</title>
<path fill="none" stroke="#757575" d="M2173.35,-745.97C2208.39,-742.92 2246.73,-739.52 2282,-736.27 2305.79,-734.08 2331.12,-731.68 2355.59,-729.33"/>
<polygon fill="#757575" stroke="#757575" points="2355.64,-732.84 2365.26,-728.4 2354.97,-725.87 2355.64,-732.84"/>
</g>
<!-- types/common.d.ts -->
<g id="node46" class="node">
<title>types/common.d.ts</title>
<path fill="none" stroke="#cfffac" d="M2926.33,-767.77C2926.33,-767.77 2804.67,-767.77 2804.67,-767.77 2800.83,-767.77 2797,-763.94 2797,-760.1 2797,-760.1 2797,-752.44 2797,-752.44 2797,-748.6 2800.83,-744.77 2804.67,-744.77 2804.67,-744.77 2926.33,-744.77 2926.33,-744.77 2930.17,-744.77 2934,-748.6 2934,-752.44 2934,-752.44 2934,-760.1 2934,-760.1 2934,-763.94 2930.17,-767.77 2926.33,-767.77"/>
<text text-anchor="middle" x="2865.5" y="-752.57" font-family="Arial" font-size="14.00" fill="#cfffac">types/common.d.ts</text>
</g>
<!-- component/common/DatePicker.tsx&#45;&gt;types/common.d.ts -->
<g id="edge55" class="edge">
<title>component/common/DatePicker.tsx&#45;&gt;types/common.d.ts</title>
<path fill="none" stroke="#757575" d="M2173.18,-756.27C2341.46,-756.27 2642.68,-756.27 2785.37,-756.27"/>
<polygon fill="#757575" stroke="#757575" points="2785.1,-759.77 2795.1,-756.27 2785.1,-752.77 2785.1,-759.77"/>
</g>
<!-- component/Widget/Widget.tsx -->
<g id="node26" class="node">
<title>component/Widget/Widget.tsx</title>
<path fill="none" stroke="#c6c5fe" d="M700.33,-451.77C700.33,-451.77 506.67,-451.77 506.67,-451.77 502.83,-451.77 499,-447.94 499,-444.1 499,-444.1 499,-436.44 499,-436.44 499,-432.6 502.83,-428.77 506.67,-428.77 506.67,-428.77 700.33,-428.77 700.33,-428.77 704.17,-428.77 708,-432.6 708,-436.44 708,-436.44 708,-444.1 708,-444.1 708,-447.94 704.17,-451.77 700.33,-451.77"/>
<text text-anchor="middle" x="603.5" y="-436.57" font-family="Arial" font-size="14.00" fill="#c6c5fe">component/Widget/Widget.tsx</text>
</g>
<!-- component/Widget/Widget.tsx&#45;&gt;hook/useBoolean.tsx -->
<g id="edge28" class="edge">
<title>component/Widget/Widget.tsx&#45;&gt;hook/useBoolean.tsx</title>
<path fill="none" stroke="#757575" d="M616.14,-452.22C644.83,-480.73 722.56,-552.27 804,-578.27 1020.61,-647.42 1721.23,-613.87 1965.8,-599.59"/>
<polygon fill="#757575" stroke="#757575" points="1965.81,-603.1 1975.59,-599.02 1965.4,-596.11 1965.81,-603.1"/>
</g>
<!-- component/Widget/WidgetButtons.tsx -->
<g id="node27" class="node">
<title>component/Widget/WidgetButtons.tsx</title>
<path fill="none" stroke="#c6c5fe" d="M1157.33,-569.77C1157.33,-569.77 915.67,-569.77 915.67,-569.77 911.83,-569.77 908,-565.94 908,-562.1 908,-562.1 908,-554.44 908,-554.44 908,-550.6 911.83,-546.77 915.67,-546.77 915.67,-546.77 1157.33,-546.77 1157.33,-546.77 1161.17,-546.77 1165,-550.6 1165,-554.44 1165,-554.44 1165,-562.1 1165,-562.1 1165,-565.94 1161.17,-569.77 1157.33,-569.77"/>
<text text-anchor="middle" x="1036.5" y="-554.57" font-family="Arial" font-size="14.00" fill="#c6c5fe">component/Widget/WidgetButtons.tsx</text>
</g>
<!-- component/Widget/Widget.tsx&#45;&gt;component/Widget/WidgetButtons.tsx -->
<g id="edge24" class="edge">
<title>component/Widget/Widget.tsx&#45;&gt;component/Widget/WidgetButtons.tsx</title>
<path fill="none" stroke="#757575" d="M624.63,-452.22C659.72,-472.42 734.93,-513.01 804,-532.27 833.41,-540.47 865.6,-546.1 896.37,-549.95"/>
<polygon fill="#757575" stroke="#757575" points="895.79,-553.41 906.14,-551.11 896.62,-546.46 895.79,-553.41"/>
</g>
<!-- component/Widget/WidgetCallCycleSettingModal.tsx -->
<g id="node28" class="node">
<title>component/Widget/WidgetCallCycleSettingModal.tsx</title>
<path fill="none" stroke="#c6c5fe" d="M1204.33,-308.77C1204.33,-308.77 868.67,-308.77 868.67,-308.77 864.83,-308.77 861,-304.94 861,-301.1 861,-301.1 861,-293.44 861,-293.44 861,-289.6 864.83,-285.77 868.67,-285.77 868.67,-285.77 1204.33,-285.77 1204.33,-285.77 1208.17,-285.77 1212,-289.6 1212,-293.44 1212,-293.44 1212,-301.1 1212,-301.1 1212,-304.94 1208.17,-308.77 1204.33,-308.77"/>
<text text-anchor="middle" x="1036.5" y="-293.57" font-family="Arial" font-size="14.00" fill="#c6c5fe">component/Widget/WidgetCallCycleSettingModal.tsx</text>
</g>
<!-- component/Widget/Widget.tsx&#45;&gt;component/Widget/WidgetCallCycleSettingModal.tsx -->
<g id="edge25" class="edge">
<title>component/Widget/Widget.tsx&#45;&gt;component/Widget/WidgetCallCycleSettingModal.tsx</title>
<path fill="none" stroke="#757575" d="M708.35,-442.91C729.67,-439.26 750.81,-432.13 768,-419.27 799.87,-395.42 772.66,-361.8 804,-337.27 817.83,-326.45 833.56,-318.13 850.16,-311.79"/>
<polygon fill="#757575" stroke="#757575" points="850.91,-315.23 859.16,-308.59 848.57,-308.64 850.91,-315.23"/>
</g>
<!-- component/Widget/WidgetChart.tsx -->
<g id="node29" class="node">
<title>component/Widget/WidgetChart.tsx</title>
<path fill="none" stroke="#c6c5fe" d="M1149.83,-206.77C1149.83,-206.77 923.17,-206.77 923.17,-206.77 919.33,-206.77 915.5,-202.94 915.5,-199.1 915.5,-199.1 915.5,-191.44 915.5,-191.44 915.5,-187.6 919.33,-183.77 923.17,-183.77 923.17,-183.77 1149.83,-183.77 1149.83,-183.77 1153.67,-183.77 1157.5,-187.6 1157.5,-191.44 1157.5,-191.44 1157.5,-199.1 1157.5,-199.1 1157.5,-202.94 1153.67,-206.77 1149.83,-206.77"/>
<text text-anchor="middle" x="1036.5" y="-191.57" font-family="Arial" font-size="14.00" fill="#c6c5fe">component/Widget/WidgetChart.tsx</text>
</g>
<!-- component/Widget/Widget.tsx&#45;&gt;component/Widget/WidgetChart.tsx -->
<g id="edge26" class="edge">
<title>component/Widget/Widget.tsx&#45;&gt;component/Widget/WidgetChart.tsx</title>
<path fill="none" stroke="#757575" d="M708.35,-445.28C730.16,-441.63 751.52,-433.9 768,-419.27 817.01,-375.76 759.79,-324.65 804,-276.27 836.17,-241.06 884.51,-221.16 928.71,-209.91"/>
<polygon fill="#757575" stroke="#757575" points="929.47,-213.32 938.37,-207.58 927.83,-206.52 929.47,-213.32"/>
</g>
<!-- hook/Widget/useHandleWidgetApi.tsx -->
<g id="node30" class="node">
<title>hook/Widget/useHandleWidgetApi.tsx</title>
<path fill="none" stroke="#c6c5fe" d="M1157.33,-410.77C1157.33,-410.77 915.67,-410.77 915.67,-410.77 911.83,-410.77 908,-406.94 908,-403.1 908,-403.1 908,-395.44 908,-395.44 908,-391.6 911.83,-387.77 915.67,-387.77 915.67,-387.77 1157.33,-387.77 1157.33,-387.77 1161.17,-387.77 1165,-391.6 1165,-395.44 1165,-395.44 1165,-403.1 1165,-403.1 1165,-406.94 1161.17,-410.77 1157.33,-410.77"/>
<text text-anchor="middle" x="1036.5" y="-395.57" font-family="Arial" font-size="14.00" fill="#c6c5fe">hook/Widget/useHandleWidgetApi.tsx</text>
</g>
<!-- component/Widget/Widget.tsx&#45;&gt;hook/Widget/useHandleWidgetApi.tsx -->
<g id="edge27" class="edge">
<title>component/Widget/Widget.tsx&#45;&gt;hook/Widget/useHandleWidgetApi.tsx</title>
<path fill="none" stroke="#757575" d="M708.26,-428.98C739.07,-425.72 772.89,-422.25 804,-419.27 833.95,-416.4 866.1,-413.51 896.63,-410.84"/>
<polygon fill="#757575" stroke="#757575" points="896.63,-414.36 906.29,-410 896.02,-407.38 896.63,-414.36"/>
</g>
<!-- component/Widget/WidgetButtons.tsx&#45;&gt;store/WidgetPropsSettingModalProvider.tsx -->
<g id="edge29" class="edge">
<title>component/Widget/WidgetButtons.tsx&#45;&gt;store/WidgetPropsSettingModalProvider.tsx</title>
<path fill="none" stroke="#757575" d="M1165.44,-557.77C1232.68,-557.5 1315.7,-557.17 1386.89,-556.89"/>
<polygon fill="#757575" stroke="#757575" points="1386.71,-560.39 1396.69,-556.85 1386.68,-553.39 1386.71,-560.39"/>
</g>
<!-- store/WidgetProvider.tsx -->
<g id="node31" class="node">
<title>store/WidgetProvider.tsx</title>
<path fill="none" stroke="#c6c5fe" d="M1624.33,-526.77C1624.33,-526.77 1466.67,-526.77 1466.67,-526.77 1462.83,-526.77 1459,-522.94 1459,-519.1 1459,-519.1 1459,-511.44 1459,-511.44 1459,-507.6 1462.83,-503.77 1466.67,-503.77 1466.67,-503.77 1624.33,-503.77 1624.33,-503.77 1628.17,-503.77 1632,-507.6 1632,-511.44 1632,-511.44 1632,-519.1 1632,-519.1 1632,-522.94 1628.17,-526.77 1624.33,-526.77"/>
<text text-anchor="middle" x="1545.5" y="-511.57" font-family="Arial" font-size="14.00" fill="#c6c5fe">store/WidgetProvider.tsx</text>
</g>
<!-- component/Widget/WidgetButtons.tsx&#45;&gt;store/WidgetProvider.tsx -->
<g id="edge30" class="edge">
<title>component/Widget/WidgetButtons.tsx&#45;&gt;store/WidgetProvider.tsx</title>
<path fill="none" stroke="#757575" d="M1165.4,-547.21C1209.61,-543.4 1259.48,-539.13 1305,-535.27 1351.75,-531.31 1403.64,-526.97 1447.14,-523.35"/>
<polygon fill="#757575" stroke="#757575" points="1447.4,-526.84 1457.08,-522.52 1446.82,-519.86 1447.4,-526.84"/>
</g>
<!-- component/Widget/WidgetCallCycleSettingModal.tsx&#45;&gt;common/widget.ts -->
<g id="edge31" class="edge">
<title>component/Widget/WidgetCallCycleSettingModal.tsx&#45;&gt;common/widget.ts</title>
<path fill="none" stroke="#757575" d="M1212.34,-304.51C1299.49,-308.12 1400.42,-312.3 1467.94,-315.1"/>
<polygon fill="#757575" stroke="#757575" points="1467.66,-318.59 1477.8,-315.51 1467.95,-311.6 1467.66,-318.59"/>
</g>
<!-- component/Widget/WidgetCallCycleSettingModal/CycleInput.tsx -->
<g id="node32" class="node">
<title>component/Widget/WidgetCallCycleSettingModal/CycleInput.tsx</title>
<path fill="none" stroke="#cfffac" d="M1748.83,-247.77C1748.83,-247.77 1342.17,-247.77 1342.17,-247.77 1338.33,-247.77 1334.5,-243.94 1334.5,-240.1 1334.5,-240.1 1334.5,-232.44 1334.5,-232.44 1334.5,-228.6 1338.33,-224.77 1342.17,-224.77 1342.17,-224.77 1748.83,-224.77 1748.83,-224.77 1752.67,-224.77 1756.5,-228.6 1756.5,-232.44 1756.5,-232.44 1756.5,-240.1 1756.5,-240.1 1756.5,-243.94 1752.67,-247.77 1748.83,-247.77"/>
<text text-anchor="middle" x="1545.5" y="-232.57" font-family="Arial" font-size="14.00" fill="#cfffac">component/Widget/WidgetCallCycleSettingModal/CycleInput.tsx</text>
</g>
<!-- component/Widget/WidgetCallCycleSettingModal.tsx&#45;&gt;component/Widget/WidgetCallCycleSettingModal/CycleInput.tsx -->
<g id="edge32" class="edge">
<title>component/Widget/WidgetCallCycleSettingModal.tsx&#45;&gt;component/Widget/WidgetCallCycleSettingModal/CycleInput.tsx</title>
<path fill="none" stroke="#757575" d="M1106.88,-285.3C1160.78,-276.32 1237.46,-264.26 1305,-256.27 1326.45,-253.73 1349.01,-251.41 1371.36,-249.31"/>
<polygon fill="#757575" stroke="#757575" points="1371.52,-252.81 1381.16,-248.4 1370.88,-245.84 1371.52,-252.81"/>
</g>
<!-- component/Widget/WidgetCallCycleSettingModal/LastCallTimeBox.tsx -->
<g id="node33" class="node">
<title>component/Widget/WidgetCallCycleSettingModal/LastCallTimeBox.tsx</title>
<path fill="none" stroke="#cfffac" d="M1769.33,-288.77C1769.33,-288.77 1321.67,-288.77 1321.67,-288.77 1317.83,-288.77 1314,-284.94 1314,-281.1 1314,-281.1 1314,-273.44 1314,-273.44 1314,-269.6 1317.83,-265.77 1321.67,-265.77 1321.67,-265.77 1769.33,-265.77 1769.33,-265.77 1773.17,-265.77 1777,-269.6 1777,-273.44 1777,-273.44 1777,-281.1 1777,-281.1 1777,-284.94 1773.17,-288.77 1769.33,-288.77"/>
<text text-anchor="middle" x="1545.5" y="-273.57" font-family="Arial" font-size="14.00" fill="#cfffac">component/Widget/WidgetCallCycleSettingModal/LastCallTimeBox.tsx</text>
</g>
<!-- component/Widget/WidgetCallCycleSettingModal.tsx&#45;&gt;component/Widget/WidgetCallCycleSettingModal/LastCallTimeBox.tsx -->
<g id="edge33" class="edge">
<title>component/Widget/WidgetCallCycleSettingModal.tsx&#45;&gt;component/Widget/WidgetCallCycleSettingModal/LastCallTimeBox.tsx</title>
<path fill="none" stroke="#757575" d="M1212.34,-290.37C1241.41,-289.23 1272.01,-288.02 1302.4,-286.82"/>
<polygon fill="#757575" stroke="#757575" points="1302.21,-290.33 1312.06,-286.44 1301.93,-283.34 1302.21,-290.33"/>
</g>
<!-- component/chart/BarChart.tsx -->
<g id="node34" class="node">
<title>component/chart/BarChart.tsx</title>
<path fill="none" stroke="#c6c5fe" d="M1639.33,-146.77C1639.33,-146.77 1451.67,-146.77 1451.67,-146.77 1447.83,-146.77 1444,-142.94 1444,-139.1 1444,-139.1 1444,-131.44 1444,-131.44 1444,-127.6 1447.83,-123.77 1451.67,-123.77 1451.67,-123.77 1639.33,-123.77 1639.33,-123.77 1643.17,-123.77 1647,-127.6 1647,-131.44 1647,-131.44 1647,-139.1 1647,-139.1 1647,-142.94 1643.17,-146.77 1639.33,-146.77"/>
<text text-anchor="middle" x="1545.5" y="-131.57" font-family="Arial" font-size="14.00" fill="#c6c5fe">component/chart/BarChart.tsx</text>
</g>
<!-- component/Widget/WidgetChart.tsx&#45;&gt;component/chart/BarChart.tsx -->
<g id="edge34" class="edge">
<title>component/Widget/WidgetChart.tsx&#45;&gt;component/chart/BarChart.tsx</title>
<path fill="none" stroke="#757575" d="M1157.77,-185.51C1193.6,-182.3 1232.92,-178.46 1269,-174.27 1331.72,-166.99 1402.21,-156.98 1456.19,-148.92"/>
<polygon fill="#757575" stroke="#757575" points="1456.58,-152.4 1465.95,-147.46 1455.54,-145.48 1456.58,-152.4"/>
</g>
<!-- component/chart/InformaticsChart.tsx -->
<g id="node35" class="node">
<title>component/chart/InformaticsChart.tsx</title>
<path fill="none" stroke="#c6c5fe" d="M1663.83,-206.77C1663.83,-206.77 1427.17,-206.77 1427.17,-206.77 1423.33,-206.77 1419.5,-202.94 1419.5,-199.1 1419.5,-199.1 1419.5,-191.44 1419.5,-191.44 1419.5,-187.6 1423.33,-183.77 1427.17,-183.77 1427.17,-183.77 1663.83,-183.77 1663.83,-183.77 1667.67,-183.77 1671.5,-187.6 1671.5,-191.44 1671.5,-191.44 1671.5,-199.1 1671.5,-199.1 1671.5,-202.94 1667.67,-206.77 1663.83,-206.77"/>
<text text-anchor="middle" x="1545.5" y="-191.57" font-family="Arial" font-size="14.00" fill="#c6c5fe">component/chart/InformaticsChart.tsx</text>
</g>
<!-- component/Widget/WidgetChart.tsx&#45;&gt;component/chart/InformaticsChart.tsx -->
<g id="edge35" class="edge">
<title>component/Widget/WidgetChart.tsx&#45;&gt;component/chart/InformaticsChart.tsx</title>
<path fill="none" stroke="#757575" d="M1157.97,-195.27C1233.06,-195.27 1329.87,-195.27 1407.82,-195.27"/>
<polygon fill="#757575" stroke="#757575" points="1407.67,-198.77 1417.67,-195.27 1407.67,-191.77 1407.67,-198.77"/>
</g>
<!-- component/chart/LineChart.tsx -->
<g id="node36" class="node">
<title>component/chart/LineChart.tsx</title>
<path fill="none" stroke="#c6c5fe" d="M1642.33,-105.77C1642.33,-105.77 1448.67,-105.77 1448.67,-105.77 1444.83,-105.77 1441,-101.94 1441,-98.1 1441,-98.1 1441,-90.44 1441,-90.44 1441,-86.6 1444.83,-82.77 1448.67,-82.77 1448.67,-82.77 1642.33,-82.77 1642.33,-82.77 1646.17,-82.77 1650,-86.6 1650,-90.44 1650,-90.44 1650,-98.1 1650,-98.1 1650,-101.94 1646.17,-105.77 1642.33,-105.77"/>
<text text-anchor="middle" x="1545.5" y="-90.57" font-family="Arial" font-size="14.00" fill="#c6c5fe">component/chart/LineChart.tsx</text>
</g>
<!-- component/Widget/WidgetChart.tsx&#45;&gt;component/chart/LineChart.tsx -->
<g id="edge36" class="edge">
<title>component/Widget/WidgetChart.tsx&#45;&gt;component/chart/LineChart.tsx</title>
<path fill="none" stroke="#757575" d="M1157.89,-205.01C1195.85,-202.88 1236.36,-194.76 1269,-174.27 1295.34,-157.74 1278.6,-130.71 1305,-114.27 1341.5,-91.55 1387.43,-83.88 1429.27,-82.82"/>
<polygon fill="#757575" stroke="#757575" points="1429.19,-86.32 1439.15,-82.71 1429.12,-79.32 1429.19,-86.32"/>
</g>
<!-- hook/Widget/useHandleWidgetApi.tsx&#45;&gt;common/api.ts -->
<g id="edge59" class="edge">
<title>hook/Widget/useHandleWidgetApi.tsx&#45;&gt;common/api.ts</title>
<path fill="none" stroke="#757575" d="M1165.44,-389.18C1265.25,-381.3 1399.82,-370.69 1478.86,-364.45"/>
<polygon fill="#757575" stroke="#757575" points="1478.9,-367.96 1488.6,-363.68 1478.35,-360.98 1478.9,-367.96"/>
</g>
<!-- hook/Widget/useHandleWidgetApi.tsx&#45;&gt;types/api.d.ts -->
<g id="edge63" class="edge">
<title>hook/Widget/useHandleWidgetApi.tsx&#45;&gt;types/api.d.ts</title>
<path fill="none" stroke="#757575" d="M1165.35,-396.62C1385.56,-392.06 1828.36,-382.88 1990.08,-379.53"/>
<polygon fill="#757575" stroke="#757575" points="1989.79,-383.04 1999.72,-379.33 1989.65,-376.04 1989.79,-383.04"/>
</g>
<!-- hook/Widget/useHandleWidgetApi.tsx&#45;&gt;common/date.ts -->
<g id="edge60" class="edge">
<title>hook/Widget/useHandleWidgetApi.tsx&#45;&gt;common/date.ts</title>
<path fill="none" stroke="#757575" d="M1165.41,-405.08C1438.45,-418.07 2070.62,-451.48 2282,-491.27 2339.79,-502.15 2404.42,-523.02 2445.73,-537.53"/>
<polygon fill="#757575" stroke="#757575" points="2444.46,-540.79 2455.05,-540.84 2446.8,-534.2 2444.46,-540.79"/>
</g>
<!-- hook/Widget/useHandleWidgetApi.tsx&#45;&gt;common/widget.ts -->
<g id="edge61" class="edge">
<title>hook/Widget/useHandleWidgetApi.tsx&#45;&gt;common/widget.ts</title>
<path fill="none" stroke="#757575" d="M1165.32,-404.5C1200.39,-401.54 1237.43,-394.08 1269,-378.27 1290.39,-367.56 1283.58,-348.9 1305,-338.27 1355.17,-313.37 1418.58,-309.09 1467.55,-310.64"/>
<polygon fill="#757575" stroke="#757575" points="1467.38,-314.14 1477.52,-311.06 1467.67,-307.14 1467.38,-314.14"/>
</g>
<!-- hook/Widget/useHandleWidgetApi.tsx&#45;&gt;store/DashboardProvider.tsx -->
<g id="edge62" class="edge">
<title>hook/Widget/useHandleWidgetApi.tsx&#45;&gt;store/DashboardProvider.tsx</title>
<path fill="none" stroke="#757575" d="M1165.42,-395.82C1200.13,-398.72 1236.95,-405.48 1269,-419.27 1288.66,-427.73 1285.35,-442.78 1305,-451.27 1502.02,-536.41 1592.81,-400.76 1786,-494.27 1806.94,-504.41 1801.07,-522.11 1822,-532.27 1858.61,-550.04 1902.37,-556.99 1941.78,-558.92"/>
<polygon fill="#757575" stroke="#757575" points="1941.41,-562.41 1951.53,-559.28 1941.67,-555.41 1941.41,-562.41"/>
</g>
<!-- types/widget.d.ts -->
<g id="node49" class="node">
<title>types/widget.d.ts</title>
<path fill="none" stroke="#cfffac" d="M2105.83,-523.77C2105.83,-523.77 1998.17,-523.77 1998.17,-523.77 1994.33,-523.77 1990.5,-519.94 1990.5,-516.1 1990.5,-516.1 1990.5,-508.44 1990.5,-508.44 1990.5,-504.6 1994.33,-500.77 1998.17,-500.77 1998.17,-500.77 2105.83,-500.77 2105.83,-500.77 2109.67,-500.77 2113.5,-504.6 2113.5,-508.44 2113.5,-508.44 2113.5,-516.1 2113.5,-516.1 2113.5,-519.94 2109.67,-523.77 2105.83,-523.77"/>
<text text-anchor="middle" x="2052" y="-508.57" font-family="Arial" font-size="14.00" fill="#cfffac">types/widget.d.ts</text>
</g>
<!-- store/WidgetProvider.tsx&#45;&gt;types/widget.d.ts -->
<g id="edge72" class="edge">
<title>store/WidgetProvider.tsx&#45;&gt;types/widget.d.ts</title>
<path fill="none" stroke="#757575" d="M1632.37,-514.76C1729.88,-514.18 1887.27,-513.24 1978.74,-512.7"/>
<polygon fill="#757575" stroke="#757575" points="1978.62,-516.2 1988.59,-512.64 1978.57,-509.2 1978.62,-516.2"/>
</g>
<!-- component/chart/BarChart.tsx&#45;&gt;common/chart.ts -->
<g id="edge42" class="edge">
<title>component/chart/BarChart.tsx&#45;&gt;common/chart.ts</title>
<path fill="none" stroke="#757575" d="M1647.38,-135.27C1745.63,-135.27 1892.48,-135.27 1979.32,-135.27"/>
<polygon fill="#757575" stroke="#757575" points="1979.14,-138.77 1989.14,-135.27 1979.13,-131.77 1979.14,-138.77"/>
</g>
<!-- component/chart/BarChart.tsx&#45;&gt;types/chart.d.ts -->
<g id="edge45" class="edge">
<title>component/chart/BarChart.tsx&#45;&gt;types/chart.d.ts</title>
<path fill="none" stroke="#757575" d="M1647.19,-143.61C1699.33,-147.67 1764.05,-152.3 1822,-155.27 2041.24,-166.51 2301.39,-172.07 2421.55,-174.2"/>
<polygon fill="#757575" stroke="#757575" points="2421.16,-177.7 2431.22,-174.37 2421.28,-170.7 2421.16,-177.7"/>
</g>
<!-- component/chart/ChartSvg.tsx -->
<g id="node41" class="node">
<title>component/chart/ChartSvg.tsx</title>
<path fill="none" stroke="#cfffac" d="M2147.33,-105.77C2147.33,-105.77 1956.67,-105.77 1956.67,-105.77 1952.83,-105.77 1949,-101.94 1949,-98.1 1949,-98.1 1949,-90.44 1949,-90.44 1949,-86.6 1952.83,-82.77 1956.67,-82.77 1956.67,-82.77 2147.33,-82.77 2147.33,-82.77 2151.17,-82.77 2155,-86.6 2155,-90.44 2155,-90.44 2155,-98.1 2155,-98.1 2155,-101.94 2151.17,-105.77 2147.33,-105.77"/>
<text text-anchor="middle" x="2052" y="-90.57" font-family="Arial" font-size="14.00" fill="#cfffac">component/chart/ChartSvg.tsx</text>
</g>
<!-- component/chart/BarChart.tsx&#45;&gt;component/chart/ChartSvg.tsx -->
<g id="edge43" class="edge">
<title>component/chart/BarChart.tsx&#45;&gt;component/chart/ChartSvg.tsx</title>
<path fill="none" stroke="#757575" d="M1647.38,-127.07C1731.13,-120.27 1850.19,-110.59 1937.3,-103.51"/>
<polygon fill="#757575" stroke="#757575" points="1937.37,-107.02 1947.06,-102.72 1936.81,-100.04 1937.37,-107.02"/>
</g>
<!-- hook/useResize.tsx -->
<g id="node42" class="node">
<title>hook/useResize.tsx</title>
<path fill="none" stroke="#cfffac" d="M2114.33,-64.77C2114.33,-64.77 1989.67,-64.77 1989.67,-64.77 1985.83,-64.77 1982,-60.94 1982,-57.1 1982,-57.1 1982,-49.44 1982,-49.44 1982,-45.6 1985.83,-41.77 1989.67,-41.77 1989.67,-41.77 2114.33,-41.77 2114.33,-41.77 2118.17,-41.77 2122,-45.6 2122,-49.44 2122,-49.44 2122,-57.1 2122,-57.1 2122,-60.94 2118.17,-64.77 2114.33,-64.77"/>
<text text-anchor="middle" x="2052" y="-49.57" font-family="Arial" font-size="14.00" fill="#cfffac">hook/useResize.tsx</text>
</g>
<!-- component/chart/BarChart.tsx&#45;&gt;hook/useResize.tsx -->
<g id="edge44" class="edge">
<title>component/chart/BarChart.tsx&#45;&gt;hook/useResize.tsx</title>
<path fill="none" stroke="#757575" d="M1647.23,-142.89C1691.87,-142.23 1743.74,-135.68 1786,-114.27 1807.63,-103.31 1800.37,-84.22 1822,-73.27 1867.46,-50.25 1924.54,-45.22 1970.34,-45.96"/>
<polygon fill="#757575" stroke="#757575" points="1970.12,-49.45 1980.21,-46.22 1970.31,-42.46 1970.12,-49.45"/>
</g>
<!-- component/chart/InformaticsChart.tsx&#45;&gt;types/chart.d.ts -->
<g id="edge47" class="edge">
<title>component/chart/InformaticsChart.tsx&#45;&gt;types/chart.d.ts</title>
<path fill="none" stroke="#757575" d="M1671.76,-195.74C1709.13,-198.54 1749.77,-204.25 1786,-215.27 1803.51,-220.6 1804.28,-230.68 1822,-235.27 2019.91,-286.55 2079.6,-264.08 2282,-235.27 2340.57,-226.93 2405.76,-205.93 2446.93,-191.13"/>
<polygon fill="#757575" stroke="#757575" points="2448,-194.46 2456.2,-187.75 2445.6,-187.89 2448,-194.46"/>
</g>
<!-- component/chart/InformaticsChart/InforMaticsBox.tsx -->
<g id="node43" class="node">
<title>component/chart/InformaticsChart/InforMaticsBox.tsx</title>
<path fill="none" stroke="#c6c5fe" d="M2219.33,-226.77C2219.33,-226.77 1884.67,-226.77 1884.67,-226.77 1880.83,-226.77 1877,-222.94 1877,-219.1 1877,-219.1 1877,-211.44 1877,-211.44 1877,-207.6 1880.83,-203.77 1884.67,-203.77 1884.67,-203.77 2219.33,-203.77 2219.33,-203.77 2223.17,-203.77 2227,-207.6 2227,-211.44 2227,-211.44 2227,-219.1 2227,-219.1 2227,-222.94 2223.17,-226.77 2219.33,-226.77"/>
<text text-anchor="middle" x="2052" y="-211.57" font-family="Arial" font-size="14.00" fill="#c6c5fe">component/chart/InformaticsChart/InforMaticsBox.tsx</text>
</g>
<!-- component/chart/InformaticsChart.tsx&#45;&gt;component/chart/InformaticsChart/InforMaticsBox.tsx -->
<g id="edge46" class="edge">
<title>component/chart/InformaticsChart.tsx&#45;&gt;component/chart/InformaticsChart/InforMaticsBox.tsx</title>
<path fill="none" stroke="#757575" d="M1671.86,-200.24C1730.34,-202.56 1801.13,-205.36 1865.63,-207.92"/>
<polygon fill="#757575" stroke="#757575" points="1865.11,-211.4 1875.24,-208.3 1865.39,-204.41 1865.11,-211.4"/>
</g>
<!-- component/chart/LineChart.tsx&#45;&gt;common/chart.ts -->
<g id="edge49" class="edge">
<title>component/chart/LineChart.tsx&#45;&gt;common/chart.ts</title>
<path fill="none" stroke="#757575" d="M1650.42,-102.72C1748.6,-110.69 1893.26,-122.45 1979.23,-129.44"/>
<polygon fill="#757575" stroke="#757575" points="1978.94,-132.93 1989.19,-130.25 1979.51,-125.95 1978.94,-132.93"/>
</g>
<!-- component/chart/LineChart.tsx&#45;&gt;types/chart.d.ts -->
<g id="edge52" class="edge">
<title>component/chart/LineChart.tsx&#45;&gt;types/chart.d.ts</title>
<path fill="none" stroke="#757575" d="M1580.85,-82.35C1687.68,-47.17 2022.39,48.84 2282,-32.27 2360.33,-56.74 2435.08,-122.51 2469.19,-155.63"/>
<polygon fill="#757575" stroke="#757575" points="2466.69,-158.08 2476.26,-162.62 2471.61,-153.1 2466.69,-158.08"/>
</g>
<!-- component/chart/LineChart.tsx&#45;&gt;component/chart/ChartSvg.tsx -->
<g id="edge50" class="edge">
<title>component/chart/LineChart.tsx&#45;&gt;component/chart/ChartSvg.tsx</title>
<path fill="none" stroke="#757575" d="M1650.42,-94.27C1733.93,-94.27 1851.07,-94.27 1937.11,-94.27"/>
<polygon fill="#757575" stroke="#757575" points="1937,-97.77 1947,-94.27 1936.99,-90.77 1937,-97.77"/>
</g>
<!-- component/chart/LineChart.tsx&#45;&gt;hook/useResize.tsx -->
<g id="edge51" class="edge">
<title>component/chart/LineChart.tsx&#45;&gt;hook/useResize.tsx</title>
<path fill="none" stroke="#757575" d="M1650.42,-85.83C1745.25,-78.12 1883.44,-66.89 1970.22,-59.84"/>
<polygon fill="#757575" stroke="#757575" points="1970.4,-63.33 1980.08,-59.03 1969.83,-56.36 1970.4,-63.33"/>
</g>
<!-- component/Widget/WidgetPropsSettingModal.tsx -->
<g id="node37" class="node">
<title>component/Widget/WidgetPropsSettingModal.tsx</title>
<path fill="none" stroke="#c6c5fe" d="M760.33,-410.77C760.33,-410.77 446.67,-410.77 446.67,-410.77 442.83,-410.77 439,-406.94 439,-403.1 439,-403.1 439,-395.44 439,-395.44 439,-391.6 442.83,-387.77 446.67,-387.77 446.67,-387.77 760.33,-387.77 760.33,-387.77 764.17,-387.77 768,-391.6 768,-395.44 768,-395.44 768,-403.1 768,-403.1 768,-406.94 764.17,-410.77 760.33,-410.77"/>
<text text-anchor="middle" x="603.5" y="-395.57" font-family="Arial" font-size="14.00" fill="#c6c5fe">component/Widget/WidgetPropsSettingModal.tsx</text>
</g>
<!-- component/Widget/WidgetPropsSettingModal.tsx&#45;&gt;store/WidgetPropsSettingModalProvider.tsx -->
<g id="edge40" class="edge">
<title>component/Widget/WidgetPropsSettingModal.tsx&#45;&gt;store/WidgetPropsSettingModalProvider.tsx</title>
<path fill="none" stroke="#757575" d="M749.82,-411.18C756.09,-413.52 762.18,-416.2 768,-419.27 789.44,-430.6 782.71,-448.66 804,-460.27 1001.65,-568.1 1081.42,-508.76 1305,-535.27 1331.41,-538.4 1359.51,-541.28 1386.83,-543.83"/>
<polygon fill="#757575" stroke="#757575" points="1386.28,-547.29 1396.56,-544.72 1386.92,-540.32 1386.28,-547.29"/>
</g>
<!-- component/Widget/WidgetPropsSettingModal/WidgetPropsButtons.tsx -->
<g id="node38" class="node">
<title>component/Widget/WidgetPropsSettingModal/WidgetPropsButtons.tsx</title>
<path fill="none" stroke="#c6c5fe" d="M1261.33,-451.77C1261.33,-451.77 811.67,-451.77 811.67,-451.77 807.83,-451.77 804,-447.94 804,-444.1 804,-444.1 804,-436.44 804,-436.44 804,-432.6 807.83,-428.77 811.67,-428.77 811.67,-428.77 1261.33,-428.77 1261.33,-428.77 1265.17,-428.77 1269,-432.6 1269,-436.44 1269,-436.44 1269,-444.1 1269,-444.1 1269,-447.94 1265.17,-451.77 1261.33,-451.77"/>
<text text-anchor="middle" x="1036.5" y="-436.57" font-family="Arial" font-size="14.00" fill="#c6c5fe">component/Widget/WidgetPropsSettingModal/WidgetPropsButtons.tsx</text>
</g>
<!-- component/Widget/WidgetPropsSettingModal.tsx&#45;&gt;component/Widget/WidgetPropsSettingModal/WidgetPropsButtons.tsx -->
<g id="edge37" class="edge">
<title>component/Widget/WidgetPropsSettingModal.tsx&#45;&gt;component/Widget/WidgetPropsSettingModal/WidgetPropsButtons.tsx</title>
<path fill="none" stroke="#757575" d="M722.1,-411.25C749.01,-413.94 777.49,-416.74 804,-419.27 831.75,-421.92 861.38,-424.67 889.86,-427.27"/>
<polygon fill="#757575" stroke="#757575" points="889.35,-430.74 899.62,-428.16 889.98,-423.77 889.35,-430.74"/>
</g>
<!-- component/Widget/WidgetPropsSettingModal/WidgetPropsList.tsx -->
<g id="node39" class="node">
<title>component/Widget/WidgetPropsSettingModal/WidgetPropsList.tsx</title>
<path fill="none" stroke="#cfffac" d="M1248.83,-165.77C1248.83,-165.77 824.17,-165.77 824.17,-165.77 820.33,-165.77 816.5,-161.94 816.5,-158.1 816.5,-158.1 816.5,-150.44 816.5,-150.44 816.5,-146.6 820.33,-142.77 824.17,-142.77 824.17,-142.77 1248.83,-142.77 1248.83,-142.77 1252.67,-142.77 1256.5,-146.6 1256.5,-150.44 1256.5,-150.44 1256.5,-158.1 1256.5,-158.1 1256.5,-161.94 1252.67,-165.77 1248.83,-165.77"/>
<text text-anchor="middle" x="1036.5" y="-150.57" font-family="Arial" font-size="14.00" fill="#cfffac">component/Widget/WidgetPropsSettingModal/WidgetPropsList.tsx</text>
</g>
<!-- component/Widget/WidgetPropsSettingModal.tsx&#45;&gt;component/Widget/WidgetPropsSettingModal/WidgetPropsList.tsx -->
<g id="edge38" class="edge">
<title>component/Widget/WidgetPropsSettingModal.tsx&#45;&gt;component/Widget/WidgetPropsSettingModal/WidgetPropsList.tsx</title>
<path fill="none" stroke="#757575" d="M610.64,-387.41C631.5,-348.54 703.95,-224.56 804,-174.27 806.6,-172.96 809.24,-171.71 811.91,-170.52"/>
<polygon fill="#757575" stroke="#757575" points="813.08,-173.82 820.98,-166.76 810.4,-167.36 813.08,-173.82"/>
</g>
<!-- hook/useGetApiList.tsx -->
<g id="node40" class="node">
<title>hook/useGetApiList.tsx</title>
<path fill="none" stroke="#c6c5fe" d="M1110.33,-369.77C1110.33,-369.77 962.67,-369.77 962.67,-369.77 958.83,-369.77 955,-365.94 955,-362.1 955,-362.1 955,-354.44 955,-354.44 955,-350.6 958.83,-346.77 962.67,-346.77 962.67,-346.77 1110.33,-346.77 1110.33,-346.77 1114.17,-346.77 1118,-350.6 1118,-354.44 1118,-354.44 1118,-362.1 1118,-362.1 1118,-365.94 1114.17,-369.77 1110.33,-369.77"/>
<text text-anchor="middle" x="1036.5" y="-354.57" font-family="Arial" font-size="14.00" fill="#c6c5fe">hook/useGetApiList.tsx</text>
</g>
<!-- component/Widget/WidgetPropsSettingModal.tsx&#45;&gt;hook/useGetApiList.tsx -->
<g id="edge39" class="edge">
<title>component/Widget/WidgetPropsSettingModal.tsx&#45;&gt;hook/useGetApiList.tsx</title>
<path fill="none" stroke="#757575" d="M714.74,-387.29C743.76,-384.24 775.05,-381.04 804,-378.27 849.8,-373.88 900.73,-369.43 943.14,-365.85"/>
<polygon fill="#757575" stroke="#757575" points="943.4,-369.34 953.07,-365.02 942.81,-362.37 943.4,-369.34"/>
</g>
<!-- component/Widget/WidgetPropsSettingModal/WidgetPropsButtons.tsx&#45;&gt;store/WidgetProvider.tsx -->
<g id="edge41" class="edge">
<title>component/Widget/WidgetPropsSettingModal/WidgetPropsButtons.tsx&#45;&gt;store/WidgetProvider.tsx</title>
<path fill="none" stroke="#757575" d="M1217.55,-452.27C1235.19,-455.88 1252.61,-460.47 1269,-466.27 1286.9,-472.61 1287.09,-482.97 1305,-489.27 1350.19,-505.17 1402.88,-512.05 1447.31,-514.79"/>
<polygon fill="#757575" stroke="#757575" points="1447.03,-518.28 1457.21,-515.34 1447.42,-511.29 1447.03,-518.28"/>
</g>
<!-- hook/useGetApiList.tsx&#45;&gt;common/api.ts -->
<g id="edge64" class="edge">
<title>hook/useGetApiList.tsx&#45;&gt;common/api.ts</title>
<path fill="none" stroke="#757575" d="M1118.4,-358.43C1218.26,-358.63 1386.2,-358.96 1478.6,-359.14"/>
<polygon fill="#757575" stroke="#757575" points="1478.51,-362.64 1488.52,-359.16 1478.53,-355.64 1478.51,-362.64"/>
</g>
<!-- component/chart/InformaticsChart/InforMaticsBox.tsx&#45;&gt;types/chart.d.ts -->
<g id="edge48" class="edge">
<title>component/chart/InformaticsChart/InforMaticsBox.tsx&#45;&gt;types/chart.d.ts</title>
<path fill="none" stroke="#757575" d="M2183.37,-203.3C2261.69,-196.1 2358.1,-187.25 2421.32,-181.44"/>
<polygon fill="#757575" stroke="#757575" points="2421.58,-184.93 2431.22,-180.53 2420.94,-177.96 2421.58,-184.93"/>
</g>
<!-- component/common/DatePicker/DatePickerTitle.tsx&#45;&gt;types/common.d.ts -->
<g id="edge56" class="edge">
<title>component/common/DatePicker/DatePickerTitle.tsx&#45;&gt;types/common.d.ts</title>
<path fill="none" stroke="#757575" d="M2602.46,-784.3C2661.3,-778 2732.03,-770.44 2785.17,-764.76"/>
<polygon fill="#757575" stroke="#757575" points="2785.5,-768.24 2795.07,-763.7 2784.75,-761.28 2785.5,-768.24"/>
</g>
<!-- component/common/DatePicker/ListPicker.tsx&#45;&gt;types/common.d.ts -->
<g id="edge58" class="edge">
<title>component/common/DatePicker/ListPicker.tsx&#45;&gt;types/common.d.ts</title>
<path fill="none" stroke="#757575" d="M2602.46,-728.24C2661.3,-734.54 2732.03,-742.1 2785.17,-747.79"/>
<polygon fill="#757575" stroke="#757575" points="2784.75,-751.26 2795.07,-748.84 2785.5,-744.3 2784.75,-751.26"/>
</g>
<!-- component/common/DatePicker/ListPickerItem.tsx -->
<g id="node47" class="node">
<title>component/common/DatePicker/ListPickerItem.tsx</title>
<path fill="none" stroke="#cfffac" d="M3026.33,-726.77C3026.33,-726.77 2704.67,-726.77 2704.67,-726.77 2700.83,-726.77 2697,-722.94 2697,-719.1 2697,-719.1 2697,-711.44 2697,-711.44 2697,-707.6 2700.83,-703.77 2704.67,-703.77 2704.67,-703.77 3026.33,-703.77 3026.33,-703.77 3030.17,-703.77 3034,-707.6 3034,-711.44 3034,-711.44 3034,-719.1 3034,-719.1 3034,-722.94 3030.17,-726.77 3026.33,-726.77"/>
<text text-anchor="middle" x="2865.5" y="-711.57" font-family="Arial" font-size="14.00" fill="#cfffac">component/common/DatePicker/ListPickerItem.tsx</text>
</g>
<!-- component/common/DatePicker/ListPicker.tsx&#45;&gt;component/common/DatePicker/ListPickerItem.tsx -->
<g id="edge57" class="edge">
<title>component/common/DatePicker/ListPicker.tsx&#45;&gt;component/common/DatePicker/ListPickerItem.tsx</title>
<path fill="none" stroke="#757575" d="M2643.97,-715.86C2657.65,-715.82 2671.58,-715.79 2685.45,-715.75"/>
<polygon fill="#757575" stroke="#757575" points="2685.05,-719.25 2695.04,-715.72 2685.03,-712.25 2685.05,-719.25"/>
</g>
<!-- page/Dashboard.tsx&#45;&gt;component/Dashboard/DashboardHeader.tsx -->
<g id="edge65" class="edge">
<title>page/Dashboard.tsx&#45;&gt;component/Dashboard/DashboardHeader.tsx</title>
<path fill="none" stroke="#757575" d="M345.79,-472.2C389.65,-510.14 526.26,-628.32 580.24,-675.01"/>
<polygon fill="#757575" stroke="#757575" points="577.74,-677.48 587.6,-681.38 582.32,-672.19 577.74,-677.48"/>
</g>
<!-- page/Dashboard.tsx&#45;&gt;component/Widget/Widget.tsx -->
<g id="edge66" class="edge">
<title>page/Dashboard.tsx&#45;&gt;component/Widget/Widget.tsx</title>
<path fill="none" stroke="#757575" d="M403.42,-454.99C429.13,-453.09 458.82,-450.89 487.3,-448.79"/>
<polygon fill="#757575" stroke="#757575" points="487.34,-452.3 497.05,-448.07 486.82,-445.31 487.34,-452.3"/>
</g>
<!-- page/Dashboard.tsx&#45;&gt;store/WidgetProvider.tsx -->
<g id="edge68" class="edge">
<title>page/Dashboard.tsx&#45;&gt;store/WidgetProvider.tsx</title>
<path fill="none" stroke="#757575" d="M403.32,-463.51C610.22,-472.89 1210.87,-500.14 1447.27,-510.86"/>
<polygon fill="#757575" stroke="#757575" points="1446.93,-514.35 1457.08,-511.31 1447.25,-507.36 1446.93,-514.35"/>
</g>
<!-- page/Dashboard.tsx&#45;&gt;component/Widget/WidgetPropsSettingModal.tsx -->
<g id="edge67" class="edge">
<title>page/Dashboard.tsx&#45;&gt;component/Widget/WidgetPropsSettingModal.tsx</title>
<path fill="none" stroke="#757575" d="M357.81,-448.33C379.13,-438.97 410.43,-426.38 439,-419.27 448.08,-417.01 457.5,-415.01 467.04,-413.22"/>
<polygon fill="#757575" stroke="#757575" points="467.55,-416.69 476.78,-411.49 466.32,-409.79 467.55,-416.69"/>
</g>
</g>
</svg>
