<?xml version="1.0" encoding="UTF-8" standalone="no"?>
<!DOCTYPE svg PUBLIC "-//W3C//DTD SVG 1.1//EN"
 "http://www.w3.org/Graphics/SVG/1.1/DTD/svg11.dtd">
<!-- Generated by graphviz version 7.1.0 (20230121.1956)
 -->
 <!--         
    ? 참고사항
    
    * Dashboard / SelectRealTimeRangeArea, DatePickerArea 상호 참조 제거
    원인
    - 공통 styledComponent 를 Dashboard에서 선언 / 하위 컴포넌트에서 사용하고 있었음.

    해결
    - 해당 컴포넌트 폴더 내부에 CommonStye.ts 선언 및 공통 syltedComponent 정의
-->

<!-- Title: G Pages: 1 -->
<svg width="2327pt" height="893pt"
 viewBox="0.00 0.00 2327.20 892.73" xmlns="http://www.w3.org/2000/svg" xmlns:xlink="http://www.w3.org/1999/xlink">
<g id="graph0" class="graph" transform="scale(1 1) rotate(0) translate(21.6 871.13)">
<title>G</title>
<polygon fill="#111111" stroke="none" points="-21.6,21.6 -21.6,-871.13 2305.6,-871.13 2305.6,21.6 -21.6,21.6"/>
<!-- App.tsx -->
<g id="node1" class="node">
<title>App.tsx</title>
<path fill="none" stroke="#c6c5fe" d="M57.33,-487C57.33,-487 7.67,-487 7.67,-487 3.83,-487 0,-483.17 0,-479.33 0,-479.33 0,-471.67 0,-471.67 0,-467.83 3.83,-464 7.67,-464 7.67,-464 57.33,-464 57.33,-464 61.17,-464 65,-467.83 65,-471.67 65,-471.67 65,-479.33 65,-479.33 65,-483.17 61.17,-487 57.33,-487"/>
<text text-anchor="middle" x="32.5" y="-471.8" font-family="Arial" font-size="14.00" fill="#c6c5fe">App.tsx</text>
</g>
<!-- router/Router.tsx -->
<g id="node2" class="node">
<title>router/Router.tsx</title>
<path fill="none" stroke="#c6c5fe" d="M215.33,-487C215.33,-487 108.67,-487 108.67,-487 104.83,-487 101,-483.17 101,-479.33 101,-479.33 101,-471.67 101,-471.67 101,-467.83 104.83,-464 108.67,-464 108.67,-464 215.33,-464 215.33,-464 219.17,-464 223,-467.83 223,-471.67 223,-471.67 223,-479.33 223,-479.33 223,-483.17 219.17,-487 215.33,-487"/>
<text text-anchor="middle" x="162" y="-471.8" font-family="Arial" font-size="14.00" fill="#c6c5fe">router/Router.tsx</text>
</g>
<!-- App.tsx&#45;&gt;router/Router.tsx -->
<g id="edge1" class="edge">
<title>App.tsx&#45;&gt;router/Router.tsx</title>
<path fill="none" stroke="#757575" d="M65.34,-475.5C72.7,-475.5 80.81,-475.5 89.12,-475.5"/>
<polygon fill="#757575" stroke="#757575" points="88.99,-479 98.99,-475.5 88.99,-472 88.99,-479"/>
</g>
<!-- page/Dashboard.tsx -->
<g id="node33" class="node">
<title>page/Dashboard.tsx</title>
<path fill="none" stroke="#c6c5fe" d="M395.33,-487C395.33,-487 266.67,-487 266.67,-487 262.83,-487 259,-483.17 259,-479.33 259,-479.33 259,-471.67 259,-471.67 259,-467.83 262.83,-464 266.67,-464 266.67,-464 395.33,-464 395.33,-464 399.17,-464 403,-467.83 403,-471.67 403,-471.67 403,-479.33 403,-479.33 403,-483.17 399.17,-487 395.33,-487"/>
<text text-anchor="middle" x="331" y="-471.8" font-family="Arial" font-size="14.00" fill="#c6c5fe">page/Dashboard.tsx</text>
</g>
<!-- router/Router.tsx&#45;&gt;page/Dashboard.tsx -->
<g id="edge53" class="edge">
<title>router/Router.tsx&#45;&gt;page/Dashboard.tsx</title>
<path fill="none" stroke="#757575" d="M223.29,-475.5C231.1,-475.5 239.21,-475.5 247.3,-475.5"/>
<polygon fill="#757575" stroke="#757575" points="247.19,-479 257.19,-475.5 247.19,-472 247.19,-479"/>
</g>
<!-- api.js -->
<g id="node3" class="node">
<title>api.js</title>
<path fill="none" stroke="#cfffac" d="M1037.83,-747C1037.83,-747 999.17,-747 999.17,-747 995.33,-747 991.5,-743.17 991.5,-739.33 991.5,-739.33 991.5,-731.67 991.5,-731.67 991.5,-727.83 995.33,-724 999.17,-724 999.17,-724 1037.83,-724 1037.83,-724 1041.67,-724 1045.5,-727.83 1045.5,-731.67 1045.5,-731.67 1045.5,-739.33 1045.5,-739.33 1045.5,-743.17 1041.67,-747 1037.83,-747"/>
<text text-anchor="middle" x="1018.5" y="-731.8" font-family="Arial" font-size="14.00" fill="#cfffac">api.js</text>
</g>
<!-- asset/image/pause.png -->
<g id="node4" class="node">
<title>asset/image/pause.png</title>
<path fill="none" stroke="#cfffac" d="M1092.83,-312C1092.83,-312 944.17,-312 944.17,-312 940.33,-312 936.5,-308.17 936.5,-304.33 936.5,-304.33 936.5,-296.67 936.5,-296.67 936.5,-292.83 940.33,-289 944.17,-289 944.17,-289 1092.83,-289 1092.83,-289 1096.67,-289 1100.5,-292.83 1100.5,-296.67 1100.5,-296.67 1100.5,-304.33 1100.5,-304.33 1100.5,-308.17 1096.67,-312 1092.83,-312"/>
<text text-anchor="middle" x="1018.5" y="-296.8" font-family="Arial" font-size="14.00" fill="#cfffac">asset/image/pause.png</text>
</g>
<!-- asset/image/play.png -->
<g id="node5" class="node">
<title>asset/image/play.png</title>
<path fill="none" stroke="#cfffac" d="M1086.33,-271C1086.33,-271 950.67,-271 950.67,-271 946.83,-271 943,-267.17 943,-263.33 943,-263.33 943,-255.67 943,-255.67 943,-251.83 946.83,-248 950.67,-248 950.67,-248 1086.33,-248 1086.33,-248 1090.17,-248 1094,-251.83 1094,-255.67 1094,-255.67 1094,-263.33 1094,-263.33 1094,-267.17 1090.17,-271 1086.33,-271"/>
<text text-anchor="middle" x="1018.5" y="-255.8" font-family="Arial" font-size="14.00" fill="#cfffac">asset/image/play.png</text>
</g>
<!-- common/chart.ts -->
<g id="node6" class="node">
<title>common/chart.ts</title>
<path fill="none" stroke="#c6c5fe" d="M1578.33,-741C1578.33,-741 1471.67,-741 1471.67,-741 1467.83,-741 1464,-737.17 1464,-733.33 1464,-733.33 1464,-725.67 1464,-725.67 1464,-721.83 1467.83,-718 1471.67,-718 1471.67,-718 1578.33,-718 1578.33,-718 1582.17,-718 1586,-721.83 1586,-725.67 1586,-725.67 1586,-733.33 1586,-733.33 1586,-737.17 1582.17,-741 1578.33,-741"/>
<text text-anchor="middle" x="1525" y="-725.8" font-family="Arial" font-size="14.00" fill="#c6c5fe">common/chart.ts</text>
</g>
<!-- types/chart.d.ts -->
<g id="node7" class="node">
<title>types/chart.d.ts</title>
<path fill="none" stroke="#c6c5fe" d="M1993.83,-682C1993.83,-682 1896.17,-682 1896.17,-682 1892.33,-682 1888.5,-678.17 1888.5,-674.33 1888.5,-674.33 1888.5,-666.67 1888.5,-666.67 1888.5,-662.83 1892.33,-659 1896.17,-659 1896.17,-659 1993.83,-659 1993.83,-659 1997.67,-659 2001.5,-662.83 2001.5,-666.67 2001.5,-666.67 2001.5,-674.33 2001.5,-674.33 2001.5,-678.17 1997.67,-682 1993.83,-682"/>
<text text-anchor="middle" x="1945" y="-666.8" font-family="Arial" font-size="14.00" fill="#c6c5fe">types/chart.d.ts</text>
</g>
<!-- common/chart.ts&#45;&gt;types/chart.d.ts -->
<g id="edge2" class="edge">
<title>common/chart.ts&#45;&gt;types/chart.d.ts</title>
<path fill="none" stroke="#757575" d="M1586.4,-723.64C1632.64,-718.91 1697.97,-711.71 1755,-703.5 1795.78,-697.63 1841.28,-689.73 1877.42,-683.13"/>
<polygon fill="#757575" stroke="#757575" points="1877.63,-686.65 1886.83,-681.4 1876.36,-679.76 1877.63,-686.65"/>
</g>
<!-- types/widget.d.ts -->
<g id="node9" class="node">
<title>types/widget.d.ts</title>
<path fill="none" stroke="#cfffac" d="M2263.33,-504C2263.33,-504 2155.67,-504 2155.67,-504 2151.83,-504 2148,-500.17 2148,-496.33 2148,-496.33 2148,-488.67 2148,-488.67 2148,-484.83 2151.83,-481 2155.67,-481 2155.67,-481 2263.33,-481 2263.33,-481 2267.17,-481 2271,-484.83 2271,-488.67 2271,-488.67 2271,-496.33 2271,-496.33 2271,-500.17 2267.17,-504 2263.33,-504"/>
<text text-anchor="middle" x="2209.5" y="-488.8" font-family="Arial" font-size="14.00" fill="#cfffac">types/widget.d.ts</text>
</g>
<!-- types/chart.d.ts&#45;&gt;types/widget.d.ts -->
<g id="edge55" class="edge">
<title>types/chart.d.ts&#45;&gt;types/widget.d.ts</title>
<path fill="none" stroke="#757575" d="M1963.63,-658.54C2008.65,-628.02 2128.06,-547.04 2181.72,-510.66"/>
<polygon fill="#757575" stroke="#757575" points="2183.38,-513.76 2189.69,-505.25 2179.45,-507.97 2183.38,-513.76"/>
</g>
<!-- common/date.ts -->
<g id="node8" class="node">
<title>common/date.ts</title>
<path fill="none" stroke="#c6c5fe" d="M1996.83,-445C1996.83,-445 1893.17,-445 1893.17,-445 1889.33,-445 1885.5,-441.17 1885.5,-437.33 1885.5,-437.33 1885.5,-429.67 1885.5,-429.67 1885.5,-425.83 1889.33,-422 1893.17,-422 1893.17,-422 1996.83,-422 1996.83,-422 2000.67,-422 2004.5,-425.83 2004.5,-429.67 2004.5,-429.67 2004.5,-437.33 2004.5,-437.33 2004.5,-441.17 2000.67,-445 1996.83,-445"/>
<text text-anchor="middle" x="1945" y="-429.8" font-family="Arial" font-size="14.00" fill="#c6c5fe">common/date.ts</text>
</g>
<!-- common/date.ts&#45;&gt;types/widget.d.ts -->
<g id="edge3" class="edge">
<title>common/date.ts&#45;&gt;types/widget.d.ts</title>
<path fill="none" stroke="#757575" d="M1999.12,-445.44C2041.11,-454.88 2099.86,-468.08 2144.45,-478.1"/>
<polygon fill="#757575" stroke="#757575" points="2143.46,-481.47 2153.98,-480.25 2144.99,-474.64 2143.46,-481.47"/>
</g>
<!-- common/widget.ts -->
<g id="node10" class="node">
<title>common/widget.ts</title>
<path fill="none" stroke="#cfffac" d="M1583.33,-582C1583.33,-582 1466.67,-582 1466.67,-582 1462.83,-582 1459,-578.17 1459,-574.33 1459,-574.33 1459,-566.67 1459,-566.67 1459,-562.83 1462.83,-559 1466.67,-559 1466.67,-559 1583.33,-559 1583.33,-559 1587.17,-559 1591,-562.83 1591,-566.67 1591,-566.67 1591,-574.33 1591,-574.33 1591,-578.17 1587.17,-582 1583.33,-582"/>
<text text-anchor="middle" x="1525" y="-566.8" font-family="Arial" font-size="14.00" fill="#cfffac">common/widget.ts</text>
</g>
<!-- component/Dashboard/CommonStyle.ts -->
<g id="node11" class="node">
<title>component/Dashboard/CommonStyle.ts</title>
<path fill="none" stroke="#cfffac" d="M1652.33,-226C1652.33,-226 1397.67,-226 1397.67,-226 1393.83,-226 1390,-222.17 1390,-218.33 1390,-218.33 1390,-210.67 1390,-210.67 1390,-206.83 1393.83,-203 1397.67,-203 1397.67,-203 1652.33,-203 1652.33,-203 1656.17,-203 1660,-206.83 1660,-210.67 1660,-210.67 1660,-218.33 1660,-218.33 1660,-222.17 1656.17,-226 1652.33,-226"/>
<text text-anchor="middle" x="1525" y="-210.8" font-family="Arial" font-size="14.00" fill="#cfffac">component/Dashboard/CommonStyle.ts</text>
</g>
<!-- component/Dashboard/DashboardHeader.tsx -->
<g id="node12" class="node">
<title>component/Dashboard/DashboardHeader.tsx</title>
<path fill="none" stroke="#c6c5fe" d="M734.33,-271C734.33,-271 446.67,-271 446.67,-271 442.83,-271 439,-267.17 439,-263.33 439,-263.33 439,-255.67 439,-255.67 439,-251.83 442.83,-248 446.67,-248 446.67,-248 734.33,-248 734.33,-248 738.17,-248 742,-251.83 742,-255.67 742,-255.67 742,-263.33 742,-263.33 742,-267.17 738.17,-271 734.33,-271"/>
<text text-anchor="middle" x="590.5" y="-255.8" font-family="Arial" font-size="14.00" fill="#c6c5fe">component/Dashboard/DashboardHeader.tsx</text>
</g>
<!-- component/Dashboard/DashboardHeader.tsx&#45;&gt;asset/image/pause.png -->
<g id="edge4" class="edge">
<title>component/Dashboard/DashboardHeader.tsx&#45;&gt;asset/image/pause.png</title>
<path fill="none" stroke="#757575" d="M699.94,-271.49C725.53,-274.22 752.72,-277.04 778,-279.5 826.44,-284.22 880.44,-289 924.88,-292.8"/>
<polygon fill="#757575" stroke="#757575" points="924.49,-296.28 934.75,-293.64 925.09,-289.3 924.49,-296.28"/>
</g>
<!-- component/Dashboard/DashboardHeader.tsx&#45;&gt;asset/image/play.png -->
<g id="edge5" class="edge">
<title>component/Dashboard/DashboardHeader.tsx&#45;&gt;asset/image/play.png</title>
<path fill="none" stroke="#757575" d="M742.29,-259.5C805.64,-259.5 877.04,-259.5 931.23,-259.5"/>
<polygon fill="#757575" stroke="#757575" points="931.01,-263 941.01,-259.5 931.01,-256 931.01,-263"/>
</g>
<!-- component/Dashboard/DashboardHeader/CurrentTime.tsx -->
<g id="node13" class="node">
<title>component/Dashboard/DashboardHeader/CurrentTime.tsx</title>
<path fill="none" stroke="#cfffac" d="M1203.83,-189C1203.83,-189 833.17,-189 833.17,-189 829.33,-189 825.5,-185.17 825.5,-181.33 825.5,-181.33 825.5,-173.67 825.5,-173.67 825.5,-169.83 829.33,-166 833.17,-166 833.17,-166 1203.83,-166 1203.83,-166 1207.67,-166 1211.5,-169.83 1211.5,-173.67 1211.5,-173.67 1211.5,-181.33 1211.5,-181.33 1211.5,-185.17 1207.67,-189 1203.83,-189"/>
<text text-anchor="middle" x="1018.5" y="-173.8" font-family="Arial" font-size="14.00" fill="#cfffac">component/Dashboard/DashboardHeader/CurrentTime.tsx</text>
</g>
<!-- component/Dashboard/DashboardHeader.tsx&#45;&gt;component/Dashboard/DashboardHeader/CurrentTime.tsx -->
<g id="edge6" class="edge">
<title>component/Dashboard/DashboardHeader.tsx&#45;&gt;component/Dashboard/DashboardHeader/CurrentTime.tsx</title>
<path fill="none" stroke="#757575" d="M620.31,-247.53C656.46,-233.08 720.67,-209.25 778,-197.5 789.74,-195.1 801.85,-192.98 814.11,-191.11"/>
<polygon fill="#757575" stroke="#757575" points="814.52,-194.59 823.91,-189.69 813.51,-187.67 814.52,-194.59"/>
</g>
<!-- component/Dashboard/DashboardHeader/DatePickerArea.tsx -->
<g id="node14" class="node">
<title>component/Dashboard/DashboardHeader/DatePickerArea.tsx</title>
<path fill="none" stroke="#c6c5fe" d="M1214.33,-230C1214.33,-230 822.67,-230 822.67,-230 818.83,-230 815,-226.17 815,-222.33 815,-222.33 815,-214.67 815,-214.67 815,-210.83 818.83,-207 822.67,-207 822.67,-207 1214.33,-207 1214.33,-207 1218.17,-207 1222,-210.83 1222,-214.67 1222,-214.67 1222,-222.33 1222,-222.33 1222,-226.17 1218.17,-230 1214.33,-230"/>
<text text-anchor="middle" x="1018.5" y="-214.8" font-family="Arial" font-size="14.00" fill="#c6c5fe">component/Dashboard/DashboardHeader/DatePickerArea.tsx</text>
</g>
<!-- component/Dashboard/DashboardHeader.tsx&#45;&gt;component/Dashboard/DashboardHeader/DatePickerArea.tsx -->
<g id="edge7" class="edge">
<title>component/Dashboard/DashboardHeader.tsx&#45;&gt;component/Dashboard/DashboardHeader/DatePickerArea.tsx</title>
<path fill="none" stroke="#757575" d="M693.08,-247.52C720.62,-244.43 750.44,-241.2 778,-238.5 802.78,-236.07 829.02,-233.69 854.69,-231.46"/>
<polygon fill="#757575" stroke="#757575" points="854.87,-234.96 864.54,-230.61 854.27,-227.98 854.87,-234.96"/>
</g>
<!-- component/Dashboard/DashboardHeader/SelectRealTimeRangeArea.tsx -->
<g id="node15" class="node">
<title>component/Dashboard/DashboardHeader/SelectRealTimeRangeArea.tsx</title>
<path fill="none" stroke="#c6c5fe" d="M1251.33,-146C1251.33,-146 785.67,-146 785.67,-146 781.83,-146 778,-142.17 778,-138.33 778,-138.33 778,-130.67 778,-130.67 778,-126.83 781.83,-123 785.67,-123 785.67,-123 1251.33,-123 1251.33,-123 1255.17,-123 1259,-126.83 1259,-130.67 1259,-130.67 1259,-138.33 1259,-138.33 1259,-142.17 1255.17,-146 1251.33,-146"/>
<text text-anchor="middle" x="1018.5" y="-130.8" font-family="Arial" font-size="14.00" fill="#c6c5fe">component/Dashboard/DashboardHeader/SelectRealTimeRangeArea.tsx</text>
</g>
<!-- component/Dashboard/DashboardHeader.tsx&#45;&gt;component/Dashboard/DashboardHeader/SelectRealTimeRangeArea.tsx -->
<g id="edge8" class="edge">
<title>component/Dashboard/DashboardHeader.tsx&#45;&gt;component/Dashboard/DashboardHeader/SelectRealTimeRangeArea.tsx</title>
<path fill="none" stroke="#757575" d="M607.43,-247.67C638.41,-225.36 709.76,-177.47 778,-156.5 787.35,-153.63 797,-151.09 806.81,-148.87"/>
<polygon fill="#757575" stroke="#757575" points="807.42,-152.31 816.46,-146.79 805.95,-145.47 807.42,-152.31"/>
</g>
<!-- store/DashboardProvider.tsx -->
<g id="node16" class="node">
<title>store/DashboardProvider.tsx</title>
<path fill="none" stroke="#c6c5fe" d="M1615.83,-426C1615.83,-426 1434.17,-426 1434.17,-426 1430.33,-426 1426.5,-422.17 1426.5,-418.33 1426.5,-418.33 1426.5,-410.67 1426.5,-410.67 1426.5,-406.83 1430.33,-403 1434.17,-403 1434.17,-403 1615.83,-403 1615.83,-403 1619.67,-403 1623.5,-406.83 1623.5,-410.67 1623.5,-410.67 1623.5,-418.33 1623.5,-418.33 1623.5,-422.17 1619.67,-426 1615.83,-426"/>
<text text-anchor="middle" x="1525" y="-410.8" font-family="Arial" font-size="14.00" fill="#c6c5fe">store/DashboardProvider.tsx</text>
</g>
<!-- component/Dashboard/DashboardHeader.tsx&#45;&gt;store/DashboardProvider.tsx -->
<g id="edge9" class="edge">
<title>component/Dashboard/DashboardHeader.tsx&#45;&gt;store/DashboardProvider.tsx</title>
<path fill="none" stroke="#757575" d="M620.98,-271.44C657.28,-285.59 721.12,-308.75 778,-320.5 988.23,-363.92 1056.59,-292.99 1259,-364.5 1277.13,-370.91 1276.94,-381.9 1295,-388.5 1332.71,-402.29 1376.04,-409.26 1414.79,-412.64"/>
<polygon fill="#757575" stroke="#757575" points="1414.37,-416.12 1424.62,-413.42 1414.92,-409.14 1414.37,-416.12"/>
</g>
<!-- component/Dashboard/DashboardHeader/DatePickerArea.tsx&#45;&gt;common/date.ts -->
<g id="edge10" class="edge">
<title>component/Dashboard/DashboardHeader/DatePickerArea.tsx&#45;&gt;common/date.ts</title>
<path fill="none" stroke="#757575" d="M1078.79,-206.52C1131.75,-199.41 1208.53,-198.39 1259,-238.5 1299.93,-271.03 1254.23,-317.77 1295,-350.5 1375.06,-414.78 1653.5,-378.07 1755,-393.5 1798.57,-400.12 1847.21,-410.49 1884.23,-419.01"/>
<polygon fill="#757575" stroke="#757575" points="1883.33,-422.39 1893.86,-421.24 1884.91,-415.57 1883.33,-422.39"/>
</g>
<!-- component/Dashboard/DashboardHeader/DatePickerArea.tsx&#45;&gt;types/widget.d.ts -->
<g id="edge17" class="edge">
<title>component/Dashboard/DashboardHeader/DatePickerArea.tsx&#45;&gt;types/widget.d.ts</title>
<path fill="none" stroke="#757575" d="M1092.44,-206.51C1143.53,-202.14 1210.98,-204.88 1259,-238.5 1290.28,-260.4 1263.62,-294.75 1295,-316.5 1337.12,-345.7 1704.16,-344.06 1755,-350.5 1909.12,-370.03 1956.19,-351.34 2099,-412.5 2133.31,-427.19 2167.12,-454.37 2187.89,-472.93"/>
<polygon fill="#757575" stroke="#757575" points="2185.35,-475.36 2195.1,-479.52 2190.08,-470.19 2185.35,-475.36"/>
</g>
<!-- component/Dashboard/DashboardHeader/DatePickerArea.tsx&#45;&gt;component/Dashboard/CommonStyle.ts -->
<g id="edge11" class="edge">
<title>component/Dashboard/DashboardHeader/DatePickerArea.tsx&#45;&gt;component/Dashboard/CommonStyle.ts</title>
<path fill="none" stroke="#757575" d="M1222.16,-216.89C1274.39,-216.48 1329.57,-216.04 1378.27,-215.66"/>
<polygon fill="#757575" stroke="#757575" points="1378.04,-219.16 1388.01,-215.58 1377.99,-212.16 1378.04,-219.16"/>
</g>
<!-- component/Dashboard/DashboardHeader/DatePickerArea.tsx&#45;&gt;store/DashboardProvider.tsx -->
<g id="edge16" class="edge">
<title>component/Dashboard/DashboardHeader/DatePickerArea.tsx&#45;&gt;store/DashboardProvider.tsx</title>
<path fill="none" stroke="#757575" d="M1073.41,-206.56C1126.95,-198.1 1208.18,-194.88 1259,-238.5 1311.03,-283.15 1243.64,-343.08 1295,-388.5 1332.59,-421.74 1388.3,-428.66 1435.37,-427.06"/>
<polygon fill="#757575" stroke="#757575" points="1435.49,-430.56 1445.31,-426.57 1435.15,-423.56 1435.49,-430.56"/>
</g>
<!-- component/Dashboard/DashboardHeader/DateBox.tsx -->
<g id="node17" class="node">
<title>component/Dashboard/DashboardHeader/DateBox.tsx</title>
<path fill="none" stroke="#cfffac" d="M1698.33,-308C1698.33,-308 1351.67,-308 1351.67,-308 1347.83,-308 1344,-304.17 1344,-300.33 1344,-300.33 1344,-292.67 1344,-292.67 1344,-288.83 1347.83,-285 1351.67,-285 1351.67,-285 1698.33,-285 1698.33,-285 1702.17,-285 1706,-288.83 1706,-292.67 1706,-292.67 1706,-300.33 1706,-300.33 1706,-304.17 1702.17,-308 1698.33,-308"/>
<text text-anchor="middle" x="1525" y="-292.8" font-family="Arial" font-size="14.00" fill="#cfffac">component/Dashboard/DashboardHeader/DateBox.tsx</text>
</g>
<!-- component/Dashboard/DashboardHeader/DatePickerArea.tsx&#45;&gt;component/Dashboard/DashboardHeader/DateBox.tsx -->
<g id="edge12" class="edge">
<title>component/Dashboard/DashboardHeader/DatePickerArea.tsx&#45;&gt;component/Dashboard/DashboardHeader/DateBox.tsx</title>
<path fill="none" stroke="#757575" d="M1222.21,-224.89C1234.93,-228.5 1247.3,-232.98 1259,-238.5 1279.75,-248.3 1274.29,-265.62 1295,-275.5 1306.96,-281.21 1319.68,-285.79 1332.74,-289.44"/>
<polygon fill="#757575" stroke="#757575" points="1331.77,-292.8 1342.33,-291.91 1333.52,-286.03 1331.77,-292.8"/>
</g>
<!-- component/common/DatePicker.tsx -->
<g id="node18" class="node">
<title>component/common/DatePicker.tsx</title>
<path fill="none" stroke="#c6c5fe" d="M1638.33,-267C1638.33,-267 1411.67,-267 1411.67,-267 1407.83,-267 1404,-263.17 1404,-259.33 1404,-259.33 1404,-251.67 1404,-251.67 1404,-247.83 1407.83,-244 1411.67,-244 1411.67,-244 1638.33,-244 1638.33,-244 1642.17,-244 1646,-247.83 1646,-251.67 1646,-251.67 1646,-259.33 1646,-259.33 1646,-263.17 1642.17,-267 1638.33,-267"/>
<text text-anchor="middle" x="1525" y="-251.8" font-family="Arial" font-size="14.00" fill="#c6c5fe">component/common/DatePicker.tsx</text>
</g>
<!-- component/Dashboard/DashboardHeader/DatePickerArea.tsx&#45;&gt;component/common/DatePicker.tsx -->
<g id="edge13" class="edge">
<title>component/Dashboard/DashboardHeader/DatePickerArea.tsx&#45;&gt;component/common/DatePicker.tsx</title>
<path fill="none" stroke="#757575" d="M1182.95,-230.49C1250.69,-235.46 1328.22,-241.14 1392.23,-245.84"/>
<polygon fill="#757575" stroke="#757575" points="1391.87,-249.32 1402.1,-246.56 1392.38,-242.34 1391.87,-249.32"/>
</g>
<!-- hook/useBoolean.tsx -->
<g id="node19" class="node">
<title>hook/useBoolean.tsx</title>
<path fill="none" stroke="#cfffac" d="M1591.83,-185C1591.83,-185 1458.17,-185 1458.17,-185 1454.33,-185 1450.5,-181.17 1450.5,-177.33 1450.5,-177.33 1450.5,-169.67 1450.5,-169.67 1450.5,-165.83 1454.33,-162 1458.17,-162 1458.17,-162 1591.83,-162 1591.83,-162 1595.67,-162 1599.5,-165.83 1599.5,-169.67 1599.5,-169.67 1599.5,-177.33 1599.5,-177.33 1599.5,-181.17 1595.67,-185 1591.83,-185"/>
<text text-anchor="middle" x="1525" y="-169.8" font-family="Arial" font-size="14.00" fill="#cfffac">hook/useBoolean.tsx</text>
</g>
<!-- component/Dashboard/DashboardHeader/DatePickerArea.tsx&#45;&gt;hook/useBoolean.tsx -->
<g id="edge14" class="edge">
<title>component/Dashboard/DashboardHeader/DatePickerArea.tsx&#45;&gt;hook/useBoolean.tsx</title>
<path fill="none" stroke="#757575" d="M1162.34,-206.52C1194.17,-203.7 1227.75,-200.61 1259,-197.5 1275.02,-195.91 1278.98,-195.09 1295,-193.5 1342.57,-188.78 1395.77,-184.1 1438.91,-180.45"/>
<polygon fill="#757575" stroke="#757575" points="1439.04,-183.95 1448.71,-179.63 1438.45,-176.98 1439.04,-183.95"/>
</g>
<!-- hook/useOutsideClick.tsx -->
<g id="node20" class="node">
<title>hook/useOutsideClick.tsx</title>
<path fill="none" stroke="#cfffac" d="M1605.33,-144C1605.33,-144 1444.67,-144 1444.67,-144 1440.83,-144 1437,-140.17 1437,-136.33 1437,-136.33 1437,-128.67 1437,-128.67 1437,-124.83 1440.83,-121 1444.67,-121 1444.67,-121 1605.33,-121 1605.33,-121 1609.17,-121 1613,-124.83 1613,-128.67 1613,-128.67 1613,-136.33 1613,-136.33 1613,-140.17 1609.17,-144 1605.33,-144"/>
<text text-anchor="middle" x="1525" y="-128.8" font-family="Arial" font-size="14.00" fill="#cfffac">hook/useOutsideClick.tsx</text>
</g>
<!-- component/Dashboard/DashboardHeader/DatePickerArea.tsx&#45;&gt;hook/useOutsideClick.tsx -->
<g id="edge15" class="edge">
<title>component/Dashboard/DashboardHeader/DatePickerArea.tsx&#45;&gt;hook/useOutsideClick.tsx</title>
<path fill="none" stroke="#757575" d="M1222.27,-212.7C1235.05,-208.71 1247.41,-203.71 1259,-197.5 1281.58,-185.41 1272.42,-164.59 1295,-152.5 1334.32,-131.45 1382.95,-124.96 1425.27,-124.34"/>
<polygon fill="#757575" stroke="#757575" points="1425.23,-127.84 1435.22,-124.32 1425.21,-120.84 1425.23,-127.84"/>
</g>
<!-- component/Dashboard/DashboardHeader/SelectRealTimeRangeArea.tsx&#45;&gt;types/widget.d.ts -->
<g id="edge24" class="edge">
<title>component/Dashboard/DashboardHeader/SelectRealTimeRangeArea.tsx&#45;&gt;types/widget.d.ts</title>
<path fill="none" stroke="#757575" d="M1066.56,-122.57C1185.38,-94.65 1505.77,-33.15 1755,-111.5 1932.84,-167.41 1963.85,-223.09 2099,-351.5 2138.62,-389.15 2175.62,-441.83 2194.8,-470.98"/>
<polygon fill="#757575" stroke="#757575" points="2191.83,-472.83 2200.21,-479.31 2197.7,-469.01 2191.83,-472.83"/>
</g>
<!-- component/Dashboard/DashboardHeader/SelectRealTimeRangeArea.tsx&#45;&gt;component/Dashboard/CommonStyle.ts -->
<g id="edge18" class="edge">
<title>component/Dashboard/DashboardHeader/SelectRealTimeRangeArea.tsx&#45;&gt;component/Dashboard/CommonStyle.ts</title>
<path fill="none" stroke="#757575" d="M1234.12,-146.43C1242.66,-149.34 1250.99,-152.68 1259,-156.5 1279.71,-166.38 1274.29,-183.62 1295,-193.5 1320.61,-205.72 1349.64,-212.77 1378.23,-216.59"/>
<polygon fill="#757575" stroke="#757575" points="1377.74,-220.05 1388.08,-217.76 1378.57,-213.1 1377.74,-220.05"/>
</g>
<!-- component/Dashboard/DashboardHeader/SelectRealTimeRangeArea.tsx&#45;&gt;store/DashboardProvider.tsx -->
<g id="edge23" class="edge">
<title>component/Dashboard/DashboardHeader/SelectRealTimeRangeArea.tsx&#45;&gt;store/DashboardProvider.tsx</title>
<path fill="none" stroke="#757575" d="M1076.38,-122.53C1130.07,-114.79 1209.5,-113.04 1259,-156.5 1313.77,-204.59 1248.39,-260.46 1295,-316.5 1332.41,-361.47 1394.22,-386.28 1444.2,-399.68"/>
<polygon fill="#757575" stroke="#757575" points="1443.3,-403.06 1453.86,-402.15 1445.04,-396.28 1443.3,-403.06"/>
</g>
<!-- component/Dashboard/DashboardHeader/SelectRealTimeRangeArea.tsx&#45;&gt;hook/useBoolean.tsx -->
<g id="edge21" class="edge">
<title>component/Dashboard/DashboardHeader/SelectRealTimeRangeArea.tsx&#45;&gt;hook/useBoolean.tsx</title>
<path fill="none" stroke="#757575" d="M1174.64,-146.49C1261.64,-153.22 1366.83,-161.35 1438.9,-166.92"/>
<polygon fill="#757575" stroke="#757575" points="1438.43,-170.4 1448.67,-167.68 1438.97,-163.42 1438.43,-170.4"/>
</g>
<!-- component/Dashboard/DashboardHeader/SelectRealTimeRangeArea.tsx&#45;&gt;hook/useOutsideClick.tsx -->
<g id="edge22" class="edge">
<title>component/Dashboard/DashboardHeader/SelectRealTimeRangeArea.tsx&#45;&gt;hook/useOutsideClick.tsx</title>
<path fill="none" stroke="#757575" d="M1259.19,-133.55C1317.92,-133.32 1377.55,-133.08 1425.32,-132.89"/>
<polygon fill="#757575" stroke="#757575" points="1425.08,-136.39 1435.06,-132.85 1425.05,-129.39 1425.08,-136.39"/>
</g>
<!-- component/Dashboard/DashboardHeader/RealTime.tsx -->
<g id="node21" class="node">
<title>component/Dashboard/DashboardHeader/RealTime.tsx</title>
<path fill="none" stroke="#cfffac" d="M1701.33,-23C1701.33,-23 1348.67,-23 1348.67,-23 1344.83,-23 1341,-19.17 1341,-15.33 1341,-15.33 1341,-7.67 1341,-7.67 1341,-3.83 1344.83,0 1348.67,0 1348.67,0 1701.33,0 1701.33,0 1705.17,0 1709,-3.83 1709,-7.67 1709,-7.67 1709,-15.33 1709,-15.33 1709,-19.17 1705.17,-23 1701.33,-23"/>
<text text-anchor="middle" x="1525" y="-7.8" font-family="Arial" font-size="14.00" fill="#cfffac">component/Dashboard/DashboardHeader/RealTime.tsx</text>
</g>
<!-- component/Dashboard/DashboardHeader/SelectRealTimeRangeArea.tsx&#45;&gt;component/Dashboard/DashboardHeader/RealTime.tsx -->
<g id="edge19" class="edge">
<title>component/Dashboard/DashboardHeader/SelectRealTimeRangeArea.tsx&#45;&gt;component/Dashboard/DashboardHeader/RealTime.tsx</title>
<path fill="none" stroke="#757575" d="M1044.25,-122.63C1091.66,-100.5 1199.13,-53.19 1295,-31.5 1306.14,-28.98 1317.64,-26.78 1329.3,-24.84"/>
<polygon fill="#757575" stroke="#757575" points="1329.68,-28.33 1339.02,-23.31 1328.59,-21.41 1329.68,-28.33"/>
</g>
<!-- component/Dashboard/DashboardHeader/SelectRealTimeListItem.tsx -->
<g id="node22" class="node">
<title>component/Dashboard/DashboardHeader/SelectRealTimeListItem.tsx</title>
<path fill="none" stroke="#cfffac" d="M1747.33,-64C1747.33,-64 1302.67,-64 1302.67,-64 1298.83,-64 1295,-60.17 1295,-56.33 1295,-56.33 1295,-48.67 1295,-48.67 1295,-44.83 1298.83,-41 1302.67,-41 1302.67,-41 1747.33,-41 1747.33,-41 1751.17,-41 1755,-44.83 1755,-48.67 1755,-48.67 1755,-56.33 1755,-56.33 1755,-60.17 1751.17,-64 1747.33,-64"/>
<text text-anchor="middle" x="1525" y="-48.8" font-family="Arial" font-size="14.00" fill="#cfffac">component/Dashboard/DashboardHeader/SelectRealTimeListItem.tsx</text>
</g>
<!-- component/Dashboard/DashboardHeader/SelectRealTimeRangeArea.tsx&#45;&gt;component/Dashboard/DashboardHeader/SelectRealTimeListItem.tsx -->
<g id="edge20" class="edge">
<title>component/Dashboard/DashboardHeader/SelectRealTimeRangeArea.tsx&#45;&gt;component/Dashboard/DashboardHeader/SelectRealTimeListItem.tsx</title>
<path fill="none" stroke="#757575" d="M1071.56,-122.5C1126.77,-110.11 1216.66,-90.88 1295,-78.5 1325.45,-73.69 1358.31,-69.42 1389.37,-65.8"/>
<polygon fill="#757575" stroke="#757575" points="1389.69,-69.28 1399.22,-64.67 1388.89,-62.33 1389.69,-69.28"/>
</g>
<!-- store/DashboardProvider.tsx&#45;&gt;common/date.ts -->
<g id="edge54" class="edge">
<title>store/DashboardProvider.tsx&#45;&gt;common/date.ts</title>
<path fill="none" stroke="#757575" d="M1623.74,-418.94C1700.53,-422.43 1805.61,-427.21 1874.13,-430.32"/>
<polygon fill="#757575" stroke="#757575" points="1873.56,-433.8 1883.71,-430.76 1873.88,-426.81 1873.56,-433.8"/>
</g>
<!-- component/common/DatePicker/ListPicker.tsx -->
<g id="node31" class="node">
<title>component/common/DatePicker/ListPicker.tsx</title>
<path fill="none" stroke="#c6c5fe" d="M2091.33,-64C2091.33,-64 1798.67,-64 1798.67,-64 1794.83,-64 1791,-60.17 1791,-56.33 1791,-56.33 1791,-48.67 1791,-48.67 1791,-44.83 1794.83,-41 1798.67,-41 1798.67,-41 2091.33,-41 2091.33,-41 2095.17,-41 2099,-44.83 2099,-48.67 2099,-48.67 2099,-56.33 2099,-56.33 2099,-60.17 2095.17,-64 2091.33,-64"/>
<text text-anchor="middle" x="1945" y="-48.8" font-family="Arial" font-size="14.00" fill="#c6c5fe">component/common/DatePicker/ListPicker.tsx</text>
</g>
<!-- component/common/DatePicker.tsx&#45;&gt;component/common/DatePicker/ListPicker.tsx -->
<g id="edge46" class="edge">
<title>component/common/DatePicker.tsx&#45;&gt;component/common/DatePicker/ListPicker.tsx</title>
<path fill="none" stroke="#757575" d="M1646.21,-264.32C1683.31,-262.02 1722.83,-254.02 1755,-234.5 1780.29,-219.15 1771.34,-200.62 1791,-178.5 1829.95,-134.68 1884.82,-93.38 1917.17,-70.65"/>
<polygon fill="#757575" stroke="#757575" points="1918.98,-73.65 1925.2,-65.08 1914.99,-67.9 1918.98,-73.65"/>
</g>
<!-- types/datePicker.d.ts -->
<g id="node32" class="node">
<title>types/datePicker.d.ts</title>
<path fill="none" stroke="#cfffac" d="M2276.33,-134C2276.33,-134 2142.67,-134 2142.67,-134 2138.83,-134 2135,-130.17 2135,-126.33 2135,-126.33 2135,-118.67 2135,-118.67 2135,-114.83 2138.83,-111 2142.67,-111 2142.67,-111 2276.33,-111 2276.33,-111 2280.17,-111 2284,-114.83 2284,-118.67 2284,-118.67 2284,-126.33 2284,-126.33 2284,-130.17 2280.17,-134 2276.33,-134"/>
<text text-anchor="middle" x="2209.5" y="-118.8" font-family="Arial" font-size="14.00" fill="#cfffac">types/datePicker.d.ts</text>
</g>
<!-- component/common/DatePicker.tsx&#45;&gt;types/datePicker.d.ts -->
<g id="edge47" class="edge">
<title>component/common/DatePicker.tsx&#45;&gt;types/datePicker.d.ts</title>
<path fill="none" stroke="#757575" d="M1646.48,-247.88C1681.61,-244.73 1719.96,-240.4 1755,-234.5 1903.33,-209.53 2074.78,-161.95 2157.98,-137.63"/>
<polygon fill="#757575" stroke="#757575" points="2158.82,-141.03 2167.43,-134.86 2156.85,-134.32 2158.82,-141.03"/>
</g>
<!-- component/Widget.tsx -->
<g id="node23" class="node">
<title>component/Widget.tsx</title>
<path fill="none" stroke="#c6c5fe" d="M662.33,-585C662.33,-585 518.67,-585 518.67,-585 514.83,-585 511,-581.17 511,-577.33 511,-577.33 511,-569.67 511,-569.67 511,-565.83 514.83,-562 518.67,-562 518.67,-562 662.33,-562 662.33,-562 666.17,-562 670,-565.83 670,-569.67 670,-569.67 670,-577.33 670,-577.33 670,-581.17 666.17,-585 662.33,-585"/>
<text text-anchor="middle" x="590.5" y="-569.8" font-family="Arial" font-size="14.00" fill="#c6c5fe">component/Widget.tsx</text>
</g>
<!-- component/Widget.tsx&#45;&gt;api.js -->
<g id="edge25" class="edge">
<title>component/Widget.tsx&#45;&gt;api.js</title>
<path fill="none" stroke="#757575" d="M602.26,-585.43C628.8,-613.94 700.89,-685.85 778,-715.5 845.5,-741.45 931.37,-741.43 979.81,-738.71"/>
<polygon fill="#757575" stroke="#757575" points="980.01,-742.2 989.77,-738.07 979.57,-735.22 980.01,-742.2"/>
</g>
<!-- component/Widget.tsx&#45;&gt;common/date.ts -->
<g id="edge26" class="edge">
<title>component/Widget.tsx&#45;&gt;common/date.ts</title>
<path fill="none" stroke="#757575" d="M608.47,-561.62C640.08,-540.27 710.84,-496 778,-478.5 883.61,-450.99 1637.58,-437.91 1873.57,-434.46"/>
<polygon fill="#757575" stroke="#757575" points="1873.61,-437.96 1883.56,-434.31 1873.51,-430.96 1873.61,-437.96"/>
</g>
<!-- component/Widget.tsx&#45;&gt;types/widget.d.ts -->
<g id="edge34" class="edge">
<title>component/Widget.tsx&#45;&gt;types/widget.d.ts</title>
<path fill="none" stroke="#757575" d="M618.63,-561.53C654.34,-546.47 719.46,-521.38 778,-511.5 1043.33,-466.74 1884.25,-484.14 2136.37,-490.54"/>
<polygon fill="#757575" stroke="#757575" points="2135.97,-494.03 2146.06,-490.79 2136.15,-487.03 2135.97,-494.03"/>
</g>
<!-- component/Widget.tsx&#45;&gt;common/widget.ts -->
<g id="edge27" class="edge">
<title>component/Widget.tsx&#45;&gt;common/widget.ts</title>
<path fill="none" stroke="#757575" d="M670.3,-583.84C703.48,-587.7 742.56,-591.6 778,-593.5 991.47,-604.91 1045.42,-602.75 1259,-593.5 1261.37,-593.4 1370,-583.94 1447.43,-577.19"/>
<polygon fill="#757575" stroke="#757575" points="1447.44,-580.7 1457.1,-576.34 1446.83,-573.72 1447.44,-580.7"/>
</g>
<!-- component/Widget.tsx&#45;&gt;store/DashboardProvider.tsx -->
<g id="edge32" class="edge">
<title>component/Widget.tsx&#45;&gt;store/DashboardProvider.tsx</title>
<path fill="none" stroke="#757575" d="M602.74,-561.69C629.79,-534.2 701.93,-466.32 778,-440.5 892.53,-401.63 1236.62,-405.62 1414.64,-410.63"/>
<polygon fill="#757575" stroke="#757575" points="1414.51,-414.13 1424.61,-410.92 1414.72,-407.13 1414.51,-414.13"/>
</g>
<!-- component/Widget/WidgetModal.tsx -->
<g id="node24" class="node">
<title>component/Widget/WidgetModal.tsx</title>
<path fill="none" stroke="#c6c5fe" d="M1134.33,-544C1134.33,-544 902.67,-544 902.67,-544 898.83,-544 895,-540.17 895,-536.33 895,-536.33 895,-528.67 895,-528.67 895,-524.83 898.83,-521 902.67,-521 902.67,-521 1134.33,-521 1134.33,-521 1138.17,-521 1142,-524.83 1142,-528.67 1142,-528.67 1142,-536.33 1142,-536.33 1142,-540.17 1138.17,-544 1134.33,-544"/>
<text text-anchor="middle" x="1018.5" y="-528.8" font-family="Arial" font-size="14.00" fill="#c6c5fe">component/Widget/WidgetModal.tsx</text>
</g>
<!-- component/Widget.tsx&#45;&gt;component/Widget/WidgetModal.tsx -->
<g id="edge28" class="edge">
<title>component/Widget.tsx&#45;&gt;component/Widget/WidgetModal.tsx</title>
<path fill="none" stroke="#757575" d="M670.4,-564.11C703.6,-560.29 742.65,-555.97 778,-552.5 812.19,-549.15 849.16,-545.88 883.59,-543"/>
<polygon fill="#757575" stroke="#757575" points="883.49,-546.52 893.17,-542.2 882.91,-539.54 883.49,-546.52"/>
</g>
<!-- component/chart/BarChart.tsx -->
<g id="node25" class="node">
<title>component/chart/BarChart.tsx</title>
<path fill="none" stroke="#c6c5fe" d="M1112.33,-788C1112.33,-788 924.67,-788 924.67,-788 920.83,-788 917,-784.17 917,-780.33 917,-780.33 917,-772.67 917,-772.67 917,-768.83 920.83,-765 924.67,-765 924.67,-765 1112.33,-765 1112.33,-765 1116.17,-765 1120,-768.83 1120,-772.67 1120,-772.67 1120,-780.33 1120,-780.33 1120,-784.17 1116.17,-788 1112.33,-788"/>
<text text-anchor="middle" x="1018.5" y="-772.8" font-family="Arial" font-size="14.00" fill="#c6c5fe">component/chart/BarChart.tsx</text>
</g>
<!-- component/Widget.tsx&#45;&gt;component/chart/BarChart.tsx -->
<g id="edge29" class="edge">
<title>component/Widget.tsx&#45;&gt;component/chart/BarChart.tsx</title>
<path fill="none" stroke="#757575" d="M599.01,-585.26C621.38,-619.1 691.4,-716.82 778,-756.5 817.18,-774.45 863.73,-781.17 905.32,-782.8"/>
<polygon fill="#757575" stroke="#757575" points="905.02,-786.3 915.11,-783.08 905.22,-779.3 905.02,-786.3"/>
</g>
<!-- component/chart/InformaticsChart.tsx -->
<g id="node26" class="node">
<title>component/chart/InformaticsChart.tsx</title>
<path fill="none" stroke="#c6c5fe" d="M1136.83,-665C1136.83,-665 900.17,-665 900.17,-665 896.33,-665 892.5,-661.17 892.5,-657.33 892.5,-657.33 892.5,-649.67 892.5,-649.67 892.5,-645.83 896.33,-642 900.17,-642 900.17,-642 1136.83,-642 1136.83,-642 1140.67,-642 1144.5,-645.83 1144.5,-649.67 1144.5,-649.67 1144.5,-657.33 1144.5,-657.33 1144.5,-661.17 1140.67,-665 1136.83,-665"/>
<text text-anchor="middle" x="1018.5" y="-649.8" font-family="Arial" font-size="14.00" fill="#c6c5fe">component/chart/InformaticsChart.tsx</text>
</g>
<!-- component/Widget.tsx&#45;&gt;component/chart/InformaticsChart.tsx -->
<g id="edge30" class="edge">
<title>component/Widget.tsx&#45;&gt;component/chart/InformaticsChart.tsx</title>
<path fill="none" stroke="#757575" d="M626.11,-585.49C663.23,-597.87 724.1,-616.85 778,-627.5 811.09,-634.03 847.09,-639.03 880.89,-642.81"/>
<polygon fill="#757575" stroke="#757575" points="880.44,-646.28 890.76,-643.88 881.2,-639.32 880.44,-646.28"/>
</g>
<!-- component/chart/LineChart.tsx -->
<g id="node27" class="node">
<title>component/chart/LineChart.tsx</title>
<path fill="none" stroke="#c6c5fe" d="M1115.33,-706C1115.33,-706 921.67,-706 921.67,-706 917.83,-706 914,-702.17 914,-698.33 914,-698.33 914,-690.67 914,-690.67 914,-686.83 917.83,-683 921.67,-683 921.67,-683 1115.33,-683 1115.33,-683 1119.17,-683 1123,-686.83 1123,-690.67 1123,-690.67 1123,-698.33 1123,-698.33 1123,-702.17 1119.17,-706 1115.33,-706"/>
<text text-anchor="middle" x="1018.5" y="-690.8" font-family="Arial" font-size="14.00" fill="#c6c5fe">component/chart/LineChart.tsx</text>
</g>
<!-- component/Widget.tsx&#45;&gt;component/chart/LineChart.tsx -->
<g id="edge31" class="edge">
<title>component/Widget.tsx&#45;&gt;component/chart/LineChart.tsx</title>
<path fill="none" stroke="#757575" d="M607.94,-585.49C639.22,-607.59 710.25,-654.3 778,-674.5 817.48,-686.27 862.13,-691.94 902.09,-694.46"/>
<polygon fill="#757575" stroke="#757575" points="901.81,-697.95 912,-695.02 902.21,-690.96 901.81,-697.95"/>
</g>
<!-- types/api.d.ts -->
<g id="node28" class="node">
<title>types/api.d.ts</title>
<path fill="none" stroke="#cfffac" d="M1061.33,-585C1061.33,-585 975.67,-585 975.67,-585 971.83,-585 968,-581.17 968,-577.33 968,-577.33 968,-569.67 968,-569.67 968,-565.83 971.83,-562 975.67,-562 975.67,-562 1061.33,-562 1061.33,-562 1065.17,-562 1069,-565.83 1069,-569.67 1069,-569.67 1069,-577.33 1069,-577.33 1069,-581.17 1065.17,-585 1061.33,-585"/>
<text text-anchor="middle" x="1018.5" y="-569.8" font-family="Arial" font-size="14.00" fill="#cfffac">types/api.d.ts</text>
</g>
<!-- component/Widget.tsx&#45;&gt;types/api.d.ts -->
<g id="edge33" class="edge">
<title>component/Widget.tsx&#45;&gt;types/api.d.ts</title>
<path fill="none" stroke="#757575" d="M670.13,-573.5C752.8,-573.5 881.1,-573.5 956.46,-573.5"/>
<polygon fill="#757575" stroke="#757575" points="956.12,-577 966.12,-573.5 956.12,-570 956.12,-577"/>
</g>
<!-- component/Widget/WidgetModal.tsx&#45;&gt;types/widget.d.ts -->
<g id="edge36" class="edge">
<title>component/Widget/WidgetModal.tsx&#45;&gt;types/widget.d.ts</title>
<path fill="none" stroke="#757575" d="M1142.34,-533.65C1342.87,-534.61 1752.94,-532.72 2099,-506.5 2111.07,-505.59 2123.85,-504.27 2136.26,-502.81"/>
<polygon fill="#757575" stroke="#757575" points="2136.51,-506.3 2146.01,-501.61 2135.66,-499.35 2136.51,-506.3"/>
</g>
<!-- component/Widget/WidgetModal.tsx&#45;&gt;common/widget.ts -->
<g id="edge35" class="edge">
<title>component/Widget/WidgetModal.tsx&#45;&gt;common/widget.ts</title>
<path fill="none" stroke="#757575" d="M1142.27,-541.75C1237.54,-548.92 1366.61,-558.65 1447.59,-564.74"/>
<polygon fill="#757575" stroke="#757575" points="1446.94,-568.21 1457.18,-565.47 1447.47,-561.23 1446.94,-568.21"/>
</g>
<!-- component/chart/BarChart.tsx&#45;&gt;common/chart.ts -->
<g id="edge37" class="edge">
<title>component/chart/BarChart.tsx&#45;&gt;common/chart.ts</title>
<path fill="none" stroke="#757575" d="M1120.49,-769.91C1163.29,-766.64 1213.66,-762.16 1259,-756.5 1275.1,-754.49 1278.91,-752.58 1295,-750.5 1347.45,-743.73 1406.94,-738.35 1452.13,-734.72"/>
<polygon fill="#757575" stroke="#757575" points="1452.4,-738.21 1462.09,-733.94 1451.84,-731.24 1452.4,-738.21"/>
</g>
<!-- component/chart/BarChart.tsx&#45;&gt;types/chart.d.ts -->
<g id="edge39" class="edge">
<title>component/chart/BarChart.tsx&#45;&gt;types/chart.d.ts</title>
<path fill="none" stroke="#757575" d="M1073.57,-788.45C1197.28,-813.49 1509.24,-863.43 1755,-791.5 1823.36,-771.49 1890.47,-718.36 1923.25,-689.61"/>
<polygon fill="#757575" stroke="#757575" points="1925.3,-692.47 1930.43,-683.2 1920.64,-687.25 1925.3,-692.47"/>
</g>
<!-- hook/useResize.tsx -->
<g id="node29" class="node">
<title>hook/useResize.tsx</title>
<path fill="none" stroke="#cfffac" d="M1587.33,-782C1587.33,-782 1462.67,-782 1462.67,-782 1458.83,-782 1455,-778.17 1455,-774.33 1455,-774.33 1455,-766.67 1455,-766.67 1455,-762.83 1458.83,-759 1462.67,-759 1462.67,-759 1587.33,-759 1587.33,-759 1591.17,-759 1595,-762.83 1595,-766.67 1595,-766.67 1595,-774.33 1595,-774.33 1595,-778.17 1591.17,-782 1587.33,-782"/>
<text text-anchor="middle" x="1525" y="-766.8" font-family="Arial" font-size="14.00" fill="#cfffac">hook/useResize.tsx</text>
</g>
<!-- component/chart/BarChart.tsx&#45;&gt;hook/useResize.tsx -->
<g id="edge38" class="edge">
<title>component/chart/BarChart.tsx&#45;&gt;hook/useResize.tsx</title>
<path fill="none" stroke="#757575" d="M1120.38,-775.3C1215.32,-774.17 1355.66,-772.5 1443.37,-771.46"/>
<polygon fill="#757575" stroke="#757575" points="1443.38,-774.96 1453.34,-771.34 1443.3,-767.96 1443.38,-774.96"/>
</g>
<!-- component/chart/InformaticsChart.tsx&#45;&gt;types/chart.d.ts -->
<g id="edge41" class="edge">
<title>component/chart/InformaticsChart.tsx&#45;&gt;types/chart.d.ts</title>
<path fill="none" stroke="#757575" d="M1144.66,-655.8C1343.18,-659.45 1723.45,-666.44 1877.12,-669.27"/>
<polygon fill="#757575" stroke="#757575" points="1876.65,-672.76 1886.71,-669.45 1876.78,-665.76 1876.65,-672.76"/>
</g>
<!-- component/chart/InformaticsChart/InforMaticsBox.tsx -->
<g id="node30" class="node">
<title>component/chart/InformaticsChart/InforMaticsBox.tsx</title>
<path fill="none" stroke="#c6c5fe" d="M1692.33,-623C1692.33,-623 1357.67,-623 1357.67,-623 1353.83,-623 1350,-619.17 1350,-615.33 1350,-615.33 1350,-607.67 1350,-607.67 1350,-603.83 1353.83,-600 1357.67,-600 1357.67,-600 1692.33,-600 1692.33,-600 1696.17,-600 1700,-603.83 1700,-607.67 1700,-607.67 1700,-615.33 1700,-615.33 1700,-619.17 1696.17,-623 1692.33,-623"/>
<text text-anchor="middle" x="1525" y="-607.8" font-family="Arial" font-size="14.00" fill="#c6c5fe">component/chart/InformaticsChart/InforMaticsBox.tsx</text>
</g>
<!-- component/chart/InformaticsChart.tsx&#45;&gt;component/chart/InformaticsChart/InforMaticsBox.tsx -->
<g id="edge40" class="edge">
<title>component/chart/InformaticsChart.tsx&#45;&gt;component/chart/InformaticsChart/InforMaticsBox.tsx</title>
<path fill="none" stroke="#757575" d="M1144.86,-643.06C1212.58,-637.43 1296.81,-630.41 1368.67,-624.43"/>
<polygon fill="#757575" stroke="#757575" points="1368.91,-627.92 1378.58,-623.61 1368.33,-620.95 1368.91,-627.92"/>
</g>
<!-- component/chart/LineChart.tsx&#45;&gt;common/chart.ts -->
<g id="edge43" class="edge">
<title>component/chart/LineChart.tsx&#45;&gt;common/chart.ts</title>
<path fill="none" stroke="#757575" d="M1123.42,-701.71C1221.6,-708.52 1366.26,-718.56 1452.23,-724.52"/>
<polygon fill="#757575" stroke="#757575" points="1451.97,-728.01 1462.19,-725.21 1452.45,-721.03 1451.97,-728.01"/>
</g>
<!-- component/chart/LineChart.tsx&#45;&gt;types/chart.d.ts -->
<g id="edge45" class="edge">
<title>component/chart/LineChart.tsx&#45;&gt;types/chart.d.ts</title>
<path fill="none" stroke="#757575" d="M1123.34,-691.84C1265.78,-688.18 1529.79,-681.39 1755,-675.5 1795.42,-674.44 1840.69,-673.25 1876.8,-672.29"/>
<polygon fill="#757575" stroke="#757575" points="1876.76,-675.79 1886.66,-672.03 1876.58,-668.79 1876.76,-675.79"/>
</g>
<!-- component/chart/LineChart.tsx&#45;&gt;hook/useResize.tsx -->
<g id="edge44" class="edge">
<title>component/chart/LineChart.tsx&#45;&gt;hook/useResize.tsx</title>
<path fill="none" stroke="#757575" d="M1123.31,-688.54C1166.94,-689.79 1217.16,-696.34 1259,-715.5 1279.29,-724.79 1274.71,-741.21 1295,-750.5 1341.08,-771.59 1397.79,-776.68 1443.25,-776.45"/>
<polygon fill="#757575" stroke="#757575" points="1443.09,-779.95 1453.04,-776.31 1442.99,-772.95 1443.09,-779.95"/>
</g>
<!-- component/chart/InformaticsChart/InforMaticsBox.tsx&#45;&gt;types/chart.d.ts -->
<g id="edge42" class="edge">
<title>component/chart/InformaticsChart/InforMaticsBox.tsx&#45;&gt;types/chart.d.ts</title>
<path fill="none" stroke="#757575" d="M1643.55,-623.48C1679.39,-627.5 1718.86,-632.3 1755,-637.5 1795.78,-643.37 1841.28,-651.27 1877.42,-657.87"/>
<polygon fill="#757575" stroke="#757575" points="1876.36,-661.24 1886.83,-659.6 1877.63,-654.35 1876.36,-661.24"/>
</g>
<!-- component/common/DatePicker/ListPicker.tsx&#45;&gt;types/datePicker.d.ts -->
<g id="edge48" class="edge">
<title>component/common/DatePicker/ListPicker.tsx&#45;&gt;types/datePicker.d.ts</title>
<path fill="none" stroke="#757575" d="M2035.71,-64.45C2056.67,-68.14 2078.78,-72.79 2099,-78.5 2124.35,-85.66 2151.86,-96.73 2172.97,-105.97"/>
<polygon fill="#757575" stroke="#757575" points="2171.43,-109.12 2181.99,-109.99 2174.28,-102.73 2171.43,-109.12"/>
</g>
<!-- page/Dashboard.tsx&#45;&gt;types/widget.d.ts -->
<g id="edge52" class="edge">
<title>page/Dashboard.tsx&#45;&gt;types/widget.d.ts</title>
<path fill="none" stroke="#757575" d="M340.76,-487.26C357.89,-509.75 397.77,-559.61 439,-593.5 656.07,-771.92 736.52,-848.5 1017.5,-848.5 1017.5,-848.5 1017.5,-848.5 1526,-848.5 1790.05,-848.5 1899.98,-865.03 2099,-691.5 2155.69,-642.07 2188.69,-555.84 2201.83,-515.08"/>
<polygon fill="#757575" stroke="#757575" points="2205.14,-516.23 2204.76,-505.64 2198.45,-514.15 2205.14,-516.23"/>
</g>
<!-- page/Dashboard.tsx&#45;&gt;component/Dashboard/DashboardHeader.tsx -->
<g id="edge49" class="edge">
<title>page/Dashboard.tsx&#45;&gt;component/Dashboard/DashboardHeader.tsx</title>
<path fill="none" stroke="#757575" d="M341.96,-463.75C360.11,-442.67 400.32,-397.51 439,-364.5 478.8,-330.54 529.47,-296.94 560.69,-277.21"/>
<polygon fill="#757575" stroke="#757575" points="562.2,-280.39 568.82,-272.12 558.49,-274.46 562.2,-280.39"/>
</g>
<!-- page/Dashboard.tsx&#45;&gt;store/DashboardProvider.tsx -->
<g id="edge51" class="edge">
<title>page/Dashboard.tsx&#45;&gt;store/DashboardProvider.tsx</title>
<path fill="none" stroke="#757575" d="M388.68,-463.53C473.06,-446.38 636.92,-415.66 778,-404.5 991.11,-387.64 1045.26,-400.47 1259,-404.5 1310.24,-405.47 1367.03,-407.48 1414.85,-409.45"/>
<polygon fill="#757575" stroke="#757575" points="1414.53,-412.94 1424.66,-409.86 1414.82,-405.95 1414.53,-412.94"/>
</g>
<!-- page/Dashboard.tsx&#45;&gt;component/Widget.tsx -->
<g id="edge50" class="edge">
<title>page/Dashboard.tsx&#45;&gt;component/Widget.tsx</title>
<path fill="none" stroke="#757575" d="M363.32,-487.42C409.49,-504.99 495.93,-537.89 547.54,-557.53"/>
<polygon fill="#757575" stroke="#757575" points="545.99,-560.69 556.58,-560.97 548.48,-554.14 545.99,-560.69"/>
</g>
</g>
</svg>
