<?xml version="1.0" encoding="UTF-8" standalone="no"?>
<!DOCTYPE svg PUBLIC "-//W3C//DTD SVG 1.1//EN"
 "http://www.w3.org/Graphics/SVG/1.1/DTD/svg11.dtd">
<!-- Generated by graphviz version 7.1.0 (20230121.1956)
 -->
<!-- Title: G Pages: 1 -->
<svg width="2419pt" height="1228pt"
 viewBox="0.00 0.00 2419.20 1227.75" xmlns="http://www.w3.org/2000/svg" xmlns:xlink="http://www.w3.org/1999/xlink">
<g id="graph0" class="graph" transform="scale(1 1) rotate(0) translate(21.6 1206.15)">
<title>G</title>
<polygon fill="#111111" stroke="none" points="-21.6,21.6 -21.6,-1206.15 2397.6,-1206.15 2397.6,21.6 -21.6,21.6"/>
<!-- App.tsx -->
<g id="node1" class="node">
<title>App.tsx</title>
<path fill="none" stroke="#c6c5fe" d="M57.33,-685.55C57.33,-685.55 7.67,-685.55 7.67,-685.55 3.83,-685.55 0,-681.72 0,-677.89 0,-677.89 0,-670.22 0,-670.22 0,-666.39 3.83,-662.55 7.67,-662.55 7.67,-662.55 57.33,-662.55 57.33,-662.55 61.17,-662.55 65,-666.39 65,-670.22 65,-670.22 65,-677.89 65,-677.89 65,-681.72 61.17,-685.55 57.33,-685.55"/>
<text text-anchor="middle" x="32.5" y="-670.35" font-family="Arial" font-size="14.00" fill="#c6c5fe">App.tsx</text>
</g>
<!-- router/Router.tsx -->
<g id="node2" class="node">
<title>router/Router.tsx</title>
<path fill="none" stroke="#c6c5fe" d="M215.33,-685.55C215.33,-685.55 108.67,-685.55 108.67,-685.55 104.83,-685.55 101,-681.72 101,-677.89 101,-677.89 101,-670.22 101,-670.22 101,-666.39 104.83,-662.55 108.67,-662.55 108.67,-662.55 215.33,-662.55 215.33,-662.55 219.17,-662.55 223,-666.39 223,-670.22 223,-670.22 223,-677.89 223,-677.89 223,-681.72 219.17,-685.55 215.33,-685.55"/>
<text text-anchor="middle" x="162" y="-670.35" font-family="Arial" font-size="14.00" fill="#c6c5fe">router/Router.tsx</text>
</g>
<!-- App.tsx&#45;&gt;router/Router.tsx -->
<g id="edge1" class="edge">
<title>App.tsx&#45;&gt;router/Router.tsx</title>
<path fill="none" stroke="#757575" d="M65.34,-674.05C72.7,-674.05 80.81,-674.05 89.12,-674.05"/>
<polygon fill="#757575" stroke="#757575" points="88.99,-677.55 98.99,-674.05 88.99,-670.55 88.99,-677.55"/>
</g>
<!-- page/Dashboard.tsx -->
<g id="node38" class="node">
<title>page/Dashboard.tsx</title>
<path fill="none" stroke="#c6c5fe" d="M395.33,-685.55C395.33,-685.55 266.67,-685.55 266.67,-685.55 262.83,-685.55 259,-681.72 259,-677.89 259,-677.89 259,-670.22 259,-670.22 259,-666.39 262.83,-662.55 266.67,-662.55 266.67,-662.55 395.33,-662.55 395.33,-662.55 399.17,-662.55 403,-666.39 403,-670.22 403,-670.22 403,-677.89 403,-677.89 403,-681.72 399.17,-685.55 395.33,-685.55"/>
<text text-anchor="middle" x="331" y="-670.35" font-family="Arial" font-size="14.00" fill="#c6c5fe">page/Dashboard.tsx</text>
</g>
<!-- router/Router.tsx&#45;&gt;page/Dashboard.tsx -->
<g id="edge62" class="edge">
<title>router/Router.tsx&#45;&gt;page/Dashboard.tsx</title>
<path fill="none" stroke="#757575" d="M223.29,-674.05C231.1,-674.05 239.21,-674.05 247.3,-674.05"/>
<polygon fill="#757575" stroke="#757575" points="247.19,-677.55 257.19,-674.05 247.19,-670.55 247.19,-677.55"/>
</g>
<!-- api.ts -->
<g id="node3" class="node">
<title>api.ts</title>
<path fill="none" stroke="#c6c5fe" d="M1087.83,-569.55C1087.83,-569.55 1049.17,-569.55 1049.17,-569.55 1045.33,-569.55 1041.5,-565.72 1041.5,-561.89 1041.5,-561.89 1041.5,-554.22 1041.5,-554.22 1041.5,-550.39 1045.33,-546.55 1049.17,-546.55 1049.17,-546.55 1087.83,-546.55 1087.83,-546.55 1091.67,-546.55 1095.5,-550.39 1095.5,-554.22 1095.5,-554.22 1095.5,-561.89 1095.5,-561.89 1095.5,-565.72 1091.67,-569.55 1087.83,-569.55"/>
<text text-anchor="middle" x="1068.5" y="-554.35" font-family="Arial" font-size="14.00" fill="#c6c5fe">api.ts</text>
</g>
<!-- types/api.d.ts -->
<g id="node4" class="node">
<title>types/api.d.ts</title>
<path fill="none" stroke="#cfffac" d="M1617.83,-551.55C1617.83,-551.55 1532.17,-551.55 1532.17,-551.55 1528.33,-551.55 1524.5,-547.72 1524.5,-543.89 1524.5,-543.89 1524.5,-536.22 1524.5,-536.22 1524.5,-532.39 1528.33,-528.55 1532.17,-528.55 1532.17,-528.55 1617.83,-528.55 1617.83,-528.55 1621.67,-528.55 1625.5,-532.39 1625.5,-536.22 1625.5,-536.22 1625.5,-543.89 1625.5,-543.89 1625.5,-547.72 1621.67,-551.55 1617.83,-551.55"/>
<text text-anchor="middle" x="1575" y="-536.35" font-family="Arial" font-size="14.00" fill="#cfffac">types/api.d.ts</text>
</g>
<!-- api.ts&#45;&gt;types/api.d.ts -->
<g id="edge2" class="edge">
<title>api.ts&#45;&gt;types/api.d.ts</title>
<path fill="none" stroke="#757575" d="M1095.91,-557.11C1173.55,-554.34 1402.5,-546.17 1512.99,-542.23"/>
<polygon fill="#757575" stroke="#757575" points="1512.88,-545.74 1522.75,-541.88 1512.63,-538.74 1512.88,-545.74"/>
</g>
<!-- asset/image/pause.png -->
<g id="node5" class="node">
<title>asset/image/pause.png</title>
<path fill="none" stroke="#cfffac" d="M1142.83,-881.55C1142.83,-881.55 994.17,-881.55 994.17,-881.55 990.33,-881.55 986.5,-877.72 986.5,-873.89 986.5,-873.89 986.5,-866.22 986.5,-866.22 986.5,-862.39 990.33,-858.55 994.17,-858.55 994.17,-858.55 1142.83,-858.55 1142.83,-858.55 1146.67,-858.55 1150.5,-862.39 1150.5,-866.22 1150.5,-866.22 1150.5,-873.89 1150.5,-873.89 1150.5,-877.72 1146.67,-881.55 1142.83,-881.55"/>
<text text-anchor="middle" x="1068.5" y="-866.35" font-family="Arial" font-size="14.00" fill="#cfffac">asset/image/pause.png</text>
</g>
<!-- asset/image/play.png -->
<g id="node6" class="node">
<title>asset/image/play.png</title>
<path fill="none" stroke="#cfffac" d="M1136.33,-801.55C1136.33,-801.55 1000.67,-801.55 1000.67,-801.55 996.83,-801.55 993,-797.72 993,-793.89 993,-793.89 993,-786.22 993,-786.22 993,-782.39 996.83,-778.55 1000.67,-778.55 1000.67,-778.55 1136.33,-778.55 1136.33,-778.55 1140.17,-778.55 1144,-782.39 1144,-786.22 1144,-786.22 1144,-793.89 1144,-793.89 1144,-797.72 1140.17,-801.55 1136.33,-801.55"/>
<text text-anchor="middle" x="1068.5" y="-786.35" font-family="Arial" font-size="14.00" fill="#cfffac">asset/image/play.png</text>
</g>
<!-- common/chart.ts -->
<g id="node7" class="node">
<title>common/chart.ts</title>
<path fill="none" stroke="#c6c5fe" d="M2069.33,-138.55C2069.33,-138.55 1962.67,-138.55 1962.67,-138.55 1958.83,-138.55 1955,-134.72 1955,-130.89 1955,-130.89 1955,-123.22 1955,-123.22 1955,-119.39 1958.83,-115.55 1962.67,-115.55 1962.67,-115.55 2069.33,-115.55 2069.33,-115.55 2073.17,-115.55 2077,-119.39 2077,-123.22 2077,-123.22 2077,-130.89 2077,-130.89 2077,-134.72 2073.17,-138.55 2069.33,-138.55"/>
<text text-anchor="middle" x="2016" y="-123.35" font-family="Arial" font-size="14.00" fill="#c6c5fe">common/chart.ts</text>
</g>
<!-- types/chart.d.ts -->
<g id="node8" class="node">
<title>types/chart.d.ts</title>
<path fill="none" stroke="#cfffac" d="M2350.33,-98.55C2350.33,-98.55 2252.67,-98.55 2252.67,-98.55 2248.83,-98.55 2245,-94.72 2245,-90.89 2245,-90.89 2245,-83.22 2245,-83.22 2245,-79.39 2248.83,-75.55 2252.67,-75.55 2252.67,-75.55 2350.33,-75.55 2350.33,-75.55 2354.17,-75.55 2358,-79.39 2358,-83.22 2358,-83.22 2358,-90.89 2358,-90.89 2358,-94.72 2354.17,-98.55 2350.33,-98.55"/>
<text text-anchor="middle" x="2301.5" y="-83.35" font-family="Arial" font-size="14.00" fill="#cfffac">types/chart.d.ts</text>
</g>
<!-- common/chart.ts&#45;&gt;types/chart.d.ts -->
<g id="edge3" class="edge">
<title>common/chart.ts&#45;&gt;types/chart.d.ts</title>
<path fill="none" stroke="#757575" d="M2077.47,-118.52C2123.29,-112.06 2186.23,-103.18 2233.56,-96.5"/>
<polygon fill="#757575" stroke="#757575" points="2234.02,-99.97 2243.43,-95.1 2233.04,-93.04 2234.02,-99.97"/>
</g>
<!-- common/date.ts -->
<g id="node9" class="node">
<title>common/date.ts</title>
<path fill="none" stroke="#cfffac" d="M2067.83,-725.55C2067.83,-725.55 1964.17,-725.55 1964.17,-725.55 1960.33,-725.55 1956.5,-721.72 1956.5,-717.89 1956.5,-717.89 1956.5,-710.22 1956.5,-710.22 1956.5,-706.39 1960.33,-702.55 1964.17,-702.55 1964.17,-702.55 2067.83,-702.55 2067.83,-702.55 2071.67,-702.55 2075.5,-706.39 2075.5,-710.22 2075.5,-710.22 2075.5,-717.89 2075.5,-717.89 2075.5,-721.72 2071.67,-725.55 2067.83,-725.55"/>
<text text-anchor="middle" x="2016" y="-710.35" font-family="Arial" font-size="14.00" fill="#cfffac">common/date.ts</text>
</g>
<!-- common/widget.ts -->
<g id="node10" class="node">
<title>common/widget.ts</title>
<path fill="none" stroke="#cfffac" d="M1633.33,-373.55C1633.33,-373.55 1516.67,-373.55 1516.67,-373.55 1512.83,-373.55 1509,-369.72 1509,-365.89 1509,-365.89 1509,-358.22 1509,-358.22 1509,-354.39 1512.83,-350.55 1516.67,-350.55 1516.67,-350.55 1633.33,-350.55 1633.33,-350.55 1637.17,-350.55 1641,-354.39 1641,-358.22 1641,-358.22 1641,-365.89 1641,-365.89 1641,-369.72 1637.17,-373.55 1633.33,-373.55"/>
<text text-anchor="middle" x="1575" y="-358.35" font-family="Arial" font-size="14.00" fill="#cfffac">common/widget.ts</text>
</g>
<!-- component/Dashboard/CommonStyle.ts -->
<g id="node11" class="node">
<title>component/Dashboard/CommonStyle.ts</title>
<path fill="none" stroke="#cfffac" d="M1702.33,-926.55C1702.33,-926.55 1447.67,-926.55 1447.67,-926.55 1443.83,-926.55 1440,-922.72 1440,-918.89 1440,-918.89 1440,-911.22 1440,-911.22 1440,-907.39 1443.83,-903.55 1447.67,-903.55 1447.67,-903.55 1702.33,-903.55 1702.33,-903.55 1706.17,-903.55 1710,-907.39 1710,-911.22 1710,-911.22 1710,-918.89 1710,-918.89 1710,-922.72 1706.17,-926.55 1702.33,-926.55"/>
<text text-anchor="middle" x="1575" y="-911.35" font-family="Arial" font-size="14.00" fill="#cfffac">component/Dashboard/CommonStyle.ts</text>
</g>
<!-- component/Dashboard/DashboardHeader.tsx -->
<g id="node12" class="node">
<title>component/Dashboard/DashboardHeader.tsx</title>
<path fill="none" stroke="#c6c5fe" d="M759.33,-861.55C759.33,-861.55 471.67,-861.55 471.67,-861.55 467.83,-861.55 464,-857.72 464,-853.89 464,-853.89 464,-846.22 464,-846.22 464,-842.39 467.83,-838.55 471.67,-838.55 471.67,-838.55 759.33,-838.55 759.33,-838.55 763.17,-838.55 767,-842.39 767,-846.22 767,-846.22 767,-853.89 767,-853.89 767,-857.72 763.17,-861.55 759.33,-861.55"/>
<text text-anchor="middle" x="615.5" y="-846.35" font-family="Arial" font-size="14.00" fill="#c6c5fe">component/Dashboard/DashboardHeader.tsx</text>
</g>
<!-- component/Dashboard/DashboardHeader.tsx&#45;&gt;asset/image/pause.png -->
<g id="edge4" class="edge">
<title>component/Dashboard/DashboardHeader.tsx&#45;&gt;asset/image/pause.png</title>
<path fill="none" stroke="#757575" d="M767.3,-856.74C835.99,-859.79 915.09,-863.29 974.85,-865.94"/>
<polygon fill="#757575" stroke="#757575" points="974.5,-869.43 984.64,-866.38 974.81,-862.44 974.5,-869.43"/>
</g>
<!-- component/Dashboard/DashboardHeader.tsx&#45;&gt;asset/image/play.png -->
<g id="edge5" class="edge">
<title>component/Dashboard/DashboardHeader.tsx&#45;&gt;asset/image/play.png</title>
<path fill="none" stroke="#757575" d="M685.43,-838.06C726.71,-831.1 780.27,-822.48 828,-816.05 878.73,-809.23 935.69,-802.99 981.33,-798.33"/>
<polygon fill="#757575" stroke="#757575" points="981.57,-801.82 991.17,-797.33 980.87,-794.86 981.57,-801.82"/>
</g>
<!-- component/Dashboard/DashboardHeader/CurrentTime.tsx -->
<g id="node13" class="node">
<title>component/Dashboard/DashboardHeader/CurrentTime.tsx</title>
<path fill="none" stroke="#cfffac" d="M1253.83,-1028.55C1253.83,-1028.55 883.17,-1028.55 883.17,-1028.55 879.33,-1028.55 875.5,-1024.72 875.5,-1020.89 875.5,-1020.89 875.5,-1013.22 875.5,-1013.22 875.5,-1009.39 879.33,-1005.55 883.17,-1005.55 883.17,-1005.55 1253.83,-1005.55 1253.83,-1005.55 1257.67,-1005.55 1261.5,-1009.39 1261.5,-1013.22 1261.5,-1013.22 1261.5,-1020.89 1261.5,-1020.89 1261.5,-1024.72 1257.67,-1028.55 1253.83,-1028.55"/>
<text text-anchor="middle" x="1068.5" y="-1013.35" font-family="Arial" font-size="14.00" fill="#cfffac">component/Dashboard/DashboardHeader/CurrentTime.tsx</text>
</g>
<!-- component/Dashboard/DashboardHeader.tsx&#45;&gt;component/Dashboard/DashboardHeader/CurrentTime.tsx -->
<g id="edge6" class="edge">
<title>component/Dashboard/DashboardHeader.tsx&#45;&gt;component/Dashboard/DashboardHeader/CurrentTime.tsx</title>
<path fill="none" stroke="#757575" d="M628.53,-861.86C658.91,-890.81 742.37,-965.2 828,-996.05 839.62,-1000.24 851.75,-1003.74 864.12,-1006.65"/>
<polygon fill="#757575" stroke="#757575" points="863.05,-1010 873.57,-1008.74 864.56,-1003.16 863.05,-1010"/>
</g>
<!-- component/Dashboard/DashboardHeader/DatePickerArea.tsx -->
<g id="node14" class="node">
<title>component/Dashboard/DashboardHeader/DatePickerArea.tsx</title>
<path fill="none" stroke="#c6c5fe" d="M1264.33,-987.55C1264.33,-987.55 872.67,-987.55 872.67,-987.55 868.83,-987.55 865,-983.72 865,-979.89 865,-979.89 865,-972.22 865,-972.22 865,-968.39 868.83,-964.55 872.67,-964.55 872.67,-964.55 1264.33,-964.55 1264.33,-964.55 1268.17,-964.55 1272,-968.39 1272,-972.22 1272,-972.22 1272,-979.89 1272,-979.89 1272,-983.72 1268.17,-987.55 1264.33,-987.55"/>
<text text-anchor="middle" x="1068.5" y="-972.35" font-family="Arial" font-size="14.00" fill="#c6c5fe">component/Dashboard/DashboardHeader/DatePickerArea.tsx</text>
</g>
<!-- component/Dashboard/DashboardHeader.tsx&#45;&gt;component/Dashboard/DashboardHeader/DatePickerArea.tsx -->
<g id="edge7" class="edge">
<title>component/Dashboard/DashboardHeader.tsx&#45;&gt;component/Dashboard/DashboardHeader/DatePickerArea.tsx</title>
<path fill="none" stroke="#757575" d="M643.02,-861.99C682.58,-879.39 759.71,-911.73 828,-931.05 874.81,-944.3 927.89,-954.72 972.16,-962.19"/>
<polygon fill="#757575" stroke="#757575" points="971.58,-965.64 982.02,-963.82 972.73,-958.74 971.58,-965.64"/>
</g>
<!-- component/Dashboard/DashboardHeader/SelectRealTimeRangeArea.tsx -->
<g id="node15" class="node">
<title>component/Dashboard/DashboardHeader/SelectRealTimeRangeArea.tsx</title>
<path fill="none" stroke="#c6c5fe" d="M1301.33,-922.55C1301.33,-922.55 835.67,-922.55 835.67,-922.55 831.83,-922.55 828,-918.72 828,-914.89 828,-914.89 828,-907.22 828,-907.22 828,-903.39 831.83,-899.55 835.67,-899.55 835.67,-899.55 1301.33,-899.55 1301.33,-899.55 1305.17,-899.55 1309,-903.39 1309,-907.22 1309,-907.22 1309,-914.89 1309,-914.89 1309,-918.72 1305.17,-922.55 1301.33,-922.55"/>
<text text-anchor="middle" x="1068.5" y="-907.35" font-family="Arial" font-size="14.00" fill="#c6c5fe">component/Dashboard/DashboardHeader/SelectRealTimeRangeArea.tsx</text>
</g>
<!-- component/Dashboard/DashboardHeader.tsx&#45;&gt;component/Dashboard/DashboardHeader/SelectRealTimeRangeArea.tsx -->
<g id="edge8" class="edge">
<title>component/Dashboard/DashboardHeader.tsx&#45;&gt;component/Dashboard/DashboardHeader/SelectRealTimeRangeArea.tsx</title>
<path fill="none" stroke="#757575" d="M671.47,-862C714.02,-870.88 774.51,-882.67 828,-890.05 849.4,-893.01 871.94,-895.63 894.27,-897.92"/>
<polygon fill="#757575" stroke="#757575" points="893.77,-901.39 904.07,-898.91 894.47,-894.42 893.77,-901.39"/>
</g>
<!-- store/DashboardProvider.tsx -->
<g id="node16" class="node">
<title>store/DashboardProvider.tsx</title>
<path fill="none" stroke="#c6c5fe" d="M1665.83,-725.55C1665.83,-725.55 1484.17,-725.55 1484.17,-725.55 1480.33,-725.55 1476.5,-721.72 1476.5,-717.89 1476.5,-717.89 1476.5,-710.22 1476.5,-710.22 1476.5,-706.39 1480.33,-702.55 1484.17,-702.55 1484.17,-702.55 1665.83,-702.55 1665.83,-702.55 1669.67,-702.55 1673.5,-706.39 1673.5,-710.22 1673.5,-710.22 1673.5,-717.89 1673.5,-717.89 1673.5,-721.72 1669.67,-725.55 1665.83,-725.55"/>
<text text-anchor="middle" x="1575" y="-710.35" font-family="Arial" font-size="14.00" fill="#c6c5fe">store/DashboardProvider.tsx</text>
</g>
<!-- component/Dashboard/DashboardHeader.tsx&#45;&gt;store/DashboardProvider.tsx -->
<g id="edge9" class="edge">
<title>component/Dashboard/DashboardHeader.tsx&#45;&gt;store/DashboardProvider.tsx</title>
<path fill="none" stroke="#757575" d="M640.52,-838.18C679.02,-819.77 757.39,-784.82 828,-769.05 888.43,-755.56 1272.79,-731.65 1464.95,-720.33"/>
<polygon fill="#757575" stroke="#757575" points="1464.91,-723.84 1474.68,-719.76 1464.5,-716.85 1464.91,-723.84"/>
</g>
<!-- store/WidgetProvider.tsx -->
<g id="node17" class="node">
<title>store/WidgetProvider.tsx</title>
<path fill="none" stroke="#c6c5fe" d="M2094.83,-550.55C2094.83,-550.55 1937.17,-550.55 1937.17,-550.55 1933.33,-550.55 1929.5,-546.72 1929.5,-542.89 1929.5,-542.89 1929.5,-535.22 1929.5,-535.22 1929.5,-531.39 1933.33,-527.55 1937.17,-527.55 1937.17,-527.55 2094.83,-527.55 2094.83,-527.55 2098.67,-527.55 2102.5,-531.39 2102.5,-535.22 2102.5,-535.22 2102.5,-542.89 2102.5,-542.89 2102.5,-546.72 2098.67,-550.55 2094.83,-550.55"/>
<text text-anchor="middle" x="2016" y="-535.35" font-family="Arial" font-size="14.00" fill="#c6c5fe">store/WidgetProvider.tsx</text>
</g>
<!-- component/Dashboard/DashboardHeader.tsx&#45;&gt;store/WidgetProvider.tsx -->
<g id="edge10" class="edge">
<title>component/Dashboard/DashboardHeader.tsx&#45;&gt;store/WidgetProvider.tsx</title>
<path fill="none" stroke="#757575" d="M767.43,-847.12C956.38,-842.55 1261.18,-831.89 1309,-810.05 1329.87,-800.52 1324.26,-782.86 1345,-773.05 1530.47,-685.32 1621.83,-826.5 1805,-734.05 1826.65,-723.13 1823.89,-710.23 1841,-693.05 1892.26,-641.59 1957.5,-586.33 1991.69,-558.08"/>
<polygon fill="#757575" stroke="#757575" points="1993.8,-560.87 1999.3,-551.81 1989.36,-555.46 1993.8,-560.87"/>
</g>
<!-- component/Dashboard/DashboardHeader/DatePickerArea.tsx&#45;&gt;common/date.ts -->
<g id="edge11" class="edge">
<title>component/Dashboard/DashboardHeader/DatePickerArea.tsx&#45;&gt;common/date.ts</title>
<path fill="none" stroke="#757575" d="M1272.06,-984.99C1473.18,-992.42 1758.13,-998.55 1805,-976.05 1911.73,-924.82 1981.29,-789.97 2005.48,-736.43"/>
<polygon fill="#757575" stroke="#757575" points="2008.62,-737.97 2009.45,-727.41 2002.22,-735.15 2008.62,-737.97"/>
</g>
<!-- component/Dashboard/DashboardHeader/DatePickerArea.tsx&#45;&gt;component/Dashboard/CommonStyle.ts -->
<g id="edge12" class="edge">
<title>component/Dashboard/DashboardHeader/DatePickerArea.tsx&#45;&gt;component/Dashboard/CommonStyle.ts</title>
<path fill="none" stroke="#757575" d="M1141.85,-964.06C1197.32,-955.16 1275.85,-943.21 1345,-935.05 1371.91,-931.88 1400.65,-928.98 1428.36,-926.44"/>
<polygon fill="#757575" stroke="#757575" points="1428.6,-929.93 1438.25,-925.54 1427.97,-922.96 1428.6,-929.93"/>
</g>
<!-- component/Dashboard/DashboardHeader/DatePickerArea.tsx&#45;&gt;store/DashboardProvider.tsx -->
<g id="edge17" class="edge">
<title>component/Dashboard/DashboardHeader/DatePickerArea.tsx&#45;&gt;store/DashboardProvider.tsx</title>
<path fill="none" stroke="#757575" d="M1255.26,-964.14C1275.15,-956.48 1293.68,-945.79 1309,-931.05 1360.89,-881.11 1294.79,-824.69 1345,-773.05 1376.13,-741.03 1422.15,-725.57 1464.79,-718.38"/>
<polygon fill="#757575" stroke="#757575" points="1465.28,-721.85 1474.63,-716.87 1464.22,-714.93 1465.28,-721.85"/>
</g>
<!-- component/Dashboard/DashboardHeader/DateBox.tsx -->
<g id="node18" class="node">
<title>component/Dashboard/DashboardHeader/DateBox.tsx</title>
<path fill="none" stroke="#cfffac" d="M1748.33,-1123.55C1748.33,-1123.55 1401.67,-1123.55 1401.67,-1123.55 1397.83,-1123.55 1394,-1119.72 1394,-1115.89 1394,-1115.89 1394,-1108.22 1394,-1108.22 1394,-1104.39 1397.83,-1100.55 1401.67,-1100.55 1401.67,-1100.55 1748.33,-1100.55 1748.33,-1100.55 1752.17,-1100.55 1756,-1104.39 1756,-1108.22 1756,-1108.22 1756,-1115.89 1756,-1115.89 1756,-1119.72 1752.17,-1123.55 1748.33,-1123.55"/>
<text text-anchor="middle" x="1575" y="-1108.35" font-family="Arial" font-size="14.00" fill="#cfffac">component/Dashboard/DashboardHeader/DateBox.tsx</text>
</g>
<!-- component/Dashboard/DashboardHeader/DatePickerArea.tsx&#45;&gt;component/Dashboard/DashboardHeader/DateBox.tsx -->
<g id="edge13" class="edge">
<title>component/Dashboard/DashboardHeader/DatePickerArea.tsx&#45;&gt;component/Dashboard/DashboardHeader/DateBox.tsx</title>
<path fill="none" stroke="#757575" d="M1135.43,-964.06C1187.55,-958.39 1259.52,-959.46 1309,-996.05 1343.64,-1021.67 1310.75,-1059.92 1345,-1086.05 1356.6,-1094.9 1369.54,-1101.75 1383.2,-1107.01"/>
<polygon fill="#757575" stroke="#757575" points="1381.76,-1110.21 1392.35,-1110.21 1384.07,-1103.6 1381.76,-1110.21"/>
</g>
<!-- component/common/DatePicker.tsx -->
<g id="node19" class="node">
<title>component/common/DatePicker.tsx</title>
<path fill="none" stroke="#c6c5fe" d="M1688.33,-1164.55C1688.33,-1164.55 1461.67,-1164.55 1461.67,-1164.55 1457.83,-1164.55 1454,-1160.72 1454,-1156.89 1454,-1156.89 1454,-1149.22 1454,-1149.22 1454,-1145.39 1457.83,-1141.55 1461.67,-1141.55 1461.67,-1141.55 1688.33,-1141.55 1688.33,-1141.55 1692.17,-1141.55 1696,-1145.39 1696,-1149.22 1696,-1149.22 1696,-1156.89 1696,-1156.89 1696,-1160.72 1692.17,-1164.55 1688.33,-1164.55"/>
<text text-anchor="middle" x="1575" y="-1149.35" font-family="Arial" font-size="14.00" fill="#c6c5fe">component/common/DatePicker.tsx</text>
</g>
<!-- component/Dashboard/DashboardHeader/DatePickerArea.tsx&#45;&gt;component/common/DatePicker.tsx -->
<g id="edge14" class="edge">
<title>component/Dashboard/DashboardHeader/DatePickerArea.tsx&#45;&gt;component/common/DatePicker.tsx</title>
<path fill="none" stroke="#757575" d="M1124.97,-964.08C1178.36,-956 1258.28,-953.45 1309,-996.05 1357.21,-1036.54 1296.87,-1092.47 1345,-1133.05 1388.45,-1169.69 1454.42,-1171.75 1504.41,-1166.37"/>
<polygon fill="#757575" stroke="#757575" points="1504.78,-1169.85 1514.29,-1165.17 1503.94,-1162.9 1504.78,-1169.85"/>
</g>
<!-- hook/useBoolean.tsx -->
<g id="node20" class="node">
<title>hook/useBoolean.tsx</title>
<path fill="none" stroke="#cfffac" d="M2368.33,-886.55C2368.33,-886.55 2234.67,-886.55 2234.67,-886.55 2230.83,-886.55 2227,-882.72 2227,-878.89 2227,-878.89 2227,-871.22 2227,-871.22 2227,-867.39 2230.83,-863.55 2234.67,-863.55 2234.67,-863.55 2368.33,-863.55 2368.33,-863.55 2372.17,-863.55 2376,-867.39 2376,-871.22 2376,-871.22 2376,-878.89 2376,-878.89 2376,-882.72 2372.17,-886.55 2368.33,-886.55"/>
<text text-anchor="middle" x="2301.5" y="-871.35" font-family="Arial" font-size="14.00" fill="#cfffac">hook/useBoolean.tsx</text>
</g>
<!-- component/Dashboard/DashboardHeader/DatePickerArea.tsx&#45;&gt;hook/useBoolean.tsx -->
<g id="edge15" class="edge">
<title>component/Dashboard/DashboardHeader/DatePickerArea.tsx&#45;&gt;hook/useBoolean.tsx</title>
<path fill="none" stroke="#757575" d="M1272.46,-979.94C1285.22,-984.13 1297.53,-989.42 1309,-996.05 1333.33,-1010.12 1320.1,-1035.01 1345,-1048.05 1428.26,-1091.68 2108.65,-1093.39 2191,-1048.05 2249.85,-1015.65 2281.49,-936.8 2294.02,-897.74"/>
<polygon fill="#757575" stroke="#757575" points="2297.35,-898.82 2296.92,-888.23 2290.65,-896.77 2297.35,-898.82"/>
</g>
<!-- hook/useOutsideClick.tsx -->
<g id="node21" class="node">
<title>hook/useOutsideClick.tsx</title>
<path fill="none" stroke="#cfffac" d="M1655.33,-967.55C1655.33,-967.55 1494.67,-967.55 1494.67,-967.55 1490.83,-967.55 1487,-963.72 1487,-959.89 1487,-959.89 1487,-952.22 1487,-952.22 1487,-948.39 1490.83,-944.55 1494.67,-944.55 1494.67,-944.55 1655.33,-944.55 1655.33,-944.55 1659.17,-944.55 1663,-948.39 1663,-952.22 1663,-952.22 1663,-959.89 1663,-959.89 1663,-963.72 1659.17,-967.55 1655.33,-967.55"/>
<text text-anchor="middle" x="1575" y="-952.35" font-family="Arial" font-size="14.00" fill="#cfffac">hook/useOutsideClick.tsx</text>
</g>
<!-- component/Dashboard/DashboardHeader/DatePickerArea.tsx&#45;&gt;hook/useOutsideClick.tsx -->
<g id="edge16" class="edge">
<title>component/Dashboard/DashboardHeader/DatePickerArea.tsx&#45;&gt;hook/useOutsideClick.tsx</title>
<path fill="none" stroke="#757575" d="M1272.16,-968.02C1342.15,-965.24 1417.44,-962.26 1475.32,-959.96"/>
<polygon fill="#757575" stroke="#757575" points="1475.29,-963.47 1485.14,-959.58 1475.01,-956.47 1475.29,-963.47"/>
</g>
<!-- types/widget.d.ts -->
<g id="node22" class="node">
<title>types/widget.d.ts</title>
<path fill="none" stroke="#cfffac" d="M2355.33,-374.55C2355.33,-374.55 2247.67,-374.55 2247.67,-374.55 2243.83,-374.55 2240,-370.72 2240,-366.89 2240,-366.89 2240,-359.22 2240,-359.22 2240,-355.39 2243.83,-351.55 2247.67,-351.55 2247.67,-351.55 2355.33,-351.55 2355.33,-351.55 2359.17,-351.55 2363,-355.39 2363,-359.22 2363,-359.22 2363,-366.89 2363,-366.89 2363,-370.72 2359.17,-374.55 2355.33,-374.55"/>
<text text-anchor="middle" x="2301.5" y="-359.35" font-family="Arial" font-size="14.00" fill="#cfffac">types/widget.d.ts</text>
</g>
<!-- component/Dashboard/DashboardHeader/DatePickerArea.tsx&#45;&gt;types/widget.d.ts -->
<g id="edge18" class="edge">
<title>component/Dashboard/DashboardHeader/DatePickerArea.tsx&#45;&gt;types/widget.d.ts</title>
<path fill="none" stroke="#757575" d="M1206.73,-988.03C1261.56,-992.6 1318.03,-996.98 1345,-998.05 1549.28,-1006.2 1609.68,-1058.46 1805,-998.05 2003.56,-936.64 2068.72,-902.12 2191,-734.05 2272.87,-621.52 2293.95,-448.08 2299.01,-386.07"/>
<polygon fill="#757575" stroke="#757575" points="2302.47,-386.64 2299.73,-376.41 2295.49,-386.12 2302.47,-386.64"/>
</g>
<!-- component/Dashboard/DashboardHeader/SelectRealTimeRangeArea.tsx&#45;&gt;component/Dashboard/CommonStyle.ts -->
<g id="edge19" class="edge">
<title>component/Dashboard/DashboardHeader/SelectRealTimeRangeArea.tsx&#45;&gt;component/Dashboard/CommonStyle.ts</title>
<path fill="none" stroke="#757575" d="M1309.19,-912.95C1349.86,-913.28 1390.96,-913.6 1428.26,-913.9"/>
<polygon fill="#757575" stroke="#757575" points="1428.16,-917.4 1438.19,-913.98 1428.22,-910.4 1428.16,-917.4"/>
</g>
<!-- component/Dashboard/DashboardHeader/SelectRealTimeRangeArea.tsx&#45;&gt;store/DashboardProvider.tsx -->
<g id="edge24" class="edge">
<title>component/Dashboard/DashboardHeader/SelectRealTimeRangeArea.tsx&#45;&gt;store/DashboardProvider.tsx</title>
<path fill="none" stroke="#757575" d="M1129.98,-923.02C1182.99,-929.86 1259.18,-930.33 1309,-890.05 1351.31,-855.85 1305.65,-810.62 1345,-773.05 1377.03,-742.47 1422.72,-727.19 1464.88,-719.74"/>
<polygon fill="#757575" stroke="#757575" points="1465.28,-723.22 1474.59,-718.17 1464.16,-716.31 1465.28,-723.22"/>
</g>
<!-- component/Dashboard/DashboardHeader/SelectRealTimeRangeArea.tsx&#45;&gt;hook/useBoolean.tsx -->
<g id="edge22" class="edge">
<title>component/Dashboard/DashboardHeader/SelectRealTimeRangeArea.tsx&#45;&gt;hook/useBoolean.tsx</title>
<path fill="none" stroke="#757575" d="M1246.18,-899.05C1279.02,-897.14 1313.04,-895.36 1345,-894.05 1666.28,-880.95 2048.71,-876.8 2215.58,-875.55"/>
<polygon fill="#757575" stroke="#757575" points="2215.25,-879.05 2225.23,-875.48 2215.2,-872.06 2215.25,-879.05"/>
</g>
<!-- component/Dashboard/DashboardHeader/SelectRealTimeRangeArea.tsx&#45;&gt;hook/useOutsideClick.tsx -->
<g id="edge23" class="edge">
<title>component/Dashboard/DashboardHeader/SelectRealTimeRangeArea.tsx&#45;&gt;hook/useOutsideClick.tsx</title>
<path fill="none" stroke="#757575" d="M1203.7,-923.02C1289.12,-930.64 1397.85,-940.34 1475.35,-947.25"/>
<polygon fill="#757575" stroke="#757575" points="1474.77,-950.72 1485.04,-948.12 1475.39,-943.74 1474.77,-950.72"/>
</g>
<!-- component/Dashboard/DashboardHeader/RealTime.tsx -->
<g id="node23" class="node">
<title>component/Dashboard/DashboardHeader/RealTime.tsx</title>
<path fill="none" stroke="#cfffac" d="M1751.33,-805.55C1751.33,-805.55 1398.67,-805.55 1398.67,-805.55 1394.83,-805.55 1391,-801.72 1391,-797.89 1391,-797.89 1391,-790.22 1391,-790.22 1391,-786.39 1394.83,-782.55 1398.67,-782.55 1398.67,-782.55 1751.33,-782.55 1751.33,-782.55 1755.17,-782.55 1759,-786.39 1759,-790.22 1759,-790.22 1759,-797.89 1759,-797.89 1759,-801.72 1755.17,-805.55 1751.33,-805.55"/>
<text text-anchor="middle" x="1575" y="-790.35" font-family="Arial" font-size="14.00" fill="#cfffac">component/Dashboard/DashboardHeader/RealTime.tsx</text>
</g>
<!-- component/Dashboard/DashboardHeader/SelectRealTimeRangeArea.tsx&#45;&gt;component/Dashboard/DashboardHeader/RealTime.tsx -->
<g id="edge20" class="edge">
<title>component/Dashboard/DashboardHeader/SelectRealTimeRangeArea.tsx&#45;&gt;component/Dashboard/DashboardHeader/RealTime.tsx</title>
<path fill="none" stroke="#757575" d="M1149.28,-923.04C1199.39,-926.27 1263,-922.06 1309,-890.05 1339.68,-868.7 1314.32,-835.4 1345,-814.05 1355.81,-806.53 1367.65,-800.62 1380.05,-796.02"/>
<polygon fill="#757575" stroke="#757575" points="1380.81,-799.46 1389.17,-792.94 1378.58,-792.82 1380.81,-799.46"/>
</g>
<!-- component/Dashboard/DashboardHeader/SelectRealTimeListItem.tsx -->
<g id="node24" class="node">
<title>component/Dashboard/DashboardHeader/SelectRealTimeListItem.tsx</title>
<path fill="none" stroke="#cfffac" d="M1797.33,-846.55C1797.33,-846.55 1352.67,-846.55 1352.67,-846.55 1348.83,-846.55 1345,-842.72 1345,-838.89 1345,-838.89 1345,-831.22 1345,-831.22 1345,-827.39 1348.83,-823.55 1352.67,-823.55 1352.67,-823.55 1797.33,-823.55 1797.33,-823.55 1801.17,-823.55 1805,-827.39 1805,-831.22 1805,-831.22 1805,-838.89 1805,-838.89 1805,-842.72 1801.17,-846.55 1797.33,-846.55"/>
<text text-anchor="middle" x="1575" y="-831.35" font-family="Arial" font-size="14.00" fill="#cfffac">component/Dashboard/DashboardHeader/SelectRealTimeListItem.tsx</text>
</g>
<!-- component/Dashboard/DashboardHeader/SelectRealTimeRangeArea.tsx&#45;&gt;component/Dashboard/DashboardHeader/SelectRealTimeListItem.tsx -->
<g id="edge21" class="edge">
<title>component/Dashboard/DashboardHeader/SelectRealTimeRangeArea.tsx&#45;&gt;component/Dashboard/DashboardHeader/SelectRealTimeListItem.tsx</title>
<path fill="none" stroke="#757575" d="M1282.65,-899.09C1291.66,-896.48 1300.48,-893.48 1309,-890.05 1328.06,-882.38 1326.04,-868.97 1345,-861.05 1355.32,-856.75 1366.11,-853.07 1377.15,-849.94"/>
<polygon fill="#757575" stroke="#757575" points="1378.03,-853.32 1386.8,-847.37 1376.23,-846.56 1378.03,-853.32"/>
</g>
<!-- store/DashboardProvider.tsx&#45;&gt;common/date.ts -->
<g id="edge63" class="edge">
<title>store/DashboardProvider.tsx&#45;&gt;common/date.ts</title>
<path fill="none" stroke="#757575" d="M1673.97,-714.05C1756.13,-714.05 1871.45,-714.05 1944.69,-714.05"/>
<polygon fill="#757575" stroke="#757575" points="1944.56,-717.55 1954.56,-714.05 1944.56,-710.55 1944.56,-717.55"/>
</g>
<!-- store/WidgetProvider.tsx&#45;&gt;hook/useBoolean.tsx -->
<g id="edge64" class="edge">
<title>store/WidgetProvider.tsx&#45;&gt;hook/useBoolean.tsx</title>
<path fill="none" stroke="#757575" d="M2033.61,-551C2066.45,-575.18 2140.82,-632.74 2191,-693.05 2234.63,-745.49 2272.38,-817.17 2289.97,-852.91"/>
<polygon fill="#757575" stroke="#757575" points="2286.78,-854.35 2294.29,-861.82 2293.07,-851.29 2286.78,-854.35"/>
</g>
<!-- store/WidgetProvider.tsx&#45;&gt;types/widget.d.ts -->
<g id="edge65" class="edge">
<title>store/WidgetProvider.tsx&#45;&gt;types/widget.d.ts</title>
<path fill="none" stroke="#757575" d="M2036.04,-527.23C2084.76,-496.99 2214.16,-416.65 2271.94,-380.78"/>
<polygon fill="#757575" stroke="#757575" points="2273.61,-383.87 2280.26,-375.62 2269.91,-377.92 2273.61,-383.87"/>
</g>
<!-- component/common/DatePicker/ListPicker.tsx -->
<g id="node36" class="node">
<title>component/common/DatePicker/ListPicker.tsx</title>
<path fill="none" stroke="#c6c5fe" d="M2162.33,-1184.55C2162.33,-1184.55 1869.67,-1184.55 1869.67,-1184.55 1865.83,-1184.55 1862,-1180.72 1862,-1176.89 1862,-1176.89 1862,-1169.22 1862,-1169.22 1862,-1165.39 1865.83,-1161.55 1869.67,-1161.55 1869.67,-1161.55 2162.33,-1161.55 2162.33,-1161.55 2166.17,-1161.55 2170,-1165.39 2170,-1169.22 2170,-1169.22 2170,-1176.89 2170,-1176.89 2170,-1180.72 2166.17,-1184.55 2162.33,-1184.55"/>
<text text-anchor="middle" x="2016" y="-1169.35" font-family="Arial" font-size="14.00" fill="#c6c5fe">component/common/DatePicker/ListPicker.tsx</text>
</g>
<!-- component/common/DatePicker.tsx&#45;&gt;component/common/DatePicker/ListPicker.tsx -->
<g id="edge53" class="edge">
<title>component/common/DatePicker.tsx&#45;&gt;component/common/DatePicker/ListPicker.tsx</title>
<path fill="none" stroke="#757575" d="M1696.25,-1158.53C1743.78,-1160.7 1799.19,-1163.22 1850.34,-1165.55"/>
<polygon fill="#757575" stroke="#757575" points="1849.87,-1169.03 1860.02,-1165.99 1850.19,-1162.04 1849.87,-1169.03"/>
</g>
<!-- types/datePicker.d.ts -->
<g id="node37" class="node">
<title>types/datePicker.d.ts</title>
<path fill="none" stroke="#cfffac" d="M2368.33,-1164.55C2368.33,-1164.55 2234.67,-1164.55 2234.67,-1164.55 2230.83,-1164.55 2227,-1160.72 2227,-1156.89 2227,-1156.89 2227,-1149.22 2227,-1149.22 2227,-1145.39 2230.83,-1141.55 2234.67,-1141.55 2234.67,-1141.55 2368.33,-1141.55 2368.33,-1141.55 2372.17,-1141.55 2376,-1145.39 2376,-1149.22 2376,-1149.22 2376,-1156.89 2376,-1156.89 2376,-1160.72 2372.17,-1164.55 2368.33,-1164.55"/>
<text text-anchor="middle" x="2301.5" y="-1149.35" font-family="Arial" font-size="14.00" fill="#cfffac">types/datePicker.d.ts</text>
</g>
<!-- component/common/DatePicker.tsx&#45;&gt;types/datePicker.d.ts -->
<g id="edge54" class="edge">
<title>component/common/DatePicker.tsx&#45;&gt;types/datePicker.d.ts</title>
<path fill="none" stroke="#757575" d="M1696.45,-1153.05C1843.11,-1153.05 2087.1,-1153.05 2215.5,-1153.05"/>
<polygon fill="#757575" stroke="#757575" points="2215.29,-1156.55 2225.29,-1153.05 2215.29,-1149.55 2215.29,-1156.55"/>
</g>
<!-- component/Dashboard/WidgetPropsSettingModal.tsx -->
<g id="node25" class="node">
<title>component/Dashboard/WidgetPropsSettingModal.tsx</title>
<path fill="none" stroke="#c6c5fe" d="M784.33,-645.55C784.33,-645.55 446.67,-645.55 446.67,-645.55 442.83,-645.55 439,-641.72 439,-637.89 439,-637.89 439,-630.22 439,-630.22 439,-626.39 442.83,-622.55 446.67,-622.55 446.67,-622.55 784.33,-622.55 784.33,-622.55 788.17,-622.55 792,-626.39 792,-630.22 792,-630.22 792,-637.89 792,-637.89 792,-641.72 788.17,-645.55 784.33,-645.55"/>
<text text-anchor="middle" x="615.5" y="-630.35" font-family="Arial" font-size="14.00" fill="#c6c5fe">component/Dashboard/WidgetPropsSettingModal.tsx</text>
</g>
<!-- component/Dashboard/WidgetPropsSettingModal.tsx&#45;&gt;api.ts -->
<g id="edge25" class="edge">
<title>component/Dashboard/WidgetPropsSettingModal.tsx&#45;&gt;api.ts</title>
<path fill="none" stroke="#757575" d="M687.46,-622.09C784.36,-605.77 954.6,-577.08 1029.88,-564.39"/>
<polygon fill="#757575" stroke="#757575" points="1030.35,-567.86 1039.63,-562.75 1029.18,-560.96 1030.35,-567.86"/>
</g>
<!-- component/Dashboard/WidgetPropsSettingModal.tsx&#45;&gt;store/WidgetProvider.tsx -->
<g id="edge26" class="edge">
<title>component/Dashboard/WidgetPropsSettingModal.tsx&#45;&gt;store/WidgetProvider.tsx</title>
<path fill="none" stroke="#757575" d="M792.34,-625.17C1024.44,-612.97 1445.68,-589.19 1805,-560.05 1841.91,-557.06 1882.4,-553.16 1917.9,-549.53"/>
<polygon fill="#757575" stroke="#757575" points="1918.15,-553.02 1927.74,-548.52 1917.43,-546.06 1918.15,-553.02"/>
</g>
<!-- component/Widget.tsx -->
<g id="node26" class="node">
<title>component/Widget.tsx</title>
<path fill="none" stroke="#c6c5fe" d="M687.33,-453.55C687.33,-453.55 543.67,-453.55 543.67,-453.55 539.83,-453.55 536,-449.72 536,-445.89 536,-445.89 536,-438.22 536,-438.22 536,-434.39 539.83,-430.55 543.67,-430.55 543.67,-430.55 687.33,-430.55 687.33,-430.55 691.17,-430.55 695,-434.39 695,-438.22 695,-438.22 695,-445.89 695,-445.89 695,-449.72 691.17,-453.55 687.33,-453.55"/>
<text text-anchor="middle" x="615.5" y="-438.35" font-family="Arial" font-size="14.00" fill="#c6c5fe">component/Widget.tsx</text>
</g>
<!-- component/Widget.tsx&#45;&gt;api.ts -->
<g id="edge27" class="edge">
<title>component/Widget.tsx&#45;&gt;api.ts</title>
<path fill="none" stroke="#757575" d="M638.58,-454.04C676.22,-473.87 755.8,-513.21 828,-532.05 897.77,-550.26 982.18,-555.73 1029.87,-557.37"/>
<polygon fill="#757575" stroke="#757575" points="1029.56,-560.86 1039.66,-557.66 1029.77,-553.86 1029.56,-560.86"/>
</g>
<!-- component/Widget.tsx&#45;&gt;types/api.d.ts -->
<g id="edge35" class="edge">
<title>component/Widget.tsx&#45;&gt;types/api.d.ts</title>
<path fill="none" stroke="#757575" d="M655.83,-453.98C697.99,-466.22 767.07,-484.76 828,-494.05 1080.21,-532.51 1385.04,-539.03 1512.9,-539.98"/>
<polygon fill="#757575" stroke="#757575" points="1512.82,-543.48 1522.84,-540.05 1512.86,-536.48 1512.82,-543.48"/>
</g>
<!-- component/Widget.tsx&#45;&gt;common/date.ts -->
<g id="edge28" class="edge">
<title>component/Widget.tsx&#45;&gt;common/date.ts</title>
<path fill="none" stroke="#757575" d="M695.35,-446.36C956.79,-460.75 1779.97,-506.92 1805,-519.05 1826.52,-529.48 1824.04,-542.18 1841,-559.05 1892.64,-610.43 1957.73,-666.22 1991.79,-694.79"/>
<polygon fill="#757575" stroke="#757575" points="1989.46,-697.41 1999.38,-701.14 1993.95,-692.04 1989.46,-697.41"/>
</g>
<!-- component/Widget.tsx&#45;&gt;common/widget.ts -->
<g id="edge29" class="edge">
<title>component/Widget.tsx&#45;&gt;common/widget.ts</title>
<path fill="none" stroke="#757575" d="M648.18,-430.15C689.04,-415.45 762.66,-391.14 828,-381.05 1069.98,-343.71 1361.26,-351.15 1497.16,-357.6"/>
<polygon fill="#757575" stroke="#757575" points="1496.97,-361.09 1507.13,-358.09 1497.31,-354.1 1496.97,-361.09"/>
</g>
<!-- component/Widget.tsx&#45;&gt;store/DashboardProvider.tsx -->
<g id="edge33" class="edge">
<title>component/Widget.tsx&#45;&gt;store/DashboardProvider.tsx</title>
<path fill="none" stroke="#757575" d="M630.29,-453.73C662.55,-480.37 746.38,-545.84 828,-578.05 1043.87,-663.25 1316.18,-695.6 1464.83,-707.49"/>
<polygon fill="#757575" stroke="#757575" points="1464.45,-710.97 1474.69,-708.26 1464.99,-703.99 1464.45,-710.97"/>
</g>
<!-- component/Widget.tsx&#45;&gt;store/WidgetProvider.tsx -->
<g id="edge34" class="edge">
<title>component/Widget.tsx&#45;&gt;store/WidgetProvider.tsx</title>
<path fill="none" stroke="#757575" d="M695.11,-440.55C924.61,-436.66 1591,-429.07 1805,-467.05 1867.88,-478.21 1937.33,-505.09 1978.51,-522.66"/>
<polygon fill="#757575" stroke="#757575" points="1976.89,-525.77 1987.46,-526.53 1979.67,-519.35 1976.89,-525.77"/>
</g>
<!-- component/Widget.tsx&#45;&gt;types/widget.d.ts -->
<g id="edge36" class="edge">
<title>component/Widget.tsx&#45;&gt;types/widget.d.ts</title>
<path fill="none" stroke="#757575" d="M628.49,-430.27C658.77,-401.46 742.04,-327.81 828,-301.05 1242.62,-172.01 1370.8,-287.43 1805,-293.05 1976.6,-295.28 2025.31,-258.34 2191,-303.05 2222.26,-311.49 2254.31,-330.5 2275.59,-344.88"/>
<polygon fill="#757575" stroke="#757575" points="2273.4,-347.61 2283.61,-350.44 2277.39,-341.86 2273.4,-347.61"/>
</g>
<!-- component/Widget/WidgetButtons.tsx -->
<g id="node27" class="node">
<title>component/Widget/WidgetButtons.tsx</title>
<path fill="none" stroke="#c6c5fe" d="M1189.33,-413.55C1189.33,-413.55 947.67,-413.55 947.67,-413.55 943.83,-413.55 940,-409.72 940,-405.89 940,-405.89 940,-398.22 940,-398.22 940,-394.39 943.83,-390.55 947.67,-390.55 947.67,-390.55 1189.33,-390.55 1189.33,-390.55 1193.17,-390.55 1197,-394.39 1197,-398.22 1197,-398.22 1197,-405.89 1197,-405.89 1197,-409.72 1193.17,-413.55 1189.33,-413.55"/>
<text text-anchor="middle" x="1068.5" y="-398.35" font-family="Arial" font-size="14.00" fill="#c6c5fe">component/Widget/WidgetButtons.tsx</text>
</g>
<!-- component/Widget.tsx&#45;&gt;component/Widget/WidgetButtons.tsx -->
<g id="edge30" class="edge">
<title>component/Widget.tsx&#45;&gt;component/Widget/WidgetButtons.tsx</title>
<path fill="none" stroke="#757575" d="M695.32,-435.06C759.57,-429.36 851.9,-421.17 928.52,-414.38"/>
<polygon fill="#757575" stroke="#757575" points="928.55,-417.89 938.2,-413.52 927.93,-410.92 928.55,-417.89"/>
</g>
<!-- component/Widget/WidgetChart.tsx -->
<g id="node28" class="node">
<title>component/Widget/WidgetChart.tsx</title>
<path fill="none" stroke="#c6c5fe" d="M1181.83,-159.55C1181.83,-159.55 955.17,-159.55 955.17,-159.55 951.33,-159.55 947.5,-155.72 947.5,-151.89 947.5,-151.89 947.5,-144.22 947.5,-144.22 947.5,-140.39 951.33,-136.55 955.17,-136.55 955.17,-136.55 1181.83,-136.55 1181.83,-136.55 1185.67,-136.55 1189.5,-140.39 1189.5,-144.22 1189.5,-144.22 1189.5,-151.89 1189.5,-151.89 1189.5,-155.72 1185.67,-159.55 1181.83,-159.55"/>
<text text-anchor="middle" x="1068.5" y="-144.35" font-family="Arial" font-size="14.00" fill="#c6c5fe">component/Widget/WidgetChart.tsx</text>
</g>
<!-- component/Widget.tsx&#45;&gt;component/Widget/WidgetChart.tsx -->
<g id="edge31" class="edge">
<title>component/Widget.tsx&#45;&gt;component/Widget/WidgetChart.tsx</title>
<path fill="none" stroke="#757575" d="M625.23,-430.24C651.79,-395.09 735.47,-290.01 828,-232.05 881.81,-198.35 950.93,-175.97 1001.07,-162.85"/>
<polygon fill="#757575" stroke="#757575" points="1001.82,-166.27 1010.64,-160.41 1000.08,-159.49 1001.82,-166.27"/>
</g>
<!-- component/Widget/WidgetModal.tsx -->
<g id="node29" class="node">
<title>component/Widget/WidgetModal.tsx</title>
<path fill="none" stroke="#c6c5fe" d="M1184.33,-333.55C1184.33,-333.55 952.67,-333.55 952.67,-333.55 948.83,-333.55 945,-329.72 945,-325.89 945,-325.89 945,-318.22 945,-318.22 945,-314.39 948.83,-310.55 952.67,-310.55 952.67,-310.55 1184.33,-310.55 1184.33,-310.55 1188.17,-310.55 1192,-314.39 1192,-318.22 1192,-318.22 1192,-325.89 1192,-325.89 1192,-329.72 1188.17,-333.55 1184.33,-333.55"/>
<text text-anchor="middle" x="1068.5" y="-318.35" font-family="Arial" font-size="14.00" fill="#c6c5fe">component/Widget/WidgetModal.tsx</text>
</g>
<!-- component/Widget.tsx&#45;&gt;component/Widget/WidgetModal.tsx -->
<g id="edge32" class="edge">
<title>component/Widget.tsx&#45;&gt;component/Widget/WidgetModal.tsx</title>
<path fill="none" stroke="#757575" d="M637.31,-430.17C674.34,-409.63 754.67,-367.81 828,-348.05 861.62,-339 898.69,-333.08 933.43,-329.22"/>
<polygon fill="#757575" stroke="#757575" points="933.53,-332.73 943.11,-328.2 932.8,-325.77 933.53,-332.73"/>
</g>
<!-- hook/Widget/useWidgetButton.tsx -->
<g id="node30" class="node">
<title>hook/Widget/useWidgetButton.tsx</title>
<path fill="none" stroke="#c6c5fe" d="M1683.33,-414.55C1683.33,-414.55 1466.67,-414.55 1466.67,-414.55 1462.83,-414.55 1459,-410.72 1459,-406.89 1459,-406.89 1459,-399.22 1459,-399.22 1459,-395.39 1462.83,-391.55 1466.67,-391.55 1466.67,-391.55 1683.33,-391.55 1683.33,-391.55 1687.17,-391.55 1691,-395.39 1691,-399.22 1691,-399.22 1691,-406.89 1691,-406.89 1691,-410.72 1687.17,-414.55 1683.33,-414.55"/>
<text text-anchor="middle" x="1575" y="-399.35" font-family="Arial" font-size="14.00" fill="#c6c5fe">hook/Widget/useWidgetButton.tsx</text>
</g>
<!-- component/Widget/WidgetButtons.tsx&#45;&gt;hook/Widget/useWidgetButton.tsx -->
<g id="edge37" class="edge">
<title>component/Widget/WidgetButtons.tsx&#45;&gt;hook/Widget/useWidgetButton.tsx</title>
<path fill="none" stroke="#757575" d="M1197.46,-402.31C1274.11,-402.46 1371.18,-402.65 1447.56,-402.8"/>
<polygon fill="#757575" stroke="#757575" points="1447.16,-406.3 1457.16,-402.82 1447.17,-399.3 1447.16,-406.3"/>
</g>
<!-- component/chart/BarChart.tsx -->
<g id="node31" class="node">
<title>component/chart/BarChart.tsx</title>
<path fill="none" stroke="#c6c5fe" d="M1668.83,-179.55C1668.83,-179.55 1481.17,-179.55 1481.17,-179.55 1477.33,-179.55 1473.5,-175.72 1473.5,-171.89 1473.5,-171.89 1473.5,-164.22 1473.5,-164.22 1473.5,-160.39 1477.33,-156.55 1481.17,-156.55 1481.17,-156.55 1668.83,-156.55 1668.83,-156.55 1672.67,-156.55 1676.5,-160.39 1676.5,-164.22 1676.5,-164.22 1676.5,-171.89 1676.5,-171.89 1676.5,-175.72 1672.67,-179.55 1668.83,-179.55"/>
<text text-anchor="middle" x="1575" y="-164.35" font-family="Arial" font-size="14.00" fill="#c6c5fe">component/chart/BarChart.tsx</text>
</g>
<!-- component/Widget/WidgetChart.tsx&#45;&gt;component/chart/BarChart.tsx -->
<g id="edge38" class="edge">
<title>component/Widget/WidgetChart.tsx&#45;&gt;component/chart/BarChart.tsx</title>
<path fill="none" stroke="#757575" d="M1189.7,-152.82C1272.37,-156.1 1381.4,-160.42 1462.2,-163.62"/>
<polygon fill="#757575" stroke="#757575" points="1461.76,-167.11 1471.89,-164 1462.04,-160.11 1461.76,-167.11"/>
</g>
<!-- component/chart/InformaticsChart.tsx -->
<g id="node32" class="node">
<title>component/chart/InformaticsChart.tsx</title>
<path fill="none" stroke="#c6c5fe" d="M1693.33,-58.55C1693.33,-58.55 1456.67,-58.55 1456.67,-58.55 1452.83,-58.55 1449,-54.72 1449,-50.89 1449,-50.89 1449,-43.22 1449,-43.22 1449,-39.39 1452.83,-35.55 1456.67,-35.55 1456.67,-35.55 1693.33,-35.55 1693.33,-35.55 1697.17,-35.55 1701,-39.39 1701,-43.22 1701,-43.22 1701,-50.89 1701,-50.89 1701,-54.72 1697.17,-58.55 1693.33,-58.55"/>
<text text-anchor="middle" x="1575" y="-43.35" font-family="Arial" font-size="14.00" fill="#c6c5fe">component/chart/InformaticsChart.tsx</text>
</g>
<!-- component/Widget/WidgetChart.tsx&#45;&gt;component/chart/InformaticsChart.tsx -->
<g id="edge39" class="edge">
<title>component/Widget/WidgetChart.tsx&#45;&gt;component/chart/InformaticsChart.tsx</title>
<path fill="none" stroke="#757575" d="M1129.35,-136.07C1222.85,-117.35 1403.15,-81.26 1503.04,-61.26"/>
<polygon fill="#757575" stroke="#757575" points="1503.62,-64.71 1512.74,-59.32 1502.25,-57.85 1503.62,-64.71"/>
</g>
<!-- component/chart/LineChart.tsx -->
<g id="node33" class="node">
<title>component/chart/LineChart.tsx</title>
<path fill="none" stroke="#c6c5fe" d="M1671.83,-138.55C1671.83,-138.55 1478.17,-138.55 1478.17,-138.55 1474.33,-138.55 1470.5,-134.72 1470.5,-130.89 1470.5,-130.89 1470.5,-123.22 1470.5,-123.22 1470.5,-119.39 1474.33,-115.55 1478.17,-115.55 1478.17,-115.55 1671.83,-115.55 1671.83,-115.55 1675.67,-115.55 1679.5,-119.39 1679.5,-123.22 1679.5,-123.22 1679.5,-130.89 1679.5,-130.89 1679.5,-134.72 1675.67,-138.55 1671.83,-138.55"/>
<text text-anchor="middle" x="1575" y="-123.35" font-family="Arial" font-size="14.00" fill="#c6c5fe">component/chart/LineChart.tsx</text>
</g>
<!-- component/Widget/WidgetChart.tsx&#45;&gt;component/chart/LineChart.tsx -->
<g id="edge40" class="edge">
<title>component/Widget/WidgetChart.tsx&#45;&gt;component/chart/LineChart.tsx</title>
<path fill="none" stroke="#757575" d="M1189.7,-143.05C1271.26,-139.65 1378.46,-135.19 1458.92,-131.84"/>
<polygon fill="#757575" stroke="#757575" points="1458.73,-135.35 1468.58,-131.44 1458.44,-128.36 1458.73,-135.35"/>
</g>
<!-- component/Widget/WidgetModal.tsx&#45;&gt;common/widget.ts -->
<g id="edge41" class="edge">
<title>component/Widget/WidgetModal.tsx&#45;&gt;common/widget.ts</title>
<path fill="none" stroke="#757575" d="M1192.27,-331.79C1287.54,-339.34 1416.61,-349.57 1497.59,-355.99"/>
<polygon fill="#757575" stroke="#757575" points="1496.93,-359.45 1507.18,-356.75 1497.48,-352.47 1496.93,-359.45"/>
</g>
<!-- component/Widget/WidgetModal.tsx&#45;&gt;store/WidgetProvider.tsx -->
<g id="edge42" class="edge">
<title>component/Widget/WidgetModal.tsx&#45;&gt;store/WidgetProvider.tsx</title>
<path fill="none" stroke="#757575" d="M1192.14,-314.76C1372.02,-305.82 1697.68,-296.82 1805,-341.05 1895.93,-378.53 1970.87,-474.92 2000.89,-517.86"/>
<polygon fill="#757575" stroke="#757575" points="1997.83,-519.59 2006.37,-525.86 2003.6,-515.63 1997.83,-519.59"/>
</g>
<!-- component/Widget/WidgetModal.tsx&#45;&gt;types/widget.d.ts -->
<g id="edge43" class="edge">
<title>component/Widget/WidgetModal.tsx&#45;&gt;types/widget.d.ts</title>
<path fill="none" stroke="#757575" d="M1192.16,-312.32C1239.84,-308.99 1294.94,-305.69 1345,-304.05 1549.34,-297.38 1600.91,-291.95 1805,-304.05 1956.25,-313.03 2132.1,-337.27 2228.35,-351.74"/>
<polygon fill="#757575" stroke="#757575" points="2227.77,-355.19 2238.19,-353.23 2228.82,-348.27 2227.77,-355.19"/>
</g>
<!-- hook/Widget/useWidgetButton.tsx&#45;&gt;store/WidgetProvider.tsx -->
<g id="edge56" class="edge">
<title>hook/Widget/useWidgetButton.tsx&#45;&gt;store/WidgetProvider.tsx</title>
<path fill="none" stroke="#757575" d="M1691.27,-407.79C1728.19,-411.51 1768.85,-417.96 1805,-429.05 1875.25,-450.61 1949.66,-495.61 1988.25,-520.86"/>
<polygon fill="#757575" stroke="#757575" points="1986.18,-523.68 1996.45,-526.29 1990.05,-517.85 1986.18,-523.68"/>
</g>
<!-- component/chart/BarChart.tsx&#45;&gt;common/chart.ts -->
<g id="edge44" class="edge">
<title>component/chart/BarChart.tsx&#45;&gt;common/chart.ts</title>
<path fill="none" stroke="#757575" d="M1676.9,-158.88C1716.8,-155.23 1763.06,-150.97 1805,-147.05 1851.06,-142.75 1902.8,-137.82 1943.4,-133.93"/>
<polygon fill="#757575" stroke="#757575" points="1943.68,-137.42 1953.3,-132.99 1943.01,-130.46 1943.68,-137.42"/>
</g>
<!-- component/chart/BarChart.tsx&#45;&gt;types/chart.d.ts -->
<g id="edge46" class="edge">
<title>component/chart/BarChart.tsx&#45;&gt;types/chart.d.ts</title>
<path fill="none" stroke="#757575" d="M1616.69,-180.01C1718.01,-207.58 1988.02,-267.37 2191,-188.05 2232.07,-172 2267.01,-132.53 2285.76,-107.95"/>
<polygon fill="#757575" stroke="#757575" points="2288.54,-110.08 2291.67,-99.96 2282.91,-105.92 2288.54,-110.08"/>
</g>
<!-- hook/useResize.tsx -->
<g id="node34" class="node">
<title>hook/useResize.tsx</title>
<path fill="none" stroke="#cfffac" d="M2078.33,-179.55C2078.33,-179.55 1953.67,-179.55 1953.67,-179.55 1949.83,-179.55 1946,-175.72 1946,-171.89 1946,-171.89 1946,-164.22 1946,-164.22 1946,-160.39 1949.83,-156.55 1953.67,-156.55 1953.67,-156.55 2078.33,-156.55 2078.33,-156.55 2082.17,-156.55 2086,-160.39 2086,-164.22 2086,-164.22 2086,-171.89 2086,-171.89 2086,-175.72 2082.17,-179.55 2078.33,-179.55"/>
<text text-anchor="middle" x="2016" y="-164.35" font-family="Arial" font-size="14.00" fill="#cfffac">hook/useResize.tsx</text>
</g>
<!-- component/chart/BarChart.tsx&#45;&gt;hook/useResize.tsx -->
<g id="edge45" class="edge">
<title>component/chart/BarChart.tsx&#45;&gt;hook/useResize.tsx</title>
<path fill="none" stroke="#757575" d="M1676.99,-168.05C1755.1,-168.05 1861.79,-168.05 1934.27,-168.05"/>
<polygon fill="#757575" stroke="#757575" points="1934.08,-171.55 1944.08,-168.05 1934.08,-164.55 1934.08,-171.55"/>
</g>
<!-- component/chart/InformaticsChart.tsx&#45;&gt;types/chart.d.ts -->
<g id="edge48" class="edge">
<title>component/chart/InformaticsChart.tsx&#45;&gt;types/chart.d.ts</title>
<path fill="none" stroke="#757575" d="M1629.77,-35.12C1738.08,-13.28 1989.37,26.32 2191,-26.05 2222.64,-34.27 2254.85,-53.85 2276.07,-68.62"/>
<polygon fill="#757575" stroke="#757575" points="2273.88,-71.36 2284.04,-74.34 2277.95,-65.67 2273.88,-71.36"/>
</g>
<!-- component/chart/InformaticsChart/InforMaticsBox.tsx -->
<g id="node35" class="node">
<title>component/chart/InformaticsChart/InforMaticsBox.tsx</title>
<path fill="none" stroke="#c6c5fe" d="M2183.33,-58.55C2183.33,-58.55 1848.67,-58.55 1848.67,-58.55 1844.83,-58.55 1841,-54.72 1841,-50.89 1841,-50.89 1841,-43.22 1841,-43.22 1841,-39.39 1844.83,-35.55 1848.67,-35.55 1848.67,-35.55 2183.33,-35.55 2183.33,-35.55 2187.17,-35.55 2191,-39.39 2191,-43.22 2191,-43.22 2191,-50.89 2191,-50.89 2191,-54.72 2187.17,-58.55 2183.33,-58.55"/>
<text text-anchor="middle" x="2016" y="-43.35" font-family="Arial" font-size="14.00" fill="#c6c5fe">component/chart/InformaticsChart/InforMaticsBox.tsx</text>
</g>
<!-- component/chart/InformaticsChart.tsx&#45;&gt;component/chart/InformaticsChart/InforMaticsBox.tsx -->
<g id="edge47" class="edge">
<title>component/chart/InformaticsChart.tsx&#45;&gt;component/chart/InformaticsChart/InforMaticsBox.tsx</title>
<path fill="none" stroke="#757575" d="M1701.21,-47.05C1740.99,-47.05 1785.88,-47.05 1828.99,-47.05"/>
<polygon fill="#757575" stroke="#757575" points="1828.99,-50.55 1838.99,-47.05 1828.99,-43.55 1828.99,-50.55"/>
</g>
<!-- component/chart/LineChart.tsx&#45;&gt;common/chart.ts -->
<g id="edge50" class="edge">
<title>component/chart/LineChart.tsx&#45;&gt;common/chart.ts</title>
<path fill="none" stroke="#757575" d="M1679.76,-127.05C1760.98,-127.05 1871.81,-127.05 1943.4,-127.05"/>
<polygon fill="#757575" stroke="#757575" points="1943.02,-130.55 1953.02,-127.05 1943.02,-123.55 1943.02,-130.55"/>
</g>
<!-- component/chart/LineChart.tsx&#45;&gt;types/chart.d.ts -->
<g id="edge52" class="edge">
<title>component/chart/LineChart.tsx&#45;&gt;types/chart.d.ts</title>
<path fill="none" stroke="#757575" d="M1679.77,-117.92C1728.65,-113.85 1787.79,-109.26 1841,-106.05 1980.34,-97.65 2143.68,-91.86 2233.24,-89.04"/>
<polygon fill="#757575" stroke="#757575" points="2233.19,-92.54 2243.07,-88.73 2232.97,-85.55 2233.19,-92.54"/>
</g>
<!-- component/chart/LineChart.tsx&#45;&gt;hook/useResize.tsx -->
<g id="edge51" class="edge">
<title>component/chart/LineChart.tsx&#45;&gt;hook/useResize.tsx</title>
<path fill="none" stroke="#757575" d="M1679.76,-135.84C1719.01,-139.23 1764.07,-143.22 1805,-147.05 1847.83,-151.06 1895.55,-155.81 1934.66,-159.78"/>
<polygon fill="#757575" stroke="#757575" points="1934.17,-163.25 1944.47,-160.78 1934.88,-156.28 1934.17,-163.25"/>
</g>
<!-- component/chart/InformaticsChart/InforMaticsBox.tsx&#45;&gt;types/chart.d.ts -->
<g id="edge49" class="edge">
<title>component/chart/InformaticsChart/InforMaticsBox.tsx&#45;&gt;types/chart.d.ts</title>
<path fill="none" stroke="#757575" d="M2101.68,-59C2143.85,-64.95 2194.12,-72.04 2233.55,-77.61"/>
<polygon fill="#757575" stroke="#757575" points="2233.01,-81.06 2243.4,-79 2233.99,-74.13 2233.01,-81.06"/>
</g>
<!-- component/common/DatePicker/ListPicker.tsx&#45;&gt;types/datePicker.d.ts -->
<g id="edge55" class="edge">
<title>component/common/DatePicker/ListPicker.tsx&#45;&gt;types/datePicker.d.ts</title>
<path fill="none" stroke="#757575" d="M2170.37,-1162.23C2185.81,-1161.14 2201.07,-1160.07 2215.4,-1159.06"/>
<polygon fill="#757575" stroke="#757575" points="2215.44,-1162.56 2225.17,-1158.37 2214.95,-1155.58 2215.44,-1162.56"/>
</g>
<!-- page/Dashboard.tsx&#45;&gt;component/Dashboard/DashboardHeader.tsx -->
<g id="edge57" class="edge">
<title>page/Dashboard.tsx&#45;&gt;component/Dashboard/DashboardHeader.tsx</title>
<path fill="none" stroke="#757575" d="M350.97,-685.87C399.52,-716.12 528.47,-796.45 586.04,-832.32"/>
<polygon fill="#757575" stroke="#757575" points="583.99,-835.17 594.32,-837.48 587.69,-829.22 583.99,-835.17"/>
</g>
<!-- page/Dashboard.tsx&#45;&gt;store/DashboardProvider.tsx -->
<g id="edge60" class="edge">
<title>page/Dashboard.tsx&#45;&gt;store/DashboardProvider.tsx</title>
<path fill="none" stroke="#757575" d="M403.26,-684.46C415.17,-685.89 427.42,-687.16 439,-688.05 814.87,-716.86 1262.63,-717.14 1465.06,-715.43"/>
<polygon fill="#757575" stroke="#757575" points="1464.8,-718.94 1474.77,-715.35 1464.74,-711.94 1464.8,-718.94"/>
</g>
<!-- page/Dashboard.tsx&#45;&gt;store/WidgetProvider.tsx -->
<g id="edge61" class="edge">
<title>page/Dashboard.tsx&#45;&gt;store/WidgetProvider.tsx</title>
<path fill="none" stroke="#757575" d="M403.33,-671.27C493.77,-667.67 654.49,-661.03 792,-654.05 1242.54,-631.19 1359.17,-658.96 1805,-590.05 1859.97,-581.56 1921.7,-565.8 1963.92,-554.04"/>
<polygon fill="#757575" stroke="#757575" points="1964.62,-557.48 1973.3,-551.4 1962.73,-550.74 1964.62,-557.48"/>
</g>
<!-- page/Dashboard.tsx&#45;&gt;component/Dashboard/WidgetPropsSettingModal.tsx -->
<g id="edge58" class="edge">
<title>page/Dashboard.tsx&#45;&gt;component/Dashboard/WidgetPropsSettingModal.tsx</title>
<path fill="none" stroke="#757575" d="M403.29,-663.96C438.32,-659 481.04,-652.95 518.87,-647.59"/>
<polygon fill="#757575" stroke="#757575" points="519.01,-651.11 528.42,-646.24 518.02,-644.18 519.01,-651.11"/>
</g>
<!-- page/Dashboard.tsx&#45;&gt;component/Widget.tsx -->
<g id="edge59" class="edge">
<title>page/Dashboard.tsx&#45;&gt;component/Widget.tsx</title>
<path fill="none" stroke="#757575" d="M346.4,-662.23C392.21,-624.61 534.88,-507.44 591.25,-461.15"/>
<polygon fill="#757575" stroke="#757575" points="593.46,-463.86 598.96,-454.81 589.01,-458.46 593.46,-463.86"/>
</g>
</g>
</svg>
