<?xml version="1.0" encoding="UTF-8" standalone="no"?>
<!DOCTYPE svg PUBLIC "-//W3C//DTD SVG 1.1//EN"
 "http://www.w3.org/Graphics/SVG/1.1/DTD/svg11.dtd">
<!-- Generated by graphviz version 7.1.0 (20230121.1956)
 -->
<!-- Title: G Pages: 1 -->
<svg width="3509pt" height="1232pt"
 viewBox="0.00 0.00 3509.20 1232.08" xmlns="http://www.w3.org/2000/svg" xmlns:xlink="http://www.w3.org/1999/xlink">
<g id="graph0" class="graph" transform="scale(1 1) rotate(0) translate(21.6 1210.48)">
<title>G</title>
<polygon fill="#111111" stroke="none" points="-21.6,21.6 -21.6,-1210.48 3487.6,-1210.48 3487.6,21.6 -21.6,21.6"/>
<!-- App.tsx -->
<g id="node1" class="node">
<title>App.tsx</title>
<path fill="none" stroke="#c6c5fe" d="M57.33,-718.88C57.33,-718.88 7.67,-718.88 7.67,-718.88 3.83,-718.88 0,-715.05 0,-711.22 0,-711.22 0,-703.55 0,-703.55 0,-699.72 3.83,-695.88 7.67,-695.88 7.67,-695.88 57.33,-695.88 57.33,-695.88 61.17,-695.88 65,-699.72 65,-703.55 65,-703.55 65,-711.22 65,-711.22 65,-715.05 61.17,-718.88 57.33,-718.88"/>
<text text-anchor="middle" x="32.5" y="-703.68" font-family="Arial" font-size="14.00" fill="#c6c5fe">App.tsx</text>
</g>
<!-- router/Router.tsx -->
<g id="node2" class="node">
<title>router/Router.tsx</title>
<path fill="none" stroke="#c6c5fe" d="M215.33,-718.88C215.33,-718.88 108.67,-718.88 108.67,-718.88 104.83,-718.88 101,-715.05 101,-711.22 101,-711.22 101,-703.55 101,-703.55 101,-699.72 104.83,-695.88 108.67,-695.88 108.67,-695.88 215.33,-695.88 215.33,-695.88 219.17,-695.88 223,-699.72 223,-703.55 223,-703.55 223,-711.22 223,-711.22 223,-715.05 219.17,-718.88 215.33,-718.88"/>
<text text-anchor="middle" x="162" y="-703.68" font-family="Arial" font-size="14.00" fill="#c6c5fe">router/Router.tsx</text>
</g>
<!-- App.tsx&#45;&gt;router/Router.tsx -->
<g id="edge1" class="edge">
<title>App.tsx&#45;&gt;router/Router.tsx</title>
<path fill="none" stroke="#757575" d="M65.34,-707.38C72.7,-707.38 80.81,-707.38 89.12,-707.38"/>
<polygon fill="#757575" stroke="#757575" points="88.99,-710.88 98.99,-707.38 88.99,-703.88 88.99,-710.88"/>
</g>
<!-- page/Dashboard.tsx -->
<g id="node48" class="node">
<title>page/Dashboard.tsx</title>
<path fill="none" stroke="#c6c5fe" d="M395.33,-718.88C395.33,-718.88 266.67,-718.88 266.67,-718.88 262.83,-718.88 259,-715.05 259,-711.22 259,-711.22 259,-703.55 259,-703.55 259,-699.72 262.83,-695.88 266.67,-695.88 266.67,-695.88 395.33,-695.88 395.33,-695.88 399.17,-695.88 403,-699.72 403,-703.55 403,-703.55 403,-711.22 403,-711.22 403,-715.05 399.17,-718.88 395.33,-718.88"/>
<text text-anchor="middle" x="331" y="-703.68" font-family="Arial" font-size="14.00" fill="#c6c5fe">page/Dashboard.tsx</text>
</g>
<!-- router/Router.tsx&#45;&gt;page/Dashboard.tsx -->
<g id="edge78" class="edge">
<title>router/Router.tsx&#45;&gt;page/Dashboard.tsx</title>
<path fill="none" stroke="#757575" d="M223.29,-707.38C231.1,-707.38 239.21,-707.38 247.3,-707.38"/>
<polygon fill="#757575" stroke="#757575" points="247.19,-710.88 257.19,-707.38 247.19,-703.88 247.19,-710.88"/>
</g>
<!-- asset/image/pause.png -->
<g id="node3" class="node">
<title>asset/image/pause.png</title>
<path fill="none" stroke="#cfffac" d="M1619.83,-1134.88C1619.83,-1134.88 1471.17,-1134.88 1471.17,-1134.88 1467.33,-1134.88 1463.5,-1131.05 1463.5,-1127.22 1463.5,-1127.22 1463.5,-1119.55 1463.5,-1119.55 1463.5,-1115.72 1467.33,-1111.88 1471.17,-1111.88 1471.17,-1111.88 1619.83,-1111.88 1619.83,-1111.88 1623.67,-1111.88 1627.5,-1115.72 1627.5,-1119.55 1627.5,-1119.55 1627.5,-1127.22 1627.5,-1127.22 1627.5,-1131.05 1623.67,-1134.88 1619.83,-1134.88"/>
<text text-anchor="middle" x="1545.5" y="-1119.68" font-family="Arial" font-size="14.00" fill="#cfffac">asset/image/pause.png</text>
</g>
<!-- asset/image/play.png -->
<g id="node4" class="node">
<title>asset/image/play.png</title>
<path fill="none" stroke="#cfffac" d="M1613.33,-1093.88C1613.33,-1093.88 1477.67,-1093.88 1477.67,-1093.88 1473.83,-1093.88 1470,-1090.05 1470,-1086.22 1470,-1086.22 1470,-1078.55 1470,-1078.55 1470,-1074.72 1473.83,-1070.88 1477.67,-1070.88 1477.67,-1070.88 1613.33,-1070.88 1613.33,-1070.88 1617.17,-1070.88 1621,-1074.72 1621,-1078.55 1621,-1078.55 1621,-1086.22 1621,-1086.22 1621,-1090.05 1617.17,-1093.88 1613.33,-1093.88"/>
<text text-anchor="middle" x="1545.5" y="-1078.68" font-family="Arial" font-size="14.00" fill="#cfffac">asset/image/play.png</text>
</g>
<!-- common/api.ts -->
<g id="node5" class="node">
<title>common/api.ts</title>
<path fill="none" stroke="#c6c5fe" d="M2100.83,-568.88C2100.83,-568.88 2006.17,-568.88 2006.17,-568.88 2002.33,-568.88 1998.5,-565.05 1998.5,-561.22 1998.5,-561.22 1998.5,-553.55 1998.5,-553.55 1998.5,-549.72 2002.33,-545.88 2006.17,-545.88 2006.17,-545.88 2100.83,-545.88 2100.83,-545.88 2104.67,-545.88 2108.5,-549.72 2108.5,-553.55 2108.5,-553.55 2108.5,-561.22 2108.5,-561.22 2108.5,-565.05 2104.67,-568.88 2100.83,-568.88"/>
<text text-anchor="middle" x="2053.5" y="-553.68" font-family="Arial" font-size="14.00" fill="#c6c5fe">common/api.ts</text>
</g>
<!-- types/api.d.ts -->
<g id="node6" class="node">
<title>types/api.d.ts</title>
<path fill="none" stroke="#cfffac" d="M2535.33,-568.88C2535.33,-568.88 2449.67,-568.88 2449.67,-568.88 2445.83,-568.88 2442,-565.05 2442,-561.22 2442,-561.22 2442,-553.55 2442,-553.55 2442,-549.72 2445.83,-545.88 2449.67,-545.88 2449.67,-545.88 2535.33,-545.88 2535.33,-545.88 2539.17,-545.88 2543,-549.72 2543,-553.55 2543,-553.55 2543,-561.22 2543,-561.22 2543,-565.05 2539.17,-568.88 2535.33,-568.88"/>
<text text-anchor="middle" x="2492.5" y="-553.68" font-family="Arial" font-size="14.00" fill="#cfffac">types/api.d.ts</text>
</g>
<!-- common/api.ts&#45;&gt;types/api.d.ts -->
<g id="edge2" class="edge">
<title>common/api.ts&#45;&gt;types/api.d.ts</title>
<path fill="none" stroke="#757575" d="M2108.96,-557.38C2190.77,-557.38 2344.89,-557.38 2430.41,-557.38"/>
<polygon fill="#757575" stroke="#757575" points="2430.25,-560.88 2440.25,-557.38 2430.25,-553.88 2430.25,-560.88"/>
</g>
<!-- common/chart.ts -->
<g id="node7" class="node">
<title>common/chart.ts</title>
<path fill="none" stroke="#c6c5fe" d="M2106.83,-127.88C2106.83,-127.88 2000.17,-127.88 2000.17,-127.88 1996.33,-127.88 1992.5,-124.05 1992.5,-120.22 1992.5,-120.22 1992.5,-112.55 1992.5,-112.55 1992.5,-108.72 1996.33,-104.88 2000.17,-104.88 2000.17,-104.88 2106.83,-104.88 2106.83,-104.88 2110.67,-104.88 2114.5,-108.72 2114.5,-112.55 2114.5,-112.55 2114.5,-120.22 2114.5,-120.22 2114.5,-124.05 2110.67,-127.88 2106.83,-127.88"/>
<text text-anchor="middle" x="2053.5" y="-112.68" font-family="Arial" font-size="14.00" fill="#c6c5fe">common/chart.ts</text>
</g>
<!-- types/chart.d.ts -->
<g id="node8" class="node">
<title>types/chart.d.ts</title>
<path fill="none" stroke="#cfffac" d="M2541.33,-249.88C2541.33,-249.88 2443.67,-249.88 2443.67,-249.88 2439.83,-249.88 2436,-246.05 2436,-242.22 2436,-242.22 2436,-234.55 2436,-234.55 2436,-230.72 2439.83,-226.88 2443.67,-226.88 2443.67,-226.88 2541.33,-226.88 2541.33,-226.88 2545.17,-226.88 2549,-230.72 2549,-234.55 2549,-234.55 2549,-242.22 2549,-242.22 2549,-246.05 2545.17,-249.88 2541.33,-249.88"/>
<text text-anchor="middle" x="2492.5" y="-234.68" font-family="Arial" font-size="14.00" fill="#cfffac">types/chart.d.ts</text>
</g>
<!-- common/chart.ts&#45;&gt;types/chart.d.ts -->
<g id="edge3" class="edge">
<title>common/chart.ts&#45;&gt;types/chart.d.ts</title>
<path fill="none" stroke="#757575" d="M2114.8,-115.55C2161.95,-116.34 2228.72,-120.64 2285,-136.38 2353.05,-155.41 2425.54,-196.77 2463.93,-220.57"/>
<polygon fill="#757575" stroke="#757575" points="2461.76,-223.34 2472.09,-225.69 2465.48,-217.41 2461.76,-223.34"/>
</g>
<!-- common/date.ts -->
<g id="node9" class="node">
<title>common/date.ts</title>
<path fill="none" stroke="#cfffac" d="M2544.33,-790.88C2544.33,-790.88 2440.67,-790.88 2440.67,-790.88 2436.83,-790.88 2433,-787.05 2433,-783.22 2433,-783.22 2433,-775.55 2433,-775.55 2433,-771.72 2436.83,-767.88 2440.67,-767.88 2440.67,-767.88 2544.33,-767.88 2544.33,-767.88 2548.17,-767.88 2552,-771.72 2552,-775.55 2552,-775.55 2552,-783.22 2552,-783.22 2552,-787.05 2548.17,-790.88 2544.33,-790.88"/>
<text text-anchor="middle" x="2492.5" y="-775.68" font-family="Arial" font-size="14.00" fill="#cfffac">common/date.ts</text>
</g>
<!-- common/widget.ts -->
<g id="node10" class="node">
<title>common/widget.ts</title>
<path fill="none" stroke="#cfffac" d="M2111.83,-450.88C2111.83,-450.88 1995.17,-450.88 1995.17,-450.88 1991.33,-450.88 1987.5,-447.05 1987.5,-443.22 1987.5,-443.22 1987.5,-435.55 1987.5,-435.55 1987.5,-431.72 1991.33,-427.88 1995.17,-427.88 1995.17,-427.88 2111.83,-427.88 2111.83,-427.88 2115.67,-427.88 2119.5,-431.72 2119.5,-435.55 2119.5,-435.55 2119.5,-443.22 2119.5,-443.22 2119.5,-447.05 2115.67,-450.88 2111.83,-450.88"/>
<text text-anchor="middle" x="2053.5" y="-435.68" font-family="Arial" font-size="14.00" fill="#cfffac">common/widget.ts</text>
</g>
<!-- component/Dashboard/CommonStyle.ts -->
<g id="node11" class="node">
<title>component/Dashboard/CommonStyle.ts</title>
<path fill="none" stroke="#cfffac" d="M3458.33,-1068.88C3458.33,-1068.88 3203.67,-1068.88 3203.67,-1068.88 3199.83,-1068.88 3196,-1065.05 3196,-1061.22 3196,-1061.22 3196,-1053.55 3196,-1053.55 3196,-1049.72 3199.83,-1045.88 3203.67,-1045.88 3203.67,-1045.88 3458.33,-1045.88 3458.33,-1045.88 3462.17,-1045.88 3466,-1049.72 3466,-1053.55 3466,-1053.55 3466,-1061.22 3466,-1061.22 3466,-1065.05 3462.17,-1068.88 3458.33,-1068.88"/>
<text text-anchor="middle" x="3331" y="-1053.68" font-family="Arial" font-size="14.00" fill="#cfffac">component/Dashboard/CommonStyle.ts</text>
</g>
<!-- component/Dashboard/DashboardHeader.tsx -->
<g id="node12" class="node">
<title>component/Dashboard/DashboardHeader.tsx</title>
<path fill="none" stroke="#c6c5fe" d="M747.33,-870.88C747.33,-870.88 459.67,-870.88 459.67,-870.88 455.83,-870.88 452,-867.05 452,-863.22 452,-863.22 452,-855.55 452,-855.55 452,-851.72 455.83,-847.88 459.67,-847.88 459.67,-847.88 747.33,-847.88 747.33,-847.88 751.17,-847.88 755,-851.72 755,-855.55 755,-855.55 755,-863.22 755,-863.22 755,-867.05 751.17,-870.88 747.33,-870.88"/>
<text text-anchor="middle" x="603.5" y="-855.68" font-family="Arial" font-size="14.00" fill="#c6c5fe">component/Dashboard/DashboardHeader.tsx</text>
</g>
<!-- component/Dashboard/DashboardHeader/PlayIcon.tsx -->
<g id="node13" class="node">
<title>component/Dashboard/DashboardHeader/PlayIcon.tsx</title>
<path fill="none" stroke="#c6c5fe" d="M1209.83,-1093.88C1209.83,-1093.88 863.17,-1093.88 863.17,-1093.88 859.33,-1093.88 855.5,-1090.05 855.5,-1086.22 855.5,-1086.22 855.5,-1078.55 855.5,-1078.55 855.5,-1074.72 859.33,-1070.88 863.17,-1070.88 863.17,-1070.88 1209.83,-1070.88 1209.83,-1070.88 1213.67,-1070.88 1217.5,-1074.72 1217.5,-1078.55 1217.5,-1078.55 1217.5,-1086.22 1217.5,-1086.22 1217.5,-1090.05 1213.67,-1093.88 1209.83,-1093.88"/>
<text text-anchor="middle" x="1036.5" y="-1078.68" font-family="Arial" font-size="14.00" fill="#c6c5fe">component/Dashboard/DashboardHeader/PlayIcon.tsx</text>
</g>
<!-- component/Dashboard/DashboardHeader.tsx&#45;&gt;component/Dashboard/DashboardHeader/PlayIcon.tsx -->
<g id="edge4" class="edge">
<title>component/Dashboard/DashboardHeader.tsx&#45;&gt;component/Dashboard/DashboardHeader/PlayIcon.tsx</title>
<path fill="none" stroke="#757575" d="M617.58,-871.12C648.16,-898.03 727.53,-964.89 804,-1004.38 859.41,-1033 927.54,-1054.48 975.5,-1067.58"/>
<polygon fill="#757575" stroke="#757575" points="974.3,-1070.88 984.87,-1070.09 976.12,-1064.12 974.3,-1070.88"/>
</g>
<!-- component/Dashboard/DashboardHeader/SelectRealTimeRangeArea.tsx -->
<g id="node14" class="node">
<title>component/Dashboard/DashboardHeader/SelectRealTimeRangeArea.tsx</title>
<path fill="none" stroke="#c6c5fe" d="M1778.33,-1052.88C1778.33,-1052.88 1312.67,-1052.88 1312.67,-1052.88 1308.83,-1052.88 1305,-1049.05 1305,-1045.22 1305,-1045.22 1305,-1037.55 1305,-1037.55 1305,-1033.72 1308.83,-1029.88 1312.67,-1029.88 1312.67,-1029.88 1778.33,-1029.88 1778.33,-1029.88 1782.17,-1029.88 1786,-1033.72 1786,-1037.55 1786,-1037.55 1786,-1045.22 1786,-1045.22 1786,-1049.05 1782.17,-1052.88 1778.33,-1052.88"/>
<text text-anchor="middle" x="1545.5" y="-1037.68" font-family="Arial" font-size="14.00" fill="#c6c5fe">component/Dashboard/DashboardHeader/SelectRealTimeRangeArea.tsx</text>
</g>
<!-- component/Dashboard/DashboardHeader.tsx&#45;&gt;component/Dashboard/DashboardHeader/SelectRealTimeRangeArea.tsx -->
<g id="edge5" class="edge">
<title>component/Dashboard/DashboardHeader.tsx&#45;&gt;component/Dashboard/DashboardHeader/SelectRealTimeRangeArea.tsx</title>
<path fill="none" stroke="#757575" d="M638.36,-871.27C677.75,-884.73 744.92,-906.59 804,-920.38 1024.84,-971.94 1287.76,-1009.33 1433.41,-1027.98"/>
<polygon fill="#757575" stroke="#757575" points="1432.69,-1031.42 1443.05,-1029.21 1433.57,-1024.48 1432.69,-1031.42"/>
</g>
<!-- component/Dashboard/DashboardHeader/TimeBlock.tsx -->
<g id="node15" class="node">
<title>component/Dashboard/DashboardHeader/TimeBlock.tsx</title>
<path fill="none" stroke="#c6c5fe" d="M1215.83,-910.88C1215.83,-910.88 857.17,-910.88 857.17,-910.88 853.33,-910.88 849.5,-907.05 849.5,-903.22 849.5,-903.22 849.5,-895.55 849.5,-895.55 849.5,-891.72 853.33,-887.88 857.17,-887.88 857.17,-887.88 1215.83,-887.88 1215.83,-887.88 1219.67,-887.88 1223.5,-891.72 1223.5,-895.55 1223.5,-895.55 1223.5,-903.22 1223.5,-903.22 1223.5,-907.05 1219.67,-910.88 1215.83,-910.88"/>
<text text-anchor="middle" x="1036.5" y="-895.68" font-family="Arial" font-size="14.00" fill="#c6c5fe">component/Dashboard/DashboardHeader/TimeBlock.tsx</text>
</g>
<!-- component/Dashboard/DashboardHeader.tsx&#45;&gt;component/Dashboard/DashboardHeader/TimeBlock.tsx -->
<g id="edge6" class="edge">
<title>component/Dashboard/DashboardHeader.tsx&#45;&gt;component/Dashboard/DashboardHeader/TimeBlock.tsx</title>
<path fill="none" stroke="#757575" d="M733.52,-871.36C784.47,-876.09 843.15,-881.53 895.15,-886.36"/>
<polygon fill="#757575" stroke="#757575" points="894.69,-889.83 904.98,-887.27 895.34,-882.86 894.69,-889.83"/>
</g>
<!-- store/DashboardProvider.tsx -->
<g id="node16" class="node">
<title>store/DashboardProvider.tsx</title>
<path fill="none" stroke="#c6c5fe" d="M2144.33,-790.88C2144.33,-790.88 1962.67,-790.88 1962.67,-790.88 1958.83,-790.88 1955,-787.05 1955,-783.22 1955,-783.22 1955,-775.55 1955,-775.55 1955,-771.72 1958.83,-767.88 1962.67,-767.88 1962.67,-767.88 2144.33,-767.88 2144.33,-767.88 2148.17,-767.88 2152,-771.72 2152,-775.55 2152,-775.55 2152,-783.22 2152,-783.22 2152,-787.05 2148.17,-790.88 2144.33,-790.88"/>
<text text-anchor="middle" x="2053.5" y="-775.68" font-family="Arial" font-size="14.00" fill="#c6c5fe">store/DashboardProvider.tsx</text>
</g>
<!-- component/Dashboard/DashboardHeader.tsx&#45;&gt;store/DashboardProvider.tsx -->
<g id="edge7" class="edge">
<title>component/Dashboard/DashboardHeader.tsx&#45;&gt;store/DashboardProvider.tsx</title>
<path fill="none" stroke="#757575" d="M755.33,-855.45C890.06,-851.58 1092.78,-844.86 1269,-835.38 1334.45,-831.86 1743.54,-802.04 1943.17,-787.41"/>
<polygon fill="#757575" stroke="#757575" points="1943.33,-790.91 1953.04,-786.69 1942.82,-783.93 1943.33,-790.91"/>
</g>
<!-- store/WidgetProvider.tsx -->
<g id="node17" class="node">
<title>store/WidgetProvider.tsx</title>
<path fill="none" stroke="#c6c5fe" d="M1624.33,-678.88C1624.33,-678.88 1466.67,-678.88 1466.67,-678.88 1462.83,-678.88 1459,-675.05 1459,-671.22 1459,-671.22 1459,-663.55 1459,-663.55 1459,-659.72 1462.83,-655.88 1466.67,-655.88 1466.67,-655.88 1624.33,-655.88 1624.33,-655.88 1628.17,-655.88 1632,-659.72 1632,-663.55 1632,-663.55 1632,-671.22 1632,-671.22 1632,-675.05 1628.17,-678.88 1624.33,-678.88"/>
<text text-anchor="middle" x="1545.5" y="-663.68" font-family="Arial" font-size="14.00" fill="#c6c5fe">store/WidgetProvider.tsx</text>
</g>
<!-- component/Dashboard/DashboardHeader.tsx&#45;&gt;store/WidgetProvider.tsx -->
<g id="edge8" class="edge">
<title>component/Dashboard/DashboardHeader.tsx&#45;&gt;store/WidgetProvider.tsx</title>
<path fill="none" stroke="#757575" d="M646.71,-847.44C686.94,-836.27 749.32,-819.55 804,-807.38 1009.15,-761.74 1062.54,-760.71 1269,-721.38 1338.43,-708.16 1417.6,-692.59 1473.2,-681.58"/>
<polygon fill="#757575" stroke="#757575" points="1473.73,-685.04 1482.86,-679.66 1472.37,-678.17 1473.73,-685.04"/>
</g>
<!-- types/widget.d.ts -->
<g id="node18" class="node">
<title>types/widget.d.ts</title>
<path fill="none" stroke="#cfffac" d="M2983.83,-710.88C2983.83,-710.88 2876.17,-710.88 2876.17,-710.88 2872.33,-710.88 2868.5,-707.05 2868.5,-703.22 2868.5,-703.22 2868.5,-695.55 2868.5,-695.55 2868.5,-691.72 2872.33,-687.88 2876.17,-687.88 2876.17,-687.88 2983.83,-687.88 2983.83,-687.88 2987.67,-687.88 2991.5,-691.72 2991.5,-695.55 2991.5,-695.55 2991.5,-703.22 2991.5,-703.22 2991.5,-707.05 2987.67,-710.88 2983.83,-710.88"/>
<text text-anchor="middle" x="2930" y="-695.68" font-family="Arial" font-size="14.00" fill="#cfffac">types/widget.d.ts</text>
</g>
<!-- component/Dashboard/DashboardHeader.tsx&#45;&gt;types/widget.d.ts -->
<g id="edge9" class="edge">
<title>component/Dashboard/DashboardHeader.tsx&#45;&gt;types/widget.d.ts</title>
<path fill="none" stroke="#757575" d="M697.54,-847.41C731.06,-843.3 769.2,-838.86 804,-835.38 1026.27,-813.15 1082.26,-812.25 1305,-795.38 1534.71,-777.99 1592.08,-772.74 1822,-758.38 2212.06,-734.03 2679.83,-711.19 2856.61,-702.79"/>
<polygon fill="#757575" stroke="#757575" points="2856.74,-706.28 2866.56,-702.31 2856.41,-699.29 2856.74,-706.28"/>
</g>
<!-- component/Dashboard/DashboardHeader/PlayIcon.tsx&#45;&gt;asset/image/pause.png -->
<g id="edge19" class="edge">
<title>component/Dashboard/DashboardHeader/PlayIcon.tsx&#45;&gt;asset/image/pause.png</title>
<path fill="none" stroke="#757575" d="M1185.85,-1094.38C1271.88,-1101.34 1377.55,-1109.88 1451.83,-1115.89"/>
<polygon fill="#757575" stroke="#757575" points="1451.26,-1119.35 1461.51,-1116.67 1451.82,-1112.38 1451.26,-1119.35"/>
</g>
<!-- component/Dashboard/DashboardHeader/PlayIcon.tsx&#45;&gt;asset/image/play.png -->
<g id="edge20" class="edge">
<title>component/Dashboard/DashboardHeader/PlayIcon.tsx&#45;&gt;asset/image/play.png</title>
<path fill="none" stroke="#757575" d="M1217.68,-1082.38C1299.6,-1082.38 1392.71,-1082.38 1458.53,-1082.38"/>
<polygon fill="#757575" stroke="#757575" points="1458.16,-1085.88 1468.16,-1082.38 1458.16,-1078.88 1458.16,-1085.88"/>
</g>
<!-- component/Dashboard/DashboardHeader/SelectRealTimeRangeArea.tsx&#45;&gt;component/Dashboard/CommonStyle.ts -->
<g id="edge22" class="edge">
<title>component/Dashboard/DashboardHeader/SelectRealTimeRangeArea.tsx&#45;&gt;component/Dashboard/CommonStyle.ts</title>
<path fill="none" stroke="#757575" d="M1766.27,-1053.33C1773.04,-1056.01 1779.63,-1059.02 1786,-1062.38 1808.34,-1074.19 1799.22,-1095.45 1822,-1106.38 1956.03,-1170.72 3012.61,-1117.87 3160,-1098.38 3200.97,-1092.97 3246.43,-1081.72 3280.02,-1072.37"/>
<polygon fill="#757575" stroke="#757575" points="3280.81,-1075.79 3289.48,-1069.7 3278.91,-1069.05 3280.81,-1075.79"/>
</g>
<!-- component/Dashboard/DashboardHeader/SelectRealTimeRangeArea.tsx&#45;&gt;store/DashboardProvider.tsx -->
<g id="edge27" class="edge">
<title>component/Dashboard/DashboardHeader/SelectRealTimeRangeArea.tsx&#45;&gt;store/DashboardProvider.tsx</title>
<path fill="none" stroke="#757575" d="M1739.87,-1029.41C1756.7,-1022.56 1772.45,-1013.43 1786,-1001.38 1828.88,-963.25 1783.92,-920.31 1822,-877.38 1861.72,-832.61 1925.37,-807.65 1975.73,-794.14"/>
<polygon fill="#757575" stroke="#757575" points="1976.3,-797.61 1985.12,-791.73 1974.56,-790.83 1976.3,-797.61"/>
</g>
<!-- hook/useBoolean.tsx -->
<g id="node24" class="node">
<title>hook/useBoolean.tsx</title>
<path fill="none" stroke="#cfffac" d="M2120.33,-710.88C2120.33,-710.88 1986.67,-710.88 1986.67,-710.88 1982.83,-710.88 1979,-707.05 1979,-703.22 1979,-703.22 1979,-695.55 1979,-695.55 1979,-691.72 1982.83,-687.88 1986.67,-687.88 1986.67,-687.88 2120.33,-687.88 2120.33,-687.88 2124.17,-687.88 2128,-691.72 2128,-695.55 2128,-695.55 2128,-703.22 2128,-703.22 2128,-707.05 2124.17,-710.88 2120.33,-710.88"/>
<text text-anchor="middle" x="2053.5" y="-695.68" font-family="Arial" font-size="14.00" fill="#cfffac">hook/useBoolean.tsx</text>
</g>
<!-- component/Dashboard/DashboardHeader/SelectRealTimeRangeArea.tsx&#45;&gt;hook/useBoolean.tsx -->
<g id="edge25" class="edge">
<title>component/Dashboard/DashboardHeader/SelectRealTimeRangeArea.tsx&#45;&gt;hook/useBoolean.tsx</title>
<path fill="none" stroke="#757575" d="M1745.62,-1029.44C1760.57,-1022.43 1774.33,-1013.27 1786,-1001.38 1862.49,-923.48 1748.9,-839.48 1822,-758.38 1858.24,-718.18 1917.78,-703.68 1967.26,-699.1"/>
<polygon fill="#757575" stroke="#757575" points="1967.43,-702.59 1977.12,-698.32 1966.88,-695.61 1967.43,-702.59"/>
</g>
<!-- hook/useOutsideClick.tsx -->
<g id="node25" class="node">
<title>hook/useOutsideClick.tsx</title>
<path fill="none" stroke="#cfffac" d="M2133.83,-1070.88C2133.83,-1070.88 1973.17,-1070.88 1973.17,-1070.88 1969.33,-1070.88 1965.5,-1067.05 1965.5,-1063.22 1965.5,-1063.22 1965.5,-1055.55 1965.5,-1055.55 1965.5,-1051.72 1969.33,-1047.88 1973.17,-1047.88 1973.17,-1047.88 2133.83,-1047.88 2133.83,-1047.88 2137.67,-1047.88 2141.5,-1051.72 2141.5,-1055.55 2141.5,-1055.55 2141.5,-1063.22 2141.5,-1063.22 2141.5,-1067.05 2137.67,-1070.88 2133.83,-1070.88"/>
<text text-anchor="middle" x="2053.5" y="-1055.68" font-family="Arial" font-size="14.00" fill="#cfffac">hook/useOutsideClick.tsx</text>
</g>
<!-- component/Dashboard/DashboardHeader/SelectRealTimeRangeArea.tsx&#45;&gt;hook/useOutsideClick.tsx -->
<g id="edge26" class="edge">
<title>component/Dashboard/DashboardHeader/SelectRealTimeRangeArea.tsx&#45;&gt;hook/useOutsideClick.tsx</title>
<path fill="none" stroke="#757575" d="M1786.16,-1049.91C1845.4,-1052.02 1905.62,-1054.16 1953.77,-1055.87"/>
<polygon fill="#757575" stroke="#757575" points="1953.49,-1059.36 1963.6,-1056.22 1953.73,-1052.37 1953.49,-1059.36"/>
</g>
<!-- component/Dashboard/DashboardHeader/RealTime.tsx -->
<g id="node26" class="node">
<title>component/Dashboard/DashboardHeader/RealTime.tsx</title>
<path fill="none" stroke="#cfffac" d="M2229.83,-1188.88C2229.83,-1188.88 1877.17,-1188.88 1877.17,-1188.88 1873.33,-1188.88 1869.5,-1185.05 1869.5,-1181.22 1869.5,-1181.22 1869.5,-1173.55 1869.5,-1173.55 1869.5,-1169.72 1873.33,-1165.88 1877.17,-1165.88 1877.17,-1165.88 2229.83,-1165.88 2229.83,-1165.88 2233.67,-1165.88 2237.5,-1169.72 2237.5,-1173.55 2237.5,-1173.55 2237.5,-1181.22 2237.5,-1181.22 2237.5,-1185.05 2233.67,-1188.88 2229.83,-1188.88"/>
<text text-anchor="middle" x="2053.5" y="-1173.68" font-family="Arial" font-size="14.00" fill="#cfffac">component/Dashboard/DashboardHeader/RealTime.tsx</text>
</g>
<!-- component/Dashboard/DashboardHeader/SelectRealTimeRangeArea.tsx&#45;&gt;component/Dashboard/DashboardHeader/RealTime.tsx -->
<g id="edge23" class="edge">
<title>component/Dashboard/DashboardHeader/SelectRealTimeRangeArea.tsx&#45;&gt;component/Dashboard/DashboardHeader/RealTime.tsx</title>
<path fill="none" stroke="#757575" d="M1616.17,-1029.4C1667.94,-1024.46 1737.68,-1026.64 1786,-1062.38 1820.3,-1087.76 1788.02,-1125.58 1822,-1151.38 1833.14,-1159.84 1845.49,-1166.48 1858.53,-1171.64"/>
<polygon fill="#757575" stroke="#757575" points="1857.1,-1174.85 1867.7,-1174.95 1859.48,-1168.26 1857.1,-1174.85"/>
</g>
<!-- component/Dashboard/DashboardHeader/SelectRealTimeListItem.tsx -->
<g id="node27" class="node">
<title>component/Dashboard/DashboardHeader/SelectRealTimeListItem.tsx</title>
<path fill="none" stroke="#c6c5fe" d="M3152.33,-1088.88C3152.33,-1088.88 2707.67,-1088.88 2707.67,-1088.88 2703.83,-1088.88 2700,-1085.05 2700,-1081.22 2700,-1081.22 2700,-1073.55 2700,-1073.55 2700,-1069.72 2703.83,-1065.88 2707.67,-1065.88 2707.67,-1065.88 3152.33,-1065.88 3152.33,-1065.88 3156.17,-1065.88 3160,-1069.72 3160,-1073.55 3160,-1073.55 3160,-1081.22 3160,-1081.22 3160,-1085.05 3156.17,-1088.88 3152.33,-1088.88"/>
<text text-anchor="middle" x="2930" y="-1073.68" font-family="Arial" font-size="14.00" fill="#c6c5fe">component/Dashboard/DashboardHeader/SelectRealTimeListItem.tsx</text>
</g>
<!-- component/Dashboard/DashboardHeader/SelectRealTimeRangeArea.tsx&#45;&gt;component/Dashboard/DashboardHeader/SelectRealTimeListItem.tsx -->
<g id="edge24" class="edge">
<title>component/Dashboard/DashboardHeader/SelectRealTimeRangeArea.tsx&#45;&gt;component/Dashboard/DashboardHeader/SelectRealTimeListItem.tsx</title>
<path fill="none" stroke="#757575" d="M1747.46,-1053.38C1760.6,-1055.89 1773.55,-1058.86 1786,-1062.38 1803.21,-1067.25 1804.59,-1076.27 1822,-1080.38 1984.7,-1118.79 2437.47,-1103.61 2710.94,-1089.94"/>
<polygon fill="#757575" stroke="#757575" points="2710.89,-1093.45 2720.7,-1089.45 2710.54,-1086.46 2710.89,-1093.45"/>
</g>
<!-- component/Dashboard/DashboardHeader/CurrentTime.tsx -->
<g id="node19" class="node">
<title>component/Dashboard/DashboardHeader/CurrentTime.tsx</title>
<path fill="none" stroke="#c6c5fe" d="M1730.83,-991.88C1730.83,-991.88 1360.17,-991.88 1360.17,-991.88 1356.33,-991.88 1352.5,-988.05 1352.5,-984.22 1352.5,-984.22 1352.5,-976.55 1352.5,-976.55 1352.5,-972.72 1356.33,-968.88 1360.17,-968.88 1360.17,-968.88 1730.83,-968.88 1730.83,-968.88 1734.67,-968.88 1738.5,-972.72 1738.5,-976.55 1738.5,-976.55 1738.5,-984.22 1738.5,-984.22 1738.5,-988.05 1734.67,-991.88 1730.83,-991.88"/>
<text text-anchor="middle" x="1545.5" y="-976.68" font-family="Arial" font-size="14.00" fill="#c6c5fe">component/Dashboard/DashboardHeader/CurrentTime.tsx</text>
</g>
<!-- component/Dashboard/DashboardHeader/TimeBlock.tsx&#45;&gt;component/Dashboard/DashboardHeader/CurrentTime.tsx -->
<g id="edge28" class="edge">
<title>component/Dashboard/DashboardHeader/TimeBlock.tsx&#45;&gt;component/Dashboard/DashboardHeader/CurrentTime.tsx</title>
<path fill="none" stroke="#757575" d="M1112.58,-911.38C1204.86,-926.12 1361.1,-951.08 1458.22,-966.6"/>
<polygon fill="#757575" stroke="#757575" points="1457.55,-970.04 1467.98,-968.16 1458.65,-963.12 1457.55,-970.04"/>
</g>
<!-- component/Dashboard/DashboardHeader/DatePickerArea.tsx -->
<g id="node22" class="node">
<title>component/Dashboard/DashboardHeader/DatePickerArea.tsx</title>
<path fill="none" stroke="#c6c5fe" d="M1741.33,-910.88C1741.33,-910.88 1349.67,-910.88 1349.67,-910.88 1345.83,-910.88 1342,-907.05 1342,-903.22 1342,-903.22 1342,-895.55 1342,-895.55 1342,-891.72 1345.83,-887.88 1349.67,-887.88 1349.67,-887.88 1741.33,-887.88 1741.33,-887.88 1745.17,-887.88 1749,-891.72 1749,-895.55 1749,-895.55 1749,-903.22 1749,-903.22 1749,-907.05 1745.17,-910.88 1741.33,-910.88"/>
<text text-anchor="middle" x="1545.5" y="-895.68" font-family="Arial" font-size="14.00" fill="#c6c5fe">component/Dashboard/DashboardHeader/DatePickerArea.tsx</text>
</g>
<!-- component/Dashboard/DashboardHeader/TimeBlock.tsx&#45;&gt;component/Dashboard/DashboardHeader/DatePickerArea.tsx -->
<g id="edge29" class="edge">
<title>component/Dashboard/DashboardHeader/TimeBlock.tsx&#45;&gt;component/Dashboard/DashboardHeader/DatePickerArea.tsx</title>
<path fill="none" stroke="#757575" d="M1223.77,-899.38C1258.43,-899.38 1294.91,-899.38 1330.33,-899.38"/>
<polygon fill="#757575" stroke="#757575" points="1330.28,-902.88 1340.28,-899.38 1330.28,-895.88 1330.28,-902.88"/>
</g>
<!-- store/DashboardProvider.tsx&#45;&gt;common/date.ts -->
<g id="edge79" class="edge">
<title>store/DashboardProvider.tsx&#45;&gt;common/date.ts</title>
<path fill="none" stroke="#757575" d="M2152.3,-779.38C2233.98,-779.38 2348.44,-779.38 2421.28,-779.38"/>
<polygon fill="#757575" stroke="#757575" points="2421.09,-782.88 2431.09,-779.38 2421.09,-775.88 2421.09,-782.88"/>
</g>
<!-- store/WidgetProvider.tsx&#45;&gt;types/widget.d.ts -->
<g id="edge81" class="edge">
<title>store/WidgetProvider.tsx&#45;&gt;types/widget.d.ts</title>
<path fill="none" stroke="#757575" d="M1632.36,-668.17C1770.06,-669.54 2048.81,-672.77 2285,-678.38 2492.53,-683.31 2737.58,-692.13 2856.71,-696.61"/>
<polygon fill="#757575" stroke="#757575" points="2856.55,-700.11 2866.68,-696.98 2856.82,-693.11 2856.55,-700.11"/>
</g>
<!-- store/WidgetProvider.tsx&#45;&gt;hook/useBoolean.tsx -->
<g id="edge80" class="edge">
<title>store/WidgetProvider.tsx&#45;&gt;hook/useBoolean.tsx</title>
<path fill="none" stroke="#757575" d="M1632.34,-672.81C1725.72,-678.72 1874.09,-688.1 1967.25,-693.99"/>
<polygon fill="#757575" stroke="#757575" points="1966.89,-697.48 1977.1,-694.62 1967.34,-690.49 1966.89,-697.48"/>
</g>
<!-- hook/useCurrentTime.tsx -->
<g id="node20" class="node">
<title>hook/useCurrentTime.tsx</title>
<path fill="none" stroke="#cfffac" d="M2133.33,-1029.88C2133.33,-1029.88 1973.67,-1029.88 1973.67,-1029.88 1969.83,-1029.88 1966,-1026.05 1966,-1022.22 1966,-1022.22 1966,-1014.55 1966,-1014.55 1966,-1010.72 1969.83,-1006.88 1973.67,-1006.88 1973.67,-1006.88 2133.33,-1006.88 2133.33,-1006.88 2137.17,-1006.88 2141,-1010.72 2141,-1014.55 2141,-1014.55 2141,-1022.22 2141,-1022.22 2141,-1026.05 2137.17,-1029.88 2133.33,-1029.88"/>
<text text-anchor="middle" x="2053.5" y="-1014.68" font-family="Arial" font-size="14.00" fill="#cfffac">hook/useCurrentTime.tsx</text>
</g>
<!-- component/Dashboard/DashboardHeader/CurrentTime.tsx&#45;&gt;hook/useCurrentTime.tsx -->
<g id="edge10" class="edge">
<title>component/Dashboard/DashboardHeader/CurrentTime.tsx&#45;&gt;hook/useCurrentTime.tsx</title>
<path fill="none" stroke="#757575" d="M1706.25,-992.38C1787.76,-998.5 1884.29,-1005.75 1954.69,-1011.04"/>
<polygon fill="#757575" stroke="#757575" points="1954.01,-1014.5 1964.24,-1011.76 1954.53,-1007.52 1954.01,-1014.5"/>
</g>
<!-- component/Dashboard/DashboardHeader/DateBox.tsx -->
<g id="node21" class="node">
<title>component/Dashboard/DashboardHeader/DateBox.tsx</title>
<path fill="none" stroke="#cfffac" d="M2226.83,-908.88C2226.83,-908.88 1880.17,-908.88 1880.17,-908.88 1876.33,-908.88 1872.5,-905.05 1872.5,-901.22 1872.5,-901.22 1872.5,-893.55 1872.5,-893.55 1872.5,-889.72 1876.33,-885.88 1880.17,-885.88 1880.17,-885.88 2226.83,-885.88 2226.83,-885.88 2230.67,-885.88 2234.5,-889.72 2234.5,-893.55 2234.5,-893.55 2234.5,-901.22 2234.5,-901.22 2234.5,-905.05 2230.67,-908.88 2226.83,-908.88"/>
<text text-anchor="middle" x="2053.5" y="-893.68" font-family="Arial" font-size="14.00" fill="#cfffac">component/Dashboard/DashboardHeader/DateBox.tsx</text>
</g>
<!-- component/Dashboard/DashboardHeader/DatePickerArea.tsx&#45;&gt;common/date.ts -->
<g id="edge11" class="edge">
<title>component/Dashboard/DashboardHeader/DatePickerArea.tsx&#45;&gt;common/date.ts</title>
<path fill="none" stroke="#757575" d="M1743.98,-887.42C1758.46,-883.68 1772.62,-879.06 1786,-873.38 1805.17,-865.25 1802.77,-851.37 1822,-843.38 1917.43,-803.75 2182.15,-810.39 2285,-800.38 2330.47,-795.96 2381.55,-790.77 2421.53,-786.65"/>
<polygon fill="#757575" stroke="#757575" points="2421.67,-790.16 2431.26,-785.65 2420.96,-783.19 2421.67,-790.16"/>
</g>
<!-- component/Dashboard/DashboardHeader/DatePickerArea.tsx&#45;&gt;component/Dashboard/CommonStyle.ts -->
<g id="edge12" class="edge">
<title>component/Dashboard/DashboardHeader/DatePickerArea.tsx&#45;&gt;component/Dashboard/CommonStyle.ts</title>
<path fill="none" stroke="#757575" d="M1591.97,-911.29C1646.31,-925.04 1740.16,-947.33 1822,-959.38 2042.08,-991.79 2099.06,-983.22 2321,-998.38 2628.18,-1019.37 2988.3,-1039.3 3184.47,-1049.77"/>
<polygon fill="#757575" stroke="#757575" points="3184.02,-1053.25 3194.2,-1050.29 3184.4,-1046.26 3184.02,-1053.25"/>
</g>
<!-- component/Dashboard/DashboardHeader/DatePickerArea.tsx&#45;&gt;store/DashboardProvider.tsx -->
<g id="edge17" class="edge">
<title>component/Dashboard/DashboardHeader/DatePickerArea.tsx&#45;&gt;store/DashboardProvider.tsx</title>
<path fill="none" stroke="#757575" d="M1749.38,-892.09C1762.31,-887.22 1774.66,-881.07 1786,-873.38 1814.3,-854.19 1793.74,-824.64 1822,-805.38 1856.98,-781.55 1902.1,-772.9 1943.13,-770.99"/>
<polygon fill="#757575" stroke="#757575" points="1943.19,-774.49 1953.07,-770.67 1942.96,-767.5 1943.19,-774.49"/>
</g>
<!-- component/Dashboard/DashboardHeader/DatePickerArea.tsx&#45;&gt;types/widget.d.ts -->
<g id="edge18" class="edge">
<title>component/Dashboard/DashboardHeader/DatePickerArea.tsx&#45;&gt;types/widget.d.ts</title>
<path fill="none" stroke="#757575" d="M1694.22,-887.4C1987.15,-863.47 2617.52,-811.17 2664,-800.38 2749.56,-780.52 2844.57,-739.29 2894.31,-716.12"/>
<polygon fill="#757575" stroke="#757575" points="2895.57,-719.39 2903.13,-711.97 2892.59,-713.06 2895.57,-719.39"/>
</g>
<!-- component/Dashboard/DashboardHeader/DatePickerArea.tsx&#45;&gt;component/Dashboard/DashboardHeader/DateBox.tsx -->
<g id="edge13" class="edge">
<title>component/Dashboard/DashboardHeader/DatePickerArea.tsx&#45;&gt;component/Dashboard/DashboardHeader/DateBox.tsx</title>
<path fill="none" stroke="#757575" d="M1749.39,-898.58C1786.15,-898.44 1824.37,-898.29 1860.79,-898.14"/>
<polygon fill="#757575" stroke="#757575" points="1860.53,-901.64 1870.52,-898.1 1860.5,-894.64 1860.53,-901.64"/>
</g>
<!-- component/common/DatePicker.tsx -->
<g id="node23" class="node">
<title>component/common/DatePicker.tsx</title>
<path fill="none" stroke="#c6c5fe" d="M2166.83,-949.88C2166.83,-949.88 1940.17,-949.88 1940.17,-949.88 1936.33,-949.88 1932.5,-946.05 1932.5,-942.22 1932.5,-942.22 1932.5,-934.55 1932.5,-934.55 1932.5,-930.72 1936.33,-926.88 1940.17,-926.88 1940.17,-926.88 2166.83,-926.88 2166.83,-926.88 2170.67,-926.88 2174.5,-930.72 2174.5,-934.55 2174.5,-934.55 2174.5,-942.22 2174.5,-942.22 2174.5,-946.05 2170.67,-949.88 2166.83,-949.88"/>
<text text-anchor="middle" x="2053.5" y="-934.68" font-family="Arial" font-size="14.00" fill="#c6c5fe">component/common/DatePicker.tsx</text>
</g>
<!-- component/Dashboard/DashboardHeader/DatePickerArea.tsx&#45;&gt;component/common/DatePicker.tsx -->
<g id="edge14" class="edge">
<title>component/Dashboard/DashboardHeader/DatePickerArea.tsx&#45;&gt;component/common/DatePicker.tsx</title>
<path fill="none" stroke="#757575" d="M1702.1,-911.38C1772.11,-916.77 1853.87,-923.07 1920.8,-928.23"/>
<polygon fill="#757575" stroke="#757575" points="1920.51,-931.72 1930.75,-929 1921.05,-924.74 1920.51,-931.72"/>
</g>
<!-- component/Dashboard/DashboardHeader/DatePickerArea.tsx&#45;&gt;hook/useBoolean.tsx -->
<g id="edge15" class="edge">
<title>component/Dashboard/DashboardHeader/DatePickerArea.tsx&#45;&gt;hook/useBoolean.tsx</title>
<path fill="none" stroke="#757575" d="M1565.85,-887.55C1609.88,-861.08 1721.5,-796.42 1822,-758.38 1873.39,-738.93 1933.62,-723.76 1979.62,-713.68"/>
<polygon fill="#757575" stroke="#757575" points="1980.18,-717.14 1989.21,-711.61 1978.7,-710.3 1980.18,-717.14"/>
</g>
<!-- component/Dashboard/DashboardHeader/DatePickerArea.tsx&#45;&gt;hook/useOutsideClick.tsx -->
<g id="edge16" class="edge">
<title>component/Dashboard/DashboardHeader/DatePickerArea.tsx&#45;&gt;hook/useOutsideClick.tsx</title>
<path fill="none" stroke="#757575" d="M1678.46,-911.31C1716.48,-920.15 1755.8,-935.13 1786,-960.38 1815.6,-985.13 1790.48,-1017.13 1822,-1039.38 1861.93,-1067.58 1915.98,-1073.49 1961.7,-1071.93"/>
<polygon fill="#757575" stroke="#757575" points="1961.8,-1075.43 1971.62,-1071.45 1961.47,-1068.44 1961.8,-1075.43"/>
</g>
<!-- component/common/DatePicker/DatePickerTitle.tsx -->
<g id="node44" class="node">
<title>component/common/DatePicker/DatePickerTitle.tsx</title>
<path fill="none" stroke="#c6c5fe" d="M2656.33,-908.88C2656.33,-908.88 2328.67,-908.88 2328.67,-908.88 2324.83,-908.88 2321,-905.05 2321,-901.22 2321,-901.22 2321,-893.55 2321,-893.55 2321,-889.72 2324.83,-885.88 2328.67,-885.88 2328.67,-885.88 2656.33,-885.88 2656.33,-885.88 2660.17,-885.88 2664,-889.72 2664,-893.55 2664,-893.55 2664,-901.22 2664,-901.22 2664,-905.05 2660.17,-908.88 2656.33,-908.88"/>
<text text-anchor="middle" x="2492.5" y="-893.68" font-family="Arial" font-size="14.00" fill="#c6c5fe">component/common/DatePicker/DatePickerTitle.tsx</text>
</g>
<!-- component/common/DatePicker.tsx&#45;&gt;component/common/DatePicker/DatePickerTitle.tsx -->
<g id="edge60" class="edge">
<title>component/common/DatePicker.tsx&#45;&gt;component/common/DatePicker/DatePickerTitle.tsx</title>
<path fill="none" stroke="#757575" d="M2174.76,-928.29C2210.27,-925.22 2249.21,-921.76 2285,-918.38 2310.98,-915.94 2338.78,-913.19 2365.3,-910.52"/>
<polygon fill="#757575" stroke="#757575" points="2365.47,-914.02 2375.07,-909.53 2364.76,-907.05 2365.47,-914.02"/>
</g>
<!-- component/common/DatePicker/ListPicker.tsx -->
<g id="node45" class="node">
<title>component/common/DatePicker/ListPicker.tsx</title>
<path fill="none" stroke="#c6c5fe" d="M2638.83,-988.88C2638.83,-988.88 2346.17,-988.88 2346.17,-988.88 2342.33,-988.88 2338.5,-985.05 2338.5,-981.22 2338.5,-981.22 2338.5,-973.55 2338.5,-973.55 2338.5,-969.72 2342.33,-965.88 2346.17,-965.88 2346.17,-965.88 2638.83,-965.88 2638.83,-965.88 2642.67,-965.88 2646.5,-969.72 2646.5,-973.55 2646.5,-973.55 2646.5,-981.22 2646.5,-981.22 2646.5,-985.05 2642.67,-988.88 2638.83,-988.88"/>
<text text-anchor="middle" x="2492.5" y="-973.68" font-family="Arial" font-size="14.00" fill="#c6c5fe">component/common/DatePicker/ListPicker.tsx</text>
</g>
<!-- component/common/DatePicker.tsx&#45;&gt;component/common/DatePicker/ListPicker.tsx -->
<g id="edge61" class="edge">
<title>component/common/DatePicker.tsx&#45;&gt;component/common/DatePicker/ListPicker.tsx</title>
<path fill="none" stroke="#757575" d="M2174.78,-949.12C2227.73,-953.84 2290.39,-959.44 2345.95,-964.39"/>
<polygon fill="#757575" stroke="#757575" points="2345.54,-967.87 2355.82,-965.27 2346.17,-960.9 2345.54,-967.87"/>
</g>
<!-- types/datePicker.d.ts -->
<g id="node46" class="node">
<title>types/datePicker.d.ts</title>
<path fill="none" stroke="#cfffac" d="M2996.83,-947.88C2996.83,-947.88 2863.17,-947.88 2863.17,-947.88 2859.33,-947.88 2855.5,-944.05 2855.5,-940.22 2855.5,-940.22 2855.5,-932.55 2855.5,-932.55 2855.5,-928.72 2859.33,-924.88 2863.17,-924.88 2863.17,-924.88 2996.83,-924.88 2996.83,-924.88 3000.67,-924.88 3004.5,-928.72 3004.5,-932.55 3004.5,-932.55 3004.5,-940.22 3004.5,-940.22 3004.5,-944.05 3000.67,-947.88 2996.83,-947.88"/>
<text text-anchor="middle" x="2930" y="-932.68" font-family="Arial" font-size="14.00" fill="#cfffac">types/datePicker.d.ts</text>
</g>
<!-- component/common/DatePicker.tsx&#45;&gt;types/datePicker.d.ts -->
<g id="edge62" class="edge">
<title>component/common/DatePicker.tsx&#45;&gt;types/datePicker.d.ts</title>
<path fill="none" stroke="#757575" d="M2174.72,-938.11C2354.1,-937.7 2687.43,-936.94 2843.83,-936.58"/>
<polygon fill="#757575" stroke="#757575" points="2843.73,-940.08 2853.72,-936.56 2843.71,-933.08 2843.73,-940.08"/>
</g>
<!-- component/Dashboard/DashboardHeader/SelectRealTimeListItem.tsx&#45;&gt;component/Dashboard/CommonStyle.ts -->
<g id="edge21" class="edge">
<title>component/Dashboard/DashboardHeader/SelectRealTimeListItem.tsx&#45;&gt;component/Dashboard/CommonStyle.ts</title>
<path fill="none" stroke="#757575" d="M3160.5,-1065.88C3168.54,-1065.48 3176.51,-1065.08 3184.37,-1064.68"/>
<polygon fill="#757575" stroke="#757575" points="3184.46,-1068.18 3194.27,-1064.19 3184.11,-1061.19 3184.46,-1068.18"/>
</g>
<!-- component/Widget.tsx -->
<g id="node28" class="node">
<title>component/Widget.tsx</title>
<path fill="none" stroke="#c6c5fe" d="M675.33,-440.88C675.33,-440.88 531.67,-440.88 531.67,-440.88 527.83,-440.88 524,-437.05 524,-433.22 524,-433.22 524,-425.55 524,-425.55 524,-421.72 527.83,-417.88 531.67,-417.88 531.67,-417.88 675.33,-417.88 675.33,-417.88 679.17,-417.88 683,-421.72 683,-425.55 683,-425.55 683,-433.22 683,-433.22 683,-437.05 679.17,-440.88 675.33,-440.88"/>
<text text-anchor="middle" x="603.5" y="-425.68" font-family="Arial" font-size="14.00" fill="#c6c5fe">component/Widget.tsx</text>
</g>
<!-- component/Widget.tsx&#45;&gt;types/widget.d.ts -->
<g id="edge35" class="edge">
<title>component/Widget.tsx&#45;&gt;types/widget.d.ts</title>
<path fill="none" stroke="#757575" d="M610.17,-417.63C630.3,-377.17 702.65,-242.62 804,-177.38 1088.54,5.76 1206.12,-0.38 1544.5,-0.38 1544.5,-0.38 1544.5,-0.38 2054.5,-0.38 2342.05,-0.38 2456.01,-18.84 2664,-217.38 2812.2,-358.86 2898.13,-601.76 2922.07,-676.7"/>
<polygon fill="#757575" stroke="#757575" points="2918.7,-677.67 2925.03,-686.16 2925.38,-675.57 2918.7,-677.67"/>
</g>
<!-- component/Widget.tsx&#45;&gt;hook/useBoolean.tsx -->
<g id="edge34" class="edge">
<title>component/Widget.tsx&#45;&gt;hook/useBoolean.tsx</title>
<path fill="none" stroke="#757575" d="M683.05,-439.73C719.75,-444.34 764.06,-449.57 804,-453.38 1010.25,-473.1 1064.9,-450.74 1269,-486.38 1520.56,-530.32 1575.13,-577.06 1822,-642.38 1879.06,-657.48 1944.41,-673.53 1990.91,-684.73"/>
<polygon fill="#757575" stroke="#757575" points="1990.01,-688.11 2000.55,-687.05 1991.64,-681.31 1990.01,-688.11"/>
</g>
<!-- component/Widget/WidgetButtons.tsx -->
<g id="node29" class="node">
<title>component/Widget/WidgetButtons.tsx</title>
<path fill="none" stroke="#c6c5fe" d="M1157.33,-518.88C1157.33,-518.88 915.67,-518.88 915.67,-518.88 911.83,-518.88 908,-515.05 908,-511.22 908,-511.22 908,-503.55 908,-503.55 908,-499.72 911.83,-495.88 915.67,-495.88 915.67,-495.88 1157.33,-495.88 1157.33,-495.88 1161.17,-495.88 1165,-499.72 1165,-503.55 1165,-503.55 1165,-511.22 1165,-511.22 1165,-515.05 1161.17,-518.88 1157.33,-518.88"/>
<text text-anchor="middle" x="1036.5" y="-503.68" font-family="Arial" font-size="14.00" fill="#c6c5fe">component/Widget/WidgetButtons.tsx</text>
</g>
<!-- component/Widget.tsx&#45;&gt;component/Widget/WidgetButtons.tsx -->
<g id="edge30" class="edge">
<title>component/Widget.tsx&#45;&gt;component/Widget/WidgetButtons.tsx</title>
<path fill="none" stroke="#757575" d="M643.49,-441.32C683.44,-453.13 747.52,-470.91 804,-481.38 833.75,-486.9 865.88,-491.42 896.46,-495.04"/>
<polygon fill="#757575" stroke="#757575" points="895.81,-498.49 906.15,-496.16 896.62,-491.53 895.81,-498.49"/>
</g>
<!-- component/Widget/WidgetCallCycleSettingModal.tsx -->
<g id="node30" class="node">
<title>component/Widget/WidgetCallCycleSettingModal.tsx</title>
<path fill="none" stroke="#c6c5fe" d="M1713.33,-406.88C1713.33,-406.88 1377.67,-406.88 1377.67,-406.88 1373.83,-406.88 1370,-403.05 1370,-399.22 1370,-399.22 1370,-391.55 1370,-391.55 1370,-387.72 1373.83,-383.88 1377.67,-383.88 1377.67,-383.88 1713.33,-383.88 1713.33,-383.88 1717.17,-383.88 1721,-387.72 1721,-391.55 1721,-391.55 1721,-399.22 1721,-399.22 1721,-403.05 1717.17,-406.88 1713.33,-406.88"/>
<text text-anchor="middle" x="1545.5" y="-391.68" font-family="Arial" font-size="14.00" fill="#c6c5fe">component/Widget/WidgetCallCycleSettingModal.tsx</text>
</g>
<!-- component/Widget.tsx&#45;&gt;component/Widget/WidgetCallCycleSettingModal.tsx -->
<g id="edge31" class="edge">
<title>component/Widget.tsx&#45;&gt;component/Widget/WidgetCallCycleSettingModal.tsx</title>
<path fill="none" stroke="#757575" d="M683.1,-423.08C719.81,-420.34 764.12,-417.32 804,-415.38 992.76,-406.22 1208.81,-400.98 1358.62,-398.19"/>
<polygon fill="#757575" stroke="#757575" points="1358.29,-401.7 1368.23,-398.01 1358.17,-394.7 1358.29,-401.7"/>
</g>
<!-- component/Widget/WidgetChart.tsx -->
<g id="node31" class="node">
<title>component/Widget/WidgetChart.tsx</title>
<path fill="none" stroke="#c6c5fe" d="M1149.83,-209.88C1149.83,-209.88 923.17,-209.88 923.17,-209.88 919.33,-209.88 915.5,-206.05 915.5,-202.22 915.5,-202.22 915.5,-194.55 915.5,-194.55 915.5,-190.72 919.33,-186.88 923.17,-186.88 923.17,-186.88 1149.83,-186.88 1149.83,-186.88 1153.67,-186.88 1157.5,-190.72 1157.5,-194.55 1157.5,-194.55 1157.5,-202.22 1157.5,-202.22 1157.5,-206.05 1153.67,-209.88 1149.83,-209.88"/>
<text text-anchor="middle" x="1036.5" y="-194.68" font-family="Arial" font-size="14.00" fill="#c6c5fe">component/Widget/WidgetChart.tsx</text>
</g>
<!-- component/Widget.tsx&#45;&gt;component/Widget/WidgetChart.tsx -->
<g id="edge32" class="edge">
<title>component/Widget.tsx&#45;&gt;component/Widget/WidgetChart.tsx</title>
<path fill="none" stroke="#757575" d="M626.76,-417.45C697.93,-379.31 920.08,-260.25 1003.45,-215.56"/>
<polygon fill="#757575" stroke="#757575" points="1004.87,-218.77 1012.03,-210.96 1001.57,-212.6 1004.87,-218.77"/>
</g>
<!-- hook/Widget/useHandleWidgetApi.tsx -->
<g id="node32" class="node">
<title>hook/Widget/useHandleWidgetApi.tsx</title>
<path fill="none" stroke="#c6c5fe" d="M1666.33,-478.88C1666.33,-478.88 1424.67,-478.88 1424.67,-478.88 1420.83,-478.88 1417,-475.05 1417,-471.22 1417,-471.22 1417,-463.55 1417,-463.55 1417,-459.72 1420.83,-455.88 1424.67,-455.88 1424.67,-455.88 1666.33,-455.88 1666.33,-455.88 1670.17,-455.88 1674,-459.72 1674,-463.55 1674,-463.55 1674,-471.22 1674,-471.22 1674,-475.05 1670.17,-478.88 1666.33,-478.88"/>
<text text-anchor="middle" x="1545.5" y="-463.68" font-family="Arial" font-size="14.00" fill="#c6c5fe">hook/Widget/useHandleWidgetApi.tsx</text>
</g>
<!-- component/Widget.tsx&#45;&gt;hook/Widget/useHandleWidgetApi.tsx -->
<g id="edge33" class="edge">
<title>component/Widget.tsx&#45;&gt;hook/Widget/useHandleWidgetApi.tsx</title>
<path fill="none" stroke="#757575" d="M683.28,-431.85C807.71,-435.84 1057.37,-444.19 1269,-453.38 1313.35,-455.31 1361.69,-457.68 1405.33,-459.91"/>
<polygon fill="#757575" stroke="#757575" points="1404.93,-463.4 1415.1,-460.42 1405.29,-456.41 1404.93,-463.4"/>
</g>
<!-- component/Widget/WidgetButtons.tsx&#45;&gt;store/WidgetProvider.tsx -->
<g id="edge36" class="edge">
<title>component/Widget/WidgetButtons.tsx&#45;&gt;store/WidgetProvider.tsx</title>
<path fill="none" stroke="#757575" d="M1090.8,-519.34C1138,-530.31 1208.58,-547.66 1269,-566.38 1353.95,-592.71 1451.16,-630.1 1504.4,-651.22"/>
<polygon fill="#757575" stroke="#757575" points="1503.09,-654.46 1513.67,-654.91 1505.68,-647.96 1503.09,-654.46"/>
</g>
<!-- component/Widget/WidgetCallCycleSettingModal.tsx&#45;&gt;common/widget.ts -->
<g id="edge37" class="edge">
<title>component/Widget/WidgetCallCycleSettingModal.tsx&#45;&gt;common/widget.ts</title>
<path fill="none" stroke="#757575" d="M1684.43,-407.38C1778.29,-415.54 1898.99,-426.03 1976.07,-432.74"/>
<polygon fill="#757575" stroke="#757575" points="1975.35,-436.19 1985.61,-433.57 1975.95,-429.21 1975.35,-436.19"/>
</g>
<!-- component/Widget/WidgetCallCycleSettingModal/CycleInput.tsx -->
<g id="node33" class="node">
<title>component/Widget/WidgetCallCycleSettingModal/CycleInput.tsx</title>
<path fill="none" stroke="#cfffac" d="M2256.83,-409.88C2256.83,-409.88 1850.17,-409.88 1850.17,-409.88 1846.33,-409.88 1842.5,-406.05 1842.5,-402.22 1842.5,-402.22 1842.5,-394.55 1842.5,-394.55 1842.5,-390.72 1846.33,-386.88 1850.17,-386.88 1850.17,-386.88 2256.83,-386.88 2256.83,-386.88 2260.67,-386.88 2264.5,-390.72 2264.5,-394.55 2264.5,-394.55 2264.5,-402.22 2264.5,-402.22 2264.5,-406.05 2260.67,-409.88 2256.83,-409.88"/>
<text text-anchor="middle" x="2053.5" y="-394.68" font-family="Arial" font-size="14.00" fill="#cfffac">component/Widget/WidgetCallCycleSettingModal/CycleInput.tsx</text>
</g>
<!-- component/Widget/WidgetCallCycleSettingModal.tsx&#45;&gt;component/Widget/WidgetCallCycleSettingModal/CycleInput.tsx -->
<g id="edge38" class="edge">
<title>component/Widget/WidgetCallCycleSettingModal.tsx&#45;&gt;component/Widget/WidgetCallCycleSettingModal/CycleInput.tsx</title>
<path fill="none" stroke="#757575" d="M1721.35,-396.42C1756.68,-396.63 1794.27,-396.85 1830.97,-397.07"/>
<polygon fill="#757575" stroke="#757575" points="1830.79,-400.57 1840.81,-397.13 1830.83,-393.57 1830.79,-400.57"/>
</g>
<!-- component/Widget/WidgetCallCycleSettingModal/LastCallTimeBox.tsx -->
<g id="node34" class="node">
<title>component/Widget/WidgetCallCycleSettingModal/LastCallTimeBox.tsx</title>
<path fill="none" stroke="#cfffac" d="M2277.33,-368.88C2277.33,-368.88 1829.67,-368.88 1829.67,-368.88 1825.83,-368.88 1822,-365.05 1822,-361.22 1822,-361.22 1822,-353.55 1822,-353.55 1822,-349.72 1825.83,-345.88 1829.67,-345.88 1829.67,-345.88 2277.33,-345.88 2277.33,-345.88 2281.17,-345.88 2285,-349.72 2285,-353.55 2285,-353.55 2285,-361.22 2285,-361.22 2285,-365.05 2281.17,-368.88 2277.33,-368.88"/>
<text text-anchor="middle" x="2053.5" y="-353.68" font-family="Arial" font-size="14.00" fill="#cfffac">component/Widget/WidgetCallCycleSettingModal/LastCallTimeBox.tsx</text>
</g>
<!-- component/Widget/WidgetCallCycleSettingModal.tsx&#45;&gt;component/Widget/WidgetCallCycleSettingModal/LastCallTimeBox.tsx -->
<g id="edge39" class="edge">
<title>component/Widget/WidgetCallCycleSettingModal.tsx&#45;&gt;component/Widget/WidgetCallCycleSettingModal/LastCallTimeBox.tsx</title>
<path fill="none" stroke="#757575" d="M1706.25,-383.39C1762.05,-379.2 1824.88,-374.48 1881.55,-370.22"/>
<polygon fill="#757575" stroke="#757575" points="1881.58,-373.73 1891.29,-369.49 1881.06,-366.75 1881.58,-373.73"/>
</g>
<!-- component/Widget/WidgetChart.tsx&#45;&gt;types/chart.d.ts -->
<g id="edge43" class="edge">
<title>component/Widget/WidgetChart.tsx&#45;&gt;types/chart.d.ts</title>
<path fill="none" stroke="#757575" d="M1083.65,-186.48C1136.77,-173.05 1226.77,-151.17 1305,-136.38 1519.63,-95.81 2080.24,15.69 2285,-60.38 2370.89,-92.29 2444.97,-177.74 2475.98,-217.5"/>
<polygon fill="#757575" stroke="#757575" points="2473.14,-219.54 2482,-225.36 2478.7,-215.29 2473.14,-219.54"/>
</g>
<!-- component/chart/BarChart.tsx -->
<g id="node35" class="node">
<title>component/chart/BarChart.tsx</title>
<path fill="none" stroke="#c6c5fe" d="M1639.33,-168.88C1639.33,-168.88 1451.67,-168.88 1451.67,-168.88 1447.83,-168.88 1444,-165.05 1444,-161.22 1444,-161.22 1444,-153.55 1444,-153.55 1444,-149.72 1447.83,-145.88 1451.67,-145.88 1451.67,-145.88 1639.33,-145.88 1639.33,-145.88 1643.17,-145.88 1647,-149.72 1647,-153.55 1647,-153.55 1647,-161.22 1647,-161.22 1647,-165.05 1643.17,-168.88 1639.33,-168.88"/>
<text text-anchor="middle" x="1545.5" y="-153.68" font-family="Arial" font-size="14.00" fill="#c6c5fe">component/chart/BarChart.tsx</text>
</g>
<!-- component/Widget/WidgetChart.tsx&#45;&gt;component/chart/BarChart.tsx -->
<g id="edge40" class="edge">
<title>component/Widget/WidgetChart.tsx&#45;&gt;component/chart/BarChart.tsx</title>
<path fill="none" stroke="#757575" d="M1157.97,-188.64C1241.18,-181.91 1351.08,-173.03 1432.41,-166.45"/>
<polygon fill="#757575" stroke="#757575" points="1432.5,-169.95 1442.19,-165.66 1431.94,-162.98 1432.5,-169.95"/>
</g>
<!-- component/chart/InformaticsChart.tsx -->
<g id="node36" class="node">
<title>component/chart/InformaticsChart.tsx</title>
<path fill="none" stroke="#c6c5fe" d="M1663.83,-287.88C1663.83,-287.88 1427.17,-287.88 1427.17,-287.88 1423.33,-287.88 1419.5,-284.05 1419.5,-280.22 1419.5,-280.22 1419.5,-272.55 1419.5,-272.55 1419.5,-268.72 1423.33,-264.88 1427.17,-264.88 1427.17,-264.88 1663.83,-264.88 1663.83,-264.88 1667.67,-264.88 1671.5,-268.72 1671.5,-272.55 1671.5,-272.55 1671.5,-280.22 1671.5,-280.22 1671.5,-284.05 1667.67,-287.88 1663.83,-287.88"/>
<text text-anchor="middle" x="1545.5" y="-272.68" font-family="Arial" font-size="14.00" fill="#c6c5fe">component/chart/InformaticsChart.tsx</text>
</g>
<!-- component/Widget/WidgetChart.tsx&#45;&gt;component/chart/InformaticsChart.tsx -->
<g id="edge41" class="edge">
<title>component/Widget/WidgetChart.tsx&#45;&gt;component/chart/InformaticsChart.tsx</title>
<path fill="none" stroke="#757575" d="M1115.33,-210.36C1207.05,-224.47 1359.12,-247.86 1455.46,-262.68"/>
<polygon fill="#757575" stroke="#757575" points="1454.72,-266.11 1465.13,-264.17 1455.78,-259.19 1454.72,-266.11"/>
</g>
<!-- component/chart/LineChart.tsx -->
<g id="node37" class="node">
<title>component/chart/LineChart.tsx</title>
<path fill="none" stroke="#c6c5fe" d="M1642.33,-209.88C1642.33,-209.88 1448.67,-209.88 1448.67,-209.88 1444.83,-209.88 1441,-206.05 1441,-202.22 1441,-202.22 1441,-194.55 1441,-194.55 1441,-190.72 1444.83,-186.88 1448.67,-186.88 1448.67,-186.88 1642.33,-186.88 1642.33,-186.88 1646.17,-186.88 1650,-190.72 1650,-194.55 1650,-194.55 1650,-202.22 1650,-202.22 1650,-206.05 1646.17,-209.88 1642.33,-209.88"/>
<text text-anchor="middle" x="1545.5" y="-194.68" font-family="Arial" font-size="14.00" fill="#c6c5fe">component/chart/LineChart.tsx</text>
</g>
<!-- component/Widget/WidgetChart.tsx&#45;&gt;component/chart/LineChart.tsx -->
<g id="edge42" class="edge">
<title>component/Widget/WidgetChart.tsx&#45;&gt;component/chart/LineChart.tsx</title>
<path fill="none" stroke="#757575" d="M1157.97,-198.38C1240.21,-198.38 1348.5,-198.38 1429.53,-198.38"/>
<polygon fill="#757575" stroke="#757575" points="1429.27,-201.88 1439.27,-198.38 1429.27,-194.88 1429.27,-201.88"/>
</g>
<!-- hook/Widget/useHandleWidgetApi.tsx&#45;&gt;common/api.ts -->
<g id="edge67" class="edge">
<title>hook/Widget/useHandleWidgetApi.tsx&#45;&gt;common/api.ts</title>
<path fill="none" stroke="#757575" d="M1674.23,-464.79C1711.78,-468.31 1751.9,-476.48 1786,-493.38 1806.84,-503.72 1801.18,-521.01 1822,-531.38 1873.39,-556.99 1939.03,-562.14 1987.11,-561.68"/>
<polygon fill="#757575" stroke="#757575" points="1986.87,-565.18 1996.8,-561.49 1986.74,-558.18 1986.87,-565.18"/>
</g>
<!-- hook/Widget/useHandleWidgetApi.tsx&#45;&gt;types/chart.d.ts -->
<g id="edge71" class="edge">
<title>hook/Widget/useHandleWidgetApi.tsx&#45;&gt;types/chart.d.ts</title>
<path fill="none" stroke="#757575" d="M1674.44,-477.94C1856.3,-490.93 2179.25,-505.98 2285,-459.38 2380.62,-417.25 2452.36,-307.08 2479.57,-260.11"/>
<polygon fill="#757575" stroke="#757575" points="2482.47,-262.08 2484.36,-251.66 2476.38,-258.63 2482.47,-262.08"/>
</g>
<!-- hook/Widget/useHandleWidgetApi.tsx&#45;&gt;common/date.ts -->
<g id="edge68" class="edge">
<title>hook/Widget/useHandleWidgetApi.tsx&#45;&gt;common/date.ts</title>
<path fill="none" stroke="#757575" d="M1674.25,-457.3C1713.28,-460.18 1754.23,-469.87 1786,-493.38 1818.65,-517.54 1790.68,-551.52 1822,-577.38 1984.39,-711.5 2086.08,-609.17 2285,-678.38 2350.43,-701.15 2422.07,-739.48 2461.42,-761.8"/>
<polygon fill="#757575" stroke="#757575" points="2459.66,-764.83 2470.08,-766.76 2463.14,-758.75 2459.66,-764.83"/>
</g>
<!-- hook/Widget/useHandleWidgetApi.tsx&#45;&gt;common/widget.ts -->
<g id="edge69" class="edge">
<title>hook/Widget/useHandleWidgetApi.tsx&#45;&gt;common/widget.ts</title>
<path fill="none" stroke="#757575" d="M1674.19,-460.32C1769.2,-455.06 1895.76,-448.06 1975.7,-443.63"/>
<polygon fill="#757575" stroke="#757575" points="1975.85,-447.13 1985.64,-443.08 1975.46,-440.14 1975.85,-447.13"/>
</g>
<!-- hook/Widget/useHandleWidgetApi.tsx&#45;&gt;store/DashboardProvider.tsx -->
<g id="edge70" class="edge">
<title>hook/Widget/useHandleWidgetApi.tsx&#45;&gt;store/DashboardProvider.tsx</title>
<path fill="none" stroke="#757575" d="M1569.08,-479.38C1615.12,-504.78 1720.96,-568.15 1786,-646.38 1809.13,-674.2 1793.95,-696.53 1822,-719.38 1856.21,-747.26 1901.95,-762.32 1943.67,-770.4"/>
<polygon fill="#757575" stroke="#757575" points="1942.79,-773.8 1953.25,-772.14 1944.04,-766.91 1942.79,-773.8"/>
</g>
<!-- hook/Widget/useHandleWidgetApi.tsx&#45;&gt;types/widget.d.ts -->
<g id="edge72" class="edge">
<title>hook/Widget/useHandleWidgetApi.tsx&#45;&gt;types/widget.d.ts</title>
<path fill="none" stroke="#757575" d="M1674.36,-478.23C1720.83,-482.01 1773.77,-486.11 1822,-489.38 2008.97,-502.07 2485.17,-480.36 2664,-536.38 2763.4,-567.52 2863.43,-644.25 2906.72,-680.21"/>
<polygon fill="#757575" stroke="#757575" points="2904.25,-682.7 2914.16,-686.45 2908.76,-677.34 2904.25,-682.7"/>
</g>
<!-- component/chart/BarChart.tsx&#45;&gt;common/chart.ts -->
<g id="edge49" class="edge">
<title>component/chart/BarChart.tsx&#45;&gt;common/chart.ts</title>
<path fill="none" stroke="#757575" d="M1647.38,-149.21C1746.02,-141.22 1893.73,-129.25 1980.89,-122.19"/>
<polygon fill="#757575" stroke="#757575" points="1981.06,-125.68 1990.74,-121.39 1980.49,-118.71 1981.06,-125.68"/>
</g>
<!-- component/chart/BarChart.tsx&#45;&gt;types/chart.d.ts -->
<g id="edge52" class="edge">
<title>component/chart/BarChart.tsx&#45;&gt;types/chart.d.ts</title>
<path fill="none" stroke="#757575" d="M1581,-145.43C1688.26,-110.17 2024.34,-13.94 2285,-95.38 2363.33,-119.86 2438.08,-185.62 2472.19,-218.75"/>
<polygon fill="#757575" stroke="#757575" points="2469.69,-221.19 2479.26,-225.73 2474.61,-216.21 2469.69,-221.19"/>
</g>
<!-- component/chart/ChartSvg.tsx -->
<g id="node41" class="node">
<title>component/chart/ChartSvg.tsx</title>
<path fill="none" stroke="#cfffac" d="M2148.83,-168.88C2148.83,-168.88 1958.17,-168.88 1958.17,-168.88 1954.33,-168.88 1950.5,-165.05 1950.5,-161.22 1950.5,-161.22 1950.5,-153.55 1950.5,-153.55 1950.5,-149.72 1954.33,-145.88 1958.17,-145.88 1958.17,-145.88 2148.83,-145.88 2148.83,-145.88 2152.67,-145.88 2156.5,-149.72 2156.5,-153.55 2156.5,-153.55 2156.5,-161.22 2156.5,-161.22 2156.5,-165.05 2152.67,-168.88 2148.83,-168.88"/>
<text text-anchor="middle" x="2053.5" y="-153.68" font-family="Arial" font-size="14.00" fill="#cfffac">component/chart/ChartSvg.tsx</text>
</g>
<!-- component/chart/BarChart.tsx&#45;&gt;component/chart/ChartSvg.tsx -->
<g id="edge50" class="edge">
<title>component/chart/BarChart.tsx&#45;&gt;component/chart/ChartSvg.tsx</title>
<path fill="none" stroke="#757575" d="M1647.38,-157.38C1731.48,-157.38 1851.26,-157.38 1938.76,-157.38"/>
<polygon fill="#757575" stroke="#757575" points="1938.56,-160.88 1948.56,-157.38 1938.56,-153.88 1938.56,-160.88"/>
</g>
<!-- hook/useResize.tsx -->
<g id="node42" class="node">
<title>hook/useResize.tsx</title>
<path fill="none" stroke="#cfffac" d="M2115.83,-209.88C2115.83,-209.88 1991.17,-209.88 1991.17,-209.88 1987.33,-209.88 1983.5,-206.05 1983.5,-202.22 1983.5,-202.22 1983.5,-194.55 1983.5,-194.55 1983.5,-190.72 1987.33,-186.88 1991.17,-186.88 1991.17,-186.88 2115.83,-186.88 2115.83,-186.88 2119.67,-186.88 2123.5,-190.72 2123.5,-194.55 2123.5,-194.55 2123.5,-202.22 2123.5,-202.22 2123.5,-206.05 2119.67,-209.88 2115.83,-209.88"/>
<text text-anchor="middle" x="2053.5" y="-194.68" font-family="Arial" font-size="14.00" fill="#cfffac">hook/useResize.tsx</text>
</g>
<!-- component/chart/BarChart.tsx&#45;&gt;hook/useResize.tsx -->
<g id="edge51" class="edge">
<title>component/chart/BarChart.tsx&#45;&gt;hook/useResize.tsx</title>
<path fill="none" stroke="#757575" d="M1647.38,-165.56C1742.67,-173.28 1883.75,-184.71 1971.8,-191.84"/>
<polygon fill="#757575" stroke="#757575" points="1971.3,-195.32 1981.55,-192.64 1971.87,-188.34 1971.3,-195.32"/>
</g>
<!-- component/chart/InformaticsChart.tsx&#45;&gt;types/chart.d.ts -->
<g id="edge54" class="edge">
<title>component/chart/InformaticsChart.tsx&#45;&gt;types/chart.d.ts</title>
<path fill="none" stroke="#757575" d="M1672,-273.65C1818.98,-270.14 2069.76,-263.17 2285,-252.38 2331.65,-250.05 2384.16,-246.47 2424.55,-243.52"/>
<polygon fill="#757575" stroke="#757575" points="2424.65,-247.02 2434.37,-242.8 2424.14,-240.04 2424.65,-247.02"/>
</g>
<!-- component/chart/InformaticsChart/InforMaticsBox.tsx -->
<g id="node43" class="node">
<title>component/chart/InformaticsChart/InforMaticsBox.tsx</title>
<path fill="none" stroke="#c6c5fe" d="M2220.83,-327.88C2220.83,-327.88 1886.17,-327.88 1886.17,-327.88 1882.33,-327.88 1878.5,-324.05 1878.5,-320.22 1878.5,-320.22 1878.5,-312.55 1878.5,-312.55 1878.5,-308.72 1882.33,-304.88 1886.17,-304.88 1886.17,-304.88 2220.83,-304.88 2220.83,-304.88 2224.67,-304.88 2228.5,-308.72 2228.5,-312.55 2228.5,-312.55 2228.5,-320.22 2228.5,-320.22 2228.5,-324.05 2224.67,-327.88 2220.83,-327.88"/>
<text text-anchor="middle" x="2053.5" y="-312.68" font-family="Arial" font-size="14.00" fill="#c6c5fe">component/chart/InformaticsChart/InforMaticsBox.tsx</text>
</g>
<!-- component/chart/InformaticsChart.tsx&#45;&gt;component/chart/InformaticsChart/InforMaticsBox.tsx -->
<g id="edge53" class="edge">
<title>component/chart/InformaticsChart.tsx&#45;&gt;component/chart/InformaticsChart/InforMaticsBox.tsx</title>
<path fill="none" stroke="#757575" d="M1671.9,-286.3C1737.75,-291.5 1819.2,-297.94 1889.85,-303.53"/>
<polygon fill="#757575" stroke="#757575" points="1889.33,-307 1899.58,-304.3 1889.89,-300.02 1889.33,-307"/>
</g>
<!-- component/chart/LineChart.tsx&#45;&gt;common/chart.ts -->
<g id="edge56" class="edge">
<title>component/chart/LineChart.tsx&#45;&gt;common/chart.ts</title>
<path fill="none" stroke="#757575" d="M1650.48,-205.95C1694.38,-205.02 1744.76,-198.27 1786,-177.38 1807.63,-166.43 1800.36,-147.33 1822,-136.38 1871,-111.59 1933.41,-107.58 1980.93,-109.22"/>
<polygon fill="#757575" stroke="#757575" points="1980.71,-112.71 1990.85,-109.66 1981.02,-105.72 1980.71,-112.71"/>
</g>
<!-- component/chart/LineChart.tsx&#45;&gt;types/chart.d.ts -->
<g id="edge59" class="edge">
<title>component/chart/LineChart.tsx&#45;&gt;types/chart.d.ts</title>
<path fill="none" stroke="#757575" d="M1650.44,-206.98C1702,-210.98 1765.25,-215.48 1822,-218.38 2042.51,-229.68 2304.22,-235.22 2424.71,-237.33"/>
<polygon fill="#757575" stroke="#757575" points="2424.35,-240.82 2434.41,-237.5 2424.47,-233.83 2424.35,-240.82"/>
</g>
<!-- component/chart/LineChart.tsx&#45;&gt;component/chart/ChartSvg.tsx -->
<g id="edge57" class="edge">
<title>component/chart/LineChart.tsx&#45;&gt;component/chart/ChartSvg.tsx</title>
<path fill="none" stroke="#757575" d="M1650.42,-189.96C1734.29,-183.17 1852.13,-173.62 1938.57,-166.62"/>
<polygon fill="#757575" stroke="#757575" points="1938.82,-170.11 1948.5,-165.81 1938.25,-163.13 1938.82,-170.11"/>
</g>
<!-- component/chart/LineChart.tsx&#45;&gt;hook/useResize.tsx -->
<g id="edge58" class="edge">
<title>component/chart/LineChart.tsx&#45;&gt;hook/useResize.tsx</title>
<path fill="none" stroke="#757575" d="M1650.42,-198.38C1745.64,-198.38 1884.65,-198.38 1971.76,-198.38"/>
<polygon fill="#757575" stroke="#757575" points="1971.66,-201.88 1981.66,-198.38 1971.66,-194.88 1971.66,-201.88"/>
</g>
<!-- component/Widget/WidgetPropsSettingModal.tsx -->
<g id="node38" class="node">
<title>component/Widget/WidgetPropsSettingModal.tsx</title>
<path fill="none" stroke="#c6c5fe" d="M760.33,-638.88C760.33,-638.88 446.67,-638.88 446.67,-638.88 442.83,-638.88 439,-635.05 439,-631.22 439,-631.22 439,-623.55 439,-623.55 439,-619.72 442.83,-615.88 446.67,-615.88 446.67,-615.88 760.33,-615.88 760.33,-615.88 764.17,-615.88 768,-619.72 768,-623.55 768,-623.55 768,-631.22 768,-631.22 768,-635.05 764.17,-638.88 760.33,-638.88"/>
<text text-anchor="middle" x="603.5" y="-623.68" font-family="Arial" font-size="14.00" fill="#c6c5fe">component/Widget/WidgetPropsSettingModal.tsx</text>
</g>
<!-- component/Widget/WidgetPropsSettingModal.tsx&#45;&gt;common/api.ts -->
<g id="edge44" class="edge">
<title>component/Widget/WidgetPropsSettingModal.tsx&#45;&gt;common/api.ts</title>
<path fill="none" stroke="#757575" d="M633.95,-615.43C672.33,-600.53 741.89,-575.9 804,-566.38 1251.8,-497.8 1800.57,-535.2 1986.98,-551.25"/>
<polygon fill="#757575" stroke="#757575" points="1986.44,-554.71 1996.7,-552.09 1987.05,-547.74 1986.44,-554.71"/>
</g>
<!-- component/Widget/WidgetPropsSettingModal.tsx&#45;&gt;store/WidgetProvider.tsx -->
<g id="edge47" class="edge">
<title>component/Widget/WidgetPropsSettingModal.tsx&#45;&gt;store/WidgetProvider.tsx</title>
<path fill="none" stroke="#757575" d="M768.44,-629.9C902.98,-632.49 1098.42,-637.45 1269,-646.38 1328.24,-649.49 1394.55,-654.49 1447.26,-658.84"/>
<polygon fill="#757575" stroke="#757575" points="1446.87,-662.32 1457.13,-659.66 1447.45,-655.34 1446.87,-662.32"/>
</g>
<!-- component/Widget/WidgetPropsSettingModal/WidgetPropsButtons.tsx -->
<g id="node39" class="node">
<title>component/Widget/WidgetPropsSettingModal/WidgetPropsButtons.tsx</title>
<path fill="none" stroke="#c6c5fe" d="M1261.33,-678.88C1261.33,-678.88 811.67,-678.88 811.67,-678.88 807.83,-678.88 804,-675.05 804,-671.22 804,-671.22 804,-663.55 804,-663.55 804,-659.72 807.83,-655.88 811.67,-655.88 811.67,-655.88 1261.33,-655.88 1261.33,-655.88 1265.17,-655.88 1269,-659.72 1269,-663.55 1269,-663.55 1269,-671.22 1269,-671.22 1269,-675.05 1265.17,-678.88 1261.33,-678.88"/>
<text text-anchor="middle" x="1036.5" y="-663.68" font-family="Arial" font-size="14.00" fill="#c6c5fe">component/Widget/WidgetPropsSettingModal/WidgetPropsButtons.tsx</text>
</g>
<!-- component/Widget/WidgetPropsSettingModal.tsx&#45;&gt;component/Widget/WidgetPropsSettingModal/WidgetPropsButtons.tsx -->
<g id="edge45" class="edge">
<title>component/Widget/WidgetPropsSettingModal.tsx&#45;&gt;component/Widget/WidgetPropsSettingModal/WidgetPropsButtons.tsx</title>
<path fill="none" stroke="#757575" d="M733.52,-639.36C784.47,-644.09 843.15,-649.53 895.15,-654.36"/>
<polygon fill="#757575" stroke="#757575" points="894.69,-657.83 904.98,-655.27 895.34,-650.86 894.69,-657.83"/>
</g>
<!-- component/Widget/WidgetPropsSettingModal/WidgetPropsList.tsx -->
<g id="node40" class="node">
<title>component/Widget/WidgetPropsSettingModal/WidgetPropsList.tsx</title>
<path fill="none" stroke="#cfffac" d="M1248.83,-598.88C1248.83,-598.88 824.17,-598.88 824.17,-598.88 820.33,-598.88 816.5,-595.05 816.5,-591.22 816.5,-591.22 816.5,-583.55 816.5,-583.55 816.5,-579.72 820.33,-575.88 824.17,-575.88 824.17,-575.88 1248.83,-575.88 1248.83,-575.88 1252.67,-575.88 1256.5,-579.72 1256.5,-583.55 1256.5,-583.55 1256.5,-591.22 1256.5,-591.22 1256.5,-595.05 1252.67,-598.88 1248.83,-598.88"/>
<text text-anchor="middle" x="1036.5" y="-583.68" font-family="Arial" font-size="14.00" fill="#cfffac">component/Widget/WidgetPropsSettingModal/WidgetPropsList.tsx</text>
</g>
<!-- component/Widget/WidgetPropsSettingModal.tsx&#45;&gt;component/Widget/WidgetPropsSettingModal/WidgetPropsList.tsx -->
<g id="edge46" class="edge">
<title>component/Widget/WidgetPropsSettingModal.tsx&#45;&gt;component/Widget/WidgetPropsSettingModal/WidgetPropsList.tsx</title>
<path fill="none" stroke="#757575" d="M733.52,-615.41C784.47,-610.68 843.15,-605.24 895.15,-600.41"/>
<polygon fill="#757575" stroke="#757575" points="895.34,-603.91 904.98,-599.5 894.69,-596.94 895.34,-603.91"/>
</g>
<!-- component/Widget/WidgetPropsSettingModal/WidgetPropsButtons.tsx&#45;&gt;store/WidgetProvider.tsx -->
<g id="edge48" class="edge">
<title>component/Widget/WidgetPropsSettingModal/WidgetPropsButtons.tsx&#45;&gt;store/WidgetProvider.tsx</title>
<path fill="none" stroke="#757575" d="M1269.49,-667.38C1332.15,-667.38 1396.58,-667.38 1447.31,-667.38"/>
<polygon fill="#757575" stroke="#757575" points="1447.06,-670.88 1457.06,-667.38 1447.06,-663.88 1447.06,-670.88"/>
</g>
<!-- component/chart/InformaticsChart/InforMaticsBox.tsx&#45;&gt;types/chart.d.ts -->
<g id="edge55" class="edge">
<title>component/chart/InformaticsChart/InforMaticsBox.tsx&#45;&gt;types/chart.d.ts</title>
<path fill="none" stroke="#757575" d="M2188.11,-304.39C2219.98,-300.68 2253.8,-296.05 2285,-290.38 2338.31,-280.71 2398.27,-265.07 2439.78,-253.46"/>
<polygon fill="#757575" stroke="#757575" points="2440.58,-256.87 2449.26,-250.79 2438.68,-250.14 2440.58,-256.87"/>
</g>
<!-- component/common/DatePicker/DatePickerTitle.tsx&#45;&gt;types/widget.d.ts -->
<g id="edge63" class="edge">
<title>component/common/DatePicker/DatePickerTitle.tsx&#45;&gt;types/widget.d.ts</title>
<path fill="none" stroke="#757575" d="M2614.85,-885.39C2631.66,-881.86 2648.47,-877.29 2664,-871.38 2763.1,-833.68 2863.64,-754.84 2906.94,-718.49"/>
<polygon fill="#757575" stroke="#757575" points="2909.01,-721.33 2914.37,-712.19 2904.48,-715.99 2909.01,-721.33"/>
</g>
<!-- component/common/DatePicker/ListPicker.tsx&#45;&gt;types/datePicker.d.ts -->
<g id="edge65" class="edge">
<title>component/common/DatePicker/ListPicker.tsx&#45;&gt;types/datePicker.d.ts</title>
<path fill="none" stroke="#757575" d="M2616.06,-965.41C2643.67,-962.74 2672.84,-959.94 2700,-957.38 2747.62,-952.89 2800.81,-948.01 2843.94,-944.08"/>
<polygon fill="#757575" stroke="#757575" points="2844.1,-947.58 2853.74,-943.19 2843.47,-940.61 2844.1,-947.58"/>
</g>
<!-- component/common/DatePicker/ListPickerItem.tsx -->
<g id="node47" class="node">
<title>component/common/DatePicker/ListPickerItem.tsx</title>
<path fill="none" stroke="#c6c5fe" d="M3090.83,-988.88C3090.83,-988.88 2769.17,-988.88 2769.17,-988.88 2765.33,-988.88 2761.5,-985.05 2761.5,-981.22 2761.5,-981.22 2761.5,-973.55 2761.5,-973.55 2761.5,-969.72 2765.33,-965.88 2769.17,-965.88 2769.17,-965.88 3090.83,-965.88 3090.83,-965.88 3094.67,-965.88 3098.5,-969.72 3098.5,-973.55 3098.5,-973.55 3098.5,-981.22 3098.5,-981.22 3098.5,-985.05 3094.67,-988.88 3090.83,-988.88"/>
<text text-anchor="middle" x="2930" y="-973.68" font-family="Arial" font-size="14.00" fill="#c6c5fe">component/common/DatePicker/ListPickerItem.tsx</text>
</g>
<!-- component/common/DatePicker/ListPicker.tsx&#45;&gt;component/common/DatePicker/ListPickerItem.tsx -->
<g id="edge64" class="edge">
<title>component/common/DatePicker/ListPicker.tsx&#45;&gt;component/common/DatePicker/ListPickerItem.tsx</title>
<path fill="none" stroke="#757575" d="M2646.73,-977.38C2680.12,-977.38 2715.72,-977.38 2750,-977.38"/>
<polygon fill="#757575" stroke="#757575" points="2749.57,-980.88 2759.57,-977.38 2749.57,-973.88 2749.57,-980.88"/>
</g>
<!-- component/common/DatePicker/ListPickerItem.tsx&#45;&gt;component/Dashboard/CommonStyle.ts -->
<g id="edge66" class="edge">
<title>component/common/DatePicker/ListPickerItem.tsx&#45;&gt;component/Dashboard/CommonStyle.ts</title>
<path fill="none" stroke="#757575" d="M3074.62,-989.35C3103.07,-992.94 3132.61,-997.54 3160,-1003.38 3204.68,-1012.92 3254.32,-1029.4 3288.37,-1041.65"/>
<polygon fill="#757575" stroke="#757575" points="3286.83,-1044.82 3297.43,-1044.95 3289.23,-1038.24 3286.83,-1044.82"/>
</g>
<!-- page/Dashboard.tsx&#45;&gt;component/Dashboard/DashboardHeader.tsx -->
<g id="edge73" class="edge">
<title>page/Dashboard.tsx&#45;&gt;component/Dashboard/DashboardHeader.tsx</title>
<path fill="none" stroke="#757575" d="M343.49,-719.37C362.06,-738.17 400.48,-774.77 439,-797.38 473.46,-817.61 515.7,-833.43 548.62,-844.03"/>
<polygon fill="#757575" stroke="#757575" points="547.37,-847.3 557.96,-846.96 549.47,-840.62 547.37,-847.3"/>
</g>
<!-- page/Dashboard.tsx&#45;&gt;store/DashboardProvider.tsx -->
<g id="edge76" class="edge">
<title>page/Dashboard.tsx&#45;&gt;store/DashboardProvider.tsx</title>
<path fill="none" stroke="#757575" d="M403.3,-716.13C415.21,-717.37 427.44,-718.52 439,-719.38 1004.01,-761.51 1682.62,-774.52 1943.25,-778.13"/>
<polygon fill="#757575" stroke="#757575" points="1943.04,-781.62 1953.08,-778.26 1943.13,-774.63 1943.04,-781.62"/>
</g>
<!-- page/Dashboard.tsx&#45;&gt;store/WidgetProvider.tsx -->
<g id="edge77" class="edge">
<title>page/Dashboard.tsx&#45;&gt;store/WidgetProvider.tsx</title>
<path fill="none" stroke="#757575" d="M403.45,-707.1C560.23,-706.22 946.17,-702.54 1269,-687.38 1328.24,-684.6 1394.55,-679.84 1447.26,-675.66"/>
<polygon fill="#757575" stroke="#757575" points="1447.44,-679.16 1457.12,-674.87 1446.88,-672.18 1447.44,-679.16"/>
</g>
<!-- page/Dashboard.tsx&#45;&gt;component/Widget.tsx -->
<g id="edge74" class="edge">
<title>page/Dashboard.tsx&#45;&gt;component/Widget.tsx</title>
<path fill="none" stroke="#757575" d="M343.62,-695.44C385.68,-652.22 530.19,-503.7 582.99,-449.44"/>
<polygon fill="#757575" stroke="#757575" points="585.4,-451.98 589.86,-442.37 580.38,-447.1 585.4,-451.98"/>
</g>
<!-- page/Dashboard.tsx&#45;&gt;component/Widget/WidgetPropsSettingModal.tsx -->
<g id="edge75" class="edge">
<title>page/Dashboard.tsx&#45;&gt;component/Widget/WidgetPropsSettingModal.tsx</title>
<path fill="none" stroke="#757575" d="M372.5,-695.41C420.14,-681.32 499.32,-657.9 551.21,-642.55"/>
<polygon fill="#757575" stroke="#757575" points="552.12,-645.93 560.72,-639.74 550.14,-639.22 552.12,-645.93"/>
</g>
</g>
</svg>
