<?xml version="1.0" encoding="UTF-8" standalone="no"?>
<!DOCTYPE svg PUBLIC "-//W3C//DTD SVG 1.1//EN"
 "http://www.w3.org/Graphics/SVG/1.1/DTD/svg11.dtd">
<!-- Generated by graphviz version 7.1.0 (20230121.1956)
 -->
<!-- Title: G Pages: 1 -->
<svg width="2369pt" height="1019pt"
 viewBox="0.00 0.00 2369.20 1018.68" xmlns="http://www.w3.org/2000/svg" xmlns:xlink="http://www.w3.org/1999/xlink">
<g id="graph0" class="graph" transform="scale(1 1) rotate(0) translate(21.6 997.08)">
<title>G</title>
<polygon fill="#111111" stroke="none" points="-21.6,21.6 -21.6,-997.08 2347.6,-997.08 2347.6,21.6 -21.6,21.6"/>
<!-- App.tsx -->
<g id="node1" class="node">
<title>App.tsx</title>
<path fill="none" stroke="#c6c5fe" d="M57.33,-574.48C57.33,-574.48 7.67,-574.48 7.67,-574.48 3.83,-574.48 0,-570.65 0,-566.81 0,-566.81 0,-559.15 0,-559.15 0,-555.31 3.83,-551.48 7.67,-551.48 7.67,-551.48 57.33,-551.48 57.33,-551.48 61.17,-551.48 65,-555.31 65,-559.15 65,-559.15 65,-566.81 65,-566.81 65,-570.65 61.17,-574.48 57.33,-574.48"/>
<text text-anchor="middle" x="32.5" y="-559.28" font-family="Arial" font-size="14.00" fill="#c6c5fe">App.tsx</text>
</g>
<!-- router/Router.tsx -->
<g id="node2" class="node">
<title>router/Router.tsx</title>
<path fill="none" stroke="#c6c5fe" d="M215.33,-574.48C215.33,-574.48 108.67,-574.48 108.67,-574.48 104.83,-574.48 101,-570.65 101,-566.81 101,-566.81 101,-559.15 101,-559.15 101,-555.31 104.83,-551.48 108.67,-551.48 108.67,-551.48 215.33,-551.48 215.33,-551.48 219.17,-551.48 223,-555.31 223,-559.15 223,-559.15 223,-566.81 223,-566.81 223,-570.65 219.17,-574.48 215.33,-574.48"/>
<text text-anchor="middle" x="162" y="-559.28" font-family="Arial" font-size="14.00" fill="#c6c5fe">router/Router.tsx</text>
</g>
<!-- App.tsx&#45;&gt;router/Router.tsx -->
<g id="edge1" class="edge">
<title>App.tsx&#45;&gt;router/Router.tsx</title>
<path fill="none" stroke="#757575" d="M65.34,-562.98C72.7,-562.98 80.81,-562.98 89.12,-562.98"/>
<polygon fill="#757575" stroke="#757575" points="88.99,-566.48 98.99,-562.98 88.99,-559.48 88.99,-566.48"/>
</g>
<!-- page/Dashboard.tsx -->
<g id="node35" class="node">
<title>page/Dashboard.tsx</title>
<path fill="none" stroke="#c6c5fe" d="M395.33,-574.48C395.33,-574.48 266.67,-574.48 266.67,-574.48 262.83,-574.48 259,-570.65 259,-566.81 259,-566.81 259,-559.15 259,-559.15 259,-555.31 262.83,-551.48 266.67,-551.48 266.67,-551.48 395.33,-551.48 395.33,-551.48 399.17,-551.48 403,-555.31 403,-559.15 403,-559.15 403,-566.81 403,-566.81 403,-570.65 399.17,-574.48 395.33,-574.48"/>
<text text-anchor="middle" x="331" y="-559.28" font-family="Arial" font-size="14.00" fill="#c6c5fe">page/Dashboard.tsx</text>
</g>
<!-- router/Router.tsx&#45;&gt;page/Dashboard.tsx -->
<g id="edge60" class="edge">
<title>router/Router.tsx&#45;&gt;page/Dashboard.tsx</title>
<path fill="none" stroke="#757575" d="M223.29,-562.98C231.1,-562.98 239.21,-562.98 247.3,-562.98"/>
<polygon fill="#757575" stroke="#757575" points="247.19,-566.48 257.19,-562.98 247.19,-559.48 247.19,-566.48"/>
</g>
<!-- api.ts -->
<g id="node3" class="node">
<title>api.ts</title>
<path fill="none" stroke="#c6c5fe" d="M1037.83,-340.48C1037.83,-340.48 999.17,-340.48 999.17,-340.48 995.33,-340.48 991.5,-336.65 991.5,-332.81 991.5,-332.81 991.5,-325.15 991.5,-325.15 991.5,-321.31 995.33,-317.48 999.17,-317.48 999.17,-317.48 1037.83,-317.48 1037.83,-317.48 1041.67,-317.48 1045.5,-321.31 1045.5,-325.15 1045.5,-325.15 1045.5,-332.81 1045.5,-332.81 1045.5,-336.65 1041.67,-340.48 1037.83,-340.48"/>
<text text-anchor="middle" x="1018.5" y="-325.28" font-family="Arial" font-size="14.00" fill="#c6c5fe">api.ts</text>
</g>
<!-- types/api.d.ts -->
<g id="node4" class="node">
<title>types/api.d.ts</title>
<path fill="none" stroke="#cfffac" d="M1567.83,-320.48C1567.83,-320.48 1482.17,-320.48 1482.17,-320.48 1478.33,-320.48 1474.5,-316.65 1474.5,-312.81 1474.5,-312.81 1474.5,-305.15 1474.5,-305.15 1474.5,-301.31 1478.33,-297.48 1482.17,-297.48 1482.17,-297.48 1567.83,-297.48 1567.83,-297.48 1571.67,-297.48 1575.5,-301.31 1575.5,-305.15 1575.5,-305.15 1575.5,-312.81 1575.5,-312.81 1575.5,-316.65 1571.67,-320.48 1567.83,-320.48"/>
<text text-anchor="middle" x="1525" y="-305.28" font-family="Arial" font-size="14.00" fill="#cfffac">types/api.d.ts</text>
</g>
<!-- api.ts&#45;&gt;types/api.d.ts -->
<g id="edge2" class="edge">
<title>api.ts&#45;&gt;types/api.d.ts</title>
<path fill="none" stroke="#757575" d="M1045.91,-327.93C1123.55,-324.86 1352.5,-315.78 1462.99,-311.4"/>
<polygon fill="#757575" stroke="#757575" points="1462.9,-314.91 1472.75,-311.01 1462.62,-307.91 1462.9,-314.91"/>
</g>
<!-- asset/image/pause.png -->
<g id="node5" class="node">
<title>asset/image/pause.png</title>
<path fill="none" stroke="#cfffac" d="M1092.83,-772.48C1092.83,-772.48 944.17,-772.48 944.17,-772.48 940.33,-772.48 936.5,-768.65 936.5,-764.81 936.5,-764.81 936.5,-757.15 936.5,-757.15 936.5,-753.31 940.33,-749.48 944.17,-749.48 944.17,-749.48 1092.83,-749.48 1092.83,-749.48 1096.67,-749.48 1100.5,-753.31 1100.5,-757.15 1100.5,-757.15 1100.5,-764.81 1100.5,-764.81 1100.5,-768.65 1096.67,-772.48 1092.83,-772.48"/>
<text text-anchor="middle" x="1018.5" y="-757.28" font-family="Arial" font-size="14.00" fill="#cfffac">asset/image/pause.png</text>
</g>
<!-- asset/image/play.png -->
<g id="node6" class="node">
<title>asset/image/play.png</title>
<path fill="none" stroke="#cfffac" d="M1086.33,-731.48C1086.33,-731.48 950.67,-731.48 950.67,-731.48 946.83,-731.48 943,-727.65 943,-723.81 943,-723.81 943,-716.15 943,-716.15 943,-712.31 946.83,-708.48 950.67,-708.48 950.67,-708.48 1086.33,-708.48 1086.33,-708.48 1090.17,-708.48 1094,-712.31 1094,-716.15 1094,-716.15 1094,-723.81 1094,-723.81 1094,-727.65 1090.17,-731.48 1086.33,-731.48"/>
<text text-anchor="middle" x="1018.5" y="-716.28" font-family="Arial" font-size="14.00" fill="#cfffac">asset/image/play.png</text>
</g>
<!-- common/chart.ts -->
<g id="node7" class="node">
<title>common/chart.ts</title>
<path fill="none" stroke="#c6c5fe" d="M2019.33,-265.48C2019.33,-265.48 1912.67,-265.48 1912.67,-265.48 1908.83,-265.48 1905,-261.65 1905,-257.81 1905,-257.81 1905,-250.15 1905,-250.15 1905,-246.31 1908.83,-242.48 1912.67,-242.48 1912.67,-242.48 2019.33,-242.48 2019.33,-242.48 2023.17,-242.48 2027,-246.31 2027,-250.15 2027,-250.15 2027,-257.81 2027,-257.81 2027,-261.65 2023.17,-265.48 2019.33,-265.48"/>
<text text-anchor="middle" x="1966" y="-250.28" font-family="Arial" font-size="14.00" fill="#c6c5fe">common/chart.ts</text>
</g>
<!-- types/chart.d.ts -->
<g id="node8" class="node">
<title>types/chart.d.ts</title>
<path fill="none" stroke="#cfffac" d="M2300.33,-184.48C2300.33,-184.48 2202.67,-184.48 2202.67,-184.48 2198.83,-184.48 2195,-180.65 2195,-176.81 2195,-176.81 2195,-169.15 2195,-169.15 2195,-165.31 2198.83,-161.48 2202.67,-161.48 2202.67,-161.48 2300.33,-161.48 2300.33,-161.48 2304.17,-161.48 2308,-165.31 2308,-169.15 2308,-169.15 2308,-176.81 2308,-176.81 2308,-180.65 2304.17,-184.48 2300.33,-184.48"/>
<text text-anchor="middle" x="2251.5" y="-169.28" font-family="Arial" font-size="14.00" fill="#cfffac">types/chart.d.ts</text>
</g>
<!-- common/chart.ts&#45;&gt;types/chart.d.ts -->
<g id="edge3" class="edge">
<title>common/chart.ts&#45;&gt;types/chart.d.ts</title>
<path fill="none" stroke="#757575" d="M2027.4,-252.33C2061.44,-250.01 2104.35,-244.75 2141,-232.98 2171.29,-223.25 2202.84,-204.96 2224.25,-191.12"/>
<polygon fill="#757575" stroke="#757575" points="2225.93,-194.2 2232.35,-185.76 2222.07,-188.36 2225.93,-194.2"/>
</g>
<!-- common/date.ts -->
<g id="node9" class="node">
<title>common/date.ts</title>
<path fill="none" stroke="#cfffac" d="M2017.83,-649.48C2017.83,-649.48 1914.17,-649.48 1914.17,-649.48 1910.33,-649.48 1906.5,-645.65 1906.5,-641.81 1906.5,-641.81 1906.5,-634.15 1906.5,-634.15 1906.5,-630.31 1910.33,-626.48 1914.17,-626.48 1914.17,-626.48 2017.83,-626.48 2017.83,-626.48 2021.67,-626.48 2025.5,-630.31 2025.5,-634.15 2025.5,-634.15 2025.5,-641.81 2025.5,-641.81 2025.5,-645.65 2021.67,-649.48 2017.83,-649.48"/>
<text text-anchor="middle" x="1966" y="-634.28" font-family="Arial" font-size="14.00" fill="#cfffac">common/date.ts</text>
</g>
<!-- common/widget.ts -->
<g id="node10" class="node">
<title>common/widget.ts</title>
<path fill="none" stroke="#cfffac" d="M1583.33,-448.48C1583.33,-448.48 1466.67,-448.48 1466.67,-448.48 1462.83,-448.48 1459,-444.65 1459,-440.81 1459,-440.81 1459,-433.15 1459,-433.15 1459,-429.31 1462.83,-425.48 1466.67,-425.48 1466.67,-425.48 1583.33,-425.48 1583.33,-425.48 1587.17,-425.48 1591,-429.31 1591,-433.15 1591,-433.15 1591,-440.81 1591,-440.81 1591,-444.65 1587.17,-448.48 1583.33,-448.48"/>
<text text-anchor="middle" x="1525" y="-433.28" font-family="Arial" font-size="14.00" fill="#cfffac">common/widget.ts</text>
</g>
<!-- component/Dashboard/CommonStyle.ts -->
<g id="node11" class="node">
<title>component/Dashboard/CommonStyle.ts</title>
<path fill="none" stroke="#cfffac" d="M1652.33,-772.48C1652.33,-772.48 1397.67,-772.48 1397.67,-772.48 1393.83,-772.48 1390,-768.65 1390,-764.81 1390,-764.81 1390,-757.15 1390,-757.15 1390,-753.31 1393.83,-749.48 1397.67,-749.48 1397.67,-749.48 1652.33,-749.48 1652.33,-749.48 1656.17,-749.48 1660,-753.31 1660,-757.15 1660,-757.15 1660,-764.81 1660,-764.81 1660,-768.65 1656.17,-772.48 1652.33,-772.48"/>
<text text-anchor="middle" x="1525" y="-757.28" font-family="Arial" font-size="14.00" fill="#cfffac">component/Dashboard/CommonStyle.ts</text>
</g>
<!-- component/Dashboard/DashboardHeader.tsx -->
<g id="node12" class="node">
<title>component/Dashboard/DashboardHeader.tsx</title>
<path fill="none" stroke="#c6c5fe" d="M734.33,-731.48C734.33,-731.48 446.67,-731.48 446.67,-731.48 442.83,-731.48 439,-727.65 439,-723.81 439,-723.81 439,-716.15 439,-716.15 439,-712.31 442.83,-708.48 446.67,-708.48 446.67,-708.48 734.33,-708.48 734.33,-708.48 738.17,-708.48 742,-712.31 742,-716.15 742,-716.15 742,-723.81 742,-723.81 742,-727.65 738.17,-731.48 734.33,-731.48"/>
<text text-anchor="middle" x="590.5" y="-716.28" font-family="Arial" font-size="14.00" fill="#c6c5fe">component/Dashboard/DashboardHeader.tsx</text>
</g>
<!-- component/Dashboard/DashboardHeader.tsx&#45;&gt;asset/image/pause.png -->
<g id="edge4" class="edge">
<title>component/Dashboard/DashboardHeader.tsx&#45;&gt;asset/image/pause.png</title>
<path fill="none" stroke="#757575" d="M699.94,-731.97C725.53,-734.7 752.72,-737.52 778,-739.98 826.44,-744.7 880.44,-749.48 924.88,-753.28"/>
<polygon fill="#757575" stroke="#757575" points="924.49,-756.76 934.75,-754.12 925.09,-749.78 924.49,-756.76"/>
</g>
<!-- component/Dashboard/DashboardHeader.tsx&#45;&gt;asset/image/play.png -->
<g id="edge5" class="edge">
<title>component/Dashboard/DashboardHeader.tsx&#45;&gt;asset/image/play.png</title>
<path fill="none" stroke="#757575" d="M742.29,-719.98C805.64,-719.98 877.04,-719.98 931.23,-719.98"/>
<polygon fill="#757575" stroke="#757575" points="931.01,-723.48 941.01,-719.98 931.01,-716.48 931.01,-723.48"/>
</g>
<!-- component/Dashboard/DashboardHeader/CurrentTime.tsx -->
<g id="node13" class="node">
<title>component/Dashboard/DashboardHeader/CurrentTime.tsx</title>
<path fill="none" stroke="#cfffac" d="M1203.83,-690.48C1203.83,-690.48 833.17,-690.48 833.17,-690.48 829.33,-690.48 825.5,-686.65 825.5,-682.81 825.5,-682.81 825.5,-675.15 825.5,-675.15 825.5,-671.31 829.33,-667.48 833.17,-667.48 833.17,-667.48 1203.83,-667.48 1203.83,-667.48 1207.67,-667.48 1211.5,-671.31 1211.5,-675.15 1211.5,-675.15 1211.5,-682.81 1211.5,-682.81 1211.5,-686.65 1207.67,-690.48 1203.83,-690.48"/>
<text text-anchor="middle" x="1018.5" y="-675.28" font-family="Arial" font-size="14.00" fill="#cfffac">component/Dashboard/DashboardHeader/CurrentTime.tsx</text>
</g>
<!-- component/Dashboard/DashboardHeader.tsx&#45;&gt;component/Dashboard/DashboardHeader/CurrentTime.tsx -->
<g id="edge6" class="edge">
<title>component/Dashboard/DashboardHeader.tsx&#45;&gt;component/Dashboard/DashboardHeader/CurrentTime.tsx</title>
<path fill="none" stroke="#757575" d="M693.08,-708.01C720.62,-704.91 750.44,-701.68 778,-698.98 802.78,-696.55 829.02,-694.17 854.69,-691.94"/>
<polygon fill="#757575" stroke="#757575" points="854.87,-695.44 864.54,-691.09 854.27,-688.46 854.87,-695.44"/>
</g>
<!-- component/Dashboard/DashboardHeader/DatePickerArea.tsx -->
<g id="node14" class="node">
<title>component/Dashboard/DashboardHeader/DatePickerArea.tsx</title>
<path fill="none" stroke="#c6c5fe" d="M1214.33,-854.48C1214.33,-854.48 822.67,-854.48 822.67,-854.48 818.83,-854.48 815,-850.65 815,-846.81 815,-846.81 815,-839.15 815,-839.15 815,-835.31 818.83,-831.48 822.67,-831.48 822.67,-831.48 1214.33,-831.48 1214.33,-831.48 1218.17,-831.48 1222,-835.31 1222,-839.15 1222,-839.15 1222,-846.81 1222,-846.81 1222,-850.65 1218.17,-854.48 1214.33,-854.48"/>
<text text-anchor="middle" x="1018.5" y="-839.28" font-family="Arial" font-size="14.00" fill="#c6c5fe">component/Dashboard/DashboardHeader/DatePickerArea.tsx</text>
</g>
<!-- component/Dashboard/DashboardHeader.tsx&#45;&gt;component/Dashboard/DashboardHeader/DatePickerArea.tsx -->
<g id="edge7" class="edge">
<title>component/Dashboard/DashboardHeader.tsx&#45;&gt;component/Dashboard/DashboardHeader/DatePickerArea.tsx</title>
<path fill="none" stroke="#757575" d="M607.44,-731.72C638.45,-753.85 709.83,-801.34 778,-821.98 786.36,-824.51 794.95,-826.77 803.68,-828.78"/>
<polygon fill="#757575" stroke="#757575" points="802.81,-832.17 813.32,-830.87 804.29,-825.33 802.81,-832.17"/>
</g>
<!-- component/Dashboard/DashboardHeader/SelectRealTimeRangeArea.tsx -->
<g id="node15" class="node">
<title>component/Dashboard/DashboardHeader/SelectRealTimeRangeArea.tsx</title>
<path fill="none" stroke="#c6c5fe" d="M1251.33,-813.48C1251.33,-813.48 785.67,-813.48 785.67,-813.48 781.83,-813.48 778,-809.65 778,-805.81 778,-805.81 778,-798.15 778,-798.15 778,-794.31 781.83,-790.48 785.67,-790.48 785.67,-790.48 1251.33,-790.48 1251.33,-790.48 1255.17,-790.48 1259,-794.31 1259,-798.15 1259,-798.15 1259,-805.81 1259,-805.81 1259,-809.65 1255.17,-813.48 1251.33,-813.48"/>
<text text-anchor="middle" x="1018.5" y="-798.28" font-family="Arial" font-size="14.00" fill="#c6c5fe">component/Dashboard/DashboardHeader/SelectRealTimeRangeArea.tsx</text>
</g>
<!-- component/Dashboard/DashboardHeader.tsx&#45;&gt;component/Dashboard/DashboardHeader/SelectRealTimeRangeArea.tsx -->
<g id="edge8" class="edge">
<title>component/Dashboard/DashboardHeader.tsx&#45;&gt;component/Dashboard/DashboardHeader/SelectRealTimeRangeArea.tsx</title>
<path fill="none" stroke="#757575" d="M620.97,-731.95C657.26,-746.15 721.1,-769.34 778,-780.98 791.93,-783.83 806.39,-786.29 821,-788.42"/>
<polygon fill="#757575" stroke="#757575" points="820.31,-791.86 830.7,-789.78 821.28,-784.93 820.31,-791.86"/>
</g>
<!-- store/DashboardProvider.tsx -->
<g id="node16" class="node">
<title>store/DashboardProvider.tsx</title>
<path fill="none" stroke="#c6c5fe" d="M1615.83,-649.48C1615.83,-649.48 1434.17,-649.48 1434.17,-649.48 1430.33,-649.48 1426.5,-645.65 1426.5,-641.81 1426.5,-641.81 1426.5,-634.15 1426.5,-634.15 1426.5,-630.31 1430.33,-626.48 1434.17,-626.48 1434.17,-626.48 1615.83,-626.48 1615.83,-626.48 1619.67,-626.48 1623.5,-630.31 1623.5,-634.15 1623.5,-634.15 1623.5,-641.81 1623.5,-641.81 1623.5,-645.65 1619.67,-649.48 1615.83,-649.48"/>
<text text-anchor="middle" x="1525" y="-634.28" font-family="Arial" font-size="14.00" fill="#c6c5fe">store/DashboardProvider.tsx</text>
</g>
<!-- component/Dashboard/DashboardHeader.tsx&#45;&gt;store/DashboardProvider.tsx -->
<g id="edge9" class="edge">
<title>component/Dashboard/DashboardHeader.tsx&#45;&gt;store/DashboardProvider.tsx</title>
<path fill="none" stroke="#757575" d="M618.96,-708C654.76,-693.06 719.69,-668.22 778,-657.98 1001.7,-618.69 1268.86,-623.83 1415.05,-630.98"/>
<polygon fill="#757575" stroke="#757575" points="1414.55,-634.46 1424.71,-631.46 1414.9,-627.47 1414.55,-634.46"/>
</g>
<!-- component/Dashboard/DashboardHeader/DatePickerArea.tsx&#45;&gt;common/date.ts -->
<g id="edge10" class="edge">
<title>component/Dashboard/DashboardHeader/DatePickerArea.tsx&#45;&gt;common/date.ts</title>
<path fill="none" stroke="#757575" d="M1110.67,-854.94C1281.32,-875.79 1641.95,-912.11 1755,-862.98 1852.75,-820.5 1925.66,-707.63 1953.1,-659.84"/>
<polygon fill="#757575" stroke="#757575" points="1956.08,-661.67 1957.93,-651.24 1949.98,-658.24 1956.08,-661.67"/>
</g>
<!-- component/Dashboard/DashboardHeader/DatePickerArea.tsx&#45;&gt;component/Dashboard/CommonStyle.ts -->
<g id="edge11" class="edge">
<title>component/Dashboard/DashboardHeader/DatePickerArea.tsx&#45;&gt;component/Dashboard/CommonStyle.ts</title>
<path fill="none" stroke="#757575" d="M1222.26,-836.47C1235,-832.64 1247.36,-827.87 1259,-821.98 1280.63,-811.02 1273.37,-791.93 1295,-780.98 1320.46,-768.09 1349.56,-760.84 1378.29,-757.09"/>
<polygon fill="#757575" stroke="#757575" points="1378.66,-760.57 1388.2,-755.94 1377.86,-753.61 1378.66,-760.57"/>
</g>
<!-- component/Dashboard/DashboardHeader/DatePickerArea.tsx&#45;&gt;store/DashboardProvider.tsx -->
<g id="edge16" class="edge">
<title>component/Dashboard/DashboardHeader/DatePickerArea.tsx&#45;&gt;store/DashboardProvider.tsx</title>
<path fill="none" stroke="#757575" d="M1074.37,-854.98C1128.08,-863.26 1208.92,-866 1259,-821.98 1315.05,-772.71 1238.94,-707.24 1295,-657.98 1338.62,-619.65 1406.63,-618.43 1457.21,-624.52"/>
<polygon fill="#757575" stroke="#757575" points="1456.5,-627.95 1466.87,-625.81 1457.42,-621.02 1456.5,-627.95"/>
</g>
<!-- component/Dashboard/DashboardHeader/DateBox.tsx -->
<g id="node17" class="node">
<title>component/Dashboard/DashboardHeader/DateBox.tsx</title>
<path fill="none" stroke="#cfffac" d="M1698.33,-934.48C1698.33,-934.48 1351.67,-934.48 1351.67,-934.48 1347.83,-934.48 1344,-930.65 1344,-926.81 1344,-926.81 1344,-919.15 1344,-919.15 1344,-915.31 1347.83,-911.48 1351.67,-911.48 1351.67,-911.48 1698.33,-911.48 1698.33,-911.48 1702.17,-911.48 1706,-915.31 1706,-919.15 1706,-919.15 1706,-926.81 1706,-926.81 1706,-930.65 1702.17,-934.48 1698.33,-934.48"/>
<text text-anchor="middle" x="1525" y="-919.28" font-family="Arial" font-size="14.00" fill="#cfffac">component/Dashboard/DashboardHeader/DateBox.tsx</text>
</g>
<!-- component/Dashboard/DashboardHeader/DatePickerArea.tsx&#45;&gt;component/Dashboard/DashboardHeader/DateBox.tsx -->
<g id="edge12" class="edge">
<title>component/Dashboard/DashboardHeader/DatePickerArea.tsx&#45;&gt;component/Dashboard/DashboardHeader/DateBox.tsx</title>
<path fill="none" stroke="#757575" d="M1073.64,-854.93C1129.03,-866.84 1217.69,-885.03 1295,-896.98 1326.04,-901.78 1359.57,-906.08 1391.16,-909.73"/>
<polygon fill="#757575" stroke="#757575" points="1390.4,-913.17 1400.73,-910.83 1391.2,-906.21 1390.4,-913.17"/>
</g>
<!-- component/common/DatePicker.tsx -->
<g id="node18" class="node">
<title>component/common/DatePicker.tsx</title>
<path fill="none" stroke="#c6c5fe" d="M1638.33,-975.48C1638.33,-975.48 1411.67,-975.48 1411.67,-975.48 1407.83,-975.48 1404,-971.65 1404,-967.81 1404,-967.81 1404,-960.15 1404,-960.15 1404,-956.31 1407.83,-952.48 1411.67,-952.48 1411.67,-952.48 1638.33,-952.48 1638.33,-952.48 1642.17,-952.48 1646,-956.31 1646,-960.15 1646,-960.15 1646,-967.81 1646,-967.81 1646,-971.65 1642.17,-975.48 1638.33,-975.48"/>
<text text-anchor="middle" x="1525" y="-960.28" font-family="Arial" font-size="14.00" fill="#c6c5fe">component/common/DatePicker.tsx</text>
</g>
<!-- component/Dashboard/DashboardHeader/DatePickerArea.tsx&#45;&gt;component/common/DatePicker.tsx -->
<g id="edge13" class="edge">
<title>component/Dashboard/DashboardHeader/DatePickerArea.tsx&#45;&gt;component/common/DatePicker.tsx</title>
<path fill="none" stroke="#757575" d="M1045.42,-854.95C1093.48,-876.55 1200.15,-921.79 1295,-942.98 1326.19,-949.95 1360.27,-954.61 1392.38,-957.73"/>
<polygon fill="#757575" stroke="#757575" points="1391.87,-961.2 1402.14,-958.63 1392.51,-954.23 1391.87,-961.2"/>
</g>
<!-- hook/useBoolean.tsx -->
<g id="node19" class="node">
<title>hook/useBoolean.tsx</title>
<path fill="none" stroke="#cfffac" d="M1591.83,-854.48C1591.83,-854.48 1458.17,-854.48 1458.17,-854.48 1454.33,-854.48 1450.5,-850.65 1450.5,-846.81 1450.5,-846.81 1450.5,-839.15 1450.5,-839.15 1450.5,-835.31 1454.33,-831.48 1458.17,-831.48 1458.17,-831.48 1591.83,-831.48 1591.83,-831.48 1595.67,-831.48 1599.5,-835.31 1599.5,-839.15 1599.5,-839.15 1599.5,-846.81 1599.5,-846.81 1599.5,-850.65 1595.67,-854.48 1591.83,-854.48"/>
<text text-anchor="middle" x="1525" y="-839.28" font-family="Arial" font-size="14.00" fill="#cfffac">hook/useBoolean.tsx</text>
</g>
<!-- component/Dashboard/DashboardHeader/DatePickerArea.tsx&#45;&gt;hook/useBoolean.tsx -->
<g id="edge14" class="edge">
<title>component/Dashboard/DashboardHeader/DatePickerArea.tsx&#45;&gt;hook/useBoolean.tsx</title>
<path fill="none" stroke="#757575" d="M1222.16,-842.98C1297.83,-842.98 1379.69,-842.98 1439.05,-842.98"/>
<polygon fill="#757575" stroke="#757575" points="1438.73,-846.48 1448.73,-842.98 1438.73,-839.48 1438.73,-846.48"/>
</g>
<!-- hook/useOutsideClick.tsx -->
<g id="node20" class="node">
<title>hook/useOutsideClick.tsx</title>
<path fill="none" stroke="#cfffac" d="M1605.33,-813.48C1605.33,-813.48 1444.67,-813.48 1444.67,-813.48 1440.83,-813.48 1437,-809.65 1437,-805.81 1437,-805.81 1437,-798.15 1437,-798.15 1437,-794.31 1440.83,-790.48 1444.67,-790.48 1444.67,-790.48 1605.33,-790.48 1605.33,-790.48 1609.17,-790.48 1613,-794.31 1613,-798.15 1613,-798.15 1613,-805.81 1613,-805.81 1613,-809.65 1609.17,-813.48 1605.33,-813.48"/>
<text text-anchor="middle" x="1525" y="-798.28" font-family="Arial" font-size="14.00" fill="#cfffac">hook/useOutsideClick.tsx</text>
</g>
<!-- component/Dashboard/DashboardHeader/DatePickerArea.tsx&#45;&gt;hook/useOutsideClick.tsx -->
<g id="edge15" class="edge">
<title>component/Dashboard/DashboardHeader/DatePickerArea.tsx&#45;&gt;hook/useOutsideClick.tsx</title>
<path fill="none" stroke="#757575" d="M1167.12,-830.98C1250.37,-824.22 1352.11,-815.95 1425.63,-809.97"/>
<polygon fill="#757575" stroke="#757575" points="1425.53,-813.49 1435.21,-809.2 1424.96,-806.52 1425.53,-813.49"/>
</g>
<!-- types/widget.d.ts -->
<g id="node21" class="node">
<title>types/widget.d.ts</title>
<path fill="none" stroke="#cfffac" d="M1578.83,-507.48C1578.83,-507.48 1471.17,-507.48 1471.17,-507.48 1467.33,-507.48 1463.5,-503.65 1463.5,-499.81 1463.5,-499.81 1463.5,-492.15 1463.5,-492.15 1463.5,-488.31 1467.33,-484.48 1471.17,-484.48 1471.17,-484.48 1578.83,-484.48 1578.83,-484.48 1582.67,-484.48 1586.5,-488.31 1586.5,-492.15 1586.5,-492.15 1586.5,-499.81 1586.5,-499.81 1586.5,-503.65 1582.67,-507.48 1578.83,-507.48"/>
<text text-anchor="middle" x="1525" y="-492.28" font-family="Arial" font-size="14.00" fill="#cfffac">types/widget.d.ts</text>
</g>
<!-- component/Dashboard/DashboardHeader/DatePickerArea.tsx&#45;&gt;types/widget.d.ts -->
<g id="edge17" class="edge">
<title>component/Dashboard/DashboardHeader/DatePickerArea.tsx&#45;&gt;types/widget.d.ts</title>
<path fill="none" stroke="#757575" d="M1072,-854.97C1125.99,-863.93 1209.01,-867.83 1259,-821.98 1327.17,-759.45 1240.56,-691.77 1295,-616.98 1336.01,-560.64 1411.29,-528.17 1464.32,-511.32"/>
<polygon fill="#757575" stroke="#757575" points="1465.3,-514.68 1473.83,-508.4 1463.25,-507.99 1465.3,-514.68"/>
</g>
<!-- component/Dashboard/DashboardHeader/SelectRealTimeRangeArea.tsx&#45;&gt;component/Dashboard/CommonStyle.ts -->
<g id="edge18" class="edge">
<title>component/Dashboard/DashboardHeader/SelectRealTimeRangeArea.tsx&#45;&gt;component/Dashboard/CommonStyle.ts</title>
<path fill="none" stroke="#757575" d="M1167.12,-789.98C1233.64,-784.58 1311.97,-778.21 1378.26,-772.82"/>
<polygon fill="#757575" stroke="#757575" points="1378.45,-776.32 1388.14,-772.02 1377.89,-769.34 1378.45,-776.32"/>
</g>
<!-- component/Dashboard/DashboardHeader/SelectRealTimeRangeArea.tsx&#45;&gt;store/DashboardProvider.tsx -->
<g id="edge23" class="edge">
<title>component/Dashboard/DashboardHeader/SelectRealTimeRangeArea.tsx&#45;&gt;store/DashboardProvider.tsx</title>
<path fill="none" stroke="#757575" d="M1079.08,-813.98C1132.22,-821.05 1209.13,-821.87 1259,-780.98 1303.05,-744.87 1250.95,-694.09 1295,-657.98 1338.17,-622.6 1402.52,-619.91 1452.02,-624.75"/>
<polygon fill="#757575" stroke="#757575" points="1451.47,-628.21 1461.8,-625.84 1452.24,-621.25 1451.47,-628.21"/>
</g>
<!-- component/Dashboard/DashboardHeader/SelectRealTimeRangeArea.tsx&#45;&gt;hook/useBoolean.tsx -->
<g id="edge21" class="edge">
<title>component/Dashboard/DashboardHeader/SelectRealTimeRangeArea.tsx&#45;&gt;hook/useBoolean.tsx</title>
<path fill="none" stroke="#757575" d="M1167.12,-813.98C1255.63,-821.17 1365.03,-830.06 1439.2,-836.09"/>
<polygon fill="#757575" stroke="#757575" points="1438.58,-839.55 1448.83,-836.87 1439.15,-832.57 1438.58,-839.55"/>
</g>
<!-- component/Dashboard/DashboardHeader/SelectRealTimeRangeArea.tsx&#45;&gt;hook/useOutsideClick.tsx -->
<g id="edge22" class="edge">
<title>component/Dashboard/DashboardHeader/SelectRealTimeRangeArea.tsx&#45;&gt;hook/useOutsideClick.tsx</title>
<path fill="none" stroke="#757575" d="M1259.19,-801.98C1317.92,-801.98 1377.55,-801.98 1425.32,-801.98"/>
<polygon fill="#757575" stroke="#757575" points="1425.06,-805.48 1435.06,-801.98 1425.06,-798.48 1425.06,-805.48"/>
</g>
<!-- component/Dashboard/DashboardHeader/RealTime.tsx -->
<g id="node22" class="node">
<title>component/Dashboard/DashboardHeader/RealTime.tsx</title>
<path fill="none" stroke="#cfffac" d="M1701.33,-690.48C1701.33,-690.48 1348.67,-690.48 1348.67,-690.48 1344.83,-690.48 1341,-686.65 1341,-682.81 1341,-682.81 1341,-675.15 1341,-675.15 1341,-671.31 1344.83,-667.48 1348.67,-667.48 1348.67,-667.48 1701.33,-667.48 1701.33,-667.48 1705.17,-667.48 1709,-671.31 1709,-675.15 1709,-675.15 1709,-682.81 1709,-682.81 1709,-686.65 1705.17,-690.48 1701.33,-690.48"/>
<text text-anchor="middle" x="1525" y="-675.28" font-family="Arial" font-size="14.00" fill="#cfffac">component/Dashboard/DashboardHeader/RealTime.tsx</text>
</g>
<!-- component/Dashboard/DashboardHeader/SelectRealTimeRangeArea.tsx&#45;&gt;component/Dashboard/DashboardHeader/RealTime.tsx -->
<g id="edge19" class="edge">
<title>component/Dashboard/DashboardHeader/SelectRealTimeRangeArea.tsx&#45;&gt;component/Dashboard/DashboardHeader/RealTime.tsx</title>
<path fill="none" stroke="#757575" d="M1093.76,-813.98C1144.82,-818.11 1211.69,-814.92 1259,-780.98 1291.34,-757.78 1262.65,-722.17 1295,-698.98 1334.84,-670.41 1389.17,-664.66 1434.92,-666.4"/>
<polygon fill="#757575" stroke="#757575" points="1434.67,-669.89 1444.84,-666.91 1435.03,-662.9 1434.67,-669.89"/>
</g>
<!-- component/Dashboard/DashboardHeader/SelectRealTimeListItem.tsx -->
<g id="node23" class="node">
<title>component/Dashboard/DashboardHeader/SelectRealTimeListItem.tsx</title>
<path fill="none" stroke="#cfffac" d="M1747.33,-731.48C1747.33,-731.48 1302.67,-731.48 1302.67,-731.48 1298.83,-731.48 1295,-727.65 1295,-723.81 1295,-723.81 1295,-716.15 1295,-716.15 1295,-712.31 1298.83,-708.48 1302.67,-708.48 1302.67,-708.48 1747.33,-708.48 1747.33,-708.48 1751.17,-708.48 1755,-712.31 1755,-716.15 1755,-716.15 1755,-723.81 1755,-723.81 1755,-727.65 1751.17,-731.48 1747.33,-731.48"/>
<text text-anchor="middle" x="1525" y="-716.28" font-family="Arial" font-size="14.00" fill="#cfffac">component/Dashboard/DashboardHeader/SelectRealTimeListItem.tsx</text>
</g>
<!-- component/Dashboard/DashboardHeader/SelectRealTimeRangeArea.tsx&#45;&gt;component/Dashboard/DashboardHeader/SelectRealTimeListItem.tsx -->
<g id="edge20" class="edge">
<title>component/Dashboard/DashboardHeader/SelectRealTimeRangeArea.tsx&#45;&gt;component/Dashboard/DashboardHeader/SelectRealTimeListItem.tsx</title>
<path fill="none" stroke="#757575" d="M1238.24,-790.08C1245.35,-787.4 1252.3,-784.38 1259,-780.98 1280.63,-770.02 1273.37,-750.93 1295,-739.98 1297.48,-738.73 1299.99,-737.52 1302.54,-736.37"/>
<polygon fill="#757575" stroke="#757575" points="1303.89,-739.6 1311.76,-732.52 1301.18,-733.15 1303.89,-739.6"/>
</g>
<!-- store/DashboardProvider.tsx&#45;&gt;common/date.ts -->
<g id="edge61" class="edge">
<title>store/DashboardProvider.tsx&#45;&gt;common/date.ts</title>
<path fill="none" stroke="#757575" d="M1623.97,-637.98C1706.13,-637.98 1821.45,-637.98 1894.69,-637.98"/>
<polygon fill="#757575" stroke="#757575" points="1894.56,-641.48 1904.56,-637.98 1894.56,-634.48 1894.56,-641.48"/>
</g>
<!-- component/common/DatePicker/ListPicker.tsx -->
<g id="node33" class="node">
<title>component/common/DatePicker/ListPicker.tsx</title>
<path fill="none" stroke="#c6c5fe" d="M2112.33,-955.48C2112.33,-955.48 1819.67,-955.48 1819.67,-955.48 1815.83,-955.48 1812,-951.65 1812,-947.81 1812,-947.81 1812,-940.15 1812,-940.15 1812,-936.31 1815.83,-932.48 1819.67,-932.48 1819.67,-932.48 2112.33,-932.48 2112.33,-932.48 2116.17,-932.48 2120,-936.31 2120,-940.15 2120,-940.15 2120,-947.81 2120,-947.81 2120,-951.65 2116.17,-955.48 2112.33,-955.48"/>
<text text-anchor="middle" x="1966" y="-940.28" font-family="Arial" font-size="14.00" fill="#c6c5fe">component/common/DatePicker/ListPicker.tsx</text>
</g>
<!-- component/common/DatePicker.tsx&#45;&gt;component/common/DatePicker/ListPicker.tsx -->
<g id="edge52" class="edge">
<title>component/common/DatePicker.tsx&#45;&gt;component/common/DatePicker/ListPicker.tsx</title>
<path fill="none" stroke="#757575" d="M1646.25,-958.5C1693.78,-956.34 1749.19,-953.81 1800.34,-951.48"/>
<polygon fill="#757575" stroke="#757575" points="1800.19,-954.99 1810.02,-951.04 1799.87,-948 1800.19,-954.99"/>
</g>
<!-- types/datePicker.d.ts -->
<g id="node34" class="node">
<title>types/datePicker.d.ts</title>
<path fill="none" stroke="#cfffac" d="M2318.33,-975.48C2318.33,-975.48 2184.67,-975.48 2184.67,-975.48 2180.83,-975.48 2177,-971.65 2177,-967.81 2177,-967.81 2177,-960.15 2177,-960.15 2177,-956.31 2180.83,-952.48 2184.67,-952.48 2184.67,-952.48 2318.33,-952.48 2318.33,-952.48 2322.17,-952.48 2326,-956.31 2326,-960.15 2326,-960.15 2326,-967.81 2326,-967.81 2326,-971.65 2322.17,-975.48 2318.33,-975.48"/>
<text text-anchor="middle" x="2251.5" y="-960.28" font-family="Arial" font-size="14.00" fill="#cfffac">types/datePicker.d.ts</text>
</g>
<!-- component/common/DatePicker.tsx&#45;&gt;types/datePicker.d.ts -->
<g id="edge53" class="edge">
<title>component/common/DatePicker.tsx&#45;&gt;types/datePicker.d.ts</title>
<path fill="none" stroke="#757575" d="M1646.49,-964.62C1770.48,-965.17 1969.23,-965.76 2141,-964.98 2148.82,-964.94 2156.95,-964.89 2165.09,-964.84"/>
<polygon fill="#757575" stroke="#757575" points="2165.09,-968.34 2175.07,-964.76 2165.04,-961.34 2165.09,-968.34"/>
</g>
<!-- component/Widget.tsx -->
<g id="node24" class="node">
<title>component/Widget.tsx</title>
<path fill="none" stroke="#c6c5fe" d="M662.33,-340.48C662.33,-340.48 518.67,-340.48 518.67,-340.48 514.83,-340.48 511,-336.65 511,-332.81 511,-332.81 511,-325.15 511,-325.15 511,-321.31 514.83,-317.48 518.67,-317.48 518.67,-317.48 662.33,-317.48 662.33,-317.48 666.17,-317.48 670,-321.31 670,-325.15 670,-325.15 670,-332.81 670,-332.81 670,-336.65 666.17,-340.48 662.33,-340.48"/>
<text text-anchor="middle" x="590.5" y="-325.28" font-family="Arial" font-size="14.00" fill="#c6c5fe">component/Widget.tsx</text>
</g>
<!-- component/Widget.tsx&#45;&gt;api.ts -->
<g id="edge24" class="edge">
<title>component/Widget.tsx&#45;&gt;api.ts</title>
<path fill="none" stroke="#757575" d="M670.13,-328.98C762.17,-328.98 910.79,-328.98 979.91,-328.98"/>
<polygon fill="#757575" stroke="#757575" points="979.57,-332.48 989.57,-328.98 979.57,-325.48 979.57,-332.48"/>
</g>
<!-- component/Widget.tsx&#45;&gt;types/api.d.ts -->
<g id="edge34" class="edge">
<title>component/Widget.tsx&#45;&gt;types/api.d.ts</title>
<path fill="none" stroke="#757575" d="M670.28,-318.13C703.47,-314.07 742.54,-309.97 778,-307.98 1031.93,-293.73 1335.24,-301.93 1462.76,-306.52"/>
<polygon fill="#757575" stroke="#757575" points="1462.55,-310.02 1472.67,-306.89 1462.81,-303.02 1462.55,-310.02"/>
</g>
<!-- component/Widget.tsx&#45;&gt;common/date.ts -->
<g id="edge25" class="edge">
<title>component/Widget.tsx&#45;&gt;common/date.ts</title>
<path fill="none" stroke="#757575" d="M670.38,-338.12C703.58,-341.79 742.64,-345.87 778,-348.98 994.79,-368.03 1558.18,-323.13 1755,-415.98 1850.48,-461.03 1924.41,-570.19 1952.6,-616.56"/>
<polygon fill="#757575" stroke="#757575" points="1949.45,-618.1 1957.57,-624.9 1955.46,-614.52 1949.45,-618.1"/>
</g>
<!-- component/Widget.tsx&#45;&gt;common/widget.ts -->
<g id="edge26" class="edge">
<title>component/Widget.tsx&#45;&gt;common/widget.ts</title>
<path fill="none" stroke="#757575" d="M624.69,-340.89C661.6,-353.58 723.25,-373.18 778,-382.98 904.86,-405.68 1283.46,-425.64 1447.17,-433.47"/>
<polygon fill="#757575" stroke="#757575" points="1446.91,-436.96 1457.07,-433.94 1447.24,-429.96 1446.91,-436.96"/>
</g>
<!-- component/Widget.tsx&#45;&gt;store/DashboardProvider.tsx -->
<g id="edge32" class="edge">
<title>component/Widget.tsx&#45;&gt;store/DashboardProvider.tsx</title>
<path fill="none" stroke="#757575" d="M600.45,-340.85C624.95,-372.42 696.74,-458.71 778,-498.98 972.73,-595.47 1045.4,-546.89 1259,-586.98 1324.24,-599.22 1398.43,-613.54 1451.68,-623.88"/>
<polygon fill="#757575" stroke="#757575" points="1450.75,-627.26 1461.23,-625.73 1452.08,-620.39 1450.75,-627.26"/>
</g>
<!-- component/Widget.tsx&#45;&gt;types/widget.d.ts -->
<g id="edge35" class="edge">
<title>component/Widget.tsx&#45;&gt;types/widget.d.ts</title>
<path fill="none" stroke="#757575" d="M602.25,-340.79C628.79,-368.98 700.86,-439.87 778,-466.98 900.7,-510.1 1289.47,-503.44 1451.75,-498.54"/>
<polygon fill="#757575" stroke="#757575" points="1451.63,-502.05 1461.52,-498.24 1451.42,-495.05 1451.63,-502.05"/>
</g>
<!-- component/Widget/WidgetChart.tsx -->
<g id="node25" class="node">
<title>component/Widget/WidgetChart.tsx</title>
<path fill="none" stroke="#c6c5fe" d="M1131.83,-184.48C1131.83,-184.48 905.17,-184.48 905.17,-184.48 901.33,-184.48 897.5,-180.65 897.5,-176.81 897.5,-176.81 897.5,-169.15 897.5,-169.15 897.5,-165.31 901.33,-161.48 905.17,-161.48 905.17,-161.48 1131.83,-161.48 1131.83,-161.48 1135.67,-161.48 1139.5,-165.31 1139.5,-169.15 1139.5,-169.15 1139.5,-176.81 1139.5,-176.81 1139.5,-180.65 1135.67,-184.48 1131.83,-184.48"/>
<text text-anchor="middle" x="1018.5" y="-169.28" font-family="Arial" font-size="14.00" fill="#c6c5fe">component/Widget/WidgetChart.tsx</text>
</g>
<!-- component/Widget.tsx&#45;&gt;component/Widget/WidgetChart.tsx -->
<g id="edge27" class="edge">
<title>component/Widget.tsx&#45;&gt;component/Widget/WidgetChart.tsx</title>
<path fill="none" stroke="#757575" d="M603.76,-317.01C631.83,-290.44 704.08,-226.67 778,-198.98 811.9,-186.28 850.25,-179.2 886.17,-175.38"/>
<polygon fill="#757575" stroke="#757575" points="886.11,-178.91 895.72,-174.45 885.43,-171.94 886.11,-178.91"/>
</g>
<!-- component/Widget/WidgetModal.tsx -->
<g id="node26" class="node">
<title>component/Widget/WidgetModal.tsx</title>
<path fill="none" stroke="#c6c5fe" d="M1134.33,-458.48C1134.33,-458.48 902.67,-458.48 902.67,-458.48 898.83,-458.48 895,-454.65 895,-450.81 895,-450.81 895,-443.15 895,-443.15 895,-439.31 898.83,-435.48 902.67,-435.48 902.67,-435.48 1134.33,-435.48 1134.33,-435.48 1138.17,-435.48 1142,-439.31 1142,-443.15 1142,-443.15 1142,-450.81 1142,-450.81 1142,-454.65 1138.17,-458.48 1134.33,-458.48"/>
<text text-anchor="middle" x="1018.5" y="-443.28" font-family="Arial" font-size="14.00" fill="#c6c5fe">component/Widget/WidgetModal.tsx</text>
</g>
<!-- component/Widget.tsx&#45;&gt;component/Widget/WidgetModal.tsx -->
<g id="edge28" class="edge">
<title>component/Widget.tsx&#45;&gt;component/Widget/WidgetModal.tsx</title>
<path fill="none" stroke="#757575" d="M609.93,-340.83C642.42,-361.07 712.66,-401.96 778,-420.98 811.52,-430.74 848.64,-436.89 883.45,-440.76"/>
<polygon fill="#757575" stroke="#757575" points="882.85,-444.22 893.16,-441.78 883.58,-437.26 882.85,-444.22"/>
</g>
<!-- component/chart/BarChart.tsx -->
<g id="node27" class="node">
<title>component/chart/BarChart.tsx</title>
<path fill="none" stroke="#c6c5fe" d="M1618.83,-253.48C1618.83,-253.48 1431.17,-253.48 1431.17,-253.48 1427.33,-253.48 1423.5,-249.65 1423.5,-245.81 1423.5,-245.81 1423.5,-238.15 1423.5,-238.15 1423.5,-234.31 1427.33,-230.48 1431.17,-230.48 1431.17,-230.48 1618.83,-230.48 1618.83,-230.48 1622.67,-230.48 1626.5,-234.31 1626.5,-238.15 1626.5,-238.15 1626.5,-245.81 1626.5,-245.81 1626.5,-249.65 1622.67,-253.48 1618.83,-253.48"/>
<text text-anchor="middle" x="1525" y="-238.28" font-family="Arial" font-size="14.00" fill="#c6c5fe">component/chart/BarChart.tsx</text>
</g>
<!-- component/Widget.tsx&#45;&gt;component/chart/BarChart.tsx -->
<g id="edge29" class="edge">
<title>component/Widget.tsx&#45;&gt;component/chart/BarChart.tsx</title>
<path fill="none" stroke="#757575" d="M650.06,-317.02C686.69,-309.94 734.93,-301.34 778,-295.98 1002.02,-268.13 1265.81,-253.2 1412.04,-246.49"/>
<polygon fill="#757575" stroke="#757575" points="1411.88,-250 1421.71,-246.05 1411.57,-243.01 1411.88,-250"/>
</g>
<!-- component/chart/InformaticsChart.tsx -->
<g id="node28" class="node">
<title>component/chart/InformaticsChart.tsx</title>
<path fill="none" stroke="#c6c5fe" d="M1643.33,-104.48C1643.33,-104.48 1406.67,-104.48 1406.67,-104.48 1402.83,-104.48 1399,-100.65 1399,-96.81 1399,-96.81 1399,-89.15 1399,-89.15 1399,-85.31 1402.83,-81.48 1406.67,-81.48 1406.67,-81.48 1643.33,-81.48 1643.33,-81.48 1647.17,-81.48 1651,-85.31 1651,-89.15 1651,-89.15 1651,-96.81 1651,-96.81 1651,-100.65 1647.17,-104.48 1643.33,-104.48"/>
<text text-anchor="middle" x="1525" y="-89.28" font-family="Arial" font-size="14.00" fill="#c6c5fe">component/chart/InformaticsChart.tsx</text>
</g>
<!-- component/Widget.tsx&#45;&gt;component/chart/InformaticsChart.tsx -->
<g id="edge30" class="edge">
<title>component/Widget.tsx&#45;&gt;component/chart/InformaticsChart.tsx</title>
<path fill="none" stroke="#757575" d="M597.42,-317.2C617.01,-279.76 683.8,-163.3 778,-118.98 882.31,-69.91 1201.9,-76.48 1387.19,-85.06"/>
<polygon fill="#757575" stroke="#757575" points="1386.99,-88.56 1397.14,-85.53 1387.32,-81.56 1386.99,-88.56"/>
</g>
<!-- component/chart/LineChart.tsx -->
<g id="node29" class="node">
<title>component/chart/LineChart.tsx</title>
<path fill="none" stroke="#c6c5fe" d="M1621.83,-202.48C1621.83,-202.48 1428.17,-202.48 1428.17,-202.48 1424.33,-202.48 1420.5,-198.65 1420.5,-194.81 1420.5,-194.81 1420.5,-187.15 1420.5,-187.15 1420.5,-183.31 1424.33,-179.48 1428.17,-179.48 1428.17,-179.48 1621.83,-179.48 1621.83,-179.48 1625.67,-179.48 1629.5,-183.31 1629.5,-187.15 1629.5,-187.15 1629.5,-194.81 1629.5,-194.81 1629.5,-198.65 1625.67,-202.48 1621.83,-202.48"/>
<text text-anchor="middle" x="1525" y="-187.28" font-family="Arial" font-size="14.00" fill="#c6c5fe">component/chart/LineChart.tsx</text>
</g>
<!-- component/Widget.tsx&#45;&gt;component/chart/LineChart.tsx -->
<g id="edge31" class="edge">
<title>component/Widget.tsx&#45;&gt;component/chart/LineChart.tsx</title>
<path fill="none" stroke="#757575" d="M613.4,-317.12C647.48,-299.3 715.76,-266.09 778,-250.98 894.43,-222.71 1230.25,-204.03 1408.95,-195.8"/>
<polygon fill="#757575" stroke="#757575" points="1408.89,-199.31 1418.72,-195.35 1408.57,-192.31 1408.89,-199.31"/>
</g>
<!-- store/WidgetProvider.tsx -->
<g id="node30" class="node">
<title>store/WidgetProvider.tsx</title>
<path fill="none" stroke="#cfffac" d="M2044.83,-144.48C2044.83,-144.48 1887.17,-144.48 1887.17,-144.48 1883.33,-144.48 1879.5,-140.65 1879.5,-136.81 1879.5,-136.81 1879.5,-129.15 1879.5,-129.15 1879.5,-125.31 1883.33,-121.48 1887.17,-121.48 1887.17,-121.48 2044.83,-121.48 2044.83,-121.48 2048.67,-121.48 2052.5,-125.31 2052.5,-129.15 2052.5,-129.15 2052.5,-136.81 2052.5,-136.81 2052.5,-140.65 2048.67,-144.48 2044.83,-144.48"/>
<text text-anchor="middle" x="1966" y="-129.28" font-family="Arial" font-size="14.00" fill="#cfffac">store/WidgetProvider.tsx</text>
</g>
<!-- component/Widget.tsx&#45;&gt;store/WidgetProvider.tsx -->
<g id="edge33" class="edge">
<title>component/Widget.tsx&#45;&gt;store/WidgetProvider.tsx</title>
<path fill="none" stroke="#757575" d="M598.99,-317.32C621.31,-283.82 691.21,-187.41 778,-151.98 877.46,-111.37 1602.32,-124.31 1867.86,-130.51"/>
<polygon fill="#757575" stroke="#757575" points="1867.42,-134 1877.5,-130.73 1867.59,-127 1867.42,-134"/>
</g>
<!-- component/Widget/WidgetChart.tsx&#45;&gt;component/chart/BarChart.tsx -->
<g id="edge36" class="edge">
<title>component/Widget/WidgetChart.tsx&#45;&gt;component/chart/BarChart.tsx</title>
<path fill="none" stroke="#757575" d="M1106.04,-184.97C1160.31,-192.48 1231.73,-202.33 1295,-210.98 1337.15,-216.74 1383.67,-223.05 1423.71,-228.46"/>
<polygon fill="#757575" stroke="#757575" points="1423.21,-231.92 1433.59,-229.79 1424.15,-224.99 1423.21,-231.92"/>
</g>
<!-- component/Widget/WidgetChart.tsx&#45;&gt;component/chart/InformaticsChart.tsx -->
<g id="edge37" class="edge">
<title>component/Widget/WidgetChart.tsx&#45;&gt;component/chart/InformaticsChart.tsx</title>
<path fill="none" stroke="#757575" d="M1095.03,-161C1186.65,-146.48 1340.77,-122.04 1437.19,-106.75"/>
<polygon fill="#757575" stroke="#757575" points="1437.54,-110.23 1446.87,-105.21 1436.45,-103.32 1437.54,-110.23"/>
</g>
<!-- component/Widget/WidgetChart.tsx&#45;&gt;component/chart/LineChart.tsx -->
<g id="edge38" class="edge">
<title>component/Widget/WidgetChart.tsx&#45;&gt;component/chart/LineChart.tsx</title>
<path fill="none" stroke="#757575" d="M1139.7,-177.27C1221.26,-180.18 1328.46,-184 1408.92,-186.87"/>
<polygon fill="#757575" stroke="#757575" points="1408.46,-190.36 1418.57,-187.22 1408.71,-183.36 1408.46,-190.36"/>
</g>
<!-- component/Widget/WidgetModal.tsx&#45;&gt;common/widget.ts -->
<g id="edge39" class="edge">
<title>component/Widget/WidgetModal.tsx&#45;&gt;common/widget.ts</title>
<path fill="none" stroke="#757575" d="M1142.27,-444.55C1237.54,-442.66 1366.61,-440.1 1447.59,-438.49"/>
<polygon fill="#757575" stroke="#757575" points="1447.24,-442 1457.17,-438.3 1447.1,-435 1447.24,-442"/>
</g>
<!-- component/Widget/WidgetModal.tsx&#45;&gt;types/widget.d.ts -->
<g id="edge40" class="edge">
<title>component/Widget/WidgetModal.tsx&#45;&gt;types/widget.d.ts</title>
<path fill="none" stroke="#757575" d="M1142.27,-458.9C1239.35,-468.33 1371.53,-481.17 1452.15,-489"/>
<polygon fill="#757575" stroke="#757575" points="1451.38,-492.44 1461.67,-489.93 1452.06,-485.48 1451.38,-492.44"/>
</g>
<!-- component/chart/BarChart.tsx&#45;&gt;common/chart.ts -->
<g id="edge41" class="edge">
<title>component/chart/BarChart.tsx&#45;&gt;common/chart.ts</title>
<path fill="none" stroke="#757575" d="M1626.99,-244.74C1708.46,-246.97 1821.04,-250.04 1893.44,-252.02"/>
<polygon fill="#757575" stroke="#757575" points="1893.1,-255.52 1903.19,-252.29 1893.29,-248.52 1893.1,-255.52"/>
</g>
<!-- component/chart/BarChart.tsx&#45;&gt;types/chart.d.ts -->
<g id="edge44" class="edge">
<title>component/chart/BarChart.tsx&#45;&gt;types/chart.d.ts</title>
<path fill="none" stroke="#757575" d="M1603.89,-253.94C1746.87,-274.61 2045.34,-311.36 2141,-273.98 2182.07,-257.93 2217.01,-218.46 2235.76,-193.88"/>
<polygon fill="#757575" stroke="#757575" points="2238.54,-196.01 2241.67,-185.89 2232.91,-191.85 2238.54,-196.01"/>
</g>
<!-- component/chart/BarChart.tsx&#45;&gt;store/WidgetProvider.tsx -->
<g id="edge43" class="edge">
<title>component/chart/BarChart.tsx&#45;&gt;store/WidgetProvider.tsx</title>
<path fill="none" stroke="#757575" d="M1626.88,-236.01C1667.41,-231.64 1714.12,-224.08 1755,-210.98 1772.23,-205.46 1774.38,-199.13 1791,-191.98 1831.06,-174.75 1877.95,-159.1 1912.96,-148.25"/>
<polygon fill="#757575" stroke="#757575" points="1913.9,-151.62 1922.43,-145.34 1911.85,-144.93 1913.9,-151.62"/>
</g>
<!-- hook/useResize.tsx -->
<g id="node31" class="node">
<title>hook/useResize.tsx</title>
<path fill="none" stroke="#cfffac" d="M2028.33,-224.48C2028.33,-224.48 1903.67,-224.48 1903.67,-224.48 1899.83,-224.48 1896,-220.65 1896,-216.81 1896,-216.81 1896,-209.15 1896,-209.15 1896,-205.31 1899.83,-201.48 1903.67,-201.48 1903.67,-201.48 2028.33,-201.48 2028.33,-201.48 2032.17,-201.48 2036,-205.31 2036,-209.15 2036,-209.15 2036,-216.81 2036,-216.81 2036,-220.65 2032.17,-224.48 2028.33,-224.48"/>
<text text-anchor="middle" x="1966" y="-209.28" font-family="Arial" font-size="14.00" fill="#cfffac">hook/useResize.tsx</text>
</g>
<!-- component/chart/BarChart.tsx&#45;&gt;hook/useResize.tsx -->
<g id="edge42" class="edge">
<title>component/chart/BarChart.tsx&#45;&gt;hook/useResize.tsx</title>
<path fill="none" stroke="#757575" d="M1626.99,-235.31C1705.1,-230.15 1811.79,-223.1 1884.27,-218.31"/>
<polygon fill="#757575" stroke="#757575" points="1884.34,-221.82 1894.09,-217.66 1883.88,-214.83 1884.34,-221.82"/>
</g>
<!-- component/chart/InformaticsChart.tsx&#45;&gt;types/chart.d.ts -->
<g id="edge46" class="edge">
<title>component/chart/InformaticsChart.tsx&#45;&gt;types/chart.d.ts</title>
<path fill="none" stroke="#757575" d="M1635.52,-81C1760.35,-70.84 1969.31,-64.54 2141,-111.98 2172.33,-120.64 2204.37,-139.95 2225.63,-154.55"/>
<polygon fill="#757575" stroke="#757575" points="2223.45,-157.29 2233.64,-160.19 2227.48,-151.57 2223.45,-157.29"/>
</g>
<!-- component/chart/InformaticsChart/InforMaticsBox.tsx -->
<g id="node32" class="node">
<title>component/chart/InformaticsChart/InforMaticsBox.tsx</title>
<path fill="none" stroke="#c6c5fe" d="M2133.33,-64.48C2133.33,-64.48 1798.67,-64.48 1798.67,-64.48 1794.83,-64.48 1791,-60.65 1791,-56.81 1791,-56.81 1791,-49.15 1791,-49.15 1791,-45.31 1794.83,-41.48 1798.67,-41.48 1798.67,-41.48 2133.33,-41.48 2133.33,-41.48 2137.17,-41.48 2141,-45.31 2141,-49.15 2141,-49.15 2141,-56.81 2141,-56.81 2141,-60.65 2137.17,-64.48 2133.33,-64.48"/>
<text text-anchor="middle" x="1966" y="-49.28" font-family="Arial" font-size="14.00" fill="#c6c5fe">component/chart/InformaticsChart/InforMaticsBox.tsx</text>
</g>
<!-- component/chart/InformaticsChart.tsx&#45;&gt;component/chart/InformaticsChart/InforMaticsBox.tsx -->
<g id="edge45" class="edge">
<title>component/chart/InformaticsChart.tsx&#45;&gt;component/chart/InformaticsChart/InforMaticsBox.tsx</title>
<path fill="none" stroke="#757575" d="M1651.21,-81.57C1704.56,-76.71 1767.08,-71.01 1822.21,-65.99"/>
<polygon fill="#757575" stroke="#757575" points="1822.35,-69.49 1831.99,-65.1 1821.71,-62.52 1822.35,-69.49"/>
</g>
<!-- component/chart/LineChart.tsx&#45;&gt;common/chart.ts -->
<g id="edge48" class="edge">
<title>component/chart/LineChart.tsx&#45;&gt;common/chart.ts</title>
<path fill="none" stroke="#757575" d="M1629.92,-200.33C1669.38,-205 1714.56,-211.68 1755,-220.98 1771.44,-224.76 1774.54,-229.28 1791,-232.98 1824.32,-240.46 1861.86,-245.42 1893.52,-248.63"/>
<polygon fill="#757575" stroke="#757575" points="1893.1,-252.11 1903.39,-249.59 1893.78,-245.14 1893.1,-252.11"/>
</g>
<!-- component/chart/LineChart.tsx&#45;&gt;types/chart.d.ts -->
<g id="edge51" class="edge">
<title>component/chart/LineChart.tsx&#45;&gt;types/chart.d.ts</title>
<path fill="none" stroke="#757575" d="M1629.8,-188.4C1780.62,-184.65 2056.16,-177.81 2183.14,-174.65"/>
<polygon fill="#757575" stroke="#757575" points="2183.17,-178.15 2193.08,-174.41 2183,-171.16 2183.17,-178.15"/>
</g>
<!-- component/chart/LineChart.tsx&#45;&gt;store/WidgetProvider.tsx -->
<g id="edge50" class="edge">
<title>component/chart/LineChart.tsx&#45;&gt;store/WidgetProvider.tsx</title>
<path fill="none" stroke="#757575" d="M1616.69,-179C1690.01,-169.31 1792.99,-155.71 1867.96,-145.8"/>
<polygon fill="#757575" stroke="#757575" points="1868.31,-149.28 1877.77,-144.5 1867.4,-142.34 1868.31,-149.28"/>
</g>
<!-- component/chart/LineChart.tsx&#45;&gt;hook/useResize.tsx -->
<g id="edge49" class="edge">
<title>component/chart/LineChart.tsx&#45;&gt;hook/useResize.tsx</title>
<path fill="none" stroke="#757575" d="M1629.76,-196.18C1707.73,-200.09 1812.99,-205.36 1884.62,-208.95"/>
<polygon fill="#757575" stroke="#757575" points="1884.15,-212.43 1894.31,-209.44 1884.5,-205.44 1884.15,-212.43"/>
</g>
<!-- component/chart/InformaticsChart/InforMaticsBox.tsx&#45;&gt;types/chart.d.ts -->
<g id="edge47" class="edge">
<title>component/chart/InformaticsChart/InforMaticsBox.tsx&#45;&gt;types/chart.d.ts</title>
<path fill="none" stroke="#757575" d="M2100.37,-64.97C2114.42,-68.56 2128.22,-73.14 2141,-78.98 2178.68,-96.21 2213.37,-130.41 2233.21,-152.46"/>
<polygon fill="#757575" stroke="#757575" points="2230.55,-154.73 2239.78,-159.94 2235.82,-150.12 2230.55,-154.73"/>
</g>
<!-- component/common/DatePicker/ListPicker.tsx&#45;&gt;types/datePicker.d.ts -->
<g id="edge54" class="edge">
<title>component/common/DatePicker/ListPicker.tsx&#45;&gt;types/datePicker.d.ts</title>
<path fill="none" stroke="#757575" d="M2120.37,-954.8C2135.81,-955.89 2151.07,-956.97 2165.4,-957.98"/>
<polygon fill="#757575" stroke="#757575" points="2164.95,-961.45 2175.17,-958.67 2165.44,-954.47 2164.95,-961.45"/>
</g>
<!-- page/Dashboard.tsx&#45;&gt;component/Dashboard/DashboardHeader.tsx -->
<g id="edge55" class="edge">
<title>page/Dashboard.tsx&#45;&gt;component/Dashboard/DashboardHeader.tsx</title>
<path fill="none" stroke="#757575" d="M351.35,-574.78C396.19,-602.11 507.36,-669.9 560.42,-702.25"/>
<polygon fill="#757575" stroke="#757575" points="558.27,-705.04 568.63,-707.25 561.91,-699.06 558.27,-705.04"/>
</g>
<!-- page/Dashboard.tsx&#45;&gt;store/DashboardProvider.tsx -->
<g id="edge57" class="edge">
<title>page/Dashboard.tsx&#45;&gt;store/DashboardProvider.tsx</title>
<path fill="none" stroke="#757575" d="M403.44,-567.48C604.17,-580.11 1174.29,-615.98 1414.82,-631.11"/>
<polygon fill="#757575" stroke="#757575" points="1414.31,-634.59 1424.51,-631.72 1414.75,-627.6 1414.31,-634.59"/>
</g>
<!-- page/Dashboard.tsx&#45;&gt;types/widget.d.ts -->
<g id="edge59" class="edge">
<title>page/Dashboard.tsx&#45;&gt;types/widget.d.ts</title>
<path fill="none" stroke="#757575" d="M403.44,-558.96C615.39,-547.05 1239.15,-511.99 1451.93,-500.03"/>
<polygon fill="#757575" stroke="#757575" points="1451.95,-503.54 1461.74,-499.48 1451.56,-496.55 1451.95,-503.54"/>
</g>
<!-- page/Dashboard.tsx&#45;&gt;component/Widget.tsx -->
<g id="edge56" class="edge">
<title>page/Dashboard.tsx&#45;&gt;component/Widget.tsx</title>
<path fill="none" stroke="#757575" d="M345.12,-551.05C386.79,-513.19 516.39,-395.42 567.99,-348.53"/>
<polygon fill="#757575" stroke="#757575" points="570.24,-351.22 575.28,-341.9 565.53,-346.03 570.24,-351.22"/>
</g>
<!-- page/Dashboard.tsx&#45;&gt;store/WidgetProvider.tsx -->
<g id="edge58" class="edge">
<title>page/Dashboard.tsx&#45;&gt;store/WidgetProvider.tsx</title>
<path fill="none" stroke="#757575" d="M334.45,-551.07C342.93,-512.3 374.08,-387.61 439,-307.98 554.36,-166.47 603.8,-130.62 778,-75.98 1192.32,53.98 1325.1,-10.81 1755,-71.98 1815.04,-80.52 1881.91,-102.15 1923.71,-117.21"/>
<polygon fill="#757575" stroke="#757575" points="1922.28,-120.42 1932.87,-120.56 1924.68,-113.84 1922.28,-120.42"/>
</g>
</g>
</svg>
