<?xml version="1.0" encoding="UTF-8" standalone="no"?>
<!DOCTYPE svg PUBLIC "-//W3C//DTD SVG 1.1//EN"
 "http://www.w3.org/Graphics/SVG/1.1/DTD/svg11.dtd">
<!-- Generated by graphviz version 7.1.0 (20230121.1956)
 -->
<!-- Title: G Pages: 1 -->
<svg width="2419pt" height="941pt"
 viewBox="0.00 0.00 2419.20 941.01" xmlns="http://www.w3.org/2000/svg" xmlns:xlink="http://www.w3.org/1999/xlink">
<g id="graph0" class="graph" transform="scale(1 1) rotate(0) translate(21.6 919.41)">
<title>G</title>
<polygon fill="#111111" stroke="none" points="-21.6,21.6 -21.6,-919.41 2397.6,-919.41 2397.6,21.6 -21.6,21.6"/>
<!-- App.tsx -->
<g id="node1" class="node">
<title>App.tsx</title>
<path fill="none" stroke="#c6c5fe" d="M57.33,-556.63C57.33,-556.63 7.67,-556.63 7.67,-556.63 3.83,-556.63 0,-552.8 0,-548.96 0,-548.96 0,-541.3 0,-541.3 0,-537.46 3.83,-533.63 7.67,-533.63 7.67,-533.63 57.33,-533.63 57.33,-533.63 61.17,-533.63 65,-537.46 65,-541.3 65,-541.3 65,-548.96 65,-548.96 65,-552.8 61.17,-556.63 57.33,-556.63"/>
<text text-anchor="middle" x="32.5" y="-541.43" font-family="Arial" font-size="14.00" fill="#c6c5fe">App.tsx</text>
</g>
<!-- router/Router.tsx -->
<g id="node2" class="node">
<title>router/Router.tsx</title>
<path fill="none" stroke="#c6c5fe" d="M215.33,-556.63C215.33,-556.63 108.67,-556.63 108.67,-556.63 104.83,-556.63 101,-552.8 101,-548.96 101,-548.96 101,-541.3 101,-541.3 101,-537.46 104.83,-533.63 108.67,-533.63 108.67,-533.63 215.33,-533.63 215.33,-533.63 219.17,-533.63 223,-537.46 223,-541.3 223,-541.3 223,-548.96 223,-548.96 223,-552.8 219.17,-556.63 215.33,-556.63"/>
<text text-anchor="middle" x="162" y="-541.43" font-family="Arial" font-size="14.00" fill="#c6c5fe">router/Router.tsx</text>
</g>
<!-- App.tsx&#45;&gt;router/Router.tsx -->
<g id="edge1" class="edge">
<title>App.tsx&#45;&gt;router/Router.tsx</title>
<path fill="none" stroke="#757575" d="M65.34,-545.13C72.7,-545.13 80.81,-545.13 89.12,-545.13"/>
<polygon fill="#757575" stroke="#757575" points="88.99,-548.63 98.99,-545.13 88.99,-541.63 88.99,-548.63"/>
</g>
<!-- page/Dashboard.tsx -->
<g id="node36" class="node">
<title>page/Dashboard.tsx</title>
<path fill="none" stroke="#c6c5fe" d="M395.33,-556.63C395.33,-556.63 266.67,-556.63 266.67,-556.63 262.83,-556.63 259,-552.8 259,-548.96 259,-548.96 259,-541.3 259,-541.3 259,-537.46 262.83,-533.63 266.67,-533.63 266.67,-533.63 395.33,-533.63 395.33,-533.63 399.17,-533.63 403,-537.46 403,-541.3 403,-541.3 403,-548.96 403,-548.96 403,-552.8 399.17,-556.63 395.33,-556.63"/>
<text text-anchor="middle" x="331" y="-541.43" font-family="Arial" font-size="14.00" fill="#c6c5fe">page/Dashboard.tsx</text>
</g>
<!-- router/Router.tsx&#45;&gt;page/Dashboard.tsx -->
<g id="edge60" class="edge">
<title>router/Router.tsx&#45;&gt;page/Dashboard.tsx</title>
<path fill="none" stroke="#757575" d="M223.29,-545.13C231.1,-545.13 239.21,-545.13 247.3,-545.13"/>
<polygon fill="#757575" stroke="#757575" points="247.19,-548.63 257.19,-545.13 247.19,-541.63 247.19,-548.63"/>
</g>
<!-- api.ts -->
<g id="node3" class="node">
<title>api.ts</title>
<path fill="none" stroke="#c6c5fe" d="M1087.83,-417.63C1087.83,-417.63 1049.17,-417.63 1049.17,-417.63 1045.33,-417.63 1041.5,-413.8 1041.5,-409.96 1041.5,-409.96 1041.5,-402.3 1041.5,-402.3 1041.5,-398.46 1045.33,-394.63 1049.17,-394.63 1049.17,-394.63 1087.83,-394.63 1087.83,-394.63 1091.67,-394.63 1095.5,-398.46 1095.5,-402.3 1095.5,-402.3 1095.5,-409.96 1095.5,-409.96 1095.5,-413.8 1091.67,-417.63 1087.83,-417.63"/>
<text text-anchor="middle" x="1068.5" y="-402.43" font-family="Arial" font-size="14.00" fill="#c6c5fe">api.ts</text>
</g>
<!-- types/api.d.ts -->
<g id="node4" class="node">
<title>types/api.d.ts</title>
<path fill="none" stroke="#cfffac" d="M1617.83,-398.63C1617.83,-398.63 1532.17,-398.63 1532.17,-398.63 1528.33,-398.63 1524.5,-394.8 1524.5,-390.96 1524.5,-390.96 1524.5,-383.3 1524.5,-383.3 1524.5,-379.46 1528.33,-375.63 1532.17,-375.63 1532.17,-375.63 1617.83,-375.63 1617.83,-375.63 1621.67,-375.63 1625.5,-379.46 1625.5,-383.3 1625.5,-383.3 1625.5,-390.96 1625.5,-390.96 1625.5,-394.8 1621.67,-398.63 1617.83,-398.63"/>
<text text-anchor="middle" x="1575" y="-383.43" font-family="Arial" font-size="14.00" fill="#cfffac">types/api.d.ts</text>
</g>
<!-- api.ts&#45;&gt;types/api.d.ts -->
<g id="edge2" class="edge">
<title>api.ts&#45;&gt;types/api.d.ts</title>
<path fill="none" stroke="#757575" d="M1095.91,-405.14C1173.55,-402.21 1402.5,-393.59 1512.99,-389.43"/>
<polygon fill="#757575" stroke="#757575" points="1512.89,-392.93 1522.75,-389.06 1512.62,-385.94 1512.89,-392.93"/>
</g>
<!-- asset/image/pause.png -->
<g id="node5" class="node">
<title>asset/image/pause.png</title>
<path fill="none" stroke="#cfffac" d="M1142.83,-855.63C1142.83,-855.63 994.17,-855.63 994.17,-855.63 990.33,-855.63 986.5,-851.8 986.5,-847.96 986.5,-847.96 986.5,-840.3 986.5,-840.3 986.5,-836.46 990.33,-832.63 994.17,-832.63 994.17,-832.63 1142.83,-832.63 1142.83,-832.63 1146.67,-832.63 1150.5,-836.46 1150.5,-840.3 1150.5,-840.3 1150.5,-847.96 1150.5,-847.96 1150.5,-851.8 1146.67,-855.63 1142.83,-855.63"/>
<text text-anchor="middle" x="1068.5" y="-840.43" font-family="Arial" font-size="14.00" fill="#cfffac">asset/image/pause.png</text>
</g>
<!-- asset/image/play.png -->
<g id="node6" class="node">
<title>asset/image/play.png</title>
<path fill="none" stroke="#cfffac" d="M1136.33,-814.63C1136.33,-814.63 1000.67,-814.63 1000.67,-814.63 996.83,-814.63 993,-810.8 993,-806.96 993,-806.96 993,-799.3 993,-799.3 993,-795.46 996.83,-791.63 1000.67,-791.63 1000.67,-791.63 1136.33,-791.63 1136.33,-791.63 1140.17,-791.63 1144,-795.46 1144,-799.3 1144,-799.3 1144,-806.96 1144,-806.96 1144,-810.8 1140.17,-814.63 1136.33,-814.63"/>
<text text-anchor="middle" x="1068.5" y="-799.43" font-family="Arial" font-size="14.00" fill="#cfffac">asset/image/play.png</text>
</g>
<!-- common/chart.ts -->
<g id="node7" class="node">
<title>common/chart.ts</title>
<path fill="none" stroke="#c6c5fe" d="M2069.33,-111.63C2069.33,-111.63 1962.67,-111.63 1962.67,-111.63 1958.83,-111.63 1955,-107.8 1955,-103.96 1955,-103.96 1955,-96.3 1955,-96.3 1955,-92.46 1958.83,-88.63 1962.67,-88.63 1962.67,-88.63 2069.33,-88.63 2069.33,-88.63 2073.17,-88.63 2077,-92.46 2077,-96.3 2077,-96.3 2077,-103.96 2077,-103.96 2077,-107.8 2073.17,-111.63 2069.33,-111.63"/>
<text text-anchor="middle" x="2016" y="-96.43" font-family="Arial" font-size="14.00" fill="#c6c5fe">common/chart.ts</text>
</g>
<!-- types/chart.d.ts -->
<g id="node8" class="node">
<title>types/chart.d.ts</title>
<path fill="none" stroke="#cfffac" d="M2350.33,-151.63C2350.33,-151.63 2252.67,-151.63 2252.67,-151.63 2248.83,-151.63 2245,-147.8 2245,-143.96 2245,-143.96 2245,-136.3 2245,-136.3 2245,-132.46 2248.83,-128.63 2252.67,-128.63 2252.67,-128.63 2350.33,-128.63 2350.33,-128.63 2354.17,-128.63 2358,-132.46 2358,-136.3 2358,-136.3 2358,-143.96 2358,-143.96 2358,-147.8 2354.17,-151.63 2350.33,-151.63"/>
<text text-anchor="middle" x="2301.5" y="-136.43" font-family="Arial" font-size="14.00" fill="#cfffac">types/chart.d.ts</text>
</g>
<!-- common/chart.ts&#45;&gt;types/chart.d.ts -->
<g id="edge3" class="edge">
<title>common/chart.ts&#45;&gt;types/chart.d.ts</title>
<path fill="none" stroke="#757575" d="M2077.47,-108.66C2123.29,-115.13 2186.23,-124.01 2233.56,-130.69"/>
<polygon fill="#757575" stroke="#757575" points="2233.04,-134.15 2243.43,-132.08 2234.02,-127.22 2233.04,-134.15"/>
</g>
<!-- common/date.ts -->
<g id="node9" class="node">
<title>common/date.ts</title>
<path fill="none" stroke="#cfffac" d="M2067.83,-568.63C2067.83,-568.63 1964.17,-568.63 1964.17,-568.63 1960.33,-568.63 1956.5,-564.8 1956.5,-560.96 1956.5,-560.96 1956.5,-553.3 1956.5,-553.3 1956.5,-549.46 1960.33,-545.63 1964.17,-545.63 1964.17,-545.63 2067.83,-545.63 2067.83,-545.63 2071.67,-545.63 2075.5,-549.46 2075.5,-553.3 2075.5,-553.3 2075.5,-560.96 2075.5,-560.96 2075.5,-564.8 2071.67,-568.63 2067.83,-568.63"/>
<text text-anchor="middle" x="2016" y="-553.43" font-family="Arial" font-size="14.00" fill="#cfffac">common/date.ts</text>
</g>
<!-- common/widget.ts -->
<g id="node10" class="node">
<title>common/widget.ts</title>
<path fill="none" stroke="#cfffac" d="M1633.33,-299.63C1633.33,-299.63 1516.67,-299.63 1516.67,-299.63 1512.83,-299.63 1509,-295.8 1509,-291.96 1509,-291.96 1509,-284.3 1509,-284.3 1509,-280.46 1512.83,-276.63 1516.67,-276.63 1516.67,-276.63 1633.33,-276.63 1633.33,-276.63 1637.17,-276.63 1641,-280.46 1641,-284.3 1641,-284.3 1641,-291.96 1641,-291.96 1641,-295.8 1637.17,-299.63 1633.33,-299.63"/>
<text text-anchor="middle" x="1575" y="-284.43" font-family="Arial" font-size="14.00" fill="#cfffac">common/widget.ts</text>
</g>
<!-- component/Dashboard/CommonStyle.ts -->
<g id="node11" class="node">
<title>component/Dashboard/CommonStyle.ts</title>
<path fill="none" stroke="#cfffac" d="M1702.33,-773.63C1702.33,-773.63 1447.67,-773.63 1447.67,-773.63 1443.83,-773.63 1440,-769.8 1440,-765.96 1440,-765.96 1440,-758.3 1440,-758.3 1440,-754.46 1443.83,-750.63 1447.67,-750.63 1447.67,-750.63 1702.33,-750.63 1702.33,-750.63 1706.17,-750.63 1710,-754.46 1710,-758.3 1710,-758.3 1710,-765.96 1710,-765.96 1710,-769.8 1706.17,-773.63 1702.33,-773.63"/>
<text text-anchor="middle" x="1575" y="-758.43" font-family="Arial" font-size="14.00" fill="#cfffac">component/Dashboard/CommonStyle.ts</text>
</g>
<!-- component/Dashboard/DashboardHeader.tsx -->
<g id="node12" class="node">
<title>component/Dashboard/DashboardHeader.tsx</title>
<path fill="none" stroke="#c6c5fe" d="M759.33,-711.63C759.33,-711.63 471.67,-711.63 471.67,-711.63 467.83,-711.63 464,-707.8 464,-703.96 464,-703.96 464,-696.3 464,-696.3 464,-692.46 467.83,-688.63 471.67,-688.63 471.67,-688.63 759.33,-688.63 759.33,-688.63 763.17,-688.63 767,-692.46 767,-696.3 767,-696.3 767,-703.96 767,-703.96 767,-707.8 763.17,-711.63 759.33,-711.63"/>
<text text-anchor="middle" x="615.5" y="-696.43" font-family="Arial" font-size="14.00" fill="#c6c5fe">component/Dashboard/DashboardHeader.tsx</text>
</g>
<!-- component/Dashboard/DashboardHeader.tsx&#45;&gt;asset/image/pause.png -->
<g id="edge4" class="edge">
<title>component/Dashboard/DashboardHeader.tsx&#45;&gt;asset/image/pause.png</title>
<path fill="none" stroke="#757575" d="M631.55,-712.1C664.74,-737.73 747.63,-797.64 828,-823.13 875.04,-838.05 929.71,-843.67 974.94,-845.39"/>
<polygon fill="#757575" stroke="#757575" points="974.6,-848.88 984.71,-845.7 974.82,-841.89 974.6,-848.88"/>
</g>
<!-- component/Dashboard/DashboardHeader.tsx&#45;&gt;asset/image/play.png -->
<g id="edge5" class="edge">
<title>component/Dashboard/DashboardHeader.tsx&#45;&gt;asset/image/play.png</title>
<path fill="none" stroke="#757575" d="M640.53,-712.04C679.04,-730.53 757.42,-765.7 828,-782.13 878.03,-793.77 935.31,-799.08 981.31,-801.44"/>
<polygon fill="#757575" stroke="#757575" points="981.08,-804.94 991.23,-801.91 981.41,-797.94 981.08,-804.94"/>
</g>
<!-- component/Dashboard/DashboardHeader/CurrentTime.tsx -->
<g id="node13" class="node">
<title>component/Dashboard/DashboardHeader/CurrentTime.tsx</title>
<path fill="none" stroke="#cfffac" d="M1253.83,-773.63C1253.83,-773.63 883.17,-773.63 883.17,-773.63 879.33,-773.63 875.5,-769.8 875.5,-765.96 875.5,-765.96 875.5,-758.3 875.5,-758.3 875.5,-754.46 879.33,-750.63 883.17,-750.63 883.17,-750.63 1253.83,-750.63 1253.83,-750.63 1257.67,-750.63 1261.5,-754.46 1261.5,-758.3 1261.5,-758.3 1261.5,-765.96 1261.5,-765.96 1261.5,-769.8 1257.67,-773.63 1253.83,-773.63"/>
<text text-anchor="middle" x="1068.5" y="-758.43" font-family="Arial" font-size="14.00" fill="#cfffac">component/Dashboard/DashboardHeader/CurrentTime.tsx</text>
</g>
<!-- component/Dashboard/DashboardHeader.tsx&#45;&gt;component/Dashboard/DashboardHeader/CurrentTime.tsx -->
<g id="edge6" class="edge">
<title>component/Dashboard/DashboardHeader.tsx&#45;&gt;component/Dashboard/DashboardHeader/CurrentTime.tsx</title>
<path fill="none" stroke="#757575" d="M670.14,-712.13C712.74,-721.27 773.92,-733.54 828,-741.13 849.13,-744.1 871.37,-746.71 893.43,-749.01"/>
<polygon fill="#757575" stroke="#757575" points="892.78,-752.46 903.09,-749.99 893.49,-745.49 892.78,-752.46"/>
</g>
<!-- component/Dashboard/DashboardHeader/DatePickerArea.tsx -->
<g id="node14" class="node">
<title>component/Dashboard/DashboardHeader/DatePickerArea.tsx</title>
<path fill="none" stroke="#c6c5fe" d="M1264.33,-732.63C1264.33,-732.63 872.67,-732.63 872.67,-732.63 868.83,-732.63 865,-728.8 865,-724.96 865,-724.96 865,-717.3 865,-717.3 865,-713.46 868.83,-709.63 872.67,-709.63 872.67,-709.63 1264.33,-709.63 1264.33,-709.63 1268.17,-709.63 1272,-713.46 1272,-717.3 1272,-717.3 1272,-724.96 1272,-724.96 1272,-728.8 1268.17,-732.63 1264.33,-732.63"/>
<text text-anchor="middle" x="1068.5" y="-717.43" font-family="Arial" font-size="14.00" fill="#c6c5fe">component/Dashboard/DashboardHeader/DatePickerArea.tsx</text>
</g>
<!-- component/Dashboard/DashboardHeader.tsx&#45;&gt;component/Dashboard/DashboardHeader/DatePickerArea.tsx -->
<g id="edge7" class="edge">
<title>component/Dashboard/DashboardHeader.tsx&#45;&gt;component/Dashboard/DashboardHeader/DatePickerArea.tsx</title>
<path fill="none" stroke="#757575" d="M767.3,-707.15C795.01,-708.44 824.4,-709.81 853.54,-711.17"/>
<polygon fill="#757575" stroke="#757575" points="853.03,-714.65 863.18,-711.62 853.36,-707.65 853.03,-714.65"/>
</g>
<!-- component/Dashboard/DashboardHeader/SelectRealTimeRangeArea.tsx -->
<g id="node15" class="node">
<title>component/Dashboard/DashboardHeader/SelectRealTimeRangeArea.tsx</title>
<path fill="none" stroke="#c6c5fe" d="M1301.33,-691.63C1301.33,-691.63 835.67,-691.63 835.67,-691.63 831.83,-691.63 828,-687.8 828,-683.96 828,-683.96 828,-676.3 828,-676.3 828,-672.46 831.83,-668.63 835.67,-668.63 835.67,-668.63 1301.33,-668.63 1301.33,-668.63 1305.17,-668.63 1309,-672.46 1309,-676.3 1309,-676.3 1309,-683.96 1309,-683.96 1309,-687.8 1305.17,-691.63 1301.33,-691.63"/>
<text text-anchor="middle" x="1068.5" y="-676.43" font-family="Arial" font-size="14.00" fill="#c6c5fe">component/Dashboard/DashboardHeader/SelectRealTimeRangeArea.tsx</text>
</g>
<!-- component/Dashboard/DashboardHeader.tsx&#45;&gt;component/Dashboard/DashboardHeader/SelectRealTimeRangeArea.tsx -->
<g id="edge8" class="edge">
<title>component/Dashboard/DashboardHeader.tsx&#45;&gt;component/Dashboard/DashboardHeader/SelectRealTimeRangeArea.tsx</title>
<path fill="none" stroke="#757575" d="M767.3,-693.44C783.12,-692.74 799.48,-692.02 816.03,-691.28"/>
<polygon fill="#757575" stroke="#757575" points="816.17,-694.78 826.01,-690.84 815.86,-687.79 816.17,-694.78"/>
</g>
<!-- store/DashboardProvider.tsx -->
<g id="node16" class="node">
<title>store/DashboardProvider.tsx</title>
<path fill="none" stroke="#c6c5fe" d="M1665.83,-568.63C1665.83,-568.63 1484.17,-568.63 1484.17,-568.63 1480.33,-568.63 1476.5,-564.8 1476.5,-560.96 1476.5,-560.96 1476.5,-553.3 1476.5,-553.3 1476.5,-549.46 1480.33,-545.63 1484.17,-545.63 1484.17,-545.63 1665.83,-545.63 1665.83,-545.63 1669.67,-545.63 1673.5,-549.46 1673.5,-553.3 1673.5,-553.3 1673.5,-560.96 1673.5,-560.96 1673.5,-564.8 1669.67,-568.63 1665.83,-568.63"/>
<text text-anchor="middle" x="1575" y="-553.43" font-family="Arial" font-size="14.00" fill="#c6c5fe">store/DashboardProvider.tsx</text>
</g>
<!-- component/Dashboard/DashboardHeader.tsx&#45;&gt;store/DashboardProvider.tsx -->
<g id="edge9" class="edge">
<title>component/Dashboard/DashboardHeader.tsx&#45;&gt;store/DashboardProvider.tsx</title>
<path fill="none" stroke="#757575" d="M675.2,-688.19C717.59,-679.71 776.25,-668.25 828,-659.13 1057.12,-618.76 1114.09,-605.49 1345,-577.13 1384.03,-572.34 1426.93,-568.27 1464.95,-565.08"/>
<polygon fill="#757575" stroke="#757575" points="1464.87,-568.6 1474.55,-564.29 1464.3,-561.62 1464.87,-568.6"/>
</g>
<!-- store/WidgetProvider.tsx -->
<g id="node17" class="node">
<title>store/WidgetProvider.tsx</title>
<path fill="none" stroke="#c6c5fe" d="M1147.33,-535.63C1147.33,-535.63 989.67,-535.63 989.67,-535.63 985.83,-535.63 982,-531.8 982,-527.96 982,-527.96 982,-520.3 982,-520.3 982,-516.46 985.83,-512.63 989.67,-512.63 989.67,-512.63 1147.33,-512.63 1147.33,-512.63 1151.17,-512.63 1155,-516.46 1155,-520.3 1155,-520.3 1155,-527.96 1155,-527.96 1155,-531.8 1151.17,-535.63 1147.33,-535.63"/>
<text text-anchor="middle" x="1068.5" y="-520.43" font-family="Arial" font-size="14.00" fill="#c6c5fe">store/WidgetProvider.tsx</text>
</g>
<!-- component/Dashboard/DashboardHeader.tsx&#45;&gt;store/WidgetProvider.tsx -->
<g id="edge10" class="edge">
<title>component/Dashboard/DashboardHeader.tsx&#45;&gt;store/WidgetProvider.tsx</title>
<path fill="none" stroke="#757575" d="M635.34,-688.27C671.48,-665.96 753.55,-617.36 828,-588.13 883.38,-566.39 948.78,-549.47 997.24,-538.5"/>
<polygon fill="#757575" stroke="#757575" points="997.77,-541.97 1006.76,-536.37 996.24,-535.14 997.77,-541.97"/>
</g>
<!-- component/Dashboard/DashboardHeader/DatePickerArea.tsx&#45;&gt;common/date.ts -->
<g id="edge11" class="edge">
<title>component/Dashboard/DashboardHeader/DatePickerArea.tsx&#45;&gt;common/date.ts</title>
<path fill="none" stroke="#757575" d="M1272.24,-726.74C1284.99,-730.53 1297.36,-735.26 1309,-741.13 1330.66,-752.04 1322.91,-772.13 1345,-782.13 1438.12,-824.29 1711.25,-822.87 1805,-782.13 1902.75,-739.65 1975.66,-626.78 2003.1,-578.99"/>
<polygon fill="#757575" stroke="#757575" points="2006.08,-580.82 2007.93,-570.39 1999.98,-577.39 2006.08,-580.82"/>
</g>
<!-- component/Dashboard/DashboardHeader/DatePickerArea.tsx&#45;&gt;component/Dashboard/CommonStyle.ts -->
<g id="edge12" class="edge">
<title>component/Dashboard/DashboardHeader/DatePickerArea.tsx&#45;&gt;component/Dashboard/CommonStyle.ts</title>
<path fill="none" stroke="#757575" d="M1217.12,-733.13C1283.64,-738.53 1361.97,-744.9 1428.26,-750.29"/>
<polygon fill="#757575" stroke="#757575" points="1427.89,-753.77 1438.14,-751.09 1428.45,-746.79 1427.89,-753.77"/>
</g>
<!-- component/Dashboard/DashboardHeader/DatePickerArea.tsx&#45;&gt;store/DashboardProvider.tsx -->
<g id="edge17" class="edge">
<title>component/Dashboard/DashboardHeader/DatePickerArea.tsx&#45;&gt;store/DashboardProvider.tsx</title>
<path fill="none" stroke="#757575" d="M1129.08,-733.13C1182.22,-740.2 1259.13,-741.02 1309,-700.13 1353.05,-664.02 1300.95,-613.24 1345,-577.13 1388.17,-541.75 1452.52,-539.06 1502.02,-543.9"/>
<polygon fill="#757575" stroke="#757575" points="1501.47,-547.36 1511.8,-544.99 1502.24,-540.4 1501.47,-547.36"/>
</g>
<!-- component/Dashboard/DashboardHeader/DateBox.tsx -->
<g id="node18" class="node">
<title>component/Dashboard/DashboardHeader/DateBox.tsx</title>
<path fill="none" stroke="#cfffac" d="M1748.33,-853.63C1748.33,-853.63 1401.67,-853.63 1401.67,-853.63 1397.83,-853.63 1394,-849.8 1394,-845.96 1394,-845.96 1394,-838.3 1394,-838.3 1394,-834.46 1397.83,-830.63 1401.67,-830.63 1401.67,-830.63 1748.33,-830.63 1748.33,-830.63 1752.17,-830.63 1756,-834.46 1756,-838.3 1756,-838.3 1756,-845.96 1756,-845.96 1756,-849.8 1752.17,-853.63 1748.33,-853.63"/>
<text text-anchor="middle" x="1575" y="-838.43" font-family="Arial" font-size="14.00" fill="#cfffac">component/Dashboard/DashboardHeader/DateBox.tsx</text>
</g>
<!-- component/Dashboard/DashboardHeader/DatePickerArea.tsx&#45;&gt;component/Dashboard/DashboardHeader/DateBox.tsx -->
<g id="edge13" class="edge">
<title>component/Dashboard/DashboardHeader/DatePickerArea.tsx&#45;&gt;component/Dashboard/DashboardHeader/DateBox.tsx</title>
<path fill="none" stroke="#757575" d="M1145.02,-709.14C1195.69,-705.2 1261.58,-708.46 1309,-741.13 1339.45,-762.11 1314.87,-794.7 1345,-816.13 1356.58,-824.36 1369.35,-830.81 1382.76,-835.82"/>
<polygon fill="#757575" stroke="#757575" points="1381.62,-839.12 1392.21,-839.04 1383.88,-832.5 1381.62,-839.12"/>
</g>
<!-- component/common/DatePicker.tsx -->
<g id="node19" class="node">
<title>component/common/DatePicker.tsx</title>
<path fill="none" stroke="#c6c5fe" d="M1688.33,-894.63C1688.33,-894.63 1461.67,-894.63 1461.67,-894.63 1457.83,-894.63 1454,-890.8 1454,-886.96 1454,-886.96 1454,-879.3 1454,-879.3 1454,-875.46 1457.83,-871.63 1461.67,-871.63 1461.67,-871.63 1688.33,-871.63 1688.33,-871.63 1692.17,-871.63 1696,-875.46 1696,-879.3 1696,-879.3 1696,-886.96 1696,-886.96 1696,-890.8 1692.17,-894.63 1688.33,-894.63"/>
<text text-anchor="middle" x="1575" y="-879.43" font-family="Arial" font-size="14.00" fill="#c6c5fe">component/common/DatePicker.tsx</text>
</g>
<!-- component/Dashboard/DashboardHeader/DatePickerArea.tsx&#45;&gt;component/common/DatePicker.tsx -->
<g id="edge14" class="edge">
<title>component/Dashboard/DashboardHeader/DatePickerArea.tsx&#45;&gt;component/common/DatePicker.tsx</title>
<path fill="none" stroke="#757575" d="M1127.21,-709.14C1180.35,-701.64 1258.41,-700.01 1309,-741.13 1352.54,-776.52 1301.6,-826.57 1345,-862.13 1387.26,-896.76 1449.77,-900.37 1498.81,-896.22"/>
<polygon fill="#757575" stroke="#757575" points="1498.89,-899.73 1508.5,-895.27 1498.21,-892.77 1498.89,-899.73"/>
</g>
<!-- hook/useBoolean.tsx -->
<g id="node20" class="node">
<title>hook/useBoolean.tsx</title>
<path fill="none" stroke="#cfffac" d="M1641.83,-609.63C1641.83,-609.63 1508.17,-609.63 1508.17,-609.63 1504.33,-609.63 1500.5,-605.8 1500.5,-601.96 1500.5,-601.96 1500.5,-594.3 1500.5,-594.3 1500.5,-590.46 1504.33,-586.63 1508.17,-586.63 1508.17,-586.63 1641.83,-586.63 1641.83,-586.63 1645.67,-586.63 1649.5,-590.46 1649.5,-594.3 1649.5,-594.3 1649.5,-601.96 1649.5,-601.96 1649.5,-605.8 1645.67,-609.63 1641.83,-609.63"/>
<text text-anchor="middle" x="1575" y="-594.43" font-family="Arial" font-size="14.00" fill="#cfffac">hook/useBoolean.tsx</text>
</g>
<!-- component/Dashboard/DashboardHeader/DatePickerArea.tsx&#45;&gt;hook/useBoolean.tsx -->
<g id="edge15" class="edge">
<title>component/Dashboard/DashboardHeader/DatePickerArea.tsx&#45;&gt;hook/useBoolean.tsx</title>
<path fill="none" stroke="#757575" d="M1143.76,-733.13C1194.82,-737.26 1261.69,-734.07 1309,-700.13 1341.34,-676.93 1312.65,-641.32 1345,-618.13 1385.97,-588.75 1442.27,-583.5 1488.8,-585.71"/>
<polygon fill="#757575" stroke="#757575" points="1488.39,-589.19 1498.58,-586.31 1488.81,-582.21 1488.39,-589.19"/>
</g>
<!-- hook/useOutsideClick.tsx -->
<g id="node21" class="node">
<title>hook/useOutsideClick.tsx</title>
<path fill="none" stroke="#cfffac" d="M1655.33,-732.63C1655.33,-732.63 1494.67,-732.63 1494.67,-732.63 1490.83,-732.63 1487,-728.8 1487,-724.96 1487,-724.96 1487,-717.3 1487,-717.3 1487,-713.46 1490.83,-709.63 1494.67,-709.63 1494.67,-709.63 1655.33,-709.63 1655.33,-709.63 1659.17,-709.63 1663,-713.46 1663,-717.3 1663,-717.3 1663,-724.96 1663,-724.96 1663,-728.8 1659.17,-732.63 1655.33,-732.63"/>
<text text-anchor="middle" x="1575" y="-717.43" font-family="Arial" font-size="14.00" fill="#cfffac">hook/useOutsideClick.tsx</text>
</g>
<!-- component/Dashboard/DashboardHeader/DatePickerArea.tsx&#45;&gt;hook/useOutsideClick.tsx -->
<g id="edge16" class="edge">
<title>component/Dashboard/DashboardHeader/DatePickerArea.tsx&#45;&gt;hook/useOutsideClick.tsx</title>
<path fill="none" stroke="#757575" d="M1272.16,-721.13C1342.15,-721.13 1417.44,-721.13 1475.32,-721.13"/>
<polygon fill="#757575" stroke="#757575" points="1475.14,-724.63 1485.14,-721.13 1475.14,-717.63 1475.14,-724.63"/>
</g>
<!-- types/widget.d.ts -->
<g id="node22" class="node">
<title>types/widget.d.ts</title>
<path fill="none" stroke="#cfffac" d="M1628.83,-495.63C1628.83,-495.63 1521.17,-495.63 1521.17,-495.63 1517.33,-495.63 1513.5,-491.8 1513.5,-487.96 1513.5,-487.96 1513.5,-480.3 1513.5,-480.3 1513.5,-476.46 1517.33,-472.63 1521.17,-472.63 1521.17,-472.63 1628.83,-472.63 1628.83,-472.63 1632.67,-472.63 1636.5,-476.46 1636.5,-480.3 1636.5,-480.3 1636.5,-487.96 1636.5,-487.96 1636.5,-491.8 1632.67,-495.63 1628.83,-495.63"/>
<text text-anchor="middle" x="1575" y="-480.43" font-family="Arial" font-size="14.00" fill="#cfffac">types/widget.d.ts</text>
</g>
<!-- component/Dashboard/DashboardHeader/DatePickerArea.tsx&#45;&gt;types/widget.d.ts -->
<g id="edge18" class="edge">
<title>component/Dashboard/DashboardHeader/DatePickerArea.tsx&#45;&gt;types/widget.d.ts</title>
<path fill="none" stroke="#757575" d="M1124.37,-733.12C1178.08,-741.41 1258.92,-744.15 1309,-700.13 1365.05,-650.86 1292.42,-589.09 1345,-536.13 1385.66,-495.18 1451.36,-483.62 1501.99,-481.46"/>
<polygon fill="#757575" stroke="#757575" points="1501.79,-484.97 1511.69,-481.17 1501.58,-477.97 1501.79,-484.97"/>
</g>
<!-- component/Dashboard/DashboardHeader/SelectRealTimeRangeArea.tsx&#45;&gt;component/Dashboard/CommonStyle.ts -->
<g id="edge19" class="edge">
<title>component/Dashboard/DashboardHeader/SelectRealTimeRangeArea.tsx&#45;&gt;component/Dashboard/CommonStyle.ts</title>
<path fill="none" stroke="#757575" d="M1290.89,-692.1C1297.08,-694.5 1303.13,-697.17 1309,-700.13 1330.66,-711.04 1323.39,-730.13 1345,-741.13 1370.44,-754.08 1399.54,-761.43 1428.26,-765.31"/>
<polygon fill="#757575" stroke="#757575" points="1427.82,-768.78 1438.17,-766.49 1428.65,-761.83 1427.82,-768.78"/>
</g>
<!-- component/Dashboard/DashboardHeader/SelectRealTimeRangeArea.tsx&#45;&gt;store/DashboardProvider.tsx -->
<g id="edge24" class="edge">
<title>component/Dashboard/DashboardHeader/SelectRealTimeRangeArea.tsx&#45;&gt;store/DashboardProvider.tsx</title>
<path fill="none" stroke="#757575" d="M1161.01,-668.14C1207.78,-659.01 1264.14,-643.22 1309,-616.13 1329.19,-603.94 1323.82,-587.52 1345,-577.13 1381.6,-559.17 1425.45,-552.36 1464.95,-550.66"/>
<polygon fill="#757575" stroke="#757575" points="1464.83,-554.16 1474.72,-550.35 1464.61,-547.17 1464.83,-554.16"/>
</g>
<!-- component/Dashboard/DashboardHeader/SelectRealTimeRangeArea.tsx&#45;&gt;hook/useBoolean.tsx -->
<g id="edge22" class="edge">
<title>component/Dashboard/DashboardHeader/SelectRealTimeRangeArea.tsx&#45;&gt;hook/useBoolean.tsx</title>
<path fill="none" stroke="#757575" d="M1272.22,-668.16C1284.93,-664.36 1297.31,-659.73 1309,-654.13 1329.41,-644.35 1324.49,-627.69 1345,-618.13 1389.42,-597.42 1443.92,-591.98 1488.61,-591.92"/>
<polygon fill="#757575" stroke="#757575" points="1488.5,-595.42 1498.53,-592.01 1488.56,-588.42 1488.5,-595.42"/>
</g>
<!-- component/Dashboard/DashboardHeader/SelectRealTimeRangeArea.tsx&#45;&gt;hook/useOutsideClick.tsx -->
<g id="edge23" class="edge">
<title>component/Dashboard/DashboardHeader/SelectRealTimeRangeArea.tsx&#45;&gt;hook/useOutsideClick.tsx</title>
<path fill="none" stroke="#757575" d="M1217.12,-692.13C1300.37,-698.89 1402.11,-707.16 1475.63,-713.14"/>
<polygon fill="#757575" stroke="#757575" points="1474.96,-716.59 1485.21,-713.91 1475.53,-709.62 1474.96,-716.59"/>
</g>
<!-- component/Dashboard/DashboardHeader/RealTime.tsx -->
<g id="node23" class="node">
<title>component/Dashboard/DashboardHeader/RealTime.tsx</title>
<path fill="none" stroke="#cfffac" d="M1751.33,-650.63C1751.33,-650.63 1398.67,-650.63 1398.67,-650.63 1394.83,-650.63 1391,-646.8 1391,-642.96 1391,-642.96 1391,-635.3 1391,-635.3 1391,-631.46 1394.83,-627.63 1398.67,-627.63 1398.67,-627.63 1751.33,-627.63 1751.33,-627.63 1755.17,-627.63 1759,-631.46 1759,-635.3 1759,-635.3 1759,-642.96 1759,-642.96 1759,-646.8 1755.17,-650.63 1751.33,-650.63"/>
<text text-anchor="middle" x="1575" y="-635.43" font-family="Arial" font-size="14.00" fill="#cfffac">component/Dashboard/DashboardHeader/RealTime.tsx</text>
</g>
<!-- component/Dashboard/DashboardHeader/SelectRealTimeRangeArea.tsx&#45;&gt;component/Dashboard/DashboardHeader/RealTime.tsx -->
<g id="edge20" class="edge">
<title>component/Dashboard/DashboardHeader/SelectRealTimeRangeArea.tsx&#45;&gt;component/Dashboard/DashboardHeader/RealTime.tsx</title>
<path fill="none" stroke="#757575" d="M1217.12,-668.13C1279.39,-663.07 1352,-657.17 1415.41,-652.02"/>
<polygon fill="#757575" stroke="#757575" points="1415.54,-655.52 1425.22,-651.22 1414.97,-648.54 1415.54,-655.52"/>
</g>
<!-- component/Dashboard/DashboardHeader/SelectRealTimeListItem.tsx -->
<g id="node24" class="node">
<title>component/Dashboard/DashboardHeader/SelectRealTimeListItem.tsx</title>
<path fill="none" stroke="#cfffac" d="M1797.33,-691.63C1797.33,-691.63 1352.67,-691.63 1352.67,-691.63 1348.83,-691.63 1345,-687.8 1345,-683.96 1345,-683.96 1345,-676.3 1345,-676.3 1345,-672.46 1348.83,-668.63 1352.67,-668.63 1352.67,-668.63 1797.33,-668.63 1797.33,-668.63 1801.17,-668.63 1805,-672.46 1805,-676.3 1805,-676.3 1805,-683.96 1805,-683.96 1805,-687.8 1801.17,-691.63 1797.33,-691.63"/>
<text text-anchor="middle" x="1575" y="-676.43" font-family="Arial" font-size="14.00" fill="#cfffac">component/Dashboard/DashboardHeader/SelectRealTimeListItem.tsx</text>
</g>
<!-- component/Dashboard/DashboardHeader/SelectRealTimeRangeArea.tsx&#45;&gt;component/Dashboard/DashboardHeader/SelectRealTimeListItem.tsx -->
<g id="edge21" class="edge">
<title>component/Dashboard/DashboardHeader/SelectRealTimeRangeArea.tsx&#45;&gt;component/Dashboard/DashboardHeader/SelectRealTimeListItem.tsx</title>
<path fill="none" stroke="#757575" d="M1309.19,-680.13C1317.23,-680.13 1325.28,-680.13 1333.32,-680.13"/>
<polygon fill="#757575" stroke="#757575" points="1333.15,-683.63 1343.15,-680.13 1333.15,-676.63 1333.15,-683.63"/>
</g>
<!-- store/DashboardProvider.tsx&#45;&gt;common/date.ts -->
<g id="edge61" class="edge">
<title>store/DashboardProvider.tsx&#45;&gt;common/date.ts</title>
<path fill="none" stroke="#757575" d="M1673.97,-557.13C1756.13,-557.13 1871.45,-557.13 1944.69,-557.13"/>
<polygon fill="#757575" stroke="#757575" points="1944.56,-560.63 1954.56,-557.13 1944.56,-553.63 1944.56,-560.63"/>
</g>
<!-- store/WidgetProvider.tsx&#45;&gt;hook/useBoolean.tsx -->
<g id="edge62" class="edge">
<title>store/WidgetProvider.tsx&#45;&gt;hook/useBoolean.tsx</title>
<path fill="none" stroke="#757575" d="M1123.34,-536.12C1178.68,-548.06 1267.48,-566.15 1345,-577.13 1392.35,-583.84 1445.53,-588.87 1488.72,-592.32"/>
<polygon fill="#757575" stroke="#757575" points="1488.29,-595.8 1498.54,-593.09 1488.84,-588.82 1488.29,-595.8"/>
</g>
<!-- store/WidgetProvider.tsx&#45;&gt;types/widget.d.ts -->
<g id="edge63" class="edge">
<title>store/WidgetProvider.tsx&#45;&gt;types/widget.d.ts</title>
<path fill="none" stroke="#757575" d="M1155.37,-517.32C1252.88,-509.59 1410.27,-497.11 1501.74,-489.86"/>
<polygon fill="#757575" stroke="#757575" points="1501.91,-493.36 1511.6,-489.08 1501.35,-486.38 1501.91,-493.36"/>
</g>
<!-- component/common/DatePicker/ListPicker.tsx -->
<g id="node34" class="node">
<title>component/common/DatePicker/ListPicker.tsx</title>
<path fill="none" stroke="#c6c5fe" d="M2162.33,-874.63C2162.33,-874.63 1869.67,-874.63 1869.67,-874.63 1865.83,-874.63 1862,-870.8 1862,-866.96 1862,-866.96 1862,-859.3 1862,-859.3 1862,-855.46 1865.83,-851.63 1869.67,-851.63 1869.67,-851.63 2162.33,-851.63 2162.33,-851.63 2166.17,-851.63 2170,-855.46 2170,-859.3 2170,-859.3 2170,-866.96 2170,-866.96 2170,-870.8 2166.17,-874.63 2162.33,-874.63"/>
<text text-anchor="middle" x="2016" y="-859.43" font-family="Arial" font-size="14.00" fill="#c6c5fe">component/common/DatePicker/ListPicker.tsx</text>
</g>
<!-- component/common/DatePicker.tsx&#45;&gt;component/common/DatePicker/ListPicker.tsx -->
<g id="edge50" class="edge">
<title>component/common/DatePicker.tsx&#45;&gt;component/common/DatePicker/ListPicker.tsx</title>
<path fill="none" stroke="#757575" d="M1696.25,-877.65C1743.78,-875.49 1799.19,-872.96 1850.34,-870.63"/>
<polygon fill="#757575" stroke="#757575" points="1850.19,-874.14 1860.02,-870.19 1849.87,-867.15 1850.19,-874.14"/>
</g>
<!-- types/datePicker.d.ts -->
<g id="node35" class="node">
<title>types/datePicker.d.ts</title>
<path fill="none" stroke="#cfffac" d="M2368.33,-894.63C2368.33,-894.63 2234.67,-894.63 2234.67,-894.63 2230.83,-894.63 2227,-890.8 2227,-886.96 2227,-886.96 2227,-879.3 2227,-879.3 2227,-875.46 2230.83,-871.63 2234.67,-871.63 2234.67,-871.63 2368.33,-871.63 2368.33,-871.63 2372.17,-871.63 2376,-875.46 2376,-879.3 2376,-879.3 2376,-886.96 2376,-886.96 2376,-890.8 2372.17,-894.63 2368.33,-894.63"/>
<text text-anchor="middle" x="2301.5" y="-879.43" font-family="Arial" font-size="14.00" fill="#cfffac">types/datePicker.d.ts</text>
</g>
<!-- component/common/DatePicker.tsx&#45;&gt;types/datePicker.d.ts -->
<g id="edge51" class="edge">
<title>component/common/DatePicker.tsx&#45;&gt;types/datePicker.d.ts</title>
<path fill="none" stroke="#757575" d="M1696.49,-883.77C1820.48,-884.32 2019.23,-884.91 2191,-884.13 2198.82,-884.09 2206.95,-884.04 2215.09,-883.99"/>
<polygon fill="#757575" stroke="#757575" points="2215.09,-887.49 2225.07,-883.91 2215.04,-880.49 2215.09,-887.49"/>
</g>
<!-- component/Dashboard/WidgetPropsSettingModal.tsx -->
<g id="node25" class="node">
<title>component/Dashboard/WidgetPropsSettingModal.tsx</title>
<path fill="none" stroke="#c6c5fe" d="M784.33,-516.63C784.33,-516.63 446.67,-516.63 446.67,-516.63 442.83,-516.63 439,-512.8 439,-508.96 439,-508.96 439,-501.3 439,-501.3 439,-497.46 442.83,-493.63 446.67,-493.63 446.67,-493.63 784.33,-493.63 784.33,-493.63 788.17,-493.63 792,-497.46 792,-501.3 792,-501.3 792,-508.96 792,-508.96 792,-512.8 788.17,-516.63 784.33,-516.63"/>
<text text-anchor="middle" x="615.5" y="-501.43" font-family="Arial" font-size="14.00" fill="#c6c5fe">component/Dashboard/WidgetPropsSettingModal.tsx</text>
</g>
<!-- component/Dashboard/WidgetPropsSettingModal.tsx&#45;&gt;api.ts -->
<g id="edge25" class="edge">
<title>component/Dashboard/WidgetPropsSettingModal.tsx&#45;&gt;api.ts</title>
<path fill="none" stroke="#757575" d="M670.9,-493.19C763.79,-472.8 950.66,-431.78 1030.24,-414.31"/>
<polygon fill="#757575" stroke="#757575" points="1030.68,-417.79 1039.7,-412.23 1029.18,-410.96 1030.68,-417.79"/>
</g>
<!-- component/Dashboard/WidgetPropsSettingModal.tsx&#45;&gt;store/WidgetProvider.tsx -->
<g id="edge26" class="edge">
<title>component/Dashboard/WidgetPropsSettingModal.tsx&#45;&gt;store/WidgetProvider.tsx</title>
<path fill="none" stroke="#757575" d="M792.48,-512.54C853.05,-515.1 918.63,-517.86 970.56,-520.05"/>
<polygon fill="#757575" stroke="#757575" points="970.11,-523.53 980.25,-520.45 970.4,-516.54 970.11,-523.53"/>
</g>
<!-- component/Widget.tsx -->
<g id="node26" class="node">
<title>component/Widget.tsx</title>
<path fill="none" stroke="#c6c5fe" d="M687.33,-357.63C687.33,-357.63 543.67,-357.63 543.67,-357.63 539.83,-357.63 536,-353.8 536,-349.96 536,-349.96 536,-342.3 536,-342.3 536,-338.46 539.83,-334.63 543.67,-334.63 543.67,-334.63 687.33,-334.63 687.33,-334.63 691.17,-334.63 695,-338.46 695,-342.3 695,-342.3 695,-349.96 695,-349.96 695,-353.8 691.17,-357.63 687.33,-357.63"/>
<text text-anchor="middle" x="615.5" y="-342.43" font-family="Arial" font-size="14.00" fill="#c6c5fe">component/Widget.tsx</text>
</g>
<!-- component/Widget.tsx&#45;&gt;api.ts -->
<g id="edge27" class="edge">
<title>component/Widget.tsx&#45;&gt;api.ts</title>
<path fill="none" stroke="#757575" d="M685.43,-358.13C726.71,-365.08 780.27,-373.71 828,-380.13 899.27,-389.72 982.83,-398.16 1030.03,-402.66"/>
<polygon fill="#757575" stroke="#757575" points="1029.43,-406.12 1039.71,-403.58 1030.09,-399.15 1029.43,-406.12"/>
</g>
<!-- component/Widget.tsx&#45;&gt;types/api.d.ts -->
<g id="edge34" class="edge">
<title>component/Widget.tsx&#45;&gt;types/api.d.ts</title>
<path fill="none" stroke="#757575" d="M664,-334.22C706.62,-324.18 771.04,-310.6 828,-305.13 1040.8,-284.69 1097.62,-273.17 1309,-305.13 1391.74,-317.64 1484.24,-350.94 1535.14,-371.05"/>
<polygon fill="#757575" stroke="#757575" points="1533.66,-374.23 1544.24,-374.69 1536.25,-367.73 1533.66,-374.23"/>
</g>
<!-- component/Widget.tsx&#45;&gt;common/date.ts -->
<g id="edge28" class="edge">
<title>component/Widget.tsx&#45;&gt;common/date.ts</title>
<path fill="none" stroke="#757575" d="M637.23,-334.23C674.14,-313.8 754.29,-272.85 828,-258.13 1040.91,-215.6 1612.53,-166.66 1805,-267.13 1918.18,-326.21 1984.93,-477.16 2006.89,-534.54"/>
<polygon fill="#757575" stroke="#757575" points="2003.6,-535.73 2010.37,-543.87 2010.16,-533.28 2003.6,-535.73"/>
</g>
<!-- component/Widget.tsx&#45;&gt;common/widget.ts -->
<g id="edge29" class="edge">
<title>component/Widget.tsx&#45;&gt;common/widget.ts</title>
<path fill="none" stroke="#757575" d="M645.99,-334.18C686.29,-318.56 761.21,-292.01 828,-282.13 1070.38,-246.26 1361.93,-266.68 1497.6,-279.79"/>
<polygon fill="#757575" stroke="#757575" points="1496.87,-283.23 1507.16,-280.72 1497.55,-276.26 1496.87,-283.23"/>
</g>
<!-- component/Widget.tsx&#45;&gt;store/DashboardProvider.tsx -->
<g id="edge32" class="edge">
<title>component/Widget.tsx&#45;&gt;store/DashboardProvider.tsx</title>
<path fill="none" stroke="#757575" d="M642.64,-358C682.04,-375.43 759.33,-407.85 828,-426.13 1037.21,-481.82 1095.99,-464.4 1309,-503.13 1376.93,-515.48 1454.25,-531.46 1507.76,-542.82"/>
<polygon fill="#757575" stroke="#757575" points="1506.82,-546.2 1517.33,-544.86 1508.28,-539.35 1506.82,-546.2"/>
</g>
<!-- component/Widget.tsx&#45;&gt;store/WidgetProvider.tsx -->
<g id="edge33" class="edge">
<title>component/Widget.tsx&#45;&gt;store/WidgetProvider.tsx</title>
<path fill="none" stroke="#757575" d="M635.03,-358.05C670.96,-380.72 753.17,-430.44 828,-460.13 883.11,-482 948.27,-498.87 996.7,-509.78"/>
<polygon fill="#757575" stroke="#757575" points="995.7,-513.14 1006.22,-511.89 997.22,-506.31 995.7,-513.14"/>
</g>
<!-- component/Widget.tsx&#45;&gt;types/widget.d.ts -->
<g id="edge35" class="edge">
<title>component/Widget.tsx&#45;&gt;types/widget.d.ts</title>
<path fill="none" stroke="#757575" d="M695.42,-345.76C852.03,-345.82 1196.63,-350.07 1309,-385.13 1326.9,-390.71 1328.01,-399.2 1345,-407.13 1402.01,-433.72 1470.82,-455.58 1518.03,-469.13"/>
<polygon fill="#757575" stroke="#757575" points="1516.92,-472.45 1527.5,-471.81 1518.83,-465.72 1516.92,-472.45"/>
</g>
<!-- component/Widget/WidgetChart.tsx -->
<g id="node27" class="node">
<title>component/Widget/WidgetChart.tsx</title>
<path fill="none" stroke="#c6c5fe" d="M1181.83,-161.63C1181.83,-161.63 955.17,-161.63 955.17,-161.63 951.33,-161.63 947.5,-157.8 947.5,-153.96 947.5,-153.96 947.5,-146.3 947.5,-146.3 947.5,-142.46 951.33,-138.63 955.17,-138.63 955.17,-138.63 1181.83,-138.63 1181.83,-138.63 1185.67,-138.63 1189.5,-142.46 1189.5,-146.3 1189.5,-146.3 1189.5,-153.96 1189.5,-153.96 1189.5,-157.8 1185.67,-161.63 1181.83,-161.63"/>
<text text-anchor="middle" x="1068.5" y="-146.43" font-family="Arial" font-size="14.00" fill="#c6c5fe">component/Widget/WidgetChart.tsx</text>
</g>
<!-- component/Widget.tsx&#45;&gt;component/Widget/WidgetChart.tsx -->
<g id="edge30" class="edge">
<title>component/Widget.tsx&#45;&gt;component/Widget/WidgetChart.tsx</title>
<path fill="none" stroke="#757575" d="M628.68,-334.54C659.38,-306.02 743.54,-232.17 828,-196.13 863.36,-181.04 903.76,-170.87 941.18,-164.03"/>
<polygon fill="#757575" stroke="#757575" points="941.43,-167.54 950.67,-162.36 940.22,-160.64 941.43,-167.54"/>
</g>
<!-- component/Widget/WidgetModal.tsx -->
<g id="node28" class="node">
<title>component/Widget/WidgetModal.tsx</title>
<path fill="none" stroke="#c6c5fe" d="M1184.33,-337.63C1184.33,-337.63 952.67,-337.63 952.67,-337.63 948.83,-337.63 945,-333.8 945,-329.96 945,-329.96 945,-322.3 945,-322.3 945,-318.46 948.83,-314.63 952.67,-314.63 952.67,-314.63 1184.33,-314.63 1184.33,-314.63 1188.17,-314.63 1192,-318.46 1192,-322.3 1192,-322.3 1192,-329.96 1192,-329.96 1192,-333.8 1188.17,-337.63 1184.33,-337.63"/>
<text text-anchor="middle" x="1068.5" y="-322.43" font-family="Arial" font-size="14.00" fill="#c6c5fe">component/Widget/WidgetModal.tsx</text>
</g>
<!-- component/Widget.tsx&#45;&gt;component/Widget/WidgetModal.tsx -->
<g id="edge31" class="edge">
<title>component/Widget.tsx&#45;&gt;component/Widget/WidgetModal.tsx</title>
<path fill="none" stroke="#757575" d="M695.32,-342.63C760.9,-339.73 855.72,-335.52 933.24,-332.08"/>
<polygon fill="#757575" stroke="#757575" points="933.19,-335.59 943.03,-331.65 932.88,-328.6 933.19,-335.59"/>
</g>
<!-- component/chart/BarChart.tsx -->
<g id="node29" class="node">
<title>component/chart/BarChart.tsx</title>
<path fill="none" stroke="#c6c5fe" d="M1668.83,-121.63C1668.83,-121.63 1481.17,-121.63 1481.17,-121.63 1477.33,-121.63 1473.5,-117.8 1473.5,-113.96 1473.5,-113.96 1473.5,-106.3 1473.5,-106.3 1473.5,-102.46 1477.33,-98.63 1481.17,-98.63 1481.17,-98.63 1668.83,-98.63 1668.83,-98.63 1672.67,-98.63 1676.5,-102.46 1676.5,-106.3 1676.5,-106.3 1676.5,-113.96 1676.5,-113.96 1676.5,-117.8 1672.67,-121.63 1668.83,-121.63"/>
<text text-anchor="middle" x="1575" y="-106.43" font-family="Arial" font-size="14.00" fill="#c6c5fe">component/chart/BarChart.tsx</text>
</g>
<!-- component/Widget/WidgetChart.tsx&#45;&gt;component/chart/BarChart.tsx -->
<g id="edge36" class="edge">
<title>component/Widget/WidgetChart.tsx&#45;&gt;component/chart/BarChart.tsx</title>
<path fill="none" stroke="#757575" d="M1189.7,-140.6C1272.37,-134.05 1381.4,-125.4 1462.2,-118.99"/>
<polygon fill="#757575" stroke="#757575" points="1462.21,-122.5 1471.9,-118.23 1461.65,-115.53 1462.21,-122.5"/>
</g>
<!-- component/chart/InformaticsChart.tsx -->
<g id="node30" class="node">
<title>component/chart/InformaticsChart.tsx</title>
<path fill="none" stroke="#c6c5fe" d="M1693.33,-181.63C1693.33,-181.63 1456.67,-181.63 1456.67,-181.63 1452.83,-181.63 1449,-177.8 1449,-173.96 1449,-173.96 1449,-166.3 1449,-166.3 1449,-162.46 1452.83,-158.63 1456.67,-158.63 1456.67,-158.63 1693.33,-158.63 1693.33,-158.63 1697.17,-158.63 1701,-162.46 1701,-166.3 1701,-166.3 1701,-173.96 1701,-173.96 1701,-177.8 1697.17,-181.63 1693.33,-181.63"/>
<text text-anchor="middle" x="1575" y="-166.43" font-family="Arial" font-size="14.00" fill="#c6c5fe">component/chart/InformaticsChart.tsx</text>
</g>
<!-- component/Widget/WidgetChart.tsx&#45;&gt;component/chart/InformaticsChart.tsx -->
<g id="edge37" class="edge">
<title>component/Widget/WidgetChart.tsx&#45;&gt;component/chart/InformaticsChart.tsx</title>
<path fill="none" stroke="#757575" d="M1189.7,-154.9C1264.15,-157.85 1359.96,-161.64 1437.3,-164.71"/>
<polygon fill="#757575" stroke="#757575" points="1436.92,-168.2 1447.06,-165.1 1437.2,-161.2 1436.92,-168.2"/>
</g>
<!-- component/chart/LineChart.tsx -->
<g id="node31" class="node">
<title>component/chart/LineChart.tsx</title>
<path fill="none" stroke="#c6c5fe" d="M1671.83,-80.63C1671.83,-80.63 1478.17,-80.63 1478.17,-80.63 1474.33,-80.63 1470.5,-76.8 1470.5,-72.96 1470.5,-72.96 1470.5,-65.3 1470.5,-65.3 1470.5,-61.46 1474.33,-57.63 1478.17,-57.63 1478.17,-57.63 1671.83,-57.63 1671.83,-57.63 1675.67,-57.63 1679.5,-61.46 1679.5,-65.3 1679.5,-65.3 1679.5,-72.96 1679.5,-72.96 1679.5,-76.8 1675.67,-80.63 1671.83,-80.63"/>
<text text-anchor="middle" x="1575" y="-65.43" font-family="Arial" font-size="14.00" fill="#c6c5fe">component/chart/LineChart.tsx</text>
</g>
<!-- component/Widget/WidgetChart.tsx&#45;&gt;component/chart/LineChart.tsx -->
<g id="edge38" class="edge">
<title>component/Widget/WidgetChart.tsx&#45;&gt;component/chart/LineChart.tsx</title>
<path fill="none" stroke="#757575" d="M1114.98,-138.14C1169.32,-124.26 1263.17,-101.71 1345,-89.13 1381.91,-83.46 1422.43,-79.26 1458.99,-76.22"/>
<polygon fill="#757575" stroke="#757575" points="1459.01,-79.73 1468.7,-75.43 1458.45,-72.75 1459.01,-79.73"/>
</g>
<!-- component/Widget/WidgetModal.tsx&#45;&gt;common/widget.ts -->
<g id="edge39" class="edge">
<title>component/Widget/WidgetModal.tsx&#45;&gt;common/widget.ts</title>
<path fill="none" stroke="#757575" d="M1192.27,-316.88C1287.54,-309.71 1416.61,-299.98 1497.59,-293.89"/>
<polygon fill="#757575" stroke="#757575" points="1497.47,-297.4 1507.18,-293.16 1496.94,-290.42 1497.47,-297.4"/>
</g>
<!-- component/Widget/WidgetModal.tsx&#45;&gt;types/widget.d.ts -->
<g id="edge40" class="edge">
<title>component/Widget/WidgetModal.tsx&#45;&gt;types/widget.d.ts</title>
<path fill="none" stroke="#757575" d="M1192.48,-319.28C1232.08,-322.16 1274.59,-331.04 1309,-352.13 1333.91,-367.39 1321.88,-389.27 1345,-407.13 1390.88,-442.58 1453.98,-462.19 1502.33,-472.74"/>
<polygon fill="#757575" stroke="#757575" points="1501.36,-476.11 1511.86,-474.73 1502.79,-469.26 1501.36,-476.11"/>
</g>
<!-- component/chart/BarChart.tsx&#45;&gt;common/chart.ts -->
<g id="edge41" class="edge">
<title>component/chart/BarChart.tsx&#45;&gt;common/chart.ts</title>
<path fill="none" stroke="#757575" d="M1676.99,-107.83C1758.46,-105.97 1871.04,-103.41 1943.44,-101.76"/>
<polygon fill="#757575" stroke="#757575" points="1943.27,-105.26 1953.19,-101.54 1943.11,-98.27 1943.27,-105.26"/>
</g>
<!-- component/chart/BarChart.tsx&#45;&gt;types/chart.d.ts -->
<g id="edge43" class="edge">
<title>component/chart/BarChart.tsx&#45;&gt;types/chart.d.ts</title>
<path fill="none" stroke="#757575" d="M1676.74,-114.3C1826.95,-120.52 2105.63,-132.06 2233.37,-137.35"/>
<polygon fill="#757575" stroke="#757575" points="2232.87,-140.83 2243,-137.75 2233.16,-133.84 2232.87,-140.83"/>
</g>
<!-- hook/useResize.tsx -->
<g id="node32" class="node">
<title>hook/useResize.tsx</title>
<path fill="none" stroke="#cfffac" d="M2078.33,-70.63C2078.33,-70.63 1953.67,-70.63 1953.67,-70.63 1949.83,-70.63 1946,-66.8 1946,-62.96 1946,-62.96 1946,-55.3 1946,-55.3 1946,-51.46 1949.83,-47.63 1953.67,-47.63 1953.67,-47.63 2078.33,-47.63 2078.33,-47.63 2082.17,-47.63 2086,-51.46 2086,-55.3 2086,-55.3 2086,-62.96 2086,-62.96 2086,-66.8 2082.17,-70.63 2078.33,-70.63"/>
<text text-anchor="middle" x="2016" y="-55.43" font-family="Arial" font-size="14.00" fill="#cfffac">hook/useResize.tsx</text>
</g>
<!-- component/chart/BarChart.tsx&#45;&gt;hook/useResize.tsx -->
<g id="edge42" class="edge">
<title>component/chart/BarChart.tsx&#45;&gt;hook/useResize.tsx</title>
<path fill="none" stroke="#757575" d="M1676.86,-104.8C1716.96,-101.67 1763.37,-96.76 1805,-89.13 1821.33,-86.14 1824.7,-82.31 1841,-79.13 1871.3,-73.22 1904.94,-68.85 1934.49,-65.73"/>
<polygon fill="#757575" stroke="#757575" points="1934.51,-69.25 1944.1,-64.75 1933.8,-62.28 1934.51,-69.25"/>
</g>
<!-- component/chart/InformaticsChart.tsx&#45;&gt;types/chart.d.ts -->
<g id="edge45" class="edge">
<title>component/chart/InformaticsChart.tsx&#45;&gt;types/chart.d.ts</title>
<path fill="none" stroke="#757575" d="M1681.67,-182.13C1755.08,-190.45 1839.95,-200.07 1841,-200.13 1996.31,-208.89 2040.3,-238.71 2191,-200.13 2222.36,-192.1 2254.4,-173.02 2275.65,-158.51"/>
<polygon fill="#757575" stroke="#757575" points="2277.48,-161.51 2283.65,-152.9 2273.45,-155.78 2277.48,-161.51"/>
</g>
<!-- component/chart/InformaticsChart/InforMaticsBox.tsx -->
<g id="node33" class="node">
<title>component/chart/InformaticsChart/InforMaticsBox.tsx</title>
<path fill="none" stroke="#c6c5fe" d="M2183.33,-191.63C2183.33,-191.63 1848.67,-191.63 1848.67,-191.63 1844.83,-191.63 1841,-187.8 1841,-183.96 1841,-183.96 1841,-176.3 1841,-176.3 1841,-172.46 1844.83,-168.63 1848.67,-168.63 1848.67,-168.63 2183.33,-168.63 2183.33,-168.63 2187.17,-168.63 2191,-172.46 2191,-176.3 2191,-176.3 2191,-183.96 2191,-183.96 2191,-187.8 2187.17,-191.63 2183.33,-191.63"/>
<text text-anchor="middle" x="2016" y="-176.43" font-family="Arial" font-size="14.00" fill="#c6c5fe">component/chart/InformaticsChart/InforMaticsBox.tsx</text>
</g>
<!-- component/chart/InformaticsChart.tsx&#45;&gt;component/chart/InformaticsChart/InforMaticsBox.tsx -->
<g id="edge44" class="edge">
<title>component/chart/InformaticsChart.tsx&#45;&gt;component/chart/InformaticsChart/InforMaticsBox.tsx</title>
<path fill="none" stroke="#757575" d="M1701.21,-172.98C1741.08,-173.89 1786.07,-174.92 1829.27,-175.9"/>
<polygon fill="#757575" stroke="#757575" points="1828.92,-179.39 1838.99,-176.12 1829.08,-172.39 1828.92,-179.39"/>
</g>
<!-- component/chart/LineChart.tsx&#45;&gt;common/chart.ts -->
<g id="edge47" class="edge">
<title>component/chart/LineChart.tsx&#45;&gt;common/chart.ts</title>
<path fill="none" stroke="#757575" d="M1679.76,-76.46C1760.98,-82.19 1871.81,-90.02 1943.4,-95.07"/>
<polygon fill="#757575" stroke="#757575" points="1942.81,-98.54 1953.03,-95.75 1943.3,-91.56 1942.81,-98.54"/>
</g>
<!-- component/chart/LineChart.tsx&#45;&gt;types/chart.d.ts -->
<g id="edge49" class="edge">
<title>component/chart/LineChart.tsx&#45;&gt;types/chart.d.ts</title>
<path fill="none" stroke="#757575" d="M1612.69,-57.14C1710.73,-27.2 1985.33,42.82 2191,-38.13 2232.22,-54.35 2267.11,-94.22 2285.81,-119.03"/>
<polygon fill="#757575" stroke="#757575" points="2282.98,-121.09 2291.7,-127.1 2288.64,-116.96 2282.98,-121.09"/>
</g>
<!-- component/chart/LineChart.tsx&#45;&gt;hook/useResize.tsx -->
<g id="edge48" class="edge">
<title>component/chart/LineChart.tsx&#45;&gt;hook/useResize.tsx</title>
<path fill="none" stroke="#757575" d="M1679.76,-66.77C1757.73,-64.99 1862.99,-62.59 1934.62,-60.96"/>
<polygon fill="#757575" stroke="#757575" points="1934.39,-64.47 1944.31,-60.74 1934.23,-57.47 1934.39,-64.47"/>
</g>
<!-- component/chart/InformaticsChart/InforMaticsBox.tsx&#45;&gt;types/chart.d.ts -->
<g id="edge46" class="edge">
<title>component/chart/InformaticsChart/InforMaticsBox.tsx&#45;&gt;types/chart.d.ts</title>
<path fill="none" stroke="#757575" d="M2101.68,-168.18C2143.85,-162.23 2194.12,-155.14 2233.55,-149.58"/>
<polygon fill="#757575" stroke="#757575" points="2233.99,-153.05 2243.4,-148.19 2233.01,-146.12 2233.99,-153.05"/>
</g>
<!-- component/common/DatePicker/ListPicker.tsx&#45;&gt;types/datePicker.d.ts -->
<g id="edge52" class="edge">
<title>component/common/DatePicker/ListPicker.tsx&#45;&gt;types/datePicker.d.ts</title>
<path fill="none" stroke="#757575" d="M2170.37,-873.95C2185.81,-875.04 2201.07,-876.12 2215.4,-877.13"/>
<polygon fill="#757575" stroke="#757575" points="2214.95,-880.6 2225.17,-877.82 2215.44,-873.62 2214.95,-880.6"/>
</g>
<!-- page/Dashboard.tsx&#45;&gt;component/Dashboard/DashboardHeader.tsx -->
<g id="edge53" class="edge">
<title>page/Dashboard.tsx&#45;&gt;component/Dashboard/DashboardHeader.tsx</title>
<path fill="none" stroke="#757575" d="M340.21,-557.02C356.39,-579.54 394.73,-628.46 439,-654.13 464.14,-668.71 493.95,-678.75 521.8,-685.64"/>
<polygon fill="#757575" stroke="#757575" points="520.76,-688.99 531.3,-687.87 522.37,-682.17 520.76,-688.99"/>
</g>
<!-- page/Dashboard.tsx&#45;&gt;store/DashboardProvider.tsx -->
<g id="edge57" class="edge">
<title>page/Dashboard.tsx&#45;&gt;store/DashboardProvider.tsx</title>
<path fill="none" stroke="#757575" d="M403.35,-549.64C415.25,-550.24 427.47,-550.78 439,-551.13 815.46,-562.67 1262.48,-560.32 1464.83,-558.39"/>
<polygon fill="#757575" stroke="#757575" points="1464.57,-561.9 1474.53,-558.3 1464.5,-554.9 1464.57,-561.9"/>
</g>
<!-- page/Dashboard.tsx&#45;&gt;store/WidgetProvider.tsx -->
<g id="edge58" class="edge">
<title>page/Dashboard.tsx&#45;&gt;store/WidgetProvider.tsx</title>
<path fill="none" stroke="#757575" d="M403.19,-543.1C535.65,-539.32 820.11,-531.19 970.2,-526.91"/>
<polygon fill="#757575" stroke="#757575" points="970.24,-530.41 980.14,-526.62 970.04,-523.41 970.24,-530.41"/>
</g>
<!-- page/Dashboard.tsx&#45;&gt;hook/useBoolean.tsx -->
<g id="edge56" class="edge">
<title>page/Dashboard.tsx&#45;&gt;hook/useBoolean.tsx</title>
<path fill="none" stroke="#757575" d="M376.17,-557.07C395.33,-561.72 418.12,-566.55 439,-569.13 828.88,-617.37 1299.63,-608.07 1489.02,-601.59"/>
<polygon fill="#757575" stroke="#757575" points="1488.88,-605.1 1498.76,-601.25 1488.64,-598.1 1488.88,-605.1"/>
</g>
<!-- page/Dashboard.tsx&#45;&gt;types/widget.d.ts -->
<g id="edge59" class="edge">
<title>page/Dashboard.tsx&#45;&gt;types/widget.d.ts</title>
<path fill="none" stroke="#757575" d="M346.83,-533.3C366.53,-518.42 403.04,-493.66 439,-484.13 828.5,-380.9 1319.94,-442.59 1501.94,-471.59"/>
<polygon fill="#757575" stroke="#757575" points="1501.3,-475.03 1511.73,-473.17 1502.41,-468.12 1501.3,-475.03"/>
</g>
<!-- page/Dashboard.tsx&#45;&gt;component/Dashboard/WidgetPropsSettingModal.tsx -->
<g id="edge54" class="edge">
<title>page/Dashboard.tsx&#45;&gt;component/Dashboard/WidgetPropsSettingModal.tsx</title>
<path fill="none" stroke="#757575" d="M403.29,-535.04C438.32,-530.08 481.04,-524.03 518.87,-518.67"/>
<polygon fill="#757575" stroke="#757575" points="519.01,-522.19 528.42,-517.32 518.02,-515.26 519.01,-522.19"/>
</g>
<!-- page/Dashboard.tsx&#45;&gt;component/Widget.tsx -->
<g id="edge55" class="edge">
<title>page/Dashboard.tsx&#45;&gt;component/Widget.tsx</title>
<path fill="none" stroke="#757575" d="M343.91,-533.37C363.04,-514.77 402.24,-477.93 439,-451.13 486.39,-416.58 545.7,-382.89 581.81,-363.35"/>
<polygon fill="#757575" stroke="#757575" points="583.31,-366.52 590.46,-358.7 579.99,-360.35 583.31,-366.52"/>
</g>
</g>
</svg>
