<?xml version="1.0" encoding="UTF-8" standalone="no"?>
<!DOCTYPE svg PUBLIC "-//W3C//DTD SVG 1.1//EN"
 "http://www.w3.org/Graphics/SVG/1.1/DTD/svg11.dtd">
<!-- Generated by graphviz version 7.1.0 (20230121.1956)
 -->
<!-- Title: G Pages: 1 -->
<svg width="3080pt" height="1204pt"
 viewBox="0.00 0.00 3080.20 1203.95" xmlns="http://www.w3.org/2000/svg" xmlns:xlink="http://www.w3.org/1999/xlink">
<g id="graph0" class="graph" transform="scale(1 1) rotate(0) translate(21.6 1182.35)">
<title>G</title>
<polygon fill="#111111" stroke="none" points="-21.6,21.6 -21.6,-1182.35 3058.6,-1182.35 3058.6,21.6 -21.6,21.6"/>
<!-- App.tsx -->
<g id="node1" class="node">
<title>App.tsx</title>
<path fill="none" stroke="#c6c5fe" d="M57.33,-457.29C57.33,-457.29 7.67,-457.29 7.67,-457.29 3.83,-457.29 0,-453.46 0,-449.62 0,-449.62 0,-441.96 0,-441.96 0,-438.12 3.83,-434.29 7.67,-434.29 7.67,-434.29 57.33,-434.29 57.33,-434.29 61.17,-434.29 65,-438.12 65,-441.96 65,-441.96 65,-449.62 65,-449.62 65,-453.46 61.17,-457.29 57.33,-457.29"/>
<text text-anchor="middle" x="32.5" y="-442.09" font-family="Arial" font-size="14.00" fill="#c6c5fe">App.tsx</text>
</g>
<!-- router/Router.tsx -->
<g id="node2" class="node">
<title>router/Router.tsx</title>
<path fill="none" stroke="#c6c5fe" d="M215.33,-457.29C215.33,-457.29 108.67,-457.29 108.67,-457.29 104.83,-457.29 101,-453.46 101,-449.62 101,-449.62 101,-441.96 101,-441.96 101,-438.12 104.83,-434.29 108.67,-434.29 108.67,-434.29 215.33,-434.29 215.33,-434.29 219.17,-434.29 223,-438.12 223,-441.96 223,-441.96 223,-449.62 223,-449.62 223,-453.46 219.17,-457.29 215.33,-457.29"/>
<text text-anchor="middle" x="162" y="-442.09" font-family="Arial" font-size="14.00" fill="#c6c5fe">router/Router.tsx</text>
</g>
<!-- App.tsx&#45;&gt;router/Router.tsx -->
<g id="edge1" class="edge">
<title>App.tsx&#45;&gt;router/Router.tsx</title>
<path fill="none" stroke="#757575" d="M65.34,-445.79C72.7,-445.79 80.81,-445.79 89.12,-445.79"/>
<polygon fill="#757575" stroke="#757575" points="88.99,-449.29 98.99,-445.79 88.99,-442.29 88.99,-449.29"/>
</g>
<!-- page/Dashboard.tsx -->
<g id="node48" class="node">
<title>page/Dashboard.tsx</title>
<path fill="none" stroke="#c6c5fe" d="M395.33,-457.29C395.33,-457.29 266.67,-457.29 266.67,-457.29 262.83,-457.29 259,-453.46 259,-449.62 259,-449.62 259,-441.96 259,-441.96 259,-438.12 262.83,-434.29 266.67,-434.29 266.67,-434.29 395.33,-434.29 395.33,-434.29 399.17,-434.29 403,-438.12 403,-441.96 403,-441.96 403,-449.62 403,-449.62 403,-453.46 399.17,-457.29 395.33,-457.29"/>
<text text-anchor="middle" x="331" y="-442.09" font-family="Arial" font-size="14.00" fill="#c6c5fe">page/Dashboard.tsx</text>
</g>
<!-- router/Router.tsx&#45;&gt;page/Dashboard.tsx -->
<g id="edge73" class="edge">
<title>router/Router.tsx&#45;&gt;page/Dashboard.tsx</title>
<path fill="none" stroke="#757575" d="M223.29,-445.79C231.1,-445.79 239.21,-445.79 247.3,-445.79"/>
<polygon fill="#757575" stroke="#757575" points="247.19,-449.29 257.19,-445.79 247.19,-442.29 247.19,-449.29"/>
</g>
<!-- asset/image/pause.png -->
<g id="node3" class="node">
<title>asset/image/pause.png</title>
<path fill="none" stroke="#cfffac" d="M1619.83,-818.29C1619.83,-818.29 1471.17,-818.29 1471.17,-818.29 1467.33,-818.29 1463.5,-814.46 1463.5,-810.62 1463.5,-810.62 1463.5,-802.96 1463.5,-802.96 1463.5,-799.12 1467.33,-795.29 1471.17,-795.29 1471.17,-795.29 1619.83,-795.29 1619.83,-795.29 1623.67,-795.29 1627.5,-799.12 1627.5,-802.96 1627.5,-802.96 1627.5,-810.62 1627.5,-810.62 1627.5,-814.46 1623.67,-818.29 1619.83,-818.29"/>
<text text-anchor="middle" x="1545.5" y="-803.09" font-family="Arial" font-size="14.00" fill="#cfffac">asset/image/pause.png</text>
</g>
<!-- asset/image/play.png -->
<g id="node4" class="node">
<title>asset/image/play.png</title>
<path fill="none" stroke="#cfffac" d="M1613.33,-859.29C1613.33,-859.29 1477.67,-859.29 1477.67,-859.29 1473.83,-859.29 1470,-855.46 1470,-851.62 1470,-851.62 1470,-843.96 1470,-843.96 1470,-840.12 1473.83,-836.29 1477.67,-836.29 1477.67,-836.29 1613.33,-836.29 1613.33,-836.29 1617.17,-836.29 1621,-840.12 1621,-843.96 1621,-843.96 1621,-851.62 1621,-851.62 1621,-855.46 1617.17,-859.29 1613.33,-859.29"/>
<text text-anchor="middle" x="1545.5" y="-844.09" font-family="Arial" font-size="14.00" fill="#cfffac">asset/image/play.png</text>
</g>
<!-- common/api.ts -->
<g id="node5" class="node">
<title>common/api.ts</title>
<path fill="none" stroke="#c6c5fe" d="M2100.83,-417.29C2100.83,-417.29 2006.17,-417.29 2006.17,-417.29 2002.33,-417.29 1998.5,-413.46 1998.5,-409.62 1998.5,-409.62 1998.5,-401.96 1998.5,-401.96 1998.5,-398.12 2002.33,-394.29 2006.17,-394.29 2006.17,-394.29 2100.83,-394.29 2100.83,-394.29 2104.67,-394.29 2108.5,-398.12 2108.5,-401.96 2108.5,-401.96 2108.5,-409.62 2108.5,-409.62 2108.5,-413.46 2104.67,-417.29 2100.83,-417.29"/>
<text text-anchor="middle" x="2053.5" y="-402.09" font-family="Arial" font-size="14.00" fill="#c6c5fe">common/api.ts</text>
</g>
<!-- types/api.d.ts -->
<g id="node6" class="node">
<title>types/api.d.ts</title>
<path fill="none" stroke="#cfffac" d="M2535.33,-417.29C2535.33,-417.29 2449.67,-417.29 2449.67,-417.29 2445.83,-417.29 2442,-413.46 2442,-409.62 2442,-409.62 2442,-401.96 2442,-401.96 2442,-398.12 2445.83,-394.29 2449.67,-394.29 2449.67,-394.29 2535.33,-394.29 2535.33,-394.29 2539.17,-394.29 2543,-398.12 2543,-401.96 2543,-401.96 2543,-409.62 2543,-409.62 2543,-413.46 2539.17,-417.29 2535.33,-417.29"/>
<text text-anchor="middle" x="2492.5" y="-402.09" font-family="Arial" font-size="14.00" fill="#cfffac">types/api.d.ts</text>
</g>
<!-- common/api.ts&#45;&gt;types/api.d.ts -->
<g id="edge2" class="edge">
<title>common/api.ts&#45;&gt;types/api.d.ts</title>
<path fill="none" stroke="#757575" d="M2108.96,-405.79C2190.77,-405.79 2344.89,-405.79 2430.41,-405.79"/>
<polygon fill="#757575" stroke="#757575" points="2430.25,-409.29 2440.25,-405.79 2430.25,-402.29 2430.25,-409.29"/>
</g>
<!-- common/chart.ts -->
<g id="node7" class="node">
<title>common/chart.ts</title>
<path fill="none" stroke="#c6c5fe" d="M2106.83,-181.29C2106.83,-181.29 2000.17,-181.29 2000.17,-181.29 1996.33,-181.29 1992.5,-177.46 1992.5,-173.62 1992.5,-173.62 1992.5,-165.96 1992.5,-165.96 1992.5,-162.12 1996.33,-158.29 2000.17,-158.29 2000.17,-158.29 2106.83,-158.29 2106.83,-158.29 2110.67,-158.29 2114.5,-162.12 2114.5,-165.96 2114.5,-165.96 2114.5,-173.62 2114.5,-173.62 2114.5,-177.46 2110.67,-181.29 2106.83,-181.29"/>
<text text-anchor="middle" x="2053.5" y="-166.09" font-family="Arial" font-size="14.00" fill="#c6c5fe">common/chart.ts</text>
</g>
<!-- types/chart.d.ts -->
<g id="node8" class="node">
<title>types/chart.d.ts</title>
<path fill="none" stroke="#cfffac" d="M2541.33,-261.29C2541.33,-261.29 2443.67,-261.29 2443.67,-261.29 2439.83,-261.29 2436,-257.46 2436,-253.62 2436,-253.62 2436,-245.96 2436,-245.96 2436,-242.12 2439.83,-238.29 2443.67,-238.29 2443.67,-238.29 2541.33,-238.29 2541.33,-238.29 2545.17,-238.29 2549,-242.12 2549,-245.96 2549,-245.96 2549,-253.62 2549,-253.62 2549,-257.46 2545.17,-261.29 2541.33,-261.29"/>
<text text-anchor="middle" x="2492.5" y="-246.09" font-family="Arial" font-size="14.00" fill="#cfffac">types/chart.d.ts</text>
</g>
<!-- common/chart.ts&#45;&gt;types/chart.d.ts -->
<g id="edge3" class="edge">
<title>common/chart.ts&#45;&gt;types/chart.d.ts</title>
<path fill="none" stroke="#757575" d="M2114.55,-174.19C2161.27,-178.18 2227.59,-185.1 2285,-195.79 2339.23,-205.88 2400.21,-222.5 2441.76,-234.63"/>
<polygon fill="#757575" stroke="#757575" points="2440.64,-237.95 2451.22,-237.42 2442.62,-231.24 2440.64,-237.95"/>
</g>
<!-- common/date.ts -->
<g id="node9" class="node">
<title>common/date.ts</title>
<path fill="none" stroke="#cfffac" d="M2544.33,-696.29C2544.33,-696.29 2440.67,-696.29 2440.67,-696.29 2436.83,-696.29 2433,-692.46 2433,-688.62 2433,-688.62 2433,-680.96 2433,-680.96 2433,-677.12 2436.83,-673.29 2440.67,-673.29 2440.67,-673.29 2544.33,-673.29 2544.33,-673.29 2548.17,-673.29 2552,-677.12 2552,-680.96 2552,-680.96 2552,-688.62 2552,-688.62 2552,-692.46 2548.17,-696.29 2544.33,-696.29"/>
<text text-anchor="middle" x="2492.5" y="-681.09" font-family="Arial" font-size="14.00" fill="#cfffac">common/date.ts</text>
</g>
<!-- common/widget.ts -->
<g id="node10" class="node">
<title>common/widget.ts</title>
<path fill="none" stroke="#cfffac" d="M2111.83,-573.29C2111.83,-573.29 1995.17,-573.29 1995.17,-573.29 1991.33,-573.29 1987.5,-569.46 1987.5,-565.62 1987.5,-565.62 1987.5,-557.96 1987.5,-557.96 1987.5,-554.12 1991.33,-550.29 1995.17,-550.29 1995.17,-550.29 2111.83,-550.29 2111.83,-550.29 2115.67,-550.29 2119.5,-554.12 2119.5,-557.96 2119.5,-557.96 2119.5,-565.62 2119.5,-565.62 2119.5,-569.46 2115.67,-573.29 2111.83,-573.29"/>
<text text-anchor="middle" x="2053.5" y="-558.09" font-family="Arial" font-size="14.00" fill="#cfffac">common/widget.ts</text>
</g>
<!-- component/Dashboard/DashboardHeader.tsx -->
<g id="node11" class="node">
<title>component/Dashboard/DashboardHeader.tsx</title>
<path fill="none" stroke="#c6c5fe" d="M747.33,-777.29C747.33,-777.29 459.67,-777.29 459.67,-777.29 455.83,-777.29 452,-773.46 452,-769.62 452,-769.62 452,-761.96 452,-761.96 452,-758.12 455.83,-754.29 459.67,-754.29 459.67,-754.29 747.33,-754.29 747.33,-754.29 751.17,-754.29 755,-758.12 755,-761.96 755,-761.96 755,-769.62 755,-769.62 755,-773.46 751.17,-777.29 747.33,-777.29"/>
<text text-anchor="middle" x="603.5" y="-762.09" font-family="Arial" font-size="14.00" fill="#c6c5fe">component/Dashboard/DashboardHeader.tsx</text>
</g>
<!-- component/Dashboard/DashboardHeader/PlayIcon.tsx -->
<g id="node12" class="node">
<title>component/Dashboard/DashboardHeader/PlayIcon.tsx</title>
<path fill="none" stroke="#c6c5fe" d="M1209.83,-818.29C1209.83,-818.29 863.17,-818.29 863.17,-818.29 859.33,-818.29 855.5,-814.46 855.5,-810.62 855.5,-810.62 855.5,-802.96 855.5,-802.96 855.5,-799.12 859.33,-795.29 863.17,-795.29 863.17,-795.29 1209.83,-795.29 1209.83,-795.29 1213.67,-795.29 1217.5,-799.12 1217.5,-802.96 1217.5,-802.96 1217.5,-810.62 1217.5,-810.62 1217.5,-814.46 1213.67,-818.29 1209.83,-818.29"/>
<text text-anchor="middle" x="1036.5" y="-803.09" font-family="Arial" font-size="14.00" fill="#c6c5fe">component/Dashboard/DashboardHeader/PlayIcon.tsx</text>
</g>
<!-- component/Dashboard/DashboardHeader.tsx&#45;&gt;component/Dashboard/DashboardHeader/PlayIcon.tsx -->
<g id="edge4" class="edge">
<title>component/Dashboard/DashboardHeader.tsx&#45;&gt;component/Dashboard/DashboardHeader/PlayIcon.tsx</title>
<path fill="none" stroke="#757575" d="M730.61,-777.79C783.26,-782.79 844.56,-788.63 898.33,-793.74"/>
<polygon fill="#757575" stroke="#757575" points="897.89,-797.21 908.18,-794.68 898.55,-790.25 897.89,-797.21"/>
</g>
<!-- component/Dashboard/DashboardHeader/SelectRealTimeRangeArea.tsx -->
<g id="node13" class="node">
<title>component/Dashboard/DashboardHeader/SelectRealTimeRangeArea.tsx</title>
<path fill="none" stroke="#c6c5fe" d="M1778.33,-777.29C1778.33,-777.29 1312.67,-777.29 1312.67,-777.29 1308.83,-777.29 1305,-773.46 1305,-769.62 1305,-769.62 1305,-761.96 1305,-761.96 1305,-758.12 1308.83,-754.29 1312.67,-754.29 1312.67,-754.29 1778.33,-754.29 1778.33,-754.29 1782.17,-754.29 1786,-758.12 1786,-761.96 1786,-761.96 1786,-769.62 1786,-769.62 1786,-773.46 1782.17,-777.29 1778.33,-777.29"/>
<text text-anchor="middle" x="1545.5" y="-762.09" font-family="Arial" font-size="14.00" fill="#c6c5fe">component/Dashboard/DashboardHeader/SelectRealTimeRangeArea.tsx</text>
</g>
<!-- component/Dashboard/DashboardHeader.tsx&#45;&gt;component/Dashboard/DashboardHeader/SelectRealTimeRangeArea.tsx -->
<g id="edge5" class="edge">
<title>component/Dashboard/DashboardHeader.tsx&#45;&gt;component/Dashboard/DashboardHeader/SelectRealTimeRangeArea.tsx</title>
<path fill="none" stroke="#757575" d="M755.27,-765.79C900.13,-765.79 1121.73,-765.79 1293.27,-765.79"/>
<polygon fill="#757575" stroke="#757575" points="1293.24,-769.29 1303.24,-765.79 1293.24,-762.29 1293.24,-769.29"/>
</g>
<!-- component/Dashboard/DashboardHeader/TimeBlock.tsx -->
<g id="node14" class="node">
<title>component/Dashboard/DashboardHeader/TimeBlock.tsx</title>
<path fill="none" stroke="#c6c5fe" d="M1215.83,-900.29C1215.83,-900.29 857.17,-900.29 857.17,-900.29 853.33,-900.29 849.5,-896.46 849.5,-892.62 849.5,-892.62 849.5,-884.96 849.5,-884.96 849.5,-881.12 853.33,-877.29 857.17,-877.29 857.17,-877.29 1215.83,-877.29 1215.83,-877.29 1219.67,-877.29 1223.5,-881.12 1223.5,-884.96 1223.5,-884.96 1223.5,-892.62 1223.5,-892.62 1223.5,-896.46 1219.67,-900.29 1215.83,-900.29"/>
<text text-anchor="middle" x="1036.5" y="-885.09" font-family="Arial" font-size="14.00" fill="#c6c5fe">component/Dashboard/DashboardHeader/TimeBlock.tsx</text>
</g>
<!-- component/Dashboard/DashboardHeader.tsx&#45;&gt;component/Dashboard/DashboardHeader/TimeBlock.tsx -->
<g id="edge6" class="edge">
<title>component/Dashboard/DashboardHeader.tsx&#45;&gt;component/Dashboard/DashboardHeader/TimeBlock.tsx</title>
<path fill="none" stroke="#757575" d="M641.13,-777.7C681.03,-790.55 746.83,-811.38 804,-827.79 862.62,-844.61 930.1,-862.19 977.02,-874.13"/>
<polygon fill="#757575" stroke="#757575" points="975.87,-877.45 986.43,-876.52 977.59,-870.67 975.87,-877.45"/>
</g>
<!-- store/DashboardProvider.tsx -->
<g id="node15" class="node">
<title>store/DashboardProvider.tsx</title>
<path fill="none" stroke="#c6c5fe" d="M2144.33,-696.29C2144.33,-696.29 1962.67,-696.29 1962.67,-696.29 1958.83,-696.29 1955,-692.46 1955,-688.62 1955,-688.62 1955,-680.96 1955,-680.96 1955,-677.12 1958.83,-673.29 1962.67,-673.29 1962.67,-673.29 2144.33,-673.29 2144.33,-673.29 2148.17,-673.29 2152,-677.12 2152,-680.96 2152,-680.96 2152,-688.62 2152,-688.62 2152,-692.46 2148.17,-696.29 2144.33,-696.29"/>
<text text-anchor="middle" x="2053.5" y="-681.09" font-family="Arial" font-size="14.00" fill="#c6c5fe">store/DashboardProvider.tsx</text>
</g>
<!-- component/Dashboard/DashboardHeader.tsx&#45;&gt;store/DashboardProvider.tsx -->
<g id="edge7" class="edge">
<title>component/Dashboard/DashboardHeader.tsx&#45;&gt;store/DashboardProvider.tsx</title>
<path fill="none" stroke="#757575" d="M755.36,-757.35C1048.35,-740.96 1687.98,-705.18 1943.69,-690.88"/>
<polygon fill="#757575" stroke="#757575" points="1943.54,-694.39 1953.33,-690.34 1943.15,-687.4 1943.54,-694.39"/>
</g>
<!-- store/WidgetPropsSettingModalProvider.tsx -->
<g id="node16" class="node">
<title>store/WidgetPropsSettingModalProvider.tsx</title>
<path fill="none" stroke="#c6c5fe" d="M1684.83,-655.29C1684.83,-655.29 1406.17,-655.29 1406.17,-655.29 1402.33,-655.29 1398.5,-651.46 1398.5,-647.62 1398.5,-647.62 1398.5,-639.96 1398.5,-639.96 1398.5,-636.12 1402.33,-632.29 1406.17,-632.29 1406.17,-632.29 1684.83,-632.29 1684.83,-632.29 1688.67,-632.29 1692.5,-636.12 1692.5,-639.96 1692.5,-639.96 1692.5,-647.62 1692.5,-647.62 1692.5,-651.46 1688.67,-655.29 1684.83,-655.29"/>
<text text-anchor="middle" x="1545.5" y="-640.09" font-family="Arial" font-size="14.00" fill="#c6c5fe">store/WidgetPropsSettingModalProvider.tsx</text>
</g>
<!-- component/Dashboard/DashboardHeader.tsx&#45;&gt;store/WidgetPropsSettingModalProvider.tsx -->
<g id="edge8" class="edge">
<title>component/Dashboard/DashboardHeader.tsx&#45;&gt;store/WidgetPropsSettingModalProvider.tsx</title>
<path fill="none" stroke="#757575" d="M639.36,-753.88C678.82,-740.91 745.26,-720.56 804,-709.79 1003.1,-673.3 1236.15,-656.75 1386.85,-649.4"/>
<polygon fill="#757575" stroke="#757575" points="1386.67,-652.91 1396.49,-648.94 1386.33,-645.92 1386.67,-652.91"/>
</g>
<!-- types/widget.d.ts -->
<g id="node17" class="node">
<title>types/widget.d.ts</title>
<path fill="none" stroke="#cfffac" d="M2922.33,-717.29C2922.33,-717.29 2814.67,-717.29 2814.67,-717.29 2810.83,-717.29 2807,-713.46 2807,-709.62 2807,-709.62 2807,-701.96 2807,-701.96 2807,-698.12 2810.83,-694.29 2814.67,-694.29 2814.67,-694.29 2922.33,-694.29 2922.33,-694.29 2926.17,-694.29 2930,-698.12 2930,-701.96 2930,-701.96 2930,-709.62 2930,-709.62 2930,-713.46 2926.17,-717.29 2922.33,-717.29"/>
<text text-anchor="middle" x="2868.5" y="-702.09" font-family="Arial" font-size="14.00" fill="#cfffac">types/widget.d.ts</text>
</g>
<!-- component/Dashboard/DashboardHeader.tsx&#45;&gt;types/widget.d.ts -->
<g id="edge9" class="edge">
<title>component/Dashboard/DashboardHeader.tsx&#45;&gt;types/widget.d.ts</title>
<path fill="none" stroke="#757575" d="M616.25,-777.64C645.18,-806 723.4,-877.81 804,-909.79 1112.52,-1032.21 1212.58,-1006.79 1544.5,-1006.79 1544.5,-1006.79 1544.5,-1006.79 2054.5,-1006.79 2333.58,-1006.79 2417.13,-985.94 2664,-855.79 2735.99,-817.83 2810.46,-756.16 2846.05,-725.05"/>
<polygon fill="#757575" stroke="#757575" points="2848.31,-727.72 2853.49,-718.48 2843.68,-722.47 2848.31,-727.72"/>
</g>
<!-- component/Dashboard/DashboardHeader/PlayIcon.tsx&#45;&gt;asset/image/pause.png -->
<g id="edge18" class="edge">
<title>component/Dashboard/DashboardHeader/PlayIcon.tsx&#45;&gt;asset/image/pause.png</title>
<path fill="none" stroke="#757575" d="M1217.68,-806.79C1296.75,-806.79 1386.24,-806.79 1451.56,-806.79"/>
<polygon fill="#757575" stroke="#757575" points="1451.54,-810.29 1461.54,-806.79 1451.54,-803.29 1451.54,-810.29"/>
</g>
<!-- component/Dashboard/DashboardHeader/PlayIcon.tsx&#45;&gt;asset/image/play.png -->
<g id="edge19" class="edge">
<title>component/Dashboard/DashboardHeader/PlayIcon.tsx&#45;&gt;asset/image/play.png</title>
<path fill="none" stroke="#757575" d="M1185.85,-818.79C1274.52,-825.96 1384.05,-834.81 1458.58,-840.84"/>
<polygon fill="#757575" stroke="#757575" points="1458.02,-844.31 1468.27,-841.62 1458.58,-837.33 1458.02,-844.31"/>
</g>
<!-- hook/useBoolean.tsx -->
<g id="node23" class="node">
<title>hook/useBoolean.tsx</title>
<path fill="none" stroke="#cfffac" d="M2120.33,-737.29C2120.33,-737.29 1986.67,-737.29 1986.67,-737.29 1982.83,-737.29 1979,-733.46 1979,-729.62 1979,-729.62 1979,-721.96 1979,-721.96 1979,-718.12 1982.83,-714.29 1986.67,-714.29 1986.67,-714.29 2120.33,-714.29 2120.33,-714.29 2124.17,-714.29 2128,-718.12 2128,-721.96 2128,-721.96 2128,-729.62 2128,-729.62 2128,-733.46 2124.17,-737.29 2120.33,-737.29"/>
<text text-anchor="middle" x="2053.5" y="-722.09" font-family="Arial" font-size="14.00" fill="#cfffac">hook/useBoolean.tsx</text>
</g>
<!-- component/Dashboard/DashboardHeader/SelectRealTimeRangeArea.tsx&#45;&gt;hook/useBoolean.tsx -->
<g id="edge22" class="edge">
<title>component/Dashboard/DashboardHeader/SelectRealTimeRangeArea.tsx&#45;&gt;hook/useBoolean.tsx</title>
<path fill="none" stroke="#757575" d="M1697.97,-753.82C1786.18,-746.84 1894.12,-738.31 1967.57,-732.5"/>
<polygon fill="#757575" stroke="#757575" points="1967.4,-736.03 1977.09,-731.75 1966.85,-729.05 1967.4,-736.03"/>
</g>
<!-- hook/useOutsideClick.tsx -->
<g id="node24" class="node">
<title>hook/useOutsideClick.tsx</title>
<path fill="none" stroke="#cfffac" d="M2133.83,-860.29C2133.83,-860.29 1973.17,-860.29 1973.17,-860.29 1969.33,-860.29 1965.5,-856.46 1965.5,-852.62 1965.5,-852.62 1965.5,-844.96 1965.5,-844.96 1965.5,-841.12 1969.33,-837.29 1973.17,-837.29 1973.17,-837.29 2133.83,-837.29 2133.83,-837.29 2137.67,-837.29 2141.5,-841.12 2141.5,-844.96 2141.5,-844.96 2141.5,-852.62 2141.5,-852.62 2141.5,-856.46 2137.67,-860.29 2133.83,-860.29"/>
<text text-anchor="middle" x="2053.5" y="-845.09" font-family="Arial" font-size="14.00" fill="#cfffac">hook/useOutsideClick.tsx</text>
</g>
<!-- component/Dashboard/DashboardHeader/SelectRealTimeRangeArea.tsx&#45;&gt;hook/useOutsideClick.tsx -->
<g id="edge23" class="edge">
<title>component/Dashboard/DashboardHeader/SelectRealTimeRangeArea.tsx&#45;&gt;hook/useOutsideClick.tsx</title>
<path fill="none" stroke="#757575" d="M1768.27,-777.69C1774.34,-780.12 1780.26,-782.81 1786,-785.79 1808.12,-797.27 1799.89,-817.28 1822,-828.79 1861.98,-849.61 1911.2,-856.02 1953.88,-856.65"/>
<polygon fill="#757575" stroke="#757575" points="1953.63,-860.15 1963.64,-856.69 1953.65,-853.15 1953.63,-860.15"/>
</g>
<!-- component/Dashboard/DashboardHeader/RealTime.tsx -->
<g id="node25" class="node">
<title>component/Dashboard/DashboardHeader/RealTime.tsx</title>
<path fill="none" stroke="#cfffac" d="M2229.83,-819.29C2229.83,-819.29 1877.17,-819.29 1877.17,-819.29 1873.33,-819.29 1869.5,-815.46 1869.5,-811.62 1869.5,-811.62 1869.5,-803.96 1869.5,-803.96 1869.5,-800.12 1873.33,-796.29 1877.17,-796.29 1877.17,-796.29 2229.83,-796.29 2229.83,-796.29 2233.67,-796.29 2237.5,-800.12 2237.5,-803.96 2237.5,-803.96 2237.5,-811.62 2237.5,-811.62 2237.5,-815.46 2233.67,-819.29 2229.83,-819.29"/>
<text text-anchor="middle" x="2053.5" y="-804.09" font-family="Arial" font-size="14.00" fill="#cfffac">component/Dashboard/DashboardHeader/RealTime.tsx</text>
</g>
<!-- component/Dashboard/DashboardHeader/SelectRealTimeRangeArea.tsx&#45;&gt;component/Dashboard/DashboardHeader/RealTime.tsx -->
<g id="edge20" class="edge">
<title>component/Dashboard/DashboardHeader/SelectRealTimeRangeArea.tsx&#45;&gt;component/Dashboard/DashboardHeader/RealTime.tsx</title>
<path fill="none" stroke="#757575" d="M1690.82,-777.77C1755.16,-783.11 1831.08,-789.41 1896.7,-794.86"/>
<polygon fill="#757575" stroke="#757575" points="1896.22,-798.33 1906.48,-795.67 1896.8,-791.35 1896.22,-798.33"/>
</g>
<!-- component/Dashboard/DashboardHeader/SelectRealTimeListItem.tsx -->
<g id="node26" class="node">
<title>component/Dashboard/DashboardHeader/SelectRealTimeListItem.tsx</title>
<path fill="none" stroke="#cfffac" d="M2275.83,-778.29C2275.83,-778.29 1831.17,-778.29 1831.17,-778.29 1827.33,-778.29 1823.5,-774.46 1823.5,-770.62 1823.5,-770.62 1823.5,-762.96 1823.5,-762.96 1823.5,-759.12 1827.33,-755.29 1831.17,-755.29 1831.17,-755.29 2275.83,-755.29 2275.83,-755.29 2279.67,-755.29 2283.5,-759.12 2283.5,-762.96 2283.5,-762.96 2283.5,-770.62 2283.5,-770.62 2283.5,-774.46 2279.67,-778.29 2275.83,-778.29"/>
<text text-anchor="middle" x="2053.5" y="-763.09" font-family="Arial" font-size="14.00" fill="#cfffac">component/Dashboard/DashboardHeader/SelectRealTimeListItem.tsx</text>
</g>
<!-- component/Dashboard/DashboardHeader/SelectRealTimeRangeArea.tsx&#45;&gt;component/Dashboard/DashboardHeader/SelectRealTimeListItem.tsx -->
<g id="edge21" class="edge">
<title>component/Dashboard/DashboardHeader/SelectRealTimeRangeArea.tsx&#45;&gt;component/Dashboard/DashboardHeader/SelectRealTimeListItem.tsx</title>
<path fill="none" stroke="#757575" d="M1786.16,-766.26C1794.78,-766.28 1803.41,-766.3 1812.03,-766.31"/>
<polygon fill="#757575" stroke="#757575" points="1811.82,-769.81 1821.83,-766.33 1811.83,-762.81 1811.82,-769.81"/>
</g>
<!-- component/Dashboard/DashboardHeader/CurrentTime.tsx -->
<g id="node18" class="node">
<title>component/Dashboard/DashboardHeader/CurrentTime.tsx</title>
<path fill="none" stroke="#c6c5fe" d="M1730.83,-1078.29C1730.83,-1078.29 1360.17,-1078.29 1360.17,-1078.29 1356.33,-1078.29 1352.5,-1074.46 1352.5,-1070.62 1352.5,-1070.62 1352.5,-1062.96 1352.5,-1062.96 1352.5,-1059.12 1356.33,-1055.29 1360.17,-1055.29 1360.17,-1055.29 1730.83,-1055.29 1730.83,-1055.29 1734.67,-1055.29 1738.5,-1059.12 1738.5,-1062.96 1738.5,-1062.96 1738.5,-1070.62 1738.5,-1070.62 1738.5,-1074.46 1734.67,-1078.29 1730.83,-1078.29"/>
<text text-anchor="middle" x="1545.5" y="-1063.09" font-family="Arial" font-size="14.00" fill="#c6c5fe">component/Dashboard/DashboardHeader/CurrentTime.tsx</text>
</g>
<!-- component/Dashboard/DashboardHeader/TimeBlock.tsx&#45;&gt;component/Dashboard/DashboardHeader/CurrentTime.tsx -->
<g id="edge24" class="edge">
<title>component/Dashboard/DashboardHeader/TimeBlock.tsx&#45;&gt;component/Dashboard/DashboardHeader/CurrentTime.tsx</title>
<path fill="none" stroke="#757575" d="M1071.55,-900.75C1160.58,-932 1400.23,-1016.14 1499.98,-1051.16"/>
<polygon fill="#757575" stroke="#757575" points="1498.57,-1054.37 1509.17,-1054.38 1500.89,-1047.77 1498.57,-1054.37"/>
</g>
<!-- component/Dashboard/DashboardHeader/DatePickerArea.tsx -->
<g id="node21" class="node">
<title>component/Dashboard/DashboardHeader/DatePickerArea.tsx</title>
<path fill="none" stroke="#c6c5fe" d="M1741.33,-900.29C1741.33,-900.29 1349.67,-900.29 1349.67,-900.29 1345.83,-900.29 1342,-896.46 1342,-892.62 1342,-892.62 1342,-884.96 1342,-884.96 1342,-881.12 1345.83,-877.29 1349.67,-877.29 1349.67,-877.29 1741.33,-877.29 1741.33,-877.29 1745.17,-877.29 1749,-881.12 1749,-884.96 1749,-884.96 1749,-892.62 1749,-892.62 1749,-896.46 1745.17,-900.29 1741.33,-900.29"/>
<text text-anchor="middle" x="1545.5" y="-885.09" font-family="Arial" font-size="14.00" fill="#c6c5fe">component/Dashboard/DashboardHeader/DatePickerArea.tsx</text>
</g>
<!-- component/Dashboard/DashboardHeader/TimeBlock.tsx&#45;&gt;component/Dashboard/DashboardHeader/DatePickerArea.tsx -->
<g id="edge25" class="edge">
<title>component/Dashboard/DashboardHeader/TimeBlock.tsx&#45;&gt;component/Dashboard/DashboardHeader/DatePickerArea.tsx</title>
<path fill="none" stroke="#757575" d="M1223.77,-888.79C1258.43,-888.79 1294.91,-888.79 1330.33,-888.79"/>
<polygon fill="#757575" stroke="#757575" points="1330.28,-892.29 1340.28,-888.79 1330.28,-885.29 1330.28,-892.29"/>
</g>
<!-- store/DashboardProvider.tsx&#45;&gt;common/date.ts -->
<g id="edge74" class="edge">
<title>store/DashboardProvider.tsx&#45;&gt;common/date.ts</title>
<path fill="none" stroke="#757575" d="M2152.3,-684.79C2233.98,-684.79 2348.44,-684.79 2421.28,-684.79"/>
<polygon fill="#757575" stroke="#757575" points="2421.09,-688.29 2431.09,-684.79 2421.09,-681.29 2421.09,-688.29"/>
</g>
<!-- store/WidgetPropsSettingModalProvider.tsx&#45;&gt;hook/useBoolean.tsx -->
<g id="edge75" class="edge">
<title>store/WidgetPropsSettingModalProvider.tsx&#45;&gt;hook/useBoolean.tsx</title>
<path fill="none" stroke="#757575" d="M1591.98,-655.73C1646.33,-669.55 1740.19,-692.06 1822,-704.79 1869.75,-712.22 1923.5,-717.3 1967.08,-720.61"/>
<polygon fill="#757575" stroke="#757575" points="1966.76,-724.09 1976.99,-721.34 1967.28,-717.11 1966.76,-724.09"/>
</g>
<!-- hook/useCurrentTime.tsx -->
<g id="node19" class="node">
<title>hook/useCurrentTime.tsx</title>
<path fill="none" stroke="#cfffac" d="M2133.33,-1099.29C2133.33,-1099.29 1973.67,-1099.29 1973.67,-1099.29 1969.83,-1099.29 1966,-1095.46 1966,-1091.62 1966,-1091.62 1966,-1083.96 1966,-1083.96 1966,-1080.12 1969.83,-1076.29 1973.67,-1076.29 1973.67,-1076.29 2133.33,-1076.29 2133.33,-1076.29 2137.17,-1076.29 2141,-1080.12 2141,-1083.96 2141,-1083.96 2141,-1091.62 2141,-1091.62 2141,-1095.46 2137.17,-1099.29 2133.33,-1099.29"/>
<text text-anchor="middle" x="2053.5" y="-1084.09" font-family="Arial" font-size="14.00" fill="#cfffac">hook/useCurrentTime.tsx</text>
</g>
<!-- component/Dashboard/DashboardHeader/CurrentTime.tsx&#45;&gt;hook/useCurrentTime.tsx -->
<g id="edge10" class="edge">
<title>component/Dashboard/DashboardHeader/CurrentTime.tsx&#45;&gt;hook/useCurrentTime.tsx</title>
<path fill="none" stroke="#757575" d="M1738.88,-1074.77C1812.4,-1077.83 1893.19,-1081.18 1954.35,-1083.72"/>
<polygon fill="#757575" stroke="#757575" points="1953.89,-1087.2 1964.02,-1084.12 1954.18,-1080.21 1953.89,-1087.2"/>
</g>
<!-- component/Dashboard/DashboardHeader/DateBox.tsx -->
<g id="node20" class="node">
<title>component/Dashboard/DashboardHeader/DateBox.tsx</title>
<path fill="none" stroke="#cfffac" d="M2226.83,-978.29C2226.83,-978.29 1880.17,-978.29 1880.17,-978.29 1876.33,-978.29 1872.5,-974.46 1872.5,-970.62 1872.5,-970.62 1872.5,-962.96 1872.5,-962.96 1872.5,-959.12 1876.33,-955.29 1880.17,-955.29 1880.17,-955.29 2226.83,-955.29 2226.83,-955.29 2230.67,-955.29 2234.5,-959.12 2234.5,-962.96 2234.5,-962.96 2234.5,-970.62 2234.5,-970.62 2234.5,-974.46 2230.67,-978.29 2226.83,-978.29"/>
<text text-anchor="middle" x="2053.5" y="-963.09" font-family="Arial" font-size="14.00" fill="#cfffac">component/Dashboard/DashboardHeader/DateBox.tsx</text>
</g>
<!-- component/Dashboard/DashboardHeader/DatePickerArea.tsx&#45;&gt;common/date.ts -->
<g id="edge11" class="edge">
<title>component/Dashboard/DashboardHeader/DatePickerArea.tsx&#45;&gt;common/date.ts</title>
<path fill="none" stroke="#757575" d="M1749.11,-899.09C1933.64,-905.68 2191.21,-907.05 2285,-869.79 2372.01,-835.22 2446.02,-746.38 2476.54,-705.7"/>
<polygon fill="#757575" stroke="#757575" points="2479.34,-707.8 2482.45,-697.67 2473.71,-703.65 2479.34,-707.8"/>
</g>
<!-- component/Dashboard/DashboardHeader/DatePickerArea.tsx&#45;&gt;store/DashboardProvider.tsx -->
<g id="edge16" class="edge">
<title>component/Dashboard/DashboardHeader/DatePickerArea.tsx&#45;&gt;store/DashboardProvider.tsx</title>
<path fill="none" stroke="#757575" d="M1599.58,-900.77C1653.25,-909.52 1735.3,-913.17 1786,-868.79 1842.15,-819.64 1765.93,-754.03 1822,-704.79 1866.19,-665.98 1935.24,-665.02 1986.25,-671.31"/>
<polygon fill="#757575" stroke="#757575" points="1985.62,-674.76 1996,-672.65 1986.57,-667.82 1985.62,-674.76"/>
</g>
<!-- component/Dashboard/DashboardHeader/DatePickerArea.tsx&#45;&gt;types/widget.d.ts -->
<g id="edge17" class="edge">
<title>component/Dashboard/DashboardHeader/DatePickerArea.tsx&#45;&gt;types/widget.d.ts</title>
<path fill="none" stroke="#757575" d="M1749.21,-897.8C1773.73,-898.62 1798.43,-899.32 1822,-899.79 2027.74,-903.9 2081.88,-932.73 2285,-899.79 2499.38,-865.03 2741.5,-762.71 2831.4,-722.39"/>
<polygon fill="#757575" stroke="#757575" points="2832.79,-725.6 2840.46,-718.3 2829.91,-719.22 2832.79,-725.6"/>
</g>
<!-- component/Dashboard/DashboardHeader/DatePickerArea.tsx&#45;&gt;component/Dashboard/DashboardHeader/DateBox.tsx -->
<g id="edge12" class="edge">
<title>component/Dashboard/DashboardHeader/DatePickerArea.tsx&#45;&gt;component/Dashboard/DashboardHeader/DateBox.tsx</title>
<path fill="none" stroke="#757575" d="M1603.28,-900.78C1658.83,-912.22 1745.95,-929.34 1822,-940.79 1853.61,-945.55 1887.79,-949.86 1919.89,-953.54"/>
<polygon fill="#757575" stroke="#757575" points="1919.32,-956.99 1929.65,-954.64 1920.11,-950.04 1919.32,-956.99"/>
</g>
<!-- component/common/DatePicker.tsx -->
<g id="node22" class="node">
<title>component/common/DatePicker.tsx</title>
<path fill="none" stroke="#c6c5fe" d="M2166.83,-1058.29C2166.83,-1058.29 1940.17,-1058.29 1940.17,-1058.29 1936.33,-1058.29 1932.5,-1054.46 1932.5,-1050.62 1932.5,-1050.62 1932.5,-1042.96 1932.5,-1042.96 1932.5,-1039.12 1936.33,-1035.29 1940.17,-1035.29 1940.17,-1035.29 2166.83,-1035.29 2166.83,-1035.29 2170.67,-1035.29 2174.5,-1039.12 2174.5,-1042.96 2174.5,-1042.96 2174.5,-1050.62 2174.5,-1050.62 2174.5,-1054.46 2170.67,-1058.29 2166.83,-1058.29"/>
<text text-anchor="middle" x="2053.5" y="-1043.09" font-family="Arial" font-size="14.00" fill="#c6c5fe">component/common/DatePicker.tsx</text>
</g>
<!-- component/Dashboard/DashboardHeader/DatePickerArea.tsx&#45;&gt;component/common/DatePicker.tsx -->
<g id="edge13" class="edge">
<title>component/Dashboard/DashboardHeader/DatePickerArea.tsx&#45;&gt;component/common/DatePicker.tsx</title>
<path fill="none" stroke="#757575" d="M1576.76,-900.73C1627.14,-920.36 1731.63,-960.05 1822,-987.79 1877.82,-1004.92 1942.26,-1021.12 1988.8,-1032.2"/>
<polygon fill="#757575" stroke="#757575" points="1987.92,-1035.58 1998.45,-1034.48 1989.53,-1028.77 1987.92,-1035.58"/>
</g>
<!-- component/Dashboard/DashboardHeader/DatePickerArea.tsx&#45;&gt;hook/useBoolean.tsx -->
<g id="edge14" class="edge">
<title>component/Dashboard/DashboardHeader/DatePickerArea.tsx&#45;&gt;hook/useBoolean.tsx</title>
<path fill="none" stroke="#757575" d="M1603.74,-900.75C1656.92,-908.36 1735.34,-910.15 1786,-868.79 1830.12,-832.77 1777.94,-781.88 1822,-745.79 1865.67,-710.01 1930.87,-707.49 1980.79,-712.5"/>
<polygon fill="#757575" stroke="#757575" points="1980.33,-715.97 1990.66,-713.62 1981.12,-709.01 1980.33,-715.97"/>
</g>
<!-- component/Dashboard/DashboardHeader/DatePickerArea.tsx&#45;&gt;hook/useOutsideClick.tsx -->
<g id="edge15" class="edge">
<title>component/Dashboard/DashboardHeader/DatePickerArea.tsx&#45;&gt;hook/useOutsideClick.tsx</title>
<path fill="none" stroke="#757575" d="M1697.97,-876.82C1780.75,-870.27 1880.9,-862.35 1953.62,-856.61"/>
<polygon fill="#757575" stroke="#757575" points="1953.85,-860.1 1963.54,-855.82 1953.29,-853.12 1953.85,-860.1"/>
</g>
<!-- component/common/DatePicker/DatePickerTitle.tsx -->
<g id="node44" class="node">
<title>component/common/DatePicker/DatePickerTitle.tsx</title>
<path fill="none" stroke="#c6c5fe" d="M2656.33,-1058.29C2656.33,-1058.29 2328.67,-1058.29 2328.67,-1058.29 2324.83,-1058.29 2321,-1054.46 2321,-1050.62 2321,-1050.62 2321,-1042.96 2321,-1042.96 2321,-1039.12 2324.83,-1035.29 2328.67,-1035.29 2328.67,-1035.29 2656.33,-1035.29 2656.33,-1035.29 2660.17,-1035.29 2664,-1039.12 2664,-1042.96 2664,-1042.96 2664,-1050.62 2664,-1050.62 2664,-1054.46 2660.17,-1058.29 2656.33,-1058.29"/>
<text text-anchor="middle" x="2492.5" y="-1043.09" font-family="Arial" font-size="14.00" fill="#c6c5fe">component/common/DatePicker/DatePickerTitle.tsx</text>
</g>
<!-- component/common/DatePicker.tsx&#45;&gt;component/common/DatePicker/DatePickerTitle.tsx -->
<g id="edge57" class="edge">
<title>component/common/DatePicker.tsx&#45;&gt;component/common/DatePicker/DatePickerTitle.tsx</title>
<path fill="none" stroke="#757575" d="M2174.78,-1046.79C2216.36,-1046.79 2263.92,-1046.79 2309.33,-1046.79"/>
<polygon fill="#757575" stroke="#757575" points="2309.32,-1050.29 2319.32,-1046.79 2309.32,-1043.29 2309.32,-1050.29"/>
</g>
<!-- component/common/DatePicker/ListPicker.tsx -->
<g id="node45" class="node">
<title>component/common/DatePicker/ListPicker.tsx</title>
<path fill="none" stroke="#c6c5fe" d="M2638.83,-1099.29C2638.83,-1099.29 2346.17,-1099.29 2346.17,-1099.29 2342.33,-1099.29 2338.5,-1095.46 2338.5,-1091.62 2338.5,-1091.62 2338.5,-1083.96 2338.5,-1083.96 2338.5,-1080.12 2342.33,-1076.29 2346.17,-1076.29 2346.17,-1076.29 2638.83,-1076.29 2638.83,-1076.29 2642.67,-1076.29 2646.5,-1080.12 2646.5,-1083.96 2646.5,-1083.96 2646.5,-1091.62 2646.5,-1091.62 2646.5,-1095.46 2642.67,-1099.29 2638.83,-1099.29"/>
<text text-anchor="middle" x="2492.5" y="-1084.09" font-family="Arial" font-size="14.00" fill="#c6c5fe">component/common/DatePicker/ListPicker.tsx</text>
</g>
<!-- component/common/DatePicker.tsx&#45;&gt;component/common/DatePicker/ListPicker.tsx -->
<g id="edge58" class="edge">
<title>component/common/DatePicker.tsx&#45;&gt;component/common/DatePicker/ListPicker.tsx</title>
<path fill="none" stroke="#757575" d="M2174.74,-1057.61C2210.25,-1060.85 2249.19,-1064.42 2285,-1067.79 2308.45,-1069.99 2333.39,-1072.38 2357.54,-1074.7"/>
<polygon fill="#757575" stroke="#757575" points="2357.15,-1078.18 2367.44,-1075.66 2357.82,-1071.21 2357.15,-1078.18"/>
</g>
<!-- types/datePicker.d.ts -->
<g id="node46" class="node">
<title>types/datePicker.d.ts</title>
<path fill="none" stroke="#cfffac" d="M2935.33,-1139.29C2935.33,-1139.29 2801.67,-1139.29 2801.67,-1139.29 2797.83,-1139.29 2794,-1135.46 2794,-1131.62 2794,-1131.62 2794,-1123.96 2794,-1123.96 2794,-1120.12 2797.83,-1116.29 2801.67,-1116.29 2801.67,-1116.29 2935.33,-1116.29 2935.33,-1116.29 2939.17,-1116.29 2943,-1120.12 2943,-1123.96 2943,-1123.96 2943,-1131.62 2943,-1131.62 2943,-1135.46 2939.17,-1139.29 2935.33,-1139.29"/>
<text text-anchor="middle" x="2868.5" y="-1124.09" font-family="Arial" font-size="14.00" fill="#cfffac">types/datePicker.d.ts</text>
</g>
<!-- component/common/DatePicker.tsx&#45;&gt;types/datePicker.d.ts -->
<g id="edge59" class="edge">
<title>component/common/DatePicker.tsx&#45;&gt;types/datePicker.d.ts</title>
<path fill="none" stroke="#757575" d="M2174.74,-1040.84C2211.74,-1043.36 2251.51,-1050.76 2285,-1067.79 2306.61,-1078.78 2299.09,-1098.41 2321,-1108.79 2479.1,-1183.7 2692.78,-1160.61 2800.09,-1141.79"/>
<polygon fill="#757575" stroke="#757575" points="2800.68,-1145.24 2809.9,-1140.02 2799.44,-1138.35 2800.68,-1145.24"/>
</g>
<!-- component/Widget.tsx -->
<g id="node27" class="node">
<title>component/Widget.tsx</title>
<path fill="none" stroke="#c6c5fe" d="M675.33,-497.29C675.33,-497.29 531.67,-497.29 531.67,-497.29 527.83,-497.29 524,-493.46 524,-489.62 524,-489.62 524,-481.96 524,-481.96 524,-478.12 527.83,-474.29 531.67,-474.29 531.67,-474.29 675.33,-474.29 675.33,-474.29 679.17,-474.29 683,-478.12 683,-481.96 683,-481.96 683,-489.62 683,-489.62 683,-493.46 679.17,-497.29 675.33,-497.29"/>
<text text-anchor="middle" x="603.5" y="-482.09" font-family="Arial" font-size="14.00" fill="#c6c5fe">component/Widget.tsx</text>
</g>
<!-- component/Widget.tsx&#45;&gt;types/widget.d.ts -->
<g id="edge31" class="edge">
<title>component/Widget.tsx&#45;&gt;types/widget.d.ts</title>
<path fill="none" stroke="#757575" d="M683.02,-476.07C719.72,-471.9 764.03,-467.4 804,-464.79 1132.52,-443.32 1215.28,-445.79 1544.5,-445.79 1544.5,-445.79 1544.5,-445.79 2054.5,-445.79 2327.02,-445.79 2416.77,-398.14 2664,-512.79 2750.11,-552.72 2823.07,-643.74 2852.98,-684.9"/>
<polygon fill="#757575" stroke="#757575" points="2849.95,-686.67 2858.61,-692.77 2855.64,-682.6 2849.95,-686.67"/>
</g>
<!-- component/Widget.tsx&#45;&gt;hook/useBoolean.tsx -->
<g id="edge30" class="edge">
<title>component/Widget.tsx&#45;&gt;hook/useBoolean.tsx</title>
<path fill="none" stroke="#757575" d="M628.48,-497.68C665.35,-515.52 738.59,-549.21 804,-568.79 1227.9,-695.67 1762.57,-720.06 1967.38,-724.71"/>
<polygon fill="#757575" stroke="#757575" points="1967.05,-728.2 1977.12,-724.92 1967.2,-721.2 1967.05,-728.2"/>
</g>
<!-- component/Widget/WidgetButtons.tsx -->
<g id="node28" class="node">
<title>component/Widget/WidgetButtons.tsx</title>
<path fill="none" stroke="#c6c5fe" d="M1157.33,-497.29C1157.33,-497.29 915.67,-497.29 915.67,-497.29 911.83,-497.29 908,-493.46 908,-489.62 908,-489.62 908,-481.96 908,-481.96 908,-478.12 911.83,-474.29 915.67,-474.29 915.67,-474.29 1157.33,-474.29 1157.33,-474.29 1161.17,-474.29 1165,-478.12 1165,-481.96 1165,-481.96 1165,-489.62 1165,-489.62 1165,-493.46 1161.17,-497.29 1157.33,-497.29"/>
<text text-anchor="middle" x="1036.5" y="-482.09" font-family="Arial" font-size="14.00" fill="#c6c5fe">component/Widget/WidgetButtons.tsx</text>
</g>
<!-- component/Widget.tsx&#45;&gt;component/Widget/WidgetButtons.tsx -->
<g id="edge26" class="edge">
<title>component/Widget.tsx&#45;&gt;component/Widget/WidgetButtons.tsx</title>
<path fill="none" stroke="#757575" d="M683.3,-485.79C742.79,-485.79 825.95,-485.79 896.52,-485.79"/>
<polygon fill="#757575" stroke="#757575" points="896.22,-489.29 906.22,-485.79 896.22,-482.29 896.22,-489.29"/>
</g>
<!-- component/Widget/WidgetCallCycleSettingModal.tsx -->
<g id="node29" class="node">
<title>component/Widget/WidgetCallCycleSettingModal.tsx</title>
<path fill="none" stroke="#c6c5fe" d="M1713.33,-614.29C1713.33,-614.29 1377.67,-614.29 1377.67,-614.29 1373.83,-614.29 1370,-610.46 1370,-606.62 1370,-606.62 1370,-598.96 1370,-598.96 1370,-595.12 1373.83,-591.29 1377.67,-591.29 1377.67,-591.29 1713.33,-591.29 1713.33,-591.29 1717.17,-591.29 1721,-595.12 1721,-598.96 1721,-598.96 1721,-606.62 1721,-606.62 1721,-610.46 1717.17,-614.29 1713.33,-614.29"/>
<text text-anchor="middle" x="1545.5" y="-599.09" font-family="Arial" font-size="14.00" fill="#c6c5fe">component/Widget/WidgetCallCycleSettingModal.tsx</text>
</g>
<!-- component/Widget.tsx&#45;&gt;component/Widget/WidgetCallCycleSettingModal.tsx -->
<g id="edge27" class="edge">
<title>component/Widget.tsx&#45;&gt;component/Widget/WidgetCallCycleSettingModal.tsx</title>
<path fill="none" stroke="#757575" d="M653.83,-497.71C694.04,-507.05 752.41,-519.77 804,-527.79 994.12,-557.34 1213.59,-577.89 1363.95,-589.91"/>
<polygon fill="#757575" stroke="#757575" points="1363.35,-593.37 1373.6,-590.68 1363.91,-586.4 1363.35,-593.37"/>
</g>
<!-- component/Widget/WidgetChart.tsx -->
<g id="node30" class="node">
<title>component/Widget/WidgetChart.tsx</title>
<path fill="none" stroke="#c6c5fe" d="M1149.83,-319.29C1149.83,-319.29 923.17,-319.29 923.17,-319.29 919.33,-319.29 915.5,-315.46 915.5,-311.62 915.5,-311.62 915.5,-303.96 915.5,-303.96 915.5,-300.12 919.33,-296.29 923.17,-296.29 923.17,-296.29 1149.83,-296.29 1149.83,-296.29 1153.67,-296.29 1157.5,-300.12 1157.5,-303.96 1157.5,-303.96 1157.5,-311.62 1157.5,-311.62 1157.5,-315.46 1153.67,-319.29 1149.83,-319.29"/>
<text text-anchor="middle" x="1036.5" y="-304.09" font-family="Arial" font-size="14.00" fill="#c6c5fe">component/Widget/WidgetChart.tsx</text>
</g>
<!-- component/Widget.tsx&#45;&gt;component/Widget/WidgetChart.tsx -->
<g id="edge28" class="edge">
<title>component/Widget.tsx&#45;&gt;component/Widget/WidgetChart.tsx</title>
<path fill="none" stroke="#757575" d="M638.88,-473.89C672.13,-462.22 723.84,-443.61 768,-425.79 851.93,-391.92 948.73,-347.98 999.74,-324.44"/>
<polygon fill="#757575" stroke="#757575" points="1000.93,-327.74 1008.54,-320.37 997.99,-321.39 1000.93,-327.74"/>
</g>
<!-- hook/Widget/useHandleWidgetApi.tsx -->
<g id="node31" class="node">
<title>hook/Widget/useHandleWidgetApi.tsx</title>
<path fill="none" stroke="#c6c5fe" d="M1666.33,-533.29C1666.33,-533.29 1424.67,-533.29 1424.67,-533.29 1420.83,-533.29 1417,-529.46 1417,-525.62 1417,-525.62 1417,-517.96 1417,-517.96 1417,-514.12 1420.83,-510.29 1424.67,-510.29 1424.67,-510.29 1666.33,-510.29 1666.33,-510.29 1670.17,-510.29 1674,-514.12 1674,-517.96 1674,-517.96 1674,-525.62 1674,-525.62 1674,-529.46 1670.17,-533.29 1666.33,-533.29"/>
<text text-anchor="middle" x="1545.5" y="-518.09" font-family="Arial" font-size="14.00" fill="#c6c5fe">hook/Widget/useHandleWidgetApi.tsx</text>
</g>
<!-- component/Widget.tsx&#45;&gt;hook/Widget/useHandleWidgetApi.tsx -->
<g id="edge29" class="edge">
<title>component/Widget.tsx&#45;&gt;hook/Widget/useHandleWidgetApi.tsx</title>
<path fill="none" stroke="#757575" d="M683.03,-495.1C719.73,-499.08 764.04,-503.36 804,-505.79 1013.22,-518.52 1256.22,-521.52 1405.17,-522.03"/>
<polygon fill="#757575" stroke="#757575" points="1405.09,-525.53 1415.1,-522.06 1405.11,-518.53 1405.09,-525.53"/>
</g>
<!-- component/Widget/WidgetButtons.tsx&#45;&gt;store/WidgetPropsSettingModalProvider.tsx -->
<g id="edge32" class="edge">
<title>component/Widget/WidgetButtons.tsx&#45;&gt;store/WidgetPropsSettingModalProvider.tsx</title>
<path fill="none" stroke="#757575" d="M1165.3,-475.16C1202.17,-478.29 1240.17,-488.26 1269,-511.79 1309.18,-544.58 1264.42,-590.49 1305,-622.79 1351.24,-659.6 1419.61,-662.11 1471.48,-657.01"/>
<polygon fill="#757575" stroke="#757575" points="1471.55,-660.52 1481.11,-655.94 1470.78,-653.56 1471.55,-660.52"/>
</g>
<!-- store/WidgetProvider.tsx -->
<g id="node32" class="node">
<title>store/WidgetProvider.tsx</title>
<path fill="none" stroke="#c6c5fe" d="M1624.33,-119.29C1624.33,-119.29 1466.67,-119.29 1466.67,-119.29 1462.83,-119.29 1459,-115.46 1459,-111.62 1459,-111.62 1459,-103.96 1459,-103.96 1459,-100.12 1462.83,-96.29 1466.67,-96.29 1466.67,-96.29 1624.33,-96.29 1624.33,-96.29 1628.17,-96.29 1632,-100.12 1632,-103.96 1632,-103.96 1632,-111.62 1632,-111.62 1632,-115.46 1628.17,-119.29 1624.33,-119.29"/>
<text text-anchor="middle" x="1545.5" y="-104.09" font-family="Arial" font-size="14.00" fill="#c6c5fe">store/WidgetProvider.tsx</text>
</g>
<!-- component/Widget/WidgetButtons.tsx&#45;&gt;store/WidgetProvider.tsx -->
<g id="edge33" class="edge">
<title>component/Widget/WidgetButtons.tsx&#45;&gt;store/WidgetProvider.tsx</title>
<path fill="none" stroke="#757575" d="M1068.92,-473.85C1119.88,-452.73 1219.78,-403.74 1269,-327.79 1318.12,-252 1238.18,-188.56 1305,-127.79 1352.26,-84.81 1428.66,-86.09 1482.44,-94.06"/>
<polygon fill="#757575" stroke="#757575" points="1481.63,-97.47 1492.06,-95.6 1482.74,-90.56 1481.63,-97.47"/>
</g>
<!-- component/Widget/WidgetCallCycleSettingModal.tsx&#45;&gt;common/widget.ts -->
<g id="edge34" class="edge">
<title>component/Widget/WidgetCallCycleSettingModal.tsx&#45;&gt;common/widget.ts</title>
<path fill="none" stroke="#757575" d="M1694.56,-590.79C1786.8,-583.32 1901.66,-574.01 1976,-567.99"/>
<polygon fill="#757575" stroke="#757575" points="1975.93,-571.51 1985.61,-567.21 1975.36,-564.53 1975.93,-571.51"/>
</g>
<!-- component/Widget/WidgetCallCycleSettingModal/CycleInput.tsx -->
<g id="node33" class="node">
<title>component/Widget/WidgetCallCycleSettingModal/CycleInput.tsx</title>
<path fill="none" stroke="#cfffac" d="M2256.83,-655.29C2256.83,-655.29 1850.17,-655.29 1850.17,-655.29 1846.33,-655.29 1842.5,-651.46 1842.5,-647.62 1842.5,-647.62 1842.5,-639.96 1842.5,-639.96 1842.5,-636.12 1846.33,-632.29 1850.17,-632.29 1850.17,-632.29 2256.83,-632.29 2256.83,-632.29 2260.67,-632.29 2264.5,-636.12 2264.5,-639.96 2264.5,-639.96 2264.5,-647.62 2264.5,-647.62 2264.5,-651.46 2260.67,-655.29 2256.83,-655.29"/>
<text text-anchor="middle" x="2053.5" y="-640.09" font-family="Arial" font-size="14.00" fill="#cfffac">component/Widget/WidgetCallCycleSettingModal/CycleInput.tsx</text>
</g>
<!-- component/Widget/WidgetCallCycleSettingModal.tsx&#45;&gt;component/Widget/WidgetCallCycleSettingModal/CycleInput.tsx -->
<g id="edge35" class="edge">
<title>component/Widget/WidgetCallCycleSettingModal.tsx&#45;&gt;component/Widget/WidgetCallCycleSettingModal/CycleInput.tsx</title>
<path fill="none" stroke="#757575" d="M1694.56,-614.79C1757.01,-619.85 1829.84,-625.75 1893.44,-630.9"/>
<polygon fill="#757575" stroke="#757575" points="1893.03,-634.38 1903.28,-631.7 1893.6,-627.4 1893.03,-634.38"/>
</g>
<!-- component/Widget/WidgetCallCycleSettingModal/LastCallTimeBox.tsx -->
<g id="node34" class="node">
<title>component/Widget/WidgetCallCycleSettingModal/LastCallTimeBox.tsx</title>
<path fill="none" stroke="#cfffac" d="M2277.33,-614.29C2277.33,-614.29 1829.67,-614.29 1829.67,-614.29 1825.83,-614.29 1822,-610.46 1822,-606.62 1822,-606.62 1822,-598.96 1822,-598.96 1822,-595.12 1825.83,-591.29 1829.67,-591.29 1829.67,-591.29 2277.33,-591.29 2277.33,-591.29 2281.17,-591.29 2285,-595.12 2285,-598.96 2285,-598.96 2285,-606.62 2285,-606.62 2285,-610.46 2281.17,-614.29 2277.33,-614.29"/>
<text text-anchor="middle" x="2053.5" y="-599.09" font-family="Arial" font-size="14.00" fill="#cfffac">component/Widget/WidgetCallCycleSettingModal/LastCallTimeBox.tsx</text>
</g>
<!-- component/Widget/WidgetCallCycleSettingModal.tsx&#45;&gt;component/Widget/WidgetCallCycleSettingModal/LastCallTimeBox.tsx -->
<g id="edge36" class="edge">
<title>component/Widget/WidgetCallCycleSettingModal.tsx&#45;&gt;component/Widget/WidgetCallCycleSettingModal/LastCallTimeBox.tsx</title>
<path fill="none" stroke="#757575" d="M1721.35,-602.79C1750.09,-602.79 1780.34,-602.79 1810.37,-602.79"/>
<polygon fill="#757575" stroke="#757575" points="1810.36,-606.29 1820.36,-602.79 1810.36,-599.29 1810.36,-606.29"/>
</g>
<!-- component/Widget/WidgetChart.tsx&#45;&gt;types/chart.d.ts -->
<g id="edge40" class="edge">
<title>component/Widget/WidgetChart.tsx&#45;&gt;types/chart.d.ts</title>
<path fill="none" stroke="#757575" d="M1157.59,-314.47C1380.62,-325.05 1873.56,-339.88 2285,-291.79 2335.49,-285.89 2392,-274.02 2433.12,-264.4"/>
<polygon fill="#757575" stroke="#757575" points="2433.9,-267.82 2442.82,-262.11 2432.29,-261 2433.9,-267.82"/>
</g>
<!-- component/chart/BarChart.tsx -->
<g id="node35" class="node">
<title>component/chart/BarChart.tsx</title>
<path fill="none" stroke="#c6c5fe" d="M1639.33,-160.29C1639.33,-160.29 1451.67,-160.29 1451.67,-160.29 1447.83,-160.29 1444,-156.46 1444,-152.62 1444,-152.62 1444,-144.96 1444,-144.96 1444,-141.12 1447.83,-137.29 1451.67,-137.29 1451.67,-137.29 1639.33,-137.29 1639.33,-137.29 1643.17,-137.29 1647,-141.12 1647,-144.96 1647,-144.96 1647,-152.62 1647,-152.62 1647,-156.46 1643.17,-160.29 1639.33,-160.29"/>
<text text-anchor="middle" x="1545.5" y="-145.09" font-family="Arial" font-size="14.00" fill="#c6c5fe">component/chart/BarChart.tsx</text>
</g>
<!-- component/Widget/WidgetChart.tsx&#45;&gt;component/chart/BarChart.tsx -->
<g id="edge37" class="edge">
<title>component/Widget/WidgetChart.tsx&#45;&gt;component/chart/BarChart.tsx</title>
<path fill="none" stroke="#757575" d="M1101.08,-319.79C1152.05,-325.6 1222.5,-324.59 1269,-286.79 1311.55,-252.2 1262.33,-203.22 1305,-168.79 1352.12,-130.77 1422.76,-129.42 1475.13,-135.39"/>
<polygon fill="#757575" stroke="#757575" points="1474.49,-138.84 1484.85,-136.62 1475.37,-131.89 1474.49,-138.84"/>
</g>
<!-- component/chart/InformaticsChart.tsx -->
<g id="node36" class="node">
<title>component/chart/InformaticsChart.tsx</title>
<path fill="none" stroke="#c6c5fe" d="M1663.83,-299.29C1663.83,-299.29 1427.17,-299.29 1427.17,-299.29 1423.33,-299.29 1419.5,-295.46 1419.5,-291.62 1419.5,-291.62 1419.5,-283.96 1419.5,-283.96 1419.5,-280.12 1423.33,-276.29 1427.17,-276.29 1427.17,-276.29 1663.83,-276.29 1663.83,-276.29 1667.67,-276.29 1671.5,-280.12 1671.5,-283.96 1671.5,-283.96 1671.5,-291.62 1671.5,-291.62 1671.5,-295.46 1667.67,-299.29 1663.83,-299.29"/>
<text text-anchor="middle" x="1545.5" y="-284.09" font-family="Arial" font-size="14.00" fill="#c6c5fe">component/chart/InformaticsChart.tsx</text>
</g>
<!-- component/Widget/WidgetChart.tsx&#45;&gt;component/chart/InformaticsChart.tsx -->
<g id="edge38" class="edge">
<title>component/Widget/WidgetChart.tsx&#45;&gt;component/chart/InformaticsChart.tsx</title>
<path fill="none" stroke="#757575" d="M1157.97,-303.04C1233.06,-300.08 1329.87,-296.26 1407.82,-293.18"/>
<polygon fill="#757575" stroke="#757575" points="1407.81,-296.68 1417.67,-292.79 1407.54,-289.69 1407.81,-296.68"/>
</g>
<!-- component/chart/LineChart.tsx -->
<g id="node37" class="node">
<title>component/chart/LineChart.tsx</title>
<path fill="none" stroke="#c6c5fe" d="M1642.33,-201.29C1642.33,-201.29 1448.67,-201.29 1448.67,-201.29 1444.83,-201.29 1441,-197.46 1441,-193.62 1441,-193.62 1441,-185.96 1441,-185.96 1441,-182.12 1444.83,-178.29 1448.67,-178.29 1448.67,-178.29 1642.33,-178.29 1642.33,-178.29 1646.17,-178.29 1650,-182.12 1650,-185.96 1650,-185.96 1650,-193.62 1650,-193.62 1650,-197.46 1646.17,-201.29 1642.33,-201.29"/>
<text text-anchor="middle" x="1545.5" y="-186.09" font-family="Arial" font-size="14.00" fill="#c6c5fe">component/chart/LineChart.tsx</text>
</g>
<!-- component/Widget/WidgetChart.tsx&#45;&gt;component/chart/LineChart.tsx -->
<g id="edge39" class="edge">
<title>component/Widget/WidgetChart.tsx&#45;&gt;component/chart/LineChart.tsx</title>
<path fill="none" stroke="#757575" d="M1157.7,-306.38C1194.07,-303.44 1233.71,-297.66 1269,-286.79 1286.49,-281.4 1288.21,-274.07 1305,-266.79 1365.6,-240.52 1438.17,-218.42 1487.43,-204.73"/>
<polygon fill="#757575" stroke="#757575" points="1488.33,-208.11 1497.04,-202.08 1486.47,-201.36 1488.33,-208.11"/>
</g>
<!-- hook/Widget/useHandleWidgetApi.tsx&#45;&gt;common/api.ts -->
<g id="edge63" class="edge">
<title>hook/Widget/useHandleWidgetApi.tsx&#45;&gt;common/api.ts</title>
<path fill="none" stroke="#757575" d="M1598.75,-509.81C1692.32,-488.36 1888.17,-443.46 1989.21,-420.3"/>
<polygon fill="#757575" stroke="#757575" points="1989.72,-423.77 1998.69,-418.13 1988.16,-416.95 1989.72,-423.77"/>
</g>
<!-- hook/Widget/useHandleWidgetApi.tsx&#45;&gt;types/chart.d.ts -->
<g id="edge67" class="edge">
<title>hook/Widget/useHandleWidgetApi.tsx&#45;&gt;types/chart.d.ts</title>
<path fill="none" stroke="#757575" d="M1564.57,-509.81C1607.23,-482.2 1718.47,-414.23 1822,-384.79 2020.78,-328.27 2085.06,-394.09 2285,-341.79 2350.56,-324.64 2421.63,-288.77 2460.94,-267.24"/>
<polygon fill="#757575" stroke="#757575" points="2462.56,-270.34 2469.61,-262.43 2459.16,-264.22 2462.56,-270.34"/>
</g>
<!-- hook/Widget/useHandleWidgetApi.tsx&#45;&gt;common/date.ts -->
<g id="edge64" class="edge">
<title>hook/Widget/useHandleWidgetApi.tsx&#45;&gt;common/date.ts</title>
<path fill="none" stroke="#757575" d="M1674.5,-516.28C1855.23,-510 2175.41,-504.8 2285,-540.79 2363.09,-566.44 2437.89,-632.11 2472.09,-665.17"/>
<polygon fill="#757575" stroke="#757575" points="2469.22,-667.25 2478.81,-671.76 2474.12,-662.26 2469.22,-667.25"/>
</g>
<!-- hook/Widget/useHandleWidgetApi.tsx&#45;&gt;common/widget.ts -->
<g id="edge65" class="edge">
<title>hook/Widget/useHandleWidgetApi.tsx&#45;&gt;common/widget.ts</title>
<path fill="none" stroke="#757575" d="M1674.19,-531.88C1769.2,-539.39 1895.76,-549.4 1975.7,-555.72"/>
<polygon fill="#757575" stroke="#757575" points="1975.4,-559.21 1985.64,-556.5 1975.95,-552.23 1975.4,-559.21"/>
</g>
<!-- hook/Widget/useHandleWidgetApi.tsx&#45;&gt;store/DashboardProvider.tsx -->
<g id="edge66" class="edge">
<title>hook/Widget/useHandleWidgetApi.tsx&#45;&gt;store/DashboardProvider.tsx</title>
<path fill="none" stroke="#757575" d="M1674.31,-531.89C1713.67,-540.4 1754.81,-555.45 1786,-581.79 1816.41,-607.47 1789.7,-640.53 1822,-663.79 1860.71,-691.66 1913.07,-698.2 1958.11,-697.2"/>
<polygon fill="#757575" stroke="#757575" points="1958.01,-700.7 1967.87,-696.84 1957.75,-693.71 1958.01,-700.7"/>
</g>
<!-- hook/Widget/useHandleWidgetApi.tsx&#45;&gt;types/widget.d.ts -->
<g id="edge68" class="edge">
<title>hook/Widget/useHandleWidgetApi.tsx&#45;&gt;types/widget.d.ts</title>
<path fill="none" stroke="#757575" d="M1674.35,-513.94C1720.83,-511.44 1773.76,-509.01 1822,-507.79 2027.71,-502.57 2081.98,-474.23 2285,-507.79 2500.22,-543.37 2742.78,-648.2 2832.08,-689.14"/>
<polygon fill="#757575" stroke="#757575" points="2830.52,-692.27 2841.06,-693.28 2833.45,-685.92 2830.52,-692.27"/>
</g>
<!-- store/WidgetProvider.tsx&#45;&gt;types/widget.d.ts -->
<g id="edge76" class="edge">
<title>store/WidgetProvider.tsx&#45;&gt;types/widget.d.ts</title>
<path fill="none" stroke="#757575" d="M1577.71,-95.89C1628.16,-77.35 1731.16,-42.4 1822,-29.79 2025.82,-1.49 2085.21,19.47 2285,-29.79 2469.72,-75.34 2534.98,-88.97 2664,-228.79 2794.45,-370.15 2848.9,-607.77 2863.34,-682.54"/>
<polygon fill="#757575" stroke="#757575" points="2859.9,-683.16 2865.18,-692.35 2866.78,-681.87 2859.9,-683.16"/>
</g>
<!-- component/chart/BarChart.tsx&#45;&gt;common/chart.ts -->
<g id="edge46" class="edge">
<title>component/chart/BarChart.tsx&#45;&gt;common/chart.ts</title>
<path fill="none" stroke="#757575" d="M1647.38,-152.98C1746.02,-157.07 1893.73,-163.2 1980.89,-166.82"/>
<polygon fill="#757575" stroke="#757575" points="1980.6,-170.31 1990.74,-167.23 1980.89,-163.31 1980.6,-170.31"/>
</g>
<!-- component/chart/BarChart.tsx&#45;&gt;types/chart.d.ts -->
<g id="edge49" class="edge">
<title>component/chart/BarChart.tsx&#45;&gt;types/chart.d.ts</title>
<path fill="none" stroke="#757575" d="M1647.48,-159.99C1692.94,-160.23 1745.4,-153.39 1786,-127.79 1812.63,-111 1794.66,-82.4 1822,-66.79 1911.35,-15.77 2188.8,-30.3 2285,-66.79 2372.12,-99.84 2446.07,-188.32 2476.56,-228.91"/>
<polygon fill="#757575" stroke="#757575" points="2473.71,-230.94 2482.46,-236.92 2479.35,-226.79 2473.71,-230.94"/>
</g>
<!-- component/chart/ChartSvg.tsx -->
<g id="node41" class="node">
<title>component/chart/ChartSvg.tsx</title>
<path fill="none" stroke="#cfffac" d="M2148.83,-140.29C2148.83,-140.29 1958.17,-140.29 1958.17,-140.29 1954.33,-140.29 1950.5,-136.46 1950.5,-132.62 1950.5,-132.62 1950.5,-124.96 1950.5,-124.96 1950.5,-121.12 1954.33,-117.29 1958.17,-117.29 1958.17,-117.29 2148.83,-117.29 2148.83,-117.29 2152.67,-117.29 2156.5,-121.12 2156.5,-124.96 2156.5,-124.96 2156.5,-132.62 2156.5,-132.62 2156.5,-136.46 2152.67,-140.29 2148.83,-140.29"/>
<text text-anchor="middle" x="2053.5" y="-125.09" font-family="Arial" font-size="14.00" fill="#cfffac">component/chart/ChartSvg.tsx</text>
</g>
<!-- component/chart/BarChart.tsx&#45;&gt;component/chart/ChartSvg.tsx -->
<g id="edge47" class="edge">
<title>component/chart/BarChart.tsx&#45;&gt;component/chart/ChartSvg.tsx</title>
<path fill="none" stroke="#757575" d="M1647.38,-144.8C1731.48,-141.48 1851.26,-136.74 1938.76,-133.29"/>
<polygon fill="#757575" stroke="#757575" points="1938.71,-136.79 1948.56,-132.9 1938.43,-129.8 1938.71,-136.79"/>
</g>
<!-- hook/useResize.tsx -->
<g id="node42" class="node">
<title>hook/useResize.tsx</title>
<path fill="none" stroke="#cfffac" d="M2115.83,-99.29C2115.83,-99.29 1991.17,-99.29 1991.17,-99.29 1987.33,-99.29 1983.5,-95.46 1983.5,-91.62 1983.5,-91.62 1983.5,-83.96 1983.5,-83.96 1983.5,-80.12 1987.33,-76.29 1991.17,-76.29 1991.17,-76.29 2115.83,-76.29 2115.83,-76.29 2119.67,-76.29 2123.5,-80.12 2123.5,-83.96 2123.5,-83.96 2123.5,-91.62 2123.5,-91.62 2123.5,-95.46 2119.67,-99.29 2115.83,-99.29"/>
<text text-anchor="middle" x="2053.5" y="-84.09" font-family="Arial" font-size="14.00" fill="#cfffac">hook/useResize.tsx</text>
</g>
<!-- component/chart/BarChart.tsx&#45;&gt;hook/useResize.tsx -->
<g id="edge48" class="edge">
<title>component/chart/BarChart.tsx&#45;&gt;hook/useResize.tsx</title>
<path fill="none" stroke="#757575" d="M1647.33,-149.27C1690.79,-147.11 1741.7,-141.36 1786,-127.79 1803.5,-122.43 1804.5,-113.14 1822,-107.79 1870.32,-93.01 1926.81,-87.93 1971.78,-86.58"/>
<polygon fill="#757575" stroke="#757575" points="1971.82,-90.08 1981.73,-86.34 1971.65,-83.08 1971.82,-90.08"/>
</g>
<!-- component/chart/InformaticsChart.tsx&#45;&gt;types/chart.d.ts -->
<g id="edge51" class="edge">
<title>component/chart/InformaticsChart.tsx&#45;&gt;types/chart.d.ts</title>
<path fill="none" stroke="#757575" d="M1671.73,-287.49C1818.72,-286.5 2069.77,-282.82 2285,-269.79 2331.73,-266.96 2384.24,-261.85 2424.61,-257.5"/>
<polygon fill="#757575" stroke="#757575" points="2424.86,-261 2434.43,-256.43 2424.11,-254.04 2424.86,-261"/>
</g>
<!-- component/chart/InformaticsChart/InforMaticsBox.tsx -->
<g id="node43" class="node">
<title>component/chart/InformaticsChart/InforMaticsBox.tsx</title>
<path fill="none" stroke="#c6c5fe" d="M2220.83,-261.29C2220.83,-261.29 1886.17,-261.29 1886.17,-261.29 1882.33,-261.29 1878.5,-257.46 1878.5,-253.62 1878.5,-253.62 1878.5,-245.96 1878.5,-245.96 1878.5,-242.12 1882.33,-238.29 1886.17,-238.29 1886.17,-238.29 2220.83,-238.29 2220.83,-238.29 2224.67,-238.29 2228.5,-242.12 2228.5,-245.96 2228.5,-245.96 2228.5,-253.62 2228.5,-253.62 2228.5,-257.46 2224.67,-261.29 2220.83,-261.29"/>
<text text-anchor="middle" x="2053.5" y="-246.09" font-family="Arial" font-size="14.00" fill="#c6c5fe">component/chart/InformaticsChart/InforMaticsBox.tsx</text>
</g>
<!-- component/chart/InformaticsChart.tsx&#45;&gt;component/chart/InformaticsChart/InforMaticsBox.tsx -->
<g id="edge50" class="edge">
<title>component/chart/InformaticsChart.tsx&#45;&gt;component/chart/InformaticsChart/InforMaticsBox.tsx</title>
<path fill="none" stroke="#757575" d="M1671.9,-278.37C1735.25,-273.61 1813.06,-267.77 1881.78,-262.61"/>
<polygon fill="#757575" stroke="#757575" points="1881.95,-266.11 1891.66,-261.87 1881.43,-259.13 1881.95,-266.11"/>
</g>
<!-- component/chart/LineChart.tsx&#45;&gt;common/chart.ts -->
<g id="edge53" class="edge">
<title>component/chart/LineChart.tsx&#45;&gt;common/chart.ts</title>
<path fill="none" stroke="#757575" d="M1650.42,-185.68C1749.1,-181.78 1894.81,-176.02 1981.05,-172.61"/>
<polygon fill="#757575" stroke="#757575" points="1980.93,-176.12 1990.78,-172.23 1980.65,-169.13 1980.93,-176.12"/>
</g>
<!-- component/chart/LineChart.tsx&#45;&gt;types/chart.d.ts -->
<g id="edge56" class="edge">
<title>component/chart/LineChart.tsx&#45;&gt;types/chart.d.ts</title>
<path fill="none" stroke="#757575" d="M1650.26,-193.68C1793.25,-199.4 2058.9,-211.33 2285,-228.79 2331.7,-232.4 2384.21,-237.75 2424.59,-242.15"/>
<polygon fill="#757575" stroke="#757575" points="2424.08,-245.62 2434.41,-243.23 2424.85,-238.66 2424.08,-245.62"/>
</g>
<!-- component/chart/LineChart.tsx&#45;&gt;component/chart/ChartSvg.tsx -->
<g id="edge54" class="edge">
<title>component/chart/LineChart.tsx&#45;&gt;component/chart/ChartSvg.tsx</title>
<path fill="none" stroke="#757575" d="M1650.28,-190.12C1693.08,-187.85 1742.7,-182.06 1786,-168.79 1803.5,-163.43 1804.5,-154.14 1822,-148.79 1859.15,-137.43 1901.12,-131.8 1938.97,-129.19"/>
<polygon fill="#757575" stroke="#757575" points="1938.78,-132.71 1948.54,-128.59 1938.34,-125.72 1938.78,-132.71"/>
</g>
<!-- component/chart/LineChart.tsx&#45;&gt;hook/useResize.tsx -->
<g id="edge55" class="edge">
<title>component/chart/LineChart.tsx&#45;&gt;hook/useResize.tsx</title>
<path fill="none" stroke="#757575" d="M1650.45,-201C1695.22,-200.92 1746.28,-193.83 1786,-168.79 1812.63,-152 1795.36,-124.57 1822,-107.79 1866.12,-80 1924.75,-75.25 1971.84,-77.32"/>
<polygon fill="#757575" stroke="#757575" points="1971.55,-80.81 1981.73,-77.88 1971.94,-73.82 1971.55,-80.81"/>
</g>
<!-- component/Widget/WidgetPropsSettingModal.tsx -->
<g id="node38" class="node">
<title>component/Widget/WidgetPropsSettingModal.tsx</title>
<path fill="none" stroke="#c6c5fe" d="M760.33,-417.29C760.33,-417.29 446.67,-417.29 446.67,-417.29 442.83,-417.29 439,-413.46 439,-409.62 439,-409.62 439,-401.96 439,-401.96 439,-398.12 442.83,-394.29 446.67,-394.29 446.67,-394.29 760.33,-394.29 760.33,-394.29 764.17,-394.29 768,-398.12 768,-401.96 768,-401.96 768,-409.62 768,-409.62 768,-413.46 764.17,-417.29 760.33,-417.29"/>
<text text-anchor="middle" x="603.5" y="-402.09" font-family="Arial" font-size="14.00" fill="#c6c5fe">component/Widget/WidgetPropsSettingModal.tsx</text>
</g>
<!-- component/Widget/WidgetPropsSettingModal.tsx&#45;&gt;common/api.ts -->
<g id="edge41" class="edge">
<title>component/Widget/WidgetPropsSettingModal.tsx&#45;&gt;common/api.ts</title>
<path fill="none" stroke="#757575" d="M768.49,-405.79C1085.85,-405.79 1771.7,-405.79 1986.67,-405.79"/>
<polygon fill="#757575" stroke="#757575" points="1986.54,-409.29 1996.54,-405.79 1986.54,-402.29 1986.54,-409.29"/>
</g>
<!-- component/Widget/WidgetPropsSettingModal.tsx&#45;&gt;store/WidgetPropsSettingModalProvider.tsx -->
<g id="edge44" class="edge">
<title>component/Widget/WidgetPropsSettingModal.tsx&#45;&gt;store/WidgetPropsSettingModalProvider.tsx</title>
<path fill="none" stroke="#757575" d="M657.74,-417.7C691.36,-426.92 734.59,-442.01 768,-464.79 788.04,-478.45 783.2,-493.33 804,-505.79 1000.14,-623.32 1079.21,-586.71 1305,-622.79 1331.35,-627 1359.48,-630.42 1386.86,-633.18"/>
<polygon fill="#757575" stroke="#757575" points="1386.32,-636.64 1396.62,-634.13 1387.01,-629.67 1386.32,-636.64"/>
</g>
<!-- component/Widget/WidgetPropsSettingModal/WidgetPropsButtons.tsx -->
<g id="node39" class="node">
<title>component/Widget/WidgetPropsSettingModal/WidgetPropsButtons.tsx</title>
<path fill="none" stroke="#c6c5fe" d="M1261.33,-223.29C1261.33,-223.29 811.67,-223.29 811.67,-223.29 807.83,-223.29 804,-219.46 804,-215.62 804,-215.62 804,-207.96 804,-207.96 804,-204.12 807.83,-200.29 811.67,-200.29 811.67,-200.29 1261.33,-200.29 1261.33,-200.29 1265.17,-200.29 1269,-204.12 1269,-207.96 1269,-207.96 1269,-215.62 1269,-215.62 1269,-219.46 1265.17,-223.29 1261.33,-223.29"/>
<text text-anchor="middle" x="1036.5" y="-208.09" font-family="Arial" font-size="14.00" fill="#c6c5fe">component/Widget/WidgetPropsSettingModal/WidgetPropsButtons.tsx</text>
</g>
<!-- component/Widget/WidgetPropsSettingModal.tsx&#45;&gt;component/Widget/WidgetPropsSettingModal/WidgetPropsButtons.tsx -->
<g id="edge42" class="edge">
<title>component/Widget/WidgetPropsSettingModal.tsx&#45;&gt;component/Widget/WidgetPropsSettingModal/WidgetPropsButtons.tsx</title>
<path fill="none" stroke="#757575" d="M614.76,-394.04C642.07,-363.66 720.15,-282.32 804,-245.79 823.27,-237.4 844.2,-231.01 865.34,-226.15"/>
<polygon fill="#757575" stroke="#757575" points="865.89,-229.61 874.92,-224.07 864.41,-222.77 865.89,-229.61"/>
</g>
<!-- component/Widget/WidgetPropsSettingModal/WidgetPropsList.tsx -->
<g id="node40" class="node">
<title>component/Widget/WidgetPropsSettingModal/WidgetPropsList.tsx</title>
<path fill="none" stroke="#cfffac" d="M1248.83,-278.29C1248.83,-278.29 824.17,-278.29 824.17,-278.29 820.33,-278.29 816.5,-274.46 816.5,-270.62 816.5,-270.62 816.5,-262.96 816.5,-262.96 816.5,-259.12 820.33,-255.29 824.17,-255.29 824.17,-255.29 1248.83,-255.29 1248.83,-255.29 1252.67,-255.29 1256.5,-259.12 1256.5,-262.96 1256.5,-262.96 1256.5,-270.62 1256.5,-270.62 1256.5,-274.46 1252.67,-278.29 1248.83,-278.29"/>
<text text-anchor="middle" x="1036.5" y="-263.09" font-family="Arial" font-size="14.00" fill="#cfffac">component/Widget/WidgetPropsSettingModal/WidgetPropsList.tsx</text>
</g>
<!-- component/Widget/WidgetPropsSettingModal.tsx&#45;&gt;component/Widget/WidgetPropsSettingModal/WidgetPropsList.tsx -->
<g id="edge43" class="edge">
<title>component/Widget/WidgetPropsSettingModal.tsx&#45;&gt;component/Widget/WidgetPropsSettingModal/WidgetPropsList.tsx</title>
<path fill="none" stroke="#757575" d="M618.88,-394.01C650.22,-369.08 728,-311.3 804,-286.79 809.94,-284.87 816.01,-283.12 822.16,-281.51"/>
<polygon fill="#757575" stroke="#757575" points="822.99,-284.91 831.86,-279.12 821.32,-278.11 822.99,-284.91"/>
</g>
<!-- component/Widget/WidgetPropsSettingModal/WidgetPropsButtons.tsx&#45;&gt;store/WidgetProvider.tsx -->
<g id="edge45" class="edge">
<title>component/Widget/WidgetPropsSettingModal/WidgetPropsButtons.tsx&#45;&gt;store/WidgetProvider.tsx</title>
<path fill="none" stroke="#757575" d="M1128.35,-199.83C1172.4,-191.66 1225.14,-178.29 1269,-156.79 1287.45,-147.75 1285.93,-135.42 1305,-127.79 1349.54,-109.96 1402.39,-104.11 1447.1,-103.08"/>
<polygon fill="#757575" stroke="#757575" points="1447.12,-106.58 1457.07,-102.94 1447.02,-99.58 1447.12,-106.58"/>
</g>
<!-- component/chart/InformaticsChart/InforMaticsBox.tsx&#45;&gt;types/chart.d.ts -->
<g id="edge52" class="edge">
<title>component/chart/InformaticsChart/InforMaticsBox.tsx&#45;&gt;types/chart.d.ts</title>
<path fill="none" stroke="#757575" d="M2228.78,-249.79C2297.34,-249.79 2371.96,-249.79 2424.09,-249.79"/>
<polygon fill="#757575" stroke="#757575" points="2424.01,-253.29 2434.01,-249.79 2424.01,-246.29 2424.01,-253.29"/>
</g>
<!-- component/common/DatePicker/DatePickerTitle.tsx&#45;&gt;types/widget.d.ts -->
<g id="edge60" class="edge">
<title>component/common/DatePicker/DatePickerTitle.tsx&#45;&gt;types/widget.d.ts</title>
<path fill="none" stroke="#757575" d="M2635.64,-1034.84C2645.62,-1031.1 2655.2,-1026.48 2664,-1020.79 2776.76,-947.83 2839.93,-787.91 2860.22,-728.56"/>
<polygon fill="#757575" stroke="#757575" points="2863.49,-729.81 2863.32,-719.22 2856.84,-727.6 2863.49,-729.81"/>
</g>
<!-- component/common/DatePicker/ListPicker.tsx&#45;&gt;types/datePicker.d.ts -->
<g id="edge62" class="edge">
<title>component/common/DatePicker/ListPicker.tsx&#45;&gt;types/datePicker.d.ts</title>
<path fill="none" stroke="#757575" d="M2605.46,-1099.76C2662.2,-1105.83 2729.99,-1113.08 2782.4,-1118.69"/>
<polygon fill="#757575" stroke="#757575" points="2781.86,-1122.15 2792.18,-1119.73 2782.6,-1115.19 2781.86,-1122.15"/>
</g>
<!-- component/common/DatePicker/ListPickerItem.tsx -->
<g id="node47" class="node">
<title>component/common/DatePicker/ListPickerItem.tsx</title>
<path fill="none" stroke="#cfffac" d="M3029.33,-1098.29C3029.33,-1098.29 2707.67,-1098.29 2707.67,-1098.29 2703.83,-1098.29 2700,-1094.46 2700,-1090.62 2700,-1090.62 2700,-1082.96 2700,-1082.96 2700,-1079.12 2703.83,-1075.29 2707.67,-1075.29 2707.67,-1075.29 3029.33,-1075.29 3029.33,-1075.29 3033.17,-1075.29 3037,-1079.12 3037,-1082.96 3037,-1082.96 3037,-1090.62 3037,-1090.62 3037,-1094.46 3033.17,-1098.29 3029.33,-1098.29"/>
<text text-anchor="middle" x="2868.5" y="-1083.09" font-family="Arial" font-size="14.00" fill="#cfffac">component/common/DatePicker/ListPickerItem.tsx</text>
</g>
<!-- component/common/DatePicker/ListPicker.tsx&#45;&gt;component/common/DatePicker/ListPickerItem.tsx -->
<g id="edge61" class="edge">
<title>component/common/DatePicker/ListPicker.tsx&#45;&gt;component/common/DatePicker/ListPickerItem.tsx</title>
<path fill="none" stroke="#757575" d="M2646.97,-1087.38C2660.65,-1087.34 2674.58,-1087.31 2688.45,-1087.27"/>
<polygon fill="#757575" stroke="#757575" points="2688.05,-1090.77 2698.04,-1087.24 2688.03,-1083.77 2688.05,-1090.77"/>
</g>
<!-- page/Dashboard.tsx&#45;&gt;component/Dashboard/DashboardHeader.tsx -->
<g id="edge69" class="edge">
<title>page/Dashboard.tsx&#45;&gt;component/Dashboard/DashboardHeader.tsx</title>
<path fill="none" stroke="#757575" d="M341.95,-457.56C382.21,-505.19 533.38,-684.02 585.05,-745.15"/>
<polygon fill="#757575" stroke="#757575" points="582.36,-747.38 591.48,-752.76 587.7,-742.86 582.36,-747.38"/>
</g>
<!-- page/Dashboard.tsx&#45;&gt;component/Widget.tsx -->
<g id="edge70" class="edge">
<title>page/Dashboard.tsx&#45;&gt;component/Widget.tsx</title>
<path fill="none" stroke="#757575" d="M403.42,-456.35C436.76,-461.28 476.8,-467.2 512.21,-472.44"/>
<polygon fill="#757575" stroke="#757575" points="511.62,-475.89 522.03,-473.89 512.65,-468.96 511.62,-475.89"/>
</g>
<!-- page/Dashboard.tsx&#45;&gt;store/WidgetProvider.tsx -->
<g id="edge72" class="edge">
<title>page/Dashboard.tsx&#45;&gt;store/WidgetProvider.tsx</title>
<path fill="none" stroke="#757575" d="M348.51,-433.8C407.1,-391.96 611.77,-251.69 804,-190.79 1017.94,-123.01 1081.8,-151.13 1305,-127.79 1351.67,-122.91 1403.55,-118.46 1447.06,-115"/>
<polygon fill="#757575" stroke="#757575" points="1447.31,-118.49 1457,-114.22 1446.76,-111.51 1447.31,-118.49"/>
</g>
<!-- page/Dashboard.tsx&#45;&gt;component/Widget/WidgetPropsSettingModal.tsx -->
<g id="edge71" class="edge">
<title>page/Dashboard.tsx&#45;&gt;component/Widget/WidgetPropsSettingModal.tsx</title>
<path fill="none" stroke="#757575" d="M403.42,-435.23C436.19,-430.38 475.45,-424.58 510.4,-419.41"/>
<polygon fill="#757575" stroke="#757575" points="510.71,-422.9 520.09,-417.98 509.69,-415.98 510.71,-422.9"/>
</g>
</g>
</svg>
