<?xml version="1.0" encoding="UTF-8" standalone="no"?>
<!DOCTYPE svg PUBLIC "-//W3C//DTD SVG 1.1//EN"
 "http://www.w3.org/Graphics/SVG/1.1/DTD/svg11.dtd">
<!-- Generated by graphviz version 7.1.0 (20230121.1956)
 -->
<!-- Title: G Pages: 1 -->
<svg width="3077pt" height="999pt"
 viewBox="0.00 0.00 3077.20 999.08" xmlns="http://www.w3.org/2000/svg" xmlns:xlink="http://www.w3.org/1999/xlink">
<g id="graph0" class="graph" transform="scale(1 1) rotate(0) translate(21.6 977.48)">
<title>G</title>
<polygon fill="#111111" stroke="none" points="-21.6,21.6 -21.6,-977.48 3055.6,-977.48 3055.6,21.6 -21.6,21.6"/>
<!-- App.tsx -->
<g id="node1" class="node">
<title>App.tsx</title>
<path fill="none" stroke="#c6c5fe" d="M57.33,-669.88C57.33,-669.88 7.67,-669.88 7.67,-669.88 3.83,-669.88 0,-666.05 0,-662.22 0,-662.22 0,-654.55 0,-654.55 0,-650.72 3.83,-646.88 7.67,-646.88 7.67,-646.88 57.33,-646.88 57.33,-646.88 61.17,-646.88 65,-650.72 65,-654.55 65,-654.55 65,-662.22 65,-662.22 65,-666.05 61.17,-669.88 57.33,-669.88"/>
<text text-anchor="middle" x="32.5" y="-654.68" font-family="Arial" font-size="14.00" fill="#c6c5fe">App.tsx</text>
</g>
<!-- router/Router.tsx -->
<g id="node2" class="node">
<title>router/Router.tsx</title>
<path fill="none" stroke="#c6c5fe" d="M215.33,-669.88C215.33,-669.88 108.67,-669.88 108.67,-669.88 104.83,-669.88 101,-666.05 101,-662.22 101,-662.22 101,-654.55 101,-654.55 101,-650.72 104.83,-646.88 108.67,-646.88 108.67,-646.88 215.33,-646.88 215.33,-646.88 219.17,-646.88 223,-650.72 223,-654.55 223,-654.55 223,-662.22 223,-662.22 223,-666.05 219.17,-669.88 215.33,-669.88"/>
<text text-anchor="middle" x="162" y="-654.68" font-family="Arial" font-size="14.00" fill="#c6c5fe">router/Router.tsx</text>
</g>
<!-- App.tsx&#45;&gt;router/Router.tsx -->
<g id="edge1" class="edge">
<title>App.tsx&#45;&gt;router/Router.tsx</title>
<path fill="none" stroke="#757575" d="M65.34,-658.38C72.7,-658.38 80.81,-658.38 89.12,-658.38"/>
<polygon fill="#757575" stroke="#757575" points="88.99,-661.88 98.99,-658.38 88.99,-654.88 88.99,-661.88"/>
</g>
<!-- page/Dashboard.tsx -->
<g id="node49" class="node">
<title>page/Dashboard.tsx</title>
<path fill="none" stroke="#c6c5fe" d="M395.33,-669.88C395.33,-669.88 266.67,-669.88 266.67,-669.88 262.83,-669.88 259,-666.05 259,-662.22 259,-662.22 259,-654.55 259,-654.55 259,-650.72 262.83,-646.88 266.67,-646.88 266.67,-646.88 395.33,-646.88 395.33,-646.88 399.17,-646.88 403,-650.72 403,-654.55 403,-654.55 403,-662.22 403,-662.22 403,-666.05 399.17,-669.88 395.33,-669.88"/>
<text text-anchor="middle" x="331" y="-654.68" font-family="Arial" font-size="14.00" fill="#c6c5fe">page/Dashboard.tsx</text>
</g>
<!-- router/Router.tsx&#45;&gt;page/Dashboard.tsx -->
<g id="edge70" class="edge">
<title>router/Router.tsx&#45;&gt;page/Dashboard.tsx</title>
<path fill="none" stroke="#757575" d="M223.29,-658.38C231.1,-658.38 239.21,-658.38 247.3,-658.38"/>
<polygon fill="#757575" stroke="#757575" points="247.19,-661.88 257.19,-658.38 247.19,-654.88 247.19,-661.88"/>
</g>
<!-- asset/image/pause.png -->
<g id="node3" class="node">
<title>asset/image/pause.png</title>
<path fill="none" stroke="#cfffac" d="M1619.83,-955.88C1619.83,-955.88 1471.17,-955.88 1471.17,-955.88 1467.33,-955.88 1463.5,-952.05 1463.5,-948.22 1463.5,-948.22 1463.5,-940.55 1463.5,-940.55 1463.5,-936.72 1467.33,-932.88 1471.17,-932.88 1471.17,-932.88 1619.83,-932.88 1619.83,-932.88 1623.67,-932.88 1627.5,-936.72 1627.5,-940.55 1627.5,-940.55 1627.5,-948.22 1627.5,-948.22 1627.5,-952.05 1623.67,-955.88 1619.83,-955.88"/>
<text text-anchor="middle" x="1545.5" y="-940.68" font-family="Arial" font-size="14.00" fill="#cfffac">asset/image/pause.png</text>
</g>
<!-- asset/image/play.png -->
<g id="node4" class="node">
<title>asset/image/play.png</title>
<path fill="none" stroke="#cfffac" d="M1613.33,-914.88C1613.33,-914.88 1477.67,-914.88 1477.67,-914.88 1473.83,-914.88 1470,-911.05 1470,-907.22 1470,-907.22 1470,-899.55 1470,-899.55 1470,-895.72 1473.83,-891.88 1477.67,-891.88 1477.67,-891.88 1613.33,-891.88 1613.33,-891.88 1617.17,-891.88 1621,-895.72 1621,-899.55 1621,-899.55 1621,-907.22 1621,-907.22 1621,-911.05 1617.17,-914.88 1613.33,-914.88"/>
<text text-anchor="middle" x="1545.5" y="-899.68" font-family="Arial" font-size="14.00" fill="#cfffac">asset/image/play.png</text>
</g>
<!-- common/api.ts -->
<g id="node5" class="node">
<title>common/api.ts</title>
<path fill="none" stroke="#c6c5fe" d="M1592.83,-470.88C1592.83,-470.88 1498.17,-470.88 1498.17,-470.88 1494.33,-470.88 1490.5,-467.05 1490.5,-463.22 1490.5,-463.22 1490.5,-455.55 1490.5,-455.55 1490.5,-451.72 1494.33,-447.88 1498.17,-447.88 1498.17,-447.88 1592.83,-447.88 1592.83,-447.88 1596.67,-447.88 1600.5,-451.72 1600.5,-455.55 1600.5,-455.55 1600.5,-463.22 1600.5,-463.22 1600.5,-467.05 1596.67,-470.88 1592.83,-470.88"/>
<text text-anchor="middle" x="1545.5" y="-455.68" font-family="Arial" font-size="14.00" fill="#c6c5fe">common/api.ts</text>
</g>
<!-- types/api.d.ts -->
<g id="node6" class="node">
<title>types/api.d.ts</title>
<path fill="none" stroke="#cfffac" d="M2094.83,-451.88C2094.83,-451.88 2009.17,-451.88 2009.17,-451.88 2005.33,-451.88 2001.5,-448.05 2001.5,-444.22 2001.5,-444.22 2001.5,-436.55 2001.5,-436.55 2001.5,-432.72 2005.33,-428.88 2009.17,-428.88 2009.17,-428.88 2094.83,-428.88 2094.83,-428.88 2098.67,-428.88 2102.5,-432.72 2102.5,-436.55 2102.5,-436.55 2102.5,-444.22 2102.5,-444.22 2102.5,-448.05 2098.67,-451.88 2094.83,-451.88"/>
<text text-anchor="middle" x="2052" y="-436.68" font-family="Arial" font-size="14.00" fill="#cfffac">types/api.d.ts</text>
</g>
<!-- common/api.ts&#45;&gt;types/api.d.ts -->
<g id="edge2" class="edge">
<title>common/api.ts&#45;&gt;types/api.d.ts</title>
<path fill="none" stroke="#757575" d="M1600.97,-457.33C1695.82,-453.76 1890.64,-446.42 1989.93,-442.68"/>
<polygon fill="#757575" stroke="#757575" points="1989.88,-446.19 1999.75,-442.31 1989.62,-439.19 1989.88,-446.19"/>
</g>
<!-- common/chart.ts -->
<g id="node7" class="node">
<title>common/chart.ts</title>
<path fill="none" stroke="#c6c5fe" d="M2105.33,-150.88C2105.33,-150.88 1998.67,-150.88 1998.67,-150.88 1994.83,-150.88 1991,-147.05 1991,-143.22 1991,-143.22 1991,-135.55 1991,-135.55 1991,-131.72 1994.83,-127.88 1998.67,-127.88 1998.67,-127.88 2105.33,-127.88 2105.33,-127.88 2109.17,-127.88 2113,-131.72 2113,-135.55 2113,-135.55 2113,-143.22 2113,-143.22 2113,-147.05 2109.17,-150.88 2105.33,-150.88"/>
<text text-anchor="middle" x="2052" y="-135.68" font-family="Arial" font-size="14.00" fill="#c6c5fe">common/chart.ts</text>
</g>
<!-- types/chart.d.ts -->
<g id="node8" class="node">
<title>types/chart.d.ts</title>
<path fill="none" stroke="#cfffac" d="M2538.33,-210.88C2538.33,-210.88 2440.67,-210.88 2440.67,-210.88 2436.83,-210.88 2433,-207.05 2433,-203.22 2433,-203.22 2433,-195.55 2433,-195.55 2433,-191.72 2436.83,-187.88 2440.67,-187.88 2440.67,-187.88 2538.33,-187.88 2538.33,-187.88 2542.17,-187.88 2546,-191.72 2546,-195.55 2546,-195.55 2546,-203.22 2546,-203.22 2546,-207.05 2542.17,-210.88 2538.33,-210.88"/>
<text text-anchor="middle" x="2489.5" y="-195.68" font-family="Arial" font-size="14.00" fill="#cfffac">types/chart.d.ts</text>
</g>
<!-- common/chart.ts&#45;&gt;types/chart.d.ts -->
<g id="edge3" class="edge">
<title>common/chart.ts&#45;&gt;types/chart.d.ts</title>
<path fill="none" stroke="#757575" d="M2113.37,-145.4C2159.61,-150.22 2224.93,-157.45 2282,-165.38 2328.61,-171.86 2380.92,-180.49 2421.22,-187.43"/>
<polygon fill="#757575" stroke="#757575" points="2420.58,-190.87 2431.03,-189.13 2421.78,-183.97 2420.58,-190.87"/>
</g>
<!-- common/date.ts -->
<g id="node9" class="node">
<title>common/date.ts</title>
<path fill="none" stroke="#cfffac" d="M2541.33,-629.88C2541.33,-629.88 2437.67,-629.88 2437.67,-629.88 2433.83,-629.88 2430,-626.05 2430,-622.22 2430,-622.22 2430,-614.55 2430,-614.55 2430,-610.72 2433.83,-606.88 2437.67,-606.88 2437.67,-606.88 2541.33,-606.88 2541.33,-606.88 2545.17,-606.88 2549,-610.72 2549,-614.55 2549,-614.55 2549,-622.22 2549,-622.22 2549,-626.05 2545.17,-629.88 2541.33,-629.88"/>
<text text-anchor="middle" x="2489.5" y="-614.68" font-family="Arial" font-size="14.00" fill="#cfffac">common/date.ts</text>
</g>
<!-- common/widget.ts -->
<g id="node10" class="node">
<title>common/widget.ts</title>
<path fill="none" stroke="#cfffac" d="M1603.83,-314.88C1603.83,-314.88 1487.17,-314.88 1487.17,-314.88 1483.33,-314.88 1479.5,-311.05 1479.5,-307.22 1479.5,-307.22 1479.5,-299.55 1479.5,-299.55 1479.5,-295.72 1483.33,-291.88 1487.17,-291.88 1487.17,-291.88 1603.83,-291.88 1603.83,-291.88 1607.67,-291.88 1611.5,-295.72 1611.5,-299.55 1611.5,-299.55 1611.5,-307.22 1611.5,-307.22 1611.5,-311.05 1607.67,-314.88 1603.83,-314.88"/>
<text text-anchor="middle" x="1545.5" y="-299.68" font-family="Arial" font-size="14.00" fill="#cfffac">common/widget.ts</text>
</g>
<!-- component/Dashboard/DashboardHeader.tsx -->
<g id="node11" class="node">
<title>component/Dashboard/DashboardHeader.tsx</title>
<path fill="none" stroke="#c6c5fe" d="M747.33,-804.88C747.33,-804.88 459.67,-804.88 459.67,-804.88 455.83,-804.88 452,-801.05 452,-797.22 452,-797.22 452,-789.55 452,-789.55 452,-785.72 455.83,-781.88 459.67,-781.88 459.67,-781.88 747.33,-781.88 747.33,-781.88 751.17,-781.88 755,-785.72 755,-789.55 755,-789.55 755,-797.22 755,-797.22 755,-801.05 751.17,-804.88 747.33,-804.88"/>
<text text-anchor="middle" x="603.5" y="-789.68" font-family="Arial" font-size="14.00" fill="#c6c5fe">component/Dashboard/DashboardHeader.tsx</text>
</g>
<!-- component/Dashboard/DashboardHeader/PlayIcon.tsx -->
<g id="node12" class="node">
<title>component/Dashboard/DashboardHeader/PlayIcon.tsx</title>
<path fill="none" stroke="#c6c5fe" d="M1209.83,-914.88C1209.83,-914.88 863.17,-914.88 863.17,-914.88 859.33,-914.88 855.5,-911.05 855.5,-907.22 855.5,-907.22 855.5,-899.55 855.5,-899.55 855.5,-895.72 859.33,-891.88 863.17,-891.88 863.17,-891.88 1209.83,-891.88 1209.83,-891.88 1213.67,-891.88 1217.5,-895.72 1217.5,-899.55 1217.5,-899.55 1217.5,-907.22 1217.5,-907.22 1217.5,-911.05 1213.67,-914.88 1209.83,-914.88"/>
<text text-anchor="middle" x="1036.5" y="-899.68" font-family="Arial" font-size="14.00" fill="#c6c5fe">component/Dashboard/DashboardHeader/PlayIcon.tsx</text>
</g>
<!-- component/Dashboard/DashboardHeader.tsx&#45;&gt;component/Dashboard/DashboardHeader/PlayIcon.tsx -->
<g id="edge4" class="edge">
<title>component/Dashboard/DashboardHeader.tsx&#45;&gt;component/Dashboard/DashboardHeader/PlayIcon.tsx</title>
<path fill="none" stroke="#757575" d="M629.04,-805.37C666.04,-822.92 738.76,-855.37 804,-872.38 832.27,-879.75 862.96,-885.43 892.48,-889.79"/>
<polygon fill="#757575" stroke="#757575" points="891.83,-893.23 902.22,-891.18 892.82,-886.3 891.83,-893.23"/>
</g>
<!-- component/Dashboard/DashboardHeader/SelectRealTimeRangeArea.tsx -->
<g id="node13" class="node">
<title>component/Dashboard/DashboardHeader/SelectRealTimeRangeArea.tsx</title>
<path fill="none" stroke="#c6c5fe" d="M1778.33,-873.88C1778.33,-873.88 1312.67,-873.88 1312.67,-873.88 1308.83,-873.88 1305,-870.05 1305,-866.22 1305,-866.22 1305,-858.55 1305,-858.55 1305,-854.72 1308.83,-850.88 1312.67,-850.88 1312.67,-850.88 1778.33,-850.88 1778.33,-850.88 1782.17,-850.88 1786,-854.72 1786,-858.55 1786,-858.55 1786,-866.22 1786,-866.22 1786,-870.05 1782.17,-873.88 1778.33,-873.88"/>
<text text-anchor="middle" x="1545.5" y="-858.68" font-family="Arial" font-size="14.00" fill="#c6c5fe">component/Dashboard/DashboardHeader/SelectRealTimeRangeArea.tsx</text>
</g>
<!-- component/Dashboard/DashboardHeader.tsx&#45;&gt;component/Dashboard/DashboardHeader/SelectRealTimeRangeArea.tsx -->
<g id="edge5" class="edge">
<title>component/Dashboard/DashboardHeader.tsx&#45;&gt;component/Dashboard/DashboardHeader/SelectRealTimeRangeArea.tsx</title>
<path fill="none" stroke="#757575" d="M652.94,-805.34C693.12,-814.71 751.91,-827.18 804,-833.38 966.33,-852.71 1149.95,-860 1293.73,-862.43"/>
<polygon fill="#757575" stroke="#757575" points="1293.31,-865.93 1303.37,-862.59 1293.43,-858.93 1293.31,-865.93"/>
</g>
<!-- component/Dashboard/DashboardHeader/TimeBlock.tsx -->
<g id="node14" class="node">
<title>component/Dashboard/DashboardHeader/TimeBlock.tsx</title>
<path fill="none" stroke="#c6c5fe" d="M1215.83,-824.88C1215.83,-824.88 857.17,-824.88 857.17,-824.88 853.33,-824.88 849.5,-821.05 849.5,-817.22 849.5,-817.22 849.5,-809.55 849.5,-809.55 849.5,-805.72 853.33,-801.88 857.17,-801.88 857.17,-801.88 1215.83,-801.88 1215.83,-801.88 1219.67,-801.88 1223.5,-805.72 1223.5,-809.55 1223.5,-809.55 1223.5,-817.22 1223.5,-817.22 1223.5,-821.05 1219.67,-824.88 1215.83,-824.88"/>
<text text-anchor="middle" x="1036.5" y="-809.68" font-family="Arial" font-size="14.00" fill="#c6c5fe">component/Dashboard/DashboardHeader/TimeBlock.tsx</text>
</g>
<!-- component/Dashboard/DashboardHeader.tsx&#45;&gt;component/Dashboard/DashboardHeader/TimeBlock.tsx -->
<g id="edge6" class="edge">
<title>component/Dashboard/DashboardHeader.tsx&#45;&gt;component/Dashboard/DashboardHeader/TimeBlock.tsx</title>
<path fill="none" stroke="#757575" d="M755.24,-800.38C781.91,-801.62 810.04,-802.92 837.77,-804.21"/>
<polygon fill="#757575" stroke="#757575" points="837.55,-807.7 847.7,-804.67 837.87,-800.71 837.55,-807.7"/>
</g>
<!-- store/DashboardProvider.tsx -->
<g id="node15" class="node">
<title>store/DashboardProvider.tsx</title>
<path fill="none" stroke="#c6c5fe" d="M2142.83,-629.88C2142.83,-629.88 1961.17,-629.88 1961.17,-629.88 1957.33,-629.88 1953.5,-626.05 1953.5,-622.22 1953.5,-622.22 1953.5,-614.55 1953.5,-614.55 1953.5,-610.72 1957.33,-606.88 1961.17,-606.88 1961.17,-606.88 2142.83,-606.88 2142.83,-606.88 2146.67,-606.88 2150.5,-610.72 2150.5,-614.55 2150.5,-614.55 2150.5,-622.22 2150.5,-622.22 2150.5,-626.05 2146.67,-629.88 2142.83,-629.88"/>
<text text-anchor="middle" x="2052" y="-614.68" font-family="Arial" font-size="14.00" fill="#c6c5fe">store/DashboardProvider.tsx</text>
</g>
<!-- component/Dashboard/DashboardHeader.tsx&#45;&gt;store/DashboardProvider.tsx -->
<g id="edge7" class="edge">
<title>component/Dashboard/DashboardHeader.tsx&#45;&gt;store/DashboardProvider.tsx</title>
<path fill="none" stroke="#757575" d="M755.17,-786.35C890.02,-779.36 1093,-767.1 1269,-749.38 1499.71,-726.15 1581.67,-789 1786,-679.38 1807.37,-667.92 1800.37,-649.34 1822,-638.38 1858.45,-619.93 1902.38,-613.03 1941.97,-611.41"/>
<polygon fill="#757575" stroke="#757575" points="1941.87,-614.91 1951.77,-611.12 1941.67,-607.91 1941.87,-614.91"/>
</g>
<!-- store/WidgetPropsSettingModalProvider.tsx -->
<g id="node16" class="node">
<title>store/WidgetPropsSettingModalProvider.tsx</title>
<path fill="none" stroke="#c6c5fe" d="M1684.83,-670.88C1684.83,-670.88 1406.17,-670.88 1406.17,-670.88 1402.33,-670.88 1398.5,-667.05 1398.5,-663.22 1398.5,-663.22 1398.5,-655.55 1398.5,-655.55 1398.5,-651.72 1402.33,-647.88 1406.17,-647.88 1406.17,-647.88 1684.83,-647.88 1684.83,-647.88 1688.67,-647.88 1692.5,-651.72 1692.5,-655.55 1692.5,-655.55 1692.5,-663.22 1692.5,-663.22 1692.5,-667.05 1688.67,-670.88 1684.83,-670.88"/>
<text text-anchor="middle" x="1545.5" y="-655.68" font-family="Arial" font-size="14.00" fill="#c6c5fe">store/WidgetPropsSettingModalProvider.tsx</text>
</g>
<!-- component/Dashboard/DashboardHeader.tsx&#45;&gt;store/WidgetPropsSettingModalProvider.tsx -->
<g id="edge8" class="edge">
<title>component/Dashboard/DashboardHeader.tsx&#45;&gt;store/WidgetPropsSettingModalProvider.tsx</title>
<path fill="none" stroke="#757575" d="M668.13,-781.44C707.23,-774.37 758.4,-765.62 804,-759.38 1009.85,-731.25 1063.41,-741.34 1269,-711.38 1340.53,-700.96 1421.79,-685.13 1477.42,-673.67"/>
<polygon fill="#757575" stroke="#757575" points="1477.97,-677.13 1487.05,-671.68 1476.55,-670.28 1477.97,-677.13"/>
</g>
<!-- component/Dashboard/DashboardHeader/PlayIcon.tsx&#45;&gt;asset/image/pause.png -->
<g id="edge16" class="edge">
<title>component/Dashboard/DashboardHeader/PlayIcon.tsx&#45;&gt;asset/image/pause.png</title>
<path fill="none" stroke="#757575" d="M1185.85,-915.38C1271.88,-922.34 1377.55,-930.88 1451.83,-936.89"/>
<polygon fill="#757575" stroke="#757575" points="1451.26,-940.35 1461.51,-937.67 1451.82,-933.38 1451.26,-940.35"/>
</g>
<!-- component/Dashboard/DashboardHeader/PlayIcon.tsx&#45;&gt;asset/image/play.png -->
<g id="edge17" class="edge">
<title>component/Dashboard/DashboardHeader/PlayIcon.tsx&#45;&gt;asset/image/play.png</title>
<path fill="none" stroke="#757575" d="M1217.68,-903.38C1299.6,-903.38 1392.71,-903.38 1458.53,-903.38"/>
<polygon fill="#757575" stroke="#757575" points="1458.16,-906.88 1468.16,-903.38 1458.16,-899.88 1458.16,-906.88"/>
</g>
<!-- hook/useBoolean.tsx -->
<g id="node22" class="node">
<title>hook/useBoolean.tsx</title>
<path fill="none" stroke="#cfffac" d="M2118.83,-670.88C2118.83,-670.88 1985.17,-670.88 1985.17,-670.88 1981.33,-670.88 1977.5,-667.05 1977.5,-663.22 1977.5,-663.22 1977.5,-655.55 1977.5,-655.55 1977.5,-651.72 1981.33,-647.88 1985.17,-647.88 1985.17,-647.88 2118.83,-647.88 2118.83,-647.88 2122.67,-647.88 2126.5,-651.72 2126.5,-655.55 2126.5,-655.55 2126.5,-663.22 2126.5,-663.22 2126.5,-667.05 2122.67,-670.88 2118.83,-670.88"/>
<text text-anchor="middle" x="2052" y="-655.68" font-family="Arial" font-size="14.00" fill="#cfffac">hook/useBoolean.tsx</text>
</g>
<!-- component/Dashboard/DashboardHeader/SelectRealTimeRangeArea.tsx&#45;&gt;hook/useBoolean.tsx -->
<g id="edge20" class="edge">
<title>component/Dashboard/DashboardHeader/SelectRealTimeRangeArea.tsx&#45;&gt;hook/useBoolean.tsx</title>
<path fill="none" stroke="#757575" d="M1606.08,-874.38C1659.22,-881.45 1736.13,-882.27 1786,-841.38 1830.05,-805.27 1781.07,-758 1822,-718.38 1860.03,-681.57 1917.83,-666.87 1965.84,-661.35"/>
<polygon fill="#757575" stroke="#757575" points="1966.09,-664.85 1975.68,-660.35 1965.38,-657.88 1966.09,-664.85"/>
</g>
<!-- hook/useOutsideClick.tsx -->
<g id="node23" class="node">
<title>hook/useOutsideClick.tsx</title>
<path fill="none" stroke="#cfffac" d="M2132.33,-873.88C2132.33,-873.88 1971.67,-873.88 1971.67,-873.88 1967.83,-873.88 1964,-870.05 1964,-866.22 1964,-866.22 1964,-858.55 1964,-858.55 1964,-854.72 1967.83,-850.88 1971.67,-850.88 1971.67,-850.88 2132.33,-850.88 2132.33,-850.88 2136.17,-850.88 2140,-854.72 2140,-858.55 2140,-858.55 2140,-866.22 2140,-866.22 2140,-870.05 2136.17,-873.88 2132.33,-873.88"/>
<text text-anchor="middle" x="2052" y="-858.68" font-family="Arial" font-size="14.00" fill="#cfffac">hook/useOutsideClick.tsx</text>
</g>
<!-- component/Dashboard/DashboardHeader/SelectRealTimeRangeArea.tsx&#45;&gt;hook/useOutsideClick.tsx -->
<g id="edge21" class="edge">
<title>component/Dashboard/DashboardHeader/SelectRealTimeRangeArea.tsx&#45;&gt;hook/useOutsideClick.tsx</title>
<path fill="none" stroke="#757575" d="M1786.19,-862.38C1844.92,-862.38 1904.55,-862.38 1952.32,-862.38"/>
<polygon fill="#757575" stroke="#757575" points="1952.06,-865.88 1962.06,-862.38 1952.06,-858.88 1952.06,-865.88"/>
</g>
<!-- component/Dashboard/DashboardHeader/RealTime.tsx -->
<g id="node24" class="node">
<title>component/Dashboard/DashboardHeader/RealTime.tsx</title>
<path fill="none" stroke="#cfffac" d="M2228.33,-955.88C2228.33,-955.88 1875.67,-955.88 1875.67,-955.88 1871.83,-955.88 1868,-952.05 1868,-948.22 1868,-948.22 1868,-940.55 1868,-940.55 1868,-936.72 1871.83,-932.88 1875.67,-932.88 1875.67,-932.88 2228.33,-932.88 2228.33,-932.88 2232.17,-932.88 2236,-936.72 2236,-940.55 2236,-940.55 2236,-948.22 2236,-948.22 2236,-952.05 2232.17,-955.88 2228.33,-955.88"/>
<text text-anchor="middle" x="2052" y="-940.68" font-family="Arial" font-size="14.00" fill="#cfffac">component/Dashboard/DashboardHeader/RealTime.tsx</text>
</g>
<!-- component/Dashboard/DashboardHeader/SelectRealTimeRangeArea.tsx&#45;&gt;component/Dashboard/DashboardHeader/RealTime.tsx -->
<g id="edge18" class="edge">
<title>component/Dashboard/DashboardHeader/SelectRealTimeRangeArea.tsx&#45;&gt;component/Dashboard/DashboardHeader/RealTime.tsx</title>
<path fill="none" stroke="#757575" d="M1767.89,-874.35C1774.08,-876.76 1780.13,-879.43 1786,-882.38 1807.66,-893.3 1800.39,-912.38 1822,-923.38 1833.08,-929.02 1844.84,-933.6 1856.97,-937.29"/>
<polygon fill="#757575" stroke="#757575" points="1855.69,-940.56 1866.26,-939.9 1857.58,-933.82 1855.69,-940.56"/>
</g>
<!-- component/Dashboard/DashboardHeader/SelectRealTimeListItem.tsx -->
<g id="node25" class="node">
<title>component/Dashboard/DashboardHeader/SelectRealTimeListItem.tsx</title>
<path fill="none" stroke="#cfffac" d="M2274.33,-914.88C2274.33,-914.88 1829.67,-914.88 1829.67,-914.88 1825.83,-914.88 1822,-911.05 1822,-907.22 1822,-907.22 1822,-899.55 1822,-899.55 1822,-895.72 1825.83,-891.88 1829.67,-891.88 1829.67,-891.88 2274.33,-891.88 2274.33,-891.88 2278.17,-891.88 2282,-895.72 2282,-899.55 2282,-899.55 2282,-907.22 2282,-907.22 2282,-911.05 2278.17,-914.88 2274.33,-914.88"/>
<text text-anchor="middle" x="2052" y="-899.68" font-family="Arial" font-size="14.00" fill="#cfffac">component/Dashboard/DashboardHeader/SelectRealTimeListItem.tsx</text>
</g>
<!-- component/Dashboard/DashboardHeader/SelectRealTimeRangeArea.tsx&#45;&gt;component/Dashboard/DashboardHeader/SelectRealTimeListItem.tsx -->
<g id="edge19" class="edge">
<title>component/Dashboard/DashboardHeader/SelectRealTimeRangeArea.tsx&#45;&gt;component/Dashboard/DashboardHeader/SelectRealTimeListItem.tsx</title>
<path fill="none" stroke="#757575" d="M1694.12,-874.38C1756.39,-879.44 1829,-885.34 1892.41,-890.49"/>
<polygon fill="#757575" stroke="#757575" points="1891.97,-893.97 1902.22,-891.29 1892.54,-886.99 1891.97,-893.97"/>
</g>
<!-- component/Dashboard/DashboardHeader/CurrentTime.tsx -->
<g id="node17" class="node">
<title>component/Dashboard/DashboardHeader/CurrentTime.tsx</title>
<path fill="none" stroke="#c6c5fe" d="M1730.83,-832.88C1730.83,-832.88 1360.17,-832.88 1360.17,-832.88 1356.33,-832.88 1352.5,-829.05 1352.5,-825.22 1352.5,-825.22 1352.5,-817.55 1352.5,-817.55 1352.5,-813.72 1356.33,-809.88 1360.17,-809.88 1360.17,-809.88 1730.83,-809.88 1730.83,-809.88 1734.67,-809.88 1738.5,-813.72 1738.5,-817.55 1738.5,-817.55 1738.5,-825.22 1738.5,-825.22 1738.5,-829.05 1734.67,-832.88 1730.83,-832.88"/>
<text text-anchor="middle" x="1545.5" y="-817.68" font-family="Arial" font-size="14.00" fill="#c6c5fe">component/Dashboard/DashboardHeader/CurrentTime.tsx</text>
</g>
<!-- component/Dashboard/DashboardHeader/TimeBlock.tsx&#45;&gt;component/Dashboard/DashboardHeader/CurrentTime.tsx -->
<g id="edge22" class="edge">
<title>component/Dashboard/DashboardHeader/TimeBlock.tsx&#45;&gt;component/Dashboard/DashboardHeader/CurrentTime.tsx</title>
<path fill="none" stroke="#757575" d="M1223.77,-816.32C1261.82,-816.92 1302.05,-817.56 1340.68,-818.17"/>
<polygon fill="#757575" stroke="#757575" points="1340.5,-821.66 1350.55,-818.32 1340.61,-814.67 1340.5,-821.66"/>
</g>
<!-- component/Dashboard/DashboardHeader/DatePickerArea.tsx -->
<g id="node20" class="node">
<title>component/Dashboard/DashboardHeader/DatePickerArea.tsx</title>
<path fill="none" stroke="#c6c5fe" d="M1741.33,-791.88C1741.33,-791.88 1349.67,-791.88 1349.67,-791.88 1345.83,-791.88 1342,-788.05 1342,-784.22 1342,-784.22 1342,-776.55 1342,-776.55 1342,-772.72 1345.83,-768.88 1349.67,-768.88 1349.67,-768.88 1741.33,-768.88 1741.33,-768.88 1745.17,-768.88 1749,-772.72 1749,-776.55 1749,-776.55 1749,-784.22 1749,-784.22 1749,-788.05 1745.17,-791.88 1741.33,-791.88"/>
<text text-anchor="middle" x="1545.5" y="-776.68" font-family="Arial" font-size="14.00" fill="#c6c5fe">component/Dashboard/DashboardHeader/DatePickerArea.tsx</text>
</g>
<!-- component/Dashboard/DashboardHeader/TimeBlock.tsx&#45;&gt;component/Dashboard/DashboardHeader/DatePickerArea.tsx -->
<g id="edge23" class="edge">
<title>component/Dashboard/DashboardHeader/TimeBlock.tsx&#45;&gt;component/Dashboard/DashboardHeader/DatePickerArea.tsx</title>
<path fill="none" stroke="#757575" d="M1221.61,-801.4C1263,-798.71 1307.06,-795.84 1348.89,-793.11"/>
<polygon fill="#757575" stroke="#757575" points="1349.08,-796.61 1358.83,-792.47 1348.63,-789.63 1349.08,-796.61"/>
</g>
<!-- store/DashboardProvider.tsx&#45;&gt;common/date.ts -->
<g id="edge71" class="edge">
<title>store/DashboardProvider.tsx&#45;&gt;common/date.ts</title>
<path fill="none" stroke="#757575" d="M2150.73,-618.38C2232.03,-618.38 2345.77,-618.38 2418.3,-618.38"/>
<polygon fill="#757575" stroke="#757575" points="2418.06,-621.88 2428.06,-618.38 2418.06,-614.88 2418.06,-621.88"/>
</g>
<!-- store/WidgetPropsSettingModalProvider.tsx&#45;&gt;hook/useBoolean.tsx -->
<g id="edge72" class="edge">
<title>store/WidgetPropsSettingModalProvider.tsx&#45;&gt;hook/useBoolean.tsx</title>
<path fill="none" stroke="#757575" d="M1692.76,-659.38C1781.46,-659.38 1891.54,-659.38 1966.09,-659.38"/>
<polygon fill="#757575" stroke="#757575" points="1965.77,-662.88 1975.77,-659.38 1965.77,-655.88 1965.77,-662.88"/>
</g>
<!-- hook/useCurrentTime.tsx -->
<g id="node18" class="node">
<title>hook/useCurrentTime.tsx</title>
<path fill="none" stroke="#cfffac" d="M2131.83,-832.88C2131.83,-832.88 1972.17,-832.88 1972.17,-832.88 1968.33,-832.88 1964.5,-829.05 1964.5,-825.22 1964.5,-825.22 1964.5,-817.55 1964.5,-817.55 1964.5,-813.72 1968.33,-809.88 1972.17,-809.88 1972.17,-809.88 2131.83,-809.88 2131.83,-809.88 2135.67,-809.88 2139.5,-813.72 2139.5,-817.55 2139.5,-817.55 2139.5,-825.22 2139.5,-825.22 2139.5,-829.05 2135.67,-832.88 2131.83,-832.88"/>
<text text-anchor="middle" x="2052" y="-817.68" font-family="Arial" font-size="14.00" fill="#cfffac">hook/useCurrentTime.tsx</text>
</g>
<!-- component/Dashboard/DashboardHeader/CurrentTime.tsx&#45;&gt;hook/useCurrentTime.tsx -->
<g id="edge9" class="edge">
<title>component/Dashboard/DashboardHeader/CurrentTime.tsx&#45;&gt;hook/useCurrentTime.tsx</title>
<path fill="none" stroke="#757575" d="M1738.67,-821.38C1811.66,-821.38 1891.77,-821.38 1952.58,-821.38"/>
<polygon fill="#757575" stroke="#757575" points="1952.58,-824.88 1962.58,-821.38 1952.58,-817.88 1952.58,-824.88"/>
</g>
<!-- component/Dashboard/DashboardHeader/DateBox.tsx -->
<g id="node19" class="node">
<title>component/Dashboard/DashboardHeader/DateBox.tsx</title>
<path fill="none" stroke="#cfffac" d="M2225.33,-750.88C2225.33,-750.88 1878.67,-750.88 1878.67,-750.88 1874.83,-750.88 1871,-747.05 1871,-743.22 1871,-743.22 1871,-735.55 1871,-735.55 1871,-731.72 1874.83,-727.88 1878.67,-727.88 1878.67,-727.88 2225.33,-727.88 2225.33,-727.88 2229.17,-727.88 2233,-731.72 2233,-735.55 2233,-735.55 2233,-743.22 2233,-743.22 2233,-747.05 2229.17,-750.88 2225.33,-750.88"/>
<text text-anchor="middle" x="2052" y="-735.68" font-family="Arial" font-size="14.00" fill="#cfffac">component/Dashboard/DashboardHeader/DateBox.tsx</text>
</g>
<!-- component/Dashboard/DashboardHeader/DatePickerArea.tsx&#45;&gt;common/date.ts -->
<g id="edge10" class="edge">
<title>component/Dashboard/DashboardHeader/DatePickerArea.tsx&#45;&gt;common/date.ts</title>
<path fill="none" stroke="#757575" d="M1749.22,-768.42C1761.93,-764.61 1774.31,-759.98 1786,-754.38 1806.41,-744.61 1801.48,-727.92 1822,-718.38 1915.04,-675.15 2181.18,-698.35 2282,-679.38 2339.38,-668.59 2403.6,-648.26 2444.97,-634.05"/>
<polygon fill="#757575" stroke="#757575" points="2446.02,-637.39 2454.31,-630.81 2443.72,-630.78 2446.02,-637.39"/>
</g>
<!-- component/Dashboard/DashboardHeader/DatePickerArea.tsx&#45;&gt;store/DashboardProvider.tsx -->
<g id="edge15" class="edge">
<title>component/Dashboard/DashboardHeader/DatePickerArea.tsx&#45;&gt;store/DashboardProvider.tsx</title>
<path fill="none" stroke="#757575" d="M1624.97,-792.37C1676.29,-795.7 1741.77,-790.81 1786,-754.38 1827.67,-720.06 1779.97,-672.26 1822,-638.38 1864.95,-603.76 1928.28,-600.7 1977.47,-605.2"/>
<polygon fill="#757575" stroke="#757575" points="1976.87,-608.66 1987.18,-606.23 1977.6,-601.7 1976.87,-608.66"/>
</g>
<!-- component/Dashboard/DashboardHeader/DatePickerArea.tsx&#45;&gt;component/Dashboard/DashboardHeader/DateBox.tsx -->
<g id="edge11" class="edge">
<title>component/Dashboard/DashboardHeader/DatePickerArea.tsx&#45;&gt;component/Dashboard/DashboardHeader/DateBox.tsx</title>
<path fill="none" stroke="#757575" d="M1694.12,-768.39C1756.39,-763.33 1829,-757.42 1892.41,-752.27"/>
<polygon fill="#757575" stroke="#757575" points="1892.54,-755.77 1902.22,-751.47 1891.97,-748.8 1892.54,-755.77"/>
</g>
<!-- component/common/DatePicker.tsx -->
<g id="node21" class="node">
<title>component/common/DatePicker.tsx</title>
<path fill="none" stroke="#c6c5fe" d="M2165.33,-791.88C2165.33,-791.88 1938.67,-791.88 1938.67,-791.88 1934.83,-791.88 1931,-788.05 1931,-784.22 1931,-784.22 1931,-776.55 1931,-776.55 1931,-772.72 1934.83,-768.88 1938.67,-768.88 1938.67,-768.88 2165.33,-768.88 2165.33,-768.88 2169.17,-768.88 2173,-772.72 2173,-776.55 2173,-776.55 2173,-784.22 2173,-784.22 2173,-788.05 2169.17,-791.88 2165.33,-791.88"/>
<text text-anchor="middle" x="2052" y="-776.68" font-family="Arial" font-size="14.00" fill="#c6c5fe">component/common/DatePicker.tsx</text>
</g>
<!-- component/Dashboard/DashboardHeader/DatePickerArea.tsx&#45;&gt;component/common/DatePicker.tsx -->
<g id="edge12" class="edge">
<title>component/Dashboard/DashboardHeader/DatePickerArea.tsx&#45;&gt;component/common/DatePicker.tsx</title>
<path fill="none" stroke="#757575" d="M1749.16,-780.38C1806.46,-780.38 1867.31,-780.38 1919.26,-780.38"/>
<polygon fill="#757575" stroke="#757575" points="1919.03,-783.88 1929.03,-780.38 1919.03,-776.88 1919.03,-783.88"/>
</g>
<!-- component/Dashboard/DashboardHeader/DatePickerArea.tsx&#45;&gt;hook/useBoolean.tsx -->
<g id="edge13" class="edge">
<title>component/Dashboard/DashboardHeader/DatePickerArea.tsx&#45;&gt;hook/useBoolean.tsx</title>
<path fill="none" stroke="#757575" d="M1749.43,-773.17C1762.35,-768.28 1774.69,-762.11 1786,-754.38 1814.57,-734.88 1793.48,-704.96 1822,-685.38 1863.53,-656.88 1919.58,-650.12 1965.83,-650.62"/>
<polygon fill="#757575" stroke="#757575" points="1965.47,-654.11 1975.55,-650.84 1965.63,-647.11 1965.47,-654.11"/>
</g>
<!-- component/Dashboard/DashboardHeader/DatePickerArea.tsx&#45;&gt;hook/useOutsideClick.tsx -->
<g id="edge14" class="edge">
<title>component/Dashboard/DashboardHeader/DatePickerArea.tsx&#45;&gt;hook/useOutsideClick.tsx</title>
<path fill="none" stroke="#757575" d="M1749.24,-785.99C1761.99,-789.78 1774.36,-794.52 1786,-800.38 1807.66,-811.3 1800.39,-830.38 1822,-841.38 1861.6,-861.54 1910.05,-868.14 1952.17,-869.16"/>
<polygon fill="#757575" stroke="#757575" points="1952.03,-872.66 1962.07,-869.29 1952.12,-865.66 1952.03,-872.66"/>
</g>
<!-- component/common/DatePicker/DatePickerTitle.tsx -->
<g id="node44" class="node">
<title>component/common/DatePicker/DatePickerTitle.tsx</title>
<path fill="none" stroke="#c6c5fe" d="M2653.33,-751.88C2653.33,-751.88 2325.67,-751.88 2325.67,-751.88 2321.83,-751.88 2318,-748.05 2318,-744.22 2318,-744.22 2318,-736.55 2318,-736.55 2318,-732.72 2321.83,-728.88 2325.67,-728.88 2325.67,-728.88 2653.33,-728.88 2653.33,-728.88 2657.17,-728.88 2661,-732.72 2661,-736.55 2661,-736.55 2661,-744.22 2661,-744.22 2661,-748.05 2657.17,-751.88 2653.33,-751.88"/>
<text text-anchor="middle" x="2489.5" y="-736.68" font-family="Arial" font-size="14.00" fill="#c6c5fe">component/common/DatePicker/DatePickerTitle.tsx</text>
</g>
<!-- component/common/DatePicker.tsx&#45;&gt;component/common/DatePicker/DatePickerTitle.tsx -->
<g id="edge53" class="edge">
<title>component/common/DatePicker.tsx&#45;&gt;component/common/DatePicker/DatePickerTitle.tsx</title>
<path fill="none" stroke="#757575" d="M2173.33,-769.36C2208.37,-766.14 2246.72,-762.62 2282,-759.38 2302.99,-757.46 2325.18,-755.42 2346.92,-753.42"/>
<polygon fill="#757575" stroke="#757575" points="2347.1,-756.91 2356.73,-752.51 2346.45,-749.94 2347.1,-756.91"/>
</g>
<!-- component/common/DatePicker/ListPicker.tsx -->
<g id="node45" class="node">
<title>component/common/DatePicker/ListPicker.tsx</title>
<path fill="none" stroke="#c6c5fe" d="M2635.83,-831.88C2635.83,-831.88 2343.17,-831.88 2343.17,-831.88 2339.33,-831.88 2335.5,-828.05 2335.5,-824.22 2335.5,-824.22 2335.5,-816.55 2335.5,-816.55 2335.5,-812.72 2339.33,-808.88 2343.17,-808.88 2343.17,-808.88 2635.83,-808.88 2635.83,-808.88 2639.67,-808.88 2643.5,-812.72 2643.5,-816.55 2643.5,-816.55 2643.5,-824.22 2643.5,-824.22 2643.5,-828.05 2639.67,-831.88 2635.83,-831.88"/>
<text text-anchor="middle" x="2489.5" y="-816.68" font-family="Arial" font-size="14.00" fill="#c6c5fe">component/common/DatePicker/ListPicker.tsx</text>
</g>
<!-- component/common/DatePicker.tsx&#45;&gt;component/common/DatePicker/ListPicker.tsx -->
<g id="edge54" class="edge">
<title>component/common/DatePicker.tsx&#45;&gt;component/common/DatePicker/ListPicker.tsx</title>
<path fill="none" stroke="#757575" d="M2173.35,-790.68C2208.39,-793.74 2246.73,-797.14 2282,-800.38 2305.79,-802.57 2331.12,-804.97 2355.59,-807.32"/>
<polygon fill="#757575" stroke="#757575" points="2354.97,-810.78 2365.26,-808.26 2355.64,-803.81 2354.97,-810.78"/>
</g>
<!-- types/datePicker.d.ts -->
<g id="node46" class="node">
<title>types/datePicker.d.ts</title>
<path fill="none" stroke="#cfffac" d="M2932.33,-792.88C2932.33,-792.88 2798.67,-792.88 2798.67,-792.88 2794.83,-792.88 2791,-789.05 2791,-785.22 2791,-785.22 2791,-777.55 2791,-777.55 2791,-773.72 2794.83,-769.88 2798.67,-769.88 2798.67,-769.88 2932.33,-769.88 2932.33,-769.88 2936.17,-769.88 2940,-773.72 2940,-777.55 2940,-777.55 2940,-785.22 2940,-785.22 2940,-789.05 2936.17,-792.88 2932.33,-792.88"/>
<text text-anchor="middle" x="2865.5" y="-777.68" font-family="Arial" font-size="14.00" fill="#cfffac">types/datePicker.d.ts</text>
</g>
<!-- component/common/DatePicker.tsx&#45;&gt;types/datePicker.d.ts -->
<g id="edge55" class="edge">
<title>component/common/DatePicker.tsx&#45;&gt;types/datePicker.d.ts</title>
<path fill="none" stroke="#757575" d="M2173.18,-780.53C2339.1,-780.74 2634.25,-781.1 2779.27,-781.28"/>
<polygon fill="#757575" stroke="#757575" points="2779.2,-784.78 2789.2,-781.29 2779.21,-777.78 2779.2,-784.78"/>
</g>
<!-- component/Widget/Widget.tsx -->
<g id="node26" class="node">
<title>component/Widget/Widget.tsx</title>
<path fill="none" stroke="#c6c5fe" d="M700.33,-468.88C700.33,-468.88 506.67,-468.88 506.67,-468.88 502.83,-468.88 499,-465.05 499,-461.22 499,-461.22 499,-453.55 499,-453.55 499,-449.72 502.83,-445.88 506.67,-445.88 506.67,-445.88 700.33,-445.88 700.33,-445.88 704.17,-445.88 708,-449.72 708,-453.55 708,-453.55 708,-461.22 708,-461.22 708,-465.05 704.17,-468.88 700.33,-468.88"/>
<text text-anchor="middle" x="603.5" y="-453.68" font-family="Arial" font-size="14.00" fill="#c6c5fe">component/Widget/Widget.tsx</text>
</g>
<!-- component/Widget/Widget.tsx&#45;&gt;hook/useBoolean.tsx -->
<g id="edge28" class="edge">
<title>component/Widget/Widget.tsx&#45;&gt;hook/useBoolean.tsx</title>
<path fill="none" stroke="#757575" d="M708.27,-468.16C739.07,-471.25 772.89,-474.56 804,-477.38 817.63,-478.62 1774.84,-549.47 1786,-557.38 1818.13,-580.17 1789.98,-615.43 1822,-638.38 1862.99,-667.77 1919.29,-673.27 1965.81,-671.3"/>
<polygon fill="#757575" stroke="#757575" points="1965.81,-674.8 1975.59,-670.75 1965.42,-667.81 1965.81,-674.8"/>
</g>
<!-- component/Widget/WidgetButtons.tsx -->
<g id="node27" class="node">
<title>component/Widget/WidgetButtons.tsx</title>
<path fill="none" stroke="#c6c5fe" d="M1157.33,-548.88C1157.33,-548.88 915.67,-548.88 915.67,-548.88 911.83,-548.88 908,-545.05 908,-541.22 908,-541.22 908,-533.55 908,-533.55 908,-529.72 911.83,-525.88 915.67,-525.88 915.67,-525.88 1157.33,-525.88 1157.33,-525.88 1161.17,-525.88 1165,-529.72 1165,-533.55 1165,-533.55 1165,-541.22 1165,-541.22 1165,-545.05 1161.17,-548.88 1157.33,-548.88"/>
<text text-anchor="middle" x="1036.5" y="-533.68" font-family="Arial" font-size="14.00" fill="#c6c5fe">component/Widget/WidgetButtons.tsx</text>
</g>
<!-- component/Widget/Widget.tsx&#45;&gt;component/Widget/WidgetButtons.tsx -->
<g id="edge24" class="edge">
<title>component/Widget/Widget.tsx&#45;&gt;component/Widget/WidgetButtons.tsx</title>
<path fill="none" stroke="#757575" d="M641.98,-469.37C681.78,-481.66 746.72,-500.48 804,-511.38 833.72,-517.04 865.84,-521.61 896.42,-525.25"/>
<polygon fill="#757575" stroke="#757575" points="895.77,-528.7 906.11,-526.37 896.58,-521.74 895.77,-528.7"/>
</g>
<!-- component/Widget/WidgetCallCycleSettingModal.tsx -->
<g id="node28" class="node">
<title>component/Widget/WidgetCallCycleSettingModal.tsx</title>
<path fill="none" stroke="#c6c5fe" d="M1204.33,-293.88C1204.33,-293.88 868.67,-293.88 868.67,-293.88 864.83,-293.88 861,-290.05 861,-286.22 861,-286.22 861,-278.55 861,-278.55 861,-274.72 864.83,-270.88 868.67,-270.88 868.67,-270.88 1204.33,-270.88 1204.33,-270.88 1208.17,-270.88 1212,-274.72 1212,-278.55 1212,-278.55 1212,-286.22 1212,-286.22 1212,-290.05 1208.17,-293.88 1204.33,-293.88"/>
<text text-anchor="middle" x="1036.5" y="-278.68" font-family="Arial" font-size="14.00" fill="#c6c5fe">component/Widget/WidgetCallCycleSettingModal.tsx</text>
</g>
<!-- component/Widget/Widget.tsx&#45;&gt;component/Widget/WidgetCallCycleSettingModal.tsx -->
<g id="edge25" class="edge">
<title>component/Widget/Widget.tsx&#45;&gt;component/Widget/WidgetCallCycleSettingModal.tsx</title>
<path fill="none" stroke="#757575" d="M633.79,-445.49C709.11,-414.91 909.68,-333.47 995.56,-298.6"/>
<polygon fill="#757575" stroke="#757575" points="996.82,-301.86 1004.77,-294.86 994.19,-295.38 996.82,-301.86"/>
</g>
<!-- component/Widget/WidgetChart.tsx -->
<g id="node29" class="node">
<title>component/Widget/WidgetChart.tsx</title>
<path fill="none" stroke="#c6c5fe" d="M1149.83,-171.88C1149.83,-171.88 923.17,-171.88 923.17,-171.88 919.33,-171.88 915.5,-168.05 915.5,-164.22 915.5,-164.22 915.5,-156.55 915.5,-156.55 915.5,-152.72 919.33,-148.88 923.17,-148.88 923.17,-148.88 1149.83,-148.88 1149.83,-148.88 1153.67,-148.88 1157.5,-152.72 1157.5,-156.55 1157.5,-156.55 1157.5,-164.22 1157.5,-164.22 1157.5,-168.05 1153.67,-171.88 1149.83,-171.88"/>
<text text-anchor="middle" x="1036.5" y="-156.68" font-family="Arial" font-size="14.00" fill="#c6c5fe">component/Widget/WidgetChart.tsx</text>
</g>
<!-- component/Widget/Widget.tsx&#45;&gt;component/Widget/WidgetChart.tsx -->
<g id="edge26" class="edge">
<title>component/Widget/Widget.tsx&#45;&gt;component/Widget/WidgetChart.tsx</title>
<path fill="none" stroke="#757575" d="M613.7,-445.73C640.15,-412.87 719.9,-318.18 804,-261.38 861.82,-222.34 937.19,-192.81 985.96,-176.06"/>
<polygon fill="#757575" stroke="#757575" points="987.07,-179.38 995.42,-172.86 984.83,-172.75 987.07,-179.38"/>
</g>
<!-- hook/Widget/useHandleWidgetApi.tsx -->
<g id="node30" class="node">
<title>hook/Widget/useHandleWidgetApi.tsx</title>
<path fill="none" stroke="#c6c5fe" d="M1157.33,-427.88C1157.33,-427.88 915.67,-427.88 915.67,-427.88 911.83,-427.88 908,-424.05 908,-420.22 908,-420.22 908,-412.55 908,-412.55 908,-408.72 911.83,-404.88 915.67,-404.88 915.67,-404.88 1157.33,-404.88 1157.33,-404.88 1161.17,-404.88 1165,-408.72 1165,-412.55 1165,-412.55 1165,-420.22 1165,-420.22 1165,-424.05 1161.17,-427.88 1157.33,-427.88"/>
<text text-anchor="middle" x="1036.5" y="-412.68" font-family="Arial" font-size="14.00" fill="#c6c5fe">hook/Widget/useHandleWidgetApi.tsx</text>
</g>
<!-- component/Widget/Widget.tsx&#45;&gt;hook/Widget/useHandleWidgetApi.tsx -->
<g id="edge27" class="edge">
<title>component/Widget/Widget.tsx&#45;&gt;hook/Widget/useHandleWidgetApi.tsx</title>
<path fill="none" stroke="#757575" d="M708.26,-446.09C739.07,-442.84 772.89,-439.36 804,-436.38 833.95,-433.51 866.1,-430.62 896.63,-427.96"/>
<polygon fill="#757575" stroke="#757575" points="896.63,-431.47 906.29,-427.12 896.02,-424.49 896.63,-431.47"/>
</g>
<!-- component/Widget/WidgetButtons.tsx&#45;&gt;store/WidgetPropsSettingModalProvider.tsx -->
<g id="edge29" class="edge">
<title>component/Widget/WidgetButtons.tsx&#45;&gt;store/WidgetPropsSettingModalProvider.tsx</title>
<path fill="none" stroke="#757575" d="M1165.41,-531.27C1200.49,-534.08 1237.5,-541.45 1269,-557.38 1290.64,-568.33 1284.32,-585.71 1305,-598.38 1343.2,-621.79 1390.08,-636.26 1432.21,-645.17"/>
<polygon fill="#757575" stroke="#757575" points="1431.4,-648.58 1441.9,-647.13 1432.79,-641.72 1431.4,-648.58"/>
</g>
<!-- store/WidgetProvider.tsx -->
<g id="node31" class="node">
<title>store/WidgetProvider.tsx</title>
<path fill="none" stroke="#c6c5fe" d="M1624.33,-589.88C1624.33,-589.88 1466.67,-589.88 1466.67,-589.88 1462.83,-589.88 1459,-586.05 1459,-582.22 1459,-582.22 1459,-574.55 1459,-574.55 1459,-570.72 1462.83,-566.88 1466.67,-566.88 1466.67,-566.88 1624.33,-566.88 1624.33,-566.88 1628.17,-566.88 1632,-570.72 1632,-574.55 1632,-574.55 1632,-582.22 1632,-582.22 1632,-586.05 1628.17,-589.88 1624.33,-589.88"/>
<text text-anchor="middle" x="1545.5" y="-574.68" font-family="Arial" font-size="14.00" fill="#c6c5fe">store/WidgetProvider.tsx</text>
</g>
<!-- component/Widget/WidgetButtons.tsx&#45;&gt;store/WidgetProvider.tsx -->
<g id="edge30" class="edge">
<title>component/Widget/WidgetButtons.tsx&#45;&gt;store/WidgetProvider.tsx</title>
<path fill="none" stroke="#757575" d="M1165.44,-547.73C1253.13,-554.82 1367.64,-564.08 1447.76,-570.56"/>
<polygon fill="#757575" stroke="#757575" points="1447.08,-574.02 1457.33,-571.33 1447.64,-567.04 1447.08,-574.02"/>
</g>
<!-- component/Widget/WidgetCallCycleSettingModal.tsx&#45;&gt;common/widget.ts -->
<g id="edge31" class="edge">
<title>component/Widget/WidgetCallCycleSettingModal.tsx&#45;&gt;common/widget.ts</title>
<path fill="none" stroke="#757575" d="M1212.34,-289.62C1299.49,-293.23 1400.42,-297.42 1467.94,-300.21"/>
<polygon fill="#757575" stroke="#757575" points="1467.66,-303.7 1477.8,-300.62 1467.95,-296.71 1467.66,-303.7"/>
</g>
<!-- component/Widget/WidgetCallCycleSettingModal/CycleInput.tsx -->
<g id="node32" class="node">
<title>component/Widget/WidgetCallCycleSettingModal/CycleInput.tsx</title>
<path fill="none" stroke="#cfffac" d="M1748.83,-232.88C1748.83,-232.88 1342.17,-232.88 1342.17,-232.88 1338.33,-232.88 1334.5,-229.05 1334.5,-225.22 1334.5,-225.22 1334.5,-217.55 1334.5,-217.55 1334.5,-213.72 1338.33,-209.88 1342.17,-209.88 1342.17,-209.88 1748.83,-209.88 1748.83,-209.88 1752.67,-209.88 1756.5,-213.72 1756.5,-217.55 1756.5,-217.55 1756.5,-225.22 1756.5,-225.22 1756.5,-229.05 1752.67,-232.88 1748.83,-232.88"/>
<text text-anchor="middle" x="1545.5" y="-217.68" font-family="Arial" font-size="14.00" fill="#cfffac">component/Widget/WidgetCallCycleSettingModal/CycleInput.tsx</text>
</g>
<!-- component/Widget/WidgetCallCycleSettingModal.tsx&#45;&gt;component/Widget/WidgetCallCycleSettingModal/CycleInput.tsx -->
<g id="edge32" class="edge">
<title>component/Widget/WidgetCallCycleSettingModal.tsx&#45;&gt;component/Widget/WidgetCallCycleSettingModal/CycleInput.tsx</title>
<path fill="none" stroke="#757575" d="M1106.88,-270.41C1160.78,-261.43 1237.46,-249.37 1305,-241.38 1326.45,-238.85 1349.01,-236.52 1371.36,-234.42"/>
<polygon fill="#757575" stroke="#757575" points="1371.52,-237.92 1381.16,-233.51 1370.88,-230.95 1371.52,-237.92"/>
</g>
<!-- component/Widget/WidgetCallCycleSettingModal/LastCallTimeBox.tsx -->
<g id="node33" class="node">
<title>component/Widget/WidgetCallCycleSettingModal/LastCallTimeBox.tsx</title>
<path fill="none" stroke="#cfffac" d="M1769.33,-273.88C1769.33,-273.88 1321.67,-273.88 1321.67,-273.88 1317.83,-273.88 1314,-270.05 1314,-266.22 1314,-266.22 1314,-258.55 1314,-258.55 1314,-254.72 1317.83,-250.88 1321.67,-250.88 1321.67,-250.88 1769.33,-250.88 1769.33,-250.88 1773.17,-250.88 1777,-254.72 1777,-258.55 1777,-258.55 1777,-266.22 1777,-266.22 1777,-270.05 1773.17,-273.88 1769.33,-273.88"/>
<text text-anchor="middle" x="1545.5" y="-258.68" font-family="Arial" font-size="14.00" fill="#cfffac">component/Widget/WidgetCallCycleSettingModal/LastCallTimeBox.tsx</text>
</g>
<!-- component/Widget/WidgetCallCycleSettingModal.tsx&#45;&gt;component/Widget/WidgetCallCycleSettingModal/LastCallTimeBox.tsx -->
<g id="edge33" class="edge">
<title>component/Widget/WidgetCallCycleSettingModal.tsx&#45;&gt;component/Widget/WidgetCallCycleSettingModal/LastCallTimeBox.tsx</title>
<path fill="none" stroke="#757575" d="M1212.34,-275.49C1241.41,-274.34 1272.01,-273.13 1302.4,-271.93"/>
<polygon fill="#757575" stroke="#757575" points="1302.21,-275.44 1312.06,-271.55 1301.93,-268.45 1302.21,-275.44"/>
</g>
<!-- component/chart/BarChart.tsx -->
<g id="node34" class="node">
<title>component/chart/BarChart.tsx</title>
<path fill="none" stroke="#c6c5fe" d="M1639.33,-150.88C1639.33,-150.88 1451.67,-150.88 1451.67,-150.88 1447.83,-150.88 1444,-147.05 1444,-143.22 1444,-143.22 1444,-135.55 1444,-135.55 1444,-131.72 1447.83,-127.88 1451.67,-127.88 1451.67,-127.88 1639.33,-127.88 1639.33,-127.88 1643.17,-127.88 1647,-131.72 1647,-135.55 1647,-135.55 1647,-143.22 1647,-143.22 1647,-147.05 1643.17,-150.88 1639.33,-150.88"/>
<text text-anchor="middle" x="1545.5" y="-135.68" font-family="Arial" font-size="14.00" fill="#c6c5fe">component/chart/BarChart.tsx</text>
</g>
<!-- component/Widget/WidgetChart.tsx&#45;&gt;component/chart/BarChart.tsx -->
<g id="edge34" class="edge">
<title>component/Widget/WidgetChart.tsx&#45;&gt;component/chart/BarChart.tsx</title>
<path fill="none" stroke="#757575" d="M1157.97,-155.39C1241.18,-151.95 1351.08,-147.39 1432.41,-144.03"/>
<polygon fill="#757575" stroke="#757575" points="1432.34,-147.53 1442.18,-143.62 1432.05,-140.54 1432.34,-147.53"/>
</g>
<!-- component/chart/InformaticsChart.tsx -->
<g id="node35" class="node">
<title>component/chart/InformaticsChart.tsx</title>
<path fill="none" stroke="#c6c5fe" d="M1663.83,-191.88C1663.83,-191.88 1427.17,-191.88 1427.17,-191.88 1423.33,-191.88 1419.5,-188.05 1419.5,-184.22 1419.5,-184.22 1419.5,-176.55 1419.5,-176.55 1419.5,-172.72 1423.33,-168.88 1427.17,-168.88 1427.17,-168.88 1663.83,-168.88 1663.83,-168.88 1667.67,-168.88 1671.5,-172.72 1671.5,-176.55 1671.5,-176.55 1671.5,-184.22 1671.5,-184.22 1671.5,-188.05 1667.67,-191.88 1663.83,-191.88"/>
<text text-anchor="middle" x="1545.5" y="-176.68" font-family="Arial" font-size="14.00" fill="#c6c5fe">component/chart/InformaticsChart.tsx</text>
</g>
<!-- component/Widget/WidgetChart.tsx&#45;&gt;component/chart/InformaticsChart.tsx -->
<g id="edge35" class="edge">
<title>component/Widget/WidgetChart.tsx&#45;&gt;component/chart/InformaticsChart.tsx</title>
<path fill="none" stroke="#757575" d="M1157.97,-165.14C1233.06,-168.1 1329.87,-171.92 1407.82,-174.99"/>
<polygon fill="#757575" stroke="#757575" points="1407.54,-178.48 1417.67,-175.38 1407.81,-171.49 1407.54,-178.48"/>
</g>
<!-- component/chart/LineChart.tsx -->
<g id="node36" class="node">
<title>component/chart/LineChart.tsx</title>
<path fill="none" stroke="#c6c5fe" d="M1642.33,-109.88C1642.33,-109.88 1448.67,-109.88 1448.67,-109.88 1444.83,-109.88 1441,-106.05 1441,-102.22 1441,-102.22 1441,-94.55 1441,-94.55 1441,-90.72 1444.83,-86.88 1448.67,-86.88 1448.67,-86.88 1642.33,-86.88 1642.33,-86.88 1646.17,-86.88 1650,-90.72 1650,-94.55 1650,-94.55 1650,-102.22 1650,-102.22 1650,-106.05 1646.17,-109.88 1642.33,-109.88"/>
<text text-anchor="middle" x="1545.5" y="-94.68" font-family="Arial" font-size="14.00" fill="#c6c5fe">component/chart/LineChart.tsx</text>
</g>
<!-- component/Widget/WidgetChart.tsx&#45;&gt;component/chart/LineChart.tsx -->
<g id="edge36" class="edge">
<title>component/Widget/WidgetChart.tsx&#45;&gt;component/chart/LineChart.tsx</title>
<path fill="none" stroke="#757575" d="M1104.92,-148.41C1158.9,-139.16 1236.62,-126.6 1305,-118.38 1345.43,-113.53 1389.84,-109.47 1429.33,-106.3"/>
<polygon fill="#757575" stroke="#757575" points="1429.39,-109.81 1439.08,-105.53 1428.84,-102.83 1429.39,-109.81"/>
</g>
<!-- hook/Widget/useHandleWidgetApi.tsx&#45;&gt;common/api.ts -->
<g id="edge59" class="edge">
<title>hook/Widget/useHandleWidgetApi.tsx&#45;&gt;common/api.ts</title>
<path fill="none" stroke="#757575" d="M1165.44,-427.23C1265.25,-435.7 1399.82,-447.11 1478.86,-453.82"/>
<polygon fill="#757575" stroke="#757575" points="1478.34,-457.28 1488.6,-454.64 1478.93,-450.31 1478.34,-457.28"/>
</g>
<!-- hook/Widget/useHandleWidgetApi.tsx&#45;&gt;types/api.d.ts -->
<g id="edge63" class="edge">
<title>hook/Widget/useHandleWidgetApi.tsx&#45;&gt;types/api.d.ts</title>
<path fill="none" stroke="#757575" d="M1165.35,-419.41C1385.56,-424.63 1828.36,-435.11 1990.08,-438.94"/>
<polygon fill="#757575" stroke="#757575" points="1989.64,-442.43 1999.72,-439.17 1989.81,-435.43 1989.64,-442.43"/>
</g>
<!-- hook/Widget/useHandleWidgetApi.tsx&#45;&gt;types/chart.d.ts -->
<g id="edge64" class="edge">
<title>hook/Widget/useHandleWidgetApi.tsx&#45;&gt;types/chart.d.ts</title>
<path fill="none" stroke="#757575" d="M1097.85,-404.38C1151.92,-393.96 1233.51,-379.07 1305,-369.38 1737.32,-310.82 1856.57,-371.05 2282,-274.38 2343.33,-260.45 2411.32,-233.35 2451.95,-215.83"/>
<polygon fill="#757575" stroke="#757575" points="2453.25,-219.08 2461.02,-211.87 2450.46,-212.66 2453.25,-219.08"/>
</g>
<!-- hook/Widget/useHandleWidgetApi.tsx&#45;&gt;common/date.ts -->
<g id="edge60" class="edge">
<title>hook/Widget/useHandleWidgetApi.tsx&#45;&gt;common/date.ts</title>
<path fill="none" stroke="#757575" d="M1165.48,-404.77C1441.26,-381.65 2082.73,-338.71 2282,-419.38 2372.6,-456.06 2445.68,-553.51 2474.83,-596.96"/>
<polygon fill="#757575" stroke="#757575" points="2471.88,-598.84 2480.3,-605.27 2477.73,-594.99 2471.88,-598.84"/>
</g>
<!-- hook/Widget/useHandleWidgetApi.tsx&#45;&gt;common/widget.ts -->
<g id="edge61" class="edge">
<title>hook/Widget/useHandleWidgetApi.tsx&#45;&gt;common/widget.ts</title>
<path fill="none" stroke="#757575" d="M1067.43,-404.39C1116.3,-385.33 1216.66,-348.33 1305,-329.38 1358.74,-317.86 1420.42,-311.31 1467.72,-307.67"/>
<polygon fill="#757575" stroke="#757575" points="1467.9,-311.17 1477.61,-306.94 1467.38,-304.19 1467.9,-311.17"/>
</g>
<!-- hook/Widget/useHandleWidgetApi.tsx&#45;&gt;store/DashboardProvider.tsx -->
<g id="edge62" class="edge">
<title>hook/Widget/useHandleWidgetApi.tsx&#45;&gt;store/DashboardProvider.tsx</title>
<path fill="none" stroke="#757575" d="M1165.36,-409.76C1200.53,-412.55 1237.6,-420.04 1269,-436.38 1291.11,-447.89 1282.92,-467.82 1305,-479.38 1400.08,-529.19 1697.69,-462.37 1786,-523.38 1816.09,-544.17 1791.91,-576.59 1822,-597.38 1856.45,-621.19 1901.11,-629.02 1941.84,-629.96"/>
<polygon fill="#757575" stroke="#757575" points="1941.66,-633.46 1951.69,-630.03 1941.72,-626.46 1941.66,-633.46"/>
</g>
<!-- types/widget.d.ts -->
<g id="node50" class="node">
<title>types/widget.d.ts</title>
<path fill="none" stroke="#cfffac" d="M2105.83,-588.88C2105.83,-588.88 1998.17,-588.88 1998.17,-588.88 1994.33,-588.88 1990.5,-585.05 1990.5,-581.22 1990.5,-581.22 1990.5,-573.55 1990.5,-573.55 1990.5,-569.72 1994.33,-565.88 1998.17,-565.88 1998.17,-565.88 2105.83,-565.88 2105.83,-565.88 2109.67,-565.88 2113.5,-569.72 2113.5,-573.55 2113.5,-573.55 2113.5,-581.22 2113.5,-581.22 2113.5,-585.05 2109.67,-588.88 2105.83,-588.88"/>
<text text-anchor="middle" x="2052" y="-573.68" font-family="Arial" font-size="14.00" fill="#cfffac">types/widget.d.ts</text>
</g>
<!-- store/WidgetProvider.tsx&#45;&gt;types/widget.d.ts -->
<g id="edge73" class="edge">
<title>store/WidgetProvider.tsx&#45;&gt;types/widget.d.ts</title>
<path fill="none" stroke="#757575" d="M1632.37,-578.21C1729.88,-578.02 1887.27,-577.71 1978.74,-577.53"/>
<polygon fill="#757575" stroke="#757575" points="1978.6,-581.03 1988.59,-577.51 1978.59,-574.03 1978.6,-581.03"/>
</g>
<!-- component/chart/BarChart.tsx&#45;&gt;common/chart.ts -->
<g id="edge42" class="edge">
<title>component/chart/BarChart.tsx&#45;&gt;common/chart.ts</title>
<path fill="none" stroke="#757575" d="M1647.38,-139.38C1745.63,-139.38 1892.48,-139.38 1979.32,-139.38"/>
<polygon fill="#757575" stroke="#757575" points="1979.14,-142.88 1989.14,-139.38 1979.13,-135.88 1979.14,-142.88"/>
</g>
<!-- component/chart/BarChart.tsx&#45;&gt;types/chart.d.ts -->
<g id="edge45" class="edge">
<title>component/chart/BarChart.tsx&#45;&gt;types/chart.d.ts</title>
<path fill="none" stroke="#757575" d="M1647.23,-147C1699.39,-150.87 1764.1,-155.54 1822,-159.38 2041.34,-173.93 2301.45,-188.87 2421.57,-195.64"/>
<polygon fill="#757575" stroke="#757575" points="2421.06,-199.12 2431.24,-196.19 2421.45,-192.13 2421.06,-199.12"/>
</g>
<!-- component/chart/ChartSvg.tsx -->
<g id="node41" class="node">
<title>component/chart/ChartSvg.tsx</title>
<path fill="none" stroke="#cfffac" d="M2147.33,-68.88C2147.33,-68.88 1956.67,-68.88 1956.67,-68.88 1952.83,-68.88 1949,-65.05 1949,-61.22 1949,-61.22 1949,-53.55 1949,-53.55 1949,-49.72 1952.83,-45.88 1956.67,-45.88 1956.67,-45.88 2147.33,-45.88 2147.33,-45.88 2151.17,-45.88 2155,-49.72 2155,-53.55 2155,-53.55 2155,-61.22 2155,-61.22 2155,-65.05 2151.17,-68.88 2147.33,-68.88"/>
<text text-anchor="middle" x="2052" y="-53.68" font-family="Arial" font-size="14.00" fill="#cfffac">component/chart/ChartSvg.tsx</text>
</g>
<!-- component/chart/BarChart.tsx&#45;&gt;component/chart/ChartSvg.tsx -->
<g id="edge43" class="edge">
<title>component/chart/BarChart.tsx&#45;&gt;component/chart/ChartSvg.tsx</title>
<path fill="none" stroke="#757575" d="M1647.23,-147C1691.87,-146.34 1743.74,-139.79 1786,-118.38 1807.63,-107.43 1800.37,-88.34 1822,-77.38 1857.08,-59.62 1899.08,-52.57 1937.47,-50.61"/>
<polygon fill="#757575" stroke="#757575" points="1937.36,-54.12 1947.21,-50.24 1937.08,-47.13 1937.36,-54.12"/>
</g>
<!-- hook/useResize.tsx -->
<g id="node42" class="node">
<title>hook/useResize.tsx</title>
<path fill="none" stroke="#cfffac" d="M2114.33,-109.88C2114.33,-109.88 1989.67,-109.88 1989.67,-109.88 1985.83,-109.88 1982,-106.05 1982,-102.22 1982,-102.22 1982,-94.55 1982,-94.55 1982,-90.72 1985.83,-86.88 1989.67,-86.88 1989.67,-86.88 2114.33,-86.88 2114.33,-86.88 2118.17,-86.88 2122,-90.72 2122,-94.55 2122,-94.55 2122,-102.22 2122,-102.22 2122,-106.05 2118.17,-109.88 2114.33,-109.88"/>
<text text-anchor="middle" x="2052" y="-94.68" font-family="Arial" font-size="14.00" fill="#cfffac">hook/useResize.tsx</text>
</g>
<!-- component/chart/BarChart.tsx&#45;&gt;hook/useResize.tsx -->
<g id="edge44" class="edge">
<title>component/chart/BarChart.tsx&#45;&gt;hook/useResize.tsx</title>
<path fill="none" stroke="#757575" d="M1647.38,-131.18C1742.42,-123.46 1882.95,-112.04 1970.64,-104.91"/>
<polygon fill="#757575" stroke="#757575" points="1970.66,-108.42 1980.35,-104.13 1970.09,-101.45 1970.66,-108.42"/>
</g>
<!-- component/chart/InformaticsChart.tsx&#45;&gt;types/chart.d.ts -->
<g id="edge47" class="edge">
<title>component/chart/InformaticsChart.tsx&#45;&gt;types/chart.d.ts</title>
<path fill="none" stroke="#757575" d="M1671.74,-173.67C1709.99,-176.06 1751.13,-183.35 1786,-200.38 1807.2,-210.74 1800.39,-229.92 1822,-239.38 2009.28,-321.38 2078.49,-258.91 2282,-239.38 2332.34,-234.55 2388.64,-223.24 2429.73,-213.88"/>
<polygon fill="#757575" stroke="#757575" points="2430.47,-217.3 2439.42,-211.64 2428.89,-210.48 2430.47,-217.3"/>
</g>
<!-- component/chart/InformaticsChart/InforMaticsBox.tsx -->
<g id="node43" class="node">
<title>component/chart/InformaticsChart/InforMaticsBox.tsx</title>
<path fill="none" stroke="#c6c5fe" d="M2219.33,-230.88C2219.33,-230.88 1884.67,-230.88 1884.67,-230.88 1880.83,-230.88 1877,-227.05 1877,-223.22 1877,-223.22 1877,-215.55 1877,-215.55 1877,-211.72 1880.83,-207.88 1884.67,-207.88 1884.67,-207.88 2219.33,-207.88 2219.33,-207.88 2223.17,-207.88 2227,-211.72 2227,-215.55 2227,-215.55 2227,-223.22 2227,-223.22 2227,-227.05 2223.17,-230.88 2219.33,-230.88"/>
<text text-anchor="middle" x="2052" y="-215.68" font-family="Arial" font-size="14.00" fill="#c6c5fe">component/chart/InformaticsChart/InforMaticsBox.tsx</text>
</g>
<!-- component/chart/InformaticsChart.tsx&#45;&gt;component/chart/InformaticsChart/InforMaticsBox.tsx -->
<g id="edge46" class="edge">
<title>component/chart/InformaticsChart.tsx&#45;&gt;component/chart/InformaticsChart/InforMaticsBox.tsx</title>
<path fill="none" stroke="#757575" d="M1671.86,-190.07C1736.26,-195.05 1815.59,-201.18 1885,-206.55"/>
<polygon fill="#757575" stroke="#757575" points="1884.31,-210.01 1894.55,-207.29 1884.85,-203.03 1884.31,-210.01"/>
</g>
<!-- component/chart/LineChart.tsx&#45;&gt;common/chart.ts -->
<g id="edge49" class="edge">
<title>component/chart/LineChart.tsx&#45;&gt;common/chart.ts</title>
<path fill="none" stroke="#757575" d="M1650.42,-106.83C1748.6,-114.81 1893.26,-126.56 1979.23,-133.55"/>
<polygon fill="#757575" stroke="#757575" points="1978.94,-137.04 1989.19,-134.36 1979.51,-130.06 1978.94,-137.04"/>
</g>
<!-- component/chart/LineChart.tsx&#45;&gt;types/chart.d.ts -->
<g id="edge52" class="edge">
<title>component/chart/LineChart.tsx&#45;&gt;types/chart.d.ts</title>
<path fill="none" stroke="#757575" d="M1579.21,-86.41C1684.62,-49.72 2023.54,53.33 2282,-36.38 2364.74,-65.1 2439.38,-142.25 2471.64,-179.16"/>
<polygon fill="#757575" stroke="#757575" points="2468.75,-181.17 2477.92,-186.48 2474.06,-176.61 2468.75,-181.17"/>
</g>
<!-- component/chart/LineChart.tsx&#45;&gt;component/chart/ChartSvg.tsx -->
<g id="edge50" class="edge">
<title>component/chart/LineChart.tsx&#45;&gt;component/chart/ChartSvg.tsx</title>
<path fill="none" stroke="#757575" d="M1650.42,-89.94C1733.93,-83.15 1851.07,-73.63 1937.11,-66.64"/>
<polygon fill="#757575" stroke="#757575" points="1937.32,-70.13 1947,-65.84 1936.75,-63.16 1937.32,-70.13"/>
</g>
<!-- component/chart/LineChart.tsx&#45;&gt;hook/useResize.tsx -->
<g id="edge51" class="edge">
<title>component/chart/LineChart.tsx&#45;&gt;hook/useResize.tsx</title>
<path fill="none" stroke="#757575" d="M1650.42,-98.38C1745.25,-98.38 1883.44,-98.38 1970.22,-98.38"/>
<polygon fill="#757575" stroke="#757575" points="1970.08,-101.88 1980.08,-98.38 1970.08,-94.88 1970.08,-101.88"/>
</g>
<!-- component/Widget/WidgetPropsSettingModal.tsx -->
<g id="node37" class="node">
<title>component/Widget/WidgetPropsSettingModal.tsx</title>
<path fill="none" stroke="#c6c5fe" d="M760.33,-630.88C760.33,-630.88 446.67,-630.88 446.67,-630.88 442.83,-630.88 439,-627.05 439,-623.22 439,-623.22 439,-615.55 439,-615.55 439,-611.72 442.83,-607.88 446.67,-607.88 446.67,-607.88 760.33,-607.88 760.33,-607.88 764.17,-607.88 768,-611.72 768,-615.55 768,-615.55 768,-623.22 768,-623.22 768,-627.05 764.17,-630.88 760.33,-630.88"/>
<text text-anchor="middle" x="603.5" y="-615.68" font-family="Arial" font-size="14.00" fill="#c6c5fe">component/Widget/WidgetPropsSettingModal.tsx</text>
</g>
<!-- component/Widget/WidgetPropsSettingModal.tsx&#45;&gt;store/WidgetPropsSettingModalProvider.tsx -->
<g id="edge40" class="edge">
<title>component/Widget/WidgetPropsSettingModal.tsx&#45;&gt;store/WidgetPropsSettingModalProvider.tsx</title>
<path fill="none" stroke="#757575" d="M709.73,-631.38C740.11,-634.45 773.34,-637.44 804,-639.38 1004.97,-652.15 1237.12,-656.78 1387.13,-658.45"/>
<polygon fill="#757575" stroke="#757575" points="1386.68,-661.95 1396.72,-658.56 1386.76,-654.95 1386.68,-661.95"/>
</g>
<!-- component/Widget/WidgetPropsSettingModal/WidgetPropsButtons.tsx -->
<g id="node38" class="node">
<title>component/Widget/WidgetPropsSettingModal/WidgetPropsButtons.tsx</title>
<path fill="none" stroke="#c6c5fe" d="M1261.33,-589.88C1261.33,-589.88 811.67,-589.88 811.67,-589.88 807.83,-589.88 804,-586.05 804,-582.22 804,-582.22 804,-574.55 804,-574.55 804,-570.72 807.83,-566.88 811.67,-566.88 811.67,-566.88 1261.33,-566.88 1261.33,-566.88 1265.17,-566.88 1269,-570.72 1269,-574.55 1269,-574.55 1269,-582.22 1269,-582.22 1269,-586.05 1265.17,-589.88 1261.33,-589.88"/>
<text text-anchor="middle" x="1036.5" y="-574.68" font-family="Arial" font-size="14.00" fill="#c6c5fe">component/Widget/WidgetPropsSettingModal/WidgetPropsButtons.tsx</text>
</g>
<!-- component/Widget/WidgetPropsSettingModal.tsx&#45;&gt;component/Widget/WidgetPropsSettingModal/WidgetPropsButtons.tsx -->
<g id="edge37" class="edge">
<title>component/Widget/WidgetPropsSettingModal.tsx&#45;&gt;component/Widget/WidgetPropsSettingModal/WidgetPropsButtons.tsx</title>
<path fill="none" stroke="#757575" d="M714.74,-607.41C743.76,-604.36 775.05,-601.16 804,-598.38 828.75,-596.01 855,-593.62 880.59,-591.36"/>
<polygon fill="#757575" stroke="#757575" points="880.74,-594.86 890.4,-590.5 880.13,-587.89 880.74,-594.86"/>
</g>
<!-- component/Widget/WidgetPropsSettingModal/WidgetPropsList.tsx -->
<g id="node39" class="node">
<title>component/Widget/WidgetPropsSettingModal/WidgetPropsList.tsx</title>
<path fill="none" stroke="#cfffac" d="M1248.83,-630.88C1248.83,-630.88 824.17,-630.88 824.17,-630.88 820.33,-630.88 816.5,-627.05 816.5,-623.22 816.5,-623.22 816.5,-615.55 816.5,-615.55 816.5,-611.72 820.33,-607.88 824.17,-607.88 824.17,-607.88 1248.83,-607.88 1248.83,-607.88 1252.67,-607.88 1256.5,-611.72 1256.5,-615.55 1256.5,-615.55 1256.5,-623.22 1256.5,-623.22 1256.5,-627.05 1252.67,-630.88 1248.83,-630.88"/>
<text text-anchor="middle" x="1036.5" y="-615.68" font-family="Arial" font-size="14.00" fill="#cfffac">component/Widget/WidgetPropsSettingModal/WidgetPropsList.tsx</text>
</g>
<!-- component/Widget/WidgetPropsSettingModal.tsx&#45;&gt;component/Widget/WidgetPropsSettingModal/WidgetPropsList.tsx -->
<g id="edge38" class="edge">
<title>component/Widget/WidgetPropsSettingModal.tsx&#45;&gt;component/Widget/WidgetPropsSettingModal/WidgetPropsList.tsx</title>
<path fill="none" stroke="#757575" d="M768.36,-619.38C780.39,-619.38 792.65,-619.38 804.97,-619.38"/>
<polygon fill="#757575" stroke="#757575" points="804.78,-622.88 814.78,-619.38 804.78,-615.88 804.78,-622.88"/>
</g>
<!-- hook/useGetApiList.tsx -->
<g id="node40" class="node">
<title>hook/useGetApiList.tsx</title>
<path fill="none" stroke="#c6c5fe" d="M1110.33,-468.88C1110.33,-468.88 962.67,-468.88 962.67,-468.88 958.83,-468.88 955,-465.05 955,-461.22 955,-461.22 955,-453.55 955,-453.55 955,-449.72 958.83,-445.88 962.67,-445.88 962.67,-445.88 1110.33,-445.88 1110.33,-445.88 1114.17,-445.88 1118,-449.72 1118,-453.55 1118,-453.55 1118,-461.22 1118,-461.22 1118,-465.05 1114.17,-468.88 1110.33,-468.88"/>
<text text-anchor="middle" x="1036.5" y="-453.68" font-family="Arial" font-size="14.00" fill="#c6c5fe">hook/useGetApiList.tsx</text>
</g>
<!-- component/Widget/WidgetPropsSettingModal.tsx&#45;&gt;hook/useGetApiList.tsx -->
<g id="edge39" class="edge">
<title>component/Widget/WidgetPropsSettingModal.tsx&#45;&gt;hook/useGetApiList.tsx</title>
<path fill="none" stroke="#757575" d="M623.91,-607.45C658.81,-586.45 734.95,-542.62 804,-516.38 855.4,-496.86 915.65,-481.73 961.79,-471.69"/>
<polygon fill="#757575" stroke="#757575" points="962.38,-475.14 971.43,-469.62 960.91,-468.29 962.38,-475.14"/>
</g>
<!-- component/Widget/WidgetPropsSettingModal/WidgetPropsButtons.tsx&#45;&gt;store/WidgetProvider.tsx -->
<g id="edge41" class="edge">
<title>component/Widget/WidgetPropsSettingModal/WidgetPropsButtons.tsx&#45;&gt;store/WidgetProvider.tsx</title>
<path fill="none" stroke="#757575" d="M1269.49,-578.38C1332.15,-578.38 1396.58,-578.38 1447.31,-578.38"/>
<polygon fill="#757575" stroke="#757575" points="1447.06,-581.88 1457.06,-578.38 1447.06,-574.88 1447.06,-581.88"/>
</g>
<!-- hook/useGetApiList.tsx&#45;&gt;common/api.ts -->
<g id="edge65" class="edge">
<title>hook/useGetApiList.tsx&#45;&gt;common/api.ts</title>
<path fill="none" stroke="#757575" d="M1118.4,-457.7C1218.26,-458.1 1386.2,-458.76 1478.6,-459.12"/>
<polygon fill="#757575" stroke="#757575" points="1478.51,-462.62 1488.52,-459.16 1478.53,-455.62 1478.51,-462.62"/>
</g>
<!-- component/chart/InformaticsChart/InforMaticsBox.tsx&#45;&gt;types/chart.d.ts -->
<g id="edge48" class="edge">
<title>component/chart/InformaticsChart/InforMaticsBox.tsx&#45;&gt;types/chart.d.ts</title>
<path fill="none" stroke="#757575" d="M2227.31,-211.38C2295.44,-208.25 2369.49,-204.85 2421.28,-202.47"/>
<polygon fill="#757575" stroke="#757575" points="2421.3,-205.97 2431.13,-202.02 2420.98,-198.98 2421.3,-205.97"/>
</g>
<!-- types/common.d.ts -->
<g id="node47" class="node">
<title>types/common.d.ts</title>
<path fill="none" stroke="#cfffac" d="M2926.33,-751.88C2926.33,-751.88 2804.67,-751.88 2804.67,-751.88 2800.83,-751.88 2797,-748.05 2797,-744.22 2797,-744.22 2797,-736.55 2797,-736.55 2797,-732.72 2800.83,-728.88 2804.67,-728.88 2804.67,-728.88 2926.33,-728.88 2926.33,-728.88 2930.17,-728.88 2934,-732.72 2934,-736.55 2934,-736.55 2934,-744.22 2934,-744.22 2934,-748.05 2930.17,-751.88 2926.33,-751.88"/>
<text text-anchor="middle" x="2865.5" y="-736.68" font-family="Arial" font-size="14.00" fill="#cfffac">types/common.d.ts</text>
</g>
<!-- component/common/DatePicker/DatePickerTitle.tsx&#45;&gt;types/common.d.ts -->
<g id="edge56" class="edge">
<title>component/common/DatePicker/DatePickerTitle.tsx&#45;&gt;types/common.d.ts</title>
<path fill="none" stroke="#757575" d="M2661.36,-740.38C2704.61,-740.38 2749.02,-740.38 2785.24,-740.38"/>
<polygon fill="#757575" stroke="#757575" points="2785.19,-743.88 2795.19,-740.38 2785.19,-736.88 2785.19,-743.88"/>
</g>
<!-- component/common/DatePicker/ListPicker.tsx&#45;&gt;types/datePicker.d.ts -->
<g id="edge58" class="edge">
<title>component/common/DatePicker/ListPicker.tsx&#45;&gt;types/datePicker.d.ts</title>
<path fill="none" stroke="#757575" d="M2605.51,-808.39C2661.59,-802.54 2727.87,-795.63 2779.34,-790.26"/>
<polygon fill="#757575" stroke="#757575" points="2779.66,-793.75 2789.25,-789.23 2778.94,-786.79 2779.66,-793.75"/>
</g>
<!-- component/common/DatePicker/ListPickerItem.tsx -->
<g id="node48" class="node">
<title>component/common/DatePicker/ListPickerItem.tsx</title>
<path fill="none" stroke="#cfffac" d="M3026.33,-833.88C3026.33,-833.88 2704.67,-833.88 2704.67,-833.88 2700.83,-833.88 2697,-830.05 2697,-826.22 2697,-826.22 2697,-818.55 2697,-818.55 2697,-814.72 2700.83,-810.88 2704.67,-810.88 2704.67,-810.88 3026.33,-810.88 3026.33,-810.88 3030.17,-810.88 3034,-814.72 3034,-818.55 3034,-818.55 3034,-826.22 3034,-826.22 3034,-830.05 3030.17,-833.88 3026.33,-833.88"/>
<text text-anchor="middle" x="2865.5" y="-818.68" font-family="Arial" font-size="14.00" fill="#cfffac">component/common/DatePicker/ListPickerItem.tsx</text>
</g>
<!-- component/common/DatePicker/ListPicker.tsx&#45;&gt;component/common/DatePicker/ListPickerItem.tsx -->
<g id="edge57" class="edge">
<title>component/common/DatePicker/ListPicker.tsx&#45;&gt;component/common/DatePicker/ListPickerItem.tsx</title>
<path fill="none" stroke="#757575" d="M2643.97,-821.2C2657.65,-821.28 2671.58,-821.35 2685.45,-821.43"/>
<polygon fill="#757575" stroke="#757575" points="2685.02,-824.92 2695.04,-821.48 2685.06,-817.92 2685.02,-824.92"/>
</g>
<!-- page/Dashboard.tsx&#45;&gt;component/Dashboard/DashboardHeader.tsx -->
<g id="edge66" class="edge">
<title>page/Dashboard.tsx&#45;&gt;component/Dashboard/DashboardHeader.tsx</title>
<path fill="none" stroke="#757575" d="M356.01,-670.36C404.23,-694.43 512.99,-748.71 568.51,-776.42"/>
<polygon fill="#757575" stroke="#757575" points="566.68,-779.42 577.19,-780.75 569.81,-773.16 566.68,-779.42"/>
</g>
<!-- page/Dashboard.tsx&#45;&gt;component/Widget/Widget.tsx -->
<g id="edge67" class="edge">
<title>page/Dashboard.tsx&#45;&gt;component/Widget/Widget.tsx</title>
<path fill="none" stroke="#757575" d="M348.11,-646.41C393.5,-612.69 522.66,-516.71 577.44,-476"/>
<polygon fill="#757575" stroke="#757575" points="579.32,-478.97 585.26,-470.19 575.14,-473.35 579.32,-478.97"/>
</g>
<!-- page/Dashboard.tsx&#45;&gt;store/WidgetProvider.tsx -->
<g id="edge69" class="edge">
<title>page/Dashboard.tsx&#45;&gt;store/WidgetProvider.tsx</title>
<path fill="none" stroke="#757575" d="M403.45,-661.72C560.61,-668.02 947.91,-677.8 1269,-639.38 1347.73,-629.96 1437.03,-608.07 1492.06,-593.24"/>
<polygon fill="#757575" stroke="#757575" points="1492.74,-596.69 1501.48,-590.68 1490.91,-589.93 1492.74,-596.69"/>
</g>
<!-- page/Dashboard.tsx&#45;&gt;component/Widget/WidgetPropsSettingModal.tsx -->
<g id="edge68" class="edge">
<title>page/Dashboard.tsx&#45;&gt;component/Widget/WidgetPropsSettingModal.tsx</title>
<path fill="none" stroke="#757575" d="M403.42,-648.09C435.63,-643.44 474.09,-637.9 508.59,-632.92"/>
<polygon fill="#757575" stroke="#757575" points="508.74,-636.44 518.14,-631.55 507.74,-629.51 508.74,-636.44"/>
</g>
</g>
</svg>
