<?xml version="1.0" encoding="UTF-8" standalone="no"?>
<!DOCTYPE svg PUBLIC "-//W3C//DTD SVG 1.1//EN"
 "http://www.w3.org/Graphics/SVG/1.1/DTD/svg11.dtd">
<!-- Generated by graphviz version 7.1.0 (20230121.1956)
 -->
<!-- Title: G Pages: 1 -->
<svg width="3414pt" height="1056pt"
 viewBox="0.00 0.00 3414.20 1055.73" xmlns="http://www.w3.org/2000/svg" xmlns:xlink="http://www.w3.org/1999/xlink">
<g id="graph0" class="graph" transform="scale(1 1) rotate(0) translate(21.6 1034.13)">
<title>G</title>
<polygon fill="#111111" stroke="none" points="-21.6,21.6 -21.6,-1034.13 3392.6,-1034.13 3392.6,21.6 -21.6,21.6"/>
<!-- App.tsx -->
<g id="node1" class="node">
<title>App.tsx</title>
<path fill="none" stroke="#c6c5fe" d="M57.33,-414.53C57.33,-414.53 7.67,-414.53 7.67,-414.53 3.83,-414.53 0,-410.7 0,-406.86 0,-406.86 0,-399.2 0,-399.2 0,-395.36 3.83,-391.53 7.67,-391.53 7.67,-391.53 57.33,-391.53 57.33,-391.53 61.17,-391.53 65,-395.36 65,-399.2 65,-399.2 65,-406.86 65,-406.86 65,-410.7 61.17,-414.53 57.33,-414.53"/>
<text text-anchor="middle" x="32.5" y="-399.33" font-family="Arial" font-size="14.00" fill="#c6c5fe">App.tsx</text>
</g>
<!-- router/Router.tsx -->
<g id="node2" class="node">
<title>router/Router.tsx</title>
<path fill="none" stroke="#c6c5fe" d="M215.33,-414.53C215.33,-414.53 108.67,-414.53 108.67,-414.53 104.83,-414.53 101,-410.7 101,-406.86 101,-406.86 101,-399.2 101,-399.2 101,-395.36 104.83,-391.53 108.67,-391.53 108.67,-391.53 215.33,-391.53 215.33,-391.53 219.17,-391.53 223,-395.36 223,-399.2 223,-399.2 223,-406.86 223,-406.86 223,-410.7 219.17,-414.53 215.33,-414.53"/>
<text text-anchor="middle" x="162" y="-399.33" font-family="Arial" font-size="14.00" fill="#c6c5fe">router/Router.tsx</text>
</g>
<!-- App.tsx&#45;&gt;router/Router.tsx -->
<g id="edge1" class="edge">
<title>App.tsx&#45;&gt;router/Router.tsx</title>
<path fill="none" stroke="#757575" d="M65.34,-403.03C72.7,-403.03 80.81,-403.03 89.12,-403.03"/>
<polygon fill="#757575" stroke="#757575" points="88.99,-406.53 98.99,-403.03 88.99,-399.53 88.99,-406.53"/>
</g>
<!-- page/Dashboard.tsx -->
<g id="node46" class="node">
<title>page/Dashboard.tsx</title>
<path fill="none" stroke="#c6c5fe" d="M395.33,-414.53C395.33,-414.53 266.67,-414.53 266.67,-414.53 262.83,-414.53 259,-410.7 259,-406.86 259,-406.86 259,-399.2 259,-399.2 259,-395.36 262.83,-391.53 266.67,-391.53 266.67,-391.53 395.33,-391.53 395.33,-391.53 399.17,-391.53 403,-395.36 403,-399.2 403,-399.2 403,-406.86 403,-406.86 403,-410.7 399.17,-414.53 395.33,-414.53"/>
<text text-anchor="middle" x="331" y="-399.33" font-family="Arial" font-size="14.00" fill="#c6c5fe">page/Dashboard.tsx</text>
</g>
<!-- router/Router.tsx&#45;&gt;page/Dashboard.tsx -->
<g id="edge73" class="edge">
<title>router/Router.tsx&#45;&gt;page/Dashboard.tsx</title>
<path fill="none" stroke="#757575" d="M223.29,-403.03C231.1,-403.03 239.21,-403.03 247.3,-403.03"/>
<polygon fill="#757575" stroke="#757575" points="247.19,-406.53 257.19,-403.03 247.19,-399.53 247.19,-406.53"/>
</g>
<!-- asset/image/pause.png -->
<g id="node3" class="node">
<title>asset/image/pause.png</title>
<path fill="none" stroke="#cfffac" d="M1619.83,-893.53C1619.83,-893.53 1471.17,-893.53 1471.17,-893.53 1467.33,-893.53 1463.5,-889.7 1463.5,-885.86 1463.5,-885.86 1463.5,-878.2 1463.5,-878.2 1463.5,-874.36 1467.33,-870.53 1471.17,-870.53 1471.17,-870.53 1619.83,-870.53 1619.83,-870.53 1623.67,-870.53 1627.5,-874.36 1627.5,-878.2 1627.5,-878.2 1627.5,-885.86 1627.5,-885.86 1627.5,-889.7 1623.67,-893.53 1619.83,-893.53"/>
<text text-anchor="middle" x="1545.5" y="-878.33" font-family="Arial" font-size="14.00" fill="#cfffac">asset/image/pause.png</text>
</g>
<!-- asset/image/play.png -->
<g id="node4" class="node">
<title>asset/image/play.png</title>
<path fill="none" stroke="#cfffac" d="M1613.33,-852.53C1613.33,-852.53 1477.67,-852.53 1477.67,-852.53 1473.83,-852.53 1470,-848.7 1470,-844.86 1470,-844.86 1470,-837.2 1470,-837.2 1470,-833.36 1473.83,-829.53 1477.67,-829.53 1477.67,-829.53 1613.33,-829.53 1613.33,-829.53 1617.17,-829.53 1621,-833.36 1621,-837.2 1621,-837.2 1621,-844.86 1621,-844.86 1621,-848.7 1617.17,-852.53 1613.33,-852.53"/>
<text text-anchor="middle" x="1545.5" y="-837.33" font-family="Arial" font-size="14.00" fill="#cfffac">asset/image/play.png</text>
</g>
<!-- common/api.ts -->
<g id="node5" class="node">
<title>common/api.ts</title>
<path fill="none" stroke="#c6c5fe" d="M1083.83,-95.53C1083.83,-95.53 989.17,-95.53 989.17,-95.53 985.33,-95.53 981.5,-91.7 981.5,-87.86 981.5,-87.86 981.5,-80.2 981.5,-80.2 981.5,-76.36 985.33,-72.53 989.17,-72.53 989.17,-72.53 1083.83,-72.53 1083.83,-72.53 1087.67,-72.53 1091.5,-76.36 1091.5,-80.2 1091.5,-80.2 1091.5,-87.86 1091.5,-87.86 1091.5,-91.7 1087.67,-95.53 1083.83,-95.53"/>
<text text-anchor="middle" x="1036.5" y="-80.33" font-family="Arial" font-size="14.00" fill="#c6c5fe">common/api.ts</text>
</g>
<!-- types/api.d.ts -->
<g id="node6" class="node">
<title>types/api.d.ts</title>
<path fill="none" stroke="#cfffac" d="M1588.33,-34.53C1588.33,-34.53 1502.67,-34.53 1502.67,-34.53 1498.83,-34.53 1495,-30.7 1495,-26.86 1495,-26.86 1495,-19.2 1495,-19.2 1495,-15.36 1498.83,-11.53 1502.67,-11.53 1502.67,-11.53 1588.33,-11.53 1588.33,-11.53 1592.17,-11.53 1596,-15.36 1596,-19.2 1596,-19.2 1596,-26.86 1596,-26.86 1596,-30.7 1592.17,-34.53 1588.33,-34.53"/>
<text text-anchor="middle" x="1545.5" y="-19.33" font-family="Arial" font-size="14.00" fill="#cfffac">types/api.d.ts</text>
</g>
<!-- common/api.ts&#45;&gt;types/api.d.ts -->
<g id="edge2" class="edge">
<title>common/api.ts&#45;&gt;types/api.d.ts</title>
<path fill="none" stroke="#757575" d="M1091.58,-85.39C1139.29,-85.13 1210.18,-81.14 1269,-63.03 1286.49,-57.64 1287.49,-48.35 1305,-43.03 1363.76,-25.16 1434.13,-21.23 1483.33,-21.11"/>
<polygon fill="#757575" stroke="#757575" points="1483.21,-24.61 1493.23,-21.15 1483.24,-17.61 1483.21,-24.61"/>
</g>
<!-- common/chart.ts -->
<g id="node7" class="node">
<title>common/chart.ts</title>
<path fill="none" stroke="#c6c5fe" d="M2059.33,-136.53C2059.33,-136.53 1952.67,-136.53 1952.67,-136.53 1948.83,-136.53 1945,-132.7 1945,-128.86 1945,-128.86 1945,-121.2 1945,-121.2 1945,-117.36 1948.83,-113.53 1952.67,-113.53 1952.67,-113.53 2059.33,-113.53 2059.33,-113.53 2063.17,-113.53 2067,-117.36 2067,-121.2 2067,-121.2 2067,-128.86 2067,-128.86 2067,-132.7 2063.17,-136.53 2059.33,-136.53"/>
<text text-anchor="middle" x="2006" y="-121.33" font-family="Arial" font-size="14.00" fill="#c6c5fe">common/chart.ts</text>
</g>
<!-- types/chart.d.ts -->
<g id="node8" class="node">
<title>types/chart.d.ts</title>
<path fill="none" stroke="#cfffac" d="M2446.33,-96.53C2446.33,-96.53 2348.67,-96.53 2348.67,-96.53 2344.83,-96.53 2341,-92.7 2341,-88.86 2341,-88.86 2341,-81.2 2341,-81.2 2341,-77.36 2344.83,-73.53 2348.67,-73.53 2348.67,-73.53 2446.33,-73.53 2446.33,-73.53 2450.17,-73.53 2454,-77.36 2454,-81.2 2454,-81.2 2454,-88.86 2454,-88.86 2454,-92.7 2450.17,-96.53 2446.33,-96.53"/>
<text text-anchor="middle" x="2397.5" y="-81.33" font-family="Arial" font-size="14.00" fill="#cfffac">types/chart.d.ts</text>
</g>
<!-- common/chart.ts&#45;&gt;types/chart.d.ts -->
<g id="edge3" class="edge">
<title>common/chart.ts&#45;&gt;types/chart.d.ts</title>
<path fill="none" stroke="#757575" d="M2067.43,-118.82C2138.32,-111.54 2255.5,-99.51 2329.22,-91.94"/>
<polygon fill="#757575" stroke="#757575" points="2329.57,-95.42 2339.16,-90.92 2328.86,-88.46 2329.57,-95.42"/>
</g>
<!-- common/date.ts -->
<g id="node9" class="node">
<title>common/date.ts</title>
<path fill="none" stroke="#cfffac" d="M2449.33,-530.53C2449.33,-530.53 2345.67,-530.53 2345.67,-530.53 2341.83,-530.53 2338,-526.7 2338,-522.86 2338,-522.86 2338,-515.2 2338,-515.2 2338,-511.36 2341.83,-507.53 2345.67,-507.53 2345.67,-507.53 2449.33,-507.53 2449.33,-507.53 2453.17,-507.53 2457,-511.36 2457,-515.2 2457,-515.2 2457,-522.86 2457,-522.86 2457,-526.7 2453.17,-530.53 2449.33,-530.53"/>
<text text-anchor="middle" x="2397.5" y="-515.33" font-family="Arial" font-size="14.00" fill="#cfffac">common/date.ts</text>
</g>
<!-- common/widget.ts -->
<g id="node10" class="node">
<title>common/widget.ts</title>
<path fill="none" stroke="#cfffac" d="M1603.83,-454.53C1603.83,-454.53 1487.17,-454.53 1487.17,-454.53 1483.33,-454.53 1479.5,-450.7 1479.5,-446.86 1479.5,-446.86 1479.5,-439.2 1479.5,-439.2 1479.5,-435.36 1483.33,-431.53 1487.17,-431.53 1487.17,-431.53 1603.83,-431.53 1603.83,-431.53 1607.67,-431.53 1611.5,-435.36 1611.5,-439.2 1611.5,-439.2 1611.5,-446.86 1611.5,-446.86 1611.5,-450.7 1607.67,-454.53 1603.83,-454.53"/>
<text text-anchor="middle" x="1545.5" y="-439.33" font-family="Arial" font-size="14.00" fill="#cfffac">common/widget.ts</text>
</g>
<!-- component/Dashboard/CommonStyle.ts -->
<g id="node11" class="node">
<title>component/Dashboard/CommonStyle.ts</title>
<path fill="none" stroke="#cfffac" d="M3363.33,-912.53C3363.33,-912.53 3108.67,-912.53 3108.67,-912.53 3104.83,-912.53 3101,-908.7 3101,-904.86 3101,-904.86 3101,-897.2 3101,-897.2 3101,-893.36 3104.83,-889.53 3108.67,-889.53 3108.67,-889.53 3363.33,-889.53 3363.33,-889.53 3367.17,-889.53 3371,-893.36 3371,-897.2 3371,-897.2 3371,-904.86 3371,-904.86 3371,-908.7 3367.17,-912.53 3363.33,-912.53"/>
<text text-anchor="middle" x="3236" y="-897.33" font-family="Arial" font-size="14.00" fill="#cfffac">component/Dashboard/CommonStyle.ts</text>
</g>
<!-- component/Dashboard/DashboardHeader.tsx -->
<g id="node12" class="node">
<title>component/Dashboard/DashboardHeader.tsx</title>
<path fill="none" stroke="#c6c5fe" d="M747.33,-706.53C747.33,-706.53 459.67,-706.53 459.67,-706.53 455.83,-706.53 452,-702.7 452,-698.86 452,-698.86 452,-691.2 452,-691.2 452,-687.36 455.83,-683.53 459.67,-683.53 459.67,-683.53 747.33,-683.53 747.33,-683.53 751.17,-683.53 755,-687.36 755,-691.2 755,-691.2 755,-698.86 755,-698.86 755,-702.7 751.17,-706.53 747.33,-706.53"/>
<text text-anchor="middle" x="603.5" y="-691.33" font-family="Arial" font-size="14.00" fill="#c6c5fe">component/Dashboard/DashboardHeader.tsx</text>
</g>
<!-- component/Dashboard/DashboardHeader/PlayIcon.tsx -->
<g id="node13" class="node">
<title>component/Dashboard/DashboardHeader/PlayIcon.tsx</title>
<path fill="none" stroke="#c6c5fe" d="M1209.83,-852.53C1209.83,-852.53 863.17,-852.53 863.17,-852.53 859.33,-852.53 855.5,-848.7 855.5,-844.86 855.5,-844.86 855.5,-837.2 855.5,-837.2 855.5,-833.36 859.33,-829.53 863.17,-829.53 863.17,-829.53 1209.83,-829.53 1209.83,-829.53 1213.67,-829.53 1217.5,-833.36 1217.5,-837.2 1217.5,-837.2 1217.5,-844.86 1217.5,-844.86 1217.5,-848.7 1213.67,-852.53 1209.83,-852.53"/>
<text text-anchor="middle" x="1036.5" y="-837.33" font-family="Arial" font-size="14.00" fill="#c6c5fe">component/Dashboard/DashboardHeader/PlayIcon.tsx</text>
</g>
<!-- component/Dashboard/DashboardHeader.tsx&#45;&gt;component/Dashboard/DashboardHeader/PlayIcon.tsx -->
<g id="edge4" class="edge">
<title>component/Dashboard/DashboardHeader.tsx&#45;&gt;component/Dashboard/DashboardHeader/PlayIcon.tsx</title>
<path fill="none" stroke="#757575" d="M618.91,-706.76C650.31,-731.61 728.2,-789.35 804,-815.03 817.74,-819.68 832.17,-823.54 846.83,-826.74"/>
<polygon fill="#757575" stroke="#757575" points="846.09,-830.16 856.59,-828.75 847.5,-823.31 846.09,-830.16"/>
</g>
<!-- component/Dashboard/DashboardHeader/SelectRealTimeRangeArea.tsx -->
<g id="node14" class="node">
<title>component/Dashboard/DashboardHeader/SelectRealTimeRangeArea.tsx</title>
<path fill="none" stroke="#c6c5fe" d="M1778.33,-934.53C1778.33,-934.53 1312.67,-934.53 1312.67,-934.53 1308.83,-934.53 1305,-930.7 1305,-926.86 1305,-926.86 1305,-919.2 1305,-919.2 1305,-915.36 1308.83,-911.53 1312.67,-911.53 1312.67,-911.53 1778.33,-911.53 1778.33,-911.53 1782.17,-911.53 1786,-915.36 1786,-919.2 1786,-919.2 1786,-926.86 1786,-926.86 1786,-930.7 1782.17,-934.53 1778.33,-934.53"/>
<text text-anchor="middle" x="1545.5" y="-919.33" font-family="Arial" font-size="14.00" fill="#c6c5fe">component/Dashboard/DashboardHeader/SelectRealTimeRangeArea.tsx</text>
</g>
<!-- component/Dashboard/DashboardHeader.tsx&#45;&gt;component/Dashboard/DashboardHeader/SelectRealTimeRangeArea.tsx -->
<g id="edge5" class="edge">
<title>component/Dashboard/DashboardHeader.tsx&#45;&gt;component/Dashboard/DashboardHeader/SelectRealTimeRangeArea.tsx</title>
<path fill="none" stroke="#757575" d="M613.74,-706.68C639.71,-738.4 717.09,-826.35 804,-862.03 1003.07,-943.76 1257.15,-944.87 1410.01,-935.73"/>
<polygon fill="#757575" stroke="#757575" points="1410.02,-939.24 1419.78,-935.12 1409.58,-932.25 1410.02,-939.24"/>
</g>
<!-- component/Dashboard/DashboardHeader/TimeBlock.tsx -->
<g id="node15" class="node">
<title>component/Dashboard/DashboardHeader/TimeBlock.tsx</title>
<path fill="none" stroke="#c6c5fe" d="M1215.83,-706.53C1215.83,-706.53 857.17,-706.53 857.17,-706.53 853.33,-706.53 849.5,-702.7 849.5,-698.86 849.5,-698.86 849.5,-691.2 849.5,-691.2 849.5,-687.36 853.33,-683.53 857.17,-683.53 857.17,-683.53 1215.83,-683.53 1215.83,-683.53 1219.67,-683.53 1223.5,-687.36 1223.5,-691.2 1223.5,-691.2 1223.5,-698.86 1223.5,-698.86 1223.5,-702.7 1219.67,-706.53 1215.83,-706.53"/>
<text text-anchor="middle" x="1036.5" y="-691.33" font-family="Arial" font-size="14.00" fill="#c6c5fe">component/Dashboard/DashboardHeader/TimeBlock.tsx</text>
</g>
<!-- component/Dashboard/DashboardHeader.tsx&#45;&gt;component/Dashboard/DashboardHeader/TimeBlock.tsx -->
<g id="edge6" class="edge">
<title>component/Dashboard/DashboardHeader.tsx&#45;&gt;component/Dashboard/DashboardHeader/TimeBlock.tsx</title>
<path fill="none" stroke="#757575" d="M755.24,-695.03C781.91,-695.03 810.04,-695.03 837.77,-695.03"/>
<polygon fill="#757575" stroke="#757575" points="837.69,-698.53 847.69,-695.03 837.69,-691.53 837.69,-698.53"/>
</g>
<!-- store/DashboardProvider.tsx -->
<g id="node16" class="node">
<title>store/DashboardProvider.tsx</title>
<path fill="none" stroke="#c6c5fe" d="M2096.83,-571.53C2096.83,-571.53 1915.17,-571.53 1915.17,-571.53 1911.33,-571.53 1907.5,-567.7 1907.5,-563.86 1907.5,-563.86 1907.5,-556.2 1907.5,-556.2 1907.5,-552.36 1911.33,-548.53 1915.17,-548.53 1915.17,-548.53 2096.83,-548.53 2096.83,-548.53 2100.67,-548.53 2104.5,-552.36 2104.5,-556.2 2104.5,-556.2 2104.5,-563.86 2104.5,-563.86 2104.5,-567.7 2100.67,-571.53 2096.83,-571.53"/>
<text text-anchor="middle" x="2006" y="-556.33" font-family="Arial" font-size="14.00" fill="#c6c5fe">store/DashboardProvider.tsx</text>
</g>
<!-- component/Dashboard/DashboardHeader.tsx&#45;&gt;store/DashboardProvider.tsx -->
<g id="edge7" class="edge">
<title>component/Dashboard/DashboardHeader.tsx&#45;&gt;store/DashboardProvider.tsx</title>
<path fill="none" stroke="#757575" d="M710.55,-683.05C740.72,-679.87 773.64,-676.6 804,-674.03 858.47,-669.42 1735.39,-631.69 1786,-611.03 1805.55,-603.05 1802.63,-588.44 1822,-580.03 1844.88,-570.09 1870.81,-564.35 1895.82,-561.18"/>
<polygon fill="#757575" stroke="#757575" points="1896.18,-564.66 1905.72,-560.06 1895.4,-557.7 1896.18,-564.66"/>
</g>
<!-- store/WidgetProvider.tsx -->
<g id="node17" class="node">
<title>store/WidgetProvider.tsx</title>
<path fill="none" stroke="#c6c5fe" d="M1624.33,-253.53C1624.33,-253.53 1466.67,-253.53 1466.67,-253.53 1462.83,-253.53 1459,-249.7 1459,-245.86 1459,-245.86 1459,-238.2 1459,-238.2 1459,-234.36 1462.83,-230.53 1466.67,-230.53 1466.67,-230.53 1624.33,-230.53 1624.33,-230.53 1628.17,-230.53 1632,-234.36 1632,-238.2 1632,-238.2 1632,-245.86 1632,-245.86 1632,-249.7 1628.17,-253.53 1624.33,-253.53"/>
<text text-anchor="middle" x="1545.5" y="-238.33" font-family="Arial" font-size="14.00" fill="#c6c5fe">store/WidgetProvider.tsx</text>
</g>
<!-- component/Dashboard/DashboardHeader.tsx&#45;&gt;store/WidgetProvider.tsx -->
<g id="edge8" class="edge">
<title>component/Dashboard/DashboardHeader.tsx&#45;&gt;store/WidgetProvider.tsx</title>
<path fill="none" stroke="#757575" d="M611.24,-683.25C642.57,-628.65 773.75,-402.01 804,-382.03 978.79,-266.58 1063.47,-345.51 1269,-305.03 1343.99,-290.26 1429.72,-270.14 1485.36,-256.65"/>
<polygon fill="#757575" stroke="#757575" points="1486.06,-260.08 1494.94,-254.32 1484.4,-253.28 1486.06,-260.08"/>
</g>
<!-- types/widget.d.ts -->
<g id="node18" class="node">
<title>types/widget.d.ts</title>
<path fill="none" stroke="#cfffac" d="M2888.83,-694.53C2888.83,-694.53 2781.17,-694.53 2781.17,-694.53 2777.33,-694.53 2773.5,-690.7 2773.5,-686.86 2773.5,-686.86 2773.5,-679.2 2773.5,-679.2 2773.5,-675.36 2777.33,-671.53 2781.17,-671.53 2781.17,-671.53 2888.83,-671.53 2888.83,-671.53 2892.67,-671.53 2896.5,-675.36 2896.5,-679.2 2896.5,-679.2 2896.5,-686.86 2896.5,-686.86 2896.5,-690.7 2892.67,-694.53 2888.83,-694.53"/>
<text text-anchor="middle" x="2835" y="-679.33" font-family="Arial" font-size="14.00" fill="#cfffac">types/widget.d.ts</text>
</g>
<!-- component/Dashboard/DashboardHeader.tsx&#45;&gt;types/widget.d.ts -->
<g id="edge9" class="edge">
<title>component/Dashboard/DashboardHeader.tsx&#45;&gt;types/widget.d.ts</title>
<path fill="none" stroke="#757575" d="M666.93,-706.98C817.34,-734.7 1211.94,-801.03 1544.5,-801.03 1544.5,-801.03 1544.5,-801.03 2007,-801.03 2258.06,-801.03 2321.3,-784.94 2569,-744.03 2642.27,-731.93 2725.56,-711.67 2778.88,-697.84"/>
<polygon fill="#757575" stroke="#757575" points="2779.54,-701.29 2788.33,-695.38 2777.77,-694.51 2779.54,-701.29"/>
</g>
<!-- component/Dashboard/DashboardHeader/PlayIcon.tsx&#45;&gt;asset/image/pause.png -->
<g id="edge19" class="edge">
<title>component/Dashboard/DashboardHeader/PlayIcon.tsx&#45;&gt;asset/image/pause.png</title>
<path fill="none" stroke="#757575" d="M1185.85,-853.03C1271.88,-859.98 1377.55,-868.53 1451.83,-874.54"/>
<polygon fill="#757575" stroke="#757575" points="1451.26,-878 1461.51,-875.32 1451.82,-871.02 1451.26,-878"/>
</g>
<!-- component/Dashboard/DashboardHeader/PlayIcon.tsx&#45;&gt;asset/image/play.png -->
<g id="edge20" class="edge">
<title>component/Dashboard/DashboardHeader/PlayIcon.tsx&#45;&gt;asset/image/play.png</title>
<path fill="none" stroke="#757575" d="M1217.68,-841.03C1299.6,-841.03 1392.71,-841.03 1458.53,-841.03"/>
<polygon fill="#757575" stroke="#757575" points="1458.16,-844.53 1468.16,-841.03 1458.16,-837.53 1458.16,-844.53"/>
</g>
<!-- component/Dashboard/DashboardHeader/SelectRealTimeRangeArea.tsx&#45;&gt;component/Dashboard/CommonStyle.ts -->
<g id="edge22" class="edge">
<title>component/Dashboard/DashboardHeader/SelectRealTimeRangeArea.tsx&#45;&gt;component/Dashboard/CommonStyle.ts</title>
<path fill="none" stroke="#757575" d="M1786.14,-934.91C1798.27,-935.33 1810.27,-935.71 1822,-936.03 2374.24,-951.17 2516.41,-1007.25 3065,-942.03 3106.44,-937.1 3152.39,-925.65 3186.06,-916.09"/>
<polygon fill="#757575" stroke="#757575" points="3186.9,-919.49 3195.53,-913.36 3184.95,-912.77 3186.9,-919.49"/>
</g>
<!-- component/Dashboard/DashboardHeader/SelectRealTimeRangeArea.tsx&#45;&gt;store/DashboardProvider.tsx -->
<g id="edge27" class="edge">
<title>component/Dashboard/DashboardHeader/SelectRealTimeRangeArea.tsx&#45;&gt;store/DashboardProvider.tsx</title>
<path fill="none" stroke="#757575" d="M1594.62,-934.98C1648.83,-945.28 1735.9,-951.76 1786,-903.03 1889.54,-802.32 1719.75,-682.06 1822,-580.03 1846.49,-555.59 1883,-548.24 1916.97,-547.9"/>
<polygon fill="#757575" stroke="#757575" points="1916.82,-551.4 1926.87,-548.03 1916.91,-544.4 1916.82,-551.4"/>
</g>
<!-- hook/useBoolean.tsx -->
<g id="node24" class="node">
<title>hook/useBoolean.tsx</title>
<path fill="none" stroke="#cfffac" d="M2072.83,-530.53C2072.83,-530.53 1939.17,-530.53 1939.17,-530.53 1935.33,-530.53 1931.5,-526.7 1931.5,-522.86 1931.5,-522.86 1931.5,-515.2 1931.5,-515.2 1931.5,-511.36 1935.33,-507.53 1939.17,-507.53 1939.17,-507.53 2072.83,-507.53 2072.83,-507.53 2076.67,-507.53 2080.5,-511.36 2080.5,-515.2 2080.5,-515.2 2080.5,-522.86 2080.5,-522.86 2080.5,-526.7 2076.67,-530.53 2072.83,-530.53"/>
<text text-anchor="middle" x="2006" y="-515.33" font-family="Arial" font-size="14.00" fill="#cfffac">hook/useBoolean.tsx</text>
</g>
<!-- component/Dashboard/DashboardHeader/SelectRealTimeRangeArea.tsx&#45;&gt;hook/useBoolean.tsx -->
<g id="edge25" class="edge">
<title>component/Dashboard/DashboardHeader/SelectRealTimeRangeArea.tsx&#45;&gt;hook/useBoolean.tsx</title>
<path fill="none" stroke="#757575" d="M1594.24,-935C1648.52,-945.46 1736.06,-952.22 1786,-903.03 1843.91,-845.99 1764.82,-596.8 1822,-539.03 1847.16,-513.61 1885.28,-506.59 1920.23,-506.75"/>
<polygon fill="#757575" stroke="#757575" points="1919.85,-510.24 1929.94,-506.99 1920.03,-503.24 1919.85,-510.24"/>
</g>
<!-- hook/useOutsideClick.tsx -->
<g id="node25" class="node">
<title>hook/useOutsideClick.tsx</title>
<path fill="none" stroke="#cfffac" d="M2086.33,-894.53C2086.33,-894.53 1925.67,-894.53 1925.67,-894.53 1921.83,-894.53 1918,-890.7 1918,-886.86 1918,-886.86 1918,-879.2 1918,-879.2 1918,-875.36 1921.83,-871.53 1925.67,-871.53 1925.67,-871.53 2086.33,-871.53 2086.33,-871.53 2090.17,-871.53 2094,-875.36 2094,-879.2 2094,-879.2 2094,-886.86 2094,-886.86 2094,-890.7 2090.17,-894.53 2086.33,-894.53"/>
<text text-anchor="middle" x="2006" y="-879.33" font-family="Arial" font-size="14.00" fill="#cfffac">hook/useOutsideClick.tsx</text>
</g>
<!-- component/Dashboard/DashboardHeader/SelectRealTimeRangeArea.tsx&#45;&gt;hook/useOutsideClick.tsx -->
<g id="edge26" class="edge">
<title>component/Dashboard/DashboardHeader/SelectRealTimeRangeArea.tsx&#45;&gt;hook/useOutsideClick.tsx</title>
<path fill="none" stroke="#757575" d="M1692.17,-911.05C1723.14,-908.45 1755.66,-905.68 1786,-903.03 1825.46,-899.58 1868.91,-895.64 1906.63,-892.18"/>
<polygon fill="#757575" stroke="#757575" points="1906.48,-895.7 1916.12,-891.3 1905.84,-888.73 1906.48,-895.7"/>
</g>
<!-- component/Dashboard/DashboardHeader/RealTime.tsx -->
<g id="node26" class="node">
<title>component/Dashboard/DashboardHeader/RealTime.tsx</title>
<path fill="none" stroke="#cfffac" d="M2182.33,-1012.53C2182.33,-1012.53 1829.67,-1012.53 1829.67,-1012.53 1825.83,-1012.53 1822,-1008.7 1822,-1004.86 1822,-1004.86 1822,-997.2 1822,-997.2 1822,-993.36 1825.83,-989.53 1829.67,-989.53 1829.67,-989.53 2182.33,-989.53 2182.33,-989.53 2186.17,-989.53 2190,-993.36 2190,-997.2 2190,-997.2 2190,-1004.86 2190,-1004.86 2190,-1008.7 2186.17,-1012.53 2182.33,-1012.53"/>
<text text-anchor="middle" x="2006" y="-997.33" font-family="Arial" font-size="14.00" fill="#cfffac">component/Dashboard/DashboardHeader/RealTime.tsx</text>
</g>
<!-- component/Dashboard/DashboardHeader/SelectRealTimeRangeArea.tsx&#45;&gt;component/Dashboard/DashboardHeader/RealTime.tsx -->
<g id="edge23" class="edge">
<title>component/Dashboard/DashboardHeader/SelectRealTimeRangeArea.tsx&#45;&gt;component/Dashboard/DashboardHeader/RealTime.tsx</title>
<path fill="none" stroke="#757575" d="M1605.75,-935.02C1661.44,-946.1 1747.2,-962.66 1822,-975.03 1848.46,-979.4 1877.14,-983.69 1903.78,-987.48"/>
<polygon fill="#757575" stroke="#757575" points="1903.16,-990.93 1913.56,-988.87 1904.14,-984 1903.16,-990.93"/>
</g>
<!-- component/Dashboard/DashboardHeader/SelectRealTimeListItem.tsx -->
<g id="node27" class="node">
<title>component/Dashboard/DashboardHeader/SelectRealTimeListItem.tsx</title>
<path fill="none" stroke="#c6c5fe" d="M3057.33,-932.53C3057.33,-932.53 2612.67,-932.53 2612.67,-932.53 2608.83,-932.53 2605,-928.7 2605,-924.86 2605,-924.86 2605,-917.2 2605,-917.2 2605,-913.36 2608.83,-909.53 2612.67,-909.53 2612.67,-909.53 3057.33,-909.53 3057.33,-909.53 3061.17,-909.53 3065,-913.36 3065,-917.2 3065,-917.2 3065,-924.86 3065,-924.86 3065,-928.7 3061.17,-932.53 3057.33,-932.53"/>
<text text-anchor="middle" x="2835" y="-917.33" font-family="Arial" font-size="14.00" fill="#c6c5fe">component/Dashboard/DashboardHeader/SelectRealTimeListItem.tsx</text>
</g>
<!-- component/Dashboard/DashboardHeader/SelectRealTimeRangeArea.tsx&#45;&gt;component/Dashboard/DashboardHeader/SelectRealTimeListItem.tsx -->
<g id="edge24" class="edge">
<title>component/Dashboard/DashboardHeader/SelectRealTimeRangeArea.tsx&#45;&gt;component/Dashboard/DashboardHeader/SelectRealTimeListItem.tsx</title>
<path fill="none" stroke="#757575" d="M1786.4,-922.66C2016.71,-922.3 2362.71,-921.76 2593.29,-921.4"/>
<polygon fill="#757575" stroke="#757575" points="2593.01,-924.9 2603.01,-921.39 2593,-917.9 2593.01,-924.9"/>
</g>
<!-- component/Dashboard/DashboardHeader/CurrentTime.tsx -->
<g id="node19" class="node">
<title>component/Dashboard/DashboardHeader/CurrentTime.tsx</title>
<path fill="none" stroke="#c6c5fe" d="M1730.83,-686.53C1730.83,-686.53 1360.17,-686.53 1360.17,-686.53 1356.33,-686.53 1352.5,-682.7 1352.5,-678.86 1352.5,-678.86 1352.5,-671.2 1352.5,-671.2 1352.5,-667.36 1356.33,-663.53 1360.17,-663.53 1360.17,-663.53 1730.83,-663.53 1730.83,-663.53 1734.67,-663.53 1738.5,-667.36 1738.5,-671.2 1738.5,-671.2 1738.5,-678.86 1738.5,-678.86 1738.5,-682.7 1734.67,-686.53 1730.83,-686.53"/>
<text text-anchor="middle" x="1545.5" y="-671.33" font-family="Arial" font-size="14.00" fill="#c6c5fe">component/Dashboard/DashboardHeader/CurrentTime.tsx</text>
</g>
<!-- component/Dashboard/DashboardHeader/TimeBlock.tsx&#45;&gt;component/Dashboard/DashboardHeader/CurrentTime.tsx -->
<g id="edge28" class="edge">
<title>component/Dashboard/DashboardHeader/TimeBlock.tsx&#45;&gt;component/Dashboard/DashboardHeader/CurrentTime.tsx</title>
<path fill="none" stroke="#757575" d="M1223.77,-687.68C1261.82,-686.18 1302.05,-684.59 1340.68,-683.07"/>
<polygon fill="#757575" stroke="#757575" points="1340.7,-686.57 1350.55,-682.68 1340.42,-679.58 1340.7,-686.57"/>
</g>
<!-- component/Dashboard/DashboardHeader/DatePickerArea.tsx -->
<g id="node22" class="node">
<title>component/Dashboard/DashboardHeader/DatePickerArea.tsx</title>
<path fill="none" stroke="#c6c5fe" d="M1741.33,-727.53C1741.33,-727.53 1349.67,-727.53 1349.67,-727.53 1345.83,-727.53 1342,-723.7 1342,-719.86 1342,-719.86 1342,-712.2 1342,-712.2 1342,-708.36 1345.83,-704.53 1349.67,-704.53 1349.67,-704.53 1741.33,-704.53 1741.33,-704.53 1745.17,-704.53 1749,-708.36 1749,-712.2 1749,-712.2 1749,-719.86 1749,-719.86 1749,-723.7 1745.17,-727.53 1741.33,-727.53"/>
<text text-anchor="middle" x="1545.5" y="-712.33" font-family="Arial" font-size="14.00" fill="#c6c5fe">component/Dashboard/DashboardHeader/DatePickerArea.tsx</text>
</g>
<!-- component/Dashboard/DashboardHeader/TimeBlock.tsx&#45;&gt;component/Dashboard/DashboardHeader/DatePickerArea.tsx -->
<g id="edge29" class="edge">
<title>component/Dashboard/DashboardHeader/TimeBlock.tsx&#45;&gt;component/Dashboard/DashboardHeader/DatePickerArea.tsx</title>
<path fill="none" stroke="#757575" d="M1223.77,-702.74C1258.43,-704.18 1294.91,-705.69 1330.33,-707.16"/>
<polygon fill="#757575" stroke="#757575" points="1330.14,-710.65 1340.28,-707.57 1330.43,-703.66 1330.14,-710.65"/>
</g>
<!-- store/DashboardProvider.tsx&#45;&gt;common/date.ts -->
<g id="edge74" class="edge">
<title>store/DashboardProvider.tsx&#45;&gt;common/date.ts</title>
<path fill="none" stroke="#757575" d="M2104.78,-549.74C2173.84,-542.47 2264.73,-532.9 2326.58,-526.39"/>
<polygon fill="#757575" stroke="#757575" points="2326.69,-529.9 2336.27,-525.37 2325.96,-522.94 2326.69,-529.9"/>
</g>
<!-- store/WidgetProvider.tsx&#45;&gt;types/widget.d.ts -->
<g id="edge76" class="edge">
<title>store/WidgetProvider.tsx&#45;&gt;types/widget.d.ts</title>
<path fill="none" stroke="#757575" d="M1632.38,-239.64C1863.84,-233.84 2488.59,-222.63 2569,-268.03 2728.36,-358 2806.51,-587.71 2827.83,-660.53"/>
<polygon fill="#757575" stroke="#757575" points="2824.34,-661.07 2830.45,-669.73 2831.08,-659.15 2824.34,-661.07"/>
</g>
<!-- store/WidgetProvider.tsx&#45;&gt;hook/useBoolean.tsx -->
<g id="edge75" class="edge">
<title>store/WidgetProvider.tsx&#45;&gt;hook/useBoolean.tsx</title>
<path fill="none" stroke="#757575" d="M1632.39,-251.71C1679.98,-259.82 1738.88,-274.53 1786,-301.03 1878.18,-352.87 1958.26,-454.15 1990.21,-497.98"/>
<polygon fill="#757575" stroke="#757575" points="1987.22,-499.82 1995.9,-505.9 1992.91,-495.73 1987.22,-499.82"/>
</g>
<!-- hook/useCurrentTime.tsx -->
<g id="node20" class="node">
<title>hook/useCurrentTime.tsx</title>
<path fill="none" stroke="#cfffac" d="M2085.83,-612.53C2085.83,-612.53 1926.17,-612.53 1926.17,-612.53 1922.33,-612.53 1918.5,-608.7 1918.5,-604.86 1918.5,-604.86 1918.5,-597.2 1918.5,-597.2 1918.5,-593.36 1922.33,-589.53 1926.17,-589.53 1926.17,-589.53 2085.83,-589.53 2085.83,-589.53 2089.67,-589.53 2093.5,-593.36 2093.5,-597.2 2093.5,-597.2 2093.5,-604.86 2093.5,-604.86 2093.5,-608.7 2089.67,-612.53 2085.83,-612.53"/>
<text text-anchor="middle" x="2006" y="-597.33" font-family="Arial" font-size="14.00" fill="#cfffac">hook/useCurrentTime.tsx</text>
</g>
<!-- component/Dashboard/DashboardHeader/CurrentTime.tsx&#45;&gt;hook/useCurrentTime.tsx -->
<g id="edge10" class="edge">
<title>component/Dashboard/DashboardHeader/CurrentTime.tsx&#45;&gt;hook/useCurrentTime.tsx</title>
<path fill="none" stroke="#757575" d="M1732.32,-663.09C1750.7,-659.47 1768.88,-654.86 1786,-649.03 1803.75,-642.98 1804.35,-633.37 1822,-627.03 1848.68,-617.45 1878.73,-611.38 1906.66,-607.55"/>
<polygon fill="#757575" stroke="#757575" points="1907.09,-611.02 1916.56,-606.28 1906.2,-604.08 1907.09,-611.02"/>
</g>
<!-- component/Dashboard/DashboardHeader/DateBox.tsx -->
<g id="node21" class="node">
<title>component/Dashboard/DashboardHeader/DateBox.tsx</title>
<path fill="none" stroke="#cfffac" d="M2179.33,-692.53C2179.33,-692.53 1832.67,-692.53 1832.67,-692.53 1828.83,-692.53 1825,-688.7 1825,-684.86 1825,-684.86 1825,-677.2 1825,-677.2 1825,-673.36 1828.83,-669.53 1832.67,-669.53 1832.67,-669.53 2179.33,-669.53 2179.33,-669.53 2183.17,-669.53 2187,-673.36 2187,-677.2 2187,-677.2 2187,-684.86 2187,-684.86 2187,-688.7 2183.17,-692.53 2179.33,-692.53"/>
<text text-anchor="middle" x="2006" y="-677.33" font-family="Arial" font-size="14.00" fill="#cfffac">component/Dashboard/DashboardHeader/DateBox.tsx</text>
</g>
<!-- component/Dashboard/DashboardHeader/DatePickerArea.tsx&#45;&gt;common/date.ts -->
<g id="edge11" class="edge">
<title>component/Dashboard/DashboardHeader/DatePickerArea.tsx&#45;&gt;common/date.ts</title>
<path fill="none" stroke="#757575" d="M1749.36,-708.28C1762.01,-704.74 1774.33,-700.37 1786,-695.03 1806.29,-685.74 1801.8,-669.5 1822,-660.03 1970.91,-590.21 2032.03,-666.83 2190,-621.03 2257.69,-601.4 2330.05,-560.45 2368.57,-536.84"/>
<polygon fill="#757575" stroke="#757575" points="2370.12,-540 2376.77,-531.76 2366.43,-534.05 2370.12,-540"/>
</g>
<!-- component/Dashboard/DashboardHeader/DatePickerArea.tsx&#45;&gt;component/Dashboard/CommonStyle.ts -->
<g id="edge12" class="edge">
<title>component/Dashboard/DashboardHeader/DatePickerArea.tsx&#45;&gt;component/Dashboard/CommonStyle.ts</title>
<path fill="none" stroke="#757575" d="M1593.66,-727.93C1648.41,-741.6 1741.52,-764.43 1822,-782.03 2000.82,-821.14 2044.21,-840.65 2226,-862.03 2388.71,-881.16 2851.68,-893.15 3089.74,-898.22"/>
<polygon fill="#757575" stroke="#757575" points="3089.32,-901.71 3099.39,-898.43 3089.47,-894.71 3089.32,-901.71"/>
</g>
<!-- component/Dashboard/DashboardHeader/DatePickerArea.tsx&#45;&gt;store/DashboardProvider.tsx -->
<g id="edge17" class="edge">
<title>component/Dashboard/DashboardHeader/DatePickerArea.tsx&#45;&gt;store/DashboardProvider.tsx</title>
<path fill="none" stroke="#757575" d="M1607.45,-728.01C1660.41,-734.74 1736.24,-735.06 1786,-695.03 1827.73,-661.46 1780.63,-614.04 1822,-580.03 1842.63,-563.07 1869.29,-555.05 1895.84,-551.94"/>
<polygon fill="#757575" stroke="#757575" points="1896.06,-555.44 1905.69,-551.04 1895.42,-548.47 1896.06,-555.44"/>
</g>
<!-- component/Dashboard/DashboardHeader/DatePickerArea.tsx&#45;&gt;types/widget.d.ts -->
<g id="edge18" class="edge">
<title>component/Dashboard/DashboardHeader/DatePickerArea.tsx&#45;&gt;types/widget.d.ts</title>
<path fill="none" stroke="#757575" d="M1749.38,-711.54C1876.06,-708.68 2042.54,-704.81 2190,-701.03 2397.49,-695.71 2642.56,-688.64 2761.7,-685.16"/>
<polygon fill="#757575" stroke="#757575" points="2761.78,-688.66 2771.67,-684.87 2761.57,-681.66 2761.78,-688.66"/>
</g>
<!-- component/Dashboard/DashboardHeader/DatePickerArea.tsx&#45;&gt;component/Dashboard/DashboardHeader/DateBox.tsx -->
<g id="edge13" class="edge">
<title>component/Dashboard/DashboardHeader/DatePickerArea.tsx&#45;&gt;component/Dashboard/DashboardHeader/DateBox.tsx</title>
<path fill="none" stroke="#757575" d="M1703.65,-704.03C1746.57,-700.76 1793.25,-697.19 1836.77,-693.87"/>
<polygon fill="#757575" stroke="#757575" points="1836.84,-697.38 1846.55,-693.12 1836.31,-690.4 1836.84,-697.38"/>
</g>
<!-- component/common/DatePicker.tsx -->
<g id="node23" class="node">
<title>component/common/DatePicker.tsx</title>
<path fill="none" stroke="#c6c5fe" d="M2119.33,-772.53C2119.33,-772.53 1892.67,-772.53 1892.67,-772.53 1888.83,-772.53 1885,-768.7 1885,-764.86 1885,-764.86 1885,-757.2 1885,-757.2 1885,-753.36 1888.83,-749.53 1892.67,-749.53 1892.67,-749.53 2119.33,-749.53 2119.33,-749.53 2123.17,-749.53 2127,-753.36 2127,-757.2 2127,-757.2 2127,-764.86 2127,-764.86 2127,-768.7 2123.17,-772.53 2119.33,-772.53"/>
<text text-anchor="middle" x="2006" y="-757.33" font-family="Arial" font-size="14.00" fill="#c6c5fe">component/common/DatePicker.tsx</text>
</g>
<!-- component/Dashboard/DashboardHeader/DatePickerArea.tsx&#45;&gt;component/common/DatePicker.tsx -->
<g id="edge14" class="edge">
<title>component/Dashboard/DashboardHeader/DatePickerArea.tsx&#45;&gt;component/common/DatePicker.tsx</title>
<path fill="none" stroke="#757575" d="M1668.47,-728C1731.66,-734.2 1808.9,-741.78 1873.44,-748.12"/>
<polygon fill="#757575" stroke="#757575" points="1872.71,-751.56 1883,-749.06 1873.39,-744.6 1872.71,-751.56"/>
</g>
<!-- component/Dashboard/DashboardHeader/DatePickerArea.tsx&#45;&gt;hook/useBoolean.tsx -->
<g id="edge15" class="edge">
<title>component/Dashboard/DashboardHeader/DatePickerArea.tsx&#45;&gt;hook/useBoolean.tsx</title>
<path fill="none" stroke="#757575" d="M1602.03,-728.03C1655.66,-736.13 1735.92,-738.58 1786,-695.03 1839.7,-648.34 1768.81,-586.29 1822,-539.03 1848.19,-515.76 1885.5,-508.75 1919.61,-508.34"/>
<polygon fill="#757575" stroke="#757575" points="1919.49,-511.84 1929.52,-508.43 1919.55,-504.84 1919.49,-511.84"/>
</g>
<!-- component/Dashboard/DashboardHeader/DatePickerArea.tsx&#45;&gt;hook/useOutsideClick.tsx -->
<g id="edge16" class="edge">
<title>component/Dashboard/DashboardHeader/DatePickerArea.tsx&#45;&gt;hook/useOutsideClick.tsx</title>
<path fill="none" stroke="#757575" d="M1585.25,-728.01C1634.57,-744.35 1721.14,-776.73 1786,-821.03 1804.68,-833.79 1801.76,-846.92 1822,-857.03 1847.85,-869.94 1878.16,-876.99 1906.59,-880.7"/>
<polygon fill="#757575" stroke="#757575" points="1905.95,-884.15 1916.29,-881.83 1906.76,-877.19 1905.95,-884.15"/>
</g>
<!-- component/common/DatePicker/DatePickerTitle.tsx -->
<g id="node42" class="node">
<title>component/common/DatePicker/DatePickerTitle.tsx</title>
<path fill="none" stroke="#c6c5fe" d="M2561.33,-734.53C2561.33,-734.53 2233.67,-734.53 2233.67,-734.53 2229.83,-734.53 2226,-730.7 2226,-726.86 2226,-726.86 2226,-719.2 2226,-719.2 2226,-715.36 2229.83,-711.53 2233.67,-711.53 2233.67,-711.53 2561.33,-711.53 2561.33,-711.53 2565.17,-711.53 2569,-715.36 2569,-719.2 2569,-719.2 2569,-726.86 2569,-726.86 2569,-730.7 2565.17,-734.53 2561.33,-734.53"/>
<text text-anchor="middle" x="2397.5" y="-719.33" font-family="Arial" font-size="14.00" fill="#c6c5fe">component/common/DatePicker/DatePickerTitle.tsx</text>
</g>
<!-- component/common/DatePicker.tsx&#45;&gt;component/common/DatePicker/DatePickerTitle.tsx -->
<g id="edge61" class="edge">
<title>component/common/DatePicker.tsx&#45;&gt;component/common/DatePicker/DatePickerTitle.tsx</title>
<path fill="none" stroke="#757575" d="M2127.31,-749.29C2170.07,-745.12 2218.46,-740.4 2262.31,-736.12"/>
<polygon fill="#757575" stroke="#757575" points="2262.53,-739.62 2272.15,-735.16 2261.85,-732.65 2262.53,-739.62"/>
</g>
<!-- component/common/DatePicker/ListPicker.tsx -->
<g id="node43" class="node">
<title>component/common/DatePicker/ListPicker.tsx</title>
<path fill="none" stroke="#c6c5fe" d="M2543.83,-852.53C2543.83,-852.53 2251.17,-852.53 2251.17,-852.53 2247.33,-852.53 2243.5,-848.7 2243.5,-844.86 2243.5,-844.86 2243.5,-837.2 2243.5,-837.2 2243.5,-833.36 2247.33,-829.53 2251.17,-829.53 2251.17,-829.53 2543.83,-829.53 2543.83,-829.53 2547.67,-829.53 2551.5,-833.36 2551.5,-837.2 2551.5,-837.2 2551.5,-844.86 2551.5,-844.86 2551.5,-848.7 2547.67,-852.53 2543.83,-852.53"/>
<text text-anchor="middle" x="2397.5" y="-837.33" font-family="Arial" font-size="14.00" fill="#c6c5fe">component/common/DatePicker/ListPicker.tsx</text>
</g>
<!-- component/common/DatePicker.tsx&#45;&gt;component/common/DatePicker/ListPicker.tsx -->
<g id="edge62" class="edge">
<title>component/common/DatePicker.tsx&#45;&gt;component/common/DatePicker/ListPicker.tsx</title>
<path fill="none" stroke="#757575" d="M2065.31,-773.01C2135.26,-787.37 2252.39,-811.43 2326.97,-826.75"/>
<polygon fill="#757575" stroke="#757575" points="2326.13,-830.15 2336.63,-828.73 2327.53,-823.29 2326.13,-830.15"/>
</g>
<!-- types/datePicker.d.ts -->
<g id="node44" class="node">
<title>types/datePicker.d.ts</title>
<path fill="none" stroke="#cfffac" d="M2901.83,-792.53C2901.83,-792.53 2768.17,-792.53 2768.17,-792.53 2764.33,-792.53 2760.5,-788.7 2760.5,-784.86 2760.5,-784.86 2760.5,-777.2 2760.5,-777.2 2760.5,-773.36 2764.33,-769.53 2768.17,-769.53 2768.17,-769.53 2901.83,-769.53 2901.83,-769.53 2905.67,-769.53 2909.5,-773.36 2909.5,-777.2 2909.5,-777.2 2909.5,-784.86 2909.5,-784.86 2909.5,-788.7 2905.67,-792.53 2901.83,-792.53"/>
<text text-anchor="middle" x="2835" y="-777.33" font-family="Arial" font-size="14.00" fill="#cfffac">types/datePicker.d.ts</text>
</g>
<!-- component/common/DatePicker.tsx&#45;&gt;types/datePicker.d.ts -->
<g id="edge63" class="edge">
<title>component/common/DatePicker.tsx&#45;&gt;types/datePicker.d.ts</title>
<path fill="none" stroke="#757575" d="M2127.25,-763.94C2296.55,-768.03 2600.96,-775.39 2748.8,-778.97"/>
<polygon fill="#757575" stroke="#757575" points="2748.43,-782.46 2758.51,-779.2 2748.6,-775.46 2748.43,-782.46"/>
</g>
<!-- component/Dashboard/DashboardHeader/SelectRealTimeListItem.tsx&#45;&gt;component/Dashboard/CommonStyle.ts -->
<g id="edge21" class="edge">
<title>component/Dashboard/DashboardHeader/SelectRealTimeListItem.tsx&#45;&gt;component/Dashboard/CommonStyle.ts</title>
<path fill="none" stroke="#757575" d="M3065.5,-909.53C3073.54,-909.12 3081.51,-908.72 3089.37,-908.33"/>
<polygon fill="#757575" stroke="#757575" points="3089.46,-911.83 3099.27,-907.83 3089.11,-904.84 3089.46,-911.83"/>
</g>
<!-- component/Widget.tsx -->
<g id="node28" class="node">
<title>component/Widget.tsx</title>
<path fill="none" stroke="#c6c5fe" d="M675.33,-414.53C675.33,-414.53 531.67,-414.53 531.67,-414.53 527.83,-414.53 524,-410.7 524,-406.86 524,-406.86 524,-399.2 524,-399.2 524,-395.36 527.83,-391.53 531.67,-391.53 531.67,-391.53 675.33,-391.53 675.33,-391.53 679.17,-391.53 683,-395.36 683,-399.2 683,-399.2 683,-406.86 683,-406.86 683,-410.7 679.17,-414.53 675.33,-414.53"/>
<text text-anchor="middle" x="603.5" y="-399.33" font-family="Arial" font-size="14.00" fill="#c6c5fe">component/Widget.tsx</text>
</g>
<!-- component/Widget.tsx&#45;&gt;common/api.ts -->
<g id="edge30" class="edge">
<title>component/Widget.tsx&#45;&gt;common/api.ts</title>
<path fill="none" stroke="#757575" d="M614.73,-391.41C642.12,-359.89 718.42,-269.48 768,-185.03 787.95,-151.06 771.92,-126.9 804,-104.03 851.69,-70.03 919.75,-68.16 969.73,-72.92"/>
<polygon fill="#757575" stroke="#757575" points="969.24,-76.38 979.56,-73.97 969.99,-69.42 969.24,-76.38"/>
</g>
<!-- component/Widget.tsx&#45;&gt;common/date.ts -->
<g id="edge31" class="edge">
<title>component/Widget.tsx&#45;&gt;common/date.ts</title>
<path fill="none" stroke="#757575" d="M648.88,-414.93C689.06,-425.14 750.04,-439.25 804,-446.03 1415.63,-522.82 1575.05,-455.27 2190,-498.03 2235.58,-501.2 2286.66,-506.38 2326.61,-510.8"/>
<polygon fill="#757575" stroke="#757575" points="2326.01,-514.26 2336.33,-511.89 2326.79,-507.3 2326.01,-514.26"/>
</g>
<!-- component/Widget.tsx&#45;&gt;common/widget.ts -->
<g id="edge32" class="edge">
<title>component/Widget.tsx&#45;&gt;common/widget.ts</title>
<path fill="none" stroke="#757575" d="M683.04,-412.24C719.73,-416.2 764.05,-420.49 804,-423.03 1045.94,-438.4 1333.08,-441.98 1467.68,-442.8"/>
<polygon fill="#757575" stroke="#757575" points="1467.52,-446.3 1477.54,-442.85 1467.56,-439.3 1467.52,-446.3"/>
</g>
<!-- component/Widget.tsx&#45;&gt;store/DashboardProvider.tsx -->
<g id="edge37" class="edge">
<title>component/Widget.tsx&#45;&gt;store/DashboardProvider.tsx</title>
<path fill="none" stroke="#757575" d="M617.73,-414.95C648.01,-441.34 725.78,-504.28 804,-528.03 1006.07,-589.39 1639.87,-573.7 1896,-564.46"/>
<polygon fill="#757575" stroke="#757575" points="1895.79,-567.97 1905.66,-564.11 1895.54,-560.98 1895.79,-567.97"/>
</g>
<!-- component/Widget.tsx&#45;&gt;types/widget.d.ts -->
<g id="edge38" class="edge">
<title>component/Widget.tsx&#45;&gt;types/widget.d.ts</title>
<path fill="none" stroke="#757575" d="M683.34,-391.24C859.93,-364.87 1274.2,-303.26 1305,-301.03 1872.07,-259.96 2051.72,-262.06 2569,-498.03 2667.92,-543.15 2768.93,-625.97 2812.18,-663.55"/>
<polygon fill="#757575" stroke="#757575" points="2809.78,-666.11 2819.61,-670.07 2814.39,-660.84 2809.78,-666.11"/>
</g>
<!-- component/Widget.tsx&#45;&gt;hook/useBoolean.tsx -->
<g id="edge36" class="edge">
<title>component/Widget.tsx&#45;&gt;hook/useBoolean.tsx</title>
<path fill="none" stroke="#757575" d="M622.78,-414.92C656.78,-436.26 732.79,-480.41 804,-497.03 1016.17,-546.56 1682.11,-529.89 1919.72,-522.09"/>
<polygon fill="#757575" stroke="#757575" points="1919.65,-525.6 1929.53,-521.77 1919.42,-518.6 1919.65,-525.6"/>
</g>
<!-- component/Widget/WidgetButtons.tsx -->
<g id="node29" class="node">
<title>component/Widget/WidgetButtons.tsx</title>
<path fill="none" stroke="#c6c5fe" d="M1157.33,-296.53C1157.33,-296.53 915.67,-296.53 915.67,-296.53 911.83,-296.53 908,-292.7 908,-288.86 908,-288.86 908,-281.2 908,-281.2 908,-277.36 911.83,-273.53 915.67,-273.53 915.67,-273.53 1157.33,-273.53 1157.33,-273.53 1161.17,-273.53 1165,-277.36 1165,-281.2 1165,-281.2 1165,-288.86 1165,-288.86 1165,-292.7 1161.17,-296.53 1157.33,-296.53"/>
<text text-anchor="middle" x="1036.5" y="-281.33" font-family="Arial" font-size="14.00" fill="#c6c5fe">component/Widget/WidgetButtons.tsx</text>
</g>
<!-- component/Widget.tsx&#45;&gt;component/Widget/WidgetButtons.tsx -->
<g id="edge33" class="edge">
<title>component/Widget.tsx&#45;&gt;component/Widget/WidgetButtons.tsx</title>
<path fill="none" stroke="#757575" d="M624.63,-391.08C659.72,-370.88 734.93,-330.29 804,-311.03 833.41,-302.83 865.6,-297.2 896.37,-293.35"/>
<polygon fill="#757575" stroke="#757575" points="896.62,-296.84 906.14,-292.19 895.79,-289.89 896.62,-296.84"/>
</g>
<!-- component/Widget/WidgetCallCycleSettingModal.tsx -->
<g id="node30" class="node">
<title>component/Widget/WidgetCallCycleSettingModal.tsx</title>
<path fill="none" stroke="#c6c5fe" d="M1204.33,-414.53C1204.33,-414.53 868.67,-414.53 868.67,-414.53 864.83,-414.53 861,-410.7 861,-406.86 861,-406.86 861,-399.2 861,-399.2 861,-395.36 864.83,-391.53 868.67,-391.53 868.67,-391.53 1204.33,-391.53 1204.33,-391.53 1208.17,-391.53 1212,-395.36 1212,-399.2 1212,-399.2 1212,-406.86 1212,-406.86 1212,-410.7 1208.17,-414.53 1204.33,-414.53"/>
<text text-anchor="middle" x="1036.5" y="-399.33" font-family="Arial" font-size="14.00" fill="#c6c5fe">component/Widget/WidgetCallCycleSettingModal.tsx</text>
</g>
<!-- component/Widget.tsx&#45;&gt;component/Widget/WidgetCallCycleSettingModal.tsx -->
<g id="edge34" class="edge">
<title>component/Widget.tsx&#45;&gt;component/Widget/WidgetCallCycleSettingModal.tsx</title>
<path fill="none" stroke="#757575" d="M683.3,-403.03C729.97,-403.03 791.2,-403.03 849.5,-403.03"/>
<polygon fill="#757575" stroke="#757575" points="849.22,-406.53 859.22,-403.03 849.22,-399.53 849.22,-406.53"/>
</g>
<!-- component/Widget/WidgetChart.tsx -->
<g id="node31" class="node">
<title>component/Widget/WidgetChart.tsx</title>
<path fill="none" stroke="#c6c5fe" d="M1149.83,-136.53C1149.83,-136.53 923.17,-136.53 923.17,-136.53 919.33,-136.53 915.5,-132.7 915.5,-128.86 915.5,-128.86 915.5,-121.2 915.5,-121.2 915.5,-117.36 919.33,-113.53 923.17,-113.53 923.17,-113.53 1149.83,-113.53 1149.83,-113.53 1153.67,-113.53 1157.5,-117.36 1157.5,-121.2 1157.5,-121.2 1157.5,-128.86 1157.5,-128.86 1157.5,-132.7 1153.67,-136.53 1149.83,-136.53"/>
<text text-anchor="middle" x="1036.5" y="-121.33" font-family="Arial" font-size="14.00" fill="#c6c5fe">component/Widget/WidgetChart.tsx</text>
</g>
<!-- component/Widget.tsx&#45;&gt;component/Widget/WidgetChart.tsx -->
<g id="edge35" class="edge">
<title>component/Widget.tsx&#45;&gt;component/Widget/WidgetChart.tsx</title>
<path fill="none" stroke="#757575" d="M611.71,-391.08C634.7,-354.05 710.3,-240.29 804,-184.03 840.97,-161.83 886.09,-147.93 926.65,-139.25"/>
<polygon fill="#757575" stroke="#757575" points="927.1,-142.73 936.2,-137.3 925.7,-135.87 927.1,-142.73"/>
</g>
<!-- component/Widget/WidgetButtons.tsx&#45;&gt;store/WidgetProvider.tsx -->
<g id="edge39" class="edge">
<title>component/Widget/WidgetButtons.tsx&#45;&gt;store/WidgetProvider.tsx</title>
<path fill="none" stroke="#757575" d="M1165.44,-274.18C1253.13,-266.74 1367.64,-257.03 1447.76,-250.23"/>
<polygon fill="#757575" stroke="#757575" points="1447.66,-253.76 1457.33,-249.42 1447.07,-246.78 1447.66,-253.76"/>
</g>
<!-- component/Widget/WidgetCallCycleSettingModal.tsx&#45;&gt;common/date.ts -->
<g id="edge40" class="edge">
<title>component/Widget/WidgetCallCycleSettingModal.tsx&#45;&gt;common/date.ts</title>
<path fill="none" stroke="#757575" d="M1212.39,-398.71C1439.63,-396.23 1847.77,-402.43 2190,-465.03 2244.43,-474.98 2305.61,-491.7 2347.16,-503.9"/>
<polygon fill="#757575" stroke="#757575" points="2346.03,-507.21 2356.62,-506.7 2348.02,-500.5 2346.03,-507.21"/>
</g>
<!-- component/Widget/WidgetCallCycleSettingModal.tsx&#45;&gt;common/widget.ts -->
<g id="edge41" class="edge">
<title>component/Widget/WidgetCallCycleSettingModal.tsx&#45;&gt;common/widget.ts</title>
<path fill="none" stroke="#757575" d="M1189.27,-415C1281.07,-422.25 1394.21,-431.17 1467.78,-436.98"/>
<polygon fill="#757575" stroke="#757575" points="1467.49,-440.46 1477.73,-437.76 1468.04,-433.49 1467.49,-440.46"/>
</g>
<!-- component/Widget/WidgetCallCycleSettingModal/CycleInput.tsx -->
<g id="node32" class="node">
<title>component/Widget/WidgetCallCycleSettingModal/CycleInput.tsx</title>
<path fill="none" stroke="#cfffac" d="M1748.83,-374.53C1748.83,-374.53 1342.17,-374.53 1342.17,-374.53 1338.33,-374.53 1334.5,-370.7 1334.5,-366.86 1334.5,-366.86 1334.5,-359.2 1334.5,-359.2 1334.5,-355.36 1338.33,-351.53 1342.17,-351.53 1342.17,-351.53 1748.83,-351.53 1748.83,-351.53 1752.67,-351.53 1756.5,-355.36 1756.5,-359.2 1756.5,-359.2 1756.5,-366.86 1756.5,-366.86 1756.5,-370.7 1752.67,-374.53 1748.83,-374.53"/>
<text text-anchor="middle" x="1545.5" y="-359.33" font-family="Arial" font-size="14.00" fill="#cfffac">component/Widget/WidgetCallCycleSettingModal/CycleInput.tsx</text>
</g>
<!-- component/Widget/WidgetCallCycleSettingModal.tsx&#45;&gt;component/Widget/WidgetCallCycleSettingModal/CycleInput.tsx -->
<g id="edge42" class="edge">
<title>component/Widget/WidgetCallCycleSettingModal.tsx&#45;&gt;component/Widget/WidgetCallCycleSettingModal/CycleInput.tsx</title>
<path fill="none" stroke="#757575" d="M1189.27,-391.06C1249.83,-386.28 1319.68,-380.77 1381.32,-375.9"/>
<polygon fill="#757575" stroke="#757575" points="1381.53,-379.4 1391.22,-375.12 1380.98,-372.42 1381.53,-379.4"/>
</g>
<!-- component/Widget/WidgetCallCycleSettingModal/LastCallTimeBox.tsx -->
<g id="node33" class="node">
<title>component/Widget/WidgetCallCycleSettingModal/LastCallTimeBox.tsx</title>
<path fill="none" stroke="#cfffac" d="M1769.33,-333.53C1769.33,-333.53 1321.67,-333.53 1321.67,-333.53 1317.83,-333.53 1314,-329.7 1314,-325.86 1314,-325.86 1314,-318.2 1314,-318.2 1314,-314.36 1317.83,-310.53 1321.67,-310.53 1321.67,-310.53 1769.33,-310.53 1769.33,-310.53 1773.17,-310.53 1777,-314.36 1777,-318.2 1777,-318.2 1777,-325.86 1777,-325.86 1777,-329.7 1773.17,-333.53 1769.33,-333.53"/>
<text text-anchor="middle" x="1545.5" y="-318.33" font-family="Arial" font-size="14.00" fill="#cfffac">component/Widget/WidgetCallCycleSettingModal/LastCallTimeBox.tsx</text>
</g>
<!-- component/Widget/WidgetCallCycleSettingModal.tsx&#45;&gt;component/Widget/WidgetCallCycleSettingModal/LastCallTimeBox.tsx -->
<g id="edge43" class="edge">
<title>component/Widget/WidgetCallCycleSettingModal.tsx&#45;&gt;component/Widget/WidgetCallCycleSettingModal/LastCallTimeBox.tsx</title>
<path fill="none" stroke="#757575" d="M1212.27,-396C1231.94,-391.55 1251.27,-385.41 1269,-377.03 1289.17,-367.49 1284.69,-351.28 1305,-342.03 1308.17,-340.58 1311.39,-339.21 1314.66,-337.91"/>
<polygon fill="#757575" stroke="#757575" points="1315.64,-341.28 1323.79,-334.51 1313.2,-334.72 1315.64,-341.28"/>
</g>
<!-- component/chart/BarChart.tsx -->
<g id="node34" class="node">
<title>component/chart/BarChart.tsx</title>
<path fill="none" stroke="#c6c5fe" d="M1639.33,-177.53C1639.33,-177.53 1451.67,-177.53 1451.67,-177.53 1447.83,-177.53 1444,-173.7 1444,-169.86 1444,-169.86 1444,-162.2 1444,-162.2 1444,-158.36 1447.83,-154.53 1451.67,-154.53 1451.67,-154.53 1639.33,-154.53 1639.33,-154.53 1643.17,-154.53 1647,-158.36 1647,-162.2 1647,-162.2 1647,-169.86 1647,-169.86 1647,-173.7 1643.17,-177.53 1639.33,-177.53"/>
<text text-anchor="middle" x="1545.5" y="-162.33" font-family="Arial" font-size="14.00" fill="#c6c5fe">component/chart/BarChart.tsx</text>
</g>
<!-- component/Widget/WidgetChart.tsx&#45;&gt;component/chart/BarChart.tsx -->
<g id="edge44" class="edge">
<title>component/Widget/WidgetChart.tsx&#45;&gt;component/chart/BarChart.tsx</title>
<path fill="none" stroke="#757575" d="M1157.97,-134.77C1241.18,-141.5 1351.08,-150.39 1432.41,-156.97"/>
<polygon fill="#757575" stroke="#757575" points="1431.94,-160.44 1442.19,-157.76 1432.5,-153.46 1431.94,-160.44"/>
</g>
<!-- component/chart/InformaticsChart.tsx -->
<g id="node35" class="node">
<title>component/chart/InformaticsChart.tsx</title>
<path fill="none" stroke="#c6c5fe" d="M1663.83,-75.53C1663.83,-75.53 1427.17,-75.53 1427.17,-75.53 1423.33,-75.53 1419.5,-71.7 1419.5,-67.86 1419.5,-67.86 1419.5,-60.2 1419.5,-60.2 1419.5,-56.36 1423.33,-52.53 1427.17,-52.53 1427.17,-52.53 1663.83,-52.53 1663.83,-52.53 1667.67,-52.53 1671.5,-56.36 1671.5,-60.2 1671.5,-60.2 1671.5,-67.86 1671.5,-67.86 1671.5,-71.7 1667.67,-75.53 1663.83,-75.53"/>
<text text-anchor="middle" x="1545.5" y="-60.33" font-family="Arial" font-size="14.00" fill="#c6c5fe">component/chart/InformaticsChart.tsx</text>
</g>
<!-- component/Widget/WidgetChart.tsx&#45;&gt;component/chart/InformaticsChart.tsx -->
<g id="edge45" class="edge">
<title>component/Widget/WidgetChart.tsx&#45;&gt;component/chart/InformaticsChart.tsx</title>
<path fill="none" stroke="#757575" d="M1157.78,-115.35C1193.61,-112.14 1232.93,-108.28 1269,-104.03 1332.52,-96.54 1403.99,-86.11 1458.21,-77.77"/>
<polygon fill="#757575" stroke="#757575" points="1458.67,-81.24 1468.02,-76.26 1457.6,-74.33 1458.67,-81.24"/>
</g>
<!-- component/chart/LineChart.tsx -->
<g id="node36" class="node">
<title>component/chart/LineChart.tsx</title>
<path fill="none" stroke="#c6c5fe" d="M1642.33,-136.53C1642.33,-136.53 1448.67,-136.53 1448.67,-136.53 1444.83,-136.53 1441,-132.7 1441,-128.86 1441,-128.86 1441,-121.2 1441,-121.2 1441,-117.36 1444.83,-113.53 1448.67,-113.53 1448.67,-113.53 1642.33,-113.53 1642.33,-113.53 1646.17,-113.53 1650,-117.36 1650,-121.2 1650,-121.2 1650,-128.86 1650,-128.86 1650,-132.7 1646.17,-136.53 1642.33,-136.53"/>
<text text-anchor="middle" x="1545.5" y="-121.33" font-family="Arial" font-size="14.00" fill="#c6c5fe">component/chart/LineChart.tsx</text>
</g>
<!-- component/Widget/WidgetChart.tsx&#45;&gt;component/chart/LineChart.tsx -->
<g id="edge46" class="edge">
<title>component/Widget/WidgetChart.tsx&#45;&gt;component/chart/LineChart.tsx</title>
<path fill="none" stroke="#757575" d="M1157.97,-125.03C1240.21,-125.03 1348.5,-125.03 1429.53,-125.03"/>
<polygon fill="#757575" stroke="#757575" points="1429.27,-128.53 1439.27,-125.03 1429.27,-121.53 1429.27,-128.53"/>
</g>
<!-- component/chart/BarChart.tsx&#45;&gt;common/chart.ts -->
<g id="edge52" class="edge">
<title>component/chart/BarChart.tsx&#45;&gt;common/chart.ts</title>
<path fill="none" stroke="#757575" d="M1647.31,-157.27C1690.08,-153.53 1740.48,-149.1 1786,-145.03 1835.12,-140.63 1890.42,-135.58 1933.16,-131.66"/>
<polygon fill="#757575" stroke="#757575" points="1933.44,-135.15 1943.08,-130.74 1932.8,-128.17 1933.44,-135.15"/>
</g>
<!-- component/chart/BarChart.tsx&#45;&gt;types/chart.d.ts -->
<g id="edge54" class="edge">
<title>component/chart/BarChart.tsx&#45;&gt;types/chart.d.ts</title>
<path fill="none" stroke="#757575" d="M1606.5,-177.99C1721.48,-198.7 1980.11,-234.61 2190,-186.03 2259.24,-170 2332.08,-127.4 2370,-102.95"/>
<polygon fill="#757575" stroke="#757575" points="2371.59,-106.09 2378.04,-97.69 2367.75,-100.24 2371.59,-106.09"/>
</g>
<!-- hook/useResize.tsx -->
<g id="node40" class="node">
<title>hook/useResize.tsx</title>
<path fill="none" stroke="#cfffac" d="M2068.33,-177.53C2068.33,-177.53 1943.67,-177.53 1943.67,-177.53 1939.83,-177.53 1936,-173.7 1936,-169.86 1936,-169.86 1936,-162.2 1936,-162.2 1936,-158.36 1939.83,-154.53 1943.67,-154.53 1943.67,-154.53 2068.33,-154.53 2068.33,-154.53 2072.17,-154.53 2076,-158.36 2076,-162.2 2076,-162.2 2076,-169.86 2076,-169.86 2076,-173.7 2072.17,-177.53 2068.33,-177.53"/>
<text text-anchor="middle" x="2006" y="-162.33" font-family="Arial" font-size="14.00" fill="#cfffac">hook/useResize.tsx</text>
</g>
<!-- component/chart/BarChart.tsx&#45;&gt;hook/useResize.tsx -->
<g id="edge53" class="edge">
<title>component/chart/BarChart.tsx&#45;&gt;hook/useResize.tsx</title>
<path fill="none" stroke="#757575" d="M1647.4,-166.03C1730.71,-166.03 1847.38,-166.03 1924.51,-166.03"/>
<polygon fill="#757575" stroke="#757575" points="1924.08,-169.53 1934.08,-166.03 1924.08,-162.53 1924.08,-169.53"/>
</g>
<!-- component/chart/InformaticsChart.tsx&#45;&gt;types/chart.d.ts -->
<g id="edge56" class="edge">
<title>component/chart/InformaticsChart.tsx&#45;&gt;types/chart.d.ts</title>
<path fill="none" stroke="#757575" d="M1671.94,-62.43C1709.22,-59.46 1749.77,-53.71 1786,-43.03 1803.35,-37.92 1804.44,-28.38 1822,-24.03 1980.76,15.29 2028.13,-0.62 2190,-24.03 2248.97,-32.56 2314.56,-54.11 2355.66,-69.17"/>
<polygon fill="#757575" stroke="#757575" points="2354.32,-72.4 2364.91,-72.6 2356.75,-65.84 2354.32,-72.4"/>
</g>
<!-- component/chart/InformaticsChart/InforMaticsBox.tsx -->
<g id="node41" class="node">
<title>component/chart/InformaticsChart/InforMaticsBox.tsx</title>
<path fill="none" stroke="#c6c5fe" d="M2173.33,-56.53C2173.33,-56.53 1838.67,-56.53 1838.67,-56.53 1834.83,-56.53 1831,-52.7 1831,-48.86 1831,-48.86 1831,-41.2 1831,-41.2 1831,-37.36 1834.83,-33.53 1838.67,-33.53 1838.67,-33.53 2173.33,-33.53 2173.33,-33.53 2177.17,-33.53 2181,-37.36 2181,-41.2 2181,-41.2 2181,-48.86 2181,-48.86 2181,-52.7 2177.17,-56.53 2173.33,-56.53"/>
<text text-anchor="middle" x="2006" y="-41.33" font-family="Arial" font-size="14.00" fill="#c6c5fe">component/chart/InformaticsChart/InforMaticsBox.tsx</text>
</g>
<!-- component/chart/InformaticsChart.tsx&#45;&gt;component/chart/InformaticsChart/InforMaticsBox.tsx -->
<g id="edge55" class="edge">
<title>component/chart/InformaticsChart.tsx&#45;&gt;component/chart/InformaticsChart/InforMaticsBox.tsx</title>
<path fill="none" stroke="#757575" d="M1671.79,-58.84C1717.39,-56.95 1769.96,-54.77 1819.66,-52.71"/>
<polygon fill="#757575" stroke="#757575" points="1819.53,-56.22 1829.37,-52.31 1819.24,-49.22 1819.53,-56.22"/>
</g>
<!-- component/chart/LineChart.tsx&#45;&gt;common/chart.ts -->
<g id="edge58" class="edge">
<title>component/chart/LineChart.tsx&#45;&gt;common/chart.ts</title>
<path fill="none" stroke="#757575" d="M1650.25,-125.03C1736.56,-125.03 1857.18,-125.03 1933.17,-125.03"/>
<polygon fill="#757575" stroke="#757575" points="1932.99,-128.53 1942.99,-125.03 1932.99,-121.53 1932.99,-128.53"/>
</g>
<!-- component/chart/LineChart.tsx&#45;&gt;types/chart.d.ts -->
<g id="edge60" class="edge">
<title>component/chart/LineChart.tsx&#45;&gt;types/chart.d.ts</title>
<path fill="none" stroke="#757575" d="M1650.44,-116.05C1702,-111.86 1765.24,-107.13 1822,-104.03 2005.39,-94.01 2222.02,-88.58 2329.32,-86.31"/>
<polygon fill="#757575" stroke="#757575" points="2329.16,-89.82 2339.09,-86.11 2329.02,-82.82 2329.16,-89.82"/>
</g>
<!-- component/chart/LineChart.tsx&#45;&gt;hook/useResize.tsx -->
<g id="edge59" class="edge">
<title>component/chart/LineChart.tsx&#45;&gt;hook/useResize.tsx</title>
<path fill="none" stroke="#757575" d="M1650.26,-133.41C1692.4,-136.89 1741.53,-141.04 1786,-145.03 1831.9,-149.15 1883.18,-154.05 1924.58,-158.08"/>
<polygon fill="#757575" stroke="#757575" points="1924.18,-161.56 1934.47,-159.04 1924.86,-154.59 1924.18,-161.56"/>
</g>
<!-- component/Widget/WidgetPropsSettingModal.tsx -->
<g id="node37" class="node">
<title>component/Widget/WidgetPropsSettingModal.tsx</title>
<path fill="none" stroke="#c6c5fe" d="M760.33,-176.53C760.33,-176.53 446.67,-176.53 446.67,-176.53 442.83,-176.53 439,-172.7 439,-168.86 439,-168.86 439,-161.2 439,-161.2 439,-157.36 442.83,-153.53 446.67,-153.53 446.67,-153.53 760.33,-153.53 760.33,-153.53 764.17,-153.53 768,-157.36 768,-161.2 768,-161.2 768,-168.86 768,-168.86 768,-172.7 764.17,-176.53 760.33,-176.53"/>
<text text-anchor="middle" x="603.5" y="-161.33" font-family="Arial" font-size="14.00" fill="#c6c5fe">component/Widget/WidgetPropsSettingModal.tsx</text>
</g>
<!-- component/Widget/WidgetPropsSettingModal.tsx&#45;&gt;common/api.ts -->
<g id="edge47" class="edge">
<title>component/Widget/WidgetPropsSettingModal.tsx&#45;&gt;common/api.ts</title>
<path fill="none" stroke="#757575" d="M636.11,-153.09C675.01,-138.94 743.38,-115.78 804,-104.03 859.31,-93.31 923.17,-88.33 969.8,-86.02"/>
<polygon fill="#757575" stroke="#757575" points="969.92,-89.52 979.75,-85.56 969.6,-82.53 969.92,-89.52"/>
</g>
<!-- component/Widget/WidgetPropsSettingModal.tsx&#45;&gt;store/WidgetProvider.tsx -->
<g id="edge50" class="edge">
<title>component/Widget/WidgetPropsSettingModal.tsx&#45;&gt;store/WidgetProvider.tsx</title>
<path fill="none" stroke="#757575" d="M768.26,-161.58C903.13,-160.7 1099.09,-163.88 1269,-184.03 1346.2,-193.18 1433.81,-213.35 1489.1,-227.31"/>
<polygon fill="#757575" stroke="#757575" points="1488.03,-230.65 1498.59,-229.73 1489.76,-223.87 1488.03,-230.65"/>
</g>
<!-- component/Widget/WidgetPropsSettingModal/WidgetPropsButtons.tsx -->
<g id="node38" class="node">
<title>component/Widget/WidgetPropsSettingModal/WidgetPropsButtons.tsx</title>
<path fill="none" stroke="#c6c5fe" d="M1261.33,-216.53C1261.33,-216.53 811.67,-216.53 811.67,-216.53 807.83,-216.53 804,-212.7 804,-208.86 804,-208.86 804,-201.2 804,-201.2 804,-197.36 807.83,-193.53 811.67,-193.53 811.67,-193.53 1261.33,-193.53 1261.33,-193.53 1265.17,-193.53 1269,-197.36 1269,-201.2 1269,-201.2 1269,-208.86 1269,-208.86 1269,-212.7 1265.17,-216.53 1261.33,-216.53"/>
<text text-anchor="middle" x="1036.5" y="-201.33" font-family="Arial" font-size="14.00" fill="#c6c5fe">component/Widget/WidgetPropsSettingModal/WidgetPropsButtons.tsx</text>
</g>
<!-- component/Widget/WidgetPropsSettingModal.tsx&#45;&gt;component/Widget/WidgetPropsSettingModal/WidgetPropsButtons.tsx -->
<g id="edge48" class="edge">
<title>component/Widget/WidgetPropsSettingModal.tsx&#45;&gt;component/Widget/WidgetPropsSettingModal/WidgetPropsButtons.tsx</title>
<path fill="none" stroke="#757575" d="M733.52,-177C784.47,-181.73 843.15,-187.18 895.15,-192"/>
<polygon fill="#757575" stroke="#757575" points="894.69,-195.48 904.98,-192.92 895.34,-188.51 894.69,-195.48"/>
</g>
<!-- component/Widget/WidgetPropsSettingModal/WidgetPropsList.tsx -->
<g id="node39" class="node">
<title>component/Widget/WidgetPropsSettingModal/WidgetPropsList.tsx</title>
<path fill="none" stroke="#cfffac" d="M1248.83,-54.53C1248.83,-54.53 824.17,-54.53 824.17,-54.53 820.33,-54.53 816.5,-50.7 816.5,-46.86 816.5,-46.86 816.5,-39.2 816.5,-39.2 816.5,-35.36 820.33,-31.53 824.17,-31.53 824.17,-31.53 1248.83,-31.53 1248.83,-31.53 1252.67,-31.53 1256.5,-35.36 1256.5,-39.2 1256.5,-39.2 1256.5,-46.86 1256.5,-46.86 1256.5,-50.7 1252.67,-54.53 1248.83,-54.53"/>
<text text-anchor="middle" x="1036.5" y="-39.33" font-family="Arial" font-size="14.00" fill="#cfffac">component/Widget/WidgetPropsSettingModal/WidgetPropsList.tsx</text>
</g>
<!-- component/Widget/WidgetPropsSettingModal.tsx&#45;&gt;component/Widget/WidgetPropsSettingModal/WidgetPropsList.tsx -->
<g id="edge49" class="edge">
<title>component/Widget/WidgetPropsSettingModal.tsx&#45;&gt;component/Widget/WidgetPropsSettingModal/WidgetPropsList.tsx</title>
<path fill="none" stroke="#757575" d="M621.95,-153.13C655.49,-130.95 732.02,-83.68 804,-63.03 811.23,-60.96 818.63,-59.08 826.15,-57.38"/>
<polygon fill="#757575" stroke="#757575" points="826.7,-60.84 835.75,-55.33 825.24,-53.99 826.7,-60.84"/>
</g>
<!-- component/Widget/WidgetPropsSettingModal/WidgetPropsButtons.tsx&#45;&gt;store/WidgetProvider.tsx -->
<g id="edge51" class="edge">
<title>component/Widget/WidgetPropsSettingModal/WidgetPropsButtons.tsx&#45;&gt;store/WidgetProvider.tsx</title>
<path fill="none" stroke="#757575" d="M1201.76,-217.02C1282.85,-222.93 1377.92,-229.87 1447.33,-234.94"/>
<polygon fill="#757575" stroke="#757575" points="1446.94,-238.42 1457.17,-235.66 1447.45,-231.44 1446.94,-238.42"/>
</g>
<!-- component/chart/InformaticsChart/InforMaticsBox.tsx&#45;&gt;types/chart.d.ts -->
<g id="edge57" class="edge">
<title>component/chart/InformaticsChart/InforMaticsBox.tsx&#45;&gt;types/chart.d.ts</title>
<path fill="none" stroke="#757575" d="M2123.6,-57C2190.8,-63.9 2272.89,-72.33 2329.38,-78.14"/>
<polygon fill="#757575" stroke="#757575" points="2328.86,-81.6 2339.17,-79.14 2329.58,-74.64 2328.86,-81.6"/>
</g>
<!-- component/common/DatePicker/DatePickerTitle.tsx&#45;&gt;types/widget.d.ts -->
<g id="edge64" class="edge">
<title>component/common/DatePicker/DatePickerTitle.tsx&#45;&gt;types/widget.d.ts</title>
<path fill="none" stroke="#757575" d="M2528.87,-711.06C2605.07,-704.06 2698.38,-695.49 2761.61,-689.68"/>
<polygon fill="#757575" stroke="#757575" points="2761.9,-693.17 2771.54,-688.77 2761.26,-686.2 2761.9,-693.17"/>
</g>
<!-- component/common/DatePicker/ListPicker.tsx&#45;&gt;types/datePicker.d.ts -->
<g id="edge66" class="edge">
<title>component/common/DatePicker/ListPicker.tsx&#45;&gt;types/datePicker.d.ts</title>
<path fill="none" stroke="#757575" d="M2485.58,-829.03C2562.24,-818.47 2673.17,-803.19 2749.15,-792.72"/>
<polygon fill="#757575" stroke="#757575" points="2749.17,-796.25 2758.6,-791.42 2748.22,-789.31 2749.17,-796.25"/>
</g>
<!-- component/common/DatePicker/ListPickerItem.tsx -->
<g id="node45" class="node">
<title>component/common/DatePicker/ListPickerItem.tsx</title>
<path fill="none" stroke="#c6c5fe" d="M2995.83,-852.53C2995.83,-852.53 2674.17,-852.53 2674.17,-852.53 2670.33,-852.53 2666.5,-848.7 2666.5,-844.86 2666.5,-844.86 2666.5,-837.2 2666.5,-837.2 2666.5,-833.36 2670.33,-829.53 2674.17,-829.53 2674.17,-829.53 2995.83,-829.53 2995.83,-829.53 2999.67,-829.53 3003.5,-833.36 3003.5,-837.2 3003.5,-837.2 3003.5,-844.86 3003.5,-844.86 3003.5,-848.7 2999.67,-852.53 2995.83,-852.53"/>
<text text-anchor="middle" x="2835" y="-837.33" font-family="Arial" font-size="14.00" fill="#c6c5fe">component/common/DatePicker/ListPickerItem.tsx</text>
</g>
<!-- component/common/DatePicker/ListPicker.tsx&#45;&gt;component/common/DatePicker/ListPickerItem.tsx -->
<g id="edge65" class="edge">
<title>component/common/DatePicker/ListPicker.tsx&#45;&gt;component/common/DatePicker/ListPickerItem.tsx</title>
<path fill="none" stroke="#757575" d="M2551.73,-841.03C2585.12,-841.03 2620.72,-841.03 2655,-841.03"/>
<polygon fill="#757575" stroke="#757575" points="2654.57,-844.53 2664.57,-841.03 2654.57,-837.53 2654.57,-844.53"/>
</g>
<!-- component/common/DatePicker/ListPickerItem.tsx&#45;&gt;component/Dashboard/CommonStyle.ts -->
<g id="edge67" class="edge">
<title>component/common/DatePicker/ListPickerItem.tsx&#45;&gt;component/Dashboard/CommonStyle.ts</title>
<path fill="none" stroke="#757575" d="M2958.67,-853.03C2993.14,-856.92 3030.61,-861.65 3065,-867.03 3099.98,-872.5 3138.71,-880.13 3170.35,-886.77"/>
<polygon fill="#757575" stroke="#757575" points="3169.24,-890.11 3179.75,-888.75 3170.69,-883.26 3169.24,-890.11"/>
</g>
<!-- page/Dashboard.tsx&#45;&gt;component/Dashboard/DashboardHeader.tsx -->
<g id="edge68" class="edge">
<title>page/Dashboard.tsx&#45;&gt;component/Dashboard/DashboardHeader.tsx</title>
<path fill="none" stroke="#757575" d="M335.28,-414.92C345.32,-449.4 378.68,-550.74 439,-611.03 471.22,-643.23 518.34,-665.64 553.72,-679.16"/>
<polygon fill="#757575" stroke="#757575" points="552.29,-682.36 562.88,-682.55 554.72,-675.79 552.29,-682.36"/>
</g>
<!-- page/Dashboard.tsx&#45;&gt;store/DashboardProvider.tsx -->
<g id="edge71" class="edge">
<title>page/Dashboard.tsx&#45;&gt;store/DashboardProvider.tsx</title>
<path fill="none" stroke="#757575" d="M358.14,-414.99C428.42,-446.46 627.99,-531.4 804,-564.03 1018.61,-603.82 1568.04,-594.44 1786,-583.03 1797.51,-582.43 1846.78,-577.29 1895.68,-572.02"/>
<polygon fill="#757575" stroke="#757575" points="1896.01,-575.5 1905.58,-570.95 1895.26,-568.54 1896.01,-575.5"/>
</g>
<!-- page/Dashboard.tsx&#45;&gt;store/WidgetProvider.tsx -->
<g id="edge72" class="edge">
<title>page/Dashboard.tsx&#45;&gt;store/WidgetProvider.tsx</title>
<path fill="none" stroke="#757575" d="M362.3,-391.13C436.3,-362.73 632.75,-291.32 804,-264.03 1032.31,-227.64 1305.1,-231.51 1447.33,-237.04"/>
<polygon fill="#757575" stroke="#757575" points="1446.95,-240.53 1457.08,-237.43 1447.23,-233.53 1446.95,-240.53"/>
</g>
<!-- page/Dashboard.tsx&#45;&gt;component/Widget.tsx -->
<g id="edge69" class="edge">
<title>page/Dashboard.tsx&#45;&gt;component/Widget.tsx</title>
<path fill="none" stroke="#757575" d="M403.42,-403.03C436.76,-403.03 476.8,-403.03 512.21,-403.03"/>
<polygon fill="#757575" stroke="#757575" points="512.01,-406.53 522.01,-403.03 512.01,-399.53 512.01,-406.53"/>
</g>
<!-- page/Dashboard.tsx&#45;&gt;component/Widget/WidgetPropsSettingModal.tsx -->
<g id="edge70" class="edge">
<title>page/Dashboard.tsx&#45;&gt;component/Widget/WidgetPropsSettingModal.tsx</title>
<path fill="none" stroke="#757575" d="M336.3,-391.24C348.05,-360.61 383.54,-277.64 439,-231.03 467.95,-206.7 507.03,-190.48 539.73,-180.21"/>
<polygon fill="#757575" stroke="#757575" points="540.53,-183.62 549.1,-177.39 538.51,-176.92 540.53,-183.62"/>
</g>
</g>
</svg>
