<?xml version="1.0" encoding="UTF-8" standalone="no"?>
<!DOCTYPE svg PUBLIC "-//W3C//DTD SVG 1.1//EN"
 "http://www.w3.org/Graphics/SVG/1.1/DTD/svg11.dtd">
<!-- Generated by graphviz version 7.1.0 (20230121.1956)
 -->
<!-- Title: G Pages: 1 -->
<svg width="3509pt" height="1237pt"
 viewBox="0.00 0.00 3509.20 1236.65" xmlns="http://www.w3.org/2000/svg" xmlns:xlink="http://www.w3.org/1999/xlink">
<g id="graph0" class="graph" transform="scale(1 1) rotate(0) translate(21.6 1215.05)">
<title>G</title>
<polygon fill="#111111" stroke="none" points="-21.6,21.6 -21.6,-1215.05 3487.6,-1215.05 3487.6,21.6 -21.6,21.6"/>
<!-- App.tsx -->
<g id="node1" class="node">
<title>App.tsx</title>
<path fill="none" stroke="#c6c5fe" d="M57.33,-575.45C57.33,-575.45 7.67,-575.45 7.67,-575.45 3.83,-575.45 0,-571.61 0,-567.78 0,-567.78 0,-560.11 0,-560.11 0,-556.28 3.83,-552.45 7.67,-552.45 7.67,-552.45 57.33,-552.45 57.33,-552.45 61.17,-552.45 65,-556.28 65,-560.11 65,-560.11 65,-567.78 65,-567.78 65,-571.61 61.17,-575.45 57.33,-575.45"/>
<text text-anchor="middle" x="32.5" y="-560.25" font-family="Arial" font-size="14.00" fill="#c6c5fe">App.tsx</text>
</g>
<!-- router/Router.tsx -->
<g id="node2" class="node">
<title>router/Router.tsx</title>
<path fill="none" stroke="#c6c5fe" d="M215.33,-575.45C215.33,-575.45 108.67,-575.45 108.67,-575.45 104.83,-575.45 101,-571.61 101,-567.78 101,-567.78 101,-560.11 101,-560.11 101,-556.28 104.83,-552.45 108.67,-552.45 108.67,-552.45 215.33,-552.45 215.33,-552.45 219.17,-552.45 223,-556.28 223,-560.11 223,-560.11 223,-567.78 223,-567.78 223,-571.61 219.17,-575.45 215.33,-575.45"/>
<text text-anchor="middle" x="162" y="-560.25" font-family="Arial" font-size="14.00" fill="#c6c5fe">router/Router.tsx</text>
</g>
<!-- App.tsx&#45;&gt;router/Router.tsx -->
<g id="edge1" class="edge">
<title>App.tsx&#45;&gt;router/Router.tsx</title>
<path fill="none" stroke="#757575" d="M65.34,-563.95C72.7,-563.95 80.81,-563.95 89.12,-563.95"/>
<polygon fill="#757575" stroke="#757575" points="88.99,-567.45 98.99,-563.95 88.99,-560.45 88.99,-567.45"/>
</g>
<!-- page/Dashboard.tsx -->
<g id="node49" class="node">
<title>page/Dashboard.tsx</title>
<path fill="none" stroke="#c6c5fe" d="M395.33,-575.45C395.33,-575.45 266.67,-575.45 266.67,-575.45 262.83,-575.45 259,-571.61 259,-567.78 259,-567.78 259,-560.11 259,-560.11 259,-556.28 262.83,-552.45 266.67,-552.45 266.67,-552.45 395.33,-552.45 395.33,-552.45 399.17,-552.45 403,-556.28 403,-560.11 403,-560.11 403,-567.78 403,-567.78 403,-571.61 399.17,-575.45 395.33,-575.45"/>
<text text-anchor="middle" x="331" y="-560.25" font-family="Arial" font-size="14.00" fill="#c6c5fe">page/Dashboard.tsx</text>
</g>
<!-- router/Router.tsx&#45;&gt;page/Dashboard.tsx -->
<g id="edge79" class="edge">
<title>router/Router.tsx&#45;&gt;page/Dashboard.tsx</title>
<path fill="none" stroke="#757575" d="M223.29,-563.95C231.1,-563.95 239.21,-563.95 247.3,-563.95"/>
<polygon fill="#757575" stroke="#757575" points="247.19,-567.45 257.19,-563.95 247.19,-560.45 247.19,-567.45"/>
</g>
<!-- asset/image/pause.png -->
<g id="node3" class="node">
<title>asset/image/pause.png</title>
<path fill="none" stroke="#cfffac" d="M1619.83,-833.45C1619.83,-833.45 1471.17,-833.45 1471.17,-833.45 1467.33,-833.45 1463.5,-829.61 1463.5,-825.78 1463.5,-825.78 1463.5,-818.11 1463.5,-818.11 1463.5,-814.28 1467.33,-810.45 1471.17,-810.45 1471.17,-810.45 1619.83,-810.45 1619.83,-810.45 1623.67,-810.45 1627.5,-814.28 1627.5,-818.11 1627.5,-818.11 1627.5,-825.78 1627.5,-825.78 1627.5,-829.61 1623.67,-833.45 1619.83,-833.45"/>
<text text-anchor="middle" x="1545.5" y="-818.25" font-family="Arial" font-size="14.00" fill="#cfffac">asset/image/pause.png</text>
</g>
<!-- asset/image/play.png -->
<g id="node4" class="node">
<title>asset/image/play.png</title>
<path fill="none" stroke="#cfffac" d="M1613.33,-874.45C1613.33,-874.45 1477.67,-874.45 1477.67,-874.45 1473.83,-874.45 1470,-870.61 1470,-866.78 1470,-866.78 1470,-859.11 1470,-859.11 1470,-855.28 1473.83,-851.45 1477.67,-851.45 1477.67,-851.45 1613.33,-851.45 1613.33,-851.45 1617.17,-851.45 1621,-855.28 1621,-859.11 1621,-859.11 1621,-866.78 1621,-866.78 1621,-870.61 1617.17,-874.45 1613.33,-874.45"/>
<text text-anchor="middle" x="1545.5" y="-859.25" font-family="Arial" font-size="14.00" fill="#cfffac">asset/image/play.png</text>
</g>
<!-- common/api.ts -->
<g id="node5" class="node">
<title>common/api.ts</title>
<path fill="none" stroke="#c6c5fe" d="M2100.83,-666.45C2100.83,-666.45 2006.17,-666.45 2006.17,-666.45 2002.33,-666.45 1998.5,-662.61 1998.5,-658.78 1998.5,-658.78 1998.5,-651.11 1998.5,-651.11 1998.5,-647.28 2002.33,-643.45 2006.17,-643.45 2006.17,-643.45 2100.83,-643.45 2100.83,-643.45 2104.67,-643.45 2108.5,-647.28 2108.5,-651.11 2108.5,-651.11 2108.5,-658.78 2108.5,-658.78 2108.5,-662.61 2104.67,-666.45 2100.83,-666.45"/>
<text text-anchor="middle" x="2053.5" y="-651.25" font-family="Arial" font-size="14.00" fill="#c6c5fe">common/api.ts</text>
</g>
<!-- types/api.d.ts -->
<g id="node6" class="node">
<title>types/api.d.ts</title>
<path fill="none" stroke="#cfffac" d="M2535.33,-666.45C2535.33,-666.45 2449.67,-666.45 2449.67,-666.45 2445.83,-666.45 2442,-662.61 2442,-658.78 2442,-658.78 2442,-651.11 2442,-651.11 2442,-647.28 2445.83,-643.45 2449.67,-643.45 2449.67,-643.45 2535.33,-643.45 2535.33,-643.45 2539.17,-643.45 2543,-647.28 2543,-651.11 2543,-651.11 2543,-658.78 2543,-658.78 2543,-662.61 2539.17,-666.45 2535.33,-666.45"/>
<text text-anchor="middle" x="2492.5" y="-651.25" font-family="Arial" font-size="14.00" fill="#cfffac">types/api.d.ts</text>
</g>
<!-- common/api.ts&#45;&gt;types/api.d.ts -->
<g id="edge2" class="edge">
<title>common/api.ts&#45;&gt;types/api.d.ts</title>
<path fill="none" stroke="#757575" d="M2108.96,-654.95C2190.77,-654.95 2344.89,-654.95 2430.41,-654.95"/>
<polygon fill="#757575" stroke="#757575" points="2430.25,-658.45 2440.25,-654.95 2430.25,-651.45 2430.25,-658.45"/>
</g>
<!-- common/chart.ts -->
<g id="node7" class="node">
<title>common/chart.ts</title>
<path fill="none" stroke="#c6c5fe" d="M2106.83,-154.45C2106.83,-154.45 2000.17,-154.45 2000.17,-154.45 1996.33,-154.45 1992.5,-150.61 1992.5,-146.78 1992.5,-146.78 1992.5,-139.11 1992.5,-139.11 1992.5,-135.28 1996.33,-131.45 2000.17,-131.45 2000.17,-131.45 2106.83,-131.45 2106.83,-131.45 2110.67,-131.45 2114.5,-135.28 2114.5,-139.11 2114.5,-139.11 2114.5,-146.78 2114.5,-146.78 2114.5,-150.61 2110.67,-154.45 2106.83,-154.45"/>
<text text-anchor="middle" x="2053.5" y="-139.25" font-family="Arial" font-size="14.00" fill="#c6c5fe">common/chart.ts</text>
</g>
<!-- types/chart.d.ts -->
<g id="node8" class="node">
<title>types/chart.d.ts</title>
<path fill="none" stroke="#cfffac" d="M2541.33,-232.45C2541.33,-232.45 2443.67,-232.45 2443.67,-232.45 2439.83,-232.45 2436,-228.61 2436,-224.78 2436,-224.78 2436,-217.11 2436,-217.11 2436,-213.28 2439.83,-209.45 2443.67,-209.45 2443.67,-209.45 2541.33,-209.45 2541.33,-209.45 2545.17,-209.45 2549,-213.28 2549,-217.11 2549,-217.11 2549,-224.78 2549,-224.78 2549,-228.61 2545.17,-232.45 2541.33,-232.45"/>
<text text-anchor="middle" x="2492.5" y="-217.25" font-family="Arial" font-size="14.00" fill="#cfffac">types/chart.d.ts</text>
</g>
<!-- common/chart.ts&#45;&gt;types/chart.d.ts -->
<g id="edge3" class="edge">
<title>common/chart.ts&#45;&gt;types/chart.d.ts</title>
<path fill="none" stroke="#757575" d="M2114.52,-147.49C2161.23,-151.56 2227.55,-158.52 2285,-168.95 2338.31,-178.62 2398.27,-194.26 2439.78,-205.87"/>
<polygon fill="#757575" stroke="#757575" points="2438.68,-209.19 2449.26,-208.54 2440.58,-202.46 2438.68,-209.19"/>
</g>
<!-- common/date.ts -->
<g id="node9" class="node">
<title>common/date.ts</title>
<path fill="none" stroke="#cfffac" d="M2544.33,-755.45C2544.33,-755.45 2440.67,-755.45 2440.67,-755.45 2436.83,-755.45 2433,-751.61 2433,-747.78 2433,-747.78 2433,-740.11 2433,-740.11 2433,-736.28 2436.83,-732.45 2440.67,-732.45 2440.67,-732.45 2544.33,-732.45 2544.33,-732.45 2548.17,-732.45 2552,-736.28 2552,-740.11 2552,-740.11 2552,-747.78 2552,-747.78 2552,-751.61 2548.17,-755.45 2544.33,-755.45"/>
<text text-anchor="middle" x="2492.5" y="-740.25" font-family="Arial" font-size="14.00" fill="#cfffac">common/date.ts</text>
</g>
<!-- common/widget.ts -->
<g id="node10" class="node">
<title>common/widget.ts</title>
<path fill="none" stroke="#cfffac" d="M2111.83,-472.45C2111.83,-472.45 1995.17,-472.45 1995.17,-472.45 1991.33,-472.45 1987.5,-468.61 1987.5,-464.78 1987.5,-464.78 1987.5,-457.11 1987.5,-457.11 1987.5,-453.28 1991.33,-449.45 1995.17,-449.45 1995.17,-449.45 2111.83,-449.45 2111.83,-449.45 2115.67,-449.45 2119.5,-453.28 2119.5,-457.11 2119.5,-457.11 2119.5,-464.78 2119.5,-464.78 2119.5,-468.61 2115.67,-472.45 2111.83,-472.45"/>
<text text-anchor="middle" x="2053.5" y="-457.25" font-family="Arial" font-size="14.00" fill="#cfffac">common/widget.ts</text>
</g>
<!-- component/Dashboard/CommonStyle.ts -->
<g id="node11" class="node">
<title>component/Dashboard/CommonStyle.ts</title>
<path fill="none" stroke="#cfffac" d="M3458.33,-972.45C3458.33,-972.45 3203.67,-972.45 3203.67,-972.45 3199.83,-972.45 3196,-968.61 3196,-964.78 3196,-964.78 3196,-957.11 3196,-957.11 3196,-953.28 3199.83,-949.45 3203.67,-949.45 3203.67,-949.45 3458.33,-949.45 3458.33,-949.45 3462.17,-949.45 3466,-953.28 3466,-957.11 3466,-957.11 3466,-964.78 3466,-964.78 3466,-968.61 3462.17,-972.45 3458.33,-972.45"/>
<text text-anchor="middle" x="3331" y="-957.25" font-family="Arial" font-size="14.00" fill="#cfffac">component/Dashboard/CommonStyle.ts</text>
</g>
<!-- component/Dashboard/DashboardHeader.tsx -->
<g id="node12" class="node">
<title>component/Dashboard/DashboardHeader.tsx</title>
<path fill="none" stroke="#c6c5fe" d="M747.33,-830.45C747.33,-830.45 459.67,-830.45 459.67,-830.45 455.83,-830.45 452,-826.61 452,-822.78 452,-822.78 452,-815.11 452,-815.11 452,-811.28 455.83,-807.45 459.67,-807.45 459.67,-807.45 747.33,-807.45 747.33,-807.45 751.17,-807.45 755,-811.28 755,-815.11 755,-815.11 755,-822.78 755,-822.78 755,-826.61 751.17,-830.45 747.33,-830.45"/>
<text text-anchor="middle" x="603.5" y="-815.25" font-family="Arial" font-size="14.00" fill="#c6c5fe">component/Dashboard/DashboardHeader.tsx</text>
</g>
<!-- component/Dashboard/DashboardHeader/PlayIcon.tsx -->
<g id="node13" class="node">
<title>component/Dashboard/DashboardHeader/PlayIcon.tsx</title>
<path fill="none" stroke="#c6c5fe" d="M1209.83,-870.45C1209.83,-870.45 863.17,-870.45 863.17,-870.45 859.33,-870.45 855.5,-866.61 855.5,-862.78 855.5,-862.78 855.5,-855.11 855.5,-855.11 855.5,-851.28 859.33,-847.45 863.17,-847.45 863.17,-847.45 1209.83,-847.45 1209.83,-847.45 1213.67,-847.45 1217.5,-851.28 1217.5,-855.11 1217.5,-855.11 1217.5,-862.78 1217.5,-862.78 1217.5,-866.61 1213.67,-870.45 1209.83,-870.45"/>
<text text-anchor="middle" x="1036.5" y="-855.25" font-family="Arial" font-size="14.00" fill="#c6c5fe">component/Dashboard/DashboardHeader/PlayIcon.tsx</text>
</g>
<!-- component/Dashboard/DashboardHeader.tsx&#45;&gt;component/Dashboard/DashboardHeader/PlayIcon.tsx -->
<g id="edge4" class="edge">
<title>component/Dashboard/DashboardHeader.tsx&#45;&gt;component/Dashboard/DashboardHeader/PlayIcon.tsx</title>
<path fill="none" stroke="#757575" d="M733.52,-830.92C784.47,-835.65 843.15,-841.09 895.15,-845.92"/>
<polygon fill="#757575" stroke="#757575" points="894.69,-849.39 904.98,-846.83 895.34,-842.42 894.69,-849.39"/>
</g>
<!-- component/Dashboard/DashboardHeader/SelectRealTimeRangeArea.tsx -->
<g id="node14" class="node">
<title>component/Dashboard/DashboardHeader/SelectRealTimeRangeArea.tsx</title>
<path fill="none" stroke="#c6c5fe" d="M1778.33,-915.45C1778.33,-915.45 1312.67,-915.45 1312.67,-915.45 1308.83,-915.45 1305,-911.61 1305,-907.78 1305,-907.78 1305,-900.11 1305,-900.11 1305,-896.28 1308.83,-892.45 1312.67,-892.45 1312.67,-892.45 1778.33,-892.45 1778.33,-892.45 1782.17,-892.45 1786,-896.28 1786,-900.11 1786,-900.11 1786,-907.78 1786,-907.78 1786,-911.61 1782.17,-915.45 1778.33,-915.45"/>
<text text-anchor="middle" x="1545.5" y="-900.25" font-family="Arial" font-size="14.00" fill="#c6c5fe">component/Dashboard/DashboardHeader/SelectRealTimeRangeArea.tsx</text>
</g>
<!-- component/Dashboard/DashboardHeader.tsx&#45;&gt;component/Dashboard/DashboardHeader/SelectRealTimeRangeArea.tsx -->
<g id="edge5" class="edge">
<title>component/Dashboard/DashboardHeader.tsx&#45;&gt;component/Dashboard/DashboardHeader/SelectRealTimeRangeArea.tsx</title>
<path fill="none" stroke="#757575" d="M634.66,-830.91C673.21,-845.57 742.37,-869.71 804,-879.95 965.54,-906.77 1149.54,-912.85 1293.72,-912.19"/>
<polygon fill="#757575" stroke="#757575" points="1293.41,-915.69 1303.39,-912.13 1293.37,-908.69 1293.41,-915.69"/>
</g>
<!-- component/Dashboard/DashboardHeader/TimeBlock.tsx -->
<g id="node15" class="node">
<title>component/Dashboard/DashboardHeader/TimeBlock.tsx</title>
<path fill="none" stroke="#c6c5fe" d="M1215.83,-1014.45C1215.83,-1014.45 857.17,-1014.45 857.17,-1014.45 853.33,-1014.45 849.5,-1010.61 849.5,-1006.78 849.5,-1006.78 849.5,-999.11 849.5,-999.11 849.5,-995.28 853.33,-991.45 857.17,-991.45 857.17,-991.45 1215.83,-991.45 1215.83,-991.45 1219.67,-991.45 1223.5,-995.28 1223.5,-999.11 1223.5,-999.11 1223.5,-1006.78 1223.5,-1006.78 1223.5,-1010.61 1219.67,-1014.45 1215.83,-1014.45"/>
<text text-anchor="middle" x="1036.5" y="-999.25" font-family="Arial" font-size="14.00" fill="#c6c5fe">component/Dashboard/DashboardHeader/TimeBlock.tsx</text>
</g>
<!-- component/Dashboard/DashboardHeader.tsx&#45;&gt;component/Dashboard/DashboardHeader/TimeBlock.tsx -->
<g id="edge6" class="edge">
<title>component/Dashboard/DashboardHeader.tsx&#45;&gt;component/Dashboard/DashboardHeader/TimeBlock.tsx</title>
<path fill="none" stroke="#757575" d="M627.55,-830.83C664.39,-849.65 739.02,-887.02 804,-914.95 868,-942.45 943.71,-970.39 990.68,-987.19"/>
<polygon fill="#757575" stroke="#757575" points="989.38,-990.45 999.97,-990.51 991.73,-983.85 989.38,-990.45"/>
</g>
<!-- store/DashboardProvider.tsx -->
<g id="node16" class="node">
<title>store/DashboardProvider.tsx</title>
<path fill="none" stroke="#c6c5fe" d="M2144.33,-755.45C2144.33,-755.45 1962.67,-755.45 1962.67,-755.45 1958.83,-755.45 1955,-751.61 1955,-747.78 1955,-747.78 1955,-740.11 1955,-740.11 1955,-736.28 1958.83,-732.45 1962.67,-732.45 1962.67,-732.45 2144.33,-732.45 2144.33,-732.45 2148.17,-732.45 2152,-736.28 2152,-740.11 2152,-740.11 2152,-747.78 2152,-747.78 2152,-751.61 2148.17,-755.45 2144.33,-755.45"/>
<text text-anchor="middle" x="2053.5" y="-740.25" font-family="Arial" font-size="14.00" fill="#c6c5fe">store/DashboardProvider.tsx</text>
</g>
<!-- component/Dashboard/DashboardHeader.tsx&#45;&gt;store/DashboardProvider.tsx -->
<g id="edge7" class="edge">
<title>component/Dashboard/DashboardHeader.tsx&#45;&gt;store/DashboardProvider.tsx</title>
<path fill="none" stroke="#757575" d="M755.31,-814.74C890.03,-810.69 1092.75,-803.86 1269,-794.95 1509.89,-782.76 1792.1,-763.05 1943.42,-752.05"/>
<polygon fill="#757575" stroke="#757575" points="1943.3,-755.56 1953.02,-751.35 1942.79,-748.58 1943.3,-755.56"/>
</g>
<!-- store/WidgetPropsSettingModalProvider.tsx -->
<g id="node17" class="node">
<title>store/WidgetPropsSettingModalProvider.tsx</title>
<path fill="none" stroke="#c6c5fe" d="M1684.83,-715.45C1684.83,-715.45 1406.17,-715.45 1406.17,-715.45 1402.33,-715.45 1398.5,-711.61 1398.5,-707.78 1398.5,-707.78 1398.5,-700.11 1398.5,-700.11 1398.5,-696.28 1402.33,-692.45 1406.17,-692.45 1406.17,-692.45 1684.83,-692.45 1684.83,-692.45 1688.67,-692.45 1692.5,-696.28 1692.5,-700.11 1692.5,-700.11 1692.5,-707.78 1692.5,-707.78 1692.5,-711.61 1688.67,-715.45 1684.83,-715.45"/>
<text text-anchor="middle" x="1545.5" y="-700.25" font-family="Arial" font-size="14.00" fill="#c6c5fe">store/WidgetPropsSettingModalProvider.tsx</text>
</g>
<!-- component/Dashboard/DashboardHeader.tsx&#45;&gt;store/WidgetPropsSettingModalProvider.tsx -->
<g id="edge8" class="edge">
<title>component/Dashboard/DashboardHeader.tsx&#45;&gt;store/WidgetPropsSettingModalProvider.tsx</title>
<path fill="none" stroke="#757575" d="M642.32,-807.03C682.14,-794.97 746.85,-776.75 804,-766.95 1003.43,-732.73 1236.41,-716.79 1387,-709.58"/>
<polygon fill="#757575" stroke="#757575" points="1386.81,-713.09 1396.63,-709.13 1386.48,-706.1 1386.81,-713.09"/>
</g>
<!-- types/widget.d.ts -->
<g id="node18" class="node">
<title>types/widget.d.ts</title>
<path fill="none" stroke="#cfffac" d="M2983.83,-652.45C2983.83,-652.45 2876.17,-652.45 2876.17,-652.45 2872.33,-652.45 2868.5,-648.61 2868.5,-644.78 2868.5,-644.78 2868.5,-637.11 2868.5,-637.11 2868.5,-633.28 2872.33,-629.45 2876.17,-629.45 2876.17,-629.45 2983.83,-629.45 2983.83,-629.45 2987.67,-629.45 2991.5,-633.28 2991.5,-637.11 2991.5,-637.11 2991.5,-644.78 2991.5,-644.78 2991.5,-648.61 2987.67,-652.45 2983.83,-652.45"/>
<text text-anchor="middle" x="2930" y="-637.25" font-family="Arial" font-size="14.00" fill="#cfffac">types/widget.d.ts</text>
</g>
<!-- component/Dashboard/DashboardHeader.tsx&#45;&gt;types/widget.d.ts -->
<g id="edge9" class="edge">
<title>component/Dashboard/DashboardHeader.tsx&#45;&gt;types/widget.d.ts</title>
<path fill="none" stroke="#757575" d="M696.27,-806.97C730.1,-802.8 768.75,-798.33 804,-794.95 1026.22,-773.61 1082.3,-774.49 1305,-758.95 1534.75,-742.92 1592.14,-738.28 1822,-723.95 2196.1,-700.62 2290.83,-711.18 2664,-675.95 2729.43,-669.77 2803.56,-659.72 2856.74,-651.97"/>
<polygon fill="#757575" stroke="#757575" points="2857.22,-655.43 2866.6,-650.52 2856.2,-648.51 2857.22,-655.43"/>
</g>
<!-- component/Dashboard/DashboardHeader/PlayIcon.tsx&#45;&gt;asset/image/pause.png -->
<g id="edge19" class="edge">
<title>component/Dashboard/DashboardHeader/PlayIcon.tsx&#45;&gt;asset/image/pause.png</title>
<path fill="none" stroke="#757575" d="M1201.76,-846.96C1284.64,-840.91 1382.1,-833.8 1451.87,-828.71"/>
<polygon fill="#757575" stroke="#757575" points="1452.02,-832.2 1461.74,-827.99 1451.52,-825.22 1452.02,-832.2"/>
</g>
<!-- component/Dashboard/DashboardHeader/PlayIcon.tsx&#45;&gt;asset/image/play.png -->
<g id="edge20" class="edge">
<title>component/Dashboard/DashboardHeader/PlayIcon.tsx&#45;&gt;asset/image/play.png</title>
<path fill="none" stroke="#757575" d="M1217.68,-860.37C1299.6,-861.01 1392.71,-861.75 1458.53,-862.27"/>
<polygon fill="#757575" stroke="#757575" points="1458.13,-865.76 1468.16,-862.34 1458.19,-858.76 1458.13,-865.76"/>
</g>
<!-- component/Dashboard/DashboardHeader/SelectRealTimeRangeArea.tsx&#45;&gt;component/Dashboard/CommonStyle.ts -->
<g id="edge22" class="edge">
<title>component/Dashboard/DashboardHeader/SelectRealTimeRangeArea.tsx&#45;&gt;component/Dashboard/CommonStyle.ts</title>
<path fill="none" stroke="#757575" d="M1786.4,-909.94C1930.87,-913.67 2118.51,-918.74 2285,-923.95 2605.99,-933.98 2982.37,-947.81 3184.3,-955.4"/>
<polygon fill="#757575" stroke="#757575" points="3183.93,-958.89 3194.06,-955.77 3184.19,-951.9 3183.93,-958.89"/>
</g>
<!-- component/Dashboard/DashboardHeader/SelectRealTimeRangeArea.tsx&#45;&gt;store/DashboardProvider.tsx -->
<g id="edge27" class="edge">
<title>component/Dashboard/DashboardHeader/SelectRealTimeRangeArea.tsx&#45;&gt;store/DashboardProvider.tsx</title>
<path fill="none" stroke="#757575" d="M1604.42,-915.91C1657.53,-923.35 1735.39,-924.88 1786,-883.95 1828.96,-849.19 1779.17,-799.86 1822,-764.95 1864.84,-730.03 1928.18,-726.57 1977.62,-730.84"/>
<polygon fill="#757575" stroke="#757575" points="1977.11,-734.31 1987.4,-731.82 1977.8,-727.34 1977.11,-734.31"/>
</g>
<!-- hook/useBoolean.tsx -->
<g id="node24" class="node">
<title>hook/useBoolean.tsx</title>
<path fill="none" stroke="#cfffac" d="M2120.33,-796.45C2120.33,-796.45 1986.67,-796.45 1986.67,-796.45 1982.83,-796.45 1979,-792.61 1979,-788.78 1979,-788.78 1979,-781.11 1979,-781.11 1979,-777.28 1982.83,-773.45 1986.67,-773.45 1986.67,-773.45 2120.33,-773.45 2120.33,-773.45 2124.17,-773.45 2128,-777.28 2128,-781.11 2128,-781.11 2128,-788.78 2128,-788.78 2128,-792.61 2124.17,-796.45 2120.33,-796.45"/>
<text text-anchor="middle" x="2053.5" y="-781.25" font-family="Arial" font-size="14.00" fill="#cfffac">hook/useBoolean.tsx</text>
</g>
<!-- component/Dashboard/DashboardHeader/SelectRealTimeRangeArea.tsx&#45;&gt;hook/useBoolean.tsx -->
<g id="edge25" class="edge">
<title>component/Dashboard/DashboardHeader/SelectRealTimeRangeArea.tsx&#45;&gt;hook/useBoolean.tsx</title>
<path fill="none" stroke="#757575" d="M1619.44,-915.94C1670.53,-920.31 1737.98,-917.57 1786,-883.95 1817.28,-862.05 1790.81,-827.96 1822,-805.95 1863.55,-776.62 1920.36,-771.16 1967.18,-773.13"/>
<polygon fill="#757575" stroke="#757575" points="1966.85,-776.62 1977.03,-773.68 1967.24,-769.63 1966.85,-776.62"/>
</g>
<!-- hook/useOutsideClick.tsx -->
<g id="node25" class="node">
<title>hook/useOutsideClick.tsx</title>
<path fill="none" stroke="#cfffac" d="M2133.83,-955.45C2133.83,-955.45 1973.17,-955.45 1973.17,-955.45 1969.33,-955.45 1965.5,-951.61 1965.5,-947.78 1965.5,-947.78 1965.5,-940.11 1965.5,-940.11 1965.5,-936.28 1969.33,-932.45 1973.17,-932.45 1973.17,-932.45 2133.83,-932.45 2133.83,-932.45 2137.67,-932.45 2141.5,-936.28 2141.5,-940.11 2141.5,-940.11 2141.5,-947.78 2141.5,-947.78 2141.5,-951.61 2137.67,-955.45 2133.83,-955.45"/>
<text text-anchor="middle" x="2053.5" y="-940.25" font-family="Arial" font-size="14.00" fill="#cfffac">hook/useOutsideClick.tsx</text>
</g>
<!-- component/Dashboard/DashboardHeader/SelectRealTimeRangeArea.tsx&#45;&gt;hook/useOutsideClick.tsx -->
<g id="edge26" class="edge">
<title>component/Dashboard/DashboardHeader/SelectRealTimeRangeArea.tsx&#45;&gt;hook/useOutsideClick.tsx</title>
<path fill="none" stroke="#757575" d="M1697.97,-915.92C1780.75,-922.46 1880.9,-930.38 1953.62,-936.13"/>
<polygon fill="#757575" stroke="#757575" points="1953.29,-939.61 1963.54,-936.91 1953.85,-932.64 1953.29,-939.61"/>
</g>
<!-- component/Dashboard/DashboardHeader/RealTime.tsx -->
<g id="node26" class="node">
<title>component/Dashboard/DashboardHeader/RealTime.tsx</title>
<path fill="none" stroke="#cfffac" d="M2229.83,-837.45C2229.83,-837.45 1877.17,-837.45 1877.17,-837.45 1873.33,-837.45 1869.5,-833.61 1869.5,-829.78 1869.5,-829.78 1869.5,-822.11 1869.5,-822.11 1869.5,-818.28 1873.33,-814.45 1877.17,-814.45 1877.17,-814.45 2229.83,-814.45 2229.83,-814.45 2233.67,-814.45 2237.5,-818.28 2237.5,-822.11 2237.5,-822.11 2237.5,-829.78 2237.5,-829.78 2237.5,-833.61 2233.67,-837.45 2229.83,-837.45"/>
<text text-anchor="middle" x="2053.5" y="-822.25" font-family="Arial" font-size="14.00" fill="#cfffac">component/Dashboard/DashboardHeader/RealTime.tsx</text>
</g>
<!-- component/Dashboard/DashboardHeader/SelectRealTimeRangeArea.tsx&#45;&gt;component/Dashboard/DashboardHeader/RealTime.tsx -->
<g id="edge23" class="edge">
<title>component/Dashboard/DashboardHeader/SelectRealTimeRangeArea.tsx&#45;&gt;component/Dashboard/DashboardHeader/RealTime.tsx</title>
<path fill="none" stroke="#757575" d="M1764.41,-892C1771.78,-889.62 1779,-886.95 1786,-883.95 1805.68,-875.51 1802.45,-860.67 1822,-851.95 1833.52,-846.81 1845.67,-842.54 1858.13,-839"/>
<polygon fill="#757575" stroke="#757575" points="1858.92,-842.41 1867.69,-836.47 1857.12,-835.65 1858.92,-842.41"/>
</g>
<!-- component/Dashboard/DashboardHeader/SelectRealTimeListItem.tsx -->
<g id="node27" class="node">
<title>component/Dashboard/DashboardHeader/SelectRealTimeListItem.tsx</title>
<path fill="none" stroke="#c6c5fe" d="M3152.33,-875.45C3152.33,-875.45 2707.67,-875.45 2707.67,-875.45 2703.83,-875.45 2700,-871.61 2700,-867.78 2700,-867.78 2700,-860.11 2700,-860.11 2700,-856.28 2703.83,-852.45 2707.67,-852.45 2707.67,-852.45 3152.33,-852.45 3152.33,-852.45 3156.17,-852.45 3160,-856.28 3160,-860.11 3160,-860.11 3160,-867.78 3160,-867.78 3160,-871.61 3156.17,-875.45 3152.33,-875.45"/>
<text text-anchor="middle" x="2930" y="-860.25" font-family="Arial" font-size="14.00" fill="#c6c5fe">component/Dashboard/DashboardHeader/SelectRealTimeListItem.tsx</text>
</g>
<!-- component/Dashboard/DashboardHeader/SelectRealTimeRangeArea.tsx&#45;&gt;component/Dashboard/DashboardHeader/SelectRealTimeListItem.tsx -->
<g id="edge24" class="edge">
<title>component/Dashboard/DashboardHeader/SelectRealTimeRangeArea.tsx&#45;&gt;component/Dashboard/DashboardHeader/SelectRealTimeListItem.tsx</title>
<path fill="none" stroke="#757575" d="M1772.75,-891.95C1789.41,-891.22 1805.97,-890.54 1822,-889.95 2120.37,-878.86 2464.17,-871.66 2688.45,-867.7"/>
<polygon fill="#757575" stroke="#757575" points="2688.25,-871.21 2698.19,-867.53 2688.13,-864.21 2688.25,-871.21"/>
</g>
<!-- component/Dashboard/DashboardHeader/CurrentTime.tsx -->
<g id="node19" class="node">
<title>component/Dashboard/DashboardHeader/CurrentTime.tsx</title>
<path fill="none" stroke="#c6c5fe" d="M1730.83,-1133.45C1730.83,-1133.45 1360.17,-1133.45 1360.17,-1133.45 1356.33,-1133.45 1352.5,-1129.61 1352.5,-1125.78 1352.5,-1125.78 1352.5,-1118.11 1352.5,-1118.11 1352.5,-1114.28 1356.33,-1110.45 1360.17,-1110.45 1360.17,-1110.45 1730.83,-1110.45 1730.83,-1110.45 1734.67,-1110.45 1738.5,-1114.28 1738.5,-1118.11 1738.5,-1118.11 1738.5,-1125.78 1738.5,-1125.78 1738.5,-1129.61 1734.67,-1133.45 1730.83,-1133.45"/>
<text text-anchor="middle" x="1545.5" y="-1118.25" font-family="Arial" font-size="14.00" fill="#c6c5fe">component/Dashboard/DashboardHeader/CurrentTime.tsx</text>
</g>
<!-- component/Dashboard/DashboardHeader/TimeBlock.tsx&#45;&gt;component/Dashboard/DashboardHeader/CurrentTime.tsx -->
<g id="edge28" class="edge">
<title>component/Dashboard/DashboardHeader/TimeBlock.tsx&#45;&gt;component/Dashboard/DashboardHeader/CurrentTime.tsx</title>
<path fill="none" stroke="#757575" d="M1088.43,-1014.9C1182.1,-1036.89 1381.36,-1083.65 1482.63,-1107.43"/>
<polygon fill="#757575" stroke="#757575" points="1481.59,-1110.78 1492.13,-1109.65 1483.19,-1103.96 1481.59,-1110.78"/>
</g>
<!-- component/Dashboard/DashboardHeader/DatePickerArea.tsx -->
<g id="node22" class="node">
<title>component/Dashboard/DashboardHeader/DatePickerArea.tsx</title>
<path fill="none" stroke="#c6c5fe" d="M1741.33,-1014.45C1741.33,-1014.45 1349.67,-1014.45 1349.67,-1014.45 1345.83,-1014.45 1342,-1010.61 1342,-1006.78 1342,-1006.78 1342,-999.11 1342,-999.11 1342,-995.28 1345.83,-991.45 1349.67,-991.45 1349.67,-991.45 1741.33,-991.45 1741.33,-991.45 1745.17,-991.45 1749,-995.28 1749,-999.11 1749,-999.11 1749,-1006.78 1749,-1006.78 1749,-1010.61 1745.17,-1014.45 1741.33,-1014.45"/>
<text text-anchor="middle" x="1545.5" y="-999.25" font-family="Arial" font-size="14.00" fill="#c6c5fe">component/Dashboard/DashboardHeader/DatePickerArea.tsx</text>
</g>
<!-- component/Dashboard/DashboardHeader/TimeBlock.tsx&#45;&gt;component/Dashboard/DashboardHeader/DatePickerArea.tsx -->
<g id="edge29" class="edge">
<title>component/Dashboard/DashboardHeader/TimeBlock.tsx&#45;&gt;component/Dashboard/DashboardHeader/DatePickerArea.tsx</title>
<path fill="none" stroke="#757575" d="M1223.77,-1002.95C1258.43,-1002.95 1294.91,-1002.95 1330.33,-1002.95"/>
<polygon fill="#757575" stroke="#757575" points="1330.28,-1006.45 1340.28,-1002.95 1330.28,-999.45 1330.28,-1006.45"/>
</g>
<!-- store/DashboardProvider.tsx&#45;&gt;common/date.ts -->
<g id="edge80" class="edge">
<title>store/DashboardProvider.tsx&#45;&gt;common/date.ts</title>
<path fill="none" stroke="#757575" d="M2152.3,-743.95C2233.98,-743.95 2348.44,-743.95 2421.28,-743.95"/>
<polygon fill="#757575" stroke="#757575" points="2421.09,-747.45 2431.09,-743.95 2421.09,-740.45 2421.09,-747.45"/>
</g>
<!-- store/WidgetPropsSettingModalProvider.tsx&#45;&gt;hook/useBoolean.tsx -->
<g id="edge81" class="edge">
<title>store/WidgetPropsSettingModalProvider.tsx&#45;&gt;hook/useBoolean.tsx</title>
<path fill="none" stroke="#757575" d="M1591.98,-715.94C1646.31,-729.83 1740.17,-752.39 1822,-764.95 1869.74,-772.27 1923.5,-777.13 1967.07,-780.22"/>
<polygon fill="#757575" stroke="#757575" points="1966.78,-783.71 1976.99,-780.9 1967.26,-776.72 1966.78,-783.71"/>
</g>
<!-- hook/useCurrentTime.tsx -->
<g id="node20" class="node">
<title>hook/useCurrentTime.tsx</title>
<path fill="none" stroke="#cfffac" d="M2133.33,-1193.45C2133.33,-1193.45 1973.67,-1193.45 1973.67,-1193.45 1969.83,-1193.45 1966,-1189.61 1966,-1185.78 1966,-1185.78 1966,-1178.11 1966,-1178.11 1966,-1174.28 1969.83,-1170.45 1973.67,-1170.45 1973.67,-1170.45 2133.33,-1170.45 2133.33,-1170.45 2137.17,-1170.45 2141,-1174.28 2141,-1178.11 2141,-1178.11 2141,-1185.78 2141,-1185.78 2141,-1189.61 2137.17,-1193.45 2133.33,-1193.45"/>
<text text-anchor="middle" x="2053.5" y="-1178.25" font-family="Arial" font-size="14.00" fill="#cfffac">hook/useCurrentTime.tsx</text>
</g>
<!-- component/Dashboard/DashboardHeader/CurrentTime.tsx&#45;&gt;hook/useCurrentTime.tsx -->
<g id="edge10" class="edge">
<title>component/Dashboard/DashboardHeader/CurrentTime.tsx&#45;&gt;hook/useCurrentTime.tsx</title>
<path fill="none" stroke="#757575" d="M1620.89,-1133.93C1676.24,-1142.56 1753.71,-1154.03 1822,-1161.95 1865.31,-1166.97 1913.33,-1171.32 1954.28,-1174.68"/>
<polygon fill="#757575" stroke="#757575" points="1953.88,-1178.16 1964.13,-1175.48 1954.44,-1171.18 1953.88,-1178.16"/>
</g>
<!-- component/Dashboard/DashboardHeader/DateBox.tsx -->
<g id="node21" class="node">
<title>component/Dashboard/DashboardHeader/DateBox.tsx</title>
<path fill="none" stroke="#cfffac" d="M2226.83,-1152.45C2226.83,-1152.45 1880.17,-1152.45 1880.17,-1152.45 1876.33,-1152.45 1872.5,-1148.61 1872.5,-1144.78 1872.5,-1144.78 1872.5,-1137.11 1872.5,-1137.11 1872.5,-1133.28 1876.33,-1129.45 1880.17,-1129.45 1880.17,-1129.45 2226.83,-1129.45 2226.83,-1129.45 2230.67,-1129.45 2234.5,-1133.28 2234.5,-1137.11 2234.5,-1137.11 2234.5,-1144.78 2234.5,-1144.78 2234.5,-1148.61 2230.67,-1152.45 2226.83,-1152.45"/>
<text text-anchor="middle" x="2053.5" y="-1137.25" font-family="Arial" font-size="14.00" fill="#cfffac">component/Dashboard/DashboardHeader/DateBox.tsx</text>
</g>
<!-- component/Dashboard/DashboardHeader/DatePickerArea.tsx&#45;&gt;common/date.ts -->
<g id="edge11" class="edge">
<title>component/Dashboard/DashboardHeader/DatePickerArea.tsx&#45;&gt;common/date.ts</title>
<path fill="none" stroke="#757575" d="M1749.34,-1004.8C1953.73,-1004.72 2244.6,-998.57 2285,-964.95 2338.03,-920.81 2276.15,-866.37 2321,-813.95 2346.64,-783.98 2387.11,-766.64 2422.19,-756.72"/>
<polygon fill="#757575" stroke="#757575" points="2422.65,-760.22 2431.42,-754.26 2420.85,-753.45 2422.65,-760.22"/>
</g>
<!-- component/Dashboard/DashboardHeader/DatePickerArea.tsx&#45;&gt;component/Dashboard/CommonStyle.ts -->
<g id="edge12" class="edge">
<title>component/Dashboard/DashboardHeader/DatePickerArea.tsx&#45;&gt;component/Dashboard/CommonStyle.ts</title>
<path fill="none" stroke="#757575" d="M1640.99,-1014.94C1694.09,-1021.08 1761.62,-1027.89 1822,-1030.95 2340.16,-1057.21 2958.67,-1001 3212.5,-974.16"/>
<polygon fill="#757575" stroke="#757575" points="3212.87,-977.64 3222.44,-973.1 3212.13,-970.68 3212.87,-977.64"/>
</g>
<!-- component/Dashboard/DashboardHeader/DatePickerArea.tsx&#45;&gt;store/DashboardProvider.tsx -->
<g id="edge17" class="edge">
<title>component/Dashboard/DashboardHeader/DatePickerArea.tsx&#45;&gt;store/DashboardProvider.tsx</title>
<path fill="none" stroke="#757575" d="M1657.59,-990.98C1703.28,-980.53 1753.1,-961.08 1786,-924.95 1835.07,-871.05 1767.21,-813.02 1822,-764.95 1865.46,-726.82 1932.87,-724.91 1983.58,-730.56"/>
<polygon fill="#757575" stroke="#757575" points="1982.93,-734 1993.29,-731.77 1983.8,-727.06 1982.93,-734"/>
</g>
<!-- component/Dashboard/DashboardHeader/DatePickerArea.tsx&#45;&gt;types/widget.d.ts -->
<g id="edge18" class="edge">
<title>component/Dashboard/DashboardHeader/DatePickerArea.tsx&#45;&gt;types/widget.d.ts</title>
<path fill="none" stroke="#757575" d="M1625.24,-1014.95C1762.09,-1033.06 2051.53,-1059.17 2285,-997.95 2551.17,-928.14 2825.03,-723.33 2905.47,-659.9"/>
<polygon fill="#757575" stroke="#757575" points="2907.47,-662.78 2913.13,-653.82 2903.12,-657.3 2907.47,-662.78"/>
</g>
<!-- component/Dashboard/DashboardHeader/DatePickerArea.tsx&#45;&gt;component/Dashboard/DashboardHeader/DateBox.tsx -->
<g id="edge13" class="edge">
<title>component/Dashboard/DashboardHeader/DatePickerArea.tsx&#45;&gt;component/Dashboard/DashboardHeader/DateBox.tsx</title>
<path fill="none" stroke="#757575" d="M1577.91,-1014.84C1624.06,-1032.57 1712.69,-1067.54 1786,-1101.95 1802.38,-1109.63 1804.64,-1115.84 1822,-1120.95 1834.57,-1124.64 1847.68,-1127.72 1860.98,-1130.28"/>
<polygon fill="#757575" stroke="#757575" points="1860.25,-1133.71 1870.71,-1132.04 1861.49,-1126.82 1860.25,-1133.71"/>
</g>
<!-- component/common/DatePicker.tsx -->
<g id="node23" class="node">
<title>component/common/DatePicker.tsx</title>
<path fill="none" stroke="#c6c5fe" d="M2166.83,-1111.45C2166.83,-1111.45 1940.17,-1111.45 1940.17,-1111.45 1936.33,-1111.45 1932.5,-1107.61 1932.5,-1103.78 1932.5,-1103.78 1932.5,-1096.11 1932.5,-1096.11 1932.5,-1092.28 1936.33,-1088.45 1940.17,-1088.45 1940.17,-1088.45 2166.83,-1088.45 2166.83,-1088.45 2170.67,-1088.45 2174.5,-1092.28 2174.5,-1096.11 2174.5,-1096.11 2174.5,-1103.78 2174.5,-1103.78 2174.5,-1107.61 2170.67,-1111.45 2166.83,-1111.45"/>
<text text-anchor="middle" x="2053.5" y="-1096.25" font-family="Arial" font-size="14.00" fill="#c6c5fe">component/common/DatePicker.tsx</text>
</g>
<!-- component/Dashboard/DashboardHeader/DatePickerArea.tsx&#45;&gt;component/common/DatePicker.tsx -->
<g id="edge14" class="edge">
<title>component/Dashboard/DashboardHeader/DatePickerArea.tsx&#45;&gt;component/common/DatePicker.tsx</title>
<path fill="none" stroke="#757575" d="M1585.8,-1014.93C1638.91,-1030.7 1736.75,-1058.23 1822,-1073.95 1853.8,-1079.81 1888.32,-1084.55 1920.73,-1088.3"/>
<polygon fill="#757575" stroke="#757575" points="1920.27,-1091.77 1930.6,-1089.41 1921.05,-1084.81 1920.27,-1091.77"/>
</g>
<!-- component/Dashboard/DashboardHeader/DatePickerArea.tsx&#45;&gt;hook/useBoolean.tsx -->
<g id="edge15" class="edge">
<title>component/Dashboard/DashboardHeader/DatePickerArea.tsx&#45;&gt;hook/useBoolean.tsx</title>
<path fill="none" stroke="#757575" d="M1651.2,-991C1698.01,-980.6 1750.51,-961.19 1786,-924.95 1824.66,-885.46 1779.17,-840.86 1822,-805.95 1864.84,-771.03 1928.18,-767.57 1977.62,-771.84"/>
<polygon fill="#757575" stroke="#757575" points="1977.11,-775.31 1987.4,-772.82 1977.8,-768.34 1977.11,-775.31"/>
</g>
<!-- component/Dashboard/DashboardHeader/DatePickerArea.tsx&#45;&gt;hook/useOutsideClick.tsx -->
<g id="edge16" class="edge">
<title>component/Dashboard/DashboardHeader/DatePickerArea.tsx&#45;&gt;hook/useOutsideClick.tsx</title>
<path fill="none" stroke="#757575" d="M1644.98,-990.98C1697.51,-984.64 1763.26,-976.78 1822,-969.95 1865.24,-964.92 1913.05,-959.5 1953.88,-954.92"/>
<polygon fill="#757575" stroke="#757575" points="1954.14,-958.41 1963.69,-953.82 1953.36,-951.46 1954.14,-958.41"/>
</g>
<!-- component/common/DatePicker/DatePickerTitle.tsx -->
<g id="node45" class="node">
<title>component/common/DatePicker/DatePickerTitle.tsx</title>
<path fill="none" stroke="#c6c5fe" d="M2656.33,-1090.45C2656.33,-1090.45 2328.67,-1090.45 2328.67,-1090.45 2324.83,-1090.45 2321,-1086.61 2321,-1082.78 2321,-1082.78 2321,-1075.11 2321,-1075.11 2321,-1071.28 2324.83,-1067.45 2328.67,-1067.45 2328.67,-1067.45 2656.33,-1067.45 2656.33,-1067.45 2660.17,-1067.45 2664,-1071.28 2664,-1075.11 2664,-1075.11 2664,-1082.78 2664,-1082.78 2664,-1086.61 2660.17,-1090.45 2656.33,-1090.45"/>
<text text-anchor="middle" x="2492.5" y="-1075.25" font-family="Arial" font-size="14.00" fill="#c6c5fe">component/common/DatePicker/DatePickerTitle.tsx</text>
</g>
<!-- component/common/DatePicker.tsx&#45;&gt;component/common/DatePicker/DatePickerTitle.tsx -->
<g id="edge62" class="edge">
<title>component/common/DatePicker.tsx&#45;&gt;component/common/DatePicker/DatePickerTitle.tsx</title>
<path fill="none" stroke="#757575" d="M2174.78,-1094.17C2216.36,-1092.17 2263.92,-1089.88 2309.33,-1087.7"/>
<polygon fill="#757575" stroke="#757575" points="2309.5,-1091.2 2319.32,-1087.22 2309.16,-1084.2 2309.5,-1091.2"/>
</g>
<!-- component/common/DatePicker/ListPicker.tsx -->
<g id="node46" class="node">
<title>component/common/DatePicker/ListPicker.tsx</title>
<path fill="none" stroke="#c6c5fe" d="M2638.83,-1131.45C2638.83,-1131.45 2346.17,-1131.45 2346.17,-1131.45 2342.33,-1131.45 2338.5,-1127.61 2338.5,-1123.78 2338.5,-1123.78 2338.5,-1116.11 2338.5,-1116.11 2338.5,-1112.28 2342.33,-1108.45 2346.17,-1108.45 2346.17,-1108.45 2638.83,-1108.45 2638.83,-1108.45 2642.67,-1108.45 2646.5,-1112.28 2646.5,-1116.11 2646.5,-1116.11 2646.5,-1123.78 2646.5,-1123.78 2646.5,-1127.61 2642.67,-1131.45 2638.83,-1131.45"/>
<text text-anchor="middle" x="2492.5" y="-1116.25" font-family="Arial" font-size="14.00" fill="#c6c5fe">component/common/DatePicker/ListPicker.tsx</text>
</g>
<!-- component/common/DatePicker.tsx&#45;&gt;component/common/DatePicker/ListPicker.tsx -->
<g id="edge63" class="edge">
<title>component/common/DatePicker.tsx&#45;&gt;component/common/DatePicker/ListPicker.tsx</title>
<path fill="none" stroke="#757575" d="M2174.78,-1105.45C2221.76,-1107.6 2276.39,-1110.1 2326.91,-1112.41"/>
<polygon fill="#757575" stroke="#757575" points="2326.64,-1115.9 2336.79,-1112.87 2326.96,-1108.91 2326.64,-1115.9"/>
</g>
<!-- types/datePicker.d.ts -->
<g id="node47" class="node">
<title>types/datePicker.d.ts</title>
<path fill="none" stroke="#cfffac" d="M2996.83,-1161.45C2996.83,-1161.45 2863.17,-1161.45 2863.17,-1161.45 2859.33,-1161.45 2855.5,-1157.61 2855.5,-1153.78 2855.5,-1153.78 2855.5,-1146.11 2855.5,-1146.11 2855.5,-1142.28 2859.33,-1138.45 2863.17,-1138.45 2863.17,-1138.45 2996.83,-1138.45 2996.83,-1138.45 3000.67,-1138.45 3004.5,-1142.28 3004.5,-1146.11 3004.5,-1146.11 3004.5,-1153.78 3004.5,-1153.78 3004.5,-1157.61 3000.67,-1161.45 2996.83,-1161.45"/>
<text text-anchor="middle" x="2930" y="-1146.25" font-family="Arial" font-size="14.00" fill="#cfffac">types/datePicker.d.ts</text>
</g>
<!-- component/common/DatePicker.tsx&#45;&gt;types/datePicker.d.ts -->
<g id="edge64" class="edge">
<title>component/common/DatePicker.tsx&#45;&gt;types/datePicker.d.ts</title>
<path fill="none" stroke="#757575" d="M2174.78,-1101.45C2210.83,-1104.41 2250.06,-1110.18 2285,-1120.95 2302.49,-1126.34 2303.32,-1136.22 2321,-1140.95 2502.31,-1189.36 2724.99,-1174.88 2844.16,-1161.5"/>
<polygon fill="#757575" stroke="#757575" points="2844.32,-1165.01 2853.86,-1160.39 2843.52,-1158.05 2844.32,-1165.01"/>
</g>
<!-- component/Dashboard/DashboardHeader/SelectRealTimeListItem.tsx&#45;&gt;component/Dashboard/CommonStyle.ts -->
<g id="edge21" class="edge">
<title>component/Dashboard/DashboardHeader/SelectRealTimeListItem.tsx&#45;&gt;component/Dashboard/CommonStyle.ts</title>
<path fill="none" stroke="#757575" d="M3088.83,-875.93C3112.88,-879.46 3137.25,-884.03 3160,-889.95 3209.58,-902.84 3263.67,-927.39 3297.21,-943.96"/>
<polygon fill="#757575" stroke="#757575" points="3295.49,-947.02 3305.99,-948.36 3298.62,-940.76 3295.49,-947.02"/>
</g>
<!-- component/Widget.tsx -->
<g id="node28" class="node">
<title>component/Widget.tsx</title>
<path fill="none" stroke="#c6c5fe" d="M675.33,-439.45C675.33,-439.45 531.67,-439.45 531.67,-439.45 527.83,-439.45 524,-435.61 524,-431.78 524,-431.78 524,-424.11 524,-424.11 524,-420.28 527.83,-416.45 531.67,-416.45 531.67,-416.45 675.33,-416.45 675.33,-416.45 679.17,-416.45 683,-420.28 683,-424.11 683,-424.11 683,-431.78 683,-431.78 683,-435.61 679.17,-439.45 675.33,-439.45"/>
<text text-anchor="middle" x="603.5" y="-424.25" font-family="Arial" font-size="14.00" fill="#c6c5fe">component/Widget.tsx</text>
</g>
<!-- component/Widget.tsx&#45;&gt;types/widget.d.ts -->
<g id="edge35" class="edge">
<title>component/Widget.tsx&#45;&gt;types/widget.d.ts</title>
<path fill="none" stroke="#757575" d="M679.51,-415.99C838.52,-391.72 1221.36,-338.95 1544.5,-338.95 1544.5,-338.95 1544.5,-338.95 2054.5,-338.95 2157.29,-338.95 2185.36,-332.7 2285,-357.95 2534.39,-421.13 2809.42,-571.96 2899.02,-623.4"/>
<polygon fill="#757575" stroke="#757575" points="2897.06,-626.31 2907.47,-628.28 2900.56,-620.25 2897.06,-626.31"/>
</g>
<!-- component/Widget.tsx&#45;&gt;hook/useBoolean.tsx -->
<g id="edge34" class="edge">
<title>component/Widget.tsx&#45;&gt;hook/useBoolean.tsx</title>
<path fill="none" stroke="#757575" d="M683.1,-437.83C719.81,-442.34 764.12,-447.62 804,-451.95 831.25,-454.9 1765.98,-528.23 1786,-546.95 1857.73,-614.01 1749.94,-698.24 1822,-764.95 1866.12,-805.79 1937.45,-805.71 1989.08,-798.6"/>
<polygon fill="#757575" stroke="#757575" points="1989.58,-802.06 1998.94,-797.1 1988.53,-795.14 1989.58,-802.06"/>
</g>
<!-- component/Widget/WidgetButtons.tsx -->
<g id="node29" class="node">
<title>component/Widget/WidgetButtons.tsx</title>
<path fill="none" stroke="#c6c5fe" d="M1157.33,-555.45C1157.33,-555.45 915.67,-555.45 915.67,-555.45 911.83,-555.45 908,-551.61 908,-547.78 908,-547.78 908,-540.11 908,-540.11 908,-536.28 911.83,-532.45 915.67,-532.45 915.67,-532.45 1157.33,-532.45 1157.33,-532.45 1161.17,-532.45 1165,-536.28 1165,-540.11 1165,-540.11 1165,-547.78 1165,-547.78 1165,-551.61 1161.17,-555.45 1157.33,-555.45"/>
<text text-anchor="middle" x="1036.5" y="-540.25" font-family="Arial" font-size="14.00" fill="#c6c5fe">component/Widget/WidgetButtons.tsx</text>
</g>
<!-- component/Widget.tsx&#45;&gt;component/Widget/WidgetButtons.tsx -->
<g id="edge30" class="edge">
<title>component/Widget.tsx&#45;&gt;component/Widget/WidgetButtons.tsx</title>
<path fill="none" stroke="#757575" d="M649,-439.92C728.23,-461.25 893.51,-505.73 980.01,-529.01"/>
<polygon fill="#757575" stroke="#757575" points="978.89,-532.33 989.46,-531.55 980.71,-525.58 978.89,-532.33"/>
</g>
<!-- component/Widget/WidgetCallCycleSettingModal.tsx -->
<g id="node30" class="node">
<title>component/Widget/WidgetCallCycleSettingModal.tsx</title>
<path fill="none" stroke="#c6c5fe" d="M1713.33,-421.45C1713.33,-421.45 1377.67,-421.45 1377.67,-421.45 1373.83,-421.45 1370,-417.61 1370,-413.78 1370,-413.78 1370,-406.11 1370,-406.11 1370,-402.28 1373.83,-398.45 1377.67,-398.45 1377.67,-398.45 1713.33,-398.45 1713.33,-398.45 1717.17,-398.45 1721,-402.28 1721,-406.11 1721,-406.11 1721,-413.78 1721,-413.78 1721,-417.61 1717.17,-421.45 1713.33,-421.45"/>
<text text-anchor="middle" x="1545.5" y="-406.25" font-family="Arial" font-size="14.00" fill="#c6c5fe">component/Widget/WidgetCallCycleSettingModal.tsx</text>
</g>
<!-- component/Widget.tsx&#45;&gt;component/Widget/WidgetCallCycleSettingModal.tsx -->
<g id="edge31" class="edge">
<title>component/Widget.tsx&#45;&gt;component/Widget/WidgetCallCycleSettingModal.tsx</title>
<path fill="none" stroke="#757575" d="M683.08,-421.25C719.79,-418.43 764.1,-415.45 804,-413.95 992.78,-406.82 1208.83,-406.56 1358.63,-407.63"/>
<polygon fill="#757575" stroke="#757575" points="1358.21,-411.12 1368.24,-407.7 1358.27,-404.12 1358.21,-411.12"/>
</g>
<!-- component/Widget/WidgetChart.tsx -->
<g id="node31" class="node">
<title>component/Widget/WidgetChart.tsx</title>
<path fill="none" stroke="#c6c5fe" d="M1149.83,-232.45C1149.83,-232.45 923.17,-232.45 923.17,-232.45 919.33,-232.45 915.5,-228.61 915.5,-224.78 915.5,-224.78 915.5,-217.11 915.5,-217.11 915.5,-213.28 919.33,-209.45 923.17,-209.45 923.17,-209.45 1149.83,-209.45 1149.83,-209.45 1153.67,-209.45 1157.5,-213.28 1157.5,-217.11 1157.5,-217.11 1157.5,-224.78 1157.5,-224.78 1157.5,-228.61 1153.67,-232.45 1149.83,-232.45"/>
<text text-anchor="middle" x="1036.5" y="-217.25" font-family="Arial" font-size="14.00" fill="#c6c5fe">component/Widget/WidgetChart.tsx</text>
</g>
<!-- component/Widget.tsx&#45;&gt;component/Widget/WidgetChart.tsx -->
<g id="edge32" class="edge">
<title>component/Widget.tsx&#45;&gt;component/Widget/WidgetChart.tsx</title>
<path fill="none" stroke="#757575" d="M626.74,-415.96C663.38,-396.33 738.87,-356.36 804,-324.95 871.42,-292.43 951.3,-257.27 997.42,-237.3"/>
<polygon fill="#757575" stroke="#757575" points="998.66,-240.57 1006.45,-233.39 995.88,-234.15 998.66,-240.57"/>
</g>
<!-- hook/Widget/useHandleWidgetApi.tsx -->
<g id="node32" class="node">
<title>hook/Widget/useHandleWidgetApi.tsx</title>
<path fill="none" stroke="#c6c5fe" d="M1666.33,-485.45C1666.33,-485.45 1424.67,-485.45 1424.67,-485.45 1420.83,-485.45 1417,-481.61 1417,-477.78 1417,-477.78 1417,-470.11 1417,-470.11 1417,-466.28 1420.83,-462.45 1424.67,-462.45 1424.67,-462.45 1666.33,-462.45 1666.33,-462.45 1670.17,-462.45 1674,-466.28 1674,-470.11 1674,-470.11 1674,-477.78 1674,-477.78 1674,-481.61 1670.17,-485.45 1666.33,-485.45"/>
<text text-anchor="middle" x="1545.5" y="-470.25" font-family="Arial" font-size="14.00" fill="#c6c5fe">hook/Widget/useHandleWidgetApi.tsx</text>
</g>
<!-- component/Widget.tsx&#45;&gt;hook/Widget/useHandleWidgetApi.tsx -->
<g id="edge33" class="edge">
<title>component/Widget.tsx&#45;&gt;hook/Widget/useHandleWidgetApi.tsx</title>
<path fill="none" stroke="#757575" d="M683.32,-429.68C807.8,-432.67 1057.52,-439.69 1269,-451.95 1313.4,-454.52 1361.76,-458.11 1405.39,-461.65"/>
<polygon fill="#757575" stroke="#757575" points="1404.91,-465.12 1415.17,-462.45 1405.48,-458.15 1404.91,-465.12"/>
</g>
<!-- component/Widget/WidgetButtons.tsx&#45;&gt;store/WidgetPropsSettingModalProvider.tsx -->
<g id="edge36" class="edge">
<title>component/Widget/WidgetButtons.tsx&#45;&gt;store/WidgetPropsSettingModalProvider.tsx</title>
<path fill="none" stroke="#757575" d="M1165.46,-543.56C1199.82,-546.52 1236.45,-552.54 1269,-563.95 1287.15,-570.31 1288.31,-578.4 1305,-587.95 1374.02,-627.42 1458.47,-666.24 1506.42,-687.45"/>
<polygon fill="#757575" stroke="#757575" points="1504.99,-690.65 1515.55,-691.47 1507.81,-684.24 1504.99,-690.65"/>
</g>
<!-- store/WidgetProvider.tsx -->
<g id="node33" class="node">
<title>store/WidgetProvider.tsx</title>
<path fill="none" stroke="#c6c5fe" d="M1624.33,-579.45C1624.33,-579.45 1466.67,-579.45 1466.67,-579.45 1462.83,-579.45 1459,-575.61 1459,-571.78 1459,-571.78 1459,-564.11 1459,-564.11 1459,-560.28 1462.83,-556.45 1466.67,-556.45 1466.67,-556.45 1624.33,-556.45 1624.33,-556.45 1628.17,-556.45 1632,-560.28 1632,-564.11 1632,-564.11 1632,-571.78 1632,-571.78 1632,-575.61 1628.17,-579.45 1624.33,-579.45"/>
<text text-anchor="middle" x="1545.5" y="-564.25" font-family="Arial" font-size="14.00" fill="#c6c5fe">store/WidgetProvider.tsx</text>
</g>
<!-- component/Widget/WidgetButtons.tsx&#45;&gt;store/WidgetProvider.tsx -->
<g id="edge37" class="edge">
<title>component/Widget/WidgetButtons.tsx&#45;&gt;store/WidgetProvider.tsx</title>
<path fill="none" stroke="#757575" d="M1165.44,-550C1253.13,-554.15 1367.64,-559.57 1447.76,-563.37"/>
<polygon fill="#757575" stroke="#757575" points="1447.17,-566.84 1457.32,-563.82 1447.5,-559.85 1447.17,-566.84"/>
</g>
<!-- component/Widget/WidgetCallCycleSettingModal.tsx&#45;&gt;common/widget.ts -->
<g id="edge38" class="edge">
<title>component/Widget/WidgetCallCycleSettingModal.tsx&#45;&gt;common/widget.ts</title>
<path fill="none" stroke="#757575" d="M1652.42,-421.92C1703.63,-427.6 1765.99,-434.35 1822,-439.95 1873.31,-445.08 1931.1,-450.34 1975.98,-454.31"/>
<polygon fill="#757575" stroke="#757575" points="1975.62,-457.8 1985.89,-455.19 1976.23,-450.82 1975.62,-457.8"/>
</g>
<!-- component/Widget/WidgetCallCycleSettingModal/CycleInput.tsx -->
<g id="node34" class="node">
<title>component/Widget/WidgetCallCycleSettingModal/CycleInput.tsx</title>
<path fill="none" stroke="#cfffac" d="M2256.83,-431.45C2256.83,-431.45 1850.17,-431.45 1850.17,-431.45 1846.33,-431.45 1842.5,-427.61 1842.5,-423.78 1842.5,-423.78 1842.5,-416.11 1842.5,-416.11 1842.5,-412.28 1846.33,-408.45 1850.17,-408.45 1850.17,-408.45 2256.83,-408.45 2256.83,-408.45 2260.67,-408.45 2264.5,-412.28 2264.5,-416.11 2264.5,-416.11 2264.5,-423.78 2264.5,-423.78 2264.5,-427.61 2260.67,-431.45 2256.83,-431.45"/>
<text text-anchor="middle" x="2053.5" y="-416.25" font-family="Arial" font-size="14.00" fill="#cfffac">component/Widget/WidgetCallCycleSettingModal/CycleInput.tsx</text>
</g>
<!-- component/Widget/WidgetCallCycleSettingModal.tsx&#45;&gt;component/Widget/WidgetCallCycleSettingModal/CycleInput.tsx -->
<g id="edge39" class="edge">
<title>component/Widget/WidgetCallCycleSettingModal.tsx&#45;&gt;component/Widget/WidgetCallCycleSettingModal/CycleInput.tsx</title>
<path fill="none" stroke="#757575" d="M1721.35,-413.4C1756.68,-414.1 1794.27,-414.84 1830.97,-415.57"/>
<polygon fill="#757575" stroke="#757575" points="1830.75,-419.06 1840.81,-415.76 1830.88,-412.07 1830.75,-419.06"/>
</g>
<!-- component/Widget/WidgetCallCycleSettingModal/LastCallTimeBox.tsx -->
<g id="node35" class="node">
<title>component/Widget/WidgetCallCycleSettingModal/LastCallTimeBox.tsx</title>
<path fill="none" stroke="#cfffac" d="M2277.33,-390.45C2277.33,-390.45 1829.67,-390.45 1829.67,-390.45 1825.83,-390.45 1822,-386.61 1822,-382.78 1822,-382.78 1822,-375.11 1822,-375.11 1822,-371.28 1825.83,-367.45 1829.67,-367.45 1829.67,-367.45 2277.33,-367.45 2277.33,-367.45 2281.17,-367.45 2285,-371.28 2285,-375.11 2285,-375.11 2285,-382.78 2285,-382.78 2285,-386.61 2281.17,-390.45 2277.33,-390.45"/>
<text text-anchor="middle" x="2053.5" y="-375.25" font-family="Arial" font-size="14.00" fill="#cfffac">component/Widget/WidgetCallCycleSettingModal/LastCallTimeBox.tsx</text>
</g>
<!-- component/Widget/WidgetCallCycleSettingModal.tsx&#45;&gt;component/Widget/WidgetCallCycleSettingModal/LastCallTimeBox.tsx -->
<g id="edge40" class="edge">
<title>component/Widget/WidgetCallCycleSettingModal.tsx&#45;&gt;component/Widget/WidgetCallCycleSettingModal/LastCallTimeBox.tsx</title>
<path fill="none" stroke="#757575" d="M1721.35,-399.23C1761.38,-396.78 1804.31,-394.15 1845.55,-391.62"/>
<polygon fill="#757575" stroke="#757575" points="1845.57,-395.13 1855.34,-391.03 1845.14,-388.14 1845.57,-395.13"/>
</g>
<!-- component/Widget/WidgetChart.tsx&#45;&gt;types/chart.d.ts -->
<g id="edge44" class="edge">
<title>component/Widget/WidgetChart.tsx&#45;&gt;types/chart.d.ts</title>
<path fill="none" stroke="#757575" d="M1157.72,-220.95C1451.14,-220.95 2196.52,-220.95 2424.33,-220.95"/>
<polygon fill="#757575" stroke="#757575" points="2424.23,-224.45 2434.23,-220.95 2424.23,-217.45 2424.23,-224.45"/>
</g>
<!-- component/chart/BarChart.tsx -->
<g id="node36" class="node">
<title>component/chart/BarChart.tsx</title>
<path fill="none" stroke="#c6c5fe" d="M1639.33,-154.45C1639.33,-154.45 1451.67,-154.45 1451.67,-154.45 1447.83,-154.45 1444,-150.61 1444,-146.78 1444,-146.78 1444,-139.11 1444,-139.11 1444,-135.28 1447.83,-131.45 1451.67,-131.45 1451.67,-131.45 1639.33,-131.45 1639.33,-131.45 1643.17,-131.45 1647,-135.28 1647,-139.11 1647,-139.11 1647,-146.78 1647,-146.78 1647,-150.61 1643.17,-154.45 1639.33,-154.45"/>
<text text-anchor="middle" x="1545.5" y="-139.25" font-family="Arial" font-size="14.00" fill="#c6c5fe">component/chart/BarChart.tsx</text>
</g>
<!-- component/Widget/WidgetChart.tsx&#45;&gt;component/chart/BarChart.tsx -->
<g id="edge41" class="edge">
<title>component/Widget/WidgetChart.tsx&#45;&gt;component/chart/BarChart.tsx</title>
<path fill="none" stroke="#757575" d="M1115.33,-208.97C1207.05,-194.86 1359.12,-171.47 1455.46,-156.65"/>
<polygon fill="#757575" stroke="#757575" points="1455.78,-160.14 1465.13,-155.16 1454.72,-153.22 1455.78,-160.14"/>
</g>
<!-- component/chart/InformaticsChart.tsx -->
<g id="node37" class="node">
<title>component/chart/InformaticsChart.tsx</title>
<path fill="none" stroke="#c6c5fe" d="M1663.83,-272.45C1663.83,-272.45 1427.17,-272.45 1427.17,-272.45 1423.33,-272.45 1419.5,-268.61 1419.5,-264.78 1419.5,-264.78 1419.5,-257.11 1419.5,-257.11 1419.5,-253.28 1423.33,-249.45 1427.17,-249.45 1427.17,-249.45 1663.83,-249.45 1663.83,-249.45 1667.67,-249.45 1671.5,-253.28 1671.5,-257.11 1671.5,-257.11 1671.5,-264.78 1671.5,-264.78 1671.5,-268.61 1667.67,-272.45 1663.83,-272.45"/>
<text text-anchor="middle" x="1545.5" y="-257.25" font-family="Arial" font-size="14.00" fill="#c6c5fe">component/chart/InformaticsChart.tsx</text>
</g>
<!-- component/Widget/WidgetChart.tsx&#45;&gt;component/chart/InformaticsChart.tsx -->
<g id="edge42" class="edge">
<title>component/Widget/WidgetChart.tsx&#45;&gt;component/chart/InformaticsChart.tsx</title>
<path fill="none" stroke="#757575" d="M1157.97,-230.45C1233.06,-236.37 1329.87,-244.01 1407.82,-250.16"/>
<polygon fill="#757575" stroke="#757575" points="1407.43,-253.64 1417.67,-250.94 1407.98,-246.66 1407.43,-253.64"/>
</g>
<!-- component/chart/LineChart.tsx -->
<g id="node38" class="node">
<title>component/chart/LineChart.tsx</title>
<path fill="none" stroke="#c6c5fe" d="M1642.33,-113.45C1642.33,-113.45 1448.67,-113.45 1448.67,-113.45 1444.83,-113.45 1441,-109.61 1441,-105.78 1441,-105.78 1441,-98.11 1441,-98.11 1441,-94.28 1444.83,-90.45 1448.67,-90.45 1448.67,-90.45 1642.33,-90.45 1642.33,-90.45 1646.17,-90.45 1650,-94.28 1650,-98.11 1650,-98.11 1650,-105.78 1650,-105.78 1650,-109.61 1646.17,-113.45 1642.33,-113.45"/>
<text text-anchor="middle" x="1545.5" y="-98.25" font-family="Arial" font-size="14.00" fill="#c6c5fe">component/chart/LineChart.tsx</text>
</g>
<!-- component/Widget/WidgetChart.tsx&#45;&gt;component/chart/LineChart.tsx -->
<g id="edge43" class="edge">
<title>component/Widget/WidgetChart.tsx&#45;&gt;component/chart/LineChart.tsx</title>
<path fill="none" stroke="#757575" d="M1062.62,-209.01C1109.21,-187.48 1212.67,-142.48 1305,-121.95 1345.03,-113.04 1389.62,-108.03 1429.37,-105.23"/>
<polygon fill="#757575" stroke="#757575" points="1429.46,-108.73 1439.21,-104.58 1429,-101.74 1429.46,-108.73"/>
</g>
<!-- hook/Widget/useHandleWidgetApi.tsx&#45;&gt;common/api.ts -->
<g id="edge69" class="edge">
<title>hook/Widget/useHandleWidgetApi.tsx&#45;&gt;common/api.ts</title>
<path fill="none" stroke="#757575" d="M1620.01,-461.95C1672.21,-457.75 1740.79,-461.6 1786,-499.95 1831.4,-538.45 1776.68,-590.35 1822,-628.95 1867.03,-667.3 1936.28,-670.2 1987.12,-665.71"/>
<polygon fill="#757575" stroke="#757575" points="1987.22,-669.21 1996.82,-664.72 1986.51,-662.25 1987.22,-669.21"/>
</g>
<!-- hook/Widget/useHandleWidgetApi.tsx&#45;&gt;types/chart.d.ts -->
<g id="edge73" class="edge">
<title>hook/Widget/useHandleWidgetApi.tsx&#45;&gt;types/chart.d.ts</title>
<path fill="none" stroke="#757575" d="M1649.01,-485.92C1824.9,-504.67 2175.81,-533.66 2285,-480.95 2390.43,-430.05 2458.55,-296.26 2482.2,-243.15"/>
<polygon fill="#757575" stroke="#757575" points="2485.3,-244.78 2486.08,-234.21 2478.88,-241.99 2485.3,-244.78"/>
</g>
<!-- hook/Widget/useHandleWidgetApi.tsx&#45;&gt;common/date.ts -->
<g id="edge70" class="edge">
<title>hook/Widget/useHandleWidgetApi.tsx&#45;&gt;common/date.ts</title>
<path fill="none" stroke="#757575" d="M1674.21,-467.83C1712.37,-471.1 1752.84,-480.02 1786,-499.95 1810.41,-514.61 1798.1,-537.47 1822,-552.95 1997.41,-666.55 2102.9,-532.42 2285,-634.95 2306.13,-646.84 2301.19,-661.96 2321,-675.95 2355.41,-700.25 2399.75,-717.58 2434.58,-728.67"/>
<polygon fill="#757575" stroke="#757575" points="2433.5,-732 2444.09,-731.6 2435.57,-725.31 2433.5,-732"/>
</g>
<!-- hook/Widget/useHandleWidgetApi.tsx&#45;&gt;common/widget.ts -->
<g id="edge71" class="edge">
<title>hook/Widget/useHandleWidgetApi.tsx&#45;&gt;common/widget.ts</title>
<path fill="none" stroke="#757575" d="M1674.19,-470.67C1769.2,-468.22 1895.76,-464.97 1975.7,-462.92"/>
<polygon fill="#757575" stroke="#757575" points="1975.73,-466.42 1985.64,-462.66 1975.55,-459.42 1975.73,-466.42"/>
</g>
<!-- hook/Widget/useHandleWidgetApi.tsx&#45;&gt;store/DashboardProvider.tsx -->
<g id="edge72" class="edge">
<title>hook/Widget/useHandleWidgetApi.tsx&#45;&gt;store/DashboardProvider.tsx</title>
<path fill="none" stroke="#757575" d="M1611.29,-461.96C1664.86,-456.03 1739.46,-457.57 1786,-499.95 1845.04,-553.7 1768,-617.14 1822,-675.95 1853.02,-709.73 1899.91,-727.04 1943.31,-735.79"/>
<polygon fill="#757575" stroke="#757575" points="1942.59,-739.22 1953.06,-737.61 1943.87,-732.33 1942.59,-739.22"/>
</g>
<!-- hook/Widget/useHandleWidgetApi.tsx&#45;&gt;types/widget.d.ts -->
<g id="edge74" class="edge">
<title>hook/Widget/useHandleWidgetApi.tsx&#45;&gt;types/widget.d.ts</title>
<path fill="none" stroke="#757575" d="M1674.48,-483.95C1710.71,-487.83 1750.06,-493.05 1786,-499.95 1802.31,-503.07 1805.7,-506.77 1822,-509.95 2191.71,-581.91 2290.17,-559.95 2664,-605.95 2729.33,-613.98 2803.62,-623.86 2856.88,-631.07"/>
<polygon fill="#757575" stroke="#757575" points="2856.38,-634.53 2866.76,-632.41 2857.32,-627.6 2856.38,-634.53"/>
</g>
<!-- store/WidgetProvider.tsx&#45;&gt;types/widget.d.ts -->
<g id="edge82" class="edge">
<title>store/WidgetProvider.tsx&#45;&gt;types/widget.d.ts</title>
<path fill="none" stroke="#757575" d="M1632.46,-572.49C1885.11,-585.83 2622.25,-624.75 2856.59,-637.12"/>
<polygon fill="#757575" stroke="#757575" points="2856.34,-640.61 2866.51,-637.65 2856.71,-633.62 2856.34,-640.61"/>
</g>
<!-- component/chart/BarChart.tsx&#45;&gt;common/chart.ts -->
<g id="edge51" class="edge">
<title>component/chart/BarChart.tsx&#45;&gt;common/chart.ts</title>
<path fill="none" stroke="#757575" d="M1647.38,-142.95C1746.02,-142.95 1893.73,-142.95 1980.89,-142.95"/>
<polygon fill="#757575" stroke="#757575" points="1980.74,-146.45 1990.74,-142.95 1980.74,-139.45 1980.74,-146.45"/>
</g>
<!-- component/chart/BarChart.tsx&#45;&gt;types/chart.d.ts -->
<g id="edge54" class="edge">
<title>component/chart/BarChart.tsx&#45;&gt;types/chart.d.ts</title>
<path fill="none" stroke="#757575" d="M1647.18,-151.26C1840.85,-167.24 2260.56,-201.88 2424.23,-215.39"/>
<polygon fill="#757575" stroke="#757575" points="2423.8,-218.87 2434.06,-216.2 2424.38,-211.89 2423.8,-218.87"/>
</g>
<!-- component/chart/ChartSvg.tsx -->
<g id="node42" class="node">
<title>component/chart/ChartSvg.tsx</title>
<path fill="none" stroke="#cfffac" d="M2148.83,-72.45C2148.83,-72.45 1958.17,-72.45 1958.17,-72.45 1954.33,-72.45 1950.5,-68.61 1950.5,-64.78 1950.5,-64.78 1950.5,-57.11 1950.5,-57.11 1950.5,-53.28 1954.33,-49.45 1958.17,-49.45 1958.17,-49.45 2148.83,-49.45 2148.83,-49.45 2152.67,-49.45 2156.5,-53.28 2156.5,-57.11 2156.5,-57.11 2156.5,-64.78 2156.5,-64.78 2156.5,-68.61 2152.67,-72.45 2148.83,-72.45"/>
<text text-anchor="middle" x="2053.5" y="-57.25" font-family="Arial" font-size="14.00" fill="#cfffac">component/chart/ChartSvg.tsx</text>
</g>
<!-- component/chart/BarChart.tsx&#45;&gt;component/chart/ChartSvg.tsx -->
<g id="edge52" class="edge">
<title>component/chart/BarChart.tsx&#45;&gt;component/chart/ChartSvg.tsx</title>
<path fill="none" stroke="#757575" d="M1647.23,-150.57C1691.87,-149.91 1743.74,-143.35 1786,-121.95 1807.63,-110.99 1800.36,-91.89 1822,-80.95 1857.48,-63 1899.98,-55.94 1938.77,-54.03"/>
<polygon fill="#757575" stroke="#757575" points="1938.76,-57.53 1948.62,-53.67 1938.5,-50.54 1938.76,-57.53"/>
</g>
<!-- hook/useResize.tsx -->
<g id="node43" class="node">
<title>hook/useResize.tsx</title>
<path fill="none" stroke="#cfffac" d="M2115.83,-113.45C2115.83,-113.45 1991.17,-113.45 1991.17,-113.45 1987.33,-113.45 1983.5,-109.61 1983.5,-105.78 1983.5,-105.78 1983.5,-98.11 1983.5,-98.11 1983.5,-94.28 1987.33,-90.45 1991.17,-90.45 1991.17,-90.45 2115.83,-90.45 2115.83,-90.45 2119.67,-90.45 2123.5,-94.28 2123.5,-98.11 2123.5,-98.11 2123.5,-105.78 2123.5,-105.78 2123.5,-109.61 2119.67,-113.45 2115.83,-113.45"/>
<text text-anchor="middle" x="2053.5" y="-98.25" font-family="Arial" font-size="14.00" fill="#cfffac">hook/useResize.tsx</text>
</g>
<!-- component/chart/BarChart.tsx&#45;&gt;hook/useResize.tsx -->
<g id="edge53" class="edge">
<title>component/chart/BarChart.tsx&#45;&gt;hook/useResize.tsx</title>
<path fill="none" stroke="#757575" d="M1647.38,-134.77C1742.67,-127.05 1883.75,-115.62 1971.8,-108.49"/>
<polygon fill="#757575" stroke="#757575" points="1971.87,-111.99 1981.55,-107.69 1971.3,-105.01 1971.87,-111.99"/>
</g>
<!-- component/chart/InformaticsChart.tsx&#45;&gt;types/chart.d.ts -->
<g id="edge56" class="edge">
<title>component/chart/InformaticsChart.tsx&#45;&gt;types/chart.d.ts</title>
<path fill="none" stroke="#757575" d="M1635.43,-272.93C1774.72,-289.56 2052.47,-314.04 2285,-280.95 2343.57,-272.61 2408.76,-251.6 2449.93,-236.81"/>
<polygon fill="#757575" stroke="#757575" points="2451,-240.14 2459.2,-233.43 2448.6,-233.56 2451,-240.14"/>
</g>
<!-- component/chart/InformaticsChart/InforMaticsBox.tsx -->
<g id="node44" class="node">
<title>component/chart/InformaticsChart/InforMaticsBox.tsx</title>
<path fill="none" stroke="#c6c5fe" d="M2220.83,-272.45C2220.83,-272.45 1886.17,-272.45 1886.17,-272.45 1882.33,-272.45 1878.5,-268.61 1878.5,-264.78 1878.5,-264.78 1878.5,-257.11 1878.5,-257.11 1878.5,-253.28 1882.33,-249.45 1886.17,-249.45 1886.17,-249.45 2220.83,-249.45 2220.83,-249.45 2224.67,-249.45 2228.5,-253.28 2228.5,-257.11 2228.5,-257.11 2228.5,-264.78 2228.5,-264.78 2228.5,-268.61 2224.67,-272.45 2220.83,-272.45"/>
<text text-anchor="middle" x="2053.5" y="-257.25" font-family="Arial" font-size="14.00" fill="#c6c5fe">component/chart/InformaticsChart/InforMaticsBox.tsx</text>
</g>
<!-- component/chart/InformaticsChart.tsx&#45;&gt;component/chart/InformaticsChart/InforMaticsBox.tsx -->
<g id="edge55" class="edge">
<title>component/chart/InformaticsChart.tsx&#45;&gt;component/chart/InformaticsChart/InforMaticsBox.tsx</title>
<path fill="none" stroke="#757575" d="M1671.9,-260.95C1730.7,-260.95 1801.94,-260.95 1866.82,-260.95"/>
<polygon fill="#757575" stroke="#757575" points="1866.5,-264.45 1876.5,-260.95 1866.5,-257.45 1866.5,-264.45"/>
</g>
<!-- component/chart/LineChart.tsx&#45;&gt;common/chart.ts -->
<g id="edge58" class="edge">
<title>component/chart/LineChart.tsx&#45;&gt;common/chart.ts</title>
<path fill="none" stroke="#757575" d="M1650.42,-110.37C1749.1,-118.36 1894.81,-130.17 1981.05,-137.16"/>
<polygon fill="#757575" stroke="#757575" points="1980.54,-140.63 1990.79,-137.95 1981.1,-133.65 1980.54,-140.63"/>
</g>
<!-- component/chart/LineChart.tsx&#45;&gt;types/chart.d.ts -->
<g id="edge61" class="edge">
<title>component/chart/LineChart.tsx&#45;&gt;types/chart.d.ts</title>
<path fill="none" stroke="#757575" d="M1577.7,-90.06C1681.98,-52.22 2026.39,57.35 2285,-39.95 2371.79,-72.6 2445.91,-160.13 2476.51,-200.29"/>
<polygon fill="#757575" stroke="#757575" points="2473.63,-202.29 2482.42,-208.21 2479.24,-198.1 2473.63,-202.29"/>
</g>
<!-- component/chart/LineChart.tsx&#45;&gt;component/chart/ChartSvg.tsx -->
<g id="edge59" class="edge">
<title>component/chart/LineChart.tsx&#45;&gt;component/chart/ChartSvg.tsx</title>
<path fill="none" stroke="#757575" d="M1650.42,-93.53C1734.29,-86.73 1852.13,-77.18 1938.57,-70.18"/>
<polygon fill="#757575" stroke="#757575" points="1938.82,-73.67 1948.5,-69.37 1938.25,-66.69 1938.82,-73.67"/>
</g>
<!-- component/chart/LineChart.tsx&#45;&gt;hook/useResize.tsx -->
<g id="edge60" class="edge">
<title>component/chart/LineChart.tsx&#45;&gt;hook/useResize.tsx</title>
<path fill="none" stroke="#757575" d="M1650.42,-101.95C1745.64,-101.95 1884.65,-101.95 1971.76,-101.95"/>
<polygon fill="#757575" stroke="#757575" points="1971.66,-105.45 1981.66,-101.95 1971.66,-98.45 1971.66,-105.45"/>
</g>
<!-- component/Widget/WidgetPropsSettingModal.tsx -->
<g id="node39" class="node">
<title>component/Widget/WidgetPropsSettingModal.tsx</title>
<path fill="none" stroke="#c6c5fe" d="M760.33,-636.45C760.33,-636.45 446.67,-636.45 446.67,-636.45 442.83,-636.45 439,-632.61 439,-628.78 439,-628.78 439,-621.11 439,-621.11 439,-617.28 442.83,-613.45 446.67,-613.45 446.67,-613.45 760.33,-613.45 760.33,-613.45 764.17,-613.45 768,-617.28 768,-621.11 768,-621.11 768,-628.78 768,-628.78 768,-632.61 764.17,-636.45 760.33,-636.45"/>
<text text-anchor="middle" x="603.5" y="-621.25" font-family="Arial" font-size="14.00" fill="#c6c5fe">component/Widget/WidgetPropsSettingModal.tsx</text>
</g>
<!-- component/Widget/WidgetPropsSettingModal.tsx&#45;&gt;common/api.ts -->
<g id="edge45" class="edge">
<title>component/Widget/WidgetPropsSettingModal.tsx&#45;&gt;common/api.ts</title>
<path fill="none" stroke="#757575" d="M768.49,-628.34C1085.85,-634.92 1771.7,-649.13 1986.67,-653.58"/>
<polygon fill="#757575" stroke="#757575" points="1986.47,-657.08 1996.54,-653.79 1986.62,-650.08 1986.47,-657.08"/>
</g>
<!-- component/Widget/WidgetPropsSettingModal.tsx&#45;&gt;store/WidgetPropsSettingModalProvider.tsx -->
<g id="edge48" class="edge">
<title>component/Widget/WidgetPropsSettingModal.tsx&#45;&gt;store/WidgetPropsSettingModalProvider.tsx</title>
<path fill="none" stroke="#757575" d="M634.31,-636.87C672.79,-651.59 742.15,-675.93 804,-685.95 1003.23,-718.2 1236.5,-717.68 1387.19,-712.44"/>
<polygon fill="#757575" stroke="#757575" points="1386.97,-715.95 1396.83,-712.09 1386.71,-708.95 1386.97,-715.95"/>
</g>
<!-- component/Widget/WidgetPropsSettingModal/WidgetPropsButtons.tsx -->
<g id="node40" class="node">
<title>component/Widget/WidgetPropsSettingModal/WidgetPropsButtons.tsx</title>
<path fill="none" stroke="#c6c5fe" d="M1261.33,-596.45C1261.33,-596.45 811.67,-596.45 811.67,-596.45 807.83,-596.45 804,-592.61 804,-588.78 804,-588.78 804,-581.11 804,-581.11 804,-577.28 807.83,-573.45 811.67,-573.45 811.67,-573.45 1261.33,-573.45 1261.33,-573.45 1265.17,-573.45 1269,-577.28 1269,-581.11 1269,-581.11 1269,-588.78 1269,-588.78 1269,-592.61 1265.17,-596.45 1261.33,-596.45"/>
<text text-anchor="middle" x="1036.5" y="-581.25" font-family="Arial" font-size="14.00" fill="#c6c5fe">component/Widget/WidgetPropsSettingModal/WidgetPropsButtons.tsx</text>
</g>
<!-- component/Widget/WidgetPropsSettingModal.tsx&#45;&gt;component/Widget/WidgetPropsSettingModal/WidgetPropsButtons.tsx -->
<g id="edge46" class="edge">
<title>component/Widget/WidgetPropsSettingModal.tsx&#45;&gt;component/Widget/WidgetPropsSettingModal/WidgetPropsButtons.tsx</title>
<path fill="none" stroke="#757575" d="M733.52,-612.97C784.47,-608.24 843.15,-602.8 895.15,-597.97"/>
<polygon fill="#757575" stroke="#757575" points="895.34,-601.47 904.98,-597.06 894.69,-594.5 895.34,-601.47"/>
</g>
<!-- component/Widget/WidgetPropsSettingModal/WidgetPropsList.tsx -->
<g id="node41" class="node">
<title>component/Widget/WidgetPropsSettingModal/WidgetPropsList.tsx</title>
<path fill="none" stroke="#cfffac" d="M1248.83,-676.45C1248.83,-676.45 824.17,-676.45 824.17,-676.45 820.33,-676.45 816.5,-672.61 816.5,-668.78 816.5,-668.78 816.5,-661.11 816.5,-661.11 816.5,-657.28 820.33,-653.45 824.17,-653.45 824.17,-653.45 1248.83,-653.45 1248.83,-653.45 1252.67,-653.45 1256.5,-657.28 1256.5,-661.11 1256.5,-661.11 1256.5,-668.78 1256.5,-668.78 1256.5,-672.61 1252.67,-676.45 1248.83,-676.45"/>
<text text-anchor="middle" x="1036.5" y="-661.25" font-family="Arial" font-size="14.00" fill="#cfffac">component/Widget/WidgetPropsSettingModal/WidgetPropsList.tsx</text>
</g>
<!-- component/Widget/WidgetPropsSettingModal.tsx&#45;&gt;component/Widget/WidgetPropsSettingModal/WidgetPropsList.tsx -->
<g id="edge47" class="edge">
<title>component/Widget/WidgetPropsSettingModal.tsx&#45;&gt;component/Widget/WidgetPropsSettingModal/WidgetPropsList.tsx</title>
<path fill="none" stroke="#757575" d="M733.52,-636.92C784.47,-641.65 843.15,-647.09 895.15,-651.92"/>
<polygon fill="#757575" stroke="#757575" points="894.69,-655.39 904.98,-652.83 895.34,-648.42 894.69,-655.39"/>
</g>
<!-- component/Widget/WidgetPropsSettingModal/WidgetPropsButtons.tsx&#45;&gt;store/WidgetPropsSettingModalProvider.tsx -->
<g id="edge49" class="edge">
<title>component/Widget/WidgetPropsSettingModal/WidgetPropsButtons.tsx&#45;&gt;store/WidgetPropsSettingModalProvider.tsx</title>
<path fill="none" stroke="#757575" d="M1088.43,-596.9C1182.1,-618.89 1381.36,-665.65 1482.63,-689.43"/>
<polygon fill="#757575" stroke="#757575" points="1481.59,-692.78 1492.13,-691.65 1483.19,-685.96 1481.59,-692.78"/>
</g>
<!-- component/Widget/WidgetPropsSettingModal/WidgetPropsButtons.tsx&#45;&gt;store/WidgetProvider.tsx -->
<g id="edge50" class="edge">
<title>component/Widget/WidgetPropsSettingModal/WidgetPropsButtons.tsx&#45;&gt;store/WidgetProvider.tsx</title>
<path fill="none" stroke="#757575" d="M1269.49,-577.17C1332.15,-575.07 1396.58,-572.91 1447.31,-571.21"/>
<polygon fill="#757575" stroke="#757575" points="1447.19,-574.71 1457.06,-570.88 1446.95,-567.72 1447.19,-574.71"/>
</g>
<!-- component/chart/InformaticsChart/InforMaticsBox.tsx&#45;&gt;types/chart.d.ts -->
<g id="edge57" class="edge">
<title>component/chart/InformaticsChart/InforMaticsBox.tsx&#45;&gt;types/chart.d.ts</title>
<path fill="none" stroke="#757575" d="M2185.32,-248.97C2263.91,-241.78 2360.65,-232.92 2424.09,-227.12"/>
<polygon fill="#757575" stroke="#757575" points="2424.39,-230.6 2434.03,-226.21 2423.75,-223.63 2424.39,-230.6"/>
</g>
<!-- component/common/DatePicker/DatePickerTitle.tsx&#45;&gt;types/widget.d.ts -->
<g id="edge65" class="edge">
<title>component/common/DatePicker/DatePickerTitle.tsx&#45;&gt;types/widget.d.ts</title>
<path fill="none" stroke="#757575" d="M2503.11,-1066.99C2531.71,-1031.63 2619.33,-924.96 2700,-843.95 2771.27,-772.37 2862.98,-695.14 2905.47,-660.14"/>
<polygon fill="#757575" stroke="#757575" points="2907.56,-662.95 2913.06,-653.9 2903.11,-657.54 2907.56,-662.95"/>
</g>
<!-- component/common/DatePicker/ListPicker.tsx&#45;&gt;types/datePicker.d.ts -->
<g id="edge67" class="edge">
<title>component/common/DatePicker/ListPicker.tsx&#45;&gt;types/datePicker.d.ts</title>
<path fill="none" stroke="#757575" d="M2646.73,-1130.5C2712.86,-1135.06 2787.71,-1140.21 2843.71,-1144.07"/>
<polygon fill="#757575" stroke="#757575" points="2843.28,-1147.55 2853.49,-1144.74 2843.76,-1140.57 2843.28,-1147.55"/>
</g>
<!-- component/common/DatePicker/ListPickerItem.tsx -->
<g id="node48" class="node">
<title>component/common/DatePicker/ListPickerItem.tsx</title>
<path fill="none" stroke="#c6c5fe" d="M3090.83,-1110.45C3090.83,-1110.45 2769.17,-1110.45 2769.17,-1110.45 2765.33,-1110.45 2761.5,-1106.61 2761.5,-1102.78 2761.5,-1102.78 2761.5,-1095.11 2761.5,-1095.11 2761.5,-1091.28 2765.33,-1087.45 2769.17,-1087.45 2769.17,-1087.45 3090.83,-1087.45 3090.83,-1087.45 3094.67,-1087.45 3098.5,-1091.28 3098.5,-1095.11 3098.5,-1095.11 3098.5,-1102.78 3098.5,-1102.78 3098.5,-1106.61 3094.67,-1110.45 3090.83,-1110.45"/>
<text text-anchor="middle" x="2930" y="-1095.25" font-family="Arial" font-size="14.00" fill="#c6c5fe">component/common/DatePicker/ListPickerItem.tsx</text>
</g>
<!-- component/common/DatePicker/ListPicker.tsx&#45;&gt;component/common/DatePicker/ListPickerItem.tsx -->
<g id="edge66" class="edge">
<title>component/common/DatePicker/ListPicker.tsx&#45;&gt;component/common/DatePicker/ListPickerItem.tsx</title>
<path fill="none" stroke="#757575" d="M2646.73,-1112.56C2680.12,-1110.95 2715.72,-1109.23 2750,-1107.58"/>
<polygon fill="#757575" stroke="#757575" points="2749.75,-1111.09 2759.57,-1107.12 2749.41,-1104.1 2749.75,-1111.09"/>
</g>
<!-- component/common/DatePicker/ListPickerItem.tsx&#45;&gt;component/Dashboard/CommonStyle.ts -->
<g id="edge68" class="edge">
<title>component/common/DatePicker/ListPickerItem.tsx&#45;&gt;component/Dashboard/CommonStyle.ts</title>
<path fill="none" stroke="#757575" d="M3022.42,-1086.99C3065.04,-1079.8 3115.96,-1068.88 3160,-1052.95 3213.48,-1033.6 3270.65,-999.55 3303.19,-978.74"/>
<polygon fill="#757575" stroke="#757575" points="3304.7,-981.93 3311.2,-973.56 3300.9,-976.06 3304.7,-981.93"/>
</g>
<!-- page/Dashboard.tsx&#45;&gt;component/Dashboard/DashboardHeader.tsx -->
<g id="edge75" class="edge">
<title>page/Dashboard.tsx&#45;&gt;component/Dashboard/DashboardHeader.tsx</title>
<path fill="none" stroke="#757575" d="M344.68,-575.9C387.72,-616.48 528.48,-749.16 581.79,-799.42"/>
<polygon fill="#757575" stroke="#757575" points="579.06,-801.66 588.74,-805.98 583.87,-796.57 579.06,-801.66"/>
</g>
<!-- page/Dashboard.tsx&#45;&gt;component/Widget.tsx -->
<g id="edge76" class="edge">
<title>page/Dashboard.tsx&#45;&gt;component/Widget.tsx</title>
<path fill="none" stroke="#757575" d="M346.51,-552.2C366.43,-536.48 403.81,-508.43 439,-489.95 475.46,-470.79 519.19,-454.53 552.25,-443.47"/>
<polygon fill="#757575" stroke="#757575" points="553.19,-446.85 561.59,-440.39 551,-440.2 553.19,-446.85"/>
</g>
<!-- page/Dashboard.tsx&#45;&gt;store/WidgetProvider.tsx -->
<g id="edge78" class="edge">
<title>page/Dashboard.tsx&#45;&gt;store/WidgetProvider.tsx</title>
<path fill="none" stroke="#757575" d="M403.23,-554.79C559.96,-535.95 946.44,-496.78 1269,-522.95 1278.68,-523.73 1384.34,-541.19 1461.93,-554.13"/>
<polygon fill="#757575" stroke="#757575" points="1461.23,-557.56 1471.67,-555.75 1462.38,-550.65 1461.23,-557.56"/>
</g>
<!-- page/Dashboard.tsx&#45;&gt;component/Widget/WidgetPropsSettingModal.tsx -->
<g id="edge77" class="edge">
<title>page/Dashboard.tsx&#45;&gt;component/Widget/WidgetPropsSettingModal.tsx</title>
<path fill="none" stroke="#757575" d="M385.12,-575.93C429.04,-585.83 491.56,-599.93 538.29,-610.47"/>
<polygon fill="#757575" stroke="#757575" points="537.5,-613.88 548.03,-612.66 539.04,-607.05 537.5,-613.88"/>
</g>
</g>
</svg>
