<?xml version="1.0" encoding="UTF-8" standalone="no"?>
<!DOCTYPE svg PUBLIC "-//W3C//DTD SVG 1.1//EN"
 "http://www.w3.org/Graphics/SVG/1.1/DTD/svg11.dtd">
<!-- Generated by graphviz version 7.1.0 (20230121.1956)
 -->
<!-- Title: G Pages: 1 -->
<svg width="3080pt" height="958pt"
 viewBox="0.00 0.00 3080.20 958.04" xmlns="http://www.w3.org/2000/svg" xmlns:xlink="http://www.w3.org/1999/xlink">
<g id="graph0" class="graph" transform="scale(1 1) rotate(0) translate(21.6 936.44)">
<title>G</title>
<polygon fill="#111111" stroke="none" points="-21.6,21.6 -21.6,-936.44 3058.6,-936.44 3058.6,21.6 -21.6,21.6"/>
<!-- App.tsx -->
<g id="node1" class="node">
<title>App.tsx</title>
<path fill="none" stroke="#c6c5fe" d="M57.33,-509.84C57.33,-509.84 7.67,-509.84 7.67,-509.84 3.83,-509.84 0,-506 0,-502.17 0,-502.17 0,-494.5 0,-494.5 0,-490.67 3.83,-486.84 7.67,-486.84 7.67,-486.84 57.33,-486.84 57.33,-486.84 61.17,-486.84 65,-490.67 65,-494.5 65,-494.5 65,-502.17 65,-502.17 65,-506 61.17,-509.84 57.33,-509.84"/>
<text text-anchor="middle" x="32.5" y="-494.64" font-family="Arial" font-size="14.00" fill="#c6c5fe">App.tsx</text>
</g>
<!-- router/Router.tsx -->
<g id="node2" class="node">
<title>router/Router.tsx</title>
<path fill="none" stroke="#c6c5fe" d="M215.33,-509.84C215.33,-509.84 108.67,-509.84 108.67,-509.84 104.83,-509.84 101,-506 101,-502.17 101,-502.17 101,-494.5 101,-494.5 101,-490.67 104.83,-486.84 108.67,-486.84 108.67,-486.84 215.33,-486.84 215.33,-486.84 219.17,-486.84 223,-490.67 223,-494.5 223,-494.5 223,-502.17 223,-502.17 223,-506 219.17,-509.84 215.33,-509.84"/>
<text text-anchor="middle" x="162" y="-494.64" font-family="Arial" font-size="14.00" fill="#c6c5fe">router/Router.tsx</text>
</g>
<!-- App.tsx&#45;&gt;router/Router.tsx -->
<g id="edge1" class="edge">
<title>App.tsx&#45;&gt;router/Router.tsx</title>
<path fill="none" stroke="#757575" d="M65.34,-498.34C72.7,-498.34 80.81,-498.34 89.12,-498.34"/>
<polygon fill="#757575" stroke="#757575" points="88.99,-501.84 98.99,-498.34 88.99,-494.84 88.99,-501.84"/>
</g>
<!-- page/Dashboard.tsx -->
<g id="node48" class="node">
<title>page/Dashboard.tsx</title>
<path fill="none" stroke="#c6c5fe" d="M395.33,-509.84C395.33,-509.84 266.67,-509.84 266.67,-509.84 262.83,-509.84 259,-506 259,-502.17 259,-502.17 259,-494.5 259,-494.5 259,-490.67 262.83,-486.84 266.67,-486.84 266.67,-486.84 395.33,-486.84 395.33,-486.84 399.17,-486.84 403,-490.67 403,-494.5 403,-494.5 403,-502.17 403,-502.17 403,-506 399.17,-509.84 395.33,-509.84"/>
<text text-anchor="middle" x="331" y="-494.64" font-family="Arial" font-size="14.00" fill="#c6c5fe">page/Dashboard.tsx</text>
</g>
<!-- router/Router.tsx&#45;&gt;page/Dashboard.tsx -->
<g id="edge68" class="edge">
<title>router/Router.tsx&#45;&gt;page/Dashboard.tsx</title>
<path fill="none" stroke="#757575" d="M223.29,-498.34C231.1,-498.34 239.21,-498.34 247.3,-498.34"/>
<polygon fill="#757575" stroke="#757575" points="247.19,-501.84 257.19,-498.34 247.19,-494.84 247.19,-501.84"/>
</g>
<!-- asset/image/pause.png -->
<g id="node3" class="node">
<title>asset/image/pause.png</title>
<path fill="none" stroke="#cfffac" d="M1619.83,-791.84C1619.83,-791.84 1471.17,-791.84 1471.17,-791.84 1467.33,-791.84 1463.5,-788 1463.5,-784.17 1463.5,-784.17 1463.5,-776.5 1463.5,-776.5 1463.5,-772.67 1467.33,-768.84 1471.17,-768.84 1471.17,-768.84 1619.83,-768.84 1619.83,-768.84 1623.67,-768.84 1627.5,-772.67 1627.5,-776.5 1627.5,-776.5 1627.5,-784.17 1627.5,-784.17 1627.5,-788 1623.67,-791.84 1619.83,-791.84"/>
<text text-anchor="middle" x="1545.5" y="-776.64" font-family="Arial" font-size="14.00" fill="#cfffac">asset/image/pause.png</text>
</g>
<!-- asset/image/play.png -->
<g id="node4" class="node">
<title>asset/image/play.png</title>
<path fill="none" stroke="#cfffac" d="M1613.33,-832.84C1613.33,-832.84 1477.67,-832.84 1477.67,-832.84 1473.83,-832.84 1470,-829 1470,-825.17 1470,-825.17 1470,-817.5 1470,-817.5 1470,-813.67 1473.83,-809.84 1477.67,-809.84 1477.67,-809.84 1613.33,-809.84 1613.33,-809.84 1617.17,-809.84 1621,-813.67 1621,-817.5 1621,-817.5 1621,-825.17 1621,-825.17 1621,-829 1617.17,-832.84 1613.33,-832.84"/>
<text text-anchor="middle" x="1545.5" y="-817.64" font-family="Arial" font-size="14.00" fill="#cfffac">asset/image/play.png</text>
</g>
<!-- common/api.ts -->
<g id="node5" class="node">
<title>common/api.ts</title>
<path fill="none" stroke="#c6c5fe" d="M2100.83,-547.84C2100.83,-547.84 2006.17,-547.84 2006.17,-547.84 2002.33,-547.84 1998.5,-544 1998.5,-540.17 1998.5,-540.17 1998.5,-532.5 1998.5,-532.5 1998.5,-528.67 2002.33,-524.84 2006.17,-524.84 2006.17,-524.84 2100.83,-524.84 2100.83,-524.84 2104.67,-524.84 2108.5,-528.67 2108.5,-532.5 2108.5,-532.5 2108.5,-540.17 2108.5,-540.17 2108.5,-544 2104.67,-547.84 2100.83,-547.84"/>
<text text-anchor="middle" x="2053.5" y="-532.64" font-family="Arial" font-size="14.00" fill="#c6c5fe">common/api.ts</text>
</g>
<!-- types/api.d.ts -->
<g id="node6" class="node">
<title>types/api.d.ts</title>
<path fill="none" stroke="#cfffac" d="M2535.33,-547.84C2535.33,-547.84 2449.67,-547.84 2449.67,-547.84 2445.83,-547.84 2442,-544 2442,-540.17 2442,-540.17 2442,-532.5 2442,-532.5 2442,-528.67 2445.83,-524.84 2449.67,-524.84 2449.67,-524.84 2535.33,-524.84 2535.33,-524.84 2539.17,-524.84 2543,-528.67 2543,-532.5 2543,-532.5 2543,-540.17 2543,-540.17 2543,-544 2539.17,-547.84 2535.33,-547.84"/>
<text text-anchor="middle" x="2492.5" y="-532.64" font-family="Arial" font-size="14.00" fill="#cfffac">types/api.d.ts</text>
</g>
<!-- common/api.ts&#45;&gt;types/api.d.ts -->
<g id="edge2" class="edge">
<title>common/api.ts&#45;&gt;types/api.d.ts</title>
<path fill="none" stroke="#757575" d="M2108.96,-536.34C2190.77,-536.34 2344.89,-536.34 2430.41,-536.34"/>
<polygon fill="#757575" stroke="#757575" points="2430.25,-539.84 2440.25,-536.34 2430.25,-532.84 2430.25,-539.84"/>
</g>
<!-- common/chart.ts -->
<g id="node7" class="node">
<title>common/chart.ts</title>
<path fill="none" stroke="#c6c5fe" d="M2106.83,-148.84C2106.83,-148.84 2000.17,-148.84 2000.17,-148.84 1996.33,-148.84 1992.5,-145 1992.5,-141.17 1992.5,-141.17 1992.5,-133.5 1992.5,-133.5 1992.5,-129.67 1996.33,-125.84 2000.17,-125.84 2000.17,-125.84 2106.83,-125.84 2106.83,-125.84 2110.67,-125.84 2114.5,-129.67 2114.5,-133.5 2114.5,-133.5 2114.5,-141.17 2114.5,-141.17 2114.5,-145 2110.67,-148.84 2106.83,-148.84"/>
<text text-anchor="middle" x="2053.5" y="-133.64" font-family="Arial" font-size="14.00" fill="#c6c5fe">common/chart.ts</text>
</g>
<!-- types/chart.d.ts -->
<g id="node8" class="node">
<title>types/chart.d.ts</title>
<path fill="none" stroke="#cfffac" d="M2541.33,-128.84C2541.33,-128.84 2443.67,-128.84 2443.67,-128.84 2439.83,-128.84 2436,-125 2436,-121.17 2436,-121.17 2436,-113.5 2436,-113.5 2436,-109.67 2439.83,-105.84 2443.67,-105.84 2443.67,-105.84 2541.33,-105.84 2541.33,-105.84 2545.17,-105.84 2549,-109.67 2549,-113.5 2549,-113.5 2549,-121.17 2549,-121.17 2549,-125 2545.17,-128.84 2541.33,-128.84"/>
<text text-anchor="middle" x="2492.5" y="-113.64" font-family="Arial" font-size="14.00" fill="#cfffac">types/chart.d.ts</text>
</g>
<!-- common/chart.ts&#45;&gt;types/chart.d.ts -->
<g id="edge3" class="edge">
<title>common/chart.ts&#45;&gt;types/chart.d.ts</title>
<path fill="none" stroke="#757575" d="M2114.8,-134.58C2195.95,-130.86 2339.84,-124.28 2424.35,-120.41"/>
<polygon fill="#757575" stroke="#757575" points="2424.27,-123.92 2434.1,-119.96 2423.95,-116.92 2424.27,-123.92"/>
</g>
<!-- common/date.ts -->
<g id="node9" class="node">
<title>common/date.ts</title>
<path fill="none" stroke="#cfffac" d="M2544.33,-588.84C2544.33,-588.84 2440.67,-588.84 2440.67,-588.84 2436.83,-588.84 2433,-585 2433,-581.17 2433,-581.17 2433,-573.5 2433,-573.5 2433,-569.67 2436.83,-565.84 2440.67,-565.84 2440.67,-565.84 2544.33,-565.84 2544.33,-565.84 2548.17,-565.84 2552,-569.67 2552,-573.5 2552,-573.5 2552,-581.17 2552,-581.17 2552,-585 2548.17,-588.84 2544.33,-588.84"/>
<text text-anchor="middle" x="2492.5" y="-573.64" font-family="Arial" font-size="14.00" fill="#cfffac">common/date.ts</text>
</g>
<!-- common/widget.ts -->
<g id="node10" class="node">
<title>common/widget.ts</title>
<path fill="none" stroke="#cfffac" d="M2111.83,-353.84C2111.83,-353.84 1995.17,-353.84 1995.17,-353.84 1991.33,-353.84 1987.5,-350 1987.5,-346.17 1987.5,-346.17 1987.5,-338.5 1987.5,-338.5 1987.5,-334.67 1991.33,-330.84 1995.17,-330.84 1995.17,-330.84 2111.83,-330.84 2111.83,-330.84 2115.67,-330.84 2119.5,-334.67 2119.5,-338.5 2119.5,-338.5 2119.5,-346.17 2119.5,-346.17 2119.5,-350 2115.67,-353.84 2111.83,-353.84"/>
<text text-anchor="middle" x="2053.5" y="-338.64" font-family="Arial" font-size="14.00" fill="#cfffac">common/widget.ts</text>
</g>
<!-- component/Dashboard/DashboardHeader.tsx -->
<g id="node11" class="node">
<title>component/Dashboard/DashboardHeader.tsx</title>
<path fill="none" stroke="#c6c5fe" d="M747.33,-725.84C747.33,-725.84 459.67,-725.84 459.67,-725.84 455.83,-725.84 452,-722 452,-718.17 452,-718.17 452,-710.5 452,-710.5 452,-706.67 455.83,-702.84 459.67,-702.84 459.67,-702.84 747.33,-702.84 747.33,-702.84 751.17,-702.84 755,-706.67 755,-710.5 755,-710.5 755,-718.17 755,-718.17 755,-722 751.17,-725.84 747.33,-725.84"/>
<text text-anchor="middle" x="603.5" y="-710.64" font-family="Arial" font-size="14.00" fill="#c6c5fe">component/Dashboard/DashboardHeader.tsx</text>
</g>
<!-- component/Dashboard/DashboardHeader/PlayIcon.tsx -->
<g id="node12" class="node">
<title>component/Dashboard/DashboardHeader/PlayIcon.tsx</title>
<path fill="none" stroke="#c6c5fe" d="M1209.83,-791.84C1209.83,-791.84 863.17,-791.84 863.17,-791.84 859.33,-791.84 855.5,-788 855.5,-784.17 855.5,-784.17 855.5,-776.5 855.5,-776.5 855.5,-772.67 859.33,-768.84 863.17,-768.84 863.17,-768.84 1209.83,-768.84 1209.83,-768.84 1213.67,-768.84 1217.5,-772.67 1217.5,-776.5 1217.5,-776.5 1217.5,-784.17 1217.5,-784.17 1217.5,-788 1213.67,-791.84 1209.83,-791.84"/>
<text text-anchor="middle" x="1036.5" y="-776.64" font-family="Arial" font-size="14.00" fill="#c6c5fe">component/Dashboard/DashboardHeader/PlayIcon.tsx</text>
</g>
<!-- component/Dashboard/DashboardHeader.tsx&#45;&gt;component/Dashboard/DashboardHeader/PlayIcon.tsx -->
<g id="edge4" class="edge">
<title>component/Dashboard/DashboardHeader.tsx&#45;&gt;component/Dashboard/DashboardHeader/PlayIcon.tsx</title>
<path fill="none" stroke="#757575" d="M655.92,-726.31C696.07,-735.31 753.34,-747.41 804,-755.34 832.69,-759.82 863.5,-763.76 892.99,-767.1"/>
<polygon fill="#757575" stroke="#757575" points="892.38,-770.56 902.71,-768.19 893.16,-763.6 892.38,-770.56"/>
</g>
<!-- component/Dashboard/DashboardHeader/SelectRealTimeRangeArea.tsx -->
<g id="node13" class="node">
<title>component/Dashboard/DashboardHeader/SelectRealTimeRangeArea.tsx</title>
<path fill="none" stroke="#c6c5fe" d="M1778.33,-873.84C1778.33,-873.84 1312.67,-873.84 1312.67,-873.84 1308.83,-873.84 1305,-870 1305,-866.17 1305,-866.17 1305,-858.5 1305,-858.5 1305,-854.67 1308.83,-850.84 1312.67,-850.84 1312.67,-850.84 1778.33,-850.84 1778.33,-850.84 1782.17,-850.84 1786,-854.67 1786,-858.5 1786,-858.5 1786,-866.17 1786,-866.17 1786,-870 1782.17,-873.84 1778.33,-873.84"/>
<text text-anchor="middle" x="1545.5" y="-858.64" font-family="Arial" font-size="14.00" fill="#c6c5fe">component/Dashboard/DashboardHeader/SelectRealTimeRangeArea.tsx</text>
</g>
<!-- component/Dashboard/DashboardHeader.tsx&#45;&gt;component/Dashboard/DashboardHeader/SelectRealTimeRangeArea.tsx -->
<g id="edge5" class="edge">
<title>component/Dashboard/DashboardHeader.tsx&#45;&gt;component/Dashboard/DashboardHeader/SelectRealTimeRangeArea.tsx</title>
<path fill="none" stroke="#757575" d="M625.52,-726.29C661.01,-745.82 735.66,-784.13 804,-801.34 963.86,-841.6 1148.65,-856.86 1293.64,-862.05"/>
<polygon fill="#757575" stroke="#757575" points="1293.26,-865.54 1303.38,-862.39 1293.5,-858.55 1293.26,-865.54"/>
</g>
<!-- component/Dashboard/DashboardHeader/TimeBlock.tsx -->
<g id="node14" class="node">
<title>component/Dashboard/DashboardHeader/TimeBlock.tsx</title>
<path fill="none" stroke="#c6c5fe" d="M1215.83,-745.84C1215.83,-745.84 857.17,-745.84 857.17,-745.84 853.33,-745.84 849.5,-742 849.5,-738.17 849.5,-738.17 849.5,-730.5 849.5,-730.5 849.5,-726.67 853.33,-722.84 857.17,-722.84 857.17,-722.84 1215.83,-722.84 1215.83,-722.84 1219.67,-722.84 1223.5,-726.67 1223.5,-730.5 1223.5,-730.5 1223.5,-738.17 1223.5,-738.17 1223.5,-742 1219.67,-745.84 1215.83,-745.84"/>
<text text-anchor="middle" x="1036.5" y="-730.64" font-family="Arial" font-size="14.00" fill="#c6c5fe">component/Dashboard/DashboardHeader/TimeBlock.tsx</text>
</g>
<!-- component/Dashboard/DashboardHeader.tsx&#45;&gt;component/Dashboard/DashboardHeader/TimeBlock.tsx -->
<g id="edge6" class="edge">
<title>component/Dashboard/DashboardHeader.tsx&#45;&gt;component/Dashboard/DashboardHeader/TimeBlock.tsx</title>
<path fill="none" stroke="#757575" d="M755.24,-721.33C781.91,-722.57 810.04,-723.87 837.77,-725.16"/>
<polygon fill="#757575" stroke="#757575" points="837.55,-728.65 847.7,-725.62 837.87,-721.66 837.55,-728.65"/>
</g>
<!-- store/DashboardProvider.tsx -->
<g id="node15" class="node">
<title>store/DashboardProvider.tsx</title>
<path fill="none" stroke="#c6c5fe" d="M2144.33,-588.84C2144.33,-588.84 1962.67,-588.84 1962.67,-588.84 1958.83,-588.84 1955,-585 1955,-581.17 1955,-581.17 1955,-573.5 1955,-573.5 1955,-569.67 1958.83,-565.84 1962.67,-565.84 1962.67,-565.84 2144.33,-565.84 2144.33,-565.84 2148.17,-565.84 2152,-569.67 2152,-573.5 2152,-573.5 2152,-581.17 2152,-581.17 2152,-585 2148.17,-588.84 2144.33,-588.84"/>
<text text-anchor="middle" x="2053.5" y="-573.64" font-family="Arial" font-size="14.00" fill="#c6c5fe">store/DashboardProvider.tsx</text>
</g>
<!-- component/Dashboard/DashboardHeader.tsx&#45;&gt;store/DashboardProvider.tsx -->
<g id="edge7" class="edge">
<title>component/Dashboard/DashboardHeader.tsx&#45;&gt;store/DashboardProvider.tsx</title>
<path fill="none" stroke="#757575" d="M755.45,-706.13C1068.88,-688.89 1763.18,-649.57 1786,-638.34 1807.76,-627.63 1800.36,-608.28 1822,-597.34 1858.86,-578.69 1903.3,-571.79 1943.29,-570.22"/>
<polygon fill="#757575" stroke="#757575" points="1943.3,-573.72 1953.2,-569.95 1943.11,-566.73 1943.3,-573.72"/>
</g>
<!-- store/WidgetPropsSettingModalProvider.tsx -->
<g id="node16" class="node">
<title>store/WidgetPropsSettingModalProvider.tsx</title>
<path fill="none" stroke="#c6c5fe" d="M1684.83,-629.84C1684.83,-629.84 1406.17,-629.84 1406.17,-629.84 1402.33,-629.84 1398.5,-626 1398.5,-622.17 1398.5,-622.17 1398.5,-614.5 1398.5,-614.5 1398.5,-610.67 1402.33,-606.84 1406.17,-606.84 1406.17,-606.84 1684.83,-606.84 1684.83,-606.84 1688.67,-606.84 1692.5,-610.67 1692.5,-614.5 1692.5,-614.5 1692.5,-622.17 1692.5,-622.17 1692.5,-626 1688.67,-629.84 1684.83,-629.84"/>
<text text-anchor="middle" x="1545.5" y="-614.64" font-family="Arial" font-size="14.00" fill="#c6c5fe">store/WidgetPropsSettingModalProvider.tsx</text>
</g>
<!-- component/Dashboard/DashboardHeader.tsx&#45;&gt;store/WidgetPropsSettingModalProvider.tsx -->
<g id="edge8" class="edge">
<title>component/Dashboard/DashboardHeader.tsx&#45;&gt;store/WidgetPropsSettingModalProvider.tsx</title>
<path fill="none" stroke="#757575" d="M666.3,-702.4C705.61,-695.16 757.64,-686.22 804,-680.34 1004.55,-654.9 1237.04,-637.37 1387.22,-627.6"/>
<polygon fill="#757575" stroke="#757575" points="1387.08,-631.12 1396.83,-626.98 1386.63,-624.13 1387.08,-631.12"/>
</g>
<!-- component/Dashboard/DashboardHeader/PlayIcon.tsx&#45;&gt;asset/image/pause.png -->
<g id="edge16" class="edge">
<title>component/Dashboard/DashboardHeader/PlayIcon.tsx&#45;&gt;asset/image/pause.png</title>
<path fill="none" stroke="#757575" d="M1217.68,-780.34C1296.75,-780.34 1386.24,-780.34 1451.56,-780.34"/>
<polygon fill="#757575" stroke="#757575" points="1451.54,-783.84 1461.54,-780.34 1451.54,-776.84 1451.54,-783.84"/>
</g>
<!-- component/Dashboard/DashboardHeader/PlayIcon.tsx&#45;&gt;asset/image/play.png -->
<g id="edge17" class="edge">
<title>component/Dashboard/DashboardHeader/PlayIcon.tsx&#45;&gt;asset/image/play.png</title>
<path fill="none" stroke="#757575" d="M1185.85,-792.33C1274.52,-799.5 1384.05,-808.36 1458.58,-814.39"/>
<polygon fill="#757575" stroke="#757575" points="1458.02,-817.85 1468.27,-815.17 1458.58,-810.88 1458.02,-817.85"/>
</g>
<!-- hook/useBoolean.tsx -->
<g id="node22" class="node">
<title>hook/useBoolean.tsx</title>
<path fill="none" stroke="#cfffac" d="M2120.33,-629.84C2120.33,-629.84 1986.67,-629.84 1986.67,-629.84 1982.83,-629.84 1979,-626 1979,-622.17 1979,-622.17 1979,-614.5 1979,-614.5 1979,-610.67 1982.83,-606.84 1986.67,-606.84 1986.67,-606.84 2120.33,-606.84 2120.33,-606.84 2124.17,-606.84 2128,-610.67 2128,-614.5 2128,-614.5 2128,-622.17 2128,-622.17 2128,-626 2124.17,-629.84 2120.33,-629.84"/>
<text text-anchor="middle" x="2053.5" y="-614.64" font-family="Arial" font-size="14.00" fill="#cfffac">hook/useBoolean.tsx</text>
</g>
<!-- component/Dashboard/DashboardHeader/SelectRealTimeRangeArea.tsx&#45;&gt;hook/useBoolean.tsx -->
<g id="edge20" class="edge">
<title>component/Dashboard/DashboardHeader/SelectRealTimeRangeArea.tsx&#45;&gt;hook/useBoolean.tsx</title>
<path fill="none" stroke="#757575" d="M1597.48,-874.32C1651.38,-883.7 1735.45,-888.46 1786,-842.34 1854.01,-780.28 1754.09,-700.51 1822,-638.34 1866.07,-597.99 1936.75,-597.78 1988.23,-604.68"/>
<polygon fill="#757575" stroke="#757575" points="1987.66,-608.14 1998.07,-606.13 1988.69,-601.21 1987.66,-608.14"/>
</g>
<!-- hook/useOutsideClick.tsx -->
<g id="node23" class="node">
<title>hook/useOutsideClick.tsx</title>
<path fill="none" stroke="#cfffac" d="M2133.83,-832.84C2133.83,-832.84 1973.17,-832.84 1973.17,-832.84 1969.33,-832.84 1965.5,-829 1965.5,-825.17 1965.5,-825.17 1965.5,-817.5 1965.5,-817.5 1965.5,-813.67 1969.33,-809.84 1973.17,-809.84 1973.17,-809.84 2133.83,-809.84 2133.83,-809.84 2137.67,-809.84 2141.5,-813.67 2141.5,-817.5 2141.5,-817.5 2141.5,-825.17 2141.5,-825.17 2141.5,-829 2137.67,-832.84 2133.83,-832.84"/>
<text text-anchor="middle" x="2053.5" y="-817.64" font-family="Arial" font-size="14.00" fill="#cfffac">hook/useOutsideClick.tsx</text>
</g>
<!-- component/Dashboard/DashboardHeader/SelectRealTimeRangeArea.tsx&#45;&gt;hook/useOutsideClick.tsx -->
<g id="edge21" class="edge">
<title>component/Dashboard/DashboardHeader/SelectRealTimeRangeArea.tsx&#45;&gt;hook/useOutsideClick.tsx</title>
<path fill="none" stroke="#757575" d="M1694.56,-850.34C1778.2,-843.56 1880.44,-835.28 1954.2,-829.3"/>
<polygon fill="#757575" stroke="#757575" points="1954.14,-832.82 1963.82,-828.52 1953.57,-825.84 1954.14,-832.82"/>
</g>
<!-- component/Dashboard/DashboardHeader/RealTime.tsx -->
<g id="node24" class="node">
<title>component/Dashboard/DashboardHeader/RealTime.tsx</title>
<path fill="none" stroke="#cfffac" d="M2229.83,-914.84C2229.83,-914.84 1877.17,-914.84 1877.17,-914.84 1873.33,-914.84 1869.5,-911 1869.5,-907.17 1869.5,-907.17 1869.5,-899.5 1869.5,-899.5 1869.5,-895.67 1873.33,-891.84 1877.17,-891.84 1877.17,-891.84 2229.83,-891.84 2229.83,-891.84 2233.67,-891.84 2237.5,-895.67 2237.5,-899.5 2237.5,-899.5 2237.5,-907.17 2237.5,-907.17 2237.5,-911 2233.67,-914.84 2229.83,-914.84"/>
<text text-anchor="middle" x="2053.5" y="-899.64" font-family="Arial" font-size="14.00" fill="#cfffac">component/Dashboard/DashboardHeader/RealTime.tsx</text>
</g>
<!-- component/Dashboard/DashboardHeader/SelectRealTimeRangeArea.tsx&#45;&gt;component/Dashboard/DashboardHeader/RealTime.tsx -->
<g id="edge18" class="edge">
<title>component/Dashboard/DashboardHeader/SelectRealTimeRangeArea.tsx&#45;&gt;component/Dashboard/DashboardHeader/RealTime.tsx</title>
<path fill="none" stroke="#757575" d="M1694.56,-874.33C1757.01,-879.39 1829.84,-885.3 1893.44,-890.45"/>
<polygon fill="#757575" stroke="#757575" points="1893.03,-893.93 1903.28,-891.25 1893.6,-886.95 1893.03,-893.93"/>
</g>
<!-- component/Dashboard/DashboardHeader/SelectRealTimeListItem.tsx -->
<g id="node25" class="node">
<title>component/Dashboard/DashboardHeader/SelectRealTimeListItem.tsx</title>
<path fill="none" stroke="#cfffac" d="M2275.83,-873.84C2275.83,-873.84 1831.17,-873.84 1831.17,-873.84 1827.33,-873.84 1823.5,-870 1823.5,-866.17 1823.5,-866.17 1823.5,-858.5 1823.5,-858.5 1823.5,-854.67 1827.33,-850.84 1831.17,-850.84 1831.17,-850.84 2275.83,-850.84 2275.83,-850.84 2279.67,-850.84 2283.5,-854.67 2283.5,-858.5 2283.5,-858.5 2283.5,-866.17 2283.5,-866.17 2283.5,-870 2279.67,-873.84 2275.83,-873.84"/>
<text text-anchor="middle" x="2053.5" y="-858.64" font-family="Arial" font-size="14.00" fill="#cfffac">component/Dashboard/DashboardHeader/SelectRealTimeListItem.tsx</text>
</g>
<!-- component/Dashboard/DashboardHeader/SelectRealTimeRangeArea.tsx&#45;&gt;component/Dashboard/DashboardHeader/SelectRealTimeListItem.tsx -->
<g id="edge19" class="edge">
<title>component/Dashboard/DashboardHeader/SelectRealTimeRangeArea.tsx&#45;&gt;component/Dashboard/DashboardHeader/SelectRealTimeListItem.tsx</title>
<path fill="none" stroke="#757575" d="M1786.16,-862.34C1794.78,-862.34 1803.41,-862.34 1812.03,-862.34"/>
<polygon fill="#757575" stroke="#757575" points="1811.83,-865.84 1821.83,-862.34 1811.83,-858.84 1811.83,-865.84"/>
</g>
<!-- component/Dashboard/DashboardHeader/CurrentTime.tsx -->
<g id="node17" class="node">
<title>component/Dashboard/DashboardHeader/CurrentTime.tsx</title>
<path fill="none" stroke="#c6c5fe" d="M1730.83,-750.84C1730.83,-750.84 1360.17,-750.84 1360.17,-750.84 1356.33,-750.84 1352.5,-747 1352.5,-743.17 1352.5,-743.17 1352.5,-735.5 1352.5,-735.5 1352.5,-731.67 1356.33,-727.84 1360.17,-727.84 1360.17,-727.84 1730.83,-727.84 1730.83,-727.84 1734.67,-727.84 1738.5,-731.67 1738.5,-735.5 1738.5,-735.5 1738.5,-743.17 1738.5,-743.17 1738.5,-747 1734.67,-750.84 1730.83,-750.84"/>
<text text-anchor="middle" x="1545.5" y="-735.64" font-family="Arial" font-size="14.00" fill="#c6c5fe">component/Dashboard/DashboardHeader/CurrentTime.tsx</text>
</g>
<!-- component/Dashboard/DashboardHeader/TimeBlock.tsx&#45;&gt;component/Dashboard/DashboardHeader/CurrentTime.tsx -->
<g id="edge22" class="edge">
<title>component/Dashboard/DashboardHeader/TimeBlock.tsx&#45;&gt;component/Dashboard/DashboardHeader/CurrentTime.tsx</title>
<path fill="none" stroke="#757575" d="M1223.77,-736.17C1261.82,-736.55 1302.05,-736.95 1340.68,-737.33"/>
<polygon fill="#757575" stroke="#757575" points="1340.52,-740.83 1350.55,-737.42 1340.59,-733.83 1340.52,-740.83"/>
</g>
<!-- component/Dashboard/DashboardHeader/DatePickerArea.tsx -->
<g id="node20" class="node">
<title>component/Dashboard/DashboardHeader/DatePickerArea.tsx</title>
<path fill="none" stroke="#c6c5fe" d="M1741.33,-709.84C1741.33,-709.84 1349.67,-709.84 1349.67,-709.84 1345.83,-709.84 1342,-706 1342,-702.17 1342,-702.17 1342,-694.5 1342,-694.5 1342,-690.67 1345.83,-686.84 1349.67,-686.84 1349.67,-686.84 1741.33,-686.84 1741.33,-686.84 1745.17,-686.84 1749,-690.67 1749,-694.5 1749,-694.5 1749,-702.17 1749,-702.17 1749,-706 1745.17,-709.84 1741.33,-709.84"/>
<text text-anchor="middle" x="1545.5" y="-694.64" font-family="Arial" font-size="14.00" fill="#c6c5fe">component/Dashboard/DashboardHeader/DatePickerArea.tsx</text>
</g>
<!-- component/Dashboard/DashboardHeader/TimeBlock.tsx&#45;&gt;component/Dashboard/DashboardHeader/DatePickerArea.tsx -->
<g id="edge23" class="edge">
<title>component/Dashboard/DashboardHeader/TimeBlock.tsx&#45;&gt;component/Dashboard/DashboardHeader/DatePickerArea.tsx</title>
<path fill="none" stroke="#757575" d="M1206.32,-722.35C1257.05,-718.75 1312.88,-714.78 1364.3,-711.13"/>
<polygon fill="#757575" stroke="#757575" points="1364.31,-714.64 1374.04,-710.44 1363.82,-707.66 1364.31,-714.64"/>
</g>
<!-- store/DashboardProvider.tsx&#45;&gt;common/date.ts -->
<g id="edge69" class="edge">
<title>store/DashboardProvider.tsx&#45;&gt;common/date.ts</title>
<path fill="none" stroke="#757575" d="M2152.3,-577.34C2233.98,-577.34 2348.44,-577.34 2421.28,-577.34"/>
<polygon fill="#757575" stroke="#757575" points="2421.09,-580.84 2431.09,-577.34 2421.09,-573.84 2421.09,-580.84"/>
</g>
<!-- store/WidgetPropsSettingModalProvider.tsx&#45;&gt;hook/useBoolean.tsx -->
<g id="edge70" class="edge">
<title>store/WidgetPropsSettingModalProvider.tsx&#45;&gt;hook/useBoolean.tsx</title>
<path fill="none" stroke="#757575" d="M1692.86,-618.34C1781.97,-618.34 1892.7,-618.34 1967.57,-618.34"/>
<polygon fill="#757575" stroke="#757575" points="1967.3,-621.84 1977.3,-618.34 1967.3,-614.84 1967.3,-621.84"/>
</g>
<!-- hook/useCurrentTime.tsx -->
<g id="node18" class="node">
<title>hook/useCurrentTime.tsx</title>
<path fill="none" stroke="#cfffac" d="M2133.33,-791.84C2133.33,-791.84 1973.67,-791.84 1973.67,-791.84 1969.83,-791.84 1966,-788 1966,-784.17 1966,-784.17 1966,-776.5 1966,-776.5 1966,-772.67 1969.83,-768.84 1973.67,-768.84 1973.67,-768.84 2133.33,-768.84 2133.33,-768.84 2137.17,-768.84 2141,-772.67 2141,-776.5 2141,-776.5 2141,-784.17 2141,-784.17 2141,-788 2137.17,-791.84 2133.33,-791.84"/>
<text text-anchor="middle" x="2053.5" y="-776.64" font-family="Arial" font-size="14.00" fill="#cfffac">hook/useCurrentTime.tsx</text>
</g>
<!-- component/Dashboard/DashboardHeader/CurrentTime.tsx&#45;&gt;hook/useCurrentTime.tsx -->
<g id="edge9" class="edge">
<title>component/Dashboard/DashboardHeader/CurrentTime.tsx&#45;&gt;hook/useCurrentTime.tsx</title>
<path fill="none" stroke="#757575" d="M1694.56,-751.33C1778.34,-758.12 1880.78,-766.42 1954.57,-772.4"/>
<polygon fill="#757575" stroke="#757575" points="1953.94,-775.86 1964.19,-773.18 1954.51,-768.88 1953.94,-775.86"/>
</g>
<!-- component/Dashboard/DashboardHeader/DateBox.tsx -->
<g id="node19" class="node">
<title>component/Dashboard/DashboardHeader/DateBox.tsx</title>
<path fill="none" stroke="#cfffac" d="M2226.83,-670.84C2226.83,-670.84 1880.17,-670.84 1880.17,-670.84 1876.33,-670.84 1872.5,-667 1872.5,-663.17 1872.5,-663.17 1872.5,-655.5 1872.5,-655.5 1872.5,-651.67 1876.33,-647.84 1880.17,-647.84 1880.17,-647.84 2226.83,-647.84 2226.83,-647.84 2230.67,-647.84 2234.5,-651.67 2234.5,-655.5 2234.5,-655.5 2234.5,-663.17 2234.5,-663.17 2234.5,-667 2230.67,-670.84 2226.83,-670.84"/>
<text text-anchor="middle" x="2053.5" y="-655.64" font-family="Arial" font-size="14.00" fill="#cfffac">component/Dashboard/DashboardHeader/DateBox.tsx</text>
</g>
<!-- component/Dashboard/DashboardHeader/DatePickerArea.tsx&#45;&gt;common/date.ts -->
<g id="edge10" class="edge">
<title>component/Dashboard/DashboardHeader/DatePickerArea.tsx&#45;&gt;common/date.ts</title>
<path fill="none" stroke="#757575" d="M1719.75,-710.32C1906.21,-720.38 2188.96,-726.62 2285,-680.34 2307.45,-669.52 2300.51,-651.53 2321,-637.34 2351.59,-616.14 2390.42,-601.7 2423.31,-592.32"/>
<polygon fill="#757575" stroke="#757575" points="2424.03,-595.75 2432.75,-589.72 2422.18,-589 2424.03,-595.75"/>
</g>
<!-- component/Dashboard/DashboardHeader/DatePickerArea.tsx&#45;&gt;store/DashboardProvider.tsx -->
<g id="edge15" class="edge">
<title>component/Dashboard/DashboardHeader/DatePickerArea.tsx&#45;&gt;store/DashboardProvider.tsx</title>
<path fill="none" stroke="#757575" d="M1749.44,-691.67C1762.39,-686.66 1774.73,-680.31 1786,-672.34 1816.18,-650.98 1791.59,-618.36 1822,-597.34 1860.52,-570.7 1911.77,-564.18 1956.16,-564.98"/>
<polygon fill="#757575" stroke="#757575" points="1955.97,-568.47 1966.07,-565.29 1956.19,-561.48 1955.97,-568.47"/>
</g>
<!-- component/Dashboard/DashboardHeader/DatePickerArea.tsx&#45;&gt;component/Dashboard/DashboardHeader/DateBox.tsx -->
<g id="edge11" class="edge">
<title>component/Dashboard/DashboardHeader/DatePickerArea.tsx&#45;&gt;component/Dashboard/DashboardHeader/DateBox.tsx</title>
<path fill="none" stroke="#757575" d="M1702.1,-686.34C1760.22,-681.86 1826.43,-676.76 1885.53,-672.21"/>
<polygon fill="#757575" stroke="#757575" points="1885.66,-675.71 1895.36,-671.45 1885.12,-668.73 1885.66,-675.71"/>
</g>
<!-- component/common/DatePicker.tsx -->
<g id="node21" class="node">
<title>component/common/DatePicker.tsx</title>
<path fill="none" stroke="#c6c5fe" d="M2166.83,-750.84C2166.83,-750.84 1940.17,-750.84 1940.17,-750.84 1936.33,-750.84 1932.5,-747 1932.5,-743.17 1932.5,-743.17 1932.5,-735.5 1932.5,-735.5 1932.5,-731.67 1936.33,-727.84 1940.17,-727.84 1940.17,-727.84 2166.83,-727.84 2166.83,-727.84 2170.67,-727.84 2174.5,-731.67 2174.5,-735.5 2174.5,-735.5 2174.5,-743.17 2174.5,-743.17 2174.5,-747 2170.67,-750.84 2166.83,-750.84"/>
<text text-anchor="middle" x="2053.5" y="-735.64" font-family="Arial" font-size="14.00" fill="#c6c5fe">component/common/DatePicker.tsx</text>
</g>
<!-- component/Dashboard/DashboardHeader/DatePickerArea.tsx&#45;&gt;component/common/DatePicker.tsx -->
<g id="edge12" class="edge">
<title>component/Dashboard/DashboardHeader/DatePickerArea.tsx&#45;&gt;component/common/DatePicker.tsx</title>
<path fill="none" stroke="#757575" d="M1694.56,-710.33C1766.11,-716.13 1851.28,-723.03 1920.59,-728.65"/>
<polygon fill="#757575" stroke="#757575" points="1920.25,-732.13 1930.5,-729.45 1920.82,-725.16 1920.25,-732.13"/>
</g>
<!-- component/Dashboard/DashboardHeader/DatePickerArea.tsx&#45;&gt;hook/useBoolean.tsx -->
<g id="edge13" class="edge">
<title>component/Dashboard/DashboardHeader/DatePickerArea.tsx&#45;&gt;hook/useBoolean.tsx</title>
<path fill="none" stroke="#757575" d="M1747.8,-686.34C1760.99,-682.56 1773.85,-677.95 1786,-672.34 1805.98,-663.11 1801.92,-647.34 1822,-638.34 1867.09,-618.11 1922.09,-612.7 1967.05,-612.55"/>
<polygon fill="#757575" stroke="#757575" points="1967.01,-616.05 1977.03,-612.61 1967.05,-609.05 1967.01,-616.05"/>
</g>
<!-- component/Dashboard/DashboardHeader/DatePickerArea.tsx&#45;&gt;hook/useOutsideClick.tsx -->
<g id="edge14" class="edge">
<title>component/Dashboard/DashboardHeader/DatePickerArea.tsx&#45;&gt;hook/useOutsideClick.tsx</title>
<path fill="none" stroke="#757575" d="M1620.76,-686.34C1671.82,-682.21 1738.69,-685.4 1786,-719.34 1818.34,-742.54 1789.65,-778.15 1822,-801.34 1862.72,-830.52 1918.47,-836.01 1964.94,-833.98"/>
<polygon fill="#757575" stroke="#757575" points="1964.94,-837.48 1974.72,-833.41 1964.54,-830.49 1964.94,-837.48"/>
</g>
<!-- component/common/DatePicker/DatePickerTitle.tsx -->
<g id="node44" class="node">
<title>component/common/DatePicker/DatePickerTitle.tsx</title>
<path fill="none" stroke="#c6c5fe" d="M2656.33,-669.84C2656.33,-669.84 2328.67,-669.84 2328.67,-669.84 2324.83,-669.84 2321,-666 2321,-662.17 2321,-662.17 2321,-654.5 2321,-654.5 2321,-650.67 2324.83,-646.84 2328.67,-646.84 2328.67,-646.84 2656.33,-646.84 2656.33,-646.84 2660.17,-646.84 2664,-650.67 2664,-654.5 2664,-654.5 2664,-662.17 2664,-662.17 2664,-666 2660.17,-669.84 2656.33,-669.84"/>
<text text-anchor="middle" x="2492.5" y="-654.64" font-family="Arial" font-size="14.00" fill="#c6c5fe">component/common/DatePicker/DatePickerTitle.tsx</text>
</g>
<!-- component/common/DatePicker.tsx&#45;&gt;component/common/DatePicker/DatePickerTitle.tsx -->
<g id="edge52" class="edge">
<title>component/common/DatePicker.tsx&#45;&gt;component/common/DatePicker/DatePickerTitle.tsx</title>
<path fill="none" stroke="#757575" d="M2174.88,-731.69C2210.66,-727.83 2249.71,-722.03 2285,-713.34 2301.67,-709.23 2304.62,-704.47 2321,-699.34 2353.86,-689.05 2390.97,-679.85 2422.16,-672.78"/>
<polygon fill="#757575" stroke="#757575" points="2422.89,-676.2 2431.88,-670.61 2421.36,-669.37 2422.89,-676.2"/>
</g>
<!-- component/common/DatePicker/ListPicker.tsx -->
<g id="node45" class="node">
<title>component/common/DatePicker/ListPicker.tsx</title>
<path fill="none" stroke="#c6c5fe" d="M2638.83,-730.84C2638.83,-730.84 2346.17,-730.84 2346.17,-730.84 2342.33,-730.84 2338.5,-727 2338.5,-723.17 2338.5,-723.17 2338.5,-715.5 2338.5,-715.5 2338.5,-711.67 2342.33,-707.84 2346.17,-707.84 2346.17,-707.84 2638.83,-707.84 2638.83,-707.84 2642.67,-707.84 2646.5,-711.67 2646.5,-715.5 2646.5,-715.5 2646.5,-723.17 2646.5,-723.17 2646.5,-727 2642.67,-730.84 2638.83,-730.84"/>
<text text-anchor="middle" x="2492.5" y="-715.64" font-family="Arial" font-size="14.00" fill="#c6c5fe">component/common/DatePicker/ListPicker.tsx</text>
</g>
<!-- component/common/DatePicker.tsx&#45;&gt;component/common/DatePicker/ListPicker.tsx -->
<g id="edge53" class="edge">
<title>component/common/DatePicker.tsx&#45;&gt;component/common/DatePicker/ListPicker.tsx</title>
<path fill="none" stroke="#757575" d="M2174.78,-733.83C2221.76,-731.68 2276.39,-729.18 2326.91,-726.87"/>
<polygon fill="#757575" stroke="#757575" points="2326.96,-730.37 2336.79,-726.42 2326.64,-723.38 2326.96,-730.37"/>
</g>
<!-- types/datePicker.d.ts -->
<g id="node46" class="node">
<title>types/datePicker.d.ts</title>
<path fill="none" stroke="#cfffac" d="M2935.33,-770.84C2935.33,-770.84 2801.67,-770.84 2801.67,-770.84 2797.83,-770.84 2794,-767 2794,-763.17 2794,-763.17 2794,-755.5 2794,-755.5 2794,-751.67 2797.83,-747.84 2801.67,-747.84 2801.67,-747.84 2935.33,-747.84 2935.33,-747.84 2939.17,-747.84 2943,-751.67 2943,-755.5 2943,-755.5 2943,-763.17 2943,-763.17 2943,-767 2939.17,-770.84 2935.33,-770.84"/>
<text text-anchor="middle" x="2868.5" y="-755.64" font-family="Arial" font-size="14.00" fill="#cfffac">types/datePicker.d.ts</text>
</g>
<!-- component/common/DatePicker.tsx&#45;&gt;types/datePicker.d.ts -->
<g id="edge54" class="edge">
<title>component/common/DatePicker.tsx&#45;&gt;types/datePicker.d.ts</title>
<path fill="none" stroke="#757575" d="M2174.9,-742.3C2341.13,-746.39 2636.82,-753.66 2782.11,-757.24"/>
<polygon fill="#757575" stroke="#757575" points="2781.99,-760.73 2792.07,-757.48 2782.16,-753.74 2781.99,-760.73"/>
</g>
<!-- component/Widget.tsx -->
<g id="node26" class="node">
<title>component/Widget.tsx</title>
<path fill="none" stroke="#c6c5fe" d="M675.33,-351.84C675.33,-351.84 531.67,-351.84 531.67,-351.84 527.83,-351.84 524,-348 524,-344.17 524,-344.17 524,-336.5 524,-336.5 524,-332.67 527.83,-328.84 531.67,-328.84 531.67,-328.84 675.33,-328.84 675.33,-328.84 679.17,-328.84 683,-332.67 683,-336.5 683,-336.5 683,-344.17 683,-344.17 683,-348 679.17,-351.84 675.33,-351.84"/>
<text text-anchor="middle" x="603.5" y="-336.64" font-family="Arial" font-size="14.00" fill="#c6c5fe">component/Widget.tsx</text>
</g>
<!-- component/Widget.tsx&#45;&gt;hook/useBoolean.tsx -->
<g id="edge28" class="edge">
<title>component/Widget.tsx&#45;&gt;hook/useBoolean.tsx</title>
<path fill="none" stroke="#757575" d="M683.05,-350.68C719.75,-355.29 764.06,-360.52 804,-364.34 913.09,-374.76 1703.41,-384.3 1786,-456.34 1834.74,-498.85 1772.78,-555.38 1822,-597.34 1865.36,-634.29 1931.39,-636.76 1981.68,-631.6"/>
<polygon fill="#757575" stroke="#757575" points="1981.77,-635.11 1991.3,-630.48 1980.96,-628.16 1981.77,-635.11"/>
</g>
<!-- component/Widget/WidgetButtons.tsx -->
<g id="node27" class="node">
<title>component/Widget/WidgetButtons.tsx</title>
<path fill="none" stroke="#c6c5fe" d="M1157.33,-429.84C1157.33,-429.84 915.67,-429.84 915.67,-429.84 911.83,-429.84 908,-426 908,-422.17 908,-422.17 908,-414.5 908,-414.5 908,-410.67 911.83,-406.84 915.67,-406.84 915.67,-406.84 1157.33,-406.84 1157.33,-406.84 1161.17,-406.84 1165,-410.67 1165,-414.5 1165,-414.5 1165,-422.17 1165,-422.17 1165,-426 1161.17,-429.84 1157.33,-429.84"/>
<text text-anchor="middle" x="1036.5" y="-414.64" font-family="Arial" font-size="14.00" fill="#c6c5fe">component/Widget/WidgetButtons.tsx</text>
</g>
<!-- component/Widget.tsx&#45;&gt;component/Widget/WidgetButtons.tsx -->
<g id="edge24" class="edge">
<title>component/Widget.tsx&#45;&gt;component/Widget/WidgetButtons.tsx</title>
<path fill="none" stroke="#757575" d="M643.49,-352.27C683.44,-364.08 747.52,-381.86 804,-392.34 833.75,-397.86 865.88,-402.37 896.46,-405.99"/>
<polygon fill="#757575" stroke="#757575" points="895.81,-409.44 906.15,-407.11 896.62,-402.49 895.81,-409.44"/>
</g>
<!-- component/Widget/WidgetCallCycleSettingModal.tsx -->
<g id="node28" class="node">
<title>component/Widget/WidgetCallCycleSettingModal.tsx</title>
<path fill="none" stroke="#c6c5fe" d="M1713.33,-312.84C1713.33,-312.84 1377.67,-312.84 1377.67,-312.84 1373.83,-312.84 1370,-309 1370,-305.17 1370,-305.17 1370,-297.5 1370,-297.5 1370,-293.67 1373.83,-289.84 1377.67,-289.84 1377.67,-289.84 1713.33,-289.84 1713.33,-289.84 1717.17,-289.84 1721,-293.67 1721,-297.5 1721,-297.5 1721,-305.17 1721,-305.17 1721,-309 1717.17,-312.84 1713.33,-312.84"/>
<text text-anchor="middle" x="1545.5" y="-297.64" font-family="Arial" font-size="14.00" fill="#c6c5fe">component/Widget/WidgetCallCycleSettingModal.tsx</text>
</g>
<!-- component/Widget.tsx&#45;&gt;component/Widget/WidgetCallCycleSettingModal.tsx -->
<g id="edge25" class="edge">
<title>component/Widget.tsx&#45;&gt;component/Widget/WidgetCallCycleSettingModal.tsx</title>
<path fill="none" stroke="#757575" d="M683.43,-337.06C831.08,-330.94 1152.69,-317.59 1358.36,-309.06"/>
<polygon fill="#757575" stroke="#757575" points="1358.23,-312.57 1368.08,-308.66 1357.94,-305.57 1358.23,-312.57"/>
</g>
<!-- component/Widget/WidgetChart.tsx -->
<g id="node29" class="node">
<title>component/Widget/WidgetChart.tsx</title>
<path fill="none" stroke="#c6c5fe" d="M1149.83,-190.84C1149.83,-190.84 923.17,-190.84 923.17,-190.84 919.33,-190.84 915.5,-187 915.5,-183.17 915.5,-183.17 915.5,-175.5 915.5,-175.5 915.5,-171.67 919.33,-167.84 923.17,-167.84 923.17,-167.84 1149.83,-167.84 1149.83,-167.84 1153.67,-167.84 1157.5,-171.67 1157.5,-175.5 1157.5,-175.5 1157.5,-183.17 1157.5,-183.17 1157.5,-187 1153.67,-190.84 1149.83,-190.84"/>
<text text-anchor="middle" x="1036.5" y="-175.64" font-family="Arial" font-size="14.00" fill="#c6c5fe">component/Widget/WidgetChart.tsx</text>
</g>
<!-- component/Widget.tsx&#45;&gt;component/Widget/WidgetChart.tsx -->
<g id="edge26" class="edge">
<title>component/Widget.tsx&#45;&gt;component/Widget/WidgetChart.tsx</title>
<path fill="none" stroke="#757575" d="M636.54,-328.37C713.08,-299.78 906.55,-227.51 992.83,-195.28"/>
<polygon fill="#757575" stroke="#757575" points="993.98,-198.58 1002.12,-191.81 991.53,-192.03 993.98,-198.58"/>
</g>
<!-- hook/Widget/useHandleWidgetApi.tsx -->
<g id="node30" class="node">
<title>hook/Widget/useHandleWidgetApi.tsx</title>
<path fill="none" stroke="#c6c5fe" d="M1666.33,-373.84C1666.33,-373.84 1424.67,-373.84 1424.67,-373.84 1420.83,-373.84 1417,-370 1417,-366.17 1417,-366.17 1417,-358.5 1417,-358.5 1417,-354.67 1420.83,-350.84 1424.67,-350.84 1424.67,-350.84 1666.33,-350.84 1666.33,-350.84 1670.17,-350.84 1674,-354.67 1674,-358.5 1674,-358.5 1674,-366.17 1674,-366.17 1674,-370 1670.17,-373.84 1666.33,-373.84"/>
<text text-anchor="middle" x="1545.5" y="-358.64" font-family="Arial" font-size="14.00" fill="#c6c5fe">hook/Widget/useHandleWidgetApi.tsx</text>
</g>
<!-- component/Widget.tsx&#45;&gt;hook/Widget/useHandleWidgetApi.tsx -->
<g id="edge27" class="edge">
<title>component/Widget.tsx&#45;&gt;hook/Widget/useHandleWidgetApi.tsx</title>
<path fill="none" stroke="#757575" d="M683.43,-342.18C842.86,-345.92 1205.09,-354.39 1405.2,-359.08"/>
<polygon fill="#757575" stroke="#757575" points="1405.08,-362.57 1415.15,-359.31 1405.24,-355.58 1405.08,-362.57"/>
</g>
<!-- types/widget.d.ts -->
<g id="node31" class="node">
<title>types/widget.d.ts</title>
<path fill="none" stroke="#cfffac" d="M2922.33,-469.84C2922.33,-469.84 2814.67,-469.84 2814.67,-469.84 2810.83,-469.84 2807,-466 2807,-462.17 2807,-462.17 2807,-454.5 2807,-454.5 2807,-450.67 2810.83,-446.84 2814.67,-446.84 2814.67,-446.84 2922.33,-446.84 2922.33,-446.84 2926.17,-446.84 2930,-450.67 2930,-454.5 2930,-454.5 2930,-462.17 2930,-462.17 2930,-466 2926.17,-469.84 2922.33,-469.84"/>
<text text-anchor="middle" x="2868.5" y="-454.64" font-family="Arial" font-size="14.00" fill="#cfffac">types/widget.d.ts</text>
</g>
<!-- component/Widget.tsx&#45;&gt;types/widget.d.ts -->
<g id="edge29" class="edge">
<title>component/Widget.tsx&#45;&gt;types/widget.d.ts</title>
<path fill="none" stroke="#757575" d="M613.34,-328.61C638.84,-295.72 716.34,-202.12 804,-158.34 1103.65,-8.68 1209.56,-18.34 1544.5,-18.34 1544.5,-18.34 1544.5,-18.34 2054.5,-18.34 2327.6,-18.34 2437.52,56.28 2664,-96.34 2789.54,-180.93 2846.04,-370.28 2862.3,-435.64"/>
<polygon fill="#757575" stroke="#757575" points="2858.86,-436.29 2864.6,-445.2 2865.67,-434.66 2858.86,-436.29"/>
</g>
<!-- component/Widget/WidgetButtons.tsx&#45;&gt;store/WidgetPropsSettingModalProvider.tsx -->
<g id="edge30" class="edge">
<title>component/Widget/WidgetButtons.tsx&#45;&gt;store/WidgetPropsSettingModalProvider.tsx</title>
<path fill="none" stroke="#757575" d="M1103.03,-430.33C1150.18,-440.09 1214.75,-455.77 1269,-477.34 1286.01,-484.1 1288.83,-488.76 1305,-497.34 1377.36,-535.7 1463.29,-578.44 1510.02,-601.45"/>
<polygon fill="#757575" stroke="#757575" points="1508.33,-604.51 1518.84,-605.79 1511.41,-598.23 1508.33,-604.51"/>
</g>
<!-- store/WidgetProvider.tsx -->
<g id="node32" class="node">
<title>store/WidgetProvider.tsx</title>
<path fill="none" stroke="#c6c5fe" d="M1624.33,-488.84C1624.33,-488.84 1466.67,-488.84 1466.67,-488.84 1462.83,-488.84 1459,-485 1459,-481.17 1459,-481.17 1459,-473.5 1459,-473.5 1459,-469.67 1462.83,-465.84 1466.67,-465.84 1466.67,-465.84 1624.33,-465.84 1624.33,-465.84 1628.17,-465.84 1632,-469.67 1632,-473.5 1632,-473.5 1632,-481.17 1632,-481.17 1632,-485 1628.17,-488.84 1624.33,-488.84"/>
<text text-anchor="middle" x="1545.5" y="-473.64" font-family="Arial" font-size="14.00" fill="#c6c5fe">store/WidgetProvider.tsx</text>
</g>
<!-- component/Widget/WidgetButtons.tsx&#45;&gt;store/WidgetProvider.tsx -->
<g id="edge31" class="edge">
<title>component/Widget/WidgetButtons.tsx&#45;&gt;store/WidgetProvider.tsx</title>
<path fill="none" stroke="#757575" d="M1145.58,-430.31C1184.49,-434.66 1228.73,-439.66 1269,-444.34 1328.18,-451.2 1394.48,-459.14 1447.21,-465.51"/>
<polygon fill="#757575" stroke="#757575" points="1446.73,-468.97 1457.08,-466.7 1447.57,-462.02 1446.73,-468.97"/>
</g>
<!-- component/Widget/WidgetCallCycleSettingModal.tsx&#45;&gt;common/widget.ts -->
<g id="edge32" class="edge">
<title>component/Widget/WidgetCallCycleSettingModal.tsx&#45;&gt;common/widget.ts</title>
<path fill="none" stroke="#757575" d="M1694.56,-313.33C1786.8,-320.81 1901.66,-330.11 1976,-336.14"/>
<polygon fill="#757575" stroke="#757575" points="1975.36,-339.6 1985.61,-336.92 1975.93,-332.62 1975.36,-339.6"/>
</g>
<!-- component/Widget/WidgetCallCycleSettingModal/CycleInput.tsx -->
<g id="node33" class="node">
<title>component/Widget/WidgetCallCycleSettingModal/CycleInput.tsx</title>
<path fill="none" stroke="#cfffac" d="M2256.83,-271.84C2256.83,-271.84 1850.17,-271.84 1850.17,-271.84 1846.33,-271.84 1842.5,-268 1842.5,-264.17 1842.5,-264.17 1842.5,-256.5 1842.5,-256.5 1842.5,-252.67 1846.33,-248.84 1850.17,-248.84 1850.17,-248.84 2256.83,-248.84 2256.83,-248.84 2260.67,-248.84 2264.5,-252.67 2264.5,-256.5 2264.5,-256.5 2264.5,-264.17 2264.5,-264.17 2264.5,-268 2260.67,-271.84 2256.83,-271.84"/>
<text text-anchor="middle" x="2053.5" y="-256.64" font-family="Arial" font-size="14.00" fill="#cfffac">component/Widget/WidgetCallCycleSettingModal/CycleInput.tsx</text>
</g>
<!-- component/Widget/WidgetCallCycleSettingModal.tsx&#45;&gt;component/Widget/WidgetCallCycleSettingModal/CycleInput.tsx -->
<g id="edge33" class="edge">
<title>component/Widget/WidgetCallCycleSettingModal.tsx&#45;&gt;component/Widget/WidgetCallCycleSettingModal/CycleInput.tsx</title>
<path fill="none" stroke="#757575" d="M1694.56,-289.34C1757.01,-284.28 1829.84,-278.38 1893.44,-273.23"/>
<polygon fill="#757575" stroke="#757575" points="1893.6,-276.72 1903.28,-272.43 1893.03,-269.75 1893.6,-276.72"/>
</g>
<!-- component/Widget/WidgetCallCycleSettingModal/LastCallTimeBox.tsx -->
<g id="node34" class="node">
<title>component/Widget/WidgetCallCycleSettingModal/LastCallTimeBox.tsx</title>
<path fill="none" stroke="#cfffac" d="M2277.33,-312.84C2277.33,-312.84 1829.67,-312.84 1829.67,-312.84 1825.83,-312.84 1822,-309 1822,-305.17 1822,-305.17 1822,-297.5 1822,-297.5 1822,-293.67 1825.83,-289.84 1829.67,-289.84 1829.67,-289.84 2277.33,-289.84 2277.33,-289.84 2281.17,-289.84 2285,-293.67 2285,-297.5 2285,-297.5 2285,-305.17 2285,-305.17 2285,-309 2281.17,-312.84 2277.33,-312.84"/>
<text text-anchor="middle" x="2053.5" y="-297.64" font-family="Arial" font-size="14.00" fill="#cfffac">component/Widget/WidgetCallCycleSettingModal/LastCallTimeBox.tsx</text>
</g>
<!-- component/Widget/WidgetCallCycleSettingModal.tsx&#45;&gt;component/Widget/WidgetCallCycleSettingModal/LastCallTimeBox.tsx -->
<g id="edge34" class="edge">
<title>component/Widget/WidgetCallCycleSettingModal.tsx&#45;&gt;component/Widget/WidgetCallCycleSettingModal/LastCallTimeBox.tsx</title>
<path fill="none" stroke="#757575" d="M1721.35,-301.34C1750.09,-301.34 1780.34,-301.34 1810.37,-301.34"/>
<polygon fill="#757575" stroke="#757575" points="1810.36,-304.84 1820.36,-301.34 1810.36,-297.84 1810.36,-304.84"/>
</g>
<!-- component/chart/BarChart.tsx -->
<g id="node35" class="node">
<title>component/chart/BarChart.tsx</title>
<path fill="none" stroke="#c6c5fe" d="M1639.33,-210.84C1639.33,-210.84 1451.67,-210.84 1451.67,-210.84 1447.83,-210.84 1444,-207 1444,-203.17 1444,-203.17 1444,-195.5 1444,-195.5 1444,-191.67 1447.83,-187.84 1451.67,-187.84 1451.67,-187.84 1639.33,-187.84 1639.33,-187.84 1643.17,-187.84 1647,-191.67 1647,-195.5 1647,-195.5 1647,-203.17 1647,-203.17 1647,-207 1643.17,-210.84 1639.33,-210.84"/>
<text text-anchor="middle" x="1545.5" y="-195.64" font-family="Arial" font-size="14.00" fill="#c6c5fe">component/chart/BarChart.tsx</text>
</g>
<!-- component/Widget/WidgetChart.tsx&#45;&gt;component/chart/BarChart.tsx -->
<g id="edge35" class="edge">
<title>component/Widget/WidgetChart.tsx&#45;&gt;component/chart/BarChart.tsx</title>
<path fill="none" stroke="#757575" d="M1157.97,-184.09C1241.18,-187.37 1351.08,-191.71 1432.41,-194.92"/>
<polygon fill="#757575" stroke="#757575" points="1432.05,-198.4 1442.18,-195.3 1432.33,-191.41 1432.05,-198.4"/>
</g>
<!-- component/chart/InformaticsChart.tsx -->
<g id="node36" class="node">
<title>component/chart/InformaticsChart.tsx</title>
<path fill="none" stroke="#c6c5fe" d="M1663.83,-107.84C1663.83,-107.84 1427.17,-107.84 1427.17,-107.84 1423.33,-107.84 1419.5,-104 1419.5,-100.17 1419.5,-100.17 1419.5,-92.5 1419.5,-92.5 1419.5,-88.67 1423.33,-84.84 1427.17,-84.84 1427.17,-84.84 1663.83,-84.84 1663.83,-84.84 1667.67,-84.84 1671.5,-88.67 1671.5,-92.5 1671.5,-92.5 1671.5,-100.17 1671.5,-100.17 1671.5,-104 1667.67,-107.84 1663.83,-107.84"/>
<text text-anchor="middle" x="1545.5" y="-92.64" font-family="Arial" font-size="14.00" fill="#c6c5fe">component/chart/InformaticsChart.tsx</text>
</g>
<!-- component/Widget/WidgetChart.tsx&#45;&gt;component/chart/InformaticsChart.tsx -->
<g id="edge36" class="edge">
<title>component/Widget/WidgetChart.tsx&#45;&gt;component/chart/InformaticsChart.tsx</title>
<path fill="none" stroke="#757575" d="M1110.68,-167.36C1203.27,-152.2 1362.39,-126.15 1460.04,-110.16"/>
<polygon fill="#757575" stroke="#757575" points="1460.54,-113.63 1469.85,-108.56 1459.41,-106.72 1460.54,-113.63"/>
</g>
<!-- component/chart/LineChart.tsx -->
<g id="node37" class="node">
<title>component/chart/LineChart.tsx</title>
<path fill="none" stroke="#c6c5fe" d="M1642.33,-169.84C1642.33,-169.84 1448.67,-169.84 1448.67,-169.84 1444.83,-169.84 1441,-166 1441,-162.17 1441,-162.17 1441,-154.5 1441,-154.5 1441,-150.67 1444.83,-146.84 1448.67,-146.84 1448.67,-146.84 1642.33,-146.84 1642.33,-146.84 1646.17,-146.84 1650,-150.67 1650,-154.5 1650,-154.5 1650,-162.17 1650,-162.17 1650,-166 1646.17,-169.84 1642.33,-169.84"/>
<text text-anchor="middle" x="1545.5" y="-154.64" font-family="Arial" font-size="14.00" fill="#c6c5fe">component/chart/LineChart.tsx</text>
</g>
<!-- component/Widget/WidgetChart.tsx&#45;&gt;component/chart/LineChart.tsx -->
<g id="edge37" class="edge">
<title>component/Widget/WidgetChart.tsx&#45;&gt;component/chart/LineChart.tsx</title>
<path fill="none" stroke="#757575" d="M1157.97,-174.35C1240.21,-170.94 1348.5,-166.46 1429.53,-163.1"/>
<polygon fill="#757575" stroke="#757575" points="1429.42,-166.61 1439.27,-162.7 1429.13,-159.61 1429.42,-166.61"/>
</g>
<!-- hook/Widget/useHandleWidgetApi.tsx&#45;&gt;common/api.ts -->
<g id="edge58" class="edge">
<title>hook/Widget/useHandleWidgetApi.tsx&#45;&gt;common/api.ts</title>
<path fill="none" stroke="#757575" d="M1674.25,-352.26C1713.28,-355.13 1754.23,-364.83 1786,-388.34 1818.65,-412.5 1791.42,-445.6 1822,-472.34 1867.69,-512.28 1936.31,-527.47 1986.81,-533.16"/>
<polygon fill="#757575" stroke="#757575" points="1986.45,-536.64 1996.75,-534.17 1987.16,-529.68 1986.45,-536.64"/>
</g>
<!-- hook/Widget/useHandleWidgetApi.tsx&#45;&gt;types/chart.d.ts -->
<g id="edge62" class="edge">
<title>hook/Widget/useHandleWidgetApi.tsx&#45;&gt;types/chart.d.ts</title>
<path fill="none" stroke="#757575" d="M1665.72,-374.34C1846.05,-390.49 2178.48,-411.87 2285,-362.34 2386.76,-315.02 2456.38,-190.13 2481.32,-139.31"/>
<polygon fill="#757575" stroke="#757575" points="2484.38,-141.01 2485.55,-130.48 2478.07,-137.99 2484.38,-141.01"/>
</g>
<!-- hook/Widget/useHandleWidgetApi.tsx&#45;&gt;common/date.ts -->
<g id="edge59" class="edge">
<title>hook/Widget/useHandleWidgetApi.tsx&#45;&gt;common/date.ts</title>
<path fill="none" stroke="#757575" d="M1674.34,-357.68C1712.2,-361.07 1752.46,-369.69 1786,-388.34 1808.69,-400.95 1799.73,-420.99 1822,-434.34 2001.18,-541.74 2102.86,-413.04 2285,-515.34 2306.14,-527.21 2299.56,-545 2321,-556.34 2351.54,-572.49 2389.36,-578.32 2421.61,-579.87"/>
<polygon fill="#757575" stroke="#757575" points="2421.13,-583.35 2431.25,-580.19 2421.37,-576.36 2421.13,-583.35"/>
</g>
<!-- hook/Widget/useHandleWidgetApi.tsx&#45;&gt;common/widget.ts -->
<g id="edge60" class="edge">
<title>hook/Widget/useHandleWidgetApi.tsx&#45;&gt;common/widget.ts</title>
<path fill="none" stroke="#757575" d="M1674.19,-357.29C1769.2,-353.53 1895.76,-348.53 1975.7,-345.37"/>
<polygon fill="#757575" stroke="#757575" points="1975.78,-348.87 1985.64,-344.98 1975.51,-341.88 1975.78,-348.87"/>
</g>
<!-- hook/Widget/useHandleWidgetApi.tsx&#45;&gt;store/DashboardProvider.tsx -->
<g id="edge61" class="edge">
<title>hook/Widget/useHandleWidgetApi.tsx&#45;&gt;store/DashboardProvider.tsx</title>
<path fill="none" stroke="#757575" d="M1612.26,-350.35C1665.69,-344.62 1739.57,-346.46 1786,-388.34 1842.7,-439.48 1764.86,-505.68 1822,-556.34 1865.47,-594.87 1933.35,-596.58 1984.21,-590.77"/>
<polygon fill="#757575" stroke="#757575" points="1984.46,-594.26 1993.94,-589.52 1983.57,-587.32 1984.46,-594.26"/>
</g>
<!-- hook/Widget/useHandleWidgetApi.tsx&#45;&gt;types/widget.d.ts -->
<g id="edge63" class="edge">
<title>hook/Widget/useHandleWidgetApi.tsx&#45;&gt;types/widget.d.ts</title>
<path fill="none" stroke="#757575" d="M1657.4,-374.32C1697.87,-378.7 1744.01,-383.72 1786,-388.34 1802,-390.09 1805.96,-390.94 1822,-392.34 2187.3,-424.14 2625.69,-446.79 2795.46,-454.97"/>
<polygon fill="#757575" stroke="#757575" points="2795.06,-458.46 2805.22,-455.44 2795.4,-451.47 2795.06,-458.46"/>
</g>
<!-- store/WidgetProvider.tsx&#45;&gt;types/widget.d.ts -->
<g id="edge71" class="edge">
<title>store/WidgetProvider.tsx&#45;&gt;types/widget.d.ts</title>
<path fill="none" stroke="#757575" d="M1632.41,-476.1C1876.26,-472.59 2569.63,-462.62 2795.45,-459.37"/>
<polygon fill="#757575" stroke="#757575" points="2795.34,-462.88 2805.29,-459.23 2795.24,-455.88 2795.34,-462.88"/>
</g>
<!-- component/chart/BarChart.tsx&#45;&gt;common/chart.ts -->
<g id="edge43" class="edge">
<title>component/chart/BarChart.tsx&#45;&gt;common/chart.ts</title>
<path fill="none" stroke="#757575" d="M1647.47,-200.27C1690.96,-198.18 1741.85,-192.37 1786,-178.34 1803.65,-172.73 1804.34,-162.94 1822,-157.34 1873.53,-140.98 1934.59,-136.3 1980.92,-135.53"/>
<polygon fill="#757575" stroke="#757575" points="1980.88,-139.03 1990.85,-135.43 1980.81,-132.03 1980.88,-139.03"/>
</g>
<!-- component/chart/ChartSvg.tsx -->
<g id="node41" class="node">
<title>component/chart/ChartSvg.tsx</title>
<path fill="none" stroke="#cfffac" d="M2148.83,-189.84C2148.83,-189.84 1958.17,-189.84 1958.17,-189.84 1954.33,-189.84 1950.5,-186 1950.5,-182.17 1950.5,-182.17 1950.5,-174.5 1950.5,-174.5 1950.5,-170.67 1954.33,-166.84 1958.17,-166.84 1958.17,-166.84 2148.83,-166.84 2148.83,-166.84 2152.67,-166.84 2156.5,-170.67 2156.5,-174.5 2156.5,-174.5 2156.5,-182.17 2156.5,-182.17 2156.5,-186 2152.67,-189.84 2148.83,-189.84"/>
<text text-anchor="middle" x="2053.5" y="-174.64" font-family="Arial" font-size="14.00" fill="#cfffac">component/chart/ChartSvg.tsx</text>
</g>
<!-- component/chart/BarChart.tsx&#45;&gt;component/chart/ChartSvg.tsx -->
<g id="edge44" class="edge">
<title>component/chart/BarChart.tsx&#45;&gt;component/chart/ChartSvg.tsx</title>
<path fill="none" stroke="#757575" d="M1647.38,-195.15C1731.48,-191.66 1851.26,-186.69 1938.76,-183.06"/>
<polygon fill="#757575" stroke="#757575" points="1938.71,-186.56 1948.56,-182.65 1938.42,-179.57 1938.71,-186.56"/>
</g>
<!-- hook/useResize.tsx -->
<g id="node42" class="node">
<title>hook/useResize.tsx</title>
<path fill="none" stroke="#cfffac" d="M2115.83,-230.84C2115.83,-230.84 1991.17,-230.84 1991.17,-230.84 1987.33,-230.84 1983.5,-227 1983.5,-223.17 1983.5,-223.17 1983.5,-215.5 1983.5,-215.5 1983.5,-211.67 1987.33,-207.84 1991.17,-207.84 1991.17,-207.84 2115.83,-207.84 2115.83,-207.84 2119.67,-207.84 2123.5,-211.67 2123.5,-215.5 2123.5,-215.5 2123.5,-223.17 2123.5,-223.17 2123.5,-227 2119.67,-230.84 2115.83,-230.84"/>
<text text-anchor="middle" x="2053.5" y="-215.64" font-family="Arial" font-size="14.00" fill="#cfffac">hook/useResize.tsx</text>
</g>
<!-- component/chart/BarChart.tsx&#45;&gt;hook/useResize.tsx -->
<g id="edge45" class="edge">
<title>component/chart/BarChart.tsx&#45;&gt;hook/useResize.tsx</title>
<path fill="none" stroke="#757575" d="M1647.38,-203.32C1742.67,-207.09 1883.75,-212.67 1971.8,-216.15"/>
<polygon fill="#757575" stroke="#757575" points="1971.42,-219.63 1981.55,-216.53 1971.7,-212.64 1971.42,-219.63"/>
</g>
<!-- component/chart/InformaticsChart.tsx&#45;&gt;types/chart.d.ts -->
<g id="edge47" class="edge">
<title>component/chart/InformaticsChart.tsx&#45;&gt;types/chart.d.ts</title>
<path fill="none" stroke="#757575" d="M1657.23,-84.34C1801.95,-70.69 2063.1,-53 2285,-75.34 2336.52,-80.52 2394.18,-92.81 2435.46,-102.76"/>
<polygon fill="#757575" stroke="#757575" points="2434.36,-106.1 2444.91,-105.08 2436.03,-99.3 2434.36,-106.1"/>
</g>
<!-- component/chart/InformaticsChart/InforMaticsBox.tsx -->
<g id="node43" class="node">
<title>component/chart/InformaticsChart/InforMaticsBox.tsx</title>
<path fill="none" stroke="#c6c5fe" d="M2220.83,-107.84C2220.83,-107.84 1886.17,-107.84 1886.17,-107.84 1882.33,-107.84 1878.5,-104 1878.5,-100.17 1878.5,-100.17 1878.5,-92.5 1878.5,-92.5 1878.5,-88.67 1882.33,-84.84 1886.17,-84.84 1886.17,-84.84 2220.83,-84.84 2220.83,-84.84 2224.67,-84.84 2228.5,-88.67 2228.5,-92.5 2228.5,-92.5 2228.5,-100.17 2228.5,-100.17 2228.5,-104 2224.67,-107.84 2220.83,-107.84"/>
<text text-anchor="middle" x="2053.5" y="-92.64" font-family="Arial" font-size="14.00" fill="#c6c5fe">component/chart/InformaticsChart/InforMaticsBox.tsx</text>
</g>
<!-- component/chart/InformaticsChart.tsx&#45;&gt;component/chart/InformaticsChart/InforMaticsBox.tsx -->
<g id="edge46" class="edge">
<title>component/chart/InformaticsChart.tsx&#45;&gt;component/chart/InformaticsChart/InforMaticsBox.tsx</title>
<path fill="none" stroke="#757575" d="M1671.9,-96.34C1730.7,-96.34 1801.94,-96.34 1866.82,-96.34"/>
<polygon fill="#757575" stroke="#757575" points="1866.5,-99.84 1876.5,-96.34 1866.5,-92.84 1866.5,-99.84"/>
</g>
<!-- component/chart/LineChart.tsx&#45;&gt;common/chart.ts -->
<g id="edge49" class="edge">
<title>component/chart/LineChart.tsx&#45;&gt;common/chart.ts</title>
<path fill="none" stroke="#757575" d="M1650.42,-154.02C1749.1,-149.93 1894.81,-143.88 1981.05,-140.3"/>
<polygon fill="#757575" stroke="#757575" points="1980.94,-143.81 1990.78,-139.9 1980.65,-136.82 1980.94,-143.81"/>
</g>
<!-- component/chart/LineChart.tsx&#45;&gt;component/chart/ChartSvg.tsx -->
<g id="edge50" class="edge">
<title>component/chart/LineChart.tsx&#45;&gt;component/chart/ChartSvg.tsx</title>
<path fill="none" stroke="#757575" d="M1650.42,-162.44C1734.29,-165.76 1852.13,-170.42 1938.57,-173.83"/>
<polygon fill="#757575" stroke="#757575" points="1938.37,-177.33 1948.5,-174.23 1938.64,-170.33 1938.37,-177.33"/>
</g>
<!-- component/chart/LineChart.tsx&#45;&gt;hook/useResize.tsx -->
<g id="edge51" class="edge">
<title>component/chart/LineChart.tsx&#45;&gt;hook/useResize.tsx</title>
<path fill="none" stroke="#757575" d="M1650.27,-157.49C1693.07,-159.57 1742.69,-165.17 1786,-178.34 1803.51,-183.66 1804.51,-192.95 1822,-198.34 1870.31,-213.23 1926.8,-218.55 1971.77,-220.12"/>
<polygon fill="#757575" stroke="#757575" points="1971.62,-223.62 1981.72,-220.4 1971.82,-216.62 1971.62,-223.62"/>
</g>
<!-- component/Widget/WidgetPropsSettingModal.tsx -->
<g id="node38" class="node">
<title>component/Widget/WidgetPropsSettingModal.tsx</title>
<path fill="none" stroke="#c6c5fe" d="M760.33,-549.84C760.33,-549.84 446.67,-549.84 446.67,-549.84 442.83,-549.84 439,-546 439,-542.17 439,-542.17 439,-534.5 439,-534.5 439,-530.67 442.83,-526.84 446.67,-526.84 446.67,-526.84 760.33,-526.84 760.33,-526.84 764.17,-526.84 768,-530.67 768,-534.5 768,-534.5 768,-542.17 768,-542.17 768,-546 764.17,-549.84 760.33,-549.84"/>
<text text-anchor="middle" x="603.5" y="-534.64" font-family="Arial" font-size="14.00" fill="#c6c5fe">component/Widget/WidgetPropsSettingModal.tsx</text>
</g>
<!-- component/Widget/WidgetPropsSettingModal.tsx&#45;&gt;common/api.ts -->
<g id="edge38" class="edge">
<title>component/Widget/WidgetPropsSettingModal.tsx&#45;&gt;common/api.ts</title>
<path fill="none" stroke="#757575" d="M768.49,-538.11C1085.85,-537.67 1771.7,-536.72 1986.67,-536.43"/>
<polygon fill="#757575" stroke="#757575" points="1986.55,-539.93 1996.54,-536.41 1986.54,-532.93 1986.55,-539.93"/>
</g>
<!-- component/Widget/WidgetPropsSettingModal.tsx&#45;&gt;store/WidgetPropsSettingModalProvider.tsx -->
<g id="edge41" class="edge">
<title>component/Widget/WidgetPropsSettingModal.tsx&#45;&gt;store/WidgetPropsSettingModalProvider.tsx</title>
<path fill="none" stroke="#757575" d="M635,-550.28C673.64,-564.76 742.58,-588.45 804,-598.34 1003.12,-630.38 1236.18,-630.67 1386.86,-626.09"/>
<polygon fill="#757575" stroke="#757575" points="1386.62,-629.6 1396.5,-625.78 1386.4,-622.6 1386.62,-629.6"/>
</g>
<!-- component/Widget/WidgetPropsSettingModal/WidgetPropsButtons.tsx -->
<g id="node39" class="node">
<title>component/Widget/WidgetPropsSettingModal/WidgetPropsButtons.tsx</title>
<path fill="none" stroke="#c6c5fe" d="M1261.33,-509.84C1261.33,-509.84 811.67,-509.84 811.67,-509.84 807.83,-509.84 804,-506 804,-502.17 804,-502.17 804,-494.5 804,-494.5 804,-490.67 807.83,-486.84 811.67,-486.84 811.67,-486.84 1261.33,-486.84 1261.33,-486.84 1265.17,-486.84 1269,-490.67 1269,-494.5 1269,-494.5 1269,-502.17 1269,-502.17 1269,-506 1265.17,-509.84 1261.33,-509.84"/>
<text text-anchor="middle" x="1036.5" y="-494.64" font-family="Arial" font-size="14.00" fill="#c6c5fe">component/Widget/WidgetPropsSettingModal/WidgetPropsButtons.tsx</text>
</g>
<!-- component/Widget/WidgetPropsSettingModal.tsx&#45;&gt;component/Widget/WidgetPropsSettingModal/WidgetPropsButtons.tsx -->
<g id="edge39" class="edge">
<title>component/Widget/WidgetPropsSettingModal.tsx&#45;&gt;component/Widget/WidgetPropsSettingModal/WidgetPropsButtons.tsx</title>
<path fill="none" stroke="#757575" d="M733.52,-526.36C784.47,-521.63 843.15,-516.19 895.15,-511.36"/>
<polygon fill="#757575" stroke="#757575" points="895.34,-514.86 904.98,-510.45 894.69,-507.89 895.34,-514.86"/>
</g>
<!-- component/Widget/WidgetPropsSettingModal/WidgetPropsList.tsx -->
<g id="node40" class="node">
<title>component/Widget/WidgetPropsSettingModal/WidgetPropsList.tsx</title>
<path fill="none" stroke="#cfffac" d="M1248.83,-589.84C1248.83,-589.84 824.17,-589.84 824.17,-589.84 820.33,-589.84 816.5,-586 816.5,-582.17 816.5,-582.17 816.5,-574.5 816.5,-574.5 816.5,-570.67 820.33,-566.84 824.17,-566.84 824.17,-566.84 1248.83,-566.84 1248.83,-566.84 1252.67,-566.84 1256.5,-570.67 1256.5,-574.5 1256.5,-574.5 1256.5,-582.17 1256.5,-582.17 1256.5,-586 1252.67,-589.84 1248.83,-589.84"/>
<text text-anchor="middle" x="1036.5" y="-574.64" font-family="Arial" font-size="14.00" fill="#cfffac">component/Widget/WidgetPropsSettingModal/WidgetPropsList.tsx</text>
</g>
<!-- component/Widget/WidgetPropsSettingModal.tsx&#45;&gt;component/Widget/WidgetPropsSettingModal/WidgetPropsList.tsx -->
<g id="edge40" class="edge">
<title>component/Widget/WidgetPropsSettingModal.tsx&#45;&gt;component/Widget/WidgetPropsSettingModal/WidgetPropsList.tsx</title>
<path fill="none" stroke="#757575" d="M733.52,-550.31C784.47,-555.04 843.15,-560.48 895.15,-565.31"/>
<polygon fill="#757575" stroke="#757575" points="894.69,-568.78 904.98,-566.22 895.34,-561.81 894.69,-568.78"/>
</g>
<!-- component/Widget/WidgetPropsSettingModal/WidgetPropsButtons.tsx&#45;&gt;store/WidgetProvider.tsx -->
<g id="edge42" class="edge">
<title>component/Widget/WidgetPropsSettingModal/WidgetPropsButtons.tsx&#45;&gt;store/WidgetProvider.tsx</title>
<path fill="none" stroke="#757575" d="M1269.49,-488.73C1332.15,-486.13 1396.58,-483.46 1447.31,-481.36"/>
<polygon fill="#757575" stroke="#757575" points="1447.22,-484.87 1457.06,-480.96 1446.93,-477.88 1447.22,-484.87"/>
</g>
<!-- component/chart/InformaticsChart/InforMaticsBox.tsx&#45;&gt;types/chart.d.ts -->
<g id="edge48" class="edge">
<title>component/chart/InformaticsChart/InforMaticsBox.tsx&#45;&gt;types/chart.d.ts</title>
<path fill="none" stroke="#757575" d="M2228.78,-104.71C2297.34,-108.01 2371.96,-111.59 2424.09,-114.1"/>
<polygon fill="#757575" stroke="#757575" points="2423.85,-117.59 2434.01,-114.57 2424.19,-110.6 2423.85,-117.59"/>
</g>
<!-- component/common/DatePicker/DatePickerTitle.tsx&#45;&gt;types/widget.d.ts -->
<g id="edge55" class="edge">
<title>component/common/DatePicker/DatePickerTitle.tsx&#45;&gt;types/widget.d.ts</title>
<path fill="none" stroke="#757575" d="M2536.09,-646.42C2571.35,-635.78 2622.27,-618.61 2664,-597.34 2733.63,-561.84 2807.51,-506.23 2844.12,-477.28"/>
<polygon fill="#757575" stroke="#757575" points="2846.19,-480.1 2851.82,-471.13 2841.82,-474.63 2846.19,-480.1"/>
</g>
<!-- component/common/DatePicker/ListPicker.tsx&#45;&gt;types/datePicker.d.ts -->
<g id="edge57" class="edge">
<title>component/common/DatePicker/ListPicker.tsx&#45;&gt;types/datePicker.d.ts</title>
<path fill="none" stroke="#757575" d="M2605.46,-731.31C2662.2,-737.38 2729.99,-744.63 2782.4,-750.24"/>
<polygon fill="#757575" stroke="#757575" points="2781.86,-753.7 2792.18,-751.28 2782.6,-746.74 2781.86,-753.7"/>
</g>
<!-- component/common/DatePicker/ListPickerItem.tsx -->
<g id="node47" class="node">
<title>component/common/DatePicker/ListPickerItem.tsx</title>
<path fill="none" stroke="#cfffac" d="M3029.33,-729.84C3029.33,-729.84 2707.67,-729.84 2707.67,-729.84 2703.83,-729.84 2700,-726 2700,-722.17 2700,-722.17 2700,-714.5 2700,-714.5 2700,-710.67 2703.83,-706.84 2707.67,-706.84 2707.67,-706.84 3029.33,-706.84 3029.33,-706.84 3033.17,-706.84 3037,-710.67 3037,-714.5 3037,-714.5 3037,-722.17 3037,-722.17 3037,-726 3033.17,-729.84 3029.33,-729.84"/>
<text text-anchor="middle" x="2868.5" y="-714.64" font-family="Arial" font-size="14.00" fill="#cfffac">component/common/DatePicker/ListPickerItem.tsx</text>
</g>
<!-- component/common/DatePicker/ListPicker.tsx&#45;&gt;component/common/DatePicker/ListPickerItem.tsx -->
<g id="edge56" class="edge">
<title>component/common/DatePicker/ListPicker.tsx&#45;&gt;component/common/DatePicker/ListPickerItem.tsx</title>
<path fill="none" stroke="#757575" d="M2646.97,-718.93C2660.65,-718.89 2674.58,-718.85 2688.45,-718.82"/>
<polygon fill="#757575" stroke="#757575" points="2688.05,-722.32 2698.04,-718.79 2688.03,-715.32 2688.05,-722.32"/>
</g>
<!-- page/Dashboard.tsx&#45;&gt;component/Dashboard/DashboardHeader.tsx -->
<g id="edge64" class="edge">
<title>page/Dashboard.tsx&#45;&gt;component/Dashboard/DashboardHeader.tsx</title>
<path fill="none" stroke="#757575" d="M346.93,-510.26C391.54,-545.88 524.15,-651.77 578.68,-695.31"/>
<polygon fill="#757575" stroke="#757575" points="576.44,-698 586.43,-701.51 580.8,-692.53 576.44,-698"/>
</g>
<!-- page/Dashboard.tsx&#45;&gt;component/Widget.tsx -->
<g id="edge65" class="edge">
<title>page/Dashboard.tsx&#45;&gt;component/Widget.tsx</title>
<path fill="none" stroke="#757575" d="M352.33,-486.46C399.54,-458.89 516.79,-390.4 572.36,-357.94"/>
<polygon fill="#757575" stroke="#757575" points="574.13,-360.96 580.99,-352.9 570.59,-354.92 574.13,-360.96"/>
</g>
<!-- page/Dashboard.tsx&#45;&gt;store/WidgetProvider.tsx -->
<g id="edge67" class="edge">
<title>page/Dashboard.tsx&#45;&gt;store/WidgetProvider.tsx</title>
<path fill="none" stroke="#757575" d="M403.13,-494.19C495.5,-489.02 661.72,-480.5 804,-477.34 1034.72,-472.21 1305.98,-474.27 1447.48,-475.96"/>
<polygon fill="#757575" stroke="#757575" points="1447.13,-479.46 1457.17,-476.08 1447.22,-472.46 1447.13,-479.46"/>
</g>
<!-- page/Dashboard.tsx&#45;&gt;component/Widget/WidgetPropsSettingModal.tsx -->
<g id="edge66" class="edge">
<title>page/Dashboard.tsx&#45;&gt;component/Widget/WidgetPropsSettingModal.tsx</title>
<path fill="none" stroke="#757575" d="M403.42,-508.9C436.19,-513.74 475.45,-519.55 510.4,-524.72"/>
<polygon fill="#757575" stroke="#757575" points="509.69,-528.15 520.09,-526.15 510.71,-521.23 509.69,-528.15"/>
</g>
</g>
</svg>
