<?xml version="1.0" encoding="UTF-8" standalone="no"?>
<!DOCTYPE svg PUBLIC "-//W3C//DTD SVG 1.1//EN"
 "http://www.w3.org/Graphics/SVG/1.1/DTD/svg11.dtd">
<!-- Generated by graphviz version 7.1.0 (20230121.1956)
 -->
<!-- Title: G Pages: 1 -->
<svg width="2854pt" height="1039pt"
 viewBox="0.00 0.00 2854.20 1039.20" xmlns="http://www.w3.org/2000/svg" xmlns:xlink="http://www.w3.org/1999/xlink">
<g id="graph0" class="graph" transform="scale(1 1) rotate(0) translate(21.6 1017.6)">
<title>G</title>
<polygon fill="#111111" stroke="none" points="-21.6,21.6 -21.6,-1017.6 2832.6,-1017.6 2832.6,21.6 -21.6,21.6"/>
<!-- App.tsx -->
<g id="node1" class="node">
<title>App.tsx</title>
<path fill="none" stroke="#c6c5fe" d="M57.33,-656C57.33,-656 7.67,-656 7.67,-656 3.83,-656 0,-652.17 0,-648.33 0,-648.33 0,-640.67 0,-640.67 0,-636.83 3.83,-633 7.67,-633 7.67,-633 57.33,-633 57.33,-633 61.17,-633 65,-636.83 65,-640.67 65,-640.67 65,-648.33 65,-648.33 65,-652.17 61.17,-656 57.33,-656"/>
<text text-anchor="middle" x="32.5" y="-640.8" font-family="Arial" font-size="14.00" fill="#c6c5fe">App.tsx</text>
</g>
<!-- router/Router.tsx -->
<g id="node2" class="node">
<title>router/Router.tsx</title>
<path fill="none" stroke="#c6c5fe" d="M215.33,-656C215.33,-656 108.67,-656 108.67,-656 104.83,-656 101,-652.17 101,-648.33 101,-648.33 101,-640.67 101,-640.67 101,-636.83 104.83,-633 108.67,-633 108.67,-633 215.33,-633 215.33,-633 219.17,-633 223,-636.83 223,-640.67 223,-640.67 223,-648.33 223,-648.33 223,-652.17 219.17,-656 215.33,-656"/>
<text text-anchor="middle" x="162" y="-640.8" font-family="Arial" font-size="14.00" fill="#c6c5fe">router/Router.tsx</text>
</g>
<!-- App.tsx&#45;&gt;router/Router.tsx -->
<g id="edge1" class="edge">
<title>App.tsx&#45;&gt;router/Router.tsx</title>
<path fill="none" stroke="#757575" d="M65.34,-644.5C72.7,-644.5 80.81,-644.5 89.12,-644.5"/>
<polygon fill="#757575" stroke="#757575" points="88.99,-648 98.99,-644.5 88.99,-641 88.99,-648"/>
</g>
<!-- page/Dashboard.tsx -->
<g id="node43" class="node">
<title>page/Dashboard.tsx</title>
<path fill="none" stroke="#c6c5fe" d="M395.33,-656C395.33,-656 266.67,-656 266.67,-656 262.83,-656 259,-652.17 259,-648.33 259,-648.33 259,-640.67 259,-640.67 259,-636.83 262.83,-633 266.67,-633 266.67,-633 395.33,-633 395.33,-633 399.17,-633 403,-636.83 403,-640.67 403,-640.67 403,-648.33 403,-648.33 403,-652.17 399.17,-656 395.33,-656"/>
<text text-anchor="middle" x="331" y="-640.8" font-family="Arial" font-size="14.00" fill="#c6c5fe">page/Dashboard.tsx</text>
</g>
<!-- router/Router.tsx&#45;&gt;page/Dashboard.tsx -->
<g id="edge66" class="edge">
<title>router/Router.tsx&#45;&gt;page/Dashboard.tsx</title>
<path fill="none" stroke="#757575" d="M223.29,-644.5C231.1,-644.5 239.21,-644.5 247.3,-644.5"/>
<polygon fill="#757575" stroke="#757575" points="247.19,-648 257.19,-644.5 247.19,-641 247.19,-648"/>
</g>
<!-- asset/image/pause.png -->
<g id="node3" class="node">
<title>asset/image/pause.png</title>
<path fill="none" stroke="#cfffac" d="M1619.83,-811C1619.83,-811 1471.17,-811 1471.17,-811 1467.33,-811 1463.5,-807.17 1463.5,-803.33 1463.5,-803.33 1463.5,-795.67 1463.5,-795.67 1463.5,-791.83 1467.33,-788 1471.17,-788 1471.17,-788 1619.83,-788 1619.83,-788 1623.67,-788 1627.5,-791.83 1627.5,-795.67 1627.5,-795.67 1627.5,-803.33 1627.5,-803.33 1627.5,-807.17 1623.67,-811 1619.83,-811"/>
<text text-anchor="middle" x="1545.5" y="-795.8" font-family="Arial" font-size="14.00" fill="#cfffac">asset/image/pause.png</text>
</g>
<!-- asset/image/play.png -->
<g id="node4" class="node">
<title>asset/image/play.png</title>
<path fill="none" stroke="#cfffac" d="M1613.33,-770C1613.33,-770 1477.67,-770 1477.67,-770 1473.83,-770 1470,-766.17 1470,-762.33 1470,-762.33 1470,-754.67 1470,-754.67 1470,-750.83 1473.83,-747 1477.67,-747 1477.67,-747 1613.33,-747 1613.33,-747 1617.17,-747 1621,-750.83 1621,-754.67 1621,-754.67 1621,-762.33 1621,-762.33 1621,-766.17 1617.17,-770 1613.33,-770"/>
<text text-anchor="middle" x="1545.5" y="-754.8" font-family="Arial" font-size="14.00" fill="#cfffac">asset/image/play.png</text>
</g>
<!-- common/api.ts -->
<g id="node5" class="node">
<title>common/api.ts</title>
<path fill="none" stroke="#c6c5fe" d="M1083.83,-181C1083.83,-181 989.17,-181 989.17,-181 985.33,-181 981.5,-177.17 981.5,-173.33 981.5,-173.33 981.5,-165.67 981.5,-165.67 981.5,-161.83 985.33,-158 989.17,-158 989.17,-158 1083.83,-158 1083.83,-158 1087.67,-158 1091.5,-161.83 1091.5,-165.67 1091.5,-165.67 1091.5,-173.33 1091.5,-173.33 1091.5,-177.17 1087.67,-181 1083.83,-181"/>
<text text-anchor="middle" x="1036.5" y="-165.8" font-family="Arial" font-size="14.00" fill="#c6c5fe">common/api.ts</text>
</g>
<!-- types/api.d.ts -->
<g id="node6" class="node">
<title>types/api.d.ts</title>
<path fill="none" stroke="#cfffac" d="M1588.33,-41C1588.33,-41 1502.67,-41 1502.67,-41 1498.83,-41 1495,-37.17 1495,-33.33 1495,-33.33 1495,-25.67 1495,-25.67 1495,-21.83 1498.83,-18 1502.67,-18 1502.67,-18 1588.33,-18 1588.33,-18 1592.17,-18 1596,-21.83 1596,-25.67 1596,-25.67 1596,-33.33 1596,-33.33 1596,-37.17 1592.17,-41 1588.33,-41"/>
<text text-anchor="middle" x="1545.5" y="-25.8" font-family="Arial" font-size="14.00" fill="#cfffac">types/api.d.ts</text>
</g>
<!-- common/api.ts&#45;&gt;types/api.d.ts -->
<g id="edge2" class="edge">
<title>common/api.ts&#45;&gt;types/api.d.ts</title>
<path fill="none" stroke="#757575" d="M1091.58,-179.79C1142.62,-186.29 1218.64,-187.28 1269,-148.5 1306.09,-119.93 1267.8,-77.93 1305,-49.5 1355.49,-10.9 1430.69,-11.16 1483.32,-17.69"/>
<polygon fill="#757575" stroke="#757575" points="1482.64,-21.13 1493.02,-19.01 1483.58,-14.2 1482.64,-21.13"/>
</g>
<!-- common/chart.ts -->
<g id="node7" class="node">
<title>common/chart.ts</title>
<path fill="none" stroke="#c6c5fe" d="M2105.33,-141C2105.33,-141 1998.67,-141 1998.67,-141 1994.83,-141 1991,-137.17 1991,-133.33 1991,-133.33 1991,-125.67 1991,-125.67 1991,-121.83 1994.83,-118 1998.67,-118 1998.67,-118 2105.33,-118 2105.33,-118 2109.17,-118 2113,-121.83 2113,-125.67 2113,-125.67 2113,-133.33 2113,-133.33 2113,-137.17 2109.17,-141 2105.33,-141"/>
<text text-anchor="middle" x="2052" y="-125.8" font-family="Arial" font-size="14.00" fill="#c6c5fe">common/chart.ts</text>
</g>
<!-- types/chart.d.ts -->
<g id="node8" class="node">
<title>types/chart.d.ts</title>
<path fill="none" stroke="#cfffac" d="M2520.83,-101C2520.83,-101 2423.17,-101 2423.17,-101 2419.33,-101 2415.5,-97.17 2415.5,-93.33 2415.5,-93.33 2415.5,-85.67 2415.5,-85.67 2415.5,-81.83 2419.33,-78 2423.17,-78 2423.17,-78 2520.83,-78 2520.83,-78 2524.67,-78 2528.5,-81.83 2528.5,-85.67 2528.5,-85.67 2528.5,-93.33 2528.5,-93.33 2528.5,-97.17 2524.67,-101 2520.83,-101"/>
<text text-anchor="middle" x="2472" y="-85.8" font-family="Arial" font-size="14.00" fill="#cfffac">types/chart.d.ts</text>
</g>
<!-- common/chart.ts&#45;&gt;types/chart.d.ts -->
<g id="edge3" class="edge">
<title>common/chart.ts&#45;&gt;types/chart.d.ts</title>
<path fill="none" stroke="#757575" d="M2113.33,-123.73C2190.37,-116.35 2323.28,-103.64 2403.58,-95.95"/>
<polygon fill="#757575" stroke="#757575" points="2403.9,-99.44 2413.52,-95 2403.24,-92.47 2403.9,-99.44"/>
</g>
<!-- common/date.ts -->
<g id="node9" class="node">
<title>common/date.ts</title>
<path fill="none" stroke="#cfffac" d="M2523.83,-577C2523.83,-577 2420.17,-577 2420.17,-577 2416.33,-577 2412.5,-573.17 2412.5,-569.33 2412.5,-569.33 2412.5,-561.67 2412.5,-561.67 2412.5,-557.83 2416.33,-554 2420.17,-554 2420.17,-554 2523.83,-554 2523.83,-554 2527.67,-554 2531.5,-557.83 2531.5,-561.67 2531.5,-561.67 2531.5,-569.33 2531.5,-569.33 2531.5,-573.17 2527.67,-577 2523.83,-577"/>
<text text-anchor="middle" x="2472" y="-561.8" font-family="Arial" font-size="14.00" fill="#cfffac">common/date.ts</text>
</g>
<!-- common/widget.ts -->
<g id="node10" class="node">
<title>common/widget.ts</title>
<path fill="none" stroke="#cfffac" d="M1603.83,-344C1603.83,-344 1487.17,-344 1487.17,-344 1483.33,-344 1479.5,-340.17 1479.5,-336.33 1479.5,-336.33 1479.5,-328.67 1479.5,-328.67 1479.5,-324.83 1483.33,-321 1487.17,-321 1487.17,-321 1603.83,-321 1603.83,-321 1607.67,-321 1611.5,-324.83 1611.5,-328.67 1611.5,-328.67 1611.5,-336.33 1611.5,-336.33 1611.5,-340.17 1607.67,-344 1603.83,-344"/>
<text text-anchor="middle" x="1545.5" y="-328.8" font-family="Arial" font-size="14.00" fill="#cfffac">common/widget.ts</text>
</g>
<!-- component/Dashboard/CommonStyle.ts -->
<g id="node11" class="node">
<title>component/Dashboard/CommonStyle.ts</title>
<path fill="none" stroke="#cfffac" d="M2179.33,-914C2179.33,-914 1924.67,-914 1924.67,-914 1920.83,-914 1917,-910.17 1917,-906.33 1917,-906.33 1917,-898.67 1917,-898.67 1917,-894.83 1920.83,-891 1924.67,-891 1924.67,-891 2179.33,-891 2179.33,-891 2183.17,-891 2187,-894.83 2187,-898.67 2187,-898.67 2187,-906.33 2187,-906.33 2187,-910.17 2183.17,-914 2179.33,-914"/>
<text text-anchor="middle" x="2052" y="-898.8" font-family="Arial" font-size="14.00" fill="#cfffac">component/Dashboard/CommonStyle.ts</text>
</g>
<!-- component/Dashboard/DashboardHeader.tsx -->
<g id="node12" class="node">
<title>component/Dashboard/DashboardHeader.tsx</title>
<path fill="none" stroke="#c6c5fe" d="M747.33,-790C747.33,-790 459.67,-790 459.67,-790 455.83,-790 452,-786.17 452,-782.33 452,-782.33 452,-774.67 452,-774.67 452,-770.83 455.83,-767 459.67,-767 459.67,-767 747.33,-767 747.33,-767 751.17,-767 755,-770.83 755,-774.67 755,-774.67 755,-782.33 755,-782.33 755,-786.17 751.17,-790 747.33,-790"/>
<text text-anchor="middle" x="603.5" y="-774.8" font-family="Arial" font-size="14.00" fill="#c6c5fe">component/Dashboard/DashboardHeader.tsx</text>
</g>
<!-- component/Dashboard/DashboardHeader/PlayIcon.tsx -->
<g id="node13" class="node">
<title>component/Dashboard/DashboardHeader/PlayIcon.tsx</title>
<path fill="none" stroke="#c6c5fe" d="M1209.83,-810C1209.83,-810 863.17,-810 863.17,-810 859.33,-810 855.5,-806.17 855.5,-802.33 855.5,-802.33 855.5,-794.67 855.5,-794.67 855.5,-790.83 859.33,-787 863.17,-787 863.17,-787 1209.83,-787 1209.83,-787 1213.67,-787 1217.5,-790.83 1217.5,-794.67 1217.5,-794.67 1217.5,-802.33 1217.5,-802.33 1217.5,-806.17 1213.67,-810 1209.83,-810"/>
<text text-anchor="middle" x="1036.5" y="-794.8" font-family="Arial" font-size="14.00" fill="#c6c5fe">component/Dashboard/DashboardHeader/PlayIcon.tsx</text>
</g>
<!-- component/Dashboard/DashboardHeader.tsx&#45;&gt;component/Dashboard/DashboardHeader/PlayIcon.tsx -->
<g id="edge4" class="edge">
<title>component/Dashboard/DashboardHeader.tsx&#45;&gt;component/Dashboard/DashboardHeader/PlayIcon.tsx</title>
<path fill="none" stroke="#757575" d="M755.24,-785.5C783.87,-786.82 814.18,-788.23 843.88,-789.61"/>
<polygon fill="#757575" stroke="#757575" points="843.56,-793.1 853.71,-790.06 843.89,-786.1 843.56,-793.1"/>
</g>
<!-- component/Dashboard/DashboardHeader/SelectRealTimeRangeArea.tsx -->
<g id="node14" class="node">
<title>component/Dashboard/DashboardHeader/SelectRealTimeRangeArea.tsx</title>
<path fill="none" stroke="#c6c5fe" d="M1778.33,-934C1778.33,-934 1312.67,-934 1312.67,-934 1308.83,-934 1305,-930.17 1305,-926.33 1305,-926.33 1305,-918.67 1305,-918.67 1305,-914.83 1308.83,-911 1312.67,-911 1312.67,-911 1778.33,-911 1778.33,-911 1782.17,-911 1786,-914.83 1786,-918.67 1786,-918.67 1786,-926.33 1786,-926.33 1786,-930.17 1782.17,-934 1778.33,-934"/>
<text text-anchor="middle" x="1545.5" y="-918.8" font-family="Arial" font-size="14.00" fill="#c6c5fe">component/Dashboard/DashboardHeader/SelectRealTimeRangeArea.tsx</text>
</g>
<!-- component/Dashboard/DashboardHeader.tsx&#45;&gt;component/Dashboard/DashboardHeader/SelectRealTimeRangeArea.tsx -->
<g id="edge5" class="edge">
<title>component/Dashboard/DashboardHeader.tsx&#45;&gt;component/Dashboard/DashboardHeader/SelectRealTimeRangeArea.tsx</title>
<path fill="none" stroke="#757575" d="M626.75,-790.48C662.81,-809.27 736.74,-845.17 804,-861.5 964.04,-900.36 1148.63,-915.64 1293.48,-921.18"/>
<polygon fill="#757575" stroke="#757575" points="1293.08,-924.67 1303.2,-921.54 1293.34,-917.67 1293.08,-924.67"/>
</g>
<!-- component/Dashboard/DashboardHeader/TimeBlock.tsx -->
<g id="node15" class="node">
<title>component/Dashboard/DashboardHeader/TimeBlock.tsx</title>
<path fill="none" stroke="#c6c5fe" d="M1215.83,-852C1215.83,-852 857.17,-852 857.17,-852 853.33,-852 849.5,-848.17 849.5,-844.33 849.5,-844.33 849.5,-836.67 849.5,-836.67 849.5,-832.83 853.33,-829 857.17,-829 857.17,-829 1215.83,-829 1215.83,-829 1219.67,-829 1223.5,-832.83 1223.5,-836.67 1223.5,-836.67 1223.5,-844.33 1223.5,-844.33 1223.5,-848.17 1219.67,-852 1215.83,-852"/>
<text text-anchor="middle" x="1036.5" y="-836.8" font-family="Arial" font-size="14.00" fill="#c6c5fe">component/Dashboard/DashboardHeader/TimeBlock.tsx</text>
</g>
<!-- component/Dashboard/DashboardHeader.tsx&#45;&gt;component/Dashboard/DashboardHeader/TimeBlock.tsx -->
<g id="edge6" class="edge">
<title>component/Dashboard/DashboardHeader.tsx&#45;&gt;component/Dashboard/DashboardHeader/TimeBlock.tsx</title>
<path fill="none" stroke="#757575" d="M656.33,-790.42C696.45,-799.27 753.5,-811.06 804,-818.5 826.67,-821.84 850.67,-824.78 874.29,-827.34"/>
<polygon fill="#757575" stroke="#757575" points="873.66,-830.79 883.97,-828.36 874.4,-823.83 873.66,-830.79"/>
</g>
<!-- store/DashboardProvider.tsx -->
<g id="node16" class="node">
<title>store/DashboardProvider.tsx</title>
<path fill="none" stroke="#c6c5fe" d="M2142.83,-711C2142.83,-711 1961.17,-711 1961.17,-711 1957.33,-711 1953.5,-707.17 1953.5,-703.33 1953.5,-703.33 1953.5,-695.67 1953.5,-695.67 1953.5,-691.83 1957.33,-688 1961.17,-688 1961.17,-688 2142.83,-688 2142.83,-688 2146.67,-688 2150.5,-691.83 2150.5,-695.67 2150.5,-695.67 2150.5,-703.33 2150.5,-703.33 2150.5,-707.17 2146.67,-711 2142.83,-711"/>
<text text-anchor="middle" x="2052" y="-695.8" font-family="Arial" font-size="14.00" fill="#c6c5fe">store/DashboardProvider.tsx</text>
</g>
<!-- component/Dashboard/DashboardHeader.tsx&#45;&gt;store/DashboardProvider.tsx -->
<g id="edge7" class="edge">
<title>component/Dashboard/DashboardHeader.tsx&#45;&gt;store/DashboardProvider.tsx</title>
<path fill="none" stroke="#757575" d="M755.47,-769.33C897.33,-760.8 1115.54,-747.87 1305,-737.5 1531.53,-725.1 1796.83,-711.9 1942.12,-704.79"/>
<polygon fill="#757575" stroke="#757575" points="1941.9,-708.3 1951.72,-704.32 1941.56,-701.31 1941.9,-708.3"/>
</g>
<!-- store/WidgetProvider.tsx -->
<g id="node17" class="node">
<title>store/WidgetProvider.tsx</title>
<path fill="none" stroke="#c6c5fe" d="M1624.33,-540C1624.33,-540 1466.67,-540 1466.67,-540 1462.83,-540 1459,-536.17 1459,-532.33 1459,-532.33 1459,-524.67 1459,-524.67 1459,-520.83 1462.83,-517 1466.67,-517 1466.67,-517 1624.33,-517 1624.33,-517 1628.17,-517 1632,-520.83 1632,-524.67 1632,-524.67 1632,-532.33 1632,-532.33 1632,-536.17 1628.17,-540 1624.33,-540"/>
<text text-anchor="middle" x="1545.5" y="-524.8" font-family="Arial" font-size="14.00" fill="#c6c5fe">store/WidgetProvider.tsx</text>
</g>
<!-- component/Dashboard/DashboardHeader.tsx&#45;&gt;store/WidgetProvider.tsx -->
<g id="edge8" class="edge">
<title>component/Dashboard/DashboardHeader.tsx&#45;&gt;store/WidgetProvider.tsx</title>
<path fill="none" stroke="#757575" d="M673.6,-766.52C837.95,-737.97 1240.62,-667.59 1269,-658.5 1362.34,-628.62 1464.92,-573.88 1514.44,-545.92"/>
<polygon fill="#757575" stroke="#757575" points="1515.9,-549.12 1522.86,-541.13 1512.44,-543.04 1515.9,-549.12"/>
</g>
<!-- component/Dashboard/DashboardHeader/PlayIcon.tsx&#45;&gt;asset/image/pause.png -->
<g id="edge17" class="edge">
<title>component/Dashboard/DashboardHeader/PlayIcon.tsx&#45;&gt;asset/image/pause.png</title>
<path fill="none" stroke="#757575" d="M1217.68,-798.86C1296.75,-799.01 1386.24,-799.19 1451.56,-799.32"/>
<polygon fill="#757575" stroke="#757575" points="1451.53,-802.82 1461.54,-799.34 1451.55,-795.82 1451.53,-802.82"/>
</g>
<!-- component/Dashboard/DashboardHeader/PlayIcon.tsx&#45;&gt;asset/image/play.png -->
<g id="edge18" class="edge">
<title>component/Dashboard/DashboardHeader/PlayIcon.tsx&#45;&gt;asset/image/play.png</title>
<path fill="none" stroke="#757575" d="M1189.27,-786.53C1277.38,-779.57 1385.13,-771.07 1458.71,-765.27"/>
<polygon fill="#757575" stroke="#757575" points="1458.56,-768.79 1468.25,-764.52 1458.01,-761.81 1458.56,-768.79"/>
</g>
<!-- component/Dashboard/DashboardHeader/SelectRealTimeRangeArea.tsx&#45;&gt;component/Dashboard/CommonStyle.ts -->
<g id="edge19" class="edge">
<title>component/Dashboard/DashboardHeader/SelectRealTimeRangeArea.tsx&#45;&gt;component/Dashboard/CommonStyle.ts</title>
<path fill="none" stroke="#757575" d="M1786.19,-913C1826.86,-911.39 1867.96,-909.76 1905.26,-908.28"/>
<polygon fill="#757575" stroke="#757575" points="1905.34,-911.78 1915.19,-907.88 1905.06,-904.78 1905.34,-911.78"/>
</g>
<!-- component/Dashboard/DashboardHeader/SelectRealTimeRangeArea.tsx&#45;&gt;store/DashboardProvider.tsx -->
<g id="edge24" class="edge">
<title>component/Dashboard/DashboardHeader/SelectRealTimeRangeArea.tsx&#45;&gt;store/DashboardProvider.tsx</title>
<path fill="none" stroke="#757575" d="M1601.32,-934.49C1654.8,-942.76 1735.3,-945.61 1786,-902.5 1836.26,-859.77 1775.52,-805.31 1822,-758.5 1853.4,-726.87 1899.34,-711.46 1941.85,-704.2"/>
<polygon fill="#757575" stroke="#757575" points="1942.31,-707.67 1951.66,-702.67 1941.24,-700.75 1942.31,-707.67"/>
</g>
<!-- hook/useBoolean.tsx -->
<g id="node22" class="node">
<title>hook/useBoolean.tsx</title>
<path fill="none" stroke="#cfffac" d="M2118.83,-636C2118.83,-636 1985.17,-636 1985.17,-636 1981.33,-636 1977.5,-632.17 1977.5,-628.33 1977.5,-628.33 1977.5,-620.67 1977.5,-620.67 1977.5,-616.83 1981.33,-613 1985.17,-613 1985.17,-613 2118.83,-613 2118.83,-613 2122.67,-613 2126.5,-616.83 2126.5,-620.67 2126.5,-620.67 2126.5,-628.33 2126.5,-628.33 2126.5,-632.17 2122.67,-636 2118.83,-636"/>
<text text-anchor="middle" x="2052" y="-620.8" font-family="Arial" font-size="14.00" fill="#cfffac">hook/useBoolean.tsx</text>
</g>
<!-- component/Dashboard/DashboardHeader/SelectRealTimeRangeArea.tsx&#45;&gt;hook/useBoolean.tsx -->
<g id="edge22" class="edge">
<title>component/Dashboard/DashboardHeader/SelectRealTimeRangeArea.tsx&#45;&gt;hook/useBoolean.tsx</title>
<path fill="none" stroke="#757575" d="M1596.63,-934.45C1650.61,-944.08 1735.5,-949.3 1786,-902.5 1859.96,-833.96 1753.32,-752.33 1822,-678.5 1858.26,-639.52 1916.97,-626.23 1965.86,-622.58"/>
<polygon fill="#757575" stroke="#757575" points="1965.81,-626.09 1975.58,-621.99 1965.38,-619.1 1965.81,-626.09"/>
</g>
<!-- hook/useOutsideClick.tsx -->
<g id="node23" class="node">
<title>hook/useOutsideClick.tsx</title>
<path fill="none" stroke="#cfffac" d="M2132.33,-873C2132.33,-873 1971.67,-873 1971.67,-873 1967.83,-873 1964,-869.17 1964,-865.33 1964,-865.33 1964,-857.67 1964,-857.67 1964,-853.83 1967.83,-850 1971.67,-850 1971.67,-850 2132.33,-850 2132.33,-850 2136.17,-850 2140,-853.83 2140,-857.67 2140,-857.67 2140,-865.33 2140,-865.33 2140,-869.17 2136.17,-873 2132.33,-873"/>
<text text-anchor="middle" x="2052" y="-857.8" font-family="Arial" font-size="14.00" fill="#cfffac">hook/useOutsideClick.tsx</text>
</g>
<!-- component/Dashboard/DashboardHeader/SelectRealTimeRangeArea.tsx&#45;&gt;hook/useOutsideClick.tsx -->
<g id="edge23" class="edge">
<title>component/Dashboard/DashboardHeader/SelectRealTimeRangeArea.tsx&#45;&gt;hook/useOutsideClick.tsx</title>
<path fill="none" stroke="#757575" d="M1754.9,-910.52C1765.5,-908.22 1775.92,-905.57 1786,-902.5 1803.51,-897.17 1804.51,-887.9 1822,-882.5 1863.58,-869.67 1911.27,-863.96 1952.33,-861.63"/>
<polygon fill="#757575" stroke="#757575" points="1952.4,-865.13 1962.21,-861.13 1952.05,-858.14 1952.4,-865.13"/>
</g>
<!-- component/Dashboard/DashboardHeader/RealTime.tsx -->
<g id="node25" class="node">
<title>component/Dashboard/DashboardHeader/RealTime.tsx</title>
<path fill="none" stroke="#cfffac" d="M2228.33,-996C2228.33,-996 1875.67,-996 1875.67,-996 1871.83,-996 1868,-992.17 1868,-988.33 1868,-988.33 1868,-980.67 1868,-980.67 1868,-976.83 1871.83,-973 1875.67,-973 1875.67,-973 2228.33,-973 2228.33,-973 2232.17,-973 2236,-976.83 2236,-980.67 2236,-980.67 2236,-988.33 2236,-988.33 2236,-992.17 2232.17,-996 2228.33,-996"/>
<text text-anchor="middle" x="2052" y="-980.8" font-family="Arial" font-size="14.00" fill="#cfffac">component/Dashboard/DashboardHeader/RealTime.tsx</text>
</g>
<!-- component/Dashboard/DashboardHeader/SelectRealTimeRangeArea.tsx&#45;&gt;component/Dashboard/DashboardHeader/RealTime.tsx -->
<g id="edge20" class="edge">
<title>component/Dashboard/DashboardHeader/SelectRealTimeRangeArea.tsx&#45;&gt;component/Dashboard/DashboardHeader/RealTime.tsx</title>
<path fill="none" stroke="#757575" d="M1616.82,-934.49C1672.39,-943.66 1751.98,-956.11 1822,-964.5 1842.92,-967.01 1864.95,-969.33 1886.75,-971.44"/>
<polygon fill="#757575" stroke="#757575" points="1886.32,-974.91 1896.61,-972.38 1886.99,-967.94 1886.32,-974.91"/>
</g>
<!-- component/Dashboard/DashboardHeader/SelectRealTimeListItem.tsx -->
<g id="node26" class="node">
<title>component/Dashboard/DashboardHeader/SelectRealTimeListItem.tsx</title>
<path fill="none" stroke="#cfffac" d="M2274.33,-955C2274.33,-955 1829.67,-955 1829.67,-955 1825.83,-955 1822,-951.17 1822,-947.33 1822,-947.33 1822,-939.67 1822,-939.67 1822,-935.83 1825.83,-932 1829.67,-932 1829.67,-932 2274.33,-932 2274.33,-932 2278.17,-932 2282,-935.83 2282,-939.67 2282,-939.67 2282,-947.33 2282,-947.33 2282,-951.17 2278.17,-955 2274.33,-955"/>
<text text-anchor="middle" x="2052" y="-939.8" font-family="Arial" font-size="14.00" fill="#cfffac">component/Dashboard/DashboardHeader/SelectRealTimeListItem.tsx</text>
</g>
<!-- component/Dashboard/DashboardHeader/SelectRealTimeRangeArea.tsx&#45;&gt;component/Dashboard/DashboardHeader/SelectRealTimeListItem.tsx -->
<g id="edge21" class="edge">
<title>component/Dashboard/DashboardHeader/SelectRealTimeRangeArea.tsx&#45;&gt;component/Dashboard/DashboardHeader/SelectRealTimeListItem.tsx</title>
<path fill="none" stroke="#757575" d="M1786.19,-932.48C1794.23,-932.81 1802.28,-933.15 1810.32,-933.48"/>
<polygon fill="#757575" stroke="#757575" points="1810.01,-936.97 1820.15,-933.89 1810.31,-929.98 1810.01,-936.97"/>
</g>
<!-- component/Dashboard/DashboardHeader/CurrentTime.tsx -->
<g id="node18" class="node">
<title>component/Dashboard/DashboardHeader/CurrentTime.tsx</title>
<path fill="none" stroke="#cfffac" d="M1730.83,-893C1730.83,-893 1360.17,-893 1360.17,-893 1356.33,-893 1352.5,-889.17 1352.5,-885.33 1352.5,-885.33 1352.5,-877.67 1352.5,-877.67 1352.5,-873.83 1356.33,-870 1360.17,-870 1360.17,-870 1730.83,-870 1730.83,-870 1734.67,-870 1738.5,-873.83 1738.5,-877.67 1738.5,-877.67 1738.5,-885.33 1738.5,-885.33 1738.5,-889.17 1734.67,-893 1730.83,-893"/>
<text text-anchor="middle" x="1545.5" y="-877.8" font-family="Arial" font-size="14.00" fill="#cfffac">component/Dashboard/DashboardHeader/CurrentTime.tsx</text>
</g>
<!-- component/Dashboard/DashboardHeader/TimeBlock.tsx&#45;&gt;component/Dashboard/DashboardHeader/CurrentTime.tsx -->
<g id="edge25" class="edge">
<title>component/Dashboard/DashboardHeader/TimeBlock.tsx&#45;&gt;component/Dashboard/DashboardHeader/CurrentTime.tsx</title>
<path fill="none" stroke="#757575" d="M1185.85,-852.5C1248.43,-857.56 1321.4,-863.46 1385.12,-868.61"/>
<polygon fill="#757575" stroke="#757575" points="1384.74,-872.09 1394.99,-869.41 1385.3,-865.11 1384.74,-872.09"/>
</g>
<!-- component/Dashboard/DashboardHeader/DatePickerArea.tsx -->
<g id="node20" class="node">
<title>component/Dashboard/DashboardHeader/DatePickerArea.tsx</title>
<path fill="none" stroke="#c6c5fe" d="M1741.33,-852C1741.33,-852 1349.67,-852 1349.67,-852 1345.83,-852 1342,-848.17 1342,-844.33 1342,-844.33 1342,-836.67 1342,-836.67 1342,-832.83 1345.83,-829 1349.67,-829 1349.67,-829 1741.33,-829 1741.33,-829 1745.17,-829 1749,-832.83 1749,-836.67 1749,-836.67 1749,-844.33 1749,-844.33 1749,-848.17 1745.17,-852 1741.33,-852"/>
<text text-anchor="middle" x="1545.5" y="-836.8" font-family="Arial" font-size="14.00" fill="#c6c5fe">component/Dashboard/DashboardHeader/DatePickerArea.tsx</text>
</g>
<!-- component/Dashboard/DashboardHeader/TimeBlock.tsx&#45;&gt;component/Dashboard/DashboardHeader/DatePickerArea.tsx -->
<g id="edge26" class="edge">
<title>component/Dashboard/DashboardHeader/TimeBlock.tsx&#45;&gt;component/Dashboard/DashboardHeader/DatePickerArea.tsx</title>
<path fill="none" stroke="#757575" d="M1223.77,-840.5C1258.43,-840.5 1294.91,-840.5 1330.33,-840.5"/>
<polygon fill="#757575" stroke="#757575" points="1330.28,-844 1340.28,-840.5 1330.28,-837 1330.28,-844"/>
</g>
<!-- store/DashboardProvider.tsx&#45;&gt;common/date.ts -->
<g id="edge67" class="edge">
<title>store/DashboardProvider.tsx&#45;&gt;common/date.ts</title>
<path fill="none" stroke="#757575" d="M2114.49,-687.53C2161.03,-677.8 2226.23,-662.72 2282,-644.5 2336.92,-626.55 2398.25,-599.57 2435.74,-582.25"/>
<polygon fill="#757575" stroke="#757575" points="2437.15,-585.45 2444.74,-578.05 2434.2,-579.1 2437.15,-585.45"/>
</g>
<!-- store/WidgetProvider.tsx&#45;&gt;hook/useBoolean.tsx -->
<g id="edge68" class="edge">
<title>store/WidgetProvider.tsx&#45;&gt;hook/useBoolean.tsx</title>
<path fill="none" stroke="#757575" d="M1632.3,-534.67C1678.15,-538.76 1735.42,-545.13 1786,-554.5 1862.66,-568.7 1949.74,-593.4 2002.51,-609.34"/>
<polygon fill="#757575" stroke="#757575" points="2001.19,-612.6 2011.78,-612.16 2003.23,-605.9 2001.19,-612.6"/>
</g>
<!-- types/widget.d.ts -->
<g id="node24" class="node">
<title>types/widget.d.ts</title>
<path fill="none" stroke="#cfffac" d="M2105.83,-540C2105.83,-540 1998.17,-540 1998.17,-540 1994.33,-540 1990.5,-536.17 1990.5,-532.33 1990.5,-532.33 1990.5,-524.67 1990.5,-524.67 1990.5,-520.83 1994.33,-517 1998.17,-517 1998.17,-517 2105.83,-517 2105.83,-517 2109.67,-517 2113.5,-520.83 2113.5,-524.67 2113.5,-524.67 2113.5,-532.33 2113.5,-532.33 2113.5,-536.17 2109.67,-540 2105.83,-540"/>
<text text-anchor="middle" x="2052" y="-524.8" font-family="Arial" font-size="14.00" fill="#cfffac">types/widget.d.ts</text>
</g>
<!-- store/WidgetProvider.tsx&#45;&gt;types/widget.d.ts -->
<g id="edge69" class="edge">
<title>store/WidgetProvider.tsx&#45;&gt;types/widget.d.ts</title>
<path fill="none" stroke="#757575" d="M1632.37,-528.5C1729.88,-528.5 1887.27,-528.5 1978.74,-528.5"/>
<polygon fill="#757575" stroke="#757575" points="1978.59,-532 1988.59,-528.5 1978.59,-525 1978.59,-532"/>
</g>
<!-- component/Dashboard/DashboardHeader/DateBox.tsx -->
<g id="node19" class="node">
<title>component/Dashboard/DashboardHeader/DateBox.tsx</title>
<path fill="none" stroke="#cfffac" d="M2225.33,-832C2225.33,-832 1878.67,-832 1878.67,-832 1874.83,-832 1871,-828.17 1871,-824.33 1871,-824.33 1871,-816.67 1871,-816.67 1871,-812.83 1874.83,-809 1878.67,-809 1878.67,-809 2225.33,-809 2225.33,-809 2229.17,-809 2233,-812.83 2233,-816.67 2233,-816.67 2233,-824.33 2233,-824.33 2233,-828.17 2229.17,-832 2225.33,-832"/>
<text text-anchor="middle" x="2052" y="-816.8" font-family="Arial" font-size="14.00" fill="#cfffac">component/Dashboard/DashboardHeader/DateBox.tsx</text>
</g>
<!-- component/Dashboard/DashboardHeader/DatePickerArea.tsx&#45;&gt;common/date.ts -->
<g id="edge9" class="edge">
<title>component/Dashboard/DashboardHeader/DatePickerArea.tsx&#45;&gt;common/date.ts</title>
<path fill="none" stroke="#757575" d="M1749.46,-836.87C1762.29,-832.38 1774.61,-826.68 1786,-819.5 1812.63,-802.71 1795.35,-775.25 1822,-758.5 1908.86,-703.91 2186.89,-757.95 2282,-719.5 2356.21,-689.5 2423.91,-619.79 2454.23,-585.41"/>
<polygon fill="#757575" stroke="#757575" points="2456.54,-588.08 2460.45,-578.23 2451.25,-583.5 2456.54,-588.08"/>
</g>
<!-- component/Dashboard/DashboardHeader/DatePickerArea.tsx&#45;&gt;component/Dashboard/CommonStyle.ts -->
<g id="edge10" class="edge">
<title>component/Dashboard/DashboardHeader/DatePickerArea.tsx&#45;&gt;component/Dashboard/CommonStyle.ts</title>
<path fill="none" stroke="#757575" d="M1749.32,-851.9C1761.85,-854.57 1774.17,-857.74 1786,-861.5 1803.65,-867.11 1804.35,-876.89 1822,-882.5 1848.44,-890.9 1877.41,-896.21 1905.59,-899.5"/>
<polygon fill="#757575" stroke="#757575" points="1904.93,-902.95 1915.25,-900.54 1905.68,-895.99 1904.93,-902.95"/>
</g>
<!-- component/Dashboard/DashboardHeader/DatePickerArea.tsx&#45;&gt;store/DashboardProvider.tsx -->
<g id="edge15" class="edge">
<title>component/Dashboard/DashboardHeader/DatePickerArea.tsx&#45;&gt;store/DashboardProvider.tsx</title>
<path fill="none" stroke="#757575" d="M1613.94,-852.5C1666.05,-857.87 1737.27,-856.26 1786,-819.5 1821.72,-792.56 1786.63,-752.9 1822,-725.5 1855.47,-699.58 1900.39,-690.64 1941.58,-689.08"/>
<polygon fill="#757575" stroke="#757575" points="1941.65,-692.58 1951.57,-688.86 1941.49,-685.58 1941.65,-692.58"/>
</g>
<!-- component/Dashboard/DashboardHeader/DatePickerArea.tsx&#45;&gt;component/Dashboard/DashboardHeader/DateBox.tsx -->
<g id="edge11" class="edge">
<title>component/Dashboard/DashboardHeader/DatePickerArea.tsx&#45;&gt;component/Dashboard/DashboardHeader/DateBox.tsx</title>
<path fill="none" stroke="#757575" d="M1749.16,-832.47C1785.53,-831.02 1823.33,-829.53 1859.38,-828.1"/>
<polygon fill="#757575" stroke="#757575" points="1859.15,-831.61 1869,-827.72 1858.87,-824.61 1859.15,-831.61"/>
</g>
<!-- component/common/DatePicker.tsx -->
<g id="node21" class="node">
<title>component/common/DatePicker.tsx</title>
<path fill="none" stroke="#c6c5fe" d="M2165.33,-791C2165.33,-791 1938.67,-791 1938.67,-791 1934.83,-791 1931,-787.17 1931,-783.33 1931,-783.33 1931,-775.67 1931,-775.67 1931,-771.83 1934.83,-768 1938.67,-768 1938.67,-768 2165.33,-768 2165.33,-768 2169.17,-768 2173,-771.83 2173,-775.67 2173,-775.67 2173,-783.33 2173,-783.33 2173,-787.17 2169.17,-791 2165.33,-791"/>
<text text-anchor="middle" x="2052" y="-775.8" font-family="Arial" font-size="14.00" fill="#c6c5fe">component/common/DatePicker.tsx</text>
</g>
<!-- component/Dashboard/DashboardHeader/DatePickerArea.tsx&#45;&gt;component/common/DatePicker.tsx -->
<g id="edge12" class="edge">
<title>component/Dashboard/DashboardHeader/DatePickerArea.tsx&#45;&gt;component/common/DatePicker.tsx</title>
<path fill="none" stroke="#757575" d="M1749.23,-828.81C1761.78,-826.21 1774.13,-823.14 1786,-819.5 1803.5,-814.14 1804.5,-804.86 1822,-799.5 1852.81,-790.07 1886.96,-784.6 1919.28,-781.52"/>
<polygon fill="#757575" stroke="#757575" points="1919.46,-785.02 1929.12,-780.67 1918.85,-778.05 1919.46,-785.02"/>
</g>
<!-- component/Dashboard/DashboardHeader/DatePickerArea.tsx&#45;&gt;hook/useBoolean.tsx -->
<g id="edge13" class="edge">
<title>component/Dashboard/DashboardHeader/DatePickerArea.tsx&#45;&gt;hook/useBoolean.tsx</title>
<path fill="none" stroke="#757575" d="M1603.33,-852.47C1656.79,-860.2 1735.9,-862.06 1786,-819.5 1835.29,-777.63 1775.85,-723.81 1822,-678.5 1859.64,-641.54 1917.59,-628.13 1965.77,-623.91"/>
<polygon fill="#757575" stroke="#757575" points="1965.93,-627.41 1975.64,-623.18 1965.41,-620.43 1965.93,-627.41"/>
</g>
<!-- component/Dashboard/DashboardHeader/DatePickerArea.tsx&#45;&gt;hook/useOutsideClick.tsx -->
<g id="edge14" class="edge">
<title>component/Dashboard/DashboardHeader/DatePickerArea.tsx&#45;&gt;hook/useOutsideClick.tsx</title>
<path fill="none" stroke="#757575" d="M1749.16,-848.94C1819.15,-851.85 1894.44,-854.98 1952.32,-857.39"/>
<polygon fill="#757575" stroke="#757575" points="1952.01,-860.88 1962.14,-857.8 1952.3,-853.89 1952.01,-860.88"/>
</g>
<!-- component/Dashboard/DashboardHeader/DatePickerArea.tsx&#45;&gt;types/widget.d.ts -->
<g id="edge16" class="edge">
<title>component/Dashboard/DashboardHeader/DatePickerArea.tsx&#45;&gt;types/widget.d.ts</title>
<path fill="none" stroke="#757575" d="M1598.59,-852.49C1652.62,-861.58 1736.06,-865.7 1786,-819.5 1857.44,-753.41 1758.58,-677.32 1822,-603.5 1860.84,-558.29 1927.38,-540.17 1978.75,-532.99"/>
<polygon fill="#757575" stroke="#757575" points="1979.15,-536.47 1988.63,-531.74 1978.27,-529.53 1979.15,-536.47"/>
</g>
<!-- component/common/DatePicker/ListPicker.tsx -->
<g id="node41" class="node">
<title>component/common/DatePicker/ListPicker.tsx</title>
<path fill="none" stroke="#c6c5fe" d="M2618.33,-771C2618.33,-771 2325.67,-771 2325.67,-771 2321.83,-771 2318,-767.17 2318,-763.33 2318,-763.33 2318,-755.67 2318,-755.67 2318,-751.83 2321.83,-748 2325.67,-748 2325.67,-748 2618.33,-748 2618.33,-748 2622.17,-748 2626,-751.83 2626,-755.67 2626,-755.67 2626,-763.33 2626,-763.33 2626,-767.17 2622.17,-771 2618.33,-771"/>
<text text-anchor="middle" x="2472" y="-755.8" font-family="Arial" font-size="14.00" fill="#c6c5fe">component/common/DatePicker/ListPicker.tsx</text>
</g>
<!-- component/common/DatePicker.tsx&#45;&gt;component/common/DatePicker/ListPicker.tsx -->
<g id="edge58" class="edge">
<title>component/common/DatePicker.tsx&#45;&gt;component/common/DatePicker/ListPicker.tsx</title>
<path fill="none" stroke="#757575" d="M2173.34,-773.74C2214.81,-771.76 2261.99,-769.5 2306.37,-767.38"/>
<polygon fill="#757575" stroke="#757575" points="2306.26,-770.89 2316.08,-766.91 2305.92,-763.89 2306.26,-770.89"/>
</g>
<!-- types/datePicker.d.ts -->
<g id="node42" class="node">
<title>types/datePicker.d.ts</title>
<path fill="none" stroke="#cfffac" d="M2803.33,-791C2803.33,-791 2669.67,-791 2669.67,-791 2665.83,-791 2662,-787.17 2662,-783.33 2662,-783.33 2662,-775.67 2662,-775.67 2662,-771.83 2665.83,-768 2669.67,-768 2669.67,-768 2803.33,-768 2803.33,-768 2807.17,-768 2811,-771.83 2811,-775.67 2811,-775.67 2811,-783.33 2811,-783.33 2811,-787.17 2807.17,-791 2803.33,-791"/>
<text text-anchor="middle" x="2736.5" y="-775.8" font-family="Arial" font-size="14.00" fill="#cfffac">types/datePicker.d.ts</text>
</g>
<!-- component/common/DatePicker.tsx&#45;&gt;types/datePicker.d.ts -->
<g id="edge59" class="edge">
<title>component/common/DatePicker.tsx&#45;&gt;types/datePicker.d.ts</title>
<path fill="none" stroke="#757575" d="M2173.45,-779.5C2310.24,-779.5 2530,-779.5 2650.19,-779.5"/>
<polygon fill="#757575" stroke="#757575" points="2649.99,-783 2659.99,-779.5 2649.99,-776 2649.99,-783"/>
</g>
<!-- component/Widget.tsx -->
<g id="node27" class="node">
<title>component/Widget.tsx</title>
<path fill="none" stroke="#c6c5fe" d="M675.33,-420C675.33,-420 531.67,-420 531.67,-420 527.83,-420 524,-416.17 524,-412.33 524,-412.33 524,-404.67 524,-404.67 524,-400.83 527.83,-397 531.67,-397 531.67,-397 675.33,-397 675.33,-397 679.17,-397 683,-400.83 683,-404.67 683,-404.67 683,-412.33 683,-412.33 683,-416.17 679.17,-420 675.33,-420"/>
<text text-anchor="middle" x="603.5" y="-404.8" font-family="Arial" font-size="14.00" fill="#c6c5fe">component/Widget.tsx</text>
</g>
<!-- component/Widget.tsx&#45;&gt;common/api.ts -->
<g id="edge27" class="edge">
<title>component/Widget.tsx&#45;&gt;common/api.ts</title>
<path fill="none" stroke="#757575" d="M683.2,-416.88C713.28,-415.78 745.69,-408.68 768,-387.5 832.87,-325.92 737.86,-249.72 804,-189.5 848.51,-148.98 919.78,-148.9 971.5,-155.88"/>
<polygon fill="#757575" stroke="#757575" points="970.97,-159.34 981.38,-157.35 972,-152.42 970.97,-159.34"/>
</g>
<!-- component/Widget.tsx&#45;&gt;common/date.ts -->
<g id="edge28" class="edge">
<title>component/Widget.tsx&#45;&gt;common/date.ts</title>
<path fill="none" stroke="#757575" d="M683.14,-407.04C719.86,-406.44 764.17,-405.8 804,-405.5 1462.43,-400.55 1640.71,-358.14 2282,-507.5 2332.2,-519.19 2388.54,-537.13 2426.55,-549.95"/>
<polygon fill="#757575" stroke="#757575" points="2425.21,-553.2 2435.81,-553.11 2427.47,-546.57 2425.21,-553.2"/>
</g>
<!-- component/Widget.tsx&#45;&gt;common/widget.ts -->
<g id="edge29" class="edge">
<title>component/Widget.tsx&#45;&gt;common/widget.ts</title>
<path fill="none" stroke="#757575" d="M683.11,-407.63C710.89,-404.96 741.73,-399.21 768,-387.5 787.29,-378.9 784.33,-364.17 804,-356.5 923.08,-310.08 1303.53,-321.27 1467.78,-328.6"/>
<polygon fill="#757575" stroke="#757575" points="1467.57,-332.09 1477.72,-329.05 1467.89,-325.1 1467.57,-332.09"/>
</g>
<!-- component/Widget.tsx&#45;&gt;store/DashboardProvider.tsx -->
<g id="edge34" class="edge">
<title>component/Widget.tsx&#45;&gt;store/DashboardProvider.tsx</title>
<path fill="none" stroke="#757575" d="M613.24,-420.22C638.49,-453.02 715.39,-545.81 804,-583.5 1005.52,-669.23 1568.19,-643.74 1786,-666.5 1840.44,-672.19 1901.02,-679.65 1950.51,-686.04"/>
<polygon fill="#757575" stroke="#757575" points="1949.99,-689.5 1960.36,-687.31 1950.89,-682.56 1949.99,-689.5"/>
</g>
<!-- component/Widget.tsx&#45;&gt;hook/useBoolean.tsx -->
<g id="edge33" class="edge">
<title>component/Widget.tsx&#45;&gt;hook/useBoolean.tsx</title>
<path fill="none" stroke="#757575" d="M616.16,-420.46C644.89,-449 722.69,-520.8 804,-548.5 1010.77,-618.94 1568.3,-574.5 1786,-592.5 1846.34,-597.49 1914.12,-605.72 1966.03,-612.59"/>
<polygon fill="#757575" stroke="#757575" points="1965.31,-616.02 1975.69,-613.87 1966.24,-609.08 1965.31,-616.02"/>
</g>
<!-- component/Widget.tsx&#45;&gt;types/widget.d.ts -->
<g id="edge35" class="edge">
<title>component/Widget.tsx&#45;&gt;types/widget.d.ts</title>
<path fill="none" stroke="#757575" d="M683.4,-408.21C808,-408.33 1057.87,-410.89 1269,-427.5 1531.82,-448.18 1841.77,-494.9 1979.2,-516.78"/>
<polygon fill="#757575" stroke="#757575" points="1978.46,-520.21 1988.88,-518.33 1979.56,-513.3 1978.46,-520.21"/>
</g>
<!-- component/Widget/WidgetButtons.tsx -->
<g id="node28" class="node">
<title>component/Widget/WidgetButtons.tsx</title>
<path fill="none" stroke="#c6c5fe" d="M1157.33,-540C1157.33,-540 915.67,-540 915.67,-540 911.83,-540 908,-536.17 908,-532.33 908,-532.33 908,-524.67 908,-524.67 908,-520.83 911.83,-517 915.67,-517 915.67,-517 1157.33,-517 1157.33,-517 1161.17,-517 1165,-520.83 1165,-524.67 1165,-524.67 1165,-532.33 1165,-532.33 1165,-536.17 1161.17,-540 1157.33,-540"/>
<text text-anchor="middle" x="1036.5" y="-524.8" font-family="Arial" font-size="14.00" fill="#c6c5fe">component/Widget/WidgetButtons.tsx</text>
</g>
<!-- component/Widget.tsx&#45;&gt;component/Widget/WidgetButtons.tsx -->
<g id="edge30" class="edge">
<title>component/Widget.tsx&#45;&gt;component/Widget/WidgetButtons.tsx</title>
<path fill="none" stroke="#757575" d="M624.04,-420.39C658.82,-440.94 734.38,-482.77 804,-502.5 833.37,-510.82 865.55,-516.5 896.32,-520.36"/>
<polygon fill="#757575" stroke="#757575" points="895.74,-523.82 906.09,-521.53 896.57,-516.87 895.74,-523.82"/>
</g>
<!-- component/Widget/WidgetCallCycleSettingModal.tsx -->
<g id="node29" class="node">
<title>component/Widget/WidgetCallCycleSettingModal.tsx</title>
<path fill="none" stroke="#c6c5fe" d="M1204.33,-303C1204.33,-303 868.67,-303 868.67,-303 864.83,-303 861,-299.17 861,-295.33 861,-295.33 861,-287.67 861,-287.67 861,-283.83 864.83,-280 868.67,-280 868.67,-280 1204.33,-280 1204.33,-280 1208.17,-280 1212,-283.83 1212,-287.67 1212,-287.67 1212,-295.33 1212,-295.33 1212,-299.17 1208.17,-303 1204.33,-303"/>
<text text-anchor="middle" x="1036.5" y="-287.8" font-family="Arial" font-size="14.00" fill="#c6c5fe">component/Widget/WidgetCallCycleSettingModal.tsx</text>
</g>
<!-- component/Widget.tsx&#45;&gt;component/Widget/WidgetCallCycleSettingModal.tsx -->
<g id="edge31" class="edge">
<title>component/Widget.tsx&#45;&gt;component/Widget/WidgetCallCycleSettingModal.tsx</title>
<path fill="none" stroke="#757575" d="M683.15,-413.08C712.02,-411.18 743.58,-404.52 768,-387.5 796.37,-367.72 775.51,-338.12 804,-318.5 817.94,-308.9 833.51,-301.72 849.8,-296.42"/>
<polygon fill="#757575" stroke="#757575" points="850.57,-299.84 859.15,-293.63 848.57,-293.13 850.57,-299.84"/>
</g>
<!-- component/Widget/WidgetChart.tsx -->
<g id="node30" class="node">
<title>component/Widget/WidgetChart.tsx</title>
<path fill="none" stroke="#c6c5fe" d="M1149.83,-222C1149.83,-222 923.17,-222 923.17,-222 919.33,-222 915.5,-218.17 915.5,-214.33 915.5,-214.33 915.5,-206.67 915.5,-206.67 915.5,-202.83 919.33,-199 923.17,-199 923.17,-199 1149.83,-199 1149.83,-199 1153.67,-199 1157.5,-202.83 1157.5,-206.67 1157.5,-206.67 1157.5,-214.33 1157.5,-214.33 1157.5,-218.17 1153.67,-222 1149.83,-222"/>
<text text-anchor="middle" x="1036.5" y="-206.8" font-family="Arial" font-size="14.00" fill="#c6c5fe">component/Widget/WidgetChart.tsx</text>
</g>
<!-- component/Widget.tsx&#45;&gt;component/Widget/WidgetChart.tsx -->
<g id="edge32" class="edge">
<title>component/Widget.tsx&#45;&gt;component/Widget/WidgetChart.tsx</title>
<path fill="none" stroke="#757575" d="M683.22,-415.45C712.78,-414 744.8,-407.04 768,-387.5 809.61,-352.45 764.68,-308.1 804,-270.5 831.06,-244.63 867.78,-229.54 904,-220.84"/>
<polygon fill="#757575" stroke="#757575" points="904.73,-224.27 913.73,-218.68 903.21,-217.43 904.73,-224.27"/>
</g>
<!-- component/Widget/WidgetButtons.tsx&#45;&gt;store/WidgetProvider.tsx -->
<g id="edge36" class="edge">
<title>component/Widget/WidgetButtons.tsx&#45;&gt;store/WidgetProvider.tsx</title>
<path fill="none" stroke="#757575" d="M1165.44,-528.5C1253.13,-528.5 1367.64,-528.5 1447.76,-528.5"/>
<polygon fill="#757575" stroke="#757575" points="1447.32,-532 1457.32,-528.5 1447.32,-525 1447.32,-532"/>
</g>
<!-- component/Widget/WidgetCallCycleSettingModal.tsx&#45;&gt;common/date.ts -->
<g id="edge37" class="edge">
<title>component/Widget/WidgetCallCycleSettingModal.tsx&#45;&gt;common/date.ts</title>
<path fill="none" stroke="#757575" d="M1076.44,-279.52C1128.09,-264.33 1222.35,-238.95 1305,-229.5 1517.39,-205.21 1573.95,-202.38 1786,-229.5 2011.94,-258.4 2086.94,-240.88 2282,-358.5 2363.25,-407.5 2430.37,-501.93 2457.75,-544.17"/>
<polygon fill="#757575" stroke="#757575" points="2454.7,-545.9 2463.03,-552.45 2460.61,-542.14 2454.7,-545.9"/>
</g>
<!-- component/Widget/WidgetCallCycleSettingModal.tsx&#45;&gt;common/widget.ts -->
<g id="edge38" class="edge">
<title>component/Widget/WidgetCallCycleSettingModal.tsx&#45;&gt;common/widget.ts</title>
<path fill="none" stroke="#757575" d="M1185.85,-303.5C1278.41,-310.98 1393.71,-320.31 1468.19,-326.33"/>
<polygon fill="#757575" stroke="#757575" points="1467.57,-329.79 1477.82,-327.11 1468.13,-322.81 1467.57,-329.79"/>
</g>
<!-- component/Widget/WidgetCallCycleSettingModal/CycleInput.tsx -->
<g id="node31" class="node">
<title>component/Widget/WidgetCallCycleSettingModal/CycleInput.tsx</title>
<path fill="none" stroke="#cfffac" d="M1748.83,-303C1748.83,-303 1342.17,-303 1342.17,-303 1338.33,-303 1334.5,-299.17 1334.5,-295.33 1334.5,-295.33 1334.5,-287.67 1334.5,-287.67 1334.5,-283.83 1338.33,-280 1342.17,-280 1342.17,-280 1748.83,-280 1748.83,-280 1752.67,-280 1756.5,-283.83 1756.5,-287.67 1756.5,-287.67 1756.5,-295.33 1756.5,-295.33 1756.5,-299.17 1752.67,-303 1748.83,-303"/>
<text text-anchor="middle" x="1545.5" y="-287.8" font-family="Arial" font-size="14.00" fill="#cfffac">component/Widget/WidgetCallCycleSettingModal/CycleInput.tsx</text>
</g>
<!-- component/Widget/WidgetCallCycleSettingModal.tsx&#45;&gt;component/Widget/WidgetCallCycleSettingModal/CycleInput.tsx -->
<g id="edge39" class="edge">
<title>component/Widget/WidgetCallCycleSettingModal.tsx&#45;&gt;component/Widget/WidgetCallCycleSettingModal/CycleInput.tsx</title>
<path fill="none" stroke="#757575" d="M1212.34,-291.5C1247.89,-291.5 1285.73,-291.5 1322.66,-291.5"/>
<polygon fill="#757575" stroke="#757575" points="1322.57,-295 1332.57,-291.5 1322.57,-288 1322.57,-295"/>
</g>
<!-- component/Widget/WidgetCallCycleSettingModal/LastCallTimeBox.tsx -->
<g id="node32" class="node">
<title>component/Widget/WidgetCallCycleSettingModal/LastCallTimeBox.tsx</title>
<path fill="none" stroke="#cfffac" d="M1769.33,-262C1769.33,-262 1321.67,-262 1321.67,-262 1317.83,-262 1314,-258.17 1314,-254.33 1314,-254.33 1314,-246.67 1314,-246.67 1314,-242.83 1317.83,-239 1321.67,-239 1321.67,-239 1769.33,-239 1769.33,-239 1773.17,-239 1777,-242.83 1777,-246.67 1777,-246.67 1777,-254.33 1777,-254.33 1777,-258.17 1773.17,-262 1769.33,-262"/>
<text text-anchor="middle" x="1545.5" y="-246.8" font-family="Arial" font-size="14.00" fill="#cfffac">component/Widget/WidgetCallCycleSettingModal/LastCallTimeBox.tsx</text>
</g>
<!-- component/Widget/WidgetCallCycleSettingModal.tsx&#45;&gt;component/Widget/WidgetCallCycleSettingModal/LastCallTimeBox.tsx -->
<g id="edge40" class="edge">
<title>component/Widget/WidgetCallCycleSettingModal.tsx&#45;&gt;component/Widget/WidgetCallCycleSettingModal/LastCallTimeBox.tsx</title>
<path fill="none" stroke="#757575" d="M1185.85,-279.5C1248.43,-274.44 1321.4,-268.54 1385.12,-263.39"/>
<polygon fill="#757575" stroke="#757575" points="1385.3,-266.89 1394.99,-262.59 1384.74,-259.91 1385.3,-266.89"/>
</g>
<!-- component/chart/BarChart.tsx -->
<g id="node33" class="node">
<title>component/chart/BarChart.tsx</title>
<path fill="none" stroke="#c6c5fe" d="M1639.33,-182C1639.33,-182 1451.67,-182 1451.67,-182 1447.83,-182 1444,-178.17 1444,-174.33 1444,-174.33 1444,-166.67 1444,-166.67 1444,-162.83 1447.83,-159 1451.67,-159 1451.67,-159 1639.33,-159 1639.33,-159 1643.17,-159 1647,-162.83 1647,-166.67 1647,-166.67 1647,-174.33 1647,-174.33 1647,-178.17 1643.17,-182 1639.33,-182"/>
<text text-anchor="middle" x="1545.5" y="-166.8" font-family="Arial" font-size="14.00" fill="#c6c5fe">component/chart/BarChart.tsx</text>
</g>
<!-- component/Widget/WidgetChart.tsx&#45;&gt;component/chart/BarChart.tsx -->
<g id="edge41" class="edge">
<title>component/Widget/WidgetChart.tsx&#45;&gt;component/chart/BarChart.tsx</title>
<path fill="none" stroke="#757575" d="M1157.97,-201C1241.18,-194.43 1351.08,-185.76 1432.41,-179.34"/>
<polygon fill="#757575" stroke="#757575" points="1432.49,-182.85 1442.19,-178.57 1431.94,-175.87 1432.49,-182.85"/>
</g>
<!-- component/chart/InformaticsChart.tsx -->
<g id="node34" class="node">
<title>component/chart/InformaticsChart.tsx</title>
<path fill="none" stroke="#c6c5fe" d="M1663.83,-82C1663.83,-82 1427.17,-82 1427.17,-82 1423.33,-82 1419.5,-78.17 1419.5,-74.33 1419.5,-74.33 1419.5,-66.67 1419.5,-66.67 1419.5,-62.83 1423.33,-59 1427.17,-59 1427.17,-59 1663.83,-59 1663.83,-59 1667.67,-59 1671.5,-62.83 1671.5,-66.67 1671.5,-66.67 1671.5,-74.33 1671.5,-74.33 1671.5,-78.17 1667.67,-82 1663.83,-82"/>
<text text-anchor="middle" x="1545.5" y="-66.8" font-family="Arial" font-size="14.00" fill="#c6c5fe">component/chart/InformaticsChart.tsx</text>
</g>
<!-- component/Widget/WidgetChart.tsx&#45;&gt;component/chart/InformaticsChart.tsx -->
<g id="edge42" class="edge">
<title>component/Widget/WidgetChart.tsx&#45;&gt;component/chart/InformaticsChart.tsx</title>
<path fill="none" stroke="#757575" d="M1120.37,-222.49C1168,-224.93 1226.59,-219.87 1269,-189.5 1301.03,-166.56 1273.76,-132.5 1305,-108.5 1334.27,-86.02 1371.59,-74.47 1408.01,-69.02"/>
<polygon fill="#757575" stroke="#757575" points="1408.32,-72.51 1417.77,-67.72 1407.39,-65.57 1408.32,-72.51"/>
</g>
<!-- component/chart/LineChart.tsx -->
<g id="node35" class="node">
<title>component/chart/LineChart.tsx</title>
<path fill="none" stroke="#c6c5fe" d="M1642.33,-141C1642.33,-141 1448.67,-141 1448.67,-141 1444.83,-141 1441,-137.17 1441,-133.33 1441,-133.33 1441,-125.67 1441,-125.67 1441,-121.83 1444.83,-118 1448.67,-118 1448.67,-118 1642.33,-118 1642.33,-118 1646.17,-118 1650,-121.83 1650,-125.67 1650,-125.67 1650,-133.33 1650,-133.33 1650,-137.17 1646.17,-141 1642.33,-141"/>
<text text-anchor="middle" x="1545.5" y="-125.8" font-family="Arial" font-size="14.00" fill="#c6c5fe">component/chart/LineChart.tsx</text>
</g>
<!-- component/Widget/WidgetChart.tsx&#45;&gt;component/chart/LineChart.tsx -->
<g id="edge43" class="edge">
<title>component/Widget/WidgetChart.tsx&#45;&gt;component/chart/LineChart.tsx</title>
<path fill="none" stroke="#757575" d="M1157.83,-216.3C1195.07,-213.79 1235.17,-206.44 1269,-189.5 1290.39,-178.79 1283.58,-160.13 1305,-149.5 1342.84,-130.72 1388.2,-123.67 1429.22,-122"/>
<polygon fill="#757575" stroke="#757575" points="1429.26,-125.5 1439.15,-121.71 1429.06,-118.51 1429.26,-125.5"/>
</g>
<!-- component/chart/BarChart.tsx&#45;&gt;common/chart.ts -->
<g id="edge49" class="edge">
<title>component/chart/BarChart.tsx&#45;&gt;common/chart.ts</title>
<path fill="none" stroke="#757575" d="M1647.38,-162.3C1745.63,-154.32 1892.48,-142.38 1979.32,-135.32"/>
<polygon fill="#757575" stroke="#757575" points="1979.46,-138.83 1989.14,-134.53 1978.89,-131.85 1979.46,-138.83"/>
</g>
<!-- component/chart/BarChart.tsx&#45;&gt;types/chart.d.ts -->
<g id="edge51" class="edge">
<title>component/chart/BarChart.tsx&#45;&gt;types/chart.d.ts</title>
<path fill="none" stroke="#757575" d="M1647.21,-179.92C1819.82,-194.95 2164.9,-219.83 2282,-190.5 2345.72,-174.54 2411.45,-132.55 2446.11,-108.03"/>
<polygon fill="#757575" stroke="#757575" points="2448.13,-110.88 2454.2,-102.2 2444.04,-105.2 2448.13,-110.88"/>
</g>
<!-- hook/useResize.tsx -->
<g id="node39" class="node">
<title>hook/useResize.tsx</title>
<path fill="none" stroke="#cfffac" d="M2114.33,-182C2114.33,-182 1989.67,-182 1989.67,-182 1985.83,-182 1982,-178.17 1982,-174.33 1982,-174.33 1982,-166.67 1982,-166.67 1982,-162.83 1985.83,-159 1989.67,-159 1989.67,-159 2114.33,-159 2114.33,-159 2118.17,-159 2122,-162.83 2122,-166.67 2122,-166.67 2122,-174.33 2122,-174.33 2122,-178.17 2118.17,-182 2114.33,-182"/>
<text text-anchor="middle" x="2052" y="-166.8" font-family="Arial" font-size="14.00" fill="#cfffac">hook/useResize.tsx</text>
</g>
<!-- component/chart/BarChart.tsx&#45;&gt;hook/useResize.tsx -->
<g id="edge50" class="edge">
<title>component/chart/BarChart.tsx&#45;&gt;hook/useResize.tsx</title>
<path fill="none" stroke="#757575" d="M1647.38,-170.5C1742.32,-170.5 1882.66,-170.5 1970.37,-170.5"/>
<polygon fill="#757575" stroke="#757575" points="1970.34,-174 1980.34,-170.5 1970.34,-167 1970.34,-174"/>
</g>
<!-- component/chart/InformaticsChart.tsx&#45;&gt;types/chart.d.ts -->
<g id="edge53" class="edge">
<title>component/chart/InformaticsChart.tsx&#45;&gt;types/chart.d.ts</title>
<path fill="none" stroke="#757575" d="M1671.82,-68.79C1818.25,-67.39 2067.81,-66.85 2282,-75.5 2322.49,-77.14 2367.77,-80.44 2403.86,-83.42"/>
<polygon fill="#757575" stroke="#757575" points="2403.47,-86.9 2413.73,-84.25 2404.05,-79.93 2403.47,-86.9"/>
</g>
<!-- component/chart/InformaticsChart/InforMaticsBox.tsx -->
<g id="node40" class="node">
<title>component/chart/InformaticsChart/InforMaticsBox.tsx</title>
<path fill="none" stroke="#c6c5fe" d="M2219.33,-23C2219.33,-23 1884.67,-23 1884.67,-23 1880.83,-23 1877,-19.17 1877,-15.33 1877,-15.33 1877,-7.67 1877,-7.67 1877,-3.83 1880.83,0 1884.67,0 1884.67,0 2219.33,0 2219.33,0 2223.17,0 2227,-3.83 2227,-7.67 2227,-7.67 2227,-15.33 2227,-15.33 2227,-19.17 2223.17,-23 2219.33,-23"/>
<text text-anchor="middle" x="2052" y="-7.8" font-family="Arial" font-size="14.00" fill="#c6c5fe">component/chart/InformaticsChart/InforMaticsBox.tsx</text>
</g>
<!-- component/chart/InformaticsChart.tsx&#45;&gt;component/chart/InformaticsChart/InforMaticsBox.tsx -->
<g id="edge52" class="edge">
<title>component/chart/InformaticsChart.tsx&#45;&gt;component/chart/InformaticsChart/InforMaticsBox.tsx</title>
<path fill="none" stroke="#757575" d="M1671.92,-65.06C1708.92,-61.97 1749.32,-57.11 1786,-49.5 1802.51,-46.07 1805.53,-41.14 1822,-37.5 1844.94,-32.43 1869.39,-28.32 1893.47,-25"/>
<polygon fill="#757575" stroke="#757575" points="1893.92,-28.47 1903.37,-23.68 1893,-21.53 1893.92,-28.47"/>
</g>
<!-- component/chart/LineChart.tsx&#45;&gt;common/chart.ts -->
<g id="edge55" class="edge">
<title>component/chart/LineChart.tsx&#45;&gt;common/chart.ts</title>
<path fill="none" stroke="#757575" d="M1650.42,-129.5C1748.6,-129.5 1893.26,-129.5 1979.23,-129.5"/>
<polygon fill="#757575" stroke="#757575" points="1979.18,-133 1989.18,-129.5 1979.18,-126 1979.18,-133"/>
</g>
<!-- component/chart/LineChart.tsx&#45;&gt;types/chart.d.ts -->
<g id="edge57" class="edge">
<title>component/chart/LineChart.tsx&#45;&gt;types/chart.d.ts</title>
<path fill="none" stroke="#757575" d="M1650.43,-120.42C1701.99,-116.21 1765.24,-111.49 1822,-108.5 2034.43,-97.3 2286.35,-92.29 2404.09,-90.43"/>
<polygon fill="#757575" stroke="#757575" points="2403.95,-93.93 2413.89,-90.27 2403.84,-86.93 2403.95,-93.93"/>
</g>
<!-- component/chart/LineChart.tsx&#45;&gt;hook/useResize.tsx -->
<g id="edge56" class="edge">
<title>component/chart/LineChart.tsx&#45;&gt;hook/useResize.tsx</title>
<path fill="none" stroke="#757575" d="M1650.42,-137.95C1745.25,-145.65 1883.44,-156.88 1970.22,-163.94"/>
<polygon fill="#757575" stroke="#757575" points="1969.83,-167.42 1980.08,-164.74 1970.4,-160.44 1969.83,-167.42"/>
</g>
<!-- component/Widget/WidgetPropsSettingModal.tsx -->
<g id="node36" class="node">
<title>component/Widget/WidgetPropsSettingModal.tsx</title>
<path fill="none" stroke="#c6c5fe" d="M760.33,-379C760.33,-379 446.67,-379 446.67,-379 442.83,-379 439,-375.17 439,-371.33 439,-371.33 439,-363.67 439,-363.67 439,-359.83 442.83,-356 446.67,-356 446.67,-356 760.33,-356 760.33,-356 764.17,-356 768,-359.83 768,-363.67 768,-363.67 768,-371.33 768,-371.33 768,-375.17 764.17,-379 760.33,-379"/>
<text text-anchor="middle" x="603.5" y="-363.8" font-family="Arial" font-size="14.00" fill="#c6c5fe">component/Widget/WidgetPropsSettingModal.tsx</text>
</g>
<!-- component/Widget/WidgetPropsSettingModal.tsx&#45;&gt;common/api.ts -->
<g id="edge44" class="edge">
<title>component/Widget/WidgetPropsSettingModal.tsx&#45;&gt;common/api.ts</title>
<path fill="none" stroke="#757575" d="M613.2,-355.59C638.32,-322.25 714.93,-227.93 804,-189.5 856.53,-166.84 921.89,-163.14 969.76,-164.36"/>
<polygon fill="#757575" stroke="#757575" points="969.6,-167.86 979.71,-164.7 969.84,-160.86 969.6,-167.86"/>
</g>
<!-- component/Widget/WidgetPropsSettingModal.tsx&#45;&gt;store/WidgetProvider.tsx -->
<g id="edge47" class="edge">
<title>component/Widget/WidgetPropsSettingModal.tsx&#45;&gt;store/WidgetProvider.tsx</title>
<path fill="none" stroke="#757575" d="M755.34,-379.48C759.74,-381.86 763.98,-384.52 768,-387.5 799.67,-410.94 771.86,-445.72 804,-468.5 807.25,-470.8 1246.94,-505.32 1447.17,-520.93"/>
<polygon fill="#757575" stroke="#757575" points="1446.81,-524.41 1457.05,-521.7 1447.35,-517.43 1446.81,-524.41"/>
</g>
<!-- component/Widget/WidgetPropsSettingModal/WidgetPropsButtons.tsx -->
<g id="node37" class="node">
<title>component/Widget/WidgetPropsSettingModal/WidgetPropsButtons.tsx</title>
<path fill="none" stroke="#c6c5fe" d="M1261.33,-460C1261.33,-460 811.67,-460 811.67,-460 807.83,-460 804,-456.17 804,-452.33 804,-452.33 804,-444.67 804,-444.67 804,-440.83 807.83,-437 811.67,-437 811.67,-437 1261.33,-437 1261.33,-437 1265.17,-437 1269,-440.83 1269,-444.67 1269,-444.67 1269,-452.33 1269,-452.33 1269,-456.17 1265.17,-460 1261.33,-460"/>
<text text-anchor="middle" x="1036.5" y="-444.8" font-family="Arial" font-size="14.00" fill="#c6c5fe">component/Widget/WidgetPropsSettingModal/WidgetPropsButtons.tsx</text>
</g>
<!-- component/Widget/WidgetPropsSettingModal.tsx&#45;&gt;component/Widget/WidgetPropsSettingModal/WidgetPropsButtons.tsx -->
<g id="edge45" class="edge">
<title>component/Widget/WidgetPropsSettingModal.tsx&#45;&gt;component/Widget/WidgetPropsSettingModal/WidgetPropsButtons.tsx</title>
<path fill="none" stroke="#757575" d="M715.1,-379.47C732.84,-381.84 750.96,-384.52 768,-387.5 841.38,-400.32 924.92,-420.24 978.83,-433.8"/>
<polygon fill="#757575" stroke="#757575" points="977.85,-437.16 988.41,-436.22 979.57,-430.38 977.85,-437.16"/>
</g>
<!-- component/Widget/WidgetPropsSettingModal/WidgetPropsList.tsx -->
<g id="node38" class="node">
<title>component/Widget/WidgetPropsSettingModal/WidgetPropsList.tsx</title>
<path fill="none" stroke="#cfffac" d="M1248.83,-140C1248.83,-140 824.17,-140 824.17,-140 820.33,-140 816.5,-136.17 816.5,-132.33 816.5,-132.33 816.5,-124.67 816.5,-124.67 816.5,-120.83 820.33,-117 824.17,-117 824.17,-117 1248.83,-117 1248.83,-117 1252.67,-117 1256.5,-120.83 1256.5,-124.67 1256.5,-124.67 1256.5,-132.33 1256.5,-132.33 1256.5,-136.17 1252.67,-140 1248.83,-140"/>
<text text-anchor="middle" x="1036.5" y="-124.8" font-family="Arial" font-size="14.00" fill="#cfffac">component/Widget/WidgetPropsSettingModal/WidgetPropsList.tsx</text>
</g>
<!-- component/Widget/WidgetPropsSettingModal.tsx&#45;&gt;component/Widget/WidgetPropsSettingModal/WidgetPropsList.tsx -->
<g id="edge46" class="edge">
<title>component/Widget/WidgetPropsSettingModal.tsx&#45;&gt;component/Widget/WidgetPropsSettingModal/WidgetPropsList.tsx</title>
<path fill="none" stroke="#757575" d="M610.88,-355.69C632.22,-317.54 705.33,-197.27 804,-148.5 806.65,-147.19 809.34,-145.94 812.06,-144.74"/>
<polygon fill="#757575" stroke="#757575" points="813.37,-147.99 821.31,-140.98 810.73,-141.51 813.37,-147.99"/>
</g>
<!-- component/Widget/WidgetPropsSettingModal/WidgetPropsButtons.tsx&#45;&gt;store/WidgetProvider.tsx -->
<g id="edge48" class="edge">
<title>component/Widget/WidgetPropsSettingModal/WidgetPropsButtons.tsx&#45;&gt;store/WidgetProvider.tsx</title>
<path fill="none" stroke="#757575" d="M1160.89,-460.47C1195.91,-464.38 1234.02,-469.12 1269,-474.5 1341.33,-485.63 1423.6,-502.28 1479.25,-514.15"/>
<polygon fill="#757575" stroke="#757575" points="1478.37,-517.54 1488.89,-516.21 1479.84,-510.7 1478.37,-517.54"/>
</g>
<!-- component/chart/InformaticsChart/InforMaticsBox.tsx&#45;&gt;types/chart.d.ts -->
<g id="edge54" class="edge">
<title>component/chart/InformaticsChart/InforMaticsBox.tsx&#45;&gt;types/chart.d.ts</title>
<path fill="none" stroke="#757575" d="M2189.45,-23.47C2220.04,-27.13 2252.24,-31.75 2282,-37.5 2330.81,-46.93 2385.46,-62.53 2423.39,-74.19"/>
<polygon fill="#757575" stroke="#757575" points="2422.07,-77.44 2432.66,-77.06 2424.15,-70.76 2422.07,-77.44"/>
</g>
<!-- component/common/DatePicker/ListPicker.tsx&#45;&gt;types/datePicker.d.ts -->
<g id="edge60" class="edge">
<title>component/common/DatePicker/ListPicker.tsx&#45;&gt;types/datePicker.d.ts</title>
<path fill="none" stroke="#757575" d="M2626.46,-771.19C2634.5,-771.81 2642.44,-772.41 2650.13,-773"/>
<polygon fill="#757575" stroke="#757575" points="2649.85,-776.48 2660.09,-773.75 2650.38,-769.5 2649.85,-776.48"/>
</g>
<!-- page/Dashboard.tsx&#45;&gt;component/Dashboard/DashboardHeader.tsx -->
<g id="edge61" class="edge">
<title>page/Dashboard.tsx&#45;&gt;component/Dashboard/DashboardHeader.tsx</title>
<path fill="none" stroke="#757575" d="M356.01,-656.39C404.23,-680.28 512.99,-734.16 568.51,-761.66"/>
<polygon fill="#757575" stroke="#757575" points="566.68,-764.66 577.19,-765.96 569.79,-758.39 566.68,-764.66"/>
</g>
<!-- page/Dashboard.tsx&#45;&gt;store/DashboardProvider.tsx -->
<g id="edge64" class="edge">
<title>page/Dashboard.tsx&#45;&gt;store/DashboardProvider.tsx</title>
<path fill="none" stroke="#757575" d="M403.4,-646.78C671.4,-655.36 1618.46,-685.66 1941.83,-696.01"/>
<polygon fill="#757575" stroke="#757575" points="1941.45,-699.5 1951.56,-696.32 1941.68,-692.5 1941.45,-699.5"/>
</g>
<!-- page/Dashboard.tsx&#45;&gt;store/WidgetProvider.tsx -->
<g id="edge65" class="edge">
<title>page/Dashboard.tsx&#45;&gt;store/WidgetProvider.tsx</title>
<path fill="none" stroke="#757575" d="M403.32,-637.68C610.22,-617.88 1210.87,-560.42 1447.27,-537.8"/>
<polygon fill="#757575" stroke="#757575" points="1447.46,-541.3 1457.08,-536.86 1446.8,-534.33 1447.46,-541.3"/>
</g>
<!-- page/Dashboard.tsx&#45;&gt;component/Widget.tsx -->
<g id="edge62" class="edge">
<title>page/Dashboard.tsx&#45;&gt;component/Widget.tsx</title>
<path fill="none" stroke="#757575" d="M345.41,-632.8C388.95,-594.81 526.59,-474.73 580.52,-427.68"/>
<polygon fill="#757575" stroke="#757575" points="582.63,-430.48 587.86,-421.27 578.03,-425.21 582.63,-430.48"/>
</g>
<!-- page/Dashboard.tsx&#45;&gt;component/Widget/WidgetPropsSettingModal.tsx -->
<g id="edge63" class="edge">
<title>page/Dashboard.tsx&#45;&gt;component/Widget/WidgetPropsSettingModal.tsx</title>
<path fill="none" stroke="#757575" d="M332.9,-632.55C336.75,-590.83 355.64,-450.74 439,-387.5 440,-386.74 441.01,-386.01 442.03,-385.29"/>
<polygon fill="#757575" stroke="#757575" points="443.64,-388.41 450.28,-380.16 439.94,-382.47 443.64,-388.41"/>
</g>
</g>
</svg>
