<?xml version="1.0" encoding="UTF-8" standalone="no"?>
<!DOCTYPE svg PUBLIC "-//W3C//DTD SVG 1.1//EN"
 "http://www.w3.org/Graphics/SVG/1.1/DTD/svg11.dtd">
<!-- Generated by graphviz version 7.1.0 (20230121.1956)
 -->
<!-- Title: G Pages: 1 -->
<svg width="3080pt" height="1056pt"
 viewBox="0.00 0.00 3080.20 1056.07" xmlns="http://www.w3.org/2000/svg" xmlns:xlink="http://www.w3.org/1999/xlink">
<g id="graph0" class="graph" transform="scale(1 1) rotate(0) translate(21.6 1034.47)">
<title>G</title>
<polygon fill="#111111" stroke="none" points="-21.6,21.6 -21.6,-1034.47 3058.6,-1034.47 3058.6,21.6 -21.6,21.6"/>
<!-- App.tsx -->
<g id="node1" class="node">
<title>App.tsx</title>
<path fill="none" stroke="#c6c5fe" d="M57.33,-537.87C57.33,-537.87 7.67,-537.87 7.67,-537.87 3.83,-537.87 0,-534.04 0,-530.2 0,-530.2 0,-522.54 0,-522.54 0,-518.7 3.83,-514.87 7.67,-514.87 7.67,-514.87 57.33,-514.87 57.33,-514.87 61.17,-514.87 65,-518.7 65,-522.54 65,-522.54 65,-530.2 65,-530.2 65,-534.04 61.17,-537.87 57.33,-537.87"/>
<text text-anchor="middle" x="32.5" y="-522.67" font-family="Arial" font-size="14.00" fill="#c6c5fe">App.tsx</text>
</g>
<!-- router/Router.tsx -->
<g id="node2" class="node">
<title>router/Router.tsx</title>
<path fill="none" stroke="#c6c5fe" d="M215.33,-537.87C215.33,-537.87 108.67,-537.87 108.67,-537.87 104.83,-537.87 101,-534.04 101,-530.2 101,-530.2 101,-522.54 101,-522.54 101,-518.7 104.83,-514.87 108.67,-514.87 108.67,-514.87 215.33,-514.87 215.33,-514.87 219.17,-514.87 223,-518.7 223,-522.54 223,-522.54 223,-530.2 223,-530.2 223,-534.04 219.17,-537.87 215.33,-537.87"/>
<text text-anchor="middle" x="162" y="-522.67" font-family="Arial" font-size="14.00" fill="#c6c5fe">router/Router.tsx</text>
</g>
<!-- App.tsx&#45;&gt;router/Router.tsx -->
<g id="edge1" class="edge">
<title>App.tsx&#45;&gt;router/Router.tsx</title>
<path fill="none" stroke="#757575" d="M65.34,-526.37C72.7,-526.37 80.81,-526.37 89.12,-526.37"/>
<polygon fill="#757575" stroke="#757575" points="88.99,-529.87 98.99,-526.37 88.99,-522.87 88.99,-529.87"/>
</g>
<!-- page/Dashboard.tsx -->
<g id="node48" class="node">
<title>page/Dashboard.tsx</title>
<path fill="none" stroke="#c6c5fe" d="M395.33,-537.87C395.33,-537.87 266.67,-537.87 266.67,-537.87 262.83,-537.87 259,-534.04 259,-530.2 259,-530.2 259,-522.54 259,-522.54 259,-518.7 262.83,-514.87 266.67,-514.87 266.67,-514.87 395.33,-514.87 395.33,-514.87 399.17,-514.87 403,-518.7 403,-522.54 403,-522.54 403,-530.2 403,-530.2 403,-534.04 399.17,-537.87 395.33,-537.87"/>
<text text-anchor="middle" x="331" y="-522.67" font-family="Arial" font-size="14.00" fill="#c6c5fe">page/Dashboard.tsx</text>
</g>
<!-- router/Router.tsx&#45;&gt;page/Dashboard.tsx -->
<g id="edge71" class="edge">
<title>router/Router.tsx&#45;&gt;page/Dashboard.tsx</title>
<path fill="none" stroke="#757575" d="M223.29,-526.37C231.1,-526.37 239.21,-526.37 247.3,-526.37"/>
<polygon fill="#757575" stroke="#757575" points="247.19,-529.87 257.19,-526.37 247.19,-522.87 247.19,-529.87"/>
</g>
<!-- asset/image/pause.png -->
<g id="node3" class="node">
<title>asset/image/pause.png</title>
<path fill="none" stroke="#cfffac" d="M1619.83,-993.87C1619.83,-993.87 1471.17,-993.87 1471.17,-993.87 1467.33,-993.87 1463.5,-990.04 1463.5,-986.2 1463.5,-986.2 1463.5,-978.54 1463.5,-978.54 1463.5,-974.7 1467.33,-970.87 1471.17,-970.87 1471.17,-970.87 1619.83,-970.87 1619.83,-970.87 1623.67,-970.87 1627.5,-974.7 1627.5,-978.54 1627.5,-978.54 1627.5,-986.2 1627.5,-986.2 1627.5,-990.04 1623.67,-993.87 1619.83,-993.87"/>
<text text-anchor="middle" x="1545.5" y="-978.67" font-family="Arial" font-size="14.00" fill="#cfffac">asset/image/pause.png</text>
</g>
<!-- asset/image/play.png -->
<g id="node4" class="node">
<title>asset/image/play.png</title>
<path fill="none" stroke="#cfffac" d="M1613.33,-952.87C1613.33,-952.87 1477.67,-952.87 1477.67,-952.87 1473.83,-952.87 1470,-949.04 1470,-945.2 1470,-945.2 1470,-937.54 1470,-937.54 1470,-933.7 1473.83,-929.87 1477.67,-929.87 1477.67,-929.87 1613.33,-929.87 1613.33,-929.87 1617.17,-929.87 1621,-933.7 1621,-937.54 1621,-937.54 1621,-945.2 1621,-945.2 1621,-949.04 1617.17,-952.87 1613.33,-952.87"/>
<text text-anchor="middle" x="1545.5" y="-937.67" font-family="Arial" font-size="14.00" fill="#cfffac">asset/image/play.png</text>
</g>
<!-- common/api.ts -->
<g id="node5" class="node">
<title>common/api.ts</title>
<path fill="none" stroke="#c6c5fe" d="M2100.83,-400.87C2100.83,-400.87 2006.17,-400.87 2006.17,-400.87 2002.33,-400.87 1998.5,-397.04 1998.5,-393.2 1998.5,-393.2 1998.5,-385.54 1998.5,-385.54 1998.5,-381.7 2002.33,-377.87 2006.17,-377.87 2006.17,-377.87 2100.83,-377.87 2100.83,-377.87 2104.67,-377.87 2108.5,-381.7 2108.5,-385.54 2108.5,-385.54 2108.5,-393.2 2108.5,-393.2 2108.5,-397.04 2104.67,-400.87 2100.83,-400.87"/>
<text text-anchor="middle" x="2053.5" y="-385.67" font-family="Arial" font-size="14.00" fill="#c6c5fe">common/api.ts</text>
</g>
<!-- types/api.d.ts -->
<g id="node6" class="node">
<title>types/api.d.ts</title>
<path fill="none" stroke="#cfffac" d="M2535.33,-355.87C2535.33,-355.87 2449.67,-355.87 2449.67,-355.87 2445.83,-355.87 2442,-352.04 2442,-348.2 2442,-348.2 2442,-340.54 2442,-340.54 2442,-336.7 2445.83,-332.87 2449.67,-332.87 2449.67,-332.87 2535.33,-332.87 2535.33,-332.87 2539.17,-332.87 2543,-336.7 2543,-340.54 2543,-340.54 2543,-348.2 2543,-348.2 2543,-352.04 2539.17,-355.87 2535.33,-355.87"/>
<text text-anchor="middle" x="2492.5" y="-340.67" font-family="Arial" font-size="14.00" fill="#cfffac">types/api.d.ts</text>
</g>
<!-- common/api.ts&#45;&gt;types/api.d.ts -->
<g id="edge2" class="edge">
<title>common/api.ts&#45;&gt;types/api.d.ts</title>
<path fill="none" stroke="#757575" d="M2108.96,-383.76C2190.77,-375.34 2344.89,-359.47 2430.41,-350.66"/>
<polygon fill="#757575" stroke="#757575" points="2430.67,-354.15 2440.25,-349.65 2429.95,-347.19 2430.67,-354.15"/>
</g>
<!-- types/widget.d.ts -->
<g id="node7" class="node">
<title>types/widget.d.ts</title>
<path fill="none" stroke="#cfffac" d="M2922.33,-466.87C2922.33,-466.87 2814.67,-466.87 2814.67,-466.87 2810.83,-466.87 2807,-463.04 2807,-459.2 2807,-459.2 2807,-451.54 2807,-451.54 2807,-447.7 2810.83,-443.87 2814.67,-443.87 2814.67,-443.87 2922.33,-443.87 2922.33,-443.87 2926.17,-443.87 2930,-447.7 2930,-451.54 2930,-451.54 2930,-459.2 2930,-459.2 2930,-463.04 2926.17,-466.87 2922.33,-466.87"/>
<text text-anchor="middle" x="2868.5" y="-451.67" font-family="Arial" font-size="14.00" fill="#cfffac">types/widget.d.ts</text>
</g>
<!-- common/api.ts&#45;&gt;types/widget.d.ts -->
<g id="edge3" class="edge">
<title>common/api.ts&#45;&gt;types/widget.d.ts</title>
<path fill="none" stroke="#757575" d="M2108.88,-390.37C2215.6,-392.76 2459.86,-400.36 2664,-422.37 2707.89,-427.1 2756.72,-434.93 2795.54,-441.78"/>
<polygon fill="#757575" stroke="#757575" points="2794.78,-445.2 2805.24,-443.51 2796.01,-438.31 2794.78,-445.2"/>
</g>
<!-- common/chart.ts -->
<g id="node8" class="node">
<title>common/chart.ts</title>
<path fill="none" stroke="#c6c5fe" d="M2106.83,-68.87C2106.83,-68.87 2000.17,-68.87 2000.17,-68.87 1996.33,-68.87 1992.5,-65.04 1992.5,-61.2 1992.5,-61.2 1992.5,-53.54 1992.5,-53.54 1992.5,-49.7 1996.33,-45.87 2000.17,-45.87 2000.17,-45.87 2106.83,-45.87 2106.83,-45.87 2110.67,-45.87 2114.5,-49.7 2114.5,-53.54 2114.5,-53.54 2114.5,-61.2 2114.5,-61.2 2114.5,-65.04 2110.67,-68.87 2106.83,-68.87"/>
<text text-anchor="middle" x="2053.5" y="-53.67" font-family="Arial" font-size="14.00" fill="#c6c5fe">common/chart.ts</text>
</g>
<!-- types/chart.d.ts -->
<g id="node9" class="node">
<title>types/chart.d.ts</title>
<path fill="none" stroke="#cfffac" d="M2541.33,-209.87C2541.33,-209.87 2443.67,-209.87 2443.67,-209.87 2439.83,-209.87 2436,-206.04 2436,-202.2 2436,-202.2 2436,-194.54 2436,-194.54 2436,-190.7 2439.83,-186.87 2443.67,-186.87 2443.67,-186.87 2541.33,-186.87 2541.33,-186.87 2545.17,-186.87 2549,-190.7 2549,-194.54 2549,-194.54 2549,-202.2 2549,-202.2 2549,-206.04 2545.17,-209.87 2541.33,-209.87"/>
<text text-anchor="middle" x="2492.5" y="-194.67" font-family="Arial" font-size="14.00" fill="#cfffac">types/chart.d.ts</text>
</g>
<!-- common/chart.ts&#45;&gt;types/chart.d.ts -->
<g id="edge4" class="edge">
<title>common/chart.ts&#45;&gt;types/chart.d.ts</title>
<path fill="none" stroke="#757575" d="M2114.65,-55.42C2162.01,-55.57 2229.12,-59.58 2285,-77.37 2356.96,-100.29 2430.83,-151.66 2467.63,-179.53"/>
<polygon fill="#757575" stroke="#757575" points="2465.31,-182.16 2475.38,-185.47 2469.58,-176.61 2465.31,-182.16"/>
</g>
<!-- common/date.ts -->
<g id="node10" class="node">
<title>common/date.ts</title>
<path fill="none" stroke="#cfffac" d="M2544.33,-686.87C2544.33,-686.87 2440.67,-686.87 2440.67,-686.87 2436.83,-686.87 2433,-683.04 2433,-679.2 2433,-679.2 2433,-671.54 2433,-671.54 2433,-667.7 2436.83,-663.87 2440.67,-663.87 2440.67,-663.87 2544.33,-663.87 2544.33,-663.87 2548.17,-663.87 2552,-667.7 2552,-671.54 2552,-671.54 2552,-679.2 2552,-679.2 2552,-683.04 2548.17,-686.87 2544.33,-686.87"/>
<text text-anchor="middle" x="2492.5" y="-671.67" font-family="Arial" font-size="14.00" fill="#cfffac">common/date.ts</text>
</g>
<!-- common/widget.ts -->
<g id="node11" class="node">
<title>common/widget.ts</title>
<path fill="none" stroke="#cfffac" d="M2111.83,-563.87C2111.83,-563.87 1995.17,-563.87 1995.17,-563.87 1991.33,-563.87 1987.5,-560.04 1987.5,-556.2 1987.5,-556.2 1987.5,-548.54 1987.5,-548.54 1987.5,-544.7 1991.33,-540.87 1995.17,-540.87 1995.17,-540.87 2111.83,-540.87 2111.83,-540.87 2115.67,-540.87 2119.5,-544.7 2119.5,-548.54 2119.5,-548.54 2119.5,-556.2 2119.5,-556.2 2119.5,-560.04 2115.67,-563.87 2111.83,-563.87"/>
<text text-anchor="middle" x="2053.5" y="-548.67" font-family="Arial" font-size="14.00" fill="#cfffac">common/widget.ts</text>
</g>
<!-- component/Dashboard/DashboardHeader.tsx -->
<g id="node12" class="node">
<title>component/Dashboard/DashboardHeader.tsx</title>
<path fill="none" stroke="#c6c5fe" d="M747.33,-770.87C747.33,-770.87 459.67,-770.87 459.67,-770.87 455.83,-770.87 452,-767.04 452,-763.2 452,-763.2 452,-755.54 452,-755.54 452,-751.7 455.83,-747.87 459.67,-747.87 459.67,-747.87 747.33,-747.87 747.33,-747.87 751.17,-747.87 755,-751.7 755,-755.54 755,-755.54 755,-763.2 755,-763.2 755,-767.04 751.17,-770.87 747.33,-770.87"/>
<text text-anchor="middle" x="603.5" y="-755.67" font-family="Arial" font-size="14.00" fill="#c6c5fe">component/Dashboard/DashboardHeader.tsx</text>
</g>
<!-- component/Dashboard/DashboardHeader/PlayIcon.tsx -->
<g id="node13" class="node">
<title>component/Dashboard/DashboardHeader/PlayIcon.tsx</title>
<path fill="none" stroke="#c6c5fe" d="M1209.83,-952.87C1209.83,-952.87 863.17,-952.87 863.17,-952.87 859.33,-952.87 855.5,-949.04 855.5,-945.2 855.5,-945.2 855.5,-937.54 855.5,-937.54 855.5,-933.7 859.33,-929.87 863.17,-929.87 863.17,-929.87 1209.83,-929.87 1209.83,-929.87 1213.67,-929.87 1217.5,-933.7 1217.5,-937.54 1217.5,-937.54 1217.5,-945.2 1217.5,-945.2 1217.5,-949.04 1213.67,-952.87 1209.83,-952.87"/>
<text text-anchor="middle" x="1036.5" y="-937.67" font-family="Arial" font-size="14.00" fill="#c6c5fe">component/Dashboard/DashboardHeader/PlayIcon.tsx</text>
</g>
<!-- component/Dashboard/DashboardHeader.tsx&#45;&gt;component/Dashboard/DashboardHeader/PlayIcon.tsx -->
<g id="edge5" class="edge">
<title>component/Dashboard/DashboardHeader.tsx&#45;&gt;component/Dashboard/DashboardHeader/PlayIcon.tsx</title>
<path fill="none" stroke="#757575" d="M617.92,-771.16C648.58,-797.44 727.07,-861.03 804,-893.37 841.96,-909.33 885.73,-920.15 924.92,-927.41"/>
<polygon fill="#757575" stroke="#757575" points="924.16,-930.83 934.62,-929.15 925.39,-923.94 924.16,-930.83"/>
</g>
<!-- component/Dashboard/DashboardHeader/SelectRealTimeRangeArea.tsx -->
<g id="node14" class="node">
<title>component/Dashboard/DashboardHeader/SelectRealTimeRangeArea.tsx</title>
<path fill="none" stroke="#c6c5fe" d="M1778.33,-911.87C1778.33,-911.87 1312.67,-911.87 1312.67,-911.87 1308.83,-911.87 1305,-908.04 1305,-904.2 1305,-904.2 1305,-896.54 1305,-896.54 1305,-892.7 1308.83,-888.87 1312.67,-888.87 1312.67,-888.87 1778.33,-888.87 1778.33,-888.87 1782.17,-888.87 1786,-892.7 1786,-896.54 1786,-896.54 1786,-904.2 1786,-904.2 1786,-908.04 1782.17,-911.87 1778.33,-911.87"/>
<text text-anchor="middle" x="1545.5" y="-896.67" font-family="Arial" font-size="14.00" fill="#c6c5fe">component/Dashboard/DashboardHeader/SelectRealTimeRangeArea.tsx</text>
</g>
<!-- component/Dashboard/DashboardHeader.tsx&#45;&gt;component/Dashboard/DashboardHeader/SelectRealTimeRangeArea.tsx -->
<g id="edge6" class="edge">
<title>component/Dashboard/DashboardHeader.tsx&#45;&gt;component/Dashboard/DashboardHeader/SelectRealTimeRangeArea.tsx</title>
<path fill="none" stroke="#757575" d="M637.56,-771.35C676.75,-785.08 744.28,-807.23 804,-819.37 980.19,-855.19 1183.39,-875.99 1332.32,-887.52"/>
<polygon fill="#757575" stroke="#757575" points="1331.64,-890.98 1341.88,-888.26 1332.18,-884 1331.64,-890.98"/>
</g>
<!-- component/Dashboard/DashboardHeader/TimeBlock.tsx -->
<g id="node15" class="node">
<title>component/Dashboard/DashboardHeader/TimeBlock.tsx</title>
<path fill="none" stroke="#c6c5fe" d="M1215.83,-809.87C1215.83,-809.87 857.17,-809.87 857.17,-809.87 853.33,-809.87 849.5,-806.04 849.5,-802.2 849.5,-802.2 849.5,-794.54 849.5,-794.54 849.5,-790.7 853.33,-786.87 857.17,-786.87 857.17,-786.87 1215.83,-786.87 1215.83,-786.87 1219.67,-786.87 1223.5,-790.7 1223.5,-794.54 1223.5,-794.54 1223.5,-802.2 1223.5,-802.2 1223.5,-806.04 1219.67,-809.87 1215.83,-809.87"/>
<text text-anchor="middle" x="1036.5" y="-794.67" font-family="Arial" font-size="14.00" fill="#c6c5fe">component/Dashboard/DashboardHeader/TimeBlock.tsx</text>
</g>
<!-- component/Dashboard/DashboardHeader.tsx&#45;&gt;component/Dashboard/DashboardHeader/TimeBlock.tsx -->
<g id="edge7" class="edge">
<title>component/Dashboard/DashboardHeader.tsx&#45;&gt;component/Dashboard/DashboardHeader/TimeBlock.tsx</title>
<path fill="none" stroke="#757575" d="M737.04,-771.36C786.03,-775.8 841.77,-780.84 891.71,-785.36"/>
<polygon fill="#757575" stroke="#757575" points="891.15,-788.82 901.43,-786.24 891.78,-781.85 891.15,-788.82"/>
</g>
<!-- store/DashboardProvider.tsx -->
<g id="node16" class="node">
<title>store/DashboardProvider.tsx</title>
<path fill="none" stroke="#c6c5fe" d="M2144.33,-686.87C2144.33,-686.87 1962.67,-686.87 1962.67,-686.87 1958.83,-686.87 1955,-683.04 1955,-679.2 1955,-679.2 1955,-671.54 1955,-671.54 1955,-667.7 1958.83,-663.87 1962.67,-663.87 1962.67,-663.87 2144.33,-663.87 2144.33,-663.87 2148.17,-663.87 2152,-667.7 2152,-671.54 2152,-671.54 2152,-679.2 2152,-679.2 2152,-683.04 2148.17,-686.87 2144.33,-686.87"/>
<text text-anchor="middle" x="2053.5" y="-671.67" font-family="Arial" font-size="14.00" fill="#c6c5fe">store/DashboardProvider.tsx</text>
</g>
<!-- component/Dashboard/DashboardHeader.tsx&#45;&gt;store/DashboardProvider.tsx -->
<g id="edge8" class="edge">
<title>component/Dashboard/DashboardHeader.tsx&#45;&gt;store/DashboardProvider.tsx</title>
<path fill="none" stroke="#757575" d="M755.36,-750.62C1048.35,-733.62 1687.98,-696.52 1943.69,-681.68"/>
<polygon fill="#757575" stroke="#757575" points="1943.55,-685.2 1953.33,-681.12 1943.14,-678.21 1943.55,-685.2"/>
</g>
<!-- store/WidgetPropsSettingModalProvider.tsx -->
<g id="node17" class="node">
<title>store/WidgetPropsSettingModalProvider.tsx</title>
<path fill="none" stroke="#c6c5fe" d="M1684.83,-672.87C1684.83,-672.87 1406.17,-672.87 1406.17,-672.87 1402.33,-672.87 1398.5,-669.04 1398.5,-665.2 1398.5,-665.2 1398.5,-657.54 1398.5,-657.54 1398.5,-653.7 1402.33,-649.87 1406.17,-649.87 1406.17,-649.87 1684.83,-649.87 1684.83,-649.87 1688.67,-649.87 1692.5,-653.7 1692.5,-657.54 1692.5,-657.54 1692.5,-665.2 1692.5,-665.2 1692.5,-669.04 1688.67,-672.87 1684.83,-672.87"/>
<text text-anchor="middle" x="1545.5" y="-657.67" font-family="Arial" font-size="14.00" fill="#c6c5fe">store/WidgetPropsSettingModalProvider.tsx</text>
</g>
<!-- component/Dashboard/DashboardHeader.tsx&#45;&gt;store/WidgetPropsSettingModalProvider.tsx -->
<g id="edge9" class="edge">
<title>component/Dashboard/DashboardHeader.tsx&#45;&gt;store/WidgetPropsSettingModalProvider.tsx</title>
<path fill="none" stroke="#757575" d="M640.8,-747.39C680.42,-734.86 745.98,-715.74 804,-706.37 1003.4,-674.15 1236.39,-664.52 1386.98,-661.89"/>
<polygon fill="#757575" stroke="#757575" points="1386.68,-665.4 1396.62,-661.73 1386.56,-658.4 1386.68,-665.4"/>
</g>
<!-- component/Dashboard/DashboardHeader/PlayIcon.tsx&#45;&gt;asset/image/pause.png -->
<g id="edge17" class="edge">
<title>component/Dashboard/DashboardHeader/PlayIcon.tsx&#45;&gt;asset/image/pause.png</title>
<path fill="none" stroke="#757575" d="M1185.85,-953.37C1271.88,-960.32 1377.55,-968.87 1451.83,-974.88"/>
<polygon fill="#757575" stroke="#757575" points="1451.26,-978.34 1461.51,-975.66 1451.82,-971.36 1451.26,-978.34"/>
</g>
<!-- component/Dashboard/DashboardHeader/PlayIcon.tsx&#45;&gt;asset/image/play.png -->
<g id="edge18" class="edge">
<title>component/Dashboard/DashboardHeader/PlayIcon.tsx&#45;&gt;asset/image/play.png</title>
<path fill="none" stroke="#757575" d="M1217.68,-941.37C1299.6,-941.37 1392.71,-941.37 1458.53,-941.37"/>
<polygon fill="#757575" stroke="#757575" points="1458.16,-944.87 1468.16,-941.37 1458.16,-937.87 1458.16,-944.87"/>
</g>
<!-- hook/useBoolean.tsx -->
<g id="node23" class="node">
<title>hook/useBoolean.tsx</title>
<path fill="none" stroke="#cfffac" d="M2120.33,-727.87C2120.33,-727.87 1986.67,-727.87 1986.67,-727.87 1982.83,-727.87 1979,-724.04 1979,-720.2 1979,-720.2 1979,-712.54 1979,-712.54 1979,-708.7 1982.83,-704.87 1986.67,-704.87 1986.67,-704.87 2120.33,-704.87 2120.33,-704.87 2124.17,-704.87 2128,-708.7 2128,-712.54 2128,-712.54 2128,-720.2 2128,-720.2 2128,-724.04 2124.17,-727.87 2120.33,-727.87"/>
<text text-anchor="middle" x="2053.5" y="-712.67" font-family="Arial" font-size="14.00" fill="#cfffac">hook/useBoolean.tsx</text>
</g>
<!-- component/Dashboard/DashboardHeader/SelectRealTimeRangeArea.tsx&#45;&gt;hook/useBoolean.tsx -->
<g id="edge21" class="edge">
<title>component/Dashboard/DashboardHeader/SelectRealTimeRangeArea.tsx&#45;&gt;hook/useBoolean.tsx</title>
<path fill="none" stroke="#757575" d="M1739.55,-888.48C1756.5,-881.63 1772.36,-872.47 1786,-860.37 1828.61,-822.57 1778.01,-773.56 1822,-737.37 1864.89,-702.08 1928.67,-698.78 1978.27,-703.21"/>
<polygon fill="#757575" stroke="#757575" points="1977.78,-706.68 1988.08,-704.22 1978.49,-699.71 1977.78,-706.68"/>
</g>
<!-- hook/useOutsideClick.tsx -->
<g id="node24" class="node">
<title>hook/useOutsideClick.tsx</title>
<path fill="none" stroke="#cfffac" d="M2133.83,-930.87C2133.83,-930.87 1973.17,-930.87 1973.17,-930.87 1969.33,-930.87 1965.5,-927.04 1965.5,-923.2 1965.5,-923.2 1965.5,-915.54 1965.5,-915.54 1965.5,-911.7 1969.33,-907.87 1973.17,-907.87 1973.17,-907.87 2133.83,-907.87 2133.83,-907.87 2137.67,-907.87 2141.5,-911.7 2141.5,-915.54 2141.5,-915.54 2141.5,-923.2 2141.5,-923.2 2141.5,-927.04 2137.67,-930.87 2133.83,-930.87"/>
<text text-anchor="middle" x="2053.5" y="-915.67" font-family="Arial" font-size="14.00" fill="#cfffac">hook/useOutsideClick.tsx</text>
</g>
<!-- component/Dashboard/DashboardHeader/SelectRealTimeRangeArea.tsx&#45;&gt;hook/useOutsideClick.tsx -->
<g id="edge22" class="edge">
<title>component/Dashboard/DashboardHeader/SelectRealTimeRangeArea.tsx&#45;&gt;hook/useOutsideClick.tsx</title>
<path fill="none" stroke="#757575" d="M1786.16,-909.37C1845.4,-911.59 1905.62,-913.86 1953.77,-915.66"/>
<polygon fill="#757575" stroke="#757575" points="1953.48,-919.15 1963.6,-916.03 1953.74,-912.16 1953.48,-919.15"/>
</g>
<!-- component/Dashboard/DashboardHeader/RealTime.tsx -->
<g id="node25" class="node">
<title>component/Dashboard/DashboardHeader/RealTime.tsx</title>
<path fill="none" stroke="#cfffac" d="M2229.83,-971.87C2229.83,-971.87 1877.17,-971.87 1877.17,-971.87 1873.33,-971.87 1869.5,-968.04 1869.5,-964.2 1869.5,-964.2 1869.5,-956.54 1869.5,-956.54 1869.5,-952.7 1873.33,-948.87 1877.17,-948.87 1877.17,-948.87 2229.83,-948.87 2229.83,-948.87 2233.67,-948.87 2237.5,-952.7 2237.5,-956.54 2237.5,-956.54 2237.5,-964.2 2237.5,-964.2 2237.5,-968.04 2233.67,-971.87 2229.83,-971.87"/>
<text text-anchor="middle" x="2053.5" y="-956.67" font-family="Arial" font-size="14.00" fill="#cfffac">component/Dashboard/DashboardHeader/RealTime.tsx</text>
</g>
<!-- component/Dashboard/DashboardHeader/SelectRealTimeRangeArea.tsx&#45;&gt;component/Dashboard/DashboardHeader/RealTime.tsx -->
<g id="edge19" class="edge">
<title>component/Dashboard/DashboardHeader/SelectRealTimeRangeArea.tsx&#45;&gt;component/Dashboard/DashboardHeader/RealTime.tsx</title>
<path fill="none" stroke="#757575" d="M1749.14,-912.36C1761.71,-914.88 1774.09,-917.86 1786,-921.37 1803.35,-926.48 1804.64,-935.27 1822,-940.37 1833.58,-943.78 1845.62,-946.66 1857.85,-949.09"/>
<polygon fill="#757575" stroke="#757575" points="1857.16,-952.53 1867.63,-950.93 1858.45,-945.65 1857.16,-952.53"/>
</g>
<!-- component/Dashboard/DashboardHeader/SelectRealTimeListItem.tsx -->
<g id="node26" class="node">
<title>component/Dashboard/DashboardHeader/SelectRealTimeListItem.tsx</title>
<path fill="none" stroke="#cfffac" d="M2275.83,-1012.87C2275.83,-1012.87 1831.17,-1012.87 1831.17,-1012.87 1827.33,-1012.87 1823.5,-1009.04 1823.5,-1005.2 1823.5,-1005.2 1823.5,-997.54 1823.5,-997.54 1823.5,-993.7 1827.33,-989.87 1831.17,-989.87 1831.17,-989.87 2275.83,-989.87 2275.83,-989.87 2279.67,-989.87 2283.5,-993.7 2283.5,-997.54 2283.5,-997.54 2283.5,-1005.2 2283.5,-1005.2 2283.5,-1009.04 2279.67,-1012.87 2275.83,-1012.87"/>
<text text-anchor="middle" x="2053.5" y="-997.67" font-family="Arial" font-size="14.00" fill="#cfffac">component/Dashboard/DashboardHeader/SelectRealTimeListItem.tsx</text>
</g>
<!-- component/Dashboard/DashboardHeader/SelectRealTimeRangeArea.tsx&#45;&gt;component/Dashboard/DashboardHeader/SelectRealTimeListItem.tsx -->
<g id="edge20" class="edge">
<title>component/Dashboard/DashboardHeader/SelectRealTimeRangeArea.tsx&#45;&gt;component/Dashboard/DashboardHeader/SelectRealTimeListItem.tsx</title>
<path fill="none" stroke="#757575" d="M1769.52,-912.34C1775.18,-915.05 1780.69,-918.05 1786,-921.37 1812.37,-937.86 1795.63,-964.89 1822,-981.37 1823.46,-982.29 1824.94,-983.17 1826.44,-984.04"/>
<polygon fill="#757575" stroke="#757575" points="1824.7,-987.08 1835.17,-988.69 1827.99,-980.9 1824.7,-987.08"/>
</g>
<!-- component/Dashboard/DashboardHeader/CurrentTime.tsx -->
<g id="node18" class="node">
<title>component/Dashboard/DashboardHeader/CurrentTime.tsx</title>
<path fill="none" stroke="#c6c5fe" d="M1730.83,-809.87C1730.83,-809.87 1360.17,-809.87 1360.17,-809.87 1356.33,-809.87 1352.5,-806.04 1352.5,-802.2 1352.5,-802.2 1352.5,-794.54 1352.5,-794.54 1352.5,-790.7 1356.33,-786.87 1360.17,-786.87 1360.17,-786.87 1730.83,-786.87 1730.83,-786.87 1734.67,-786.87 1738.5,-790.7 1738.5,-794.54 1738.5,-794.54 1738.5,-802.2 1738.5,-802.2 1738.5,-806.04 1734.67,-809.87 1730.83,-809.87"/>
<text text-anchor="middle" x="1545.5" y="-794.67" font-family="Arial" font-size="14.00" fill="#c6c5fe">component/Dashboard/DashboardHeader/CurrentTime.tsx</text>
</g>
<!-- component/Dashboard/DashboardHeader/TimeBlock.tsx&#45;&gt;component/Dashboard/DashboardHeader/CurrentTime.tsx -->
<g id="edge23" class="edge">
<title>component/Dashboard/DashboardHeader/TimeBlock.tsx&#45;&gt;component/Dashboard/DashboardHeader/CurrentTime.tsx</title>
<path fill="none" stroke="#757575" d="M1223.77,-798.37C1261.82,-798.37 1302.05,-798.37 1340.68,-798.37"/>
<polygon fill="#757575" stroke="#757575" points="1340.55,-801.87 1350.55,-798.37 1340.55,-794.87 1340.55,-801.87"/>
</g>
<!-- component/Dashboard/DashboardHeader/DatePickerArea.tsx -->
<g id="node21" class="node">
<title>component/Dashboard/DashboardHeader/DatePickerArea.tsx</title>
<path fill="none" stroke="#c6c5fe" d="M1741.33,-850.87C1741.33,-850.87 1349.67,-850.87 1349.67,-850.87 1345.83,-850.87 1342,-847.04 1342,-843.2 1342,-843.2 1342,-835.54 1342,-835.54 1342,-831.7 1345.83,-827.87 1349.67,-827.87 1349.67,-827.87 1741.33,-827.87 1741.33,-827.87 1745.17,-827.87 1749,-831.7 1749,-835.54 1749,-835.54 1749,-843.2 1749,-843.2 1749,-847.04 1745.17,-850.87 1741.33,-850.87"/>
<text text-anchor="middle" x="1545.5" y="-835.67" font-family="Arial" font-size="14.00" fill="#c6c5fe">component/Dashboard/DashboardHeader/DatePickerArea.tsx</text>
</g>
<!-- component/Dashboard/DashboardHeader/TimeBlock.tsx&#45;&gt;component/Dashboard/DashboardHeader/DatePickerArea.tsx -->
<g id="edge24" class="edge">
<title>component/Dashboard/DashboardHeader/TimeBlock.tsx&#45;&gt;component/Dashboard/DashboardHeader/DatePickerArea.tsx</title>
<path fill="none" stroke="#757575" d="M1185.85,-810.37C1248.43,-815.43 1321.4,-821.33 1385.12,-826.48"/>
<polygon fill="#757575" stroke="#757575" points="1384.74,-829.96 1394.99,-827.28 1385.3,-822.99 1384.74,-829.96"/>
</g>
<!-- store/DashboardProvider.tsx&#45;&gt;common/date.ts -->
<g id="edge72" class="edge">
<title>store/DashboardProvider.tsx&#45;&gt;common/date.ts</title>
<path fill="none" stroke="#757575" d="M2152.3,-675.37C2233.98,-675.37 2348.44,-675.37 2421.28,-675.37"/>
<polygon fill="#757575" stroke="#757575" points="2421.09,-678.87 2431.09,-675.37 2421.09,-671.87 2421.09,-678.87"/>
</g>
<!-- store/WidgetPropsSettingModalProvider.tsx&#45;&gt;hook/useBoolean.tsx -->
<g id="edge73" class="edge">
<title>store/WidgetPropsSettingModalProvider.tsx&#45;&gt;hook/useBoolean.tsx</title>
<path fill="none" stroke="#757575" d="M1633.56,-673.33C1687.72,-680.55 1758.84,-689.62 1822,-696.37 1870.03,-701.5 1923.8,-706.23 1967.32,-709.79"/>
<polygon fill="#757575" stroke="#757575" points="1966.97,-713.28 1977.22,-710.6 1967.53,-706.3 1966.97,-713.28"/>
</g>
<!-- hook/useCurrentTime.tsx -->
<g id="node19" class="node">
<title>hook/useCurrentTime.tsx</title>
<path fill="none" stroke="#cfffac" d="M2133.33,-768.87C2133.33,-768.87 1973.67,-768.87 1973.67,-768.87 1969.83,-768.87 1966,-765.04 1966,-761.2 1966,-761.2 1966,-753.54 1966,-753.54 1966,-749.7 1969.83,-745.87 1973.67,-745.87 1973.67,-745.87 2133.33,-745.87 2133.33,-745.87 2137.17,-745.87 2141,-749.7 2141,-753.54 2141,-753.54 2141,-761.2 2141,-761.2 2141,-765.04 2137.17,-768.87 2133.33,-768.87"/>
<text text-anchor="middle" x="2053.5" y="-753.67" font-family="Arial" font-size="14.00" fill="#cfffac">hook/useCurrentTime.tsx</text>
</g>
<!-- component/Dashboard/DashboardHeader/CurrentTime.tsx&#45;&gt;hook/useCurrentTime.tsx -->
<g id="edge10" class="edge">
<title>component/Dashboard/DashboardHeader/CurrentTime.tsx&#45;&gt;hook/useCurrentTime.tsx</title>
<path fill="none" stroke="#757575" d="M1694.56,-786.37C1778.34,-779.59 1880.78,-771.28 1954.57,-765.31"/>
<polygon fill="#757575" stroke="#757575" points="1954.51,-768.82 1964.19,-764.53 1953.94,-761.85 1954.51,-768.82"/>
</g>
<!-- component/Dashboard/DashboardHeader/DateBox.tsx -->
<g id="node20" class="node">
<title>component/Dashboard/DashboardHeader/DateBox.tsx</title>
<path fill="none" stroke="#cfffac" d="M2226.83,-889.87C2226.83,-889.87 1880.17,-889.87 1880.17,-889.87 1876.33,-889.87 1872.5,-886.04 1872.5,-882.2 1872.5,-882.2 1872.5,-874.54 1872.5,-874.54 1872.5,-870.7 1876.33,-866.87 1880.17,-866.87 1880.17,-866.87 2226.83,-866.87 2226.83,-866.87 2230.67,-866.87 2234.5,-870.7 2234.5,-874.54 2234.5,-874.54 2234.5,-882.2 2234.5,-882.2 2234.5,-886.04 2230.67,-889.87 2226.83,-889.87"/>
<text text-anchor="middle" x="2053.5" y="-874.67" font-family="Arial" font-size="14.00" fill="#cfffac">component/Dashboard/DashboardHeader/DateBox.tsx</text>
</g>
<!-- component/Dashboard/DashboardHeader/DatePickerArea.tsx&#45;&gt;common/date.ts -->
<g id="edge11" class="edge">
<title>component/Dashboard/DashboardHeader/DatePickerArea.tsx&#45;&gt;common/date.ts</title>
<path fill="none" stroke="#757575" d="M1696.02,-827.37C1910.88,-810.08 2281.75,-780.03 2285,-778.37 2306.89,-767.19 2300.75,-750.31 2321,-736.37 2352.29,-714.83 2392.03,-700.03 2425.27,-690.41"/>
<polygon fill="#757575" stroke="#757575" points="2426.12,-693.81 2434.82,-687.75 2424.24,-687.07 2426.12,-693.81"/>
</g>
<!-- component/Dashboard/DashboardHeader/DatePickerArea.tsx&#45;&gt;store/DashboardProvider.tsx -->
<g id="edge16" class="edge">
<title>component/Dashboard/DashboardHeader/DatePickerArea.tsx&#45;&gt;store/DashboardProvider.tsx</title>
<path fill="none" stroke="#757575" d="M1603.74,-851.33C1656.92,-858.94 1735.34,-860.73 1786,-819.37 1830.12,-783.35 1778.01,-732.56 1822,-696.37 1864.89,-661.08 1928.67,-657.78 1978.27,-662.21"/>
<polygon fill="#757575" stroke="#757575" points="1977.78,-665.68 1988.08,-663.22 1978.49,-658.71 1977.78,-665.68"/>
</g>
<!-- component/Dashboard/DashboardHeader/DatePickerArea.tsx&#45;&gt;component/Dashboard/DashboardHeader/DateBox.tsx -->
<g id="edge12" class="edge">
<title>component/Dashboard/DashboardHeader/DatePickerArea.tsx&#45;&gt;component/Dashboard/DashboardHeader/DateBox.tsx</title>
<path fill="none" stroke="#757575" d="M1702.1,-851.36C1760.22,-855.84 1826.43,-860.95 1885.53,-865.5"/>
<polygon fill="#757575" stroke="#757575" points="1885.12,-868.98 1895.36,-866.26 1885.66,-862 1885.12,-868.98"/>
</g>
<!-- component/common/DatePicker.tsx -->
<g id="node22" class="node">
<title>component/common/DatePicker.tsx</title>
<path fill="none" stroke="#c6c5fe" d="M2166.83,-848.87C2166.83,-848.87 1940.17,-848.87 1940.17,-848.87 1936.33,-848.87 1932.5,-845.04 1932.5,-841.2 1932.5,-841.2 1932.5,-833.54 1932.5,-833.54 1932.5,-829.7 1936.33,-825.87 1940.17,-825.87 1940.17,-825.87 2166.83,-825.87 2166.83,-825.87 2170.67,-825.87 2174.5,-829.7 2174.5,-833.54 2174.5,-833.54 2174.5,-841.2 2174.5,-841.2 2174.5,-845.04 2170.67,-848.87 2166.83,-848.87"/>
<text text-anchor="middle" x="2053.5" y="-833.67" font-family="Arial" font-size="14.00" fill="#c6c5fe">component/common/DatePicker.tsx</text>
</g>
<!-- component/Dashboard/DashboardHeader/DatePickerArea.tsx&#45;&gt;component/common/DatePicker.tsx -->
<g id="edge13" class="edge">
<title>component/Dashboard/DashboardHeader/DatePickerArea.tsx&#45;&gt;component/common/DatePicker.tsx</title>
<path fill="none" stroke="#757575" d="M1749.39,-838.57C1807.16,-838.34 1868.55,-838.1 1920.87,-837.89"/>
<polygon fill="#757575" stroke="#757575" points="1920.73,-841.39 1930.72,-837.85 1920.7,-834.39 1920.73,-841.39"/>
</g>
<!-- component/Dashboard/DashboardHeader/DatePickerArea.tsx&#45;&gt;hook/useBoolean.tsx -->
<g id="edge14" class="edge">
<title>component/Dashboard/DashboardHeader/DatePickerArea.tsx&#45;&gt;hook/useBoolean.tsx</title>
<path fill="none" stroke="#757575" d="M1616.65,-851.37C1668.16,-856.23 1737.36,-854.11 1786,-819.37 1818.39,-796.24 1789.7,-760.63 1822,-737.37 1863.35,-707.6 1920.28,-702.17 1967.22,-704.27"/>
<polygon fill="#757575" stroke="#757575" points="1966.92,-707.76 1977.1,-704.85 1967.32,-700.77 1966.92,-707.76"/>
</g>
<!-- component/Dashboard/DashboardHeader/DatePickerArea.tsx&#45;&gt;hook/useOutsideClick.tsx -->
<g id="edge15" class="edge">
<title>component/Dashboard/DashboardHeader/DatePickerArea.tsx&#45;&gt;hook/useOutsideClick.tsx</title>
<path fill="none" stroke="#757575" d="M1660.42,-851.37C1700.78,-857.57 1746.06,-866.8 1786,-880.37 1803.13,-886.19 1804.64,-894.27 1822,-899.37 1864.09,-911.75 1912.23,-917.21 1953.59,-919.4"/>
<polygon fill="#757575" stroke="#757575" points="1953.4,-922.89 1963.55,-919.86 1953.72,-915.9 1953.4,-922.89"/>
</g>
<!-- component/common/DatePicker/DatePickerTitle.tsx -->
<g id="node44" class="node">
<title>component/common/DatePicker/DatePickerTitle.tsx</title>
<path fill="none" stroke="#c6c5fe" d="M2656.33,-767.87C2656.33,-767.87 2328.67,-767.87 2328.67,-767.87 2324.83,-767.87 2321,-764.04 2321,-760.2 2321,-760.2 2321,-752.54 2321,-752.54 2321,-748.7 2324.83,-744.87 2328.67,-744.87 2328.67,-744.87 2656.33,-744.87 2656.33,-744.87 2660.17,-744.87 2664,-748.7 2664,-752.54 2664,-752.54 2664,-760.2 2664,-760.2 2664,-764.04 2660.17,-767.87 2656.33,-767.87"/>
<text text-anchor="middle" x="2492.5" y="-752.67" font-family="Arial" font-size="14.00" fill="#c6c5fe">component/common/DatePicker/DatePickerTitle.tsx</text>
</g>
<!-- component/common/DatePicker.tsx&#45;&gt;component/common/DatePicker/DatePickerTitle.tsx -->
<g id="edge55" class="edge">
<title>component/common/DatePicker.tsx&#45;&gt;component/common/DatePicker/DatePickerTitle.tsx</title>
<path fill="none" stroke="#757575" d="M2174.88,-829.72C2210.66,-825.86 2249.71,-820.07 2285,-811.37 2301.67,-807.26 2304.62,-802.5 2321,-797.37 2353.86,-787.08 2390.97,-777.88 2422.16,-770.81"/>
<polygon fill="#757575" stroke="#757575" points="2422.89,-774.24 2431.88,-768.64 2421.36,-767.41 2422.89,-774.24"/>
</g>
<!-- component/common/DatePicker/ListPicker.tsx -->
<g id="node45" class="node">
<title>component/common/DatePicker/ListPicker.tsx</title>
<path fill="none" stroke="#c6c5fe" d="M2638.83,-828.87C2638.83,-828.87 2346.17,-828.87 2346.17,-828.87 2342.33,-828.87 2338.5,-825.04 2338.5,-821.2 2338.5,-821.2 2338.5,-813.54 2338.5,-813.54 2338.5,-809.7 2342.33,-805.87 2346.17,-805.87 2346.17,-805.87 2638.83,-805.87 2638.83,-805.87 2642.67,-805.87 2646.5,-809.7 2646.5,-813.54 2646.5,-813.54 2646.5,-821.2 2646.5,-821.2 2646.5,-825.04 2642.67,-828.87 2638.83,-828.87"/>
<text text-anchor="middle" x="2492.5" y="-813.67" font-family="Arial" font-size="14.00" fill="#c6c5fe">component/common/DatePicker/ListPicker.tsx</text>
</g>
<!-- component/common/DatePicker.tsx&#45;&gt;component/common/DatePicker/ListPicker.tsx -->
<g id="edge56" class="edge">
<title>component/common/DatePicker.tsx&#45;&gt;component/common/DatePicker/ListPicker.tsx</title>
<path fill="none" stroke="#757575" d="M2174.78,-831.87C2221.76,-829.72 2276.39,-827.22 2326.91,-824.9"/>
<polygon fill="#757575" stroke="#757575" points="2326.96,-828.4 2336.79,-824.45 2326.64,-821.41 2326.96,-828.4"/>
</g>
<!-- types/datePicker.d.ts -->
<g id="node46" class="node">
<title>types/datePicker.d.ts</title>
<path fill="none" stroke="#cfffac" d="M2935.33,-868.87C2935.33,-868.87 2801.67,-868.87 2801.67,-868.87 2797.83,-868.87 2794,-865.04 2794,-861.2 2794,-861.2 2794,-853.54 2794,-853.54 2794,-849.7 2797.83,-845.87 2801.67,-845.87 2801.67,-845.87 2935.33,-845.87 2935.33,-845.87 2939.17,-845.87 2943,-849.7 2943,-853.54 2943,-853.54 2943,-861.2 2943,-861.2 2943,-865.04 2939.17,-868.87 2935.33,-868.87"/>
<text text-anchor="middle" x="2868.5" y="-853.67" font-family="Arial" font-size="14.00" fill="#cfffac">types/datePicker.d.ts</text>
</g>
<!-- component/common/DatePicker.tsx&#45;&gt;types/datePicker.d.ts -->
<g id="edge57" class="edge">
<title>component/common/DatePicker.tsx&#45;&gt;types/datePicker.d.ts</title>
<path fill="none" stroke="#757575" d="M2174.9,-840.33C2341.13,-844.42 2636.82,-851.7 2782.11,-855.27"/>
<polygon fill="#757575" stroke="#757575" points="2781.99,-858.77 2792.07,-855.51 2782.16,-851.77 2781.99,-858.77"/>
</g>
<!-- component/Widget/Widget.tsx -->
<g id="node27" class="node">
<title>component/Widget/Widget.tsx</title>
<path fill="none" stroke="#c6c5fe" d="M700.33,-557.87C700.33,-557.87 506.67,-557.87 506.67,-557.87 502.83,-557.87 499,-554.04 499,-550.2 499,-550.2 499,-542.54 499,-542.54 499,-538.7 502.83,-534.87 506.67,-534.87 506.67,-534.87 700.33,-534.87 700.33,-534.87 704.17,-534.87 708,-538.7 708,-542.54 708,-542.54 708,-550.2 708,-550.2 708,-554.04 704.17,-557.87 700.33,-557.87"/>
<text text-anchor="middle" x="603.5" y="-542.67" font-family="Arial" font-size="14.00" fill="#c6c5fe">component/Widget/Widget.tsx</text>
</g>
<!-- component/Widget/Widget.tsx&#45;&gt;hook/useBoolean.tsx -->
<g id="edge29" class="edge">
<title>component/Widget/Widget.tsx&#45;&gt;hook/useBoolean.tsx</title>
<path fill="none" stroke="#757575" d="M618.84,-558.21C650.1,-583.2 727.74,-640.91 804,-663.37 1022.56,-727.74 1722.93,-722.16 1967.36,-718.08"/>
<polygon fill="#757575" stroke="#757575" points="1967.2,-721.59 1977.14,-717.92 1967.08,-714.59 1967.2,-721.59"/>
</g>
<!-- component/Widget/WidgetButtons.tsx -->
<g id="node28" class="node">
<title>component/Widget/WidgetButtons.tsx</title>
<path fill="none" stroke="#c6c5fe" d="M1157.33,-653.87C1157.33,-653.87 915.67,-653.87 915.67,-653.87 911.83,-653.87 908,-650.04 908,-646.2 908,-646.2 908,-638.54 908,-638.54 908,-634.7 911.83,-630.87 915.67,-630.87 915.67,-630.87 1157.33,-630.87 1157.33,-630.87 1161.17,-630.87 1165,-634.7 1165,-638.54 1165,-638.54 1165,-646.2 1165,-646.2 1165,-650.04 1161.17,-653.87 1157.33,-653.87"/>
<text text-anchor="middle" x="1036.5" y="-638.67" font-family="Arial" font-size="14.00" fill="#c6c5fe">component/Widget/WidgetButtons.tsx</text>
</g>
<!-- component/Widget/Widget.tsx&#45;&gt;component/Widget/WidgetButtons.tsx -->
<g id="edge25" class="edge">
<title>component/Widget/Widget.tsx&#45;&gt;component/Widget/WidgetButtons.tsx</title>
<path fill="none" stroke="#757575" d="M632,-558.25C669.94,-574.13 740.84,-601.94 804,-616.37 833.58,-623.13 865.71,-628.16 896.36,-631.9"/>
<polygon fill="#757575" stroke="#757575" points="895.73,-635.35 906.07,-633.04 896.54,-628.39 895.73,-635.35"/>
</g>
<!-- component/Widget/WidgetCallCycleSettingModal.tsx -->
<g id="node29" class="node">
<title>component/Widget/WidgetCallCycleSettingModal.tsx</title>
<path fill="none" stroke="#c6c5fe" d="M1713.33,-590.87C1713.33,-590.87 1377.67,-590.87 1377.67,-590.87 1373.83,-590.87 1370,-587.04 1370,-583.2 1370,-583.2 1370,-575.54 1370,-575.54 1370,-571.7 1373.83,-567.87 1377.67,-567.87 1377.67,-567.87 1713.33,-567.87 1713.33,-567.87 1717.17,-567.87 1721,-571.7 1721,-575.54 1721,-575.54 1721,-583.2 1721,-583.2 1721,-587.04 1717.17,-590.87 1713.33,-590.87"/>
<text text-anchor="middle" x="1545.5" y="-575.67" font-family="Arial" font-size="14.00" fill="#c6c5fe">component/Widget/WidgetCallCycleSettingModal.tsx</text>
</g>
<!-- component/Widget/Widget.tsx&#45;&gt;component/Widget/WidgetCallCycleSettingModal.tsx -->
<g id="edge26" class="edge">
<title>component/Widget/Widget.tsx&#45;&gt;component/Widget/WidgetCallCycleSettingModal.tsx</title>
<path fill="none" stroke="#757575" d="M708.24,-550.01C864.79,-555.51 1163.79,-566.01 1358.59,-572.84"/>
<polygon fill="#757575" stroke="#757575" points="1358.19,-576.33 1368.3,-573.18 1358.43,-569.34 1358.19,-576.33"/>
</g>
<!-- component/Widget/WidgetChart.tsx -->
<g id="node30" class="node">
<title>component/Widget/WidgetChart.tsx</title>
<path fill="none" stroke="#c6c5fe" d="M1149.83,-248.87C1149.83,-248.87 923.17,-248.87 923.17,-248.87 919.33,-248.87 915.5,-245.04 915.5,-241.2 915.5,-241.2 915.5,-233.54 915.5,-233.54 915.5,-229.7 919.33,-225.87 923.17,-225.87 923.17,-225.87 1149.83,-225.87 1149.83,-225.87 1153.67,-225.87 1157.5,-229.7 1157.5,-233.54 1157.5,-233.54 1157.5,-241.2 1157.5,-241.2 1157.5,-245.04 1153.67,-248.87 1149.83,-248.87"/>
<text text-anchor="middle" x="1036.5" y="-233.67" font-family="Arial" font-size="14.00" fill="#c6c5fe">component/Widget/WidgetChart.tsx</text>
</g>
<!-- component/Widget/Widget.tsx&#45;&gt;component/Widget/WidgetChart.tsx -->
<g id="edge27" class="edge">
<title>component/Widget/Widget.tsx&#45;&gt;component/Widget/WidgetChart.tsx</title>
<path fill="none" stroke="#757575" d="M649.59,-534.4C685.69,-522.78 735.5,-501.91 768,-468.37 795.7,-439.79 778.17,-416.65 804,-386.37 858.01,-323.06 945.64,-276.94 996.17,-253.92"/>
<polygon fill="#757575" stroke="#757575" points="997.29,-257.26 1004.99,-249.98 994.43,-250.87 997.29,-257.26"/>
</g>
<!-- hook/Widget/useHandleWidgetApi.tsx -->
<g id="node31" class="node">
<title>hook/Widget/useHandleWidgetApi.tsx</title>
<path fill="none" stroke="#c6c5fe" d="M1666.33,-523.87C1666.33,-523.87 1424.67,-523.87 1424.67,-523.87 1420.83,-523.87 1417,-520.04 1417,-516.2 1417,-516.2 1417,-508.54 1417,-508.54 1417,-504.7 1420.83,-500.87 1424.67,-500.87 1424.67,-500.87 1666.33,-500.87 1666.33,-500.87 1670.17,-500.87 1674,-504.7 1674,-508.54 1674,-508.54 1674,-516.2 1674,-516.2 1674,-520.04 1670.17,-523.87 1666.33,-523.87"/>
<text text-anchor="middle" x="1545.5" y="-508.67" font-family="Arial" font-size="14.00" fill="#c6c5fe">hook/Widget/useHandleWidgetApi.tsx</text>
</g>
<!-- component/Widget/Widget.tsx&#45;&gt;hook/Widget/useHandleWidgetApi.tsx -->
<g id="edge28" class="edge">
<title>component/Widget/Widget.tsx&#45;&gt;hook/Widget/useHandleWidgetApi.tsx</title>
<path fill="none" stroke="#757575" d="M708.24,-542.62C877.85,-536.48 1214.68,-524.3 1405.03,-517.42"/>
<polygon fill="#757575" stroke="#757575" points="1405.13,-520.91 1415,-517.05 1404.88,-513.92 1405.13,-520.91"/>
</g>
<!-- component/Widget/WidgetButtons.tsx&#45;&gt;store/WidgetPropsSettingModalProvider.tsx -->
<g id="edge30" class="edge">
<title>component/Widget/WidgetButtons.tsx&#45;&gt;store/WidgetPropsSettingModalProvider.tsx</title>
<path fill="none" stroke="#757575" d="M1165.44,-647.17C1232.68,-649.69 1315.7,-652.8 1386.89,-655.46"/>
<polygon fill="#757575" stroke="#757575" points="1386.57,-658.95 1396.69,-655.83 1386.83,-651.96 1386.57,-658.95"/>
</g>
<!-- store/WidgetProvider.tsx -->
<g id="node32" class="node">
<title>store/WidgetProvider.tsx</title>
<path fill="none" stroke="#c6c5fe" d="M1624.33,-470.87C1624.33,-470.87 1466.67,-470.87 1466.67,-470.87 1462.83,-470.87 1459,-467.04 1459,-463.2 1459,-463.2 1459,-455.54 1459,-455.54 1459,-451.7 1462.83,-447.87 1466.67,-447.87 1466.67,-447.87 1624.33,-447.87 1624.33,-447.87 1628.17,-447.87 1632,-451.7 1632,-455.54 1632,-455.54 1632,-463.2 1632,-463.2 1632,-467.04 1628.17,-470.87 1624.33,-470.87"/>
<text text-anchor="middle" x="1545.5" y="-455.67" font-family="Arial" font-size="14.00" fill="#c6c5fe">store/WidgetProvider.tsx</text>
</g>
<!-- component/Widget/WidgetButtons.tsx&#45;&gt;store/WidgetProvider.tsx -->
<g id="edge31" class="edge">
<title>component/Widget/WidgetButtons.tsx&#45;&gt;store/WidgetProvider.tsx</title>
<path fill="none" stroke="#757575" d="M1053.36,-630.49C1093.23,-601.3 1201.85,-525.94 1305,-491.37 1350.46,-476.13 1403.07,-468.12 1447.39,-463.93"/>
<polygon fill="#757575" stroke="#757575" points="1447.6,-467.42 1457.25,-463.05 1446.98,-460.45 1447.6,-467.42"/>
</g>
<!-- component/Widget/WidgetCallCycleSettingModal.tsx&#45;&gt;common/widget.ts -->
<g id="edge32" class="edge">
<title>component/Widget/WidgetCallCycleSettingModal.tsx&#45;&gt;common/widget.ts</title>
<path fill="none" stroke="#757575" d="M1721.35,-570.04C1808.16,-565.41 1908.59,-560.05 1975.89,-556.46"/>
<polygon fill="#757575" stroke="#757575" points="1975.91,-559.96 1985.71,-555.93 1975.54,-552.97 1975.91,-559.96"/>
</g>
<!-- component/Widget/WidgetCallCycleSettingModal/CycleInput.tsx -->
<g id="node33" class="node">
<title>component/Widget/WidgetCallCycleSettingModal/CycleInput.tsx</title>
<path fill="none" stroke="#cfffac" d="M2256.83,-604.87C2256.83,-604.87 1850.17,-604.87 1850.17,-604.87 1846.33,-604.87 1842.5,-601.04 1842.5,-597.2 1842.5,-597.2 1842.5,-589.54 1842.5,-589.54 1842.5,-585.7 1846.33,-581.87 1850.17,-581.87 1850.17,-581.87 2256.83,-581.87 2256.83,-581.87 2260.67,-581.87 2264.5,-585.7 2264.5,-589.54 2264.5,-589.54 2264.5,-597.2 2264.5,-597.2 2264.5,-601.04 2260.67,-604.87 2256.83,-604.87"/>
<text text-anchor="middle" x="2053.5" y="-589.67" font-family="Arial" font-size="14.00" fill="#cfffac">component/Widget/WidgetCallCycleSettingModal/CycleInput.tsx</text>
</g>
<!-- component/Widget/WidgetCallCycleSettingModal.tsx&#45;&gt;component/Widget/WidgetCallCycleSettingModal/CycleInput.tsx -->
<g id="edge33" class="edge">
<title>component/Widget/WidgetCallCycleSettingModal.tsx&#45;&gt;component/Widget/WidgetCallCycleSettingModal/CycleInput.tsx</title>
<path fill="none" stroke="#757575" d="M1721.35,-584.21C1756.68,-585.19 1794.27,-586.23 1830.97,-587.24"/>
<polygon fill="#757575" stroke="#757575" points="1830.72,-590.74 1840.81,-587.51 1830.91,-583.74 1830.72,-590.74"/>
</g>
<!-- component/Widget/WidgetCallCycleSettingModal/LastCallTimeBox.tsx -->
<g id="node34" class="node">
<title>component/Widget/WidgetCallCycleSettingModal/LastCallTimeBox.tsx</title>
<path fill="none" stroke="#cfffac" d="M2277.33,-645.87C2277.33,-645.87 1829.67,-645.87 1829.67,-645.87 1825.83,-645.87 1822,-642.04 1822,-638.2 1822,-638.2 1822,-630.54 1822,-630.54 1822,-626.7 1825.83,-622.87 1829.67,-622.87 1829.67,-622.87 2277.33,-622.87 2277.33,-622.87 2281.17,-622.87 2285,-626.7 2285,-630.54 2285,-630.54 2285,-638.2 2285,-638.2 2285,-642.04 2281.17,-645.87 2277.33,-645.87"/>
<text text-anchor="middle" x="2053.5" y="-630.67" font-family="Arial" font-size="14.00" fill="#cfffac">component/Widget/WidgetCallCycleSettingModal/LastCallTimeBox.tsx</text>
</g>
<!-- component/Widget/WidgetCallCycleSettingModal.tsx&#45;&gt;component/Widget/WidgetCallCycleSettingModal/LastCallTimeBox.tsx -->
<g id="edge34" class="edge">
<title>component/Widget/WidgetCallCycleSettingModal.tsx&#45;&gt;component/Widget/WidgetCallCycleSettingModal/LastCallTimeBox.tsx</title>
<path fill="none" stroke="#757575" d="M1633.56,-591.33C1687.72,-598.55 1758.84,-607.62 1822,-614.37 1844.93,-616.82 1869.17,-619.18 1892.97,-621.36"/>
<polygon fill="#757575" stroke="#757575" points="1892.46,-624.83 1902.73,-622.25 1893.09,-617.86 1892.46,-624.83"/>
</g>
<!-- component/Widget/WidgetChart.tsx&#45;&gt;types/api.d.ts -->
<g id="edge38" class="edge">
<title>component/Widget/WidgetChart.tsx&#45;&gt;types/api.d.ts</title>
<path fill="none" stroke="#757575" d="M1157.68,-246.39C1203.75,-249.84 1256.81,-253.8 1305,-257.37 1736.11,-289.29 2255.38,-327.17 2430.49,-339.93"/>
<polygon fill="#757575" stroke="#757575" points="2430.03,-343.4 2440.25,-340.64 2430.53,-336.42 2430.03,-343.4"/>
</g>
<!-- component/chart/BarChart.tsx -->
<g id="node35" class="node">
<title>component/chart/BarChart.tsx</title>
<path fill="none" stroke="#c6c5fe" d="M1639.33,-109.87C1639.33,-109.87 1451.67,-109.87 1451.67,-109.87 1447.83,-109.87 1444,-106.04 1444,-102.2 1444,-102.2 1444,-94.54 1444,-94.54 1444,-90.7 1447.83,-86.87 1451.67,-86.87 1451.67,-86.87 1639.33,-86.87 1639.33,-86.87 1643.17,-86.87 1647,-90.7 1647,-94.54 1647,-94.54 1647,-102.2 1647,-102.2 1647,-106.04 1643.17,-109.87 1639.33,-109.87"/>
<text text-anchor="middle" x="1545.5" y="-94.67" font-family="Arial" font-size="14.00" fill="#c6c5fe">component/chart/BarChart.tsx</text>
</g>
<!-- component/Widget/WidgetChart.tsx&#45;&gt;component/chart/BarChart.tsx -->
<g id="edge35" class="edge">
<title>component/Widget/WidgetChart.tsx&#45;&gt;component/chart/BarChart.tsx</title>
<path fill="none" stroke="#757575" d="M1057.79,-225.47C1101.34,-200.59 1207.76,-143.3 1305,-118.37 1345.82,-107.91 1391.72,-102.59 1432.32,-99.98"/>
<polygon fill="#757575" stroke="#757575" points="1432.34,-103.48 1442.12,-99.4 1431.93,-96.5 1432.34,-103.48"/>
</g>
<!-- component/chart/InformaticsChart.tsx -->
<g id="node36" class="node">
<title>component/chart/InformaticsChart.tsx</title>
<path fill="none" stroke="#c6c5fe" d="M1663.83,-248.87C1663.83,-248.87 1427.17,-248.87 1427.17,-248.87 1423.33,-248.87 1419.5,-245.04 1419.5,-241.2 1419.5,-241.2 1419.5,-233.54 1419.5,-233.54 1419.5,-229.7 1423.33,-225.87 1427.17,-225.87 1427.17,-225.87 1663.83,-225.87 1663.83,-225.87 1667.67,-225.87 1671.5,-229.7 1671.5,-233.54 1671.5,-233.54 1671.5,-241.2 1671.5,-241.2 1671.5,-245.04 1667.67,-248.87 1663.83,-248.87"/>
<text text-anchor="middle" x="1545.5" y="-233.67" font-family="Arial" font-size="14.00" fill="#c6c5fe">component/chart/InformaticsChart.tsx</text>
</g>
<!-- component/Widget/WidgetChart.tsx&#45;&gt;component/chart/InformaticsChart.tsx -->
<g id="edge36" class="edge">
<title>component/Widget/WidgetChart.tsx&#45;&gt;component/chart/InformaticsChart.tsx</title>
<path fill="none" stroke="#757575" d="M1157.97,-237.37C1233.06,-237.37 1329.87,-237.37 1407.82,-237.37"/>
<polygon fill="#757575" stroke="#757575" points="1407.67,-240.87 1417.67,-237.37 1407.67,-233.87 1407.67,-240.87"/>
</g>
<!-- component/chart/LineChart.tsx -->
<g id="node37" class="node">
<title>component/chart/LineChart.tsx</title>
<path fill="none" stroke="#c6c5fe" d="M1642.33,-150.87C1642.33,-150.87 1448.67,-150.87 1448.67,-150.87 1444.83,-150.87 1441,-147.04 1441,-143.2 1441,-143.2 1441,-135.54 1441,-135.54 1441,-131.7 1444.83,-127.87 1448.67,-127.87 1448.67,-127.87 1642.33,-127.87 1642.33,-127.87 1646.17,-127.87 1650,-131.7 1650,-135.54 1650,-135.54 1650,-143.2 1650,-143.2 1650,-147.04 1646.17,-150.87 1642.33,-150.87"/>
<text text-anchor="middle" x="1545.5" y="-135.67" font-family="Arial" font-size="14.00" fill="#c6c5fe">component/chart/LineChart.tsx</text>
</g>
<!-- component/Widget/WidgetChart.tsx&#45;&gt;component/chart/LineChart.tsx -->
<g id="edge37" class="edge">
<title>component/Widget/WidgetChart.tsx&#45;&gt;component/chart/LineChart.tsx</title>
<path fill="none" stroke="#757575" d="M1099.41,-225.4C1193.27,-207.26 1371.21,-172.87 1471.33,-153.51"/>
<polygon fill="#757575" stroke="#757575" points="1471.91,-156.97 1481.06,-151.63 1470.58,-150.09 1471.91,-156.97"/>
</g>
<!-- hook/Widget/useHandleWidgetApi.tsx&#45;&gt;common/api.ts -->
<g id="edge61" class="edge">
<title>hook/Widget/useHandleWidgetApi.tsx&#45;&gt;common/api.ts</title>
<path fill="none" stroke="#757575" d="M1674.2,-503.13C1710.88,-498.24 1750.54,-490.78 1786,-479.37 1803.22,-473.83 1805.28,-467.29 1822,-460.37 1878.96,-436.81 1946.62,-416.87 1993.85,-404.18"/>
<polygon fill="#757575" stroke="#757575" points="1994.57,-407.61 2003.34,-401.65 1992.77,-400.84 1994.57,-407.61"/>
</g>
<!-- hook/Widget/useHandleWidgetApi.tsx&#45;&gt;types/widget.d.ts -->
<g id="edge66" class="edge">
<title>hook/Widget/useHandleWidgetApi.tsx&#45;&gt;types/widget.d.ts</title>
<path fill="none" stroke="#757575" d="M1674.39,-505.61C1720.87,-503.23 1773.8,-500.59 1822,-498.37 2187.66,-481.56 2625.4,-464.57 2795.23,-458.1"/>
<polygon fill="#757575" stroke="#757575" points="2795.13,-461.61 2804.99,-457.73 2794.87,-454.61 2795.13,-461.61"/>
</g>
<!-- hook/Widget/useHandleWidgetApi.tsx&#45;&gt;types/chart.d.ts -->
<g id="edge65" class="edge">
<title>hook/Widget/useHandleWidgetApi.tsx&#45;&gt;types/chart.d.ts</title>
<path fill="none" stroke="#757575" d="M1674.33,-520.1C1713.92,-516.29 1755.19,-505.17 1786,-479.37 1825.77,-446.08 1783.2,-402.79 1822,-368.37 1978.88,-229.2 2083.44,-335.27 2285,-277.37 2345.49,-259.99 2413.21,-232.47 2454.08,-214.92"/>
<polygon fill="#757575" stroke="#757575" points="2455.44,-218.15 2463.23,-210.96 2452.66,-211.72 2455.44,-218.15"/>
</g>
<!-- hook/Widget/useHandleWidgetApi.tsx&#45;&gt;common/date.ts -->
<g id="edge62" class="edge">
<title>hook/Widget/useHandleWidgetApi.tsx&#45;&gt;common/date.ts</title>
<path fill="none" stroke="#757575" d="M1674.5,-506.86C1855.23,-500.58 2175.41,-495.38 2285,-531.37 2363.09,-557.02 2437.89,-622.7 2472.09,-655.75"/>
<polygon fill="#757575" stroke="#757575" points="2469.22,-657.83 2478.81,-662.34 2474.12,-652.84 2469.22,-657.83"/>
</g>
<!-- hook/Widget/useHandleWidgetApi.tsx&#45;&gt;common/widget.ts -->
<g id="edge63" class="edge">
<title>hook/Widget/useHandleWidgetApi.tsx&#45;&gt;common/widget.ts</title>
<path fill="none" stroke="#757575" d="M1674.19,-522.46C1769.2,-529.98 1895.76,-539.98 1975.7,-546.3"/>
<polygon fill="#757575" stroke="#757575" points="1975.4,-549.79 1985.64,-547.09 1975.95,-542.81 1975.4,-549.79"/>
</g>
<!-- hook/Widget/useHandleWidgetApi.tsx&#45;&gt;store/DashboardProvider.tsx -->
<g id="edge64" class="edge">
<title>hook/Widget/useHandleWidgetApi.tsx&#45;&gt;store/DashboardProvider.tsx</title>
<path fill="none" stroke="#757575" d="M1674.49,-513.13C1713.98,-519.21 1755.14,-532.24 1786,-558.37 1821.09,-588.09 1785.42,-627.51 1822,-655.37 1864.6,-687.82 1925.34,-691.9 1973.77,-688.35"/>
<polygon fill="#757575" stroke="#757575" points="1974,-691.84 1983.66,-687.49 1973.39,-684.87 1974,-691.84"/>
</g>
<!-- store/WidgetProvider.tsx&#45;&gt;types/widget.d.ts -->
<g id="edge74" class="edge">
<title>store/WidgetProvider.tsx&#45;&gt;types/widget.d.ts</title>
<path fill="none" stroke="#757575" d="M1632.41,-459.11C1876.26,-458.37 2569.63,-456.27 2795.45,-455.59"/>
<polygon fill="#757575" stroke="#757575" points="2795.3,-459.09 2805.28,-455.56 2795.27,-452.09 2795.3,-459.09"/>
</g>
<!-- component/chart/BarChart.tsx&#45;&gt;common/chart.ts -->
<g id="edge44" class="edge">
<title>component/chart/BarChart.tsx&#45;&gt;common/chart.ts</title>
<path fill="none" stroke="#757575" d="M1647.38,-90.2C1746.02,-82.2 1893.73,-70.24 1980.89,-63.17"/>
<polygon fill="#757575" stroke="#757575" points="1981.06,-66.67 1990.74,-62.37 1980.49,-59.69 1981.06,-66.67"/>
</g>
<!-- component/chart/BarChart.tsx&#45;&gt;types/chart.d.ts -->
<g id="edge47" class="edge">
<title>component/chart/BarChart.tsx&#45;&gt;types/chart.d.ts</title>
<path fill="none" stroke="#757575" d="M1579.34,-86.4C1685.14,-49.71 2025.36,53.32 2285,-36.37 2367.58,-64.9 2442.31,-141.58 2474.61,-178.27"/>
<polygon fill="#757575" stroke="#757575" points="2471.71,-180.27 2480.9,-185.54 2477.01,-175.69 2471.71,-180.27"/>
</g>
<!-- component/chart/ChartSvg.tsx -->
<g id="node41" class="node">
<title>component/chart/ChartSvg.tsx</title>
<path fill="none" stroke="#cfffac" d="M2148.83,-109.87C2148.83,-109.87 1958.17,-109.87 1958.17,-109.87 1954.33,-109.87 1950.5,-106.04 1950.5,-102.2 1950.5,-102.2 1950.5,-94.54 1950.5,-94.54 1950.5,-90.7 1954.33,-86.87 1958.17,-86.87 1958.17,-86.87 2148.83,-86.87 2148.83,-86.87 2152.67,-86.87 2156.5,-90.7 2156.5,-94.54 2156.5,-94.54 2156.5,-102.2 2156.5,-102.2 2156.5,-106.04 2152.67,-109.87 2148.83,-109.87"/>
<text text-anchor="middle" x="2053.5" y="-94.67" font-family="Arial" font-size="14.00" fill="#cfffac">component/chart/ChartSvg.tsx</text>
</g>
<!-- component/chart/BarChart.tsx&#45;&gt;component/chart/ChartSvg.tsx -->
<g id="edge45" class="edge">
<title>component/chart/BarChart.tsx&#45;&gt;component/chart/ChartSvg.tsx</title>
<path fill="none" stroke="#757575" d="M1647.38,-98.37C1731.48,-98.37 1851.26,-98.37 1938.76,-98.37"/>
<polygon fill="#757575" stroke="#757575" points="1938.56,-101.87 1948.56,-98.37 1938.56,-94.87 1938.56,-101.87"/>
</g>
<!-- hook/useResize.tsx -->
<g id="node42" class="node">
<title>hook/useResize.tsx</title>
<path fill="none" stroke="#cfffac" d="M2115.83,-150.87C2115.83,-150.87 1991.17,-150.87 1991.17,-150.87 1987.33,-150.87 1983.5,-147.04 1983.5,-143.2 1983.5,-143.2 1983.5,-135.54 1983.5,-135.54 1983.5,-131.7 1987.33,-127.87 1991.17,-127.87 1991.17,-127.87 2115.83,-127.87 2115.83,-127.87 2119.67,-127.87 2123.5,-131.7 2123.5,-135.54 2123.5,-135.54 2123.5,-143.2 2123.5,-143.2 2123.5,-147.04 2119.67,-150.87 2115.83,-150.87"/>
<text text-anchor="middle" x="2053.5" y="-135.67" font-family="Arial" font-size="14.00" fill="#cfffac">hook/useResize.tsx</text>
</g>
<!-- component/chart/BarChart.tsx&#45;&gt;hook/useResize.tsx -->
<g id="edge46" class="edge">
<title>component/chart/BarChart.tsx&#45;&gt;hook/useResize.tsx</title>
<path fill="none" stroke="#757575" d="M1647.38,-106.54C1742.67,-114.27 1883.75,-125.7 1971.8,-132.83"/>
<polygon fill="#757575" stroke="#757575" points="1971.3,-136.3 1981.55,-133.62 1971.87,-129.33 1971.3,-136.3"/>
</g>
<!-- component/chart/InformaticsChart.tsx&#45;&gt;types/chart.d.ts -->
<g id="edge49" class="edge">
<title>component/chart/InformaticsChart.tsx&#45;&gt;types/chart.d.ts</title>
<path fill="none" stroke="#757575" d="M1671.99,-232.19C1874.77,-223.82 2267.59,-207.61 2424.44,-201.14"/>
<polygon fill="#757575" stroke="#757575" points="2424.41,-204.64 2434.25,-200.73 2424.12,-197.65 2424.41,-204.64"/>
</g>
<!-- component/chart/InformaticsChart/InforMaticsBox.tsx -->
<g id="node43" class="node">
<title>component/chart/InformaticsChart/InforMaticsBox.tsx</title>
<path fill="none" stroke="#c6c5fe" d="M2220.83,-268.87C2220.83,-268.87 1886.17,-268.87 1886.17,-268.87 1882.33,-268.87 1878.5,-265.04 1878.5,-261.2 1878.5,-261.2 1878.5,-253.54 1878.5,-253.54 1878.5,-249.7 1882.33,-245.87 1886.17,-245.87 1886.17,-245.87 2220.83,-245.87 2220.83,-245.87 2224.67,-245.87 2228.5,-249.7 2228.5,-253.54 2228.5,-253.54 2228.5,-261.2 2228.5,-261.2 2228.5,-265.04 2224.67,-268.87 2220.83,-268.87"/>
<text text-anchor="middle" x="2053.5" y="-253.67" font-family="Arial" font-size="14.00" fill="#c6c5fe">component/chart/InformaticsChart/InforMaticsBox.tsx</text>
</g>
<!-- component/chart/InformaticsChart.tsx&#45;&gt;component/chart/InformaticsChart/InforMaticsBox.tsx -->
<g id="edge48" class="edge">
<title>component/chart/InformaticsChart.tsx&#45;&gt;component/chart/InformaticsChart/InforMaticsBox.tsx</title>
<path fill="none" stroke="#757575" d="M1671.9,-242.33C1730.7,-244.65 1801.94,-247.47 1866.82,-250.03"/>
<polygon fill="#757575" stroke="#757575" points="1866.37,-253.52 1876.5,-250.41 1866.64,-246.52 1866.37,-253.52"/>
</g>
<!-- component/chart/LineChart.tsx&#45;&gt;common/chart.ts -->
<g id="edge51" class="edge">
<title>component/chart/LineChart.tsx&#45;&gt;common/chart.ts</title>
<path fill="none" stroke="#757575" d="M1650.48,-146.93C1694.38,-146 1744.76,-139.26 1786,-118.37 1807.63,-107.41 1800.36,-88.32 1822,-77.37 1871,-52.58 1933.41,-48.56 1980.93,-50.2"/>
<polygon fill="#757575" stroke="#757575" points="1980.71,-53.7 1990.85,-50.65 1981.02,-46.7 1980.71,-53.7"/>
</g>
<!-- component/chart/LineChart.tsx&#45;&gt;types/chart.d.ts -->
<g id="edge54" class="edge">
<title>component/chart/LineChart.tsx&#45;&gt;types/chart.d.ts</title>
<path fill="none" stroke="#757575" d="M1650.48,-147.27C1702.05,-151.1 1765.29,-155.66 1822,-159.37 2042.6,-173.8 2304.27,-188.28 2424.72,-194.8"/>
<polygon fill="#757575" stroke="#757575" points="2424.25,-198.28 2434.42,-195.32 2424.63,-191.29 2424.25,-198.28"/>
</g>
<!-- component/chart/LineChart.tsx&#45;&gt;component/chart/ChartSvg.tsx -->
<g id="edge52" class="edge">
<title>component/chart/LineChart.tsx&#45;&gt;component/chart/ChartSvg.tsx</title>
<path fill="none" stroke="#757575" d="M1650.42,-130.95C1734.29,-124.15 1852.13,-114.61 1938.57,-107.6"/>
<polygon fill="#757575" stroke="#757575" points="1938.82,-111.09 1948.5,-106.8 1938.25,-104.12 1938.82,-111.09"/>
</g>
<!-- component/chart/LineChart.tsx&#45;&gt;hook/useResize.tsx -->
<g id="edge53" class="edge">
<title>component/chart/LineChart.tsx&#45;&gt;hook/useResize.tsx</title>
<path fill="none" stroke="#757575" d="M1650.42,-139.37C1745.64,-139.37 1884.65,-139.37 1971.76,-139.37"/>
<polygon fill="#757575" stroke="#757575" points="1971.66,-142.87 1981.66,-139.37 1971.66,-135.87 1971.66,-142.87"/>
</g>
<!-- component/Widget/WidgetPropsSettingModal.tsx -->
<g id="node38" class="node">
<title>component/Widget/WidgetPropsSettingModal.tsx</title>
<path fill="none" stroke="#c6c5fe" d="M760.33,-459.87C760.33,-459.87 446.67,-459.87 446.67,-459.87 442.83,-459.87 439,-456.04 439,-452.2 439,-452.2 439,-444.54 439,-444.54 439,-440.7 442.83,-436.87 446.67,-436.87 446.67,-436.87 760.33,-436.87 760.33,-436.87 764.17,-436.87 768,-440.7 768,-444.54 768,-444.54 768,-452.2 768,-452.2 768,-456.04 764.17,-459.87 760.33,-459.87"/>
<text text-anchor="middle" x="603.5" y="-444.67" font-family="Arial" font-size="14.00" fill="#c6c5fe">component/Widget/WidgetPropsSettingModal.tsx</text>
</g>
<!-- component/Widget/WidgetPropsSettingModal.tsx&#45;&gt;common/api.ts -->
<g id="edge39" class="edge">
<title>component/Widget/WidgetPropsSettingModal.tsx&#45;&gt;common/api.ts</title>
<path fill="none" stroke="#757575" d="M633.26,-436.41C671.46,-421.23 741.43,-395.87 804,-386.37 1251.88,-318.38 1800.6,-363.4 1986.99,-382.23"/>
<polygon fill="#757575" stroke="#757575" points="1986.41,-385.69 1996.71,-383.22 1987.12,-378.72 1986.41,-385.69"/>
</g>
<!-- component/Widget/WidgetPropsSettingModal.tsx&#45;&gt;store/WidgetPropsSettingModalProvider.tsx -->
<g id="edge42" class="edge">
<title>component/Widget/WidgetPropsSettingModal.tsx&#45;&gt;store/WidgetPropsSettingModalProvider.tsx</title>
<path fill="none" stroke="#757575" d="M657.39,-460.36C818.92,-496.96 1305.45,-607.2 1480.71,-646.92"/>
<polygon fill="#757575" stroke="#757575" points="1479.79,-650.3 1490.32,-649.09 1481.34,-643.47 1479.79,-650.3"/>
</g>
<!-- component/Widget/WidgetPropsSettingModal/WidgetPropsButtons.tsx -->
<g id="node39" class="node">
<title>component/Widget/WidgetPropsSettingModal/WidgetPropsButtons.tsx</title>
<path fill="none" stroke="#c6c5fe" d="M1261.33,-459.87C1261.33,-459.87 811.67,-459.87 811.67,-459.87 807.83,-459.87 804,-456.04 804,-452.2 804,-452.2 804,-444.54 804,-444.54 804,-440.7 807.83,-436.87 811.67,-436.87 811.67,-436.87 1261.33,-436.87 1261.33,-436.87 1265.17,-436.87 1269,-440.7 1269,-444.54 1269,-444.54 1269,-452.2 1269,-452.2 1269,-456.04 1265.17,-459.87 1261.33,-459.87"/>
<text text-anchor="middle" x="1036.5" y="-444.67" font-family="Arial" font-size="14.00" fill="#c6c5fe">component/Widget/WidgetPropsSettingModal/WidgetPropsButtons.tsx</text>
</g>
<!-- component/Widget/WidgetPropsSettingModal.tsx&#45;&gt;component/Widget/WidgetPropsSettingModal/WidgetPropsButtons.tsx -->
<g id="edge40" class="edge">
<title>component/Widget/WidgetPropsSettingModal.tsx&#45;&gt;component/Widget/WidgetPropsSettingModal/WidgetPropsButtons.tsx</title>
<path fill="none" stroke="#757575" d="M768.36,-448.37C776.29,-448.37 784.32,-448.37 792.4,-448.37"/>
<polygon fill="#757575" stroke="#757575" points="792.33,-451.87 802.33,-448.37 792.33,-444.87 792.33,-451.87"/>
</g>
<!-- component/Widget/WidgetPropsSettingModal/WidgetPropsList.tsx -->
<g id="node40" class="node">
<title>component/Widget/WidgetPropsSettingModal/WidgetPropsList.tsx</title>
<path fill="none" stroke="#cfffac" d="M1248.83,-418.87C1248.83,-418.87 824.17,-418.87 824.17,-418.87 820.33,-418.87 816.5,-415.04 816.5,-411.2 816.5,-411.2 816.5,-403.54 816.5,-403.54 816.5,-399.7 820.33,-395.87 824.17,-395.87 824.17,-395.87 1248.83,-395.87 1248.83,-395.87 1252.67,-395.87 1256.5,-399.7 1256.5,-403.54 1256.5,-403.54 1256.5,-411.2 1256.5,-411.2 1256.5,-415.04 1252.67,-418.87 1248.83,-418.87"/>
<text text-anchor="middle" x="1036.5" y="-403.67" font-family="Arial" font-size="14.00" fill="#cfffac">component/Widget/WidgetPropsSettingModal/WidgetPropsList.tsx</text>
</g>
<!-- component/Widget/WidgetPropsSettingModal.tsx&#45;&gt;component/Widget/WidgetPropsSettingModal/WidgetPropsList.tsx -->
<g id="edge41" class="edge">
<title>component/Widget/WidgetPropsSettingModal.tsx&#45;&gt;component/Widget/WidgetPropsSettingModal/WidgetPropsList.tsx</title>
<path fill="none" stroke="#757575" d="M714.74,-436.39C743.76,-433.34 775.05,-430.14 804,-427.37 828.75,-425 855,-422.61 880.59,-420.35"/>
<polygon fill="#757575" stroke="#757575" points="880.74,-423.85 890.4,-419.49 880.13,-416.88 880.74,-423.85"/>
</g>
<!-- component/Widget/WidgetPropsSettingModal/WidgetPropsButtons.tsx&#45;&gt;store/WidgetProvider.tsx -->
<g id="edge43" class="edge">
<title>component/Widget/WidgetPropsSettingModal/WidgetPropsButtons.tsx&#45;&gt;store/WidgetProvider.tsx</title>
<path fill="none" stroke="#757575" d="M1269.49,-453.4C1332.15,-454.76 1396.58,-456.16 1447.31,-457.26"/>
<polygon fill="#757575" stroke="#757575" points="1446.99,-460.76 1457.06,-457.47 1447.14,-453.76 1446.99,-460.76"/>
</g>
<!-- component/chart/InformaticsChart/InforMaticsBox.tsx&#45;&gt;types/chart.d.ts -->
<g id="edge50" class="edge">
<title>component/chart/InformaticsChart/InforMaticsBox.tsx&#45;&gt;types/chart.d.ts</title>
<path fill="none" stroke="#757575" d="M2170.12,-245.39C2206.89,-241.29 2247.69,-236.45 2285,-231.37 2331.59,-225.02 2383.9,-216.65 2424.21,-209.93"/>
<polygon fill="#757575" stroke="#757575" points="2424.73,-213.39 2434.02,-208.28 2423.58,-206.49 2424.73,-213.39"/>
</g>
<!-- component/common/DatePicker/DatePickerTitle.tsx&#45;&gt;types/widget.d.ts -->
<g id="edge58" class="edge">
<title>component/common/DatePicker/DatePickerTitle.tsx&#45;&gt;types/widget.d.ts</title>
<path fill="none" stroke="#757575" d="M2550.36,-744.44C2585.31,-735.23 2629.78,-719.98 2664,-696.37 2753.49,-634.63 2826.57,-523.7 2854.87,-477.02"/>
<polygon fill="#757575" stroke="#757575" points="2857.76,-479.01 2859.88,-468.63 2851.75,-475.42 2857.76,-479.01"/>
</g>
<!-- component/common/DatePicker/ListPicker.tsx&#45;&gt;types/datePicker.d.ts -->
<g id="edge60" class="edge">
<title>component/common/DatePicker/ListPicker.tsx&#45;&gt;types/datePicker.d.ts</title>
<path fill="none" stroke="#757575" d="M2605.46,-829.34C2662.2,-835.41 2729.99,-842.66 2782.4,-848.27"/>
<polygon fill="#757575" stroke="#757575" points="2781.86,-851.73 2792.18,-849.31 2782.6,-844.77 2781.86,-851.73"/>
</g>
<!-- component/common/DatePicker/ListPickerItem.tsx -->
<g id="node47" class="node">
<title>component/common/DatePicker/ListPickerItem.tsx</title>
<path fill="none" stroke="#cfffac" d="M3029.33,-827.87C3029.33,-827.87 2707.67,-827.87 2707.67,-827.87 2703.83,-827.87 2700,-824.04 2700,-820.2 2700,-820.2 2700,-812.54 2700,-812.54 2700,-808.7 2703.83,-804.87 2707.67,-804.87 2707.67,-804.87 3029.33,-804.87 3029.33,-804.87 3033.17,-804.87 3037,-808.7 3037,-812.54 3037,-812.54 3037,-820.2 3037,-820.2 3037,-824.04 3033.17,-827.87 3029.33,-827.87"/>
<text text-anchor="middle" x="2868.5" y="-812.67" font-family="Arial" font-size="14.00" fill="#cfffac">component/common/DatePicker/ListPickerItem.tsx</text>
</g>
<!-- component/common/DatePicker/ListPicker.tsx&#45;&gt;component/common/DatePicker/ListPickerItem.tsx -->
<g id="edge59" class="edge">
<title>component/common/DatePicker/ListPicker.tsx&#45;&gt;component/common/DatePicker/ListPickerItem.tsx</title>
<path fill="none" stroke="#757575" d="M2646.97,-816.96C2660.65,-816.92 2674.58,-816.89 2688.45,-816.85"/>
<polygon fill="#757575" stroke="#757575" points="2688.05,-820.35 2698.04,-816.82 2688.03,-813.35 2688.05,-820.35"/>
</g>
<!-- page/Dashboard.tsx&#45;&gt;component/Dashboard/DashboardHeader.tsx -->
<g id="edge67" class="edge">
<title>page/Dashboard.tsx&#45;&gt;component/Dashboard/DashboardHeader.tsx</title>
<path fill="none" stroke="#757575" d="M345.79,-538.25C389.65,-576.03 526.26,-693.7 580.24,-740.19"/>
<polygon fill="#757575" stroke="#757575" points="577.73,-742.66 587.59,-746.53 582.3,-737.35 577.73,-742.66"/>
</g>
<!-- page/Dashboard.tsx&#45;&gt;component/Widget/Widget.tsx -->
<g id="edge68" class="edge">
<title>page/Dashboard.tsx&#45;&gt;component/Widget/Widget.tsx</title>
<path fill="none" stroke="#757575" d="M403.42,-531.65C429.13,-533.55 458.82,-535.75 487.3,-537.85"/>
<polygon fill="#757575" stroke="#757575" points="486.82,-541.33 497.05,-538.57 487.34,-534.35 486.82,-541.33"/>
</g>
<!-- page/Dashboard.tsx&#45;&gt;store/WidgetProvider.tsx -->
<g id="edge70" class="edge">
<title>page/Dashboard.tsx&#45;&gt;store/WidgetProvider.tsx</title>
<path fill="none" stroke="#757575" d="M403.32,-522.43C610.22,-511 1210.87,-477.81 1447.27,-464.74"/>
<polygon fill="#757575" stroke="#757575" points="1447.29,-468.25 1457.08,-464.2 1446.9,-461.26 1447.29,-468.25"/>
</g>
<!-- page/Dashboard.tsx&#45;&gt;component/Widget/WidgetPropsSettingModal.tsx -->
<g id="edge69" class="edge">
<title>page/Dashboard.tsx&#45;&gt;component/Widget/WidgetPropsSettingModal.tsx</title>
<path fill="none" stroke="#757575" d="M351.78,-514.55C372.71,-502.57 407.09,-484.42 439,-474.37 454.15,-469.6 470.37,-465.68 486.5,-462.46"/>
<polygon fill="#757575" stroke="#757575" points="486.98,-465.93 496.15,-460.63 485.68,-459.06 486.98,-465.93"/>
</g>
</g>
</svg>
