<?xml version="1.0" encoding="UTF-8" standalone="no"?>
<!DOCTYPE svg PUBLIC "-//W3C//DTD SVG 1.1//EN"
 "http://www.w3.org/Graphics/SVG/1.1/DTD/svg11.dtd">
<!-- Generated by graphviz version 7.1.0 (20230121.1956)
 -->
<!-- Title: G Pages: 1 -->
<svg width="3080pt" height="1062pt"
 viewBox="0.00 0.00 3080.20 1062.15" xmlns="http://www.w3.org/2000/svg" xmlns:xlink="http://www.w3.org/1999/xlink">
<g id="graph0" class="graph" transform="scale(1 1) rotate(0) translate(21.6 1040.55)">
<title>G</title>
<polygon fill="#111111" stroke="none" points="-21.6,21.6 -21.6,-1040.55 3058.6,-1040.55 3058.6,21.6 -21.6,21.6"/>
<!-- App.tsx -->
<g id="node1" class="node">
<title>App.tsx</title>
<path fill="none" stroke="#c6c5fe" d="M57.33,-697.95C57.33,-697.95 7.67,-697.95 7.67,-697.95 3.83,-697.95 0,-694.12 0,-690.28 0,-690.28 0,-682.62 0,-682.62 0,-678.78 3.83,-674.95 7.67,-674.95 7.67,-674.95 57.33,-674.95 57.33,-674.95 61.17,-674.95 65,-678.78 65,-682.62 65,-682.62 65,-690.28 65,-690.28 65,-694.12 61.17,-697.95 57.33,-697.95"/>
<text text-anchor="middle" x="32.5" y="-682.75" font-family="Arial" font-size="14.00" fill="#c6c5fe">App.tsx</text>
</g>
<!-- router/Router.tsx -->
<g id="node2" class="node">
<title>router/Router.tsx</title>
<path fill="none" stroke="#c6c5fe" d="M215.33,-697.95C215.33,-697.95 108.67,-697.95 108.67,-697.95 104.83,-697.95 101,-694.12 101,-690.28 101,-690.28 101,-682.62 101,-682.62 101,-678.78 104.83,-674.95 108.67,-674.95 108.67,-674.95 215.33,-674.95 215.33,-674.95 219.17,-674.95 223,-678.78 223,-682.62 223,-682.62 223,-690.28 223,-690.28 223,-694.12 219.17,-697.95 215.33,-697.95"/>
<text text-anchor="middle" x="162" y="-682.75" font-family="Arial" font-size="14.00" fill="#c6c5fe">router/Router.tsx</text>
</g>
<!-- App.tsx&#45;&gt;router/Router.tsx -->
<g id="edge1" class="edge">
<title>App.tsx&#45;&gt;router/Router.tsx</title>
<path fill="none" stroke="#757575" d="M65.34,-686.45C72.7,-686.45 80.81,-686.45 89.12,-686.45"/>
<polygon fill="#757575" stroke="#757575" points="88.99,-689.95 98.99,-686.45 88.99,-682.95 88.99,-689.95"/>
</g>
<!-- page/Dashboard.tsx -->
<g id="node48" class="node">
<title>page/Dashboard.tsx</title>
<path fill="none" stroke="#c6c5fe" d="M395.33,-697.95C395.33,-697.95 266.67,-697.95 266.67,-697.95 262.83,-697.95 259,-694.12 259,-690.28 259,-690.28 259,-682.62 259,-682.62 259,-678.78 262.83,-674.95 266.67,-674.95 266.67,-674.95 395.33,-674.95 395.33,-674.95 399.17,-674.95 403,-678.78 403,-682.62 403,-682.62 403,-690.28 403,-690.28 403,-694.12 399.17,-697.95 395.33,-697.95"/>
<text text-anchor="middle" x="331" y="-682.75" font-family="Arial" font-size="14.00" fill="#c6c5fe">page/Dashboard.tsx</text>
</g>
<!-- router/Router.tsx&#45;&gt;page/Dashboard.tsx -->
<g id="edge71" class="edge">
<title>router/Router.tsx&#45;&gt;page/Dashboard.tsx</title>
<path fill="none" stroke="#757575" d="M223.29,-686.45C231.1,-686.45 239.21,-686.45 247.3,-686.45"/>
<polygon fill="#757575" stroke="#757575" points="247.19,-689.95 257.19,-686.45 247.19,-682.95 247.19,-689.95"/>
</g>
<!-- asset/image/pause.png -->
<g id="node3" class="node">
<title>asset/image/pause.png</title>
<path fill="none" stroke="#cfffac" d="M1619.83,-935.95C1619.83,-935.95 1471.17,-935.95 1471.17,-935.95 1467.33,-935.95 1463.5,-932.12 1463.5,-928.28 1463.5,-928.28 1463.5,-920.62 1463.5,-920.62 1463.5,-916.78 1467.33,-912.95 1471.17,-912.95 1471.17,-912.95 1619.83,-912.95 1619.83,-912.95 1623.67,-912.95 1627.5,-916.78 1627.5,-920.62 1627.5,-920.62 1627.5,-928.28 1627.5,-928.28 1627.5,-932.12 1623.67,-935.95 1619.83,-935.95"/>
<text text-anchor="middle" x="1545.5" y="-920.75" font-family="Arial" font-size="14.00" fill="#cfffac">asset/image/pause.png</text>
</g>
<!-- asset/image/play.png -->
<g id="node4" class="node">
<title>asset/image/play.png</title>
<path fill="none" stroke="#cfffac" d="M1613.33,-894.95C1613.33,-894.95 1477.67,-894.95 1477.67,-894.95 1473.83,-894.95 1470,-891.12 1470,-887.28 1470,-887.28 1470,-879.62 1470,-879.62 1470,-875.78 1473.83,-871.95 1477.67,-871.95 1477.67,-871.95 1613.33,-871.95 1613.33,-871.95 1617.17,-871.95 1621,-875.78 1621,-879.62 1621,-879.62 1621,-887.28 1621,-887.28 1621,-891.12 1617.17,-894.95 1613.33,-894.95"/>
<text text-anchor="middle" x="1545.5" y="-879.75" font-family="Arial" font-size="14.00" fill="#cfffac">asset/image/play.png</text>
</g>
<!-- common/api.ts -->
<g id="node5" class="node">
<title>common/api.ts</title>
<path fill="none" stroke="#c6c5fe" d="M2100.83,-574.95C2100.83,-574.95 2006.17,-574.95 2006.17,-574.95 2002.33,-574.95 1998.5,-571.12 1998.5,-567.28 1998.5,-567.28 1998.5,-559.62 1998.5,-559.62 1998.5,-555.78 2002.33,-551.95 2006.17,-551.95 2006.17,-551.95 2100.83,-551.95 2100.83,-551.95 2104.67,-551.95 2108.5,-555.78 2108.5,-559.62 2108.5,-559.62 2108.5,-567.28 2108.5,-567.28 2108.5,-571.12 2104.67,-574.95 2100.83,-574.95"/>
<text text-anchor="middle" x="2053.5" y="-559.75" font-family="Arial" font-size="14.00" fill="#c6c5fe">common/api.ts</text>
</g>
<!-- types/api.d.ts -->
<g id="node6" class="node">
<title>types/api.d.ts</title>
<path fill="none" stroke="#cfffac" d="M2535.33,-574.95C2535.33,-574.95 2449.67,-574.95 2449.67,-574.95 2445.83,-574.95 2442,-571.12 2442,-567.28 2442,-567.28 2442,-559.62 2442,-559.62 2442,-555.78 2445.83,-551.95 2449.67,-551.95 2449.67,-551.95 2535.33,-551.95 2535.33,-551.95 2539.17,-551.95 2543,-555.78 2543,-559.62 2543,-559.62 2543,-567.28 2543,-567.28 2543,-571.12 2539.17,-574.95 2535.33,-574.95"/>
<text text-anchor="middle" x="2492.5" y="-559.75" font-family="Arial" font-size="14.00" fill="#cfffac">types/api.d.ts</text>
</g>
<!-- common/api.ts&#45;&gt;types/api.d.ts -->
<g id="edge2" class="edge">
<title>common/api.ts&#45;&gt;types/api.d.ts</title>
<path fill="none" stroke="#757575" d="M2108.96,-563.45C2190.77,-563.45 2344.89,-563.45 2430.41,-563.45"/>
<polygon fill="#757575" stroke="#757575" points="2430.25,-566.95 2440.25,-563.45 2430.25,-559.95 2430.25,-566.95"/>
</g>
<!-- common/chart.ts -->
<g id="node7" class="node">
<title>common/chart.ts</title>
<path fill="none" stroke="#c6c5fe" d="M2106.83,-253.95C2106.83,-253.95 2000.17,-253.95 2000.17,-253.95 1996.33,-253.95 1992.5,-250.12 1992.5,-246.28 1992.5,-246.28 1992.5,-238.62 1992.5,-238.62 1992.5,-234.78 1996.33,-230.95 2000.17,-230.95 2000.17,-230.95 2106.83,-230.95 2106.83,-230.95 2110.67,-230.95 2114.5,-234.78 2114.5,-238.62 2114.5,-238.62 2114.5,-246.28 2114.5,-246.28 2114.5,-250.12 2110.67,-253.95 2106.83,-253.95"/>
<text text-anchor="middle" x="2053.5" y="-238.75" font-family="Arial" font-size="14.00" fill="#c6c5fe">common/chart.ts</text>
</g>
<!-- types/chart.d.ts -->
<g id="node8" class="node">
<title>types/chart.d.ts</title>
<path fill="none" stroke="#cfffac" d="M2541.33,-172.95C2541.33,-172.95 2443.67,-172.95 2443.67,-172.95 2439.83,-172.95 2436,-169.12 2436,-165.28 2436,-165.28 2436,-157.62 2436,-157.62 2436,-153.78 2439.83,-149.95 2443.67,-149.95 2443.67,-149.95 2541.33,-149.95 2541.33,-149.95 2545.17,-149.95 2549,-153.78 2549,-157.62 2549,-157.62 2549,-165.28 2549,-165.28 2549,-169.12 2545.17,-172.95 2541.33,-172.95"/>
<text text-anchor="middle" x="2492.5" y="-157.75" font-family="Arial" font-size="14.00" fill="#cfffac">types/chart.d.ts</text>
</g>
<!-- common/chart.ts&#45;&gt;types/chart.d.ts -->
<g id="edge3" class="edge">
<title>common/chart.ts&#45;&gt;types/chart.d.ts</title>
<path fill="none" stroke="#757575" d="M2114.63,-240.13C2161.4,-237.57 2227.75,-232.27 2285,-221.45 2341.96,-210.68 2405.78,-190.91 2447.2,-177.01"/>
<polygon fill="#757575" stroke="#757575" points="2448.22,-180.36 2456.57,-173.83 2445.97,-173.73 2448.22,-180.36"/>
</g>
<!-- common/date.ts -->
<g id="node9" class="node">
<title>common/date.ts</title>
<path fill="none" stroke="#cfffac" d="M2544.33,-692.95C2544.33,-692.95 2440.67,-692.95 2440.67,-692.95 2436.83,-692.95 2433,-689.12 2433,-685.28 2433,-685.28 2433,-677.62 2433,-677.62 2433,-673.78 2436.83,-669.95 2440.67,-669.95 2440.67,-669.95 2544.33,-669.95 2544.33,-669.95 2548.17,-669.95 2552,-673.78 2552,-677.62 2552,-677.62 2552,-685.28 2552,-685.28 2552,-689.12 2548.17,-692.95 2544.33,-692.95"/>
<text text-anchor="middle" x="2492.5" y="-677.75" font-family="Arial" font-size="14.00" fill="#cfffac">common/date.ts</text>
</g>
<!-- common/widget.ts -->
<g id="node10" class="node">
<title>common/widget.ts</title>
<path fill="none" stroke="#cfffac" d="M2111.83,-456.95C2111.83,-456.95 1995.17,-456.95 1995.17,-456.95 1991.33,-456.95 1987.5,-453.12 1987.5,-449.28 1987.5,-449.28 1987.5,-441.62 1987.5,-441.62 1987.5,-437.78 1991.33,-433.95 1995.17,-433.95 1995.17,-433.95 2111.83,-433.95 2111.83,-433.95 2115.67,-433.95 2119.5,-437.78 2119.5,-441.62 2119.5,-441.62 2119.5,-449.28 2119.5,-449.28 2119.5,-453.12 2115.67,-456.95 2111.83,-456.95"/>
<text text-anchor="middle" x="2053.5" y="-441.75" font-family="Arial" font-size="14.00" fill="#cfffac">common/widget.ts</text>
</g>
<!-- component/Dashboard/DashboardHeader.tsx -->
<g id="node11" class="node">
<title>component/Dashboard/DashboardHeader.tsx</title>
<path fill="none" stroke="#c6c5fe" d="M747.33,-832.95C747.33,-832.95 459.67,-832.95 459.67,-832.95 455.83,-832.95 452,-829.12 452,-825.28 452,-825.28 452,-817.62 452,-817.62 452,-813.78 455.83,-809.95 459.67,-809.95 459.67,-809.95 747.33,-809.95 747.33,-809.95 751.17,-809.95 755,-813.78 755,-817.62 755,-817.62 755,-825.28 755,-825.28 755,-829.12 751.17,-832.95 747.33,-832.95"/>
<text text-anchor="middle" x="603.5" y="-817.75" font-family="Arial" font-size="14.00" fill="#c6c5fe">component/Dashboard/DashboardHeader.tsx</text>
</g>
<!-- component/Dashboard/DashboardHeader/PlayIcon.tsx -->
<g id="node12" class="node">
<title>component/Dashboard/DashboardHeader/PlayIcon.tsx</title>
<path fill="none" stroke="#c6c5fe" d="M1209.83,-894.95C1209.83,-894.95 863.17,-894.95 863.17,-894.95 859.33,-894.95 855.5,-891.12 855.5,-887.28 855.5,-887.28 855.5,-879.62 855.5,-879.62 855.5,-875.78 859.33,-871.95 863.17,-871.95 863.17,-871.95 1209.83,-871.95 1209.83,-871.95 1213.67,-871.95 1217.5,-875.78 1217.5,-879.62 1217.5,-879.62 1217.5,-887.28 1217.5,-887.28 1217.5,-891.12 1213.67,-894.95 1209.83,-894.95"/>
<text text-anchor="middle" x="1036.5" y="-879.75" font-family="Arial" font-size="14.00" fill="#c6c5fe">component/Dashboard/DashboardHeader/PlayIcon.tsx</text>
</g>
<!-- component/Dashboard/DashboardHeader.tsx&#45;&gt;component/Dashboard/DashboardHeader/PlayIcon.tsx -->
<g id="edge4" class="edge">
<title>component/Dashboard/DashboardHeader.tsx&#45;&gt;component/Dashboard/DashboardHeader/PlayIcon.tsx</title>
<path fill="none" stroke="#757575" d="M656.33,-833.37C696.45,-842.22 753.5,-854.01 804,-861.45 826.67,-864.79 850.67,-867.73 874.29,-870.29"/>
<polygon fill="#757575" stroke="#757575" points="873.66,-873.74 883.97,-871.31 874.4,-866.78 873.66,-873.74"/>
</g>
<!-- component/Dashboard/DashboardHeader/SelectRealTimeRangeArea.tsx -->
<g id="node13" class="node">
<title>component/Dashboard/DashboardHeader/SelectRealTimeRangeArea.tsx</title>
<path fill="none" stroke="#c6c5fe" d="M1778.33,-976.95C1778.33,-976.95 1312.67,-976.95 1312.67,-976.95 1308.83,-976.95 1305,-973.12 1305,-969.28 1305,-969.28 1305,-961.62 1305,-961.62 1305,-957.78 1308.83,-953.95 1312.67,-953.95 1312.67,-953.95 1778.33,-953.95 1778.33,-953.95 1782.17,-953.95 1786,-957.78 1786,-961.62 1786,-961.62 1786,-969.28 1786,-969.28 1786,-973.12 1782.17,-976.95 1778.33,-976.95"/>
<text text-anchor="middle" x="1545.5" y="-961.75" font-family="Arial" font-size="14.00" fill="#c6c5fe">component/Dashboard/DashboardHeader/SelectRealTimeRangeArea.tsx</text>
</g>
<!-- component/Dashboard/DashboardHeader.tsx&#45;&gt;component/Dashboard/DashboardHeader/SelectRealTimeRangeArea.tsx -->
<g id="edge5" class="edge">
<title>component/Dashboard/DashboardHeader.tsx&#45;&gt;component/Dashboard/DashboardHeader/SelectRealTimeRangeArea.tsx</title>
<path fill="none" stroke="#757575" d="M627.07,-833.43C663.26,-852 737.02,-887.29 804,-903.45 964.12,-942.08 1148.71,-957.6 1293.53,-963.45"/>
<polygon fill="#757575" stroke="#757575" points="1293.13,-966.94 1303.26,-963.83 1293.4,-959.95 1293.13,-966.94"/>
</g>
<!-- component/Dashboard/DashboardHeader/TimeBlock.tsx -->
<g id="node14" class="node">
<title>component/Dashboard/DashboardHeader/TimeBlock.tsx</title>
<path fill="none" stroke="#c6c5fe" d="M1215.83,-852.95C1215.83,-852.95 857.17,-852.95 857.17,-852.95 853.33,-852.95 849.5,-849.12 849.5,-845.28 849.5,-845.28 849.5,-837.62 849.5,-837.62 849.5,-833.78 853.33,-829.95 857.17,-829.95 857.17,-829.95 1215.83,-829.95 1215.83,-829.95 1219.67,-829.95 1223.5,-833.78 1223.5,-837.62 1223.5,-837.62 1223.5,-845.28 1223.5,-845.28 1223.5,-849.12 1219.67,-852.95 1215.83,-852.95"/>
<text text-anchor="middle" x="1036.5" y="-837.75" font-family="Arial" font-size="14.00" fill="#c6c5fe">component/Dashboard/DashboardHeader/TimeBlock.tsx</text>
</g>
<!-- component/Dashboard/DashboardHeader.tsx&#45;&gt;component/Dashboard/DashboardHeader/TimeBlock.tsx -->
<g id="edge6" class="edge">
<title>component/Dashboard/DashboardHeader.tsx&#45;&gt;component/Dashboard/DashboardHeader/TimeBlock.tsx</title>
<path fill="none" stroke="#757575" d="M755.24,-828.44C781.91,-829.68 810.04,-830.99 837.77,-832.27"/>
<polygon fill="#757575" stroke="#757575" points="837.55,-835.77 847.7,-832.73 837.87,-828.78 837.55,-835.77"/>
</g>
<!-- store/DashboardProvider.tsx -->
<g id="node15" class="node">
<title>store/DashboardProvider.tsx</title>
<path fill="none" stroke="#c6c5fe" d="M2144.33,-692.95C2144.33,-692.95 1962.67,-692.95 1962.67,-692.95 1958.83,-692.95 1955,-689.12 1955,-685.28 1955,-685.28 1955,-677.62 1955,-677.62 1955,-673.78 1958.83,-669.95 1962.67,-669.95 1962.67,-669.95 2144.33,-669.95 2144.33,-669.95 2148.17,-669.95 2152,-673.78 2152,-677.62 2152,-677.62 2152,-685.28 2152,-685.28 2152,-689.12 2148.17,-692.95 2144.33,-692.95"/>
<text text-anchor="middle" x="2053.5" y="-677.75" font-family="Arial" font-size="14.00" fill="#c6c5fe">store/DashboardProvider.tsx</text>
</g>
<!-- component/Dashboard/DashboardHeader.tsx&#45;&gt;store/DashboardProvider.tsx -->
<g id="edge7" class="edge">
<title>component/Dashboard/DashboardHeader.tsx&#45;&gt;store/DashboardProvider.tsx</title>
<path fill="none" stroke="#757575" d="M755.41,-813.58C1052.2,-797.48 1691.31,-759.38 1786,-725.45 1804.1,-718.96 1803.85,-707.81 1822,-701.45 1860.21,-688.05 1904.06,-682.1 1943.2,-679.82"/>
<polygon fill="#757575" stroke="#757575" points="1943.31,-683.31 1953.12,-679.32 1942.96,-676.32 1943.31,-683.31"/>
</g>
<!-- store/WidgetPropsSettingModalProvider.tsx -->
<g id="node16" class="node">
<title>store/WidgetPropsSettingModalProvider.tsx</title>
<path fill="none" stroke="#c6c5fe" d="M1684.83,-716.95C1684.83,-716.95 1406.17,-716.95 1406.17,-716.95 1402.33,-716.95 1398.5,-713.12 1398.5,-709.28 1398.5,-709.28 1398.5,-701.62 1398.5,-701.62 1398.5,-697.78 1402.33,-693.95 1406.17,-693.95 1406.17,-693.95 1684.83,-693.95 1684.83,-693.95 1688.67,-693.95 1692.5,-697.78 1692.5,-701.62 1692.5,-701.62 1692.5,-709.28 1692.5,-709.28 1692.5,-713.12 1688.67,-716.95 1684.83,-716.95"/>
<text text-anchor="middle" x="1545.5" y="-701.75" font-family="Arial" font-size="14.00" fill="#c6c5fe">store/WidgetPropsSettingModalProvider.tsx</text>
</g>
<!-- component/Dashboard/DashboardHeader.tsx&#45;&gt;store/WidgetPropsSettingModalProvider.tsx -->
<g id="edge8" class="edge">
<title>component/Dashboard/DashboardHeader.tsx&#45;&gt;store/WidgetPropsSettingModalProvider.tsx</title>
<path fill="none" stroke="#757575" d="M668.13,-809.51C707.23,-802.44 758.4,-793.68 804,-787.45 1009.85,-759.32 1062.56,-762.84 1269,-739.45 1325.55,-733.04 1388.55,-725.31 1440.01,-718.84"/>
<polygon fill="#757575" stroke="#757575" points="1440.16,-722.35 1449.65,-717.63 1439.29,-715.41 1440.16,-722.35"/>
</g>
<!-- component/Dashboard/DashboardHeader/PlayIcon.tsx&#45;&gt;asset/image/pause.png -->
<g id="edge16" class="edge">
<title>component/Dashboard/DashboardHeader/PlayIcon.tsx&#45;&gt;asset/image/pause.png</title>
<path fill="none" stroke="#757575" d="M1185.85,-895.45C1271.88,-902.4 1377.55,-910.95 1451.83,-916.96"/>
<polygon fill="#757575" stroke="#757575" points="1451.26,-920.42 1461.51,-917.74 1451.82,-913.44 1451.26,-920.42"/>
</g>
<!-- component/Dashboard/DashboardHeader/PlayIcon.tsx&#45;&gt;asset/image/play.png -->
<g id="edge17" class="edge">
<title>component/Dashboard/DashboardHeader/PlayIcon.tsx&#45;&gt;asset/image/play.png</title>
<path fill="none" stroke="#757575" d="M1217.68,-883.45C1299.6,-883.45 1392.71,-883.45 1458.53,-883.45"/>
<polygon fill="#757575" stroke="#757575" points="1458.16,-886.95 1468.16,-883.45 1458.16,-879.95 1458.16,-886.95"/>
</g>
<!-- hook/useBoolean.tsx -->
<g id="node22" class="node">
<title>hook/useBoolean.tsx</title>
<path fill="none" stroke="#cfffac" d="M2120.33,-774.95C2120.33,-774.95 1986.67,-774.95 1986.67,-774.95 1982.83,-774.95 1979,-771.12 1979,-767.28 1979,-767.28 1979,-759.62 1979,-759.62 1979,-755.78 1982.83,-751.95 1986.67,-751.95 1986.67,-751.95 2120.33,-751.95 2120.33,-751.95 2124.17,-751.95 2128,-755.78 2128,-759.62 2128,-759.62 2128,-767.28 2128,-767.28 2128,-771.12 2124.17,-774.95 2120.33,-774.95"/>
<text text-anchor="middle" x="2053.5" y="-759.75" font-family="Arial" font-size="14.00" fill="#cfffac">hook/useBoolean.tsx</text>
</g>
<!-- component/Dashboard/DashboardHeader/SelectRealTimeRangeArea.tsx&#45;&gt;hook/useBoolean.tsx -->
<g id="edge20" class="edge">
<title>component/Dashboard/DashboardHeader/SelectRealTimeRangeArea.tsx&#45;&gt;hook/useBoolean.tsx</title>
<path fill="none" stroke="#757575" d="M1606.05,-977.42C1659.19,-984.48 1736.09,-985.28 1786,-944.45 1829.76,-908.65 1781.3,-861.69 1822,-822.45 1860.4,-785.42 1918.72,-770.74 1967.09,-765.28"/>
<polygon fill="#757575" stroke="#757575" points="1967.4,-768.76 1977.01,-764.28 1966.71,-761.8 1967.4,-768.76"/>
</g>
<!-- hook/useOutsideClick.tsx -->
<g id="node23" class="node">
<title>hook/useOutsideClick.tsx</title>
<path fill="none" stroke="#cfffac" d="M2133.83,-936.95C2133.83,-936.95 1973.17,-936.95 1973.17,-936.95 1969.33,-936.95 1965.5,-933.12 1965.5,-929.28 1965.5,-929.28 1965.5,-921.62 1965.5,-921.62 1965.5,-917.78 1969.33,-913.95 1973.17,-913.95 1973.17,-913.95 2133.83,-913.95 2133.83,-913.95 2137.67,-913.95 2141.5,-917.78 2141.5,-921.62 2141.5,-921.62 2141.5,-929.28 2141.5,-929.28 2141.5,-933.12 2137.67,-936.95 2133.83,-936.95"/>
<text text-anchor="middle" x="2053.5" y="-921.75" font-family="Arial" font-size="14.00" fill="#cfffac">hook/useOutsideClick.tsx</text>
</g>
<!-- component/Dashboard/DashboardHeader/SelectRealTimeRangeArea.tsx&#45;&gt;hook/useOutsideClick.tsx -->
<g id="edge21" class="edge">
<title>component/Dashboard/DashboardHeader/SelectRealTimeRangeArea.tsx&#45;&gt;hook/useOutsideClick.tsx</title>
<path fill="none" stroke="#757575" d="M1697.97,-953.48C1780.75,-946.93 1880.9,-939.01 1953.62,-933.27"/>
<polygon fill="#757575" stroke="#757575" points="1953.85,-936.76 1963.54,-932.48 1953.29,-929.78 1953.85,-936.76"/>
</g>
<!-- component/Dashboard/DashboardHeader/RealTime.tsx -->
<g id="node24" class="node">
<title>component/Dashboard/DashboardHeader/RealTime.tsx</title>
<path fill="none" stroke="#cfffac" d="M2229.83,-1018.95C2229.83,-1018.95 1877.17,-1018.95 1877.17,-1018.95 1873.33,-1018.95 1869.5,-1015.12 1869.5,-1011.28 1869.5,-1011.28 1869.5,-1003.62 1869.5,-1003.62 1869.5,-999.78 1873.33,-995.95 1877.17,-995.95 1877.17,-995.95 2229.83,-995.95 2229.83,-995.95 2233.67,-995.95 2237.5,-999.78 2237.5,-1003.62 2237.5,-1003.62 2237.5,-1011.28 2237.5,-1011.28 2237.5,-1015.12 2233.67,-1018.95 2229.83,-1018.95"/>
<text text-anchor="middle" x="2053.5" y="-1003.75" font-family="Arial" font-size="14.00" fill="#cfffac">component/Dashboard/DashboardHeader/RealTime.tsx</text>
</g>
<!-- component/Dashboard/DashboardHeader/SelectRealTimeRangeArea.tsx&#45;&gt;component/Dashboard/DashboardHeader/RealTime.tsx -->
<g id="edge18" class="edge">
<title>component/Dashboard/DashboardHeader/SelectRealTimeRangeArea.tsx&#45;&gt;component/Dashboard/DashboardHeader/RealTime.tsx</title>
<path fill="none" stroke="#757575" d="M1690.82,-977.43C1755.16,-982.77 1831.08,-989.07 1896.7,-994.52"/>
<polygon fill="#757575" stroke="#757575" points="1896.22,-997.99 1906.48,-995.33 1896.8,-991.01 1896.22,-997.99"/>
</g>
<!-- component/Dashboard/DashboardHeader/SelectRealTimeListItem.tsx -->
<g id="node25" class="node">
<title>component/Dashboard/DashboardHeader/SelectRealTimeListItem.tsx</title>
<path fill="none" stroke="#cfffac" d="M2275.83,-977.95C2275.83,-977.95 1831.17,-977.95 1831.17,-977.95 1827.33,-977.95 1823.5,-974.12 1823.5,-970.28 1823.5,-970.28 1823.5,-962.62 1823.5,-962.62 1823.5,-958.78 1827.33,-954.95 1831.17,-954.95 1831.17,-954.95 2275.83,-954.95 2275.83,-954.95 2279.67,-954.95 2283.5,-958.78 2283.5,-962.62 2283.5,-962.62 2283.5,-970.28 2283.5,-970.28 2283.5,-974.12 2279.67,-977.95 2275.83,-977.95"/>
<text text-anchor="middle" x="2053.5" y="-962.75" font-family="Arial" font-size="14.00" fill="#cfffac">component/Dashboard/DashboardHeader/SelectRealTimeListItem.tsx</text>
</g>
<!-- component/Dashboard/DashboardHeader/SelectRealTimeRangeArea.tsx&#45;&gt;component/Dashboard/DashboardHeader/SelectRealTimeListItem.tsx -->
<g id="edge19" class="edge">
<title>component/Dashboard/DashboardHeader/SelectRealTimeRangeArea.tsx&#45;&gt;component/Dashboard/DashboardHeader/SelectRealTimeListItem.tsx</title>
<path fill="none" stroke="#757575" d="M1786.16,-965.92C1794.78,-965.94 1803.41,-965.96 1812.03,-965.97"/>
<polygon fill="#757575" stroke="#757575" points="1811.82,-969.47 1821.83,-965.99 1811.83,-962.47 1811.82,-969.47"/>
</g>
<!-- component/Dashboard/DashboardHeader/CurrentTime.tsx -->
<g id="node17" class="node">
<title>component/Dashboard/DashboardHeader/CurrentTime.tsx</title>
<path fill="none" stroke="#c6c5fe" d="M1730.83,-812.95C1730.83,-812.95 1360.17,-812.95 1360.17,-812.95 1356.33,-812.95 1352.5,-809.12 1352.5,-805.28 1352.5,-805.28 1352.5,-797.62 1352.5,-797.62 1352.5,-793.78 1356.33,-789.95 1360.17,-789.95 1360.17,-789.95 1730.83,-789.95 1730.83,-789.95 1734.67,-789.95 1738.5,-793.78 1738.5,-797.62 1738.5,-797.62 1738.5,-805.28 1738.5,-805.28 1738.5,-809.12 1734.67,-812.95 1730.83,-812.95"/>
<text text-anchor="middle" x="1545.5" y="-797.75" font-family="Arial" font-size="14.00" fill="#c6c5fe">component/Dashboard/DashboardHeader/CurrentTime.tsx</text>
</g>
<!-- component/Dashboard/DashboardHeader/TimeBlock.tsx&#45;&gt;component/Dashboard/DashboardHeader/CurrentTime.tsx -->
<g id="edge22" class="edge">
<title>component/Dashboard/DashboardHeader/TimeBlock.tsx&#45;&gt;component/Dashboard/DashboardHeader/CurrentTime.tsx</title>
<path fill="none" stroke="#757575" d="M1189.27,-829.48C1249.83,-824.7 1319.68,-819.19 1381.32,-814.32"/>
<polygon fill="#757575" stroke="#757575" points="1381.53,-817.82 1391.22,-813.54 1380.98,-810.84 1381.53,-817.82"/>
</g>
<!-- component/Dashboard/DashboardHeader/DatePickerArea.tsx -->
<g id="node20" class="node">
<title>component/Dashboard/DashboardHeader/DatePickerArea.tsx</title>
<path fill="none" stroke="#c6c5fe" d="M1741.33,-853.95C1741.33,-853.95 1349.67,-853.95 1349.67,-853.95 1345.83,-853.95 1342,-850.12 1342,-846.28 1342,-846.28 1342,-838.62 1342,-838.62 1342,-834.78 1345.83,-830.95 1349.67,-830.95 1349.67,-830.95 1741.33,-830.95 1741.33,-830.95 1745.17,-830.95 1749,-834.78 1749,-838.62 1749,-838.62 1749,-846.28 1749,-846.28 1749,-850.12 1745.17,-853.95 1741.33,-853.95"/>
<text text-anchor="middle" x="1545.5" y="-838.75" font-family="Arial" font-size="14.00" fill="#c6c5fe">component/Dashboard/DashboardHeader/DatePickerArea.tsx</text>
</g>
<!-- component/Dashboard/DashboardHeader/TimeBlock.tsx&#45;&gt;component/Dashboard/DashboardHeader/DatePickerArea.tsx -->
<g id="edge23" class="edge">
<title>component/Dashboard/DashboardHeader/TimeBlock.tsx&#45;&gt;component/Dashboard/DashboardHeader/DatePickerArea.tsx</title>
<path fill="none" stroke="#757575" d="M1223.77,-841.82C1258.43,-841.89 1294.91,-841.96 1330.33,-842.03"/>
<polygon fill="#757575" stroke="#757575" points="1330.27,-845.53 1340.28,-842.05 1330.29,-838.53 1330.27,-845.53"/>
</g>
<!-- store/DashboardProvider.tsx&#45;&gt;common/date.ts -->
<g id="edge72" class="edge">
<title>store/DashboardProvider.tsx&#45;&gt;common/date.ts</title>
<path fill="none" stroke="#757575" d="M2152.3,-681.45C2233.98,-681.45 2348.44,-681.45 2421.28,-681.45"/>
<polygon fill="#757575" stroke="#757575" points="2421.09,-684.95 2431.09,-681.45 2421.09,-677.95 2421.09,-684.95"/>
</g>
<!-- store/WidgetPropsSettingModalProvider.tsx&#45;&gt;hook/useBoolean.tsx -->
<g id="edge73" class="edge">
<title>store/WidgetPropsSettingModalProvider.tsx&#45;&gt;hook/useBoolean.tsx</title>
<path fill="none" stroke="#757575" d="M1628.66,-717.42C1683.37,-725.16 1756.9,-735.12 1822,-742.45 1870.02,-747.86 1923.79,-752.82 1967.31,-756.56"/>
<polygon fill="#757575" stroke="#757575" points="1966.95,-760.04 1977.21,-757.4 1967.54,-753.07 1966.95,-760.04"/>
</g>
<!-- hook/useCurrentTime.tsx -->
<g id="node18" class="node">
<title>hook/useCurrentTime.tsx</title>
<path fill="none" stroke="#cfffac" d="M2133.33,-733.95C2133.33,-733.95 1973.67,-733.95 1973.67,-733.95 1969.83,-733.95 1966,-730.12 1966,-726.28 1966,-726.28 1966,-718.62 1966,-718.62 1966,-714.78 1969.83,-710.95 1973.67,-710.95 1973.67,-710.95 2133.33,-710.95 2133.33,-710.95 2137.17,-710.95 2141,-714.78 2141,-718.62 2141,-718.62 2141,-726.28 2141,-726.28 2141,-730.12 2137.17,-733.95 2133.33,-733.95"/>
<text text-anchor="middle" x="2053.5" y="-718.75" font-family="Arial" font-size="14.00" fill="#cfffac">hook/useCurrentTime.tsx</text>
</g>
<!-- component/Dashboard/DashboardHeader/CurrentTime.tsx&#45;&gt;hook/useCurrentTime.tsx -->
<g id="edge9" class="edge">
<title>component/Dashboard/DashboardHeader/CurrentTime.tsx&#45;&gt;hook/useCurrentTime.tsx</title>
<path fill="none" stroke="#757575" d="M1738.99,-791.57C1755.25,-787.46 1771.14,-782.18 1786,-775.45 1805.77,-766.5 1802.13,-751.19 1822,-742.45 1863.01,-724.42 1912.03,-718.3 1954.3,-717.14"/>
<polygon fill="#757575" stroke="#757575" points="1954.3,-720.64 1964.24,-716.97 1954.18,-713.64 1954.3,-720.64"/>
</g>
<!-- component/Dashboard/DashboardHeader/DateBox.tsx -->
<g id="node19" class="node">
<title>component/Dashboard/DashboardHeader/DateBox.tsx</title>
<path fill="none" stroke="#cfffac" d="M2226.83,-895.95C2226.83,-895.95 1880.17,-895.95 1880.17,-895.95 1876.33,-895.95 1872.5,-892.12 1872.5,-888.28 1872.5,-888.28 1872.5,-880.62 1872.5,-880.62 1872.5,-876.78 1876.33,-872.95 1880.17,-872.95 1880.17,-872.95 2226.83,-872.95 2226.83,-872.95 2230.67,-872.95 2234.5,-876.78 2234.5,-880.62 2234.5,-880.62 2234.5,-888.28 2234.5,-888.28 2234.5,-892.12 2230.67,-895.95 2226.83,-895.95"/>
<text text-anchor="middle" x="2053.5" y="-880.75" font-family="Arial" font-size="14.00" fill="#cfffac">component/Dashboard/DashboardHeader/DateBox.tsx</text>
</g>
<!-- component/Dashboard/DashboardHeader/DatePickerArea.tsx&#45;&gt;common/date.ts -->
<g id="edge10" class="edge">
<title>component/Dashboard/DashboardHeader/DatePickerArea.tsx&#45;&gt;common/date.ts</title>
<path fill="none" stroke="#757575" d="M1705.91,-830.47C1921.09,-814.18 2278.6,-786.71 2285,-783.45 2306.91,-772.29 2300.71,-755.34 2321,-741.45 2351.94,-720.27 2391.15,-705.79 2424.16,-696.37"/>
<polygon fill="#757575" stroke="#757575" points="2424.92,-699.79 2433.63,-693.77 2423.06,-693.04 2424.92,-699.79"/>
</g>
<!-- component/Dashboard/DashboardHeader/DatePickerArea.tsx&#45;&gt;store/DashboardProvider.tsx -->
<g id="edge15" class="edge">
<title>component/Dashboard/DashboardHeader/DatePickerArea.tsx&#45;&gt;store/DashboardProvider.tsx</title>
<path fill="none" stroke="#757575" d="M1606.53,-854.44C1659.61,-861.39 1736.16,-862.04 1786,-821.45 1829.18,-786.29 1778.81,-736.59 1822,-701.45 1865.65,-665.94 1930.55,-663.3 1980.37,-668.2"/>
<polygon fill="#757575" stroke="#757575" points="1979.89,-671.66 1990.22,-669.3 1980.67,-664.71 1979.89,-671.66"/>
</g>
<!-- component/Dashboard/DashboardHeader/DatePickerArea.tsx&#45;&gt;component/Dashboard/DashboardHeader/DateBox.tsx -->
<g id="edge11" class="edge">
<title>component/Dashboard/DashboardHeader/DatePickerArea.tsx&#45;&gt;component/Dashboard/DashboardHeader/DateBox.tsx</title>
<path fill="none" stroke="#757575" d="M1690.82,-854.43C1755.16,-859.77 1831.08,-866.07 1896.7,-871.52"/>
<polygon fill="#757575" stroke="#757575" points="1896.22,-874.99 1906.48,-872.33 1896.8,-868.01 1896.22,-874.99"/>
</g>
<!-- component/common/DatePicker.tsx -->
<g id="node21" class="node">
<title>component/common/DatePicker.tsx</title>
<path fill="none" stroke="#c6c5fe" d="M2166.83,-854.95C2166.83,-854.95 1940.17,-854.95 1940.17,-854.95 1936.33,-854.95 1932.5,-851.12 1932.5,-847.28 1932.5,-847.28 1932.5,-839.62 1932.5,-839.62 1932.5,-835.78 1936.33,-831.95 1940.17,-831.95 1940.17,-831.95 2166.83,-831.95 2166.83,-831.95 2170.67,-831.95 2174.5,-835.78 2174.5,-839.62 2174.5,-839.62 2174.5,-847.28 2174.5,-847.28 2174.5,-851.12 2170.67,-854.95 2166.83,-854.95"/>
<text text-anchor="middle" x="2053.5" y="-839.75" font-family="Arial" font-size="14.00" fill="#c6c5fe">component/common/DatePicker.tsx</text>
</g>
<!-- component/Dashboard/DashboardHeader/DatePickerArea.tsx&#45;&gt;component/common/DatePicker.tsx -->
<g id="edge12" class="edge">
<title>component/Dashboard/DashboardHeader/DatePickerArea.tsx&#45;&gt;component/common/DatePicker.tsx</title>
<path fill="none" stroke="#757575" d="M1749.39,-842.85C1807.16,-842.96 1868.55,-843.09 1920.87,-843.19"/>
<polygon fill="#757575" stroke="#757575" points="1920.71,-846.69 1930.72,-843.21 1920.73,-839.69 1920.71,-846.69"/>
</g>
<!-- component/Dashboard/DashboardHeader/DatePickerArea.tsx&#45;&gt;hook/useBoolean.tsx -->
<g id="edge13" class="edge">
<title>component/Dashboard/DashboardHeader/DatePickerArea.tsx&#45;&gt;hook/useBoolean.tsx</title>
<path fill="none" stroke="#757575" d="M1749.4,-834C1762.01,-830.63 1774.31,-826.49 1786,-821.45 1805.66,-812.97 1802.45,-798.17 1822,-789.45 1867.25,-769.27 1922.25,-762.48 1967.18,-760.87"/>
<polygon fill="#757575" stroke="#757575" points="1967.25,-764.37 1977.15,-760.61 1967.06,-757.38 1967.25,-764.37"/>
</g>
<!-- component/Dashboard/DashboardHeader/DatePickerArea.tsx&#45;&gt;hook/useOutsideClick.tsx -->
<g id="edge14" class="edge">
<title>component/Dashboard/DashboardHeader/DatePickerArea.tsx&#45;&gt;hook/useOutsideClick.tsx</title>
<path fill="none" stroke="#757575" d="M1749.32,-847.9C1762.05,-851.73 1774.39,-856.51 1786,-862.45 1807.89,-873.64 1800.15,-893.17 1822,-904.45 1862.07,-925.13 1911.3,-931.72 1953.97,-932.59"/>
<polygon fill="#757575" stroke="#757575" points="1953.69,-936.09 1963.72,-932.68 1953.75,-929.09 1953.69,-936.09"/>
</g>
<!-- component/common/DatePicker/DatePickerTitle.tsx -->
<g id="node44" class="node">
<title>component/common/DatePicker/DatePickerTitle.tsx</title>
<path fill="none" stroke="#c6c5fe" d="M2656.33,-773.95C2656.33,-773.95 2328.67,-773.95 2328.67,-773.95 2324.83,-773.95 2321,-770.12 2321,-766.28 2321,-766.28 2321,-758.62 2321,-758.62 2321,-754.78 2324.83,-750.95 2328.67,-750.95 2328.67,-750.95 2656.33,-750.95 2656.33,-750.95 2660.17,-750.95 2664,-754.78 2664,-758.62 2664,-758.62 2664,-766.28 2664,-766.28 2664,-770.12 2660.17,-773.95 2656.33,-773.95"/>
<text text-anchor="middle" x="2492.5" y="-758.75" font-family="Arial" font-size="14.00" fill="#c6c5fe">component/common/DatePicker/DatePickerTitle.tsx</text>
</g>
<!-- component/common/DatePicker.tsx&#45;&gt;component/common/DatePicker/DatePickerTitle.tsx -->
<g id="edge55" class="edge">
<title>component/common/DatePicker.tsx&#45;&gt;component/common/DatePicker/DatePickerTitle.tsx</title>
<path fill="none" stroke="#757575" d="M2174.71,-836.36C2210.58,-832.52 2249.72,-826.59 2285,-817.45 2301.78,-813.1 2304.51,-807.78 2321,-802.45 2352.56,-792.25 2388.19,-783.48 2418.69,-776.77"/>
<polygon fill="#757575" stroke="#757575" points="2419.16,-780.25 2428.19,-774.71 2417.68,-773.41 2419.16,-780.25"/>
</g>
<!-- component/common/DatePicker/ListPicker.tsx -->
<g id="node45" class="node">
<title>component/common/DatePicker/ListPicker.tsx</title>
<path fill="none" stroke="#c6c5fe" d="M2638.83,-834.95C2638.83,-834.95 2346.17,-834.95 2346.17,-834.95 2342.33,-834.95 2338.5,-831.12 2338.5,-827.28 2338.5,-827.28 2338.5,-819.62 2338.5,-819.62 2338.5,-815.78 2342.33,-811.95 2346.17,-811.95 2346.17,-811.95 2638.83,-811.95 2638.83,-811.95 2642.67,-811.95 2646.5,-815.78 2646.5,-819.62 2646.5,-819.62 2646.5,-827.28 2646.5,-827.28 2646.5,-831.12 2642.67,-834.95 2638.83,-834.95"/>
<text text-anchor="middle" x="2492.5" y="-819.75" font-family="Arial" font-size="14.00" fill="#c6c5fe">component/common/DatePicker/ListPicker.tsx</text>
</g>
<!-- component/common/DatePicker.tsx&#45;&gt;component/common/DatePicker/ListPicker.tsx -->
<g id="edge56" class="edge">
<title>component/common/DatePicker.tsx&#45;&gt;component/common/DatePicker/ListPicker.tsx</title>
<path fill="none" stroke="#757575" d="M2174.78,-837.94C2221.76,-835.79 2276.39,-833.29 2326.91,-830.98"/>
<polygon fill="#757575" stroke="#757575" points="2326.96,-834.48 2336.79,-830.53 2326.64,-827.49 2326.96,-834.48"/>
</g>
<!-- types/datePicker.d.ts -->
<g id="node46" class="node">
<title>types/datePicker.d.ts</title>
<path fill="none" stroke="#cfffac" d="M2935.33,-874.95C2935.33,-874.95 2801.67,-874.95 2801.67,-874.95 2797.83,-874.95 2794,-871.12 2794,-867.28 2794,-867.28 2794,-859.62 2794,-859.62 2794,-855.78 2797.83,-851.95 2801.67,-851.95 2801.67,-851.95 2935.33,-851.95 2935.33,-851.95 2939.17,-851.95 2943,-855.78 2943,-859.62 2943,-859.62 2943,-867.28 2943,-867.28 2943,-871.12 2939.17,-874.95 2935.33,-874.95"/>
<text text-anchor="middle" x="2868.5" y="-859.75" font-family="Arial" font-size="14.00" fill="#cfffac">types/datePicker.d.ts</text>
</g>
<!-- component/common/DatePicker.tsx&#45;&gt;types/datePicker.d.ts -->
<g id="edge57" class="edge">
<title>component/common/DatePicker.tsx&#45;&gt;types/datePicker.d.ts</title>
<path fill="none" stroke="#757575" d="M2174.9,-846.41C2341.13,-850.5 2636.82,-857.77 2782.11,-861.35"/>
<polygon fill="#757575" stroke="#757575" points="2781.99,-864.85 2792.07,-861.59 2782.16,-857.85 2781.99,-864.85"/>
</g>
<!-- component/Widget.tsx -->
<g id="node26" class="node">
<title>component/Widget.tsx</title>
<path fill="none" stroke="#c6c5fe" d="M675.33,-460.95C675.33,-460.95 531.67,-460.95 531.67,-460.95 527.83,-460.95 524,-457.12 524,-453.28 524,-453.28 524,-445.62 524,-445.62 524,-441.78 527.83,-437.95 531.67,-437.95 531.67,-437.95 675.33,-437.95 675.33,-437.95 679.17,-437.95 683,-441.78 683,-445.62 683,-445.62 683,-453.28 683,-453.28 683,-457.12 679.17,-460.95 675.33,-460.95"/>
<text text-anchor="middle" x="603.5" y="-445.75" font-family="Arial" font-size="14.00" fill="#c6c5fe">component/Widget.tsx</text>
</g>
<!-- component/Widget.tsx&#45;&gt;hook/useBoolean.tsx -->
<g id="edge28" class="edge">
<title>component/Widget.tsx&#45;&gt;hook/useBoolean.tsx</title>
<path fill="none" stroke="#757575" d="M683.07,-459.17C945.46,-491.7 1775.55,-595.23 1786,-604.45 1833.53,-646.39 1773.65,-701.46 1822,-742.45 1865.22,-779.09 1930.77,-781.74 1980.93,-776.72"/>
<polygon fill="#757575" stroke="#757575" points="1981.31,-780.2 1990.85,-775.6 1980.52,-773.25 1981.31,-780.2"/>
</g>
<!-- component/Widget/WidgetButtons.tsx -->
<g id="node27" class="node">
<title>component/Widget/WidgetButtons.tsx</title>
<path fill="none" stroke="#c6c5fe" d="M1157.33,-576.95C1157.33,-576.95 915.67,-576.95 915.67,-576.95 911.83,-576.95 908,-573.12 908,-569.28 908,-569.28 908,-561.62 908,-561.62 908,-557.78 911.83,-553.95 915.67,-553.95 915.67,-553.95 1157.33,-553.95 1157.33,-553.95 1161.17,-553.95 1165,-557.78 1165,-561.62 1165,-561.62 1165,-569.28 1165,-569.28 1165,-573.12 1161.17,-576.95 1157.33,-576.95"/>
<text text-anchor="middle" x="1036.5" y="-561.75" font-family="Arial" font-size="14.00" fill="#c6c5fe">component/Widget/WidgetButtons.tsx</text>
</g>
<!-- component/Widget.tsx&#45;&gt;component/Widget/WidgetButtons.tsx -->
<g id="edge24" class="edge">
<title>component/Widget.tsx&#45;&gt;component/Widget/WidgetButtons.tsx</title>
<path fill="none" stroke="#757575" d="M649,-461.43C728.23,-482.75 893.51,-527.23 980.01,-550.52"/>
<polygon fill="#757575" stroke="#757575" points="978.89,-553.84 989.46,-553.06 980.71,-547.08 978.89,-553.84"/>
</g>
<!-- component/Widget/WidgetCallCycleSettingModal.tsx -->
<g id="node28" class="node">
<title>component/Widget/WidgetCallCycleSettingModal.tsx</title>
<path fill="none" stroke="#c6c5fe" d="M1713.33,-417.95C1713.33,-417.95 1377.67,-417.95 1377.67,-417.95 1373.83,-417.95 1370,-414.12 1370,-410.28 1370,-410.28 1370,-402.62 1370,-402.62 1370,-398.78 1373.83,-394.95 1377.67,-394.95 1377.67,-394.95 1713.33,-394.95 1713.33,-394.95 1717.17,-394.95 1721,-398.78 1721,-402.62 1721,-402.62 1721,-410.28 1721,-410.28 1721,-414.12 1717.17,-417.95 1713.33,-417.95"/>
<text text-anchor="middle" x="1545.5" y="-402.75" font-family="Arial" font-size="14.00" fill="#c6c5fe">component/Widget/WidgetCallCycleSettingModal.tsx</text>
</g>
<!-- component/Widget.tsx&#45;&gt;component/Widget/WidgetCallCycleSettingModal.tsx -->
<g id="edge25" class="edge">
<title>component/Widget.tsx&#45;&gt;component/Widget/WidgetCallCycleSettingModal.tsx</title>
<path fill="none" stroke="#757575" d="M683.43,-445.84C831.08,-439.08 1152.69,-424.37 1358.36,-414.96"/>
<polygon fill="#757575" stroke="#757575" points="1358.25,-418.47 1368.08,-414.52 1357.93,-411.48 1358.25,-418.47"/>
</g>
<!-- component/Widget/WidgetChart.tsx -->
<g id="node29" class="node">
<title>component/Widget/WidgetChart.tsx</title>
<path fill="none" stroke="#c6c5fe" d="M1149.83,-212.95C1149.83,-212.95 923.17,-212.95 923.17,-212.95 919.33,-212.95 915.5,-209.12 915.5,-205.28 915.5,-205.28 915.5,-197.62 915.5,-197.62 915.5,-193.78 919.33,-189.95 923.17,-189.95 923.17,-189.95 1149.83,-189.95 1149.83,-189.95 1153.67,-189.95 1157.5,-193.78 1157.5,-197.62 1157.5,-197.62 1157.5,-205.28 1157.5,-205.28 1157.5,-209.12 1153.67,-212.95 1149.83,-212.95"/>
<text text-anchor="middle" x="1036.5" y="-197.75" font-family="Arial" font-size="14.00" fill="#c6c5fe">component/Widget/WidgetChart.tsx</text>
</g>
<!-- component/Widget.tsx&#45;&gt;component/Widget/WidgetChart.tsx -->
<g id="edge26" class="edge">
<title>component/Widget.tsx&#45;&gt;component/Widget/WidgetChart.tsx</title>
<path fill="none" stroke="#757575" d="M625.29,-437.49C695.19,-397.26 922.02,-266.75 1004.85,-219.08"/>
<polygon fill="#757575" stroke="#757575" points="1006.43,-222.21 1013.36,-214.19 1002.94,-216.14 1006.43,-222.21"/>
</g>
<!-- hook/Widget/useHandleWidgetApi.tsx -->
<g id="node30" class="node">
<title>hook/Widget/useHandleWidgetApi.tsx</title>
<path fill="none" stroke="#c6c5fe" d="M1666.33,-496.95C1666.33,-496.95 1424.67,-496.95 1424.67,-496.95 1420.83,-496.95 1417,-493.12 1417,-489.28 1417,-489.28 1417,-481.62 1417,-481.62 1417,-477.78 1420.83,-473.95 1424.67,-473.95 1424.67,-473.95 1666.33,-473.95 1666.33,-473.95 1670.17,-473.95 1674,-477.78 1674,-481.62 1674,-481.62 1674,-489.28 1674,-489.28 1674,-493.12 1670.17,-496.95 1666.33,-496.95"/>
<text text-anchor="middle" x="1545.5" y="-481.75" font-family="Arial" font-size="14.00" fill="#c6c5fe">hook/Widget/useHandleWidgetApi.tsx</text>
</g>
<!-- component/Widget.tsx&#45;&gt;hook/Widget/useHandleWidgetApi.tsx -->
<g id="edge27" class="edge">
<title>component/Widget.tsx&#45;&gt;hook/Widget/useHandleWidgetApi.tsx</title>
<path fill="none" stroke="#757575" d="M683.27,-452.11C807.69,-456.34 1057.34,-465.02 1269,-473.45 1313.34,-475.22 1361.68,-477.28 1405.32,-479.19"/>
<polygon fill="#757575" stroke="#757575" points="1404.95,-482.67 1415.09,-479.61 1405.25,-475.68 1404.95,-482.67"/>
</g>
<!-- types/widget.d.ts -->
<g id="node31" class="node">
<title>types/widget.d.ts</title>
<path fill="none" stroke="#cfffac" d="M2922.33,-574.95C2922.33,-574.95 2814.67,-574.95 2814.67,-574.95 2810.83,-574.95 2807,-571.12 2807,-567.28 2807,-567.28 2807,-559.62 2807,-559.62 2807,-555.78 2810.83,-551.95 2814.67,-551.95 2814.67,-551.95 2922.33,-551.95 2922.33,-551.95 2926.17,-551.95 2930,-555.78 2930,-559.62 2930,-559.62 2930,-567.28 2930,-567.28 2930,-571.12 2926.17,-574.95 2922.33,-574.95"/>
<text text-anchor="middle" x="2868.5" y="-559.75" font-family="Arial" font-size="14.00" fill="#cfffac">types/widget.d.ts</text>
</g>
<!-- component/Widget.tsx&#45;&gt;types/widget.d.ts -->
<g id="edge29" class="edge">
<title>component/Widget.tsx&#45;&gt;types/widget.d.ts</title>
<path fill="none" stroke="#757575" d="M609.64,-437.45C628.55,-394.88 698.63,-249.84 804,-180.45 1086.43,5.55 1206.32,-5.45 1544.5,-5.45 1544.5,-5.45 1544.5,-5.45 2054.5,-5.45 2331.95,-5.45 2453.54,40.34 2664,-140.45 2795.21,-253.16 2848.74,-469.76 2863.2,-540.49"/>
<polygon fill="#757575" stroke="#757575" points="2859.73,-540.98 2865.1,-550.11 2866.6,-539.63 2859.73,-540.98"/>
</g>
<!-- component/Widget/WidgetButtons.tsx&#45;&gt;store/WidgetPropsSettingModalProvider.tsx -->
<g id="edge30" class="edge">
<title>component/Widget/WidgetButtons.tsx&#45;&gt;store/WidgetPropsSettingModalProvider.tsx</title>
<path fill="none" stroke="#757575" d="M1165.34,-555.58C1201.08,-558.17 1238.46,-566.38 1269,-585.45 1295.38,-601.92 1280.02,-626.93 1305,-645.45 1335.48,-668.04 1373.51,-682.19 1410.23,-691.02"/>
<polygon fill="#757575" stroke="#757575" points="1409.06,-694.34 1419.58,-693.15 1410.61,-687.52 1409.06,-694.34"/>
</g>
<!-- store/WidgetProvider.tsx -->
<g id="node32" class="node">
<title>store/WidgetProvider.tsx</title>
<path fill="none" stroke="#c6c5fe" d="M1624.33,-636.95C1624.33,-636.95 1466.67,-636.95 1466.67,-636.95 1462.83,-636.95 1459,-633.12 1459,-629.28 1459,-629.28 1459,-621.62 1459,-621.62 1459,-617.78 1462.83,-613.95 1466.67,-613.95 1466.67,-613.95 1624.33,-613.95 1624.33,-613.95 1628.17,-613.95 1632,-617.78 1632,-621.62 1632,-621.62 1632,-629.28 1632,-629.28 1632,-633.12 1628.17,-636.95 1624.33,-636.95"/>
<text text-anchor="middle" x="1545.5" y="-621.75" font-family="Arial" font-size="14.00" fill="#c6c5fe">store/WidgetProvider.tsx</text>
</g>
<!-- component/Widget/WidgetButtons.tsx&#45;&gt;store/WidgetProvider.tsx -->
<g id="edge31" class="edge">
<title>component/Widget/WidgetButtons.tsx&#45;&gt;store/WidgetProvider.tsx</title>
<path fill="none" stroke="#757575" d="M1165.3,-575.16C1199.06,-578.08 1235.44,-581.57 1269,-585.45 1332.76,-592.83 1404.51,-603.31 1458.8,-611.7"/>
<polygon fill="#757575" stroke="#757575" points="1458.2,-615.15 1468.61,-613.22 1459.27,-608.23 1458.2,-615.15"/>
</g>
<!-- component/Widget/WidgetCallCycleSettingModal.tsx&#45;&gt;common/widget.ts -->
<g id="edge32" class="edge">
<title>component/Widget/WidgetCallCycleSettingModal.tsx&#45;&gt;common/widget.ts</title>
<path fill="none" stroke="#757575" d="M1702.1,-418.44C1792.94,-425.44 1903.56,-433.97 1975.89,-439.54"/>
<polygon fill="#757575" stroke="#757575" points="1975.41,-443.02 1985.65,-440.3 1975.95,-436.04 1975.41,-443.02"/>
</g>
<!-- component/Widget/WidgetCallCycleSettingModal/CycleInput.tsx -->
<g id="node33" class="node">
<title>component/Widget/WidgetCallCycleSettingModal/CycleInput.tsx</title>
<path fill="none" stroke="#cfffac" d="M2256.83,-374.95C2256.83,-374.95 1850.17,-374.95 1850.17,-374.95 1846.33,-374.95 1842.5,-371.12 1842.5,-367.28 1842.5,-367.28 1842.5,-359.62 1842.5,-359.62 1842.5,-355.78 1846.33,-351.95 1850.17,-351.95 1850.17,-351.95 2256.83,-351.95 2256.83,-351.95 2260.67,-351.95 2264.5,-355.78 2264.5,-359.62 2264.5,-359.62 2264.5,-367.28 2264.5,-367.28 2264.5,-371.12 2260.67,-374.95 2256.83,-374.95"/>
<text text-anchor="middle" x="2053.5" y="-359.75" font-family="Arial" font-size="14.00" fill="#cfffac">component/Widget/WidgetCallCycleSettingModal/CycleInput.tsx</text>
</g>
<!-- component/Widget/WidgetCallCycleSettingModal.tsx&#45;&gt;component/Widget/WidgetCallCycleSettingModal/CycleInput.tsx -->
<g id="edge33" class="edge">
<title>component/Widget/WidgetCallCycleSettingModal.tsx&#45;&gt;component/Widget/WidgetCallCycleSettingModal/CycleInput.tsx</title>
<path fill="none" stroke="#757575" d="M1687.45,-394.47C1753.65,-388.85 1832.68,-382.13 1900.26,-376.39"/>
<polygon fill="#757575" stroke="#757575" points="1900.25,-379.9 1909.92,-375.57 1899.66,-372.93 1900.25,-379.9"/>
</g>
<!-- component/Widget/WidgetCallCycleSettingModal/LastCallTimeBox.tsx -->
<g id="node34" class="node">
<title>component/Widget/WidgetCallCycleSettingModal/LastCallTimeBox.tsx</title>
<path fill="none" stroke="#cfffac" d="M2277.33,-415.95C2277.33,-415.95 1829.67,-415.95 1829.67,-415.95 1825.83,-415.95 1822,-412.12 1822,-408.28 1822,-408.28 1822,-400.62 1822,-400.62 1822,-396.78 1825.83,-392.95 1829.67,-392.95 1829.67,-392.95 2277.33,-392.95 2277.33,-392.95 2281.17,-392.95 2285,-396.78 2285,-400.62 2285,-400.62 2285,-408.28 2285,-408.28 2285,-412.12 2281.17,-415.95 2277.33,-415.95"/>
<text text-anchor="middle" x="2053.5" y="-400.75" font-family="Arial" font-size="14.00" fill="#cfffac">component/Widget/WidgetCallCycleSettingModal/LastCallTimeBox.tsx</text>
</g>
<!-- component/Widget/WidgetCallCycleSettingModal.tsx&#45;&gt;component/Widget/WidgetCallCycleSettingModal/LastCallTimeBox.tsx -->
<g id="edge34" class="edge">
<title>component/Widget/WidgetCallCycleSettingModal.tsx&#45;&gt;component/Widget/WidgetCallCycleSettingModal/LastCallTimeBox.tsx</title>
<path fill="none" stroke="#757575" d="M1721.35,-405.76C1750.09,-405.64 1780.34,-405.53 1810.37,-405.41"/>
<polygon fill="#757575" stroke="#757575" points="1810.37,-408.91 1820.36,-405.37 1810.35,-401.91 1810.37,-408.91"/>
</g>
<!-- component/Widget/WidgetChart.tsx&#45;&gt;types/chart.d.ts -->
<g id="edge38" class="edge">
<title>component/Widget/WidgetChart.tsx&#45;&gt;types/chart.d.ts</title>
<path fill="none" stroke="#757575" d="M1157.94,-190.92C1203.93,-187.19 1256.87,-183.22 1305,-180.45 1534.55,-167.23 1592.11,-165.67 1822,-161.45 2042.38,-157.4 2303.63,-159.35 2424.28,-160.63"/>
<polygon fill="#757575" stroke="#757575" points="2423.95,-164.13 2433.99,-160.74 2424.03,-157.13 2423.95,-164.13"/>
</g>
<!-- component/chart/BarChart.tsx -->
<g id="node35" class="node">
<title>component/chart/BarChart.tsx</title>
<path fill="none" stroke="#c6c5fe" d="M1639.33,-253.95C1639.33,-253.95 1451.67,-253.95 1451.67,-253.95 1447.83,-253.95 1444,-250.12 1444,-246.28 1444,-246.28 1444,-238.62 1444,-238.62 1444,-234.78 1447.83,-230.95 1451.67,-230.95 1451.67,-230.95 1639.33,-230.95 1639.33,-230.95 1643.17,-230.95 1647,-234.78 1647,-238.62 1647,-238.62 1647,-246.28 1647,-246.28 1647,-250.12 1643.17,-253.95 1639.33,-253.95"/>
<text text-anchor="middle" x="1545.5" y="-238.75" font-family="Arial" font-size="14.00" fill="#c6c5fe">component/chart/BarChart.tsx</text>
</g>
<!-- component/Widget/WidgetChart.tsx&#45;&gt;component/chart/BarChart.tsx -->
<g id="edge35" class="edge">
<title>component/Widget/WidgetChart.tsx&#45;&gt;component/chart/BarChart.tsx</title>
<path fill="none" stroke="#757575" d="M1157.97,-211.19C1241.18,-217.92 1351.08,-226.81 1432.41,-233.39"/>
<polygon fill="#757575" stroke="#757575" points="1431.94,-236.86 1442.19,-234.18 1432.5,-229.88 1431.94,-236.86"/>
</g>
<!-- component/chart/InformaticsChart.tsx -->
<g id="node36" class="node">
<title>component/chart/InformaticsChart.tsx</title>
<path fill="none" stroke="#c6c5fe" d="M1663.83,-94.95C1663.83,-94.95 1427.17,-94.95 1427.17,-94.95 1423.33,-94.95 1419.5,-91.12 1419.5,-87.28 1419.5,-87.28 1419.5,-79.62 1419.5,-79.62 1419.5,-75.78 1423.33,-71.95 1427.17,-71.95 1427.17,-71.95 1663.83,-71.95 1663.83,-71.95 1667.67,-71.95 1671.5,-75.78 1671.5,-79.62 1671.5,-79.62 1671.5,-87.28 1671.5,-87.28 1671.5,-91.12 1667.67,-94.95 1663.83,-94.95"/>
<text text-anchor="middle" x="1545.5" y="-79.75" font-family="Arial" font-size="14.00" fill="#c6c5fe">component/chart/InformaticsChart.tsx</text>
</g>
<!-- component/Widget/WidgetChart.tsx&#45;&gt;component/chart/InformaticsChart.tsx -->
<g id="edge36" class="edge">
<title>component/Widget/WidgetChart.tsx&#45;&gt;component/chart/InformaticsChart.tsx</title>
<path fill="none" stroke="#757575" d="M1065.4,-189.52C1113.41,-169.54 1215.13,-129.52 1305,-109.45 1337.91,-102.1 1373.86,-96.8 1407.65,-92.99"/>
<polygon fill="#757575" stroke="#757575" points="1407.95,-96.48 1417.52,-91.92 1407.2,-89.52 1407.95,-96.48"/>
</g>
<!-- component/chart/LineChart.tsx -->
<g id="node37" class="node">
<title>component/chart/LineChart.tsx</title>
<path fill="none" stroke="#c6c5fe" d="M1642.33,-212.95C1642.33,-212.95 1448.67,-212.95 1448.67,-212.95 1444.83,-212.95 1441,-209.12 1441,-205.28 1441,-205.28 1441,-197.62 1441,-197.62 1441,-193.78 1444.83,-189.95 1448.67,-189.95 1448.67,-189.95 1642.33,-189.95 1642.33,-189.95 1646.17,-189.95 1650,-193.78 1650,-197.62 1650,-197.62 1650,-205.28 1650,-205.28 1650,-209.12 1646.17,-212.95 1642.33,-212.95"/>
<text text-anchor="middle" x="1545.5" y="-197.75" font-family="Arial" font-size="14.00" fill="#c6c5fe">component/chart/LineChart.tsx</text>
</g>
<!-- component/Widget/WidgetChart.tsx&#45;&gt;component/chart/LineChart.tsx -->
<g id="edge37" class="edge">
<title>component/Widget/WidgetChart.tsx&#45;&gt;component/chart/LineChart.tsx</title>
<path fill="none" stroke="#757575" d="M1157.97,-201.45C1240.21,-201.45 1348.5,-201.45 1429.53,-201.45"/>
<polygon fill="#757575" stroke="#757575" points="1429.27,-204.95 1439.27,-201.45 1429.27,-197.95 1429.27,-204.95"/>
</g>
<!-- hook/Widget/useHandleWidgetApi.tsx&#45;&gt;common/api.ts -->
<g id="edge61" class="edge">
<title>hook/Widget/useHandleWidgetApi.tsx&#45;&gt;common/api.ts</title>
<path fill="none" stroke="#757575" d="M1674.31,-487.1C1711.27,-490.81 1751.06,-498.02 1786,-511.45 1804.42,-518.53 1803.59,-530.33 1822,-537.45 1874.92,-557.91 1939.4,-563.72 1986.69,-564.82"/>
<polygon fill="#757575" stroke="#757575" points="1986.46,-568.31 1996.51,-564.97 1986.57,-561.31 1986.46,-568.31"/>
</g>
<!-- hook/Widget/useHandleWidgetApi.tsx&#45;&gt;types/chart.d.ts -->
<g id="edge65" class="edge">
<title>hook/Widget/useHandleWidgetApi.tsx&#45;&gt;types/chart.d.ts</title>
<path fill="none" stroke="#757575" d="M1674.44,-495.73C1857.52,-508.14 2183.38,-521.04 2285,-465.45 2400.73,-402.14 2464.22,-242.8 2484.36,-183.84"/>
<polygon fill="#757575" stroke="#757575" points="2487.61,-185.18 2487.44,-174.58 2480.96,-182.97 2487.61,-185.18"/>
</g>
<!-- hook/Widget/useHandleWidgetApi.tsx&#45;&gt;common/date.ts -->
<g id="edge62" class="edge">
<title>hook/Widget/useHandleWidgetApi.tsx&#45;&gt;common/date.ts</title>
<path fill="none" stroke="#757575" d="M1630.73,-497.43C1678.49,-506.73 1738.08,-522.71 1786,-549.45 1805.22,-560.17 1802.19,-573.86 1822,-583.45 1875.36,-609.3 2261,-655.33 2421.6,-673.63"/>
<polygon fill="#757575" stroke="#757575" points="2420.93,-677.08 2431.26,-674.73 2421.72,-670.13 2420.93,-677.08"/>
</g>
<!-- hook/Widget/useHandleWidgetApi.tsx&#45;&gt;common/widget.ts -->
<g id="edge63" class="edge">
<title>hook/Widget/useHandleWidgetApi.tsx&#45;&gt;common/widget.ts</title>
<path fill="none" stroke="#757575" d="M1674.19,-475.36C1769.2,-467.84 1895.76,-457.84 1975.7,-451.52"/>
<polygon fill="#757575" stroke="#757575" points="1975.95,-455.01 1985.64,-450.73 1975.4,-448.03 1975.95,-455.01"/>
</g>
<!-- hook/Widget/useHandleWidgetApi.tsx&#45;&gt;store/DashboardProvider.tsx -->
<g id="edge64" class="edge">
<title>hook/Widget/useHandleWidgetApi.tsx&#45;&gt;store/DashboardProvider.tsx</title>
<path fill="none" stroke="#757575" d="M1674.25,-495.97C1714.18,-504.99 1755.68,-521.07 1786,-549.45 1822.33,-583.45 1783.25,-624.25 1822,-655.45 1855.55,-682.46 1901.29,-691.44 1943.19,-692.74"/>
<polygon fill="#757575" stroke="#757575" points="1943.04,-696.24 1953.09,-692.89 1943.14,-689.24 1943.04,-696.24"/>
</g>
<!-- hook/Widget/useHandleWidgetApi.tsx&#45;&gt;types/widget.d.ts -->
<g id="edge66" class="edge">
<title>hook/Widget/useHandleWidgetApi.tsx&#45;&gt;types/widget.d.ts</title>
<path fill="none" stroke="#757575" d="M1674.4,-492.53C1720.87,-495.08 1773.81,-497.94 1822,-500.45 2196.18,-519.97 2290.4,-513.88 2664,-542.45 2707.67,-545.79 2756.5,-550.79 2795.37,-555.07"/>
<polygon fill="#757575" stroke="#757575" points="2794.75,-558.52 2805.07,-556.14 2795.52,-551.56 2794.75,-558.52"/>
</g>
<!-- store/WidgetProvider.tsx&#45;&gt;types/widget.d.ts -->
<g id="edge74" class="edge">
<title>store/WidgetProvider.tsx&#45;&gt;types/widget.d.ts</title>
<path fill="none" stroke="#757575" d="M1632.47,-623.99C1819.98,-620.41 2279.74,-609.53 2664,-583.45 2707.68,-580.49 2756.5,-575.74 2795.38,-571.61"/>
<polygon fill="#757575" stroke="#757575" points="2795.51,-575.11 2805.08,-570.57 2794.76,-568.15 2795.51,-575.11"/>
</g>
<!-- component/chart/BarChart.tsx&#45;&gt;common/chart.ts -->
<g id="edge44" class="edge">
<title>component/chart/BarChart.tsx&#45;&gt;common/chart.ts</title>
<path fill="none" stroke="#757575" d="M1647.38,-242.45C1746.02,-242.45 1893.73,-242.45 1980.89,-242.45"/>
<polygon fill="#757575" stroke="#757575" points="1980.74,-245.95 1990.74,-242.45 1980.74,-238.95 1980.74,-245.95"/>
</g>
<!-- component/chart/BarChart.tsx&#45;&gt;types/chart.d.ts -->
<g id="edge47" class="edge">
<title>component/chart/BarChart.tsx&#45;&gt;types/chart.d.ts</title>
<path fill="none" stroke="#757575" d="M1581.37,-254.41C1689.01,-289.43 2024.54,-384.36 2285,-303.45 2362.81,-279.28 2437.28,-214.49 2471.66,-181.44"/>
<polygon fill="#757575" stroke="#757575" points="2474.11,-183.94 2478.81,-174.45 2469.21,-178.93 2474.11,-183.94"/>
</g>
<!-- component/chart/ChartSvg.tsx -->
<g id="node41" class="node">
<title>component/chart/ChartSvg.tsx</title>
<path fill="none" stroke="#cfffac" d="M2148.83,-212.95C2148.83,-212.95 1958.17,-212.95 1958.17,-212.95 1954.33,-212.95 1950.5,-209.12 1950.5,-205.28 1950.5,-205.28 1950.5,-197.62 1950.5,-197.62 1950.5,-193.78 1954.33,-189.95 1958.17,-189.95 1958.17,-189.95 2148.83,-189.95 2148.83,-189.95 2152.67,-189.95 2156.5,-193.78 2156.5,-197.62 2156.5,-197.62 2156.5,-205.28 2156.5,-205.28 2156.5,-209.12 2152.67,-212.95 2148.83,-212.95"/>
<text text-anchor="middle" x="2053.5" y="-197.75" font-family="Arial" font-size="14.00" fill="#cfffac">component/chart/ChartSvg.tsx</text>
</g>
<!-- component/chart/BarChart.tsx&#45;&gt;component/chart/ChartSvg.tsx -->
<g id="edge45" class="edge">
<title>component/chart/BarChart.tsx&#45;&gt;component/chart/ChartSvg.tsx</title>
<path fill="none" stroke="#757575" d="M1647.38,-234.28C1731.48,-227.46 1851.26,-217.76 1938.76,-210.67"/>
<polygon fill="#757575" stroke="#757575" points="1938.88,-214.17 1948.56,-209.87 1938.31,-207.19 1938.88,-214.17"/>
</g>
<!-- hook/useResize.tsx -->
<g id="node42" class="node">
<title>hook/useResize.tsx</title>
<path fill="none" stroke="#cfffac" d="M2115.83,-294.95C2115.83,-294.95 1991.17,-294.95 1991.17,-294.95 1987.33,-294.95 1983.5,-291.12 1983.5,-287.28 1983.5,-287.28 1983.5,-279.62 1983.5,-279.62 1983.5,-275.78 1987.33,-271.95 1991.17,-271.95 1991.17,-271.95 2115.83,-271.95 2115.83,-271.95 2119.67,-271.95 2123.5,-275.78 2123.5,-279.62 2123.5,-279.62 2123.5,-287.28 2123.5,-287.28 2123.5,-291.12 2119.67,-294.95 2115.83,-294.95"/>
<text text-anchor="middle" x="2053.5" y="-279.75" font-family="Arial" font-size="14.00" fill="#cfffac">hook/useResize.tsx</text>
</g>
<!-- component/chart/BarChart.tsx&#45;&gt;hook/useResize.tsx -->
<g id="edge46" class="edge">
<title>component/chart/BarChart.tsx&#45;&gt;hook/useResize.tsx</title>
<path fill="none" stroke="#757575" d="M1647.38,-250.62C1742.67,-258.34 1883.75,-269.78 1971.8,-276.91"/>
<polygon fill="#757575" stroke="#757575" points="1971.3,-280.38 1981.55,-277.7 1971.87,-273.4 1971.3,-280.38"/>
</g>
<!-- component/chart/InformaticsChart.tsx&#45;&gt;types/chart.d.ts -->
<g id="edge49" class="edge">
<title>component/chart/InformaticsChart.tsx&#45;&gt;types/chart.d.ts</title>
<path fill="none" stroke="#757575" d="M1671.99,-79.83C1819.5,-77.43 2071.29,-79.13 2285,-109.45 2340.16,-117.28 2401.93,-133.9 2443.41,-146.26"/>
<polygon fill="#757575" stroke="#757575" points="2442.26,-149.57 2452.84,-149.11 2444.28,-142.87 2442.26,-149.57"/>
</g>
<!-- component/chart/InformaticsChart/InforMaticsBox.tsx -->
<g id="node43" class="node">
<title>component/chart/InformaticsChart/InforMaticsBox.tsx</title>
<path fill="none" stroke="#c6c5fe" d="M2220.83,-56.95C2220.83,-56.95 1886.17,-56.95 1886.17,-56.95 1882.33,-56.95 1878.5,-53.12 1878.5,-49.28 1878.5,-49.28 1878.5,-41.62 1878.5,-41.62 1878.5,-37.78 1882.33,-33.95 1886.17,-33.95 1886.17,-33.95 2220.83,-33.95 2220.83,-33.95 2224.67,-33.95 2228.5,-37.78 2228.5,-41.62 2228.5,-41.62 2228.5,-49.28 2228.5,-49.28 2228.5,-53.12 2224.67,-56.95 2220.83,-56.95"/>
<text text-anchor="middle" x="2053.5" y="-41.75" font-family="Arial" font-size="14.00" fill="#c6c5fe">component/chart/InformaticsChart/InforMaticsBox.tsx</text>
</g>
<!-- component/chart/InformaticsChart.tsx&#45;&gt;component/chart/InformaticsChart/InforMaticsBox.tsx -->
<g id="edge48" class="edge">
<title>component/chart/InformaticsChart.tsx&#45;&gt;component/chart/InformaticsChart/InforMaticsBox.tsx</title>
<path fill="none" stroke="#757575" d="M1671.9,-74.03C1735.25,-69.27 1813.06,-63.43 1881.78,-58.27"/>
<polygon fill="#757575" stroke="#757575" points="1881.95,-61.77 1891.66,-57.53 1881.43,-54.79 1881.95,-61.77"/>
</g>
<!-- component/chart/LineChart.tsx&#45;&gt;common/chart.ts -->
<g id="edge51" class="edge">
<title>component/chart/LineChart.tsx&#45;&gt;common/chart.ts</title>
<path fill="none" stroke="#757575" d="M1650.42,-209.87C1749.1,-217.87 1894.81,-229.67 1981.05,-236.66"/>
<polygon fill="#757575" stroke="#757575" points="1980.54,-240.13 1990.79,-237.45 1981.1,-233.15 1980.54,-240.13"/>
</g>
<!-- component/chart/LineChart.tsx&#45;&gt;types/chart.d.ts -->
<g id="edge54" class="edge">
<title>component/chart/LineChart.tsx&#45;&gt;types/chart.d.ts</title>
<path fill="none" stroke="#757575" d="M1650.43,-192.35C1701.99,-188.14 1765.23,-183.42 1822,-180.45 2042.48,-168.92 2304.21,-164.04 2424.7,-162.29"/>
<polygon fill="#757575" stroke="#757575" points="2424.45,-165.79 2434.4,-162.15 2424.35,-158.8 2424.45,-165.79"/>
</g>
<!-- component/chart/LineChart.tsx&#45;&gt;component/chart/ChartSvg.tsx -->
<g id="edge52" class="edge">
<title>component/chart/LineChart.tsx&#45;&gt;component/chart/ChartSvg.tsx</title>
<path fill="none" stroke="#757575" d="M1650.42,-201.45C1734.29,-201.45 1852.13,-201.45 1938.57,-201.45"/>
<polygon fill="#757575" stroke="#757575" points="1938.5,-204.95 1948.5,-201.45 1938.5,-197.95 1938.5,-204.95"/>
</g>
<!-- component/chart/LineChart.tsx&#45;&gt;hook/useResize.tsx -->
<g id="edge53" class="edge">
<title>component/chart/LineChart.tsx&#45;&gt;hook/useResize.tsx</title>
<path fill="none" stroke="#757575" d="M1650.46,-193.38C1694.35,-194.11 1744.73,-200.65 1786,-221.45 1807.66,-232.36 1800.39,-251.46 1822,-262.45 1867.81,-285.75 1925.39,-291.01 1971.54,-290.44"/>
<polygon fill="#757575" stroke="#757575" points="1971.58,-293.94 1981.5,-290.21 1971.42,-286.94 1971.58,-293.94"/>
</g>
<!-- component/Widget/WidgetPropsSettingModal.tsx -->
<g id="node38" class="node">
<title>component/Widget/WidgetPropsSettingModal.tsx</title>
<path fill="none" stroke="#c6c5fe" d="M760.33,-658.95C760.33,-658.95 446.67,-658.95 446.67,-658.95 442.83,-658.95 439,-655.12 439,-651.28 439,-651.28 439,-643.62 439,-643.62 439,-639.78 442.83,-635.95 446.67,-635.95 446.67,-635.95 760.33,-635.95 760.33,-635.95 764.17,-635.95 768,-639.78 768,-643.62 768,-643.62 768,-651.28 768,-651.28 768,-655.12 764.17,-658.95 760.33,-658.95"/>
<text text-anchor="middle" x="603.5" y="-643.75" font-family="Arial" font-size="14.00" fill="#c6c5fe">component/Widget/WidgetPropsSettingModal.tsx</text>
</g>
<!-- component/Widget/WidgetPropsSettingModal.tsx&#45;&gt;common/api.ts -->
<g id="edge39" class="edge">
<title>component/Widget/WidgetPropsSettingModal.tsx&#45;&gt;common/api.ts</title>
<path fill="none" stroke="#757575" d="M620.75,-635.57C653.44,-612.5 730.33,-562.35 804,-544.45 1031.37,-489.22 1763.05,-540.64 1986.85,-558.12"/>
<polygon fill="#757575" stroke="#757575" points="1986.3,-561.59 1996.55,-558.89 1986.85,-554.61 1986.3,-561.59"/>
</g>
<!-- component/Widget/WidgetPropsSettingModal.tsx&#45;&gt;store/WidgetPropsSettingModalProvider.tsx -->
<g id="edge42" class="edge">
<title>component/Widget/WidgetPropsSettingModal.tsx&#45;&gt;store/WidgetPropsSettingModalProvider.tsx</title>
<path fill="none" stroke="#757575" d="M714.43,-659.44C743.53,-662.35 774.93,-665.25 804,-667.45 1004.99,-682.67 1237.14,-693.49 1387.14,-699.6"/>
<polygon fill="#757575" stroke="#757575" points="1386.6,-703.08 1396.73,-699.98 1386.88,-696.08 1386.6,-703.08"/>
</g>
<!-- component/Widget/WidgetPropsSettingModal/WidgetPropsButtons.tsx -->
<g id="node39" class="node">
<title>component/Widget/WidgetPropsSettingModal/WidgetPropsButtons.tsx</title>
<path fill="none" stroke="#c6c5fe" d="M1261.33,-658.95C1261.33,-658.95 811.67,-658.95 811.67,-658.95 807.83,-658.95 804,-655.12 804,-651.28 804,-651.28 804,-643.62 804,-643.62 804,-639.78 807.83,-635.95 811.67,-635.95 811.67,-635.95 1261.33,-635.95 1261.33,-635.95 1265.17,-635.95 1269,-639.78 1269,-643.62 1269,-643.62 1269,-651.28 1269,-651.28 1269,-655.12 1265.17,-658.95 1261.33,-658.95"/>
<text text-anchor="middle" x="1036.5" y="-643.75" font-family="Arial" font-size="14.00" fill="#c6c5fe">component/Widget/WidgetPropsSettingModal/WidgetPropsButtons.tsx</text>
</g>
<!-- component/Widget/WidgetPropsSettingModal.tsx&#45;&gt;component/Widget/WidgetPropsSettingModal/WidgetPropsButtons.tsx -->
<g id="edge40" class="edge">
<title>component/Widget/WidgetPropsSettingModal.tsx&#45;&gt;component/Widget/WidgetPropsSettingModal/WidgetPropsButtons.tsx</title>
<path fill="none" stroke="#757575" d="M768.36,-647.45C776.29,-647.45 784.32,-647.45 792.4,-647.45"/>
<polygon fill="#757575" stroke="#757575" points="792.33,-650.95 802.33,-647.45 792.33,-643.95 792.33,-650.95"/>
</g>
<!-- component/Widget/WidgetPropsSettingModal/WidgetPropsList.tsx -->
<g id="node40" class="node">
<title>component/Widget/WidgetPropsSettingModal/WidgetPropsList.tsx</title>
<path fill="none" stroke="#cfffac" d="M1248.83,-617.95C1248.83,-617.95 824.17,-617.95 824.17,-617.95 820.33,-617.95 816.5,-614.12 816.5,-610.28 816.5,-610.28 816.5,-602.62 816.5,-602.62 816.5,-598.78 820.33,-594.95 824.17,-594.95 824.17,-594.95 1248.83,-594.95 1248.83,-594.95 1252.67,-594.95 1256.5,-598.78 1256.5,-602.62 1256.5,-602.62 1256.5,-610.28 1256.5,-610.28 1256.5,-614.12 1252.67,-617.95 1248.83,-617.95"/>
<text text-anchor="middle" x="1036.5" y="-602.75" font-family="Arial" font-size="14.00" fill="#cfffac">component/Widget/WidgetPropsSettingModal/WidgetPropsList.tsx</text>
</g>
<!-- component/Widget/WidgetPropsSettingModal.tsx&#45;&gt;component/Widget/WidgetPropsSettingModal/WidgetPropsList.tsx -->
<g id="edge41" class="edge">
<title>component/Widget/WidgetPropsSettingModal.tsx&#45;&gt;component/Widget/WidgetPropsSettingModal/WidgetPropsList.tsx</title>
<path fill="none" stroke="#757575" d="M714.74,-635.47C743.76,-632.42 775.05,-629.22 804,-626.45 828.75,-624.08 855,-621.69 880.59,-619.43"/>
<polygon fill="#757575" stroke="#757575" points="880.74,-622.93 890.4,-618.57 880.13,-615.96 880.74,-622.93"/>
</g>
<!-- component/Widget/WidgetPropsSettingModal/WidgetPropsButtons.tsx&#45;&gt;store/WidgetProvider.tsx -->
<g id="edge43" class="edge">
<title>component/Widget/WidgetPropsSettingModal/WidgetPropsButtons.tsx&#45;&gt;store/WidgetProvider.tsx</title>
<path fill="none" stroke="#757575" d="M1269.49,-637.38C1332.15,-634.66 1396.58,-631.87 1447.31,-629.67"/>
<polygon fill="#757575" stroke="#757575" points="1447.22,-633.17 1457.06,-629.24 1446.92,-626.18 1447.22,-633.17"/>
</g>
<!-- component/chart/InformaticsChart/InforMaticsBox.tsx&#45;&gt;types/chart.d.ts -->
<g id="edge50" class="edge">
<title>component/chart/InformaticsChart/InforMaticsBox.tsx&#45;&gt;types/chart.d.ts</title>
<path fill="none" stroke="#757575" d="M2215.92,-57.44C2239.31,-60.97 2262.92,-65.54 2285,-71.45 2349.71,-88.78 2420.28,-123.21 2459.89,-144.1"/>
<polygon fill="#757575" stroke="#757575" points="2458.17,-147.15 2468.64,-148.77 2461.47,-140.98 2458.17,-147.15"/>
</g>
<!-- component/common/DatePicker/DatePickerTitle.tsx&#45;&gt;types/widget.d.ts -->
<g id="edge58" class="edge">
<title>component/common/DatePicker/DatePickerTitle.tsx&#45;&gt;types/widget.d.ts</title>
<path fill="none" stroke="#757575" d="M2536.07,-750.5C2571.33,-739.84 2622.23,-722.65 2664,-701.45 2733.53,-666.15 2807.45,-610.96 2844.09,-582.24"/>
<polygon fill="#757575" stroke="#757575" points="2846.13,-585.09 2851.8,-576.15 2841.79,-579.6 2846.13,-585.09"/>
</g>
<!-- component/common/DatePicker/ListPicker.tsx&#45;&gt;types/datePicker.d.ts -->
<g id="edge60" class="edge">
<title>component/common/DatePicker/ListPicker.tsx&#45;&gt;types/datePicker.d.ts</title>
<path fill="none" stroke="#757575" d="M2605.46,-835.42C2662.2,-841.49 2729.99,-848.74 2782.4,-854.35"/>
<polygon fill="#757575" stroke="#757575" points="2781.86,-857.81 2792.18,-855.39 2782.6,-850.85 2781.86,-857.81"/>
</g>
<!-- component/common/DatePicker/ListPickerItem.tsx -->
<g id="node47" class="node">
<title>component/common/DatePicker/ListPickerItem.tsx</title>
<path fill="none" stroke="#cfffac" d="M3029.33,-833.95C3029.33,-833.95 2707.67,-833.95 2707.67,-833.95 2703.83,-833.95 2700,-830.12 2700,-826.28 2700,-826.28 2700,-818.62 2700,-818.62 2700,-814.78 2703.83,-810.95 2707.67,-810.95 2707.67,-810.95 3029.33,-810.95 3029.33,-810.95 3033.17,-810.95 3037,-814.78 3037,-818.62 3037,-818.62 3037,-826.28 3037,-826.28 3037,-830.12 3033.17,-833.95 3029.33,-833.95"/>
<text text-anchor="middle" x="2868.5" y="-818.75" font-family="Arial" font-size="14.00" fill="#cfffac">component/common/DatePicker/ListPickerItem.tsx</text>
</g>
<!-- component/common/DatePicker/ListPicker.tsx&#45;&gt;component/common/DatePicker/ListPickerItem.tsx -->
<g id="edge59" class="edge">
<title>component/common/DatePicker/ListPicker.tsx&#45;&gt;component/common/DatePicker/ListPickerItem.tsx</title>
<path fill="none" stroke="#757575" d="M2646.97,-823.04C2660.65,-823 2674.58,-822.97 2688.45,-822.93"/>
<polygon fill="#757575" stroke="#757575" points="2688.05,-826.43 2698.04,-822.9 2688.03,-819.43 2688.05,-826.43"/>
</g>
<!-- page/Dashboard.tsx&#45;&gt;component/Dashboard/DashboardHeader.tsx -->
<g id="edge67" class="edge">
<title>page/Dashboard.tsx&#45;&gt;component/Dashboard/DashboardHeader.tsx</title>
<path fill="none" stroke="#757575" d="M356.01,-698.43C404.23,-722.5 512.99,-776.78 568.51,-804.49"/>
<polygon fill="#757575" stroke="#757575" points="566.68,-807.49 577.19,-808.82 569.81,-801.22 566.68,-807.49"/>
</g>
<!-- page/Dashboard.tsx&#45;&gt;component/Widget.tsx -->
<g id="edge68" class="edge">
<title>page/Dashboard.tsx&#45;&gt;component/Widget.tsx</title>
<path fill="none" stroke="#757575" d="M345.41,-674.7C388.95,-636.55 526.59,-515.96 580.52,-468.71"/>
<polygon fill="#757575" stroke="#757575" points="582.65,-471.49 587.87,-462.27 578.04,-466.23 582.65,-471.49"/>
</g>
<!-- page/Dashboard.tsx&#45;&gt;store/WidgetProvider.tsx -->
<g id="edge70" class="edge">
<title>page/Dashboard.tsx&#45;&gt;store/WidgetProvider.tsx</title>
<path fill="none" stroke="#757575" d="M403.28,-688.18C560.12,-691.29 946.81,-695.16 1269,-667.45 1337.66,-661.55 1415.2,-649.21 1470.49,-639.43"/>
<polygon fill="#757575" stroke="#757575" points="1470.87,-642.91 1480.1,-637.71 1469.64,-636.02 1470.87,-642.91"/>
</g>
<!-- page/Dashboard.tsx&#45;&gt;component/Widget/WidgetPropsSettingModal.tsx -->
<g id="edge69" class="edge">
<title>page/Dashboard.tsx&#45;&gt;component/Widget/WidgetPropsSettingModal.tsx</title>
<path fill="none" stroke="#757575" d="M403.42,-676.15C435.63,-671.51 474.09,-665.96 508.59,-660.99"/>
<polygon fill="#757575" stroke="#757575" points="508.74,-664.5 518.14,-659.61 507.74,-657.58 508.74,-664.5"/>
</g>
</g>
</svg>
