<?xml version="1.0" encoding="UTF-8" standalone="no"?>
<!DOCTYPE svg PUBLIC "-//W3C//DTD SVG 1.1//EN"
 "http://www.w3.org/Graphics/SVG/1.1/DTD/svg11.dtd">
<!-- Generated by graphviz version 7.1.0 (20230121.1956)
 -->
<!-- Title: G Pages: 1 -->
<svg width="2419pt" height="904pt"
 viewBox="0.00 0.00 2419.20 904.20" xmlns="http://www.w3.org/2000/svg" xmlns:xlink="http://www.w3.org/1999/xlink">
<g id="graph0" class="graph" transform="scale(1 1) rotate(0) translate(21.6 882.6)">
<title>G</title>
<polygon fill="#111111" stroke="none" points="-21.6,21.6 -21.6,-882.6 2397.6,-882.6 2397.6,21.6 -21.6,21.6"/>
<!-- App.tsx -->
<g id="node1" class="node">
<title>App.tsx</title>
<path fill="none" stroke="#c6c5fe" d="M57.33,-498C57.33,-498 7.67,-498 7.67,-498 3.83,-498 0,-494.17 0,-490.33 0,-490.33 0,-482.67 0,-482.67 0,-478.83 3.83,-475 7.67,-475 7.67,-475 57.33,-475 57.33,-475 61.17,-475 65,-478.83 65,-482.67 65,-482.67 65,-490.33 65,-490.33 65,-494.17 61.17,-498 57.33,-498"/>
<text text-anchor="middle" x="32.5" y="-482.8" font-family="Arial" font-size="14.00" fill="#c6c5fe">App.tsx</text>
</g>
<!-- router/Router.tsx -->
<g id="node2" class="node">
<title>router/Router.tsx</title>
<path fill="none" stroke="#c6c5fe" d="M215.33,-498C215.33,-498 108.67,-498 108.67,-498 104.83,-498 101,-494.17 101,-490.33 101,-490.33 101,-482.67 101,-482.67 101,-478.83 104.83,-475 108.67,-475 108.67,-475 215.33,-475 215.33,-475 219.17,-475 223,-478.83 223,-482.67 223,-482.67 223,-490.33 223,-490.33 223,-494.17 219.17,-498 215.33,-498"/>
<text text-anchor="middle" x="162" y="-482.8" font-family="Arial" font-size="14.00" fill="#c6c5fe">router/Router.tsx</text>
</g>
<!-- App.tsx&#45;&gt;router/Router.tsx -->
<g id="edge1" class="edge">
<title>App.tsx&#45;&gt;router/Router.tsx</title>
<path fill="none" stroke="#757575" d="M65.34,-486.5C72.7,-486.5 80.81,-486.5 89.12,-486.5"/>
<polygon fill="#757575" stroke="#757575" points="88.99,-490 98.99,-486.5 88.99,-483 88.99,-490"/>
</g>
<!-- page/Dashboard.tsx -->
<g id="node36" class="node">
<title>page/Dashboard.tsx</title>
<path fill="none" stroke="#c6c5fe" d="M395.33,-498C395.33,-498 266.67,-498 266.67,-498 262.83,-498 259,-494.17 259,-490.33 259,-490.33 259,-482.67 259,-482.67 259,-478.83 262.83,-475 266.67,-475 266.67,-475 395.33,-475 395.33,-475 399.17,-475 403,-478.83 403,-482.67 403,-482.67 403,-490.33 403,-490.33 403,-494.17 399.17,-498 395.33,-498"/>
<text text-anchor="middle" x="331" y="-482.8" font-family="Arial" font-size="14.00" fill="#c6c5fe">page/Dashboard.tsx</text>
</g>
<!-- router/Router.tsx&#45;&gt;page/Dashboard.tsx -->
<g id="edge58" class="edge">
<title>router/Router.tsx&#45;&gt;page/Dashboard.tsx</title>
<path fill="none" stroke="#757575" d="M223.29,-486.5C231.1,-486.5 239.21,-486.5 247.3,-486.5"/>
<polygon fill="#757575" stroke="#757575" points="247.19,-490 257.19,-486.5 247.19,-483 247.19,-490"/>
</g>
<!-- api.ts -->
<g id="node3" class="node">
<title>api.ts</title>
<path fill="none" stroke="#c6c5fe" d="M1087.83,-456C1087.83,-456 1049.17,-456 1049.17,-456 1045.33,-456 1041.5,-452.17 1041.5,-448.33 1041.5,-448.33 1041.5,-440.67 1041.5,-440.67 1041.5,-436.83 1045.33,-433 1049.17,-433 1049.17,-433 1087.83,-433 1087.83,-433 1091.67,-433 1095.5,-436.83 1095.5,-440.67 1095.5,-440.67 1095.5,-448.33 1095.5,-448.33 1095.5,-452.17 1091.67,-456 1087.83,-456"/>
<text text-anchor="middle" x="1068.5" y="-440.8" font-family="Arial" font-size="14.00" fill="#c6c5fe">api.ts</text>
</g>
<!-- types/api.d.ts -->
<g id="node4" class="node">
<title>types/api.d.ts</title>
<path fill="none" stroke="#cfffac" d="M1617.83,-398C1617.83,-398 1532.17,-398 1532.17,-398 1528.33,-398 1524.5,-394.17 1524.5,-390.33 1524.5,-390.33 1524.5,-382.67 1524.5,-382.67 1524.5,-378.83 1528.33,-375 1532.17,-375 1532.17,-375 1617.83,-375 1617.83,-375 1621.67,-375 1625.5,-378.83 1625.5,-382.67 1625.5,-382.67 1625.5,-390.33 1625.5,-390.33 1625.5,-394.17 1621.67,-398 1617.83,-398"/>
<text text-anchor="middle" x="1575" y="-382.8" font-family="Arial" font-size="14.00" fill="#cfffac">types/api.d.ts</text>
</g>
<!-- api.ts&#45;&gt;types/api.d.ts -->
<g id="edge2" class="edge">
<title>api.ts&#45;&gt;types/api.d.ts</title>
<path fill="none" stroke="#757575" d="M1095.91,-441.46C1173.55,-432.54 1402.5,-406.22 1512.99,-393.51"/>
<polygon fill="#757575" stroke="#757575" points="1513.22,-397.01 1522.76,-392.39 1512.42,-390.06 1513.22,-397.01"/>
</g>
<!-- asset/image/pause.png -->
<g id="node5" class="node">
<title>asset/image/pause.png</title>
<path fill="none" stroke="#cfffac" d="M1142.83,-738C1142.83,-738 994.17,-738 994.17,-738 990.33,-738 986.5,-734.17 986.5,-730.33 986.5,-730.33 986.5,-722.67 986.5,-722.67 986.5,-718.83 990.33,-715 994.17,-715 994.17,-715 1142.83,-715 1142.83,-715 1146.67,-715 1150.5,-718.83 1150.5,-722.67 1150.5,-722.67 1150.5,-730.33 1150.5,-730.33 1150.5,-734.17 1146.67,-738 1142.83,-738"/>
<text text-anchor="middle" x="1068.5" y="-722.8" font-family="Arial" font-size="14.00" fill="#cfffac">asset/image/pause.png</text>
</g>
<!-- asset/image/play.png -->
<g id="node6" class="node">
<title>asset/image/play.png</title>
<path fill="none" stroke="#cfffac" d="M1136.33,-697C1136.33,-697 1000.67,-697 1000.67,-697 996.83,-697 993,-693.17 993,-689.33 993,-689.33 993,-681.67 993,-681.67 993,-677.83 996.83,-674 1000.67,-674 1000.67,-674 1136.33,-674 1136.33,-674 1140.17,-674 1144,-677.83 1144,-681.67 1144,-681.67 1144,-689.33 1144,-689.33 1144,-693.17 1140.17,-697 1136.33,-697"/>
<text text-anchor="middle" x="1068.5" y="-681.8" font-family="Arial" font-size="14.00" fill="#cfffac">asset/image/play.png</text>
</g>
<!-- common/chart.ts -->
<g id="node7" class="node">
<title>common/chart.ts</title>
<path fill="none" stroke="#c6c5fe" d="M2069.33,-141C2069.33,-141 1962.67,-141 1962.67,-141 1958.83,-141 1955,-137.17 1955,-133.33 1955,-133.33 1955,-125.67 1955,-125.67 1955,-121.83 1958.83,-118 1962.67,-118 1962.67,-118 2069.33,-118 2069.33,-118 2073.17,-118 2077,-121.83 2077,-125.67 2077,-125.67 2077,-133.33 2077,-133.33 2077,-137.17 2073.17,-141 2069.33,-141"/>
<text text-anchor="middle" x="2016" y="-125.8" font-family="Arial" font-size="14.00" fill="#c6c5fe">common/chart.ts</text>
</g>
<!-- types/chart.d.ts -->
<g id="node8" class="node">
<title>types/chart.d.ts</title>
<path fill="none" stroke="#cfffac" d="M2350.33,-101C2350.33,-101 2252.67,-101 2252.67,-101 2248.83,-101 2245,-97.17 2245,-93.33 2245,-93.33 2245,-85.67 2245,-85.67 2245,-81.83 2248.83,-78 2252.67,-78 2252.67,-78 2350.33,-78 2350.33,-78 2354.17,-78 2358,-81.83 2358,-85.67 2358,-85.67 2358,-93.33 2358,-93.33 2358,-97.17 2354.17,-101 2350.33,-101"/>
<text text-anchor="middle" x="2301.5" y="-85.8" font-family="Arial" font-size="14.00" fill="#cfffac">types/chart.d.ts</text>
</g>
<!-- common/chart.ts&#45;&gt;types/chart.d.ts -->
<g id="edge3" class="edge">
<title>common/chart.ts&#45;&gt;types/chart.d.ts</title>
<path fill="none" stroke="#757575" d="M2077.47,-120.97C2123.29,-114.5 2186.23,-105.62 2233.56,-98.94"/>
<polygon fill="#757575" stroke="#757575" points="2234.02,-102.41 2243.43,-97.55 2233.04,-95.48 2234.02,-102.41"/>
</g>
<!-- common/date.ts -->
<g id="node9" class="node">
<title>common/date.ts</title>
<path fill="none" stroke="#cfffac" d="M2067.83,-535C2067.83,-535 1964.17,-535 1964.17,-535 1960.33,-535 1956.5,-531.17 1956.5,-527.33 1956.5,-527.33 1956.5,-519.67 1956.5,-519.67 1956.5,-515.83 1960.33,-512 1964.17,-512 1964.17,-512 2067.83,-512 2067.83,-512 2071.67,-512 2075.5,-515.83 2075.5,-519.67 2075.5,-519.67 2075.5,-527.33 2075.5,-527.33 2075.5,-531.17 2071.67,-535 2067.83,-535"/>
<text text-anchor="middle" x="2016" y="-519.8" font-family="Arial" font-size="14.00" fill="#cfffac">common/date.ts</text>
</g>
<!-- common/widget.ts -->
<g id="node10" class="node">
<title>common/widget.ts</title>
<path fill="none" stroke="#cfffac" d="M1633.33,-300C1633.33,-300 1516.67,-300 1516.67,-300 1512.83,-300 1509,-296.17 1509,-292.33 1509,-292.33 1509,-284.67 1509,-284.67 1509,-280.83 1512.83,-277 1516.67,-277 1516.67,-277 1633.33,-277 1633.33,-277 1637.17,-277 1641,-280.83 1641,-284.67 1641,-284.67 1641,-292.33 1641,-292.33 1641,-296.17 1637.17,-300 1633.33,-300"/>
<text text-anchor="middle" x="1575" y="-284.8" font-family="Arial" font-size="14.00" fill="#cfffac">common/widget.ts</text>
</g>
<!-- component/Dashboard/CommonStyle.ts -->
<g id="node11" class="node">
<title>component/Dashboard/CommonStyle.ts</title>
<path fill="none" stroke="#cfffac" d="M1702.33,-779C1702.33,-779 1447.67,-779 1447.67,-779 1443.83,-779 1440,-775.17 1440,-771.33 1440,-771.33 1440,-763.67 1440,-763.67 1440,-759.83 1443.83,-756 1447.67,-756 1447.67,-756 1702.33,-756 1702.33,-756 1706.17,-756 1710,-759.83 1710,-763.67 1710,-763.67 1710,-771.33 1710,-771.33 1710,-775.17 1706.17,-779 1702.33,-779"/>
<text text-anchor="middle" x="1575" y="-763.8" font-family="Arial" font-size="14.00" fill="#cfffac">component/Dashboard/CommonStyle.ts</text>
</g>
<!-- component/Dashboard/DashboardHeader.tsx -->
<g id="node12" class="node">
<title>component/Dashboard/DashboardHeader.tsx</title>
<path fill="none" stroke="#c6c5fe" d="M759.33,-635C759.33,-635 471.67,-635 471.67,-635 467.83,-635 464,-631.17 464,-627.33 464,-627.33 464,-619.67 464,-619.67 464,-615.83 467.83,-612 471.67,-612 471.67,-612 759.33,-612 759.33,-612 763.17,-612 767,-615.83 767,-619.67 767,-619.67 767,-627.33 767,-627.33 767,-631.17 763.17,-635 759.33,-635"/>
<text text-anchor="middle" x="615.5" y="-619.8" font-family="Arial" font-size="14.00" fill="#c6c5fe">component/Dashboard/DashboardHeader.tsx</text>
</g>
<!-- component/Dashboard/DashboardHeader.tsx&#45;&gt;asset/image/pause.png -->
<g id="edge4" class="edge">
<title>component/Dashboard/DashboardHeader.tsx&#45;&gt;asset/image/pause.png</title>
<path fill="none" stroke="#757575" d="M640.19,-635.45C678.55,-654.17 757.12,-690.01 828,-706.5 875.67,-717.59 929.93,-722.72 974.74,-725.02"/>
<polygon fill="#757575" stroke="#757575" points="974.55,-728.51 984.7,-725.48 974.88,-721.52 974.55,-728.51"/>
</g>
<!-- component/Dashboard/DashboardHeader.tsx&#45;&gt;asset/image/play.png -->
<g id="edge5" class="edge">
<title>component/Dashboard/DashboardHeader.tsx&#45;&gt;asset/image/play.png</title>
<path fill="none" stroke="#757575" d="M668.37,-635.5C711.02,-644.95 773.13,-657.79 828,-665.5 878.56,-672.61 935.52,-677.49 981.19,-680.65"/>
<polygon fill="#757575" stroke="#757575" points="980.83,-684.14 991.04,-681.32 981.3,-677.15 980.83,-684.14"/>
</g>
<!-- component/Dashboard/DashboardHeader/CurrentTime.tsx -->
<g id="node13" class="node">
<title>component/Dashboard/DashboardHeader/CurrentTime.tsx</title>
<path fill="none" stroke="#cfffac" d="M1253.83,-615C1253.83,-615 883.17,-615 883.17,-615 879.33,-615 875.5,-611.17 875.5,-607.33 875.5,-607.33 875.5,-599.67 875.5,-599.67 875.5,-595.83 879.33,-592 883.17,-592 883.17,-592 1253.83,-592 1253.83,-592 1257.67,-592 1261.5,-595.83 1261.5,-599.67 1261.5,-599.67 1261.5,-607.33 1261.5,-607.33 1261.5,-611.17 1257.67,-615 1253.83,-615"/>
<text text-anchor="middle" x="1068.5" y="-599.8" font-family="Arial" font-size="14.00" fill="#cfffac">component/Dashboard/DashboardHeader/CurrentTime.tsx</text>
</g>
<!-- component/Dashboard/DashboardHeader.tsx&#45;&gt;component/Dashboard/DashboardHeader/CurrentTime.tsx -->
<g id="edge6" class="edge">
<title>component/Dashboard/DashboardHeader.tsx&#45;&gt;component/Dashboard/DashboardHeader/CurrentTime.tsx</title>
<path fill="none" stroke="#757575" d="M767.3,-616.81C798.23,-615.44 831.26,-613.98 863.7,-612.54"/>
<polygon fill="#757575" stroke="#757575" points="863.79,-616.04 873.63,-612.1 863.48,-609.04 863.79,-616.04"/>
</g>
<!-- component/Dashboard/DashboardHeader/DatePickerArea.tsx -->
<g id="node14" class="node">
<title>component/Dashboard/DashboardHeader/DatePickerArea.tsx</title>
<path fill="none" stroke="#c6c5fe" d="M1264.33,-656C1264.33,-656 872.67,-656 872.67,-656 868.83,-656 865,-652.17 865,-648.33 865,-648.33 865,-640.67 865,-640.67 865,-636.83 868.83,-633 872.67,-633 872.67,-633 1264.33,-633 1264.33,-633 1268.17,-633 1272,-636.83 1272,-640.67 1272,-640.67 1272,-648.33 1272,-648.33 1272,-652.17 1268.17,-656 1264.33,-656"/>
<text text-anchor="middle" x="1068.5" y="-640.8" font-family="Arial" font-size="14.00" fill="#c6c5fe">component/Dashboard/DashboardHeader/DatePickerArea.tsx</text>
</g>
<!-- component/Dashboard/DashboardHeader.tsx&#45;&gt;component/Dashboard/DashboardHeader/DatePickerArea.tsx -->
<g id="edge7" class="edge">
<title>component/Dashboard/DashboardHeader.tsx&#45;&gt;component/Dashboard/DashboardHeader/DatePickerArea.tsx</title>
<path fill="none" stroke="#757575" d="M767.3,-630.52C795.01,-631.81 824.4,-633.18 853.54,-634.54"/>
<polygon fill="#757575" stroke="#757575" points="853.03,-638.02 863.18,-634.99 853.36,-631.02 853.03,-638.02"/>
</g>
<!-- component/Dashboard/DashboardHeader/SelectRealTimeRangeArea.tsx -->
<g id="node15" class="node">
<title>component/Dashboard/DashboardHeader/SelectRealTimeRangeArea.tsx</title>
<path fill="none" stroke="#c6c5fe" d="M1301.33,-779C1301.33,-779 835.67,-779 835.67,-779 831.83,-779 828,-775.17 828,-771.33 828,-771.33 828,-763.67 828,-763.67 828,-759.83 831.83,-756 835.67,-756 835.67,-756 1301.33,-756 1301.33,-756 1305.17,-756 1309,-759.83 1309,-763.67 1309,-763.67 1309,-771.33 1309,-771.33 1309,-775.17 1305.17,-779 1301.33,-779"/>
<text text-anchor="middle" x="1068.5" y="-763.8" font-family="Arial" font-size="14.00" fill="#c6c5fe">component/Dashboard/DashboardHeader/SelectRealTimeRangeArea.tsx</text>
</g>
<!-- component/Dashboard/DashboardHeader.tsx&#45;&gt;component/Dashboard/DashboardHeader/SelectRealTimeRangeArea.tsx -->
<g id="edge8" class="edge">
<title>component/Dashboard/DashboardHeader.tsx&#45;&gt;component/Dashboard/DashboardHeader/SelectRealTimeRangeArea.tsx</title>
<path fill="none" stroke="#757575" d="M631.28,-635.4C664.24,-661.18 747.25,-721.92 828,-747.5 834.18,-749.46 840.49,-751.25 846.9,-752.89"/>
<polygon fill="#757575" stroke="#757575" points="845.74,-756.22 856.28,-755.16 847.39,-749.41 845.74,-756.22"/>
</g>
<!-- store/DashboardProvider.tsx -->
<g id="node16" class="node">
<title>store/DashboardProvider.tsx</title>
<path fill="none" stroke="#c6c5fe" d="M1665.83,-535C1665.83,-535 1484.17,-535 1484.17,-535 1480.33,-535 1476.5,-531.17 1476.5,-527.33 1476.5,-527.33 1476.5,-519.67 1476.5,-519.67 1476.5,-515.83 1480.33,-512 1484.17,-512 1484.17,-512 1665.83,-512 1665.83,-512 1669.67,-512 1673.5,-515.83 1673.5,-519.67 1673.5,-519.67 1673.5,-527.33 1673.5,-527.33 1673.5,-531.17 1669.67,-535 1665.83,-535"/>
<text text-anchor="middle" x="1575" y="-519.8" font-family="Arial" font-size="14.00" fill="#c6c5fe">store/DashboardProvider.tsx</text>
</g>
<!-- component/Dashboard/DashboardHeader.tsx&#45;&gt;store/DashboardProvider.tsx -->
<g id="edge9" class="edge">
<title>component/Dashboard/DashboardHeader.tsx&#45;&gt;store/DashboardProvider.tsx</title>
<path fill="none" stroke="#757575" d="M669.25,-611.56C711.87,-602.33 773.52,-589.91 828,-582.5 947.9,-566.19 1288.32,-542.38 1464.84,-530.61"/>
<polygon fill="#757575" stroke="#757575" points="1464.97,-534.11 1474.71,-529.96 1464.5,-527.13 1464.97,-534.11"/>
</g>
<!-- store/WidgetProvider.tsx -->
<g id="node17" class="node">
<title>store/WidgetProvider.tsx</title>
<path fill="none" stroke="#c6c5fe" d="M1147.33,-497C1147.33,-497 989.67,-497 989.67,-497 985.83,-497 982,-493.17 982,-489.33 982,-489.33 982,-481.67 982,-481.67 982,-477.83 985.83,-474 989.67,-474 989.67,-474 1147.33,-474 1147.33,-474 1151.17,-474 1155,-477.83 1155,-481.67 1155,-481.67 1155,-489.33 1155,-489.33 1155,-493.17 1151.17,-497 1147.33,-497"/>
<text text-anchor="middle" x="1068.5" y="-481.8" font-family="Arial" font-size="14.00" fill="#c6c5fe">store/WidgetProvider.tsx</text>
</g>
<!-- component/Dashboard/DashboardHeader.tsx&#45;&gt;store/WidgetProvider.tsx -->
<g id="edge10" class="edge">
<title>component/Dashboard/DashboardHeader.tsx&#45;&gt;store/WidgetProvider.tsx</title>
<path fill="none" stroke="#757575" d="M648.14,-611.59C689.28,-596.3 763.5,-569.37 828,-549.5 888.67,-530.81 958.94,-512.41 1007.61,-500.17"/>
<polygon fill="#757575" stroke="#757575" points="1008.25,-503.62 1017.1,-497.79 1006.55,-496.83 1008.25,-503.62"/>
</g>
<!-- component/Dashboard/DashboardHeader/DatePickerArea.tsx&#45;&gt;common/date.ts -->
<g id="edge11" class="edge">
<title>component/Dashboard/DashboardHeader/DatePickerArea.tsx&#45;&gt;common/date.ts</title>
<path fill="none" stroke="#757575" d="M1272.26,-637.99C1285,-634.16 1297.36,-629.39 1309,-623.5 1330.63,-612.54 1323.35,-593.43 1345,-582.5 1436.59,-536.28 1702.82,-552.7 1805,-543.5 1851.58,-539.31 1903.94,-534.32 1944.73,-530.38"/>
<polygon fill="#757575" stroke="#757575" points="1945.06,-533.86 1954.67,-529.41 1944.38,-526.89 1945.06,-533.86"/>
</g>
<!-- component/Dashboard/DashboardHeader/DatePickerArea.tsx&#45;&gt;component/Dashboard/CommonStyle.ts -->
<g id="edge12" class="edge">
<title>component/Dashboard/DashboardHeader/DatePickerArea.tsx&#45;&gt;component/Dashboard/CommonStyle.ts</title>
<path fill="none" stroke="#757575" d="M1143.76,-632.5C1194.82,-628.37 1261.69,-631.56 1309,-665.5 1341.34,-688.7 1312.65,-724.31 1345,-747.5 1384.84,-776.07 1439.17,-781.83 1484.92,-780.08"/>
<polygon fill="#757575" stroke="#757575" points="1485.03,-783.58 1494.84,-779.57 1484.67,-776.59 1485.03,-783.58"/>
</g>
<!-- component/Dashboard/DashboardHeader/DatePickerArea.tsx&#45;&gt;store/DashboardProvider.tsx -->
<g id="edge17" class="edge">
<title>component/Dashboard/DashboardHeader/DatePickerArea.tsx&#45;&gt;store/DashboardProvider.tsx</title>
<path fill="none" stroke="#757575" d="M1151.97,-656.49C1201.59,-659.32 1263.7,-654.67 1309,-623.5 1339.13,-602.77 1315.14,-570.62 1345,-549.5 1379.27,-525.27 1423.9,-516.53 1464.64,-514.65"/>
<polygon fill="#757575" stroke="#757575" points="1464.62,-518.16 1474.51,-514.35 1464.41,-511.16 1464.62,-518.16"/>
</g>
<!-- component/Dashboard/DashboardHeader/DateBox.tsx -->
<g id="node18" class="node">
<title>component/Dashboard/DashboardHeader/DateBox.tsx</title>
<path fill="none" stroke="#cfffac" d="M1748.33,-656C1748.33,-656 1401.67,-656 1401.67,-656 1397.83,-656 1394,-652.17 1394,-648.33 1394,-648.33 1394,-640.67 1394,-640.67 1394,-636.83 1397.83,-633 1401.67,-633 1401.67,-633 1748.33,-633 1748.33,-633 1752.17,-633 1756,-636.83 1756,-640.67 1756,-640.67 1756,-648.33 1756,-648.33 1756,-652.17 1752.17,-656 1748.33,-656"/>
<text text-anchor="middle" x="1575" y="-640.8" font-family="Arial" font-size="14.00" fill="#cfffac">component/Dashboard/DashboardHeader/DateBox.tsx</text>
</g>
<!-- component/Dashboard/DashboardHeader/DatePickerArea.tsx&#45;&gt;component/Dashboard/DashboardHeader/DateBox.tsx -->
<g id="edge13" class="edge">
<title>component/Dashboard/DashboardHeader/DatePickerArea.tsx&#45;&gt;component/Dashboard/DashboardHeader/DateBox.tsx</title>
<path fill="none" stroke="#757575" d="M1272.16,-644.5C1308.53,-644.5 1346.33,-644.5 1382.38,-644.5"/>
<polygon fill="#757575" stroke="#757575" points="1382,-648 1392,-644.5 1382,-641 1382,-648"/>
</g>
<!-- component/common/DatePicker.tsx -->
<g id="node19" class="node">
<title>component/common/DatePicker.tsx</title>
<path fill="none" stroke="#c6c5fe" d="M1688.33,-697C1688.33,-697 1461.67,-697 1461.67,-697 1457.83,-697 1454,-693.17 1454,-689.33 1454,-689.33 1454,-681.67 1454,-681.67 1454,-677.83 1457.83,-674 1461.67,-674 1461.67,-674 1688.33,-674 1688.33,-674 1692.17,-674 1696,-677.83 1696,-681.67 1696,-681.67 1696,-689.33 1696,-689.33 1696,-693.17 1692.17,-697 1688.33,-697"/>
<text text-anchor="middle" x="1575" y="-681.8" font-family="Arial" font-size="14.00" fill="#c6c5fe">component/common/DatePicker.tsx</text>
</g>
<!-- component/Dashboard/DashboardHeader/DatePickerArea.tsx&#45;&gt;component/common/DatePicker.tsx -->
<g id="edge14" class="edge">
<title>component/Dashboard/DashboardHeader/DatePickerArea.tsx&#45;&gt;component/common/DatePicker.tsx</title>
<path fill="none" stroke="#757575" d="M1217.12,-656.5C1288.46,-662.29 1373.38,-669.2 1442.48,-674.81"/>
<polygon fill="#757575" stroke="#757575" points="1442.11,-678.29 1452.36,-675.61 1442.67,-671.32 1442.11,-678.29"/>
</g>
<!-- hook/useBoolean.tsx -->
<g id="node20" class="node">
<title>hook/useBoolean.tsx</title>
<path fill="none" stroke="#cfffac" d="M1641.83,-615C1641.83,-615 1508.17,-615 1508.17,-615 1504.33,-615 1500.5,-611.17 1500.5,-607.33 1500.5,-607.33 1500.5,-599.67 1500.5,-599.67 1500.5,-595.83 1504.33,-592 1508.17,-592 1508.17,-592 1641.83,-592 1641.83,-592 1645.67,-592 1649.5,-595.83 1649.5,-599.67 1649.5,-599.67 1649.5,-607.33 1649.5,-607.33 1649.5,-611.17 1645.67,-615 1641.83,-615"/>
<text text-anchor="middle" x="1575" y="-599.8" font-family="Arial" font-size="14.00" fill="#cfffac">hook/useBoolean.tsx</text>
</g>
<!-- component/Dashboard/DashboardHeader/DatePickerArea.tsx&#45;&gt;hook/useBoolean.tsx -->
<g id="edge15" class="edge">
<title>component/Dashboard/DashboardHeader/DatePickerArea.tsx&#45;&gt;hook/useBoolean.tsx</title>
<path fill="none" stroke="#757575" d="M1217.12,-632.5C1305.63,-625.31 1415.03,-616.42 1489.2,-610.39"/>
<polygon fill="#757575" stroke="#757575" points="1489.15,-613.91 1498.83,-609.61 1488.58,-606.93 1489.15,-613.91"/>
</g>
<!-- hook/useOutsideClick.tsx -->
<g id="node21" class="node">
<title>hook/useOutsideClick.tsx</title>
<path fill="none" stroke="#cfffac" d="M1655.33,-738C1655.33,-738 1494.67,-738 1494.67,-738 1490.83,-738 1487,-734.17 1487,-730.33 1487,-730.33 1487,-722.67 1487,-722.67 1487,-718.83 1490.83,-715 1494.67,-715 1494.67,-715 1655.33,-715 1655.33,-715 1659.17,-715 1663,-718.83 1663,-722.67 1663,-722.67 1663,-730.33 1663,-730.33 1663,-734.17 1659.17,-738 1655.33,-738"/>
<text text-anchor="middle" x="1575" y="-722.8" font-family="Arial" font-size="14.00" fill="#cfffac">hook/useOutsideClick.tsx</text>
</g>
<!-- component/Dashboard/DashboardHeader/DatePickerArea.tsx&#45;&gt;hook/useOutsideClick.tsx -->
<g id="edge16" class="edge">
<title>component/Dashboard/DashboardHeader/DatePickerArea.tsx&#45;&gt;hook/useOutsideClick.tsx</title>
<path fill="none" stroke="#757575" d="M1272.26,-651.01C1285,-654.84 1297.36,-659.61 1309,-665.5 1330.63,-676.46 1323.37,-695.55 1345,-706.5 1384.63,-726.56 1433.08,-732.96 1475.2,-733.78"/>
<polygon fill="#757575" stroke="#757575" points="1475.07,-737.28 1485.1,-733.86 1475.12,-730.28 1475.07,-737.28"/>
</g>
<!-- types/widget.d.ts -->
<g id="node22" class="node">
<title>types/widget.d.ts</title>
<path fill="none" stroke="#cfffac" d="M1628.83,-476C1628.83,-476 1521.17,-476 1521.17,-476 1517.33,-476 1513.5,-472.17 1513.5,-468.33 1513.5,-468.33 1513.5,-460.67 1513.5,-460.67 1513.5,-456.83 1517.33,-453 1521.17,-453 1521.17,-453 1628.83,-453 1628.83,-453 1632.67,-453 1636.5,-456.83 1636.5,-460.67 1636.5,-460.67 1636.5,-468.33 1636.5,-468.33 1636.5,-472.17 1632.67,-476 1628.83,-476"/>
<text text-anchor="middle" x="1575" y="-460.8" font-family="Arial" font-size="14.00" fill="#cfffac">types/widget.d.ts</text>
</g>
<!-- component/Dashboard/DashboardHeader/DatePickerArea.tsx&#45;&gt;types/widget.d.ts -->
<g id="edge18" class="edge">
<title>component/Dashboard/DashboardHeader/DatePickerArea.tsx&#45;&gt;types/widget.d.ts</title>
<path fill="none" stroke="#757575" d="M1129.29,-656.48C1182.4,-663.49 1259.12,-664.21 1309,-623.5 1352.47,-588.02 1302.93,-539.62 1345,-502.5 1387.33,-465.15 1451.91,-457.29 1501.71,-457.84"/>
<polygon fill="#757575" stroke="#757575" points="1501.46,-461.34 1511.54,-458.08 1501.63,-454.34 1501.46,-461.34"/>
</g>
<!-- component/Dashboard/DashboardHeader/SelectRealTimeRangeArea.tsx&#45;&gt;component/Dashboard/CommonStyle.ts -->
<g id="edge19" class="edge">
<title>component/Dashboard/DashboardHeader/SelectRealTimeRangeArea.tsx&#45;&gt;component/Dashboard/CommonStyle.ts</title>
<path fill="none" stroke="#757575" d="M1309.19,-767.5C1349.86,-767.5 1390.96,-767.5 1428.26,-767.5"/>
<polygon fill="#757575" stroke="#757575" points="1428.19,-771 1438.19,-767.5 1428.19,-764 1428.19,-771"/>
</g>
<!-- component/Dashboard/DashboardHeader/SelectRealTimeRangeArea.tsx&#45;&gt;store/DashboardProvider.tsx -->
<g id="edge24" class="edge">
<title>component/Dashboard/DashboardHeader/SelectRealTimeRangeArea.tsx&#45;&gt;store/DashboardProvider.tsx</title>
<path fill="none" stroke="#757575" d="M1122.6,-779.49C1176.27,-788.25 1258.32,-791.91 1309,-747.5 1365.45,-698.03 1292.93,-636.56 1345,-582.5 1376.05,-550.27 1422.18,-534.79 1464.91,-527.64"/>
<polygon fill="#757575" stroke="#757575" points="1465.42,-531.1 1474.78,-526.14 1464.37,-524.18 1465.42,-531.1"/>
</g>
<!-- component/Dashboard/DashboardHeader/SelectRealTimeRangeArea.tsx&#45;&gt;hook/useBoolean.tsx -->
<g id="edge22" class="edge">
<title>component/Dashboard/DashboardHeader/SelectRealTimeRangeArea.tsx&#45;&gt;hook/useBoolean.tsx</title>
<path fill="none" stroke="#757575" d="M1126.76,-779.49C1179.96,-787.11 1258.38,-788.92 1309,-747.5 1353.41,-711.16 1300.66,-659.93 1345,-623.5 1388.2,-588.01 1452.69,-585.38 1502.24,-590.26"/>
<polygon fill="#757575" stroke="#757575" points="1501.7,-593.72 1512.03,-591.36 1502.48,-586.77 1501.7,-593.72"/>
</g>
<!-- component/Dashboard/DashboardHeader/SelectRealTimeRangeArea.tsx&#45;&gt;hook/useOutsideClick.tsx -->
<g id="edge23" class="edge">
<title>component/Dashboard/DashboardHeader/SelectRealTimeRangeArea.tsx&#45;&gt;hook/useOutsideClick.tsx</title>
<path fill="none" stroke="#757575" d="M1217.12,-755.5C1300.37,-748.74 1402.11,-740.47 1475.63,-734.49"/>
<polygon fill="#757575" stroke="#757575" points="1475.53,-738.01 1485.21,-733.72 1474.96,-731.04 1475.53,-738.01"/>
</g>
<!-- component/Dashboard/DashboardHeader/RealTime.tsx -->
<g id="node23" class="node">
<title>component/Dashboard/DashboardHeader/RealTime.tsx</title>
<path fill="none" stroke="#cfffac" d="M1751.33,-820C1751.33,-820 1398.67,-820 1398.67,-820 1394.83,-820 1391,-816.17 1391,-812.33 1391,-812.33 1391,-804.67 1391,-804.67 1391,-800.83 1394.83,-797 1398.67,-797 1398.67,-797 1751.33,-797 1751.33,-797 1755.17,-797 1759,-800.83 1759,-804.67 1759,-804.67 1759,-812.33 1759,-812.33 1759,-816.17 1755.17,-820 1751.33,-820"/>
<text text-anchor="middle" x="1575" y="-804.8" font-family="Arial" font-size="14.00" fill="#cfffac">component/Dashboard/DashboardHeader/RealTime.tsx</text>
</g>
<!-- component/Dashboard/DashboardHeader/SelectRealTimeRangeArea.tsx&#45;&gt;component/Dashboard/DashboardHeader/RealTime.tsx -->
<g id="edge20" class="edge">
<title>component/Dashboard/DashboardHeader/SelectRealTimeRangeArea.tsx&#45;&gt;component/Dashboard/DashboardHeader/RealTime.tsx</title>
<path fill="none" stroke="#757575" d="M1217.12,-779.5C1279.39,-784.56 1352,-790.46 1415.41,-795.61"/>
<polygon fill="#757575" stroke="#757575" points="1414.97,-799.09 1425.22,-796.41 1415.54,-792.11 1414.97,-799.09"/>
</g>
<!-- component/Dashboard/DashboardHeader/SelectRealTimeListItem.tsx -->
<g id="node24" class="node">
<title>component/Dashboard/DashboardHeader/SelectRealTimeListItem.tsx</title>
<path fill="none" stroke="#cfffac" d="M1797.33,-861C1797.33,-861 1352.67,-861 1352.67,-861 1348.83,-861 1345,-857.17 1345,-853.33 1345,-853.33 1345,-845.67 1345,-845.67 1345,-841.83 1348.83,-838 1352.67,-838 1352.67,-838 1797.33,-838 1797.33,-838 1801.17,-838 1805,-841.83 1805,-845.67 1805,-845.67 1805,-853.33 1805,-853.33 1805,-857.17 1801.17,-861 1797.33,-861"/>
<text text-anchor="middle" x="1575" y="-845.8" font-family="Arial" font-size="14.00" fill="#cfffac">component/Dashboard/DashboardHeader/SelectRealTimeListItem.tsx</text>
</g>
<!-- component/Dashboard/DashboardHeader/SelectRealTimeRangeArea.tsx&#45;&gt;component/Dashboard/DashboardHeader/SelectRealTimeListItem.tsx -->
<g id="edge21" class="edge">
<title>component/Dashboard/DashboardHeader/SelectRealTimeRangeArea.tsx&#45;&gt;component/Dashboard/DashboardHeader/SelectRealTimeListItem.tsx</title>
<path fill="none" stroke="#757575" d="M1114,-779.45C1168.18,-793.56 1262.65,-816.7 1345,-829.5 1361.34,-832.04 1378.38,-834.28 1395.48,-836.25"/>
<polygon fill="#757575" stroke="#757575" points="1394.88,-839.71 1405.21,-837.34 1395.66,-832.75 1394.88,-839.71"/>
</g>
<!-- store/DashboardProvider.tsx&#45;&gt;common/date.ts -->
<g id="edge59" class="edge">
<title>store/DashboardProvider.tsx&#45;&gt;common/date.ts</title>
<path fill="none" stroke="#757575" d="M1673.97,-523.5C1756.13,-523.5 1871.45,-523.5 1944.69,-523.5"/>
<polygon fill="#757575" stroke="#757575" points="1944.56,-527 1954.56,-523.5 1944.56,-520 1944.56,-527"/>
</g>
<!-- store/WidgetProvider.tsx&#45;&gt;hook/useBoolean.tsx -->
<g id="edge60" class="edge">
<title>store/WidgetProvider.tsx&#45;&gt;hook/useBoolean.tsx</title>
<path fill="none" stroke="#757575" d="M1120.65,-497.46C1213.85,-519.26 1410.99,-565.37 1511.79,-588.95"/>
<polygon fill="#757575" stroke="#757575" points="1510.71,-592.29 1521.24,-591.16 1512.3,-585.47 1510.71,-592.29"/>
</g>
<!-- store/WidgetProvider.tsx&#45;&gt;types/widget.d.ts -->
<g id="edge61" class="edge">
<title>store/WidgetProvider.tsx&#45;&gt;types/widget.d.ts</title>
<path fill="none" stroke="#757575" d="M1155.37,-481.93C1252.88,-477.87 1410.27,-471.32 1501.74,-467.51"/>
<polygon fill="#757575" stroke="#757575" points="1501.75,-471.01 1511.6,-467.1 1501.46,-464.02 1501.75,-471.01"/>
</g>
<!-- component/common/DatePicker/ListPicker.tsx -->
<g id="node34" class="node">
<title>component/common/DatePicker/ListPicker.tsx</title>
<path fill="none" stroke="#c6c5fe" d="M2162.33,-717C2162.33,-717 1869.67,-717 1869.67,-717 1865.83,-717 1862,-713.17 1862,-709.33 1862,-709.33 1862,-701.67 1862,-701.67 1862,-697.83 1865.83,-694 1869.67,-694 1869.67,-694 2162.33,-694 2162.33,-694 2166.17,-694 2170,-697.83 2170,-701.67 2170,-701.67 2170,-709.33 2170,-709.33 2170,-713.17 2166.17,-717 2162.33,-717"/>
<text text-anchor="middle" x="2016" y="-701.8" font-family="Arial" font-size="14.00" fill="#c6c5fe">component/common/DatePicker/ListPicker.tsx</text>
</g>
<!-- component/common/DatePicker.tsx&#45;&gt;component/common/DatePicker/ListPicker.tsx -->
<g id="edge50" class="edge">
<title>component/common/DatePicker.tsx&#45;&gt;component/common/DatePicker/ListPicker.tsx</title>
<path fill="none" stroke="#757575" d="M1696.25,-690.98C1743.78,-693.14 1799.19,-695.67 1850.34,-698"/>
<polygon fill="#757575" stroke="#757575" points="1849.87,-701.48 1860.02,-698.44 1850.19,-694.49 1849.87,-701.48"/>
</g>
<!-- types/datePicker.d.ts -->
<g id="node35" class="node">
<title>types/datePicker.d.ts</title>
<path fill="none" stroke="#cfffac" d="M2368.33,-697C2368.33,-697 2234.67,-697 2234.67,-697 2230.83,-697 2227,-693.17 2227,-689.33 2227,-689.33 2227,-681.67 2227,-681.67 2227,-677.83 2230.83,-674 2234.67,-674 2234.67,-674 2368.33,-674 2368.33,-674 2372.17,-674 2376,-677.83 2376,-681.67 2376,-681.67 2376,-689.33 2376,-689.33 2376,-693.17 2372.17,-697 2368.33,-697"/>
<text text-anchor="middle" x="2301.5" y="-681.8" font-family="Arial" font-size="14.00" fill="#cfffac">types/datePicker.d.ts</text>
</g>
<!-- component/common/DatePicker.tsx&#45;&gt;types/datePicker.d.ts -->
<g id="edge51" class="edge">
<title>component/common/DatePicker.tsx&#45;&gt;types/datePicker.d.ts</title>
<path fill="none" stroke="#757575" d="M1696.45,-685.5C1843.11,-685.5 2087.1,-685.5 2215.5,-685.5"/>
<polygon fill="#757575" stroke="#757575" points="2215.29,-689 2225.29,-685.5 2215.29,-682 2215.29,-689"/>
</g>
<!-- component/Dashboard/WidgetPropsSettingModal.tsx -->
<g id="node25" class="node">
<title>component/Dashboard/WidgetPropsSettingModal.tsx</title>
<path fill="none" stroke="#c6c5fe" d="M784.33,-458C784.33,-458 446.67,-458 446.67,-458 442.83,-458 439,-454.17 439,-450.33 439,-450.33 439,-442.67 439,-442.67 439,-438.83 442.83,-435 446.67,-435 446.67,-435 784.33,-435 784.33,-435 788.17,-435 792,-438.83 792,-442.67 792,-442.67 792,-450.33 792,-450.33 792,-454.17 788.17,-458 784.33,-458"/>
<text text-anchor="middle" x="615.5" y="-442.8" font-family="Arial" font-size="14.00" fill="#c6c5fe">component/Dashboard/WidgetPropsSettingModal.tsx</text>
</g>
<!-- component/Dashboard/WidgetPropsSettingModal.tsx&#45;&gt;api.ts -->
<g id="edge25" class="edge">
<title>component/Dashboard/WidgetPropsSettingModal.tsx&#45;&gt;api.ts</title>
<path fill="none" stroke="#757575" d="M792.48,-445.72C879.86,-445.33 977.67,-444.9 1029.86,-444.67"/>
<polygon fill="#757575" stroke="#757575" points="1029.7,-448.17 1039.68,-444.62 1029.67,-441.17 1029.7,-448.17"/>
</g>
<!-- component/Dashboard/WidgetPropsSettingModal.tsx&#45;&gt;store/WidgetProvider.tsx -->
<g id="edge26" class="edge">
<title>component/Dashboard/WidgetPropsSettingModal.tsx&#45;&gt;store/WidgetProvider.tsx</title>
<path fill="none" stroke="#757575" d="M755.19,-458.49C824.91,-464.52 907.7,-471.68 970.52,-477.11"/>
<polygon fill="#757575" stroke="#757575" points="969.84,-480.57 980.1,-477.94 970.44,-473.59 969.84,-480.57"/>
</g>
<!-- component/Widget.tsx -->
<g id="node26" class="node">
<title>component/Widget.tsx</title>
<path fill="none" stroke="#c6c5fe" d="M687.33,-358C687.33,-358 543.67,-358 543.67,-358 539.83,-358 536,-354.17 536,-350.33 536,-350.33 536,-342.67 536,-342.67 536,-338.83 539.83,-335 543.67,-335 543.67,-335 687.33,-335 687.33,-335 691.17,-335 695,-338.83 695,-342.67 695,-342.67 695,-350.33 695,-350.33 695,-354.17 691.17,-358 687.33,-358"/>
<text text-anchor="middle" x="615.5" y="-342.8" font-family="Arial" font-size="14.00" fill="#c6c5fe">component/Widget.tsx</text>
</g>
<!-- component/Widget.tsx&#45;&gt;api.ts -->
<g id="edge27" class="edge">
<title>component/Widget.tsx&#45;&gt;api.ts</title>
<path fill="none" stroke="#757575" d="M645,-358.46C685.1,-374.75 760.78,-403.6 828,-418.5 898.39,-434.1 982.59,-440.48 1030.07,-442.98"/>
<polygon fill="#757575" stroke="#757575" points="1029.65,-446.47 1039.81,-443.47 1030,-439.48 1029.65,-446.47"/>
</g>
<!-- component/Widget.tsx&#45;&gt;types/api.d.ts -->
<g id="edge34" class="edge">
<title>component/Widget.tsx&#45;&gt;types/api.d.ts</title>
<path fill="none" stroke="#757575" d="M664,-334.59C706.62,-324.55 771.04,-310.97 828,-305.5 1040.8,-285.06 1097.57,-273.91 1309,-305.5 1391.45,-317.82 1483.7,-350.57 1534.7,-370.45"/>
<polygon fill="#757575" stroke="#757575" points="1533.25,-373.64 1543.84,-374.05 1535.82,-367.13 1533.25,-373.64"/>
</g>
<!-- component/Widget.tsx&#45;&gt;common/date.ts -->
<g id="edge28" class="edge">
<title>component/Widget.tsx&#45;&gt;common/date.ts</title>
<path fill="none" stroke="#757575" d="M637.23,-334.6C674.14,-314.17 754.29,-273.22 828,-258.5 1040.91,-215.97 1609.59,-172.87 1805,-267.5 1909.84,-318.27 1980.28,-449.06 2005.09,-501.38"/>
<polygon fill="#757575" stroke="#757575" points="2001.8,-502.59 2009.18,-510.2 2008.15,-499.65 2001.8,-502.59"/>
</g>
<!-- component/Widget.tsx&#45;&gt;common/widget.ts -->
<g id="edge29" class="edge">
<title>component/Widget.tsx&#45;&gt;common/widget.ts</title>
<path fill="none" stroke="#757575" d="M645.99,-334.55C686.29,-318.93 761.21,-292.38 828,-282.5 1070.38,-246.63 1361.93,-267.05 1497.6,-280.16"/>
<polygon fill="#757575" stroke="#757575" points="1496.87,-283.6 1507.16,-281.09 1497.55,-276.63 1496.87,-283.6"/>
</g>
<!-- component/Widget.tsx&#45;&gt;store/DashboardProvider.tsx -->
<g id="edge32" class="edge">
<title>component/Widget.tsx&#45;&gt;store/DashboardProvider.tsx</title>
<path fill="none" stroke="#757575" d="M672.36,-358.43C714.85,-367.11 774.88,-378.52 828,-385.5 934.31,-399.46 1218.06,-366.71 1309,-423.5 1335.7,-440.17 1319.07,-466.64 1345,-484.5 1379.68,-508.39 1424.18,-519.28 1464.71,-523.8"/>
<polygon fill="#757575" stroke="#757575" points="1464.22,-527.27 1474.52,-524.76 1464.91,-520.3 1464.22,-527.27"/>
</g>
<!-- component/Widget.tsx&#45;&gt;store/WidgetProvider.tsx -->
<g id="edge33" class="edge">
<title>component/Widget.tsx&#45;&gt;store/WidgetProvider.tsx</title>
<path fill="none" stroke="#757575" d="M654.08,-358.44C691.27,-371.35 748.75,-394.35 792,-425.5 811.14,-439.29 806.83,-454.1 828,-464.5 871.61,-485.91 925.07,-492.19 970.41,-492.68"/>
<polygon fill="#757575" stroke="#757575" points="970.23,-496.18 980.23,-492.68 970.24,-489.18 970.23,-496.18"/>
</g>
<!-- component/Widget.tsx&#45;&gt;types/widget.d.ts -->
<g id="edge35" class="edge">
<title>component/Widget.tsx&#45;&gt;types/widget.d.ts</title>
<path fill="none" stroke="#757575" d="M695.39,-348.01C851.52,-351.58 1194.71,-362.43 1309,-390.5 1326,-394.68 1328.45,-400.77 1345,-406.5 1397.45,-424.65 1458.45,-439.82 1504.3,-450.09"/>
<polygon fill="#757575" stroke="#757575" points="1503.32,-453.46 1513.84,-452.2 1504.83,-446.62 1503.32,-453.46"/>
</g>
<!-- component/Widget/WidgetChart.tsx -->
<g id="node27" class="node">
<title>component/Widget/WidgetChart.tsx</title>
<path fill="none" stroke="#c6c5fe" d="M1181.83,-162C1181.83,-162 955.17,-162 955.17,-162 951.33,-162 947.5,-158.17 947.5,-154.33 947.5,-154.33 947.5,-146.67 947.5,-146.67 947.5,-142.83 951.33,-139 955.17,-139 955.17,-139 1181.83,-139 1181.83,-139 1185.67,-139 1189.5,-142.83 1189.5,-146.67 1189.5,-146.67 1189.5,-154.33 1189.5,-154.33 1189.5,-158.17 1185.67,-162 1181.83,-162"/>
<text text-anchor="middle" x="1068.5" y="-146.8" font-family="Arial" font-size="14.00" fill="#c6c5fe">component/Widget/WidgetChart.tsx</text>
</g>
<!-- component/Widget.tsx&#45;&gt;component/Widget/WidgetChart.tsx -->
<g id="edge30" class="edge">
<title>component/Widget.tsx&#45;&gt;component/Widget/WidgetChart.tsx</title>
<path fill="none" stroke="#757575" d="M628.68,-334.91C659.38,-306.39 743.54,-232.54 828,-196.5 863.36,-181.41 903.76,-171.24 941.18,-164.4"/>
<polygon fill="#757575" stroke="#757575" points="941.43,-167.91 950.67,-162.73 940.22,-161.01 941.43,-167.91"/>
</g>
<!-- component/Widget/WidgetModal.tsx -->
<g id="node28" class="node">
<title>component/Widget/WidgetModal.tsx</title>
<path fill="none" stroke="#c6c5fe" d="M1184.33,-338C1184.33,-338 952.67,-338 952.67,-338 948.83,-338 945,-334.17 945,-330.33 945,-330.33 945,-322.67 945,-322.67 945,-318.83 948.83,-315 952.67,-315 952.67,-315 1184.33,-315 1184.33,-315 1188.17,-315 1192,-318.83 1192,-322.67 1192,-322.67 1192,-330.33 1192,-330.33 1192,-334.17 1188.17,-338 1184.33,-338"/>
<text text-anchor="middle" x="1068.5" y="-322.8" font-family="Arial" font-size="14.00" fill="#c6c5fe">component/Widget/WidgetModal.tsx</text>
</g>
<!-- component/Widget.tsx&#45;&gt;component/Widget/WidgetModal.tsx -->
<g id="edge31" class="edge">
<title>component/Widget.tsx&#45;&gt;component/Widget/WidgetModal.tsx</title>
<path fill="none" stroke="#757575" d="M695.32,-343C760.9,-340.1 855.72,-335.89 933.24,-332.45"/>
<polygon fill="#757575" stroke="#757575" points="933.19,-335.96 943.03,-332.02 932.88,-328.97 933.19,-335.96"/>
</g>
<!-- component/chart/BarChart.tsx -->
<g id="node29" class="node">
<title>component/chart/BarChart.tsx</title>
<path fill="none" stroke="#c6c5fe" d="M1668.83,-182C1668.83,-182 1481.17,-182 1481.17,-182 1477.33,-182 1473.5,-178.17 1473.5,-174.33 1473.5,-174.33 1473.5,-166.67 1473.5,-166.67 1473.5,-162.83 1477.33,-159 1481.17,-159 1481.17,-159 1668.83,-159 1668.83,-159 1672.67,-159 1676.5,-162.83 1676.5,-166.67 1676.5,-166.67 1676.5,-174.33 1676.5,-174.33 1676.5,-178.17 1672.67,-182 1668.83,-182"/>
<text text-anchor="middle" x="1575" y="-166.8" font-family="Arial" font-size="14.00" fill="#c6c5fe">component/chart/BarChart.tsx</text>
</g>
<!-- component/Widget/WidgetChart.tsx&#45;&gt;component/chart/BarChart.tsx -->
<g id="edge36" class="edge">
<title>component/Widget/WidgetChart.tsx&#45;&gt;component/chart/BarChart.tsx</title>
<path fill="none" stroke="#757575" d="M1189.7,-155.27C1272.37,-158.54 1381.4,-162.86 1462.2,-166.07"/>
<polygon fill="#757575" stroke="#757575" points="1461.76,-169.55 1471.89,-166.45 1462.04,-162.56 1461.76,-169.55"/>
</g>
<!-- component/chart/InformaticsChart.tsx -->
<g id="node30" class="node">
<title>component/chart/InformaticsChart.tsx</title>
<path fill="none" stroke="#c6c5fe" d="M1693.33,-63C1693.33,-63 1456.67,-63 1456.67,-63 1452.83,-63 1449,-59.17 1449,-55.33 1449,-55.33 1449,-47.67 1449,-47.67 1449,-43.83 1452.83,-40 1456.67,-40 1456.67,-40 1693.33,-40 1693.33,-40 1697.17,-40 1701,-43.83 1701,-47.67 1701,-47.67 1701,-55.33 1701,-55.33 1701,-59.17 1697.17,-63 1693.33,-63"/>
<text text-anchor="middle" x="1575" y="-47.8" font-family="Arial" font-size="14.00" fill="#c6c5fe">component/chart/InformaticsChart.tsx</text>
</g>
<!-- component/Widget/WidgetChart.tsx&#45;&gt;component/chart/InformaticsChart.tsx -->
<g id="edge37" class="edge">
<title>component/Widget/WidgetChart.tsx&#45;&gt;component/chart/InformaticsChart.tsx</title>
<path fill="none" stroke="#757575" d="M1130.61,-138.51C1224.07,-120.17 1402.15,-85.22 1501.83,-65.66"/>
<polygon fill="#757575" stroke="#757575" points="1502.38,-69.12 1511.51,-63.76 1501.03,-62.25 1502.38,-69.12"/>
</g>
<!-- component/chart/LineChart.tsx -->
<g id="node31" class="node">
<title>component/chart/LineChart.tsx</title>
<path fill="none" stroke="#c6c5fe" d="M1671.83,-141C1671.83,-141 1478.17,-141 1478.17,-141 1474.33,-141 1470.5,-137.17 1470.5,-133.33 1470.5,-133.33 1470.5,-125.67 1470.5,-125.67 1470.5,-121.83 1474.33,-118 1478.17,-118 1478.17,-118 1671.83,-118 1671.83,-118 1675.67,-118 1679.5,-121.83 1679.5,-125.67 1679.5,-125.67 1679.5,-133.33 1679.5,-133.33 1679.5,-137.17 1675.67,-141 1671.83,-141"/>
<text text-anchor="middle" x="1575" y="-125.8" font-family="Arial" font-size="14.00" fill="#c6c5fe">component/chart/LineChart.tsx</text>
</g>
<!-- component/Widget/WidgetChart.tsx&#45;&gt;component/chart/LineChart.tsx -->
<g id="edge38" class="edge">
<title>component/Widget/WidgetChart.tsx&#45;&gt;component/chart/LineChart.tsx</title>
<path fill="none" stroke="#757575" d="M1189.7,-145.5C1271.26,-142.1 1378.46,-137.64 1458.92,-134.29"/>
<polygon fill="#757575" stroke="#757575" points="1458.73,-137.8 1468.58,-133.89 1458.44,-130.81 1458.73,-137.8"/>
</g>
<!-- component/Widget/WidgetModal.tsx&#45;&gt;common/widget.ts -->
<g id="edge39" class="edge">
<title>component/Widget/WidgetModal.tsx&#45;&gt;common/widget.ts</title>
<path fill="none" stroke="#757575" d="M1192.27,-317.25C1287.54,-310.08 1416.61,-300.35 1497.59,-294.26"/>
<polygon fill="#757575" stroke="#757575" points="1497.47,-297.77 1507.18,-293.53 1496.94,-290.79 1497.47,-297.77"/>
</g>
<!-- component/Widget/WidgetModal.tsx&#45;&gt;types/widget.d.ts -->
<g id="edge40" class="edge">
<title>component/Widget/WidgetModal.tsx&#45;&gt;types/widget.d.ts</title>
<path fill="none" stroke="#757575" d="M1192.38,-319.82C1231.97,-322.71 1274.5,-331.56 1309,-352.5 1333.66,-367.46 1321.45,-389.85 1345,-406.5 1391.04,-439.05 1453.67,-453.37 1501.8,-459.65"/>
<polygon fill="#757575" stroke="#757575" points="1501.23,-463.1 1511.58,-460.83 1502.07,-456.15 1501.23,-463.1"/>
</g>
<!-- component/chart/BarChart.tsx&#45;&gt;common/chart.ts -->
<g id="edge41" class="edge">
<title>component/chart/BarChart.tsx&#45;&gt;common/chart.ts</title>
<path fill="none" stroke="#757575" d="M1676.9,-161.32C1716.8,-157.68 1763.06,-153.42 1805,-149.5 1851.06,-145.19 1902.8,-140.27 1943.4,-136.38"/>
<polygon fill="#757575" stroke="#757575" points="1943.68,-139.87 1953.3,-135.43 1943.01,-132.9 1943.68,-139.87"/>
</g>
<!-- component/chart/BarChart.tsx&#45;&gt;types/chart.d.ts -->
<g id="edge43" class="edge">
<title>component/chart/BarChart.tsx&#45;&gt;types/chart.d.ts</title>
<path fill="none" stroke="#757575" d="M1676.88,-179.91C1726.3,-184.06 1786.71,-188.45 1841,-190.5 1996.45,-196.36 2046.11,-247.12 2191,-190.5 2232.07,-174.45 2267.01,-134.97 2285.76,-110.4"/>
<polygon fill="#757575" stroke="#757575" points="2288.54,-112.53 2291.67,-102.41 2282.91,-108.37 2288.54,-112.53"/>
</g>
<!-- hook/useResize.tsx -->
<g id="node32" class="node">
<title>hook/useResize.tsx</title>
<path fill="none" stroke="#cfffac" d="M2078.33,-182C2078.33,-182 1953.67,-182 1953.67,-182 1949.83,-182 1946,-178.17 1946,-174.33 1946,-174.33 1946,-166.67 1946,-166.67 1946,-162.83 1949.83,-159 1953.67,-159 1953.67,-159 2078.33,-159 2078.33,-159 2082.17,-159 2086,-162.83 2086,-166.67 2086,-166.67 2086,-174.33 2086,-174.33 2086,-178.17 2082.17,-182 2078.33,-182"/>
<text text-anchor="middle" x="2016" y="-166.8" font-family="Arial" font-size="14.00" fill="#cfffac">hook/useResize.tsx</text>
</g>
<!-- component/chart/BarChart.tsx&#45;&gt;hook/useResize.tsx -->
<g id="edge42" class="edge">
<title>component/chart/BarChart.tsx&#45;&gt;hook/useResize.tsx</title>
<path fill="none" stroke="#757575" d="M1676.99,-170.5C1755.1,-170.5 1861.79,-170.5 1934.27,-170.5"/>
<polygon fill="#757575" stroke="#757575" points="1934.08,-174 1944.08,-170.5 1934.08,-167 1934.08,-174"/>
</g>
<!-- component/chart/InformaticsChart.tsx&#45;&gt;types/chart.d.ts -->
<g id="edge45" class="edge">
<title>component/chart/InformaticsChart.tsx&#45;&gt;types/chart.d.ts</title>
<path fill="none" stroke="#757575" d="M1701.35,-53.16C1825.76,-55.57 2021.82,-61.41 2191,-75.5 2204.79,-76.65 2219.51,-78.26 2233.54,-79.99"/>
<polygon fill="#757575" stroke="#757575" points="2232.75,-83.42 2243.11,-81.2 2233.63,-76.47 2232.75,-83.42"/>
</g>
<!-- component/chart/InformaticsChart/InforMaticsBox.tsx -->
<g id="node33" class="node">
<title>component/chart/InformaticsChart/InforMaticsBox.tsx</title>
<path fill="none" stroke="#c6c5fe" d="M2183.33,-23C2183.33,-23 1848.67,-23 1848.67,-23 1844.83,-23 1841,-19.17 1841,-15.33 1841,-15.33 1841,-7.67 1841,-7.67 1841,-3.83 1844.83,0 1848.67,0 1848.67,0 2183.33,0 2183.33,0 2187.17,0 2191,-3.83 2191,-7.67 2191,-7.67 2191,-15.33 2191,-15.33 2191,-19.17 2187.17,-23 2183.33,-23"/>
<text text-anchor="middle" x="2016" y="-7.8" font-family="Arial" font-size="14.00" fill="#c6c5fe">component/chart/InformaticsChart/InforMaticsBox.tsx</text>
</g>
<!-- component/chart/InformaticsChart.tsx&#45;&gt;component/chart/InformaticsChart/InforMaticsBox.tsx -->
<g id="edge44" class="edge">
<title>component/chart/InformaticsChart.tsx&#45;&gt;component/chart/InformaticsChart/InforMaticsBox.tsx</title>
<path fill="none" stroke="#757575" d="M1701.21,-40.09C1754.56,-35.23 1817.08,-29.53 1872.21,-24.51"/>
<polygon fill="#757575" stroke="#757575" points="1872.35,-28.01 1881.99,-23.62 1871.71,-21.04 1872.35,-28.01"/>
</g>
<!-- component/chart/LineChart.tsx&#45;&gt;common/chart.ts -->
<g id="edge47" class="edge">
<title>component/chart/LineChart.tsx&#45;&gt;common/chart.ts</title>
<path fill="none" stroke="#757575" d="M1679.76,-129.5C1760.98,-129.5 1871.81,-129.5 1943.4,-129.5"/>
<polygon fill="#757575" stroke="#757575" points="1943.02,-133 1953.02,-129.5 1943.02,-126 1943.02,-133"/>
</g>
<!-- component/chart/LineChart.tsx&#45;&gt;types/chart.d.ts -->
<g id="edge49" class="edge">
<title>component/chart/LineChart.tsx&#45;&gt;types/chart.d.ts</title>
<path fill="none" stroke="#757575" d="M1679.77,-120.36C1728.65,-116.3 1787.79,-111.71 1841,-108.5 1980.34,-100.1 2143.68,-94.31 2233.24,-91.49"/>
<polygon fill="#757575" stroke="#757575" points="2233.19,-94.99 2243.07,-91.18 2232.97,-87.99 2233.19,-94.99"/>
</g>
<!-- component/chart/LineChart.tsx&#45;&gt;hook/useResize.tsx -->
<g id="edge48" class="edge">
<title>component/chart/LineChart.tsx&#45;&gt;hook/useResize.tsx</title>
<path fill="none" stroke="#757575" d="M1679.76,-138.28C1719.01,-141.68 1764.07,-145.67 1805,-149.5 1847.83,-153.51 1895.55,-158.26 1934.66,-162.23"/>
<polygon fill="#757575" stroke="#757575" points="1934.17,-165.7 1944.47,-163.22 1934.88,-158.73 1934.17,-165.7"/>
</g>
<!-- component/chart/InformaticsChart/InforMaticsBox.tsx&#45;&gt;types/chart.d.ts -->
<g id="edge46" class="edge">
<title>component/chart/InformaticsChart/InforMaticsBox.tsx&#45;&gt;types/chart.d.ts</title>
<path fill="none" stroke="#757575" d="M2130.4,-23.49C2150.81,-27.05 2171.72,-31.62 2191,-37.5 2219.03,-46.04 2248.95,-60.67 2270.43,-72.24"/>
<polygon fill="#757575" stroke="#757575" points="2268.47,-75.16 2278.92,-76.91 2271.84,-69.02 2268.47,-75.16"/>
</g>
<!-- component/common/DatePicker/ListPicker.tsx&#45;&gt;types/datePicker.d.ts -->
<g id="edge52" class="edge">
<title>component/common/DatePicker/ListPicker.tsx&#45;&gt;types/datePicker.d.ts</title>
<path fill="none" stroke="#757575" d="M2170.37,-694.68C2185.81,-693.59 2201.07,-692.51 2215.4,-691.5"/>
<polygon fill="#757575" stroke="#757575" points="2215.44,-695.01 2225.17,-690.81 2214.95,-688.03 2215.44,-695.01"/>
</g>
<!-- page/Dashboard.tsx&#45;&gt;component/Dashboard/DashboardHeader.tsx -->
<g id="edge53" class="edge">
<title>page/Dashboard.tsx&#45;&gt;component/Dashboard/DashboardHeader.tsx</title>
<path fill="none" stroke="#757575" d="M355.75,-498.38C377.41,-509.18 410.3,-525.52 439,-539.5 487.3,-563.02 543.33,-589.74 578.83,-606.6"/>
<polygon fill="#757575" stroke="#757575" points="577.26,-609.73 587.8,-610.86 580.26,-603.41 577.26,-609.73"/>
</g>
<!-- page/Dashboard.tsx&#45;&gt;store/DashboardProvider.tsx -->
<g id="edge56" class="edge">
<title>page/Dashboard.tsx&#45;&gt;store/DashboardProvider.tsx</title>
<path fill="none" stroke="#757575" d="M403.26,-496.93C415.17,-498.36 427.42,-499.63 439,-500.5 814.89,-528.81 1262.64,-527.66 1465.07,-525.26"/>
<polygon fill="#757575" stroke="#757575" points="1464.81,-528.77 1474.77,-525.14 1464.73,-521.77 1464.81,-528.77"/>
</g>
<!-- page/Dashboard.tsx&#45;&gt;store/WidgetProvider.tsx -->
<g id="edge57" class="edge">
<title>page/Dashboard.tsx&#45;&gt;store/WidgetProvider.tsx</title>
<path fill="none" stroke="#757575" d="M403.19,-486.4C535.65,-486.22 820.11,-485.84 970.2,-485.63"/>
<polygon fill="#757575" stroke="#757575" points="970.14,-489.13 980.13,-485.62 970.13,-482.13 970.14,-489.13"/>
</g>
<!-- page/Dashboard.tsx&#45;&gt;component/Dashboard/WidgetPropsSettingModal.tsx -->
<g id="edge54" class="edge">
<title>page/Dashboard.tsx&#45;&gt;component/Dashboard/WidgetPropsSettingModal.tsx</title>
<path fill="none" stroke="#757575" d="M403.29,-476.41C438.32,-471.45 481.04,-465.4 518.87,-460.04"/>
<polygon fill="#757575" stroke="#757575" points="519.01,-463.56 528.42,-458.69 518.02,-456.63 519.01,-463.56"/>
</g>
<!-- page/Dashboard.tsx&#45;&gt;component/Widget.tsx -->
<g id="edge55" class="edge">
<title>page/Dashboard.tsx&#45;&gt;component/Widget.tsx</title>
<path fill="none" stroke="#757575" d="M351.41,-474.69C372.62,-461.96 407.74,-441.4 439,-425.5 485.02,-402.09 539.42,-378.16 575.32,-362.87"/>
<polygon fill="#757575" stroke="#757575" points="576.61,-366.12 584.45,-359 573.87,-359.68 576.61,-366.12"/>
</g>
</g>
</svg>
