<?xml version="1.0" encoding="UTF-8" standalone="no"?>
<!DOCTYPE svg PUBLIC "-//W3C//DTD SVG 1.1//EN"
 "http://www.w3.org/Graphics/SVG/1.1/DTD/svg11.dtd">
<!-- Generated by graphviz version 7.1.0 (20230121.1956)
 -->
<!-- Title: G Pages: 1 -->
<svg width="2970pt" height="977pt"
 viewBox="0.00 0.00 2970.20 976.88" xmlns="http://www.w3.org/2000/svg" xmlns:xlink="http://www.w3.org/1999/xlink">
<g id="graph0" class="graph" transform="scale(1 1) rotate(0) translate(21.6 955.28)">
<title>G</title>
<polygon fill="#111111" stroke="none" points="-21.6,21.6 -21.6,-955.28 2948.6,-955.28 2948.6,21.6 -21.6,21.6"/>
<!-- App.tsx -->
<g id="node1" class="node">
<title>App.tsx</title>
<path fill="none" stroke="#c6c5fe" d="M57.33,-448C57.33,-448 7.67,-448 7.67,-448 3.83,-448 0,-444.17 0,-440.33 0,-440.33 0,-432.67 0,-432.67 0,-428.83 3.83,-425 7.67,-425 7.67,-425 57.33,-425 57.33,-425 61.17,-425 65,-428.83 65,-432.67 65,-432.67 65,-440.33 65,-440.33 65,-444.17 61.17,-448 57.33,-448"/>
<text text-anchor="middle" x="32.5" y="-432.8" font-family="Arial" font-size="14.00" fill="#c6c5fe">App.tsx</text>
</g>
<!-- router/Router.tsx -->
<g id="node2" class="node">
<title>router/Router.tsx</title>
<path fill="none" stroke="#c6c5fe" d="M215.33,-448C215.33,-448 108.67,-448 108.67,-448 104.83,-448 101,-444.17 101,-440.33 101,-440.33 101,-432.67 101,-432.67 101,-428.83 104.83,-425 108.67,-425 108.67,-425 215.33,-425 215.33,-425 219.17,-425 223,-428.83 223,-432.67 223,-432.67 223,-440.33 223,-440.33 223,-444.17 219.17,-448 215.33,-448"/>
<text text-anchor="middle" x="162" y="-432.8" font-family="Arial" font-size="14.00" fill="#c6c5fe">router/Router.tsx</text>
</g>
<!-- App.tsx&#45;&gt;router/Router.tsx -->
<g id="edge1" class="edge">
<title>App.tsx&#45;&gt;router/Router.tsx</title>
<path fill="none" stroke="#757575" d="M65.34,-436.5C72.7,-436.5 80.81,-436.5 89.12,-436.5"/>
<polygon fill="#757575" stroke="#757575" points="88.99,-440 98.99,-436.5 88.99,-433 88.99,-440"/>
</g>
<!-- page/Dashboard.tsx -->
<g id="node49" class="node">
<title>page/Dashboard.tsx</title>
<path fill="none" stroke="#c6c5fe" d="M395.33,-448C395.33,-448 266.67,-448 266.67,-448 262.83,-448 259,-444.17 259,-440.33 259,-440.33 259,-432.67 259,-432.67 259,-428.83 262.83,-425 266.67,-425 266.67,-425 395.33,-425 395.33,-425 399.17,-425 403,-428.83 403,-432.67 403,-432.67 403,-440.33 403,-440.33 403,-444.17 399.17,-448 395.33,-448"/>
<text text-anchor="middle" x="331" y="-432.8" font-family="Arial" font-size="14.00" fill="#c6c5fe">page/Dashboard.tsx</text>
</g>
<!-- router/Router.tsx&#45;&gt;page/Dashboard.tsx -->
<g id="edge71" class="edge">
<title>router/Router.tsx&#45;&gt;page/Dashboard.tsx</title>
<path fill="none" stroke="#757575" d="M223.29,-436.5C231.1,-436.5 239.21,-436.5 247.3,-436.5"/>
<polygon fill="#757575" stroke="#757575" points="247.19,-440 257.19,-436.5 247.19,-433 247.19,-440"/>
</g>
<!-- asset/image/pause.png -->
<g id="node3" class="node">
<title>asset/image/pause.png</title>
<path fill="none" stroke="#cfffac" d="M1502.83,-268C1502.83,-268 1354.17,-268 1354.17,-268 1350.33,-268 1346.5,-264.17 1346.5,-260.33 1346.5,-260.33 1346.5,-252.67 1346.5,-252.67 1346.5,-248.83 1350.33,-245 1354.17,-245 1354.17,-245 1502.83,-245 1502.83,-245 1506.67,-245 1510.5,-248.83 1510.5,-252.67 1510.5,-252.67 1510.5,-260.33 1510.5,-260.33 1510.5,-264.17 1506.67,-268 1502.83,-268"/>
<text text-anchor="middle" x="1428.5" y="-252.8" font-family="Arial" font-size="14.00" fill="#cfffac">asset/image/pause.png</text>
</g>
<!-- asset/image/play.png -->
<g id="node4" class="node">
<title>asset/image/play.png</title>
<path fill="none" stroke="#cfffac" d="M1496.33,-309C1496.33,-309 1360.67,-309 1360.67,-309 1356.83,-309 1353,-305.17 1353,-301.33 1353,-301.33 1353,-293.67 1353,-293.67 1353,-289.83 1356.83,-286 1360.67,-286 1360.67,-286 1496.33,-286 1496.33,-286 1500.17,-286 1504,-289.83 1504,-293.67 1504,-293.67 1504,-301.33 1504,-301.33 1504,-305.17 1500.17,-309 1496.33,-309"/>
<text text-anchor="middle" x="1428.5" y="-293.8" font-family="Arial" font-size="14.00" fill="#cfffac">asset/image/play.png</text>
</g>
<!-- common/api.ts -->
<g id="node5" class="node">
<title>common/api.ts</title>
<path fill="none" stroke="#c6c5fe" d="M2426.33,-507C2426.33,-507 2331.67,-507 2331.67,-507 2327.83,-507 2324,-503.17 2324,-499.33 2324,-499.33 2324,-491.67 2324,-491.67 2324,-487.83 2327.83,-484 2331.67,-484 2331.67,-484 2426.33,-484 2426.33,-484 2430.17,-484 2434,-487.83 2434,-491.67 2434,-491.67 2434,-499.33 2434,-499.33 2434,-503.17 2430.17,-507 2426.33,-507"/>
<text text-anchor="middle" x="2379" y="-491.8" font-family="Arial" font-size="14.00" fill="#c6c5fe">common/api.ts</text>
</g>
<!-- types/api.d.ts -->
<g id="node6" class="node">
<title>types/api.d.ts</title>
<path fill="none" stroke="#cfffac" d="M2801.33,-547C2801.33,-547 2715.67,-547 2715.67,-547 2711.83,-547 2708,-543.17 2708,-539.33 2708,-539.33 2708,-531.67 2708,-531.67 2708,-527.83 2711.83,-524 2715.67,-524 2715.67,-524 2801.33,-524 2801.33,-524 2805.17,-524 2809,-527.83 2809,-531.67 2809,-531.67 2809,-539.33 2809,-539.33 2809,-543.17 2805.17,-547 2801.33,-547"/>
<text text-anchor="middle" x="2758.5" y="-531.8" font-family="Arial" font-size="14.00" fill="#cfffac">types/api.d.ts</text>
</g>
<!-- common/api.ts&#45;&gt;types/api.d.ts -->
<g id="edge2" class="edge">
<title>common/api.ts&#45;&gt;types/api.d.ts</title>
<path fill="none" stroke="#757575" d="M2434.49,-501.27C2503.97,-508.64 2623.78,-521.33 2696.32,-529.02"/>
<polygon fill="#757575" stroke="#757575" points="2695.73,-532.47 2706.04,-530.05 2696.47,-525.51 2695.73,-532.47"/>
</g>
<!-- common/chart.ts -->
<g id="node7" class="node">
<title>common/chart.ts</title>
<path fill="none" stroke="#c6c5fe" d="M2432.33,-748C2432.33,-748 2325.67,-748 2325.67,-748 2321.83,-748 2318,-744.17 2318,-740.33 2318,-740.33 2318,-732.67 2318,-732.67 2318,-728.83 2321.83,-725 2325.67,-725 2325.67,-725 2432.33,-725 2432.33,-725 2436.17,-725 2440,-728.83 2440,-732.67 2440,-732.67 2440,-740.33 2440,-740.33 2440,-744.17 2436.17,-748 2432.33,-748"/>
<text text-anchor="middle" x="2379" y="-732.8" font-family="Arial" font-size="14.00" fill="#c6c5fe">common/chart.ts</text>
</g>
<!-- types/chart.d.ts -->
<g id="node8" class="node">
<title>types/chart.d.ts</title>
<path fill="none" stroke="#cfffac" d="M2807.33,-870C2807.33,-870 2709.67,-870 2709.67,-870 2705.83,-870 2702,-866.17 2702,-862.33 2702,-862.33 2702,-854.67 2702,-854.67 2702,-850.83 2705.83,-847 2709.67,-847 2709.67,-847 2807.33,-847 2807.33,-847 2811.17,-847 2815,-850.83 2815,-854.67 2815,-854.67 2815,-862.33 2815,-862.33 2815,-866.17 2811.17,-870 2807.33,-870"/>
<text text-anchor="middle" x="2758.5" y="-854.8" font-family="Arial" font-size="14.00" fill="#cfffac">types/chart.d.ts</text>
</g>
<!-- common/chart.ts&#45;&gt;types/chart.d.ts -->
<g id="edge3" class="edge">
<title>common/chart.ts&#45;&gt;types/chart.d.ts</title>
<path fill="none" stroke="#757575" d="M2440.23,-738.25C2474.22,-740.51 2517.14,-745.52 2554,-756.5 2620.75,-776.39 2692.05,-817.24 2729.99,-840.76"/>
<polygon fill="#757575" stroke="#757575" points="2727.72,-843.47 2738.06,-845.82 2731.45,-837.54 2727.72,-843.47"/>
</g>
<!-- common/date.ts -->
<g id="node9" class="node">
<title>common/date.ts</title>
<path fill="none" stroke="#cfffac" d="M2430.83,-387C2430.83,-387 2327.17,-387 2327.17,-387 2323.33,-387 2319.5,-383.17 2319.5,-379.33 2319.5,-379.33 2319.5,-371.67 2319.5,-371.67 2319.5,-367.83 2323.33,-364 2327.17,-364 2327.17,-364 2430.83,-364 2430.83,-364 2434.67,-364 2438.5,-367.83 2438.5,-371.67 2438.5,-371.67 2438.5,-379.33 2438.5,-379.33 2438.5,-383.17 2434.67,-387 2430.83,-387"/>
<text text-anchor="middle" x="2379" y="-371.8" font-family="Arial" font-size="14.00" fill="#cfffac">common/date.ts</text>
</g>
<!-- common/widget.ts -->
<g id="node10" class="node">
<title>common/widget.ts</title>
<path fill="none" stroke="#cfffac" d="M1994.83,-625C1994.83,-625 1878.17,-625 1878.17,-625 1874.33,-625 1870.5,-621.17 1870.5,-617.33 1870.5,-617.33 1870.5,-609.67 1870.5,-609.67 1870.5,-605.83 1874.33,-602 1878.17,-602 1878.17,-602 1994.83,-602 1994.83,-602 1998.67,-602 2002.5,-605.83 2002.5,-609.67 2002.5,-609.67 2002.5,-617.33 2002.5,-617.33 2002.5,-621.17 1998.67,-625 1994.83,-625"/>
<text text-anchor="middle" x="1936.5" y="-609.8" font-family="Arial" font-size="14.00" fill="#cfffac">common/widget.ts</text>
</g>
<!-- component/Dashboard/DashboardBody.tsx -->
<g id="node11" class="node">
<title>component/Dashboard/DashboardBody.tsx</title>
<path fill="none" stroke="#c6c5fe" d="M727.83,-586C727.83,-586 453.17,-586 453.17,-586 449.33,-586 445.5,-582.17 445.5,-578.33 445.5,-578.33 445.5,-570.67 445.5,-570.67 445.5,-566.83 449.33,-563 453.17,-563 453.17,-563 727.83,-563 727.83,-563 731.67,-563 735.5,-566.83 735.5,-570.67 735.5,-570.67 735.5,-578.33 735.5,-578.33 735.5,-582.17 731.67,-586 727.83,-586"/>
<text text-anchor="middle" x="590.5" y="-570.8" font-family="Arial" font-size="14.00" fill="#c6c5fe">component/Dashboard/DashboardBody.tsx</text>
</g>
<!-- component/Widget/Widget.tsx -->
<g id="node12" class="node">
<title>component/Widget/Widget.tsx</title>
<path fill="none" stroke="#c6c5fe" d="M1061.83,-586C1061.83,-586 868.17,-586 868.17,-586 864.33,-586 860.5,-582.17 860.5,-578.33 860.5,-578.33 860.5,-570.67 860.5,-570.67 860.5,-566.83 864.33,-563 868.17,-563 868.17,-563 1061.83,-563 1061.83,-563 1065.67,-563 1069.5,-566.83 1069.5,-570.67 1069.5,-570.67 1069.5,-578.33 1069.5,-578.33 1069.5,-582.17 1065.67,-586 1061.83,-586"/>
<text text-anchor="middle" x="965" y="-570.8" font-family="Arial" font-size="14.00" fill="#c6c5fe">component/Widget/Widget.tsx</text>
</g>
<!-- component/Dashboard/DashboardBody.tsx&#45;&gt;component/Widget/Widget.tsx -->
<g id="edge4" class="edge">
<title>component/Dashboard/DashboardBody.tsx&#45;&gt;component/Widget/Widget.tsx</title>
<path fill="none" stroke="#757575" d="M735.78,-574.5C773.17,-574.5 812.94,-574.5 848.63,-574.5"/>
<polygon fill="#757575" stroke="#757575" points="848.55,-578 858.55,-574.5 848.55,-571 848.55,-578"/>
</g>
<!-- store/WidgetProvider.tsx -->
<g id="node13" class="node">
<title>store/WidgetProvider.tsx</title>
<path fill="none" stroke="#c6c5fe" d="M2015.33,-666C2015.33,-666 1857.67,-666 1857.67,-666 1853.83,-666 1850,-662.17 1850,-658.33 1850,-658.33 1850,-650.67 1850,-650.67 1850,-646.83 1853.83,-643 1857.67,-643 1857.67,-643 2015.33,-643 2015.33,-643 2019.17,-643 2023,-646.83 2023,-650.67 2023,-650.67 2023,-658.33 2023,-658.33 2023,-662.17 2019.17,-666 2015.33,-666"/>
<text text-anchor="middle" x="1936.5" y="-650.8" font-family="Arial" font-size="14.00" fill="#c6c5fe">store/WidgetProvider.tsx</text>
</g>
<!-- component/Dashboard/DashboardBody.tsx&#45;&gt;store/WidgetProvider.tsx -->
<g id="edge5" class="edge">
<title>component/Dashboard/DashboardBody.tsx&#45;&gt;store/WidgetProvider.tsx</title>
<path fill="none" stroke="#757575" d="M701.94,-586.48C726.95,-589.15 753.38,-591.95 778,-594.5 960.16,-613.37 1005.23,-624.05 1188,-635.5 1421.06,-650.09 1695.65,-653.56 1838.35,-654.33"/>
<polygon fill="#757575" stroke="#757575" points="1838.12,-657.83 1848.13,-654.38 1838.15,-650.83 1838.12,-657.83"/>
</g>
<!-- hook/useBoolean.tsx -->
<g id="node25" class="node">
<title>hook/useBoolean.tsx</title>
<path fill="none" stroke="#cfffac" d="M2445.83,-264C2445.83,-264 2312.17,-264 2312.17,-264 2308.33,-264 2304.5,-260.17 2304.5,-256.33 2304.5,-256.33 2304.5,-248.67 2304.5,-248.67 2304.5,-244.83 2308.33,-241 2312.17,-241 2312.17,-241 2445.83,-241 2445.83,-241 2449.67,-241 2453.5,-244.83 2453.5,-248.67 2453.5,-248.67 2453.5,-256.33 2453.5,-256.33 2453.5,-260.17 2449.67,-264 2445.83,-264"/>
<text text-anchor="middle" x="2379" y="-248.8" font-family="Arial" font-size="14.00" fill="#cfffac">hook/useBoolean.tsx</text>
</g>
<!-- component/Widget/Widget.tsx&#45;&gt;hook/useBoolean.tsx -->
<g id="edge30" class="edge">
<title>component/Widget/Widget.tsx&#45;&gt;hook/useBoolean.tsx</title>
<path fill="none" stroke="#757575" d="M1000.9,-562.53C1044.22,-548.19 1120.65,-524.59 1188,-512.5 1414.94,-471.75 1475.13,-487.5 1705,-469.5 1756.43,-465.47 2128.99,-469.25 2168,-435.5 2224.1,-386.95 2148.91,-322.19 2204,-272.5 2227.73,-251.1 2261.3,-243.9 2292.63,-242.84"/>
<polygon fill="#757575" stroke="#757575" points="2292.58,-246.34 2302.54,-242.74 2292.5,-239.34 2292.58,-246.34"/>
</g>
<!-- component/Widget/WidgetButtons.tsx -->
<g id="node29" class="node">
<title>component/Widget/WidgetButtons.tsx</title>
<path fill="none" stroke="#c6c5fe" d="M1549.33,-586C1549.33,-586 1307.67,-586 1307.67,-586 1303.83,-586 1300,-582.17 1300,-578.33 1300,-578.33 1300,-570.67 1300,-570.67 1300,-566.83 1303.83,-563 1307.67,-563 1307.67,-563 1549.33,-563 1549.33,-563 1553.17,-563 1557,-566.83 1557,-570.67 1557,-570.67 1557,-578.33 1557,-578.33 1557,-582.17 1553.17,-586 1549.33,-586"/>
<text text-anchor="middle" x="1428.5" y="-570.8" font-family="Arial" font-size="14.00" fill="#c6c5fe">component/Widget/WidgetButtons.tsx</text>
</g>
<!-- component/Widget/Widget.tsx&#45;&gt;component/Widget/WidgetButtons.tsx -->
<g id="edge26" class="edge">
<title>component/Widget/Widget.tsx&#45;&gt;component/Widget/WidgetButtons.tsx</title>
<path fill="none" stroke="#757575" d="M1069.86,-574.5C1134.45,-574.5 1218.29,-574.5 1288.56,-574.5"/>
<polygon fill="#757575" stroke="#757575" points="1288.2,-578 1298.2,-574.5 1288.2,-571 1288.2,-578"/>
</g>
<!-- component/Widget/WidgetCallCycleSettingModal.tsx -->
<g id="node30" class="node">
<title>component/Widget/WidgetCallCycleSettingModal.tsx</title>
<path fill="none" stroke="#c6c5fe" d="M1596.33,-707C1596.33,-707 1260.67,-707 1260.67,-707 1256.83,-707 1253,-703.17 1253,-699.33 1253,-699.33 1253,-691.67 1253,-691.67 1253,-687.83 1256.83,-684 1260.67,-684 1260.67,-684 1596.33,-684 1596.33,-684 1600.17,-684 1604,-687.83 1604,-691.67 1604,-691.67 1604,-699.33 1604,-699.33 1604,-703.17 1600.17,-707 1596.33,-707"/>
<text text-anchor="middle" x="1428.5" y="-691.8" font-family="Arial" font-size="14.00" fill="#c6c5fe">component/Widget/WidgetCallCycleSettingModal.tsx</text>
</g>
<!-- component/Widget/Widget.tsx&#45;&gt;component/Widget/WidgetCallCycleSettingModal.tsx -->
<g id="edge27" class="edge">
<title>component/Widget/Widget.tsx&#45;&gt;component/Widget/WidgetCallCycleSettingModal.tsx</title>
<path fill="none" stroke="#757575" d="M1008.48,-586.48C1053.11,-598.99 1125.37,-619.05 1188,-635.5 1248.96,-651.51 1318.91,-668.92 1367.41,-680.85"/>
<polygon fill="#757575" stroke="#757575" points="1366.32,-684.18 1376.87,-683.17 1367.99,-677.38 1366.32,-684.18"/>
</g>
<!-- component/Widget/WidgetChart.tsx -->
<g id="node31" class="node">
<title>component/Widget/WidgetChart.tsx</title>
<path fill="none" stroke="#c6c5fe" d="M1541.83,-809C1541.83,-809 1315.17,-809 1315.17,-809 1311.33,-809 1307.5,-805.17 1307.5,-801.33 1307.5,-801.33 1307.5,-793.67 1307.5,-793.67 1307.5,-789.83 1311.33,-786 1315.17,-786 1315.17,-786 1541.83,-786 1541.83,-786 1545.67,-786 1549.5,-789.83 1549.5,-793.67 1549.5,-793.67 1549.5,-801.33 1549.5,-801.33 1549.5,-805.17 1545.67,-809 1541.83,-809"/>
<text text-anchor="middle" x="1428.5" y="-793.8" font-family="Arial" font-size="14.00" fill="#c6c5fe">component/Widget/WidgetChart.tsx</text>
</g>
<!-- component/Widget/Widget.tsx&#45;&gt;component/Widget/WidgetChart.tsx -->
<g id="edge28" class="edge">
<title>component/Widget/Widget.tsx&#45;&gt;component/Widget/WidgetChart.tsx</title>
<path fill="none" stroke="#757575" d="M981.67,-586.31C1016.94,-612.46 1105.9,-676.06 1188,-715.5 1248.58,-744.61 1322.26,-768.2 1371.76,-782.48"/>
<polygon fill="#757575" stroke="#757575" points="1370.53,-785.77 1381.1,-785.15 1372.45,-779.04 1370.53,-785.77"/>
</g>
<!-- hook/Widget/useHandleWidgetApi.tsx -->
<g id="node32" class="node">
<title>hook/Widget/useHandleWidgetApi.tsx</title>
<path fill="none" stroke="#c6c5fe" d="M1549.33,-545C1549.33,-545 1307.67,-545 1307.67,-545 1303.83,-545 1300,-541.17 1300,-537.33 1300,-537.33 1300,-529.67 1300,-529.67 1300,-525.83 1303.83,-522 1307.67,-522 1307.67,-522 1549.33,-522 1549.33,-522 1553.17,-522 1557,-525.83 1557,-529.67 1557,-529.67 1557,-537.33 1557,-537.33 1557,-541.17 1553.17,-545 1549.33,-545"/>
<text text-anchor="middle" x="1428.5" y="-529.8" font-family="Arial" font-size="14.00" fill="#c6c5fe">hook/Widget/useHandleWidgetApi.tsx</text>
</g>
<!-- component/Widget/Widget.tsx&#45;&gt;hook/Widget/useHandleWidgetApi.tsx -->
<g id="edge29" class="edge">
<title>component/Widget/Widget.tsx&#45;&gt;hook/Widget/useHandleWidgetApi.tsx</title>
<path fill="none" stroke="#757575" d="M1069.88,-564.43C1107.13,-560.89 1149.44,-556.93 1188,-553.5 1220.58,-550.6 1255.66,-547.6 1288.66,-544.83"/>
<polygon fill="#757575" stroke="#757575" points="1288.58,-548.35 1298.26,-544.03 1288,-541.38 1288.58,-548.35"/>
</g>
<!-- types/widget.d.ts -->
<g id="node50" class="node">
<title>types/widget.d.ts</title>
<path fill="none" stroke="#cfffac" d="M2432.83,-666C2432.83,-666 2325.17,-666 2325.17,-666 2321.33,-666 2317.5,-662.17 2317.5,-658.33 2317.5,-658.33 2317.5,-650.67 2317.5,-650.67 2317.5,-646.83 2321.33,-643 2325.17,-643 2325.17,-643 2432.83,-643 2432.83,-643 2436.67,-643 2440.5,-646.83 2440.5,-650.67 2440.5,-650.67 2440.5,-658.33 2440.5,-658.33 2440.5,-662.17 2436.67,-666 2432.83,-666"/>
<text text-anchor="middle" x="2379" y="-650.8" font-family="Arial" font-size="14.00" fill="#cfffac">types/widget.d.ts</text>
</g>
<!-- store/WidgetProvider.tsx&#45;&gt;types/widget.d.ts -->
<g id="edge74" class="edge">
<title>store/WidgetProvider.tsx&#45;&gt;types/widget.d.ts</title>
<path fill="none" stroke="#757575" d="M2023.48,-654.5C2105.81,-654.5 2228.62,-654.5 2305.95,-654.5"/>
<polygon fill="#757575" stroke="#757575" points="2305.51,-658 2315.51,-654.5 2305.51,-651 2305.51,-658"/>
</g>
<!-- component/Dashboard/DashboardHeader.tsx -->
<g id="node14" class="node">
<title>component/Dashboard/DashboardHeader.tsx</title>
<path fill="none" stroke="#c6c5fe" d="M734.33,-248C734.33,-248 446.67,-248 446.67,-248 442.83,-248 439,-244.17 439,-240.33 439,-240.33 439,-232.67 439,-232.67 439,-228.83 442.83,-225 446.67,-225 446.67,-225 734.33,-225 734.33,-225 738.17,-225 742,-228.83 742,-232.67 742,-232.67 742,-240.33 742,-240.33 742,-244.17 738.17,-248 734.33,-248"/>
<text text-anchor="middle" x="590.5" y="-232.8" font-family="Arial" font-size="14.00" fill="#c6c5fe">component/Dashboard/DashboardHeader.tsx</text>
</g>
<!-- component/Dashboard/DashboardHeader/PlayIcon.tsx -->
<g id="node15" class="node">
<title>component/Dashboard/DashboardHeader/PlayIcon.tsx</title>
<path fill="none" stroke="#c6c5fe" d="M1138.33,-268C1138.33,-268 791.67,-268 791.67,-268 787.83,-268 784,-264.17 784,-260.33 784,-260.33 784,-252.67 784,-252.67 784,-248.83 787.83,-245 791.67,-245 791.67,-245 1138.33,-245 1138.33,-245 1142.17,-245 1146,-248.83 1146,-252.67 1146,-252.67 1146,-260.33 1146,-260.33 1146,-264.17 1142.17,-268 1138.33,-268"/>
<text text-anchor="middle" x="965" y="-252.8" font-family="Arial" font-size="14.00" fill="#c6c5fe">component/Dashboard/DashboardHeader/PlayIcon.tsx</text>
</g>
<!-- component/Dashboard/DashboardHeader.tsx&#45;&gt;component/Dashboard/DashboardHeader/PlayIcon.tsx -->
<g id="edge6" class="edge">
<title>component/Dashboard/DashboardHeader.tsx&#45;&gt;component/Dashboard/DashboardHeader/PlayIcon.tsx</title>
<path fill="none" stroke="#757575" d="M742.47,-244.61C752.36,-245.14 762.39,-245.68 772.44,-246.21"/>
<polygon fill="#757575" stroke="#757575" points="772.1,-249.7 782.28,-246.74 772.48,-242.71 772.1,-249.7"/>
</g>
<!-- component/Dashboard/DashboardHeader/SelectRealTimeRangeArea.tsx -->
<g id="node16" class="node">
<title>component/Dashboard/DashboardHeader/SelectRealTimeRangeArea.tsx</title>
<path fill="none" stroke="#c6c5fe" d="M1661.33,-104C1661.33,-104 1195.67,-104 1195.67,-104 1191.83,-104 1188,-100.17 1188,-96.33 1188,-96.33 1188,-88.67 1188,-88.67 1188,-84.83 1191.83,-81 1195.67,-81 1195.67,-81 1661.33,-81 1661.33,-81 1665.17,-81 1669,-84.83 1669,-88.67 1669,-88.67 1669,-96.33 1669,-96.33 1669,-100.17 1665.17,-104 1661.33,-104"/>
<text text-anchor="middle" x="1428.5" y="-88.8" font-family="Arial" font-size="14.00" fill="#c6c5fe">component/Dashboard/DashboardHeader/SelectRealTimeRangeArea.tsx</text>
</g>
<!-- component/Dashboard/DashboardHeader.tsx&#45;&gt;component/Dashboard/DashboardHeader/SelectRealTimeRangeArea.tsx -->
<g id="edge7" class="edge">
<title>component/Dashboard/DashboardHeader.tsx&#45;&gt;component/Dashboard/DashboardHeader/SelectRealTimeRangeArea.tsx</title>
<path fill="none" stroke="#757575" d="M612.82,-224.64C646.68,-206.4 715.33,-171.9 778,-155.5 906.87,-121.78 1054.37,-105.75 1176.21,-98.26"/>
<polygon fill="#757575" stroke="#757575" points="1176.26,-101.77 1186.03,-97.68 1175.84,-94.78 1176.26,-101.77"/>
</g>
<!-- component/Dashboard/DashboardHeader/TimeBlock.tsx -->
<g id="node17" class="node">
<title>component/Dashboard/DashboardHeader/TimeBlock.tsx</title>
<path fill="none" stroke="#c6c5fe" d="M1144.33,-188C1144.33,-188 785.67,-188 785.67,-188 781.83,-188 778,-184.17 778,-180.33 778,-180.33 778,-172.67 778,-172.67 778,-168.83 781.83,-165 785.67,-165 785.67,-165 1144.33,-165 1144.33,-165 1148.17,-165 1152,-168.83 1152,-172.67 1152,-172.67 1152,-180.33 1152,-180.33 1152,-184.17 1148.17,-188 1144.33,-188"/>
<text text-anchor="middle" x="965" y="-172.8" font-family="Arial" font-size="14.00" fill="#c6c5fe">component/Dashboard/DashboardHeader/TimeBlock.tsx</text>
</g>
<!-- component/Dashboard/DashboardHeader.tsx&#45;&gt;component/Dashboard/DashboardHeader/TimeBlock.tsx -->
<g id="edge8" class="edge">
<title>component/Dashboard/DashboardHeader.tsx&#45;&gt;component/Dashboard/DashboardHeader/TimeBlock.tsx</title>
<path fill="none" stroke="#757575" d="M653.56,-224.52C689.78,-217.7 736.41,-209.2 778,-202.5 805.16,-198.13 834.62,-193.81 861.92,-189.99"/>
<polygon fill="#757575" stroke="#757575" points="862.14,-193.5 871.57,-188.65 861.18,-186.56 862.14,-193.5"/>
</g>
<!-- store/DashboardProvider.tsx -->
<g id="node18" class="node">
<title>store/DashboardProvider.tsx</title>
<path fill="none" stroke="#c6c5fe" d="M2027.33,-386C2027.33,-386 1845.67,-386 1845.67,-386 1841.83,-386 1838,-382.17 1838,-378.33 1838,-378.33 1838,-370.67 1838,-370.67 1838,-366.83 1841.83,-363 1845.67,-363 1845.67,-363 2027.33,-363 2027.33,-363 2031.17,-363 2035,-366.83 2035,-370.67 2035,-370.67 2035,-378.33 2035,-378.33 2035,-382.17 2031.17,-386 2027.33,-386"/>
<text text-anchor="middle" x="1936.5" y="-370.8" font-family="Arial" font-size="14.00" fill="#c6c5fe">store/DashboardProvider.tsx</text>
</g>
<!-- component/Dashboard/DashboardHeader.tsx&#45;&gt;store/DashboardProvider.tsx -->
<g id="edge9" class="edge">
<title>component/Dashboard/DashboardHeader.tsx&#45;&gt;store/DashboardProvider.tsx</title>
<path fill="none" stroke="#757575" d="M639.92,-248.44C677.4,-257.3 730.73,-269.09 778,-276.5 978.4,-307.91 1578.55,-350.47 1826.49,-367.26"/>
<polygon fill="#757575" stroke="#757575" points="1825.94,-370.73 1836.16,-367.91 1826.42,-363.75 1825.94,-370.73"/>
</g>
<!-- store/WidgetPropsSettingModalProvider.tsx -->
<g id="node19" class="node">
<title>store/WidgetPropsSettingModalProvider.tsx</title>
<path fill="none" stroke="#c6c5fe" d="M2075.83,-427C2075.83,-427 1797.17,-427 1797.17,-427 1793.33,-427 1789.5,-423.17 1789.5,-419.33 1789.5,-419.33 1789.5,-411.67 1789.5,-411.67 1789.5,-407.83 1793.33,-404 1797.17,-404 1797.17,-404 2075.83,-404 2075.83,-404 2079.67,-404 2083.5,-407.83 2083.5,-411.67 2083.5,-411.67 2083.5,-419.33 2083.5,-419.33 2083.5,-423.17 2079.67,-427 2075.83,-427"/>
<text text-anchor="middle" x="1936.5" y="-411.8" font-family="Arial" font-size="14.00" fill="#c6c5fe">store/WidgetPropsSettingModalProvider.tsx</text>
</g>
<!-- component/Dashboard/DashboardHeader.tsx&#45;&gt;store/WidgetPropsSettingModalProvider.tsx -->
<g id="edge10" class="edge">
<title>component/Dashboard/DashboardHeader.tsx&#45;&gt;store/WidgetPropsSettingModalProvider.tsx</title>
<path fill="none" stroke="#757575" d="M742.34,-226.11C1021.87,-208.34 1598.48,-179.16 1669,-235.5 1725.61,-280.72 1650.5,-346.75 1705,-394.5 1748.55,-432.66 1816.11,-434.51 1866.84,-428.84"/>
<polygon fill="#757575" stroke="#757575" points="1867.06,-432.34 1876.55,-427.63 1866.19,-425.4 1867.06,-432.34"/>
</g>
<!-- component/Dashboard/DashboardHeader/PlayIcon.tsx&#45;&gt;asset/image/pause.png -->
<g id="edge18" class="edge">
<title>component/Dashboard/DashboardHeader/PlayIcon.tsx&#45;&gt;asset/image/pause.png</title>
<path fill="none" stroke="#757575" d="M1146.41,-256.5C1210.84,-256.5 1280.78,-256.5 1334.78,-256.5"/>
<polygon fill="#757575" stroke="#757575" points="1334.54,-260 1344.54,-256.5 1334.54,-253 1334.54,-260"/>
</g>
<!-- component/Dashboard/DashboardHeader/PlayIcon.tsx&#45;&gt;asset/image/play.png -->
<g id="edge19" class="edge">
<title>component/Dashboard/DashboardHeader/PlayIcon.tsx&#45;&gt;asset/image/play.png</title>
<path fill="none" stroke="#757575" d="M1098.35,-268.48C1127.86,-271.13 1158.99,-273.92 1188,-276.5 1238.78,-281.01 1295.63,-286 1341.19,-289.98"/>
<polygon fill="#757575" stroke="#757575" points="1340.75,-293.46 1351.02,-290.84 1341.36,-286.48 1340.75,-293.46"/>
</g>
<!-- component/Dashboard/DashboardHeader/SelectRealTimeRangeArea.tsx&#45;&gt;hook/useBoolean.tsx -->
<g id="edge22" class="edge">
<title>component/Dashboard/DashboardHeader/SelectRealTimeRangeArea.tsx&#45;&gt;hook/useBoolean.tsx</title>
<path fill="none" stroke="#757575" d="M1669.21,-84.32C1848.79,-80.87 2078.34,-82.93 2168,-111.5 2246.69,-136.58 2323.09,-200.9 2358.11,-233.28"/>
<polygon fill="#757575" stroke="#757575" points="2355.3,-235.45 2364.99,-239.74 2360.09,-230.34 2355.3,-235.45"/>
</g>
<!-- hook/useOutsideClick.tsx -->
<g id="node26" class="node">
<title>hook/useOutsideClick.tsx</title>
<path fill="none" stroke="#cfffac" d="M2016.83,-185C2016.83,-185 1856.17,-185 1856.17,-185 1852.33,-185 1848.5,-181.17 1848.5,-177.33 1848.5,-177.33 1848.5,-169.67 1848.5,-169.67 1848.5,-165.83 1852.33,-162 1856.17,-162 1856.17,-162 2016.83,-162 2016.83,-162 2020.67,-162 2024.5,-165.83 2024.5,-169.67 2024.5,-169.67 2024.5,-177.33 2024.5,-177.33 2024.5,-181.17 2020.67,-185 2016.83,-185"/>
<text text-anchor="middle" x="1936.5" y="-169.8" font-family="Arial" font-size="14.00" fill="#cfffac">hook/useOutsideClick.tsx</text>
</g>
<!-- component/Dashboard/DashboardHeader/SelectRealTimeRangeArea.tsx&#45;&gt;hook/useOutsideClick.tsx -->
<g id="edge23" class="edge">
<title>component/Dashboard/DashboardHeader/SelectRealTimeRangeArea.tsx&#45;&gt;hook/useOutsideClick.tsx</title>
<path fill="none" stroke="#757575" d="M1647.53,-104.4C1654.89,-107.08 1662.07,-110.1 1669,-113.5 1690.17,-123.9 1683.84,-142.07 1705,-152.5 1745.19,-172.32 1794.11,-178.86 1836.53,-179.92"/>
<polygon fill="#757575" stroke="#757575" points="1836.46,-183.42 1846.5,-180.06 1836.55,-176.42 1836.46,-183.42"/>
</g>
<!-- component/Dashboard/DashboardHeader/RealTime.tsx -->
<g id="node27" class="node">
<title>component/Dashboard/DashboardHeader/RealTime.tsx</title>
<path fill="none" stroke="#cfffac" d="M2112.83,-64C2112.83,-64 1760.17,-64 1760.17,-64 1756.33,-64 1752.5,-60.17 1752.5,-56.33 1752.5,-56.33 1752.5,-48.67 1752.5,-48.67 1752.5,-44.83 1756.33,-41 1760.17,-41 1760.17,-41 2112.83,-41 2112.83,-41 2116.67,-41 2120.5,-44.83 2120.5,-48.67 2120.5,-48.67 2120.5,-56.33 2120.5,-56.33 2120.5,-60.17 2116.67,-64 2112.83,-64"/>
<text text-anchor="middle" x="1936.5" y="-48.8" font-family="Arial" font-size="14.00" fill="#cfffac">component/Dashboard/DashboardHeader/RealTime.tsx</text>
</g>
<!-- component/Dashboard/DashboardHeader/SelectRealTimeRangeArea.tsx&#45;&gt;component/Dashboard/DashboardHeader/RealTime.tsx -->
<g id="edge20" class="edge">
<title>component/Dashboard/DashboardHeader/SelectRealTimeRangeArea.tsx&#45;&gt;component/Dashboard/DashboardHeader/RealTime.tsx</title>
<path fill="none" stroke="#757575" d="M1580.97,-80.53C1641.41,-75.75 1711.12,-70.24 1772.64,-65.37"/>
<polygon fill="#757575" stroke="#757575" points="1772.83,-68.87 1782.52,-64.59 1772.28,-61.89 1772.83,-68.87"/>
</g>
<!-- component/Dashboard/DashboardHeader/SelectRealTimeListItem.tsx -->
<g id="node28" class="node">
<title>component/Dashboard/DashboardHeader/SelectRealTimeListItem.tsx</title>
<path fill="none" stroke="#cfffac" d="M2158.83,-23C2158.83,-23 1714.17,-23 1714.17,-23 1710.33,-23 1706.5,-19.17 1706.5,-15.33 1706.5,-15.33 1706.5,-7.67 1706.5,-7.67 1706.5,-3.83 1710.33,0 1714.17,0 1714.17,0 2158.83,0 2158.83,0 2162.67,0 2166.5,-3.83 2166.5,-7.67 2166.5,-7.67 2166.5,-15.33 2166.5,-15.33 2166.5,-19.17 2162.67,-23 2158.83,-23"/>
<text text-anchor="middle" x="1936.5" y="-7.8" font-family="Arial" font-size="14.00" fill="#cfffac">component/Dashboard/DashboardHeader/SelectRealTimeListItem.tsx</text>
</g>
<!-- component/Dashboard/DashboardHeader/SelectRealTimeRangeArea.tsx&#45;&gt;component/Dashboard/DashboardHeader/SelectRealTimeListItem.tsx -->
<g id="edge21" class="edge">
<title>component/Dashboard/DashboardHeader/SelectRealTimeRangeArea.tsx&#45;&gt;component/Dashboard/DashboardHeader/SelectRealTimeListItem.tsx</title>
<path fill="none" stroke="#757575" d="M1474.98,-80.5C1529.31,-66.62 1623.17,-44.05 1705,-31.5 1721.53,-28.96 1738.78,-26.72 1756.07,-24.75"/>
<polygon fill="#757575" stroke="#757575" points="1756.38,-28.24 1765.94,-23.66 1755.61,-21.28 1756.38,-28.24"/>
</g>
<!-- component/Dashboard/DashboardHeader/CurrentTime.tsx -->
<g id="node20" class="node">
<title>component/Dashboard/DashboardHeader/CurrentTime.tsx</title>
<path fill="none" stroke="#c6c5fe" d="M1613.83,-146C1613.83,-146 1243.17,-146 1243.17,-146 1239.33,-146 1235.5,-142.17 1235.5,-138.33 1235.5,-138.33 1235.5,-130.67 1235.5,-130.67 1235.5,-126.83 1239.33,-123 1243.17,-123 1243.17,-123 1613.83,-123 1613.83,-123 1617.67,-123 1621.5,-126.83 1621.5,-130.67 1621.5,-130.67 1621.5,-138.33 1621.5,-138.33 1621.5,-142.17 1617.67,-146 1613.83,-146"/>
<text text-anchor="middle" x="1428.5" y="-130.8" font-family="Arial" font-size="14.00" fill="#c6c5fe">component/Dashboard/DashboardHeader/CurrentTime.tsx</text>
</g>
<!-- component/Dashboard/DashboardHeader/TimeBlock.tsx&#45;&gt;component/Dashboard/DashboardHeader/CurrentTime.tsx -->
<g id="edge24" class="edge">
<title>component/Dashboard/DashboardHeader/TimeBlock.tsx&#45;&gt;component/Dashboard/DashboardHeader/CurrentTime.tsx</title>
<path fill="none" stroke="#757575" d="M1091.03,-164.52C1122.66,-161.53 1156.58,-158.36 1188,-155.5 1216.93,-152.86 1247.84,-150.11 1277.51,-147.49"/>
<polygon fill="#757575" stroke="#757575" points="1277.65,-150.99 1287.3,-146.63 1277.03,-144.02 1277.65,-150.99"/>
</g>
<!-- component/Dashboard/DashboardHeader/DatePickerArea.tsx -->
<g id="node23" class="node">
<title>component/Dashboard/DashboardHeader/DatePickerArea.tsx</title>
<path fill="none" stroke="#c6c5fe" d="M1624.33,-188C1624.33,-188 1232.67,-188 1232.67,-188 1228.83,-188 1225,-184.17 1225,-180.33 1225,-180.33 1225,-172.67 1225,-172.67 1225,-168.83 1228.83,-165 1232.67,-165 1232.67,-165 1624.33,-165 1624.33,-165 1628.17,-165 1632,-168.83 1632,-172.67 1632,-172.67 1632,-180.33 1632,-180.33 1632,-184.17 1628.17,-188 1624.33,-188"/>
<text text-anchor="middle" x="1428.5" y="-172.8" font-family="Arial" font-size="14.00" fill="#c6c5fe">component/Dashboard/DashboardHeader/DatePickerArea.tsx</text>
</g>
<!-- component/Dashboard/DashboardHeader/TimeBlock.tsx&#45;&gt;component/Dashboard/DashboardHeader/DatePickerArea.tsx -->
<g id="edge25" class="edge">
<title>component/Dashboard/DashboardHeader/TimeBlock.tsx&#45;&gt;component/Dashboard/DashboardHeader/DatePickerArea.tsx</title>
<path fill="none" stroke="#757575" d="M1152.38,-176.5C1172.43,-176.5 1192.95,-176.5 1213.29,-176.5"/>
<polygon fill="#757575" stroke="#757575" points="1213.06,-180 1223.06,-176.5 1213.06,-173 1213.06,-180"/>
</g>
<!-- store/DashboardProvider.tsx&#45;&gt;common/date.ts -->
<g id="edge72" class="edge">
<title>store/DashboardProvider.tsx&#45;&gt;common/date.ts</title>
<path fill="none" stroke="#757575" d="M2035.26,-374.72C2117.79,-374.91 2233.95,-375.17 2307.6,-375.34"/>
<polygon fill="#757575" stroke="#757575" points="2307.52,-378.84 2317.53,-375.36 2307.54,-371.84 2307.52,-378.84"/>
</g>
<!-- store/WidgetPropsSettingModalProvider.tsx&#45;&gt;hook/useBoolean.tsx -->
<g id="edge73" class="edge">
<title>store/WidgetPropsSettingModalProvider.tsx&#45;&gt;hook/useBoolean.tsx</title>
<path fill="none" stroke="#757575" d="M2000.39,-427.47C2051.23,-433.37 2121.72,-432.49 2168,-394.5 2211.7,-358.63 2160.73,-308.88 2204,-272.5 2228.36,-252.02 2261.87,-244.94 2293,-243.73"/>
<polygon fill="#757575" stroke="#757575" points="2292.88,-247.23 2302.82,-243.56 2292.76,-240.24 2292.88,-247.23"/>
</g>
<!-- hook/useCurrentTime.tsx -->
<g id="node21" class="node">
<title>hook/useCurrentTime.tsx</title>
<path fill="none" stroke="#cfffac" d="M2016.33,-144C2016.33,-144 1856.67,-144 1856.67,-144 1852.83,-144 1849,-140.17 1849,-136.33 1849,-136.33 1849,-128.67 1849,-128.67 1849,-124.83 1852.83,-121 1856.67,-121 1856.67,-121 2016.33,-121 2016.33,-121 2020.17,-121 2024,-124.83 2024,-128.67 2024,-128.67 2024,-136.33 2024,-136.33 2024,-140.17 2020.17,-144 2016.33,-144"/>
<text text-anchor="middle" x="1936.5" y="-128.8" font-family="Arial" font-size="14.00" fill="#cfffac">hook/useCurrentTime.tsx</text>
</g>
<!-- component/Dashboard/DashboardHeader/CurrentTime.tsx&#45;&gt;hook/useCurrentTime.tsx -->
<g id="edge11" class="edge">
<title>component/Dashboard/DashboardHeader/CurrentTime.tsx&#45;&gt;hook/useCurrentTime.tsx</title>
<path fill="none" stroke="#757575" d="M1621.88,-133.74C1695.4,-133.45 1776.19,-133.13 1837.35,-132.89"/>
<polygon fill="#757575" stroke="#757575" points="1837.04,-136.39 1847.02,-132.85 1837.01,-129.39 1837.04,-136.39"/>
</g>
<!-- component/Dashboard/DashboardHeader/DateBox.tsx -->
<g id="node22" class="node">
<title>component/Dashboard/DashboardHeader/DateBox.tsx</title>
<path fill="none" stroke="#cfffac" d="M2109.83,-265C2109.83,-265 1763.17,-265 1763.17,-265 1759.33,-265 1755.5,-261.17 1755.5,-257.33 1755.5,-257.33 1755.5,-249.67 1755.5,-249.67 1755.5,-245.83 1759.33,-242 1763.17,-242 1763.17,-242 2109.83,-242 2109.83,-242 2113.67,-242 2117.5,-245.83 2117.5,-249.67 2117.5,-249.67 2117.5,-257.33 2117.5,-257.33 2117.5,-261.17 2113.67,-265 2109.83,-265"/>
<text text-anchor="middle" x="1936.5" y="-249.8" font-family="Arial" font-size="14.00" fill="#cfffac">component/Dashboard/DashboardHeader/DateBox.tsx</text>
</g>
<!-- component/Dashboard/DashboardHeader/DatePickerArea.tsx&#45;&gt;common/date.ts -->
<g id="edge12" class="edge">
<title>component/Dashboard/DashboardHeader/DatePickerArea.tsx&#45;&gt;common/date.ts</title>
<path fill="none" stroke="#757575" d="M1510.39,-164.51C1561.27,-161.56 1625.32,-166.89 1669,-202.5 1709.53,-235.54 1664.08,-281.95 1705,-314.5 1745.4,-346.64 2116.6,-348.64 2168,-353.5 2214.7,-357.91 2267.19,-363.41 2308.01,-367.81"/>
<polygon fill="#757575" stroke="#757575" points="2307.37,-371.26 2317.69,-368.85 2308.12,-364.3 2307.37,-371.26"/>
</g>
<!-- component/Dashboard/DashboardHeader/DatePickerArea.tsx&#45;&gt;store/DashboardProvider.tsx -->
<g id="edge17" class="edge">
<title>component/Dashboard/DashboardHeader/DatePickerArea.tsx&#45;&gt;store/DashboardProvider.tsx</title>
<path fill="none" stroke="#757575" d="M1498.7,-164.51C1551.6,-159.5 1623.04,-162.3 1669,-202.5 1719.31,-246.5 1654.79,-304.4 1705,-348.5 1743.31,-382.14 1800.1,-388.87 1847.72,-387.07"/>
<polygon fill="#757575" stroke="#757575" points="1847.67,-390.58 1857.47,-386.57 1847.3,-383.59 1847.67,-390.58"/>
</g>
<!-- component/Dashboard/DashboardHeader/DatePickerArea.tsx&#45;&gt;component/Dashboard/DashboardHeader/DateBox.tsx -->
<g id="edge13" class="edge">
<title>component/Dashboard/DashboardHeader/DatePickerArea.tsx&#45;&gt;component/Dashboard/DashboardHeader/DateBox.tsx</title>
<path fill="none" stroke="#757575" d="M1620.77,-188.5C1637.33,-192.16 1653.62,-196.75 1669,-202.5 1687.25,-209.32 1686.77,-220.64 1705,-227.5 1717.57,-232.23 1730.77,-236.16 1744.23,-239.43"/>
<polygon fill="#757575" stroke="#757575" points="1743.07,-242.76 1753.6,-241.58 1744.63,-235.93 1743.07,-242.76"/>
</g>
<!-- component/common/DatePicker.tsx -->
<g id="node24" class="node">
<title>component/common/DatePicker.tsx</title>
<path fill="none" stroke="#c6c5fe" d="M2049.83,-306C2049.83,-306 1823.17,-306 1823.17,-306 1819.33,-306 1815.5,-302.17 1815.5,-298.33 1815.5,-298.33 1815.5,-290.67 1815.5,-290.67 1815.5,-286.83 1819.33,-283 1823.17,-283 1823.17,-283 2049.83,-283 2049.83,-283 2053.67,-283 2057.5,-286.83 2057.5,-290.67 2057.5,-290.67 2057.5,-298.33 2057.5,-298.33 2057.5,-302.17 2053.67,-306 2049.83,-306"/>
<text text-anchor="middle" x="1936.5" y="-290.8" font-family="Arial" font-size="14.00" fill="#c6c5fe">component/common/DatePicker.tsx</text>
</g>
<!-- component/Dashboard/DashboardHeader/DatePickerArea.tsx&#45;&gt;component/common/DatePicker.tsx -->
<g id="edge14" class="edge">
<title>component/Dashboard/DashboardHeader/DatePickerArea.tsx&#45;&gt;component/common/DatePicker.tsx</title>
<path fill="none" stroke="#757575" d="M1632.24,-183.45C1645.24,-188.4 1657.65,-194.65 1669,-202.5 1698.1,-222.62 1675.72,-253.63 1705,-273.5 1733.73,-292.99 1769.32,-301.72 1803.87,-304.73"/>
<polygon fill="#757575" stroke="#757575" points="1803.31,-308.2 1813.53,-305.41 1803.8,-301.22 1803.31,-308.2"/>
</g>
<!-- component/Dashboard/DashboardHeader/DatePickerArea.tsx&#45;&gt;hook/useBoolean.tsx -->
<g id="edge15" class="edge">
<title>component/Dashboard/DashboardHeader/DatePickerArea.tsx&#45;&gt;hook/useBoolean.tsx</title>
<path fill="none" stroke="#757575" d="M1600.07,-188.5C1749.8,-199.25 1973.43,-215.86 2168,-232.5 2209.18,-236.02 2254.87,-240.33 2293.08,-244.04"/>
<polygon fill="#757575" stroke="#757575" points="2292.37,-247.48 2302.66,-244.97 2293.05,-240.52 2292.37,-247.48"/>
</g>
<!-- component/Dashboard/DashboardHeader/DatePickerArea.tsx&#45;&gt;hook/useOutsideClick.tsx -->
<g id="edge16" class="edge">
<title>component/Dashboard/DashboardHeader/DatePickerArea.tsx&#45;&gt;hook/useOutsideClick.tsx</title>
<path fill="none" stroke="#757575" d="M1632.39,-175.3C1702.76,-174.88 1778.52,-174.43 1836.69,-174.09"/>
<polygon fill="#757575" stroke="#757575" points="1836.6,-177.59 1846.57,-174.03 1836.55,-170.59 1836.6,-177.59"/>
</g>
<!-- component/common/DatePicker/DatePickerTitle.tsx -->
<g id="node45" class="node">
<title>component/common/DatePicker/DatePickerTitle.tsx</title>
<path fill="none" stroke="#c6c5fe" d="M2542.83,-305C2542.83,-305 2215.17,-305 2215.17,-305 2211.33,-305 2207.5,-301.17 2207.5,-297.33 2207.5,-297.33 2207.5,-289.67 2207.5,-289.67 2207.5,-285.83 2211.33,-282 2215.17,-282 2215.17,-282 2542.83,-282 2542.83,-282 2546.67,-282 2550.5,-285.83 2550.5,-289.67 2550.5,-289.67 2550.5,-297.33 2550.5,-297.33 2550.5,-301.17 2546.67,-305 2542.83,-305"/>
<text text-anchor="middle" x="2379" y="-289.8" font-family="Arial" font-size="14.00" fill="#c6c5fe">component/common/DatePicker/DatePickerTitle.tsx</text>
</g>
<!-- component/common/DatePicker.tsx&#45;&gt;component/common/DatePicker/DatePickerTitle.tsx -->
<g id="edge55" class="edge">
<title>component/common/DatePicker.tsx&#45;&gt;component/common/DatePicker/DatePickerTitle.tsx</title>
<path fill="none" stroke="#757575" d="M2057.87,-294.23C2100.35,-294.13 2149.11,-294.02 2195.56,-293.91"/>
<polygon fill="#757575" stroke="#757575" points="2195.5,-297.41 2205.49,-293.89 2195.48,-290.41 2195.5,-297.41"/>
</g>
<!-- component/common/DatePicker/ListPicker.tsx -->
<g id="node46" class="node">
<title>component/common/DatePicker/ListPicker.tsx</title>
<path fill="none" stroke="#c6c5fe" d="M2525.33,-346C2525.33,-346 2232.67,-346 2232.67,-346 2228.83,-346 2225,-342.17 2225,-338.33 2225,-338.33 2225,-330.67 2225,-330.67 2225,-326.83 2228.83,-323 2232.67,-323 2232.67,-323 2525.33,-323 2525.33,-323 2529.17,-323 2533,-326.83 2533,-330.67 2533,-330.67 2533,-338.33 2533,-338.33 2533,-342.17 2529.17,-346 2525.33,-346"/>
<text text-anchor="middle" x="2379" y="-330.8" font-family="Arial" font-size="14.00" fill="#c6c5fe">component/common/DatePicker/ListPicker.tsx</text>
</g>
<!-- component/common/DatePicker.tsx&#45;&gt;component/common/DatePicker/ListPicker.tsx -->
<g id="edge56" class="edge">
<title>component/common/DatePicker.tsx&#45;&gt;component/common/DatePicker/ListPicker.tsx</title>
<path fill="none" stroke="#757575" d="M2057.87,-305.43C2112.56,-310.4 2177.67,-316.31 2234.85,-321.5"/>
<polygon fill="#757575" stroke="#757575" points="2234.39,-324.97 2244.66,-322.39 2235.02,-318 2234.39,-324.97"/>
</g>
<!-- types/common.d.ts -->
<g id="node47" class="node">
<title>types/common.d.ts</title>
<path fill="none" stroke="#cfffac" d="M2819.33,-305C2819.33,-305 2697.67,-305 2697.67,-305 2693.83,-305 2690,-301.17 2690,-297.33 2690,-297.33 2690,-289.67 2690,-289.67 2690,-285.83 2693.83,-282 2697.67,-282 2697.67,-282 2819.33,-282 2819.33,-282 2823.17,-282 2827,-285.83 2827,-289.67 2827,-289.67 2827,-297.33 2827,-297.33 2827,-301.17 2823.17,-305 2819.33,-305"/>
<text text-anchor="middle" x="2758.5" y="-289.8" font-family="Arial" font-size="14.00" fill="#cfffac">types/common.d.ts</text>
</g>
<!-- component/common/DatePicker.tsx&#45;&gt;types/common.d.ts -->
<g id="edge57" class="edge">
<title>component/common/DatePicker.tsx&#45;&gt;types/common.d.ts</title>
<path fill="none" stroke="#757575" d="M2057.86,-300.69C2094.87,-298.18 2134.61,-290.73 2168,-273.5 2189.85,-262.22 2181.66,-241.77 2204,-231.5 2345.32,-166.5 2400.14,-208.58 2554,-231.5 2612.27,-240.18 2676.93,-262.11 2717.39,-277.41"/>
<polygon fill="#757575" stroke="#757575" points="2716.14,-280.68 2726.73,-280.99 2718.64,-274.14 2716.14,-280.68"/>
</g>
<!-- component/Widget/WidgetButtons.tsx&#45;&gt;store/WidgetProvider.tsx -->
<g id="edge32" class="edge">
<title>component/Widget/WidgetButtons.tsx&#45;&gt;store/WidgetProvider.tsx</title>
<path fill="none" stroke="#757575" d="M1557.21,-567.95C1594.76,-570.49 1634.88,-577.84 1669,-594.5 1690.2,-604.85 1683.84,-623.07 1705,-633.5 1745.78,-653.61 1795.53,-660.04 1838.36,-660.96"/>
<polygon fill="#757575" stroke="#757575" points="1838.12,-664.46 1848.16,-661.07 1838.19,-657.46 1838.12,-664.46"/>
</g>
<!-- component/Widget/WidgetButtons.tsx&#45;&gt;store/WidgetPropsSettingModalProvider.tsx -->
<g id="edge31" class="edge">
<title>component/Widget/WidgetButtons.tsx&#45;&gt;store/WidgetPropsSettingModalProvider.tsx</title>
<path fill="none" stroke="#757575" d="M1557.5,-580.96C1595.06,-578.28 1635.12,-570.66 1669,-553.5 1690.63,-542.54 1685.32,-526.67 1705,-512.5 1759.37,-473.34 1831.95,-446.14 1881.03,-430.71"/>
<polygon fill="#757575" stroke="#757575" points="1881.77,-434.15 1890.3,-427.86 1879.71,-427.46 1881.77,-434.15"/>
</g>
<!-- component/Widget/WidgetCallCycleSettingModal.tsx&#45;&gt;common/widget.ts -->
<g id="edge33" class="edge">
<title>component/Widget/WidgetCallCycleSettingModal.tsx&#45;&gt;common/widget.ts</title>
<path fill="none" stroke="#757575" d="M1474,-683.54C1528.18,-669.43 1622.64,-646.28 1705,-633.5 1755.94,-625.6 1813.73,-620.59 1858.7,-617.56"/>
<polygon fill="#757575" stroke="#757575" points="1858.88,-621.06 1868.63,-616.92 1858.42,-614.07 1858.88,-621.06"/>
</g>
<!-- component/Widget/WidgetCallCycleSettingModal/CycleInput.tsx -->
<g id="node33" class="node">
<title>component/Widget/WidgetCallCycleSettingModal/CycleInput.tsx</title>
<path fill="none" stroke="#cfffac" d="M2139.83,-748C2139.83,-748 1733.17,-748 1733.17,-748 1729.33,-748 1725.5,-744.17 1725.5,-740.33 1725.5,-740.33 1725.5,-732.67 1725.5,-732.67 1725.5,-728.83 1729.33,-725 1733.17,-725 1733.17,-725 2139.83,-725 2139.83,-725 2143.67,-725 2147.5,-728.83 2147.5,-732.67 2147.5,-732.67 2147.5,-740.33 2147.5,-740.33 2147.5,-744.17 2143.67,-748 2139.83,-748"/>
<text text-anchor="middle" x="1936.5" y="-732.8" font-family="Arial" font-size="14.00" fill="#cfffac">component/Widget/WidgetCallCycleSettingModal/CycleInput.tsx</text>
</g>
<!-- component/Widget/WidgetCallCycleSettingModal.tsx&#45;&gt;component/Widget/WidgetCallCycleSettingModal/CycleInput.tsx -->
<g id="edge34" class="edge">
<title>component/Widget/WidgetCallCycleSettingModal.tsx&#45;&gt;component/Widget/WidgetCallCycleSettingModal/CycleInput.tsx</title>
<path fill="none" stroke="#757575" d="M1577.56,-707.5C1640.01,-712.56 1712.84,-718.46 1776.44,-723.61"/>
<polygon fill="#757575" stroke="#757575" points="1776.03,-727.09 1786.28,-724.41 1776.6,-720.11 1776.03,-727.09"/>
</g>
<!-- component/Widget/WidgetCallCycleSettingModal/LastCallTimeBox.tsx -->
<g id="node34" class="node">
<title>component/Widget/WidgetCallCycleSettingModal/LastCallTimeBox.tsx</title>
<path fill="none" stroke="#cfffac" d="M2160.33,-707C2160.33,-707 1712.67,-707 1712.67,-707 1708.83,-707 1705,-703.17 1705,-699.33 1705,-699.33 1705,-691.67 1705,-691.67 1705,-687.83 1708.83,-684 1712.67,-684 1712.67,-684 2160.33,-684 2160.33,-684 2164.17,-684 2168,-687.83 2168,-691.67 2168,-691.67 2168,-699.33 2168,-699.33 2168,-703.17 2164.17,-707 2160.33,-707"/>
<text text-anchor="middle" x="1936.5" y="-691.8" font-family="Arial" font-size="14.00" fill="#cfffac">component/Widget/WidgetCallCycleSettingModal/LastCallTimeBox.tsx</text>
</g>
<!-- component/Widget/WidgetCallCycleSettingModal.tsx&#45;&gt;component/Widget/WidgetCallCycleSettingModal/LastCallTimeBox.tsx -->
<g id="edge35" class="edge">
<title>component/Widget/WidgetCallCycleSettingModal.tsx&#45;&gt;component/Widget/WidgetCallCycleSettingModal/LastCallTimeBox.tsx</title>
<path fill="none" stroke="#757575" d="M1604.35,-695.5C1633.09,-695.5 1663.34,-695.5 1693.37,-695.5"/>
<polygon fill="#757575" stroke="#757575" points="1693.36,-699 1703.36,-695.5 1693.36,-692 1693.36,-699"/>
</g>
<!-- component/chart/BarChart.tsx -->
<g id="node35" class="node">
<title>component/chart/BarChart.tsx</title>
<path fill="none" stroke="#c6c5fe" d="M2030.33,-789C2030.33,-789 1842.67,-789 1842.67,-789 1838.83,-789 1835,-785.17 1835,-781.33 1835,-781.33 1835,-773.67 1835,-773.67 1835,-769.83 1838.83,-766 1842.67,-766 1842.67,-766 2030.33,-766 2030.33,-766 2034.17,-766 2038,-769.83 2038,-773.67 2038,-773.67 2038,-781.33 2038,-781.33 2038,-785.17 2034.17,-789 2030.33,-789"/>
<text text-anchor="middle" x="1936.5" y="-773.8" font-family="Arial" font-size="14.00" fill="#c6c5fe">component/chart/BarChart.tsx</text>
</g>
<!-- component/Widget/WidgetChart.tsx&#45;&gt;component/chart/BarChart.tsx -->
<g id="edge36" class="edge">
<title>component/Widget/WidgetChart.tsx&#45;&gt;component/chart/BarChart.tsx</title>
<path fill="none" stroke="#757575" d="M1549.74,-792.75C1632.78,-789.47 1742.46,-785.13 1823.63,-781.92"/>
<polygon fill="#757575" stroke="#757575" points="1823.53,-785.43 1833.38,-781.54 1823.25,-778.43 1823.53,-785.43"/>
</g>
<!-- component/chart/InformaticsChart.tsx -->
<g id="node36" class="node">
<title>component/chart/InformaticsChart.tsx</title>
<path fill="none" stroke="#c6c5fe" d="M2054.83,-910C2054.83,-910 1818.17,-910 1818.17,-910 1814.33,-910 1810.5,-906.17 1810.5,-902.33 1810.5,-902.33 1810.5,-894.67 1810.5,-894.67 1810.5,-890.83 1814.33,-887 1818.17,-887 1818.17,-887 2054.83,-887 2054.83,-887 2058.67,-887 2062.5,-890.83 2062.5,-894.67 2062.5,-894.67 2062.5,-902.33 2062.5,-902.33 2062.5,-906.17 2058.67,-910 2054.83,-910"/>
<text text-anchor="middle" x="1936.5" y="-894.8" font-family="Arial" font-size="14.00" fill="#c6c5fe">component/chart/InformaticsChart.tsx</text>
</g>
<!-- component/Widget/WidgetChart.tsx&#45;&gt;component/chart/InformaticsChart.tsx -->
<g id="edge37" class="edge">
<title>component/Widget/WidgetChart.tsx&#45;&gt;component/chart/InformaticsChart.tsx</title>
<path fill="none" stroke="#757575" d="M1489.53,-809.48C1583.3,-828.2 1764.14,-864.3 1864.33,-884.29"/>
<polygon fill="#757575" stroke="#757575" points="1863.57,-887.71 1874.06,-886.24 1864.94,-880.85 1863.57,-887.71"/>
</g>
<!-- component/chart/LineChart.tsx -->
<g id="node37" class="node">
<title>component/chart/LineChart.tsx</title>
<path fill="none" stroke="#c6c5fe" d="M2033.33,-830C2033.33,-830 1839.67,-830 1839.67,-830 1835.83,-830 1832,-826.17 1832,-822.33 1832,-822.33 1832,-814.67 1832,-814.67 1832,-810.83 1835.83,-807 1839.67,-807 1839.67,-807 2033.33,-807 2033.33,-807 2037.17,-807 2041,-810.83 2041,-814.67 2041,-814.67 2041,-822.33 2041,-822.33 2041,-826.17 2037.17,-830 2033.33,-830"/>
<text text-anchor="middle" x="1936.5" y="-814.8" font-family="Arial" font-size="14.00" fill="#c6c5fe">component/chart/LineChart.tsx</text>
</g>
<!-- component/Widget/WidgetChart.tsx&#45;&gt;component/chart/LineChart.tsx -->
<g id="edge38" class="edge">
<title>component/Widget/WidgetChart.tsx&#45;&gt;component/chart/LineChart.tsx</title>
<path fill="none" stroke="#757575" d="M1549.74,-802.49C1631.67,-805.89 1739.52,-810.37 1820.35,-813.72"/>
<polygon fill="#757575" stroke="#757575" points="1819.92,-817.21 1830.05,-814.12 1820.21,-810.21 1819.92,-817.21"/>
</g>
<!-- hook/Widget/useHandleWidgetApi.tsx&#45;&gt;types/api.d.ts -->
<g id="edge65" class="edge">
<title>hook/Widget/useHandleWidgetApi.tsx&#45;&gt;types/api.d.ts</title>
<path fill="none" stroke="#757575" d="M1557.3,-544.71C1603.77,-548.28 1656.72,-551.75 1705,-553.5 2082.09,-567.17 2176.96,-564.41 2554,-549.5 2601.93,-547.6 2656.11,-543.8 2696.51,-540.63"/>
<polygon fill="#757575" stroke="#757575" points="2696.58,-544.13 2706.27,-539.85 2696.03,-537.16 2696.58,-544.13"/>
</g>
<!-- hook/Widget/useHandleWidgetApi.tsx&#45;&gt;common/date.ts -->
<g id="edge61" class="edge">
<title>hook/Widget/useHandleWidgetApi.tsx&#45;&gt;common/date.ts</title>
<path fill="none" stroke="#757575" d="M1557.22,-523.54C1760.79,-507.51 2138.98,-477.02 2168,-469.5 2235.26,-452.06 2308.08,-414.92 2347.84,-392.9"/>
<polygon fill="#757575" stroke="#757575" points="2349.35,-396.07 2356.36,-388.13 2345.93,-389.96 2349.35,-396.07"/>
</g>
<!-- hook/Widget/useHandleWidgetApi.tsx&#45;&gt;common/widget.ts -->
<g id="edge62" class="edge">
<title>hook/Widget/useHandleWidgetApi.tsx&#45;&gt;common/widget.ts</title>
<path fill="none" stroke="#757575" d="M1557.45,-528.48C1594.71,-531.13 1634.62,-538.14 1669,-553.5 1689.09,-562.48 1685.04,-578.23 1705,-587.5 1753,-609.78 1812.46,-616.04 1858.97,-616.85"/>
<polygon fill="#757575" stroke="#757575" points="1858.65,-620.35 1868.68,-616.93 1858.71,-613.35 1858.65,-620.35"/>
</g>
<!-- hook/Widget/useHandleWidgetApi.tsx&#45;&gt;store/DashboardProvider.tsx -->
<g id="edge64" class="edge">
<title>hook/Widget/useHandleWidgetApi.tsx&#45;&gt;store/DashboardProvider.tsx</title>
<path fill="none" stroke="#757575" d="M1447.21,-521.5C1489.55,-493.53 1600.91,-424.08 1705,-394.5 1743.68,-383.51 1787.36,-378.05 1826.22,-375.49"/>
<polygon fill="#757575" stroke="#757575" points="1826.29,-378.99 1836.06,-374.9 1825.87,-372 1826.29,-378.99"/>
</g>
<!-- hook/useGetApiList.tsx -->
<g id="node41" class="node">
<title>hook/useGetApiList.tsx</title>
<path fill="none" stroke="#c6c5fe" d="M2010.33,-545C2010.33,-545 1862.67,-545 1862.67,-545 1858.83,-545 1855,-541.17 1855,-537.33 1855,-537.33 1855,-529.67 1855,-529.67 1855,-525.83 1858.83,-522 1862.67,-522 1862.67,-522 2010.33,-522 2010.33,-522 2014.17,-522 2018,-525.83 2018,-529.67 2018,-529.67 2018,-537.33 2018,-537.33 2018,-541.17 2014.17,-545 2010.33,-545"/>
<text text-anchor="middle" x="1936.5" y="-529.8" font-family="Arial" font-size="14.00" fill="#c6c5fe">hook/useGetApiList.tsx</text>
</g>
<!-- hook/Widget/useHandleWidgetApi.tsx&#45;&gt;hook/useGetApiList.tsx -->
<g id="edge63" class="edge">
<title>hook/Widget/useHandleWidgetApi.tsx&#45;&gt;hook/useGetApiList.tsx</title>
<path fill="none" stroke="#757575" d="M1557.19,-533.5C1646.38,-533.5 1763.38,-533.5 1843.52,-533.5"/>
<polygon fill="#757575" stroke="#757575" points="1843.06,-537 1853.06,-533.5 1843.06,-530 1843.06,-537"/>
</g>
<!-- component/chart/BarChart.tsx&#45;&gt;common/chart.ts -->
<g id="edge44" class="edge">
<title>component/chart/BarChart.tsx&#45;&gt;common/chart.ts</title>
<path fill="none" stroke="#757575" d="M2038.49,-768.39C2078.78,-764.73 2125.59,-760.45 2168,-756.5 2214.07,-752.21 2265.8,-747.28 2306.4,-743.39"/>
<polygon fill="#757575" stroke="#757575" points="2306.68,-746.88 2316.3,-742.44 2306.01,-739.91 2306.68,-746.88"/>
</g>
<!-- component/chart/BarChart.tsx&#45;&gt;types/chart.d.ts -->
<g id="edge47" class="edge">
<title>component/chart/BarChart.tsx&#45;&gt;types/chart.d.ts</title>
<path fill="none" stroke="#757575" d="M2038.46,-784.35C2080.5,-783.24 2128.6,-776.54 2168,-756.5 2189.61,-745.51 2181.91,-725.5 2204,-715.5 2274.85,-683.42 2479.84,-692.05 2554,-715.5 2631.48,-740 2705.01,-805.75 2738.53,-838.87"/>
<polygon fill="#757575" stroke="#757575" points="2735.94,-841.22 2745.47,-845.84 2740.9,-836.28 2735.94,-841.22"/>
</g>
<!-- component/chart/ChartSvg.tsx -->
<g id="node42" class="node">
<title>component/chart/ChartSvg.tsx</title>
<path fill="none" stroke="#cfffac" d="M2474.33,-830C2474.33,-830 2283.67,-830 2283.67,-830 2279.83,-830 2276,-826.17 2276,-822.33 2276,-822.33 2276,-814.67 2276,-814.67 2276,-810.83 2279.83,-807 2283.67,-807 2283.67,-807 2474.33,-807 2474.33,-807 2478.17,-807 2482,-810.83 2482,-814.67 2482,-814.67 2482,-822.33 2482,-822.33 2482,-826.17 2478.17,-830 2474.33,-830"/>
<text text-anchor="middle" x="2379" y="-814.8" font-family="Arial" font-size="14.00" fill="#cfffac">component/chart/ChartSvg.tsx</text>
</g>
<!-- component/chart/BarChart.tsx&#45;&gt;component/chart/ChartSvg.tsx -->
<g id="edge45" class="edge">
<title>component/chart/BarChart.tsx&#45;&gt;component/chart/ChartSvg.tsx</title>
<path fill="none" stroke="#757575" d="M2038.22,-785.95C2078.58,-789.41 2125.51,-793.53 2168,-797.5 2199.27,-800.42 2233.15,-803.74 2264.38,-806.86"/>
<polygon fill="#757575" stroke="#757575" points="2263.95,-810.34 2274.25,-807.85 2264.65,-803.37 2263.95,-810.34"/>
</g>
<!-- hook/useResize.tsx -->
<g id="node43" class="node">
<title>hook/useResize.tsx</title>
<path fill="none" stroke="#cfffac" d="M2441.33,-789C2441.33,-789 2316.67,-789 2316.67,-789 2312.83,-789 2309,-785.17 2309,-781.33 2309,-781.33 2309,-773.67 2309,-773.67 2309,-769.83 2312.83,-766 2316.67,-766 2316.67,-766 2441.33,-766 2441.33,-766 2445.17,-766 2449,-769.83 2449,-773.67 2449,-773.67 2449,-781.33 2449,-781.33 2449,-785.17 2445.17,-789 2441.33,-789"/>
<text text-anchor="middle" x="2379" y="-773.8" font-family="Arial" font-size="14.00" fill="#cfffac">hook/useResize.tsx</text>
</g>
<!-- component/chart/BarChart.tsx&#45;&gt;hook/useResize.tsx -->
<g id="edge46" class="edge">
<title>component/chart/BarChart.tsx&#45;&gt;hook/useResize.tsx</title>
<path fill="none" stroke="#757575" d="M2038.28,-777.5C2116.75,-777.5 2224.23,-777.5 2297.13,-777.5"/>
<polygon fill="#757575" stroke="#757575" points="2297,-781 2307,-777.5 2297,-774 2297,-781"/>
</g>
<!-- component/chart/InformaticsChart.tsx&#45;&gt;types/chart.d.ts -->
<g id="edge49" class="edge">
<title>component/chart/InformaticsChart.tsx&#45;&gt;types/chart.d.ts</title>
<path fill="none" stroke="#757575" d="M2018.8,-910.48C2137.23,-925.85 2363.8,-947.39 2554,-919.5 2612.04,-910.99 2676.51,-889.51 2717.02,-874.46"/>
<polygon fill="#757575" stroke="#757575" points="2718.24,-877.74 2726.37,-870.93 2715.77,-871.19 2718.24,-877.74"/>
</g>
<!-- component/chart/InformaticsChart/InforMaticsBox.tsx -->
<g id="node44" class="node">
<title>component/chart/InformaticsChart/InforMaticsBox.tsx</title>
<path fill="none" stroke="#c6c5fe" d="M2546.33,-910C2546.33,-910 2211.67,-910 2211.67,-910 2207.83,-910 2204,-906.17 2204,-902.33 2204,-902.33 2204,-894.67 2204,-894.67 2204,-890.83 2207.83,-887 2211.67,-887 2211.67,-887 2546.33,-887 2546.33,-887 2550.17,-887 2554,-890.83 2554,-894.67 2554,-894.67 2554,-902.33 2554,-902.33 2554,-906.17 2550.17,-910 2546.33,-910"/>
<text text-anchor="middle" x="2379" y="-894.8" font-family="Arial" font-size="14.00" fill="#c6c5fe">component/chart/InformaticsChart/InforMaticsBox.tsx</text>
</g>
<!-- component/chart/InformaticsChart.tsx&#45;&gt;component/chart/InformaticsChart/InforMaticsBox.tsx -->
<g id="edge48" class="edge">
<title>component/chart/InformaticsChart.tsx&#45;&gt;component/chart/InformaticsChart/InforMaticsBox.tsx</title>
<path fill="none" stroke="#757575" d="M2062.85,-898.5C2103.09,-898.5 2148.55,-898.5 2192.18,-898.5"/>
<polygon fill="#757575" stroke="#757575" points="2192.01,-902 2202.01,-898.5 2192.01,-895 2192.01,-902"/>
</g>
<!-- component/chart/LineChart.tsx&#45;&gt;common/chart.ts -->
<g id="edge51" class="edge">
<title>component/chart/LineChart.tsx&#45;&gt;common/chart.ts</title>
<path fill="none" stroke="#757575" d="M2041.33,-825.27C2082.69,-823.92 2129.5,-817.08 2168,-797.5 2189.61,-786.51 2182.52,-767.75 2204,-756.5 2235.09,-740.22 2273.5,-734.56 2306.32,-733.24"/>
<polygon fill="#757575" stroke="#757575" points="2306.26,-736.75 2316.16,-732.99 2306.08,-729.75 2306.26,-736.75"/>
</g>
<!-- component/chart/LineChart.tsx&#45;&gt;types/chart.d.ts -->
<g id="edge54" class="edge">
<title>component/chart/LineChart.tsx&#45;&gt;types/chart.d.ts</title>
<path fill="none" stroke="#757575" d="M2041.21,-827.75C2090.49,-831.86 2150.25,-836.46 2204,-839.5 2379.34,-849.41 2586.24,-854.85 2690.41,-857.16"/>
<polygon fill="#757575" stroke="#757575" points="2690.1,-860.65 2700.17,-857.37 2690.25,-853.65 2690.1,-860.65"/>
</g>
<!-- component/chart/LineChart.tsx&#45;&gt;component/chart/ChartSvg.tsx -->
<g id="edge52" class="edge">
<title>component/chart/LineChart.tsx&#45;&gt;component/chart/ChartSvg.tsx</title>
<path fill="none" stroke="#757575" d="M2041.33,-818.5C2108.32,-818.5 2195.46,-818.5 2264.3,-818.5"/>
<polygon fill="#757575" stroke="#757575" points="2264.11,-822 2274.11,-818.5 2264.11,-815 2264.11,-822"/>
</g>
<!-- component/chart/LineChart.tsx&#45;&gt;hook/useResize.tsx -->
<g id="edge53" class="edge">
<title>component/chart/LineChart.tsx&#45;&gt;hook/useResize.tsx</title>
<path fill="none" stroke="#757575" d="M2041.35,-809.13C2080.99,-805.53 2126.59,-801.36 2168,-797.5 2210.81,-793.51 2258.53,-788.97 2297.64,-785.23"/>
<polygon fill="#757575" stroke="#757575" points="2297.83,-788.73 2307.45,-784.29 2297.17,-781.76 2297.83,-788.73"/>
</g>
<!-- component/Widget/WidgetPropsSettingModal.tsx -->
<g id="node38" class="node">
<title>component/Widget/WidgetPropsSettingModal.tsx</title>
<path fill="none" stroke="#c6c5fe" d="M1121.83,-448C1121.83,-448 808.17,-448 808.17,-448 804.33,-448 800.5,-444.17 800.5,-440.33 800.5,-440.33 800.5,-432.67 800.5,-432.67 800.5,-428.83 804.33,-425 808.17,-425 808.17,-425 1121.83,-425 1121.83,-425 1125.67,-425 1129.5,-428.83 1129.5,-432.67 1129.5,-432.67 1129.5,-440.33 1129.5,-440.33 1129.5,-444.17 1125.67,-448 1121.83,-448"/>
<text text-anchor="middle" x="965" y="-432.8" font-family="Arial" font-size="14.00" fill="#c6c5fe">component/Widget/WidgetPropsSettingModal.tsx</text>
</g>
<!-- component/Widget/WidgetPropsSettingModal.tsx&#45;&gt;store/WidgetPropsSettingModalProvider.tsx -->
<g id="edge42" class="edge">
<title>component/Widget/WidgetPropsSettingModal.tsx&#45;&gt;store/WidgetPropsSettingModalProvider.tsx</title>
<path fill="none" stroke="#757575" d="M1129.91,-432.95C1310.7,-429.03 1599.54,-422.78 1777.8,-418.92"/>
<polygon fill="#757575" stroke="#757575" points="1777.68,-422.42 1787.6,-418.7 1777.53,-415.42 1777.68,-422.42"/>
</g>
<!-- component/Widget/WidgetPropsSettingModal/WidgetPropsButtons.tsx -->
<g id="node39" class="node">
<title>component/Widget/WidgetPropsSettingModal/WidgetPropsButtons.tsx</title>
<path fill="none" stroke="#c6c5fe" d="M1653.33,-627C1653.33,-627 1203.67,-627 1203.67,-627 1199.83,-627 1196,-623.17 1196,-619.33 1196,-619.33 1196,-611.67 1196,-611.67 1196,-607.83 1199.83,-604 1203.67,-604 1203.67,-604 1653.33,-604 1653.33,-604 1657.17,-604 1661,-607.83 1661,-611.67 1661,-611.67 1661,-619.33 1661,-619.33 1661,-623.17 1657.17,-627 1653.33,-627"/>
<text text-anchor="middle" x="1428.5" y="-611.8" font-family="Arial" font-size="14.00" fill="#c6c5fe">component/Widget/WidgetPropsSettingModal/WidgetPropsButtons.tsx</text>
</g>
<!-- component/Widget/WidgetPropsSettingModal.tsx&#45;&gt;component/Widget/WidgetPropsSettingModal/WidgetPropsButtons.tsx -->
<g id="edge39" class="edge">
<title>component/Widget/WidgetPropsSettingModal.tsx&#45;&gt;component/Widget/WidgetPropsSettingModal/WidgetPropsButtons.tsx</title>
<path fill="none" stroke="#757575" d="M989.49,-448.41C1026.26,-467.66 1098.72,-508.09 1152,-553.5 1170.46,-569.23 1166.37,-583.54 1188,-594.5 1191.35,-596.2 1194.76,-597.8 1198.23,-599.32"/>
<polygon fill="#757575" stroke="#757575" points="1196.78,-602.51 1207.36,-603.03 1199.42,-596.02 1196.78,-602.51"/>
</g>
<!-- component/Widget/WidgetPropsSettingModal/WidgetPropsList.tsx -->
<g id="node40" class="node">
<title>component/Widget/WidgetPropsSettingModal/WidgetPropsList.tsx</title>
<path fill="none" stroke="#cfffac" d="M1640.83,-389C1640.83,-389 1216.17,-389 1216.17,-389 1212.33,-389 1208.5,-385.17 1208.5,-381.33 1208.5,-381.33 1208.5,-373.67 1208.5,-373.67 1208.5,-369.83 1212.33,-366 1216.17,-366 1216.17,-366 1640.83,-366 1640.83,-366 1644.67,-366 1648.5,-369.83 1648.5,-373.67 1648.5,-373.67 1648.5,-381.33 1648.5,-381.33 1648.5,-385.17 1644.67,-389 1640.83,-389"/>
<text text-anchor="middle" x="1428.5" y="-373.8" font-family="Arial" font-size="14.00" fill="#cfffac">component/Widget/WidgetPropsSettingModal/WidgetPropsList.tsx</text>
</g>
<!-- component/Widget/WidgetPropsSettingModal.tsx&#45;&gt;component/Widget/WidgetPropsSettingModal/WidgetPropsList.tsx -->
<g id="edge40" class="edge">
<title>component/Widget/WidgetPropsSettingModal.tsx&#45;&gt;component/Widget/WidgetPropsSettingModal/WidgetPropsList.tsx</title>
<path fill="none" stroke="#757575" d="M1041.42,-424.53C1084.33,-417.92 1139.11,-409.78 1188,-403.5 1223.37,-398.95 1261.75,-394.55 1297.21,-390.7"/>
<polygon fill="#757575" stroke="#757575" points="1297.54,-394.18 1307.11,-389.63 1296.79,-387.23 1297.54,-394.18"/>
</g>
<!-- component/Widget/WidgetPropsSettingModal.tsx&#45;&gt;hook/useGetApiList.tsx -->
<g id="edge41" class="edge">
<title>component/Widget/WidgetPropsSettingModal.tsx&#45;&gt;hook/useGetApiList.tsx</title>
<path fill="none" stroke="#757575" d="M1085.85,-448.49C1281.92,-468.11 1667.02,-506.64 1843.36,-524.28"/>
<polygon fill="#757575" stroke="#757575" points="1842.87,-527.75 1853.17,-525.26 1843.56,-520.78 1842.87,-527.75"/>
</g>
<!-- component/Widget/WidgetPropsSettingModal/WidgetPropsButtons.tsx&#45;&gt;store/WidgetProvider.tsx -->
<g id="edge43" class="edge">
<title>component/Widget/WidgetPropsSettingModal/WidgetPropsButtons.tsx&#45;&gt;store/WidgetProvider.tsx</title>
<path fill="none" stroke="#757575" d="M1585.1,-627.49C1667.81,-633.87 1766.91,-641.51 1838.58,-647.03"/>
<polygon fill="#757575" stroke="#757575" points="1838.09,-650.5 1848.33,-647.78 1838.63,-643.52 1838.09,-650.5"/>
</g>
<!-- hook/useGetApiList.tsx&#45;&gt;common/api.ts -->
<g id="edge66" class="edge">
<title>hook/useGetApiList.tsx&#45;&gt;common/api.ts</title>
<path fill="none" stroke="#757575" d="M2018.29,-526.53C2102.93,-519.23 2234.23,-507.9 2312.6,-501.14"/>
<polygon fill="#757575" stroke="#757575" points="2312.59,-504.66 2322.25,-500.31 2311.99,-497.68 2312.59,-504.66"/>
</g>
<!-- hook/useGetApiList.tsx&#45;&gt;types/api.d.ts -->
<g id="edge67" class="edge">
<title>hook/useGetApiList.tsx&#45;&gt;types/api.d.ts</title>
<path fill="none" stroke="#757575" d="M2018.37,-533.7C2182.22,-534.1 2550.18,-534.99 2696.15,-535.35"/>
<polygon fill="#757575" stroke="#757575" points="2695.99,-538.85 2706,-535.37 2696.01,-531.85 2695.99,-538.85"/>
</g>
<!-- component/chart/InformaticsChart/InforMaticsBox.tsx&#45;&gt;types/chart.d.ts -->
<g id="edge50" class="edge">
<title>component/chart/InformaticsChart/InforMaticsBox.tsx&#45;&gt;types/chart.d.ts</title>
<path fill="none" stroke="#757575" d="M2493.01,-886.53C2557.29,-879.71 2635.63,-871.41 2690.3,-865.62"/>
<polygon fill="#757575" stroke="#757575" points="2690.51,-869.12 2700.09,-864.58 2689.77,-862.16 2690.51,-869.12"/>
</g>
<!-- component/common/DatePicker/DatePickerTitle.tsx&#45;&gt;types/common.d.ts -->
<g id="edge58" class="edge">
<title>component/common/DatePicker/DatePickerTitle.tsx&#45;&gt;types/common.d.ts</title>
<path fill="none" stroke="#757575" d="M2550.8,-293.5C2595.39,-293.5 2641.32,-293.5 2678.53,-293.5"/>
<polygon fill="#757575" stroke="#757575" points="2678.28,-297 2688.28,-293.5 2678.28,-290 2678.28,-297"/>
</g>
<!-- component/common/DatePicker/ListPicker.tsx&#45;&gt;types/common.d.ts -->
<g id="edge60" class="edge">
<title>component/common/DatePicker/ListPicker.tsx&#45;&gt;types/common.d.ts</title>
<path fill="none" stroke="#757575" d="M2490.46,-322.5C2550.69,-315.96 2623.85,-308.02 2678.35,-302.1"/>
<polygon fill="#757575" stroke="#757575" points="2678.62,-305.59 2688.18,-301.03 2677.86,-298.63 2678.62,-305.59"/>
</g>
<!-- component/common/DatePicker/ListPickerItem.tsx -->
<g id="node48" class="node">
<title>component/common/DatePicker/ListPickerItem.tsx</title>
<path fill="none" stroke="#cfffac" d="M2919.33,-346C2919.33,-346 2597.67,-346 2597.67,-346 2593.83,-346 2590,-342.17 2590,-338.33 2590,-338.33 2590,-330.67 2590,-330.67 2590,-326.83 2593.83,-323 2597.67,-323 2597.67,-323 2919.33,-323 2919.33,-323 2923.17,-323 2927,-326.83 2927,-330.67 2927,-330.67 2927,-338.33 2927,-338.33 2927,-342.17 2923.17,-346 2919.33,-346"/>
<text text-anchor="middle" x="2758.5" y="-330.8" font-family="Arial" font-size="14.00" fill="#cfffac">component/common/DatePicker/ListPickerItem.tsx</text>
</g>
<!-- component/common/DatePicker/ListPicker.tsx&#45;&gt;component/common/DatePicker/ListPickerItem.tsx -->
<g id="edge59" class="edge">
<title>component/common/DatePicker/ListPicker.tsx&#45;&gt;component/common/DatePicker/ListPickerItem.tsx</title>
<path fill="none" stroke="#757575" d="M2533.27,-334.5C2548.08,-334.5 2563.2,-334.5 2578.23,-334.5"/>
<polygon fill="#757575" stroke="#757575" points="2578.19,-338 2588.19,-334.5 2578.19,-331 2578.19,-338"/>
</g>
<!-- page/Dashboard.tsx&#45;&gt;component/Dashboard/DashboardBody.tsx -->
<g id="edge68" class="edge">
<title>page/Dashboard.tsx&#45;&gt;component/Dashboard/DashboardBody.tsx</title>
<path fill="none" stroke="#757575" d="M353.95,-448.27C399.45,-472.65 504.19,-528.78 557.33,-557.26"/>
<polygon fill="#757575" stroke="#757575" points="555.43,-560.21 565.9,-561.85 558.74,-554.04 555.43,-560.21"/>
</g>
<!-- page/Dashboard.tsx&#45;&gt;component/Dashboard/DashboardHeader.tsx -->
<g id="edge69" class="edge">
<title>page/Dashboard.tsx&#45;&gt;component/Dashboard/DashboardHeader.tsx</title>
<path fill="none" stroke="#757575" d="M347.34,-424.59C390.45,-391.1 512.99,-295.93 565.32,-255.28"/>
<polygon fill="#757575" stroke="#757575" points="567.3,-258.18 573.05,-249.28 563,-252.65 567.3,-258.18"/>
</g>
<!-- page/Dashboard.tsx&#45;&gt;component/Widget/WidgetPropsSettingModal.tsx -->
<g id="edge70" class="edge">
<title>page/Dashboard.tsx&#45;&gt;component/Widget/WidgetPropsSettingModal.tsx</title>
<path fill="none" stroke="#757575" d="M403.27,-436.5C496.1,-436.5 661.55,-436.5 788.75,-436.5"/>
<polygon fill="#757575" stroke="#757575" points="788.64,-440 798.64,-436.5 788.64,-433 788.64,-440"/>
</g>
</g>
</svg>
