<?xml version="1.0" encoding="UTF-8" standalone="no"?>
<!DOCTYPE svg PUBLIC "-//W3C//DTD SVG 1.1//EN"
 "http://www.w3.org/Graphics/SVG/1.1/DTD/svg11.dtd">
<!-- Generated by graphviz version 7.1.0 (20230121.1956)
 -->
<!-- Title: G Pages: 1 -->
<svg width="3080pt" height="1035pt"
 viewBox="0.00 0.00 3080.20 1035.05" xmlns="http://www.w3.org/2000/svg" xmlns:xlink="http://www.w3.org/1999/xlink">
<g id="graph0" class="graph" transform="scale(1 1) rotate(0) translate(21.6 1013.45)">
<title>G</title>
<polygon fill="#111111" stroke="none" points="-21.6,21.6 -21.6,-1013.45 3058.6,-1013.45 3058.6,21.6 -21.6,21.6"/>
<!-- App.tsx -->
<g id="node1" class="node">
<title>App.tsx</title>
<path fill="none" stroke="#c6c5fe" d="M57.33,-689.85C57.33,-689.85 7.67,-689.85 7.67,-689.85 3.83,-689.85 0,-686.02 0,-682.19 0,-682.19 0,-674.52 0,-674.52 0,-670.69 3.83,-666.85 7.67,-666.85 7.67,-666.85 57.33,-666.85 57.33,-666.85 61.17,-666.85 65,-670.69 65,-674.52 65,-674.52 65,-682.19 65,-682.19 65,-686.02 61.17,-689.85 57.33,-689.85"/>
<text text-anchor="middle" x="32.5" y="-674.65" font-family="Arial" font-size="14.00" fill="#c6c5fe">App.tsx</text>
</g>
<!-- router/Router.tsx -->
<g id="node2" class="node">
<title>router/Router.tsx</title>
<path fill="none" stroke="#c6c5fe" d="M215.33,-689.85C215.33,-689.85 108.67,-689.85 108.67,-689.85 104.83,-689.85 101,-686.02 101,-682.19 101,-682.19 101,-674.52 101,-674.52 101,-670.69 104.83,-666.85 108.67,-666.85 108.67,-666.85 215.33,-666.85 215.33,-666.85 219.17,-666.85 223,-670.69 223,-674.52 223,-674.52 223,-682.19 223,-682.19 223,-686.02 219.17,-689.85 215.33,-689.85"/>
<text text-anchor="middle" x="162" y="-674.65" font-family="Arial" font-size="14.00" fill="#c6c5fe">router/Router.tsx</text>
</g>
<!-- App.tsx&#45;&gt;router/Router.tsx -->
<g id="edge1" class="edge">
<title>App.tsx&#45;&gt;router/Router.tsx</title>
<path fill="none" stroke="#757575" d="M65.34,-678.35C72.7,-678.35 80.81,-678.35 89.12,-678.35"/>
<polygon fill="#757575" stroke="#757575" points="88.99,-681.85 98.99,-678.35 88.99,-674.85 88.99,-681.85"/>
</g>
<!-- page/Dashboard.tsx -->
<g id="node48" class="node">
<title>page/Dashboard.tsx</title>
<path fill="none" stroke="#c6c5fe" d="M395.33,-689.85C395.33,-689.85 266.67,-689.85 266.67,-689.85 262.83,-689.85 259,-686.02 259,-682.19 259,-682.19 259,-674.52 259,-674.52 259,-670.69 262.83,-666.85 266.67,-666.85 266.67,-666.85 395.33,-666.85 395.33,-666.85 399.17,-666.85 403,-670.69 403,-674.52 403,-674.52 403,-682.19 403,-682.19 403,-686.02 399.17,-689.85 395.33,-689.85"/>
<text text-anchor="middle" x="331" y="-674.65" font-family="Arial" font-size="14.00" fill="#c6c5fe">page/Dashboard.tsx</text>
</g>
<!-- router/Router.tsx&#45;&gt;page/Dashboard.tsx -->
<g id="edge70" class="edge">
<title>router/Router.tsx&#45;&gt;page/Dashboard.tsx</title>
<path fill="none" stroke="#757575" d="M223.29,-678.35C231.1,-678.35 239.21,-678.35 247.3,-678.35"/>
<polygon fill="#757575" stroke="#757575" points="247.19,-681.85 257.19,-678.35 247.19,-674.85 247.19,-681.85"/>
</g>
<!-- asset/image/pause.png -->
<g id="node3" class="node">
<title>asset/image/pause.png</title>
<path fill="none" stroke="#cfffac" d="M1619.83,-885.85C1619.83,-885.85 1471.17,-885.85 1471.17,-885.85 1467.33,-885.85 1463.5,-882.02 1463.5,-878.19 1463.5,-878.19 1463.5,-870.52 1463.5,-870.52 1463.5,-866.69 1467.33,-862.85 1471.17,-862.85 1471.17,-862.85 1619.83,-862.85 1619.83,-862.85 1623.67,-862.85 1627.5,-866.69 1627.5,-870.52 1627.5,-870.52 1627.5,-878.19 1627.5,-878.19 1627.5,-882.02 1623.67,-885.85 1619.83,-885.85"/>
<text text-anchor="middle" x="1545.5" y="-870.65" font-family="Arial" font-size="14.00" fill="#cfffac">asset/image/pause.png</text>
</g>
<!-- asset/image/play.png -->
<g id="node4" class="node">
<title>asset/image/play.png</title>
<path fill="none" stroke="#cfffac" d="M1613.33,-926.85C1613.33,-926.85 1477.67,-926.85 1477.67,-926.85 1473.83,-926.85 1470,-923.02 1470,-919.19 1470,-919.19 1470,-911.52 1470,-911.52 1470,-907.69 1473.83,-903.85 1477.67,-903.85 1477.67,-903.85 1613.33,-903.85 1613.33,-903.85 1617.17,-903.85 1621,-907.69 1621,-911.52 1621,-911.52 1621,-919.19 1621,-919.19 1621,-923.02 1617.17,-926.85 1613.33,-926.85"/>
<text text-anchor="middle" x="1545.5" y="-911.65" font-family="Arial" font-size="14.00" fill="#cfffac">asset/image/play.png</text>
</g>
<!-- common/api.ts -->
<g id="node5" class="node">
<title>common/api.ts</title>
<path fill="none" stroke="#c6c5fe" d="M2100.83,-531.85C2100.83,-531.85 2006.17,-531.85 2006.17,-531.85 2002.33,-531.85 1998.5,-528.02 1998.5,-524.19 1998.5,-524.19 1998.5,-516.52 1998.5,-516.52 1998.5,-512.69 2002.33,-508.85 2006.17,-508.85 2006.17,-508.85 2100.83,-508.85 2100.83,-508.85 2104.67,-508.85 2108.5,-512.69 2108.5,-516.52 2108.5,-516.52 2108.5,-524.19 2108.5,-524.19 2108.5,-528.02 2104.67,-531.85 2100.83,-531.85"/>
<text text-anchor="middle" x="2053.5" y="-516.65" font-family="Arial" font-size="14.00" fill="#c6c5fe">common/api.ts</text>
</g>
<!-- types/api.d.ts -->
<g id="node6" class="node">
<title>types/api.d.ts</title>
<path fill="none" stroke="#cfffac" d="M2535.33,-531.85C2535.33,-531.85 2449.67,-531.85 2449.67,-531.85 2445.83,-531.85 2442,-528.02 2442,-524.19 2442,-524.19 2442,-516.52 2442,-516.52 2442,-512.69 2445.83,-508.85 2449.67,-508.85 2449.67,-508.85 2535.33,-508.85 2535.33,-508.85 2539.17,-508.85 2543,-512.69 2543,-516.52 2543,-516.52 2543,-524.19 2543,-524.19 2543,-528.02 2539.17,-531.85 2535.33,-531.85"/>
<text text-anchor="middle" x="2492.5" y="-516.65" font-family="Arial" font-size="14.00" fill="#cfffac">types/api.d.ts</text>
</g>
<!-- common/api.ts&#45;&gt;types/api.d.ts -->
<g id="edge2" class="edge">
<title>common/api.ts&#45;&gt;types/api.d.ts</title>
<path fill="none" stroke="#757575" d="M2108.96,-520.35C2190.77,-520.35 2344.89,-520.35 2430.41,-520.35"/>
<polygon fill="#757575" stroke="#757575" points="2430.25,-523.85 2440.25,-520.35 2430.25,-516.85 2430.25,-523.85"/>
</g>
<!-- common/chart.ts -->
<g id="node7" class="node">
<title>common/chart.ts</title>
<path fill="none" stroke="#c6c5fe" d="M2106.83,-171.85C2106.83,-171.85 2000.17,-171.85 2000.17,-171.85 1996.33,-171.85 1992.5,-168.02 1992.5,-164.19 1992.5,-164.19 1992.5,-156.52 1992.5,-156.52 1992.5,-152.69 1996.33,-148.85 2000.17,-148.85 2000.17,-148.85 2106.83,-148.85 2106.83,-148.85 2110.67,-148.85 2114.5,-152.69 2114.5,-156.52 2114.5,-156.52 2114.5,-164.19 2114.5,-164.19 2114.5,-168.02 2110.67,-171.85 2106.83,-171.85"/>
<text text-anchor="middle" x="2053.5" y="-156.65" font-family="Arial" font-size="14.00" fill="#c6c5fe">common/chart.ts</text>
</g>
<!-- types/chart.d.ts -->
<g id="node8" class="node">
<title>types/chart.d.ts</title>
<path fill="none" stroke="#cfffac" d="M2541.33,-231.85C2541.33,-231.85 2443.67,-231.85 2443.67,-231.85 2439.83,-231.85 2436,-228.02 2436,-224.19 2436,-224.19 2436,-216.52 2436,-216.52 2436,-212.69 2439.83,-208.85 2443.67,-208.85 2443.67,-208.85 2541.33,-208.85 2541.33,-208.85 2545.17,-208.85 2549,-212.69 2549,-216.52 2549,-216.52 2549,-224.19 2549,-224.19 2549,-228.02 2545.17,-231.85 2541.33,-231.85"/>
<text text-anchor="middle" x="2492.5" y="-216.65" font-family="Arial" font-size="14.00" fill="#cfffac">types/chart.d.ts</text>
</g>
<!-- common/chart.ts&#45;&gt;types/chart.d.ts -->
<g id="edge3" class="edge">
<title>common/chart.ts&#45;&gt;types/chart.d.ts</title>
<path fill="none" stroke="#757575" d="M2114.79,-166.3C2161.35,-171.11 2227.36,-178.36 2285,-186.35 2331.61,-192.81 2383.92,-201.44 2424.22,-208.39"/>
<polygon fill="#757575" stroke="#757575" points="2423.58,-211.83 2434.03,-210.09 2424.78,-204.93 2423.58,-211.83"/>
</g>
<!-- common/date.ts -->
<g id="node9" class="node">
<title>common/date.ts</title>
<path fill="none" stroke="#cfffac" d="M2544.33,-649.85C2544.33,-649.85 2440.67,-649.85 2440.67,-649.85 2436.83,-649.85 2433,-646.02 2433,-642.19 2433,-642.19 2433,-634.52 2433,-634.52 2433,-630.69 2436.83,-626.85 2440.67,-626.85 2440.67,-626.85 2544.33,-626.85 2544.33,-626.85 2548.17,-626.85 2552,-630.69 2552,-634.52 2552,-634.52 2552,-642.19 2552,-642.19 2552,-646.02 2548.17,-649.85 2544.33,-649.85"/>
<text text-anchor="middle" x="2492.5" y="-634.65" font-family="Arial" font-size="14.00" fill="#cfffac">common/date.ts</text>
</g>
<!-- common/widget.ts -->
<g id="node10" class="node">
<title>common/widget.ts</title>
<path fill="none" stroke="#cfffac" d="M2111.83,-413.85C2111.83,-413.85 1995.17,-413.85 1995.17,-413.85 1991.33,-413.85 1987.5,-410.02 1987.5,-406.19 1987.5,-406.19 1987.5,-398.52 1987.5,-398.52 1987.5,-394.69 1991.33,-390.85 1995.17,-390.85 1995.17,-390.85 2111.83,-390.85 2111.83,-390.85 2115.67,-390.85 2119.5,-394.69 2119.5,-398.52 2119.5,-398.52 2119.5,-406.19 2119.5,-406.19 2119.5,-410.02 2115.67,-413.85 2111.83,-413.85"/>
<text text-anchor="middle" x="2053.5" y="-398.65" font-family="Arial" font-size="14.00" fill="#cfffac">common/widget.ts</text>
</g>
<!-- component/Dashboard/DashboardHeader.tsx -->
<g id="node11" class="node">
<title>component/Dashboard/DashboardHeader.tsx</title>
<path fill="none" stroke="#c6c5fe" d="M747.33,-824.85C747.33,-824.85 459.67,-824.85 459.67,-824.85 455.83,-824.85 452,-821.02 452,-817.19 452,-817.19 452,-809.52 452,-809.52 452,-805.69 455.83,-801.85 459.67,-801.85 459.67,-801.85 747.33,-801.85 747.33,-801.85 751.17,-801.85 755,-805.69 755,-809.52 755,-809.52 755,-817.19 755,-817.19 755,-821.02 751.17,-824.85 747.33,-824.85"/>
<text text-anchor="middle" x="603.5" y="-809.65" font-family="Arial" font-size="14.00" fill="#c6c5fe">component/Dashboard/DashboardHeader.tsx</text>
</g>
<!-- component/Dashboard/DashboardHeader/PlayIcon.tsx -->
<g id="node12" class="node">
<title>component/Dashboard/DashboardHeader/PlayIcon.tsx</title>
<path fill="none" stroke="#c6c5fe" d="M1209.83,-885.85C1209.83,-885.85 863.17,-885.85 863.17,-885.85 859.33,-885.85 855.5,-882.02 855.5,-878.19 855.5,-878.19 855.5,-870.52 855.5,-870.52 855.5,-866.69 859.33,-862.85 863.17,-862.85 863.17,-862.85 1209.83,-862.85 1209.83,-862.85 1213.67,-862.85 1217.5,-866.69 1217.5,-870.52 1217.5,-870.52 1217.5,-878.19 1217.5,-878.19 1217.5,-882.02 1213.67,-885.85 1209.83,-885.85"/>
<text text-anchor="middle" x="1036.5" y="-870.65" font-family="Arial" font-size="14.00" fill="#c6c5fe">component/Dashboard/DashboardHeader/PlayIcon.tsx</text>
</g>
<!-- component/Dashboard/DashboardHeader.tsx&#45;&gt;component/Dashboard/DashboardHeader/PlayIcon.tsx -->
<g id="edge4" class="edge">
<title>component/Dashboard/DashboardHeader.tsx&#45;&gt;component/Dashboard/DashboardHeader/PlayIcon.tsx</title>
<path fill="none" stroke="#757575" d="M656.32,-825.33C696.43,-834.22 753.49,-846.02 804,-853.35 824.23,-856.29 845.51,-858.89 866.64,-861.16"/>
<polygon fill="#757575" stroke="#757575" points="866.2,-864.63 876.51,-862.2 866.93,-857.67 866.2,-864.63"/>
</g>
<!-- component/Dashboard/DashboardHeader/SelectRealTimeRangeArea.tsx -->
<g id="node13" class="node">
<title>component/Dashboard/DashboardHeader/SelectRealTimeRangeArea.tsx</title>
<path fill="none" stroke="#c6c5fe" d="M1778.33,-967.85C1778.33,-967.85 1312.67,-967.85 1312.67,-967.85 1308.83,-967.85 1305,-964.02 1305,-960.19 1305,-960.19 1305,-952.52 1305,-952.52 1305,-948.69 1308.83,-944.85 1312.67,-944.85 1312.67,-944.85 1778.33,-944.85 1778.33,-944.85 1782.17,-944.85 1786,-948.69 1786,-952.52 1786,-952.52 1786,-960.19 1786,-960.19 1786,-964.02 1782.17,-967.85 1778.33,-967.85"/>
<text text-anchor="middle" x="1545.5" y="-952.65" font-family="Arial" font-size="14.00" fill="#c6c5fe">component/Dashboard/DashboardHeader/SelectRealTimeRangeArea.tsx</text>
</g>
<!-- component/Dashboard/DashboardHeader.tsx&#45;&gt;component/Dashboard/DashboardHeader/SelectRealTimeRangeArea.tsx -->
<g id="edge5" class="edge">
<title>component/Dashboard/DashboardHeader.tsx&#45;&gt;component/Dashboard/DashboardHeader/SelectRealTimeRangeArea.tsx</title>
<path fill="none" stroke="#757575" d="M627.39,-825.33C663.71,-843.7 737.28,-878.41 804,-894.35 964.2,-932.64 1148.79,-948.16 1293.6,-954.1"/>
<polygon fill="#757575" stroke="#757575" points="1293.19,-957.58 1303.32,-954.48 1293.47,-950.59 1293.19,-957.58"/>
</g>
<!-- component/Dashboard/DashboardHeader/TimeBlock.tsx -->
<g id="node14" class="node">
<title>component/Dashboard/DashboardHeader/TimeBlock.tsx</title>
<path fill="none" stroke="#c6c5fe" d="M1215.83,-844.85C1215.83,-844.85 857.17,-844.85 857.17,-844.85 853.33,-844.85 849.5,-841.02 849.5,-837.19 849.5,-837.19 849.5,-829.52 849.5,-829.52 849.5,-825.69 853.33,-821.85 857.17,-821.85 857.17,-821.85 1215.83,-821.85 1215.83,-821.85 1219.67,-821.85 1223.5,-825.69 1223.5,-829.52 1223.5,-829.52 1223.5,-837.19 1223.5,-837.19 1223.5,-841.02 1219.67,-844.85 1215.83,-844.85"/>
<text text-anchor="middle" x="1036.5" y="-829.65" font-family="Arial" font-size="14.00" fill="#c6c5fe">component/Dashboard/DashboardHeader/TimeBlock.tsx</text>
</g>
<!-- component/Dashboard/DashboardHeader.tsx&#45;&gt;component/Dashboard/DashboardHeader/TimeBlock.tsx -->
<g id="edge6" class="edge">
<title>component/Dashboard/DashboardHeader.tsx&#45;&gt;component/Dashboard/DashboardHeader/TimeBlock.tsx</title>
<path fill="none" stroke="#757575" d="M755.24,-820.35C781.91,-821.58 810.04,-822.89 837.77,-824.18"/>
<polygon fill="#757575" stroke="#757575" points="837.55,-827.67 847.7,-824.64 837.87,-820.68 837.55,-827.67"/>
</g>
<!-- store/DashboardProvider.tsx -->
<g id="node15" class="node">
<title>store/DashboardProvider.tsx</title>
<path fill="none" stroke="#c6c5fe" d="M2144.33,-649.85C2144.33,-649.85 1962.67,-649.85 1962.67,-649.85 1958.83,-649.85 1955,-646.02 1955,-642.19 1955,-642.19 1955,-634.52 1955,-634.52 1955,-630.69 1958.83,-626.85 1962.67,-626.85 1962.67,-626.85 2144.33,-626.85 2144.33,-626.85 2148.17,-626.85 2152,-630.69 2152,-634.52 2152,-634.52 2152,-642.19 2152,-642.19 2152,-646.02 2148.17,-649.85 2144.33,-649.85"/>
<text text-anchor="middle" x="2053.5" y="-634.65" font-family="Arial" font-size="14.00" fill="#c6c5fe">store/DashboardProvider.tsx</text>
</g>
<!-- component/Dashboard/DashboardHeader.tsx&#45;&gt;store/DashboardProvider.tsx -->
<g id="edge7" class="edge">
<title>component/Dashboard/DashboardHeader.tsx&#45;&gt;store/DashboardProvider.tsx</title>
<path fill="none" stroke="#757575" d="M755.17,-806.32C890.02,-799.33 1093,-787.07 1269,-769.35 1499.71,-746.12 1581.67,-808.97 1786,-699.35 1807.37,-687.89 1800.36,-669.3 1822,-658.35 1858.86,-639.7 1903.3,-632.81 1943.29,-631.24"/>
<polygon fill="#757575" stroke="#757575" points="1943.3,-634.74 1953.2,-630.97 1943.11,-627.74 1943.3,-634.74"/>
</g>
<!-- store/WidgetPropsSettingModalProvider.tsx -->
<g id="node16" class="node">
<title>store/WidgetPropsSettingModalProvider.tsx</title>
<path fill="none" stroke="#c6c5fe" d="M1684.83,-690.85C1684.83,-690.85 1406.17,-690.85 1406.17,-690.85 1402.33,-690.85 1398.5,-687.02 1398.5,-683.19 1398.5,-683.19 1398.5,-675.52 1398.5,-675.52 1398.5,-671.69 1402.33,-667.85 1406.17,-667.85 1406.17,-667.85 1684.83,-667.85 1684.83,-667.85 1688.67,-667.85 1692.5,-671.69 1692.5,-675.52 1692.5,-675.52 1692.5,-683.19 1692.5,-683.19 1692.5,-687.02 1688.67,-690.85 1684.83,-690.85"/>
<text text-anchor="middle" x="1545.5" y="-675.65" font-family="Arial" font-size="14.00" fill="#c6c5fe">store/WidgetPropsSettingModalProvider.tsx</text>
</g>
<!-- component/Dashboard/DashboardHeader.tsx&#45;&gt;store/WidgetPropsSettingModalProvider.tsx -->
<g id="edge8" class="edge">
<title>component/Dashboard/DashboardHeader.tsx&#45;&gt;store/WidgetPropsSettingModalProvider.tsx</title>
<path fill="none" stroke="#757575" d="M668.13,-801.41C707.23,-794.34 758.4,-785.58 804,-779.35 1009.85,-751.22 1063.41,-761.31 1269,-731.35 1340.53,-720.93 1421.79,-705.1 1477.42,-693.64"/>
<polygon fill="#757575" stroke="#757575" points="1477.97,-697.1 1487.05,-691.65 1476.55,-690.25 1477.97,-697.1"/>
</g>
<!-- component/Dashboard/DashboardHeader/PlayIcon.tsx&#45;&gt;asset/image/pause.png -->
<g id="edge16" class="edge">
<title>component/Dashboard/DashboardHeader/PlayIcon.tsx&#45;&gt;asset/image/pause.png</title>
<path fill="none" stroke="#757575" d="M1217.68,-874.35C1296.75,-874.35 1386.24,-874.35 1451.56,-874.35"/>
<polygon fill="#757575" stroke="#757575" points="1451.54,-877.85 1461.54,-874.35 1451.54,-870.85 1451.54,-877.85"/>
</g>
<!-- component/Dashboard/DashboardHeader/PlayIcon.tsx&#45;&gt;asset/image/play.png -->
<g id="edge17" class="edge">
<title>component/Dashboard/DashboardHeader/PlayIcon.tsx&#45;&gt;asset/image/play.png</title>
<path fill="none" stroke="#757575" d="M1185.85,-886.35C1274.52,-893.52 1384.05,-902.38 1458.58,-908.4"/>
<polygon fill="#757575" stroke="#757575" points="1458.02,-911.87 1468.27,-909.19 1458.58,-904.89 1458.02,-911.87"/>
</g>
<!-- hook/useBoolean.tsx -->
<g id="node22" class="node">
<title>hook/useBoolean.tsx</title>
<path fill="none" stroke="#cfffac" d="M2120.33,-690.85C2120.33,-690.85 1986.67,-690.85 1986.67,-690.85 1982.83,-690.85 1979,-687.02 1979,-683.19 1979,-683.19 1979,-675.52 1979,-675.52 1979,-671.69 1982.83,-667.85 1986.67,-667.85 1986.67,-667.85 2120.33,-667.85 2120.33,-667.85 2124.17,-667.85 2128,-671.69 2128,-675.52 2128,-675.52 2128,-683.19 2128,-683.19 2128,-687.02 2124.17,-690.85 2120.33,-690.85"/>
<text text-anchor="middle" x="2053.5" y="-675.65" font-family="Arial" font-size="14.00" fill="#cfffac">hook/useBoolean.tsx</text>
</g>
<!-- component/Dashboard/DashboardHeader/SelectRealTimeRangeArea.tsx&#45;&gt;hook/useBoolean.tsx -->
<g id="edge20" class="edge">
<title>component/Dashboard/DashboardHeader/SelectRealTimeRangeArea.tsx&#45;&gt;hook/useBoolean.tsx</title>
<path fill="none" stroke="#757575" d="M1598.94,-968.27C1652.87,-977.18 1735.86,-981.02 1786,-935.35 1851.8,-875.42 1761.3,-803.45 1822,-738.35 1858.79,-698.9 1918.01,-684.35 1967.22,-679.55"/>
<polygon fill="#757575" stroke="#757575" points="1967.34,-683.06 1977.01,-678.73 1966.76,-676.08 1967.34,-683.06"/>
</g>
<!-- hook/useOutsideClick.tsx -->
<g id="node23" class="node">
<title>hook/useOutsideClick.tsx</title>
<path fill="none" stroke="#cfffac" d="M2133.83,-852.85C2133.83,-852.85 1973.17,-852.85 1973.17,-852.85 1969.33,-852.85 1965.5,-849.02 1965.5,-845.19 1965.5,-845.19 1965.5,-837.52 1965.5,-837.52 1965.5,-833.69 1969.33,-829.85 1973.17,-829.85 1973.17,-829.85 2133.83,-829.85 2133.83,-829.85 2137.67,-829.85 2141.5,-833.69 2141.5,-837.52 2141.5,-837.52 2141.5,-845.19 2141.5,-845.19 2141.5,-849.02 2137.67,-852.85 2133.83,-852.85"/>
<text text-anchor="middle" x="2053.5" y="-837.65" font-family="Arial" font-size="14.00" fill="#cfffac">hook/useOutsideClick.tsx</text>
</g>
<!-- component/Dashboard/DashboardHeader/SelectRealTimeRangeArea.tsx&#45;&gt;hook/useOutsideClick.tsx -->
<g id="edge21" class="edge">
<title>component/Dashboard/DashboardHeader/SelectRealTimeRangeArea.tsx&#45;&gt;hook/useOutsideClick.tsx</title>
<path fill="none" stroke="#757575" d="M1628.97,-968.34C1678.59,-971.18 1740.7,-966.53 1786,-935.35 1816.13,-914.62 1791.86,-882.07 1822,-861.35 1860.06,-835.18 1910.44,-828.49 1954.38,-829.05"/>
<polygon fill="#757575" stroke="#757575" points="1954.1,-832.55 1964.19,-829.32 1954.29,-825.55 1954.1,-832.55"/>
</g>
<!-- component/Dashboard/DashboardHeader/RealTime.tsx -->
<g id="node24" class="node">
<title>component/Dashboard/DashboardHeader/RealTime.tsx</title>
<path fill="none" stroke="#cfffac" d="M2229.83,-950.85C2229.83,-950.85 1877.17,-950.85 1877.17,-950.85 1873.33,-950.85 1869.5,-947.02 1869.5,-943.19 1869.5,-943.19 1869.5,-935.52 1869.5,-935.52 1869.5,-931.69 1873.33,-927.85 1877.17,-927.85 1877.17,-927.85 2229.83,-927.85 2229.83,-927.85 2233.67,-927.85 2237.5,-931.69 2237.5,-935.52 2237.5,-935.52 2237.5,-943.19 2237.5,-943.19 2237.5,-947.02 2233.67,-950.85 2229.83,-950.85"/>
<text text-anchor="middle" x="2053.5" y="-935.65" font-family="Arial" font-size="14.00" fill="#cfffac">component/Dashboard/DashboardHeader/RealTime.tsx</text>
</g>
<!-- component/Dashboard/DashboardHeader/SelectRealTimeRangeArea.tsx&#45;&gt;component/Dashboard/DashboardHeader/RealTime.tsx -->
<g id="edge18" class="edge">
<title>component/Dashboard/DashboardHeader/SelectRealTimeRangeArea.tsx&#45;&gt;component/Dashboard/DashboardHeader/RealTime.tsx</title>
<path fill="none" stroke="#757575" d="M1786.16,-948.3C1810.2,-947.49 1834.4,-946.68 1857.89,-945.89"/>
<polygon fill="#757575" stroke="#757575" points="1857.97,-949.39 1867.84,-945.56 1857.73,-942.39 1857.97,-949.39"/>
</g>
<!-- component/Dashboard/DashboardHeader/SelectRealTimeListItem.tsx -->
<g id="node25" class="node">
<title>component/Dashboard/DashboardHeader/SelectRealTimeListItem.tsx</title>
<path fill="none" stroke="#cfffac" d="M2275.83,-991.85C2275.83,-991.85 1831.17,-991.85 1831.17,-991.85 1827.33,-991.85 1823.5,-988.02 1823.5,-984.19 1823.5,-984.19 1823.5,-976.52 1823.5,-976.52 1823.5,-972.69 1827.33,-968.85 1831.17,-968.85 1831.17,-968.85 2275.83,-968.85 2275.83,-968.85 2279.67,-968.85 2283.5,-972.69 2283.5,-976.52 2283.5,-976.52 2283.5,-984.19 2283.5,-984.19 2283.5,-988.02 2279.67,-991.85 2275.83,-991.85"/>
<text text-anchor="middle" x="2053.5" y="-976.65" font-family="Arial" font-size="14.00" fill="#cfffac">component/Dashboard/DashboardHeader/SelectRealTimeListItem.tsx</text>
</g>
<!-- component/Dashboard/DashboardHeader/SelectRealTimeRangeArea.tsx&#45;&gt;component/Dashboard/DashboardHeader/SelectRealTimeListItem.tsx -->
<g id="edge19" class="edge">
<title>component/Dashboard/DashboardHeader/SelectRealTimeRangeArea.tsx&#45;&gt;component/Dashboard/DashboardHeader/SelectRealTimeListItem.tsx</title>
<path fill="none" stroke="#757575" d="M1786.16,-967.72C1794.78,-968.13 1803.41,-968.54 1812.03,-968.95"/>
<polygon fill="#757575" stroke="#757575" points="1811.67,-972.43 1821.83,-969.41 1812,-965.44 1811.67,-972.43"/>
</g>
<!-- component/Dashboard/DashboardHeader/CurrentTime.tsx -->
<g id="node17" class="node">
<title>component/Dashboard/DashboardHeader/CurrentTime.tsx</title>
<path fill="none" stroke="#c6c5fe" d="M1730.83,-844.85C1730.83,-844.85 1360.17,-844.85 1360.17,-844.85 1356.33,-844.85 1352.5,-841.02 1352.5,-837.19 1352.5,-837.19 1352.5,-829.52 1352.5,-829.52 1352.5,-825.69 1356.33,-821.85 1360.17,-821.85 1360.17,-821.85 1730.83,-821.85 1730.83,-821.85 1734.67,-821.85 1738.5,-825.69 1738.5,-829.52 1738.5,-829.52 1738.5,-837.19 1738.5,-837.19 1738.5,-841.02 1734.67,-844.85 1730.83,-844.85"/>
<text text-anchor="middle" x="1545.5" y="-829.65" font-family="Arial" font-size="14.00" fill="#c6c5fe">component/Dashboard/DashboardHeader/CurrentTime.tsx</text>
</g>
<!-- component/Dashboard/DashboardHeader/TimeBlock.tsx&#45;&gt;component/Dashboard/DashboardHeader/CurrentTime.tsx -->
<g id="edge22" class="edge">
<title>component/Dashboard/DashboardHeader/TimeBlock.tsx&#45;&gt;component/Dashboard/DashboardHeader/CurrentTime.tsx</title>
<path fill="none" stroke="#757575" d="M1223.77,-833.35C1261.82,-833.35 1302.05,-833.35 1340.68,-833.35"/>
<polygon fill="#757575" stroke="#757575" points="1340.55,-836.85 1350.55,-833.35 1340.55,-829.85 1340.55,-836.85"/>
</g>
<!-- component/Dashboard/DashboardHeader/DatePickerArea.tsx -->
<g id="node20" class="node">
<title>component/Dashboard/DashboardHeader/DatePickerArea.tsx</title>
<path fill="none" stroke="#c6c5fe" d="M1741.33,-803.85C1741.33,-803.85 1349.67,-803.85 1349.67,-803.85 1345.83,-803.85 1342,-800.02 1342,-796.19 1342,-796.19 1342,-788.52 1342,-788.52 1342,-784.69 1345.83,-780.85 1349.67,-780.85 1349.67,-780.85 1741.33,-780.85 1741.33,-780.85 1745.17,-780.85 1749,-784.69 1749,-788.52 1749,-788.52 1749,-796.19 1749,-796.19 1749,-800.02 1745.17,-803.85 1741.33,-803.85"/>
<text text-anchor="middle" x="1545.5" y="-788.65" font-family="Arial" font-size="14.00" fill="#c6c5fe">component/Dashboard/DashboardHeader/DatePickerArea.tsx</text>
</g>
<!-- component/Dashboard/DashboardHeader/TimeBlock.tsx&#45;&gt;component/Dashboard/DashboardHeader/DatePickerArea.tsx -->
<g id="edge23" class="edge">
<title>component/Dashboard/DashboardHeader/TimeBlock.tsx&#45;&gt;component/Dashboard/DashboardHeader/DatePickerArea.tsx</title>
<path fill="none" stroke="#757575" d="M1185.85,-821.36C1248.43,-816.29 1321.4,-810.39 1385.12,-805.24"/>
<polygon fill="#757575" stroke="#757575" points="1385.3,-808.74 1394.99,-804.44 1384.74,-801.76 1385.3,-808.74"/>
</g>
<!-- store/DashboardProvider.tsx&#45;&gt;common/date.ts -->
<g id="edge71" class="edge">
<title>store/DashboardProvider.tsx&#45;&gt;common/date.ts</title>
<path fill="none" stroke="#757575" d="M2152.3,-638.35C2233.98,-638.35 2348.44,-638.35 2421.28,-638.35"/>
<polygon fill="#757575" stroke="#757575" points="2421.09,-641.85 2431.09,-638.35 2421.09,-634.85 2421.09,-641.85"/>
</g>
<!-- store/WidgetPropsSettingModalProvider.tsx&#45;&gt;hook/useBoolean.tsx -->
<g id="edge72" class="edge">
<title>store/WidgetPropsSettingModalProvider.tsx&#45;&gt;hook/useBoolean.tsx</title>
<path fill="none" stroke="#757575" d="M1692.86,-679.35C1781.97,-679.35 1892.7,-679.35 1967.57,-679.35"/>
<polygon fill="#757575" stroke="#757575" points="1967.3,-682.85 1977.3,-679.35 1967.3,-675.85 1967.3,-682.85"/>
</g>
<!-- hook/useCurrentTime.tsx -->
<g id="node18" class="node">
<title>hook/useCurrentTime.tsx</title>
<path fill="none" stroke="#cfffac" d="M2133.33,-893.85C2133.33,-893.85 1973.67,-893.85 1973.67,-893.85 1969.83,-893.85 1966,-890.02 1966,-886.19 1966,-886.19 1966,-878.52 1966,-878.52 1966,-874.69 1969.83,-870.85 1973.67,-870.85 1973.67,-870.85 2133.33,-870.85 2133.33,-870.85 2137.17,-870.85 2141,-874.69 2141,-878.52 2141,-878.52 2141,-886.19 2141,-886.19 2141,-890.02 2137.17,-893.85 2133.33,-893.85"/>
<text text-anchor="middle" x="2053.5" y="-878.65" font-family="Arial" font-size="14.00" fill="#cfffac">hook/useCurrentTime.tsx</text>
</g>
<!-- component/Dashboard/DashboardHeader/CurrentTime.tsx&#45;&gt;hook/useCurrentTime.tsx -->
<g id="edge9" class="edge">
<title>component/Dashboard/DashboardHeader/CurrentTime.tsx&#45;&gt;hook/useCurrentTime.tsx</title>
<path fill="none" stroke="#757575" d="M1722.74,-845.33C1744.1,-847.59 1765.58,-850.25 1786,-853.35 1802.2,-855.82 1805.81,-858.83 1822,-861.35 1865.19,-868.09 1913.29,-872.89 1954.33,-876.19"/>
<polygon fill="#757575" stroke="#757575" points="1953.96,-879.67 1964.2,-876.96 1954.5,-872.69 1953.96,-879.67"/>
</g>
<!-- component/Dashboard/DashboardHeader/DateBox.tsx -->
<g id="node19" class="node">
<title>component/Dashboard/DashboardHeader/DateBox.tsx</title>
<path fill="none" stroke="#cfffac" d="M2226.83,-770.85C2226.83,-770.85 1880.17,-770.85 1880.17,-770.85 1876.33,-770.85 1872.5,-767.02 1872.5,-763.19 1872.5,-763.19 1872.5,-755.52 1872.5,-755.52 1872.5,-751.69 1876.33,-747.85 1880.17,-747.85 1880.17,-747.85 2226.83,-747.85 2226.83,-747.85 2230.67,-747.85 2234.5,-751.69 2234.5,-755.52 2234.5,-755.52 2234.5,-763.19 2234.5,-763.19 2234.5,-767.02 2230.67,-770.85 2226.83,-770.85"/>
<text text-anchor="middle" x="2053.5" y="-755.65" font-family="Arial" font-size="14.00" fill="#cfffac">component/Dashboard/DashboardHeader/DateBox.tsx</text>
</g>
<!-- component/Dashboard/DashboardHeader/DatePickerArea.tsx&#45;&gt;common/date.ts -->
<g id="edge10" class="edge">
<title>component/Dashboard/DashboardHeader/DatePickerArea.tsx&#45;&gt;common/date.ts</title>
<path fill="none" stroke="#757575" d="M1741.57,-780.42C1756.87,-776.7 1771.85,-772.08 1786,-766.35 1804.79,-758.75 1803.12,-745.73 1822,-738.35 2014.34,-663.19 2082.04,-737.47 2285,-699.35 2342.38,-688.58 2406.61,-668.24 2447.97,-654.03"/>
<polygon fill="#757575" stroke="#757575" points="2449.02,-657.37 2457.32,-650.78 2446.72,-650.76 2449.02,-657.37"/>
</g>
<!-- component/Dashboard/DashboardHeader/DatePickerArea.tsx&#45;&gt;store/DashboardProvider.tsx -->
<g id="edge15" class="edge">
<title>component/Dashboard/DashboardHeader/DatePickerArea.tsx&#45;&gt;store/DashboardProvider.tsx</title>
<path fill="none" stroke="#757575" d="M1630.1,-804.34C1680.45,-806.86 1742.94,-801.07 1786,-766.35 1825.39,-734.59 1782.27,-689.68 1822,-658.35 1865.3,-624.2 1928.46,-620.93 1977.72,-625.24"/>
<polygon fill="#757575" stroke="#757575" points="1977.16,-628.7 1987.46,-626.22 1977.86,-621.73 1977.16,-628.7"/>
</g>
<!-- component/Dashboard/DashboardHeader/DatePickerArea.tsx&#45;&gt;component/Dashboard/DashboardHeader/DateBox.tsx -->
<g id="edge11" class="edge">
<title>component/Dashboard/DashboardHeader/DatePickerArea.tsx&#45;&gt;component/Dashboard/DashboardHeader/DateBox.tsx</title>
<path fill="none" stroke="#757575" d="M1730.25,-780.37C1772.68,-777.6 1817.93,-774.65 1860.69,-771.86"/>
<polygon fill="#757575" stroke="#757575" points="1860.83,-775.36 1870.58,-771.22 1860.37,-768.37 1860.83,-775.36"/>
</g>
<!-- component/common/DatePicker.tsx -->
<g id="node21" class="node">
<title>component/common/DatePicker.tsx</title>
<path fill="none" stroke="#c6c5fe" d="M2166.83,-811.85C2166.83,-811.85 1940.17,-811.85 1940.17,-811.85 1936.33,-811.85 1932.5,-808.02 1932.5,-804.19 1932.5,-804.19 1932.5,-796.52 1932.5,-796.52 1932.5,-792.69 1936.33,-788.85 1940.17,-788.85 1940.17,-788.85 2166.83,-788.85 2166.83,-788.85 2170.67,-788.85 2174.5,-792.69 2174.5,-796.52 2174.5,-796.52 2174.5,-804.19 2174.5,-804.19 2174.5,-808.02 2170.67,-811.85 2166.83,-811.85"/>
<text text-anchor="middle" x="2053.5" y="-796.65" font-family="Arial" font-size="14.00" fill="#c6c5fe">component/common/DatePicker.tsx</text>
</g>
<!-- component/Dashboard/DashboardHeader/DatePickerArea.tsx&#45;&gt;component/common/DatePicker.tsx -->
<g id="edge12" class="edge">
<title>component/Dashboard/DashboardHeader/DatePickerArea.tsx&#45;&gt;component/common/DatePicker.tsx</title>
<path fill="none" stroke="#757575" d="M1749.39,-795.56C1807.16,-796.47 1868.55,-797.44 1920.87,-798.27"/>
<polygon fill="#757575" stroke="#757575" points="1920.66,-801.77 1930.72,-798.43 1920.77,-794.77 1920.66,-801.77"/>
</g>
<!-- component/Dashboard/DashboardHeader/DatePickerArea.tsx&#45;&gt;hook/useBoolean.tsx -->
<g id="edge13" class="edge">
<title>component/Dashboard/DashboardHeader/DatePickerArea.tsx&#45;&gt;hook/useBoolean.tsx</title>
<path fill="none" stroke="#757575" d="M1749.28,-784.35C1762.2,-779.64 1774.58,-773.72 1786,-766.35 1812.45,-749.29 1795.58,-722.47 1822,-705.35 1864.54,-677.79 1920.97,-671.04 1967.35,-671.31"/>
<polygon fill="#757575" stroke="#757575" points="1967.03,-674.8 1977.09,-671.48 1967.15,-667.8 1967.03,-674.8"/>
</g>
<!-- component/Dashboard/DashboardHeader/DatePickerArea.tsx&#45;&gt;hook/useOutsideClick.tsx -->
<g id="edge14" class="edge">
<title>component/Dashboard/DashboardHeader/DatePickerArea.tsx&#45;&gt;hook/useOutsideClick.tsx</title>
<path fill="none" stroke="#757575" d="M1722.74,-804.33C1744.1,-806.59 1765.58,-809.25 1786,-812.35 1802.2,-814.82 1805.81,-817.83 1822,-820.35 1865,-827.06 1912.88,-831.85 1953.81,-835.15"/>
<polygon fill="#757575" stroke="#757575" points="1953.41,-838.63 1963.65,-835.92 1953.96,-831.65 1953.41,-838.63"/>
</g>
<!-- component/common/DatePicker/DatePickerTitle.tsx -->
<g id="node44" class="node">
<title>component/common/DatePicker/DatePickerTitle.tsx</title>
<path fill="none" stroke="#c6c5fe" d="M2656.33,-730.85C2656.33,-730.85 2328.67,-730.85 2328.67,-730.85 2324.83,-730.85 2321,-727.02 2321,-723.19 2321,-723.19 2321,-715.52 2321,-715.52 2321,-711.69 2324.83,-707.85 2328.67,-707.85 2328.67,-707.85 2656.33,-707.85 2656.33,-707.85 2660.17,-707.85 2664,-711.69 2664,-715.52 2664,-715.52 2664,-723.19 2664,-723.19 2664,-727.02 2660.17,-730.85 2656.33,-730.85"/>
<text text-anchor="middle" x="2492.5" y="-715.65" font-family="Arial" font-size="14.00" fill="#c6c5fe">component/common/DatePicker/DatePickerTitle.tsx</text>
</g>
<!-- component/common/DatePicker.tsx&#45;&gt;component/common/DatePicker/DatePickerTitle.tsx -->
<g id="edge54" class="edge">
<title>component/common/DatePicker.tsx&#45;&gt;component/common/DatePicker/DatePickerTitle.tsx</title>
<path fill="none" stroke="#757575" d="M2174.78,-798.85C2210.83,-795.89 2250.06,-790.12 2285,-779.35 2302.49,-773.96 2303.93,-765.95 2321,-759.35 2349.17,-748.47 2381.14,-740.01 2409.73,-733.73"/>
<polygon fill="#757575" stroke="#757575" points="2410.39,-737.17 2419.44,-731.66 2408.93,-730.32 2410.39,-737.17"/>
</g>
<!-- component/common/DatePicker/ListPicker.tsx -->
<g id="node45" class="node">
<title>component/common/DatePicker/ListPicker.tsx</title>
<path fill="none" stroke="#c6c5fe" d="M2638.83,-791.85C2638.83,-791.85 2346.17,-791.85 2346.17,-791.85 2342.33,-791.85 2338.5,-788.02 2338.5,-784.19 2338.5,-784.19 2338.5,-776.52 2338.5,-776.52 2338.5,-772.69 2342.33,-768.85 2346.17,-768.85 2346.17,-768.85 2638.83,-768.85 2638.83,-768.85 2642.67,-768.85 2646.5,-772.69 2646.5,-776.52 2646.5,-776.52 2646.5,-784.19 2646.5,-784.19 2646.5,-788.02 2642.67,-791.85 2638.83,-791.85"/>
<text text-anchor="middle" x="2492.5" y="-776.65" font-family="Arial" font-size="14.00" fill="#c6c5fe">component/common/DatePicker/ListPicker.tsx</text>
</g>
<!-- component/common/DatePicker.tsx&#45;&gt;component/common/DatePicker/ListPicker.tsx -->
<g id="edge55" class="edge">
<title>component/common/DatePicker.tsx&#45;&gt;component/common/DatePicker/ListPicker.tsx</title>
<path fill="none" stroke="#757575" d="M2174.78,-794.85C2221.76,-792.7 2276.39,-790.2 2326.91,-787.88"/>
<polygon fill="#757575" stroke="#757575" points="2326.96,-791.39 2336.79,-787.43 2326.64,-784.39 2326.96,-791.39"/>
</g>
<!-- types/datePicker.d.ts -->
<g id="node46" class="node">
<title>types/datePicker.d.ts</title>
<path fill="none" stroke="#cfffac" d="M2935.33,-831.85C2935.33,-831.85 2801.67,-831.85 2801.67,-831.85 2797.83,-831.85 2794,-828.02 2794,-824.19 2794,-824.19 2794,-816.52 2794,-816.52 2794,-812.69 2797.83,-808.85 2801.67,-808.85 2801.67,-808.85 2935.33,-808.85 2935.33,-808.85 2939.17,-808.85 2943,-812.69 2943,-816.52 2943,-816.52 2943,-824.19 2943,-824.19 2943,-828.02 2939.17,-831.85 2935.33,-831.85"/>
<text text-anchor="middle" x="2868.5" y="-816.65" font-family="Arial" font-size="14.00" fill="#cfffac">types/datePicker.d.ts</text>
</g>
<!-- component/common/DatePicker.tsx&#45;&gt;types/datePicker.d.ts -->
<g id="edge56" class="edge">
<title>component/common/DatePicker.tsx&#45;&gt;types/datePicker.d.ts</title>
<path fill="none" stroke="#757575" d="M2174.9,-803.31C2341.13,-807.4 2636.82,-814.68 2782.11,-818.25"/>
<polygon fill="#757575" stroke="#757575" points="2781.99,-821.75 2792.07,-818.5 2782.16,-814.75 2781.99,-821.75"/>
</g>
<!-- component/Widget.tsx -->
<g id="node26" class="node">
<title>component/Widget.tsx</title>
<path fill="none" stroke="#c6c5fe" d="M675.33,-450.85C675.33,-450.85 531.67,-450.85 531.67,-450.85 527.83,-450.85 524,-447.02 524,-443.19 524,-443.19 524,-435.52 524,-435.52 524,-431.69 527.83,-427.85 531.67,-427.85 531.67,-427.85 675.33,-427.85 675.33,-427.85 679.17,-427.85 683,-431.69 683,-435.52 683,-435.52 683,-443.19 683,-443.19 683,-447.02 679.17,-450.85 675.33,-450.85"/>
<text text-anchor="middle" x="603.5" y="-435.65" font-family="Arial" font-size="14.00" fill="#c6c5fe">component/Widget.tsx</text>
</g>
<!-- component/Widget.tsx&#45;&gt;hook/useBoolean.tsx -->
<g id="edge28" class="edge">
<title>component/Widget.tsx&#45;&gt;hook/useBoolean.tsx</title>
<path fill="none" stroke="#757575" d="M683.16,-446.39C940.19,-469.65 1741.35,-544.49 1786,-577.35 1817.73,-600.7 1789.98,-635.41 1822,-658.35 1863.42,-688.03 1920.35,-693.46 1967.27,-691.38"/>
<polygon fill="#757575" stroke="#757575" points="1967.37,-694.88 1977.15,-690.81 1966.96,-687.89 1967.37,-694.88"/>
</g>
<!-- component/Widget/WidgetButtons.tsx -->
<g id="node27" class="node">
<title>component/Widget/WidgetButtons.tsx</title>
<path fill="none" stroke="#c6c5fe" d="M1157.33,-568.85C1157.33,-568.85 915.67,-568.85 915.67,-568.85 911.83,-568.85 908,-565.02 908,-561.19 908,-561.19 908,-553.52 908,-553.52 908,-549.69 911.83,-545.85 915.67,-545.85 915.67,-545.85 1157.33,-545.85 1157.33,-545.85 1161.17,-545.85 1165,-549.69 1165,-553.52 1165,-553.52 1165,-561.19 1165,-561.19 1165,-565.02 1161.17,-568.85 1157.33,-568.85"/>
<text text-anchor="middle" x="1036.5" y="-553.65" font-family="Arial" font-size="14.00" fill="#c6c5fe">component/Widget/WidgetButtons.tsx</text>
</g>
<!-- component/Widget.tsx&#45;&gt;component/Widget/WidgetButtons.tsx -->
<g id="edge24" class="edge">
<title>component/Widget.tsx&#45;&gt;component/Widget/WidgetButtons.tsx</title>
<path fill="none" stroke="#757575" d="M624.63,-451.3C659.72,-471.5 734.93,-512.09 804,-531.35 833.41,-539.55 865.6,-545.18 896.37,-549.03"/>
<polygon fill="#757575" stroke="#757575" points="895.79,-552.49 906.14,-550.2 896.62,-545.54 895.79,-552.49"/>
</g>
<!-- component/Widget/WidgetCallCycleSettingModal.tsx -->
<g id="node28" class="node">
<title>component/Widget/WidgetCallCycleSettingModal.tsx</title>
<path fill="none" stroke="#c6c5fe" d="M1713.33,-382.85C1713.33,-382.85 1377.67,-382.85 1377.67,-382.85 1373.83,-382.85 1370,-379.02 1370,-375.19 1370,-375.19 1370,-367.52 1370,-367.52 1370,-363.69 1373.83,-359.85 1377.67,-359.85 1377.67,-359.85 1713.33,-359.85 1713.33,-359.85 1717.17,-359.85 1721,-363.69 1721,-367.52 1721,-367.52 1721,-375.19 1721,-375.19 1721,-379.02 1717.17,-382.85 1713.33,-382.85"/>
<text text-anchor="middle" x="1545.5" y="-367.65" font-family="Arial" font-size="14.00" fill="#c6c5fe">component/Widget/WidgetCallCycleSettingModal.tsx</text>
</g>
<!-- component/Widget.tsx&#45;&gt;component/Widget/WidgetCallCycleSettingModal.tsx -->
<g id="edge25" class="edge">
<title>component/Widget.tsx&#45;&gt;component/Widget/WidgetCallCycleSettingModal.tsx</title>
<path fill="none" stroke="#757575" d="M683.43,-433.64C833.36,-422.8 1162.66,-398.97 1367.79,-384.14"/>
<polygon fill="#757575" stroke="#757575" points="1367.76,-387.65 1377.48,-383.43 1367.25,-380.67 1367.76,-387.65"/>
</g>
<!-- component/Widget/WidgetChart.tsx -->
<g id="node29" class="node">
<title>component/Widget/WidgetChart.tsx</title>
<path fill="none" stroke="#c6c5fe" d="M1149.83,-211.85C1149.83,-211.85 923.17,-211.85 923.17,-211.85 919.33,-211.85 915.5,-208.02 915.5,-204.19 915.5,-204.19 915.5,-196.52 915.5,-196.52 915.5,-192.69 919.33,-188.85 923.17,-188.85 923.17,-188.85 1149.83,-188.85 1149.83,-188.85 1153.67,-188.85 1157.5,-192.69 1157.5,-196.52 1157.5,-196.52 1157.5,-204.19 1157.5,-204.19 1157.5,-208.02 1153.67,-211.85 1149.83,-211.85"/>
<text text-anchor="middle" x="1036.5" y="-196.65" font-family="Arial" font-size="14.00" fill="#c6c5fe">component/Widget/WidgetChart.tsx</text>
</g>
<!-- component/Widget.tsx&#45;&gt;component/Widget/WidgetChart.tsx -->
<g id="edge26" class="edge">
<title>component/Widget.tsx&#45;&gt;component/Widget/WidgetChart.tsx</title>
<path fill="none" stroke="#757575" d="M625.87,-427.5C696.24,-388.48 920.92,-263.89 1004.12,-217.75"/>
<polygon fill="#757575" stroke="#757575" points="1005.63,-220.92 1012.67,-213.01 1002.23,-214.8 1005.63,-220.92"/>
</g>
<!-- hook/Widget/useHandleWidgetApi.tsx -->
<g id="node30" class="node">
<title>hook/Widget/useHandleWidgetApi.tsx</title>
<path fill="none" stroke="#c6c5fe" d="M1666.33,-450.85C1666.33,-450.85 1424.67,-450.85 1424.67,-450.85 1420.83,-450.85 1417,-447.02 1417,-443.19 1417,-443.19 1417,-435.52 1417,-435.52 1417,-431.69 1420.83,-427.85 1424.67,-427.85 1424.67,-427.85 1666.33,-427.85 1666.33,-427.85 1670.17,-427.85 1674,-431.69 1674,-435.52 1674,-435.52 1674,-443.19 1674,-443.19 1674,-447.02 1670.17,-450.85 1666.33,-450.85"/>
<text text-anchor="middle" x="1545.5" y="-435.65" font-family="Arial" font-size="14.00" fill="#c6c5fe">hook/Widget/useHandleWidgetApi.tsx</text>
</g>
<!-- component/Widget.tsx&#45;&gt;hook/Widget/useHandleWidgetApi.tsx -->
<g id="edge27" class="edge">
<title>component/Widget.tsx&#45;&gt;hook/Widget/useHandleWidgetApi.tsx</title>
<path fill="none" stroke="#757575" d="M683.43,-439.35C842.86,-439.35 1205.09,-439.35 1405.2,-439.35"/>
<polygon fill="#757575" stroke="#757575" points="1405.15,-442.85 1415.15,-439.35 1405.15,-435.85 1405.15,-442.85"/>
</g>
<!-- types/widget.d.ts -->
<g id="node31" class="node">
<title>types/widget.d.ts</title>
<path fill="none" stroke="#cfffac" d="M2922.33,-550.85C2922.33,-550.85 2814.67,-550.85 2814.67,-550.85 2810.83,-550.85 2807,-547.02 2807,-543.19 2807,-543.19 2807,-535.52 2807,-535.52 2807,-531.69 2810.83,-527.85 2814.67,-527.85 2814.67,-527.85 2922.33,-527.85 2922.33,-527.85 2926.17,-527.85 2930,-531.69 2930,-535.52 2930,-535.52 2930,-543.19 2930,-543.19 2930,-547.02 2926.17,-550.85 2922.33,-550.85"/>
<text text-anchor="middle" x="2868.5" y="-535.65" font-family="Arial" font-size="14.00" fill="#cfffac">types/widget.d.ts</text>
</g>
<!-- component/Widget.tsx&#45;&gt;types/widget.d.ts -->
<g id="edge29" class="edge">
<title>component/Widget.tsx&#45;&gt;types/widget.d.ts</title>
<path fill="none" stroke="#757575" d="M609.91,-427.49C629.45,-386.04 700.75,-246.52 804,-179.35 1087.82,5.28 1205.91,-0.35 1544.5,-0.35 1544.5,-0.35 1544.5,-0.35 2054.5,-0.35 2339.46,-0.35 2453.28,-7.52 2664,-199.35 2768.94,-294.88 2836.9,-457.23 2859.33,-516.68"/>
<polygon fill="#757575" stroke="#757575" points="2856.04,-517.86 2862.79,-526.02 2862.6,-515.43 2856.04,-517.86"/>
</g>
<!-- component/Widget/WidgetButtons.tsx&#45;&gt;store/WidgetPropsSettingModalProvider.tsx -->
<g id="edge30" class="edge">
<title>component/Widget/WidgetButtons.tsx&#45;&gt;store/WidgetPropsSettingModalProvider.tsx</title>
<path fill="none" stroke="#757575" d="M1165.41,-551.24C1200.49,-554.05 1237.5,-561.42 1269,-577.35 1290.64,-588.3 1284.32,-605.68 1305,-618.35 1343.2,-641.76 1390.08,-656.22 1432.21,-665.14"/>
<polygon fill="#757575" stroke="#757575" points="1431.4,-668.55 1441.9,-667.1 1432.79,-661.69 1431.4,-668.55"/>
</g>
<!-- store/WidgetProvider.tsx -->
<g id="node32" class="node">
<title>store/WidgetProvider.tsx</title>
<path fill="none" stroke="#c6c5fe" d="M1624.33,-609.85C1624.33,-609.85 1466.67,-609.85 1466.67,-609.85 1462.83,-609.85 1459,-606.02 1459,-602.19 1459,-602.19 1459,-594.52 1459,-594.52 1459,-590.69 1462.83,-586.85 1466.67,-586.85 1466.67,-586.85 1624.33,-586.85 1624.33,-586.85 1628.17,-586.85 1632,-590.69 1632,-594.52 1632,-594.52 1632,-602.19 1632,-602.19 1632,-606.02 1628.17,-609.85 1624.33,-609.85"/>
<text text-anchor="middle" x="1545.5" y="-594.65" font-family="Arial" font-size="14.00" fill="#c6c5fe">store/WidgetProvider.tsx</text>
</g>
<!-- component/Widget/WidgetButtons.tsx&#45;&gt;store/WidgetProvider.tsx -->
<g id="edge31" class="edge">
<title>component/Widget/WidgetButtons.tsx&#45;&gt;store/WidgetProvider.tsx</title>
<path fill="none" stroke="#757575" d="M1165.44,-567.7C1253.13,-574.79 1367.64,-584.05 1447.76,-590.53"/>
<polygon fill="#757575" stroke="#757575" points="1447.08,-593.98 1457.33,-591.3 1447.64,-587.01 1447.08,-593.98"/>
</g>
<!-- component/Widget/WidgetCallCycleSettingModal.tsx&#45;&gt;common/widget.ts -->
<g id="edge32" class="edge">
<title>component/Widget/WidgetCallCycleSettingModal.tsx&#45;&gt;common/widget.ts</title>
<path fill="none" stroke="#757575" d="M1721.35,-382.06C1808.16,-387.38 1908.59,-393.54 1975.89,-397.66"/>
<polygon fill="#757575" stroke="#757575" points="1975.52,-401.14 1985.71,-398.26 1975.95,-394.16 1975.52,-401.14"/>
</g>
<!-- component/Widget/WidgetCallCycleSettingModal/CycleInput.tsx -->
<g id="node33" class="node">
<title>component/Widget/WidgetCallCycleSettingModal/CycleInput.tsx</title>
<path fill="none" stroke="#cfffac" d="M2256.83,-331.85C2256.83,-331.85 1850.17,-331.85 1850.17,-331.85 1846.33,-331.85 1842.5,-328.02 1842.5,-324.19 1842.5,-324.19 1842.5,-316.52 1842.5,-316.52 1842.5,-312.69 1846.33,-308.85 1850.17,-308.85 1850.17,-308.85 2256.83,-308.85 2256.83,-308.85 2260.67,-308.85 2264.5,-312.69 2264.5,-316.52 2264.5,-316.52 2264.5,-324.19 2264.5,-324.19 2264.5,-328.02 2260.67,-331.85 2256.83,-331.85"/>
<text text-anchor="middle" x="2053.5" y="-316.65" font-family="Arial" font-size="14.00" fill="#cfffac">component/Widget/WidgetCallCycleSettingModal/CycleInput.tsx</text>
</g>
<!-- component/Widget/WidgetCallCycleSettingModal.tsx&#45;&gt;component/Widget/WidgetCallCycleSettingModal/CycleInput.tsx -->
<g id="edge33" class="edge">
<title>component/Widget/WidgetCallCycleSettingModal.tsx&#45;&gt;component/Widget/WidgetCallCycleSettingModal/CycleInput.tsx</title>
<path fill="none" stroke="#757575" d="M1647.51,-359.36C1699.6,-353.34 1764.17,-346.11 1822,-340.35 1846,-337.96 1871.43,-335.59 1896.29,-333.36"/>
<polygon fill="#757575" stroke="#757575" points="1896.51,-336.86 1906.16,-332.49 1895.89,-329.89 1896.51,-336.86"/>
</g>
<!-- component/Widget/WidgetCallCycleSettingModal/LastCallTimeBox.tsx -->
<g id="node34" class="node">
<title>component/Widget/WidgetCallCycleSettingModal/LastCallTimeBox.tsx</title>
<path fill="none" stroke="#cfffac" d="M2277.33,-372.85C2277.33,-372.85 1829.67,-372.85 1829.67,-372.85 1825.83,-372.85 1822,-369.02 1822,-365.19 1822,-365.19 1822,-357.52 1822,-357.52 1822,-353.69 1825.83,-349.85 1829.67,-349.85 1829.67,-349.85 2277.33,-349.85 2277.33,-349.85 2281.17,-349.85 2285,-353.69 2285,-357.52 2285,-357.52 2285,-365.19 2285,-365.19 2285,-369.02 2281.17,-372.85 2277.33,-372.85"/>
<text text-anchor="middle" x="2053.5" y="-357.65" font-family="Arial" font-size="14.00" fill="#cfffac">component/Widget/WidgetCallCycleSettingModal/LastCallTimeBox.tsx</text>
</g>
<!-- component/Widget/WidgetCallCycleSettingModal.tsx&#45;&gt;component/Widget/WidgetCallCycleSettingModal/LastCallTimeBox.tsx -->
<g id="edge34" class="edge">
<title>component/Widget/WidgetCallCycleSettingModal.tsx&#45;&gt;component/Widget/WidgetCallCycleSettingModal/LastCallTimeBox.tsx</title>
<path fill="none" stroke="#757575" d="M1721.35,-367.9C1750.09,-367.33 1780.34,-366.73 1810.37,-366.14"/>
<polygon fill="#757575" stroke="#757575" points="1810.43,-369.64 1820.36,-365.94 1810.29,-362.64 1810.43,-369.64"/>
</g>
<!-- component/chart/BarChart.tsx -->
<g id="node35" class="node">
<title>component/chart/BarChart.tsx</title>
<path fill="none" stroke="#c6c5fe" d="M1639.33,-171.85C1639.33,-171.85 1451.67,-171.85 1451.67,-171.85 1447.83,-171.85 1444,-168.02 1444,-164.19 1444,-164.19 1444,-156.52 1444,-156.52 1444,-152.69 1447.83,-148.85 1451.67,-148.85 1451.67,-148.85 1639.33,-148.85 1639.33,-148.85 1643.17,-148.85 1647,-152.69 1647,-156.52 1647,-156.52 1647,-164.19 1647,-164.19 1647,-168.02 1643.17,-171.85 1639.33,-171.85"/>
<text text-anchor="middle" x="1545.5" y="-156.65" font-family="Arial" font-size="14.00" fill="#c6c5fe">component/chart/BarChart.tsx</text>
</g>
<!-- component/Widget/WidgetChart.tsx&#45;&gt;component/chart/BarChart.tsx -->
<g id="edge35" class="edge">
<title>component/Widget/WidgetChart.tsx&#45;&gt;component/chart/BarChart.tsx</title>
<path fill="none" stroke="#757575" d="M1157.97,-190.85C1241.18,-184.28 1351.08,-175.61 1432.41,-169.2"/>
<polygon fill="#757575" stroke="#757575" points="1432.49,-172.7 1442.19,-168.42 1431.94,-165.72 1432.49,-172.7"/>
</g>
<!-- component/chart/InformaticsChart.tsx -->
<g id="node36" class="node">
<title>component/chart/InformaticsChart.tsx</title>
<path fill="none" stroke="#c6c5fe" d="M1663.83,-251.85C1663.83,-251.85 1427.17,-251.85 1427.17,-251.85 1423.33,-251.85 1419.5,-248.02 1419.5,-244.19 1419.5,-244.19 1419.5,-236.52 1419.5,-236.52 1419.5,-232.69 1423.33,-228.85 1427.17,-228.85 1427.17,-228.85 1663.83,-228.85 1663.83,-228.85 1667.67,-228.85 1671.5,-232.69 1671.5,-236.52 1671.5,-236.52 1671.5,-244.19 1671.5,-244.19 1671.5,-248.02 1667.67,-251.85 1663.83,-251.85"/>
<text text-anchor="middle" x="1545.5" y="-236.65" font-family="Arial" font-size="14.00" fill="#c6c5fe">component/chart/InformaticsChart.tsx</text>
</g>
<!-- component/Widget/WidgetChart.tsx&#45;&gt;component/chart/InformaticsChart.tsx -->
<g id="edge36" class="edge">
<title>component/Widget/WidgetChart.tsx&#45;&gt;component/chart/InformaticsChart.tsx</title>
<path fill="none" stroke="#757575" d="M1157.97,-209.86C1233.06,-215.78 1329.87,-223.42 1407.82,-229.57"/>
<polygon fill="#757575" stroke="#757575" points="1407.43,-233.05 1417.67,-230.35 1407.98,-226.07 1407.43,-233.05"/>
</g>
<!-- component/chart/LineChart.tsx -->
<g id="node37" class="node">
<title>component/chart/LineChart.tsx</title>
<path fill="none" stroke="#c6c5fe" d="M1642.33,-130.85C1642.33,-130.85 1448.67,-130.85 1448.67,-130.85 1444.83,-130.85 1441,-127.02 1441,-123.19 1441,-123.19 1441,-115.52 1441,-115.52 1441,-111.69 1444.83,-107.85 1448.67,-107.85 1448.67,-107.85 1642.33,-107.85 1642.33,-107.85 1646.17,-107.85 1650,-111.69 1650,-115.52 1650,-115.52 1650,-123.19 1650,-123.19 1650,-127.02 1646.17,-130.85 1642.33,-130.85"/>
<text text-anchor="middle" x="1545.5" y="-115.65" font-family="Arial" font-size="14.00" fill="#c6c5fe">component/chart/LineChart.tsx</text>
</g>
<!-- component/Widget/WidgetChart.tsx&#45;&gt;component/chart/LineChart.tsx -->
<g id="edge37" class="edge">
<title>component/Widget/WidgetChart.tsx&#45;&gt;component/chart/LineChart.tsx</title>
<path fill="none" stroke="#757575" d="M1081.16,-188.4C1133.81,-174.45 1225.21,-151.72 1305,-139.35 1345.34,-133.1 1389.82,-128.71 1429.38,-125.66"/>
<polygon fill="#757575" stroke="#757575" points="1429.46,-129.17 1439.17,-124.93 1428.94,-122.19 1429.46,-129.17"/>
</g>
<!-- hook/Widget/useHandleWidgetApi.tsx&#45;&gt;common/api.ts -->
<g id="edge60" class="edge">
<title>hook/Widget/useHandleWidgetApi.tsx&#45;&gt;common/api.ts</title>
<path fill="none" stroke="#757575" d="M1674.46,-439.81C1711.53,-443.48 1751.33,-450.97 1786,-465.35 1804.98,-473.22 1803.04,-486.44 1822,-494.35 1874.53,-516.27 1939.32,-521.91 1986.82,-522.57"/>
<polygon fill="#757575" stroke="#757575" points="1986.67,-526.06 1996.69,-522.62 1986.71,-519.06 1986.67,-526.06"/>
</g>
<!-- hook/Widget/useHandleWidgetApi.tsx&#45;&gt;types/chart.d.ts -->
<g id="edge64" class="edge">
<title>hook/Widget/useHandleWidgetApi.tsx&#45;&gt;types/chart.d.ts</title>
<path fill="none" stroke="#757575" d="M1674.24,-447.55C1855.85,-457.33 2178.48,-467.22 2285,-422.35 2375.92,-384.05 2449.05,-285.33 2478.04,-241.66"/>
<polygon fill="#757575" stroke="#757575" points="2480.8,-243.84 2483.32,-233.55 2474.93,-240.02 2480.8,-243.84"/>
</g>
<!-- hook/Widget/useHandleWidgetApi.tsx&#45;&gt;common/date.ts -->
<g id="edge61" class="edge">
<title>hook/Widget/useHandleWidgetApi.tsx&#45;&gt;common/date.ts</title>
<path fill="none" stroke="#757575" d="M1635.14,-451.33C1682.33,-460.51 1739.96,-476.37 1786,-503.35 1805.79,-514.95 1801.57,-529.92 1822,-540.35 1874.81,-567.32 2260.77,-612.71 2421.52,-630.69"/>
<polygon fill="#757575" stroke="#757575" points="2420.87,-634.14 2431.2,-631.77 2421.65,-627.18 2420.87,-634.14"/>
</g>
<!-- hook/Widget/useHandleWidgetApi.tsx&#45;&gt;common/widget.ts -->
<g id="edge62" class="edge">
<title>hook/Widget/useHandleWidgetApi.tsx&#45;&gt;common/widget.ts</title>
<path fill="none" stroke="#757575" d="M1674.19,-430.02C1769.2,-423.07 1895.76,-413.81 1975.7,-407.97"/>
<polygon fill="#757575" stroke="#757575" points="1975.92,-411.46 1985.64,-407.24 1975.41,-404.48 1975.92,-411.46"/>
</g>
<!-- hook/Widget/useHandleWidgetApi.tsx&#45;&gt;store/DashboardProvider.tsx -->
<g id="edge63" class="edge">
<title>hook/Widget/useHandleWidgetApi.tsx&#45;&gt;store/DashboardProvider.tsx</title>
<path fill="none" stroke="#757575" d="M1667.06,-451.35C1708.27,-460.39 1752.4,-476.11 1786,-503.35 1813.48,-525.64 1794.63,-551.94 1822,-574.35 1856.22,-602.37 1901.85,-618.16 1943.48,-627.03"/>
<polygon fill="#757575" stroke="#757575" points="1942.55,-630.42 1953.05,-628.95 1943.93,-623.55 1942.55,-630.42"/>
</g>
<!-- hook/Widget/useHandleWidgetApi.tsx&#45;&gt;types/widget.d.ts -->
<g id="edge65" class="edge">
<title>hook/Widget/useHandleWidgetApi.tsx&#45;&gt;types/widget.d.ts</title>
<path fill="none" stroke="#757575" d="M1674.38,-445.98C1962.59,-460.96 2639.74,-496.33 2664,-499.35 2712.07,-505.34 2765.82,-516.08 2806,-524.92"/>
<polygon fill="#757575" stroke="#757575" points="2805.22,-528.34 2815.74,-527.09 2806.74,-521.5 2805.22,-528.34"/>
</g>
<!-- store/WidgetProvider.tsx&#45;&gt;types/widget.d.ts -->
<g id="edge73" class="edge">
<title>store/WidgetProvider.tsx&#45;&gt;types/widget.d.ts</title>
<path fill="none" stroke="#757575" d="M1632.41,-594.51C1876.26,-583.62 2569.63,-552.66 2795.45,-542.57"/>
<polygon fill="#757575" stroke="#757575" points="2795.45,-546.07 2805.29,-542.13 2795.14,-539.08 2795.45,-546.07"/>
</g>
<!-- component/chart/BarChart.tsx&#45;&gt;common/chart.ts -->
<g id="edge43" class="edge">
<title>component/chart/BarChart.tsx&#45;&gt;common/chart.ts</title>
<path fill="none" stroke="#757575" d="M1647.38,-160.35C1746.02,-160.35 1893.73,-160.35 1980.89,-160.35"/>
<polygon fill="#757575" stroke="#757575" points="1980.74,-163.85 1990.74,-160.35 1980.74,-156.85 1980.74,-163.85"/>
</g>
<!-- component/chart/BarChart.tsx&#45;&gt;types/chart.d.ts -->
<g id="edge46" class="edge">
<title>component/chart/BarChart.tsx&#45;&gt;types/chart.d.ts</title>
<path fill="none" stroke="#757575" d="M1647.23,-167.98C1699.39,-171.84 1764.1,-176.52 1822,-180.35 2042.61,-194.95 2304.27,-209.9 2424.73,-216.65"/>
<polygon fill="#757575" stroke="#757575" points="2424.25,-220.12 2434.43,-217.19 2424.64,-213.14 2424.25,-220.12"/>
</g>
<!-- component/chart/ChartSvg.tsx -->
<g id="node41" class="node">
<title>component/chart/ChartSvg.tsx</title>
<path fill="none" stroke="#cfffac" d="M2148.83,-89.85C2148.83,-89.85 1958.17,-89.85 1958.17,-89.85 1954.33,-89.85 1950.5,-86.02 1950.5,-82.19 1950.5,-82.19 1950.5,-74.52 1950.5,-74.52 1950.5,-70.69 1954.33,-66.85 1958.17,-66.85 1958.17,-66.85 2148.83,-66.85 2148.83,-66.85 2152.67,-66.85 2156.5,-70.69 2156.5,-74.52 2156.5,-74.52 2156.5,-82.19 2156.5,-82.19 2156.5,-86.02 2152.67,-89.85 2148.83,-89.85"/>
<text text-anchor="middle" x="2053.5" y="-74.65" font-family="Arial" font-size="14.00" fill="#cfffac">component/chart/ChartSvg.tsx</text>
</g>
<!-- component/chart/BarChart.tsx&#45;&gt;component/chart/ChartSvg.tsx -->
<g id="edge44" class="edge">
<title>component/chart/BarChart.tsx&#45;&gt;component/chart/ChartSvg.tsx</title>
<path fill="none" stroke="#757575" d="M1647.23,-167.97C1691.87,-167.31 1743.74,-160.76 1786,-139.35 1807.63,-128.39 1800.36,-109.3 1822,-98.35 1857.48,-80.4 1899.98,-73.34 1938.77,-71.44"/>
<polygon fill="#757575" stroke="#757575" points="1938.76,-74.94 1948.62,-71.07 1938.5,-67.94 1938.76,-74.94"/>
</g>
<!-- hook/useResize.tsx -->
<g id="node42" class="node">
<title>hook/useResize.tsx</title>
<path fill="none" stroke="#cfffac" d="M2115.83,-130.85C2115.83,-130.85 1991.17,-130.85 1991.17,-130.85 1987.33,-130.85 1983.5,-127.02 1983.5,-123.19 1983.5,-123.19 1983.5,-115.52 1983.5,-115.52 1983.5,-111.69 1987.33,-107.85 1991.17,-107.85 1991.17,-107.85 2115.83,-107.85 2115.83,-107.85 2119.67,-107.85 2123.5,-111.69 2123.5,-115.52 2123.5,-115.52 2123.5,-123.19 2123.5,-123.19 2123.5,-127.02 2119.67,-130.85 2115.83,-130.85"/>
<text text-anchor="middle" x="2053.5" y="-115.65" font-family="Arial" font-size="14.00" fill="#cfffac">hook/useResize.tsx</text>
</g>
<!-- component/chart/BarChart.tsx&#45;&gt;hook/useResize.tsx -->
<g id="edge45" class="edge">
<title>component/chart/BarChart.tsx&#45;&gt;hook/useResize.tsx</title>
<path fill="none" stroke="#757575" d="M1647.38,-152.18C1742.67,-144.46 1883.75,-133.03 1971.8,-125.89"/>
<polygon fill="#757575" stroke="#757575" points="1971.87,-129.4 1981.55,-125.1 1971.3,-122.42 1971.87,-129.4"/>
</g>
<!-- component/chart/InformaticsChart.tsx&#45;&gt;types/chart.d.ts -->
<g id="edge48" class="edge">
<title>component/chart/InformaticsChart.tsx&#45;&gt;types/chart.d.ts</title>
<path fill="none" stroke="#757575" d="M1663.52,-252.35C1809.39,-265.27 2066.2,-281.35 2285,-260.35 2335.34,-255.52 2391.64,-244.21 2432.73,-234.85"/>
<polygon fill="#757575" stroke="#757575" points="2433.47,-238.27 2442.42,-232.61 2431.89,-231.45 2433.47,-238.27"/>
</g>
<!-- component/chart/InformaticsChart/InforMaticsBox.tsx -->
<g id="node43" class="node">
<title>component/chart/InformaticsChart/InforMaticsBox.tsx</title>
<path fill="none" stroke="#c6c5fe" d="M2220.83,-251.85C2220.83,-251.85 1886.17,-251.85 1886.17,-251.85 1882.33,-251.85 1878.5,-248.02 1878.5,-244.19 1878.5,-244.19 1878.5,-236.52 1878.5,-236.52 1878.5,-232.69 1882.33,-228.85 1886.17,-228.85 1886.17,-228.85 2220.83,-228.85 2220.83,-228.85 2224.67,-228.85 2228.5,-232.69 2228.5,-236.52 2228.5,-236.52 2228.5,-244.19 2228.5,-244.19 2228.5,-248.02 2224.67,-251.85 2220.83,-251.85"/>
<text text-anchor="middle" x="2053.5" y="-236.65" font-family="Arial" font-size="14.00" fill="#c6c5fe">component/chart/InformaticsChart/InforMaticsBox.tsx</text>
</g>
<!-- component/chart/InformaticsChart.tsx&#45;&gt;component/chart/InformaticsChart/InforMaticsBox.tsx -->
<g id="edge47" class="edge">
<title>component/chart/InformaticsChart.tsx&#45;&gt;component/chart/InformaticsChart/InforMaticsBox.tsx</title>
<path fill="none" stroke="#757575" d="M1671.9,-240.35C1730.7,-240.35 1801.94,-240.35 1866.82,-240.35"/>
<polygon fill="#757575" stroke="#757575" points="1866.5,-243.85 1876.5,-240.35 1866.5,-236.85 1866.5,-243.85"/>
</g>
<!-- component/chart/LineChart.tsx&#45;&gt;common/chart.ts -->
<g id="edge50" class="edge">
<title>component/chart/LineChart.tsx&#45;&gt;common/chart.ts</title>
<path fill="none" stroke="#757575" d="M1650.42,-127.77C1749.1,-135.77 1894.81,-147.57 1981.05,-154.56"/>
<polygon fill="#757575" stroke="#757575" points="1980.54,-158.03 1990.79,-155.35 1981.1,-151.06 1980.54,-158.03"/>
</g>
<!-- component/chart/LineChart.tsx&#45;&gt;types/chart.d.ts -->
<g id="edge53" class="edge">
<title>component/chart/LineChart.tsx&#45;&gt;types/chart.d.ts</title>
<path fill="none" stroke="#757575" d="M1578.98,-107.47C1684.39,-70.81 2025.19,32.83 2285,-57.35 2367.74,-86.07 2442.38,-163.22 2474.64,-200.13"/>
<polygon fill="#757575" stroke="#757575" points="2471.75,-202.14 2480.92,-207.45 2477.06,-197.58 2471.75,-202.14"/>
</g>
<!-- component/chart/LineChart.tsx&#45;&gt;component/chart/ChartSvg.tsx -->
<g id="edge51" class="edge">
<title>component/chart/LineChart.tsx&#45;&gt;component/chart/ChartSvg.tsx</title>
<path fill="none" stroke="#757575" d="M1650.42,-110.93C1734.29,-104.14 1852.13,-94.59 1938.57,-87.58"/>
<polygon fill="#757575" stroke="#757575" points="1938.82,-91.07 1948.5,-86.78 1938.25,-84.1 1938.82,-91.07"/>
</g>
<!-- component/chart/LineChart.tsx&#45;&gt;hook/useResize.tsx -->
<g id="edge52" class="edge">
<title>component/chart/LineChart.tsx&#45;&gt;hook/useResize.tsx</title>
<path fill="none" stroke="#757575" d="M1650.42,-119.35C1745.64,-119.35 1884.65,-119.35 1971.76,-119.35"/>
<polygon fill="#757575" stroke="#757575" points="1971.66,-122.85 1981.66,-119.35 1971.66,-115.85 1971.66,-122.85"/>
</g>
<!-- component/Widget/WidgetPropsSettingModal.tsx -->
<g id="node38" class="node">
<title>component/Widget/WidgetPropsSettingModal.tsx</title>
<path fill="none" stroke="#c6c5fe" d="M760.33,-650.85C760.33,-650.85 446.67,-650.85 446.67,-650.85 442.83,-650.85 439,-647.02 439,-643.19 439,-643.19 439,-635.52 439,-635.52 439,-631.69 442.83,-627.85 446.67,-627.85 446.67,-627.85 760.33,-627.85 760.33,-627.85 764.17,-627.85 768,-631.69 768,-635.52 768,-635.52 768,-643.19 768,-643.19 768,-647.02 764.17,-650.85 760.33,-650.85"/>
<text text-anchor="middle" x="603.5" y="-635.65" font-family="Arial" font-size="14.00" fill="#c6c5fe">component/Widget/WidgetPropsSettingModal.tsx</text>
</g>
<!-- component/Widget/WidgetPropsSettingModal.tsx&#45;&gt;common/api.ts -->
<g id="edge38" class="edge">
<title>component/Widget/WidgetPropsSettingModal.tsx&#45;&gt;common/api.ts</title>
<path fill="none" stroke="#757575" d="M621.03,-627.38C653.89,-604.38 730.63,-554.67 804,-536.35 1244.07,-426.46 1798.84,-485.52 1986.81,-510.76"/>
<polygon fill="#757575" stroke="#757575" points="1986.25,-514.22 1996.63,-512.1 1987.19,-507.28 1986.25,-514.22"/>
</g>
<!-- component/Widget/WidgetPropsSettingModal.tsx&#45;&gt;store/WidgetPropsSettingModalProvider.tsx -->
<g id="edge41" class="edge">
<title>component/Widget/WidgetPropsSettingModal.tsx&#45;&gt;store/WidgetPropsSettingModalProvider.tsx</title>
<path fill="none" stroke="#757575" d="M709.73,-651.35C740.11,-654.42 773.34,-657.4 804,-659.35 1004.97,-672.12 1237.12,-676.75 1387.13,-678.42"/>
<polygon fill="#757575" stroke="#757575" points="1386.68,-681.92 1396.72,-678.53 1386.76,-674.92 1386.68,-681.92"/>
</g>
<!-- component/Widget/WidgetPropsSettingModal/WidgetPropsButtons.tsx -->
<g id="node39" class="node">
<title>component/Widget/WidgetPropsSettingModal/WidgetPropsButtons.tsx</title>
<path fill="none" stroke="#c6c5fe" d="M1261.33,-609.85C1261.33,-609.85 811.67,-609.85 811.67,-609.85 807.83,-609.85 804,-606.02 804,-602.19 804,-602.19 804,-594.52 804,-594.52 804,-590.69 807.83,-586.85 811.67,-586.85 811.67,-586.85 1261.33,-586.85 1261.33,-586.85 1265.17,-586.85 1269,-590.69 1269,-594.52 1269,-594.52 1269,-602.19 1269,-602.19 1269,-606.02 1265.17,-609.85 1261.33,-609.85"/>
<text text-anchor="middle" x="1036.5" y="-594.65" font-family="Arial" font-size="14.00" fill="#c6c5fe">component/Widget/WidgetPropsSettingModal/WidgetPropsButtons.tsx</text>
</g>
<!-- component/Widget/WidgetPropsSettingModal.tsx&#45;&gt;component/Widget/WidgetPropsSettingModal/WidgetPropsButtons.tsx -->
<g id="edge39" class="edge">
<title>component/Widget/WidgetPropsSettingModal.tsx&#45;&gt;component/Widget/WidgetPropsSettingModal/WidgetPropsButtons.tsx</title>
<path fill="none" stroke="#757575" d="M714.74,-627.38C743.76,-624.32 775.05,-621.13 804,-618.35 828.75,-615.98 855,-613.59 880.59,-611.33"/>
<polygon fill="#757575" stroke="#757575" points="880.74,-614.83 890.4,-610.47 880.13,-607.86 880.74,-614.83"/>
</g>
<!-- component/Widget/WidgetPropsSettingModal/WidgetPropsList.tsx -->
<g id="node40" class="node">
<title>component/Widget/WidgetPropsSettingModal/WidgetPropsList.tsx</title>
<path fill="none" stroke="#cfffac" d="M1248.83,-650.85C1248.83,-650.85 824.17,-650.85 824.17,-650.85 820.33,-650.85 816.5,-647.02 816.5,-643.19 816.5,-643.19 816.5,-635.52 816.5,-635.52 816.5,-631.69 820.33,-627.85 824.17,-627.85 824.17,-627.85 1248.83,-627.85 1248.83,-627.85 1252.67,-627.85 1256.5,-631.69 1256.5,-635.52 1256.5,-635.52 1256.5,-643.19 1256.5,-643.19 1256.5,-647.02 1252.67,-650.85 1248.83,-650.85"/>
<text text-anchor="middle" x="1036.5" y="-635.65" font-family="Arial" font-size="14.00" fill="#cfffac">component/Widget/WidgetPropsSettingModal/WidgetPropsList.tsx</text>
</g>
<!-- component/Widget/WidgetPropsSettingModal.tsx&#45;&gt;component/Widget/WidgetPropsSettingModal/WidgetPropsList.tsx -->
<g id="edge40" class="edge">
<title>component/Widget/WidgetPropsSettingModal.tsx&#45;&gt;component/Widget/WidgetPropsSettingModal/WidgetPropsList.tsx</title>
<path fill="none" stroke="#757575" d="M768.36,-639.35C780.39,-639.35 792.65,-639.35 804.97,-639.35"/>
<polygon fill="#757575" stroke="#757575" points="804.78,-642.85 814.78,-639.35 804.78,-635.85 804.78,-642.85"/>
</g>
<!-- component/Widget/WidgetPropsSettingModal/WidgetPropsButtons.tsx&#45;&gt;store/WidgetProvider.tsx -->
<g id="edge42" class="edge">
<title>component/Widget/WidgetPropsSettingModal/WidgetPropsButtons.tsx&#45;&gt;store/WidgetProvider.tsx</title>
<path fill="none" stroke="#757575" d="M1269.49,-598.35C1332.15,-598.35 1396.58,-598.35 1447.31,-598.35"/>
<polygon fill="#757575" stroke="#757575" points="1447.06,-601.85 1457.06,-598.35 1447.06,-594.85 1447.06,-601.85"/>
</g>
<!-- component/chart/InformaticsChart/InforMaticsBox.tsx&#45;&gt;types/chart.d.ts -->
<g id="edge49" class="edge">
<title>component/chart/InformaticsChart/InforMaticsBox.tsx&#45;&gt;types/chart.d.ts</title>
<path fill="none" stroke="#757575" d="M2228.78,-232.38C2297.34,-229.24 2371.96,-225.82 2424.09,-223.44"/>
<polygon fill="#757575" stroke="#757575" points="2424.18,-226.94 2434.01,-222.98 2423.86,-219.94 2424.18,-226.94"/>
</g>
<!-- component/common/DatePicker/DatePickerTitle.tsx&#45;&gt;types/widget.d.ts -->
<g id="edge57" class="edge">
<title>component/common/DatePicker/DatePickerTitle.tsx&#45;&gt;types/widget.d.ts</title>
<path fill="none" stroke="#757575" d="M2533.27,-707.44C2568.36,-696.38 2620.55,-678.61 2664,-658.35 2729.89,-627.63 2802.31,-582.25 2840.48,-557.34"/>
<polygon fill="#757575" stroke="#757575" points="2842.16,-560.43 2848.6,-552.01 2838.32,-554.58 2842.16,-560.43"/>
</g>
<!-- component/common/DatePicker/ListPicker.tsx&#45;&gt;types/datePicker.d.ts -->
<g id="edge59" class="edge">
<title>component/common/DatePicker/ListPicker.tsx&#45;&gt;types/datePicker.d.ts</title>
<path fill="none" stroke="#757575" d="M2605.46,-792.33C2662.2,-798.39 2729.99,-805.64 2782.4,-811.25"/>
<polygon fill="#757575" stroke="#757575" points="2781.86,-814.71 2792.18,-812.3 2782.6,-807.75 2781.86,-814.71"/>
</g>
<!-- component/common/DatePicker/ListPickerItem.tsx -->
<g id="node47" class="node">
<title>component/common/DatePicker/ListPickerItem.tsx</title>
<path fill="none" stroke="#cfffac" d="M3029.33,-790.85C3029.33,-790.85 2707.67,-790.85 2707.67,-790.85 2703.83,-790.85 2700,-787.02 2700,-783.19 2700,-783.19 2700,-775.52 2700,-775.52 2700,-771.69 2703.83,-767.85 2707.67,-767.85 2707.67,-767.85 3029.33,-767.85 3029.33,-767.85 3033.17,-767.85 3037,-771.69 3037,-775.52 3037,-775.52 3037,-783.19 3037,-783.19 3037,-787.02 3033.17,-790.85 3029.33,-790.85"/>
<text text-anchor="middle" x="2868.5" y="-775.65" font-family="Arial" font-size="14.00" fill="#cfffac">component/common/DatePicker/ListPickerItem.tsx</text>
</g>
<!-- component/common/DatePicker/ListPicker.tsx&#45;&gt;component/common/DatePicker/ListPickerItem.tsx -->
<g id="edge58" class="edge">
<title>component/common/DatePicker/ListPicker.tsx&#45;&gt;component/common/DatePicker/ListPickerItem.tsx</title>
<path fill="none" stroke="#757575" d="M2646.97,-779.94C2660.65,-779.91 2674.58,-779.87 2688.45,-779.83"/>
<polygon fill="#757575" stroke="#757575" points="2688.05,-783.33 2698.04,-779.81 2688.03,-776.33 2688.05,-783.33"/>
</g>
<!-- page/Dashboard.tsx&#45;&gt;component/Dashboard/DashboardHeader.tsx -->
<g id="edge66" class="edge">
<title>page/Dashboard.tsx&#45;&gt;component/Dashboard/DashboardHeader.tsx</title>
<path fill="none" stroke="#757575" d="M356.01,-690.33C404.23,-714.4 512.99,-768.68 568.51,-796.39"/>
<polygon fill="#757575" stroke="#757575" points="566.68,-799.39 577.19,-800.72 569.81,-793.13 566.68,-799.39"/>
</g>
<!-- page/Dashboard.tsx&#45;&gt;component/Widget.tsx -->
<g id="edge67" class="edge">
<title>page/Dashboard.tsx&#45;&gt;component/Widget.tsx</title>
<path fill="none" stroke="#757575" d="M345.41,-666.5C388.95,-628.04 526.59,-506.42 580.52,-458.77"/>
<polygon fill="#757575" stroke="#757575" points="582.69,-461.52 587.87,-452.28 578.06,-456.28 582.69,-461.52"/>
</g>
<!-- page/Dashboard.tsx&#45;&gt;store/WidgetProvider.tsx -->
<g id="edge69" class="edge">
<title>page/Dashboard.tsx&#45;&gt;store/WidgetProvider.tsx</title>
<path fill="none" stroke="#757575" d="M403.45,-681.69C560.61,-687.99 947.91,-697.77 1269,-659.35 1347.73,-649.93 1437.03,-628.04 1492.06,-613.21"/>
<polygon fill="#757575" stroke="#757575" points="1492.74,-616.66 1501.48,-610.65 1490.91,-609.9 1492.74,-616.66"/>
</g>
<!-- page/Dashboard.tsx&#45;&gt;component/Widget/WidgetPropsSettingModal.tsx -->
<g id="edge68" class="edge">
<title>page/Dashboard.tsx&#45;&gt;component/Widget/WidgetPropsSettingModal.tsx</title>
<path fill="none" stroke="#757575" d="M403.42,-668.05C435.63,-663.41 474.09,-657.87 508.59,-652.89"/>
<polygon fill="#757575" stroke="#757575" points="508.74,-656.41 518.14,-651.51 507.74,-649.48 508.74,-656.41"/>
</g>
</g>
</svg>
