<?xml version="1.0" encoding="UTF-8" standalone="no"?>
<!DOCTYPE svg PUBLIC "-//W3C//DTD SVG 1.1//EN"
 "http://www.w3.org/Graphics/SVG/1.1/DTD/svg11.dtd">
<!-- Generated by graphviz version 7.1.0 (20230121.1956)
 -->
<!-- Title: G Pages: 1 -->
<svg width="3080pt" height="1152pt"
 viewBox="0.00 0.00 3080.20 1151.65" xmlns="http://www.w3.org/2000/svg" xmlns:xlink="http://www.w3.org/1999/xlink">
<g id="graph0" class="graph" transform="scale(1 1) rotate(0) translate(21.6 1130.05)">
<title>G</title>
<polygon fill="#111111" stroke="none" points="-21.6,21.6 -21.6,-1130.05 3058.6,-1130.05 3058.6,21.6 -21.6,21.6"/>
<!-- App.tsx -->
<g id="node1" class="node">
<title>App.tsx</title>
<path fill="none" stroke="#c6c5fe" d="M57.33,-770.45C57.33,-770.45 7.67,-770.45 7.67,-770.45 3.83,-770.45 0,-766.61 0,-762.78 0,-762.78 0,-755.11 0,-755.11 0,-751.28 3.83,-747.45 7.67,-747.45 7.67,-747.45 57.33,-747.45 57.33,-747.45 61.17,-747.45 65,-751.28 65,-755.11 65,-755.11 65,-762.78 65,-762.78 65,-766.61 61.17,-770.45 57.33,-770.45"/>
<text text-anchor="middle" x="32.5" y="-755.25" font-family="Arial" font-size="14.00" fill="#c6c5fe">App.tsx</text>
</g>
<!-- router/Router.tsx -->
<g id="node2" class="node">
<title>router/Router.tsx</title>
<path fill="none" stroke="#c6c5fe" d="M215.33,-770.45C215.33,-770.45 108.67,-770.45 108.67,-770.45 104.83,-770.45 101,-766.61 101,-762.78 101,-762.78 101,-755.11 101,-755.11 101,-751.28 104.83,-747.45 108.67,-747.45 108.67,-747.45 215.33,-747.45 215.33,-747.45 219.17,-747.45 223,-751.28 223,-755.11 223,-755.11 223,-762.78 223,-762.78 223,-766.61 219.17,-770.45 215.33,-770.45"/>
<text text-anchor="middle" x="162" y="-755.25" font-family="Arial" font-size="14.00" fill="#c6c5fe">router/Router.tsx</text>
</g>
<!-- App.tsx&#45;&gt;router/Router.tsx -->
<g id="edge1" class="edge">
<title>App.tsx&#45;&gt;router/Router.tsx</title>
<path fill="none" stroke="#757575" d="M65.34,-758.95C72.7,-758.95 80.81,-758.95 89.12,-758.95"/>
<polygon fill="#757575" stroke="#757575" points="88.99,-762.45 98.99,-758.95 88.99,-755.45 88.99,-762.45"/>
</g>
<!-- page/Dashboard.tsx -->
<g id="node48" class="node">
<title>page/Dashboard.tsx</title>
<path fill="none" stroke="#c6c5fe" d="M395.33,-770.45C395.33,-770.45 266.67,-770.45 266.67,-770.45 262.83,-770.45 259,-766.61 259,-762.78 259,-762.78 259,-755.11 259,-755.11 259,-751.28 262.83,-747.45 266.67,-747.45 266.67,-747.45 395.33,-747.45 395.33,-747.45 399.17,-747.45 403,-751.28 403,-755.11 403,-755.11 403,-762.78 403,-762.78 403,-766.61 399.17,-770.45 395.33,-770.45"/>
<text text-anchor="middle" x="331" y="-755.25" font-family="Arial" font-size="14.00" fill="#c6c5fe">page/Dashboard.tsx</text>
</g>
<!-- router/Router.tsx&#45;&gt;page/Dashboard.tsx -->
<g id="edge72" class="edge">
<title>router/Router.tsx&#45;&gt;page/Dashboard.tsx</title>
<path fill="none" stroke="#757575" d="M223.29,-758.95C231.1,-758.95 239.21,-758.95 247.3,-758.95"/>
<polygon fill="#757575" stroke="#757575" points="247.19,-762.45 257.19,-758.95 247.19,-755.45 247.19,-762.45"/>
</g>
<!-- asset/image/pause.png -->
<g id="node3" class="node">
<title>asset/image/pause.png</title>
<path fill="none" stroke="#cfffac" d="M1619.83,-985.45C1619.83,-985.45 1471.17,-985.45 1471.17,-985.45 1467.33,-985.45 1463.5,-981.61 1463.5,-977.78 1463.5,-977.78 1463.5,-970.11 1463.5,-970.11 1463.5,-966.28 1467.33,-962.45 1471.17,-962.45 1471.17,-962.45 1619.83,-962.45 1619.83,-962.45 1623.67,-962.45 1627.5,-966.28 1627.5,-970.11 1627.5,-970.11 1627.5,-977.78 1627.5,-977.78 1627.5,-981.61 1623.67,-985.45 1619.83,-985.45"/>
<text text-anchor="middle" x="1545.5" y="-970.25" font-family="Arial" font-size="14.00" fill="#cfffac">asset/image/pause.png</text>
</g>
<!-- asset/image/play.png -->
<g id="node4" class="node">
<title>asset/image/play.png</title>
<path fill="none" stroke="#cfffac" d="M1613.33,-1026.45C1613.33,-1026.45 1477.67,-1026.45 1477.67,-1026.45 1473.83,-1026.45 1470,-1022.61 1470,-1018.78 1470,-1018.78 1470,-1011.11 1470,-1011.11 1470,-1007.28 1473.83,-1003.45 1477.67,-1003.45 1477.67,-1003.45 1613.33,-1003.45 1613.33,-1003.45 1617.17,-1003.45 1621,-1007.28 1621,-1011.11 1621,-1011.11 1621,-1018.78 1621,-1018.78 1621,-1022.61 1617.17,-1026.45 1613.33,-1026.45"/>
<text text-anchor="middle" x="1545.5" y="-1011.25" font-family="Arial" font-size="14.00" fill="#cfffac">asset/image/play.png</text>
</g>
<!-- common/api.ts -->
<g id="node5" class="node">
<title>common/api.ts</title>
<path fill="none" stroke="#c6c5fe" d="M2100.83,-552.45C2100.83,-552.45 2006.17,-552.45 2006.17,-552.45 2002.33,-552.45 1998.5,-548.61 1998.5,-544.78 1998.5,-544.78 1998.5,-537.11 1998.5,-537.11 1998.5,-533.28 2002.33,-529.45 2006.17,-529.45 2006.17,-529.45 2100.83,-529.45 2100.83,-529.45 2104.67,-529.45 2108.5,-533.28 2108.5,-537.11 2108.5,-537.11 2108.5,-544.78 2108.5,-544.78 2108.5,-548.61 2104.67,-552.45 2100.83,-552.45"/>
<text text-anchor="middle" x="2053.5" y="-537.25" font-family="Arial" font-size="14.00" fill="#c6c5fe">common/api.ts</text>
</g>
<!-- types/api.d.ts -->
<g id="node6" class="node">
<title>types/api.d.ts</title>
<path fill="none" stroke="#cfffac" d="M2535.33,-552.45C2535.33,-552.45 2449.67,-552.45 2449.67,-552.45 2445.83,-552.45 2442,-548.61 2442,-544.78 2442,-544.78 2442,-537.11 2442,-537.11 2442,-533.28 2445.83,-529.45 2449.67,-529.45 2449.67,-529.45 2535.33,-529.45 2535.33,-529.45 2539.17,-529.45 2543,-533.28 2543,-537.11 2543,-537.11 2543,-544.78 2543,-544.78 2543,-548.61 2539.17,-552.45 2535.33,-552.45"/>
<text text-anchor="middle" x="2492.5" y="-537.25" font-family="Arial" font-size="14.00" fill="#cfffac">types/api.d.ts</text>
</g>
<!-- common/api.ts&#45;&gt;types/api.d.ts -->
<g id="edge2" class="edge">
<title>common/api.ts&#45;&gt;types/api.d.ts</title>
<path fill="none" stroke="#757575" d="M2108.96,-540.95C2190.77,-540.95 2344.89,-540.95 2430.41,-540.95"/>
<polygon fill="#757575" stroke="#757575" points="2430.25,-544.45 2440.25,-540.95 2430.25,-537.45 2430.25,-544.45"/>
</g>
<!-- common/chart.ts -->
<g id="node7" class="node">
<title>common/chart.ts</title>
<path fill="none" stroke="#c6c5fe" d="M2106.83,-154.45C2106.83,-154.45 2000.17,-154.45 2000.17,-154.45 1996.33,-154.45 1992.5,-150.61 1992.5,-146.78 1992.5,-146.78 1992.5,-139.11 1992.5,-139.11 1992.5,-135.28 1996.33,-131.45 2000.17,-131.45 2000.17,-131.45 2106.83,-131.45 2106.83,-131.45 2110.67,-131.45 2114.5,-135.28 2114.5,-139.11 2114.5,-139.11 2114.5,-146.78 2114.5,-146.78 2114.5,-150.61 2110.67,-154.45 2106.83,-154.45"/>
<text text-anchor="middle" x="2053.5" y="-139.25" font-family="Arial" font-size="14.00" fill="#c6c5fe">common/chart.ts</text>
</g>
<!-- types/chart.d.ts -->
<g id="node8" class="node">
<title>types/chart.d.ts</title>
<path fill="none" stroke="#cfffac" d="M2541.33,-232.45C2541.33,-232.45 2443.67,-232.45 2443.67,-232.45 2439.83,-232.45 2436,-228.61 2436,-224.78 2436,-224.78 2436,-217.11 2436,-217.11 2436,-213.28 2439.83,-209.45 2443.67,-209.45 2443.67,-209.45 2541.33,-209.45 2541.33,-209.45 2545.17,-209.45 2549,-213.28 2549,-217.11 2549,-217.11 2549,-224.78 2549,-224.78 2549,-228.61 2545.17,-232.45 2541.33,-232.45"/>
<text text-anchor="middle" x="2492.5" y="-217.25" font-family="Arial" font-size="14.00" fill="#cfffac">types/chart.d.ts</text>
</g>
<!-- common/chart.ts&#45;&gt;types/chart.d.ts -->
<g id="edge3" class="edge">
<title>common/chart.ts&#45;&gt;types/chart.d.ts</title>
<path fill="none" stroke="#757575" d="M2114.52,-147.49C2161.23,-151.56 2227.55,-158.52 2285,-168.95 2338.31,-178.62 2398.27,-194.26 2439.78,-205.87"/>
<polygon fill="#757575" stroke="#757575" points="2438.68,-209.19 2449.26,-208.54 2440.58,-202.46 2438.68,-209.19"/>
</g>
<!-- common/date.ts -->
<g id="node9" class="node">
<title>common/date.ts</title>
<path fill="none" stroke="#cfffac" d="M2544.33,-744.45C2544.33,-744.45 2440.67,-744.45 2440.67,-744.45 2436.83,-744.45 2433,-740.61 2433,-736.78 2433,-736.78 2433,-729.11 2433,-729.11 2433,-725.28 2436.83,-721.45 2440.67,-721.45 2440.67,-721.45 2544.33,-721.45 2544.33,-721.45 2548.17,-721.45 2552,-725.28 2552,-729.11 2552,-729.11 2552,-736.78 2552,-736.78 2552,-740.61 2548.17,-744.45 2544.33,-744.45"/>
<text text-anchor="middle" x="2492.5" y="-729.25" font-family="Arial" font-size="14.00" fill="#cfffac">common/date.ts</text>
</g>
<!-- common/widget.ts -->
<g id="node10" class="node">
<title>common/widget.ts</title>
<path fill="none" stroke="#cfffac" d="M2111.83,-434.45C2111.83,-434.45 1995.17,-434.45 1995.17,-434.45 1991.33,-434.45 1987.5,-430.61 1987.5,-426.78 1987.5,-426.78 1987.5,-419.11 1987.5,-419.11 1987.5,-415.28 1991.33,-411.45 1995.17,-411.45 1995.17,-411.45 2111.83,-411.45 2111.83,-411.45 2115.67,-411.45 2119.5,-415.28 2119.5,-419.11 2119.5,-419.11 2119.5,-426.78 2119.5,-426.78 2119.5,-430.61 2115.67,-434.45 2111.83,-434.45"/>
<text text-anchor="middle" x="2053.5" y="-419.25" font-family="Arial" font-size="14.00" fill="#cfffac">common/widget.ts</text>
</g>
<!-- component/Dashboard/DashboardHeader.tsx -->
<g id="node11" class="node">
<title>component/Dashboard/DashboardHeader.tsx</title>
<path fill="none" stroke="#c6c5fe" d="M747.33,-924.45C747.33,-924.45 459.67,-924.45 459.67,-924.45 455.83,-924.45 452,-920.61 452,-916.78 452,-916.78 452,-909.11 452,-909.11 452,-905.28 455.83,-901.45 459.67,-901.45 459.67,-901.45 747.33,-901.45 747.33,-901.45 751.17,-901.45 755,-905.28 755,-909.11 755,-909.11 755,-916.78 755,-916.78 755,-920.61 751.17,-924.45 747.33,-924.45"/>
<text text-anchor="middle" x="603.5" y="-909.25" font-family="Arial" font-size="14.00" fill="#c6c5fe">component/Dashboard/DashboardHeader.tsx</text>
</g>
<!-- component/Dashboard/DashboardHeader/PlayIcon.tsx -->
<g id="node12" class="node">
<title>component/Dashboard/DashboardHeader/PlayIcon.tsx</title>
<path fill="none" stroke="#c6c5fe" d="M1209.83,-985.45C1209.83,-985.45 863.17,-985.45 863.17,-985.45 859.33,-985.45 855.5,-981.61 855.5,-977.78 855.5,-977.78 855.5,-970.11 855.5,-970.11 855.5,-966.28 859.33,-962.45 863.17,-962.45 863.17,-962.45 1209.83,-962.45 1209.83,-962.45 1213.67,-962.45 1217.5,-966.28 1217.5,-970.11 1217.5,-970.11 1217.5,-977.78 1217.5,-977.78 1217.5,-981.61 1213.67,-985.45 1209.83,-985.45"/>
<text text-anchor="middle" x="1036.5" y="-970.25" font-family="Arial" font-size="14.00" fill="#c6c5fe">component/Dashboard/DashboardHeader/PlayIcon.tsx</text>
</g>
<!-- component/Dashboard/DashboardHeader.tsx&#45;&gt;component/Dashboard/DashboardHeader/PlayIcon.tsx -->
<g id="edge4" class="edge">
<title>component/Dashboard/DashboardHeader.tsx&#45;&gt;component/Dashboard/DashboardHeader/PlayIcon.tsx</title>
<path fill="none" stroke="#757575" d="M656.32,-924.93C696.43,-933.81 753.49,-945.61 804,-952.95 824.23,-955.88 845.51,-958.48 866.64,-960.76"/>
<polygon fill="#757575" stroke="#757575" points="866.2,-964.23 876.51,-961.79 866.93,-957.27 866.2,-964.23"/>
</g>
<!-- component/Dashboard/DashboardHeader/SelectRealTimeRangeArea.tsx -->
<g id="node13" class="node">
<title>component/Dashboard/DashboardHeader/SelectRealTimeRangeArea.tsx</title>
<path fill="none" stroke="#c6c5fe" d="M1778.33,-1067.45C1778.33,-1067.45 1312.67,-1067.45 1312.67,-1067.45 1308.83,-1067.45 1305,-1063.61 1305,-1059.78 1305,-1059.78 1305,-1052.11 1305,-1052.11 1305,-1048.28 1308.83,-1044.45 1312.67,-1044.45 1312.67,-1044.45 1778.33,-1044.45 1778.33,-1044.45 1782.17,-1044.45 1786,-1048.28 1786,-1052.11 1786,-1052.11 1786,-1059.78 1786,-1059.78 1786,-1063.61 1782.17,-1067.45 1778.33,-1067.45"/>
<text text-anchor="middle" x="1545.5" y="-1052.25" font-family="Arial" font-size="14.00" fill="#c6c5fe">component/Dashboard/DashboardHeader/SelectRealTimeRangeArea.tsx</text>
</g>
<!-- component/Dashboard/DashboardHeader.tsx&#45;&gt;component/Dashboard/DashboardHeader/SelectRealTimeRangeArea.tsx -->
<g id="edge5" class="edge">
<title>component/Dashboard/DashboardHeader.tsx&#45;&gt;component/Dashboard/DashboardHeader/SelectRealTimeRangeArea.tsx</title>
<path fill="none" stroke="#757575" d="M627.39,-924.92C663.71,-943.3 737.28,-978 804,-993.95 964.2,-1032.23 1148.79,-1047.75 1293.6,-1053.69"/>
<polygon fill="#757575" stroke="#757575" points="1293.19,-1057.18 1303.32,-1054.08 1293.47,-1050.18 1293.19,-1057.18"/>
</g>
<!-- component/Dashboard/DashboardHeader/TimeBlock.tsx -->
<g id="node14" class="node">
<title>component/Dashboard/DashboardHeader/TimeBlock.tsx</title>
<path fill="none" stroke="#c6c5fe" d="M1215.83,-944.45C1215.83,-944.45 857.17,-944.45 857.17,-944.45 853.33,-944.45 849.5,-940.61 849.5,-936.78 849.5,-936.78 849.5,-929.11 849.5,-929.11 849.5,-925.28 853.33,-921.45 857.17,-921.45 857.17,-921.45 1215.83,-921.45 1215.83,-921.45 1219.67,-921.45 1223.5,-925.28 1223.5,-929.11 1223.5,-929.11 1223.5,-936.78 1223.5,-936.78 1223.5,-940.61 1219.67,-944.45 1215.83,-944.45"/>
<text text-anchor="middle" x="1036.5" y="-929.25" font-family="Arial" font-size="14.00" fill="#c6c5fe">component/Dashboard/DashboardHeader/TimeBlock.tsx</text>
</g>
<!-- component/Dashboard/DashboardHeader.tsx&#45;&gt;component/Dashboard/DashboardHeader/TimeBlock.tsx -->
<g id="edge6" class="edge">
<title>component/Dashboard/DashboardHeader.tsx&#45;&gt;component/Dashboard/DashboardHeader/TimeBlock.tsx</title>
<path fill="none" stroke="#757575" d="M755.24,-919.94C781.91,-921.18 810.04,-922.48 837.77,-923.77"/>
<polygon fill="#757575" stroke="#757575" points="837.55,-927.26 847.7,-924.23 837.87,-920.27 837.55,-927.26"/>
</g>
<!-- store/DashboardProvider.tsx -->
<g id="node15" class="node">
<title>store/DashboardProvider.tsx</title>
<path fill="none" stroke="#c6c5fe" d="M2144.33,-744.45C2144.33,-744.45 1962.67,-744.45 1962.67,-744.45 1958.83,-744.45 1955,-740.61 1955,-736.78 1955,-736.78 1955,-729.11 1955,-729.11 1955,-725.28 1958.83,-721.45 1962.67,-721.45 1962.67,-721.45 2144.33,-721.45 2144.33,-721.45 2148.17,-721.45 2152,-725.28 2152,-729.11 2152,-729.11 2152,-736.78 2152,-736.78 2152,-740.61 2148.17,-744.45 2144.33,-744.45"/>
<text text-anchor="middle" x="2053.5" y="-729.25" font-family="Arial" font-size="14.00" fill="#c6c5fe">store/DashboardProvider.tsx</text>
</g>
<!-- component/Dashboard/DashboardHeader.tsx&#45;&gt;store/DashboardProvider.tsx -->
<g id="edge7" class="edge">
<title>component/Dashboard/DashboardHeader.tsx&#45;&gt;store/DashboardProvider.tsx</title>
<path fill="none" stroke="#757575" d="M755.26,-903.9C1064.03,-884.85 1743.11,-840.15 1786,-812.95 1812.26,-796.29 1795.63,-769.42 1822,-752.95 1857.57,-730.72 1902.48,-723.3 1943.19,-722.3"/>
<polygon fill="#757575" stroke="#757575" points="1943.07,-725.8 1953.03,-722.2 1943,-718.8 1943.07,-725.8"/>
</g>
<!-- store/WidgetPropsSettingModalProvider.tsx -->
<g id="node16" class="node">
<title>store/WidgetPropsSettingModalProvider.tsx</title>
<path fill="none" stroke="#c6c5fe" d="M1684.83,-804.45C1684.83,-804.45 1406.17,-804.45 1406.17,-804.45 1402.33,-804.45 1398.5,-800.61 1398.5,-796.78 1398.5,-796.78 1398.5,-789.11 1398.5,-789.11 1398.5,-785.28 1402.33,-781.45 1406.17,-781.45 1406.17,-781.45 1684.83,-781.45 1684.83,-781.45 1688.67,-781.45 1692.5,-785.28 1692.5,-789.11 1692.5,-789.11 1692.5,-796.78 1692.5,-796.78 1692.5,-800.61 1688.67,-804.45 1684.83,-804.45"/>
<text text-anchor="middle" x="1545.5" y="-789.25" font-family="Arial" font-size="14.00" fill="#c6c5fe">store/WidgetPropsSettingModalProvider.tsx</text>
</g>
<!-- component/Dashboard/DashboardHeader.tsx&#45;&gt;store/WidgetPropsSettingModalProvider.tsx -->
<g id="edge8" class="edge">
<title>component/Dashboard/DashboardHeader.tsx&#45;&gt;store/WidgetPropsSettingModalProvider.tsx</title>
<path fill="none" stroke="#757575" d="M669.5,-900.97C708.44,-894.02 758.96,-885.39 804,-878.95 1016.58,-848.51 1264.68,-821.4 1412.95,-806.09"/>
<polygon fill="#757575" stroke="#757575" points="1413.23,-809.58 1422.82,-805.07 1412.52,-802.62 1413.23,-809.58"/>
</g>
<!-- component/Dashboard/DashboardHeader/PlayIcon.tsx&#45;&gt;asset/image/pause.png -->
<g id="edge17" class="edge">
<title>component/Dashboard/DashboardHeader/PlayIcon.tsx&#45;&gt;asset/image/pause.png</title>
<path fill="none" stroke="#757575" d="M1217.68,-973.95C1296.75,-973.95 1386.24,-973.95 1451.56,-973.95"/>
<polygon fill="#757575" stroke="#757575" points="1451.54,-977.45 1461.54,-973.95 1451.54,-970.45 1451.54,-977.45"/>
</g>
<!-- component/Dashboard/DashboardHeader/PlayIcon.tsx&#45;&gt;asset/image/play.png -->
<g id="edge18" class="edge">
<title>component/Dashboard/DashboardHeader/PlayIcon.tsx&#45;&gt;asset/image/play.png</title>
<path fill="none" stroke="#757575" d="M1185.85,-985.94C1274.52,-993.11 1384.05,-1001.97 1458.58,-1008"/>
<polygon fill="#757575" stroke="#757575" points="1458.02,-1011.46 1468.27,-1008.78 1458.58,-1004.49 1458.02,-1011.46"/>
</g>
<!-- hook/useBoolean.tsx -->
<g id="node22" class="node">
<title>hook/useBoolean.tsx</title>
<path fill="none" stroke="#cfffac" d="M2120.33,-785.45C2120.33,-785.45 1986.67,-785.45 1986.67,-785.45 1982.83,-785.45 1979,-781.61 1979,-777.78 1979,-777.78 1979,-770.11 1979,-770.11 1979,-766.28 1982.83,-762.45 1986.67,-762.45 1986.67,-762.45 2120.33,-762.45 2120.33,-762.45 2124.17,-762.45 2128,-766.28 2128,-770.11 2128,-770.11 2128,-777.78 2128,-777.78 2128,-781.61 2124.17,-785.45 2120.33,-785.45"/>
<text text-anchor="middle" x="2053.5" y="-770.25" font-family="Arial" font-size="14.00" fill="#cfffac">hook/useBoolean.tsx</text>
</g>
<!-- component/Dashboard/DashboardHeader/SelectRealTimeRangeArea.tsx&#45;&gt;hook/useBoolean.tsx -->
<g id="edge21" class="edge">
<title>component/Dashboard/DashboardHeader/SelectRealTimeRangeArea.tsx&#45;&gt;hook/useBoolean.tsx</title>
<path fill="none" stroke="#757575" d="M1601.37,-1067.94C1655.08,-1076.23 1735.92,-1078.97 1786,-1034.95 1842.05,-985.68 1774.25,-928.3 1822,-870.95 1859.06,-826.43 1920.09,-801.97 1970.05,-788.75"/>
<polygon fill="#757575" stroke="#757575" points="1970.87,-792.15 1979.71,-786.31 1969.16,-785.37 1970.87,-792.15"/>
</g>
<!-- hook/useOutsideClick.tsx -->
<g id="node23" class="node">
<title>hook/useOutsideClick.tsx</title>
<path fill="none" stroke="#cfffac" d="M2133.83,-985.45C2133.83,-985.45 1973.17,-985.45 1973.17,-985.45 1969.33,-985.45 1965.5,-981.61 1965.5,-977.78 1965.5,-977.78 1965.5,-970.11 1965.5,-970.11 1965.5,-966.28 1969.33,-962.45 1973.17,-962.45 1973.17,-962.45 2133.83,-962.45 2133.83,-962.45 2137.67,-962.45 2141.5,-966.28 2141.5,-970.11 2141.5,-970.11 2141.5,-977.78 2141.5,-977.78 2141.5,-981.61 2137.67,-985.45 2133.83,-985.45"/>
<text text-anchor="middle" x="2053.5" y="-970.25" font-family="Arial" font-size="14.00" fill="#cfffac">hook/useOutsideClick.tsx</text>
</g>
<!-- component/Dashboard/DashboardHeader/SelectRealTimeRangeArea.tsx&#45;&gt;hook/useOutsideClick.tsx -->
<g id="edge22" class="edge">
<title>component/Dashboard/DashboardHeader/SelectRealTimeRangeArea.tsx&#45;&gt;hook/useOutsideClick.tsx</title>
<path fill="none" stroke="#757575" d="M1765.24,-1044.05C1772.35,-1041.36 1779.3,-1038.34 1786,-1034.95 1807.63,-1023.99 1800.36,-1004.89 1822,-993.95 1862.14,-973.64 1911.27,-967.27 1953.85,-966.53"/>
<polygon fill="#757575" stroke="#757575" points="1953.6,-970.03 1963.58,-966.47 1953.56,-963.03 1953.6,-970.03"/>
</g>
<!-- component/Dashboard/DashboardHeader/RealTime.tsx -->
<g id="node25" class="node">
<title>component/Dashboard/DashboardHeader/RealTime.tsx</title>
<path fill="none" stroke="#cfffac" d="M2229.83,-1108.45C2229.83,-1108.45 1877.17,-1108.45 1877.17,-1108.45 1873.33,-1108.45 1869.5,-1104.61 1869.5,-1100.78 1869.5,-1100.78 1869.5,-1093.11 1869.5,-1093.11 1869.5,-1089.28 1873.33,-1085.45 1877.17,-1085.45 1877.17,-1085.45 2229.83,-1085.45 2229.83,-1085.45 2233.67,-1085.45 2237.5,-1089.28 2237.5,-1093.11 2237.5,-1093.11 2237.5,-1100.78 2237.5,-1100.78 2237.5,-1104.61 2233.67,-1108.45 2229.83,-1108.45"/>
<text text-anchor="middle" x="2053.5" y="-1093.25" font-family="Arial" font-size="14.00" fill="#cfffac">component/Dashboard/DashboardHeader/RealTime.tsx</text>
</g>
<!-- component/Dashboard/DashboardHeader/SelectRealTimeRangeArea.tsx&#45;&gt;component/Dashboard/DashboardHeader/RealTime.tsx -->
<g id="edge19" class="edge">
<title>component/Dashboard/DashboardHeader/SelectRealTimeRangeArea.tsx&#45;&gt;component/Dashboard/DashboardHeader/RealTime.tsx</title>
<path fill="none" stroke="#757575" d="M1694.56,-1067.94C1757.01,-1073 1829.84,-1078.9 1893.44,-1084.06"/>
<polygon fill="#757575" stroke="#757575" points="1893.03,-1087.54 1903.28,-1084.86 1893.6,-1080.56 1893.03,-1087.54"/>
</g>
<!-- component/Dashboard/DashboardHeader/SelectRealTimeListItem.tsx -->
<g id="node26" class="node">
<title>component/Dashboard/DashboardHeader/SelectRealTimeListItem.tsx</title>
<path fill="none" stroke="#cfffac" d="M2275.83,-1067.45C2275.83,-1067.45 1831.17,-1067.45 1831.17,-1067.45 1827.33,-1067.45 1823.5,-1063.61 1823.5,-1059.78 1823.5,-1059.78 1823.5,-1052.11 1823.5,-1052.11 1823.5,-1048.28 1827.33,-1044.45 1831.17,-1044.45 1831.17,-1044.45 2275.83,-1044.45 2275.83,-1044.45 2279.67,-1044.45 2283.5,-1048.28 2283.5,-1052.11 2283.5,-1052.11 2283.5,-1059.78 2283.5,-1059.78 2283.5,-1063.61 2279.67,-1067.45 2275.83,-1067.45"/>
<text text-anchor="middle" x="2053.5" y="-1052.25" font-family="Arial" font-size="14.00" fill="#cfffac">component/Dashboard/DashboardHeader/SelectRealTimeListItem.tsx</text>
</g>
<!-- component/Dashboard/DashboardHeader/SelectRealTimeRangeArea.tsx&#45;&gt;component/Dashboard/DashboardHeader/SelectRealTimeListItem.tsx -->
<g id="edge20" class="edge">
<title>component/Dashboard/DashboardHeader/SelectRealTimeRangeArea.tsx&#45;&gt;component/Dashboard/DashboardHeader/SelectRealTimeListItem.tsx</title>
<path fill="none" stroke="#757575" d="M1786.16,-1055.95C1794.78,-1055.95 1803.41,-1055.95 1812.03,-1055.95"/>
<polygon fill="#757575" stroke="#757575" points="1811.83,-1059.45 1821.83,-1055.95 1811.83,-1052.45 1811.83,-1059.45"/>
</g>
<!-- component/Dashboard/DashboardHeader/CurrentTime.tsx -->
<g id="node17" class="node">
<title>component/Dashboard/DashboardHeader/CurrentTime.tsx</title>
<path fill="none" stroke="#c6c5fe" d="M1730.83,-944.45C1730.83,-944.45 1360.17,-944.45 1360.17,-944.45 1356.33,-944.45 1352.5,-940.61 1352.5,-936.78 1352.5,-936.78 1352.5,-929.11 1352.5,-929.11 1352.5,-925.28 1356.33,-921.45 1360.17,-921.45 1360.17,-921.45 1730.83,-921.45 1730.83,-921.45 1734.67,-921.45 1738.5,-925.28 1738.5,-929.11 1738.5,-929.11 1738.5,-936.78 1738.5,-936.78 1738.5,-940.61 1734.67,-944.45 1730.83,-944.45"/>
<text text-anchor="middle" x="1545.5" y="-929.25" font-family="Arial" font-size="14.00" fill="#c6c5fe">component/Dashboard/DashboardHeader/CurrentTime.tsx</text>
</g>
<!-- component/Dashboard/DashboardHeader/TimeBlock.tsx&#45;&gt;component/Dashboard/DashboardHeader/CurrentTime.tsx -->
<g id="edge23" class="edge">
<title>component/Dashboard/DashboardHeader/TimeBlock.tsx&#45;&gt;component/Dashboard/DashboardHeader/CurrentTime.tsx</title>
<path fill="none" stroke="#757575" d="M1223.77,-932.95C1261.82,-932.95 1302.05,-932.95 1340.68,-932.95"/>
<polygon fill="#757575" stroke="#757575" points="1340.55,-936.45 1350.55,-932.95 1340.55,-929.45 1340.55,-936.45"/>
</g>
<!-- component/Dashboard/DashboardHeader/DatePickerArea.tsx -->
<g id="node20" class="node">
<title>component/Dashboard/DashboardHeader/DatePickerArea.tsx</title>
<path fill="none" stroke="#c6c5fe" d="M1741.33,-903.45C1741.33,-903.45 1349.67,-903.45 1349.67,-903.45 1345.83,-903.45 1342,-899.61 1342,-895.78 1342,-895.78 1342,-888.11 1342,-888.11 1342,-884.28 1345.83,-880.45 1349.67,-880.45 1349.67,-880.45 1741.33,-880.45 1741.33,-880.45 1745.17,-880.45 1749,-884.28 1749,-888.11 1749,-888.11 1749,-895.78 1749,-895.78 1749,-899.61 1745.17,-903.45 1741.33,-903.45"/>
<text text-anchor="middle" x="1545.5" y="-888.25" font-family="Arial" font-size="14.00" fill="#c6c5fe">component/Dashboard/DashboardHeader/DatePickerArea.tsx</text>
</g>
<!-- component/Dashboard/DashboardHeader/TimeBlock.tsx&#45;&gt;component/Dashboard/DashboardHeader/DatePickerArea.tsx -->
<g id="edge24" class="edge">
<title>component/Dashboard/DashboardHeader/TimeBlock.tsx&#45;&gt;component/Dashboard/DashboardHeader/DatePickerArea.tsx</title>
<path fill="none" stroke="#757575" d="M1185.85,-920.95C1248.43,-915.89 1321.4,-909.99 1385.12,-904.83"/>
<polygon fill="#757575" stroke="#757575" points="1385.3,-908.33 1394.99,-904.04 1384.74,-901.35 1385.3,-908.33"/>
</g>
<!-- store/DashboardProvider.tsx&#45;&gt;common/date.ts -->
<g id="edge73" class="edge">
<title>store/DashboardProvider.tsx&#45;&gt;common/date.ts</title>
<path fill="none" stroke="#757575" d="M2152.3,-732.95C2233.98,-732.95 2348.44,-732.95 2421.28,-732.95"/>
<polygon fill="#757575" stroke="#757575" points="2421.09,-736.45 2431.09,-732.95 2421.09,-729.45 2421.09,-736.45"/>
</g>
<!-- store/WidgetPropsSettingModalProvider.tsx&#45;&gt;hook/useBoolean.tsx -->
<g id="edge74" class="edge">
<title>store/WidgetPropsSettingModalProvider.tsx&#45;&gt;hook/useBoolean.tsx</title>
<path fill="none" stroke="#757575" d="M1692.86,-787.45C1781.97,-784.1 1892.7,-779.95 1967.57,-777.14"/>
<polygon fill="#757575" stroke="#757575" points="1967.43,-780.64 1977.3,-776.77 1967.17,-773.65 1967.43,-780.64"/>
</g>
<!-- hook/useCurrentTime.tsx -->
<g id="node18" class="node">
<title>hook/useCurrentTime.tsx</title>
<path fill="none" stroke="#cfffac" d="M2133.33,-1026.45C2133.33,-1026.45 1973.67,-1026.45 1973.67,-1026.45 1969.83,-1026.45 1966,-1022.61 1966,-1018.78 1966,-1018.78 1966,-1011.11 1966,-1011.11 1966,-1007.28 1969.83,-1003.45 1973.67,-1003.45 1973.67,-1003.45 2133.33,-1003.45 2133.33,-1003.45 2137.17,-1003.45 2141,-1007.28 2141,-1011.11 2141,-1011.11 2141,-1018.78 2141,-1018.78 2141,-1022.61 2137.17,-1026.45 2133.33,-1026.45"/>
<text text-anchor="middle" x="2053.5" y="-1011.25" font-family="Arial" font-size="14.00" fill="#cfffac">hook/useCurrentTime.tsx</text>
</g>
<!-- component/Dashboard/DashboardHeader/CurrentTime.tsx&#45;&gt;hook/useCurrentTime.tsx -->
<g id="edge9" class="edge">
<title>component/Dashboard/DashboardHeader/CurrentTime.tsx&#45;&gt;hook/useCurrentTime.tsx</title>
<path fill="none" stroke="#757575" d="M1738.76,-935.67C1755.2,-939.85 1771.19,-945.48 1786,-952.95 1807.66,-963.86 1800.39,-982.95 1822,-993.95 1862.28,-1014.43 1911.64,-1020.97 1954.34,-1021.87"/>
<polygon fill="#757575" stroke="#757575" points="1954.07,-1025.36 1964.11,-1021.96 1954.14,-1018.36 1954.07,-1025.36"/>
</g>
<!-- component/Dashboard/DashboardHeader/DateBox.tsx -->
<g id="node19" class="node">
<title>component/Dashboard/DashboardHeader/DateBox.tsx</title>
<path fill="none" stroke="#cfffac" d="M2226.83,-903.45C2226.83,-903.45 1880.17,-903.45 1880.17,-903.45 1876.33,-903.45 1872.5,-899.61 1872.5,-895.78 1872.5,-895.78 1872.5,-888.11 1872.5,-888.11 1872.5,-884.28 1876.33,-880.45 1880.17,-880.45 1880.17,-880.45 2226.83,-880.45 2226.83,-880.45 2230.67,-880.45 2234.5,-884.28 2234.5,-888.11 2234.5,-888.11 2234.5,-895.78 2234.5,-895.78 2234.5,-899.61 2230.67,-903.45 2226.83,-903.45"/>
<text text-anchor="middle" x="2053.5" y="-888.25" font-family="Arial" font-size="14.00" fill="#cfffac">component/Dashboard/DashboardHeader/DateBox.tsx</text>
</g>
<!-- component/Dashboard/DashboardHeader/DatePickerArea.tsx&#45;&gt;common/date.ts -->
<g id="edge10" class="edge">
<title>component/Dashboard/DashboardHeader/DatePickerArea.tsx&#45;&gt;common/date.ts</title>
<path fill="none" stroke="#757575" d="M1741.57,-880.01C1756.87,-876.3 1771.85,-871.67 1786,-865.95 1804.79,-858.34 1803.16,-845.43 1822,-837.95 2014.12,-761.68 2082.05,-833.19 2285,-793.95 2342.15,-782.9 2406.18,-762.72 2447.58,-748.61"/>
<polygon fill="#757575" stroke="#757575" points="2448.62,-751.95 2456.94,-745.38 2446.34,-745.33 2448.62,-751.95"/>
</g>
<!-- component/Dashboard/DashboardHeader/DatePickerArea.tsx&#45;&gt;store/DashboardProvider.tsx -->
<g id="edge15" class="edge">
<title>component/Dashboard/DashboardHeader/DatePickerArea.tsx&#45;&gt;store/DashboardProvider.tsx</title>
<path fill="none" stroke="#757575" d="M1626.85,-903.94C1677.83,-906.98 1742.2,-901.75 1786,-865.95 1826.81,-832.59 1780.83,-785.86 1822,-752.95 1865.44,-718.21 1929.32,-715.2 1978.82,-719.76"/>
<polygon fill="#757575" stroke="#757575" points="1978.29,-723.22 1988.61,-720.79 1979.03,-716.26 1978.29,-723.22"/>
</g>
<!-- component/Dashboard/DashboardHeader/DatePickerArea.tsx&#45;&gt;component/Dashboard/DashboardHeader/DateBox.tsx -->
<g id="edge11" class="edge">
<title>component/Dashboard/DashboardHeader/DatePickerArea.tsx&#45;&gt;component/Dashboard/DashboardHeader/DateBox.tsx</title>
<path fill="none" stroke="#757575" d="M1749.39,-891.95C1786.15,-891.95 1824.37,-891.95 1860.79,-891.95"/>
<polygon fill="#757575" stroke="#757575" points="1860.52,-895.45 1870.52,-891.95 1860.52,-888.45 1860.52,-895.45"/>
</g>
<!-- component/common/DatePicker.tsx -->
<g id="node21" class="node">
<title>component/common/DatePicker.tsx</title>
<path fill="none" stroke="#c6c5fe" d="M2166.83,-944.45C2166.83,-944.45 1940.17,-944.45 1940.17,-944.45 1936.33,-944.45 1932.5,-940.61 1932.5,-936.78 1932.5,-936.78 1932.5,-929.11 1932.5,-929.11 1932.5,-925.28 1936.33,-921.45 1940.17,-921.45 1940.17,-921.45 2166.83,-921.45 2166.83,-921.45 2170.67,-921.45 2174.5,-925.28 2174.5,-929.11 2174.5,-929.11 2174.5,-936.78 2174.5,-936.78 2174.5,-940.61 2170.67,-944.45 2166.83,-944.45"/>
<text text-anchor="middle" x="2053.5" y="-929.25" font-family="Arial" font-size="14.00" fill="#c6c5fe">component/common/DatePicker.tsx</text>
</g>
<!-- component/Dashboard/DashboardHeader/DatePickerArea.tsx&#45;&gt;component/common/DatePicker.tsx -->
<g id="edge12" class="edge">
<title>component/Dashboard/DashboardHeader/DatePickerArea.tsx&#45;&gt;component/common/DatePicker.tsx</title>
<path fill="none" stroke="#757575" d="M1694.56,-903.94C1766.11,-909.74 1851.28,-916.64 1920.59,-922.26"/>
<polygon fill="#757575" stroke="#757575" points="1920.25,-925.74 1930.5,-923.06 1920.82,-918.76 1920.25,-925.74"/>
</g>
<!-- component/Dashboard/DashboardHeader/DatePickerArea.tsx&#45;&gt;hook/useBoolean.tsx -->
<g id="edge13" class="edge">
<title>component/Dashboard/DashboardHeader/DatePickerArea.tsx&#45;&gt;hook/useBoolean.tsx</title>
<path fill="none" stroke="#757575" d="M1749.27,-884.5C1762.23,-879.66 1774.62,-873.56 1786,-865.95 1813.77,-847.36 1794.27,-818.59 1822,-799.95 1864.14,-771.61 1920.7,-764.88 1967.24,-765.35"/>
<polygon fill="#757575" stroke="#757575" points="1966.94,-768.84 1977.02,-765.57 1967.1,-761.85 1966.94,-768.84"/>
</g>
<!-- component/Dashboard/DashboardHeader/DatePickerArea.tsx&#45;&gt;hook/useOutsideClick.tsx -->
<g id="edge14" class="edge">
<title>component/Dashboard/DashboardHeader/DatePickerArea.tsx&#45;&gt;hook/useOutsideClick.tsx</title>
<path fill="none" stroke="#757575" d="M1749.24,-897.56C1761.99,-901.35 1774.36,-906.08 1786,-911.95 1807.66,-922.86 1800.39,-941.95 1822,-952.95 1862.11,-973.35 1911.24,-979.92 1953.82,-980.86"/>
<polygon fill="#757575" stroke="#757575" points="1953.52,-984.35 1963.55,-980.96 1953.59,-977.35 1953.52,-984.35"/>
</g>
<!-- types/widget.d.ts -->
<g id="node24" class="node">
<title>types/widget.d.ts</title>
<path fill="none" stroke="#cfffac" d="M2922.33,-704.45C2922.33,-704.45 2814.67,-704.45 2814.67,-704.45 2810.83,-704.45 2807,-700.61 2807,-696.78 2807,-696.78 2807,-689.11 2807,-689.11 2807,-685.28 2810.83,-681.45 2814.67,-681.45 2814.67,-681.45 2922.33,-681.45 2922.33,-681.45 2926.17,-681.45 2930,-685.28 2930,-689.11 2930,-689.11 2930,-696.78 2930,-696.78 2930,-700.61 2926.17,-704.45 2922.33,-704.45"/>
<text text-anchor="middle" x="2868.5" y="-689.25" font-family="Arial" font-size="14.00" fill="#cfffac">types/widget.d.ts</text>
</g>
<!-- component/Dashboard/DashboardHeader/DatePickerArea.tsx&#45;&gt;types/widget.d.ts -->
<g id="edge16" class="edge">
<title>component/Dashboard/DashboardHeader/DatePickerArea.tsx&#45;&gt;types/widget.d.ts</title>
<path fill="none" stroke="#757575" d="M1700.94,-879.95C1900.45,-864.3 2228.92,-837.97 2285,-829.95 2455.15,-805.6 2497.19,-794.4 2664,-752.95 2717.86,-739.56 2778.82,-721.14 2819.86,-708.26"/>
<polygon fill="#757575" stroke="#757575" points="2820.7,-711.66 2829.19,-705.32 2818.6,-704.99 2820.7,-711.66"/>
</g>
<!-- component/common/DatePicker/DatePickerTitle.tsx -->
<g id="node44" class="node">
<title>component/common/DatePicker/DatePickerTitle.tsx</title>
<path fill="none" stroke="#c6c5fe" d="M2656.33,-903.45C2656.33,-903.45 2328.67,-903.45 2328.67,-903.45 2324.83,-903.45 2321,-899.61 2321,-895.78 2321,-895.78 2321,-888.11 2321,-888.11 2321,-884.28 2324.83,-880.45 2328.67,-880.45 2328.67,-880.45 2656.33,-880.45 2656.33,-880.45 2660.17,-880.45 2664,-884.28 2664,-888.11 2664,-888.11 2664,-895.78 2664,-895.78 2664,-899.61 2660.17,-903.45 2656.33,-903.45"/>
<text text-anchor="middle" x="2492.5" y="-888.25" font-family="Arial" font-size="14.00" fill="#c6c5fe">component/common/DatePicker/DatePickerTitle.tsx</text>
</g>
<!-- component/common/DatePicker.tsx&#45;&gt;component/common/DatePicker/DatePickerTitle.tsx -->
<g id="edge56" class="edge">
<title>component/common/DatePicker.tsx&#45;&gt;component/common/DatePicker/DatePickerTitle.tsx</title>
<path fill="none" stroke="#757575" d="M2174.74,-922.12C2210.25,-918.89 2249.19,-915.31 2285,-911.95 2308.45,-909.74 2333.39,-907.36 2357.54,-905.03"/>
<polygon fill="#757575" stroke="#757575" points="2357.82,-908.52 2367.44,-904.08 2357.15,-901.55 2357.82,-908.52"/>
</g>
<!-- component/common/DatePicker/ListPicker.tsx -->
<g id="node45" class="node">
<title>component/common/DatePicker/ListPicker.tsx</title>
<path fill="none" stroke="#c6c5fe" d="M2638.83,-983.45C2638.83,-983.45 2346.17,-983.45 2346.17,-983.45 2342.33,-983.45 2338.5,-979.61 2338.5,-975.78 2338.5,-975.78 2338.5,-968.11 2338.5,-968.11 2338.5,-964.28 2342.33,-960.45 2346.17,-960.45 2346.17,-960.45 2638.83,-960.45 2638.83,-960.45 2642.67,-960.45 2646.5,-964.28 2646.5,-968.11 2646.5,-968.11 2646.5,-975.78 2646.5,-975.78 2646.5,-979.61 2642.67,-983.45 2638.83,-983.45"/>
<text text-anchor="middle" x="2492.5" y="-968.25" font-family="Arial" font-size="14.00" fill="#c6c5fe">component/common/DatePicker/ListPicker.tsx</text>
</g>
<!-- component/common/DatePicker.tsx&#45;&gt;component/common/DatePicker/ListPicker.tsx -->
<g id="edge57" class="edge">
<title>component/common/DatePicker.tsx&#45;&gt;component/common/DatePicker/ListPicker.tsx</title>
<path fill="none" stroke="#757575" d="M2174.74,-943.26C2210.25,-946.34 2249.19,-949.75 2285,-952.95 2306.4,-954.86 2329.04,-956.91 2351.18,-958.94"/>
<polygon fill="#757575" stroke="#757575" points="2350.57,-962.39 2360.85,-959.82 2351.21,-955.42 2350.57,-962.39"/>
</g>
<!-- types/datePicker.d.ts -->
<g id="node46" class="node">
<title>types/datePicker.d.ts</title>
<path fill="none" stroke="#cfffac" d="M2935.33,-943.45C2935.33,-943.45 2801.67,-943.45 2801.67,-943.45 2797.83,-943.45 2794,-939.61 2794,-935.78 2794,-935.78 2794,-928.11 2794,-928.11 2794,-924.28 2797.83,-920.45 2801.67,-920.45 2801.67,-920.45 2935.33,-920.45 2935.33,-920.45 2939.17,-920.45 2943,-924.28 2943,-928.11 2943,-928.11 2943,-935.78 2943,-935.78 2943,-939.61 2939.17,-943.45 2935.33,-943.45"/>
<text text-anchor="middle" x="2868.5" y="-928.25" font-family="Arial" font-size="14.00" fill="#cfffac">types/datePicker.d.ts</text>
</g>
<!-- component/common/DatePicker.tsx&#45;&gt;types/datePicker.d.ts -->
<g id="edge58" class="edge">
<title>component/common/DatePicker.tsx&#45;&gt;types/datePicker.d.ts</title>
<path fill="none" stroke="#757575" d="M2174.9,-932.8C2341.13,-932.59 2636.82,-932.23 2782.11,-932.05"/>
<polygon fill="#757575" stroke="#757575" points="2782.07,-935.55 2792.07,-932.04 2782.06,-928.55 2782.07,-935.55"/>
</g>
<!-- component/Widget.tsx -->
<g id="node27" class="node">
<title>component/Widget.tsx</title>
<path fill="none" stroke="#c6c5fe" d="M675.33,-590.45C675.33,-590.45 531.67,-590.45 531.67,-590.45 527.83,-590.45 524,-586.61 524,-582.78 524,-582.78 524,-575.11 524,-575.11 524,-571.28 527.83,-567.45 531.67,-567.45 531.67,-567.45 675.33,-567.45 675.33,-567.45 679.17,-567.45 683,-571.28 683,-575.11 683,-575.11 683,-582.78 683,-582.78 683,-586.61 679.17,-590.45 675.33,-590.45"/>
<text text-anchor="middle" x="603.5" y="-575.25" font-family="Arial" font-size="14.00" fill="#c6c5fe">component/Widget.tsx</text>
</g>
<!-- component/Widget.tsx&#45;&gt;hook/useBoolean.tsx -->
<g id="edge29" class="edge">
<title>component/Widget.tsx&#45;&gt;hook/useBoolean.tsx</title>
<path fill="none" stroke="#757575" d="M683.46,-584.83C946.13,-604.48 1774.64,-667.01 1786,-674.95 1817.3,-696.81 1790.81,-730.93 1822,-752.95 1863.55,-782.27 1920.36,-787.73 1967.18,-785.76"/>
<polygon fill="#757575" stroke="#757575" points="1967.24,-789.26 1977.03,-785.21 1966.85,-782.27 1967.24,-789.26"/>
</g>
<!-- component/Widget.tsx&#45;&gt;types/widget.d.ts -->
<g id="edge30" class="edge">
<title>component/Widget.tsx&#45;&gt;types/widget.d.ts</title>
<path fill="none" stroke="#757575" d="M683.3,-579.55C807.75,-580.74 1057.44,-584.1 1269,-592.95 1858.83,-617.6 2569.76,-670.14 2795.25,-687.36"/>
<polygon fill="#757575" stroke="#757575" points="2794.82,-690.83 2805.06,-688.11 2795.36,-683.85 2794.82,-690.83"/>
</g>
<!-- component/Widget/WidgetButtons.tsx -->
<g id="node28" class="node">
<title>component/Widget/WidgetButtons.tsx</title>
<path fill="none" stroke="#c6c5fe" d="M1157.33,-709.45C1157.33,-709.45 915.67,-709.45 915.67,-709.45 911.83,-709.45 908,-705.61 908,-701.78 908,-701.78 908,-694.11 908,-694.11 908,-690.28 911.83,-686.45 915.67,-686.45 915.67,-686.45 1157.33,-686.45 1157.33,-686.45 1161.17,-686.45 1165,-690.28 1165,-694.11 1165,-694.11 1165,-701.78 1165,-701.78 1165,-705.61 1161.17,-709.45 1157.33,-709.45"/>
<text text-anchor="middle" x="1036.5" y="-694.25" font-family="Arial" font-size="14.00" fill="#c6c5fe">component/Widget/WidgetButtons.tsx</text>
</g>
<!-- component/Widget.tsx&#45;&gt;component/Widget/WidgetButtons.tsx -->
<g id="edge25" class="edge">
<title>component/Widget.tsx&#45;&gt;component/Widget/WidgetButtons.tsx</title>
<path fill="none" stroke="#757575" d="M622.83,-590.84C656.91,-612.28 733.04,-657.04 804,-676.95 833.33,-685.17 865.49,-690.38 896.26,-693.62"/>
<polygon fill="#757575" stroke="#757575" points="895.72,-697.09 906.02,-694.58 896.41,-690.12 895.72,-697.09"/>
</g>
<!-- component/Widget/WidgetCallCycleSettingModal.tsx -->
<g id="node29" class="node">
<title>component/Widget/WidgetCallCycleSettingModal.tsx</title>
<path fill="none" stroke="#c6c5fe" d="M1713.33,-413.45C1713.33,-413.45 1377.67,-413.45 1377.67,-413.45 1373.83,-413.45 1370,-409.61 1370,-405.78 1370,-405.78 1370,-398.11 1370,-398.11 1370,-394.28 1373.83,-390.45 1377.67,-390.45 1377.67,-390.45 1713.33,-390.45 1713.33,-390.45 1717.17,-390.45 1721,-394.28 1721,-398.11 1721,-398.11 1721,-405.78 1721,-405.78 1721,-409.61 1717.17,-413.45 1713.33,-413.45"/>
<text text-anchor="middle" x="1545.5" y="-398.25" font-family="Arial" font-size="14.00" fill="#c6c5fe">component/Widget/WidgetCallCycleSettingModal.tsx</text>
</g>
<!-- component/Widget.tsx&#45;&gt;component/Widget/WidgetCallCycleSettingModal.tsx -->
<g id="edge26" class="edge">
<title>component/Widget.tsx&#45;&gt;component/Widget/WidgetCallCycleSettingModal.tsx</title>
<path fill="none" stroke="#757575" d="M626.48,-566.98C662.46,-547.98 736.65,-511.2 804,-492.95 988.78,-442.87 1207.02,-420.29 1358.5,-410.14"/>
<polygon fill="#757575" stroke="#757575" points="1358.49,-413.65 1368.24,-409.5 1358.03,-406.66 1358.49,-413.65"/>
</g>
<!-- component/Widget/WidgetChart.tsx -->
<g id="node30" class="node">
<title>component/Widget/WidgetChart.tsx</title>
<path fill="none" stroke="#c6c5fe" d="M1149.83,-252.45C1149.83,-252.45 923.17,-252.45 923.17,-252.45 919.33,-252.45 915.5,-248.61 915.5,-244.78 915.5,-244.78 915.5,-237.11 915.5,-237.11 915.5,-233.28 919.33,-229.45 923.17,-229.45 923.17,-229.45 1149.83,-229.45 1149.83,-229.45 1153.67,-229.45 1157.5,-233.28 1157.5,-237.11 1157.5,-237.11 1157.5,-244.78 1157.5,-244.78 1157.5,-248.61 1153.67,-252.45 1149.83,-252.45"/>
<text text-anchor="middle" x="1036.5" y="-237.25" font-family="Arial" font-size="14.00" fill="#c6c5fe">component/Widget/WidgetChart.tsx</text>
</g>
<!-- component/Widget.tsx&#45;&gt;component/Widget/WidgetChart.tsx -->
<g id="edge27" class="edge">
<title>component/Widget.tsx&#45;&gt;component/Widget/WidgetChart.tsx</title>
<path fill="none" stroke="#757575" d="M619.59,-567.11C683.58,-516.93 932.93,-321.38 1011.59,-259.7"/>
<polygon fill="#757575" stroke="#757575" points="1013.41,-262.72 1019.12,-253.79 1009.09,-257.21 1013.41,-262.72"/>
</g>
<!-- hook/Widget/useHandleWidgetApi.tsx -->
<g id="node31" class="node">
<title>hook/Widget/useHandleWidgetApi.tsx</title>
<path fill="none" stroke="#c6c5fe" d="M1666.33,-512.45C1666.33,-512.45 1424.67,-512.45 1424.67,-512.45 1420.83,-512.45 1417,-508.61 1417,-504.78 1417,-504.78 1417,-497.11 1417,-497.11 1417,-493.28 1420.83,-489.45 1424.67,-489.45 1424.67,-489.45 1666.33,-489.45 1666.33,-489.45 1670.17,-489.45 1674,-493.28 1674,-497.11 1674,-497.11 1674,-504.78 1674,-504.78 1674,-508.61 1670.17,-512.45 1666.33,-512.45"/>
<text text-anchor="middle" x="1545.5" y="-497.25" font-family="Arial" font-size="14.00" fill="#c6c5fe">hook/Widget/useHandleWidgetApi.tsx</text>
</g>
<!-- component/Widget.tsx&#45;&gt;hook/Widget/useHandleWidgetApi.tsx -->
<g id="edge28" class="edge">
<title>component/Widget.tsx&#45;&gt;hook/Widget/useHandleWidgetApi.tsx</title>
<path fill="none" stroke="#757575" d="M640.41,-567.03C679.98,-554.5 745.74,-535.46 804,-526.95 1011.79,-496.6 1255.69,-494.38 1405.15,-496.76"/>
<polygon fill="#757575" stroke="#757575" points="1405.07,-500.26 1415.12,-496.93 1405.18,-493.26 1405.07,-500.26"/>
</g>
<!-- component/Widget/WidgetButtons.tsx&#45;&gt;store/WidgetPropsSettingModalProvider.tsx -->
<g id="edge31" class="edge">
<title>component/Widget/WidgetButtons.tsx&#45;&gt;store/WidgetPropsSettingModalProvider.tsx</title>
<path fill="none" stroke="#757575" d="M1165.4,-704.86C1199.24,-707.82 1235.64,-712.01 1269,-717.95 1350.96,-732.52 1443.94,-760.25 1498.22,-777.6"/>
<polygon fill="#757575" stroke="#757575" points="1496.84,-780.83 1507.43,-780.57 1498.98,-774.17 1496.84,-780.83"/>
</g>
<!-- store/WidgetProvider.tsx -->
<g id="node32" class="node">
<title>store/WidgetProvider.tsx</title>
<path fill="none" stroke="#c6c5fe" d="M1624.33,-707.45C1624.33,-707.45 1466.67,-707.45 1466.67,-707.45 1462.83,-707.45 1459,-703.61 1459,-699.78 1459,-699.78 1459,-692.11 1459,-692.11 1459,-688.28 1462.83,-684.45 1466.67,-684.45 1466.67,-684.45 1624.33,-684.45 1624.33,-684.45 1628.17,-684.45 1632,-688.28 1632,-692.11 1632,-692.11 1632,-699.78 1632,-699.78 1632,-703.61 1628.17,-707.45 1624.33,-707.45"/>
<text text-anchor="middle" x="1545.5" y="-692.25" font-family="Arial" font-size="14.00" fill="#c6c5fe">store/WidgetProvider.tsx</text>
</g>
<!-- component/Widget/WidgetButtons.tsx&#45;&gt;store/WidgetProvider.tsx -->
<g id="edge32" class="edge">
<title>component/Widget/WidgetButtons.tsx&#45;&gt;store/WidgetProvider.tsx</title>
<path fill="none" stroke="#757575" d="M1165.44,-697.44C1253.13,-697.1 1367.64,-696.64 1447.76,-696.33"/>
<polygon fill="#757575" stroke="#757575" points="1447.34,-699.83 1457.32,-696.29 1447.31,-692.83 1447.34,-699.83"/>
</g>
<!-- component/Widget/WidgetCallCycleSettingModal.tsx&#45;&gt;common/widget.ts -->
<g id="edge33" class="edge">
<title>component/Widget/WidgetCallCycleSettingModal.tsx&#45;&gt;common/widget.ts</title>
<path fill="none" stroke="#757575" d="M1721.35,-409.2C1808.16,-412.81 1908.59,-416.97 1975.89,-419.77"/>
<polygon fill="#757575" stroke="#757575" points="1975.58,-423.26 1985.71,-420.17 1975.87,-416.26 1975.58,-423.26"/>
</g>
<!-- component/Widget/WidgetCallCycleSettingModal/CycleInput.tsx -->
<g id="node33" class="node">
<title>component/Widget/WidgetCallCycleSettingModal/CycleInput.tsx</title>
<path fill="none" stroke="#cfffac" d="M2256.83,-352.45C2256.83,-352.45 1850.17,-352.45 1850.17,-352.45 1846.33,-352.45 1842.5,-348.61 1842.5,-344.78 1842.5,-344.78 1842.5,-337.11 1842.5,-337.11 1842.5,-333.28 1846.33,-329.45 1850.17,-329.45 1850.17,-329.45 2256.83,-329.45 2256.83,-329.45 2260.67,-329.45 2264.5,-333.28 2264.5,-337.11 2264.5,-337.11 2264.5,-344.78 2264.5,-344.78 2264.5,-348.61 2260.67,-352.45 2256.83,-352.45"/>
<text text-anchor="middle" x="2053.5" y="-337.25" font-family="Arial" font-size="14.00" fill="#cfffac">component/Widget/WidgetCallCycleSettingModal/CycleInput.tsx</text>
</g>
<!-- component/Widget/WidgetCallCycleSettingModal.tsx&#45;&gt;component/Widget/WidgetCallCycleSettingModal/CycleInput.tsx -->
<g id="edge34" class="edge">
<title>component/Widget/WidgetCallCycleSettingModal.tsx&#45;&gt;component/Widget/WidgetCallCycleSettingModal/CycleInput.tsx</title>
<path fill="none" stroke="#757575" d="M1618.56,-389.99C1674.05,-381.08 1752.72,-369.1 1822,-360.95 1843.33,-358.44 1865.8,-356.1 1888.01,-353.98"/>
<polygon fill="#757575" stroke="#757575" points="1888.11,-357.49 1897.74,-353.06 1887.45,-350.52 1888.11,-357.49"/>
</g>
<!-- component/Widget/WidgetCallCycleSettingModal/LastCallTimeBox.tsx -->
<g id="node34" class="node">
<title>component/Widget/WidgetCallCycleSettingModal/LastCallTimeBox.tsx</title>
<path fill="none" stroke="#cfffac" d="M2277.33,-393.45C2277.33,-393.45 1829.67,-393.45 1829.67,-393.45 1825.83,-393.45 1822,-389.61 1822,-385.78 1822,-385.78 1822,-378.11 1822,-378.11 1822,-374.28 1825.83,-370.45 1829.67,-370.45 1829.67,-370.45 2277.33,-370.45 2277.33,-370.45 2281.17,-370.45 2285,-374.28 2285,-378.11 2285,-378.11 2285,-385.78 2285,-385.78 2285,-389.61 2281.17,-393.45 2277.33,-393.45"/>
<text text-anchor="middle" x="2053.5" y="-378.25" font-family="Arial" font-size="14.00" fill="#cfffac">component/Widget/WidgetCallCycleSettingModal/LastCallTimeBox.tsx</text>
</g>
<!-- component/Widget/WidgetCallCycleSettingModal.tsx&#45;&gt;component/Widget/WidgetCallCycleSettingModal/LastCallTimeBox.tsx -->
<g id="edge35" class="edge">
<title>component/Widget/WidgetCallCycleSettingModal.tsx&#45;&gt;component/Widget/WidgetCallCycleSettingModal/LastCallTimeBox.tsx</title>
<path fill="none" stroke="#757575" d="M1721.35,-395.04C1750.09,-393.9 1780.34,-392.7 1810.37,-391.52"/>
<polygon fill="#757575" stroke="#757575" points="1810.51,-395.01 1820.36,-391.12 1810.23,-388.02 1810.51,-395.01"/>
</g>
<!-- component/Widget/WidgetChart.tsx&#45;&gt;types/chart.d.ts -->
<g id="edge39" class="edge">
<title>component/Widget/WidgetChart.tsx&#45;&gt;types/chart.d.ts</title>
<path fill="none" stroke="#757575" d="M1157.95,-250.88C1203.94,-254.43 1256.88,-258.22 1305,-260.95 1739.95,-285.61 1853.7,-342.34 2285,-280.95 2343.57,-272.61 2408.76,-251.6 2449.93,-236.81"/>
<polygon fill="#757575" stroke="#757575" points="2451,-240.14 2459.2,-233.43 2448.6,-233.56 2451,-240.14"/>
</g>
<!-- component/chart/BarChart.tsx -->
<g id="node35" class="node">
<title>component/chart/BarChart.tsx</title>
<path fill="none" stroke="#c6c5fe" d="M1639.33,-113.45C1639.33,-113.45 1451.67,-113.45 1451.67,-113.45 1447.83,-113.45 1444,-109.61 1444,-105.78 1444,-105.78 1444,-98.11 1444,-98.11 1444,-94.28 1447.83,-90.45 1451.67,-90.45 1451.67,-90.45 1639.33,-90.45 1639.33,-90.45 1643.17,-90.45 1647,-94.28 1647,-98.11 1647,-98.11 1647,-105.78 1647,-105.78 1647,-109.61 1643.17,-113.45 1639.33,-113.45"/>
<text text-anchor="middle" x="1545.5" y="-98.25" font-family="Arial" font-size="14.00" fill="#c6c5fe">component/chart/BarChart.tsx</text>
</g>
<!-- component/Widget/WidgetChart.tsx&#45;&gt;component/chart/BarChart.tsx -->
<g id="edge36" class="edge">
<title>component/Widget/WidgetChart.tsx&#45;&gt;component/chart/BarChart.tsx</title>
<path fill="none" stroke="#757575" d="M1057.79,-229.05C1101.34,-204.17 1207.76,-146.87 1305,-121.95 1345.82,-111.48 1391.72,-106.16 1432.32,-103.55"/>
<polygon fill="#757575" stroke="#757575" points="1432.34,-107.06 1442.12,-102.98 1431.93,-100.07 1432.34,-107.06"/>
</g>
<!-- component/chart/InformaticsChart.tsx -->
<g id="node36" class="node">
<title>component/chart/InformaticsChart.tsx</title>
<path fill="none" stroke="#c6c5fe" d="M1663.83,-252.45C1663.83,-252.45 1427.17,-252.45 1427.17,-252.45 1423.33,-252.45 1419.5,-248.61 1419.5,-244.78 1419.5,-244.78 1419.5,-237.11 1419.5,-237.11 1419.5,-233.28 1423.33,-229.45 1427.17,-229.45 1427.17,-229.45 1663.83,-229.45 1663.83,-229.45 1667.67,-229.45 1671.5,-233.28 1671.5,-237.11 1671.5,-237.11 1671.5,-244.78 1671.5,-244.78 1671.5,-248.61 1667.67,-252.45 1663.83,-252.45"/>
<text text-anchor="middle" x="1545.5" y="-237.25" font-family="Arial" font-size="14.00" fill="#c6c5fe">component/chart/InformaticsChart.tsx</text>
</g>
<!-- component/Widget/WidgetChart.tsx&#45;&gt;component/chart/InformaticsChart.tsx -->
<g id="edge37" class="edge">
<title>component/Widget/WidgetChart.tsx&#45;&gt;component/chart/InformaticsChart.tsx</title>
<path fill="none" stroke="#757575" d="M1157.97,-240.95C1233.06,-240.95 1329.87,-240.95 1407.82,-240.95"/>
<polygon fill="#757575" stroke="#757575" points="1407.67,-244.45 1417.67,-240.95 1407.67,-237.45 1407.67,-244.45"/>
</g>
<!-- component/chart/LineChart.tsx -->
<g id="node37" class="node">
<title>component/chart/LineChart.tsx</title>
<path fill="none" stroke="#c6c5fe" d="M1642.33,-154.45C1642.33,-154.45 1448.67,-154.45 1448.67,-154.45 1444.83,-154.45 1441,-150.61 1441,-146.78 1441,-146.78 1441,-139.11 1441,-139.11 1441,-135.28 1444.83,-131.45 1448.67,-131.45 1448.67,-131.45 1642.33,-131.45 1642.33,-131.45 1646.17,-131.45 1650,-135.28 1650,-139.11 1650,-139.11 1650,-146.78 1650,-146.78 1650,-150.61 1646.17,-154.45 1642.33,-154.45"/>
<text text-anchor="middle" x="1545.5" y="-139.25" font-family="Arial" font-size="14.00" fill="#c6c5fe">component/chart/LineChart.tsx</text>
</g>
<!-- component/Widget/WidgetChart.tsx&#45;&gt;component/chart/LineChart.tsx -->
<g id="edge38" class="edge">
<title>component/Widget/WidgetChart.tsx&#45;&gt;component/chart/LineChart.tsx</title>
<path fill="none" stroke="#757575" d="M1099.41,-228.98C1193.27,-210.84 1371.21,-176.44 1471.33,-157.09"/>
<polygon fill="#757575" stroke="#757575" points="1471.91,-160.54 1481.06,-155.21 1470.58,-153.67 1471.91,-160.54"/>
</g>
<!-- hook/Widget/useHandleWidgetApi.tsx&#45;&gt;common/api.ts -->
<g id="edge62" class="edge">
<title>hook/Widget/useHandleWidgetApi.tsx&#45;&gt;common/api.ts</title>
<path fill="none" stroke="#757575" d="M1674.19,-511.04C1773.8,-518.91 1908.1,-529.53 1986.99,-535.77"/>
<polygon fill="#757575" stroke="#757575" points="1986.46,-539.24 1996.71,-536.54 1987.01,-532.26 1986.46,-539.24"/>
</g>
<!-- hook/Widget/useHandleWidgetApi.tsx&#45;&gt;types/chart.d.ts -->
<g id="edge66" class="edge">
<title>hook/Widget/useHandleWidgetApi.tsx&#45;&gt;types/chart.d.ts</title>
<path fill="none" stroke="#757575" d="M1674.27,-493.33C1878.39,-480.81 2258,-455.99 2285,-442.95 2379.12,-397.48 2451.48,-288.97 2479.2,-242.58"/>
<polygon fill="#757575" stroke="#757575" points="2482.2,-244.39 2484.23,-233.99 2476.16,-240.85 2482.2,-244.39"/>
</g>
<!-- hook/Widget/useHandleWidgetApi.tsx&#45;&gt;common/date.ts -->
<g id="edge63" class="edge">
<title>hook/Widget/useHandleWidgetApi.tsx&#45;&gt;common/date.ts</title>
<path fill="none" stroke="#757575" d="M1595.32,-512.93C1754.44,-552 2257.82,-675.58 2431.72,-718.27"/>
<polygon fill="#757575" stroke="#757575" points="2430.68,-721.62 2441.22,-720.6 2432.34,-714.82 2430.68,-721.62"/>
</g>
<!-- hook/Widget/useHandleWidgetApi.tsx&#45;&gt;common/widget.ts -->
<g id="edge64" class="edge">
<title>hook/Widget/useHandleWidgetApi.tsx&#45;&gt;common/widget.ts</title>
<path fill="none" stroke="#757575" d="M1603.28,-488.95C1658.83,-477.52 1745.95,-460.4 1822,-448.95 1873.1,-441.25 1930.89,-434.74 1975.83,-430.16"/>
<polygon fill="#757575" stroke="#757575" points="1976.15,-433.64 1985.75,-429.15 1975.45,-426.68 1976.15,-433.64"/>
</g>
<!-- hook/Widget/useHandleWidgetApi.tsx&#45;&gt;store/DashboardProvider.tsx -->
<g id="edge65" class="edge">
<title>hook/Widget/useHandleWidgetApi.tsx&#45;&gt;store/DashboardProvider.tsx</title>
<path fill="none" stroke="#757575" d="M1575.84,-512.87C1621.2,-531.44 1710.97,-568.7 1786,-602.95 1870.82,-641.66 1969.01,-690.67 2019.2,-716.02"/>
<polygon fill="#757575" stroke="#757575" points="2017.31,-718.99 2027.81,-720.38 2020.47,-712.74 2017.31,-718.99"/>
</g>
<!-- hook/Widget/useHandleWidgetApi.tsx&#45;&gt;types/widget.d.ts -->
<g id="edge67" class="edge">
<title>hook/Widget/useHandleWidgetApi.tsx&#45;&gt;types/widget.d.ts</title>
<path fill="none" stroke="#757575" d="M1674.34,-498.29C1948.12,-493.29 2573.65,-485.86 2664,-519.95 2747.59,-551.49 2820.63,-633.54 2851.65,-672.21"/>
<polygon fill="#757575" stroke="#757575" points="2848.74,-674.17 2857.67,-679.86 2854.24,-669.84 2848.74,-674.17"/>
</g>
<!-- store/WidgetProvider.tsx&#45;&gt;types/widget.d.ts -->
<g id="edge75" class="edge">
<title>store/WidgetProvider.tsx&#45;&gt;types/widget.d.ts</title>
<path fill="none" stroke="#757575" d="M1632.41,-695.75C1876.26,-695.2 2569.63,-693.62 2795.45,-693.11"/>
<polygon fill="#757575" stroke="#757575" points="2795.29,-696.61 2805.28,-693.09 2795.28,-689.61 2795.29,-696.61"/>
</g>
<!-- component/chart/BarChart.tsx&#45;&gt;common/chart.ts -->
<g id="edge45" class="edge">
<title>component/chart/BarChart.tsx&#45;&gt;common/chart.ts</title>
<path fill="none" stroke="#757575" d="M1647.38,-110.12C1746.02,-118.11 1893.73,-130.08 1980.89,-137.14"/>
<polygon fill="#757575" stroke="#757575" points="1980.49,-140.62 1990.74,-137.94 1981.06,-133.65 1980.49,-140.62"/>
</g>
<!-- component/chart/BarChart.tsx&#45;&gt;types/chart.d.ts -->
<g id="edge48" class="edge">
<title>component/chart/BarChart.tsx&#45;&gt;types/chart.d.ts</title>
<path fill="none" stroke="#757575" d="M1577.7,-90.06C1681.98,-52.22 2026.39,57.35 2285,-39.95 2371.79,-72.6 2445.91,-160.13 2476.51,-200.29"/>
<polygon fill="#757575" stroke="#757575" points="2473.63,-202.29 2482.42,-208.21 2479.24,-198.1 2473.63,-202.29"/>
</g>
<!-- component/chart/ChartSvg.tsx -->
<g id="node41" class="node">
<title>component/chart/ChartSvg.tsx</title>
<path fill="none" stroke="#cfffac" d="M2148.83,-113.45C2148.83,-113.45 1958.17,-113.45 1958.17,-113.45 1954.33,-113.45 1950.5,-109.61 1950.5,-105.78 1950.5,-105.78 1950.5,-98.11 1950.5,-98.11 1950.5,-94.28 1954.33,-90.45 1958.17,-90.45 1958.17,-90.45 2148.83,-90.45 2148.83,-90.45 2152.67,-90.45 2156.5,-94.28 2156.5,-98.11 2156.5,-98.11 2156.5,-105.78 2156.5,-105.78 2156.5,-109.61 2152.67,-113.45 2148.83,-113.45"/>
<text text-anchor="middle" x="2053.5" y="-98.25" font-family="Arial" font-size="14.00" fill="#cfffac">component/chart/ChartSvg.tsx</text>
</g>
<!-- component/chart/BarChart.tsx&#45;&gt;component/chart/ChartSvg.tsx -->
<g id="edge46" class="edge">
<title>component/chart/BarChart.tsx&#45;&gt;component/chart/ChartSvg.tsx</title>
<path fill="none" stroke="#757575" d="M1647.38,-101.95C1731.48,-101.95 1851.26,-101.95 1938.76,-101.95"/>
<polygon fill="#757575" stroke="#757575" points="1938.56,-105.45 1948.56,-101.95 1938.56,-98.45 1938.56,-105.45"/>
</g>
<!-- hook/useResize.tsx -->
<g id="node42" class="node">
<title>hook/useResize.tsx</title>
<path fill="none" stroke="#cfffac" d="M2115.83,-72.45C2115.83,-72.45 1991.17,-72.45 1991.17,-72.45 1987.33,-72.45 1983.5,-68.61 1983.5,-64.78 1983.5,-64.78 1983.5,-57.11 1983.5,-57.11 1983.5,-53.28 1987.33,-49.45 1991.17,-49.45 1991.17,-49.45 2115.83,-49.45 2115.83,-49.45 2119.67,-49.45 2123.5,-53.28 2123.5,-57.11 2123.5,-57.11 2123.5,-64.78 2123.5,-64.78 2123.5,-68.61 2119.67,-72.45 2115.83,-72.45"/>
<text text-anchor="middle" x="2053.5" y="-57.25" font-family="Arial" font-size="14.00" fill="#cfffac">hook/useResize.tsx</text>
</g>
<!-- component/chart/BarChart.tsx&#45;&gt;hook/useResize.tsx -->
<g id="edge47" class="edge">
<title>component/chart/BarChart.tsx&#45;&gt;hook/useResize.tsx</title>
<path fill="none" stroke="#757575" d="M1647.38,-93.77C1742.67,-86.05 1883.75,-74.62 1971.8,-67.49"/>
<polygon fill="#757575" stroke="#757575" points="1971.87,-70.99 1981.55,-66.69 1971.3,-64.01 1971.87,-70.99"/>
</g>
<!-- component/chart/InformaticsChart.tsx&#45;&gt;types/chart.d.ts -->
<g id="edge50" class="edge">
<title>component/chart/InformaticsChart.tsx&#45;&gt;types/chart.d.ts</title>
<path fill="none" stroke="#757575" d="M1671.99,-238.29C1874.77,-234 2267.59,-225.68 2424.44,-222.37"/>
<polygon fill="#757575" stroke="#757575" points="2424.33,-225.87 2434.25,-222.16 2424.18,-218.87 2424.33,-225.87"/>
</g>
<!-- component/chart/InformaticsChart/InforMaticsBox.tsx -->
<g id="node43" class="node">
<title>component/chart/InformaticsChart/InforMaticsBox.tsx</title>
<path fill="none" stroke="#c6c5fe" d="M2220.83,-272.45C2220.83,-272.45 1886.17,-272.45 1886.17,-272.45 1882.33,-272.45 1878.5,-268.61 1878.5,-264.78 1878.5,-264.78 1878.5,-257.11 1878.5,-257.11 1878.5,-253.28 1882.33,-249.45 1886.17,-249.45 1886.17,-249.45 2220.83,-249.45 2220.83,-249.45 2224.67,-249.45 2228.5,-253.28 2228.5,-257.11 2228.5,-257.11 2228.5,-264.78 2228.5,-264.78 2228.5,-268.61 2224.67,-272.45 2220.83,-272.45"/>
<text text-anchor="middle" x="2053.5" y="-257.25" font-family="Arial" font-size="14.00" fill="#c6c5fe">component/chart/InformaticsChart/InforMaticsBox.tsx</text>
</g>
<!-- component/chart/InformaticsChart.tsx&#45;&gt;component/chart/InformaticsChart/InforMaticsBox.tsx -->
<g id="edge49" class="edge">
<title>component/chart/InformaticsChart.tsx&#45;&gt;component/chart/InformaticsChart/InforMaticsBox.tsx</title>
<path fill="none" stroke="#757575" d="M1671.9,-245.9C1730.7,-248.23 1801.94,-251.04 1866.82,-253.61"/>
<polygon fill="#757575" stroke="#757575" points="1866.37,-257.09 1876.5,-253.99 1866.64,-250.1 1866.37,-257.09"/>
</g>
<!-- component/chart/LineChart.tsx&#45;&gt;common/chart.ts -->
<g id="edge52" class="edge">
<title>component/chart/LineChart.tsx&#45;&gt;common/chart.ts</title>
<path fill="none" stroke="#757575" d="M1650.42,-142.95C1749,-142.95 1894.51,-142.95 1980.79,-142.95"/>
<polygon fill="#757575" stroke="#757575" points="1980.78,-146.45 1990.78,-142.95 1980.78,-139.45 1980.78,-146.45"/>
</g>
<!-- component/chart/LineChart.tsx&#45;&gt;types/chart.d.ts -->
<g id="edge55" class="edge">
<title>component/chart/LineChart.tsx&#45;&gt;types/chart.d.ts</title>
<path fill="none" stroke="#757575" d="M1650.33,-151.52C1845.47,-167.62 2261.87,-201.99 2424.48,-215.41"/>
<polygon fill="#757575" stroke="#757575" points="2423.98,-218.88 2434.23,-216.22 2424.56,-211.91 2423.98,-218.88"/>
</g>
<!-- component/chart/LineChart.tsx&#45;&gt;component/chart/ChartSvg.tsx -->
<g id="edge53" class="edge">
<title>component/chart/LineChart.tsx&#45;&gt;component/chart/ChartSvg.tsx</title>
<path fill="none" stroke="#757575" d="M1650.42,-134.53C1734.29,-127.73 1852.13,-118.18 1938.57,-111.18"/>
<polygon fill="#757575" stroke="#757575" points="1938.82,-114.67 1948.5,-110.37 1938.25,-107.69 1938.82,-114.67"/>
</g>
<!-- component/chart/LineChart.tsx&#45;&gt;hook/useResize.tsx -->
<g id="edge54" class="edge">
<title>component/chart/LineChart.tsx&#45;&gt;hook/useResize.tsx</title>
<path fill="none" stroke="#757575" d="M1650.48,-150.51C1694.38,-149.58 1744.76,-142.83 1786,-121.95 1807.63,-110.99 1800.36,-91.89 1822,-80.95 1867.84,-57.75 1925.42,-52.74 1971.56,-53.54"/>
<polygon fill="#757575" stroke="#757575" points="1971.42,-57.03 1981.52,-53.81 1971.62,-50.04 1971.42,-57.03"/>
</g>
<!-- component/Widget/WidgetPropsSettingModal.tsx -->
<g id="node38" class="node">
<title>component/Widget/WidgetPropsSettingModal.tsx</title>
<path fill="none" stroke="#c6c5fe" d="M760.33,-750.45C760.33,-750.45 446.67,-750.45 446.67,-750.45 442.83,-750.45 439,-746.61 439,-742.78 439,-742.78 439,-735.11 439,-735.11 439,-731.28 442.83,-727.45 446.67,-727.45 446.67,-727.45 760.33,-727.45 760.33,-727.45 764.17,-727.45 768,-731.28 768,-735.11 768,-735.11 768,-742.78 768,-742.78 768,-746.61 764.17,-750.45 760.33,-750.45"/>
<text text-anchor="middle" x="603.5" y="-735.25" font-family="Arial" font-size="14.00" fill="#c6c5fe">component/Widget/WidgetPropsSettingModal.tsx</text>
</g>
<!-- component/Widget/WidgetPropsSettingModal.tsx&#45;&gt;common/api.ts -->
<g id="edge40" class="edge">
<title>component/Widget/WidgetPropsSettingModal.tsx&#45;&gt;common/api.ts</title>
<path fill="none" stroke="#757575" d="M621.65,-727.03C654.99,-704.59 731.62,-656.47 804,-635.95 1241.86,-511.8 1798.59,-527.18 1986.9,-536.9"/>
<polygon fill="#757575" stroke="#757575" points="1986.55,-540.38 1996.72,-537.42 1986.92,-533.39 1986.55,-540.38"/>
</g>
<!-- component/Widget/WidgetPropsSettingModal.tsx&#45;&gt;store/WidgetPropsSettingModalProvider.tsx -->
<g id="edge43" class="edge">
<title>component/Widget/WidgetPropsSettingModal.tsx&#45;&gt;store/WidgetPropsSettingModalProvider.tsx</title>
<path fill="none" stroke="#757575" d="M713.38,-750.94C742.77,-753.88 774.58,-756.8 804,-758.95 1004.98,-773.62 1237.13,-783.07 1387.13,-788.19"/>
<polygon fill="#757575" stroke="#757575" points="1386.61,-791.67 1396.73,-788.51 1386.85,-784.67 1386.61,-791.67"/>
</g>
<!-- component/Widget/WidgetPropsSettingModal/WidgetPropsButtons.tsx -->
<g id="node39" class="node">
<title>component/Widget/WidgetPropsSettingModal/WidgetPropsButtons.tsx</title>
<path fill="none" stroke="#c6c5fe" d="M1261.33,-668.45C1261.33,-668.45 811.67,-668.45 811.67,-668.45 807.83,-668.45 804,-664.61 804,-660.78 804,-660.78 804,-653.11 804,-653.11 804,-649.28 807.83,-645.45 811.67,-645.45 811.67,-645.45 1261.33,-645.45 1261.33,-645.45 1265.17,-645.45 1269,-649.28 1269,-653.11 1269,-653.11 1269,-660.78 1269,-660.78 1269,-664.61 1265.17,-668.45 1261.33,-668.45"/>
<text text-anchor="middle" x="1036.5" y="-653.25" font-family="Arial" font-size="14.00" fill="#c6c5fe">component/Widget/WidgetPropsSettingModal/WidgetPropsButtons.tsx</text>
</g>
<!-- component/Widget/WidgetPropsSettingModal.tsx&#45;&gt;component/Widget/WidgetPropsSettingModal/WidgetPropsButtons.tsx -->
<g id="edge41" class="edge">
<title>component/Widget/WidgetPropsSettingModal.tsx&#45;&gt;component/Widget/WidgetPropsSettingModal/WidgetPropsButtons.tsx</title>
<path fill="none" stroke="#757575" d="M635.41,-727.05C674.17,-712.68 742.96,-688.92 804,-676.95 816.53,-674.49 829.49,-672.33 842.6,-670.44"/>
<polygon fill="#757575" stroke="#757575" points="842.71,-673.96 852.13,-669.12 841.75,-667.03 842.71,-673.96"/>
</g>
<!-- component/Widget/WidgetPropsSettingModal/WidgetPropsList.tsx -->
<g id="node40" class="node">
<title>component/Widget/WidgetPropsSettingModal/WidgetPropsList.tsx</title>
<path fill="none" stroke="#cfffac" d="M1248.83,-750.45C1248.83,-750.45 824.17,-750.45 824.17,-750.45 820.33,-750.45 816.5,-746.61 816.5,-742.78 816.5,-742.78 816.5,-735.11 816.5,-735.11 816.5,-731.28 820.33,-727.45 824.17,-727.45 824.17,-727.45 1248.83,-727.45 1248.83,-727.45 1252.67,-727.45 1256.5,-731.28 1256.5,-735.11 1256.5,-735.11 1256.5,-742.78 1256.5,-742.78 1256.5,-746.61 1252.67,-750.45 1248.83,-750.45"/>
<text text-anchor="middle" x="1036.5" y="-735.25" font-family="Arial" font-size="14.00" fill="#cfffac">component/Widget/WidgetPropsSettingModal/WidgetPropsList.tsx</text>
</g>
<!-- component/Widget/WidgetPropsSettingModal.tsx&#45;&gt;component/Widget/WidgetPropsSettingModal/WidgetPropsList.tsx -->
<g id="edge42" class="edge">
<title>component/Widget/WidgetPropsSettingModal.tsx&#45;&gt;component/Widget/WidgetPropsSettingModal/WidgetPropsList.tsx</title>
<path fill="none" stroke="#757575" d="M768.36,-738.95C780.39,-738.95 792.65,-738.95 804.97,-738.95"/>
<polygon fill="#757575" stroke="#757575" points="804.78,-742.45 814.78,-738.95 804.78,-735.45 804.78,-742.45"/>
</g>
<!-- component/Widget/WidgetPropsSettingModal/WidgetPropsButtons.tsx&#45;&gt;store/WidgetProvider.tsx -->
<g id="edge44" class="edge">
<title>component/Widget/WidgetPropsSettingModal/WidgetPropsButtons.tsx&#45;&gt;store/WidgetProvider.tsx</title>
<path fill="none" stroke="#757575" d="M1193.41,-668.94C1276.28,-675.31 1375.57,-682.95 1447.39,-688.48"/>
<polygon fill="#757575" stroke="#757575" points="1446.92,-691.95 1457.16,-689.23 1447.46,-684.97 1446.92,-691.95"/>
</g>
<!-- component/chart/InformaticsChart/InforMaticsBox.tsx&#45;&gt;types/chart.d.ts -->
<g id="edge51" class="edge">
<title>component/chart/InformaticsChart/InforMaticsBox.tsx&#45;&gt;types/chart.d.ts</title>
<path fill="none" stroke="#757575" d="M2185.32,-248.97C2263.91,-241.78 2360.65,-232.92 2424.09,-227.12"/>
<polygon fill="#757575" stroke="#757575" points="2424.39,-230.6 2434.03,-226.21 2423.75,-223.63 2424.39,-230.6"/>
</g>
<!-- component/common/DatePicker/DatePickerTitle.tsx&#45;&gt;types/widget.d.ts -->
<g id="edge59" class="edge">
<title>component/common/DatePicker/DatePickerTitle.tsx&#45;&gt;types/widget.d.ts</title>
<path fill="none" stroke="#757575" d="M2622.82,-880.05C2637.05,-876.46 2651.06,-871.85 2664,-865.95 2744.9,-829.05 2818.78,-750.36 2850.77,-713.19"/>
<polygon fill="#757575" stroke="#757575" points="2853.2,-715.74 2857,-705.84 2847.86,-711.21 2853.2,-715.74"/>
</g>
<!-- component/common/DatePicker/ListPicker.tsx&#45;&gt;types/datePicker.d.ts -->
<g id="edge61" class="edge">
<title>component/common/DatePicker/ListPicker.tsx&#45;&gt;types/datePicker.d.ts</title>
<path fill="none" stroke="#757575" d="M2605.46,-959.97C2662.2,-953.9 2729.99,-946.65 2782.4,-941.05"/>
<polygon fill="#757575" stroke="#757575" points="2782.6,-944.55 2792.18,-940 2781.86,-937.59 2782.6,-944.55"/>
</g>
<!-- component/common/DatePicker/ListPickerItem.tsx -->
<g id="node47" class="node">
<title>component/common/DatePicker/ListPickerItem.tsx</title>
<path fill="none" stroke="#cfffac" d="M3029.33,-984.45C3029.33,-984.45 2707.67,-984.45 2707.67,-984.45 2703.83,-984.45 2700,-980.61 2700,-976.78 2700,-976.78 2700,-969.11 2700,-969.11 2700,-965.28 2703.83,-961.45 2707.67,-961.45 2707.67,-961.45 3029.33,-961.45 3029.33,-961.45 3033.17,-961.45 3037,-965.28 3037,-969.11 3037,-969.11 3037,-976.78 3037,-976.78 3037,-980.61 3033.17,-984.45 3029.33,-984.45"/>
<text text-anchor="middle" x="2868.5" y="-969.25" font-family="Arial" font-size="14.00" fill="#cfffac">component/common/DatePicker/ListPickerItem.tsx</text>
</g>
<!-- component/common/DatePicker/ListPicker.tsx&#45;&gt;component/common/DatePicker/ListPickerItem.tsx -->
<g id="edge60" class="edge">
<title>component/common/DatePicker/ListPicker.tsx&#45;&gt;component/common/DatePicker/ListPickerItem.tsx</title>
<path fill="none" stroke="#757575" d="M2646.97,-972.36C2660.65,-972.39 2674.58,-972.43 2688.45,-972.47"/>
<polygon fill="#757575" stroke="#757575" points="2688.03,-975.97 2698.04,-972.49 2688.05,-968.97 2688.03,-975.97"/>
</g>
<!-- page/Dashboard.tsx&#45;&gt;component/Dashboard/DashboardHeader.tsx -->
<g id="edge68" class="edge">
<title>page/Dashboard.tsx&#45;&gt;component/Dashboard/DashboardHeader.tsx</title>
<path fill="none" stroke="#757575" d="M352.78,-770.77C400.08,-797.7 516,-863.7 571.67,-895.4"/>
<polygon fill="#757575" stroke="#757575" points="569.92,-898.42 580.34,-900.33 573.38,-892.34 569.92,-898.42"/>
</g>
<!-- page/Dashboard.tsx&#45;&gt;component/Widget.tsx -->
<g id="edge69" class="edge">
<title>page/Dashboard.tsx&#45;&gt;component/Widget.tsx</title>
<path fill="none" stroke="#757575" d="M349.75,-747.14C395.89,-716.43 519.86,-633.94 575.19,-597.12"/>
<polygon fill="#757575" stroke="#757575" points="577.04,-600.09 583.43,-591.64 573.16,-594.26 577.04,-600.09"/>
</g>
<!-- page/Dashboard.tsx&#45;&gt;store/WidgetProvider.tsx -->
<g id="edge71" class="edge">
<title>page/Dashboard.tsx&#45;&gt;store/WidgetProvider.tsx</title>
<path fill="none" stroke="#757575" d="M403.42,-764.39C560.53,-775.17 947.73,-795.21 1269,-758.95 1349.05,-749.91 1439.74,-726.55 1494.5,-710.96"/>
<polygon fill="#757575" stroke="#757575" points="1495.19,-714.4 1503.84,-708.27 1493.26,-707.67 1495.19,-714.4"/>
</g>
<!-- page/Dashboard.tsx&#45;&gt;component/Widget/WidgetPropsSettingModal.tsx -->
<g id="edge70" class="edge">
<title>page/Dashboard.tsx&#45;&gt;component/Widget/WidgetPropsSettingModal.tsx</title>
<path fill="none" stroke="#757575" d="M403.42,-753.67C411.62,-753.06 420.23,-752.42 429.07,-751.77"/>
<polygon fill="#757575" stroke="#757575" points="429.16,-755.27 438.88,-751.04 428.65,-748.29 429.16,-755.27"/>
</g>
</g>
</svg>
