<?xml version="1.0" encoding="UTF-8" standalone="no"?>
<!DOCTYPE svg PUBLIC "-//W3C//DTD SVG 1.1//EN"
 "http://www.w3.org/Graphics/SVG/1.1/DTD/svg11.dtd">
<!-- Generated by graphviz version 7.1.0 (20230121.1956)
 -->
<!-- Title: G Pages: 1 -->
<svg width="2398pt" height="1154pt"
 viewBox="0.00 0.00 2398.20 1154.03" xmlns="http://www.w3.org/2000/svg" xmlns:xlink="http://www.w3.org/1999/xlink">
<g id="graph0" class="graph" transform="scale(1 1) rotate(0) translate(21.6 1132.43)">
<title>G</title>
<polygon fill="#111111" stroke="none" points="-21.6,21.6 -21.6,-1132.43 2376.6,-1132.43 2376.6,21.6 -21.6,21.6"/>
<!-- App.tsx -->
<g id="node1" class="node">
<title>App.tsx</title>
<path fill="none" stroke="#c6c5fe" d="M57.33,-617C57.33,-617 7.67,-617 7.67,-617 3.83,-617 0,-613.17 0,-609.33 0,-609.33 0,-601.67 0,-601.67 0,-597.83 3.83,-594 7.67,-594 7.67,-594 57.33,-594 57.33,-594 61.17,-594 65,-597.83 65,-601.67 65,-601.67 65,-609.33 65,-609.33 65,-613.17 61.17,-617 57.33,-617"/>
<text text-anchor="middle" x="32.5" y="-601.8" font-family="Arial" font-size="14.00" fill="#c6c5fe">App.tsx</text>
</g>
<!-- router/Router.tsx -->
<g id="node2" class="node">
<title>router/Router.tsx</title>
<path fill="none" stroke="#c6c5fe" d="M215.33,-617C215.33,-617 108.67,-617 108.67,-617 104.83,-617 101,-613.17 101,-609.33 101,-609.33 101,-601.67 101,-601.67 101,-597.83 104.83,-594 108.67,-594 108.67,-594 215.33,-594 215.33,-594 219.17,-594 223,-597.83 223,-601.67 223,-601.67 223,-609.33 223,-609.33 223,-613.17 219.17,-617 215.33,-617"/>
<text text-anchor="middle" x="162" y="-601.8" font-family="Arial" font-size="14.00" fill="#c6c5fe">router/Router.tsx</text>
</g>
<!-- App.tsx&#45;&gt;router/Router.tsx -->
<g id="edge1" class="edge">
<title>App.tsx&#45;&gt;router/Router.tsx</title>
<path fill="none" stroke="#757575" d="M65.34,-605.5C72.7,-605.5 80.81,-605.5 89.12,-605.5"/>
<polygon fill="#757575" stroke="#757575" points="88.99,-609 98.99,-605.5 88.99,-602 88.99,-609"/>
</g>
<!-- page/Dashboard.tsx -->
<g id="node42" class="node">
<title>page/Dashboard.tsx</title>
<path fill="none" stroke="#c6c5fe" d="M395.33,-617C395.33,-617 266.67,-617 266.67,-617 262.83,-617 259,-613.17 259,-609.33 259,-609.33 259,-601.67 259,-601.67 259,-597.83 262.83,-594 266.67,-594 266.67,-594 395.33,-594 395.33,-594 399.17,-594 403,-597.83 403,-601.67 403,-601.67 403,-609.33 403,-609.33 403,-613.17 399.17,-617 395.33,-617"/>
<text text-anchor="middle" x="331" y="-601.8" font-family="Arial" font-size="14.00" fill="#c6c5fe">page/Dashboard.tsx</text>
</g>
<!-- router/Router.tsx&#45;&gt;page/Dashboard.tsx -->
<g id="edge68" class="edge">
<title>router/Router.tsx&#45;&gt;page/Dashboard.tsx</title>
<path fill="none" stroke="#757575" d="M223.29,-605.5C231.1,-605.5 239.21,-605.5 247.3,-605.5"/>
<polygon fill="#757575" stroke="#757575" points="247.19,-609 257.19,-605.5 247.19,-602 247.19,-609"/>
</g>
<!-- api.ts -->
<g id="node3" class="node">
<title>api.ts</title>
<path fill="none" stroke="#c6c5fe" d="M1571.83,-101C1571.83,-101 1533.17,-101 1533.17,-101 1529.33,-101 1525.5,-97.17 1525.5,-93.33 1525.5,-93.33 1525.5,-85.67 1525.5,-85.67 1525.5,-81.83 1529.33,-78 1533.17,-78 1533.17,-78 1571.83,-78 1571.83,-78 1575.67,-78 1579.5,-81.83 1579.5,-85.67 1579.5,-85.67 1579.5,-93.33 1579.5,-93.33 1579.5,-97.17 1575.67,-101 1571.83,-101"/>
<text text-anchor="middle" x="1552.5" y="-85.8" font-family="Arial" font-size="14.00" fill="#c6c5fe">api.ts</text>
</g>
<!-- types/api.d.ts -->
<g id="node4" class="node">
<title>types/api.d.ts</title>
<path fill="none" stroke="#cfffac" d="M2037.83,-139C2037.83,-139 1952.17,-139 1952.17,-139 1948.33,-139 1944.5,-135.17 1944.5,-131.33 1944.5,-131.33 1944.5,-123.67 1944.5,-123.67 1944.5,-119.83 1948.33,-116 1952.17,-116 1952.17,-116 2037.83,-116 2037.83,-116 2041.67,-116 2045.5,-119.83 2045.5,-123.67 2045.5,-123.67 2045.5,-131.33 2045.5,-131.33 2045.5,-135.17 2041.67,-139 2037.83,-139"/>
<text text-anchor="middle" x="1995" y="-123.8" font-family="Arial" font-size="14.00" fill="#cfffac">types/api.d.ts</text>
</g>
<!-- api.ts&#45;&gt;types/api.d.ts -->
<g id="edge2" class="edge">
<title>api.ts&#45;&gt;types/api.d.ts</title>
<path fill="none" stroke="#757575" d="M1579.74,-91.76C1648.44,-97.69 1835.02,-113.79 1932.62,-122.21"/>
<polygon fill="#757575" stroke="#757575" points="1932.3,-125.69 1942.56,-123.06 1932.9,-118.72 1932.3,-125.69"/>
</g>
<!-- asset/image/pause.png -->
<g id="node5" class="node">
<title>asset/image/pause.png</title>
<path fill="none" stroke="#cfffac" d="M1118.83,-1036C1118.83,-1036 970.17,-1036 970.17,-1036 966.33,-1036 962.5,-1032.17 962.5,-1028.33 962.5,-1028.33 962.5,-1020.67 962.5,-1020.67 962.5,-1016.83 966.33,-1013 970.17,-1013 970.17,-1013 1118.83,-1013 1118.83,-1013 1122.67,-1013 1126.5,-1016.83 1126.5,-1020.67 1126.5,-1020.67 1126.5,-1028.33 1126.5,-1028.33 1126.5,-1032.17 1122.67,-1036 1118.83,-1036"/>
<text text-anchor="middle" x="1044.5" y="-1020.8" font-family="Arial" font-size="14.00" fill="#cfffac">asset/image/pause.png</text>
</g>
<!-- asset/image/play.png -->
<g id="node6" class="node">
<title>asset/image/play.png</title>
<path fill="none" stroke="#cfffac" d="M1112.33,-995C1112.33,-995 976.67,-995 976.67,-995 972.83,-995 969,-991.17 969,-987.33 969,-987.33 969,-979.67 969,-979.67 969,-975.83 972.83,-972 976.67,-972 976.67,-972 1112.33,-972 1112.33,-972 1116.17,-972 1120,-975.83 1120,-979.67 1120,-979.67 1120,-987.33 1120,-987.33 1120,-991.17 1116.17,-995 1112.33,-995"/>
<text text-anchor="middle" x="1044.5" y="-979.8" font-family="Arial" font-size="14.00" fill="#cfffac">asset/image/play.png</text>
</g>
<!-- common/api.ts -->
<g id="node7" class="node">
<title>common/api.ts</title>
<path fill="none" stroke="#c6c5fe" d="M1091.83,-141C1091.83,-141 997.17,-141 997.17,-141 993.33,-141 989.5,-137.17 989.5,-133.33 989.5,-133.33 989.5,-125.67 989.5,-125.67 989.5,-121.83 993.33,-118 997.17,-118 997.17,-118 1091.83,-118 1091.83,-118 1095.67,-118 1099.5,-121.83 1099.5,-125.67 1099.5,-125.67 1099.5,-133.33 1099.5,-133.33 1099.5,-137.17 1095.67,-141 1091.83,-141"/>
<text text-anchor="middle" x="1044.5" y="-125.8" font-family="Arial" font-size="14.00" fill="#c6c5fe">common/api.ts</text>
</g>
<!-- common/api.ts&#45;&gt;api.ts -->
<g id="edge3" class="edge">
<title>common/api.ts&#45;&gt;api.ts</title>
<path fill="none" stroke="#757575" d="M1099.65,-125.22C1202.76,-117.07 1424.89,-99.51 1513.69,-92.49"/>
<polygon fill="#757575" stroke="#757575" points="1513.86,-95.99 1523.55,-91.71 1513.31,-89.01 1513.86,-95.99"/>
</g>
<!-- common/api.ts&#45;&gt;types/api.d.ts -->
<g id="edge4" class="edge">
<title>common/api.ts&#45;&gt;types/api.d.ts</title>
<path fill="none" stroke="#757575" d="M1099.9,-129.39C1264.88,-129.04 1758.89,-128 1932.69,-127.63"/>
<polygon fill="#757575" stroke="#757575" points="1932.65,-131.13 1942.65,-127.61 1932.64,-124.13 1932.65,-131.13"/>
</g>
<!-- common/chart.ts -->
<g id="node8" class="node">
<title>common/chart.ts</title>
<path fill="none" stroke="#c6c5fe" d="M2048.33,-219C2048.33,-219 1941.67,-219 1941.67,-219 1937.83,-219 1934,-215.17 1934,-211.33 1934,-211.33 1934,-203.67 1934,-203.67 1934,-199.83 1937.83,-196 1941.67,-196 1941.67,-196 2048.33,-196 2048.33,-196 2052.17,-196 2056,-199.83 2056,-203.67 2056,-203.67 2056,-211.33 2056,-211.33 2056,-215.17 2052.17,-219 2048.33,-219"/>
<text text-anchor="middle" x="1995" y="-203.8" font-family="Arial" font-size="14.00" fill="#c6c5fe">common/chart.ts</text>
</g>
<!-- types/chart.d.ts -->
<g id="node9" class="node">
<title>types/chart.d.ts</title>
<path fill="none" stroke="#cfffac" d="M2329.33,-300C2329.33,-300 2231.67,-300 2231.67,-300 2227.83,-300 2224,-296.17 2224,-292.33 2224,-292.33 2224,-284.67 2224,-284.67 2224,-280.83 2227.83,-277 2231.67,-277 2231.67,-277 2329.33,-277 2329.33,-277 2333.17,-277 2337,-280.83 2337,-284.67 2337,-284.67 2337,-292.33 2337,-292.33 2337,-296.17 2333.17,-300 2329.33,-300"/>
<text text-anchor="middle" x="2280.5" y="-284.8" font-family="Arial" font-size="14.00" fill="#cfffac">types/chart.d.ts</text>
</g>
<!-- common/chart.ts&#45;&gt;types/chart.d.ts -->
<g id="edge5" class="edge">
<title>common/chart.ts&#45;&gt;types/chart.d.ts</title>
<path fill="none" stroke="#757575" d="M2056.42,-208.63C2090.47,-210.69 2133.38,-215.72 2170,-227.5 2200.58,-237.34 2232.3,-256.12 2253.68,-270.25"/>
<polygon fill="#757575" stroke="#757575" points="2251.52,-273.01 2261.76,-275.71 2255.44,-267.21 2251.52,-273.01"/>
</g>
<!-- common/date.ts -->
<g id="node10" class="node">
<title>common/date.ts</title>
<path fill="none" stroke="#cfffac" d="M2046.83,-703C2046.83,-703 1943.17,-703 1943.17,-703 1939.33,-703 1935.5,-699.17 1935.5,-695.33 1935.5,-695.33 1935.5,-687.67 1935.5,-687.67 1935.5,-683.83 1939.33,-680 1943.17,-680 1943.17,-680 2046.83,-680 2046.83,-680 2050.67,-680 2054.5,-683.83 2054.5,-687.67 2054.5,-687.67 2054.5,-695.33 2054.5,-695.33 2054.5,-699.17 2050.67,-703 2046.83,-703"/>
<text text-anchor="middle" x="1995" y="-687.8" font-family="Arial" font-size="14.00" fill="#cfffac">common/date.ts</text>
</g>
<!-- common/widget.ts -->
<g id="node11" class="node">
<title>common/widget.ts</title>
<path fill="none" stroke="#cfffac" d="M1610.83,-424C1610.83,-424 1494.17,-424 1494.17,-424 1490.33,-424 1486.5,-420.17 1486.5,-416.33 1486.5,-416.33 1486.5,-408.67 1486.5,-408.67 1486.5,-404.83 1490.33,-401 1494.17,-401 1494.17,-401 1610.83,-401 1610.83,-401 1614.67,-401 1618.5,-404.83 1618.5,-408.67 1618.5,-408.67 1618.5,-416.33 1618.5,-416.33 1618.5,-420.17 1614.67,-424 1610.83,-424"/>
<text text-anchor="middle" x="1552.5" y="-408.8" font-family="Arial" font-size="14.00" fill="#cfffac">common/widget.ts</text>
</g>
<!-- component/Dashboard/CommonStyle.ts -->
<g id="node12" class="node">
<title>component/Dashboard/CommonStyle.ts</title>
<path fill="none" stroke="#cfffac" d="M1679.83,-856C1679.83,-856 1425.17,-856 1425.17,-856 1421.33,-856 1417.5,-852.17 1417.5,-848.33 1417.5,-848.33 1417.5,-840.67 1417.5,-840.67 1417.5,-836.83 1421.33,-833 1425.17,-833 1425.17,-833 1679.83,-833 1679.83,-833 1683.67,-833 1687.5,-836.83 1687.5,-840.67 1687.5,-840.67 1687.5,-848.33 1687.5,-848.33 1687.5,-852.17 1683.67,-856 1679.83,-856"/>
<text text-anchor="middle" x="1552.5" y="-840.8" font-family="Arial" font-size="14.00" fill="#cfffac">component/Dashboard/CommonStyle.ts</text>
</g>
<!-- component/Dashboard/DashboardHeader.tsx -->
<g id="node13" class="node">
<title>component/Dashboard/DashboardHeader.tsx</title>
<path fill="none" stroke="#c6c5fe" d="M747.33,-914C747.33,-914 459.67,-914 459.67,-914 455.83,-914 452,-910.17 452,-906.33 452,-906.33 452,-898.67 452,-898.67 452,-894.83 455.83,-891 459.67,-891 459.67,-891 747.33,-891 747.33,-891 751.17,-891 755,-894.83 755,-898.67 755,-898.67 755,-906.33 755,-906.33 755,-910.17 751.17,-914 747.33,-914"/>
<text text-anchor="middle" x="603.5" y="-898.8" font-family="Arial" font-size="14.00" fill="#c6c5fe">component/Dashboard/DashboardHeader.tsx</text>
</g>
<!-- component/Dashboard/DashboardHeader.tsx&#45;&gt;asset/image/pause.png -->
<g id="edge6" class="edge">
<title>component/Dashboard/DashboardHeader.tsx&#45;&gt;asset/image/pause.png</title>
<path fill="none" stroke="#757575" d="M622.23,-914.45C655.94,-936.46 732.33,-983.04 804,-1003.5 851.27,-1016.99 905.73,-1022.52 950.77,-1024.55"/>
<polygon fill="#757575" stroke="#757575" points="950.36,-1028.03 960.49,-1024.93 950.64,-1021.04 950.36,-1028.03"/>
</g>
<!-- component/Dashboard/DashboardHeader.tsx&#45;&gt;asset/image/play.png -->
<g id="edge7" class="edge">
<title>component/Dashboard/DashboardHeader.tsx&#45;&gt;asset/image/play.png</title>
<path fill="none" stroke="#757575" d="M636.82,-914.46C675.86,-928.38 743.8,-950.93 804,-962.5 854.26,-972.16 911.31,-977.38 957.12,-980.2"/>
<polygon fill="#757575" stroke="#757575" points="956.82,-983.69 967.01,-980.78 957.23,-976.7 956.82,-983.69"/>
</g>
<!-- component/Dashboard/DashboardHeader/CurrentTime.tsx -->
<g id="node14" class="node">
<title>component/Dashboard/DashboardHeader/CurrentTime.tsx</title>
<path fill="none" stroke="#cfffac" d="M1229.83,-954C1229.83,-954 859.17,-954 859.17,-954 855.33,-954 851.5,-950.17 851.5,-946.33 851.5,-946.33 851.5,-938.67 851.5,-938.67 851.5,-934.83 855.33,-931 859.17,-931 859.17,-931 1229.83,-931 1229.83,-931 1233.67,-931 1237.5,-934.83 1237.5,-938.67 1237.5,-938.67 1237.5,-946.33 1237.5,-946.33 1237.5,-950.17 1233.67,-954 1229.83,-954"/>
<text text-anchor="middle" x="1044.5" y="-938.8" font-family="Arial" font-size="14.00" fill="#cfffac">component/Dashboard/DashboardHeader/CurrentTime.tsx</text>
</g>
<!-- component/Dashboard/DashboardHeader.tsx&#45;&gt;component/Dashboard/DashboardHeader/CurrentTime.tsx -->
<g id="edge8" class="edge">
<title>component/Dashboard/DashboardHeader.tsx&#45;&gt;component/Dashboard/DashboardHeader/CurrentTime.tsx</title>
<path fill="none" stroke="#757575" d="M735.92,-914.47C787.92,-919.21 847.83,-924.67 900.88,-929.5"/>
<polygon fill="#757575" stroke="#757575" points="900.3,-932.97 910.58,-930.39 900.94,-926 900.3,-932.97"/>
</g>
<!-- component/Dashboard/DashboardHeader/DatePickerArea.tsx -->
<g id="node15" class="node">
<title>component/Dashboard/DashboardHeader/DatePickerArea.tsx</title>
<path fill="none" stroke="#c6c5fe" d="M1240.33,-874C1240.33,-874 848.67,-874 848.67,-874 844.83,-874 841,-870.17 841,-866.33 841,-866.33 841,-858.67 841,-858.67 841,-854.83 844.83,-851 848.67,-851 848.67,-851 1240.33,-851 1240.33,-851 1244.17,-851 1248,-854.83 1248,-858.67 1248,-858.67 1248,-866.33 1248,-866.33 1248,-870.17 1244.17,-874 1240.33,-874"/>
<text text-anchor="middle" x="1044.5" y="-858.8" font-family="Arial" font-size="14.00" fill="#c6c5fe">component/Dashboard/DashboardHeader/DatePickerArea.tsx</text>
</g>
<!-- component/Dashboard/DashboardHeader.tsx&#45;&gt;component/Dashboard/DashboardHeader/DatePickerArea.tsx -->
<g id="edge9" class="edge">
<title>component/Dashboard/DashboardHeader.tsx&#45;&gt;component/Dashboard/DashboardHeader/DatePickerArea.tsx</title>
<path fill="none" stroke="#757575" d="M735.92,-890.53C787.92,-885.79 847.83,-880.33 900.88,-875.5"/>
<polygon fill="#757575" stroke="#757575" points="900.94,-879 910.58,-874.61 900.3,-872.03 900.94,-879"/>
</g>
<!-- component/Dashboard/DashboardHeader/SelectRealTimeRangeArea.tsx -->
<g id="node16" class="node">
<title>component/Dashboard/DashboardHeader/SelectRealTimeRangeArea.tsx</title>
<path fill="none" stroke="#c6c5fe" d="M1277.33,-815C1277.33,-815 811.67,-815 811.67,-815 807.83,-815 804,-811.17 804,-807.33 804,-807.33 804,-799.67 804,-799.67 804,-795.83 807.83,-792 811.67,-792 811.67,-792 1277.33,-792 1277.33,-792 1281.17,-792 1285,-795.83 1285,-799.67 1285,-799.67 1285,-807.33 1285,-807.33 1285,-811.17 1281.17,-815 1277.33,-815"/>
<text text-anchor="middle" x="1044.5" y="-799.8" font-family="Arial" font-size="14.00" fill="#c6c5fe">component/Dashboard/DashboardHeader/SelectRealTimeRangeArea.tsx</text>
</g>
<!-- component/Dashboard/DashboardHeader.tsx&#45;&gt;component/Dashboard/DashboardHeader/SelectRealTimeRangeArea.tsx -->
<g id="edge10" class="edge">
<title>component/Dashboard/DashboardHeader.tsx&#45;&gt;component/Dashboard/DashboardHeader/SelectRealTimeRangeArea.tsx</title>
<path fill="none" stroke="#757575" d="M638.35,-890.57C677.73,-877.06 744.89,-855.16 804,-841.5 847.21,-831.52 895.41,-823.32 937.18,-817.12"/>
<polygon fill="#757575" stroke="#757575" points="937.61,-820.59 947,-815.69 936.6,-813.67 937.61,-820.59"/>
</g>
<!-- store/DashboardProvider.tsx -->
<g id="node17" class="node">
<title>store/DashboardProvider.tsx</title>
<path fill="none" stroke="#c6c5fe" d="M1643.33,-1095C1643.33,-1095 1461.67,-1095 1461.67,-1095 1457.83,-1095 1454,-1091.17 1454,-1087.33 1454,-1087.33 1454,-1079.67 1454,-1079.67 1454,-1075.83 1457.83,-1072 1461.67,-1072 1461.67,-1072 1643.33,-1072 1643.33,-1072 1647.17,-1072 1651,-1075.83 1651,-1079.67 1651,-1079.67 1651,-1087.33 1651,-1087.33 1651,-1091.17 1647.17,-1095 1643.33,-1095"/>
<text text-anchor="middle" x="1552.5" y="-1079.8" font-family="Arial" font-size="14.00" fill="#c6c5fe">store/DashboardProvider.tsx</text>
</g>
<!-- component/Dashboard/DashboardHeader.tsx&#45;&gt;store/DashboardProvider.tsx -->
<g id="edge11" class="edge">
<title>component/Dashboard/DashboardHeader.tsx&#45;&gt;store/DashboardProvider.tsx</title>
<path fill="none" stroke="#757575" d="M615.69,-914.25C643.98,-943.04 721.94,-1016.81 804,-1045.5 918.55,-1085.55 1263.84,-1087.39 1442.21,-1085.45"/>
<polygon fill="#757575" stroke="#757575" points="1442.24,-1088.95 1452.2,-1085.34 1442.16,-1081.95 1442.24,-1088.95"/>
</g>
<!-- store/WidgetProvider.tsx -->
<g id="node18" class="node">
<title>store/WidgetProvider.tsx</title>
<path fill="none" stroke="#c6c5fe" d="M1631.33,-539C1631.33,-539 1473.67,-539 1473.67,-539 1469.83,-539 1466,-535.17 1466,-531.33 1466,-531.33 1466,-523.67 1466,-523.67 1466,-519.83 1469.83,-516 1473.67,-516 1473.67,-516 1631.33,-516 1631.33,-516 1635.17,-516 1639,-519.83 1639,-523.67 1639,-523.67 1639,-531.33 1639,-531.33 1639,-535.17 1635.17,-539 1631.33,-539"/>
<text text-anchor="middle" x="1552.5" y="-523.8" font-family="Arial" font-size="14.00" fill="#c6c5fe">store/WidgetProvider.tsx</text>
</g>
<!-- component/Dashboard/DashboardHeader.tsx&#45;&gt;store/WidgetProvider.tsx -->
<g id="edge12" class="edge">
<title>component/Dashboard/DashboardHeader.tsx&#45;&gt;store/WidgetProvider.tsx</title>
<path fill="none" stroke="#757575" d="M621.42,-890.6C654.97,-867.39 732.86,-815.48 804,-782.5 1008.78,-687.56 1071.43,-692.55 1285,-619.5 1362.83,-592.88 1453.31,-561.57 1506.3,-543.19"/>
<polygon fill="#757575" stroke="#757575" points="1507.29,-546.55 1515.59,-539.97 1505,-539.94 1507.29,-546.55"/>
</g>
<!-- component/Dashboard/DashboardHeader/DatePickerArea.tsx&#45;&gt;common/date.ts -->
<g id="edge13" class="edge">
<title>component/Dashboard/DashboardHeader/DatePickerArea.tsx&#45;&gt;common/date.ts</title>
<path fill="none" stroke="#757575" d="M1248.33,-867.78C1261.42,-873.09 1273.82,-879.88 1285,-888.5 1320.43,-915.81 1284.14,-957.15 1321,-982.5 1363.39,-1011.65 1738.2,-1005.93 1784,-982.5 1898.16,-924.1 1964.5,-771.51 1986.12,-713.93"/>
<polygon fill="#757575" stroke="#757575" points="1989.28,-715.46 1989.43,-704.86 1982.71,-713.05 1989.28,-715.46"/>
</g>
<!-- component/Dashboard/DashboardHeader/DatePickerArea.tsx&#45;&gt;component/Dashboard/CommonStyle.ts -->
<g id="edge14" class="edge">
<title>component/Dashboard/DashboardHeader/DatePickerArea.tsx&#45;&gt;component/Dashboard/CommonStyle.ts</title>
<path fill="none" stroke="#757575" d="M1248.39,-855.28C1301.07,-853.41 1356.76,-851.43 1405.84,-849.68"/>
<polygon fill="#757575" stroke="#757575" points="1405.8,-853.19 1415.67,-849.33 1405.55,-846.19 1405.8,-853.19"/>
</g>
<!-- component/Dashboard/DashboardHeader/DatePickerArea.tsx&#45;&gt;store/DashboardProvider.tsx -->
<g id="edge19" class="edge">
<title>component/Dashboard/DashboardHeader/DatePickerArea.tsx&#45;&gt;store/DashboardProvider.tsx</title>
<path fill="none" stroke="#757575" d="M1110.27,-850.53C1163.84,-844.61 1238.43,-846.15 1285,-888.5 1343.74,-941.93 1261.68,-1010.71 1321,-1063.5 1365.22,-1102.85 1434.9,-1103.53 1486.08,-1097.01"/>
<polygon fill="#757575" stroke="#757575" points="1486.45,-1100.5 1495.86,-1095.64 1485.47,-1093.56 1486.45,-1100.5"/>
</g>
<!-- component/Dashboard/DashboardHeader/DateBox.tsx -->
<g id="node19" class="node">
<title>component/Dashboard/DashboardHeader/DateBox.tsx</title>
<path fill="none" stroke="#cfffac" d="M1725.83,-974C1725.83,-974 1379.17,-974 1379.17,-974 1375.33,-974 1371.5,-970.17 1371.5,-966.33 1371.5,-966.33 1371.5,-958.67 1371.5,-958.67 1371.5,-954.83 1375.33,-951 1379.17,-951 1379.17,-951 1725.83,-951 1725.83,-951 1729.67,-951 1733.5,-954.83 1733.5,-958.67 1733.5,-958.67 1733.5,-966.33 1733.5,-966.33 1733.5,-970.17 1729.67,-974 1725.83,-974"/>
<text text-anchor="middle" x="1552.5" y="-958.8" font-family="Arial" font-size="14.00" fill="#cfffac">component/Dashboard/DashboardHeader/DateBox.tsx</text>
</g>
<!-- component/Dashboard/DashboardHeader/DatePickerArea.tsx&#45;&gt;component/Dashboard/DashboardHeader/DateBox.tsx -->
<g id="edge15" class="edge">
<title>component/Dashboard/DashboardHeader/DatePickerArea.tsx&#45;&gt;component/Dashboard/DashboardHeader/DateBox.tsx</title>
<path fill="none" stroke="#757575" d="M1248.3,-872.27C1261.1,-876.59 1273.46,-881.93 1285,-888.5 1308.17,-901.7 1297.86,-923.25 1321,-936.5 1333.2,-943.48 1346.37,-949.05 1360,-953.45"/>
<polygon fill="#757575" stroke="#757575" points="1358.99,-956.8 1369.57,-956.3 1360.99,-950.09 1358.99,-956.8"/>
</g>
<!-- component/common/DatePicker.tsx -->
<g id="node20" class="node">
<title>component/common/DatePicker.tsx</title>
<path fill="none" stroke="#c6c5fe" d="M1665.83,-1054C1665.83,-1054 1439.17,-1054 1439.17,-1054 1435.33,-1054 1431.5,-1050.17 1431.5,-1046.33 1431.5,-1046.33 1431.5,-1038.67 1431.5,-1038.67 1431.5,-1034.83 1435.33,-1031 1439.17,-1031 1439.17,-1031 1665.83,-1031 1665.83,-1031 1669.67,-1031 1673.5,-1034.83 1673.5,-1038.67 1673.5,-1038.67 1673.5,-1046.33 1673.5,-1046.33 1673.5,-1050.17 1669.67,-1054 1665.83,-1054"/>
<text text-anchor="middle" x="1552.5" y="-1038.8" font-family="Arial" font-size="14.00" fill="#c6c5fe">component/common/DatePicker.tsx</text>
</g>
<!-- component/Dashboard/DashboardHeader/DatePickerArea.tsx&#45;&gt;component/common/DatePicker.tsx -->
<g id="edge16" class="edge">
<title>component/Dashboard/DashboardHeader/DatePickerArea.tsx&#45;&gt;component/common/DatePicker.tsx</title>
<path fill="none" stroke="#757575" d="M1119.27,-850.51C1171.42,-846.36 1239.83,-850.27 1285,-888.5 1330.11,-926.68 1275.97,-978.23 1321,-1016.5 1357.49,-1047.52 1409.82,-1055.33 1455.4,-1054.8"/>
<polygon fill="#757575" stroke="#757575" points="1455.41,-1058.3 1465.31,-1054.53 1455.22,-1051.3 1455.41,-1058.3"/>
</g>
<!-- hook/useBoolean.tsx -->
<g id="node21" class="node">
<title>hook/useBoolean.tsx</title>
<path fill="none" stroke="#cfffac" d="M2061.83,-645C2061.83,-645 1928.17,-645 1928.17,-645 1924.33,-645 1920.5,-641.17 1920.5,-637.33 1920.5,-637.33 1920.5,-629.67 1920.5,-629.67 1920.5,-625.83 1924.33,-622 1928.17,-622 1928.17,-622 2061.83,-622 2061.83,-622 2065.67,-622 2069.5,-625.83 2069.5,-629.67 2069.5,-629.67 2069.5,-637.33 2069.5,-637.33 2069.5,-641.17 2065.67,-645 2061.83,-645"/>
<text text-anchor="middle" x="1995" y="-629.8" font-family="Arial" font-size="14.00" fill="#cfffac">hook/useBoolean.tsx</text>
</g>
<!-- component/Dashboard/DashboardHeader/DatePickerArea.tsx&#45;&gt;hook/useBoolean.tsx -->
<g id="edge17" class="edge">
<title>component/Dashboard/DashboardHeader/DatePickerArea.tsx&#45;&gt;hook/useBoolean.tsx</title>
<path fill="none" stroke="#757575" d="M1191.08,-874.47C1222.21,-878.1 1254.81,-882.71 1285,-888.5 1301.31,-891.63 1304.55,-896.26 1321,-898.5 1422.95,-912.4 1705.78,-965.34 1784,-898.5 1861.99,-831.86 1749.4,-744.94 1820,-670.5 1842.72,-646.55 1876.8,-636.15 1908.8,-632.16"/>
<polygon fill="#757575" stroke="#757575" points="1908.91,-635.66 1918.5,-631.16 1908.2,-628.7 1908.91,-635.66"/>
</g>
<!-- hook/useOutsideClick.tsx -->
<g id="node22" class="node">
<title>hook/useOutsideClick.tsx</title>
<path fill="none" stroke="#cfffac" d="M1632.83,-815C1632.83,-815 1472.17,-815 1472.17,-815 1468.33,-815 1464.5,-811.17 1464.5,-807.33 1464.5,-807.33 1464.5,-799.67 1464.5,-799.67 1464.5,-795.83 1468.33,-792 1472.17,-792 1472.17,-792 1632.83,-792 1632.83,-792 1636.67,-792 1640.5,-795.83 1640.5,-799.67 1640.5,-799.67 1640.5,-807.33 1640.5,-807.33 1640.5,-811.17 1636.67,-815 1632.83,-815"/>
<text text-anchor="middle" x="1552.5" y="-799.8" font-family="Arial" font-size="14.00" fill="#cfffac">hook/useOutsideClick.tsx</text>
</g>
<!-- component/Dashboard/DashboardHeader/DatePickerArea.tsx&#45;&gt;hook/useOutsideClick.tsx -->
<g id="edge18" class="edge">
<title>component/Dashboard/DashboardHeader/DatePickerArea.tsx&#45;&gt;hook/useOutsideClick.tsx</title>
<path fill="none" stroke="#757575" d="M1122.25,-850.5C1177.44,-842.15 1253.69,-831.18 1321,-823.5 1364.14,-818.58 1411.94,-814.25 1452.78,-810.89"/>
<polygon fill="#757575" stroke="#757575" points="1452.91,-814.39 1462.59,-810.09 1452.34,-807.41 1452.91,-814.39"/>
</g>
<!-- types/widget.d.ts -->
<g id="node23" class="node">
<title>types/widget.d.ts</title>
<path fill="none" stroke="#cfffac" d="M2048.83,-539C2048.83,-539 1941.17,-539 1941.17,-539 1937.33,-539 1933.5,-535.17 1933.5,-531.33 1933.5,-531.33 1933.5,-523.67 1933.5,-523.67 1933.5,-519.83 1937.33,-516 1941.17,-516 1941.17,-516 2048.83,-516 2048.83,-516 2052.67,-516 2056.5,-519.83 2056.5,-523.67 2056.5,-523.67 2056.5,-531.33 2056.5,-531.33 2056.5,-535.17 2052.67,-539 2048.83,-539"/>
<text text-anchor="middle" x="1995" y="-523.8" font-family="Arial" font-size="14.00" fill="#cfffac">types/widget.d.ts</text>
</g>
<!-- component/Dashboard/DashboardHeader/DatePickerArea.tsx&#45;&gt;types/widget.d.ts -->
<g id="edge20" class="edge">
<title>component/Dashboard/DashboardHeader/DatePickerArea.tsx&#45;&gt;types/widget.d.ts</title>
<path fill="none" stroke="#757575" d="M1215.28,-874.48C1420.04,-887.17 1742.14,-900.81 1784,-864.5 1869.47,-790.37 1753.42,-703.98 1820,-612.5 1846.02,-576.75 1891.23,-555.3 1929.04,-542.89"/>
<polygon fill="#757575" stroke="#757575" points="1930.05,-546.24 1938.55,-539.92 1927.96,-539.56 1930.05,-546.24"/>
</g>
<!-- component/Dashboard/DashboardHeader/SelectRealTimeRangeArea.tsx&#45;&gt;component/Dashboard/CommonStyle.ts -->
<g id="edge21" class="edge">
<title>component/Dashboard/DashboardHeader/SelectRealTimeRangeArea.tsx&#45;&gt;component/Dashboard/CommonStyle.ts</title>
<path fill="none" stroke="#757575" d="M1193.56,-815.5C1260.42,-820.91 1339.16,-827.29 1405.74,-832.69"/>
<polygon fill="#757575" stroke="#757575" points="1405.41,-836.17 1415.66,-833.49 1405.98,-829.2 1405.41,-836.17"/>
</g>
<!-- component/Dashboard/DashboardHeader/SelectRealTimeRangeArea.tsx&#45;&gt;store/DashboardProvider.tsx -->
<g id="edge26" class="edge">
<title>component/Dashboard/DashboardHeader/SelectRealTimeRangeArea.tsx&#45;&gt;store/DashboardProvider.tsx</title>
<path fill="none" stroke="#757575" d="M1247.78,-815.48C1261.47,-822.13 1274.12,-830.65 1285,-841.5 1355.8,-912.06 1247.75,-995.49 1321,-1063.5 1365.06,-1104.41 1436.4,-1104.32 1488.05,-1097.18"/>
<polygon fill="#757575" stroke="#757575" points="1488.55,-1100.65 1497.92,-1095.69 1487.5,-1093.73 1488.55,-1100.65"/>
</g>
<!-- component/Dashboard/DashboardHeader/SelectRealTimeRangeArea.tsx&#45;&gt;hook/useBoolean.tsx -->
<g id="edge24" class="edge">
<title>component/Dashboard/DashboardHeader/SelectRealTimeRangeArea.tsx&#45;&gt;hook/useBoolean.tsx</title>
<path fill="none" stroke="#757575" d="M1126.39,-791.54C1174.84,-781.86 1236.27,-764.99 1285,-736.5 1304.53,-725.08 1300.55,-710.19 1321,-700.5 1515.37,-608.45 1776.12,-613.82 1908.76,-624.33"/>
<polygon fill="#757575" stroke="#757575" points="1908.27,-627.8 1918.52,-625.13 1908.84,-620.82 1908.27,-627.8"/>
</g>
<!-- component/Dashboard/DashboardHeader/SelectRealTimeRangeArea.tsx&#45;&gt;hook/useOutsideClick.tsx -->
<g id="edge25" class="edge">
<title>component/Dashboard/DashboardHeader/SelectRealTimeRangeArea.tsx&#45;&gt;hook/useOutsideClick.tsx</title>
<path fill="none" stroke="#757575" d="M1285.16,-803.5C1344.4,-803.5 1404.62,-803.5 1452.77,-803.5"/>
<polygon fill="#757575" stroke="#757575" points="1452.6,-807 1462.6,-803.5 1452.6,-800 1452.6,-807"/>
</g>
<!-- component/Dashboard/DashboardHeader/RealTime.tsx -->
<g id="node24" class="node">
<title>component/Dashboard/DashboardHeader/RealTime.tsx</title>
<path fill="none" stroke="#cfffac" d="M1728.83,-774C1728.83,-774 1376.17,-774 1376.17,-774 1372.33,-774 1368.5,-770.17 1368.5,-766.33 1368.5,-766.33 1368.5,-758.67 1368.5,-758.67 1368.5,-754.83 1372.33,-751 1376.17,-751 1376.17,-751 1728.83,-751 1728.83,-751 1732.67,-751 1736.5,-754.83 1736.5,-758.67 1736.5,-758.67 1736.5,-766.33 1736.5,-766.33 1736.5,-770.17 1732.67,-774 1728.83,-774"/>
<text text-anchor="middle" x="1552.5" y="-758.8" font-family="Arial" font-size="14.00" fill="#cfffac">component/Dashboard/DashboardHeader/RealTime.tsx</text>
</g>
<!-- component/Dashboard/DashboardHeader/SelectRealTimeRangeArea.tsx&#45;&gt;component/Dashboard/DashboardHeader/RealTime.tsx -->
<g id="edge22" class="edge">
<title>component/Dashboard/DashboardHeader/SelectRealTimeRangeArea.tsx&#45;&gt;component/Dashboard/DashboardHeader/RealTime.tsx</title>
<path fill="none" stroke="#757575" d="M1193.56,-791.5C1256.01,-786.44 1328.84,-780.54 1392.44,-775.39"/>
<polygon fill="#757575" stroke="#757575" points="1392.6,-778.89 1402.28,-774.59 1392.03,-771.91 1392.6,-778.89"/>
</g>
<!-- component/Dashboard/DashboardHeader/SelectRealTimeListItem.tsx -->
<g id="node25" class="node">
<title>component/Dashboard/DashboardHeader/SelectRealTimeListItem.tsx</title>
<path fill="none" stroke="#cfffac" d="M1774.83,-733C1774.83,-733 1330.17,-733 1330.17,-733 1326.33,-733 1322.5,-729.17 1322.5,-725.33 1322.5,-725.33 1322.5,-717.67 1322.5,-717.67 1322.5,-713.83 1326.33,-710 1330.17,-710 1330.17,-710 1774.83,-710 1774.83,-710 1778.67,-710 1782.5,-713.83 1782.5,-717.67 1782.5,-717.67 1782.5,-725.33 1782.5,-725.33 1782.5,-729.17 1778.67,-733 1774.83,-733"/>
<text text-anchor="middle" x="1552.5" y="-717.8" font-family="Arial" font-size="14.00" fill="#cfffac">component/Dashboard/DashboardHeader/SelectRealTimeListItem.tsx</text>
</g>
<!-- component/Dashboard/DashboardHeader/SelectRealTimeRangeArea.tsx&#45;&gt;component/Dashboard/DashboardHeader/SelectRealTimeListItem.tsx -->
<g id="edge23" class="edge">
<title>component/Dashboard/DashboardHeader/SelectRealTimeRangeArea.tsx&#45;&gt;component/Dashboard/DashboardHeader/SelectRealTimeListItem.tsx</title>
<path fill="none" stroke="#757575" d="M1090,-791.54C1144.18,-777.43 1238.64,-754.28 1321,-741.5 1337.36,-738.96 1354.43,-736.72 1371.55,-734.75"/>
<polygon fill="#757575" stroke="#757575" points="1371.75,-738.25 1381.3,-733.66 1370.98,-731.29 1371.75,-738.25"/>
</g>
<!-- store/DashboardProvider.tsx&#45;&gt;common/date.ts -->
<g id="edge69" class="edge">
<title>store/DashboardProvider.tsx&#45;&gt;common/date.ts</title>
<path fill="none" stroke="#757575" d="M1651.47,-1094.73C1695.13,-1095.01 1745.32,-1088.39 1784,-1063.5 1786.13,-1062.13 1937.24,-792.75 1981.78,-713.31"/>
<polygon fill="#757575" stroke="#757575" points="1984.75,-715.16 1986.59,-704.73 1978.65,-711.74 1984.75,-715.16"/>
</g>
<!-- store/WidgetProvider.tsx&#45;&gt;hook/useBoolean.tsx -->
<g id="edge70" class="edge">
<title>store/WidgetProvider.tsx&#45;&gt;hook/useBoolean.tsx</title>
<path fill="none" stroke="#757575" d="M1639.23,-532.02C1683.01,-535.62 1736.84,-542.05 1784,-553.5 1847.34,-568.88 1917.45,-598.26 1958.51,-616.81"/>
<polygon fill="#757575" stroke="#757575" points="1956.87,-619.91 1967.42,-620.88 1959.78,-613.54 1956.87,-619.91"/>
</g>
<!-- store/WidgetProvider.tsx&#45;&gt;types/widget.d.ts -->
<g id="edge71" class="edge">
<title>store/WidgetProvider.tsx&#45;&gt;types/widget.d.ts</title>
<path fill="none" stroke="#757575" d="M1639.48,-527.5C1721.81,-527.5 1844.62,-527.5 1921.95,-527.5"/>
<polygon fill="#757575" stroke="#757575" points="1921.51,-531 1931.51,-527.5 1921.51,-524 1921.51,-531"/>
</g>
<!-- component/common/DatePicker/ListPicker.tsx -->
<g id="node40" class="node">
<title>component/common/DatePicker/ListPicker.tsx</title>
<path fill="none" stroke="#c6c5fe" d="M2141.33,-1034C2141.33,-1034 1848.67,-1034 1848.67,-1034 1844.83,-1034 1841,-1030.17 1841,-1026.33 1841,-1026.33 1841,-1018.67 1841,-1018.67 1841,-1014.83 1844.83,-1011 1848.67,-1011 1848.67,-1011 2141.33,-1011 2141.33,-1011 2145.17,-1011 2149,-1014.83 2149,-1018.67 2149,-1018.67 2149,-1026.33 2149,-1026.33 2149,-1030.17 2145.17,-1034 2141.33,-1034"/>
<text text-anchor="middle" x="1995" y="-1018.8" font-family="Arial" font-size="14.00" fill="#c6c5fe">component/common/DatePicker/ListPicker.tsx</text>
</g>
<!-- component/common/DatePicker.tsx&#45;&gt;component/common/DatePicker/ListPicker.tsx -->
<g id="edge60" class="edge">
<title>component/common/DatePicker.tsx&#45;&gt;component/common/DatePicker/ListPicker.tsx</title>
<path fill="none" stroke="#757575" d="M1673.87,-1037.03C1721.81,-1034.86 1777.76,-1032.32 1829.35,-1029.98"/>
<polygon fill="#757575" stroke="#757575" points="1829.29,-1033.48 1839.12,-1029.53 1828.97,-1026.49 1829.29,-1033.48"/>
</g>
<!-- types/datePicker.d.ts -->
<g id="node41" class="node">
<title>types/datePicker.d.ts</title>
<path fill="none" stroke="#cfffac" d="M2347.33,-1054C2347.33,-1054 2213.67,-1054 2213.67,-1054 2209.83,-1054 2206,-1050.17 2206,-1046.33 2206,-1046.33 2206,-1038.67 2206,-1038.67 2206,-1034.83 2209.83,-1031 2213.67,-1031 2213.67,-1031 2347.33,-1031 2347.33,-1031 2351.17,-1031 2355,-1034.83 2355,-1038.67 2355,-1038.67 2355,-1046.33 2355,-1046.33 2355,-1050.17 2351.17,-1054 2347.33,-1054"/>
<text text-anchor="middle" x="2280.5" y="-1038.8" font-family="Arial" font-size="14.00" fill="#cfffac">types/datePicker.d.ts</text>
</g>
<!-- component/common/DatePicker.tsx&#45;&gt;types/datePicker.d.ts -->
<g id="edge61" class="edge">
<title>component/common/DatePicker.tsx&#45;&gt;types/datePicker.d.ts</title>
<path fill="none" stroke="#757575" d="M1673.99,-1043.14C1798.27,-1043.69 1997.68,-1044.29 2170,-1043.5 2177.82,-1043.46 2185.95,-1043.41 2194.09,-1043.36"/>
<polygon fill="#757575" stroke="#757575" points="2194.09,-1046.86 2204.07,-1043.28 2194.04,-1039.86 2194.09,-1046.86"/>
</g>
<!-- component/Widget.tsx -->
<g id="node26" class="node">
<title>component/Widget.tsx</title>
<path fill="none" stroke="#c6c5fe" d="M675.33,-442C675.33,-442 531.67,-442 531.67,-442 527.83,-442 524,-438.17 524,-434.33 524,-434.33 524,-426.67 524,-426.67 524,-422.83 527.83,-419 531.67,-419 531.67,-419 675.33,-419 675.33,-419 679.17,-419 683,-422.83 683,-426.67 683,-426.67 683,-434.33 683,-434.33 683,-438.17 679.17,-442 675.33,-442"/>
<text text-anchor="middle" x="603.5" y="-426.8" font-family="Arial" font-size="14.00" fill="#c6c5fe">component/Widget.tsx</text>
</g>
<!-- component/Widget.tsx&#45;&gt;api.ts -->
<g id="edge27" class="edge">
<title>component/Widget.tsx&#45;&gt;api.ts</title>
<path fill="none" stroke="#757575" d="M683.3,-430.1C713.96,-425.75 746.75,-415.17 768,-391.5 852.7,-297.15 709.93,-193.51 804,-108.5 856.93,-60.67 1370.11,-80.97 1514.1,-87.67"/>
<polygon fill="#757575" stroke="#757575" points="1513.69,-91.15 1523.84,-88.12 1514.02,-84.16 1513.69,-91.15"/>
</g>
<!-- component/Widget.tsx&#45;&gt;types/api.d.ts -->
<g id="edge36" class="edge">
<title>component/Widget.tsx&#45;&gt;types/api.d.ts</title>
<path fill="none" stroke="#757575" d="M683.19,-428.61C713.27,-423.95 745.68,-413.54 768,-391.5 814.63,-345.45 754.8,-291.8 804,-248.5 846.9,-210.74 1696.02,-148.44 1933.03,-131.73"/>
<polygon fill="#757575" stroke="#757575" points="1932.94,-135.25 1942.67,-131.06 1932.45,-128.27 1932.94,-135.25"/>
</g>
<!-- component/Widget.tsx&#45;&gt;common/api.ts -->
<g id="edge28" class="edge">
<title>component/Widget.tsx&#45;&gt;common/api.ts</title>
<path fill="none" stroke="#757575" d="M683.43,-429.78C713.92,-425.35 746.56,-414.8 768,-391.5 839.86,-313.43 727.37,-228.89 804,-155.5 849.4,-112.02 924.05,-110.63 977.96,-116.9"/>
<polygon fill="#757575" stroke="#757575" points="977.26,-120.34 987.62,-118.15 978.15,-113.4 977.26,-120.34"/>
</g>
<!-- component/Widget.tsx&#45;&gt;common/date.ts -->
<g id="edge29" class="edge">
<title>component/Widget.tsx&#45;&gt;common/date.ts</title>
<path fill="none" stroke="#757575" d="M614.74,-442.14C641.97,-472.22 719.92,-552.43 804,-585.5 1010.21,-666.59 1701.13,-686.16 1924.04,-690.42"/>
<polygon fill="#757575" stroke="#757575" points="1923.66,-693.91 1933.72,-690.6 1923.79,-686.91 1923.66,-693.91"/>
</g>
<!-- component/Widget.tsx&#45;&gt;common/widget.ts -->
<g id="edge30" class="edge">
<title>component/Widget.tsx&#45;&gt;common/widget.ts</title>
<path fill="none" stroke="#757575" d="M683.21,-429C862.25,-425.6 1298.16,-417.32 1475.03,-413.95"/>
<polygon fill="#757575" stroke="#757575" points="1474.86,-417.46 1484.79,-413.77 1474.73,-410.46 1474.86,-417.46"/>
</g>
<!-- component/Widget.tsx&#45;&gt;store/DashboardProvider.tsx -->
<g id="edge35" class="edge">
<title>component/Widget.tsx&#45;&gt;store/DashboardProvider.tsx</title>
<path fill="none" stroke="#757575" d="M605.49,-442.24C611.18,-501.55 645.31,-769.68 804,-882.5 891.4,-944.64 1203.1,-852.27 1285,-921.5 1334.73,-963.53 1271.39,-1021.33 1321,-1063.5 1365.1,-1100.99 1432.59,-1102.61 1483.16,-1096.86"/>
<polygon fill="#757575" stroke="#757575" points="1483.35,-1100.37 1492.82,-1095.64 1482.46,-1093.43 1483.35,-1100.37"/>
</g>
<!-- component/Widget.tsx&#45;&gt;hook/useBoolean.tsx -->
<g id="edge34" class="edge">
<title>component/Widget.tsx&#45;&gt;hook/useBoolean.tsx</title>
<path fill="none" stroke="#757575" d="M618.89,-442.16C650.26,-466.82 728.08,-523.91 804,-547.5 908.71,-580.04 1654.34,-617.59 1909,-629.6"/>
<polygon fill="#757575" stroke="#757575" points="1908.72,-633.09 1918.88,-630.06 1909.05,-626.09 1908.72,-633.09"/>
</g>
<!-- component/Widget.tsx&#45;&gt;types/widget.d.ts -->
<g id="edge37" class="edge">
<title>component/Widget.tsx&#45;&gt;types/widget.d.ts</title>
<path fill="none" stroke="#757575" d="M683.25,-434.61C872.89,-444.72 1369.87,-472.46 1784,-506.5 1829.96,-510.28 1881.5,-515.42 1922.01,-519.67"/>
<polygon fill="#757575" stroke="#757575" points="1921.58,-523.14 1931.89,-520.71 1922.32,-516.18 1921.58,-523.14"/>
</g>
<!-- component/Widget/WidgetButtons.tsx -->
<g id="node27" class="node">
<title>component/Widget/WidgetButtons.tsx</title>
<path fill="none" stroke="#c6c5fe" d="M1165.33,-539C1165.33,-539 923.67,-539 923.67,-539 919.83,-539 916,-535.17 916,-531.33 916,-531.33 916,-523.67 916,-523.67 916,-519.83 919.83,-516 923.67,-516 923.67,-516 1165.33,-516 1165.33,-516 1169.17,-516 1173,-519.83 1173,-523.67 1173,-523.67 1173,-531.33 1173,-531.33 1173,-535.17 1169.17,-539 1165.33,-539"/>
<text text-anchor="middle" x="1044.5" y="-523.8" font-family="Arial" font-size="14.00" fill="#c6c5fe">component/Widget/WidgetButtons.tsx</text>
</g>
<!-- component/Widget.tsx&#45;&gt;component/Widget/WidgetButtons.tsx -->
<g id="edge31" class="edge">
<title>component/Widget.tsx&#45;&gt;component/Widget/WidgetButtons.tsx</title>
<path fill="none" stroke="#757575" d="M631.65,-442.46C669.48,-458.6 740.57,-486.98 804,-501.5 836.23,-508.88 871.4,-514.18 904.62,-517.98"/>
<polygon fill="#757575" stroke="#757575" points="903.97,-521.43 914.29,-519.05 904.74,-514.47 903.97,-521.43"/>
</g>
<!-- component/Widget/WidgetCallCycleSettingModal.tsx -->
<g id="node28" class="node">
<title>component/Widget/WidgetCallCycleSettingModal.tsx</title>
<path fill="none" stroke="#c6c5fe" d="M1212.33,-342C1212.33,-342 876.67,-342 876.67,-342 872.83,-342 869,-338.17 869,-334.33 869,-334.33 869,-326.67 869,-326.67 869,-322.83 872.83,-319 876.67,-319 876.67,-319 1212.33,-319 1212.33,-319 1216.17,-319 1220,-322.83 1220,-326.67 1220,-326.67 1220,-334.33 1220,-334.33 1220,-338.17 1216.17,-342 1212.33,-342"/>
<text text-anchor="middle" x="1044.5" y="-326.8" font-family="Arial" font-size="14.00" fill="#c6c5fe">component/Widget/WidgetCallCycleSettingModal.tsx</text>
</g>
<!-- component/Widget.tsx&#45;&gt;component/Widget/WidgetCallCycleSettingModal.tsx -->
<g id="edge32" class="edge">
<title>component/Widget.tsx&#45;&gt;component/Widget/WidgetCallCycleSettingModal.tsx</title>
<path fill="none" stroke="#757575" d="M683.14,-421.82C711.37,-416.17 742.5,-406.86 768,-391.5 788.77,-378.99 782.34,-361.41 804,-350.5 820.74,-342.06 838.98,-335.97 857.69,-331.66"/>
<polygon fill="#757575" stroke="#757575" points="858.2,-335.13 867.26,-329.64 856.75,-328.28 858.2,-335.13"/>
</g>
<!-- component/Widget/WidgetChart.tsx -->
<g id="node29" class="node">
<title>component/Widget/WidgetChart.tsx</title>
<path fill="none" stroke="#c6c5fe" d="M1157.83,-281C1157.83,-281 931.17,-281 931.17,-281 927.33,-281 923.5,-277.17 923.5,-273.33 923.5,-273.33 923.5,-265.67 923.5,-265.67 923.5,-261.83 927.33,-258 931.17,-258 931.17,-258 1157.83,-258 1157.83,-258 1161.67,-258 1165.5,-261.83 1165.5,-265.67 1165.5,-265.67 1165.5,-273.33 1165.5,-273.33 1165.5,-277.17 1161.67,-281 1157.83,-281"/>
<text text-anchor="middle" x="1044.5" y="-265.8" font-family="Arial" font-size="14.00" fill="#c6c5fe">component/Widget/WidgetChart.tsx</text>
</g>
<!-- component/Widget.tsx&#45;&gt;component/Widget/WidgetChart.tsx -->
<g id="edge33" class="edge">
<title>component/Widget.tsx&#45;&gt;component/Widget/WidgetChart.tsx</title>
<path fill="none" stroke="#757575" d="M683.5,-426.3C712.75,-421.23 744.48,-411.14 768,-391.5 798.55,-365.99 772.59,-333.94 804,-309.5 834.51,-285.76 873.89,-273.89 911.87,-268.44"/>
<polygon fill="#757575" stroke="#757575" points="912.09,-271.94 921.57,-267.2 911.2,-265 912.09,-271.94"/>
</g>
<!-- component/Widget/WidgetButtons.tsx&#45;&gt;store/WidgetProvider.tsx -->
<g id="edge38" class="edge">
<title>component/Widget/WidgetButtons.tsx&#45;&gt;store/WidgetProvider.tsx</title>
<path fill="none" stroke="#757575" d="M1173.19,-527.5C1260.57,-527.5 1374.63,-527.5 1454.57,-527.5"/>
<polygon fill="#757575" stroke="#757575" points="1454.11,-531 1464.11,-527.5 1454.11,-524 1454.11,-531"/>
</g>
<!-- component/Widget/WidgetCallCycleSettingModal.tsx&#45;&gt;common/date.ts -->
<g id="edge39" class="edge">
<title>component/Widget/WidgetCallCycleSettingModal.tsx&#45;&gt;common/date.ts</title>
<path fill="none" stroke="#757575" d="M1096.42,-318.58C1150.28,-309.25 1234.32,-304.53 1285,-350.5 1350.93,-410.3 1257.89,-484.74 1321,-547.5 1469.17,-694.87 1590.06,-551.67 1784,-629.5 1801.85,-636.66 1802.3,-645.98 1820,-653.5 1852.84,-667.44 1891.43,-676.54 1923.91,-682.32"/>
<polygon fill="#757575" stroke="#757575" points="1923.19,-685.75 1933.64,-683.98 1924.36,-678.85 1923.19,-685.75"/>
</g>
<!-- component/Widget/WidgetCallCycleSettingModal.tsx&#45;&gt;common/widget.ts -->
<g id="edge40" class="edge">
<title>component/Widget/WidgetCallCycleSettingModal.tsx&#45;&gt;common/widget.ts</title>
<path fill="none" stroke="#757575" d="M1220.26,-329.33C1242.8,-333.67 1264.97,-340.41 1285,-350.5 1306.66,-361.41 1299.39,-380.51 1321,-391.5 1368.23,-415.53 1427.97,-420.37 1474.8,-419.42"/>
<polygon fill="#757575" stroke="#757575" points="1474.7,-422.93 1484.59,-419.12 1474.49,-415.93 1474.7,-422.93"/>
</g>
<!-- component/Widget/WidgetCallCycleSettingModal/CycleInput.tsx -->
<g id="node30" class="node">
<title>component/Widget/WidgetCallCycleSettingModal/CycleInput.tsx</title>
<path fill="none" stroke="#cfffac" d="M1755.83,-342C1755.83,-342 1349.17,-342 1349.17,-342 1345.33,-342 1341.5,-338.17 1341.5,-334.33 1341.5,-334.33 1341.5,-326.67 1341.5,-326.67 1341.5,-322.83 1345.33,-319 1349.17,-319 1349.17,-319 1755.83,-319 1755.83,-319 1759.67,-319 1763.5,-322.83 1763.5,-326.67 1763.5,-326.67 1763.5,-334.33 1763.5,-334.33 1763.5,-338.17 1759.67,-342 1755.83,-342"/>
<text text-anchor="middle" x="1552.5" y="-326.8" font-family="Arial" font-size="14.00" fill="#cfffac">component/Widget/WidgetCallCycleSettingModal/CycleInput.tsx</text>
</g>
<!-- component/Widget/WidgetCallCycleSettingModal.tsx&#45;&gt;component/Widget/WidgetCallCycleSettingModal/CycleInput.tsx -->
<g id="edge41" class="edge">
<title>component/Widget/WidgetCallCycleSettingModal.tsx&#45;&gt;component/Widget/WidgetCallCycleSettingModal/CycleInput.tsx</title>
<path fill="none" stroke="#757575" d="M1220.35,-330.5C1255.68,-330.5 1293.27,-330.5 1329.97,-330.5"/>
<polygon fill="#757575" stroke="#757575" points="1329.81,-334 1339.81,-330.5 1329.81,-327 1329.81,-334"/>
</g>
<!-- component/Widget/WidgetCallCycleSettingModal/LastCallTimeBox.tsx -->
<g id="node31" class="node">
<title>component/Widget/WidgetCallCycleSettingModal/LastCallTimeBox.tsx</title>
<path fill="none" stroke="#cfffac" d="M1776.33,-383C1776.33,-383 1328.67,-383 1328.67,-383 1324.83,-383 1321,-379.17 1321,-375.33 1321,-375.33 1321,-367.67 1321,-367.67 1321,-363.83 1324.83,-360 1328.67,-360 1328.67,-360 1776.33,-360 1776.33,-360 1780.17,-360 1784,-363.83 1784,-367.67 1784,-367.67 1784,-375.33 1784,-375.33 1784,-379.17 1780.17,-383 1776.33,-383"/>
<text text-anchor="middle" x="1552.5" y="-367.8" font-family="Arial" font-size="14.00" fill="#cfffac">component/Widget/WidgetCallCycleSettingModal/LastCallTimeBox.tsx</text>
</g>
<!-- component/Widget/WidgetCallCycleSettingModal.tsx&#45;&gt;component/Widget/WidgetCallCycleSettingModal/LastCallTimeBox.tsx -->
<g id="edge42" class="edge">
<title>component/Widget/WidgetCallCycleSettingModal.tsx&#45;&gt;component/Widget/WidgetCallCycleSettingModal/LastCallTimeBox.tsx</title>
<path fill="none" stroke="#757575" d="M1193.56,-342.5C1256.01,-347.56 1328.84,-353.46 1392.44,-358.61"/>
<polygon fill="#757575" stroke="#757575" points="1392.03,-362.09 1402.28,-359.41 1392.6,-355.11 1392.03,-362.09"/>
</g>
<!-- component/chart/BarChart.tsx -->
<g id="node32" class="node">
<title>component/chart/BarChart.tsx</title>
<path fill="none" stroke="#c6c5fe" d="M1646.33,-260C1646.33,-260 1458.67,-260 1458.67,-260 1454.83,-260 1451,-256.17 1451,-252.33 1451,-252.33 1451,-244.67 1451,-244.67 1451,-240.83 1454.83,-237 1458.67,-237 1458.67,-237 1646.33,-237 1646.33,-237 1650.17,-237 1654,-240.83 1654,-244.67 1654,-244.67 1654,-252.33 1654,-252.33 1654,-256.17 1650.17,-260 1646.33,-260"/>
<text text-anchor="middle" x="1552.5" y="-244.8" font-family="Arial" font-size="14.00" fill="#c6c5fe">component/chart/BarChart.tsx</text>
</g>
<!-- component/Widget/WidgetChart.tsx&#45;&gt;component/chart/BarChart.tsx -->
<g id="edge43" class="edge">
<title>component/Widget/WidgetChart.tsx&#45;&gt;component/chart/BarChart.tsx</title>
<path fill="none" stroke="#757575" d="M1165.74,-264.51C1248.78,-261.06 1358.46,-256.51 1439.63,-253.14"/>
<polygon fill="#757575" stroke="#757575" points="1439.54,-256.65 1449.38,-252.74 1439.25,-249.66 1439.54,-256.65"/>
</g>
<!-- component/chart/InformaticsChart.tsx -->
<g id="node33" class="node">
<title>component/chart/InformaticsChart.tsx</title>
<path fill="none" stroke="#c6c5fe" d="M1670.83,-301C1670.83,-301 1434.17,-301 1434.17,-301 1430.33,-301 1426.5,-297.17 1426.5,-293.33 1426.5,-293.33 1426.5,-285.67 1426.5,-285.67 1426.5,-281.83 1430.33,-278 1434.17,-278 1434.17,-278 1670.83,-278 1670.83,-278 1674.67,-278 1678.5,-281.83 1678.5,-285.67 1678.5,-285.67 1678.5,-293.33 1678.5,-293.33 1678.5,-297.17 1674.67,-301 1670.83,-301"/>
<text text-anchor="middle" x="1552.5" y="-285.8" font-family="Arial" font-size="14.00" fill="#c6c5fe">component/chart/InformaticsChart.tsx</text>
</g>
<!-- component/Widget/WidgetChart.tsx&#45;&gt;component/chart/InformaticsChart.tsx -->
<g id="edge44" class="edge">
<title>component/Widget/WidgetChart.tsx&#45;&gt;component/chart/InformaticsChart.tsx</title>
<path fill="none" stroke="#757575" d="M1165.74,-274.25C1240.67,-277.21 1337.3,-281.03 1415.09,-284.11"/>
<polygon fill="#757575" stroke="#757575" points="1414.79,-287.6 1424.92,-284.5 1415.06,-280.6 1414.79,-287.6"/>
</g>
<!-- component/chart/LineChart.tsx -->
<g id="node34" class="node">
<title>component/chart/LineChart.tsx</title>
<path fill="none" stroke="#c6c5fe" d="M1649.33,-219C1649.33,-219 1455.67,-219 1455.67,-219 1451.83,-219 1448,-215.17 1448,-211.33 1448,-211.33 1448,-203.67 1448,-203.67 1448,-199.83 1451.83,-196 1455.67,-196 1455.67,-196 1649.33,-196 1649.33,-196 1653.17,-196 1657,-199.83 1657,-203.67 1657,-203.67 1657,-211.33 1657,-211.33 1657,-215.17 1653.17,-219 1649.33,-219"/>
<text text-anchor="middle" x="1552.5" y="-203.8" font-family="Arial" font-size="14.00" fill="#c6c5fe">component/chart/LineChart.tsx</text>
</g>
<!-- component/Widget/WidgetChart.tsx&#45;&gt;component/chart/LineChart.tsx -->
<g id="edge45" class="edge">
<title>component/Widget/WidgetChart.tsx&#45;&gt;component/chart/LineChart.tsx</title>
<path fill="none" stroke="#757575" d="M1115.54,-257.54C1171.12,-248.36 1250.86,-235.88 1321,-227.5 1358.41,-223.03 1399.35,-219.15 1436.21,-216.03"/>
<polygon fill="#757575" stroke="#757575" points="1436.33,-219.53 1446,-215.21 1435.75,-212.56 1436.33,-219.53"/>
</g>
<!-- component/chart/BarChart.tsx&#45;&gt;common/chart.ts -->
<g id="edge51" class="edge">
<title>component/chart/BarChart.tsx&#45;&gt;common/chart.ts</title>
<path fill="none" stroke="#757575" d="M1654.49,-239.39C1694.78,-235.73 1741.59,-231.45 1784,-227.5 1830.07,-223.21 1881.8,-218.28 1922.4,-214.39"/>
<polygon fill="#757575" stroke="#757575" points="1922.68,-217.88 1932.3,-213.44 1922.01,-210.91 1922.68,-217.88"/>
</g>
<!-- component/chart/BarChart.tsx&#45;&gt;types/chart.d.ts -->
<g id="edge53" class="edge">
<title>component/chart/BarChart.tsx&#45;&gt;types/chart.d.ts</title>
<path fill="none" stroke="#757575" d="M1654.37,-256.82C1704.2,-260.74 1765.23,-265.25 1820,-268.5 1959.36,-276.76 2122.69,-283.07 2212.25,-286.23"/>
<polygon fill="#757575" stroke="#757575" points="2211.96,-289.73 2222.08,-286.58 2212.21,-282.73 2211.96,-289.73"/>
</g>
<!-- hook/useResize.tsx -->
<g id="node38" class="node">
<title>hook/useResize.tsx</title>
<path fill="none" stroke="#cfffac" d="M2057.33,-260C2057.33,-260 1932.67,-260 1932.67,-260 1928.83,-260 1925,-256.17 1925,-252.33 1925,-252.33 1925,-244.67 1925,-244.67 1925,-240.83 1928.83,-237 1932.67,-237 1932.67,-237 2057.33,-237 2057.33,-237 2061.17,-237 2065,-240.83 2065,-244.67 2065,-244.67 2065,-252.33 2065,-252.33 2065,-256.17 2061.17,-260 2057.33,-260"/>
<text text-anchor="middle" x="1995" y="-244.8" font-family="Arial" font-size="14.00" fill="#cfffac">hook/useResize.tsx</text>
</g>
<!-- component/chart/BarChart.tsx&#45;&gt;hook/useResize.tsx -->
<g id="edge52" class="edge">
<title>component/chart/BarChart.tsx&#45;&gt;hook/useResize.tsx</title>
<path fill="none" stroke="#757575" d="M1654.28,-248.5C1732.75,-248.5 1840.23,-248.5 1913.13,-248.5"/>
<polygon fill="#757575" stroke="#757575" points="1913,-252 1923,-248.5 1913,-245 1913,-252"/>
</g>
<!-- component/chart/InformaticsChart.tsx&#45;&gt;types/chart.d.ts -->
<g id="edge55" class="edge">
<title>component/chart/InformaticsChart.tsx&#45;&gt;types/chart.d.ts</title>
<path fill="none" stroke="#757575" d="M1678.82,-283.83C1714.26,-286.55 1751.9,-293.76 1784,-309.5 1805.18,-319.89 1798.39,-339.04 1820,-348.5 1962.5,-410.89 2019.3,-387.08 2170,-348.5 2201.36,-340.47 2233.4,-321.39 2254.65,-306.88"/>
<polygon fill="#757575" stroke="#757575" points="2256.48,-309.88 2262.65,-301.27 2252.45,-304.15 2256.48,-309.88"/>
</g>
<!-- component/chart/InformaticsChart/InforMaticsBox.tsx -->
<g id="node39" class="node">
<title>component/chart/InformaticsChart/InforMaticsBox.tsx</title>
<path fill="none" stroke="#c6c5fe" d="M2162.33,-340C2162.33,-340 1827.67,-340 1827.67,-340 1823.83,-340 1820,-336.17 1820,-332.33 1820,-332.33 1820,-324.67 1820,-324.67 1820,-320.83 1823.83,-317 1827.67,-317 1827.67,-317 2162.33,-317 2162.33,-317 2166.17,-317 2170,-320.83 2170,-324.67 2170,-324.67 2170,-332.33 2170,-332.33 2170,-336.17 2166.17,-340 2162.33,-340"/>
<text text-anchor="middle" x="1995" y="-324.8" font-family="Arial" font-size="14.00" fill="#c6c5fe">component/chart/InformaticsChart/InforMaticsBox.tsx</text>
</g>
<!-- component/chart/InformaticsChart.tsx&#45;&gt;component/chart/InformaticsChart/InforMaticsBox.tsx -->
<g id="edge54" class="edge">
<title>component/chart/InformaticsChart.tsx&#45;&gt;component/chart/InformaticsChart/InforMaticsBox.tsx</title>
<path fill="none" stroke="#757575" d="M1678.82,-300.29C1712.94,-303.25 1749.89,-306.48 1784,-309.5 1805.68,-311.42 1828.62,-313.48 1851.06,-315.5"/>
<polygon fill="#757575" stroke="#757575" points="1850.6,-318.97 1860.87,-316.38 1851.23,-312 1850.6,-318.97"/>
</g>
<!-- component/chart/LineChart.tsx&#45;&gt;common/chart.ts -->
<g id="edge57" class="edge">
<title>component/chart/LineChart.tsx&#45;&gt;common/chart.ts</title>
<path fill="none" stroke="#757575" d="M1657.33,-207.5C1738.94,-207.5 1850.47,-207.5 1922.38,-207.5"/>
<polygon fill="#757575" stroke="#757575" points="1922.05,-211 1932.05,-207.5 1922.05,-204 1922.05,-211"/>
</g>
<!-- component/chart/LineChart.tsx&#45;&gt;types/chart.d.ts -->
<g id="edge59" class="edge">
<title>component/chart/LineChart.tsx&#45;&gt;types/chart.d.ts</title>
<path fill="none" stroke="#757575" d="M1657.49,-197.4C1706.7,-193.11 1766.32,-188.61 1820,-186.5 1975.44,-180.39 2025.25,-129.53 2170,-186.5 2211.22,-202.72 2246.11,-242.59 2264.81,-267.4"/>
<polygon fill="#757575" stroke="#757575" points="2261.98,-269.46 2270.7,-275.48 2267.64,-265.33 2261.98,-269.46"/>
</g>
<!-- component/chart/LineChart.tsx&#45;&gt;hook/useResize.tsx -->
<g id="edge58" class="edge">
<title>component/chart/LineChart.tsx&#45;&gt;hook/useResize.tsx</title>
<path fill="none" stroke="#757575" d="M1657.37,-216.22C1697.01,-219.63 1742.61,-223.63 1784,-227.5 1826.67,-231.48 1874.18,-236.21 1913.2,-240.17"/>
<polygon fill="#757575" stroke="#757575" points="1912.69,-243.64 1922.99,-241.17 1913.4,-236.67 1912.69,-243.64"/>
</g>
<!-- component/Widget/WidgetPropsSettingModal.tsx -->
<g id="node35" class="node">
<title>component/Widget/WidgetPropsSettingModal.tsx</title>
<path fill="none" stroke="#c6c5fe" d="M760.33,-383C760.33,-383 446.67,-383 446.67,-383 442.83,-383 439,-379.17 439,-375.33 439,-375.33 439,-367.67 439,-367.67 439,-363.83 442.83,-360 446.67,-360 446.67,-360 760.33,-360 760.33,-360 764.17,-360 768,-363.83 768,-367.67 768,-367.67 768,-375.33 768,-375.33 768,-379.17 764.17,-383 760.33,-383"/>
<text text-anchor="middle" x="603.5" y="-367.8" font-family="Arial" font-size="14.00" fill="#c6c5fe">component/Widget/WidgetPropsSettingModal.tsx</text>
</g>
<!-- component/Widget/WidgetPropsSettingModal.tsx&#45;&gt;api.ts -->
<g id="edge46" class="edge">
<title>component/Widget/WidgetPropsSettingModal.tsx&#45;&gt;api.ts</title>
<path fill="none" stroke="#757575" d="M607.99,-359.7C622.53,-312.9 683.36,-139.67 804,-75.5 928.45,-9.3 1379.79,-65.51 1513.76,-84.07"/>
<polygon fill="#757575" stroke="#757575" points="1513.12,-87.51 1523.5,-85.43 1514.09,-80.58 1513.12,-87.51"/>
</g>
<!-- component/Widget/WidgetPropsSettingModal.tsx&#45;&gt;store/WidgetProvider.tsx -->
<g id="edge49" class="edge">
<title>component/Widget/WidgetPropsSettingModal.tsx&#45;&gt;store/WidgetProvider.tsx</title>
<path fill="none" stroke="#757575" d="M677.24,-383.48C850,-411.94 1284.24,-483.47 1467.65,-513.69"/>
<polygon fill="#757575" stroke="#757575" points="1466.91,-517.11 1477.35,-515.28 1468.05,-510.21 1466.91,-517.11"/>
</g>
<!-- component/Widget/WidgetPropsSettingModal/WidgetPropsButtons.tsx -->
<g id="node36" class="node">
<title>component/Widget/WidgetPropsSettingModal/WidgetPropsButtons.tsx</title>
<path fill="none" stroke="#c6c5fe" d="M1269.33,-383C1269.33,-383 819.67,-383 819.67,-383 815.83,-383 812,-379.17 812,-375.33 812,-375.33 812,-367.67 812,-367.67 812,-363.83 815.83,-360 819.67,-360 819.67,-360 1269.33,-360 1269.33,-360 1273.17,-360 1277,-363.83 1277,-367.67 1277,-367.67 1277,-375.33 1277,-375.33 1277,-379.17 1273.17,-383 1269.33,-383"/>
<text text-anchor="middle" x="1044.5" y="-367.8" font-family="Arial" font-size="14.00" fill="#c6c5fe">component/Widget/WidgetPropsSettingModal/WidgetPropsButtons.tsx</text>
</g>
<!-- component/Widget/WidgetPropsSettingModal.tsx&#45;&gt;component/Widget/WidgetPropsSettingModal/WidgetPropsButtons.tsx -->
<g id="edge47" class="edge">
<title>component/Widget/WidgetPropsSettingModal.tsx&#45;&gt;component/Widget/WidgetPropsSettingModal/WidgetPropsButtons.tsx</title>
<path fill="none" stroke="#757575" d="M768.28,-371.5C778.86,-371.5 789.62,-371.5 800.46,-371.5"/>
<polygon fill="#757575" stroke="#757575" points="800.27,-375 810.27,-371.5 800.27,-368 800.27,-375"/>
</g>
<!-- component/Widget/WidgetPropsSettingModal/WidgetPropsList.tsx -->
<g id="node37" class="node">
<title>component/Widget/WidgetPropsSettingModal/WidgetPropsList.tsx</title>
<path fill="none" stroke="#cfffac" d="M1256.83,-23C1256.83,-23 832.17,-23 832.17,-23 828.33,-23 824.5,-19.17 824.5,-15.33 824.5,-15.33 824.5,-7.67 824.5,-7.67 824.5,-3.83 828.33,0 832.17,0 832.17,0 1256.83,0 1256.83,0 1260.67,0 1264.5,-3.83 1264.5,-7.67 1264.5,-7.67 1264.5,-15.33 1264.5,-15.33 1264.5,-19.17 1260.67,-23 1256.83,-23"/>
<text text-anchor="middle" x="1044.5" y="-7.8" font-family="Arial" font-size="14.00" fill="#cfffac">component/Widget/WidgetPropsSettingModal/WidgetPropsList.tsx</text>
</g>
<!-- component/Widget/WidgetPropsSettingModal.tsx&#45;&gt;component/Widget/WidgetPropsSettingModal/WidgetPropsList.tsx -->
<g id="edge48" class="edge">
<title>component/Widget/WidgetPropsSettingModal.tsx&#45;&gt;component/Widget/WidgetPropsSettingModal/WidgetPropsList.tsx</title>
<path fill="none" stroke="#757575" d="M607.44,-359.67C620.45,-310.17 677.78,-118.45 804,-37.5 809.34,-34.08 814.88,-30.97 820.59,-28.15"/>
<polygon fill="#757575" stroke="#757575" points="822.01,-31.35 829.65,-24.01 819.1,-24.98 822.01,-31.35"/>
</g>
<!-- component/Widget/WidgetPropsSettingModal/WidgetPropsButtons.tsx&#45;&gt;store/WidgetProvider.tsx -->
<g id="edge50" class="edge">
<title>component/Widget/WidgetPropsSettingModal/WidgetPropsButtons.tsx&#45;&gt;store/WidgetProvider.tsx</title>
<path fill="none" stroke="#757575" d="M1084.36,-383.48C1175.26,-411.51 1401.61,-481.29 1502.09,-512.27"/>
<polygon fill="#757575" stroke="#757575" points="1500.82,-515.54 1511.4,-515.14 1502.88,-508.85 1500.82,-515.54"/>
</g>
<!-- component/chart/InformaticsChart/InforMaticsBox.tsx&#45;&gt;types/chart.d.ts -->
<g id="edge56" class="edge">
<title>component/chart/InformaticsChart/InforMaticsBox.tsx&#45;&gt;types/chart.d.ts</title>
<path fill="none" stroke="#757575" d="M2080.68,-316.55C2122.85,-310.6 2173.12,-303.51 2212.55,-297.95"/>
<polygon fill="#757575" stroke="#757575" points="2212.99,-301.42 2222.4,-296.56 2212.01,-294.49 2212.99,-301.42"/>
</g>
<!-- component/common/DatePicker/ListPicker.tsx&#45;&gt;types/datePicker.d.ts -->
<g id="edge62" class="edge">
<title>component/common/DatePicker/ListPicker.tsx&#45;&gt;types/datePicker.d.ts</title>
<path fill="none" stroke="#757575" d="M2149.37,-1033.32C2164.81,-1034.41 2180.07,-1035.49 2194.4,-1036.5"/>
<polygon fill="#757575" stroke="#757575" points="2193.95,-1039.97 2204.17,-1037.19 2194.44,-1032.99 2193.95,-1039.97"/>
</g>
<!-- page/Dashboard.tsx&#45;&gt;component/Dashboard/DashboardHeader.tsx -->
<g id="edge63" class="edge">
<title>page/Dashboard.tsx&#45;&gt;component/Dashboard/DashboardHeader.tsx</title>
<path fill="none" stroke="#757575" d="M342.6,-617.14C383.59,-662.14 531.92,-825.01 584.15,-882.35"/>
<polygon fill="#757575" stroke="#757575" points="581.34,-884.46 590.66,-889.5 586.51,-879.75 581.34,-884.46"/>
</g>
<!-- page/Dashboard.tsx&#45;&gt;store/DashboardProvider.tsx -->
<g id="edge66" class="edge">
<title>page/Dashboard.tsx&#45;&gt;store/DashboardProvider.tsx</title>
<path fill="none" stroke="#757575" d="M332.63,-617.28C335.69,-662.73 352.56,-828.78 439,-922.5 558.73,-1052.3 631.13,-1043.42 804,-1079.5 1027.02,-1126.05 1295.68,-1110.64 1442.51,-1096.35"/>
<polygon fill="#757575" stroke="#757575" points="1442.62,-1099.86 1452.23,-1095.39 1441.93,-1092.9 1442.62,-1099.86"/>
</g>
<!-- page/Dashboard.tsx&#45;&gt;store/WidgetProvider.tsx -->
<g id="edge67" class="edge">
<title>page/Dashboard.tsx&#45;&gt;store/WidgetProvider.tsx</title>
<path fill="none" stroke="#757575" d="M403.45,-601.5C562.09,-592.53 955.69,-569.88 1285,-547.5 1341.16,-543.68 1403.95,-538.99 1454.46,-535.11"/>
<polygon fill="#757575" stroke="#757575" points="1454.5,-538.62 1464.2,-534.36 1453.96,-531.64 1454.5,-538.62"/>
</g>
<!-- page/Dashboard.tsx&#45;&gt;component/Widget.tsx -->
<g id="edge64" class="edge">
<title>page/Dashboard.tsx&#45;&gt;component/Widget.tsx</title>
<path fill="none" stroke="#757575" d="M350.17,-593.75C396.45,-563.81 519.02,-484.51 574.51,-448.61"/>
<polygon fill="#757575" stroke="#757575" points="576.29,-451.63 582.78,-443.26 572.49,-445.75 576.29,-451.63"/>
</g>
<!-- page/Dashboard.tsx&#45;&gt;component/Widget/WidgetPropsSettingModal.tsx -->
<g id="edge65" class="edge">
<title>page/Dashboard.tsx&#45;&gt;component/Widget/WidgetPropsSettingModal.tsx</title>
<path fill="none" stroke="#757575" d="M334.84,-593.56C343.7,-559.09 374.17,-458.75 439,-409.5 451.82,-399.76 466.72,-392.45 482.21,-386.98"/>
<polygon fill="#757575" stroke="#757575" points="483.14,-390.36 491.57,-383.95 480.98,-383.71 483.14,-390.36"/>
</g>
</g>
</svg>
