<?xml version="1.0" encoding="UTF-8" standalone="no"?>
<!DOCTYPE svg PUBLIC "-//W3C//DTD SVG 1.1//EN"
 "http://www.w3.org/Graphics/SVG/1.1/DTD/svg11.dtd">
<!-- Generated by graphviz version 7.1.0 (20230121.1956)
 -->
<!-- Title: G Pages: 1 -->
<svg width="3414pt" height="1065pt"
 viewBox="0.00 0.00 3414.20 1065.20" xmlns="http://www.w3.org/2000/svg" xmlns:xlink="http://www.w3.org/1999/xlink">
<g id="graph0" class="graph" transform="scale(1 1) rotate(0) translate(21.6 1043.6)">
<title>G</title>
<polygon fill="#111111" stroke="none" points="-21.6,21.6 -21.6,-1043.6 3392.6,-1043.6 3392.6,21.6 -21.6,21.6"/>
<!-- App.tsx -->
<g id="node1" class="node">
<title>App.tsx</title>
<path fill="none" stroke="#c6c5fe" d="M57.33,-342C57.33,-342 7.67,-342 7.67,-342 3.83,-342 0,-338.17 0,-334.33 0,-334.33 0,-326.67 0,-326.67 0,-322.83 3.83,-319 7.67,-319 7.67,-319 57.33,-319 57.33,-319 61.17,-319 65,-322.83 65,-326.67 65,-326.67 65,-334.33 65,-334.33 65,-338.17 61.17,-342 57.33,-342"/>
<text text-anchor="middle" x="32.5" y="-326.8" font-family="Arial" font-size="14.00" fill="#c6c5fe">App.tsx</text>
</g>
<!-- router/Router.tsx -->
<g id="node2" class="node">
<title>router/Router.tsx</title>
<path fill="none" stroke="#c6c5fe" d="M215.33,-342C215.33,-342 108.67,-342 108.67,-342 104.83,-342 101,-338.17 101,-334.33 101,-334.33 101,-326.67 101,-326.67 101,-322.83 104.83,-319 108.67,-319 108.67,-319 215.33,-319 215.33,-319 219.17,-319 223,-322.83 223,-326.67 223,-326.67 223,-334.33 223,-334.33 223,-338.17 219.17,-342 215.33,-342"/>
<text text-anchor="middle" x="162" y="-326.8" font-family="Arial" font-size="14.00" fill="#c6c5fe">router/Router.tsx</text>
</g>
<!-- App.tsx&#45;&gt;router/Router.tsx -->
<g id="edge1" class="edge">
<title>App.tsx&#45;&gt;router/Router.tsx</title>
<path fill="none" stroke="#757575" d="M65.34,-330.5C72.7,-330.5 80.81,-330.5 89.12,-330.5"/>
<polygon fill="#757575" stroke="#757575" points="88.99,-334 98.99,-330.5 88.99,-327 88.99,-334"/>
</g>
<!-- page/Dashboard.tsx -->
<g id="node47" class="node">
<title>page/Dashboard.tsx</title>
<path fill="none" stroke="#c6c5fe" d="M395.33,-342C395.33,-342 266.67,-342 266.67,-342 262.83,-342 259,-338.17 259,-334.33 259,-334.33 259,-326.67 259,-326.67 259,-322.83 262.83,-319 266.67,-319 266.67,-319 395.33,-319 395.33,-319 399.17,-319 403,-322.83 403,-326.67 403,-326.67 403,-334.33 403,-334.33 403,-338.17 399.17,-342 395.33,-342"/>
<text text-anchor="middle" x="331" y="-326.8" font-family="Arial" font-size="14.00" fill="#c6c5fe">page/Dashboard.tsx</text>
</g>
<!-- router/Router.tsx&#45;&gt;page/Dashboard.tsx -->
<g id="edge73" class="edge">
<title>router/Router.tsx&#45;&gt;page/Dashboard.tsx</title>
<path fill="none" stroke="#757575" d="M223.29,-330.5C231.1,-330.5 239.21,-330.5 247.3,-330.5"/>
<polygon fill="#757575" stroke="#757575" points="247.19,-334 257.19,-330.5 247.19,-327 247.19,-334"/>
</g>
<!-- asset/image/pause.png -->
<g id="node3" class="node">
<title>asset/image/pause.png</title>
<path fill="none" stroke="#cfffac" d="M1619.83,-946C1619.83,-946 1471.17,-946 1471.17,-946 1467.33,-946 1463.5,-942.17 1463.5,-938.33 1463.5,-938.33 1463.5,-930.67 1463.5,-930.67 1463.5,-926.83 1467.33,-923 1471.17,-923 1471.17,-923 1619.83,-923 1619.83,-923 1623.67,-923 1627.5,-926.83 1627.5,-930.67 1627.5,-930.67 1627.5,-938.33 1627.5,-938.33 1627.5,-942.17 1623.67,-946 1619.83,-946"/>
<text text-anchor="middle" x="1545.5" y="-930.8" font-family="Arial" font-size="14.00" fill="#cfffac">asset/image/pause.png</text>
</g>
<!-- asset/image/play.png -->
<g id="node4" class="node">
<title>asset/image/play.png</title>
<path fill="none" stroke="#cfffac" d="M1613.33,-905C1613.33,-905 1477.67,-905 1477.67,-905 1473.83,-905 1470,-901.17 1470,-897.33 1470,-897.33 1470,-889.67 1470,-889.67 1470,-885.83 1473.83,-882 1477.67,-882 1477.67,-882 1613.33,-882 1613.33,-882 1617.17,-882 1621,-885.83 1621,-889.67 1621,-889.67 1621,-897.33 1621,-897.33 1621,-901.17 1617.17,-905 1613.33,-905"/>
<text text-anchor="middle" x="1545.5" y="-889.8" font-family="Arial" font-size="14.00" fill="#cfffac">asset/image/play.png</text>
</g>
<!-- common/api.ts -->
<g id="node5" class="node">
<title>common/api.ts</title>
<path fill="none" stroke="#c6c5fe" d="M1083.83,-64C1083.83,-64 989.17,-64 989.17,-64 985.33,-64 981.5,-60.17 981.5,-56.33 981.5,-56.33 981.5,-48.67 981.5,-48.67 981.5,-44.83 985.33,-41 989.17,-41 989.17,-41 1083.83,-41 1083.83,-41 1087.67,-41 1091.5,-44.83 1091.5,-48.67 1091.5,-48.67 1091.5,-56.33 1091.5,-56.33 1091.5,-60.17 1087.67,-64 1083.83,-64"/>
<text text-anchor="middle" x="1036.5" y="-48.8" font-family="Arial" font-size="14.00" fill="#c6c5fe">common/api.ts</text>
</g>
<!-- types/api.d.ts -->
<g id="node6" class="node">
<title>types/api.d.ts</title>
<path fill="none" stroke="#cfffac" d="M1588.33,-42C1588.33,-42 1502.67,-42 1502.67,-42 1498.83,-42 1495,-38.17 1495,-34.33 1495,-34.33 1495,-26.67 1495,-26.67 1495,-22.83 1498.83,-19 1502.67,-19 1502.67,-19 1588.33,-19 1588.33,-19 1592.17,-19 1596,-22.83 1596,-26.67 1596,-26.67 1596,-34.33 1596,-34.33 1596,-38.17 1592.17,-42 1588.33,-42"/>
<text text-anchor="middle" x="1545.5" y="-26.8" font-family="Arial" font-size="14.00" fill="#cfffac">types/api.d.ts</text>
</g>
<!-- common/api.ts&#45;&gt;types/api.d.ts -->
<g id="edge2" class="edge">
<title>common/api.ts&#45;&gt;types/api.d.ts</title>
<path fill="none" stroke="#757575" d="M1091.76,-50.15C1186.98,-46.01 1383.51,-37.49 1483.37,-33.15"/>
<polygon fill="#757575" stroke="#757575" points="1483.42,-36.65 1493.26,-32.72 1483.11,-29.66 1483.42,-36.65"/>
</g>
<!-- common/chart.ts -->
<g id="node7" class="node">
<title>common/chart.ts</title>
<path fill="none" stroke="#c6c5fe" d="M2059.33,-165C2059.33,-165 1952.67,-165 1952.67,-165 1948.83,-165 1945,-161.17 1945,-157.33 1945,-157.33 1945,-149.67 1945,-149.67 1945,-145.83 1948.83,-142 1952.67,-142 1952.67,-142 2059.33,-142 2059.33,-142 2063.17,-142 2067,-145.83 2067,-149.67 2067,-149.67 2067,-157.33 2067,-157.33 2067,-161.17 2063.17,-165 2059.33,-165"/>
<text text-anchor="middle" x="2006" y="-149.8" font-family="Arial" font-size="14.00" fill="#c6c5fe">common/chart.ts</text>
</g>
<!-- types/chart.d.ts -->
<g id="node8" class="node">
<title>types/chart.d.ts</title>
<path fill="none" stroke="#cfffac" d="M2446.33,-84C2446.33,-84 2348.67,-84 2348.67,-84 2344.83,-84 2341,-80.17 2341,-76.33 2341,-76.33 2341,-68.67 2341,-68.67 2341,-64.83 2344.83,-61 2348.67,-61 2348.67,-61 2446.33,-61 2446.33,-61 2450.17,-61 2454,-64.83 2454,-68.67 2454,-68.67 2454,-76.33 2454,-76.33 2454,-80.17 2450.17,-84 2446.33,-84"/>
<text text-anchor="middle" x="2397.5" y="-68.8" font-family="Arial" font-size="14.00" fill="#cfffac">types/chart.d.ts</text>
</g>
<!-- common/chart.ts&#45;&gt;types/chart.d.ts -->
<g id="edge3" class="edge">
<title>common/chart.ts&#45;&gt;types/chart.d.ts</title>
<path fill="none" stroke="#757575" d="M2067.15,-149.17C2103.05,-145.95 2149.4,-140.67 2190,-132.5 2246.49,-121.14 2309.93,-101.66 2351.4,-87.99"/>
<polygon fill="#757575" stroke="#757575" points="2352.41,-91.34 2360.8,-84.87 2350.2,-84.7 2352.41,-91.34"/>
</g>
<!-- common/date.ts -->
<g id="node9" class="node">
<title>common/date.ts</title>
<path fill="none" stroke="#cfffac" d="M2449.33,-544C2449.33,-544 2345.67,-544 2345.67,-544 2341.83,-544 2338,-540.17 2338,-536.33 2338,-536.33 2338,-528.67 2338,-528.67 2338,-524.83 2341.83,-521 2345.67,-521 2345.67,-521 2449.33,-521 2449.33,-521 2453.17,-521 2457,-524.83 2457,-528.67 2457,-528.67 2457,-536.33 2457,-536.33 2457,-540.17 2453.17,-544 2449.33,-544"/>
<text text-anchor="middle" x="2397.5" y="-528.8" font-family="Arial" font-size="14.00" fill="#cfffac">common/date.ts</text>
</g>
<!-- common/widget.ts -->
<g id="node10" class="node">
<title>common/widget.ts</title>
<path fill="none" stroke="#cfffac" d="M1603.83,-382C1603.83,-382 1487.17,-382 1487.17,-382 1483.33,-382 1479.5,-378.17 1479.5,-374.33 1479.5,-374.33 1479.5,-366.67 1479.5,-366.67 1479.5,-362.83 1483.33,-359 1487.17,-359 1487.17,-359 1603.83,-359 1603.83,-359 1607.67,-359 1611.5,-362.83 1611.5,-366.67 1611.5,-366.67 1611.5,-374.33 1611.5,-374.33 1611.5,-378.17 1607.67,-382 1603.83,-382"/>
<text text-anchor="middle" x="1545.5" y="-366.8" font-family="Arial" font-size="14.00" fill="#cfffac">common/widget.ts</text>
</g>
<!-- component/Dashboard/CommonStyle.ts -->
<g id="node11" class="node">
<title>component/Dashboard/CommonStyle.ts</title>
<path fill="none" stroke="#cfffac" d="M3363.33,-842C3363.33,-842 3108.67,-842 3108.67,-842 3104.83,-842 3101,-838.17 3101,-834.33 3101,-834.33 3101,-826.67 3101,-826.67 3101,-822.83 3104.83,-819 3108.67,-819 3108.67,-819 3363.33,-819 3363.33,-819 3367.17,-819 3371,-822.83 3371,-826.67 3371,-826.67 3371,-834.33 3371,-834.33 3371,-838.17 3367.17,-842 3363.33,-842"/>
<text text-anchor="middle" x="3236" y="-826.8" font-family="Arial" font-size="14.00" fill="#cfffac">component/Dashboard/CommonStyle.ts</text>
</g>
<!-- component/Dashboard/DashboardHeader.tsx -->
<g id="node12" class="node">
<title>component/Dashboard/DashboardHeader.tsx</title>
<path fill="none" stroke="#c6c5fe" d="M747.33,-694C747.33,-694 459.67,-694 459.67,-694 455.83,-694 452,-690.17 452,-686.33 452,-686.33 452,-678.67 452,-678.67 452,-674.83 455.83,-671 459.67,-671 459.67,-671 747.33,-671 747.33,-671 751.17,-671 755,-674.83 755,-678.67 755,-678.67 755,-686.33 755,-686.33 755,-690.17 751.17,-694 747.33,-694"/>
<text text-anchor="middle" x="603.5" y="-678.8" font-family="Arial" font-size="14.00" fill="#c6c5fe">component/Dashboard/DashboardHeader.tsx</text>
</g>
<!-- component/Dashboard/DashboardHeader/PlayIcon.tsx -->
<g id="node13" class="node">
<title>component/Dashboard/DashboardHeader/PlayIcon.tsx</title>
<path fill="none" stroke="#c6c5fe" d="M1209.83,-905C1209.83,-905 863.17,-905 863.17,-905 859.33,-905 855.5,-901.17 855.5,-897.33 855.5,-897.33 855.5,-889.67 855.5,-889.67 855.5,-885.83 859.33,-882 863.17,-882 863.17,-882 1209.83,-882 1209.83,-882 1213.67,-882 1217.5,-885.83 1217.5,-889.67 1217.5,-889.67 1217.5,-897.33 1217.5,-897.33 1217.5,-901.17 1213.67,-905 1209.83,-905"/>
<text text-anchor="middle" x="1036.5" y="-889.8" font-family="Arial" font-size="14.00" fill="#c6c5fe">component/Dashboard/DashboardHeader/PlayIcon.tsx</text>
</g>
<!-- component/Dashboard/DashboardHeader.tsx&#45;&gt;component/Dashboard/DashboardHeader/PlayIcon.tsx -->
<g id="edge4" class="edge">
<title>component/Dashboard/DashboardHeader.tsx&#45;&gt;component/Dashboard/DashboardHeader/PlayIcon.tsx</title>
<path fill="none" stroke="#757575" d="M616.43,-694.19C645.78,-722.3 724.84,-794.14 804,-832.5 849.95,-854.76 905.1,-869.7 950.05,-879.23"/>
<polygon fill="#757575" stroke="#757575" points="949.26,-882.64 959.76,-881.23 950.67,-875.78 949.26,-882.64"/>
</g>
<!-- component/Dashboard/DashboardHeader/SelectRealTimeRangeArea.tsx -->
<g id="node14" class="node">
<title>component/Dashboard/DashboardHeader/SelectRealTimeRangeArea.tsx</title>
<path fill="none" stroke="#c6c5fe" d="M1778.33,-734C1778.33,-734 1312.67,-734 1312.67,-734 1308.83,-734 1305,-730.17 1305,-726.33 1305,-726.33 1305,-718.67 1305,-718.67 1305,-714.83 1308.83,-711 1312.67,-711 1312.67,-711 1778.33,-711 1778.33,-711 1782.17,-711 1786,-714.83 1786,-718.67 1786,-718.67 1786,-726.33 1786,-726.33 1786,-730.17 1782.17,-734 1778.33,-734"/>
<text text-anchor="middle" x="1545.5" y="-718.8" font-family="Arial" font-size="14.00" fill="#c6c5fe">component/Dashboard/DashboardHeader/SelectRealTimeRangeArea.tsx</text>
</g>
<!-- component/Dashboard/DashboardHeader.tsx&#45;&gt;component/Dashboard/DashboardHeader/SelectRealTimeRangeArea.tsx -->
<g id="edge5" class="edge">
<title>component/Dashboard/DashboardHeader.tsx&#45;&gt;component/Dashboard/DashboardHeader/SelectRealTimeRangeArea.tsx</title>
<path fill="none" stroke="#757575" d="M755.33,-693.65C771.75,-694.69 788.22,-695.67 804,-696.5 966.91,-705.07 1150.15,-711.53 1293.58,-715.87"/>
<polygon fill="#757575" stroke="#757575" points="1293.1,-719.36 1303.2,-716.16 1293.31,-712.36 1293.1,-719.36"/>
</g>
<!-- component/Dashboard/DashboardHeader/TimeBlock.tsx -->
<g id="node15" class="node">
<title>component/Dashboard/DashboardHeader/TimeBlock.tsx</title>
<path fill="none" stroke="#c6c5fe" d="M1215.83,-823C1215.83,-823 857.17,-823 857.17,-823 853.33,-823 849.5,-819.17 849.5,-815.33 849.5,-815.33 849.5,-807.67 849.5,-807.67 849.5,-803.83 853.33,-800 857.17,-800 857.17,-800 1215.83,-800 1215.83,-800 1219.67,-800 1223.5,-803.83 1223.5,-807.67 1223.5,-807.67 1223.5,-815.33 1223.5,-815.33 1223.5,-819.17 1219.67,-823 1215.83,-823"/>
<text text-anchor="middle" x="1036.5" y="-807.8" font-family="Arial" font-size="14.00" fill="#c6c5fe">component/Dashboard/DashboardHeader/TimeBlock.tsx</text>
</g>
<!-- component/Dashboard/DashboardHeader.tsx&#45;&gt;component/Dashboard/DashboardHeader/TimeBlock.tsx -->
<g id="edge6" class="edge">
<title>component/Dashboard/DashboardHeader.tsx&#45;&gt;component/Dashboard/DashboardHeader/TimeBlock.tsx</title>
<path fill="none" stroke="#757575" d="M644.27,-694.4C722.83,-717.92 897.8,-770.29 984.62,-796.27"/>
<polygon fill="#757575" stroke="#757575" points="983.47,-799.58 994.06,-799.1 985.48,-792.88 983.47,-799.58"/>
</g>
<!-- store/DashboardProvider.tsx -->
<g id="node16" class="node">
<title>store/DashboardProvider.tsx</title>
<path fill="none" stroke="#c6c5fe" d="M2096.83,-585C2096.83,-585 1915.17,-585 1915.17,-585 1911.33,-585 1907.5,-581.17 1907.5,-577.33 1907.5,-577.33 1907.5,-569.67 1907.5,-569.67 1907.5,-565.83 1911.33,-562 1915.17,-562 1915.17,-562 2096.83,-562 2096.83,-562 2100.67,-562 2104.5,-565.83 2104.5,-569.67 2104.5,-569.67 2104.5,-577.33 2104.5,-577.33 2104.5,-581.17 2100.67,-585 2096.83,-585"/>
<text text-anchor="middle" x="2006" y="-569.8" font-family="Arial" font-size="14.00" fill="#c6c5fe">store/DashboardProvider.tsx</text>
</g>
<!-- component/Dashboard/DashboardHeader.tsx&#45;&gt;store/DashboardProvider.tsx -->
<g id="edge7" class="edge">
<title>component/Dashboard/DashboardHeader.tsx&#45;&gt;store/DashboardProvider.tsx</title>
<path fill="none" stroke="#757575" d="M755.35,-671.57C771.76,-670.49 788.23,-669.44 804,-668.5 1022.1,-655.52 1576.54,-682.65 1786,-620.5 1803.76,-615.23 1804.5,-605.58 1822,-599.5 1845.39,-591.37 1871.31,-585.77 1896.11,-581.93"/>
<polygon fill="#757575" stroke="#757575" points="1896.53,-585.41 1905.92,-580.5 1895.52,-578.48 1896.53,-585.41"/>
</g>
<!-- store/WidgetProvider.tsx -->
<g id="node17" class="node">
<title>store/WidgetProvider.tsx</title>
<path fill="none" stroke="#c6c5fe" d="M1624.33,-264C1624.33,-264 1466.67,-264 1466.67,-264 1462.83,-264 1459,-260.17 1459,-256.33 1459,-256.33 1459,-248.67 1459,-248.67 1459,-244.83 1462.83,-241 1466.67,-241 1466.67,-241 1624.33,-241 1624.33,-241 1628.17,-241 1632,-244.83 1632,-248.67 1632,-248.67 1632,-256.33 1632,-256.33 1632,-260.17 1628.17,-264 1624.33,-264"/>
<text text-anchor="middle" x="1545.5" y="-248.8" font-family="Arial" font-size="14.00" fill="#c6c5fe">store/WidgetProvider.tsx</text>
</g>
<!-- component/Dashboard/DashboardHeader.tsx&#45;&gt;store/WidgetProvider.tsx -->
<g id="edge8" class="edge">
<title>component/Dashboard/DashboardHeader.tsx&#45;&gt;store/WidgetProvider.tsx</title>
<path fill="none" stroke="#757575" d="M609.93,-670.75C629.55,-629.68 701.05,-491.5 804,-425.5 911.33,-356.69 1278.18,-293.24 1451.88,-266.23"/>
<polygon fill="#757575" stroke="#757575" points="1452.2,-269.72 1461.54,-264.73 1451.13,-262.8 1452.2,-269.72"/>
</g>
<!-- types/widget.d.ts -->
<g id="node18" class="node">
<title>types/widget.d.ts</title>
<path fill="none" stroke="#cfffac" d="M2888.83,-625C2888.83,-625 2781.17,-625 2781.17,-625 2777.33,-625 2773.5,-621.17 2773.5,-617.33 2773.5,-617.33 2773.5,-609.67 2773.5,-609.67 2773.5,-605.83 2777.33,-602 2781.17,-602 2781.17,-602 2888.83,-602 2888.83,-602 2892.67,-602 2896.5,-605.83 2896.5,-609.67 2896.5,-609.67 2896.5,-617.33 2896.5,-617.33 2896.5,-621.17 2892.67,-625 2888.83,-625"/>
<text text-anchor="middle" x="2835" y="-609.8" font-family="Arial" font-size="14.00" fill="#cfffac">types/widget.d.ts</text>
</g>
<!-- component/Dashboard/DashboardHeader.tsx&#45;&gt;types/widget.d.ts -->
<g id="edge9" class="edge">
<title>component/Dashboard/DashboardHeader.tsx&#45;&gt;types/widget.d.ts</title>
<path fill="none" stroke="#757575" d="M755.26,-679.5C889.95,-676.78 1092.64,-672.57 1269,-668.5 1498.79,-663.19 1565.54,-720.53 1786,-655.5 1803.98,-650.19 1804,-638.76 1822,-633.5 1998.23,-582.03 2560.94,-601.26 2761.85,-610.06"/>
<polygon fill="#757575" stroke="#757575" points="2761.48,-613.55 2771.63,-610.5 2761.79,-606.56 2761.48,-613.55"/>
</g>
<!-- component/Dashboard/DashboardHeader/PlayIcon.tsx&#45;&gt;asset/image/pause.png -->
<g id="edge19" class="edge">
<title>component/Dashboard/DashboardHeader/PlayIcon.tsx&#45;&gt;asset/image/pause.png</title>
<path fill="none" stroke="#757575" d="M1185.85,-905.5C1271.88,-912.45 1377.55,-921 1451.83,-927.01"/>
<polygon fill="#757575" stroke="#757575" points="1451.26,-930.47 1461.51,-927.79 1451.82,-923.49 1451.26,-930.47"/>
</g>
<!-- component/Dashboard/DashboardHeader/PlayIcon.tsx&#45;&gt;asset/image/play.png -->
<g id="edge20" class="edge">
<title>component/Dashboard/DashboardHeader/PlayIcon.tsx&#45;&gt;asset/image/play.png</title>
<path fill="none" stroke="#757575" d="M1217.68,-893.5C1299.6,-893.5 1392.71,-893.5 1458.53,-893.5"/>
<polygon fill="#757575" stroke="#757575" points="1458.16,-897 1468.16,-893.5 1458.16,-890 1458.16,-897"/>
</g>
<!-- component/Dashboard/DashboardHeader/SelectRealTimeRangeArea.tsx&#45;&gt;component/Dashboard/CommonStyle.ts -->
<g id="edge22" class="edge">
<title>component/Dashboard/DashboardHeader/SelectRealTimeRangeArea.tsx&#45;&gt;component/Dashboard/CommonStyle.ts</title>
<path fill="none" stroke="#757575" d="M1786.48,-731.58C1907.53,-736.6 2056.6,-743.45 2190,-751.5 2511.28,-770.88 2887.55,-801.2 3089.39,-818.09"/>
<polygon fill="#757575" stroke="#757575" points="3088.88,-821.56 3099.14,-818.9 3089.46,-814.58 3088.88,-821.56"/>
</g>
<!-- component/Dashboard/DashboardHeader/SelectRealTimeRangeArea.tsx&#45;&gt;store/DashboardProvider.tsx -->
<g id="edge27" class="edge">
<title>component/Dashboard/DashboardHeader/SelectRealTimeRangeArea.tsx&#45;&gt;store/DashboardProvider.tsx</title>
<path fill="none" stroke="#757575" d="M1616.05,-710.54C1665.07,-700.55 1731.43,-683.79 1786,-658.5 1803.67,-650.31 1804.56,-642.18 1822,-633.5 1861.2,-613.99 1908.18,-598.74 1944.72,-588.5"/>
<polygon fill="#757575" stroke="#757575" points="1945.53,-591.9 1954.25,-585.88 1943.68,-585.15 1945.53,-591.9"/>
</g>
<!-- hook/useBoolean.tsx -->
<g id="node24" class="node">
<title>hook/useBoolean.tsx</title>
<path fill="none" stroke="#cfffac" d="M2072.83,-544C2072.83,-544 1939.17,-544 1939.17,-544 1935.33,-544 1931.5,-540.17 1931.5,-536.33 1931.5,-536.33 1931.5,-528.67 1931.5,-528.67 1931.5,-524.83 1935.33,-521 1939.17,-521 1939.17,-521 2072.83,-521 2072.83,-521 2076.67,-521 2080.5,-524.83 2080.5,-528.67 2080.5,-528.67 2080.5,-536.33 2080.5,-536.33 2080.5,-540.17 2076.67,-544 2072.83,-544"/>
<text text-anchor="middle" x="2006" y="-528.8" font-family="Arial" font-size="14.00" fill="#cfffac">hook/useBoolean.tsx</text>
</g>
<!-- component/Dashboard/DashboardHeader/SelectRealTimeRangeArea.tsx&#45;&gt;hook/useBoolean.tsx -->
<g id="edge25" class="edge">
<title>component/Dashboard/DashboardHeader/SelectRealTimeRangeArea.tsx&#45;&gt;hook/useBoolean.tsx</title>
<path fill="none" stroke="#757575" d="M1560.57,-710.69C1599.3,-678.92 1711.94,-591.48 1822,-553.5 1852.96,-542.82 1888.44,-537.32 1919.87,-534.57"/>
<polygon fill="#757575" stroke="#757575" points="1920.04,-538.07 1929.74,-533.8 1919.5,-531.09 1920.04,-538.07"/>
</g>
<!-- hook/useOutsideClick.tsx -->
<g id="node25" class="node">
<title>hook/useOutsideClick.tsx</title>
<path fill="none" stroke="#cfffac" d="M2086.33,-783C2086.33,-783 1925.67,-783 1925.67,-783 1921.83,-783 1918,-779.17 1918,-775.33 1918,-775.33 1918,-767.67 1918,-767.67 1918,-763.83 1921.83,-760 1925.67,-760 1925.67,-760 2086.33,-760 2086.33,-760 2090.17,-760 2094,-763.83 2094,-767.67 2094,-767.67 2094,-775.33 2094,-775.33 2094,-779.17 2090.17,-783 2086.33,-783"/>
<text text-anchor="middle" x="2006" y="-767.8" font-family="Arial" font-size="14.00" fill="#cfffac">hook/useOutsideClick.tsx</text>
</g>
<!-- component/Dashboard/DashboardHeader/SelectRealTimeRangeArea.tsx&#45;&gt;hook/useOutsideClick.tsx -->
<g id="edge26" class="edge">
<title>component/Dashboard/DashboardHeader/SelectRealTimeRangeArea.tsx&#45;&gt;hook/useOutsideClick.tsx</title>
<path fill="none" stroke="#757575" d="M1658.66,-734.49C1734.41,-742.58 1833.47,-753.17 1906.23,-760.94"/>
<polygon fill="#757575" stroke="#757575" points="1905.86,-764.42 1916.17,-762.01 1906.6,-757.46 1905.86,-764.42"/>
</g>
<!-- component/Dashboard/DashboardHeader/RealTime.tsx -->
<g id="node26" class="node">
<title>component/Dashboard/DashboardHeader/RealTime.tsx</title>
<path fill="none" stroke="#cfffac" d="M2182.33,-665C2182.33,-665 1829.67,-665 1829.67,-665 1825.83,-665 1822,-661.17 1822,-657.33 1822,-657.33 1822,-649.67 1822,-649.67 1822,-645.83 1825.83,-642 1829.67,-642 1829.67,-642 2182.33,-642 2182.33,-642 2186.17,-642 2190,-645.83 2190,-649.67 2190,-649.67 2190,-657.33 2190,-657.33 2190,-661.17 2186.17,-665 2182.33,-665"/>
<text text-anchor="middle" x="2006" y="-649.8" font-family="Arial" font-size="14.00" fill="#cfffac">component/Dashboard/DashboardHeader/RealTime.tsx</text>
</g>
<!-- component/Dashboard/DashboardHeader/SelectRealTimeRangeArea.tsx&#45;&gt;component/Dashboard/DashboardHeader/RealTime.tsx -->
<g id="edge23" class="edge">
<title>component/Dashboard/DashboardHeader/SelectRealTimeRangeArea.tsx&#45;&gt;component/Dashboard/DashboardHeader/RealTime.tsx</title>
<path fill="none" stroke="#757575" d="M1720.49,-710.52C1742.76,-706.97 1765.07,-702.4 1786,-696.5 1803.03,-691.7 1805.05,-684.58 1822,-679.5 1838.14,-674.66 1855.35,-670.72 1872.53,-667.5"/>
<polygon fill="#757575" stroke="#757575" points="1873.07,-670.96 1882.3,-665.75 1871.84,-664.07 1873.07,-670.96"/>
</g>
<!-- component/Dashboard/DashboardHeader/SelectRealTimeListItem.tsx -->
<g id="node27" class="node">
<title>component/Dashboard/DashboardHeader/SelectRealTimeListItem.tsx</title>
<path fill="none" stroke="#c6c5fe" d="M3057.33,-703C3057.33,-703 2612.67,-703 2612.67,-703 2608.83,-703 2605,-699.17 2605,-695.33 2605,-695.33 2605,-687.67 2605,-687.67 2605,-683.83 2608.83,-680 2612.67,-680 2612.67,-680 3057.33,-680 3057.33,-680 3061.17,-680 3065,-683.83 3065,-687.67 3065,-687.67 3065,-695.33 3065,-695.33 3065,-699.17 3061.17,-703 3057.33,-703"/>
<text text-anchor="middle" x="2835" y="-687.8" font-family="Arial" font-size="14.00" fill="#c6c5fe">component/Dashboard/DashboardHeader/SelectRealTimeListItem.tsx</text>
</g>
<!-- component/Dashboard/DashboardHeader/SelectRealTimeRangeArea.tsx&#45;&gt;component/Dashboard/DashboardHeader/SelectRealTimeListItem.tsx -->
<g id="edge24" class="edge">
<title>component/Dashboard/DashboardHeader/SelectRealTimeRangeArea.tsx&#45;&gt;component/Dashboard/DashboardHeader/SelectRealTimeListItem.tsx</title>
<path fill="none" stroke="#757575" d="M1786.4,-716.72C2016.71,-711.18 2362.71,-702.85 2593.29,-697.3"/>
<polygon fill="#757575" stroke="#757575" points="2593.1,-700.8 2603.01,-697.06 2592.93,-693.8 2593.1,-700.8"/>
</g>
<!-- component/Dashboard/DashboardHeader/CurrentTime.tsx -->
<g id="node19" class="node">
<title>component/Dashboard/DashboardHeader/CurrentTime.tsx</title>
<path fill="none" stroke="#c6c5fe" d="M1730.83,-864C1730.83,-864 1360.17,-864 1360.17,-864 1356.33,-864 1352.5,-860.17 1352.5,-856.33 1352.5,-856.33 1352.5,-848.67 1352.5,-848.67 1352.5,-844.83 1356.33,-841 1360.17,-841 1360.17,-841 1730.83,-841 1730.83,-841 1734.67,-841 1738.5,-844.83 1738.5,-848.67 1738.5,-848.67 1738.5,-856.33 1738.5,-856.33 1738.5,-860.17 1734.67,-864 1730.83,-864"/>
<text text-anchor="middle" x="1545.5" y="-848.8" font-family="Arial" font-size="14.00" fill="#c6c5fe">component/Dashboard/DashboardHeader/CurrentTime.tsx</text>
</g>
<!-- component/Dashboard/DashboardHeader/TimeBlock.tsx&#45;&gt;component/Dashboard/DashboardHeader/CurrentTime.tsx -->
<g id="edge28" class="edge">
<title>component/Dashboard/DashboardHeader/TimeBlock.tsx&#45;&gt;component/Dashboard/DashboardHeader/CurrentTime.tsx</title>
<path fill="none" stroke="#757575" d="M1185.85,-823.5C1248.43,-828.56 1321.4,-834.46 1385.12,-839.61"/>
<polygon fill="#757575" stroke="#757575" points="1384.74,-843.09 1394.99,-840.41 1385.3,-836.11 1384.74,-843.09"/>
</g>
<!-- component/Dashboard/DashboardHeader/DatePickerArea.tsx -->
<g id="node22" class="node">
<title>component/Dashboard/DashboardHeader/DatePickerArea.tsx</title>
<path fill="none" stroke="#c6c5fe" d="M1741.33,-823C1741.33,-823 1349.67,-823 1349.67,-823 1345.83,-823 1342,-819.17 1342,-815.33 1342,-815.33 1342,-807.67 1342,-807.67 1342,-803.83 1345.83,-800 1349.67,-800 1349.67,-800 1741.33,-800 1741.33,-800 1745.17,-800 1749,-803.83 1749,-807.67 1749,-807.67 1749,-815.33 1749,-815.33 1749,-819.17 1745.17,-823 1741.33,-823"/>
<text text-anchor="middle" x="1545.5" y="-807.8" font-family="Arial" font-size="14.00" fill="#c6c5fe">component/Dashboard/DashboardHeader/DatePickerArea.tsx</text>
</g>
<!-- component/Dashboard/DashboardHeader/TimeBlock.tsx&#45;&gt;component/Dashboard/DashboardHeader/DatePickerArea.tsx -->
<g id="edge29" class="edge">
<title>component/Dashboard/DashboardHeader/TimeBlock.tsx&#45;&gt;component/Dashboard/DashboardHeader/DatePickerArea.tsx</title>
<path fill="none" stroke="#757575" d="M1223.77,-811.5C1258.43,-811.5 1294.91,-811.5 1330.33,-811.5"/>
<polygon fill="#757575" stroke="#757575" points="1330.28,-815 1340.28,-811.5 1330.28,-808 1330.28,-815"/>
</g>
<!-- store/DashboardProvider.tsx&#45;&gt;common/date.ts -->
<g id="edge74" class="edge">
<title>store/DashboardProvider.tsx&#45;&gt;common/date.ts</title>
<path fill="none" stroke="#757575" d="M2104.78,-563.21C2173.84,-555.94 2264.73,-546.37 2326.58,-539.86"/>
<polygon fill="#757575" stroke="#757575" points="2326.69,-543.37 2336.27,-538.84 2325.96,-536.41 2326.69,-543.37"/>
</g>
<!-- store/WidgetProvider.tsx&#45;&gt;types/widget.d.ts -->
<g id="edge76" class="edge">
<title>store/WidgetProvider.tsx&#45;&gt;types/widget.d.ts</title>
<path fill="none" stroke="#757575" d="M1632.29,-245.53C1847.77,-229.45 2406.09,-197.08 2569,-278.5 2707.94,-347.94 2796.93,-528.02 2824.69,-591.2"/>
<polygon fill="#757575" stroke="#757575" points="2821.39,-592.39 2828.56,-600.19 2827.82,-589.62 2821.39,-592.39"/>
</g>
<!-- store/WidgetProvider.tsx&#45;&gt;hook/useBoolean.tsx -->
<g id="edge75" class="edge">
<title>store/WidgetProvider.tsx&#45;&gt;hook/useBoolean.tsx</title>
<path fill="none" stroke="#757575" d="M1586.42,-264.43C1635.46,-280.01 1720.22,-310.03 1786,-349.5 1867.42,-398.35 1949.66,-476.61 1985.87,-512.88"/>
<polygon fill="#757575" stroke="#757575" points="1983.08,-515.03 1992.6,-519.68 1988.05,-510.11 1983.08,-515.03"/>
</g>
<!-- hook/useCurrentTime.tsx -->
<g id="node20" class="node">
<title>hook/useCurrentTime.tsx</title>
<path fill="none" stroke="#cfffac" d="M2085.83,-1022C2085.83,-1022 1926.17,-1022 1926.17,-1022 1922.33,-1022 1918.5,-1018.17 1918.5,-1014.33 1918.5,-1014.33 1918.5,-1006.67 1918.5,-1006.67 1918.5,-1002.83 1922.33,-999 1926.17,-999 1926.17,-999 2085.83,-999 2085.83,-999 2089.67,-999 2093.5,-1002.83 2093.5,-1006.67 2093.5,-1006.67 2093.5,-1014.33 2093.5,-1014.33 2093.5,-1018.17 2089.67,-1022 2085.83,-1022"/>
<text text-anchor="middle" x="2006" y="-1006.8" font-family="Arial" font-size="14.00" fill="#cfffac">hook/useCurrentTime.tsx</text>
</g>
<!-- component/Dashboard/DashboardHeader/CurrentTime.tsx&#45;&gt;hook/useCurrentTime.tsx -->
<g id="edge10" class="edge">
<title>component/Dashboard/DashboardHeader/CurrentTime.tsx&#45;&gt;hook/useCurrentTime.tsx</title>
<path fill="none" stroke="#757575" d="M1608.39,-840.52C1661.24,-833.99 1736.36,-833.99 1786,-873.5 1826.58,-905.8 1782.3,-951.12 1822,-984.5 1845.41,-1004.19 1876.76,-1012.82 1906.89,-1015.9"/>
<polygon fill="#757575" stroke="#757575" points="1906.6,-1019.38 1916.85,-1016.69 1907.16,-1012.41 1906.6,-1019.38"/>
</g>
<!-- component/Dashboard/DashboardHeader/DateBox.tsx -->
<g id="node21" class="node">
<title>component/Dashboard/DashboardHeader/DateBox.tsx</title>
<path fill="none" stroke="#cfffac" d="M2179.33,-901C2179.33,-901 1832.67,-901 1832.67,-901 1828.83,-901 1825,-897.17 1825,-893.33 1825,-893.33 1825,-885.67 1825,-885.67 1825,-881.83 1828.83,-878 1832.67,-878 1832.67,-878 2179.33,-878 2179.33,-878 2183.17,-878 2187,-881.83 2187,-885.67 2187,-885.67 2187,-893.33 2187,-893.33 2187,-897.17 2183.17,-901 2179.33,-901"/>
<text text-anchor="middle" x="2006" y="-885.8" font-family="Arial" font-size="14.00" fill="#cfffac">component/Dashboard/DashboardHeader/DateBox.tsx</text>
</g>
<!-- component/Dashboard/DashboardHeader/DatePickerArea.tsx&#45;&gt;common/date.ts -->
<g id="edge11" class="edge">
<title>component/Dashboard/DashboardHeader/DatePickerArea.tsx&#45;&gt;common/date.ts</title>
<path fill="none" stroke="#757575" d="M1749.31,-817.67C1925,-821.05 2156.22,-819.99 2190,-792.5 2243.51,-748.95 2186.02,-697.73 2226,-641.5 2257.82,-596.74 2314.34,-566.01 2353.54,-548.85"/>
<polygon fill="#757575" stroke="#757575" points="2354.87,-552.09 2362.71,-544.97 2352.14,-545.65 2354.87,-552.09"/>
</g>
<!-- component/Dashboard/DashboardHeader/DatePickerArea.tsx&#45;&gt;component/Dashboard/CommonStyle.ts -->
<g id="edge12" class="edge">
<title>component/Dashboard/DashboardHeader/DatePickerArea.tsx&#45;&gt;component/Dashboard/CommonStyle.ts</title>
<path fill="none" stroke="#757575" d="M1606.76,-799.51C1659.82,-792.6 1736.19,-792.04 1786,-832.5 1828.89,-867.34 1777.63,-918.57 1822,-951.5 1877.45,-992.66 2999.22,-972.52 3065,-951.5 3127.55,-931.51 3186.74,-879.17 3215.98,-850.31"/>
<polygon fill="#757575" stroke="#757575" points="3218.43,-852.81 3223,-843.25 3213.47,-847.88 3218.43,-852.81"/>
</g>
<!-- component/Dashboard/DashboardHeader/DatePickerArea.tsx&#45;&gt;store/DashboardProvider.tsx -->
<g id="edge17" class="edge">
<title>component/Dashboard/DashboardHeader/DatePickerArea.tsx&#45;&gt;store/DashboardProvider.tsx</title>
<path fill="none" stroke="#757575" d="M1671.75,-799.53C1712.56,-789.95 1755.23,-773.08 1786,-743.5 1823.09,-707.85 1785.64,-669.88 1822,-633.5 1844.21,-611.28 1874.77,-597.29 1904.55,-588.48"/>
<polygon fill="#757575" stroke="#757575" points="1905.31,-591.9 1914.02,-585.86 1903.45,-585.15 1905.31,-591.9"/>
</g>
<!-- component/Dashboard/DashboardHeader/DatePickerArea.tsx&#45;&gt;types/widget.d.ts -->
<g id="edge18" class="edge">
<title>component/Dashboard/DashboardHeader/DatePickerArea.tsx&#45;&gt;types/widget.d.ts</title>
<path fill="none" stroke="#757575" d="M1749.23,-818.06C1773.74,-818.65 1798.44,-819.16 1822,-819.5 1985.54,-821.87 2035.3,-872.58 2190,-819.5 2209.17,-812.92 2208.06,-800.93 2226,-791.5 2382.41,-709.31 2435.07,-719.88 2605,-671.5 2661.3,-655.47 2726.01,-639.29 2772.24,-628.1"/>
<polygon fill="#757575" stroke="#757575" points="2772.92,-631.54 2781.82,-625.8 2771.28,-624.74 2772.92,-631.54"/>
</g>
<!-- component/Dashboard/DashboardHeader/DatePickerArea.tsx&#45;&gt;component/Dashboard/DashboardHeader/DateBox.tsx -->
<g id="edge13" class="edge">
<title>component/Dashboard/DashboardHeader/DatePickerArea.tsx&#45;&gt;component/Dashboard/DashboardHeader/DateBox.tsx</title>
<path fill="none" stroke="#757575" d="M1749.31,-820.16C1761.94,-823.49 1774.27,-827.55 1786,-832.5 1805.45,-840.71 1802.77,-854.77 1822,-863.5 1831.54,-867.83 1841.63,-871.48 1851.96,-874.55"/>
<polygon fill="#757575" stroke="#757575" points="1850.78,-877.85 1861.35,-877.14 1852.65,-871.11 1850.78,-877.85"/>
</g>
<!-- component/common/DatePicker.tsx -->
<g id="node23" class="node">
<title>component/common/DatePicker.tsx</title>
<path fill="none" stroke="#c6c5fe" d="M2119.33,-942C2119.33,-942 1892.67,-942 1892.67,-942 1888.83,-942 1885,-938.17 1885,-934.33 1885,-934.33 1885,-926.67 1885,-926.67 1885,-922.83 1888.83,-919 1892.67,-919 1892.67,-919 2119.33,-919 2119.33,-919 2123.17,-919 2127,-922.83 2127,-926.67 2127,-926.67 2127,-934.33 2127,-934.33 2127,-938.17 2123.17,-942 2119.33,-942"/>
<text text-anchor="middle" x="2006" y="-926.8" font-family="Arial" font-size="14.00" fill="#c6c5fe">component/common/DatePicker.tsx</text>
</g>
<!-- component/Dashboard/DashboardHeader/DatePickerArea.tsx&#45;&gt;component/common/DatePicker.tsx -->
<g id="edge14" class="edge">
<title>component/Dashboard/DashboardHeader/DatePickerArea.tsx&#45;&gt;component/common/DatePicker.tsx</title>
<path fill="none" stroke="#757575" d="M1624.15,-799.51C1674.64,-795.94 1739.48,-799.78 1786,-832.5 1817.23,-854.46 1791.01,-888.2 1822,-910.5 1837.22,-921.45 1855.07,-928.43 1873.55,-932.69"/>
<polygon fill="#757575" stroke="#757575" points="1872.83,-936.11 1883.32,-934.64 1874.2,-929.25 1872.83,-936.11"/>
</g>
<!-- component/Dashboard/DashboardHeader/DatePickerArea.tsx&#45;&gt;hook/useBoolean.tsx -->
<g id="edge15" class="edge">
<title>component/Dashboard/DashboardHeader/DatePickerArea.tsx&#45;&gt;hook/useBoolean.tsx</title>
<path fill="none" stroke="#757575" d="M1683.02,-799.51C1721.11,-789.7 1759.31,-772.69 1786,-743.5 1844,-680.07 1759.05,-612.02 1822,-553.5 1847.78,-529.54 1885.22,-522.3 1919.52,-521.83"/>
<polygon fill="#757575" stroke="#757575" points="1919.48,-525.33 1929.5,-521.91 1919.53,-518.33 1919.48,-525.33"/>
</g>
<!-- component/Dashboard/DashboardHeader/DatePickerArea.tsx&#45;&gt;hook/useOutsideClick.tsx -->
<g id="edge16" class="edge">
<title>component/Dashboard/DashboardHeader/DatePickerArea.tsx&#45;&gt;hook/useOutsideClick.tsx</title>
<path fill="none" stroke="#757575" d="M1683.75,-799.53C1755.31,-793.28 1841.2,-785.79 1906.16,-780.12"/>
<polygon fill="#757575" stroke="#757575" points="1906.46,-783.61 1916.12,-779.25 1905.85,-776.64 1906.46,-783.61"/>
</g>
<!-- component/common/DatePicker/DatePickerTitle.tsx -->
<g id="node43" class="node">
<title>component/common/DatePicker/DatePickerTitle.tsx</title>
<path fill="none" stroke="#c6c5fe" d="M2561.33,-823C2561.33,-823 2233.67,-823 2233.67,-823 2229.83,-823 2226,-819.17 2226,-815.33 2226,-815.33 2226,-807.67 2226,-807.67 2226,-803.83 2229.83,-800 2233.67,-800 2233.67,-800 2561.33,-800 2561.33,-800 2565.17,-800 2569,-803.83 2569,-807.67 2569,-807.67 2569,-815.33 2569,-815.33 2569,-819.17 2565.17,-823 2561.33,-823"/>
<text text-anchor="middle" x="2397.5" y="-807.8" font-family="Arial" font-size="14.00" fill="#c6c5fe">component/common/DatePicker/DatePickerTitle.tsx</text>
</g>
<!-- component/common/DatePicker.tsx&#45;&gt;component/common/DatePicker/DatePickerTitle.tsx -->
<g id="edge61" class="edge">
<title>component/common/DatePicker.tsx&#45;&gt;component/common/DatePicker/DatePickerTitle.tsx</title>
<path fill="none" stroke="#757575" d="M2127.17,-928.58C2148.76,-925.13 2170.56,-919.48 2190,-910.5 2209.98,-901.27 2207.36,-888.2 2226,-876.5 2261.47,-854.24 2305.77,-837.63 2340.33,-826.78"/>
<polygon fill="#757575" stroke="#757575" points="2341.19,-830.18 2349.73,-823.9 2339.14,-823.48 2341.19,-830.18"/>
</g>
<!-- component/common/DatePicker/ListPicker.tsx -->
<g id="node44" class="node">
<title>component/common/DatePicker/ListPicker.tsx</title>
<path fill="none" stroke="#c6c5fe" d="M2543.83,-942C2543.83,-942 2251.17,-942 2251.17,-942 2247.33,-942 2243.5,-938.17 2243.5,-934.33 2243.5,-934.33 2243.5,-926.67 2243.5,-926.67 2243.5,-922.83 2247.33,-919 2251.17,-919 2251.17,-919 2543.83,-919 2543.83,-919 2547.67,-919 2551.5,-922.83 2551.5,-926.67 2551.5,-926.67 2551.5,-934.33 2551.5,-934.33 2551.5,-938.17 2547.67,-942 2543.83,-942"/>
<text text-anchor="middle" x="2397.5" y="-926.8" font-family="Arial" font-size="14.00" fill="#c6c5fe">component/common/DatePicker/ListPicker.tsx</text>
</g>
<!-- component/common/DatePicker.tsx&#45;&gt;component/common/DatePicker/ListPicker.tsx -->
<g id="edge62" class="edge">
<title>component/common/DatePicker.tsx&#45;&gt;component/common/DatePicker/ListPicker.tsx</title>
<path fill="none" stroke="#757575" d="M2127.31,-930.5C2160.38,-930.5 2196.82,-930.5 2231.92,-930.5"/>
<polygon fill="#757575" stroke="#757575" points="2231.75,-934 2241.75,-930.5 2231.75,-927 2231.75,-934"/>
</g>
<!-- types/datePicker.d.ts -->
<g id="node45" class="node">
<title>types/datePicker.d.ts</title>
<path fill="none" stroke="#cfffac" d="M2901.83,-901C2901.83,-901 2768.17,-901 2768.17,-901 2764.33,-901 2760.5,-897.17 2760.5,-893.33 2760.5,-893.33 2760.5,-885.67 2760.5,-885.67 2760.5,-881.83 2764.33,-878 2768.17,-878 2768.17,-878 2901.83,-878 2901.83,-878 2905.67,-878 2909.5,-881.83 2909.5,-885.67 2909.5,-885.67 2909.5,-893.33 2909.5,-893.33 2909.5,-897.17 2905.67,-901 2901.83,-901"/>
<text text-anchor="middle" x="2835" y="-885.8" font-family="Arial" font-size="14.00" fill="#cfffac">types/datePicker.d.ts</text>
</g>
<!-- component/common/DatePicker.tsx&#45;&gt;types/datePicker.d.ts -->
<g id="edge63" class="edge">
<title>component/common/DatePicker.tsx&#45;&gt;types/datePicker.d.ts</title>
<path fill="none" stroke="#757575" d="M2124.82,-918.51C2157.56,-915.51 2193.14,-912.57 2226,-910.5 2412.43,-898.78 2631.46,-893.23 2749.06,-890.92"/>
<polygon fill="#757575" stroke="#757575" points="2749.02,-894.42 2758.95,-890.73 2748.89,-887.42 2749.02,-894.42"/>
</g>
<!-- component/Dashboard/DashboardHeader/SelectRealTimeListItem.tsx&#45;&gt;component/Dashboard/CommonStyle.ts -->
<g id="edge21" class="edge">
<title>component/Dashboard/DashboardHeader/SelectRealTimeListItem.tsx&#45;&gt;component/Dashboard/CommonStyle.ts</title>
<path fill="none" stroke="#757575" d="M3015.13,-703.49C3032.24,-707.12 3049.12,-711.71 3065,-717.5 3124.14,-739.08 3183.05,-785.11 3213.58,-811.28"/>
<polygon fill="#757575" stroke="#757575" points="3211.14,-813.79 3220.97,-817.72 3215.73,-808.51 3211.14,-813.79"/>
</g>
<!-- component/Widget.tsx -->
<g id="node28" class="node">
<title>component/Widget.tsx</title>
<path fill="none" stroke="#c6c5fe" d="M675.33,-342C675.33,-342 531.67,-342 531.67,-342 527.83,-342 524,-338.17 524,-334.33 524,-334.33 524,-326.67 524,-326.67 524,-322.83 527.83,-319 531.67,-319 531.67,-319 675.33,-319 675.33,-319 679.17,-319 683,-322.83 683,-326.67 683,-326.67 683,-334.33 683,-334.33 683,-338.17 679.17,-342 675.33,-342"/>
<text text-anchor="middle" x="603.5" y="-326.8" font-family="Arial" font-size="14.00" fill="#c6c5fe">component/Widget.tsx</text>
</g>
<!-- component/Widget.tsx&#45;&gt;common/api.ts -->
<g id="edge30" class="edge">
<title>component/Widget.tsx&#45;&gt;common/api.ts</title>
<path fill="none" stroke="#757575" d="M618.43,-318.53C648.91,-291.74 722.44,-223.87 768,-154.5 789.85,-121.23 771.64,-95.68 804,-72.5 851.61,-38.39 919.68,-36.54 969.69,-41.33"/>
<polygon fill="#757575" stroke="#757575" points="969.21,-44.79 979.52,-42.39 969.96,-37.83 969.21,-44.79"/>
</g>
<!-- component/Widget.tsx&#45;&gt;common/date.ts -->
<g id="edge31" class="edge">
<title>component/Widget.tsx&#45;&gt;common/date.ts</title>
<path fill="none" stroke="#757575" d="M683.24,-324.36C873.9,-311.1 1374.96,-285.84 1786,-349.5 2007.41,-383.79 2260.5,-478.32 2356.64,-516.35"/>
<polygon fill="#757575" stroke="#757575" points="2355.32,-519.59 2365.91,-520.03 2357.91,-513.08 2355.32,-519.59"/>
</g>
<!-- component/Widget.tsx&#45;&gt;common/widget.ts -->
<g id="edge32" class="edge">
<title>component/Widget.tsx&#45;&gt;common/widget.ts</title>
<path fill="none" stroke="#757575" d="M683.11,-336.65C719.82,-339.36 764.13,-342.4 804,-344.5 1046.16,-357.24 1333.2,-365.32 1467.72,-368.69"/>
<polygon fill="#757575" stroke="#757575" points="1467.49,-372.18 1477.58,-368.93 1467.67,-365.19 1467.49,-372.18"/>
</g>
<!-- component/Widget.tsx&#45;&gt;store/DashboardProvider.tsx -->
<g id="edge37" class="edge">
<title>component/Widget.tsx&#45;&gt;store/DashboardProvider.tsx</title>
<path fill="none" stroke="#757575" d="M612.79,-342.07C637.42,-375.36 714.01,-471.4 804,-509.5 998.91,-592.03 1638.33,-583.98 1895.97,-577.06"/>
<polygon fill="#757575" stroke="#757575" points="1895.8,-580.57 1905.7,-576.79 1895.6,-573.57 1895.8,-580.57"/>
</g>
<!-- component/Widget.tsx&#45;&gt;types/widget.d.ts -->
<g id="edge38" class="edge">
<title>component/Widget.tsx&#45;&gt;types/widget.d.ts</title>
<path fill="none" stroke="#757575" d="M683.45,-319.14C720.04,-314.36 764.15,-309.27 804,-306.5 1132.38,-283.7 1215.33,-292.5 1544.5,-292.5 1544.5,-292.5 1544.5,-292.5 2007,-292.5 2343.88,-292.5 2708.84,-526.85 2807.95,-595.08"/>
<polygon fill="#757575" stroke="#757575" points="2805.75,-597.81 2815.96,-600.64 2809.74,-592.06 2805.75,-597.81"/>
</g>
<!-- component/Widget.tsx&#45;&gt;hook/useBoolean.tsx -->
<g id="edge36" class="edge">
<title>component/Widget.tsx&#45;&gt;hook/useBoolean.tsx</title>
<path fill="none" stroke="#757575" d="M616.69,-342.45C645.98,-370.28 723.87,-439.14 804,-466.5 1010.71,-537.09 1681.59,-536.38 1919.98,-533.77"/>
<polygon fill="#757575" stroke="#757575" points="1919.87,-537.27 1929.83,-533.65 1919.79,-530.27 1919.87,-537.27"/>
</g>
<!-- component/Widget/WidgetButtons.tsx -->
<g id="node29" class="node">
<title>component/Widget/WidgetButtons.tsx</title>
<path fill="none" stroke="#c6c5fe" d="M1157.33,-264C1157.33,-264 915.67,-264 915.67,-264 911.83,-264 908,-260.17 908,-256.33 908,-256.33 908,-248.67 908,-248.67 908,-244.83 911.83,-241 915.67,-241 915.67,-241 1157.33,-241 1157.33,-241 1161.17,-241 1165,-244.83 1165,-248.67 1165,-248.67 1165,-256.33 1165,-256.33 1165,-260.17 1161.17,-264 1157.33,-264"/>
<text text-anchor="middle" x="1036.5" y="-248.8" font-family="Arial" font-size="14.00" fill="#c6c5fe">component/Widget/WidgetButtons.tsx</text>
</g>
<!-- component/Widget.tsx&#45;&gt;component/Widget/WidgetButtons.tsx -->
<g id="edge33" class="edge">
<title>component/Widget.tsx&#45;&gt;component/Widget/WidgetButtons.tsx</title>
<path fill="none" stroke="#757575" d="M643.49,-318.56C683.44,-306.76 747.52,-288.98 804,-278.5 833.75,-272.98 865.88,-268.47 896.46,-264.84"/>
<polygon fill="#757575" stroke="#757575" points="896.62,-268.35 906.15,-263.72 895.81,-261.4 896.62,-268.35"/>
</g>
<!-- component/Widget/WidgetCallCycleSettingModal.tsx -->
<g id="node30" class="node">
<title>component/Widget/WidgetCallCycleSettingModal.tsx</title>
<path fill="none" stroke="#c6c5fe" d="M1204.33,-458C1204.33,-458 868.67,-458 868.67,-458 864.83,-458 861,-454.17 861,-450.33 861,-450.33 861,-442.67 861,-442.67 861,-438.83 864.83,-435 868.67,-435 868.67,-435 1204.33,-435 1204.33,-435 1208.17,-435 1212,-438.83 1212,-442.67 1212,-442.67 1212,-450.33 1212,-450.33 1212,-454.17 1208.17,-458 1204.33,-458"/>
<text text-anchor="middle" x="1036.5" y="-442.8" font-family="Arial" font-size="14.00" fill="#c6c5fe">component/Widget/WidgetCallCycleSettingModal.tsx</text>
</g>
<!-- component/Widget.tsx&#45;&gt;component/Widget/WidgetCallCycleSettingModal.tsx -->
<g id="edge34" class="edge">
<title>component/Widget.tsx&#45;&gt;component/Widget/WidgetCallCycleSettingModal.tsx</title>
<path fill="none" stroke="#757575" d="M649,-342.48C728.23,-363.8 893.51,-408.28 980.01,-431.57"/>
<polygon fill="#757575" stroke="#757575" points="978.89,-434.89 989.46,-434.11 980.71,-428.13 978.89,-434.89"/>
</g>
<!-- component/Widget/WidgetChart.tsx -->
<g id="node31" class="node">
<title>component/Widget/WidgetChart.tsx</title>
<path fill="none" stroke="#c6c5fe" d="M1149.83,-105C1149.83,-105 923.17,-105 923.17,-105 919.33,-105 915.5,-101.17 915.5,-97.33 915.5,-97.33 915.5,-89.67 915.5,-89.67 915.5,-85.83 919.33,-82 923.17,-82 923.17,-82 1149.83,-82 1149.83,-82 1153.67,-82 1157.5,-85.83 1157.5,-89.67 1157.5,-89.67 1157.5,-97.33 1157.5,-97.33 1157.5,-101.17 1153.67,-105 1149.83,-105"/>
<text text-anchor="middle" x="1036.5" y="-89.8" font-family="Arial" font-size="14.00" fill="#c6c5fe">component/Widget/WidgetChart.tsx</text>
</g>
<!-- component/Widget.tsx&#45;&gt;component/Widget/WidgetChart.tsx -->
<g id="edge35" class="edge">
<title>component/Widget.tsx&#45;&gt;component/Widget/WidgetChart.tsx</title>
<path fill="none" stroke="#757575" d="M615.72,-318.66C642.38,-290.46 711.53,-217.02 768,-154.5 784.25,-136.5 782.36,-124.44 804,-113.5 834.32,-98.17 869.75,-90.76 903.64,-87.72"/>
<polygon fill="#757575" stroke="#757575" points="903.86,-91.21 913.56,-86.97 903.32,-84.23 903.86,-91.21"/>
</g>
<!-- component/Widget/WidgetButtons.tsx&#45;&gt;store/WidgetProvider.tsx -->
<g id="edge39" class="edge">
<title>component/Widget/WidgetButtons.tsx&#45;&gt;store/WidgetProvider.tsx</title>
<path fill="none" stroke="#757575" d="M1165.44,-252.5C1253.13,-252.5 1367.64,-252.5 1447.76,-252.5"/>
<polygon fill="#757575" stroke="#757575" points="1447.32,-256 1457.32,-252.5 1447.32,-249 1447.32,-256"/>
</g>
<!-- component/Widget/WidgetCallCycleSettingModal.tsx&#45;&gt;common/date.ts -->
<g id="edge40" class="edge">
<title>component/Widget/WidgetCallCycleSettingModal.tsx&#45;&gt;common/date.ts</title>
<path fill="none" stroke="#757575" d="M1147.36,-458.5C1195.67,-463.43 1253.1,-468.84 1305,-472.5 1697.74,-500.22 1797.32,-482.9 2190,-511.5 2235.57,-514.82 2286.65,-520 2326.61,-524.39"/>
<polygon fill="#757575" stroke="#757575" points="2326,-527.84 2336.33,-525.46 2326.77,-520.88 2326,-527.84"/>
</g>
<!-- component/Widget/WidgetCallCycleSettingModal.tsx&#45;&gt;common/widget.ts -->
<g id="edge41" class="edge">
<title>component/Widget/WidgetCallCycleSettingModal.tsx&#45;&gt;common/widget.ts</title>
<path fill="none" stroke="#757575" d="M1212.27,-437.99C1231.85,-433.79 1251.14,-428.12 1269,-420.5 1288.16,-412.33 1285.73,-398.4 1305,-390.5 1356.47,-369.4 1419.28,-364.85 1467.66,-365.34"/>
<polygon fill="#757575" stroke="#757575" points="1467.43,-368.84 1477.5,-365.52 1467.56,-361.84 1467.43,-368.84"/>
</g>
<!-- component/Widget/WidgetCallCycleSettingModal/CycleInput.tsx -->
<g id="node32" class="node">
<title>component/Widget/WidgetCallCycleSettingModal/CycleInput.tsx</title>
<path fill="none" stroke="#cfffac" d="M1748.83,-464C1748.83,-464 1342.17,-464 1342.17,-464 1338.33,-464 1334.5,-460.17 1334.5,-456.33 1334.5,-456.33 1334.5,-448.67 1334.5,-448.67 1334.5,-444.83 1338.33,-441 1342.17,-441 1342.17,-441 1748.83,-441 1748.83,-441 1752.67,-441 1756.5,-444.83 1756.5,-448.67 1756.5,-448.67 1756.5,-456.33 1756.5,-456.33 1756.5,-460.17 1752.67,-464 1748.83,-464"/>
<text text-anchor="middle" x="1545.5" y="-448.8" font-family="Arial" font-size="14.00" fill="#cfffac">component/Widget/WidgetCallCycleSettingModal/CycleInput.tsx</text>
</g>
<!-- component/Widget/WidgetCallCycleSettingModal.tsx&#45;&gt;component/Widget/WidgetCallCycleSettingModal/CycleInput.tsx -->
<g id="edge42" class="edge">
<title>component/Widget/WidgetCallCycleSettingModal.tsx&#45;&gt;component/Widget/WidgetCallCycleSettingModal/CycleInput.tsx</title>
<path fill="none" stroke="#757575" d="M1212.34,-448.57C1247.89,-448.99 1285.73,-449.44 1322.66,-449.87"/>
<polygon fill="#757575" stroke="#757575" points="1322.53,-453.37 1332.57,-449.99 1322.61,-446.37 1322.53,-453.37"/>
</g>
<!-- component/Widget/WidgetCallCycleSettingModal/LastCallTimeBox.tsx -->
<g id="node33" class="node">
<title>component/Widget/WidgetCallCycleSettingModal/LastCallTimeBox.tsx</title>
<path fill="none" stroke="#cfffac" d="M1769.33,-423C1769.33,-423 1321.67,-423 1321.67,-423 1317.83,-423 1314,-419.17 1314,-415.33 1314,-415.33 1314,-407.67 1314,-407.67 1314,-403.83 1317.83,-400 1321.67,-400 1321.67,-400 1769.33,-400 1769.33,-400 1773.17,-400 1777,-403.83 1777,-407.67 1777,-407.67 1777,-415.33 1777,-415.33 1777,-419.17 1773.17,-423 1769.33,-423"/>
<text text-anchor="middle" x="1545.5" y="-407.8" font-family="Arial" font-size="14.00" fill="#cfffac">component/Widget/WidgetCallCycleSettingModal/LastCallTimeBox.tsx</text>
</g>
<!-- component/Widget/WidgetCallCycleSettingModal.tsx&#45;&gt;component/Widget/WidgetCallCycleSettingModal/LastCallTimeBox.tsx -->
<g id="edge43" class="edge">
<title>component/Widget/WidgetCallCycleSettingModal.tsx&#45;&gt;component/Widget/WidgetCallCycleSettingModal/LastCallTimeBox.tsx</title>
<path fill="none" stroke="#757575" d="M1211.27,-434.5C1259.14,-431.2 1311.23,-427.6 1359.7,-424.26"/>
<polygon fill="#757575" stroke="#757575" points="1359.71,-427.77 1369.45,-423.58 1359.23,-420.78 1359.71,-427.77"/>
</g>
<!-- component/chart/BarChart.tsx -->
<g id="node34" class="node">
<title>component/chart/BarChart.tsx</title>
<path fill="none" stroke="#c6c5fe" d="M1639.33,-165C1639.33,-165 1451.67,-165 1451.67,-165 1447.83,-165 1444,-161.17 1444,-157.33 1444,-157.33 1444,-149.67 1444,-149.67 1444,-145.83 1447.83,-142 1451.67,-142 1451.67,-142 1639.33,-142 1639.33,-142 1643.17,-142 1647,-145.83 1647,-149.67 1647,-149.67 1647,-157.33 1647,-157.33 1647,-161.17 1643.17,-165 1639.33,-165"/>
<text text-anchor="middle" x="1545.5" y="-149.8" font-family="Arial" font-size="14.00" fill="#c6c5fe">component/chart/BarChart.tsx</text>
</g>
<!-- component/Widget/WidgetChart.tsx&#45;&gt;component/chart/BarChart.tsx -->
<g id="edge44" class="edge">
<title>component/Widget/WidgetChart.tsx&#45;&gt;component/chart/BarChart.tsx</title>
<path fill="none" stroke="#757575" d="M1157.85,-94.79C1194.13,-97.6 1233.68,-103.12 1269,-113.5 1286.36,-118.6 1287.65,-127.39 1305,-132.5 1345.53,-144.44 1391.46,-150.22 1432.18,-152.85"/>
<polygon fill="#757575" stroke="#757575" points="1431.82,-156.33 1442,-153.42 1432.22,-149.35 1431.82,-156.33"/>
</g>
<!-- component/chart/InformaticsChart.tsx -->
<g id="node35" class="node">
<title>component/chart/InformaticsChart.tsx</title>
<path fill="none" stroke="#c6c5fe" d="M1663.83,-83C1663.83,-83 1427.17,-83 1427.17,-83 1423.33,-83 1419.5,-79.17 1419.5,-75.33 1419.5,-75.33 1419.5,-67.67 1419.5,-67.67 1419.5,-63.83 1423.33,-60 1427.17,-60 1427.17,-60 1663.83,-60 1663.83,-60 1667.67,-60 1671.5,-63.83 1671.5,-67.67 1671.5,-67.67 1671.5,-75.33 1671.5,-75.33 1671.5,-79.17 1667.67,-83 1663.83,-83"/>
<text text-anchor="middle" x="1545.5" y="-67.8" font-family="Arial" font-size="14.00" fill="#c6c5fe">component/chart/InformaticsChart.tsx</text>
</g>
<!-- component/Widget/WidgetChart.tsx&#45;&gt;component/chart/InformaticsChart.tsx -->
<g id="edge45" class="edge">
<title>component/Widget/WidgetChart.tsx&#45;&gt;component/chart/InformaticsChart.tsx</title>
<path fill="none" stroke="#757575" d="M1157.97,-88.27C1233.06,-85.01 1329.87,-80.81 1407.82,-77.43"/>
<polygon fill="#757575" stroke="#757575" points="1407.83,-80.93 1417.67,-77 1407.53,-73.94 1407.83,-80.93"/>
</g>
<!-- component/chart/LineChart.tsx -->
<g id="node36" class="node">
<title>component/chart/LineChart.tsx</title>
<path fill="none" stroke="#c6c5fe" d="M1642.33,-124C1642.33,-124 1448.67,-124 1448.67,-124 1444.83,-124 1441,-120.17 1441,-116.33 1441,-116.33 1441,-108.67 1441,-108.67 1441,-104.83 1444.83,-101 1448.67,-101 1448.67,-101 1642.33,-101 1642.33,-101 1646.17,-101 1650,-104.83 1650,-108.67 1650,-108.67 1650,-116.33 1650,-116.33 1650,-120.17 1646.17,-124 1642.33,-124"/>
<text text-anchor="middle" x="1545.5" y="-108.8" font-family="Arial" font-size="14.00" fill="#c6c5fe">component/chart/LineChart.tsx</text>
</g>
<!-- component/Widget/WidgetChart.tsx&#45;&gt;component/chart/LineChart.tsx -->
<g id="edge46" class="edge">
<title>component/Widget/WidgetChart.tsx&#45;&gt;component/chart/LineChart.tsx</title>
<path fill="none" stroke="#757575" d="M1157.97,-98.01C1240.21,-101.1 1348.5,-105.15 1429.53,-108.19"/>
<polygon fill="#757575" stroke="#757575" points="1429.14,-111.68 1439.27,-108.56 1429.4,-104.68 1429.14,-111.68"/>
</g>
<!-- component/chart/BarChart.tsx&#45;&gt;common/chart.ts -->
<g id="edge52" class="edge">
<title>component/chart/BarChart.tsx&#45;&gt;common/chart.ts</title>
<path fill="none" stroke="#757575" d="M1647.4,-153.5C1733.93,-153.5 1856.43,-153.5 1933.26,-153.5"/>
<polygon fill="#757575" stroke="#757575" points="1933.2,-157 1943.2,-153.5 1933.2,-150 1933.2,-157"/>
</g>
<!-- component/chart/ChartSvg.tsx -->
<g id="node40" class="node">
<title>component/chart/ChartSvg.tsx</title>
<path fill="none" stroke="#cfffac" d="M2101.33,-206C2101.33,-206 1910.67,-206 1910.67,-206 1906.83,-206 1903,-202.17 1903,-198.33 1903,-198.33 1903,-190.67 1903,-190.67 1903,-186.83 1906.83,-183 1910.67,-183 1910.67,-183 2101.33,-183 2101.33,-183 2105.17,-183 2109,-186.83 2109,-190.67 2109,-190.67 2109,-198.33 2109,-198.33 2109,-202.17 2105.17,-206 2101.33,-206"/>
<text text-anchor="middle" x="2006" y="-190.8" font-family="Arial" font-size="14.00" fill="#cfffac">component/chart/ChartSvg.tsx</text>
</g>
<!-- component/chart/BarChart.tsx&#45;&gt;component/chart/ChartSvg.tsx -->
<g id="edge53" class="edge">
<title>component/chart/BarChart.tsx&#45;&gt;component/chart/ChartSvg.tsx</title>
<path fill="none" stroke="#757575" d="M1647.4,-162.52C1719.51,-168.97 1816.6,-177.65 1891.42,-184.34"/>
<polygon fill="#757575" stroke="#757575" points="1890.98,-187.82 1901.25,-185.22 1891.6,-180.85 1890.98,-187.82"/>
</g>
<!-- hook/useResize.tsx -->
<g id="node41" class="node">
<title>hook/useResize.tsx</title>
<path fill="none" stroke="#cfffac" d="M2068.33,-124C2068.33,-124 1943.67,-124 1943.67,-124 1939.83,-124 1936,-120.17 1936,-116.33 1936,-116.33 1936,-108.67 1936,-108.67 1936,-104.83 1939.83,-101 1943.67,-101 1943.67,-101 2068.33,-101 2068.33,-101 2072.17,-101 2076,-104.83 2076,-108.67 2076,-108.67 2076,-116.33 2076,-116.33 2076,-120.17 2072.17,-124 2068.33,-124"/>
<text text-anchor="middle" x="2006" y="-108.8" font-family="Arial" font-size="14.00" fill="#cfffac">hook/useResize.tsx</text>
</g>
<!-- component/chart/BarChart.tsx&#45;&gt;hook/useResize.tsx -->
<g id="edge54" class="edge">
<title>component/chart/BarChart.tsx&#45;&gt;hook/useResize.tsx</title>
<path fill="none" stroke="#757575" d="M1647.31,-144.74C1690.08,-141.01 1740.48,-136.57 1786,-132.5 1831.88,-128.39 1883.16,-123.72 1924.56,-119.92"/>
<polygon fill="#757575" stroke="#757575" points="1924.82,-123.41 1934.45,-119.01 1924.18,-116.44 1924.82,-123.41"/>
</g>
<!-- component/chart/InformaticsChart.tsx&#45;&gt;types/chart.d.ts -->
<g id="edge56" class="edge">
<title>component/chart/InformaticsChart.tsx&#45;&gt;types/chart.d.ts</title>
<path fill="none" stroke="#757575" d="M1671.92,-71.65C1854.69,-71.86 2187.86,-72.25 2329.7,-72.42"/>
<polygon fill="#757575" stroke="#757575" points="2329.28,-75.92 2339.28,-72.43 2329.29,-68.92 2329.28,-75.92"/>
</g>
<!-- component/chart/InformaticsChart/InforMaticsBox.tsx -->
<g id="node42" class="node">
<title>component/chart/InformaticsChart/InforMaticsBox.tsx</title>
<path fill="none" stroke="#c6c5fe" d="M2173.33,-44C2173.33,-44 1838.67,-44 1838.67,-44 1834.83,-44 1831,-40.17 1831,-36.33 1831,-36.33 1831,-28.67 1831,-28.67 1831,-24.83 1834.83,-21 1838.67,-21 1838.67,-21 2173.33,-21 2173.33,-21 2177.17,-21 2181,-24.83 2181,-28.67 2181,-28.67 2181,-36.33 2181,-36.33 2181,-40.17 2177.17,-44 2173.33,-44"/>
<text text-anchor="middle" x="2006" y="-28.8" font-family="Arial" font-size="14.00" fill="#c6c5fe">component/chart/InformaticsChart/InforMaticsBox.tsx</text>
</g>
<!-- component/chart/InformaticsChart.tsx&#45;&gt;component/chart/InformaticsChart/InforMaticsBox.tsx -->
<g id="edge55" class="edge">
<title>component/chart/InformaticsChart.tsx&#45;&gt;component/chart/InformaticsChart/InforMaticsBox.tsx</title>
<path fill="none" stroke="#757575" d="M1671.79,-60.84C1727.71,-56.09 1794.1,-50.44 1852.85,-45.44"/>
<polygon fill="#757575" stroke="#757575" points="1852.93,-48.95 1862.6,-44.61 1852.34,-41.97 1852.93,-48.95"/>
</g>
<!-- component/chart/LineChart.tsx&#45;&gt;common/chart.ts -->
<g id="edge58" class="edge">
<title>component/chart/LineChart.tsx&#45;&gt;common/chart.ts</title>
<path fill="none" stroke="#757575" d="M1650.26,-120.89C1692.4,-124.36 1741.53,-128.51 1786,-132.5 1835.14,-136.91 1890.44,-142.21 1933.17,-146.39"/>
<polygon fill="#757575" stroke="#757575" points="1932.8,-149.87 1943.09,-147.36 1933.48,-142.9 1932.8,-149.87"/>
</g>
<!-- component/chart/LineChart.tsx&#45;&gt;component/chart/ChartSvg.tsx -->
<g id="edge59" class="edge">
<title>component/chart/LineChart.tsx&#45;&gt;component/chart/ChartSvg.tsx</title>
<path fill="none" stroke="#757575" d="M1650.46,-104.43C1694.35,-105.16 1744.73,-111.7 1786,-132.5 1807.66,-143.41 1800.52,-162.25 1822,-173.5 1843.16,-184.57 1867.54,-190.98 1891.47,-194.49"/>
<polygon fill="#757575" stroke="#757575" points="1890.93,-197.95 1901.29,-195.75 1891.82,-191 1890.93,-197.95"/>
</g>
<!-- component/chart/LineChart.tsx&#45;&gt;hook/useResize.tsx -->
<g id="edge60" class="edge">
<title>component/chart/LineChart.tsx&#45;&gt;hook/useResize.tsx</title>
<path fill="none" stroke="#757575" d="M1650.25,-112.5C1733.3,-112.5 1848.1,-112.5 1924.35,-112.5"/>
<polygon fill="#757575" stroke="#757575" points="1924.27,-116 1934.27,-112.5 1924.27,-109 1924.27,-116"/>
</g>
<!-- component/Widget/WidgetPropsSettingModal.tsx -->
<g id="node37" class="node">
<title>component/Widget/WidgetPropsSettingModal.tsx</title>
<path fill="none" stroke="#c6c5fe" d="M760.33,-146C760.33,-146 446.67,-146 446.67,-146 442.83,-146 439,-142.17 439,-138.33 439,-138.33 439,-130.67 439,-130.67 439,-126.83 442.83,-123 446.67,-123 446.67,-123 760.33,-123 760.33,-123 764.17,-123 768,-126.83 768,-130.67 768,-130.67 768,-138.33 768,-138.33 768,-142.17 764.17,-146 760.33,-146"/>
<text text-anchor="middle" x="603.5" y="-130.8" font-family="Arial" font-size="14.00" fill="#c6c5fe">component/Widget/WidgetPropsSettingModal.tsx</text>
</g>
<!-- component/Widget/WidgetPropsSettingModal.tsx&#45;&gt;common/api.ts -->
<g id="edge47" class="edge">
<title>component/Widget/WidgetPropsSettingModal.tsx&#45;&gt;common/api.ts</title>
<path fill="none" stroke="#757575" d="M635.41,-122.61C674.17,-108.23 742.96,-84.48 804,-72.5 859.29,-61.65 923.15,-56.69 969.78,-54.42"/>
<polygon fill="#757575" stroke="#757575" points="969.91,-57.91 979.74,-53.96 969.59,-50.92 969.91,-57.91"/>
</g>
<!-- component/Widget/WidgetPropsSettingModal.tsx&#45;&gt;store/WidgetProvider.tsx -->
<g id="edge50" class="edge">
<title>component/Widget/WidgetPropsSettingModal.tsx&#45;&gt;store/WidgetProvider.tsx</title>
<path fill="none" stroke="#757575" d="M722.9,-146.48C749.58,-149.15 777.76,-151.94 804,-154.5 1010.61,-174.63 1063.56,-168.72 1269,-198.5 1341.99,-209.08 1424.96,-226.02 1480.6,-238.11"/>
<polygon fill="#757575" stroke="#757575" points="1479.7,-241.49 1490.22,-240.21 1481.19,-234.65 1479.7,-241.49"/>
</g>
<!-- component/Widget/WidgetPropsSettingModal/WidgetPropsButtons.tsx -->
<g id="node38" class="node">
<title>component/Widget/WidgetPropsSettingModal/WidgetPropsButtons.tsx</title>
<path fill="none" stroke="#c6c5fe" d="M1261.33,-146C1261.33,-146 811.67,-146 811.67,-146 807.83,-146 804,-142.17 804,-138.33 804,-138.33 804,-130.67 804,-130.67 804,-126.83 807.83,-123 811.67,-123 811.67,-123 1261.33,-123 1261.33,-123 1265.17,-123 1269,-126.83 1269,-130.67 1269,-130.67 1269,-138.33 1269,-138.33 1269,-142.17 1265.17,-146 1261.33,-146"/>
<text text-anchor="middle" x="1036.5" y="-130.8" font-family="Arial" font-size="14.00" fill="#c6c5fe">component/Widget/WidgetPropsSettingModal/WidgetPropsButtons.tsx</text>
</g>
<!-- component/Widget/WidgetPropsSettingModal.tsx&#45;&gt;component/Widget/WidgetPropsSettingModal/WidgetPropsButtons.tsx -->
<g id="edge48" class="edge">
<title>component/Widget/WidgetPropsSettingModal.tsx&#45;&gt;component/Widget/WidgetPropsSettingModal/WidgetPropsButtons.tsx</title>
<path fill="none" stroke="#757575" d="M768.36,-134.5C776.29,-134.5 784.32,-134.5 792.4,-134.5"/>
<polygon fill="#757575" stroke="#757575" points="792.33,-138 802.33,-134.5 792.33,-131 792.33,-138"/>
</g>
<!-- component/Widget/WidgetPropsSettingModal/WidgetPropsList.tsx -->
<g id="node39" class="node">
<title>component/Widget/WidgetPropsSettingModal/WidgetPropsList.tsx</title>
<path fill="none" stroke="#cfffac" d="M1248.83,-23C1248.83,-23 824.17,-23 824.17,-23 820.33,-23 816.5,-19.17 816.5,-15.33 816.5,-15.33 816.5,-7.67 816.5,-7.67 816.5,-3.83 820.33,0 824.17,0 824.17,0 1248.83,0 1248.83,0 1252.67,0 1256.5,-3.83 1256.5,-7.67 1256.5,-7.67 1256.5,-15.33 1256.5,-15.33 1256.5,-19.17 1252.67,-23 1248.83,-23"/>
<text text-anchor="middle" x="1036.5" y="-7.8" font-family="Arial" font-size="14.00" fill="#cfffac">component/Widget/WidgetPropsSettingModal/WidgetPropsList.tsx</text>
</g>
<!-- component/Widget/WidgetPropsSettingModal.tsx&#45;&gt;component/Widget/WidgetPropsSettingModal/WidgetPropsList.tsx -->
<g id="edge49" class="edge">
<title>component/Widget/WidgetPropsSettingModal.tsx&#45;&gt;component/Widget/WidgetPropsSettingModal/WidgetPropsList.tsx</title>
<path fill="none" stroke="#757575" d="M621.67,-122.65C655.04,-100.32 731.73,-52.39 804,-31.5 811.08,-29.45 818.32,-27.6 825.68,-25.92"/>
<polygon fill="#757575" stroke="#757575" points="826.39,-29.34 835.43,-23.81 824.92,-22.5 826.39,-29.34"/>
</g>
<!-- component/Widget/WidgetPropsSettingModal/WidgetPropsButtons.tsx&#45;&gt;store/WidgetProvider.tsx -->
<g id="edge51" class="edge">
<title>component/Widget/WidgetPropsSettingModal/WidgetPropsButtons.tsx&#45;&gt;store/WidgetProvider.tsx</title>
<path fill="none" stroke="#757575" d="M1189.98,-146.47C1216.51,-150.02 1243.69,-154.6 1269,-160.5 1285.57,-164.36 1288.92,-167.95 1305,-173.5 1371.04,-196.31 1447.8,-221.38 1496.26,-237.03"/>
<polygon fill="#757575" stroke="#757575" points="1495.02,-240.3 1505.61,-240.04 1497.17,-233.64 1495.02,-240.3"/>
</g>
<!-- component/chart/InformaticsChart/InforMaticsBox.tsx&#45;&gt;types/chart.d.ts -->
<g id="edge57" class="edge">
<title>component/chart/InformaticsChart/InforMaticsBox.tsx&#45;&gt;types/chart.d.ts</title>
<path fill="none" stroke="#757575" d="M2123.6,-44.47C2190.8,-51.38 2272.89,-59.81 2329.38,-65.61"/>
<polygon fill="#757575" stroke="#757575" points="2328.86,-69.07 2339.17,-66.61 2329.58,-62.11 2328.86,-69.07"/>
</g>
<!-- component/common/DatePicker/DatePickerTitle.tsx&#45;&gt;types/widget.d.ts -->
<g id="edge64" class="edge">
<title>component/common/DatePicker/DatePickerTitle.tsx&#45;&gt;types/widget.d.ts</title>
<path fill="none" stroke="#757575" d="M2412,-799.83C2443.57,-773.13 2525.58,-707.15 2605,-671.5 2655.29,-648.92 2715.91,-634.07 2762.14,-625.04"/>
<polygon fill="#757575" stroke="#757575" points="2762.61,-628.52 2771.78,-623.21 2761.3,-621.64 2762.61,-628.52"/>
</g>
<!-- component/common/DatePicker/ListPicker.tsx&#45;&gt;types/datePicker.d.ts -->
<g id="edge66" class="edge">
<title>component/common/DatePicker/ListPicker.tsx&#45;&gt;types/datePicker.d.ts</title>
<path fill="none" stroke="#757575" d="M2521.06,-918.53C2548.67,-915.86 2577.84,-913.06 2605,-910.5 2652.62,-906.01 2705.81,-901.12 2748.94,-897.2"/>
<polygon fill="#757575" stroke="#757575" points="2749.1,-900.7 2758.74,-896.3 2748.47,-893.72 2749.1,-900.7"/>
</g>
<!-- component/common/DatePicker/ListPickerItem.tsx -->
<g id="node46" class="node">
<title>component/common/DatePicker/ListPickerItem.tsx</title>
<path fill="none" stroke="#c6c5fe" d="M2995.83,-942C2995.83,-942 2674.17,-942 2674.17,-942 2670.33,-942 2666.5,-938.17 2666.5,-934.33 2666.5,-934.33 2666.5,-926.67 2666.5,-926.67 2666.5,-922.83 2670.33,-919 2674.17,-919 2674.17,-919 2995.83,-919 2995.83,-919 2999.67,-919 3003.5,-922.83 3003.5,-926.67 3003.5,-926.67 3003.5,-934.33 3003.5,-934.33 3003.5,-938.17 2999.67,-942 2995.83,-942"/>
<text text-anchor="middle" x="2835" y="-926.8" font-family="Arial" font-size="14.00" fill="#c6c5fe">component/common/DatePicker/ListPickerItem.tsx</text>
</g>
<!-- component/common/DatePicker/ListPicker.tsx&#45;&gt;component/common/DatePicker/ListPickerItem.tsx -->
<g id="edge65" class="edge">
<title>component/common/DatePicker/ListPicker.tsx&#45;&gt;component/common/DatePicker/ListPickerItem.tsx</title>
<path fill="none" stroke="#757575" d="M2551.73,-930.5C2585.12,-930.5 2620.72,-930.5 2655,-930.5"/>
<polygon fill="#757575" stroke="#757575" points="2654.57,-934 2664.57,-930.5 2654.57,-927 2654.57,-934"/>
</g>
<!-- component/common/DatePicker/ListPickerItem.tsx&#45;&gt;component/Dashboard/CommonStyle.ts -->
<g id="edge67" class="edge">
<title>component/common/DatePicker/ListPickerItem.tsx&#45;&gt;component/Dashboard/CommonStyle.ts</title>
<path fill="none" stroke="#757575" d="M3003.86,-922.72C3024.64,-919.74 3045.45,-915.77 3065,-910.5 3117.15,-896.43 3172.96,-867.1 3205.87,-848.13"/>
<polygon fill="#757575" stroke="#757575" points="3207.55,-851.2 3214.42,-843.13 3204.02,-845.16 3207.55,-851.2"/>
</g>
<!-- page/Dashboard.tsx&#45;&gt;component/Dashboard/DashboardHeader.tsx -->
<g id="edge68" class="edge">
<title>page/Dashboard.tsx&#45;&gt;component/Dashboard/DashboardHeader.tsx</title>
<path fill="none" stroke="#757575" d="M332.93,-342.28C336.96,-385.54 356.65,-537.41 439,-620.5 461.84,-643.54 494.1,-658.15 523.95,-667.35"/>
<polygon fill="#757575" stroke="#757575" points="522.77,-670.66 533.35,-670.08 524.72,-663.94 522.77,-670.66"/>
</g>
<!-- page/Dashboard.tsx&#45;&gt;store/DashboardProvider.tsx -->
<g id="edge71" class="edge">
<title>page/Dashboard.tsx&#45;&gt;store/DashboardProvider.tsx</title>
<path fill="none" stroke="#757575" d="M350.35,-342.39C411.61,-381.35 615.79,-505.58 804,-555.5 1015.08,-611.49 1567.83,-601.95 1786,-592.5 1821.78,-590.95 1860.76,-587.98 1895.78,-584.85"/>
<polygon fill="#757575" stroke="#757575" points="1895.85,-588.36 1905.49,-583.96 1895.22,-581.38 1895.85,-588.36"/>
</g>
<!-- page/Dashboard.tsx&#45;&gt;store/WidgetProvider.tsx -->
<g id="edge72" class="edge">
<title>page/Dashboard.tsx&#45;&gt;store/WidgetProvider.tsx</title>
<path fill="none" stroke="#757575" d="M374.17,-318.58C456.13,-296.1 643.06,-248.2 804,-231.5 1009.56,-210.17 1062.48,-223.64 1269,-231.5 1328.28,-233.76 1394.58,-238.73 1447.29,-243.28"/>
<polygon fill="#757575" stroke="#757575" points="1446.89,-246.75 1457.15,-244.14 1447.5,-239.78 1446.89,-246.75"/>
</g>
<!-- page/Dashboard.tsx&#45;&gt;component/Widget.tsx -->
<g id="edge69" class="edge">
<title>page/Dashboard.tsx&#45;&gt;component/Widget.tsx</title>
<path fill="none" stroke="#757575" d="M403.42,-330.5C436.76,-330.5 476.8,-330.5 512.21,-330.5"/>
<polygon fill="#757575" stroke="#757575" points="512.01,-334 522.01,-330.5 512.01,-327 512.01,-334"/>
</g>
<!-- page/Dashboard.tsx&#45;&gt;component/Widget/WidgetPropsSettingModal.tsx -->
<g id="edge70" class="edge">
<title>page/Dashboard.tsx&#45;&gt;component/Widget/WidgetPropsSettingModal.tsx</title>
<path fill="none" stroke="#757575" d="M338.73,-318.55C353.63,-293.09 391.85,-232.98 439,-198.5 469.95,-175.87 509.96,-160.03 542.65,-149.77"/>
<polygon fill="#757575" stroke="#757575" points="543.43,-153.19 551.98,-146.94 541.4,-146.49 543.43,-153.19"/>
</g>
</g>
</svg>
