<?xml version="1.0" encoding="UTF-8" standalone="no"?>
<!DOCTYPE svg PUBLIC "-//W3C//DTD SVG 1.1//EN"
 "http://www.w3.org/Graphics/SVG/1.1/DTD/svg11.dtd">
<!-- Generated by graphviz version 7.1.0 (20230121.1956)
 -->
<!-- Title: G Pages: 1 -->
<svg width="3414pt" height="1126pt"
 viewBox="0.00 0.00 3414.20 1125.69" xmlns="http://www.w3.org/2000/svg" xmlns:xlink="http://www.w3.org/1999/xlink">
<g id="graph0" class="graph" transform="scale(1 1) rotate(0) translate(21.6 1104.09)">
<title>G</title>
<polygon fill="#111111" stroke="none" points="-21.6,21.6 -21.6,-1104.09 3392.6,-1104.09 3392.6,21.6 -21.6,21.6"/>
<!-- App.tsx -->
<g id="node1" class="node">
<title>App.tsx</title>
<path fill="none" stroke="#c6c5fe" d="M57.33,-433.82C57.33,-433.82 7.67,-433.82 7.67,-433.82 3.83,-433.82 0,-429.99 0,-426.16 0,-426.16 0,-418.49 0,-418.49 0,-414.66 3.83,-410.82 7.67,-410.82 7.67,-410.82 57.33,-410.82 57.33,-410.82 61.17,-410.82 65,-414.66 65,-418.49 65,-418.49 65,-426.16 65,-426.16 65,-429.99 61.17,-433.82 57.33,-433.82"/>
<text text-anchor="middle" x="32.5" y="-418.62" font-family="Arial" font-size="14.00" fill="#c6c5fe">App.tsx</text>
</g>
<!-- router/Router.tsx -->
<g id="node2" class="node">
<title>router/Router.tsx</title>
<path fill="none" stroke="#c6c5fe" d="M215.33,-433.82C215.33,-433.82 108.67,-433.82 108.67,-433.82 104.83,-433.82 101,-429.99 101,-426.16 101,-426.16 101,-418.49 101,-418.49 101,-414.66 104.83,-410.82 108.67,-410.82 108.67,-410.82 215.33,-410.82 215.33,-410.82 219.17,-410.82 223,-414.66 223,-418.49 223,-418.49 223,-426.16 223,-426.16 223,-429.99 219.17,-433.82 215.33,-433.82"/>
<text text-anchor="middle" x="162" y="-418.62" font-family="Arial" font-size="14.00" fill="#c6c5fe">router/Router.tsx</text>
</g>
<!-- App.tsx&#45;&gt;router/Router.tsx -->
<g id="edge1" class="edge">
<title>App.tsx&#45;&gt;router/Router.tsx</title>
<path fill="none" stroke="#757575" d="M65.34,-422.32C72.7,-422.32 80.81,-422.32 89.12,-422.32"/>
<polygon fill="#757575" stroke="#757575" points="88.99,-425.82 98.99,-422.32 88.99,-418.82 88.99,-425.82"/>
</g>
<!-- page/Dashboard.tsx -->
<g id="node47" class="node">
<title>page/Dashboard.tsx</title>
<path fill="none" stroke="#c6c5fe" d="M395.33,-433.82C395.33,-433.82 266.67,-433.82 266.67,-433.82 262.83,-433.82 259,-429.99 259,-426.16 259,-426.16 259,-418.49 259,-418.49 259,-414.66 262.83,-410.82 266.67,-410.82 266.67,-410.82 395.33,-410.82 395.33,-410.82 399.17,-410.82 403,-414.66 403,-418.49 403,-418.49 403,-426.16 403,-426.16 403,-429.99 399.17,-433.82 395.33,-433.82"/>
<text text-anchor="middle" x="331" y="-418.62" font-family="Arial" font-size="14.00" fill="#c6c5fe">page/Dashboard.tsx</text>
</g>
<!-- router/Router.tsx&#45;&gt;page/Dashboard.tsx -->
<g id="edge74" class="edge">
<title>router/Router.tsx&#45;&gt;page/Dashboard.tsx</title>
<path fill="none" stroke="#757575" d="M223.29,-422.32C231.1,-422.32 239.21,-422.32 247.3,-422.32"/>
<polygon fill="#757575" stroke="#757575" points="247.19,-425.82 257.19,-422.32 247.19,-418.82 247.19,-425.82"/>
</g>
<!-- asset/image/pause.png -->
<g id="node3" class="node">
<title>asset/image/pause.png</title>
<path fill="none" stroke="#cfffac" d="M1619.83,-785.82C1619.83,-785.82 1471.17,-785.82 1471.17,-785.82 1467.33,-785.82 1463.5,-781.99 1463.5,-778.16 1463.5,-778.16 1463.5,-770.49 1463.5,-770.49 1463.5,-766.66 1467.33,-762.82 1471.17,-762.82 1471.17,-762.82 1619.83,-762.82 1619.83,-762.82 1623.67,-762.82 1627.5,-766.66 1627.5,-770.49 1627.5,-770.49 1627.5,-778.16 1627.5,-778.16 1627.5,-781.99 1623.67,-785.82 1619.83,-785.82"/>
<text text-anchor="middle" x="1545.5" y="-770.62" font-family="Arial" font-size="14.00" fill="#cfffac">asset/image/pause.png</text>
</g>
<!-- asset/image/play.png -->
<g id="node4" class="node">
<title>asset/image/play.png</title>
<path fill="none" stroke="#cfffac" d="M1613.33,-744.82C1613.33,-744.82 1477.67,-744.82 1477.67,-744.82 1473.83,-744.82 1470,-740.99 1470,-737.16 1470,-737.16 1470,-729.49 1470,-729.49 1470,-725.66 1473.83,-721.82 1477.67,-721.82 1477.67,-721.82 1613.33,-721.82 1613.33,-721.82 1617.17,-721.82 1621,-725.66 1621,-729.49 1621,-729.49 1621,-737.16 1621,-737.16 1621,-740.99 1617.17,-744.82 1613.33,-744.82"/>
<text text-anchor="middle" x="1545.5" y="-729.62" font-family="Arial" font-size="14.00" fill="#cfffac">asset/image/play.png</text>
</g>
<!-- common/api.ts -->
<g id="node5" class="node">
<title>common/api.ts</title>
<path fill="none" stroke="#c6c5fe" d="M1083.83,-115.82C1083.83,-115.82 989.17,-115.82 989.17,-115.82 985.33,-115.82 981.5,-111.99 981.5,-108.16 981.5,-108.16 981.5,-100.49 981.5,-100.49 981.5,-96.66 985.33,-92.82 989.17,-92.82 989.17,-92.82 1083.83,-92.82 1083.83,-92.82 1087.67,-92.82 1091.5,-96.66 1091.5,-100.49 1091.5,-100.49 1091.5,-108.16 1091.5,-108.16 1091.5,-111.99 1087.67,-115.82 1083.83,-115.82"/>
<text text-anchor="middle" x="1036.5" y="-100.62" font-family="Arial" font-size="14.00" fill="#c6c5fe">common/api.ts</text>
</g>
<!-- types/api.d.ts -->
<g id="node6" class="node">
<title>types/api.d.ts</title>
<path fill="none" stroke="#cfffac" d="M1588.33,-74.82C1588.33,-74.82 1502.67,-74.82 1502.67,-74.82 1498.83,-74.82 1495,-70.99 1495,-67.16 1495,-67.16 1495,-59.49 1495,-59.49 1495,-55.66 1498.83,-51.82 1502.67,-51.82 1502.67,-51.82 1588.33,-51.82 1588.33,-51.82 1592.17,-51.82 1596,-55.66 1596,-59.49 1596,-59.49 1596,-67.16 1596,-67.16 1596,-70.99 1592.17,-74.82 1588.33,-74.82"/>
<text text-anchor="middle" x="1545.5" y="-59.62" font-family="Arial" font-size="14.00" fill="#cfffac">types/api.d.ts</text>
</g>
<!-- common/api.ts&#45;&gt;types/api.d.ts -->
<g id="edge2" class="edge">
<title>common/api.ts&#45;&gt;types/api.d.ts</title>
<path fill="none" stroke="#757575" d="M1091.76,-99.94C1186.98,-92.24 1383.51,-76.34 1483.37,-68.27"/>
<polygon fill="#757575" stroke="#757575" points="1483.57,-71.76 1493.26,-67.47 1483.01,-64.79 1483.57,-71.76"/>
</g>
<!-- common/chart.ts -->
<g id="node7" class="node">
<title>common/chart.ts</title>
<path fill="none" stroke="#c6c5fe" d="M2059.33,-156.82C2059.33,-156.82 1952.67,-156.82 1952.67,-156.82 1948.83,-156.82 1945,-152.99 1945,-149.16 1945,-149.16 1945,-141.49 1945,-141.49 1945,-137.66 1948.83,-133.82 1952.67,-133.82 1952.67,-133.82 2059.33,-133.82 2059.33,-133.82 2063.17,-133.82 2067,-137.66 2067,-141.49 2067,-141.49 2067,-149.16 2067,-149.16 2067,-152.99 2063.17,-156.82 2059.33,-156.82"/>
<text text-anchor="middle" x="2006" y="-141.62" font-family="Arial" font-size="14.00" fill="#c6c5fe">common/chart.ts</text>
</g>
<!-- types/chart.d.ts -->
<g id="node8" class="node">
<title>types/chart.d.ts</title>
<path fill="none" stroke="#cfffac" d="M2446.33,-176.82C2446.33,-176.82 2348.67,-176.82 2348.67,-176.82 2344.83,-176.82 2341,-172.99 2341,-169.16 2341,-169.16 2341,-161.49 2341,-161.49 2341,-157.66 2344.83,-153.82 2348.67,-153.82 2348.67,-153.82 2446.33,-153.82 2446.33,-153.82 2450.17,-153.82 2454,-157.66 2454,-161.49 2454,-161.49 2454,-169.16 2454,-169.16 2454,-172.99 2450.17,-176.82 2446.33,-176.82"/>
<text text-anchor="middle" x="2397.5" y="-161.62" font-family="Arial" font-size="14.00" fill="#cfffac">types/chart.d.ts</text>
</g>
<!-- common/chart.ts&#45;&gt;types/chart.d.ts -->
<g id="edge3" class="edge">
<title>common/chart.ts&#45;&gt;types/chart.d.ts</title>
<path fill="none" stroke="#757575" d="M2067.43,-148.43C2138.32,-152.07 2255.5,-158.08 2329.22,-161.87"/>
<polygon fill="#757575" stroke="#757575" points="2328.99,-165.36 2339.15,-162.38 2329.35,-158.37 2328.99,-165.36"/>
</g>
<!-- common/date.ts -->
<g id="node9" class="node">
<title>common/date.ts</title>
<path fill="none" stroke="#cfffac" d="M2449.33,-571.82C2449.33,-571.82 2345.67,-571.82 2345.67,-571.82 2341.83,-571.82 2338,-567.99 2338,-564.16 2338,-564.16 2338,-556.49 2338,-556.49 2338,-552.66 2341.83,-548.82 2345.67,-548.82 2345.67,-548.82 2449.33,-548.82 2449.33,-548.82 2453.17,-548.82 2457,-552.66 2457,-556.49 2457,-556.49 2457,-564.16 2457,-564.16 2457,-567.99 2453.17,-571.82 2449.33,-571.82"/>
<text text-anchor="middle" x="2397.5" y="-556.62" font-family="Arial" font-size="14.00" fill="#cfffac">common/date.ts</text>
</g>
<!-- common/widget.ts -->
<g id="node10" class="node">
<title>common/widget.ts</title>
<path fill="none" stroke="#cfffac" d="M1603.83,-474.82C1603.83,-474.82 1487.17,-474.82 1487.17,-474.82 1483.33,-474.82 1479.5,-470.99 1479.5,-467.16 1479.5,-467.16 1479.5,-459.49 1479.5,-459.49 1479.5,-455.66 1483.33,-451.82 1487.17,-451.82 1487.17,-451.82 1603.83,-451.82 1603.83,-451.82 1607.67,-451.82 1611.5,-455.66 1611.5,-459.49 1611.5,-459.49 1611.5,-467.16 1611.5,-467.16 1611.5,-470.99 1607.67,-474.82 1603.83,-474.82"/>
<text text-anchor="middle" x="1545.5" y="-459.62" font-family="Arial" font-size="14.00" fill="#cfffac">common/widget.ts</text>
</g>
<!-- component/Dashboard/CommonStyle.ts -->
<g id="node11" class="node">
<title>component/Dashboard/CommonStyle.ts</title>
<path fill="none" stroke="#cfffac" d="M3363.33,-945.82C3363.33,-945.82 3108.67,-945.82 3108.67,-945.82 3104.83,-945.82 3101,-941.99 3101,-938.16 3101,-938.16 3101,-930.49 3101,-930.49 3101,-926.66 3104.83,-922.82 3108.67,-922.82 3108.67,-922.82 3363.33,-922.82 3363.33,-922.82 3367.17,-922.82 3371,-926.66 3371,-930.49 3371,-930.49 3371,-938.16 3371,-938.16 3371,-941.99 3367.17,-945.82 3363.33,-945.82"/>
<text text-anchor="middle" x="3236" y="-930.62" font-family="Arial" font-size="14.00" fill="#cfffac">component/Dashboard/CommonStyle.ts</text>
</g>
<!-- component/Dashboard/DashboardHeader.tsx -->
<g id="node12" class="node">
<title>component/Dashboard/DashboardHeader.tsx</title>
<path fill="none" stroke="#c6c5fe" d="M747.33,-704.82C747.33,-704.82 459.67,-704.82 459.67,-704.82 455.83,-704.82 452,-700.99 452,-697.16 452,-697.16 452,-689.49 452,-689.49 452,-685.66 455.83,-681.82 459.67,-681.82 459.67,-681.82 747.33,-681.82 747.33,-681.82 751.17,-681.82 755,-685.66 755,-689.49 755,-689.49 755,-697.16 755,-697.16 755,-700.99 751.17,-704.82 747.33,-704.82"/>
<text text-anchor="middle" x="603.5" y="-689.62" font-family="Arial" font-size="14.00" fill="#c6c5fe">component/Dashboard/DashboardHeader.tsx</text>
</g>
<!-- component/Dashboard/DashboardHeader/PlayIcon.tsx -->
<g id="node13" class="node">
<title>component/Dashboard/DashboardHeader/PlayIcon.tsx</title>
<path fill="none" stroke="#c6c5fe" d="M1209.83,-744.82C1209.83,-744.82 863.17,-744.82 863.17,-744.82 859.33,-744.82 855.5,-740.99 855.5,-737.16 855.5,-737.16 855.5,-729.49 855.5,-729.49 855.5,-725.66 859.33,-721.82 863.17,-721.82 863.17,-721.82 1209.83,-721.82 1209.83,-721.82 1213.67,-721.82 1217.5,-725.66 1217.5,-729.49 1217.5,-729.49 1217.5,-737.16 1217.5,-737.16 1217.5,-740.99 1213.67,-744.82 1209.83,-744.82"/>
<text text-anchor="middle" x="1036.5" y="-729.62" font-family="Arial" font-size="14.00" fill="#c6c5fe">component/Dashboard/DashboardHeader/PlayIcon.tsx</text>
</g>
<!-- component/Dashboard/DashboardHeader.tsx&#45;&gt;component/Dashboard/DashboardHeader/PlayIcon.tsx -->
<g id="edge4" class="edge">
<title>component/Dashboard/DashboardHeader.tsx&#45;&gt;component/Dashboard/DashboardHeader/PlayIcon.tsx</title>
<path fill="none" stroke="#757575" d="M733.52,-705.3C784.47,-710.03 843.15,-715.47 895.15,-720.3"/>
<polygon fill="#757575" stroke="#757575" points="894.69,-723.77 904.98,-721.21 895.34,-716.8 894.69,-723.77"/>
</g>
<!-- component/Dashboard/DashboardHeader/SelectRealTimeRangeArea.tsx -->
<g id="node14" class="node">
<title>component/Dashboard/DashboardHeader/SelectRealTimeRangeArea.tsx</title>
<path fill="none" stroke="#c6c5fe" d="M1778.33,-908.82C1778.33,-908.82 1312.67,-908.82 1312.67,-908.82 1308.83,-908.82 1305,-904.99 1305,-901.16 1305,-901.16 1305,-893.49 1305,-893.49 1305,-889.66 1308.83,-885.82 1312.67,-885.82 1312.67,-885.82 1778.33,-885.82 1778.33,-885.82 1782.17,-885.82 1786,-889.66 1786,-893.49 1786,-893.49 1786,-901.16 1786,-901.16 1786,-904.99 1782.17,-908.82 1778.33,-908.82"/>
<text text-anchor="middle" x="1545.5" y="-893.62" font-family="Arial" font-size="14.00" fill="#c6c5fe">component/Dashboard/DashboardHeader/SelectRealTimeRangeArea.tsx</text>
</g>
<!-- component/Dashboard/DashboardHeader.tsx&#45;&gt;component/Dashboard/DashboardHeader/SelectRealTimeRangeArea.tsx -->
<g id="edge5" class="edge">
<title>component/Dashboard/DashboardHeader.tsx&#45;&gt;component/Dashboard/DashboardHeader/SelectRealTimeRangeArea.tsx</title>
<path fill="none" stroke="#757575" d="M615.75,-704.92C644.17,-733.34 722.4,-806.35 804,-836.32 973.36,-898.54 1178.72,-910.98 1330.17,-909.46"/>
<polygon fill="#757575" stroke="#757575" points="1329.97,-912.97 1339.93,-909.34 1329.88,-905.97 1329.97,-912.97"/>
</g>
<!-- component/Dashboard/DashboardHeader/TimeBlock.tsx -->
<g id="node15" class="node">
<title>component/Dashboard/DashboardHeader/TimeBlock.tsx</title>
<path fill="none" stroke="#c6c5fe" d="M1215.83,-826.82C1215.83,-826.82 857.17,-826.82 857.17,-826.82 853.33,-826.82 849.5,-822.99 849.5,-819.16 849.5,-819.16 849.5,-811.49 849.5,-811.49 849.5,-807.66 853.33,-803.82 857.17,-803.82 857.17,-803.82 1215.83,-803.82 1215.83,-803.82 1219.67,-803.82 1223.5,-807.66 1223.5,-811.49 1223.5,-811.49 1223.5,-819.16 1223.5,-819.16 1223.5,-822.99 1219.67,-826.82 1215.83,-826.82"/>
<text text-anchor="middle" x="1036.5" y="-811.62" font-family="Arial" font-size="14.00" fill="#c6c5fe">component/Dashboard/DashboardHeader/TimeBlock.tsx</text>
</g>
<!-- component/Dashboard/DashboardHeader.tsx&#45;&gt;component/Dashboard/DashboardHeader/TimeBlock.tsx -->
<g id="edge6" class="edge">
<title>component/Dashboard/DashboardHeader.tsx&#45;&gt;component/Dashboard/DashboardHeader/TimeBlock.tsx</title>
<path fill="none" stroke="#757575" d="M643.02,-705.29C683.12,-717.66 747.81,-737.36 804,-753.32 863.28,-770.17 931.47,-788.28 978.4,-800.55"/>
<polygon fill="#757575" stroke="#757575" points="977.24,-803.86 987.8,-803 979.01,-797.09 977.24,-803.86"/>
</g>
<!-- store/DashboardProvider.tsx -->
<g id="node16" class="node">
<title>store/DashboardProvider.tsx</title>
<path fill="none" stroke="#c6c5fe" d="M2096.83,-628.82C2096.83,-628.82 1915.17,-628.82 1915.17,-628.82 1911.33,-628.82 1907.5,-624.99 1907.5,-621.16 1907.5,-621.16 1907.5,-613.49 1907.5,-613.49 1907.5,-609.66 1911.33,-605.82 1915.17,-605.82 1915.17,-605.82 2096.83,-605.82 2096.83,-605.82 2100.67,-605.82 2104.5,-609.66 2104.5,-613.49 2104.5,-613.49 2104.5,-621.16 2104.5,-621.16 2104.5,-624.99 2100.67,-628.82 2096.83,-628.82"/>
<text text-anchor="middle" x="2006" y="-613.62" font-family="Arial" font-size="14.00" fill="#c6c5fe">store/DashboardProvider.tsx</text>
</g>
<!-- component/Dashboard/DashboardHeader.tsx&#45;&gt;store/DashboardProvider.tsx -->
<g id="edge7" class="edge">
<title>component/Dashboard/DashboardHeader.tsx&#45;&gt;store/DashboardProvider.tsx</title>
<path fill="none" stroke="#757575" d="M755.35,-682.4C771.76,-681.31 788.23,-680.26 804,-679.32 1240.19,-653.36 1349.73,-655.93 1786,-631.32 1821.78,-629.31 1860.84,-626.88 1895.93,-624.62"/>
<polygon fill="#757575" stroke="#757575" points="1895.91,-628.13 1905.66,-623.99 1895.46,-621.14 1895.91,-628.13"/>
</g>
<!-- store/WidgetProvider.tsx -->
<g id="node17" class="node">
<title>store/WidgetProvider.tsx</title>
<path fill="none" stroke="#c6c5fe" d="M1624.33,-274.82C1624.33,-274.82 1466.67,-274.82 1466.67,-274.82 1462.83,-274.82 1459,-270.99 1459,-267.16 1459,-267.16 1459,-259.49 1459,-259.49 1459,-255.66 1462.83,-251.82 1466.67,-251.82 1466.67,-251.82 1624.33,-251.82 1624.33,-251.82 1628.17,-251.82 1632,-255.66 1632,-259.49 1632,-259.49 1632,-267.16 1632,-267.16 1632,-270.99 1628.17,-274.82 1624.33,-274.82"/>
<text text-anchor="middle" x="1545.5" y="-259.62" font-family="Arial" font-size="14.00" fill="#c6c5fe">store/WidgetProvider.tsx</text>
</g>
<!-- component/Dashboard/DashboardHeader.tsx&#45;&gt;store/WidgetProvider.tsx -->
<g id="edge8" class="edge">
<title>component/Dashboard/DashboardHeader.tsx&#45;&gt;store/WidgetProvider.tsx</title>
<path fill="none" stroke="#757575" d="M611.71,-681.64C644.01,-629.51 775.01,-419.81 804,-401.32 980.61,-288.68 1063.33,-364.09 1269,-324.32 1343.02,-310.01 1427.61,-290.86 1483.31,-277.86"/>
<polygon fill="#757575" stroke="#757575" points="1483.98,-281.3 1492.92,-275.61 1482.39,-274.49 1483.98,-281.3"/>
</g>
<!-- types/widget.d.ts -->
<g id="node18" class="node">
<title>types/widget.d.ts</title>
<path fill="none" stroke="#cfffac" d="M2888.83,-668.82C2888.83,-668.82 2781.17,-668.82 2781.17,-668.82 2777.33,-668.82 2773.5,-664.99 2773.5,-661.16 2773.5,-661.16 2773.5,-653.49 2773.5,-653.49 2773.5,-649.66 2777.33,-645.82 2781.17,-645.82 2781.17,-645.82 2888.83,-645.82 2888.83,-645.82 2892.67,-645.82 2896.5,-649.66 2896.5,-653.49 2896.5,-653.49 2896.5,-661.16 2896.5,-661.16 2896.5,-664.99 2892.67,-668.82 2888.83,-668.82"/>
<text text-anchor="middle" x="2835" y="-653.62" font-family="Arial" font-size="14.00" fill="#cfffac">types/widget.d.ts</text>
</g>
<!-- component/Dashboard/DashboardHeader.tsx&#45;&gt;types/widget.d.ts -->
<g id="edge9" class="edge">
<title>component/Dashboard/DashboardHeader.tsx&#45;&gt;types/widget.d.ts</title>
<path fill="none" stroke="#757575" d="M755.12,-690.89C1191.87,-683.84 2447.77,-663.56 2762.04,-658.49"/>
<polygon fill="#757575" stroke="#757575" points="2761.8,-661.99 2771.75,-658.33 2761.69,-654.99 2761.8,-661.99"/>
</g>
<!-- component/Dashboard/DashboardHeader/PlayIcon.tsx&#45;&gt;asset/image/pause.png -->
<g id="edge19" class="edge">
<title>component/Dashboard/DashboardHeader/PlayIcon.tsx&#45;&gt;asset/image/pause.png</title>
<path fill="none" stroke="#757575" d="M1185.85,-745.32C1271.88,-752.28 1377.55,-760.82 1451.83,-766.83"/>
<polygon fill="#757575" stroke="#757575" points="1451.26,-770.3 1461.51,-767.61 1451.82,-763.32 1451.26,-770.3"/>
</g>
<!-- component/Dashboard/DashboardHeader/PlayIcon.tsx&#45;&gt;asset/image/play.png -->
<g id="edge20" class="edge">
<title>component/Dashboard/DashboardHeader/PlayIcon.tsx&#45;&gt;asset/image/play.png</title>
<path fill="none" stroke="#757575" d="M1217.68,-733.32C1299.6,-733.32 1392.71,-733.32 1458.53,-733.32"/>
<polygon fill="#757575" stroke="#757575" points="1458.16,-736.82 1468.16,-733.32 1458.16,-729.82 1458.16,-736.82"/>
</g>
<!-- component/Dashboard/DashboardHeader/SelectRealTimeRangeArea.tsx&#45;&gt;component/Dashboard/CommonStyle.ts -->
<g id="edge22" class="edge">
<title>component/Dashboard/DashboardHeader/SelectRealTimeRangeArea.tsx&#45;&gt;component/Dashboard/CommonStyle.ts</title>
<path fill="none" stroke="#757575" d="M1563.13,-909.28C1604.41,-938.14 1715.94,-1011.08 1822,-1036.32 2341.37,-1159.92 2995.86,-1000.59 3182.93,-949.26"/>
<polygon fill="#757575" stroke="#757575" points="3183.64,-952.7 3192.35,-946.66 3181.78,-945.95 3183.64,-952.7"/>
</g>
<!-- component/Dashboard/DashboardHeader/SelectRealTimeRangeArea.tsx&#45;&gt;store/DashboardProvider.tsx -->
<g id="edge27" class="edge">
<title>component/Dashboard/DashboardHeader/SelectRealTimeRangeArea.tsx&#45;&gt;store/DashboardProvider.tsx</title>
<path fill="none" stroke="#757575" d="M1603.52,-909.3C1656.74,-916.97 1735.35,-918.86 1786,-877.32 1830.7,-840.66 1788.98,-799.78 1822,-752.32 1860.16,-697.47 1927.86,-656.13 1969.36,-634.42"/>
<polygon fill="#757575" stroke="#757575" points="1970.9,-637.56 1978.21,-629.89 1967.72,-631.33 1970.9,-637.56"/>
</g>
<!-- hook/useBoolean.tsx -->
<g id="node24" class="node">
<title>hook/useBoolean.tsx</title>
<path fill="none" stroke="#cfffac" d="M2072.83,-571.82C2072.83,-571.82 1939.17,-571.82 1939.17,-571.82 1935.33,-571.82 1931.5,-567.99 1931.5,-564.16 1931.5,-564.16 1931.5,-556.49 1931.5,-556.49 1931.5,-552.66 1935.33,-548.82 1939.17,-548.82 1939.17,-548.82 2072.83,-548.82 2072.83,-548.82 2076.67,-548.82 2080.5,-552.66 2080.5,-556.49 2080.5,-556.49 2080.5,-564.16 2080.5,-564.16 2080.5,-567.99 2076.67,-571.82 2072.83,-571.82"/>
<text text-anchor="middle" x="2006" y="-556.62" font-family="Arial" font-size="14.00" fill="#cfffac">hook/useBoolean.tsx</text>
</g>
<!-- component/Dashboard/DashboardHeader/SelectRealTimeRangeArea.tsx&#45;&gt;hook/useBoolean.tsx -->
<g id="edge25" class="edge">
<title>component/Dashboard/DashboardHeader/SelectRealTimeRangeArea.tsx&#45;&gt;hook/useBoolean.tsx</title>
<path fill="none" stroke="#757575" d="M1595.45,-909.31C1649.59,-919.37 1735.8,-925.35 1786,-877.32 1876.97,-790.28 1735.99,-688.28 1822,-596.32 1846.75,-569.86 1884.82,-559.66 1919.84,-556.55"/>
<polygon fill="#757575" stroke="#757575" points="1919.84,-560.06 1929.58,-555.88 1919.36,-553.08 1919.84,-560.06"/>
</g>
<!-- hook/useOutsideClick.tsx -->
<g id="node25" class="node">
<title>hook/useOutsideClick.tsx</title>
<path fill="none" stroke="#cfffac" d="M2086.33,-905.82C2086.33,-905.82 1925.67,-905.82 1925.67,-905.82 1921.83,-905.82 1918,-901.99 1918,-898.16 1918,-898.16 1918,-890.49 1918,-890.49 1918,-886.66 1921.83,-882.82 1925.67,-882.82 1925.67,-882.82 2086.33,-882.82 2086.33,-882.82 2090.17,-882.82 2094,-886.66 2094,-890.49 2094,-890.49 2094,-898.16 2094,-898.16 2094,-901.99 2090.17,-905.82 2086.33,-905.82"/>
<text text-anchor="middle" x="2006" y="-890.62" font-family="Arial" font-size="14.00" fill="#cfffac">hook/useOutsideClick.tsx</text>
</g>
<!-- component/Dashboard/DashboardHeader/SelectRealTimeRangeArea.tsx&#45;&gt;hook/useOutsideClick.tsx -->
<g id="edge26" class="edge">
<title>component/Dashboard/DashboardHeader/SelectRealTimeRangeArea.tsx&#45;&gt;hook/useOutsideClick.tsx</title>
<path fill="none" stroke="#757575" d="M1786.49,-895.75C1828.82,-895.48 1870.66,-895.2 1906.22,-894.97"/>
<polygon fill="#757575" stroke="#757575" points="1906.05,-898.47 1916.02,-894.91 1906,-891.47 1906.05,-898.47"/>
</g>
<!-- component/Dashboard/DashboardHeader/RealTime.tsx -->
<g id="node26" class="node">
<title>component/Dashboard/DashboardHeader/RealTime.tsx</title>
<path fill="none" stroke="#cfffac" d="M2182.33,-1026.82C2182.33,-1026.82 1829.67,-1026.82 1829.67,-1026.82 1825.83,-1026.82 1822,-1022.99 1822,-1019.16 1822,-1019.16 1822,-1011.49 1822,-1011.49 1822,-1007.66 1825.83,-1003.82 1829.67,-1003.82 1829.67,-1003.82 2182.33,-1003.82 2182.33,-1003.82 2186.17,-1003.82 2190,-1007.66 2190,-1011.49 2190,-1011.49 2190,-1019.16 2190,-1019.16 2190,-1022.99 2186.17,-1026.82 2182.33,-1026.82"/>
<text text-anchor="middle" x="2006" y="-1011.62" font-family="Arial" font-size="14.00" fill="#cfffac">component/Dashboard/DashboardHeader/RealTime.tsx</text>
</g>
<!-- component/Dashboard/DashboardHeader/SelectRealTimeRangeArea.tsx&#45;&gt;component/Dashboard/DashboardHeader/RealTime.tsx -->
<g id="edge23" class="edge">
<title>component/Dashboard/DashboardHeader/SelectRealTimeRangeArea.tsx&#45;&gt;component/Dashboard/DashboardHeader/RealTime.tsx</title>
<path fill="none" stroke="#757575" d="M1576.15,-909.21C1626.08,-928.77 1730.47,-967.73 1822,-989.32 1842.61,-994.19 1864.76,-998.27 1886.28,-1001.65"/>
<polygon fill="#757575" stroke="#757575" points="1885.55,-1005.08 1895.97,-1003.13 1886.61,-998.16 1885.55,-1005.08"/>
</g>
<!-- component/Dashboard/DashboardHeader/SelectRealTimeListItem.tsx -->
<g id="node27" class="node">
<title>component/Dashboard/DashboardHeader/SelectRealTimeListItem.tsx</title>
<path fill="none" stroke="#c6c5fe" d="M3057.33,-966.82C3057.33,-966.82 2612.67,-966.82 2612.67,-966.82 2608.83,-966.82 2605,-962.99 2605,-959.16 2605,-959.16 2605,-951.49 2605,-951.49 2605,-947.66 2608.83,-943.82 2612.67,-943.82 2612.67,-943.82 3057.33,-943.82 3057.33,-943.82 3061.17,-943.82 3065,-947.66 3065,-951.49 3065,-951.49 3065,-959.16 3065,-959.16 3065,-962.99 3061.17,-966.82 3057.33,-966.82"/>
<text text-anchor="middle" x="2835" y="-951.62" font-family="Arial" font-size="14.00" fill="#c6c5fe">component/Dashboard/DashboardHeader/SelectRealTimeListItem.tsx</text>
</g>
<!-- component/Dashboard/DashboardHeader/SelectRealTimeRangeArea.tsx&#45;&gt;component/Dashboard/DashboardHeader/SelectRealTimeListItem.tsx -->
<g id="edge24" class="edge">
<title>component/Dashboard/DashboardHeader/SelectRealTimeRangeArea.tsx&#45;&gt;component/Dashboard/DashboardHeader/SelectRealTimeListItem.tsx</title>
<path fill="none" stroke="#757575" d="M1588.53,-909.22C1642.17,-923.74 1738.09,-947.44 1822,-956.32 2103.86,-986.17 2432.37,-978 2636.79,-967.88"/>
<polygon fill="#757575" stroke="#757575" points="2636.93,-971.38 2646.74,-967.38 2636.58,-964.38 2636.93,-971.38"/>
</g>
<!-- component/Dashboard/DashboardHeader/CurrentTime.tsx -->
<g id="node19" class="node">
<title>component/Dashboard/DashboardHeader/CurrentTime.tsx</title>
<path fill="none" stroke="#c6c5fe" d="M1730.83,-867.82C1730.83,-867.82 1360.17,-867.82 1360.17,-867.82 1356.33,-867.82 1352.5,-863.99 1352.5,-860.16 1352.5,-860.16 1352.5,-852.49 1352.5,-852.49 1352.5,-848.66 1356.33,-844.82 1360.17,-844.82 1360.17,-844.82 1730.83,-844.82 1730.83,-844.82 1734.67,-844.82 1738.5,-848.66 1738.5,-852.49 1738.5,-852.49 1738.5,-860.16 1738.5,-860.16 1738.5,-863.99 1734.67,-867.82 1730.83,-867.82"/>
<text text-anchor="middle" x="1545.5" y="-852.62" font-family="Arial" font-size="14.00" fill="#c6c5fe">component/Dashboard/DashboardHeader/CurrentTime.tsx</text>
</g>
<!-- component/Dashboard/DashboardHeader/TimeBlock.tsx&#45;&gt;component/Dashboard/DashboardHeader/CurrentTime.tsx -->
<g id="edge28" class="edge">
<title>component/Dashboard/DashboardHeader/TimeBlock.tsx&#45;&gt;component/Dashboard/DashboardHeader/CurrentTime.tsx</title>
<path fill="none" stroke="#757575" d="M1185.85,-827.32C1248.43,-832.38 1321.4,-838.28 1385.12,-843.44"/>
<polygon fill="#757575" stroke="#757575" points="1384.74,-846.92 1394.99,-844.23 1385.3,-839.94 1384.74,-846.92"/>
</g>
<!-- component/Dashboard/DashboardHeader/DatePickerArea.tsx -->
<g id="node22" class="node">
<title>component/Dashboard/DashboardHeader/DatePickerArea.tsx</title>
<path fill="none" stroke="#c6c5fe" d="M1741.33,-826.82C1741.33,-826.82 1349.67,-826.82 1349.67,-826.82 1345.83,-826.82 1342,-822.99 1342,-819.16 1342,-819.16 1342,-811.49 1342,-811.49 1342,-807.66 1345.83,-803.82 1349.67,-803.82 1349.67,-803.82 1741.33,-803.82 1741.33,-803.82 1745.17,-803.82 1749,-807.66 1749,-811.49 1749,-811.49 1749,-819.16 1749,-819.16 1749,-822.99 1745.17,-826.82 1741.33,-826.82"/>
<text text-anchor="middle" x="1545.5" y="-811.62" font-family="Arial" font-size="14.00" fill="#c6c5fe">component/Dashboard/DashboardHeader/DatePickerArea.tsx</text>
</g>
<!-- component/Dashboard/DashboardHeader/TimeBlock.tsx&#45;&gt;component/Dashboard/DashboardHeader/DatePickerArea.tsx -->
<g id="edge29" class="edge">
<title>component/Dashboard/DashboardHeader/TimeBlock.tsx&#45;&gt;component/Dashboard/DashboardHeader/DatePickerArea.tsx</title>
<path fill="none" stroke="#757575" d="M1223.77,-815.32C1258.43,-815.32 1294.91,-815.32 1330.33,-815.32"/>
<polygon fill="#757575" stroke="#757575" points="1330.28,-818.82 1340.28,-815.32 1330.28,-811.82 1330.28,-818.82"/>
</g>
<!-- store/DashboardProvider.tsx&#45;&gt;common/date.ts -->
<g id="edge75" class="edge">
<title>store/DashboardProvider.tsx&#45;&gt;common/date.ts</title>
<path fill="none" stroke="#757575" d="M2088.65,-605.38C2159.08,-595.07 2259.72,-580.34 2326.52,-570.57"/>
<polygon fill="#757575" stroke="#757575" points="2326.88,-574.05 2336.27,-569.14 2325.86,-567.12 2326.88,-574.05"/>
</g>
<!-- store/WidgetProvider.tsx&#45;&gt;types/widget.d.ts -->
<g id="edge77" class="edge">
<title>store/WidgetProvider.tsx&#45;&gt;types/widget.d.ts</title>
<path fill="none" stroke="#757575" d="M1632.25,-261.17C1863.37,-255.98 2487.36,-246.19 2569,-289.32 2716.1,-367.04 2800.91,-567.19 2826.04,-634.7"/>
<polygon fill="#757575" stroke="#757575" points="2822.7,-635.75 2829.41,-643.95 2829.28,-633.36 2822.7,-635.75"/>
</g>
<!-- store/WidgetProvider.tsx&#45;&gt;hook/useBoolean.tsx -->
<g id="edge76" class="edge">
<title>store/WidgetProvider.tsx&#45;&gt;hook/useBoolean.tsx</title>
<path fill="none" stroke="#757575" d="M1588.46,-275.31C1638.03,-290.57 1721.86,-319.9 1786,-360.32 1870.28,-413.45 1952.26,-500.52 1987.28,-539.88"/>
<polygon fill="#757575" stroke="#757575" points="1984.53,-542.05 1993.77,-547.24 1989.78,-537.43 1984.53,-542.05"/>
</g>
<!-- hook/useCurrentTime.tsx -->
<g id="node20" class="node">
<title>hook/useCurrentTime.tsx</title>
<path fill="none" stroke="#cfffac" d="M2085.83,-946.82C2085.83,-946.82 1926.17,-946.82 1926.17,-946.82 1922.33,-946.82 1918.5,-942.99 1918.5,-939.16 1918.5,-939.16 1918.5,-931.49 1918.5,-931.49 1918.5,-927.66 1922.33,-923.82 1926.17,-923.82 1926.17,-923.82 2085.83,-923.82 2085.83,-923.82 2089.67,-923.82 2093.5,-927.66 2093.5,-931.49 2093.5,-931.49 2093.5,-939.16 2093.5,-939.16 2093.5,-942.99 2089.67,-946.82 2085.83,-946.82"/>
<text text-anchor="middle" x="2006" y="-931.62" font-family="Arial" font-size="14.00" fill="#cfffac">hook/useCurrentTime.tsx</text>
</g>
<!-- component/Dashboard/DashboardHeader/CurrentTime.tsx&#45;&gt;hook/useCurrentTime.tsx -->
<g id="edge10" class="edge">
<title>component/Dashboard/DashboardHeader/CurrentTime.tsx&#45;&gt;hook/useCurrentTime.tsx</title>
<path fill="none" stroke="#757575" d="M1738.8,-860.59C1755.19,-864.7 1771.15,-870.15 1786,-877.32 1806.95,-887.44 1801.16,-904.98 1822,-915.32 1847.91,-928.18 1878.36,-934.45 1906.91,-937.18"/>
<polygon fill="#757575" stroke="#757575" points="1906.41,-940.65 1916.66,-937.96 1906.97,-933.67 1906.41,-940.65"/>
</g>
<!-- component/Dashboard/DashboardHeader/DateBox.tsx -->
<g id="node21" class="node">
<title>component/Dashboard/DashboardHeader/DateBox.tsx</title>
<path fill="none" stroke="#cfffac" d="M2179.33,-784.82C2179.33,-784.82 1832.67,-784.82 1832.67,-784.82 1828.83,-784.82 1825,-780.99 1825,-777.16 1825,-777.16 1825,-769.49 1825,-769.49 1825,-765.66 1828.83,-761.82 1832.67,-761.82 1832.67,-761.82 2179.33,-761.82 2179.33,-761.82 2183.17,-761.82 2187,-765.66 2187,-769.49 2187,-769.49 2187,-777.16 2187,-777.16 2187,-780.99 2183.17,-784.82 2179.33,-784.82"/>
<text text-anchor="middle" x="2006" y="-769.62" font-family="Arial" font-size="14.00" fill="#cfffac">component/Dashboard/DashboardHeader/DateBox.tsx</text>
</g>
<!-- component/Dashboard/DashboardHeader/DatePickerArea.tsx&#45;&gt;common/date.ts -->
<g id="edge11" class="edge">
<title>component/Dashboard/DashboardHeader/DatePickerArea.tsx&#45;&gt;common/date.ts</title>
<path fill="none" stroke="#757575" d="M1620.98,-827.31C1671.81,-831.41 1738.33,-828.35 1786,-795.32 1816.72,-774.04 1792.79,-742.65 1822,-719.32 1952.94,-614.77 2029.34,-684.93 2190,-637.32 2249.48,-619.7 2316.45,-593.51 2357.56,-576.68"/>
<polygon fill="#757575" stroke="#757575" points="2358.88,-579.92 2366.79,-572.88 2356.21,-573.45 2358.88,-579.92"/>
</g>
<!-- component/Dashboard/DashboardHeader/DatePickerArea.tsx&#45;&gt;component/Dashboard/CommonStyle.ts -->
<g id="edge12" class="edge">
<title>component/Dashboard/DashboardHeader/DatePickerArea.tsx&#45;&gt;component/Dashboard/CommonStyle.ts</title>
<path fill="none" stroke="#757575" d="M1683.58,-827.32C1874.29,-844 2199.43,-872.38 2226,-874.32 2533.1,-896.78 2893.25,-916.64 3089.44,-926.91"/>
<polygon fill="#757575" stroke="#757575" points="3089,-930.4 3099.17,-927.42 3089.37,-923.41 3089,-930.4"/>
</g>
<!-- component/Dashboard/DashboardHeader/DatePickerArea.tsx&#45;&gt;store/DashboardProvider.tsx -->
<g id="edge17" class="edge">
<title>component/Dashboard/DashboardHeader/DatePickerArea.tsx&#45;&gt;store/DashboardProvider.tsx</title>
<path fill="none" stroke="#757575" d="M1605.33,-827.29C1658.33,-834.51 1735.47,-835.69 1786,-795.32 1827.51,-762.16 1785.01,-719.46 1822,-681.32 1845.9,-656.69 1879.79,-641.52 1911.93,-632.19"/>
<polygon fill="#757575" stroke="#757575" points="1912.55,-635.65 1921.28,-629.65 1910.71,-628.9 1912.55,-635.65"/>
</g>
<!-- component/Dashboard/DashboardHeader/DatePickerArea.tsx&#45;&gt;types/widget.d.ts -->
<g id="edge18" class="edge">
<title>component/Dashboard/DashboardHeader/DatePickerArea.tsx&#45;&gt;types/widget.d.ts</title>
<path fill="none" stroke="#757575" d="M1749.4,-810.03C1762.11,-806.17 1774.43,-801.33 1786,-795.32 1808.12,-783.85 1799.93,-763.92 1822,-752.32 1904.78,-708.84 2544.23,-672.24 2761.8,-660.93"/>
<polygon fill="#757575" stroke="#757575" points="2761.75,-664.44 2771.55,-660.43 2761.39,-657.45 2761.75,-664.44"/>
</g>
<!-- component/Dashboard/DashboardHeader/DatePickerArea.tsx&#45;&gt;component/Dashboard/DashboardHeader/DateBox.tsx -->
<g id="edge13" class="edge">
<title>component/Dashboard/DashboardHeader/DatePickerArea.tsx&#45;&gt;component/Dashboard/DashboardHeader/DateBox.tsx</title>
<path fill="none" stroke="#757575" d="M1694.73,-803.34C1724.94,-800.78 1756.5,-798.04 1786,-795.32 1815.78,-792.59 1847.81,-789.47 1877.94,-786.45"/>
<polygon fill="#757575" stroke="#757575" points="1878.28,-789.94 1887.88,-785.46 1877.58,-782.97 1878.28,-789.94"/>
</g>
<!-- component/common/DatePicker.tsx -->
<g id="node23" class="node">
<title>component/common/DatePicker.tsx</title>
<path fill="none" stroke="#c6c5fe" d="M2119.33,-825.82C2119.33,-825.82 1892.67,-825.82 1892.67,-825.82 1888.83,-825.82 1885,-821.99 1885,-818.16 1885,-818.16 1885,-810.49 1885,-810.49 1885,-806.66 1888.83,-802.82 1892.67,-802.82 1892.67,-802.82 2119.33,-802.82 2119.33,-802.82 2123.17,-802.82 2127,-806.66 2127,-810.49 2127,-810.49 2127,-818.16 2127,-818.16 2127,-821.99 2123.17,-825.82 2119.33,-825.82"/>
<text text-anchor="middle" x="2006" y="-810.62" font-family="Arial" font-size="14.00" fill="#c6c5fe">component/common/DatePicker.tsx</text>
</g>
<!-- component/Dashboard/DashboardHeader/DatePickerArea.tsx&#45;&gt;component/common/DatePicker.tsx -->
<g id="edge14" class="edge">
<title>component/Dashboard/DashboardHeader/DatePickerArea.tsx&#45;&gt;component/common/DatePicker.tsx</title>
<path fill="none" stroke="#757575" d="M1749.27,-814.88C1791.38,-814.79 1834.7,-814.7 1873.44,-814.61"/>
<polygon fill="#757575" stroke="#757575" points="1873.26,-818.11 1883.25,-814.59 1873.25,-811.11 1873.26,-818.11"/>
</g>
<!-- component/Dashboard/DashboardHeader/DatePickerArea.tsx&#45;&gt;hook/useBoolean.tsx -->
<g id="edge15" class="edge">
<title>component/Dashboard/DashboardHeader/DatePickerArea.tsx&#45;&gt;hook/useBoolean.tsx</title>
<path fill="none" stroke="#757575" d="M1597.44,-827.26C1651.31,-836.61 1735.36,-841.34 1786,-795.32 1852.52,-734.88 1758.93,-660.36 1822,-596.32 1847.32,-570.62 1885.27,-560.47 1920.06,-557.2"/>
<polygon fill="#757575" stroke="#757575" points="1920,-560.72 1929.72,-556.49 1919.49,-553.74 1920,-560.72"/>
</g>
<!-- component/Dashboard/DashboardHeader/DatePickerArea.tsx&#45;&gt;hook/useOutsideClick.tsx -->
<g id="edge16" class="edge">
<title>component/Dashboard/DashboardHeader/DatePickerArea.tsx&#45;&gt;hook/useOutsideClick.tsx</title>
<path fill="none" stroke="#757575" d="M1749.4,-823.77C1762.01,-827.15 1774.31,-831.28 1786,-836.32 1805.66,-844.8 1802.58,-859.32 1822,-868.32 1848.09,-880.41 1878.34,-887.22 1906.63,-890.97"/>
<polygon fill="#757575" stroke="#757575" points="1905.94,-894.41 1916.28,-892.13 1906.77,-887.46 1905.94,-894.41"/>
</g>
<!-- component/common/DatePicker/DatePickerTitle.tsx -->
<g id="node43" class="node">
<title>component/common/DatePicker/DatePickerTitle.tsx</title>
<path fill="none" stroke="#c6c5fe" d="M2561.33,-784.82C2561.33,-784.82 2233.67,-784.82 2233.67,-784.82 2229.83,-784.82 2226,-780.99 2226,-777.16 2226,-777.16 2226,-769.49 2226,-769.49 2226,-765.66 2229.83,-761.82 2233.67,-761.82 2233.67,-761.82 2561.33,-761.82 2561.33,-761.82 2565.17,-761.82 2569,-765.66 2569,-769.49 2569,-769.49 2569,-777.16 2569,-777.16 2569,-780.99 2565.17,-784.82 2561.33,-784.82"/>
<text text-anchor="middle" x="2397.5" y="-769.62" font-family="Arial" font-size="14.00" fill="#c6c5fe">component/common/DatePicker/DatePickerTitle.tsx</text>
</g>
<!-- component/common/DatePicker.tsx&#45;&gt;component/common/DatePicker/DatePickerTitle.tsx -->
<g id="edge62" class="edge">
<title>component/common/DatePicker.tsx&#45;&gt;component/common/DatePicker/DatePickerTitle.tsx</title>
<path fill="none" stroke="#757575" d="M2120.97,-802.33C2168.25,-797.35 2223.25,-791.56 2271.62,-786.47"/>
<polygon fill="#757575" stroke="#757575" points="2271.71,-789.98 2281.29,-785.45 2270.98,-783.02 2271.71,-789.98"/>
</g>
<!-- component/common/DatePicker/ListPicker.tsx -->
<g id="node44" class="node">
<title>component/common/DatePicker/ListPicker.tsx</title>
<path fill="none" stroke="#c6c5fe" d="M2543.83,-864.82C2543.83,-864.82 2251.17,-864.82 2251.17,-864.82 2247.33,-864.82 2243.5,-860.99 2243.5,-857.16 2243.5,-857.16 2243.5,-849.49 2243.5,-849.49 2243.5,-845.66 2247.33,-841.82 2251.17,-841.82 2251.17,-841.82 2543.83,-841.82 2543.83,-841.82 2547.67,-841.82 2551.5,-845.66 2551.5,-849.49 2551.5,-849.49 2551.5,-857.16 2551.5,-857.16 2551.5,-860.99 2547.67,-864.82 2543.83,-864.82"/>
<text text-anchor="middle" x="2397.5" y="-849.62" font-family="Arial" font-size="14.00" fill="#c6c5fe">component/common/DatePicker/ListPicker.tsx</text>
</g>
<!-- component/common/DatePicker.tsx&#45;&gt;component/common/DatePicker/ListPicker.tsx -->
<g id="edge63" class="edge">
<title>component/common/DatePicker.tsx&#45;&gt;component/common/DatePicker/ListPicker.tsx</title>
<path fill="none" stroke="#757575" d="M2126.78,-826.32C2170.68,-830.71 2220.58,-835.71 2265.42,-840.2"/>
<polygon fill="#757575" stroke="#757575" points="2264.9,-843.66 2275.19,-841.18 2265.59,-836.7 2264.9,-843.66"/>
</g>
<!-- types/datePicker.d.ts -->
<g id="node45" class="node">
<title>types/datePicker.d.ts</title>
<path fill="none" stroke="#cfffac" d="M2901.83,-823.82C2901.83,-823.82 2768.17,-823.82 2768.17,-823.82 2764.33,-823.82 2760.5,-819.99 2760.5,-816.16 2760.5,-816.16 2760.5,-808.49 2760.5,-808.49 2760.5,-804.66 2764.33,-800.82 2768.17,-800.82 2768.17,-800.82 2901.83,-800.82 2901.83,-800.82 2905.67,-800.82 2909.5,-804.66 2909.5,-808.49 2909.5,-808.49 2909.5,-816.16 2909.5,-816.16 2909.5,-819.99 2905.67,-823.82 2901.83,-823.82"/>
<text text-anchor="middle" x="2835" y="-808.62" font-family="Arial" font-size="14.00" fill="#cfffac">types/datePicker.d.ts</text>
</g>
<!-- component/common/DatePicker.tsx&#45;&gt;types/datePicker.d.ts -->
<g id="edge64" class="edge">
<title>component/common/DatePicker.tsx&#45;&gt;types/datePicker.d.ts</title>
<path fill="none" stroke="#757575" d="M2127.25,-814.03C2296.55,-813.62 2600.96,-812.89 2748.8,-812.53"/>
<polygon fill="#757575" stroke="#757575" points="2748.52,-816.03 2758.51,-812.51 2748.5,-809.03 2748.52,-816.03"/>
</g>
<!-- component/Dashboard/DashboardHeader/SelectRealTimeListItem.tsx&#45;&gt;component/Dashboard/CommonStyle.ts -->
<g id="edge21" class="edge">
<title>component/Dashboard/DashboardHeader/SelectRealTimeListItem.tsx&#45;&gt;component/Dashboard/CommonStyle.ts</title>
<path fill="none" stroke="#757575" d="M3063.76,-943.34C3072.35,-942.88 3080.87,-942.44 3089.26,-941.99"/>
<polygon fill="#757575" stroke="#757575" points="3089.29,-945.5 3099.09,-941.48 3088.92,-938.51 3089.29,-945.5"/>
</g>
<!-- component/Widget.tsx -->
<g id="node28" class="node">
<title>component/Widget.tsx</title>
<path fill="none" stroke="#c6c5fe" d="M675.33,-433.82C675.33,-433.82 531.67,-433.82 531.67,-433.82 527.83,-433.82 524,-429.99 524,-426.16 524,-426.16 524,-418.49 524,-418.49 524,-414.66 527.83,-410.82 531.67,-410.82 531.67,-410.82 675.33,-410.82 675.33,-410.82 679.17,-410.82 683,-414.66 683,-418.49 683,-418.49 683,-426.16 683,-426.16 683,-429.99 679.17,-433.82 675.33,-433.82"/>
<text text-anchor="middle" x="603.5" y="-418.62" font-family="Arial" font-size="14.00" fill="#c6c5fe">component/Widget.tsx</text>
</g>
<!-- component/Widget.tsx&#45;&gt;common/api.ts -->
<g id="edge30" class="edge">
<title>component/Widget.tsx&#45;&gt;common/api.ts</title>
<path fill="none" stroke="#757575" d="M615.16,-410.39C642.97,-378.83 718.95,-289.88 768,-206.32 788.15,-172 771.64,-147.5 804,-124.32 851.61,-90.21 919.68,-88.36 969.69,-93.15"/>
<polygon fill="#757575" stroke="#757575" points="969.21,-96.62 979.52,-94.21 969.96,-89.66 969.21,-96.62"/>
</g>
<!-- component/Widget.tsx&#45;&gt;common/date.ts -->
<g id="edge31" class="edge">
<title>component/Widget.tsx&#45;&gt;common/date.ts</title>
<path fill="none" stroke="#757575" d="M650.09,-434.32C690.3,-444.37 750.62,-458.19 804,-465.32 1415.44,-547.01 1574.97,-491.66 2190,-539.32 2235.55,-542.85 2286.63,-548.04 2326.59,-552.37"/>
<polygon fill="#757575" stroke="#757575" points="2326,-555.83 2336.32,-553.44 2326.76,-548.87 2326,-555.83"/>
</g>
<!-- component/Widget.tsx&#45;&gt;common/widget.ts -->
<g id="edge32" class="edge">
<title>component/Widget.tsx&#45;&gt;common/widget.ts</title>
<path fill="none" stroke="#757575" d="M683.04,-431.51C719.74,-435.46 764.05,-439.76 804,-442.32 1045.94,-457.86 1333.08,-461.9 1467.68,-462.96"/>
<polygon fill="#757575" stroke="#757575" points="1467.51,-466.45 1477.54,-463.03 1467.56,-459.45 1467.51,-466.45"/>
</g>
<!-- component/Widget.tsx&#45;&gt;store/DashboardProvider.tsx -->
<g id="edge37" class="edge">
<title>component/Widget.tsx&#45;&gt;store/DashboardProvider.tsx</title>
<path fill="none" stroke="#757575" d="M617.25,-434.09C647.13,-460.82 725.14,-525.76 804,-551.32 1011.88,-618.71 1567.84,-590.58 1786,-603.32 1821.78,-605.42 1860.83,-607.86 1895.93,-610.12"/>
<polygon fill="#757575" stroke="#757575" points="1895.46,-613.59 1905.66,-610.74 1895.91,-606.61 1895.46,-613.59"/>
</g>
<!-- component/Widget.tsx&#45;&gt;types/widget.d.ts -->
<g id="edge38" class="edge">
<title>component/Widget.tsx&#45;&gt;types/widget.d.ts</title>
<path fill="none" stroke="#757575" d="M666.97,-410.36C789.01,-387.68 1067.89,-339.16 1305,-322.32 1697.73,-294.43 1809.88,-258.76 2190,-361.32 2441.12,-429.08 2716.61,-586.75 2805.01,-639.66"/>
<polygon fill="#757575" stroke="#757575" points="2802.95,-642.5 2813.33,-644.66 2806.56,-636.5 2802.95,-642.5"/>
</g>
<!-- component/Widget.tsx&#45;&gt;hook/useBoolean.tsx -->
<g id="edge36" class="edge">
<title>component/Widget.tsx&#45;&gt;hook/useBoolean.tsx</title>
<path fill="none" stroke="#757575" d="M622.79,-434.22C656.81,-455.59 732.83,-499.9 804,-517.32 1015.73,-569.16 1681.95,-565.02 1919.67,-561.75"/>
<polygon fill="#757575" stroke="#757575" points="1919.54,-565.26 1929.49,-561.62 1919.44,-558.26 1919.54,-565.26"/>
</g>
<!-- component/Widget/WidgetButtons.tsx -->
<g id="node29" class="node">
<title>component/Widget/WidgetButtons.tsx</title>
<path fill="none" stroke="#c6c5fe" d="M1157.33,-315.82C1157.33,-315.82 915.67,-315.82 915.67,-315.82 911.83,-315.82 908,-311.99 908,-308.16 908,-308.16 908,-300.49 908,-300.49 908,-296.66 911.83,-292.82 915.67,-292.82 915.67,-292.82 1157.33,-292.82 1157.33,-292.82 1161.17,-292.82 1165,-296.66 1165,-300.49 1165,-300.49 1165,-308.16 1165,-308.16 1165,-311.99 1161.17,-315.82 1157.33,-315.82"/>
<text text-anchor="middle" x="1036.5" y="-300.62" font-family="Arial" font-size="14.00" fill="#c6c5fe">component/Widget/WidgetButtons.tsx</text>
</g>
<!-- component/Widget.tsx&#45;&gt;component/Widget/WidgetButtons.tsx -->
<g id="edge33" class="edge">
<title>component/Widget.tsx&#45;&gt;component/Widget/WidgetButtons.tsx</title>
<path fill="none" stroke="#757575" d="M624.63,-410.38C659.72,-390.17 734.93,-349.59 804,-330.32 833.41,-322.12 865.6,-316.5 896.37,-312.64"/>
<polygon fill="#757575" stroke="#757575" points="896.62,-316.14 906.14,-311.48 895.79,-309.19 896.62,-316.14"/>
</g>
<!-- component/Widget/WidgetCallCycleSettingModal.tsx -->
<g id="node30" class="node">
<title>component/Widget/WidgetCallCycleSettingModal.tsx</title>
<path fill="none" stroke="#c6c5fe" d="M1204.33,-433.82C1204.33,-433.82 868.67,-433.82 868.67,-433.82 864.83,-433.82 861,-429.99 861,-426.16 861,-426.16 861,-418.49 861,-418.49 861,-414.66 864.83,-410.82 868.67,-410.82 868.67,-410.82 1204.33,-410.82 1204.33,-410.82 1208.17,-410.82 1212,-414.66 1212,-418.49 1212,-418.49 1212,-426.16 1212,-426.16 1212,-429.99 1208.17,-433.82 1204.33,-433.82"/>
<text text-anchor="middle" x="1036.5" y="-418.62" font-family="Arial" font-size="14.00" fill="#c6c5fe">component/Widget/WidgetCallCycleSettingModal.tsx</text>
</g>
<!-- component/Widget.tsx&#45;&gt;component/Widget/WidgetCallCycleSettingModal.tsx -->
<g id="edge34" class="edge">
<title>component/Widget.tsx&#45;&gt;component/Widget/WidgetCallCycleSettingModal.tsx</title>
<path fill="none" stroke="#757575" d="M683.3,-422.32C729.97,-422.32 791.2,-422.32 849.5,-422.32"/>
<polygon fill="#757575" stroke="#757575" points="849.22,-425.82 859.22,-422.32 849.22,-418.82 849.22,-425.82"/>
</g>
<!-- component/Widget/WidgetChart.tsx -->
<g id="node31" class="node">
<title>component/Widget/WidgetChart.tsx</title>
<path fill="none" stroke="#c6c5fe" d="M1149.83,-156.82C1149.83,-156.82 923.17,-156.82 923.17,-156.82 919.33,-156.82 915.5,-152.99 915.5,-149.16 915.5,-149.16 915.5,-141.49 915.5,-141.49 915.5,-137.66 919.33,-133.82 923.17,-133.82 923.17,-133.82 1149.83,-133.82 1149.83,-133.82 1153.67,-133.82 1157.5,-137.66 1157.5,-141.49 1157.5,-141.49 1157.5,-149.16 1157.5,-149.16 1157.5,-152.99 1153.67,-156.82 1149.83,-156.82"/>
<text text-anchor="middle" x="1036.5" y="-141.62" font-family="Arial" font-size="14.00" fill="#c6c5fe">component/Widget/WidgetChart.tsx</text>
</g>
<!-- component/Widget.tsx&#45;&gt;component/Widget/WidgetChart.tsx -->
<g id="edge35" class="edge">
<title>component/Widget.tsx&#45;&gt;component/Widget/WidgetChart.tsx</title>
<path fill="none" stroke="#757575" d="M613.39,-410.33C650.32,-360.58 790.23,-172.82 804,-165.32 834.13,-148.92 869.8,-141.21 903.99,-138.23"/>
<polygon fill="#757575" stroke="#757575" points="903.8,-141.75 913.52,-137.53 903.29,-134.77 903.8,-141.75"/>
</g>
<!-- component/Widget/WidgetButtons.tsx&#45;&gt;store/WidgetProvider.tsx -->
<g id="edge39" class="edge">
<title>component/Widget/WidgetButtons.tsx&#45;&gt;store/WidgetProvider.tsx</title>
<path fill="none" stroke="#757575" d="M1165.44,-293.98C1253.13,-286.89 1367.64,-277.63 1447.76,-271.15"/>
<polygon fill="#757575" stroke="#757575" points="1447.64,-274.67 1457.33,-270.37 1447.08,-267.69 1447.64,-274.67"/>
</g>
<!-- component/Widget/WidgetCallCycleSettingModal.tsx&#45;&gt;common/date.ts -->
<g id="edge40" class="edge">
<title>component/Widget/WidgetCallCycleSettingModal.tsx&#45;&gt;common/date.ts</title>
<path fill="none" stroke="#757575" d="M1126.49,-410.35C1170.09,-403.15 1222.99,-392.4 1269,-377.32 1285.81,-371.82 1287.73,-364.2 1305,-360.32 1692.86,-273.35 1812.7,-364.24 2190,-489.32 2245.99,-507.89 2310.2,-530.11 2351.96,-544.69"/>
<polygon fill="#757575" stroke="#757575" points="2350.57,-547.91 2361.17,-547.91 2352.88,-541.31 2350.57,-547.91"/>
</g>
<!-- component/Widget/WidgetCallCycleSettingModal.tsx&#45;&gt;common/widget.ts -->
<g id="edge41" class="edge">
<title>component/Widget/WidgetCallCycleSettingModal.tsx&#45;&gt;common/widget.ts</title>
<path fill="none" stroke="#757575" d="M1185.85,-434.32C1278.41,-441.81 1393.71,-451.13 1468.19,-457.15"/>
<polygon fill="#757575" stroke="#757575" points="1467.57,-460.61 1477.82,-457.93 1468.13,-453.64 1467.57,-460.61"/>
</g>
<!-- component/Widget/WidgetCallCycleSettingModal/CycleInput.tsx -->
<g id="node32" class="node">
<title>component/Widget/WidgetCallCycleSettingModal/CycleInput.tsx</title>
<path fill="none" stroke="#cfffac" d="M1748.83,-433.82C1748.83,-433.82 1342.17,-433.82 1342.17,-433.82 1338.33,-433.82 1334.5,-429.99 1334.5,-426.16 1334.5,-426.16 1334.5,-418.49 1334.5,-418.49 1334.5,-414.66 1338.33,-410.82 1342.17,-410.82 1342.17,-410.82 1748.83,-410.82 1748.83,-410.82 1752.67,-410.82 1756.5,-414.66 1756.5,-418.49 1756.5,-418.49 1756.5,-426.16 1756.5,-426.16 1756.5,-429.99 1752.67,-433.82 1748.83,-433.82"/>
<text text-anchor="middle" x="1545.5" y="-418.62" font-family="Arial" font-size="14.00" fill="#cfffac">component/Widget/WidgetCallCycleSettingModal/CycleInput.tsx</text>
</g>
<!-- component/Widget/WidgetCallCycleSettingModal.tsx&#45;&gt;component/Widget/WidgetCallCycleSettingModal/CycleInput.tsx -->
<g id="edge42" class="edge">
<title>component/Widget/WidgetCallCycleSettingModal.tsx&#45;&gt;component/Widget/WidgetCallCycleSettingModal/CycleInput.tsx</title>
<path fill="none" stroke="#757575" d="M1212.34,-422.32C1247.89,-422.32 1285.73,-422.32 1322.66,-422.32"/>
<polygon fill="#757575" stroke="#757575" points="1322.57,-425.82 1332.57,-422.32 1322.57,-418.82 1322.57,-425.82"/>
</g>
<!-- component/Widget/WidgetCallCycleSettingModal/LastCallTimeBox.tsx -->
<g id="node33" class="node">
<title>component/Widget/WidgetCallCycleSettingModal/LastCallTimeBox.tsx</title>
<path fill="none" stroke="#cfffac" d="M1769.33,-392.82C1769.33,-392.82 1321.67,-392.82 1321.67,-392.82 1317.83,-392.82 1314,-388.99 1314,-385.16 1314,-385.16 1314,-377.49 1314,-377.49 1314,-373.66 1317.83,-369.82 1321.67,-369.82 1321.67,-369.82 1769.33,-369.82 1769.33,-369.82 1773.17,-369.82 1777,-373.66 1777,-377.49 1777,-377.49 1777,-385.16 1777,-385.16 1777,-388.99 1773.17,-392.82 1769.33,-392.82"/>
<text text-anchor="middle" x="1545.5" y="-377.62" font-family="Arial" font-size="14.00" fill="#cfffac">component/Widget/WidgetCallCycleSettingModal/LastCallTimeBox.tsx</text>
</g>
<!-- component/Widget/WidgetCallCycleSettingModal.tsx&#45;&gt;component/Widget/WidgetCallCycleSettingModal/LastCallTimeBox.tsx -->
<g id="edge43" class="edge">
<title>component/Widget/WidgetCallCycleSettingModal.tsx&#45;&gt;component/Widget/WidgetCallCycleSettingModal/LastCallTimeBox.tsx</title>
<path fill="none" stroke="#757575" d="M1185.85,-410.33C1248.43,-405.27 1321.4,-399.37 1385.12,-394.21"/>
<polygon fill="#757575" stroke="#757575" points="1385.3,-397.71 1394.99,-393.41 1384.74,-390.73 1385.3,-397.71"/>
</g>
<!-- component/chart/BarChart.tsx -->
<g id="node34" class="node">
<title>component/chart/BarChart.tsx</title>
<path fill="none" stroke="#c6c5fe" d="M1639.33,-156.82C1639.33,-156.82 1451.67,-156.82 1451.67,-156.82 1447.83,-156.82 1444,-152.99 1444,-149.16 1444,-149.16 1444,-141.49 1444,-141.49 1444,-137.66 1447.83,-133.82 1451.67,-133.82 1451.67,-133.82 1639.33,-133.82 1639.33,-133.82 1643.17,-133.82 1647,-137.66 1647,-141.49 1647,-141.49 1647,-149.16 1647,-149.16 1647,-152.99 1643.17,-156.82 1639.33,-156.82"/>
<text text-anchor="middle" x="1545.5" y="-141.62" font-family="Arial" font-size="14.00" fill="#c6c5fe">component/chart/BarChart.tsx</text>
</g>
<!-- component/Widget/WidgetChart.tsx&#45;&gt;component/chart/BarChart.tsx -->
<g id="edge44" class="edge">
<title>component/Widget/WidgetChart.tsx&#45;&gt;component/chart/BarChart.tsx</title>
<path fill="none" stroke="#757575" d="M1157.97,-145.32C1241.18,-145.32 1351.08,-145.32 1432.41,-145.32"/>
<polygon fill="#757575" stroke="#757575" points="1432.18,-148.82 1442.18,-145.32 1432.18,-141.82 1432.18,-148.82"/>
</g>
<!-- component/chart/InformaticsChart.tsx -->
<g id="node35" class="node">
<title>component/chart/InformaticsChart.tsx</title>
<path fill="none" stroke="#c6c5fe" d="M1663.83,-197.82C1663.83,-197.82 1427.17,-197.82 1427.17,-197.82 1423.33,-197.82 1419.5,-193.99 1419.5,-190.16 1419.5,-190.16 1419.5,-182.49 1419.5,-182.49 1419.5,-178.66 1423.33,-174.82 1427.17,-174.82 1427.17,-174.82 1663.83,-174.82 1663.83,-174.82 1667.67,-174.82 1671.5,-178.66 1671.5,-182.49 1671.5,-182.49 1671.5,-190.16 1671.5,-190.16 1671.5,-193.99 1667.67,-197.82 1663.83,-197.82"/>
<text text-anchor="middle" x="1545.5" y="-182.62" font-family="Arial" font-size="14.00" fill="#c6c5fe">component/chart/InformaticsChart.tsx</text>
</g>
<!-- component/Widget/WidgetChart.tsx&#45;&gt;component/chart/InformaticsChart.tsx -->
<g id="edge45" class="edge">
<title>component/Widget/WidgetChart.tsx&#45;&gt;component/chart/InformaticsChart.tsx</title>
<path fill="none" stroke="#757575" d="M1157.97,-155.07C1233.06,-161.14 1329.87,-168.97 1407.82,-175.27"/>
<polygon fill="#757575" stroke="#757575" points="1407.42,-178.75 1417.67,-176.07 1407.99,-171.77 1407.42,-178.75"/>
</g>
<!-- component/chart/LineChart.tsx -->
<g id="node36" class="node">
<title>component/chart/LineChart.tsx</title>
<path fill="none" stroke="#c6c5fe" d="M1642.33,-115.82C1642.33,-115.82 1448.67,-115.82 1448.67,-115.82 1444.83,-115.82 1441,-111.99 1441,-108.16 1441,-108.16 1441,-100.49 1441,-100.49 1441,-96.66 1444.83,-92.82 1448.67,-92.82 1448.67,-92.82 1642.33,-92.82 1642.33,-92.82 1646.17,-92.82 1650,-96.66 1650,-100.49 1650,-100.49 1650,-108.16 1650,-108.16 1650,-111.99 1646.17,-115.82 1642.33,-115.82"/>
<text text-anchor="middle" x="1545.5" y="-100.62" font-family="Arial" font-size="14.00" fill="#c6c5fe">component/chart/LineChart.tsx</text>
</g>
<!-- component/Widget/WidgetChart.tsx&#45;&gt;component/chart/LineChart.tsx -->
<g id="edge46" class="edge">
<title>component/Widget/WidgetChart.tsx&#45;&gt;component/chart/LineChart.tsx</title>
<path fill="none" stroke="#757575" d="M1157.97,-135.58C1240.21,-128.93 1348.5,-120.17 1429.53,-113.62"/>
<polygon fill="#757575" stroke="#757575" points="1429.59,-117.13 1439.27,-112.83 1429.02,-110.15 1429.59,-117.13"/>
</g>
<!-- component/chart/BarChart.tsx&#45;&gt;common/chart.ts -->
<g id="edge52" class="edge">
<title>component/chart/BarChart.tsx&#45;&gt;common/chart.ts</title>
<path fill="none" stroke="#757575" d="M1647.4,-145.32C1733.93,-145.32 1856.43,-145.32 1933.26,-145.32"/>
<polygon fill="#757575" stroke="#757575" points="1933.2,-148.82 1943.2,-145.32 1933.2,-141.82 1933.2,-148.82"/>
</g>
<!-- component/chart/ChartSvg.tsx -->
<g id="node40" class="node">
<title>component/chart/ChartSvg.tsx</title>
<path fill="none" stroke="#cfffac" d="M2101.33,-74.82C2101.33,-74.82 1910.67,-74.82 1910.67,-74.82 1906.83,-74.82 1903,-70.99 1903,-67.16 1903,-67.16 1903,-59.49 1903,-59.49 1903,-55.66 1906.83,-51.82 1910.67,-51.82 1910.67,-51.82 2101.33,-51.82 2101.33,-51.82 2105.17,-51.82 2109,-55.66 2109,-59.49 2109,-59.49 2109,-67.16 2109,-67.16 2109,-70.99 2105.17,-74.82 2101.33,-74.82"/>
<text text-anchor="middle" x="2006" y="-59.62" font-family="Arial" font-size="14.00" fill="#cfffac">component/chart/ChartSvg.tsx</text>
</g>
<!-- component/chart/BarChart.tsx&#45;&gt;component/chart/ChartSvg.tsx -->
<g id="edge53" class="edge">
<title>component/chart/BarChart.tsx&#45;&gt;component/chart/ChartSvg.tsx</title>
<path fill="none" stroke="#757575" d="M1647.23,-152.95C1691.87,-152.28 1743.74,-145.73 1786,-124.32 1807.63,-113.37 1800.49,-94.51 1822,-83.32 1843.17,-72.31 1867.57,-66.02 1891.5,-62.64"/>
<polygon fill="#757575" stroke="#757575" points="1891.82,-66.13 1901.32,-61.43 1890.96,-59.18 1891.82,-66.13"/>
</g>
<!-- hook/useResize.tsx -->
<g id="node41" class="node">
<title>hook/useResize.tsx</title>
<path fill="none" stroke="#cfffac" d="M2068.33,-115.82C2068.33,-115.82 1943.67,-115.82 1943.67,-115.82 1939.83,-115.82 1936,-111.99 1936,-108.16 1936,-108.16 1936,-100.49 1936,-100.49 1936,-96.66 1939.83,-92.82 1943.67,-92.82 1943.67,-92.82 2068.33,-92.82 2068.33,-92.82 2072.17,-92.82 2076,-96.66 2076,-100.49 2076,-100.49 2076,-108.16 2076,-108.16 2076,-111.99 2072.17,-115.82 2068.33,-115.82"/>
<text text-anchor="middle" x="2006" y="-100.62" font-family="Arial" font-size="14.00" fill="#cfffac">hook/useResize.tsx</text>
</g>
<!-- component/chart/BarChart.tsx&#45;&gt;hook/useResize.tsx -->
<g id="edge54" class="edge">
<title>component/chart/BarChart.tsx&#45;&gt;hook/useResize.tsx</title>
<path fill="none" stroke="#757575" d="M1647.31,-136.57C1690.08,-132.83 1740.48,-128.4 1786,-124.32 1831.88,-120.22 1883.16,-115.54 1924.56,-111.74"/>
<polygon fill="#757575" stroke="#757575" points="1924.82,-115.23 1934.45,-110.83 1924.18,-108.26 1924.82,-115.23"/>
</g>
<!-- component/chart/InformaticsChart.tsx&#45;&gt;types/chart.d.ts -->
<g id="edge56" class="edge">
<title>component/chart/InformaticsChart.tsx&#45;&gt;types/chart.d.ts</title>
<path fill="none" stroke="#757575" d="M1671.92,-183.23C1854.69,-178.71 2187.86,-170.48 2329.7,-166.97"/>
<polygon fill="#757575" stroke="#757575" points="2329.37,-170.48 2339.28,-166.74 2329.2,-163.49 2329.37,-170.48"/>
</g>
<!-- component/chart/InformaticsChart/InforMaticsBox.tsx -->
<g id="node42" class="node">
<title>component/chart/InformaticsChart/InforMaticsBox.tsx</title>
<path fill="none" stroke="#c6c5fe" d="M2173.33,-236.82C2173.33,-236.82 1838.67,-236.82 1838.67,-236.82 1834.83,-236.82 1831,-232.99 1831,-229.16 1831,-229.16 1831,-221.49 1831,-221.49 1831,-217.66 1834.83,-213.82 1838.67,-213.82 1838.67,-213.82 2173.33,-213.82 2173.33,-213.82 2177.17,-213.82 2181,-217.66 2181,-221.49 2181,-221.49 2181,-229.16 2181,-229.16 2181,-232.99 2177.17,-236.82 2173.33,-236.82"/>
<text text-anchor="middle" x="2006" y="-221.62" font-family="Arial" font-size="14.00" fill="#c6c5fe">component/chart/InformaticsChart/InforMaticsBox.tsx</text>
</g>
<!-- component/chart/InformaticsChart.tsx&#45;&gt;component/chart/InformaticsChart/InforMaticsBox.tsx -->
<g id="edge55" class="edge">
<title>component/chart/InformaticsChart.tsx&#45;&gt;component/chart/InformaticsChart/InforMaticsBox.tsx</title>
<path fill="none" stroke="#757575" d="M1671.79,-196.98C1727.71,-201.74 1794.1,-207.39 1852.85,-212.38"/>
<polygon fill="#757575" stroke="#757575" points="1852.34,-215.85 1862.6,-213.21 1852.93,-208.88 1852.34,-215.85"/>
</g>
<!-- component/chart/LineChart.tsx&#45;&gt;common/chart.ts -->
<g id="edge58" class="edge">
<title>component/chart/LineChart.tsx&#45;&gt;common/chart.ts</title>
<path fill="none" stroke="#757575" d="M1650.26,-112.71C1692.4,-116.19 1741.53,-120.34 1786,-124.32 1835.14,-128.73 1890.44,-134.04 1933.17,-138.21"/>
<polygon fill="#757575" stroke="#757575" points="1932.8,-141.69 1943.09,-139.18 1933.48,-134.73 1932.8,-141.69"/>
</g>
<!-- component/chart/LineChart.tsx&#45;&gt;types/chart.d.ts -->
<g id="edge61" class="edge">
<title>component/chart/LineChart.tsx&#45;&gt;types/chart.d.ts</title>
<path fill="none" stroke="#757575" d="M1650.48,-111.89C1694.38,-110.96 1744.76,-104.21 1786,-83.32 1807.63,-72.37 1799.91,-52.33 1822,-42.32 1971,25.13 2032.31,1.08 2190,-42.32 2263.86,-62.66 2337.99,-117.09 2374.01,-146.25"/>
<polygon fill="#757575" stroke="#757575" points="2371.61,-148.81 2381.56,-152.46 2376.06,-143.4 2371.61,-148.81"/>
</g>
<!-- component/chart/LineChart.tsx&#45;&gt;component/chart/ChartSvg.tsx -->
<g id="edge59" class="edge">
<title>component/chart/LineChart.tsx&#45;&gt;component/chart/ChartSvg.tsx</title>
<path fill="none" stroke="#757575" d="M1650.25,-95.31C1692.38,-91.63 1741.52,-87.31 1786,-83.32 1820.16,-80.27 1857.32,-76.89 1891.17,-73.8"/>
<polygon fill="#757575" stroke="#757575" points="1891.36,-77.3 1901,-72.9 1890.72,-70.32 1891.36,-77.3"/>
</g>
<!-- component/chart/LineChart.tsx&#45;&gt;hook/useResize.tsx -->
<g id="edge60" class="edge">
<title>component/chart/LineChart.tsx&#45;&gt;hook/useResize.tsx</title>
<path fill="none" stroke="#757575" d="M1650.25,-104.32C1733.3,-104.32 1848.1,-104.32 1924.35,-104.32"/>
<polygon fill="#757575" stroke="#757575" points="1924.27,-107.82 1934.27,-104.32 1924.27,-100.82 1924.27,-107.82"/>
</g>
<!-- component/Widget/WidgetPropsSettingModal.tsx -->
<g id="node37" class="node">
<title>component/Widget/WidgetPropsSettingModal.tsx</title>
<path fill="none" stroke="#c6c5fe" d="M760.33,-197.82C760.33,-197.82 446.67,-197.82 446.67,-197.82 442.83,-197.82 439,-193.99 439,-190.16 439,-190.16 439,-182.49 439,-182.49 439,-178.66 442.83,-174.82 446.67,-174.82 446.67,-174.82 760.33,-174.82 760.33,-174.82 764.17,-174.82 768,-178.66 768,-182.49 768,-182.49 768,-190.16 768,-190.16 768,-193.99 764.17,-197.82 760.33,-197.82"/>
<text text-anchor="middle" x="603.5" y="-182.62" font-family="Arial" font-size="14.00" fill="#c6c5fe">component/Widget/WidgetPropsSettingModal.tsx</text>
</g>
<!-- component/Widget/WidgetPropsSettingModal.tsx&#45;&gt;common/api.ts -->
<g id="edge47" class="edge">
<title>component/Widget/WidgetPropsSettingModal.tsx&#45;&gt;common/api.ts</title>
<path fill="none" stroke="#757575" d="M635.41,-174.43C674.17,-160.06 742.96,-136.3 804,-124.32 859.29,-113.48 923.15,-108.51 969.78,-106.24"/>
<polygon fill="#757575" stroke="#757575" points="969.91,-109.74 979.74,-105.79 969.59,-102.75 969.91,-109.74"/>
</g>
<!-- component/Widget/WidgetPropsSettingModal.tsx&#45;&gt;store/WidgetProvider.tsx -->
<g id="edge50" class="edge">
<title>component/Widget/WidgetPropsSettingModal.tsx&#45;&gt;store/WidgetProvider.tsx</title>
<path fill="none" stroke="#757575" d="M719.45,-198.31C747.12,-201.06 776.61,-203.9 804,-206.32 1034.56,-226.75 1305.89,-246.56 1447.44,-256.57"/>
<polygon fill="#757575" stroke="#757575" points="1446.92,-260.04 1457.14,-257.26 1447.41,-253.06 1446.92,-260.04"/>
</g>
<!-- component/Widget/WidgetPropsSettingModal/WidgetPropsButtons.tsx -->
<g id="node38" class="node">
<title>component/Widget/WidgetPropsSettingModal/WidgetPropsButtons.tsx</title>
<path fill="none" stroke="#c6c5fe" d="M1261.33,-197.82C1261.33,-197.82 811.67,-197.82 811.67,-197.82 807.83,-197.82 804,-193.99 804,-190.16 804,-190.16 804,-182.49 804,-182.49 804,-178.66 807.83,-174.82 811.67,-174.82 811.67,-174.82 1261.33,-174.82 1261.33,-174.82 1265.17,-174.82 1269,-178.66 1269,-182.49 1269,-182.49 1269,-190.16 1269,-190.16 1269,-193.99 1265.17,-197.82 1261.33,-197.82"/>
<text text-anchor="middle" x="1036.5" y="-182.62" font-family="Arial" font-size="14.00" fill="#c6c5fe">component/Widget/WidgetPropsSettingModal/WidgetPropsButtons.tsx</text>
</g>
<!-- component/Widget/WidgetPropsSettingModal.tsx&#45;&gt;component/Widget/WidgetPropsSettingModal/WidgetPropsButtons.tsx -->
<g id="edge48" class="edge">
<title>component/Widget/WidgetPropsSettingModal.tsx&#45;&gt;component/Widget/WidgetPropsSettingModal/WidgetPropsButtons.tsx</title>
<path fill="none" stroke="#757575" d="M768.36,-186.32C776.29,-186.32 784.32,-186.32 792.4,-186.32"/>
<polygon fill="#757575" stroke="#757575" points="792.33,-189.82 802.33,-186.32 792.33,-182.82 792.33,-189.82"/>
</g>
<!-- component/Widget/WidgetPropsSettingModal/WidgetPropsList.tsx -->
<g id="node39" class="node">
<title>component/Widget/WidgetPropsSettingModal/WidgetPropsList.tsx</title>
<path fill="none" stroke="#cfffac" d="M1248.83,-74.82C1248.83,-74.82 824.17,-74.82 824.17,-74.82 820.33,-74.82 816.5,-70.99 816.5,-67.16 816.5,-67.16 816.5,-59.49 816.5,-59.49 816.5,-55.66 820.33,-51.82 824.17,-51.82 824.17,-51.82 1248.83,-51.82 1248.83,-51.82 1252.67,-51.82 1256.5,-55.66 1256.5,-59.49 1256.5,-59.49 1256.5,-67.16 1256.5,-67.16 1256.5,-70.99 1252.67,-74.82 1248.83,-74.82"/>
<text text-anchor="middle" x="1036.5" y="-59.62" font-family="Arial" font-size="14.00" fill="#cfffac">component/Widget/WidgetPropsSettingModal/WidgetPropsList.tsx</text>
</g>
<!-- component/Widget/WidgetPropsSettingModal.tsx&#45;&gt;component/Widget/WidgetPropsSettingModal/WidgetPropsList.tsx -->
<g id="edge49" class="edge">
<title>component/Widget/WidgetPropsSettingModal.tsx&#45;&gt;component/Widget/WidgetPropsSettingModal/WidgetPropsList.tsx</title>
<path fill="none" stroke="#757575" d="M621.67,-174.48C655.04,-152.15 731.73,-104.21 804,-83.32 811.08,-81.28 818.32,-79.42 825.68,-77.74"/>
<polygon fill="#757575" stroke="#757575" points="826.39,-81.17 835.43,-75.64 824.92,-74.32 826.39,-81.17"/>
</g>
<!-- component/Widget/WidgetPropsSettingModal/WidgetPropsButtons.tsx&#45;&gt;store/WidgetProvider.tsx -->
<g id="edge51" class="edge">
<title>component/Widget/WidgetPropsSettingModal/WidgetPropsButtons.tsx&#45;&gt;store/WidgetProvider.tsx</title>
<path fill="none" stroke="#757575" d="M1158.76,-198.3C1194.35,-202.26 1233.3,-207.02 1269,-212.32 1339.67,-222.82 1419.94,-238.06 1475.53,-249.15"/>
<polygon fill="#757575" stroke="#757575" points="1474.68,-252.55 1485.17,-251.08 1476.05,-245.68 1474.68,-252.55"/>
</g>
<!-- component/chart/InformaticsChart/InforMaticsBox.tsx&#45;&gt;types/chart.d.ts -->
<g id="edge57" class="edge">
<title>component/chart/InformaticsChart/InforMaticsBox.tsx&#45;&gt;types/chart.d.ts</title>
<path fill="none" stroke="#757575" d="M2094.09,-213.35C2124.46,-209.07 2158.76,-204.12 2190,-199.32 2236.68,-192.17 2289.19,-183.51 2329.58,-176.73"/>
<polygon fill="#757575" stroke="#757575" points="2330.13,-180.18 2339.41,-175.07 2328.96,-173.28 2330.13,-180.18"/>
</g>
<!-- component/common/DatePicker/DatePickerTitle.tsx&#45;&gt;types/widget.d.ts -->
<g id="edge65" class="edge">
<title>component/common/DatePicker/DatePickerTitle.tsx&#45;&gt;types/widget.d.ts</title>
<path fill="none" stroke="#757575" d="M2496.91,-761.34C2520.67,-757.61 2545.87,-752.97 2569,-747.32 2650.58,-727.42 2742.78,-693.37 2794.09,-673.35"/>
<polygon fill="#757575" stroke="#757575" points="2795.26,-676.65 2803.29,-669.73 2792.7,-670.13 2795.26,-676.65"/>
</g>
<!-- component/common/DatePicker/ListPicker.tsx&#45;&gt;types/datePicker.d.ts -->
<g id="edge67" class="edge">
<title>component/common/DatePicker/ListPicker.tsx&#45;&gt;types/datePicker.d.ts</title>
<path fill="none" stroke="#757575" d="M2521.06,-841.35C2548.67,-838.68 2577.84,-835.89 2605,-833.32 2652.62,-828.84 2705.81,-823.95 2748.94,-820.02"/>
<polygon fill="#757575" stroke="#757575" points="2749.1,-823.52 2758.74,-819.13 2748.47,-816.55 2749.1,-823.52"/>
</g>
<!-- component/common/DatePicker/ListPickerItem.tsx -->
<g id="node46" class="node">
<title>component/common/DatePicker/ListPickerItem.tsx</title>
<path fill="none" stroke="#c6c5fe" d="M2995.83,-864.82C2995.83,-864.82 2674.17,-864.82 2674.17,-864.82 2670.33,-864.82 2666.5,-860.99 2666.5,-857.16 2666.5,-857.16 2666.5,-849.49 2666.5,-849.49 2666.5,-845.66 2670.33,-841.82 2674.17,-841.82 2674.17,-841.82 2995.83,-841.82 2995.83,-841.82 2999.67,-841.82 3003.5,-845.66 3003.5,-849.49 3003.5,-849.49 3003.5,-857.16 3003.5,-857.16 3003.5,-860.99 2999.67,-864.82 2995.83,-864.82"/>
<text text-anchor="middle" x="2835" y="-849.62" font-family="Arial" font-size="14.00" fill="#c6c5fe">component/common/DatePicker/ListPickerItem.tsx</text>
</g>
<!-- component/common/DatePicker/ListPicker.tsx&#45;&gt;component/common/DatePicker/ListPickerItem.tsx -->
<g id="edge66" class="edge">
<title>component/common/DatePicker/ListPicker.tsx&#45;&gt;component/common/DatePicker/ListPickerItem.tsx</title>
<path fill="none" stroke="#757575" d="M2551.73,-853.32C2585.12,-853.32 2620.72,-853.32 2655,-853.32"/>
<polygon fill="#757575" stroke="#757575" points="2654.57,-856.82 2664.57,-853.32 2654.57,-849.82 2654.57,-856.82"/>
</g>
<!-- component/common/DatePicker/ListPickerItem.tsx&#45;&gt;component/Dashboard/CommonStyle.ts -->
<g id="edge68" class="edge">
<title>component/common/DatePicker/ListPickerItem.tsx&#45;&gt;component/Dashboard/CommonStyle.ts</title>
<path fill="none" stroke="#757575" d="M2980.56,-865.3C3008.73,-868.88 3037.92,-873.47 3065,-879.32 3110,-889.06 3159.97,-905.99 3194.02,-918.51"/>
<polygon fill="#757575" stroke="#757575" points="3192.48,-921.67 3203.07,-921.87 3194.92,-915.11 3192.48,-921.67"/>
</g>
<!-- page/Dashboard.tsx&#45;&gt;component/Dashboard/DashboardHeader.tsx -->
<g id="edge69" class="edge">
<title>page/Dashboard.tsx&#45;&gt;component/Dashboard/DashboardHeader.tsx</title>
<path fill="none" stroke="#757575" d="M334.82,-434.11C343.78,-469.18 374.91,-573.96 439,-631.32 464.5,-654.14 499.24,-668.89 530.14,-678.24"/>
<polygon fill="#757575" stroke="#757575" points="528.85,-681.52 539.43,-680.91 530.79,-674.79 528.85,-681.52"/>
</g>
<!-- page/Dashboard.tsx&#45;&gt;store/DashboardProvider.tsx -->
<g id="edge72" class="edge">
<title>page/Dashboard.tsx&#45;&gt;store/DashboardProvider.tsx</title>
<path fill="none" stroke="#757575" d="M357.07,-434.27C426.28,-466.55 626.59,-555.3 804,-588.32 1011.37,-626.93 1640.79,-622.63 1895.88,-619.13"/>
<polygon fill="#757575" stroke="#757575" points="1895.91,-622.63 1905.86,-618.99 1895.82,-615.63 1895.91,-622.63"/>
</g>
<!-- page/Dashboard.tsx&#45;&gt;store/WidgetProvider.tsx -->
<g id="edge73" class="edge">
<title>page/Dashboard.tsx&#45;&gt;store/WidgetProvider.tsx</title>
<path fill="none" stroke="#757575" d="M362.29,-410.4C436.28,-381.93 632.71,-310.39 804,-283.32 1032.35,-247.25 1305.12,-251.97 1447.34,-257.99"/>
<polygon fill="#757575" stroke="#757575" points="1446.95,-261.48 1457.09,-258.41 1447.25,-254.48 1446.95,-261.48"/>
</g>
<!-- page/Dashboard.tsx&#45;&gt;component/Widget.tsx -->
<g id="edge70" class="edge">
<title>page/Dashboard.tsx&#45;&gt;component/Widget.tsx</title>
<path fill="none" stroke="#757575" d="M403.42,-422.32C436.76,-422.32 476.8,-422.32 512.21,-422.32"/>
<polygon fill="#757575" stroke="#757575" points="512.01,-425.82 522.01,-422.32 512.01,-418.82 512.01,-425.82"/>
</g>
<!-- page/Dashboard.tsx&#45;&gt;component/Widget/WidgetPropsSettingModal.tsx -->
<g id="edge71" class="edge">
<title>page/Dashboard.tsx&#45;&gt;component/Widget/WidgetPropsSettingModal.tsx</title>
<path fill="none" stroke="#757575" d="M336.28,-410.5C347.96,-379.79 383.3,-296.64 439,-250.32 467.22,-226.86 505.05,-211.31 537.22,-201.42"/>
<polygon fill="#757575" stroke="#757575" points="537.84,-204.89 546.44,-198.71 535.86,-198.17 537.84,-204.89"/>
</g>
</g>
</svg>
