<?xml version="1.0" encoding="UTF-8" standalone="no"?>
<!DOCTYPE svg PUBLIC "-//W3C//DTD SVG 1.1//EN"
 "http://www.w3.org/Graphics/SVG/1.1/DTD/svg11.dtd">
<!-- Generated by graphviz version 7.1.0 (20230121.1956)
 -->
<!-- Title: G Pages: 1 -->
<svg width="2963pt" height="1030pt"
 viewBox="0.00 0.00 2963.20 1030.27" xmlns="http://www.w3.org/2000/svg" xmlns:xlink="http://www.w3.org/1999/xlink">
<g id="graph0" class="graph" transform="scale(1 1) rotate(0) translate(21.6 1008.67)">
<title>G</title>
<polygon fill="#111111" stroke="none" points="-21.6,21.6 -21.6,-1008.67 2941.6,-1008.67 2941.6,21.6 -21.6,21.6"/>
<!-- App.tsx -->
<g id="node1" class="node">
<title>App.tsx</title>
<path fill="none" stroke="#c6c5fe" d="M57.33,-664.07C57.33,-664.07 7.67,-664.07 7.67,-664.07 3.83,-664.07 0,-660.23 0,-656.4 0,-656.4 0,-648.73 0,-648.73 0,-644.9 3.83,-641.07 7.67,-641.07 7.67,-641.07 57.33,-641.07 57.33,-641.07 61.17,-641.07 65,-644.9 65,-648.73 65,-648.73 65,-656.4 65,-656.4 65,-660.23 61.17,-664.07 57.33,-664.07"/>
<text text-anchor="middle" x="32.5" y="-648.87" font-family="Arial" font-size="14.00" fill="#c6c5fe">App.tsx</text>
</g>
<!-- router/Router.tsx -->
<g id="node2" class="node">
<title>router/Router.tsx</title>
<path fill="none" stroke="#c6c5fe" d="M215.33,-664.07C215.33,-664.07 108.67,-664.07 108.67,-664.07 104.83,-664.07 101,-660.23 101,-656.4 101,-656.4 101,-648.73 101,-648.73 101,-644.9 104.83,-641.07 108.67,-641.07 108.67,-641.07 215.33,-641.07 215.33,-641.07 219.17,-641.07 223,-644.9 223,-648.73 223,-648.73 223,-656.4 223,-656.4 223,-660.23 219.17,-664.07 215.33,-664.07"/>
<text text-anchor="middle" x="162" y="-648.87" font-family="Arial" font-size="14.00" fill="#c6c5fe">router/Router.tsx</text>
</g>
<!-- App.tsx&#45;&gt;router/Router.tsx -->
<g id="edge1" class="edge">
<title>App.tsx&#45;&gt;router/Router.tsx</title>
<path fill="none" stroke="#757575" d="M65.34,-652.57C72.7,-652.57 80.81,-652.57 89.12,-652.57"/>
<polygon fill="#757575" stroke="#757575" points="88.99,-656.07 98.99,-652.57 88.99,-649.07 88.99,-656.07"/>
</g>
<!-- page/Dashboard.tsx -->
<g id="node49" class="node">
<title>page/Dashboard.tsx</title>
<path fill="none" stroke="#c6c5fe" d="M395.33,-664.07C395.33,-664.07 266.67,-664.07 266.67,-664.07 262.83,-664.07 259,-660.23 259,-656.4 259,-656.4 259,-648.73 259,-648.73 259,-644.9 262.83,-641.07 266.67,-641.07 266.67,-641.07 395.33,-641.07 395.33,-641.07 399.17,-641.07 403,-644.9 403,-648.73 403,-648.73 403,-656.4 403,-656.4 403,-660.23 399.17,-664.07 395.33,-664.07"/>
<text text-anchor="middle" x="331" y="-648.87" font-family="Arial" font-size="14.00" fill="#c6c5fe">page/Dashboard.tsx</text>
</g>
<!-- router/Router.tsx&#45;&gt;page/Dashboard.tsx -->
<g id="edge70" class="edge">
<title>router/Router.tsx&#45;&gt;page/Dashboard.tsx</title>
<path fill="none" stroke="#757575" d="M223.29,-652.57C231.1,-652.57 239.21,-652.57 247.3,-652.57"/>
<polygon fill="#757575" stroke="#757575" points="247.19,-656.07 257.19,-652.57 247.19,-649.07 247.19,-656.07"/>
</g>
<!-- asset/image/pause.png -->
<g id="node3" class="node">
<title>asset/image/pause.png</title>
<path fill="none" stroke="#cfffac" d="M1502.83,-864.07C1502.83,-864.07 1354.17,-864.07 1354.17,-864.07 1350.33,-864.07 1346.5,-860.23 1346.5,-856.4 1346.5,-856.4 1346.5,-848.73 1346.5,-848.73 1346.5,-844.9 1350.33,-841.07 1354.17,-841.07 1354.17,-841.07 1502.83,-841.07 1502.83,-841.07 1506.67,-841.07 1510.5,-844.9 1510.5,-848.73 1510.5,-848.73 1510.5,-856.4 1510.5,-856.4 1510.5,-860.23 1506.67,-864.07 1502.83,-864.07"/>
<text text-anchor="middle" x="1428.5" y="-848.87" font-family="Arial" font-size="14.00" fill="#cfffac">asset/image/pause.png</text>
</g>
<!-- asset/image/play.png -->
<g id="node4" class="node">
<title>asset/image/play.png</title>
<path fill="none" stroke="#cfffac" d="M1496.33,-905.07C1496.33,-905.07 1360.67,-905.07 1360.67,-905.07 1356.83,-905.07 1353,-901.23 1353,-897.4 1353,-897.4 1353,-889.73 1353,-889.73 1353,-885.9 1356.83,-882.07 1360.67,-882.07 1360.67,-882.07 1496.33,-882.07 1496.33,-882.07 1500.17,-882.07 1504,-885.9 1504,-889.73 1504,-889.73 1504,-897.4 1504,-897.4 1504,-901.23 1500.17,-905.07 1496.33,-905.07"/>
<text text-anchor="middle" x="1428.5" y="-889.87" font-family="Arial" font-size="14.00" fill="#cfffac">asset/image/play.png</text>
</g>
<!-- common/api.ts -->
<g id="node5" class="node">
<title>common/api.ts</title>
<path fill="none" stroke="#c6c5fe" d="M1983.83,-511.07C1983.83,-511.07 1889.17,-511.07 1889.17,-511.07 1885.33,-511.07 1881.5,-507.23 1881.5,-503.4 1881.5,-503.4 1881.5,-495.73 1881.5,-495.73 1881.5,-491.9 1885.33,-488.07 1889.17,-488.07 1889.17,-488.07 1983.83,-488.07 1983.83,-488.07 1987.67,-488.07 1991.5,-491.9 1991.5,-495.73 1991.5,-495.73 1991.5,-503.4 1991.5,-503.4 1991.5,-507.23 1987.67,-511.07 1983.83,-511.07"/>
<text text-anchor="middle" x="1936.5" y="-495.87" font-family="Arial" font-size="14.00" fill="#c6c5fe">common/api.ts</text>
</g>
<!-- types/api.d.ts -->
<g id="node6" class="node">
<title>types/api.d.ts</title>
<path fill="none" stroke="#cfffac" d="M2418.33,-511.07C2418.33,-511.07 2332.67,-511.07 2332.67,-511.07 2328.83,-511.07 2325,-507.23 2325,-503.4 2325,-503.4 2325,-495.73 2325,-495.73 2325,-491.9 2328.83,-488.07 2332.67,-488.07 2332.67,-488.07 2418.33,-488.07 2418.33,-488.07 2422.17,-488.07 2426,-491.9 2426,-495.73 2426,-495.73 2426,-503.4 2426,-503.4 2426,-507.23 2422.17,-511.07 2418.33,-511.07"/>
<text text-anchor="middle" x="2375.5" y="-495.87" font-family="Arial" font-size="14.00" fill="#cfffac">types/api.d.ts</text>
</g>
<!-- common/api.ts&#45;&gt;types/api.d.ts -->
<g id="edge2" class="edge">
<title>common/api.ts&#45;&gt;types/api.d.ts</title>
<path fill="none" stroke="#757575" d="M1991.96,-499.57C2073.77,-499.57 2227.89,-499.57 2313.41,-499.57"/>
<polygon fill="#757575" stroke="#757575" points="2313.25,-503.07 2323.25,-499.57 2313.25,-496.07 2313.25,-503.07"/>
</g>
<!-- common/chart.ts -->
<g id="node7" class="node">
<title>common/chart.ts</title>
<path fill="none" stroke="#c6c5fe" d="M1989.83,-69.07C1989.83,-69.07 1883.17,-69.07 1883.17,-69.07 1879.33,-69.07 1875.5,-65.23 1875.5,-61.4 1875.5,-61.4 1875.5,-53.73 1875.5,-53.73 1875.5,-49.9 1879.33,-46.07 1883.17,-46.07 1883.17,-46.07 1989.83,-46.07 1989.83,-46.07 1993.67,-46.07 1997.5,-49.9 1997.5,-53.73 1997.5,-53.73 1997.5,-61.4 1997.5,-61.4 1997.5,-65.23 1993.67,-69.07 1989.83,-69.07"/>
<text text-anchor="middle" x="1936.5" y="-53.87" font-family="Arial" font-size="14.00" fill="#c6c5fe">common/chart.ts</text>
</g>
<!-- types/chart.d.ts -->
<g id="node8" class="node">
<title>types/chart.d.ts</title>
<path fill="none" stroke="#cfffac" d="M2424.33,-211.07C2424.33,-211.07 2326.67,-211.07 2326.67,-211.07 2322.83,-211.07 2319,-207.23 2319,-203.4 2319,-203.4 2319,-195.73 2319,-195.73 2319,-191.9 2322.83,-188.07 2326.67,-188.07 2326.67,-188.07 2424.33,-188.07 2424.33,-188.07 2428.17,-188.07 2432,-191.9 2432,-195.73 2432,-195.73 2432,-203.4 2432,-203.4 2432,-207.23 2428.17,-211.07 2424.33,-211.07"/>
<text text-anchor="middle" x="2375.5" y="-195.87" font-family="Arial" font-size="14.00" fill="#cfffac">types/chart.d.ts</text>
</g>
<!-- common/chart.ts&#45;&gt;types/chart.d.ts -->
<g id="edge3" class="edge">
<title>common/chart.ts&#45;&gt;types/chart.d.ts</title>
<path fill="none" stroke="#757575" d="M1997.67,-55.56C2045.03,-55.68 2112.15,-59.67 2168,-77.57 2240.44,-100.78 2314.64,-152.99 2351.21,-180.99"/>
<polygon fill="#757575" stroke="#757575" points="2348.84,-183.58 2358.89,-186.95 2353.14,-178.05 2348.84,-183.58"/>
</g>
<!-- common/date.ts -->
<g id="node9" class="node">
<title>common/date.ts</title>
<path fill="none" stroke="#cfffac" d="M2427.33,-661.07C2427.33,-661.07 2323.67,-661.07 2323.67,-661.07 2319.83,-661.07 2316,-657.23 2316,-653.4 2316,-653.4 2316,-645.73 2316,-645.73 2316,-641.9 2319.83,-638.07 2323.67,-638.07 2323.67,-638.07 2427.33,-638.07 2427.33,-638.07 2431.17,-638.07 2435,-641.9 2435,-645.73 2435,-645.73 2435,-653.4 2435,-653.4 2435,-657.23 2431.17,-661.07 2427.33,-661.07"/>
<text text-anchor="middle" x="2375.5" y="-645.87" font-family="Arial" font-size="14.00" fill="#cfffac">common/date.ts</text>
</g>
<!-- common/widget.ts -->
<g id="node10" class="node">
<title>common/widget.ts</title>
<path fill="none" stroke="#cfffac" d="M1994.83,-393.07C1994.83,-393.07 1878.17,-393.07 1878.17,-393.07 1874.33,-393.07 1870.5,-389.23 1870.5,-385.4 1870.5,-385.4 1870.5,-377.73 1870.5,-377.73 1870.5,-373.9 1874.33,-370.07 1878.17,-370.07 1878.17,-370.07 1994.83,-370.07 1994.83,-370.07 1998.67,-370.07 2002.5,-373.9 2002.5,-377.73 2002.5,-377.73 2002.5,-385.4 2002.5,-385.4 2002.5,-389.23 1998.67,-393.07 1994.83,-393.07"/>
<text text-anchor="middle" x="1936.5" y="-377.87" font-family="Arial" font-size="14.00" fill="#cfffac">common/widget.ts</text>
</g>
<!-- component/Dashboard/DashboardHeader.tsx -->
<g id="node11" class="node">
<title>component/Dashboard/DashboardHeader.tsx</title>
<path fill="none" stroke="#c6c5fe" d="M734.33,-763.07C734.33,-763.07 446.67,-763.07 446.67,-763.07 442.83,-763.07 439,-759.23 439,-755.4 439,-755.4 439,-747.73 439,-747.73 439,-743.9 442.83,-740.07 446.67,-740.07 446.67,-740.07 734.33,-740.07 734.33,-740.07 738.17,-740.07 742,-743.9 742,-747.73 742,-747.73 742,-755.4 742,-755.4 742,-759.23 738.17,-763.07 734.33,-763.07"/>
<text text-anchor="middle" x="590.5" y="-747.87" font-family="Arial" font-size="14.00" fill="#c6c5fe">component/Dashboard/DashboardHeader.tsx</text>
</g>
<!-- component/Dashboard/DashboardHeader/PlayIcon.tsx -->
<g id="node12" class="node">
<title>component/Dashboard/DashboardHeader/PlayIcon.tsx</title>
<path fill="none" stroke="#c6c5fe" d="M1138.33,-864.07C1138.33,-864.07 791.67,-864.07 791.67,-864.07 787.83,-864.07 784,-860.23 784,-856.4 784,-856.4 784,-848.73 784,-848.73 784,-844.9 787.83,-841.07 791.67,-841.07 791.67,-841.07 1138.33,-841.07 1138.33,-841.07 1142.17,-841.07 1146,-844.9 1146,-848.73 1146,-848.73 1146,-856.4 1146,-856.4 1146,-860.23 1142.17,-864.07 1138.33,-864.07"/>
<text text-anchor="middle" x="965" y="-848.87" font-family="Arial" font-size="14.00" fill="#c6c5fe">component/Dashboard/DashboardHeader/PlayIcon.tsx</text>
</g>
<!-- component/Dashboard/DashboardHeader.tsx&#45;&gt;component/Dashboard/DashboardHeader/PlayIcon.tsx -->
<g id="edge4" class="edge">
<title>component/Dashboard/DashboardHeader.tsx&#45;&gt;component/Dashboard/DashboardHeader/PlayIcon.tsx</title>
<path fill="none" stroke="#757575" d="M635.69,-763.55C703.88,-782.04 834.62,-817.49 908.89,-837.62"/>
<polygon fill="#757575" stroke="#757575" points="907.84,-840.97 918.4,-840.2 909.67,-834.21 907.84,-840.97"/>
</g>
<!-- component/Dashboard/DashboardHeader/SelectRealTimeRangeArea.tsx -->
<g id="node13" class="node">
<title>component/Dashboard/DashboardHeader/SelectRealTimeRangeArea.tsx</title>
<path fill="none" stroke="#c6c5fe" d="M1661.33,-946.07C1661.33,-946.07 1195.67,-946.07 1195.67,-946.07 1191.83,-946.07 1188,-942.23 1188,-938.4 1188,-938.4 1188,-930.73 1188,-930.73 1188,-926.9 1191.83,-923.07 1195.67,-923.07 1195.67,-923.07 1661.33,-923.07 1661.33,-923.07 1665.17,-923.07 1669,-926.9 1669,-930.73 1669,-930.73 1669,-938.4 1669,-938.4 1669,-942.23 1665.17,-946.07 1661.33,-946.07"/>
<text text-anchor="middle" x="1428.5" y="-930.87" font-family="Arial" font-size="14.00" fill="#c6c5fe">component/Dashboard/DashboardHeader/SelectRealTimeRangeArea.tsx</text>
</g>
<!-- component/Dashboard/DashboardHeader.tsx&#45;&gt;component/Dashboard/DashboardHeader/SelectRealTimeRangeArea.tsx -->
<g id="edge5" class="edge">
<title>component/Dashboard/DashboardHeader.tsx&#45;&gt;component/Dashboard/DashboardHeader/SelectRealTimeRangeArea.tsx</title>
<path fill="none" stroke="#757575" d="M604.78,-763.48C633.78,-788.68 705.92,-847.17 778,-872.57 904.65,-917.2 1053.28,-933.79 1176.38,-938.74"/>
<polygon fill="#757575" stroke="#757575" points="1176.2,-942.23 1186.32,-939.11 1176.46,-935.24 1176.2,-942.23"/>
</g>
<!-- component/Dashboard/DashboardHeader/TimeBlock.tsx -->
<g id="node14" class="node">
<title>component/Dashboard/DashboardHeader/TimeBlock.tsx</title>
<path fill="none" stroke="#c6c5fe" d="M1144.33,-782.07C1144.33,-782.07 785.67,-782.07 785.67,-782.07 781.83,-782.07 778,-778.23 778,-774.4 778,-774.4 778,-766.73 778,-766.73 778,-762.9 781.83,-759.07 785.67,-759.07 785.67,-759.07 1144.33,-759.07 1144.33,-759.07 1148.17,-759.07 1152,-762.9 1152,-766.73 1152,-766.73 1152,-774.4 1152,-774.4 1152,-778.23 1148.17,-782.07 1144.33,-782.07"/>
<text text-anchor="middle" x="965" y="-766.87" font-family="Arial" font-size="14.00" fill="#c6c5fe">component/Dashboard/DashboardHeader/TimeBlock.tsx</text>
</g>
<!-- component/Dashboard/DashboardHeader.tsx&#45;&gt;component/Dashboard/DashboardHeader/TimeBlock.tsx -->
<g id="edge6" class="edge">
<title>component/Dashboard/DashboardHeader.tsx&#45;&gt;component/Dashboard/DashboardHeader/TimeBlock.tsx</title>
<path fill="none" stroke="#757575" d="M742.47,-759.27C750.35,-759.67 758.32,-760.08 766.32,-760.48"/>
<polygon fill="#757575" stroke="#757575" points="765.96,-763.97 776.13,-760.99 766.32,-756.98 765.96,-763.97"/>
</g>
<!-- store/DashboardProvider.tsx -->
<g id="node15" class="node">
<title>store/DashboardProvider.tsx</title>
<path fill="none" stroke="#c6c5fe" d="M2027.33,-661.07C2027.33,-661.07 1845.67,-661.07 1845.67,-661.07 1841.83,-661.07 1838,-657.23 1838,-653.4 1838,-653.4 1838,-645.73 1838,-645.73 1838,-641.9 1841.83,-638.07 1845.67,-638.07 1845.67,-638.07 2027.33,-638.07 2027.33,-638.07 2031.17,-638.07 2035,-641.9 2035,-645.73 2035,-645.73 2035,-653.4 2035,-653.4 2035,-657.23 2031.17,-661.07 2027.33,-661.07"/>
<text text-anchor="middle" x="1936.5" y="-645.87" font-family="Arial" font-size="14.00" fill="#c6c5fe">store/DashboardProvider.tsx</text>
</g>
<!-- component/Dashboard/DashboardHeader.tsx&#45;&gt;store/DashboardProvider.tsx -->
<g id="edge7" class="edge">
<title>component/Dashboard/DashboardHeader.tsx&#45;&gt;store/DashboardProvider.tsx</title>
<path fill="none" stroke="#757575" d="M742.36,-748.21C1028.98,-741.42 1627.51,-725.12 1669,-706.57 1689.95,-697.2 1684.27,-679.4 1705,-669.57 1742.16,-651.95 1786.46,-645.22 1826.26,-643.49"/>
<polygon fill="#757575" stroke="#757575" points="1826.23,-647 1836.11,-643.18 1826,-640 1826.23,-647"/>
</g>
<!-- store/WidgetPropsSettingModalProvider.tsx -->
<g id="node16" class="node">
<title>store/WidgetPropsSettingModalProvider.tsx</title>
<path fill="none" stroke="#c6c5fe" d="M1567.83,-664.07C1567.83,-664.07 1289.17,-664.07 1289.17,-664.07 1285.33,-664.07 1281.5,-660.23 1281.5,-656.4 1281.5,-656.4 1281.5,-648.73 1281.5,-648.73 1281.5,-644.9 1285.33,-641.07 1289.17,-641.07 1289.17,-641.07 1567.83,-641.07 1567.83,-641.07 1571.67,-641.07 1575.5,-644.9 1575.5,-648.73 1575.5,-648.73 1575.5,-656.4 1575.5,-656.4 1575.5,-660.23 1571.67,-664.07 1567.83,-664.07"/>
<text text-anchor="middle" x="1428.5" y="-648.87" font-family="Arial" font-size="14.00" fill="#c6c5fe">store/WidgetPropsSettingModalProvider.tsx</text>
</g>
<!-- component/Dashboard/DashboardHeader.tsx&#45;&gt;store/WidgetPropsSettingModalProvider.tsx -->
<g id="edge8" class="edge">
<title>component/Dashboard/DashboardHeader.tsx&#45;&gt;store/WidgetPropsSettingModalProvider.tsx</title>
<path fill="none" stroke="#757575" d="M648.01,-739.63C684.88,-732.18 734.14,-722.83 778,-716.57 945.3,-692.67 1138.13,-674.9 1269.95,-664.22"/>
<polygon fill="#757575" stroke="#757575" points="1270.12,-667.72 1279.81,-663.43 1269.56,-660.74 1270.12,-667.72"/>
</g>
<!-- component/Dashboard/DashboardHeader/PlayIcon.tsx&#45;&gt;asset/image/pause.png -->
<g id="edge16" class="edge">
<title>component/Dashboard/DashboardHeader/PlayIcon.tsx&#45;&gt;asset/image/pause.png</title>
<path fill="none" stroke="#757575" d="M1146.41,-852.57C1210.84,-852.57 1280.78,-852.57 1334.78,-852.57"/>
<polygon fill="#757575" stroke="#757575" points="1334.54,-856.07 1344.54,-852.57 1334.54,-849.07 1334.54,-856.07"/>
</g>
<!-- component/Dashboard/DashboardHeader/PlayIcon.tsx&#45;&gt;asset/image/play.png -->
<g id="edge17" class="edge">
<title>component/Dashboard/DashboardHeader/PlayIcon.tsx&#45;&gt;asset/image/play.png</title>
<path fill="none" stroke="#757575" d="M1098.35,-864.54C1127.86,-867.2 1158.99,-869.99 1188,-872.57 1238.78,-877.08 1295.63,-882.07 1341.19,-886.05"/>
<polygon fill="#757575" stroke="#757575" points="1340.75,-889.52 1351.02,-886.91 1341.36,-882.55 1340.75,-889.52"/>
</g>
<!-- hook/useBoolean.tsx -->
<g id="node22" class="node">
<title>hook/useBoolean.tsx</title>
<path fill="none" stroke="#cfffac" d="M2003.33,-743.07C2003.33,-743.07 1869.67,-743.07 1869.67,-743.07 1865.83,-743.07 1862,-739.23 1862,-735.4 1862,-735.4 1862,-727.73 1862,-727.73 1862,-723.9 1865.83,-720.07 1869.67,-720.07 1869.67,-720.07 2003.33,-720.07 2003.33,-720.07 2007.17,-720.07 2011,-723.9 2011,-727.73 2011,-727.73 2011,-735.4 2011,-735.4 2011,-739.23 2007.17,-743.07 2003.33,-743.07"/>
<text text-anchor="middle" x="1936.5" y="-727.87" font-family="Arial" font-size="14.00" fill="#cfffac">hook/useBoolean.tsx</text>
</g>
<!-- component/Dashboard/DashboardHeader/SelectRealTimeRangeArea.tsx&#45;&gt;hook/useBoolean.tsx -->
<g id="edge20" class="edge">
<title>component/Dashboard/DashboardHeader/SelectRealTimeRangeArea.tsx&#45;&gt;hook/useBoolean.tsx</title>
<path fill="none" stroke="#757575" d="M1486.76,-946.56C1539.96,-954.18 1618.38,-955.99 1669,-914.57 1713.41,-878.23 1663.78,-830.49 1705,-790.57 1743.39,-753.39 1801.85,-738.72 1850.29,-733.3"/>
<polygon fill="#757575" stroke="#757575" points="1850.61,-736.79 1860.22,-732.32 1849.93,-729.82 1850.61,-736.79"/>
</g>
<!-- hook/useOutsideClick.tsx -->
<g id="node23" class="node">
<title>hook/useOutsideClick.tsx</title>
<path fill="none" stroke="#cfffac" d="M2016.83,-905.07C2016.83,-905.07 1856.17,-905.07 1856.17,-905.07 1852.33,-905.07 1848.5,-901.23 1848.5,-897.4 1848.5,-897.4 1848.5,-889.73 1848.5,-889.73 1848.5,-885.9 1852.33,-882.07 1856.17,-882.07 1856.17,-882.07 2016.83,-882.07 2016.83,-882.07 2020.67,-882.07 2024.5,-885.9 2024.5,-889.73 2024.5,-889.73 2024.5,-897.4 2024.5,-897.4 2024.5,-901.23 2020.67,-905.07 2016.83,-905.07"/>
<text text-anchor="middle" x="1936.5" y="-889.87" font-family="Arial" font-size="14.00" fill="#cfffac">hook/useOutsideClick.tsx</text>
</g>
<!-- component/Dashboard/DashboardHeader/SelectRealTimeRangeArea.tsx&#45;&gt;hook/useOutsideClick.tsx -->
<g id="edge21" class="edge">
<title>component/Dashboard/DashboardHeader/SelectRealTimeRangeArea.tsx&#45;&gt;hook/useOutsideClick.tsx</title>
<path fill="none" stroke="#757575" d="M1577.56,-922.57C1661.2,-915.79 1763.44,-907.51 1837.2,-901.53"/>
<polygon fill="#757575" stroke="#757575" points="1837.14,-905.05 1846.82,-900.75 1836.57,-898.07 1837.14,-905.05"/>
</g>
<!-- component/Dashboard/DashboardHeader/RealTime.tsx -->
<g id="node24" class="node">
<title>component/Dashboard/DashboardHeader/RealTime.tsx</title>
<path fill="none" stroke="#cfffac" d="M2112.83,-987.07C2112.83,-987.07 1760.17,-987.07 1760.17,-987.07 1756.33,-987.07 1752.5,-983.23 1752.5,-979.4 1752.5,-979.4 1752.5,-971.73 1752.5,-971.73 1752.5,-967.9 1756.33,-964.07 1760.17,-964.07 1760.17,-964.07 2112.83,-964.07 2112.83,-964.07 2116.67,-964.07 2120.5,-967.9 2120.5,-971.73 2120.5,-971.73 2120.5,-979.4 2120.5,-979.4 2120.5,-983.23 2116.67,-987.07 2112.83,-987.07"/>
<text text-anchor="middle" x="1936.5" y="-971.87" font-family="Arial" font-size="14.00" fill="#cfffac">component/Dashboard/DashboardHeader/RealTime.tsx</text>
</g>
<!-- component/Dashboard/DashboardHeader/SelectRealTimeRangeArea.tsx&#45;&gt;component/Dashboard/DashboardHeader/RealTime.tsx -->
<g id="edge18" class="edge">
<title>component/Dashboard/DashboardHeader/SelectRealTimeRangeArea.tsx&#45;&gt;component/Dashboard/DashboardHeader/RealTime.tsx</title>
<path fill="none" stroke="#757575" d="M1577.56,-946.56C1640.01,-951.63 1712.84,-957.53 1776.44,-962.68"/>
<polygon fill="#757575" stroke="#757575" points="1776.03,-966.16 1786.28,-963.48 1776.6,-959.18 1776.03,-966.16"/>
</g>
<!-- component/Dashboard/DashboardHeader/SelectRealTimeListItem.tsx -->
<g id="node25" class="node">
<title>component/Dashboard/DashboardHeader/SelectRealTimeListItem.tsx</title>
<path fill="none" stroke="#cfffac" d="M2158.83,-946.07C2158.83,-946.07 1714.17,-946.07 1714.17,-946.07 1710.33,-946.07 1706.5,-942.23 1706.5,-938.4 1706.5,-938.4 1706.5,-930.73 1706.5,-930.73 1706.5,-926.9 1710.33,-923.07 1714.17,-923.07 1714.17,-923.07 2158.83,-923.07 2158.83,-923.07 2162.67,-923.07 2166.5,-926.9 2166.5,-930.73 2166.5,-930.73 2166.5,-938.4 2166.5,-938.4 2166.5,-942.23 2162.67,-946.07 2158.83,-946.07"/>
<text text-anchor="middle" x="1936.5" y="-930.87" font-family="Arial" font-size="14.00" fill="#cfffac">component/Dashboard/DashboardHeader/SelectRealTimeListItem.tsx</text>
</g>
<!-- component/Dashboard/DashboardHeader/SelectRealTimeRangeArea.tsx&#45;&gt;component/Dashboard/DashboardHeader/SelectRealTimeListItem.tsx -->
<g id="edge19" class="edge">
<title>component/Dashboard/DashboardHeader/SelectRealTimeRangeArea.tsx&#45;&gt;component/Dashboard/DashboardHeader/SelectRealTimeListItem.tsx</title>
<path fill="none" stroke="#757575" d="M1669.16,-934.57C1677.78,-934.57 1686.41,-934.57 1695.03,-934.57"/>
<polygon fill="#757575" stroke="#757575" points="1694.83,-938.07 1704.83,-934.57 1694.83,-931.07 1694.83,-938.07"/>
</g>
<!-- component/Dashboard/DashboardHeader/CurrentTime.tsx -->
<g id="node17" class="node">
<title>component/Dashboard/DashboardHeader/CurrentTime.tsx</title>
<path fill="none" stroke="#c6c5fe" d="M1613.83,-782.07C1613.83,-782.07 1243.17,-782.07 1243.17,-782.07 1239.33,-782.07 1235.5,-778.23 1235.5,-774.4 1235.5,-774.4 1235.5,-766.73 1235.5,-766.73 1235.5,-762.9 1239.33,-759.07 1243.17,-759.07 1243.17,-759.07 1613.83,-759.07 1613.83,-759.07 1617.67,-759.07 1621.5,-762.9 1621.5,-766.73 1621.5,-766.73 1621.5,-774.4 1621.5,-774.4 1621.5,-778.23 1617.67,-782.07 1613.83,-782.07"/>
<text text-anchor="middle" x="1428.5" y="-766.87" font-family="Arial" font-size="14.00" fill="#c6c5fe">component/Dashboard/DashboardHeader/CurrentTime.tsx</text>
</g>
<!-- component/Dashboard/DashboardHeader/TimeBlock.tsx&#45;&gt;component/Dashboard/DashboardHeader/CurrentTime.tsx -->
<g id="edge22" class="edge">
<title>component/Dashboard/DashboardHeader/TimeBlock.tsx&#45;&gt;component/Dashboard/DashboardHeader/CurrentTime.tsx</title>
<path fill="none" stroke="#757575" d="M1152.38,-770.57C1175.92,-770.57 1200.1,-770.57 1223.89,-770.57"/>
<polygon fill="#757575" stroke="#757575" points="1223.64,-774.07 1233.64,-770.57 1223.64,-767.07 1223.64,-774.07"/>
</g>
<!-- component/Dashboard/DashboardHeader/DatePickerArea.tsx -->
<g id="node20" class="node">
<title>component/Dashboard/DashboardHeader/DatePickerArea.tsx</title>
<path fill="none" stroke="#c6c5fe" d="M1624.33,-823.07C1624.33,-823.07 1232.67,-823.07 1232.67,-823.07 1228.83,-823.07 1225,-819.23 1225,-815.4 1225,-815.4 1225,-807.73 1225,-807.73 1225,-803.9 1228.83,-800.07 1232.67,-800.07 1232.67,-800.07 1624.33,-800.07 1624.33,-800.07 1628.17,-800.07 1632,-803.9 1632,-807.73 1632,-807.73 1632,-815.4 1632,-815.4 1632,-819.23 1628.17,-823.07 1624.33,-823.07"/>
<text text-anchor="middle" x="1428.5" y="-807.87" font-family="Arial" font-size="14.00" fill="#c6c5fe">component/Dashboard/DashboardHeader/DatePickerArea.tsx</text>
</g>
<!-- component/Dashboard/DashboardHeader/TimeBlock.tsx&#45;&gt;component/Dashboard/DashboardHeader/DatePickerArea.tsx -->
<g id="edge23" class="edge">
<title>component/Dashboard/DashboardHeader/TimeBlock.tsx&#45;&gt;component/Dashboard/DashboardHeader/DatePickerArea.tsx</title>
<path fill="none" stroke="#757575" d="M1098.35,-782.54C1127.86,-785.2 1158.99,-787.99 1188,-790.57 1217.31,-793.17 1248.64,-795.94 1278.65,-798.57"/>
<polygon fill="#757575" stroke="#757575" points="1278.3,-802.05 1288.57,-799.44 1278.92,-795.08 1278.3,-802.05"/>
</g>
<!-- store/DashboardProvider.tsx&#45;&gt;common/date.ts -->
<g id="edge71" class="edge">
<title>store/DashboardProvider.tsx&#45;&gt;common/date.ts</title>
<path fill="none" stroke="#757575" d="M2035.3,-649.57C2116.98,-649.57 2231.44,-649.57 2304.28,-649.57"/>
<polygon fill="#757575" stroke="#757575" points="2304.09,-653.07 2314.09,-649.57 2304.09,-646.07 2304.09,-653.07"/>
</g>
<!-- store/WidgetPropsSettingModalProvider.tsx&#45;&gt;hook/useBoolean.tsx -->
<g id="edge72" class="edge">
<title>store/WidgetPropsSettingModalProvider.tsx&#45;&gt;hook/useBoolean.tsx</title>
<path fill="none" stroke="#757575" d="M1477.96,-664.56C1532.74,-677.7 1624.76,-698.51 1705,-710.57 1752.79,-717.75 1806.54,-722.82 1850.11,-726.17"/>
<polygon fill="#757575" stroke="#757575" points="1849.79,-729.66 1860.02,-726.92 1850.32,-722.68 1849.79,-729.66"/>
</g>
<!-- hook/useCurrentTime.tsx -->
<g id="node18" class="node">
<title>hook/useCurrentTime.tsx</title>
<path fill="none" stroke="#cfffac" d="M2016.33,-702.07C2016.33,-702.07 1856.67,-702.07 1856.67,-702.07 1852.83,-702.07 1849,-698.23 1849,-694.4 1849,-694.4 1849,-686.73 1849,-686.73 1849,-682.9 1852.83,-679.07 1856.67,-679.07 1856.67,-679.07 2016.33,-679.07 2016.33,-679.07 2020.17,-679.07 2024,-682.9 2024,-686.73 2024,-686.73 2024,-694.4 2024,-694.4 2024,-698.23 2020.17,-702.07 2016.33,-702.07"/>
<text text-anchor="middle" x="1936.5" y="-686.87" font-family="Arial" font-size="14.00" fill="#cfffac">hook/useCurrentTime.tsx</text>
</g>
<!-- component/Dashboard/DashboardHeader/CurrentTime.tsx&#45;&gt;hook/useCurrentTime.tsx -->
<g id="edge9" class="edge">
<title>component/Dashboard/DashboardHeader/CurrentTime.tsx&#45;&gt;hook/useCurrentTime.tsx</title>
<path fill="none" stroke="#757575" d="M1621.78,-761.01C1638.13,-756.83 1654.1,-751.45 1669,-744.57 1688.98,-735.34 1684.92,-719.58 1705,-710.57 1745.87,-692.23 1794.88,-686.08 1837.18,-684.97"/>
<polygon fill="#757575" stroke="#757575" points="1837.17,-688.47 1847.12,-684.81 1837.06,-681.47 1837.17,-688.47"/>
</g>
<!-- component/Dashboard/DashboardHeader/DateBox.tsx -->
<g id="node19" class="node">
<title>component/Dashboard/DashboardHeader/DateBox.tsx</title>
<path fill="none" stroke="#cfffac" d="M2109.83,-823.07C2109.83,-823.07 1763.17,-823.07 1763.17,-823.07 1759.33,-823.07 1755.5,-819.23 1755.5,-815.4 1755.5,-815.4 1755.5,-807.73 1755.5,-807.73 1755.5,-803.9 1759.33,-800.07 1763.17,-800.07 1763.17,-800.07 2109.83,-800.07 2109.83,-800.07 2113.67,-800.07 2117.5,-803.9 2117.5,-807.73 2117.5,-807.73 2117.5,-815.4 2117.5,-815.4 2117.5,-819.23 2113.67,-823.07 2109.83,-823.07"/>
<text text-anchor="middle" x="1936.5" y="-807.87" font-family="Arial" font-size="14.00" fill="#cfffac">component/Dashboard/DashboardHeader/DateBox.tsx</text>
</g>
<!-- component/Dashboard/DashboardHeader/DatePickerArea.tsx&#45;&gt;common/date.ts -->
<g id="edge10" class="edge">
<title>component/Dashboard/DashboardHeader/DatePickerArea.tsx&#45;&gt;common/date.ts</title>
<path fill="none" stroke="#757575" d="M1582.06,-799.59C1796.28,-782.72 2161.07,-753.75 2168,-751.57 2185.67,-746.01 2187.62,-739.22 2204,-730.57 2249.17,-706.72 2302.55,-681.88 2337.39,-666.1"/>
<polygon fill="#757575" stroke="#757575" points="2338.52,-669.43 2346.2,-662.13 2335.64,-663.05 2338.52,-669.43"/>
</g>
<!-- component/Dashboard/DashboardHeader/DatePickerArea.tsx&#45;&gt;store/DashboardProvider.tsx -->
<g id="edge15" class="edge">
<title>component/Dashboard/DashboardHeader/DatePickerArea.tsx&#45;&gt;store/DashboardProvider.tsx</title>
<path fill="none" stroke="#757575" d="M1489.29,-823.55C1542.4,-830.55 1619.12,-831.28 1669,-790.57 1712.47,-755.09 1661.52,-705.03 1705,-669.57 1748.68,-633.95 1813.73,-631.37 1863.6,-636.31"/>
<polygon fill="#757575" stroke="#757575" points="1863.12,-639.78 1873.45,-637.42 1863.91,-632.82 1863.12,-639.78"/>
</g>
<!-- component/Dashboard/DashboardHeader/DatePickerArea.tsx&#45;&gt;component/Dashboard/DashboardHeader/DateBox.tsx -->
<g id="edge11" class="edge">
<title>component/Dashboard/DashboardHeader/DatePickerArea.tsx&#45;&gt;component/Dashboard/DashboardHeader/DateBox.tsx</title>
<path fill="none" stroke="#757575" d="M1632.39,-811.57C1669.15,-811.57 1707.37,-811.57 1743.79,-811.57"/>
<polygon fill="#757575" stroke="#757575" points="1743.52,-815.07 1753.52,-811.57 1743.52,-808.07 1743.52,-815.07"/>
</g>
<!-- component/common/DatePicker.tsx -->
<g id="node21" class="node">
<title>component/common/DatePicker.tsx</title>
<path fill="none" stroke="#c6c5fe" d="M2049.83,-864.07C2049.83,-864.07 1823.17,-864.07 1823.17,-864.07 1819.33,-864.07 1815.5,-860.23 1815.5,-856.4 1815.5,-856.4 1815.5,-848.73 1815.5,-848.73 1815.5,-844.9 1819.33,-841.07 1823.17,-841.07 1823.17,-841.07 2049.83,-841.07 2049.83,-841.07 2053.67,-841.07 2057.5,-844.9 2057.5,-848.73 2057.5,-848.73 2057.5,-856.4 2057.5,-856.4 2057.5,-860.23 2053.67,-864.07 2049.83,-864.07"/>
<text text-anchor="middle" x="1936.5" y="-848.87" font-family="Arial" font-size="14.00" fill="#c6c5fe">component/common/DatePicker.tsx</text>
</g>
<!-- component/Dashboard/DashboardHeader/DatePickerArea.tsx&#45;&gt;component/common/DatePicker.tsx -->
<g id="edge12" class="edge">
<title>component/Dashboard/DashboardHeader/DatePickerArea.tsx&#45;&gt;component/common/DatePicker.tsx</title>
<path fill="none" stroke="#757575" d="M1577.56,-823.56C1649.11,-829.36 1734.28,-836.26 1803.59,-841.88"/>
<polygon fill="#757575" stroke="#757575" points="1803.25,-845.36 1813.5,-842.68 1803.82,-838.39 1803.25,-845.36"/>
</g>
<!-- component/Dashboard/DashboardHeader/DatePickerArea.tsx&#45;&gt;hook/useBoolean.tsx -->
<g id="edge13" class="edge">
<title>component/Dashboard/DashboardHeader/DatePickerArea.tsx&#45;&gt;hook/useBoolean.tsx</title>
<path fill="none" stroke="#757575" d="M1632.49,-803.33C1645.07,-799.9 1657.35,-795.7 1669,-790.57 1688.87,-781.82 1685.24,-766.56 1705,-757.57 1750.1,-737.04 1805.09,-730.24 1850.05,-728.71"/>
<polygon fill="#757575" stroke="#757575" points="1850.13,-732.21 1860.04,-728.46 1849.95,-725.21 1850.13,-732.21"/>
</g>
<!-- component/Dashboard/DashboardHeader/DatePickerArea.tsx&#45;&gt;hook/useOutsideClick.tsx -->
<g id="edge14" class="edge">
<title>component/Dashboard/DashboardHeader/DatePickerArea.tsx&#45;&gt;hook/useOutsideClick.tsx</title>
<path fill="none" stroke="#757575" d="M1632.24,-817.18C1644.99,-820.97 1657.36,-825.7 1669,-831.57 1690.66,-842.48 1683.39,-861.57 1705,-872.57 1745.11,-892.97 1794.24,-899.54 1836.82,-900.48"/>
<polygon fill="#757575" stroke="#757575" points="1836.52,-903.97 1846.55,-900.58 1836.59,-896.97 1836.52,-903.97"/>
</g>
<!-- component/common/DatePicker/DatePickerTitle.tsx -->
<g id="node44" class="node">
<title>component/common/DatePicker/DatePickerTitle.tsx</title>
<path fill="none" stroke="#c6c5fe" d="M2539.33,-763.07C2539.33,-763.07 2211.67,-763.07 2211.67,-763.07 2207.83,-763.07 2204,-759.23 2204,-755.4 2204,-755.4 2204,-747.73 2204,-747.73 2204,-743.9 2207.83,-740.07 2211.67,-740.07 2211.67,-740.07 2539.33,-740.07 2539.33,-740.07 2543.17,-740.07 2547,-743.9 2547,-747.73 2547,-747.73 2547,-755.4 2547,-755.4 2547,-759.23 2543.17,-763.07 2539.33,-763.07"/>
<text text-anchor="middle" x="2375.5" y="-747.87" font-family="Arial" font-size="14.00" fill="#c6c5fe">component/common/DatePicker/DatePickerTitle.tsx</text>
</g>
<!-- component/common/DatePicker.tsx&#45;&gt;component/common/DatePicker/DatePickerTitle.tsx -->
<g id="edge53" class="edge">
<title>component/common/DatePicker.tsx&#45;&gt;component/common/DatePicker/DatePickerTitle.tsx</title>
<path fill="none" stroke="#757575" d="M2057.78,-851.06C2093.83,-848.11 2133.06,-842.34 2168,-831.57 2185.49,-826.18 2187.31,-819.08 2204,-811.57 2243.25,-793.91 2289.38,-777.95 2323.76,-766.94"/>
<polygon fill="#757575" stroke="#757575" points="2324.56,-770.35 2333.04,-764 2322.45,-763.68 2324.56,-770.35"/>
</g>
<!-- component/common/DatePicker/ListPicker.tsx -->
<g id="node45" class="node">
<title>component/common/DatePicker/ListPicker.tsx</title>
<path fill="none" stroke="#c6c5fe" d="M2521.83,-844.07C2521.83,-844.07 2229.17,-844.07 2229.17,-844.07 2225.33,-844.07 2221.5,-840.23 2221.5,-836.4 2221.5,-836.4 2221.5,-828.73 2221.5,-828.73 2221.5,-824.9 2225.33,-821.07 2229.17,-821.07 2229.17,-821.07 2521.83,-821.07 2521.83,-821.07 2525.67,-821.07 2529.5,-824.9 2529.5,-828.73 2529.5,-828.73 2529.5,-836.4 2529.5,-836.4 2529.5,-840.23 2525.67,-844.07 2521.83,-844.07"/>
<text text-anchor="middle" x="2375.5" y="-828.87" font-family="Arial" font-size="14.00" fill="#c6c5fe">component/common/DatePicker/ListPicker.tsx</text>
</g>
<!-- component/common/DatePicker.tsx&#45;&gt;component/common/DatePicker/ListPicker.tsx -->
<g id="edge54" class="edge">
<title>component/common/DatePicker.tsx&#45;&gt;component/common/DatePicker/ListPicker.tsx</title>
<path fill="none" stroke="#757575" d="M2057.78,-847.06C2104.76,-844.91 2159.39,-842.41 2209.91,-840.1"/>
<polygon fill="#757575" stroke="#757575" points="2209.96,-843.6 2219.79,-839.65 2209.64,-836.61 2209.96,-843.6"/>
</g>
<!-- types/datePicker.d.ts -->
<g id="node46" class="node">
<title>types/datePicker.d.ts</title>
<path fill="none" stroke="#cfffac" d="M2818.33,-884.07C2818.33,-884.07 2684.67,-884.07 2684.67,-884.07 2680.83,-884.07 2677,-880.23 2677,-876.4 2677,-876.4 2677,-868.73 2677,-868.73 2677,-864.9 2680.83,-861.07 2684.67,-861.07 2684.67,-861.07 2818.33,-861.07 2818.33,-861.07 2822.17,-861.07 2826,-864.9 2826,-868.73 2826,-868.73 2826,-876.4 2826,-876.4 2826,-880.23 2822.17,-884.07 2818.33,-884.07"/>
<text text-anchor="middle" x="2751.5" y="-868.87" font-family="Arial" font-size="14.00" fill="#cfffac">types/datePicker.d.ts</text>
</g>
<!-- component/common/DatePicker.tsx&#45;&gt;types/datePicker.d.ts -->
<g id="edge55" class="edge">
<title>component/common/DatePicker.tsx&#45;&gt;types/datePicker.d.ts</title>
<path fill="none" stroke="#757575" d="M2057.9,-855.53C2224.13,-859.62 2519.82,-866.89 2665.11,-870.47"/>
<polygon fill="#757575" stroke="#757575" points="2664.99,-873.97 2675.07,-870.71 2665.16,-866.97 2664.99,-873.97"/>
</g>
<!-- component/Widget/Widget.tsx -->
<g id="node26" class="node">
<title>component/Widget/Widget.tsx</title>
<path fill="none" stroke="#c6c5fe" d="M687.33,-533.07C687.33,-533.07 493.67,-533.07 493.67,-533.07 489.83,-533.07 486,-529.23 486,-525.4 486,-525.4 486,-517.73 486,-517.73 486,-513.9 489.83,-510.07 493.67,-510.07 493.67,-510.07 687.33,-510.07 687.33,-510.07 691.17,-510.07 695,-513.9 695,-517.73 695,-517.73 695,-525.4 695,-525.4 695,-529.23 691.17,-533.07 687.33,-533.07"/>
<text text-anchor="middle" x="590.5" y="-517.87" font-family="Arial" font-size="14.00" fill="#c6c5fe">component/Widget/Widget.tsx</text>
</g>
<!-- component/Widget/Widget.tsx&#45;&gt;hook/useBoolean.tsx -->
<g id="edge28" class="edge">
<title>component/Widget/Widget.tsx&#45;&gt;hook/useBoolean.tsx</title>
<path fill="none" stroke="#757575" d="M651.34,-533.55C687.82,-540.51 735.46,-548.98 778,-554.57 975.04,-580.46 1506.64,-516.95 1669,-631.57 1700.52,-653.82 1673.53,-688.24 1705,-710.57 1746.55,-740.05 1803.49,-745.48 1850.38,-743.45"/>
<polygon fill="#757575" stroke="#757575" points="1850.46,-746.95 1860.25,-742.89 1850.06,-739.96 1850.46,-746.95"/>
</g>
<!-- component/Widget/WidgetButtons.tsx -->
<g id="node27" class="node">
<title>component/Widget/WidgetButtons.tsx</title>
<path fill="none" stroke="#c6c5fe" d="M1085.83,-626.07C1085.83,-626.07 844.17,-626.07 844.17,-626.07 840.33,-626.07 836.5,-622.23 836.5,-618.4 836.5,-618.4 836.5,-610.73 836.5,-610.73 836.5,-606.9 840.33,-603.07 844.17,-603.07 844.17,-603.07 1085.83,-603.07 1085.83,-603.07 1089.67,-603.07 1093.5,-606.9 1093.5,-610.73 1093.5,-610.73 1093.5,-618.4 1093.5,-618.4 1093.5,-622.23 1089.67,-626.07 1085.83,-626.07"/>
<text text-anchor="middle" x="965" y="-610.87" font-family="Arial" font-size="14.00" fill="#c6c5fe">component/Widget/WidgetButtons.tsx</text>
</g>
<!-- component/Widget/Widget.tsx&#45;&gt;component/Widget/WidgetButtons.tsx -->
<g id="edge24" class="edge">
<title>component/Widget/Widget.tsx&#45;&gt;component/Widget/WidgetButtons.tsx</title>
<path fill="none" stroke="#757575" d="M619.07,-533.5C654.98,-548.58 720.05,-574.27 778,-588.57 797.86,-593.47 819.15,-597.53 839.98,-600.86"/>
<polygon fill="#757575" stroke="#757575" points="839.25,-604.29 849.66,-602.36 840.32,-597.37 839.25,-604.29"/>
</g>
<!-- component/Widget/WidgetCallCycleSettingModal.tsx -->
<g id="node28" class="node">
<title>component/Widget/WidgetCallCycleSettingModal.tsx</title>
<path fill="none" stroke="#c6c5fe" d="M1596.33,-367.07C1596.33,-367.07 1260.67,-367.07 1260.67,-367.07 1256.83,-367.07 1253,-363.23 1253,-359.4 1253,-359.4 1253,-351.73 1253,-351.73 1253,-347.9 1256.83,-344.07 1260.67,-344.07 1260.67,-344.07 1596.33,-344.07 1596.33,-344.07 1600.17,-344.07 1604,-347.9 1604,-351.73 1604,-351.73 1604,-359.4 1604,-359.4 1604,-363.23 1600.17,-367.07 1596.33,-367.07"/>
<text text-anchor="middle" x="1428.5" y="-351.87" font-family="Arial" font-size="14.00" fill="#c6c5fe">component/Widget/WidgetCallCycleSettingModal.tsx</text>
</g>
<!-- component/Widget/Widget.tsx&#45;&gt;component/Widget/WidgetCallCycleSettingModal.tsx -->
<g id="edge25" class="edge">
<title>component/Widget/Widget.tsx&#45;&gt;component/Widget/WidgetCallCycleSettingModal.tsx</title>
<path fill="none" stroke="#757575" d="M611.09,-509.71C644.18,-490.3 713.83,-452.03 778,-433.57 930.32,-389.74 1109.58,-370.51 1241.15,-362.09"/>
<polygon fill="#757575" stroke="#757575" points="1241.26,-365.6 1251.02,-361.48 1240.82,-358.61 1241.26,-365.6"/>
</g>
<!-- component/Widget/WidgetChart.tsx -->
<g id="node29" class="node">
<title>component/Widget/WidgetChart.tsx</title>
<path fill="none" stroke="#c6c5fe" d="M1078.33,-191.07C1078.33,-191.07 851.67,-191.07 851.67,-191.07 847.83,-191.07 844,-187.23 844,-183.4 844,-183.4 844,-175.73 844,-175.73 844,-171.9 847.83,-168.07 851.67,-168.07 851.67,-168.07 1078.33,-168.07 1078.33,-168.07 1082.17,-168.07 1086,-171.9 1086,-175.73 1086,-175.73 1086,-183.4 1086,-183.4 1086,-187.23 1082.17,-191.07 1078.33,-191.07"/>
<text text-anchor="middle" x="965" y="-175.87" font-family="Arial" font-size="14.00" fill="#c6c5fe">component/Widget/WidgetChart.tsx</text>
</g>
<!-- component/Widget/Widget.tsx&#45;&gt;component/Widget/WidgetChart.tsx -->
<g id="edge26" class="edge">
<title>component/Widget/Widget.tsx&#45;&gt;component/Widget/WidgetChart.tsx</title>
<path fill="none" stroke="#757575" d="M604.32,-509.8C659.17,-459.44 874.38,-261.85 942.92,-198.93"/>
<polygon fill="#757575" stroke="#757575" points="945.12,-201.66 950.12,-192.31 940.38,-196.5 945.12,-201.66"/>
</g>
<!-- hook/Widget/useHandleWidgetApi.tsx -->
<g id="node30" class="node">
<title>hook/Widget/useHandleWidgetApi.tsx</title>
<path fill="none" stroke="#c6c5fe" d="M1549.33,-423.07C1549.33,-423.07 1307.67,-423.07 1307.67,-423.07 1303.83,-423.07 1300,-419.23 1300,-415.4 1300,-415.4 1300,-407.73 1300,-407.73 1300,-403.9 1303.83,-400.07 1307.67,-400.07 1307.67,-400.07 1549.33,-400.07 1549.33,-400.07 1553.17,-400.07 1557,-403.9 1557,-407.73 1557,-407.73 1557,-415.4 1557,-415.4 1557,-419.23 1553.17,-423.07 1549.33,-423.07"/>
<text text-anchor="middle" x="1428.5" y="-407.87" font-family="Arial" font-size="14.00" fill="#c6c5fe">hook/Widget/useHandleWidgetApi.tsx</text>
</g>
<!-- component/Widget/Widget.tsx&#45;&gt;hook/Widget/useHandleWidgetApi.tsx -->
<g id="edge27" class="edge">
<title>component/Widget/Widget.tsx&#45;&gt;hook/Widget/useHandleWidgetApi.tsx</title>
<path fill="none" stroke="#757575" d="M660.64,-509.61C771.58,-490.76 996.34,-454 1188,-431.57 1220.49,-427.76 1255.53,-424.42 1288.53,-421.6"/>
<polygon fill="#757575" stroke="#757575" points="1288.45,-425.12 1298.12,-420.79 1287.86,-418.14 1288.45,-425.12"/>
</g>
<!-- component/Widget/WidgetButtons.tsx&#45;&gt;store/WidgetPropsSettingModalProvider.tsx -->
<g id="edge29" class="edge">
<title>component/Widget/WidgetButtons.tsx&#45;&gt;store/WidgetPropsSettingModalProvider.tsx</title>
<path fill="none" stroke="#757575" d="M1093.94,-625.1C1148.58,-629.6 1212.9,-634.9 1270.39,-639.63"/>
<polygon fill="#757575" stroke="#757575" points="1270.03,-643.11 1280.29,-640.45 1270.61,-636.14 1270.03,-643.11"/>
</g>
<!-- store/WidgetProvider.tsx -->
<g id="node31" class="node">
<title>store/WidgetProvider.tsx</title>
<path fill="none" stroke="#c6c5fe" d="M2015.33,-620.07C2015.33,-620.07 1857.67,-620.07 1857.67,-620.07 1853.83,-620.07 1850,-616.23 1850,-612.4 1850,-612.4 1850,-604.73 1850,-604.73 1850,-600.9 1853.83,-597.07 1857.67,-597.07 1857.67,-597.07 2015.33,-597.07 2015.33,-597.07 2019.17,-597.07 2023,-600.9 2023,-604.73 2023,-604.73 2023,-612.4 2023,-612.4 2023,-616.23 2019.17,-620.07 2015.33,-620.07"/>
<text text-anchor="middle" x="1936.5" y="-604.87" font-family="Arial" font-size="14.00" fill="#c6c5fe">store/WidgetProvider.tsx</text>
</g>
<!-- component/Widget/WidgetButtons.tsx&#45;&gt;store/WidgetProvider.tsx -->
<g id="edge30" class="edge">
<title>component/Widget/WidgetButtons.tsx&#45;&gt;store/WidgetProvider.tsx</title>
<path fill="none" stroke="#757575" d="M1093.74,-613.78C1290.22,-612.56 1662.27,-610.26 1838.4,-609.17"/>
<polygon fill="#757575" stroke="#757575" points="1838.22,-612.67 1848.2,-609.11 1838.18,-605.67 1838.22,-612.67"/>
</g>
<!-- component/Widget/WidgetCallCycleSettingModal.tsx&#45;&gt;common/widget.ts -->
<g id="edge31" class="edge">
<title>component/Widget/WidgetCallCycleSettingModal.tsx&#45;&gt;common/widget.ts</title>
<path fill="none" stroke="#757575" d="M1604.35,-364.55C1691.16,-369.01 1791.59,-374.17 1858.89,-377.63"/>
<polygon fill="#757575" stroke="#757575" points="1858.55,-381.12 1868.71,-378.14 1858.91,-374.13 1858.55,-381.12"/>
</g>
<!-- component/Widget/WidgetCallCycleSettingModal/CycleInput.tsx -->
<g id="node32" class="node">
<title>component/Widget/WidgetCallCycleSettingModal/CycleInput.tsx</title>
<path fill="none" stroke="#cfffac" d="M2139.83,-311.07C2139.83,-311.07 1733.17,-311.07 1733.17,-311.07 1729.33,-311.07 1725.5,-307.23 1725.5,-303.4 1725.5,-303.4 1725.5,-295.73 1725.5,-295.73 1725.5,-291.9 1729.33,-288.07 1733.17,-288.07 1733.17,-288.07 2139.83,-288.07 2139.83,-288.07 2143.67,-288.07 2147.5,-291.9 2147.5,-295.73 2147.5,-295.73 2147.5,-303.4 2147.5,-303.4 2147.5,-307.23 2143.67,-311.07 2139.83,-311.07"/>
<text text-anchor="middle" x="1936.5" y="-295.87" font-family="Arial" font-size="14.00" fill="#cfffac">component/Widget/WidgetCallCycleSettingModal/CycleInput.tsx</text>
</g>
<!-- component/Widget/WidgetCallCycleSettingModal.tsx&#45;&gt;component/Widget/WidgetCallCycleSettingModal/CycleInput.tsx -->
<g id="edge32" class="edge">
<title>component/Widget/WidgetCallCycleSettingModal.tsx&#45;&gt;component/Widget/WidgetCallCycleSettingModal/CycleInput.tsx</title>
<path fill="none" stroke="#757575" d="M1513.79,-343.59C1568.27,-336.09 1640.74,-326.55 1705,-319.57 1727.67,-317.1 1751.61,-314.75 1775.16,-312.58"/>
<polygon fill="#757575" stroke="#757575" points="1775.16,-316.09 1784.8,-311.7 1774.52,-309.12 1775.16,-316.09"/>
</g>
<!-- component/Widget/WidgetCallCycleSettingModal/LastCallTimeBox.tsx -->
<g id="node33" class="node">
<title>component/Widget/WidgetCallCycleSettingModal/LastCallTimeBox.tsx</title>
<path fill="none" stroke="#cfffac" d="M2160.33,-352.07C2160.33,-352.07 1712.67,-352.07 1712.67,-352.07 1708.83,-352.07 1705,-348.23 1705,-344.4 1705,-344.4 1705,-336.73 1705,-336.73 1705,-332.9 1708.83,-329.07 1712.67,-329.07 1712.67,-329.07 2160.33,-329.07 2160.33,-329.07 2164.17,-329.07 2168,-332.9 2168,-336.73 2168,-336.73 2168,-344.4 2168,-344.4 2168,-348.23 2164.17,-352.07 2160.33,-352.07"/>
<text text-anchor="middle" x="1936.5" y="-336.87" font-family="Arial" font-size="14.00" fill="#cfffac">component/Widget/WidgetCallCycleSettingModal/LastCallTimeBox.tsx</text>
</g>
<!-- component/Widget/WidgetCallCycleSettingModal.tsx&#45;&gt;component/Widget/WidgetCallCycleSettingModal/LastCallTimeBox.tsx -->
<g id="edge33" class="edge">
<title>component/Widget/WidgetCallCycleSettingModal.tsx&#45;&gt;component/Widget/WidgetCallCycleSettingModal/LastCallTimeBox.tsx</title>
<path fill="none" stroke="#757575" d="M1604.35,-350.38C1633.09,-349.53 1663.34,-348.64 1693.37,-347.75"/>
<polygon fill="#757575" stroke="#757575" points="1693.47,-351.24 1703.36,-347.45 1693.26,-344.25 1693.47,-351.24"/>
</g>
<!-- component/chart/BarChart.tsx -->
<g id="node34" class="node">
<title>component/chart/BarChart.tsx</title>
<path fill="none" stroke="#c6c5fe" d="M1522.33,-110.07C1522.33,-110.07 1334.67,-110.07 1334.67,-110.07 1330.83,-110.07 1327,-106.23 1327,-102.4 1327,-102.4 1327,-94.73 1327,-94.73 1327,-90.9 1330.83,-87.07 1334.67,-87.07 1334.67,-87.07 1522.33,-87.07 1522.33,-87.07 1526.17,-87.07 1530,-90.9 1530,-94.73 1530,-94.73 1530,-102.4 1530,-102.4 1530,-106.23 1526.17,-110.07 1522.33,-110.07"/>
<text text-anchor="middle" x="1428.5" y="-94.87" font-family="Arial" font-size="14.00" fill="#c6c5fe">component/chart/BarChart.tsx</text>
</g>
<!-- component/Widget/WidgetChart.tsx&#45;&gt;component/chart/BarChart.tsx -->
<g id="edge34" class="edge">
<title>component/Widget/WidgetChart.tsx&#45;&gt;component/chart/BarChart.tsx</title>
<path fill="none" stroke="#757575" d="M1001.29,-167.69C1044.71,-153.58 1120.9,-130.48 1188,-118.57 1229.31,-111.23 1275.11,-106.57 1315.51,-103.62"/>
<polygon fill="#757575" stroke="#757575" points="1315.51,-107.13 1325.24,-102.94 1315.02,-100.15 1315.51,-107.13"/>
</g>
<!-- component/chart/InformaticsChart.tsx -->
<g id="node35" class="node">
<title>component/chart/InformaticsChart.tsx</title>
<path fill="none" stroke="#c6c5fe" d="M1546.83,-231.07C1546.83,-231.07 1310.17,-231.07 1310.17,-231.07 1306.33,-231.07 1302.5,-227.23 1302.5,-223.4 1302.5,-223.4 1302.5,-215.73 1302.5,-215.73 1302.5,-211.9 1306.33,-208.07 1310.17,-208.07 1310.17,-208.07 1546.83,-208.07 1546.83,-208.07 1550.67,-208.07 1554.5,-211.9 1554.5,-215.73 1554.5,-215.73 1554.5,-223.4 1554.5,-223.4 1554.5,-227.23 1550.67,-231.07 1546.83,-231.07"/>
<text text-anchor="middle" x="1428.5" y="-215.87" font-family="Arial" font-size="14.00" fill="#c6c5fe">component/chart/InformaticsChart.tsx</text>
</g>
<!-- component/Widget/WidgetChart.tsx&#45;&gt;component/chart/InformaticsChart.tsx -->
<g id="edge35" class="edge">
<title>component/Widget/WidgetChart.tsx&#45;&gt;component/chart/InformaticsChart.tsx</title>
<path fill="none" stroke="#757575" d="M1086.35,-190C1149.09,-195.44 1226.07,-202.11 1291.02,-207.74"/>
<polygon fill="#757575" stroke="#757575" points="1290.39,-211.2 1300.66,-208.57 1291,-204.22 1290.39,-211.2"/>
</g>
<!-- component/chart/LineChart.tsx -->
<g id="node36" class="node">
<title>component/chart/LineChart.tsx</title>
<path fill="none" stroke="#c6c5fe" d="M1525.33,-151.07C1525.33,-151.07 1331.67,-151.07 1331.67,-151.07 1327.83,-151.07 1324,-147.23 1324,-143.4 1324,-143.4 1324,-135.73 1324,-135.73 1324,-131.9 1327.83,-128.07 1331.67,-128.07 1331.67,-128.07 1525.33,-128.07 1525.33,-128.07 1529.17,-128.07 1533,-131.9 1533,-135.73 1533,-135.73 1533,-143.4 1533,-143.4 1533,-147.23 1529.17,-151.07 1525.33,-151.07"/>
<text text-anchor="middle" x="1428.5" y="-135.87" font-family="Arial" font-size="14.00" fill="#c6c5fe">component/chart/LineChart.tsx</text>
</g>
<!-- component/Widget/WidgetChart.tsx&#45;&gt;component/chart/LineChart.tsx -->
<g id="edge36" class="edge">
<title>component/Widget/WidgetChart.tsx&#45;&gt;component/chart/LineChart.tsx</title>
<path fill="none" stroke="#757575" d="M1086.35,-169.14C1156.17,-163.08 1243.64,-155.5 1312.53,-149.53"/>
<polygon fill="#757575" stroke="#757575" points="1312.69,-153.03 1322.35,-148.68 1312.08,-146.06 1312.69,-153.03"/>
</g>
<!-- hook/Widget/useHandleWidgetApi.tsx&#45;&gt;common/api.ts -->
<g id="edge59" class="edge">
<title>hook/Widget/useHandleWidgetApi.tsx&#45;&gt;common/api.ts</title>
<path fill="none" stroke="#757575" d="M1557.29,-404.22C1594.94,-406.71 1635.1,-414.23 1669,-431.57 1690.89,-442.76 1683.28,-462.06 1705,-473.57 1755.9,-500.54 1821.88,-505.49 1870.19,-504.6"/>
<polygon fill="#757575" stroke="#757575" points="1870.05,-508.11 1879.94,-504.33 1869.85,-501.11 1870.05,-508.11"/>
</g>
<!-- hook/Widget/useHandleWidgetApi.tsx&#45;&gt;types/chart.d.ts -->
<g id="edge63" class="edge">
<title>hook/Widget/useHandleWidgetApi.tsx&#45;&gt;types/chart.d.ts</title>
<path fill="none" stroke="#757575" d="M1557.19,-421.11C1738.73,-432.78 2061.29,-445.93 2168,-401.57 2259.1,-363.7 2332.13,-264.74 2361.07,-220.95"/>
<polygon fill="#757575" stroke="#757575" points="2363.84,-223.11 2366.34,-212.81 2357.97,-219.3 2363.84,-223.11"/>
</g>
<!-- hook/Widget/useHandleWidgetApi.tsx&#45;&gt;common/date.ts -->
<g id="edge60" class="edge">
<title>hook/Widget/useHandleWidgetApi.tsx&#45;&gt;common/date.ts</title>
<path fill="none" stroke="#757575" d="M1496.42,-399.57C1548.4,-394.09 1619.71,-395.41 1669,-431.57 1703.07,-456.56 1671.72,-493.52 1705,-519.57 1868.78,-647.77 1964.97,-542.43 2168,-587.57 2224.4,-600.11 2287.86,-620.06 2329.36,-633.94"/>
<polygon fill="#757575" stroke="#757575" points="2328.17,-637.23 2338.76,-637.1 2330.4,-630.59 2328.17,-637.23"/>
</g>
<!-- hook/Widget/useHandleWidgetApi.tsx&#45;&gt;common/widget.ts -->
<g id="edge61" class="edge">
<title>hook/Widget/useHandleWidgetApi.tsx&#45;&gt;common/widget.ts</title>
<path fill="none" stroke="#757575" d="M1557.19,-404C1652.2,-398.36 1778.76,-390.86 1858.7,-386.12"/>
<polygon fill="#757575" stroke="#757575" points="1858.86,-389.62 1868.64,-385.53 1858.45,-382.63 1858.86,-389.62"/>
</g>
<!-- hook/Widget/useHandleWidgetApi.tsx&#45;&gt;store/DashboardProvider.tsx -->
<g id="edge62" class="edge">
<title>hook/Widget/useHandleWidgetApi.tsx&#45;&gt;store/DashboardProvider.tsx</title>
<path fill="none" stroke="#757575" d="M1480.42,-399.65C1534.28,-390.32 1618.32,-385.6 1669,-431.57 1734.93,-491.36 1639.3,-568.52 1705,-628.57 1748.57,-668.39 1818.03,-669.42 1869.32,-663.08"/>
<polygon fill="#757575" stroke="#757575" points="1869.7,-666.56 1879.13,-661.73 1868.75,-659.62 1869.7,-666.56"/>
</g>
<!-- types/widget.d.ts -->
<g id="node47" class="node">
<title>types/widget.d.ts</title>
<path fill="none" stroke="#cfffac" d="M2805.33,-620.07C2805.33,-620.07 2697.67,-620.07 2697.67,-620.07 2693.83,-620.07 2690,-616.23 2690,-612.4 2690,-612.4 2690,-604.73 2690,-604.73 2690,-600.9 2693.83,-597.07 2697.67,-597.07 2697.67,-597.07 2805.33,-597.07 2805.33,-597.07 2809.17,-597.07 2813,-600.9 2813,-604.73 2813,-604.73 2813,-612.4 2813,-612.4 2813,-616.23 2809.17,-620.07 2805.33,-620.07"/>
<text text-anchor="middle" x="2751.5" y="-604.87" font-family="Arial" font-size="14.00" fill="#cfffac">types/widget.d.ts</text>
</g>
<!-- hook/Widget/useHandleWidgetApi.tsx&#45;&gt;types/widget.d.ts -->
<g id="edge64" class="edge">
<title>hook/Widget/useHandleWidgetApi.tsx&#45;&gt;types/widget.d.ts</title>
<path fill="none" stroke="#757575" d="M1557.38,-421.3C1603.85,-424.72 1656.78,-428.47 1705,-431.57 1892.02,-443.57 2368.65,-421.02 2547,-478.57 2620.62,-502.32 2693.83,-559.37 2728.98,-589.37"/>
<polygon fill="#757575" stroke="#757575" points="2726.47,-591.83 2736.32,-595.74 2731.05,-586.54 2726.47,-591.83"/>
</g>
<!-- store/WidgetProvider.tsx&#45;&gt;types/widget.d.ts -->
<g id="edge73" class="edge">
<title>store/WidgetProvider.tsx&#45;&gt;types/widget.d.ts</title>
<path fill="none" stroke="#757575" d="M2023.35,-608.57C2184.27,-608.57 2528.48,-608.57 2678.32,-608.57"/>
<polygon fill="#757575" stroke="#757575" points="2678.12,-612.07 2688.12,-608.57 2678.12,-605.07 2678.12,-612.07"/>
</g>
<!-- component/chart/BarChart.tsx&#45;&gt;common/chart.ts -->
<g id="edge42" class="edge">
<title>component/chart/BarChart.tsx&#45;&gt;common/chart.ts</title>
<path fill="none" stroke="#757575" d="M1530.38,-90.39C1629.02,-82.4 1776.73,-70.43 1863.89,-63.37"/>
<polygon fill="#757575" stroke="#757575" points="1864.06,-66.87 1873.74,-62.57 1863.49,-59.89 1864.06,-66.87"/>
</g>
<!-- component/chart/BarChart.tsx&#45;&gt;types/chart.d.ts -->
<g id="edge45" class="edge">
<title>component/chart/BarChart.tsx&#45;&gt;types/chart.d.ts</title>
<path fill="none" stroke="#757575" d="M1461.98,-86.69C1567.39,-50.02 1908.19,53.62 2168,-36.57 2250.74,-65.29 2325.38,-142.43 2357.64,-179.35"/>
<polygon fill="#757575" stroke="#757575" points="2354.75,-181.36 2363.92,-186.66 2360.06,-176.8 2354.75,-181.36"/>
</g>
<!-- component/chart/ChartSvg.tsx -->
<g id="node41" class="node">
<title>component/chart/ChartSvg.tsx</title>
<path fill="none" stroke="#cfffac" d="M2031.83,-151.07C2031.83,-151.07 1841.17,-151.07 1841.17,-151.07 1837.33,-151.07 1833.5,-147.23 1833.5,-143.4 1833.5,-143.4 1833.5,-135.73 1833.5,-135.73 1833.5,-131.9 1837.33,-128.07 1841.17,-128.07 1841.17,-128.07 2031.83,-128.07 2031.83,-128.07 2035.67,-128.07 2039.5,-131.9 2039.5,-135.73 2039.5,-135.73 2039.5,-143.4 2039.5,-143.4 2039.5,-147.23 2035.67,-151.07 2031.83,-151.07"/>
<text text-anchor="middle" x="1936.5" y="-135.87" font-family="Arial" font-size="14.00" fill="#cfffac">component/chart/ChartSvg.tsx</text>
</g>
<!-- component/chart/BarChart.tsx&#45;&gt;component/chart/ChartSvg.tsx -->
<g id="edge43" class="edge">
<title>component/chart/BarChart.tsx&#45;&gt;component/chart/ChartSvg.tsx</title>
<path fill="none" stroke="#757575" d="M1530.38,-106.74C1614.48,-113.56 1734.26,-123.26 1821.76,-130.35"/>
<polygon fill="#757575" stroke="#757575" points="1821.31,-133.83 1831.56,-131.15 1821.88,-126.85 1821.31,-133.83"/>
</g>
<!-- hook/useResize.tsx -->
<g id="node42" class="node">
<title>hook/useResize.tsx</title>
<path fill="none" stroke="#cfffac" d="M1998.83,-110.07C1998.83,-110.07 1874.17,-110.07 1874.17,-110.07 1870.33,-110.07 1866.5,-106.23 1866.5,-102.4 1866.5,-102.4 1866.5,-94.73 1866.5,-94.73 1866.5,-90.9 1870.33,-87.07 1874.17,-87.07 1874.17,-87.07 1998.83,-87.07 1998.83,-87.07 2002.67,-87.07 2006.5,-90.9 2006.5,-94.73 2006.5,-94.73 2006.5,-102.4 2006.5,-102.4 2006.5,-106.23 2002.67,-110.07 1998.83,-110.07"/>
<text text-anchor="middle" x="1936.5" y="-94.87" font-family="Arial" font-size="14.00" fill="#cfffac">hook/useResize.tsx</text>
</g>
<!-- component/chart/BarChart.tsx&#45;&gt;hook/useResize.tsx -->
<g id="edge44" class="edge">
<title>component/chart/BarChart.tsx&#45;&gt;hook/useResize.tsx</title>
<path fill="none" stroke="#757575" d="M1530.38,-98.57C1625.67,-98.57 1766.75,-98.57 1854.8,-98.57"/>
<polygon fill="#757575" stroke="#757575" points="1854.55,-102.07 1864.55,-98.57 1854.55,-95.07 1854.55,-102.07"/>
</g>
<!-- component/chart/InformaticsChart.tsx&#45;&gt;types/chart.d.ts -->
<g id="edge47" class="edge">
<title>component/chart/InformaticsChart.tsx&#45;&gt;types/chart.d.ts</title>
<path fill="none" stroke="#757575" d="M1546.52,-231.56C1692.39,-244.49 1949.2,-260.56 2168,-239.57 2218.34,-234.74 2274.64,-223.43 2315.73,-214.06"/>
<polygon fill="#757575" stroke="#757575" points="2316.47,-217.48 2325.42,-211.82 2314.89,-210.66 2316.47,-217.48"/>
</g>
<!-- component/chart/InformaticsChart/InforMaticsBox.tsx -->
<g id="node43" class="node">
<title>component/chart/InformaticsChart/InforMaticsBox.tsx</title>
<path fill="none" stroke="#c6c5fe" d="M2103.83,-231.07C2103.83,-231.07 1769.17,-231.07 1769.17,-231.07 1765.33,-231.07 1761.5,-227.23 1761.5,-223.4 1761.5,-223.4 1761.5,-215.73 1761.5,-215.73 1761.5,-211.9 1765.33,-208.07 1769.17,-208.07 1769.17,-208.07 2103.83,-208.07 2103.83,-208.07 2107.67,-208.07 2111.5,-211.9 2111.5,-215.73 2111.5,-215.73 2111.5,-223.4 2111.5,-223.4 2111.5,-227.23 2107.67,-231.07 2103.83,-231.07"/>
<text text-anchor="middle" x="1936.5" y="-215.87" font-family="Arial" font-size="14.00" fill="#c6c5fe">component/chart/InformaticsChart/InforMaticsBox.tsx</text>
</g>
<!-- component/chart/InformaticsChart.tsx&#45;&gt;component/chart/InformaticsChart/InforMaticsBox.tsx -->
<g id="edge46" class="edge">
<title>component/chart/InformaticsChart.tsx&#45;&gt;component/chart/InformaticsChart/InforMaticsBox.tsx</title>
<path fill="none" stroke="#757575" d="M1554.9,-219.57C1613.7,-219.57 1684.94,-219.57 1749.82,-219.57"/>
<polygon fill="#757575" stroke="#757575" points="1749.5,-223.07 1759.5,-219.57 1749.5,-216.07 1749.5,-223.07"/>
</g>
<!-- component/chart/LineChart.tsx&#45;&gt;common/chart.ts -->
<g id="edge49" class="edge">
<title>component/chart/LineChart.tsx&#45;&gt;common/chart.ts</title>
<path fill="none" stroke="#757575" d="M1533.48,-147.13C1577.38,-146.2 1627.76,-139.46 1669,-118.57 1690.63,-107.61 1683.36,-88.52 1705,-77.57 1754,-52.77 1816.41,-48.76 1863.93,-50.4"/>
<polygon fill="#757575" stroke="#757575" points="1863.71,-53.89 1873.85,-50.85 1864.02,-46.9 1863.71,-53.89"/>
</g>
<!-- component/chart/LineChart.tsx&#45;&gt;types/chart.d.ts -->
<g id="edge52" class="edge">
<title>component/chart/LineChart.tsx&#45;&gt;types/chart.d.ts</title>
<path fill="none" stroke="#757575" d="M1533.48,-147.43C1585.06,-151.25 1648.3,-155.82 1705,-159.57 1925.61,-174.16 2187.27,-189.11 2307.73,-195.86"/>
<polygon fill="#757575" stroke="#757575" points="2307.25,-199.34 2317.43,-196.4 2307.64,-192.35 2307.25,-199.34"/>
</g>
<!-- component/chart/LineChart.tsx&#45;&gt;component/chart/ChartSvg.tsx -->
<g id="edge50" class="edge">
<title>component/chart/LineChart.tsx&#45;&gt;component/chart/ChartSvg.tsx</title>
<path fill="none" stroke="#757575" d="M1533.42,-139.57C1617.29,-139.57 1735.13,-139.57 1821.57,-139.57"/>
<polygon fill="#757575" stroke="#757575" points="1821.5,-143.07 1831.5,-139.57 1821.5,-136.07 1821.5,-143.07"/>
</g>
<!-- component/chart/LineChart.tsx&#45;&gt;hook/useResize.tsx -->
<g id="edge51" class="edge">
<title>component/chart/LineChart.tsx&#45;&gt;hook/useResize.tsx</title>
<path fill="none" stroke="#757575" d="M1533.42,-131.15C1628.64,-123.43 1767.65,-112.17 1854.76,-105.11"/>
<polygon fill="#757575" stroke="#757575" points="1854.98,-108.6 1864.67,-104.31 1854.42,-101.63 1854.98,-108.6"/>
</g>
<!-- component/Widget/WidgetPropsSettingModal.tsx -->
<g id="node37" class="node">
<title>component/Widget/WidgetPropsSettingModal.tsx</title>
<path fill="none" stroke="#c6c5fe" d="M1121.83,-546.07C1121.83,-546.07 808.17,-546.07 808.17,-546.07 804.33,-546.07 800.5,-542.23 800.5,-538.4 800.5,-538.4 800.5,-530.73 800.5,-530.73 800.5,-526.9 804.33,-523.07 808.17,-523.07 808.17,-523.07 1121.83,-523.07 1121.83,-523.07 1125.67,-523.07 1129.5,-526.9 1129.5,-530.73 1129.5,-530.73 1129.5,-538.4 1129.5,-538.4 1129.5,-542.23 1125.67,-546.07 1121.83,-546.07"/>
<text text-anchor="middle" x="965" y="-530.87" font-family="Arial" font-size="14.00" fill="#c6c5fe">component/Widget/WidgetPropsSettingModal.tsx</text>
</g>
<!-- component/Widget/WidgetPropsSettingModal.tsx&#45;&gt;store/WidgetPropsSettingModalProvider.tsx -->
<g id="edge40" class="edge">
<title>component/Widget/WidgetPropsSettingModal.tsx&#45;&gt;store/WidgetPropsSettingModalProvider.tsx</title>
<path fill="none" stroke="#757575" d="M1012.79,-546.53C1097.7,-568.24 1276.92,-614.07 1369.47,-637.73"/>
<polygon fill="#757575" stroke="#757575" points="1368.56,-641.11 1379.12,-640.2 1370.3,-634.33 1368.56,-641.11"/>
</g>
<!-- component/Widget/WidgetPropsSettingModal/WidgetPropsButtons.tsx -->
<g id="node38" class="node">
<title>component/Widget/WidgetPropsSettingModal/WidgetPropsButtons.tsx</title>
<path fill="none" stroke="#c6c5fe" d="M1653.33,-505.07C1653.33,-505.07 1203.67,-505.07 1203.67,-505.07 1199.83,-505.07 1196,-501.23 1196,-497.4 1196,-497.4 1196,-489.73 1196,-489.73 1196,-485.9 1199.83,-482.07 1203.67,-482.07 1203.67,-482.07 1653.33,-482.07 1653.33,-482.07 1657.17,-482.07 1661,-485.9 1661,-489.73 1661,-489.73 1661,-497.4 1661,-497.4 1661,-501.23 1657.17,-505.07 1653.33,-505.07"/>
<text text-anchor="middle" x="1428.5" y="-489.87" font-family="Arial" font-size="14.00" fill="#c6c5fe">component/Widget/WidgetPropsSettingModal/WidgetPropsButtons.tsx</text>
</g>
<!-- component/Widget/WidgetPropsSettingModal.tsx&#45;&gt;component/Widget/WidgetPropsSettingModal/WidgetPropsButtons.tsx -->
<g id="edge37" class="edge">
<title>component/Widget/WidgetPropsSettingModal.tsx&#45;&gt;component/Widget/WidgetPropsSettingModal/WidgetPropsButtons.tsx</title>
<path fill="none" stroke="#757575" d="M1090.15,-522.58C1122.03,-519.57 1156.28,-516.39 1188,-513.57 1214.39,-511.22 1242.43,-508.8 1269.66,-506.5"/>
<polygon fill="#757575" stroke="#757575" points="1269.69,-510.01 1279.36,-505.68 1269.1,-503.03 1269.69,-510.01"/>
</g>
<!-- component/Widget/WidgetPropsSettingModal/WidgetPropsList.tsx -->
<g id="node39" class="node">
<title>component/Widget/WidgetPropsSettingModal/WidgetPropsList.tsx</title>
<path fill="none" stroke="#cfffac" d="M1640.83,-546.07C1640.83,-546.07 1216.17,-546.07 1216.17,-546.07 1212.33,-546.07 1208.5,-542.23 1208.5,-538.4 1208.5,-538.4 1208.5,-530.73 1208.5,-530.73 1208.5,-526.9 1212.33,-523.07 1216.17,-523.07 1216.17,-523.07 1640.83,-523.07 1640.83,-523.07 1644.67,-523.07 1648.5,-526.9 1648.5,-530.73 1648.5,-530.73 1648.5,-538.4 1648.5,-538.4 1648.5,-542.23 1644.67,-546.07 1640.83,-546.07"/>
<text text-anchor="middle" x="1428.5" y="-530.87" font-family="Arial" font-size="14.00" fill="#cfffac">component/Widget/WidgetPropsSettingModal/WidgetPropsList.tsx</text>
</g>
<!-- component/Widget/WidgetPropsSettingModal.tsx&#45;&gt;component/Widget/WidgetPropsSettingModal/WidgetPropsList.tsx -->
<g id="edge38" class="edge">
<title>component/Widget/WidgetPropsSettingModal.tsx&#45;&gt;component/Widget/WidgetPropsSettingModal/WidgetPropsList.tsx</title>
<path fill="none" stroke="#757575" d="M1129.68,-534.57C1151.41,-534.57 1174.01,-534.57 1196.61,-534.57"/>
<polygon fill="#757575" stroke="#757575" points="1196.55,-538.07 1206.55,-534.57 1196.55,-531.07 1196.55,-538.07"/>
</g>
<!-- hook/useGetApiList.tsx -->
<g id="node40" class="node">
<title>hook/useGetApiList.tsx</title>
<path fill="none" stroke="#c6c5fe" d="M1502.33,-464.07C1502.33,-464.07 1354.67,-464.07 1354.67,-464.07 1350.83,-464.07 1347,-460.23 1347,-456.4 1347,-456.4 1347,-448.73 1347,-448.73 1347,-444.9 1350.83,-441.07 1354.67,-441.07 1354.67,-441.07 1502.33,-441.07 1502.33,-441.07 1506.17,-441.07 1510,-444.9 1510,-448.73 1510,-448.73 1510,-456.4 1510,-456.4 1510,-460.23 1506.17,-464.07 1502.33,-464.07"/>
<text text-anchor="middle" x="1428.5" y="-448.87" font-family="Arial" font-size="14.00" fill="#c6c5fe">hook/useGetApiList.tsx</text>
</g>
<!-- component/Widget/WidgetPropsSettingModal.tsx&#45;&gt;hook/useGetApiList.tsx -->
<g id="edge39" class="edge">
<title>component/Widget/WidgetPropsSettingModal.tsx&#45;&gt;hook/useGetApiList.tsx</title>
<path fill="none" stroke="#757575" d="M1010.83,-522.67C1048.56,-512.55 1103.92,-497.5 1152,-483.57 1168.07,-478.91 1171.57,-475.73 1188,-472.57 1236.06,-463.33 1290.35,-458.36 1335.08,-455.68"/>
<polygon fill="#757575" stroke="#757575" points="1335.24,-459.18 1345.03,-455.12 1334.84,-452.19 1335.24,-459.18"/>
</g>
<!-- component/Widget/WidgetPropsSettingModal/WidgetPropsButtons.tsx&#45;&gt;store/WidgetProvider.tsx -->
<g id="edge41" class="edge">
<title>component/Widget/WidgetPropsSettingModal/WidgetPropsButtons.tsx&#45;&gt;store/WidgetProvider.tsx</title>
<path fill="none" stroke="#757575" d="M1654.17,-505.44C1659.25,-507.91 1664.21,-510.61 1669,-513.57 1695.14,-529.71 1679.46,-555.5 1705,-572.57 1743.81,-598.49 1794.37,-608.37 1838.25,-611.4"/>
<polygon fill="#757575" stroke="#757575" points="1837.85,-614.88 1848.04,-611.95 1838.25,-607.89 1837.85,-614.88"/>
</g>
<!-- hook/useGetApiList.tsx&#45;&gt;common/api.ts -->
<g id="edge65" class="edge">
<title>hook/useGetApiList.tsx&#45;&gt;common/api.ts</title>
<path fill="none" stroke="#757575" d="M1510.46,-458.97C1556.88,-462.73 1616.23,-467.69 1669,-472.57 1737.63,-478.91 1816.12,-486.96 1870.05,-492.61"/>
<polygon fill="#757575" stroke="#757575" points="1869.35,-496.06 1879.66,-493.62 1870.08,-489.1 1869.35,-496.06"/>
</g>
<!-- component/chart/InformaticsChart/InforMaticsBox.tsx&#45;&gt;types/chart.d.ts -->
<g id="edge48" class="edge">
<title>component/chart/InformaticsChart/InforMaticsBox.tsx&#45;&gt;types/chart.d.ts</title>
<path fill="none" stroke="#757575" d="M2111.78,-211.59C2180.34,-208.45 2254.96,-205.04 2307.09,-202.65"/>
<polygon fill="#757575" stroke="#757575" points="2307.18,-206.15 2317.01,-202.2 2306.86,-199.16 2307.18,-206.15"/>
</g>
<!-- component/common/DatePicker/DatePickerTitle.tsx&#45;&gt;types/widget.d.ts -->
<g id="edge56" class="edge">
<title>component/common/DatePicker/DatePickerTitle.tsx&#45;&gt;types/widget.d.ts</title>
<path fill="none" stroke="#757575" d="M2407.74,-739.62C2474.93,-713.93 2633.16,-653.43 2708.8,-624.51"/>
<polygon fill="#757575" stroke="#757575" points="2709.84,-627.86 2717.93,-621.02 2707.34,-621.32 2709.84,-627.86"/>
</g>
<!-- component/common/DatePicker/ListPicker.tsx&#45;&gt;types/datePicker.d.ts -->
<g id="edge58" class="edge">
<title>component/common/DatePicker/ListPicker.tsx&#45;&gt;types/datePicker.d.ts</title>
<path fill="none" stroke="#757575" d="M2488.46,-844.54C2545.2,-850.61 2612.99,-857.86 2665.4,-863.47"/>
<polygon fill="#757575" stroke="#757575" points="2664.86,-866.93 2675.18,-864.51 2665.6,-859.97 2664.86,-866.93"/>
</g>
<!-- component/common/DatePicker/ListPickerItem.tsx -->
<g id="node48" class="node">
<title>component/common/DatePicker/ListPickerItem.tsx</title>
<path fill="none" stroke="#cfffac" d="M2912.33,-843.07C2912.33,-843.07 2590.67,-843.07 2590.67,-843.07 2586.83,-843.07 2583,-839.23 2583,-835.4 2583,-835.4 2583,-827.73 2583,-827.73 2583,-823.9 2586.83,-820.07 2590.67,-820.07 2590.67,-820.07 2912.33,-820.07 2912.33,-820.07 2916.17,-820.07 2920,-823.9 2920,-827.73 2920,-827.73 2920,-835.4 2920,-835.4 2920,-839.23 2916.17,-843.07 2912.33,-843.07"/>
<text text-anchor="middle" x="2751.5" y="-827.87" font-family="Arial" font-size="14.00" fill="#cfffac">component/common/DatePicker/ListPickerItem.tsx</text>
</g>
<!-- component/common/DatePicker/ListPicker.tsx&#45;&gt;component/common/DatePicker/ListPickerItem.tsx -->
<g id="edge57" class="edge">
<title>component/common/DatePicker/ListPicker.tsx&#45;&gt;component/common/DatePicker/ListPickerItem.tsx</title>
<path fill="none" stroke="#757575" d="M2529.97,-832.16C2543.65,-832.12 2557.58,-832.08 2571.45,-832.05"/>
<polygon fill="#757575" stroke="#757575" points="2571.05,-835.55 2581.04,-832.02 2571.03,-828.55 2571.05,-835.55"/>
</g>
<!-- page/Dashboard.tsx&#45;&gt;component/Dashboard/DashboardHeader.tsx -->
<g id="edge66" class="edge">
<title>page/Dashboard.tsx&#45;&gt;component/Dashboard/DashboardHeader.tsx</title>
<path fill="none" stroke="#757575" d="M352.81,-664.46C374.01,-676.24 408.07,-694.25 439,-706.57 468.64,-718.37 502.61,-728.78 530.77,-736.61"/>
<polygon fill="#757575" stroke="#757575" points="529.63,-739.92 540.2,-739.19 531.47,-733.17 529.63,-739.92"/>
</g>
<!-- page/Dashboard.tsx&#45;&gt;component/Widget/Widget.tsx -->
<g id="edge67" class="edge">
<title>page/Dashboard.tsx&#45;&gt;component/Widget/Widget.tsx</title>
<path fill="none" stroke="#757575" d="M342.24,-640.59C359.92,-620.68 398.21,-580.88 439,-559.57 458.53,-549.37 480.93,-541.81 502.38,-536.24"/>
<polygon fill="#757575" stroke="#757575" points="503.15,-539.66 512.02,-533.87 501.47,-532.86 503.15,-539.66"/>
</g>
<!-- page/Dashboard.tsx&#45;&gt;store/WidgetProvider.tsx -->
<g id="edge69" class="edge">
<title>page/Dashboard.tsx&#45;&gt;store/WidgetProvider.tsx</title>
<path fill="none" stroke="#757575" d="M403.18,-657.28C663.48,-674.03 1554.54,-726.81 1669,-672.57 1691.83,-661.75 1682.66,-640.37 1705,-628.57 1745.35,-607.26 1795.28,-600.93 1838.34,-600.47"/>
<polygon fill="#757575" stroke="#757575" points="1838.19,-603.97 1848.19,-600.48 1838.2,-596.97 1838.19,-603.97"/>
</g>
<!-- page/Dashboard.tsx&#45;&gt;component/Widget/WidgetPropsSettingModal.tsx -->
<g id="edge68" class="edge">
<title>page/Dashboard.tsx&#45;&gt;component/Widget/WidgetPropsSettingModal.tsx</title>
<path fill="none" stroke="#757575" d="M396.08,-640.6C513.66,-618.65 763.3,-572.04 888.74,-548.62"/>
<polygon fill="#757575" stroke="#757575" points="889.08,-552.12 898.27,-546.84 887.79,-545.24 889.08,-552.12"/>
</g>
</g>
</svg>
