<?xml version="1.0" encoding="UTF-8" standalone="no"?>
<!DOCTYPE svg PUBLIC "-//W3C//DTD SVG 1.1//EN"
 "http://www.w3.org/Graphics/SVG/1.1/DTD/svg11.dtd">
<!-- Generated by graphviz version 7.1.0 (20230121.1956)
 -->
<!-- Title: G Pages: 1 -->
<svg width="3509pt" height="1228pt"
 viewBox="0.00 0.00 3509.20 1227.58" xmlns="http://www.w3.org/2000/svg" xmlns:xlink="http://www.w3.org/1999/xlink">
<g id="graph0" class="graph" transform="scale(1 1) rotate(0) translate(21.6 1205.98)">
<title>G</title>
<polygon fill="#111111" stroke="none" points="-21.6,21.6 -21.6,-1205.98 3487.6,-1205.98 3487.6,21.6 -21.6,21.6"/>
<!-- App.tsx -->
<g id="node1" class="node">
<title>App.tsx</title>
<path fill="none" stroke="#c6c5fe" d="M57.33,-697.86C57.33,-697.86 7.67,-697.86 7.67,-697.86 3.83,-697.86 0,-694.02 0,-690.19 0,-690.19 0,-682.52 0,-682.52 0,-678.69 3.83,-674.86 7.67,-674.86 7.67,-674.86 57.33,-674.86 57.33,-674.86 61.17,-674.86 65,-678.69 65,-682.52 65,-682.52 65,-690.19 65,-690.19 65,-694.02 61.17,-697.86 57.33,-697.86"/>
<text text-anchor="middle" x="32.5" y="-682.66" font-family="Arial" font-size="14.00" fill="#c6c5fe">App.tsx</text>
</g>
<!-- router/Router.tsx -->
<g id="node2" class="node">
<title>router/Router.tsx</title>
<path fill="none" stroke="#c6c5fe" d="M215.33,-697.86C215.33,-697.86 108.67,-697.86 108.67,-697.86 104.83,-697.86 101,-694.02 101,-690.19 101,-690.19 101,-682.52 101,-682.52 101,-678.69 104.83,-674.86 108.67,-674.86 108.67,-674.86 215.33,-674.86 215.33,-674.86 219.17,-674.86 223,-678.69 223,-682.52 223,-682.52 223,-690.19 223,-690.19 223,-694.02 219.17,-697.86 215.33,-697.86"/>
<text text-anchor="middle" x="162" y="-682.66" font-family="Arial" font-size="14.00" fill="#c6c5fe">router/Router.tsx</text>
</g>
<!-- App.tsx&#45;&gt;router/Router.tsx -->
<g id="edge1" class="edge">
<title>App.tsx&#45;&gt;router/Router.tsx</title>
<path fill="none" stroke="#757575" d="M65.34,-686.36C72.7,-686.36 80.81,-686.36 89.12,-686.36"/>
<polygon fill="#757575" stroke="#757575" points="88.99,-689.86 98.99,-686.36 88.99,-682.86 88.99,-689.86"/>
</g>
<!-- page/Dashboard.tsx -->
<g id="node49" class="node">
<title>page/Dashboard.tsx</title>
<path fill="none" stroke="#c6c5fe" d="M395.33,-697.86C395.33,-697.86 266.67,-697.86 266.67,-697.86 262.83,-697.86 259,-694.02 259,-690.19 259,-690.19 259,-682.52 259,-682.52 259,-678.69 262.83,-674.86 266.67,-674.86 266.67,-674.86 395.33,-674.86 395.33,-674.86 399.17,-674.86 403,-678.69 403,-682.52 403,-682.52 403,-690.19 403,-690.19 403,-694.02 399.17,-697.86 395.33,-697.86"/>
<text text-anchor="middle" x="331" y="-682.66" font-family="Arial" font-size="14.00" fill="#c6c5fe">page/Dashboard.tsx</text>
</g>
<!-- router/Router.tsx&#45;&gt;page/Dashboard.tsx -->
<g id="edge77" class="edge">
<title>router/Router.tsx&#45;&gt;page/Dashboard.tsx</title>
<path fill="none" stroke="#757575" d="M223.29,-686.36C231.1,-686.36 239.21,-686.36 247.3,-686.36"/>
<polygon fill="#757575" stroke="#757575" points="247.19,-689.86 257.19,-686.36 247.19,-682.86 247.19,-689.86"/>
</g>
<!-- asset/image/pause.png -->
<g id="node3" class="node">
<title>asset/image/pause.png</title>
<path fill="none" stroke="#cfffac" d="M1619.83,-851.86C1619.83,-851.86 1471.17,-851.86 1471.17,-851.86 1467.33,-851.86 1463.5,-848.02 1463.5,-844.19 1463.5,-844.19 1463.5,-836.52 1463.5,-836.52 1463.5,-832.69 1467.33,-828.86 1471.17,-828.86 1471.17,-828.86 1619.83,-828.86 1619.83,-828.86 1623.67,-828.86 1627.5,-832.69 1627.5,-836.52 1627.5,-836.52 1627.5,-844.19 1627.5,-844.19 1627.5,-848.02 1623.67,-851.86 1619.83,-851.86"/>
<text text-anchor="middle" x="1545.5" y="-836.66" font-family="Arial" font-size="14.00" fill="#cfffac">asset/image/pause.png</text>
</g>
<!-- asset/image/play.png -->
<g id="node4" class="node">
<title>asset/image/play.png</title>
<path fill="none" stroke="#cfffac" d="M1613.33,-892.86C1613.33,-892.86 1477.67,-892.86 1477.67,-892.86 1473.83,-892.86 1470,-889.02 1470,-885.19 1470,-885.19 1470,-877.52 1470,-877.52 1470,-873.69 1473.83,-869.86 1477.67,-869.86 1477.67,-869.86 1613.33,-869.86 1613.33,-869.86 1617.17,-869.86 1621,-873.69 1621,-877.52 1621,-877.52 1621,-885.19 1621,-885.19 1621,-889.02 1617.17,-892.86 1613.33,-892.86"/>
<text text-anchor="middle" x="1545.5" y="-877.66" font-family="Arial" font-size="14.00" fill="#cfffac">asset/image/play.png</text>
</g>
<!-- common/api.ts -->
<g id="node5" class="node">
<title>common/api.ts</title>
<path fill="none" stroke="#c6c5fe" d="M2100.83,-612.86C2100.83,-612.86 2006.17,-612.86 2006.17,-612.86 2002.33,-612.86 1998.5,-609.02 1998.5,-605.19 1998.5,-605.19 1998.5,-597.52 1998.5,-597.52 1998.5,-593.69 2002.33,-589.86 2006.17,-589.86 2006.17,-589.86 2100.83,-589.86 2100.83,-589.86 2104.67,-589.86 2108.5,-593.69 2108.5,-597.52 2108.5,-597.52 2108.5,-605.19 2108.5,-605.19 2108.5,-609.02 2104.67,-612.86 2100.83,-612.86"/>
<text text-anchor="middle" x="2053.5" y="-597.66" font-family="Arial" font-size="14.00" fill="#c6c5fe">common/api.ts</text>
</g>
<!-- types/api.d.ts -->
<g id="node6" class="node">
<title>types/api.d.ts</title>
<path fill="none" stroke="#cfffac" d="M2535.33,-612.86C2535.33,-612.86 2449.67,-612.86 2449.67,-612.86 2445.83,-612.86 2442,-609.02 2442,-605.19 2442,-605.19 2442,-597.52 2442,-597.52 2442,-593.69 2445.83,-589.86 2449.67,-589.86 2449.67,-589.86 2535.33,-589.86 2535.33,-589.86 2539.17,-589.86 2543,-593.69 2543,-597.52 2543,-597.52 2543,-605.19 2543,-605.19 2543,-609.02 2539.17,-612.86 2535.33,-612.86"/>
<text text-anchor="middle" x="2492.5" y="-597.66" font-family="Arial" font-size="14.00" fill="#cfffac">types/api.d.ts</text>
</g>
<!-- common/api.ts&#45;&gt;types/api.d.ts -->
<g id="edge2" class="edge">
<title>common/api.ts&#45;&gt;types/api.d.ts</title>
<path fill="none" stroke="#757575" d="M2108.96,-601.36C2190.77,-601.36 2344.89,-601.36 2430.41,-601.36"/>
<polygon fill="#757575" stroke="#757575" points="2430.25,-604.86 2440.25,-601.36 2430.25,-597.86 2430.25,-604.86"/>
</g>
<!-- common/chart.ts -->
<g id="node7" class="node">
<title>common/chart.ts</title>
<path fill="none" stroke="#c6c5fe" d="M2106.83,-177.86C2106.83,-177.86 2000.17,-177.86 2000.17,-177.86 1996.33,-177.86 1992.5,-174.02 1992.5,-170.19 1992.5,-170.19 1992.5,-162.52 1992.5,-162.52 1992.5,-158.69 1996.33,-154.86 2000.17,-154.86 2000.17,-154.86 2106.83,-154.86 2106.83,-154.86 2110.67,-154.86 2114.5,-158.69 2114.5,-162.52 2114.5,-162.52 2114.5,-170.19 2114.5,-170.19 2114.5,-174.02 2110.67,-177.86 2106.83,-177.86"/>
<text text-anchor="middle" x="2053.5" y="-162.66" font-family="Arial" font-size="14.00" fill="#c6c5fe">common/chart.ts</text>
</g>
<!-- types/chart.d.ts -->
<g id="node8" class="node">
<title>types/chart.d.ts</title>
<path fill="none" stroke="#cfffac" d="M2541.33,-378.86C2541.33,-378.86 2443.67,-378.86 2443.67,-378.86 2439.83,-378.86 2436,-375.02 2436,-371.19 2436,-371.19 2436,-363.52 2436,-363.52 2436,-359.69 2439.83,-355.86 2443.67,-355.86 2443.67,-355.86 2541.33,-355.86 2541.33,-355.86 2545.17,-355.86 2549,-359.69 2549,-363.52 2549,-363.52 2549,-371.19 2549,-371.19 2549,-375.02 2545.17,-378.86 2541.33,-378.86"/>
<text text-anchor="middle" x="2492.5" y="-363.66" font-family="Arial" font-size="14.00" fill="#cfffac">types/chart.d.ts</text>
</g>
<!-- common/chart.ts&#45;&gt;types/chart.d.ts -->
<g id="edge3" class="edge">
<title>common/chart.ts&#45;&gt;types/chart.d.ts</title>
<path fill="none" stroke="#757575" d="M2114.74,-161.55C2162.75,-160.04 2230.69,-163.19 2285,-186.36 2369.89,-222.56 2444.48,-307.52 2475.8,-346.79"/>
<polygon fill="#757575" stroke="#757575" points="2472.96,-348.83 2481.88,-354.54 2478.46,-344.51 2472.96,-348.83"/>
</g>
<!-- common/date.ts -->
<g id="node9" class="node">
<title>common/date.ts</title>
<path fill="none" stroke="#cfffac" d="M2544.33,-736.86C2544.33,-736.86 2440.67,-736.86 2440.67,-736.86 2436.83,-736.86 2433,-733.02 2433,-729.19 2433,-729.19 2433,-721.52 2433,-721.52 2433,-717.69 2436.83,-713.86 2440.67,-713.86 2440.67,-713.86 2544.33,-713.86 2544.33,-713.86 2548.17,-713.86 2552,-717.69 2552,-721.52 2552,-721.52 2552,-729.19 2552,-729.19 2552,-733.02 2548.17,-736.86 2544.33,-736.86"/>
<text text-anchor="middle" x="2492.5" y="-721.66" font-family="Arial" font-size="14.00" fill="#cfffac">common/date.ts</text>
</g>
<!-- common/widget.ts -->
<g id="node10" class="node">
<title>common/widget.ts</title>
<path fill="none" stroke="#cfffac" d="M2111.83,-218.86C2111.83,-218.86 1995.17,-218.86 1995.17,-218.86 1991.33,-218.86 1987.5,-215.02 1987.5,-211.19 1987.5,-211.19 1987.5,-203.52 1987.5,-203.52 1987.5,-199.69 1991.33,-195.86 1995.17,-195.86 1995.17,-195.86 2111.83,-195.86 2111.83,-195.86 2115.67,-195.86 2119.5,-199.69 2119.5,-203.52 2119.5,-203.52 2119.5,-211.19 2119.5,-211.19 2119.5,-215.02 2115.67,-218.86 2111.83,-218.86"/>
<text text-anchor="middle" x="2053.5" y="-203.66" font-family="Arial" font-size="14.00" fill="#cfffac">common/widget.ts</text>
</g>
<!-- component/Dashboard/CommonStyle.ts -->
<g id="node11" class="node">
<title>component/Dashboard/CommonStyle.ts</title>
<path fill="none" stroke="#cfffac" d="M3458.33,-1054.86C3458.33,-1054.86 3203.67,-1054.86 3203.67,-1054.86 3199.83,-1054.86 3196,-1051.02 3196,-1047.19 3196,-1047.19 3196,-1039.52 3196,-1039.52 3196,-1035.69 3199.83,-1031.86 3203.67,-1031.86 3203.67,-1031.86 3458.33,-1031.86 3458.33,-1031.86 3462.17,-1031.86 3466,-1035.69 3466,-1039.52 3466,-1039.52 3466,-1047.19 3466,-1047.19 3466,-1051.02 3462.17,-1054.86 3458.33,-1054.86"/>
<text text-anchor="middle" x="3331" y="-1039.66" font-family="Arial" font-size="14.00" fill="#cfffac">component/Dashboard/CommonStyle.ts</text>
</g>
<!-- component/Dashboard/DashboardHeader.tsx -->
<g id="node12" class="node">
<title>component/Dashboard/DashboardHeader.tsx</title>
<path fill="none" stroke="#c6c5fe" d="M747.33,-850.86C747.33,-850.86 459.67,-850.86 459.67,-850.86 455.83,-850.86 452,-847.02 452,-843.19 452,-843.19 452,-835.52 452,-835.52 452,-831.69 455.83,-827.86 459.67,-827.86 459.67,-827.86 747.33,-827.86 747.33,-827.86 751.17,-827.86 755,-831.69 755,-835.52 755,-835.52 755,-843.19 755,-843.19 755,-847.02 751.17,-850.86 747.33,-850.86"/>
<text text-anchor="middle" x="603.5" y="-835.66" font-family="Arial" font-size="14.00" fill="#c6c5fe">component/Dashboard/DashboardHeader.tsx</text>
</g>
<!-- component/Dashboard/DashboardHeader/PlayIcon.tsx -->
<g id="node13" class="node">
<title>component/Dashboard/DashboardHeader/PlayIcon.tsx</title>
<path fill="none" stroke="#c6c5fe" d="M1209.83,-890.86C1209.83,-890.86 863.17,-890.86 863.17,-890.86 859.33,-890.86 855.5,-887.02 855.5,-883.19 855.5,-883.19 855.5,-875.52 855.5,-875.52 855.5,-871.69 859.33,-867.86 863.17,-867.86 863.17,-867.86 1209.83,-867.86 1209.83,-867.86 1213.67,-867.86 1217.5,-871.69 1217.5,-875.52 1217.5,-875.52 1217.5,-883.19 1217.5,-883.19 1217.5,-887.02 1213.67,-890.86 1209.83,-890.86"/>
<text text-anchor="middle" x="1036.5" y="-875.66" font-family="Arial" font-size="14.00" fill="#c6c5fe">component/Dashboard/DashboardHeader/PlayIcon.tsx</text>
</g>
<!-- component/Dashboard/DashboardHeader.tsx&#45;&gt;component/Dashboard/DashboardHeader/PlayIcon.tsx -->
<g id="edge4" class="edge">
<title>component/Dashboard/DashboardHeader.tsx&#45;&gt;component/Dashboard/DashboardHeader/PlayIcon.tsx</title>
<path fill="none" stroke="#757575" d="M733.52,-851.33C784.47,-856.06 843.15,-861.51 895.15,-866.33"/>
<polygon fill="#757575" stroke="#757575" points="894.69,-869.81 904.98,-867.24 895.34,-862.84 894.69,-869.81"/>
</g>
<!-- component/Dashboard/DashboardHeader/SelectRealTimeRangeArea.tsx -->
<g id="node14" class="node">
<title>component/Dashboard/DashboardHeader/SelectRealTimeRangeArea.tsx</title>
<path fill="none" stroke="#c6c5fe" d="M1778.33,-1076.86C1778.33,-1076.86 1312.67,-1076.86 1312.67,-1076.86 1308.83,-1076.86 1305,-1073.02 1305,-1069.19 1305,-1069.19 1305,-1061.52 1305,-1061.52 1305,-1057.69 1308.83,-1053.86 1312.67,-1053.86 1312.67,-1053.86 1778.33,-1053.86 1778.33,-1053.86 1782.17,-1053.86 1786,-1057.69 1786,-1061.52 1786,-1061.52 1786,-1069.19 1786,-1069.19 1786,-1073.02 1782.17,-1076.86 1778.33,-1076.86"/>
<text text-anchor="middle" x="1545.5" y="-1061.66" font-family="Arial" font-size="14.00" fill="#c6c5fe">component/Dashboard/DashboardHeader/SelectRealTimeRangeArea.tsx</text>
</g>
<!-- component/Dashboard/DashboardHeader.tsx&#45;&gt;component/Dashboard/DashboardHeader/SelectRealTimeRangeArea.tsx -->
<g id="edge5" class="edge">
<title>component/Dashboard/DashboardHeader.tsx&#45;&gt;component/Dashboard/DashboardHeader/SelectRealTimeRangeArea.tsx</title>
<path fill="none" stroke="#757575" d="M622.6,-851.33C656.61,-873.24 733.04,-919.69 804,-943.36 991.66,-1005.94 1217.18,-1037.21 1369.66,-1052.28"/>
<polygon fill="#757575" stroke="#757575" points="1369.16,-1055.75 1379.46,-1053.24 1369.84,-1048.79 1369.16,-1055.75"/>
</g>
<!-- component/Dashboard/DashboardHeader/TimeBlock.tsx -->
<g id="node15" class="node">
<title>component/Dashboard/DashboardHeader/TimeBlock.tsx</title>
<path fill="none" stroke="#c6c5fe" d="M1215.83,-933.86C1215.83,-933.86 857.17,-933.86 857.17,-933.86 853.33,-933.86 849.5,-930.02 849.5,-926.19 849.5,-926.19 849.5,-918.52 849.5,-918.52 849.5,-914.69 853.33,-910.86 857.17,-910.86 857.17,-910.86 1215.83,-910.86 1215.83,-910.86 1219.67,-910.86 1223.5,-914.69 1223.5,-918.52 1223.5,-918.52 1223.5,-926.19 1223.5,-926.19 1223.5,-930.02 1219.67,-933.86 1215.83,-933.86"/>
<text text-anchor="middle" x="1036.5" y="-918.66" font-family="Arial" font-size="14.00" fill="#c6c5fe">component/Dashboard/DashboardHeader/TimeBlock.tsx</text>
</g>
<!-- component/Dashboard/DashboardHeader.tsx&#45;&gt;component/Dashboard/DashboardHeader/TimeBlock.tsx -->
<g id="edge6" class="edge">
<title>component/Dashboard/DashboardHeader.tsx&#45;&gt;component/Dashboard/DashboardHeader/TimeBlock.tsx</title>
<path fill="none" stroke="#757575" d="M636.47,-851.33C675.45,-865.41 743.6,-888.38 804,-900.36 820.81,-903.69 838.4,-906.52 856.07,-908.93"/>
<polygon fill="#757575" stroke="#757575" points="855.2,-912.34 865.57,-910.18 856.11,-905.4 855.2,-912.34"/>
</g>
<!-- store/DashboardProvider.tsx -->
<g id="node16" class="node">
<title>store/DashboardProvider.tsx</title>
<path fill="none" stroke="#c6c5fe" d="M2144.33,-736.86C2144.33,-736.86 1962.67,-736.86 1962.67,-736.86 1958.83,-736.86 1955,-733.02 1955,-729.19 1955,-729.19 1955,-721.52 1955,-721.52 1955,-717.69 1958.83,-713.86 1962.67,-713.86 1962.67,-713.86 2144.33,-713.86 2144.33,-713.86 2148.17,-713.86 2152,-717.69 2152,-721.52 2152,-721.52 2152,-729.19 2152,-729.19 2152,-733.02 2148.17,-736.86 2144.33,-736.86"/>
<text text-anchor="middle" x="2053.5" y="-721.66" font-family="Arial" font-size="14.00" fill="#c6c5fe">store/DashboardProvider.tsx</text>
</g>
<!-- component/Dashboard/DashboardHeader.tsx&#45;&gt;store/DashboardProvider.tsx -->
<g id="edge7" class="edge">
<title>component/Dashboard/DashboardHeader.tsx&#45;&gt;store/DashboardProvider.tsx</title>
<path fill="none" stroke="#757575" d="M755.38,-836.25C890.14,-832.92 1092.88,-826.54 1269,-815.36 1499.26,-800.74 1567.69,-843.03 1786,-768.36 1803.96,-762.21 1804.02,-751.47 1822,-745.36 1860.34,-732.33 1904.22,-726.46 1943.34,-724.13"/>
<polygon fill="#757575" stroke="#757575" points="1943.45,-727.63 1953.26,-723.62 1943.09,-720.64 1943.45,-727.63"/>
</g>
<!-- store/WidgetPropsSettingModalProvider.tsx -->
<g id="node17" class="node">
<title>store/WidgetPropsSettingModalProvider.tsx</title>
<path fill="none" stroke="#c6c5fe" d="M1684.83,-708.86C1684.83,-708.86 1406.17,-708.86 1406.17,-708.86 1402.33,-708.86 1398.5,-705.02 1398.5,-701.19 1398.5,-701.19 1398.5,-693.52 1398.5,-693.52 1398.5,-689.69 1402.33,-685.86 1406.17,-685.86 1406.17,-685.86 1684.83,-685.86 1684.83,-685.86 1688.67,-685.86 1692.5,-689.69 1692.5,-693.52 1692.5,-693.52 1692.5,-701.19 1692.5,-701.19 1692.5,-705.02 1688.67,-708.86 1684.83,-708.86"/>
<text text-anchor="middle" x="1545.5" y="-693.66" font-family="Arial" font-size="14.00" fill="#c6c5fe">store/WidgetPropsSettingModalProvider.tsx</text>
</g>
<!-- component/Dashboard/DashboardHeader.tsx&#45;&gt;store/WidgetPropsSettingModalProvider.tsx -->
<g id="edge8" class="edge">
<title>component/Dashboard/DashboardHeader.tsx&#45;&gt;store/WidgetPropsSettingModalProvider.tsx</title>
<path fill="none" stroke="#757575" d="M643.1,-827.43C683.01,-815.54 747.29,-797.61 804,-787.36 1008.45,-750.38 1062.91,-765.69 1269,-739.36 1333.63,-731.1 1406.5,-719.91 1461.06,-711.15"/>
<polygon fill="#757575" stroke="#757575" points="1461.61,-714.61 1470.92,-709.56 1460.49,-707.7 1461.61,-714.61"/>
</g>
<!-- types/widget.d.ts -->
<g id="node18" class="node">
<title>types/widget.d.ts</title>
<path fill="none" stroke="#cfffac" d="M2983.83,-677.86C2983.83,-677.86 2876.17,-677.86 2876.17,-677.86 2872.33,-677.86 2868.5,-674.02 2868.5,-670.19 2868.5,-670.19 2868.5,-662.52 2868.5,-662.52 2868.5,-658.69 2872.33,-654.86 2876.17,-654.86 2876.17,-654.86 2983.83,-654.86 2983.83,-654.86 2987.67,-654.86 2991.5,-658.69 2991.5,-662.52 2991.5,-662.52 2991.5,-670.19 2991.5,-670.19 2991.5,-674.02 2987.67,-677.86 2983.83,-677.86"/>
<text text-anchor="middle" x="2930" y="-662.66" font-family="Arial" font-size="14.00" fill="#cfffac">types/widget.d.ts</text>
</g>
<!-- component/Dashboard/DashboardHeader.tsx&#45;&gt;types/widget.d.ts -->
<g id="edge9" class="edge">
<title>component/Dashboard/DashboardHeader.tsx&#45;&gt;types/widget.d.ts</title>
<path fill="none" stroke="#757575" d="M697.79,-827.39C731.26,-823.29 769.29,-818.86 804,-815.36 1010.31,-794.53 1064.4,-811.06 1269,-777.36 1285.27,-774.68 1288.76,-771.23 1305,-768.36 1516.68,-730.86 1576.49,-765.55 1786,-717.36 1802.58,-713.54 1805.3,-707.58 1822,-704.36 1872.74,-694.58 2618.92,-674.43 2856.75,-668.22"/>
<polygon fill="#757575" stroke="#757575" points="2856.6,-671.72 2866.51,-667.96 2856.42,-664.73 2856.6,-671.72"/>
</g>
<!-- component/Dashboard/DashboardHeader/PlayIcon.tsx&#45;&gt;asset/image/pause.png -->
<g id="edge19" class="edge">
<title>component/Dashboard/DashboardHeader/PlayIcon.tsx&#45;&gt;asset/image/pause.png</title>
<path fill="none" stroke="#757575" d="M1193.41,-867.36C1278.08,-860.85 1379.89,-853.02 1452.02,-847.47"/>
<polygon fill="#757575" stroke="#757575" points="1452.12,-850.97 1461.82,-846.72 1451.58,-844 1452.12,-850.97"/>
</g>
<!-- component/Dashboard/DashboardHeader/PlayIcon.tsx&#45;&gt;asset/image/play.png -->
<g id="edge20" class="edge">
<title>component/Dashboard/DashboardHeader/PlayIcon.tsx&#45;&gt;asset/image/play.png</title>
<path fill="none" stroke="#757575" d="M1217.68,-880.07C1299.6,-880.39 1392.71,-880.76 1458.53,-881.02"/>
<polygon fill="#757575" stroke="#757575" points="1458.15,-884.52 1468.16,-881.06 1458.18,-877.52 1458.15,-884.52"/>
</g>
<!-- component/Dashboard/DashboardHeader/SelectRealTimeRangeArea.tsx&#45;&gt;component/Dashboard/CommonStyle.ts -->
<g id="edge22" class="edge">
<title>component/Dashboard/DashboardHeader/SelectRealTimeRangeArea.tsx&#45;&gt;component/Dashboard/CommonStyle.ts</title>
<path fill="none" stroke="#757575" d="M1586.64,-1077.34C1639.86,-1092.53 1736.97,-1117.91 1822,-1127.36 2413.11,-1193.05 2576.53,-1220.6 3160,-1105.36 3208.25,-1095.83 3261.06,-1074.77 3294.82,-1059.84"/>
<polygon fill="#757575" stroke="#757575" points="3296,-1063.14 3303.69,-1055.85 3293.14,-1056.76 3296,-1063.14"/>
</g>
<!-- hook/useBoolean.tsx -->
<g id="node24" class="node">
<title>hook/useBoolean.tsx</title>
<path fill="none" stroke="#cfffac" d="M2120.33,-777.86C2120.33,-777.86 1986.67,-777.86 1986.67,-777.86 1982.83,-777.86 1979,-774.02 1979,-770.19 1979,-770.19 1979,-762.52 1979,-762.52 1979,-758.69 1982.83,-754.86 1986.67,-754.86 1986.67,-754.86 2120.33,-754.86 2120.33,-754.86 2124.17,-754.86 2128,-758.69 2128,-762.52 2128,-762.52 2128,-770.19 2128,-770.19 2128,-774.02 2124.17,-777.86 2120.33,-777.86"/>
<text text-anchor="middle" x="2053.5" y="-762.66" font-family="Arial" font-size="14.00" fill="#cfffac">hook/useBoolean.tsx</text>
</g>
<!-- component/Dashboard/DashboardHeader/SelectRealTimeRangeArea.tsx&#45;&gt;hook/useBoolean.tsx -->
<g id="edge25" class="edge">
<title>component/Dashboard/DashboardHeader/SelectRealTimeRangeArea.tsx&#45;&gt;hook/useBoolean.tsx</title>
<path fill="none" stroke="#757575" d="M1739.55,-1053.47C1756.5,-1046.61 1772.36,-1037.46 1786,-1025.36 1828.61,-987.55 1787.02,-947.31 1822,-902.36 1869.55,-841.25 1952.87,-802.07 2005.24,-782.16"/>
<polygon fill="#757575" stroke="#757575" points="2006.34,-785.49 2014.5,-778.73 2003.91,-778.92 2006.34,-785.49"/>
</g>
<!-- hook/useOutsideClick.tsx -->
<g id="node25" class="node">
<title>hook/useOutsideClick.tsx</title>
<path fill="none" stroke="#cfffac" d="M2133.83,-1015.86C2133.83,-1015.86 1973.17,-1015.86 1973.17,-1015.86 1969.33,-1015.86 1965.5,-1012.02 1965.5,-1008.19 1965.5,-1008.19 1965.5,-1000.52 1965.5,-1000.52 1965.5,-996.69 1969.33,-992.86 1973.17,-992.86 1973.17,-992.86 2133.83,-992.86 2133.83,-992.86 2137.67,-992.86 2141.5,-996.69 2141.5,-1000.52 2141.5,-1000.52 2141.5,-1008.19 2141.5,-1008.19 2141.5,-1012.02 2137.67,-1015.86 2133.83,-1015.86"/>
<text text-anchor="middle" x="2053.5" y="-1000.66" font-family="Arial" font-size="14.00" fill="#cfffac">hook/useOutsideClick.tsx</text>
</g>
<!-- component/Dashboard/DashboardHeader/SelectRealTimeRangeArea.tsx&#45;&gt;hook/useOutsideClick.tsx -->
<g id="edge26" class="edge">
<title>component/Dashboard/DashboardHeader/SelectRealTimeRangeArea.tsx&#45;&gt;hook/useOutsideClick.tsx</title>
<path fill="none" stroke="#757575" d="M1621.49,-1053.37C1676.8,-1044.79 1753.96,-1033.39 1822,-1025.36 1865.13,-1020.27 1912.93,-1015.73 1953.77,-1012.19"/>
<polygon fill="#757575" stroke="#757575" points="1953.92,-1015.69 1963.59,-1011.35 1953.33,-1008.71 1953.92,-1015.69"/>
</g>
<!-- component/Dashboard/DashboardHeader/RealTime.tsx -->
<g id="node26" class="node">
<title>component/Dashboard/DashboardHeader/RealTime.tsx</title>
<path fill="none" stroke="#cfffac" d="M2229.83,-1097.86C2229.83,-1097.86 1877.17,-1097.86 1877.17,-1097.86 1873.33,-1097.86 1869.5,-1094.02 1869.5,-1090.19 1869.5,-1090.19 1869.5,-1082.52 1869.5,-1082.52 1869.5,-1078.69 1873.33,-1074.86 1877.17,-1074.86 1877.17,-1074.86 2229.83,-1074.86 2229.83,-1074.86 2233.67,-1074.86 2237.5,-1078.69 2237.5,-1082.52 2237.5,-1082.52 2237.5,-1090.19 2237.5,-1090.19 2237.5,-1094.02 2233.67,-1097.86 2229.83,-1097.86"/>
<text text-anchor="middle" x="2053.5" y="-1082.66" font-family="Arial" font-size="14.00" fill="#cfffac">component/Dashboard/DashboardHeader/RealTime.tsx</text>
</g>
<!-- component/Dashboard/DashboardHeader/SelectRealTimeRangeArea.tsx&#45;&gt;component/Dashboard/DashboardHeader/RealTime.tsx -->
<g id="edge23" class="edge">
<title>component/Dashboard/DashboardHeader/SelectRealTimeRangeArea.tsx&#45;&gt;component/Dashboard/DashboardHeader/RealTime.tsx</title>
<path fill="none" stroke="#757575" d="M1786.16,-1075.3C1810.2,-1076.3 1834.4,-1077.31 1857.89,-1078.28"/>
<polygon fill="#757575" stroke="#757575" points="1857.71,-1081.78 1867.84,-1078.69 1858,-1074.78 1857.71,-1081.78"/>
</g>
<!-- component/Dashboard/DashboardHeader/SelectRealTimeListItem.tsx -->
<g id="node27" class="node">
<title>component/Dashboard/DashboardHeader/SelectRealTimeListItem.tsx</title>
<path fill="none" stroke="#c6c5fe" d="M3152.33,-1095.86C3152.33,-1095.86 2707.67,-1095.86 2707.67,-1095.86 2703.83,-1095.86 2700,-1092.02 2700,-1088.19 2700,-1088.19 2700,-1080.52 2700,-1080.52 2700,-1076.69 2703.83,-1072.86 2707.67,-1072.86 2707.67,-1072.86 3152.33,-1072.86 3152.33,-1072.86 3156.17,-1072.86 3160,-1076.69 3160,-1080.52 3160,-1080.52 3160,-1088.19 3160,-1088.19 3160,-1092.02 3156.17,-1095.86 3152.33,-1095.86"/>
<text text-anchor="middle" x="2930" y="-1080.66" font-family="Arial" font-size="14.00" fill="#c6c5fe">component/Dashboard/DashboardHeader/SelectRealTimeListItem.tsx</text>
</g>
<!-- component/Dashboard/DashboardHeader/SelectRealTimeRangeArea.tsx&#45;&gt;component/Dashboard/DashboardHeader/SelectRealTimeListItem.tsx -->
<g id="edge24" class="edge">
<title>component/Dashboard/DashboardHeader/SelectRealTimeRangeArea.tsx&#45;&gt;component/Dashboard/DashboardHeader/SelectRealTimeListItem.tsx</title>
<path fill="none" stroke="#757575" d="M1607.2,-1077.32C1662.82,-1087.63 1747.58,-1101.72 1822,-1107.36 2159.55,-1132.94 2556.52,-1112.44 2771.45,-1097.16"/>
<polygon fill="#757575" stroke="#757575" points="2771.57,-1100.66 2781.3,-1096.45 2771.07,-1093.67 2771.57,-1100.66"/>
</g>
<!-- component/Dashboard/DashboardHeader/CurrentTime.tsx -->
<g id="node19" class="node">
<title>component/Dashboard/DashboardHeader/CurrentTime.tsx</title>
<path fill="none" stroke="#c6c5fe" d="M1730.83,-1015.86C1730.83,-1015.86 1360.17,-1015.86 1360.17,-1015.86 1356.33,-1015.86 1352.5,-1012.02 1352.5,-1008.19 1352.5,-1008.19 1352.5,-1000.52 1352.5,-1000.52 1352.5,-996.69 1356.33,-992.86 1360.17,-992.86 1360.17,-992.86 1730.83,-992.86 1730.83,-992.86 1734.67,-992.86 1738.5,-996.69 1738.5,-1000.52 1738.5,-1000.52 1738.5,-1008.19 1738.5,-1008.19 1738.5,-1012.02 1734.67,-1015.86 1730.83,-1015.86"/>
<text text-anchor="middle" x="1545.5" y="-1000.66" font-family="Arial" font-size="14.00" fill="#c6c5fe">component/Dashboard/DashboardHeader/CurrentTime.tsx</text>
</g>
<!-- component/Dashboard/DashboardHeader/TimeBlock.tsx&#45;&gt;component/Dashboard/DashboardHeader/CurrentTime.tsx -->
<g id="edge27" class="edge">
<title>component/Dashboard/DashboardHeader/TimeBlock.tsx&#45;&gt;component/Dashboard/DashboardHeader/CurrentTime.tsx</title>
<path fill="none" stroke="#757575" d="M1111.49,-934.33C1203.89,-949.27 1361.64,-974.78 1459.08,-990.54"/>
<polygon fill="#757575" stroke="#757575" points="1458.44,-993.98 1468.87,-992.13 1459.56,-987.07 1458.44,-993.98"/>
</g>
<!-- component/Dashboard/DashboardHeader/DatePickerArea.tsx -->
<g id="node22" class="node">
<title>component/Dashboard/DashboardHeader/DatePickerArea.tsx</title>
<path fill="none" stroke="#c6c5fe" d="M1741.33,-933.86C1741.33,-933.86 1349.67,-933.86 1349.67,-933.86 1345.83,-933.86 1342,-930.02 1342,-926.19 1342,-926.19 1342,-918.52 1342,-918.52 1342,-914.69 1345.83,-910.86 1349.67,-910.86 1349.67,-910.86 1741.33,-910.86 1741.33,-910.86 1745.17,-910.86 1749,-914.69 1749,-918.52 1749,-918.52 1749,-926.19 1749,-926.19 1749,-930.02 1745.17,-933.86 1741.33,-933.86"/>
<text text-anchor="middle" x="1545.5" y="-918.66" font-family="Arial" font-size="14.00" fill="#c6c5fe">component/Dashboard/DashboardHeader/DatePickerArea.tsx</text>
</g>
<!-- component/Dashboard/DashboardHeader/TimeBlock.tsx&#45;&gt;component/Dashboard/DashboardHeader/DatePickerArea.tsx -->
<g id="edge28" class="edge">
<title>component/Dashboard/DashboardHeader/TimeBlock.tsx&#45;&gt;component/Dashboard/DashboardHeader/DatePickerArea.tsx</title>
<path fill="none" stroke="#757575" d="M1223.77,-922.36C1258.43,-922.36 1294.91,-922.36 1330.33,-922.36"/>
<polygon fill="#757575" stroke="#757575" points="1330.28,-925.86 1340.28,-922.36 1330.28,-918.86 1330.28,-925.86"/>
</g>
<!-- store/DashboardProvider.tsx&#45;&gt;common/date.ts -->
<g id="edge78" class="edge">
<title>store/DashboardProvider.tsx&#45;&gt;common/date.ts</title>
<path fill="none" stroke="#757575" d="M2152.3,-725.36C2233.98,-725.36 2348.44,-725.36 2421.28,-725.36"/>
<polygon fill="#757575" stroke="#757575" points="2421.09,-728.86 2431.09,-725.36 2421.09,-721.86 2421.09,-728.86"/>
</g>
<!-- store/WidgetPropsSettingModalProvider.tsx&#45;&gt;hook/useBoolean.tsx -->
<g id="edge79" class="edge">
<title>store/WidgetPropsSettingModalProvider.tsx&#45;&gt;hook/useBoolean.tsx</title>
<path fill="none" stroke="#757575" d="M1606.74,-709.31C1662.41,-720.02 1747.52,-735.49 1822,-745.36 1869.9,-751.7 1923.66,-756.72 1967.21,-760.26"/>
<polygon fill="#757575" stroke="#757575" points="1966.87,-763.74 1977.12,-761.05 1967.43,-756.76 1966.87,-763.74"/>
</g>
<!-- hook/useCurrentTime.tsx -->
<g id="node20" class="node">
<title>hook/useCurrentTime.tsx</title>
<path fill="none" stroke="#cfffac" d="M2133.33,-1056.86C2133.33,-1056.86 1973.67,-1056.86 1973.67,-1056.86 1969.83,-1056.86 1966,-1053.02 1966,-1049.19 1966,-1049.19 1966,-1041.52 1966,-1041.52 1966,-1037.69 1969.83,-1033.86 1973.67,-1033.86 1973.67,-1033.86 2133.33,-1033.86 2133.33,-1033.86 2137.17,-1033.86 2141,-1037.69 2141,-1041.52 2141,-1041.52 2141,-1049.19 2141,-1049.19 2141,-1053.02 2137.17,-1056.86 2133.33,-1056.86"/>
<text text-anchor="middle" x="2053.5" y="-1041.66" font-family="Arial" font-size="14.00" fill="#cfffac">hook/useCurrentTime.tsx</text>
</g>
<!-- component/Dashboard/DashboardHeader/CurrentTime.tsx&#45;&gt;hook/useCurrentTime.tsx -->
<g id="edge10" class="edge">
<title>component/Dashboard/DashboardHeader/CurrentTime.tsx&#45;&gt;hook/useCurrentTime.tsx</title>
<path fill="none" stroke="#757575" d="M1694.56,-1016.35C1778.34,-1023.14 1880.78,-1031.44 1954.57,-1037.42"/>
<polygon fill="#757575" stroke="#757575" points="1953.94,-1040.88 1964.19,-1038.2 1954.51,-1033.91 1953.94,-1040.88"/>
</g>
<!-- component/Dashboard/DashboardHeader/DateBox.tsx -->
<g id="node21" class="node">
<title>component/Dashboard/DashboardHeader/DateBox.tsx</title>
<path fill="none" stroke="#cfffac" d="M2226.83,-974.86C2226.83,-974.86 1880.17,-974.86 1880.17,-974.86 1876.33,-974.86 1872.5,-971.02 1872.5,-967.19 1872.5,-967.19 1872.5,-959.52 1872.5,-959.52 1872.5,-955.69 1876.33,-951.86 1880.17,-951.86 1880.17,-951.86 2226.83,-951.86 2226.83,-951.86 2230.67,-951.86 2234.5,-955.69 2234.5,-959.52 2234.5,-959.52 2234.5,-967.19 2234.5,-967.19 2234.5,-971.02 2230.67,-974.86 2226.83,-974.86"/>
<text text-anchor="middle" x="2053.5" y="-959.66" font-family="Arial" font-size="14.00" fill="#cfffac">component/Dashboard/DashboardHeader/DateBox.tsx</text>
</g>
<!-- component/Dashboard/DashboardHeader/DatePickerArea.tsx&#45;&gt;common/date.ts -->
<g id="edge11" class="edge">
<title>component/Dashboard/DashboardHeader/DatePickerArea.tsx&#45;&gt;common/date.ts</title>
<path fill="none" stroke="#757575" d="M1625.18,-934.34C1675.31,-937.78 1739.36,-933.94 1786,-902.36 1815.62,-882.3 1792.49,-850.59 1822,-830.36 1907.25,-771.92 2183.53,-805.98 2285,-786.36 2342.15,-775.31 2406.18,-755.13 2447.58,-741.02"/>
<polygon fill="#757575" stroke="#757575" points="2448.62,-744.36 2456.94,-737.79 2446.34,-737.74 2448.62,-744.36"/>
</g>
<!-- component/Dashboard/DashboardHeader/DatePickerArea.tsx&#45;&gt;component/Dashboard/CommonStyle.ts -->
<g id="edge12" class="edge">
<title>component/Dashboard/DashboardHeader/DatePickerArea.tsx&#45;&gt;component/Dashboard/CommonStyle.ts</title>
<path fill="none" stroke="#757575" d="M1684.43,-910.38C1728.36,-907.09 1777.19,-903.98 1822,-902.36 2416.54,-880.81 2593.11,-761.85 3160,-942.36 3217.21,-960.58 3275.6,-1001.05 3306.86,-1024.86"/>
<polygon fill="#757575" stroke="#757575" points="3304.41,-1027.39 3314.45,-1030.74 3308.69,-1021.85 3304.41,-1027.39"/>
</g>
<!-- component/Dashboard/DashboardHeader/DatePickerArea.tsx&#45;&gt;store/DashboardProvider.tsx -->
<g id="edge17" class="edge">
<title>component/Dashboard/DashboardHeader/DatePickerArea.tsx&#45;&gt;store/DashboardProvider.tsx</title>
<path fill="none" stroke="#757575" d="M1600,-934.32C1653.6,-942.93 1735.25,-946.37 1786,-902.36 1840.09,-855.46 1767.99,-792.35 1822,-745.36 1866.09,-707 1934.52,-705.78 1985.38,-711.88"/>
<polygon fill="#757575" stroke="#757575" points="1984.72,-715.32 1995.1,-713.17 1985.65,-708.38 1984.72,-715.32"/>
</g>
<!-- component/Dashboard/DashboardHeader/DatePickerArea.tsx&#45;&gt;types/widget.d.ts -->
<g id="edge18" class="edge">
<title>component/Dashboard/DashboardHeader/DatePickerArea.tsx&#45;&gt;types/widget.d.ts</title>
<path fill="none" stroke="#757575" d="M1749.25,-915.31C1761.93,-911.85 1774.29,-907.59 1786,-902.36 1806.09,-893.38 1801.98,-877.49 1822,-868.36 2010.14,-782.54 2080.52,-853.21 2285,-822.36 2454.96,-796.72 2497.25,-787.06 2664,-745.36 2741.18,-726.05 2829.48,-698.64 2882.16,-681.7"/>
<polygon fill="#757575" stroke="#757575" points="2882.97,-685.12 2891.41,-678.72 2880.82,-678.46 2882.97,-685.12"/>
</g>
<!-- component/Dashboard/DashboardHeader/DatePickerArea.tsx&#45;&gt;component/Dashboard/DashboardHeader/DateBox.tsx -->
<g id="edge13" class="edge">
<title>component/Dashboard/DashboardHeader/DatePickerArea.tsx&#45;&gt;component/Dashboard/DashboardHeader/DateBox.tsx</title>
<path fill="none" stroke="#757575" d="M1694.56,-934.35C1757.01,-939.42 1829.84,-945.32 1893.44,-950.47"/>
<polygon fill="#757575" stroke="#757575" points="1893.03,-953.95 1903.28,-951.27 1893.6,-946.97 1893.03,-953.95"/>
</g>
<!-- component/common/DatePicker.tsx -->
<g id="node23" class="node">
<title>component/common/DatePicker.tsx</title>
<path fill="none" stroke="#c6c5fe" d="M2166.83,-933.86C2166.83,-933.86 1940.17,-933.86 1940.17,-933.86 1936.33,-933.86 1932.5,-930.02 1932.5,-926.19 1932.5,-926.19 1932.5,-918.52 1932.5,-918.52 1932.5,-914.69 1936.33,-910.86 1940.17,-910.86 1940.17,-910.86 2166.83,-910.86 2166.83,-910.86 2170.67,-910.86 2174.5,-914.69 2174.5,-918.52 2174.5,-918.52 2174.5,-926.19 2174.5,-926.19 2174.5,-930.02 2170.67,-933.86 2166.83,-933.86"/>
<text text-anchor="middle" x="2053.5" y="-918.66" font-family="Arial" font-size="14.00" fill="#c6c5fe">component/common/DatePicker.tsx</text>
</g>
<!-- component/Dashboard/DashboardHeader/DatePickerArea.tsx&#45;&gt;component/common/DatePicker.tsx -->
<g id="edge14" class="edge">
<title>component/Dashboard/DashboardHeader/DatePickerArea.tsx&#45;&gt;component/common/DatePicker.tsx</title>
<path fill="none" stroke="#757575" d="M1749.39,-922.36C1807.16,-922.36 1868.55,-922.36 1920.87,-922.36"/>
<polygon fill="#757575" stroke="#757575" points="1920.72,-925.86 1930.72,-922.36 1920.72,-918.86 1920.72,-925.86"/>
</g>
<!-- component/Dashboard/DashboardHeader/DatePickerArea.tsx&#45;&gt;hook/useBoolean.tsx -->
<g id="edge15" class="edge">
<title>component/Dashboard/DashboardHeader/DatePickerArea.tsx&#45;&gt;hook/useBoolean.tsx</title>
<path fill="none" stroke="#757575" d="M1606.26,-934.34C1659.16,-941.35 1735.59,-942.21 1786,-902.36 1826.35,-870.46 1782.11,-824.84 1822,-792.36 1862.04,-759.75 1919.79,-753.29 1967.47,-754.95"/>
<polygon fill="#757575" stroke="#757575" points="1967.06,-758.44 1977.22,-755.43 1967.4,-751.45 1967.06,-758.44"/>
</g>
<!-- component/Dashboard/DashboardHeader/DatePickerArea.tsx&#45;&gt;hook/useOutsideClick.tsx -->
<g id="edge16" class="edge">
<title>component/Dashboard/DashboardHeader/DatePickerArea.tsx&#45;&gt;hook/useOutsideClick.tsx</title>
<path fill="none" stroke="#757575" d="M1591,-934.32C1645.18,-948.43 1739.64,-971.58 1822,-984.36 1864.99,-991.03 1912.87,-995.64 1953.8,-998.73"/>
<polygon fill="#757575" stroke="#757575" points="1953.41,-1002.21 1963.64,-999.45 1953.92,-995.23 1953.41,-1002.21"/>
</g>
<!-- component/common/DatePicker/DatePickerTitle.tsx -->
<g id="node45" class="node">
<title>component/common/DatePicker/DatePickerTitle.tsx</title>
<path fill="none" stroke="#c6c5fe" d="M2656.33,-933.86C2656.33,-933.86 2328.67,-933.86 2328.67,-933.86 2324.83,-933.86 2321,-930.02 2321,-926.19 2321,-926.19 2321,-918.52 2321,-918.52 2321,-914.69 2324.83,-910.86 2328.67,-910.86 2328.67,-910.86 2656.33,-910.86 2656.33,-910.86 2660.17,-910.86 2664,-914.69 2664,-918.52 2664,-918.52 2664,-926.19 2664,-926.19 2664,-930.02 2660.17,-933.86 2656.33,-933.86"/>
<text text-anchor="middle" x="2492.5" y="-918.66" font-family="Arial" font-size="14.00" fill="#c6c5fe">component/common/DatePicker/DatePickerTitle.tsx</text>
</g>
<!-- component/common/DatePicker.tsx&#45;&gt;component/common/DatePicker/DatePickerTitle.tsx -->
<g id="edge60" class="edge">
<title>component/common/DatePicker.tsx&#45;&gt;component/common/DatePicker/DatePickerTitle.tsx</title>
<path fill="none" stroke="#757575" d="M2174.78,-922.36C2216.36,-922.36 2263.92,-922.36 2309.33,-922.36"/>
<polygon fill="#757575" stroke="#757575" points="2309.32,-925.86 2319.32,-922.36 2309.32,-918.86 2309.32,-925.86"/>
</g>
<!-- component/common/DatePicker/ListPicker.tsx -->
<g id="node46" class="node">
<title>component/common/DatePicker/ListPicker.tsx</title>
<path fill="none" stroke="#c6c5fe" d="M2638.83,-974.86C2638.83,-974.86 2346.17,-974.86 2346.17,-974.86 2342.33,-974.86 2338.5,-971.02 2338.5,-967.19 2338.5,-967.19 2338.5,-959.52 2338.5,-959.52 2338.5,-955.69 2342.33,-951.86 2346.17,-951.86 2346.17,-951.86 2638.83,-951.86 2638.83,-951.86 2642.67,-951.86 2646.5,-955.69 2646.5,-959.52 2646.5,-959.52 2646.5,-967.19 2646.5,-967.19 2646.5,-971.02 2642.67,-974.86 2638.83,-974.86"/>
<text text-anchor="middle" x="2492.5" y="-959.66" font-family="Arial" font-size="14.00" fill="#c6c5fe">component/common/DatePicker/ListPicker.tsx</text>
</g>
<!-- component/common/DatePicker.tsx&#45;&gt;component/common/DatePicker/ListPicker.tsx -->
<g id="edge61" class="edge">
<title>component/common/DatePicker.tsx&#45;&gt;component/common/DatePicker/ListPicker.tsx</title>
<path fill="none" stroke="#757575" d="M2174.74,-933.18C2210.25,-936.41 2249.19,-939.99 2285,-943.36 2308.45,-945.56 2333.39,-947.94 2357.54,-950.27"/>
<polygon fill="#757575" stroke="#757575" points="2357.15,-953.75 2367.44,-951.23 2357.82,-946.78 2357.15,-953.75"/>
</g>
<!-- types/datePicker.d.ts -->
<g id="node47" class="node">
<title>types/datePicker.d.ts</title>
<path fill="none" stroke="#cfffac" d="M2996.83,-1014.86C2996.83,-1014.86 2863.17,-1014.86 2863.17,-1014.86 2859.33,-1014.86 2855.5,-1011.02 2855.5,-1007.19 2855.5,-1007.19 2855.5,-999.52 2855.5,-999.52 2855.5,-995.69 2859.33,-991.86 2863.17,-991.86 2863.17,-991.86 2996.83,-991.86 2996.83,-991.86 3000.67,-991.86 3004.5,-995.69 3004.5,-999.52 3004.5,-999.52 3004.5,-1007.19 3004.5,-1007.19 3004.5,-1011.02 3000.67,-1014.86 2996.83,-1014.86"/>
<text text-anchor="middle" x="2930" y="-999.66" font-family="Arial" font-size="14.00" fill="#cfffac">types/datePicker.d.ts</text>
</g>
<!-- component/common/DatePicker.tsx&#45;&gt;types/datePicker.d.ts -->
<g id="edge62" class="edge">
<title>component/common/DatePicker.tsx&#45;&gt;types/datePicker.d.ts</title>
<path fill="none" stroke="#757575" d="M2174.74,-916.41C2211.74,-918.93 2251.51,-926.32 2285,-943.36 2306.61,-954.35 2299.07,-974.01 2321,-984.36 2501.94,-1069.71 2748.04,-1039.14 2863.77,-1017.48"/>
<polygon fill="#757575" stroke="#757575" points="2864.24,-1020.95 2873.4,-1015.64 2862.92,-1014.08 2864.24,-1020.95"/>
</g>
<!-- component/Dashboard/DashboardHeader/SelectRealTimeListItem.tsx&#45;&gt;component/Dashboard/CommonStyle.ts -->
<g id="edge21" class="edge">
<title>component/Dashboard/DashboardHeader/SelectRealTimeListItem.tsx&#45;&gt;component/Dashboard/CommonStyle.ts</title>
<path fill="none" stroke="#757575" d="M3047.75,-1072.36C3096.18,-1067.38 3152.52,-1061.59 3202.08,-1056.5"/>
<polygon fill="#757575" stroke="#757575" points="3202.43,-1059.99 3212.02,-1055.48 3201.71,-1053.02 3202.43,-1059.99"/>
</g>
<!-- component/Widget.tsx -->
<g id="node28" class="node">
<title>component/Widget.tsx</title>
<path fill="none" stroke="#c6c5fe" d="M675.33,-460.86C675.33,-460.86 531.67,-460.86 531.67,-460.86 527.83,-460.86 524,-457.02 524,-453.19 524,-453.19 524,-445.52 524,-445.52 524,-441.69 527.83,-437.86 531.67,-437.86 531.67,-437.86 675.33,-437.86 675.33,-437.86 679.17,-437.86 683,-441.69 683,-445.52 683,-445.52 683,-453.19 683,-453.19 683,-457.02 679.17,-460.86 675.33,-460.86"/>
<text text-anchor="middle" x="603.5" y="-445.66" font-family="Arial" font-size="14.00" fill="#c6c5fe">component/Widget.tsx</text>
</g>
<!-- component/Widget.tsx&#45;&gt;types/widget.d.ts -->
<g id="edge34" class="edge">
<title>component/Widget.tsx&#45;&gt;types/widget.d.ts</title>
<path fill="none" stroke="#757575" d="M611.31,-437.47C633.67,-399.51 708.92,-280.14 804,-219.36 1092.64,-34.83 1201.92,-5.36 1544.5,-5.36 1544.5,-5.36 1544.5,-5.36 2054.5,-5.36 2157.29,-5.36 2190.05,15.03 2285,-24.36 2489.16,-109.06 2508.7,-189.08 2664,-346.36 2767.56,-451.23 2874.63,-592.56 2913.63,-645.33"/>
<polygon fill="#757575" stroke="#757575" points="2910.66,-647.2 2919.4,-653.18 2916.3,-643.05 2910.66,-647.2"/>
</g>
<!-- component/Widget.tsx&#45;&gt;hook/useBoolean.tsx -->
<g id="edge33" class="edge">
<title>component/Widget.tsx&#45;&gt;hook/useBoolean.tsx</title>
<path fill="none" stroke="#757575" d="M683.37,-458.81C941.06,-490.01 1744.04,-589.76 1786,-626.36 1827.65,-662.67 1779.17,-710.44 1822,-745.36 1864.84,-780.28 1928.18,-783.74 1977.62,-779.46"/>
<polygon fill="#757575" stroke="#757575" points="1977.8,-782.96 1987.4,-778.48 1977.11,-776 1977.8,-782.96"/>
</g>
<!-- component/Widget/WidgetButtons.tsx -->
<g id="node29" class="node">
<title>component/Widget/WidgetButtons.tsx</title>
<path fill="none" stroke="#c6c5fe" d="M1157.33,-576.86C1157.33,-576.86 915.67,-576.86 915.67,-576.86 911.83,-576.86 908,-573.02 908,-569.19 908,-569.19 908,-561.52 908,-561.52 908,-557.69 911.83,-553.86 915.67,-553.86 915.67,-553.86 1157.33,-553.86 1157.33,-553.86 1161.17,-553.86 1165,-557.69 1165,-561.52 1165,-561.52 1165,-569.19 1165,-569.19 1165,-573.02 1161.17,-576.86 1157.33,-576.86"/>
<text text-anchor="middle" x="1036.5" y="-561.66" font-family="Arial" font-size="14.00" fill="#c6c5fe">component/Widget/WidgetButtons.tsx</text>
</g>
<!-- component/Widget.tsx&#45;&gt;component/Widget/WidgetButtons.tsx -->
<g id="edge29" class="edge">
<title>component/Widget.tsx&#45;&gt;component/Widget/WidgetButtons.tsx</title>
<path fill="none" stroke="#757575" d="M649,-461.34C728.23,-482.66 893.51,-527.14 980.01,-550.42"/>
<polygon fill="#757575" stroke="#757575" points="978.89,-553.75 989.46,-552.97 980.71,-546.99 978.89,-553.75"/>
</g>
<!-- component/Widget/WidgetCallCycleSettingModal.tsx -->
<g id="node30" class="node">
<title>component/Widget/WidgetCallCycleSettingModal.tsx</title>
<path fill="none" stroke="#c6c5fe" d="M1713.33,-158.86C1713.33,-158.86 1377.67,-158.86 1377.67,-158.86 1373.83,-158.86 1370,-155.02 1370,-151.19 1370,-151.19 1370,-143.52 1370,-143.52 1370,-139.69 1373.83,-135.86 1377.67,-135.86 1377.67,-135.86 1713.33,-135.86 1713.33,-135.86 1717.17,-135.86 1721,-139.69 1721,-143.52 1721,-143.52 1721,-151.19 1721,-151.19 1721,-155.02 1717.17,-158.86 1713.33,-158.86"/>
<text text-anchor="middle" x="1545.5" y="-143.66" font-family="Arial" font-size="14.00" fill="#c6c5fe">component/Widget/WidgetCallCycleSettingModal.tsx</text>
</g>
<!-- component/Widget.tsx&#45;&gt;component/Widget/WidgetCallCycleSettingModal.tsx -->
<g id="edge30" class="edge">
<title>component/Widget.tsx&#45;&gt;component/Widget/WidgetCallCycleSettingModal.tsx</title>
<path fill="none" stroke="#757575" d="M630.28,-437.41C667.94,-420.19 740.46,-388.01 804,-365.36 1053.97,-276.25 1360.3,-194.56 1486.23,-162.13"/>
<polygon fill="#757575" stroke="#757575" points="1486.85,-165.58 1495.66,-159.7 1485.11,-158.8 1486.85,-165.58"/>
</g>
<!-- component/Widget/WidgetChart.tsx -->
<g id="node31" class="node">
<title>component/Widget/WidgetChart.tsx</title>
<path fill="none" stroke="#c6c5fe" d="M1149.83,-397.86C1149.83,-397.86 923.17,-397.86 923.17,-397.86 919.33,-397.86 915.5,-394.02 915.5,-390.19 915.5,-390.19 915.5,-382.52 915.5,-382.52 915.5,-378.69 919.33,-374.86 923.17,-374.86 923.17,-374.86 1149.83,-374.86 1149.83,-374.86 1153.67,-374.86 1157.5,-378.69 1157.5,-382.52 1157.5,-382.52 1157.5,-390.19 1157.5,-390.19 1157.5,-394.02 1153.67,-397.86 1149.83,-397.86"/>
<text text-anchor="middle" x="1036.5" y="-382.66" font-family="Arial" font-size="14.00" fill="#c6c5fe">component/Widget/WidgetChart.tsx</text>
</g>
<!-- component/Widget.tsx&#45;&gt;component/Widget/WidgetChart.tsx -->
<g id="edge31" class="edge">
<title>component/Widget.tsx&#45;&gt;component/Widget/WidgetChart.tsx</title>
<path fill="none" stroke="#757575" d="M683.3,-437.84C756.35,-427.16 865.08,-411.27 942.39,-399.97"/>
<polygon fill="#757575" stroke="#757575" points="942.67,-403.46 952.06,-398.55 941.66,-396.54 942.67,-403.46"/>
</g>
<!-- hook/Widget/useHandleWidgetApi.tsx -->
<g id="node32" class="node">
<title>hook/Widget/useHandleWidgetApi.tsx</title>
<path fill="none" stroke="#c6c5fe" d="M1666.33,-496.86C1666.33,-496.86 1424.67,-496.86 1424.67,-496.86 1420.83,-496.86 1417,-493.02 1417,-489.19 1417,-489.19 1417,-481.52 1417,-481.52 1417,-477.69 1420.83,-473.86 1424.67,-473.86 1424.67,-473.86 1666.33,-473.86 1666.33,-473.86 1670.17,-473.86 1674,-477.69 1674,-481.52 1674,-481.52 1674,-489.19 1674,-489.19 1674,-493.02 1670.17,-496.86 1666.33,-496.86"/>
<text text-anchor="middle" x="1545.5" y="-481.66" font-family="Arial" font-size="14.00" fill="#c6c5fe">hook/Widget/useHandleWidgetApi.tsx</text>
</g>
<!-- component/Widget.tsx&#45;&gt;hook/Widget/useHandleWidgetApi.tsx -->
<g id="edge32" class="edge">
<title>component/Widget.tsx&#45;&gt;hook/Widget/useHandleWidgetApi.tsx</title>
<path fill="none" stroke="#757575" d="M683.27,-452.01C807.69,-456.25 1057.34,-464.93 1269,-473.36 1313.34,-475.12 1361.68,-477.18 1405.32,-479.09"/>
<polygon fill="#757575" stroke="#757575" points="1404.95,-482.58 1415.09,-479.52 1405.25,-475.59 1404.95,-482.58"/>
</g>
<!-- component/Widget/WidgetButtons.tsx&#45;&gt;store/WidgetPropsSettingModalProvider.tsx -->
<g id="edge35" class="edge">
<title>component/Widget/WidgetButtons.tsx&#45;&gt;store/WidgetPropsSettingModalProvider.tsx</title>
<path fill="none" stroke="#757575" d="M1113.01,-553.36C1161.85,-549.76 1224.4,-553.41 1269,-585.36 1301.36,-608.54 1273.1,-643.56 1305,-667.36 1328.68,-685.02 1357.48,-695.23 1386.78,-700.75"/>
<polygon fill="#757575" stroke="#757575" points="1386.09,-704.18 1396.53,-702.39 1387.25,-697.28 1386.09,-704.18"/>
</g>
<!-- store/WidgetProvider.tsx -->
<g id="node33" class="node">
<title>store/WidgetProvider.tsx</title>
<path fill="none" stroke="#c6c5fe" d="M1624.33,-658.86C1624.33,-658.86 1466.67,-658.86 1466.67,-658.86 1462.83,-658.86 1459,-655.02 1459,-651.19 1459,-651.19 1459,-643.52 1459,-643.52 1459,-639.69 1462.83,-635.86 1466.67,-635.86 1466.67,-635.86 1624.33,-635.86 1624.33,-635.86 1628.17,-635.86 1632,-639.69 1632,-643.52 1632,-643.52 1632,-651.19 1632,-651.19 1632,-655.02 1628.17,-658.86 1624.33,-658.86"/>
<text text-anchor="middle" x="1545.5" y="-643.66" font-family="Arial" font-size="14.00" fill="#c6c5fe">store/WidgetProvider.tsx</text>
</g>
<!-- component/Widget/WidgetButtons.tsx&#45;&gt;store/WidgetProvider.tsx -->
<g id="edge36" class="edge">
<title>component/Widget/WidgetButtons.tsx&#45;&gt;store/WidgetProvider.tsx</title>
<path fill="none" stroke="#757575" d="M1165.23,-573.28C1199.08,-576.23 1235.51,-580.17 1269,-585.36 1346.05,-597.3 1433.7,-618.33 1489.04,-632.55"/>
<polygon fill="#757575" stroke="#757575" points="1487.98,-635.89 1498.53,-635.01 1489.73,-629.12 1487.98,-635.89"/>
</g>
<!-- component/Widget/WidgetCallCycleSettingModal.tsx&#45;&gt;common/widget.ts -->
<g id="edge37" class="edge">
<title>component/Widget/WidgetCallCycleSettingModal.tsx&#45;&gt;common/widget.ts</title>
<path fill="none" stroke="#757575" d="M1623.85,-159.36C1679,-167.66 1754.94,-178.56 1822,-186.36 1873.22,-192.31 1931.01,-197.57 1975.91,-201.34"/>
<polygon fill="#757575" stroke="#757575" points="1975.57,-204.83 1985.83,-202.17 1976.15,-197.85 1975.57,-204.83"/>
</g>
<!-- component/Widget/WidgetCallCycleSettingModal/CycleInput.tsx -->
<g id="node34" class="node">
<title>component/Widget/WidgetCallCycleSettingModal/CycleInput.tsx</title>
<path fill="none" stroke="#cfffac" d="M2256.83,-56.86C2256.83,-56.86 1850.17,-56.86 1850.17,-56.86 1846.33,-56.86 1842.5,-53.02 1842.5,-49.19 1842.5,-49.19 1842.5,-41.52 1842.5,-41.52 1842.5,-37.69 1846.33,-33.86 1850.17,-33.86 1850.17,-33.86 2256.83,-33.86 2256.83,-33.86 2260.67,-33.86 2264.5,-37.69 2264.5,-41.52 2264.5,-41.52 2264.5,-49.19 2264.5,-49.19 2264.5,-53.02 2260.67,-56.86 2256.83,-56.86"/>
<text text-anchor="middle" x="2053.5" y="-41.66" font-family="Arial" font-size="14.00" fill="#cfffac">component/Widget/WidgetCallCycleSettingModal/CycleInput.tsx</text>
</g>
<!-- component/Widget/WidgetCallCycleSettingModal.tsx&#45;&gt;component/Widget/WidgetCallCycleSettingModal/CycleInput.tsx -->
<g id="edge38" class="edge">
<title>component/Widget/WidgetCallCycleSettingModal.tsx&#45;&gt;component/Widget/WidgetCallCycleSettingModal/CycleInput.tsx</title>
<path fill="none" stroke="#757575" d="M1578.63,-135.47C1629.49,-117.18 1732.04,-82.47 1822,-65.36 1834.87,-62.91 1848.2,-60.76 1861.67,-58.88"/>
<polygon fill="#757575" stroke="#757575" points="1862.07,-62.35 1871.51,-57.55 1861.13,-55.42 1862.07,-62.35"/>
</g>
<!-- component/Widget/WidgetCallCycleSettingModal/LastCallTimeBox.tsx -->
<g id="node35" class="node">
<title>component/Widget/WidgetCallCycleSettingModal/LastCallTimeBox.tsx</title>
<path fill="none" stroke="#cfffac" d="M2277.33,-97.86C2277.33,-97.86 1829.67,-97.86 1829.67,-97.86 1825.83,-97.86 1822,-94.02 1822,-90.19 1822,-90.19 1822,-82.52 1822,-82.52 1822,-78.69 1825.83,-74.86 1829.67,-74.86 1829.67,-74.86 2277.33,-74.86 2277.33,-74.86 2281.17,-74.86 2285,-78.69 2285,-82.52 2285,-82.52 2285,-90.19 2285,-90.19 2285,-94.02 2281.17,-97.86 2277.33,-97.86"/>
<text text-anchor="middle" x="2053.5" y="-82.66" font-family="Arial" font-size="14.00" fill="#cfffac">component/Widget/WidgetCallCycleSettingModal/LastCallTimeBox.tsx</text>
</g>
<!-- component/Widget/WidgetCallCycleSettingModal.tsx&#45;&gt;component/Widget/WidgetCallCycleSettingModal/LastCallTimeBox.tsx -->
<g id="edge39" class="edge">
<title>component/Widget/WidgetCallCycleSettingModal.tsx&#45;&gt;component/Widget/WidgetCallCycleSettingModal/LastCallTimeBox.tsx</title>
<path fill="none" stroke="#757575" d="M1638.29,-135.37C1691.85,-128.46 1760.72,-119.71 1822,-112.36 1857.72,-108.07 1896.58,-103.61 1932.03,-99.62"/>
<polygon fill="#757575" stroke="#757575" points="1932.37,-103.11 1941.91,-98.51 1931.59,-96.15 1932.37,-103.11"/>
</g>
<!-- component/Widget/WidgetChart.tsx&#45;&gt;types/chart.d.ts -->
<g id="edge43" class="edge">
<title>component/Widget/WidgetChart.tsx&#45;&gt;types/chart.d.ts</title>
<path fill="none" stroke="#757575" d="M1157.95,-396.24C1203.94,-399.78 1256.88,-403.58 1305,-406.36 1739.93,-431.44 1853.69,-488.75 2285,-427.36 2343.57,-419.02 2408.76,-398.01 2449.93,-383.22"/>
<polygon fill="#757575" stroke="#757575" points="2451,-386.55 2459.2,-379.84 2448.6,-379.97 2451,-386.55"/>
</g>
<!-- component/chart/BarChart.tsx -->
<g id="node36" class="node">
<title>component/chart/BarChart.tsx</title>
<path fill="none" stroke="#c6c5fe" d="M1639.33,-259.86C1639.33,-259.86 1451.67,-259.86 1451.67,-259.86 1447.83,-259.86 1444,-256.02 1444,-252.19 1444,-252.19 1444,-244.52 1444,-244.52 1444,-240.69 1447.83,-236.86 1451.67,-236.86 1451.67,-236.86 1639.33,-236.86 1639.33,-236.86 1643.17,-236.86 1647,-240.69 1647,-244.52 1647,-244.52 1647,-252.19 1647,-252.19 1647,-256.02 1643.17,-259.86 1639.33,-259.86"/>
<text text-anchor="middle" x="1545.5" y="-244.66" font-family="Arial" font-size="14.00" fill="#c6c5fe">component/chart/BarChart.tsx</text>
</g>
<!-- component/Widget/WidgetChart.tsx&#45;&gt;component/chart/BarChart.tsx -->
<g id="edge40" class="edge">
<title>component/Widget/WidgetChart.tsx&#45;&gt;component/chart/BarChart.tsx</title>
<path fill="none" stroke="#757575" d="M1063.02,-374.52C1124.94,-345.88 1279.91,-274.75 1305,-268.36 1345.84,-257.96 1391.74,-252.65 1432.34,-250.04"/>
<polygon fill="#757575" stroke="#757575" points="1432.36,-253.54 1442.13,-249.46 1431.94,-246.55 1432.36,-253.54"/>
</g>
<!-- component/chart/InformaticsChart.tsx -->
<g id="node37" class="node">
<title>component/chart/InformaticsChart.tsx</title>
<path fill="none" stroke="#c6c5fe" d="M1663.83,-397.86C1663.83,-397.86 1427.17,-397.86 1427.17,-397.86 1423.33,-397.86 1419.5,-394.02 1419.5,-390.19 1419.5,-390.19 1419.5,-382.52 1419.5,-382.52 1419.5,-378.69 1423.33,-374.86 1427.17,-374.86 1427.17,-374.86 1663.83,-374.86 1663.83,-374.86 1667.67,-374.86 1671.5,-378.69 1671.5,-382.52 1671.5,-382.52 1671.5,-390.19 1671.5,-390.19 1671.5,-394.02 1667.67,-397.86 1663.83,-397.86"/>
<text text-anchor="middle" x="1545.5" y="-382.66" font-family="Arial" font-size="14.00" fill="#c6c5fe">component/chart/InformaticsChart.tsx</text>
</g>
<!-- component/Widget/WidgetChart.tsx&#45;&gt;component/chart/InformaticsChart.tsx -->
<g id="edge41" class="edge">
<title>component/Widget/WidgetChart.tsx&#45;&gt;component/chart/InformaticsChart.tsx</title>
<path fill="none" stroke="#757575" d="M1157.97,-386.36C1233.06,-386.36 1329.87,-386.36 1407.82,-386.36"/>
<polygon fill="#757575" stroke="#757575" points="1407.67,-389.86 1417.67,-386.36 1407.67,-382.86 1407.67,-389.86"/>
</g>
<!-- component/chart/LineChart.tsx -->
<g id="node38" class="node">
<title>component/chart/LineChart.tsx</title>
<path fill="none" stroke="#c6c5fe" d="M1642.33,-300.86C1642.33,-300.86 1448.67,-300.86 1448.67,-300.86 1444.83,-300.86 1441,-297.02 1441,-293.19 1441,-293.19 1441,-285.52 1441,-285.52 1441,-281.69 1444.83,-277.86 1448.67,-277.86 1448.67,-277.86 1642.33,-277.86 1642.33,-277.86 1646.17,-277.86 1650,-281.69 1650,-285.52 1650,-285.52 1650,-293.19 1650,-293.19 1650,-297.02 1646.17,-300.86 1642.33,-300.86"/>
<text text-anchor="middle" x="1545.5" y="-285.66" font-family="Arial" font-size="14.00" fill="#c6c5fe">component/chart/LineChart.tsx</text>
</g>
<!-- component/Widget/WidgetChart.tsx&#45;&gt;component/chart/LineChart.tsx -->
<g id="edge42" class="edge">
<title>component/Widget/WidgetChart.tsx&#45;&gt;component/chart/LineChart.tsx</title>
<path fill="none" stroke="#757575" d="M1100.18,-374.37C1194.06,-356.41 1370.81,-322.59 1470.76,-303.47"/>
<polygon fill="#757575" stroke="#757575" points="1471.32,-306.92 1480.48,-301.61 1470,-300.05 1471.32,-306.92"/>
</g>
<!-- hook/Widget/useHandleWidgetApi.tsx&#45;&gt;common/api.ts -->
<g id="edge67" class="edge">
<title>hook/Widget/useHandleWidgetApi.tsx&#45;&gt;common/api.ts</title>
<path fill="none" stroke="#757575" d="M1674.35,-477.48C1712.83,-480.6 1753.45,-489.88 1786,-511.36 1813.24,-529.33 1794.8,-557.33 1822,-575.36 1870.58,-607.56 1937.9,-611.66 1987.25,-609.14"/>
<polygon fill="#757575" stroke="#757575" points="1987.16,-612.66 1996.92,-608.54 1986.72,-605.67 1987.16,-612.66"/>
</g>
<!-- hook/Widget/useHandleWidgetApi.tsx&#45;&gt;types/chart.d.ts -->
<g id="edge71" class="edge">
<title>hook/Widget/useHandleWidgetApi.tsx&#45;&gt;types/chart.d.ts</title>
<path fill="none" stroke="#757575" d="M1674.24,-496.22C1823.06,-505.45 2075.31,-510.42 2285,-461.36 2352.07,-445.67 2423.87,-407.55 2462.64,-384.97"/>
<polygon fill="#757575" stroke="#757575" points="2464.08,-388.18 2470.91,-380.08 2460.52,-382.15 2464.08,-388.18"/>
</g>
<!-- hook/Widget/useHandleWidgetApi.tsx&#45;&gt;common/date.ts -->
<g id="edge68" class="edge">
<title>hook/Widget/useHandleWidgetApi.tsx&#45;&gt;common/date.ts</title>
<path fill="none" stroke="#757575" d="M1674.31,-487.01C1711.27,-490.72 1751.06,-497.93 1786,-511.36 1804.42,-518.44 1803.52,-530.42 1822,-537.36 2015.48,-609.98 2100.88,-486.5 2285,-580.36 2306.6,-591.37 2302.44,-605.75 2321,-621.36 2364.12,-657.6 2421.18,-689.73 2457.12,-708.37"/>
<polygon fill="#757575" stroke="#757575" points="2455.27,-711.35 2465.76,-712.79 2458.46,-705.12 2455.27,-711.35"/>
</g>
<!-- hook/Widget/useHandleWidgetApi.tsx&#45;&gt;common/widget.ts -->
<g id="edge69" class="edge">
<title>hook/Widget/useHandleWidgetApi.tsx&#45;&gt;common/widget.ts</title>
<path fill="none" stroke="#757575" d="M1657.4,-473.39C1703.34,-462.85 1753.4,-443.13 1786,-406.36 1839.83,-345.64 1761.5,-281.44 1822,-227.36 1866.13,-187.91 1935.83,-187.25 1987.04,-193.79"/>
<polygon fill="#757575" stroke="#757575" points="1986.43,-197.24 1996.82,-195.18 1987.41,-190.31 1986.43,-197.24"/>
</g>
<!-- hook/Widget/useHandleWidgetApi.tsx&#45;&gt;store/DashboardProvider.tsx -->
<g id="edge70" class="edge">
<title>hook/Widget/useHandleWidgetApi.tsx&#45;&gt;store/DashboardProvider.tsx</title>
<path fill="none" stroke="#757575" d="M1667.45,-497.32C1708.59,-506.36 1752.56,-522.09 1786,-549.36 1813.73,-571.97 1796.2,-596.57 1822,-621.36 1869.63,-667.13 1940.89,-695.02 1991.56,-710.24"/>
<polygon fill="#757575" stroke="#757575" points="1990.33,-713.53 2000.91,-712.97 1992.29,-706.81 1990.33,-713.53"/>
</g>
<!-- hook/Widget/useHandleWidgetApi.tsx&#45;&gt;types/widget.d.ts -->
<g id="edge72" class="edge">
<title>hook/Widget/useHandleWidgetApi.tsx&#45;&gt;types/widget.d.ts</title>
<path fill="none" stroke="#757575" d="M1674.04,-492.07C1925.78,-505.99 2478.23,-540.1 2664,-580.36 2745.25,-597.96 2836.86,-630.7 2888.29,-650.31"/>
<polygon fill="#757575" stroke="#757575" points="2886.94,-653.54 2897.53,-653.86 2889.45,-647 2886.94,-653.54"/>
</g>
<!-- store/WidgetProvider.tsx&#45;&gt;types/widget.d.ts -->
<g id="edge80" class="edge">
<title>store/WidgetProvider.tsx&#45;&gt;types/widget.d.ts</title>
<path fill="none" stroke="#757575" d="M1632.46,-648.54C1885.11,-652.01 2622.25,-662.14 2856.59,-665.36"/>
<polygon fill="#757575" stroke="#757575" points="2856.46,-668.86 2866.51,-665.5 2856.56,-661.86 2856.46,-668.86"/>
</g>
<!-- component/chart/BarChart.tsx&#45;&gt;common/chart.ts -->
<g id="edge49" class="edge">
<title>component/chart/BarChart.tsx&#45;&gt;common/chart.ts</title>
<path fill="none" stroke="#757575" d="M1591,-236.4C1645.18,-222.29 1739.64,-199.14 1822,-186.36 1874.87,-178.15 1935.13,-173.07 1980.78,-170.08"/>
<polygon fill="#757575" stroke="#757575" points="1980.78,-173.59 1990.54,-169.47 1980.34,-166.61 1980.78,-173.59"/>
</g>
<!-- component/chart/BarChart.tsx&#45;&gt;types/chart.d.ts -->
<g id="edge52" class="edge">
<title>component/chart/BarChart.tsx&#45;&gt;types/chart.d.ts</title>
<path fill="none" stroke="#757575" d="M1591.35,-236.43C1640.35,-222.66 1720.59,-197.94 1786,-167.36 1802.99,-159.42 1803.95,-150.44 1822,-145.36 1921.04,-117.49 2190.67,-104.27 2285,-145.36 2381.26,-187.28 2452.88,-298.65 2479.82,-345.79"/>
<polygon fill="#757575" stroke="#757575" points="2476.62,-347.24 2484.55,-354.26 2482.72,-343.82 2476.62,-347.24"/>
</g>
<!-- component/chart/ChartSvg.tsx -->
<g id="node42" class="node">
<title>component/chart/ChartSvg.tsx</title>
<path fill="none" stroke="#cfffac" d="M2148.83,-259.86C2148.83,-259.86 1958.17,-259.86 1958.17,-259.86 1954.33,-259.86 1950.5,-256.02 1950.5,-252.19 1950.5,-252.19 1950.5,-244.52 1950.5,-244.52 1950.5,-240.69 1954.33,-236.86 1958.17,-236.86 1958.17,-236.86 2148.83,-236.86 2148.83,-236.86 2152.67,-236.86 2156.5,-240.69 2156.5,-244.52 2156.5,-244.52 2156.5,-252.19 2156.5,-252.19 2156.5,-256.02 2152.67,-259.86 2148.83,-259.86"/>
<text text-anchor="middle" x="2053.5" y="-244.66" font-family="Arial" font-size="14.00" fill="#cfffac">component/chart/ChartSvg.tsx</text>
</g>
<!-- component/chart/BarChart.tsx&#45;&gt;component/chart/ChartSvg.tsx -->
<g id="edge50" class="edge">
<title>component/chart/BarChart.tsx&#45;&gt;component/chart/ChartSvg.tsx</title>
<path fill="none" stroke="#757575" d="M1647.38,-248.36C1731.48,-248.36 1851.26,-248.36 1938.76,-248.36"/>
<polygon fill="#757575" stroke="#757575" points="1938.56,-251.86 1948.56,-248.36 1938.56,-244.86 1938.56,-251.86"/>
</g>
<!-- hook/useResize.tsx -->
<g id="node43" class="node">
<title>hook/useResize.tsx</title>
<path fill="none" stroke="#cfffac" d="M2115.83,-300.86C2115.83,-300.86 1991.17,-300.86 1991.17,-300.86 1987.33,-300.86 1983.5,-297.02 1983.5,-293.19 1983.5,-293.19 1983.5,-285.52 1983.5,-285.52 1983.5,-281.69 1987.33,-277.86 1991.17,-277.86 1991.17,-277.86 2115.83,-277.86 2115.83,-277.86 2119.67,-277.86 2123.5,-281.69 2123.5,-285.52 2123.5,-285.52 2123.5,-293.19 2123.5,-293.19 2123.5,-297.02 2119.67,-300.86 2115.83,-300.86"/>
<text text-anchor="middle" x="2053.5" y="-285.66" font-family="Arial" font-size="14.00" fill="#cfffac">hook/useResize.tsx</text>
</g>
<!-- component/chart/BarChart.tsx&#45;&gt;hook/useResize.tsx -->
<g id="edge51" class="edge">
<title>component/chart/BarChart.tsx&#45;&gt;hook/useResize.tsx</title>
<path fill="none" stroke="#757575" d="M1647.38,-256.53C1742.67,-264.25 1883.75,-275.68 1971.8,-282.82"/>
<polygon fill="#757575" stroke="#757575" points="1971.3,-286.29 1981.55,-283.61 1971.87,-279.31 1971.3,-286.29"/>
</g>
<!-- component/chart/InformaticsChart.tsx&#45;&gt;types/chart.d.ts -->
<g id="edge54" class="edge">
<title>component/chart/InformaticsChart.tsx&#45;&gt;types/chart.d.ts</title>
<path fill="none" stroke="#757575" d="M1671.99,-383.83C1874.77,-379.76 2267.59,-371.86 2424.44,-368.71"/>
<polygon fill="#757575" stroke="#757575" points="2424.33,-372.21 2434.25,-368.51 2424.19,-365.21 2424.33,-372.21"/>
</g>
<!-- component/chart/InformaticsChart/InforMaticsBox.tsx -->
<g id="node44" class="node">
<title>component/chart/InformaticsChart/InforMaticsBox.tsx</title>
<path fill="none" stroke="#c6c5fe" d="M2220.83,-418.86C2220.83,-418.86 1886.17,-418.86 1886.17,-418.86 1882.33,-418.86 1878.5,-415.02 1878.5,-411.19 1878.5,-411.19 1878.5,-403.52 1878.5,-403.52 1878.5,-399.69 1882.33,-395.86 1886.17,-395.86 1886.17,-395.86 2220.83,-395.86 2220.83,-395.86 2224.67,-395.86 2228.5,-399.69 2228.5,-403.52 2228.5,-403.52 2228.5,-411.19 2228.5,-411.19 2228.5,-415.02 2224.67,-418.86 2220.83,-418.86"/>
<text text-anchor="middle" x="2053.5" y="-403.66" font-family="Arial" font-size="14.00" fill="#c6c5fe">component/chart/InformaticsChart/InforMaticsBox.tsx</text>
</g>
<!-- component/chart/InformaticsChart.tsx&#45;&gt;component/chart/InformaticsChart/InforMaticsBox.tsx -->
<g id="edge53" class="edge">
<title>component/chart/InformaticsChart.tsx&#45;&gt;component/chart/InformaticsChart/InforMaticsBox.tsx</title>
<path fill="none" stroke="#757575" d="M1671.9,-391.56C1730.7,-394 1801.94,-396.96 1866.82,-399.65"/>
<polygon fill="#757575" stroke="#757575" points="1866.36,-403.14 1876.5,-400.05 1866.65,-396.14 1866.36,-403.14"/>
</g>
<!-- component/chart/LineChart.tsx&#45;&gt;common/chart.ts -->
<g id="edge56" class="edge">
<title>component/chart/LineChart.tsx&#45;&gt;common/chart.ts</title>
<path fill="none" stroke="#757575" d="M1620.76,-301.36C1671.82,-305.48 1738.69,-302.3 1786,-268.36 1818.34,-245.16 1789.65,-209.54 1822,-186.36 1867.59,-153.69 1932.01,-150.71 1981.17,-154.75"/>
<polygon fill="#757575" stroke="#757575" points="1980.57,-158.2 1990.85,-155.66 1981.23,-151.24 1980.57,-158.2"/>
</g>
<!-- component/chart/LineChart.tsx&#45;&gt;types/chart.d.ts -->
<g id="edge59" class="edge">
<title>component/chart/LineChart.tsx&#45;&gt;types/chart.d.ts</title>
<path fill="none" stroke="#757575" d="M1650.33,-297.93C1845.47,-314.03 2261.87,-348.4 2424.48,-361.83"/>
<polygon fill="#757575" stroke="#757575" points="2423.98,-365.3 2434.23,-362.63 2424.56,-358.32 2423.98,-365.3"/>
</g>
<!-- component/chart/LineChart.tsx&#45;&gt;component/chart/ChartSvg.tsx -->
<g id="edge57" class="edge">
<title>component/chart/LineChart.tsx&#45;&gt;component/chart/ChartSvg.tsx</title>
<path fill="none" stroke="#757575" d="M1650.42,-280.94C1734.29,-274.14 1852.13,-264.59 1938.57,-257.59"/>
<polygon fill="#757575" stroke="#757575" points="1938.82,-261.08 1948.5,-256.78 1938.25,-254.1 1938.82,-261.08"/>
</g>
<!-- component/chart/LineChart.tsx&#45;&gt;hook/useResize.tsx -->
<g id="edge58" class="edge">
<title>component/chart/LineChart.tsx&#45;&gt;hook/useResize.tsx</title>
<path fill="none" stroke="#757575" d="M1650.42,-289.36C1745.64,-289.36 1884.65,-289.36 1971.76,-289.36"/>
<polygon fill="#757575" stroke="#757575" points="1971.66,-292.86 1981.66,-289.36 1971.66,-285.86 1971.66,-292.86"/>
</g>
<!-- component/Widget/WidgetPropsSettingModal.tsx -->
<g id="node39" class="node">
<title>component/Widget/WidgetPropsSettingModal.tsx</title>
<path fill="none" stroke="#c6c5fe" d="M760.33,-658.86C760.33,-658.86 446.67,-658.86 446.67,-658.86 442.83,-658.86 439,-655.02 439,-651.19 439,-651.19 439,-643.52 439,-643.52 439,-639.69 442.83,-635.86 446.67,-635.86 446.67,-635.86 760.33,-635.86 760.33,-635.86 764.17,-635.86 768,-639.69 768,-643.52 768,-643.52 768,-651.19 768,-651.19 768,-655.02 764.17,-658.86 760.33,-658.86"/>
<text text-anchor="middle" x="603.5" y="-643.66" font-family="Arial" font-size="14.00" fill="#c6c5fe">component/Widget/WidgetPropsSettingModal.tsx</text>
</g>
<!-- component/Widget/WidgetPropsSettingModal.tsx&#45;&gt;common/api.ts -->
<g id="edge44" class="edge">
<title>component/Widget/WidgetPropsSettingModal.tsx&#45;&gt;common/api.ts</title>
<path fill="none" stroke="#757575" d="M620.75,-635.48C653.44,-612.41 730.33,-562.25 804,-544.36 1031.58,-489.08 1763.12,-567.56 1986.86,-593.52"/>
<polygon fill="#757575" stroke="#757575" points="1986.23,-596.97 1996.56,-594.65 1987.04,-590.02 1986.23,-596.97"/>
</g>
<!-- component/Widget/WidgetPropsSettingModal.tsx&#45;&gt;store/WidgetPropsSettingModalProvider.tsx -->
<g id="edge47" class="edge">
<title>component/Widget/WidgetPropsSettingModal.tsx&#45;&gt;store/WidgetPropsSettingModalProvider.tsx</title>
<path fill="none" stroke="#757575" d="M712.34,-659.35C742.01,-662.33 774.22,-665.26 804,-667.36 1004.97,-681.49 1237.12,-689.56 1387.13,-693.69"/>
<polygon fill="#757575" stroke="#757575" points="1386.63,-697.18 1396.72,-693.95 1386.82,-690.18 1386.63,-697.18"/>
</g>
<!-- component/Widget/WidgetPropsSettingModal/WidgetPropsButtons.tsx -->
<g id="node40" class="node">
<title>component/Widget/WidgetPropsSettingModal/WidgetPropsButtons.tsx</title>
<path fill="none" stroke="#c6c5fe" d="M1261.33,-658.86C1261.33,-658.86 811.67,-658.86 811.67,-658.86 807.83,-658.86 804,-655.02 804,-651.19 804,-651.19 804,-643.52 804,-643.52 804,-639.69 807.83,-635.86 811.67,-635.86 811.67,-635.86 1261.33,-635.86 1261.33,-635.86 1265.17,-635.86 1269,-639.69 1269,-643.52 1269,-643.52 1269,-651.19 1269,-651.19 1269,-655.02 1265.17,-658.86 1261.33,-658.86"/>
<text text-anchor="middle" x="1036.5" y="-643.66" font-family="Arial" font-size="14.00" fill="#c6c5fe">component/Widget/WidgetPropsSettingModal/WidgetPropsButtons.tsx</text>
</g>
<!-- component/Widget/WidgetPropsSettingModal.tsx&#45;&gt;component/Widget/WidgetPropsSettingModal/WidgetPropsButtons.tsx -->
<g id="edge45" class="edge">
<title>component/Widget/WidgetPropsSettingModal.tsx&#45;&gt;component/Widget/WidgetPropsSettingModal/WidgetPropsButtons.tsx</title>
<path fill="none" stroke="#757575" d="M768.36,-647.36C776.29,-647.36 784.32,-647.36 792.4,-647.36"/>
<polygon fill="#757575" stroke="#757575" points="792.33,-650.86 802.33,-647.36 792.33,-643.86 792.33,-650.86"/>
</g>
<!-- component/Widget/WidgetPropsSettingModal/WidgetPropsList.tsx -->
<g id="node41" class="node">
<title>component/Widget/WidgetPropsSettingModal/WidgetPropsList.tsx</title>
<path fill="none" stroke="#cfffac" d="M1248.83,-617.86C1248.83,-617.86 824.17,-617.86 824.17,-617.86 820.33,-617.86 816.5,-614.02 816.5,-610.19 816.5,-610.19 816.5,-602.52 816.5,-602.52 816.5,-598.69 820.33,-594.86 824.17,-594.86 824.17,-594.86 1248.83,-594.86 1248.83,-594.86 1252.67,-594.86 1256.5,-598.69 1256.5,-602.52 1256.5,-602.52 1256.5,-610.19 1256.5,-610.19 1256.5,-614.02 1252.67,-617.86 1248.83,-617.86"/>
<text text-anchor="middle" x="1036.5" y="-602.66" font-family="Arial" font-size="14.00" fill="#cfffac">component/Widget/WidgetPropsSettingModal/WidgetPropsList.tsx</text>
</g>
<!-- component/Widget/WidgetPropsSettingModal.tsx&#45;&gt;component/Widget/WidgetPropsSettingModal/WidgetPropsList.tsx -->
<g id="edge46" class="edge">
<title>component/Widget/WidgetPropsSettingModal.tsx&#45;&gt;component/Widget/WidgetPropsSettingModal/WidgetPropsList.tsx</title>
<path fill="none" stroke="#757575" d="M714.74,-635.38C743.76,-632.33 775.05,-629.13 804,-626.36 828.75,-623.99 855,-621.6 880.59,-619.34"/>
<polygon fill="#757575" stroke="#757575" points="880.74,-622.84 890.4,-618.48 880.13,-615.86 880.74,-622.84"/>
</g>
<!-- component/Widget/WidgetPropsSettingModal/WidgetPropsButtons.tsx&#45;&gt;store/WidgetProvider.tsx -->
<g id="edge48" class="edge">
<title>component/Widget/WidgetPropsSettingModal/WidgetPropsButtons.tsx&#45;&gt;store/WidgetProvider.tsx</title>
<path fill="none" stroke="#757575" d="M1269.49,-647.36C1332.15,-647.36 1396.58,-647.36 1447.31,-647.36"/>
<polygon fill="#757575" stroke="#757575" points="1447.06,-650.86 1457.06,-647.36 1447.06,-643.86 1447.06,-650.86"/>
</g>
<!-- component/chart/InformaticsChart/InforMaticsBox.tsx&#45;&gt;types/chart.d.ts -->
<g id="edge55" class="edge">
<title>component/chart/InformaticsChart/InforMaticsBox.tsx&#45;&gt;types/chart.d.ts</title>
<path fill="none" stroke="#757575" d="M2185.32,-395.38C2263.91,-388.19 2360.65,-379.34 2424.09,-373.53"/>
<polygon fill="#757575" stroke="#757575" points="2424.39,-377.02 2434.03,-372.62 2423.75,-370.04 2424.39,-377.02"/>
</g>
<!-- component/common/DatePicker/DatePickerTitle.tsx&#45;&gt;types/widget.d.ts -->
<g id="edge63" class="edge">
<title>component/common/DatePicker/DatePickerTitle.tsx&#45;&gt;types/widget.d.ts</title>
<path fill="none" stroke="#757575" d="M2534.44,-910.4C2569.84,-899.28 2621.8,-881.03 2664,-858.36 2760.98,-806.25 2862.98,-723.02 2906.83,-685.63"/>
<polygon fill="#757575" stroke="#757575" points="2909.07,-688.33 2914.37,-679.16 2904.51,-683.02 2909.07,-688.33"/>
</g>
<!-- component/common/DatePicker/ListPicker.tsx&#45;&gt;types/datePicker.d.ts -->
<g id="edge65" class="edge">
<title>component/common/DatePicker/ListPicker.tsx&#45;&gt;types/datePicker.d.ts</title>
<path fill="none" stroke="#757575" d="M2615.23,-975.34C2643.08,-978.03 2672.56,-980.83 2700,-983.36 2747.61,-987.74 2800.8,-992.4 2843.93,-996.12"/>
<polygon fill="#757575" stroke="#757575" points="2843.47,-999.59 2853.74,-996.96 2844.07,-992.62 2843.47,-999.59"/>
</g>
<!-- component/common/DatePicker/ListPickerItem.tsx -->
<g id="node48" class="node">
<title>component/common/DatePicker/ListPickerItem.tsx</title>
<path fill="none" stroke="#c6c5fe" d="M3090.83,-973.86C3090.83,-973.86 2769.17,-973.86 2769.17,-973.86 2765.33,-973.86 2761.5,-970.02 2761.5,-966.19 2761.5,-966.19 2761.5,-958.52 2761.5,-958.52 2761.5,-954.69 2765.33,-950.86 2769.17,-950.86 2769.17,-950.86 3090.83,-950.86 3090.83,-950.86 3094.67,-950.86 3098.5,-954.69 3098.5,-958.52 3098.5,-958.52 3098.5,-966.19 3098.5,-966.19 3098.5,-970.02 3094.67,-973.86 3090.83,-973.86"/>
<text text-anchor="middle" x="2930" y="-958.66" font-family="Arial" font-size="14.00" fill="#c6c5fe">component/common/DatePicker/ListPickerItem.tsx</text>
</g>
<!-- component/common/DatePicker/ListPicker.tsx&#45;&gt;component/common/DatePicker/ListPickerItem.tsx -->
<g id="edge64" class="edge">
<title>component/common/DatePicker/ListPicker.tsx&#45;&gt;component/common/DatePicker/ListPickerItem.tsx</title>
<path fill="none" stroke="#757575" d="M2646.73,-963.01C2680.12,-962.93 2715.72,-962.85 2750,-962.77"/>
<polygon fill="#757575" stroke="#757575" points="2749.57,-966.27 2759.57,-962.75 2749.56,-959.27 2749.57,-966.27"/>
</g>
<!-- component/common/DatePicker/ListPickerItem.tsx&#45;&gt;component/Dashboard/CommonStyle.ts -->
<g id="edge66" class="edge">
<title>component/common/DatePicker/ListPickerItem.tsx&#45;&gt;component/Dashboard/CommonStyle.ts</title>
<path fill="none" stroke="#757575" d="M3098.71,-972.9C3119.47,-975.62 3140.3,-979.05 3160,-983.36 3206.9,-993.62 3258.63,-1013.13 3292.57,-1027.11"/>
<polygon fill="#757575" stroke="#757575" points="3290.96,-1030.23 3301.54,-1030.86 3293.66,-1023.78 3290.96,-1030.23"/>
</g>
<!-- page/Dashboard.tsx&#45;&gt;component/Dashboard/DashboardHeader.tsx -->
<g id="edge73" class="edge">
<title>page/Dashboard.tsx&#45;&gt;component/Dashboard/DashboardHeader.tsx</title>
<path fill="none" stroke="#757575" d="M352.78,-698.11C400.08,-724.86 516,-790.43 571.67,-821.92"/>
<polygon fill="#757575" stroke="#757575" points="569.91,-824.94 580.34,-826.82 573.35,-818.85 569.91,-824.94"/>
</g>
<!-- page/Dashboard.tsx&#45;&gt;component/Widget.tsx -->
<g id="edge74" class="edge">
<title>page/Dashboard.tsx&#45;&gt;component/Widget.tsx</title>
<path fill="none" stroke="#757575" d="M345.41,-674.61C388.95,-636.46 526.59,-515.87 580.52,-468.62"/>
<polygon fill="#757575" stroke="#757575" points="582.65,-471.4 587.87,-462.18 578.04,-466.14 582.65,-471.4"/>
</g>
<!-- page/Dashboard.tsx&#45;&gt;store/WidgetProvider.tsx -->
<g id="edge76" class="edge">
<title>page/Dashboard.tsx&#45;&gt;store/WidgetProvider.tsx</title>
<path fill="none" stroke="#757575" d="M403.45,-686.18C560.23,-685.51 946.17,-682.34 1269,-667.36 1328.25,-664.61 1394.55,-659.85 1447.26,-655.66"/>
<polygon fill="#757575" stroke="#757575" points="1447.44,-659.16 1457.13,-654.87 1446.88,-652.18 1447.44,-659.16"/>
</g>
<!-- page/Dashboard.tsx&#45;&gt;component/Widget/WidgetPropsSettingModal.tsx -->
<g id="edge75" class="edge">
<title>page/Dashboard.tsx&#45;&gt;component/Widget/WidgetPropsSettingModal.tsx</title>
<path fill="none" stroke="#757575" d="M403.42,-676.06C435.63,-671.42 474.09,-665.87 508.59,-660.9"/>
<polygon fill="#757575" stroke="#757575" points="508.74,-664.41 518.14,-659.52 507.74,-657.48 508.74,-664.41"/>
</g>
</g>
</svg>
