<?xml version="1.0" encoding="UTF-8" standalone="no"?>
<!DOCTYPE svg PUBLIC "-//W3C//DTD SVG 1.1//EN"
 "http://www.w3.org/Graphics/SVG/1.1/DTD/svg11.dtd">
<!-- Generated by graphviz version 7.1.0 (20230121.1956)
 -->
<!-- Title: G Pages: 1 -->
<svg width="2327pt" height="996pt"
 viewBox="0.00 0.00 2327.20 996.22" xmlns="http://www.w3.org/2000/svg" xmlns:xlink="http://www.w3.org/1999/xlink">
<g id="graph0" class="graph" transform="scale(1 1) rotate(0) translate(21.6 974.62)">
<title>G</title>
<polygon fill="#111111" stroke="none" points="-21.6,21.6 -21.6,-974.62 2305.6,-974.62 2305.6,21.6 -21.6,21.6"/>
<!-- App.tsx -->
<g id="node1" class="node">
<title>App.tsx</title>
<path fill="none" stroke="#c6c5fe" d="M57.33,-615.02C57.33,-615.02 7.67,-615.02 7.67,-615.02 3.83,-615.02 0,-611.19 0,-607.36 0,-607.36 0,-599.69 0,-599.69 0,-595.86 3.83,-592.02 7.67,-592.02 7.67,-592.02 57.33,-592.02 57.33,-592.02 61.17,-592.02 65,-595.86 65,-599.69 65,-599.69 65,-607.36 65,-607.36 65,-611.19 61.17,-615.02 57.33,-615.02"/>
<text text-anchor="middle" x="32.5" y="-599.82" font-family="Arial" font-size="14.00" fill="#c6c5fe">App.tsx</text>
</g>
<!-- router/Router.tsx -->
<g id="node2" class="node">
<title>router/Router.tsx</title>
<path fill="none" stroke="#c6c5fe" d="M215.33,-615.02C215.33,-615.02 108.67,-615.02 108.67,-615.02 104.83,-615.02 101,-611.19 101,-607.36 101,-607.36 101,-599.69 101,-599.69 101,-595.86 104.83,-592.02 108.67,-592.02 108.67,-592.02 215.33,-592.02 215.33,-592.02 219.17,-592.02 223,-595.86 223,-599.69 223,-599.69 223,-607.36 223,-607.36 223,-611.19 219.17,-615.02 215.33,-615.02"/>
<text text-anchor="middle" x="162" y="-599.82" font-family="Arial" font-size="14.00" fill="#c6c5fe">router/Router.tsx</text>
</g>
<!-- App.tsx&#45;&gt;router/Router.tsx -->
<g id="edge1" class="edge">
<title>App.tsx&#45;&gt;router/Router.tsx</title>
<path fill="none" stroke="#757575" d="M65.34,-603.52C72.7,-603.52 80.81,-603.52 89.12,-603.52"/>
<polygon fill="#757575" stroke="#757575" points="88.99,-607.02 98.99,-603.52 88.99,-600.02 88.99,-607.02"/>
</g>
<!-- page/Dashboard.tsx -->
<g id="node33" class="node">
<title>page/Dashboard.tsx</title>
<path fill="none" stroke="#c6c5fe" d="M395.33,-615.02C395.33,-615.02 266.67,-615.02 266.67,-615.02 262.83,-615.02 259,-611.19 259,-607.36 259,-607.36 259,-599.69 259,-599.69 259,-595.86 262.83,-592.02 266.67,-592.02 266.67,-592.02 395.33,-592.02 395.33,-592.02 399.17,-592.02 403,-595.86 403,-599.69 403,-599.69 403,-607.36 403,-607.36 403,-611.19 399.17,-615.02 395.33,-615.02"/>
<text text-anchor="middle" x="331" y="-599.82" font-family="Arial" font-size="14.00" fill="#c6c5fe">page/Dashboard.tsx</text>
</g>
<!-- router/Router.tsx&#45;&gt;page/Dashboard.tsx -->
<g id="edge54" class="edge">
<title>router/Router.tsx&#45;&gt;page/Dashboard.tsx</title>
<path fill="none" stroke="#757575" d="M223.29,-603.52C231.1,-603.52 239.21,-603.52 247.3,-603.52"/>
<polygon fill="#757575" stroke="#757575" points="247.19,-607.02 257.19,-603.52 247.19,-600.02 247.19,-607.02"/>
</g>
<!-- api.ts -->
<g id="node3" class="node">
<title>api.ts</title>
<path fill="none" stroke="#c6c5fe" d="M1037.83,-118.02C1037.83,-118.02 999.17,-118.02 999.17,-118.02 995.33,-118.02 991.5,-114.19 991.5,-110.36 991.5,-110.36 991.5,-102.69 991.5,-102.69 991.5,-98.86 995.33,-95.02 999.17,-95.02 999.17,-95.02 1037.83,-95.02 1037.83,-95.02 1041.67,-95.02 1045.5,-98.86 1045.5,-102.69 1045.5,-102.69 1045.5,-110.36 1045.5,-110.36 1045.5,-114.19 1041.67,-118.02 1037.83,-118.02"/>
<text text-anchor="middle" x="1018.5" y="-102.82" font-family="Arial" font-size="14.00" fill="#c6c5fe">api.ts</text>
</g>
<!-- types/api.d.ts -->
<g id="node4" class="node">
<title>types/api.d.ts</title>
<path fill="none" stroke="#cfffac" d="M1567.83,-115.02C1567.83,-115.02 1482.17,-115.02 1482.17,-115.02 1478.33,-115.02 1474.5,-111.19 1474.5,-107.36 1474.5,-107.36 1474.5,-99.69 1474.5,-99.69 1474.5,-95.86 1478.33,-92.02 1482.17,-92.02 1482.17,-92.02 1567.83,-92.02 1567.83,-92.02 1571.67,-92.02 1575.5,-95.86 1575.5,-99.69 1575.5,-99.69 1575.5,-107.36 1575.5,-107.36 1575.5,-111.19 1571.67,-115.02 1567.83,-115.02"/>
<text text-anchor="middle" x="1525" y="-99.82" font-family="Arial" font-size="14.00" fill="#cfffac">types/api.d.ts</text>
</g>
<!-- api.ts&#45;&gt;types/api.d.ts -->
<g id="edge2" class="edge">
<title>api.ts&#45;&gt;types/api.d.ts</title>
<path fill="none" stroke="#757575" d="M1045.91,-106.37C1123.55,-105.91 1352.5,-104.54 1462.99,-103.89"/>
<polygon fill="#757575" stroke="#757575" points="1462.77,-107.39 1472.75,-103.83 1462.73,-100.39 1462.77,-107.39"/>
</g>
<!-- asset/image/pause.png -->
<g id="node5" class="node">
<title>asset/image/pause.png</title>
<path fill="none" stroke="#cfffac" d="M1092.83,-798.02C1092.83,-798.02 944.17,-798.02 944.17,-798.02 940.33,-798.02 936.5,-794.19 936.5,-790.36 936.5,-790.36 936.5,-782.69 936.5,-782.69 936.5,-778.86 940.33,-775.02 944.17,-775.02 944.17,-775.02 1092.83,-775.02 1092.83,-775.02 1096.67,-775.02 1100.5,-778.86 1100.5,-782.69 1100.5,-782.69 1100.5,-790.36 1100.5,-790.36 1100.5,-794.19 1096.67,-798.02 1092.83,-798.02"/>
<text text-anchor="middle" x="1018.5" y="-782.82" font-family="Arial" font-size="14.00" fill="#cfffac">asset/image/pause.png</text>
</g>
<!-- asset/image/play.png -->
<g id="node6" class="node">
<title>asset/image/play.png</title>
<path fill="none" stroke="#cfffac" d="M1086.33,-757.02C1086.33,-757.02 950.67,-757.02 950.67,-757.02 946.83,-757.02 943,-753.19 943,-749.36 943,-749.36 943,-741.69 943,-741.69 943,-737.86 946.83,-734.02 950.67,-734.02 950.67,-734.02 1086.33,-734.02 1086.33,-734.02 1090.17,-734.02 1094,-737.86 1094,-741.69 1094,-741.69 1094,-749.36 1094,-749.36 1094,-753.19 1090.17,-757.02 1086.33,-757.02"/>
<text text-anchor="middle" x="1018.5" y="-741.82" font-family="Arial" font-size="14.00" fill="#cfffac">asset/image/play.png</text>
</g>
<!-- common/chart.ts -->
<g id="node7" class="node">
<title>common/chart.ts</title>
<path fill="none" stroke="#c6c5fe" d="M1578.33,-236.02C1578.33,-236.02 1471.67,-236.02 1471.67,-236.02 1467.83,-236.02 1464,-232.19 1464,-228.36 1464,-228.36 1464,-220.69 1464,-220.69 1464,-216.86 1467.83,-213.02 1471.67,-213.02 1471.67,-213.02 1578.33,-213.02 1578.33,-213.02 1582.17,-213.02 1586,-216.86 1586,-220.69 1586,-220.69 1586,-228.36 1586,-228.36 1586,-232.19 1582.17,-236.02 1578.33,-236.02"/>
<text text-anchor="middle" x="1525" y="-220.82" font-family="Arial" font-size="14.00" fill="#c6c5fe">common/chart.ts</text>
</g>
<!-- types/chart.d.ts -->
<g id="node8" class="node">
<title>types/chart.d.ts</title>
<path fill="none" stroke="#c6c5fe" d="M1993.83,-196.02C1993.83,-196.02 1896.17,-196.02 1896.17,-196.02 1892.33,-196.02 1888.5,-192.19 1888.5,-188.36 1888.5,-188.36 1888.5,-180.69 1888.5,-180.69 1888.5,-176.86 1892.33,-173.02 1896.17,-173.02 1896.17,-173.02 1993.83,-173.02 1993.83,-173.02 1997.67,-173.02 2001.5,-176.86 2001.5,-180.69 2001.5,-180.69 2001.5,-188.36 2001.5,-188.36 2001.5,-192.19 1997.67,-196.02 1993.83,-196.02"/>
<text text-anchor="middle" x="1945" y="-180.82" font-family="Arial" font-size="14.00" fill="#c6c5fe">types/chart.d.ts</text>
</g>
<!-- common/chart.ts&#45;&gt;types/chart.d.ts -->
<g id="edge3" class="edge">
<title>common/chart.ts&#45;&gt;types/chart.d.ts</title>
<path fill="none" stroke="#757575" d="M1586.3,-219.56C1632.49,-215.69 1697.8,-210.05 1755,-204.52 1795.45,-200.62 1840.73,-195.84 1876.83,-191.94"/>
<polygon fill="#757575" stroke="#757575" points="1877.14,-195.42 1886.7,-190.86 1876.38,-188.46 1877.14,-195.42"/>
</g>
<!-- types/widget.d.ts -->
<g id="node10" class="node">
<title>types/widget.d.ts</title>
<path fill="none" stroke="#cfffac" d="M2263.33,-472.02C2263.33,-472.02 2155.67,-472.02 2155.67,-472.02 2151.83,-472.02 2148,-468.19 2148,-464.36 2148,-464.36 2148,-456.69 2148,-456.69 2148,-452.86 2151.83,-449.02 2155.67,-449.02 2155.67,-449.02 2263.33,-449.02 2263.33,-449.02 2267.17,-449.02 2271,-452.86 2271,-456.69 2271,-456.69 2271,-464.36 2271,-464.36 2271,-468.19 2267.17,-472.02 2263.33,-472.02"/>
<text text-anchor="middle" x="2209.5" y="-456.82" font-family="Arial" font-size="14.00" fill="#cfffac">types/widget.d.ts</text>
</g>
<!-- types/chart.d.ts&#45;&gt;types/widget.d.ts -->
<g id="edge56" class="edge">
<title>types/chart.d.ts&#45;&gt;types/widget.d.ts</title>
<path fill="none" stroke="#757575" d="M1969.41,-196.47C2001.43,-213.63 2059.41,-247.73 2099,-288.52 2144.38,-335.29 2181.11,-403.73 2198.17,-438.5"/>
<polygon fill="#757575" stroke="#757575" points="2194.86,-439.68 2202.35,-447.17 2201.16,-436.64 2194.86,-439.68"/>
</g>
<!-- common/date.ts -->
<g id="node9" class="node">
<title>common/date.ts</title>
<path fill="none" stroke="#c6c5fe" d="M1996.83,-472.02C1996.83,-472.02 1893.17,-472.02 1893.17,-472.02 1889.33,-472.02 1885.5,-468.19 1885.5,-464.36 1885.5,-464.36 1885.5,-456.69 1885.5,-456.69 1885.5,-452.86 1889.33,-449.02 1893.17,-449.02 1893.17,-449.02 1996.83,-449.02 1996.83,-449.02 2000.67,-449.02 2004.5,-452.86 2004.5,-456.69 2004.5,-456.69 2004.5,-464.36 2004.5,-464.36 2004.5,-468.19 2000.67,-472.02 1996.83,-472.02"/>
<text text-anchor="middle" x="1945" y="-456.82" font-family="Arial" font-size="14.00" fill="#c6c5fe">common/date.ts</text>
</g>
<!-- common/date.ts&#45;&gt;types/widget.d.ts -->
<g id="edge4" class="edge">
<title>common/date.ts&#45;&gt;types/widget.d.ts</title>
<path fill="none" stroke="#757575" d="M2004.91,-460.52C2043.74,-460.52 2094.84,-460.52 2136.14,-460.52"/>
<polygon fill="#757575" stroke="#757575" points="2135.99,-464.02 2145.99,-460.52 2135.99,-457.02 2135.99,-464.02"/>
</g>
<!-- common/widget.ts -->
<g id="node11" class="node">
<title>common/widget.ts</title>
<path fill="none" stroke="#cfffac" d="M1583.33,-354.02C1583.33,-354.02 1466.67,-354.02 1466.67,-354.02 1462.83,-354.02 1459,-350.19 1459,-346.36 1459,-346.36 1459,-338.69 1459,-338.69 1459,-334.86 1462.83,-331.02 1466.67,-331.02 1466.67,-331.02 1583.33,-331.02 1583.33,-331.02 1587.17,-331.02 1591,-334.86 1591,-338.69 1591,-338.69 1591,-346.36 1591,-346.36 1591,-350.19 1587.17,-354.02 1583.33,-354.02"/>
<text text-anchor="middle" x="1525" y="-338.82" font-family="Arial" font-size="14.00" fill="#cfffac">common/widget.ts</text>
</g>
<!-- component/Dashboard/CommonStyle.ts -->
<g id="node12" class="node">
<title>component/Dashboard/CommonStyle.ts</title>
<path fill="none" stroke="#cfffac" d="M1652.33,-675.02C1652.33,-675.02 1397.67,-675.02 1397.67,-675.02 1393.83,-675.02 1390,-671.19 1390,-667.36 1390,-667.36 1390,-659.69 1390,-659.69 1390,-655.86 1393.83,-652.02 1397.67,-652.02 1397.67,-652.02 1652.33,-652.02 1652.33,-652.02 1656.17,-652.02 1660,-655.86 1660,-659.69 1660,-659.69 1660,-667.36 1660,-667.36 1660,-671.19 1656.17,-675.02 1652.33,-675.02"/>
<text text-anchor="middle" x="1525" y="-659.82" font-family="Arial" font-size="14.00" fill="#cfffac">component/Dashboard/CommonStyle.ts</text>
</g>
<!-- component/Dashboard/DashboardHeader.tsx -->
<g id="node13" class="node">
<title>component/Dashboard/DashboardHeader.tsx</title>
<path fill="none" stroke="#c6c5fe" d="M734.33,-675.02C734.33,-675.02 446.67,-675.02 446.67,-675.02 442.83,-675.02 439,-671.19 439,-667.36 439,-667.36 439,-659.69 439,-659.69 439,-655.86 442.83,-652.02 446.67,-652.02 446.67,-652.02 734.33,-652.02 734.33,-652.02 738.17,-652.02 742,-655.86 742,-659.69 742,-659.69 742,-667.36 742,-667.36 742,-671.19 738.17,-675.02 734.33,-675.02"/>
<text text-anchor="middle" x="590.5" y="-659.82" font-family="Arial" font-size="14.00" fill="#c6c5fe">component/Dashboard/DashboardHeader.tsx</text>
</g>
<!-- component/Dashboard/DashboardHeader.tsx&#45;&gt;asset/image/pause.png -->
<g id="edge5" class="edge">
<title>component/Dashboard/DashboardHeader.tsx&#45;&gt;asset/image/pause.png</title>
<path fill="none" stroke="#757575" d="M607.41,-675.41C638.37,-697.8 709.67,-745.84 778,-766.52 825.12,-780.79 879.69,-786.15 924.83,-787.79"/>
<polygon fill="#757575" stroke="#757575" points="924.47,-791.28 934.57,-788.08 924.68,-784.29 924.47,-791.28"/>
</g>
<!-- component/Dashboard/DashboardHeader.tsx&#45;&gt;asset/image/play.png -->
<g id="edge6" class="edge">
<title>component/Dashboard/DashboardHeader.tsx&#45;&gt;asset/image/play.png</title>
<path fill="none" stroke="#757575" d="M620.31,-675.49C656.46,-689.94 720.67,-713.78 778,-725.52 828.21,-735.81 885.38,-740.83 931.27,-743.27"/>
<polygon fill="#757575" stroke="#757575" points="931.01,-746.76 941.17,-743.76 931.35,-739.77 931.01,-746.76"/>
</g>
<!-- component/Dashboard/DashboardHeader/CurrentTime.tsx -->
<g id="node14" class="node">
<title>component/Dashboard/DashboardHeader/CurrentTime.tsx</title>
<path fill="none" stroke="#cfffac" d="M1203.83,-716.02C1203.83,-716.02 833.17,-716.02 833.17,-716.02 829.33,-716.02 825.5,-712.19 825.5,-708.36 825.5,-708.36 825.5,-700.69 825.5,-700.69 825.5,-696.86 829.33,-693.02 833.17,-693.02 833.17,-693.02 1203.83,-693.02 1203.83,-693.02 1207.67,-693.02 1211.5,-696.86 1211.5,-700.69 1211.5,-700.69 1211.5,-708.36 1211.5,-708.36 1211.5,-712.19 1207.67,-716.02 1203.83,-716.02"/>
<text text-anchor="middle" x="1018.5" y="-700.82" font-family="Arial" font-size="14.00" fill="#cfffac">component/Dashboard/DashboardHeader/CurrentTime.tsx</text>
</g>
<!-- component/Dashboard/DashboardHeader.tsx&#45;&gt;component/Dashboard/DashboardHeader/CurrentTime.tsx -->
<g id="edge7" class="edge">
<title>component/Dashboard/DashboardHeader.tsx&#45;&gt;component/Dashboard/DashboardHeader/CurrentTime.tsx</title>
<path fill="none" stroke="#757575" d="M693.08,-675.5C720.62,-678.6 750.44,-681.82 778,-684.52 802.78,-686.95 829.02,-689.34 854.69,-691.56"/>
<polygon fill="#757575" stroke="#757575" points="854.27,-695.04 864.54,-692.41 854.87,-688.07 854.27,-695.04"/>
</g>
<!-- component/Dashboard/DashboardHeader/DatePickerArea.tsx -->
<g id="node15" class="node">
<title>component/Dashboard/DashboardHeader/DatePickerArea.tsx</title>
<path fill="none" stroke="#c6c5fe" d="M1214.33,-675.02C1214.33,-675.02 822.67,-675.02 822.67,-675.02 818.83,-675.02 815,-671.19 815,-667.36 815,-667.36 815,-659.69 815,-659.69 815,-655.86 818.83,-652.02 822.67,-652.02 822.67,-652.02 1214.33,-652.02 1214.33,-652.02 1218.17,-652.02 1222,-655.86 1222,-659.69 1222,-659.69 1222,-667.36 1222,-667.36 1222,-671.19 1218.17,-675.02 1214.33,-675.02"/>
<text text-anchor="middle" x="1018.5" y="-659.82" font-family="Arial" font-size="14.00" fill="#c6c5fe">component/Dashboard/DashboardHeader/DatePickerArea.tsx</text>
</g>
<!-- component/Dashboard/DashboardHeader.tsx&#45;&gt;component/Dashboard/DashboardHeader/DatePickerArea.tsx -->
<g id="edge8" class="edge">
<title>component/Dashboard/DashboardHeader.tsx&#45;&gt;component/Dashboard/DashboardHeader/DatePickerArea.tsx</title>
<path fill="none" stroke="#757575" d="M742.29,-663.52C762.08,-663.52 782.66,-663.52 803.25,-663.52"/>
<polygon fill="#757575" stroke="#757575" points="803.17,-667.02 813.17,-663.52 803.17,-660.02 803.17,-667.02"/>
</g>
<!-- component/Dashboard/DashboardHeader/SelectRealTimeRangeArea.tsx -->
<g id="node16" class="node">
<title>component/Dashboard/DashboardHeader/SelectRealTimeRangeArea.tsx</title>
<path fill="none" stroke="#c6c5fe" d="M1251.33,-628.02C1251.33,-628.02 785.67,-628.02 785.67,-628.02 781.83,-628.02 778,-624.19 778,-620.36 778,-620.36 778,-612.69 778,-612.69 778,-608.86 781.83,-605.02 785.67,-605.02 785.67,-605.02 1251.33,-605.02 1251.33,-605.02 1255.17,-605.02 1259,-608.86 1259,-612.69 1259,-612.69 1259,-620.36 1259,-620.36 1259,-624.19 1255.17,-628.02 1251.33,-628.02"/>
<text text-anchor="middle" x="1018.5" y="-612.82" font-family="Arial" font-size="14.00" fill="#c6c5fe">component/Dashboard/DashboardHeader/SelectRealTimeRangeArea.tsx</text>
</g>
<!-- component/Dashboard/DashboardHeader.tsx&#45;&gt;component/Dashboard/DashboardHeader/SelectRealTimeRangeArea.tsx -->
<g id="edge9" class="edge">
<title>component/Dashboard/DashboardHeader.tsx&#45;&gt;component/Dashboard/DashboardHeader/SelectRealTimeRangeArea.tsx</title>
<path fill="none" stroke="#757575" d="M700.1,-651.54C760.44,-644.89 835.62,-636.59 897.67,-629.75"/>
<polygon fill="#757575" stroke="#757575" points="898.04,-633.23 907.59,-628.65 897.27,-626.27 898.04,-633.23"/>
</g>
<!-- store/DashboardProvider.tsx -->
<g id="node17" class="node">
<title>store/DashboardProvider.tsx</title>
<path fill="none" stroke="#c6c5fe" d="M1615.83,-472.02C1615.83,-472.02 1434.17,-472.02 1434.17,-472.02 1430.33,-472.02 1426.5,-468.19 1426.5,-464.36 1426.5,-464.36 1426.5,-456.69 1426.5,-456.69 1426.5,-452.86 1430.33,-449.02 1434.17,-449.02 1434.17,-449.02 1615.83,-449.02 1615.83,-449.02 1619.67,-449.02 1623.5,-452.86 1623.5,-456.69 1623.5,-456.69 1623.5,-464.36 1623.5,-464.36 1623.5,-468.19 1619.67,-472.02 1615.83,-472.02"/>
<text text-anchor="middle" x="1525" y="-456.82" font-family="Arial" font-size="14.00" fill="#c6c5fe">store/DashboardProvider.tsx</text>
</g>
<!-- component/Dashboard/DashboardHeader.tsx&#45;&gt;store/DashboardProvider.tsx -->
<g id="edge10" class="edge">
<title>component/Dashboard/DashboardHeader.tsx&#45;&gt;store/DashboardProvider.tsx</title>
<path fill="none" stroke="#757575" d="M618.73,-651.62C654.56,-636.46 719.8,-610.55 778,-596.52 987.54,-546.01 1075.37,-647.4 1259,-534.52 1283.26,-519.61 1270.47,-495.99 1295,-481.52 1330.52,-460.58 1374.66,-453.12 1414.68,-451.67"/>
<polygon fill="#757575" stroke="#757575" points="1414.69,-455.17 1424.61,-451.44 1414.54,-448.17 1414.69,-455.17"/>
</g>
<!-- component/Dashboard/DashboardHeader/DatePickerArea.tsx&#45;&gt;common/date.ts -->
<g id="edge11" class="edge">
<title>component/Dashboard/DashboardHeader/DatePickerArea.tsx&#45;&gt;common/date.ts</title>
<path fill="none" stroke="#757575" d="M1222.26,-670.03C1235,-673.86 1247.36,-678.63 1259,-684.52 1280.63,-695.48 1272.91,-715.52 1295,-725.52 1388.12,-767.68 1664.12,-772.33 1755,-725.52 1857.05,-672.96 1916.15,-536.96 1936.21,-483.03"/>
<polygon fill="#757575" stroke="#757575" points="1939.47,-484.3 1939.57,-473.7 1932.89,-481.92 1939.47,-484.3"/>
</g>
<!-- component/Dashboard/DashboardHeader/DatePickerArea.tsx&#45;&gt;types/widget.d.ts -->
<g id="edge18" class="edge">
<title>component/Dashboard/DashboardHeader/DatePickerArea.tsx&#45;&gt;types/widget.d.ts</title>
<path fill="none" stroke="#757575" d="M1222.41,-666.11C1235.33,-670.83 1247.68,-676.87 1259,-684.52 1288.31,-704.34 1264.85,-737.01 1295,-755.52 1382.11,-809.02 1656.83,-784.01 1755,-755.52 1944.62,-700.5 2128.61,-536.94 2188.36,-480.18"/>
<polygon fill="#757575" stroke="#757575" points="2190.68,-482.81 2195.47,-473.36 2185.83,-477.76 2190.68,-482.81"/>
</g>
<!-- component/Dashboard/DashboardHeader/DatePickerArea.tsx&#45;&gt;component/Dashboard/CommonStyle.ts -->
<g id="edge12" class="edge">
<title>component/Dashboard/DashboardHeader/DatePickerArea.tsx&#45;&gt;component/Dashboard/CommonStyle.ts</title>
<path fill="none" stroke="#757575" d="M1222.16,-663.52C1274.39,-663.52 1329.57,-663.52 1378.27,-663.52"/>
<polygon fill="#757575" stroke="#757575" points="1378.01,-667.02 1388.01,-663.52 1378.01,-660.02 1378.01,-667.02"/>
</g>
<!-- component/Dashboard/DashboardHeader/DatePickerArea.tsx&#45;&gt;store/DashboardProvider.tsx -->
<g id="edge17" class="edge">
<title>component/Dashboard/DashboardHeader/DatePickerArea.tsx&#45;&gt;store/DashboardProvider.tsx</title>
<path fill="none" stroke="#757575" d="M1086.97,-675.52C1140.14,-680.88 1212.79,-678.55 1259,-637.52 1312.21,-590.28 1241.4,-528.32 1295,-481.52 1337.83,-444.13 1403.87,-441.84 1454.05,-447.17"/>
<polygon fill="#757575" stroke="#757575" points="1453.62,-450.65 1463.96,-448.36 1454.45,-443.7 1453.62,-450.65"/>
</g>
<!-- component/Dashboard/DashboardHeader/DateBox.tsx -->
<g id="node18" class="node">
<title>component/Dashboard/DashboardHeader/DateBox.tsx</title>
<path fill="none" stroke="#cfffac" d="M1698.33,-834.02C1698.33,-834.02 1351.67,-834.02 1351.67,-834.02 1347.83,-834.02 1344,-830.19 1344,-826.36 1344,-826.36 1344,-818.69 1344,-818.69 1344,-814.86 1347.83,-811.02 1351.67,-811.02 1351.67,-811.02 1698.33,-811.02 1698.33,-811.02 1702.17,-811.02 1706,-814.86 1706,-818.69 1706,-818.69 1706,-826.36 1706,-826.36 1706,-830.19 1702.17,-834.02 1698.33,-834.02"/>
<text text-anchor="middle" x="1525" y="-818.82" font-family="Arial" font-size="14.00" fill="#cfffac">component/Dashboard/DashboardHeader/DateBox.tsx</text>
</g>
<!-- component/Dashboard/DashboardHeader/DatePickerArea.tsx&#45;&gt;component/Dashboard/DashboardHeader/DateBox.tsx -->
<g id="edge13" class="edge">
<title>component/Dashboard/DashboardHeader/DatePickerArea.tsx&#45;&gt;component/Dashboard/DashboardHeader/DateBox.tsx</title>
<path fill="none" stroke="#757575" d="M1081.15,-651.54C1134.03,-644.96 1209.33,-644.88 1259,-684.52 1299.86,-717.14 1254.56,-763.39 1295,-796.52 1306.41,-805.87 1319.28,-813.06 1332.95,-818.53"/>
<polygon fill="#757575" stroke="#757575" points="1331.53,-821.74 1342.13,-821.87 1333.92,-815.16 1331.53,-821.74"/>
</g>
<!-- component/common/DatePicker.tsx -->
<g id="node19" class="node">
<title>component/common/DatePicker.tsx</title>
<path fill="none" stroke="#c6c5fe" d="M1638.33,-914.02C1638.33,-914.02 1411.67,-914.02 1411.67,-914.02 1407.83,-914.02 1404,-910.19 1404,-906.36 1404,-906.36 1404,-898.69 1404,-898.69 1404,-894.86 1407.83,-891.02 1411.67,-891.02 1411.67,-891.02 1638.33,-891.02 1638.33,-891.02 1642.17,-891.02 1646,-894.86 1646,-898.69 1646,-898.69 1646,-906.36 1646,-906.36 1646,-910.19 1642.17,-914.02 1638.33,-914.02"/>
<text text-anchor="middle" x="1525" y="-898.82" font-family="Arial" font-size="14.00" fill="#c6c5fe">component/common/DatePicker.tsx</text>
</g>
<!-- component/Dashboard/DashboardHeader/DatePickerArea.tsx&#45;&gt;component/common/DatePicker.tsx -->
<g id="edge14" class="edge">
<title>component/Dashboard/DashboardHeader/DatePickerArea.tsx&#45;&gt;component/common/DatePicker.tsx</title>
<path fill="none" stroke="#757575" d="M1074.56,-651.56C1128.22,-643.36 1208.85,-640.74 1259,-684.52 1313.58,-732.18 1244.53,-791.54 1295,-843.52 1320.79,-870.09 1356.82,-885.25 1392.68,-893.76"/>
<polygon fill="#757575" stroke="#757575" points="1391.8,-897.15 1402.32,-895.87 1393.3,-890.31 1391.8,-897.15"/>
</g>
<!-- hook/useBoolean.tsx -->
<g id="node20" class="node">
<title>hook/useBoolean.tsx</title>
<path fill="none" stroke="#cfffac" d="M1591.83,-634.02C1591.83,-634.02 1458.17,-634.02 1458.17,-634.02 1454.33,-634.02 1450.5,-630.19 1450.5,-626.36 1450.5,-626.36 1450.5,-618.69 1450.5,-618.69 1450.5,-614.86 1454.33,-611.02 1458.17,-611.02 1458.17,-611.02 1591.83,-611.02 1591.83,-611.02 1595.67,-611.02 1599.5,-614.86 1599.5,-618.69 1599.5,-618.69 1599.5,-626.36 1599.5,-626.36 1599.5,-630.19 1595.67,-634.02 1591.83,-634.02"/>
<text text-anchor="middle" x="1525" y="-618.82" font-family="Arial" font-size="14.00" fill="#cfffac">hook/useBoolean.tsx</text>
</g>
<!-- component/Dashboard/DashboardHeader/DatePickerArea.tsx&#45;&gt;hook/useBoolean.tsx -->
<g id="edge15" class="edge">
<title>component/Dashboard/DashboardHeader/DatePickerArea.tsx&#45;&gt;hook/useBoolean.tsx</title>
<path fill="none" stroke="#757575" d="M1167.12,-651.53C1255.63,-644.33 1365.03,-635.44 1439.2,-629.42"/>
<polygon fill="#757575" stroke="#757575" points="1439.15,-632.93 1448.83,-628.63 1438.58,-625.96 1439.15,-632.93"/>
</g>
<!-- hook/useOutsideClick.tsx -->
<g id="node21" class="node">
<title>hook/useOutsideClick.tsx</title>
<path fill="none" stroke="#cfffac" d="M1605.33,-716.02C1605.33,-716.02 1444.67,-716.02 1444.67,-716.02 1440.83,-716.02 1437,-712.19 1437,-708.36 1437,-708.36 1437,-700.69 1437,-700.69 1437,-696.86 1440.83,-693.02 1444.67,-693.02 1444.67,-693.02 1605.33,-693.02 1605.33,-693.02 1609.17,-693.02 1613,-696.86 1613,-700.69 1613,-700.69 1613,-708.36 1613,-708.36 1613,-712.19 1609.17,-716.02 1605.33,-716.02"/>
<text text-anchor="middle" x="1525" y="-700.82" font-family="Arial" font-size="14.00" fill="#cfffac">hook/useOutsideClick.tsx</text>
</g>
<!-- component/Dashboard/DashboardHeader/DatePickerArea.tsx&#45;&gt;hook/useOutsideClick.tsx -->
<g id="edge16" class="edge">
<title>component/Dashboard/DashboardHeader/DatePickerArea.tsx&#45;&gt;hook/useOutsideClick.tsx</title>
<path fill="none" stroke="#757575" d="M1167.12,-675.52C1250.37,-682.29 1352.11,-690.56 1425.63,-696.53"/>
<polygon fill="#757575" stroke="#757575" points="1424.96,-699.99 1435.21,-697.31 1425.53,-693.01 1424.96,-699.99"/>
</g>
<!-- component/Dashboard/DashboardHeader/SelectRealTimeRangeArea.tsx&#45;&gt;types/widget.d.ts -->
<g id="edge25" class="edge">
<title>component/Dashboard/DashboardHeader/SelectRealTimeRangeArea.tsx&#45;&gt;types/widget.d.ts</title>
<path fill="none" stroke="#757575" d="M1236.49,-604.53C1416.72,-593.89 1658.6,-577.86 1755,-563.52 1901.21,-541.78 2070.24,-498.46 2154.67,-475.54"/>
<polygon fill="#757575" stroke="#757575" points="2155.58,-478.92 2164.31,-472.91 2153.74,-472.17 2155.58,-478.92"/>
</g>
<!-- component/Dashboard/DashboardHeader/SelectRealTimeRangeArea.tsx&#45;&gt;component/Dashboard/CommonStyle.ts -->
<g id="edge19" class="edge">
<title>component/Dashboard/DashboardHeader/SelectRealTimeRangeArea.tsx&#45;&gt;component/Dashboard/CommonStyle.ts</title>
<path fill="none" stroke="#757575" d="M1138.81,-628.5C1187.27,-633.28 1243.8,-638.78 1295,-643.52 1321.89,-646.02 1350.57,-648.59 1378.21,-651.02"/>
<polygon fill="#757575" stroke="#757575" points="1377.79,-654.5 1388.06,-651.89 1378.41,-647.53 1377.79,-654.5"/>
</g>
<!-- component/Dashboard/DashboardHeader/SelectRealTimeRangeArea.tsx&#45;&gt;store/DashboardProvider.tsx -->
<g id="edge24" class="edge">
<title>component/Dashboard/DashboardHeader/SelectRealTimeRangeArea.tsx&#45;&gt;store/DashboardProvider.tsx</title>
<path fill="none" stroke="#757575" d="M1213.4,-604.63C1229.87,-598.18 1245.4,-589.66 1259,-578.52 1294.57,-549.38 1258.49,-509.48 1295,-481.52 1335.71,-450.36 1393.19,-445.18 1440.39,-447.75"/>
<polygon fill="#757575" stroke="#757575" points="1440.11,-451.24 1450.32,-448.43 1440.59,-444.26 1440.11,-451.24"/>
</g>
<!-- component/Dashboard/DashboardHeader/SelectRealTimeRangeArea.tsx&#45;&gt;hook/useBoolean.tsx -->
<g id="edge22" class="edge">
<title>component/Dashboard/DashboardHeader/SelectRealTimeRangeArea.tsx&#45;&gt;hook/useBoolean.tsx</title>
<path fill="none" stroke="#757575" d="M1259.19,-619.38C1323.58,-620.14 1389.07,-620.92 1438.81,-621.51"/>
<polygon fill="#757575" stroke="#757575" points="1438.58,-625.01 1448.62,-621.63 1438.66,-618.01 1438.58,-625.01"/>
</g>
<!-- component/Dashboard/DashboardHeader/SelectRealTimeRangeArea.tsx&#45;&gt;hook/useOutsideClick.tsx -->
<g id="edge23" class="edge">
<title>component/Dashboard/DashboardHeader/SelectRealTimeRangeArea.tsx&#45;&gt;hook/useOutsideClick.tsx</title>
<path fill="none" stroke="#757575" d="M1222.67,-628.52C1235.28,-632.57 1247.5,-637.52 1259,-643.52 1280.5,-654.75 1273.37,-673.57 1295,-684.52 1334.63,-704.59 1383.08,-710.99 1425.2,-711.81"/>
<polygon fill="#757575" stroke="#757575" points="1425.07,-715.31 1435.1,-711.89 1425.12,-708.31 1425.07,-715.31"/>
</g>
<!-- component/Dashboard/DashboardHeader/RealTime.tsx -->
<g id="node22" class="node">
<title>component/Dashboard/DashboardHeader/RealTime.tsx</title>
<path fill="none" stroke="#cfffac" d="M1701.33,-554.02C1701.33,-554.02 1348.67,-554.02 1348.67,-554.02 1344.83,-554.02 1341,-550.19 1341,-546.36 1341,-546.36 1341,-538.69 1341,-538.69 1341,-534.86 1344.83,-531.02 1348.67,-531.02 1348.67,-531.02 1701.33,-531.02 1701.33,-531.02 1705.17,-531.02 1709,-534.86 1709,-538.69 1709,-538.69 1709,-546.36 1709,-546.36 1709,-550.19 1705.17,-554.02 1701.33,-554.02"/>
<text text-anchor="middle" x="1525" y="-538.82" font-family="Arial" font-size="14.00" fill="#cfffac">component/Dashboard/DashboardHeader/RealTime.tsx</text>
</g>
<!-- component/Dashboard/DashboardHeader/SelectRealTimeRangeArea.tsx&#45;&gt;component/Dashboard/DashboardHeader/RealTime.tsx -->
<g id="edge20" class="edge">
<title>component/Dashboard/DashboardHeader/SelectRealTimeRangeArea.tsx&#45;&gt;component/Dashboard/DashboardHeader/RealTime.tsx</title>
<path fill="none" stroke="#757575" d="M1110.65,-604.55C1155.55,-598.02 1210.35,-589.1 1259,-578.52 1275.23,-575 1278.7,-571.69 1295,-568.52 1320.98,-563.47 1348.82,-559.3 1375.82,-555.88"/>
<polygon fill="#757575" stroke="#757575" points="1375.93,-559.4 1385.43,-554.7 1375.07,-552.45 1375.93,-559.4"/>
</g>
<!-- component/Dashboard/DashboardHeader/SelectRealTimeListItem.tsx -->
<g id="node23" class="node">
<title>component/Dashboard/DashboardHeader/SelectRealTimeListItem.tsx</title>
<path fill="none" stroke="#cfffac" d="M1747.33,-513.02C1747.33,-513.02 1302.67,-513.02 1302.67,-513.02 1298.83,-513.02 1295,-509.19 1295,-505.36 1295,-505.36 1295,-497.69 1295,-497.69 1295,-493.86 1298.83,-490.02 1302.67,-490.02 1302.67,-490.02 1747.33,-490.02 1747.33,-490.02 1751.17,-490.02 1755,-493.86 1755,-497.69 1755,-497.69 1755,-505.36 1755,-505.36 1755,-509.19 1751.17,-513.02 1747.33,-513.02"/>
<text text-anchor="middle" x="1525" y="-497.82" font-family="Arial" font-size="14.00" fill="#cfffac">component/Dashboard/DashboardHeader/SelectRealTimeListItem.tsx</text>
</g>
<!-- component/Dashboard/DashboardHeader/SelectRealTimeRangeArea.tsx&#45;&gt;component/Dashboard/DashboardHeader/SelectRealTimeListItem.tsx -->
<g id="edge21" class="edge">
<title>component/Dashboard/DashboardHeader/SelectRealTimeRangeArea.tsx&#45;&gt;component/Dashboard/DashboardHeader/SelectRealTimeListItem.tsx</title>
<path fill="none" stroke="#757575" d="M1201.23,-604.57C1221.7,-598.41 1241.46,-589.98 1259,-578.52 1283.78,-562.35 1269.71,-537.88 1295,-522.52 1297.34,-521.1 1299.72,-519.75 1302.13,-518.45"/>
<polygon fill="#757575" stroke="#757575" points="1303.49,-521.68 1310.89,-514.1 1300.38,-515.41 1303.49,-521.68"/>
</g>
<!-- store/DashboardProvider.tsx&#45;&gt;common/date.ts -->
<g id="edge55" class="edge">
<title>store/DashboardProvider.tsx&#45;&gt;common/date.ts</title>
<path fill="none" stroke="#757575" d="M1623.74,-460.52C1700.53,-460.52 1805.61,-460.52 1874.13,-460.52"/>
<polygon fill="#757575" stroke="#757575" points="1873.71,-464.02 1883.71,-460.52 1873.71,-457.02 1873.71,-464.02"/>
</g>
<!-- component/common/DatePicker/ListPicker.tsx -->
<g id="node31" class="node">
<title>component/common/DatePicker/ListPicker.tsx</title>
<path fill="none" stroke="#c6c5fe" d="M2091.33,-953.02C2091.33,-953.02 1798.67,-953.02 1798.67,-953.02 1794.83,-953.02 1791,-949.19 1791,-945.36 1791,-945.36 1791,-937.69 1791,-937.69 1791,-933.86 1794.83,-930.02 1798.67,-930.02 1798.67,-930.02 2091.33,-930.02 2091.33,-930.02 2095.17,-930.02 2099,-933.86 2099,-937.69 2099,-937.69 2099,-945.36 2099,-945.36 2099,-949.19 2095.17,-953.02 2091.33,-953.02"/>
<text text-anchor="middle" x="1945" y="-937.82" font-family="Arial" font-size="14.00" fill="#c6c5fe">component/common/DatePicker/ListPicker.tsx</text>
</g>
<!-- component/common/DatePicker.tsx&#45;&gt;component/common/DatePicker/ListPicker.tsx -->
<g id="edge47" class="edge">
<title>component/common/DatePicker.tsx&#45;&gt;component/common/DatePicker/ListPicker.tsx</title>
<path fill="none" stroke="#757575" d="M1646.34,-913.75C1695.66,-918.35 1753.07,-923.71 1804.23,-928.48"/>
<polygon fill="#757575" stroke="#757575" points="1803.6,-931.94 1813.88,-929.38 1804.25,-924.97 1803.6,-931.94"/>
</g>
<!-- types/datePicker.d.ts -->
<g id="node32" class="node">
<title>types/datePicker.d.ts</title>
<path fill="none" stroke="#cfffac" d="M2276.33,-933.02C2276.33,-933.02 2142.67,-933.02 2142.67,-933.02 2138.83,-933.02 2135,-929.19 2135,-925.36 2135,-925.36 2135,-917.69 2135,-917.69 2135,-913.86 2138.83,-910.02 2142.67,-910.02 2142.67,-910.02 2276.33,-910.02 2276.33,-910.02 2280.17,-910.02 2284,-913.86 2284,-917.69 2284,-917.69 2284,-925.36 2284,-925.36 2284,-929.19 2280.17,-933.02 2276.33,-933.02"/>
<text text-anchor="middle" x="2209.5" y="-917.82" font-family="Arial" font-size="14.00" fill="#cfffac">types/datePicker.d.ts</text>
</g>
<!-- component/common/DatePicker.tsx&#45;&gt;types/datePicker.d.ts -->
<g id="edge48" class="edge">
<title>component/common/DatePicker.tsx&#45;&gt;types/datePicker.d.ts</title>
<path fill="none" stroke="#757575" d="M1646.45,-905.88C1783.24,-909.69 2003,-915.8 2123.19,-919.15"/>
<polygon fill="#757575" stroke="#757575" points="2122.9,-922.64 2132.99,-919.42 2123.09,-915.65 2122.9,-922.64"/>
</g>
<!-- component/Widget.tsx -->
<g id="node24" class="node">
<title>component/Widget.tsx</title>
<path fill="none" stroke="#c6c5fe" d="M662.33,-314.02C662.33,-314.02 518.67,-314.02 518.67,-314.02 514.83,-314.02 511,-310.19 511,-306.36 511,-306.36 511,-298.69 511,-298.69 511,-294.86 514.83,-291.02 518.67,-291.02 518.67,-291.02 662.33,-291.02 662.33,-291.02 666.17,-291.02 670,-294.86 670,-298.69 670,-298.69 670,-306.36 670,-306.36 670,-310.19 666.17,-314.02 662.33,-314.02"/>
<text text-anchor="middle" x="590.5" y="-298.82" font-family="Arial" font-size="14.00" fill="#c6c5fe">component/Widget.tsx</text>
</g>
<!-- component/Widget.tsx&#45;&gt;api.ts -->
<g id="edge26" class="edge">
<title>component/Widget.tsx&#45;&gt;api.ts</title>
<path fill="none" stroke="#757575" d="M601.88,-290.68C628.14,-261.56 700.64,-186.26 778,-150.52 844.66,-119.73 931.1,-110.47 979.81,-107.7"/>
<polygon fill="#757575" stroke="#757575" points="979.73,-111.2 989.54,-107.21 979.38,-104.21 979.73,-111.2"/>
</g>
<!-- component/Widget.tsx&#45;&gt;types/api.d.ts -->
<g id="edge34" class="edge">
<title>component/Widget.tsx&#45;&gt;types/api.d.ts</title>
<path fill="none" stroke="#757575" d="M606.41,-290.88C636.76,-267.88 708.69,-216.84 778,-193.52 842.44,-171.85 1296.59,-125.8 1463.04,-109.44"/>
<polygon fill="#757575" stroke="#757575" points="1462.94,-112.97 1472.55,-108.51 1462.25,-106 1462.94,-112.97"/>
</g>
<!-- component/Widget.tsx&#45;&gt;common/date.ts -->
<g id="edge27" class="edge">
<title>component/Widget.tsx&#45;&gt;common/date.ts</title>
<path fill="none" stroke="#757575" d="M608.76,-314.4C640.53,-335.53 711.18,-379.04 778,-396.52 988.25,-451.54 1538.28,-424.19 1755,-440.52 1794.49,-443.5 1838.49,-448.08 1874.09,-452.11"/>
<polygon fill="#757575" stroke="#757575" points="1873.5,-455.56 1883.84,-453.22 1874.3,-448.61 1873.5,-455.56"/>
</g>
<!-- component/Widget.tsx&#45;&gt;types/widget.d.ts -->
<g id="edge35" class="edge">
<title>component/Widget.tsx&#45;&gt;types/widget.d.ts</title>
<path fill="none" stroke="#757575" d="M634.47,-314.43C672.04,-324.36 728.22,-338.04 778,-345.52 1360.09,-433.02 1515.06,-366.42 2099,-440.52 2111.75,-442.14 2125.27,-444.27 2138.29,-446.53"/>
<polygon fill="#757575" stroke="#757575" points="2137.63,-449.97 2148.09,-448.28 2138.86,-443.08 2137.63,-449.97"/>
</g>
<!-- component/Widget.tsx&#45;&gt;common/widget.ts -->
<g id="edge28" class="edge">
<title>component/Widget.tsx&#45;&gt;common/widget.ts</title>
<path fill="none" stroke="#757575" d="M670.31,-312.93C703.5,-316.91 742.57,-321.08 778,-323.52 1021.96,-340.33 1311.71,-342.69 1447.11,-342.76"/>
<polygon fill="#757575" stroke="#757575" points="1447.04,-346.26 1457.04,-342.76 1447.04,-339.26 1447.04,-346.26"/>
</g>
<!-- component/Widget.tsx&#45;&gt;store/DashboardProvider.tsx -->
<g id="edge33" class="edge">
<title>component/Widget.tsx&#45;&gt;store/DashboardProvider.tsx</title>
<path fill="none" stroke="#757575" d="M602.76,-314.25C629.85,-341.53 702.08,-408.91 778,-434.52 892.6,-473.19 1236.66,-469.29 1414.66,-464.35"/>
<polygon fill="#757575" stroke="#757575" points="1414.73,-467.85 1424.63,-464.06 1414.53,-460.85 1414.73,-467.85"/>
</g>
<!-- component/Widget/WidgetModal.tsx -->
<g id="node25" class="node">
<title>component/Widget/WidgetModal.tsx</title>
<path fill="none" stroke="#c6c5fe" d="M1134.33,-314.02C1134.33,-314.02 902.67,-314.02 902.67,-314.02 898.83,-314.02 895,-310.19 895,-306.36 895,-306.36 895,-298.69 895,-298.69 895,-294.86 898.83,-291.02 902.67,-291.02 902.67,-291.02 1134.33,-291.02 1134.33,-291.02 1138.17,-291.02 1142,-294.86 1142,-298.69 1142,-298.69 1142,-306.36 1142,-306.36 1142,-310.19 1138.17,-314.02 1134.33,-314.02"/>
<text text-anchor="middle" x="1018.5" y="-298.82" font-family="Arial" font-size="14.00" fill="#c6c5fe">component/Widget/WidgetModal.tsx</text>
</g>
<!-- component/Widget.tsx&#45;&gt;component/Widget/WidgetModal.tsx -->
<g id="edge29" class="edge">
<title>component/Widget.tsx&#45;&gt;component/Widget/WidgetModal.tsx</title>
<path fill="none" stroke="#757575" d="M670.13,-302.52C729.81,-302.52 813.26,-302.52 883.42,-302.52"/>
<polygon fill="#757575" stroke="#757575" points="883.04,-306.02 893.04,-302.52 883.04,-299.02 883.04,-306.02"/>
</g>
<!-- component/chart/BarChart.tsx -->
<g id="node26" class="node">
<title>component/chart/BarChart.tsx</title>
<path fill="none" stroke="#c6c5fe" d="M1112.33,-225.02C1112.33,-225.02 924.67,-225.02 924.67,-225.02 920.83,-225.02 917,-221.19 917,-217.36 917,-217.36 917,-209.69 917,-209.69 917,-205.86 920.83,-202.02 924.67,-202.02 924.67,-202.02 1112.33,-202.02 1112.33,-202.02 1116.17,-202.02 1120,-205.86 1120,-209.69 1120,-209.69 1120,-217.36 1120,-217.36 1120,-221.19 1116.17,-225.02 1112.33,-225.02"/>
<text text-anchor="middle" x="1018.5" y="-209.82" font-family="Arial" font-size="14.00" fill="#c6c5fe">component/chart/BarChart.tsx</text>
</g>
<!-- component/Widget.tsx&#45;&gt;component/chart/BarChart.tsx -->
<g id="edge30" class="edge">
<title>component/Widget.tsx&#45;&gt;component/chart/BarChart.tsx</title>
<path fill="none" stroke="#757575" d="M620.34,-290.59C656.51,-276.13 720.76,-252.14 778,-239.52 819.16,-230.45 865.03,-224.49 905.52,-220.6"/>
<polygon fill="#757575" stroke="#757575" points="905.65,-224.11 915.28,-219.7 905,-217.14 905.65,-224.11"/>
</g>
<!-- component/chart/InformaticsChart.tsx -->
<g id="node27" class="node">
<title>component/chart/InformaticsChart.tsx</title>
<path fill="none" stroke="#c6c5fe" d="M1136.83,-74.02C1136.83,-74.02 900.17,-74.02 900.17,-74.02 896.33,-74.02 892.5,-70.19 892.5,-66.36 892.5,-66.36 892.5,-58.69 892.5,-58.69 892.5,-54.86 896.33,-51.02 900.17,-51.02 900.17,-51.02 1136.83,-51.02 1136.83,-51.02 1140.67,-51.02 1144.5,-54.86 1144.5,-58.69 1144.5,-58.69 1144.5,-66.36 1144.5,-66.36 1144.5,-70.19 1140.67,-74.02 1136.83,-74.02"/>
<text text-anchor="middle" x="1018.5" y="-58.82" font-family="Arial" font-size="14.00" fill="#c6c5fe">component/chart/InformaticsChart.tsx</text>
</g>
<!-- component/Widget.tsx&#45;&gt;component/chart/InformaticsChart.tsx -->
<g id="edge31" class="edge">
<title>component/Widget.tsx&#45;&gt;component/chart/InformaticsChart.tsx</title>
<path fill="none" stroke="#757575" d="M597.43,-290.6C617.02,-252.66 683.84,-134.34 778,-85.52 809.2,-69.35 845.77,-61.32 880.8,-57.83"/>
<polygon fill="#757575" stroke="#757575" points="880.94,-61.33 890.6,-56.99 880.34,-54.36 880.94,-61.33"/>
</g>
<!-- component/chart/LineChart.tsx -->
<g id="node28" class="node">
<title>component/chart/LineChart.tsx</title>
<path fill="none" stroke="#c6c5fe" d="M1115.33,-271.02C1115.33,-271.02 921.67,-271.02 921.67,-271.02 917.83,-271.02 914,-267.19 914,-263.36 914,-263.36 914,-255.69 914,-255.69 914,-251.86 917.83,-248.02 921.67,-248.02 921.67,-248.02 1115.33,-248.02 1115.33,-248.02 1119.17,-248.02 1123,-251.86 1123,-255.69 1123,-255.69 1123,-263.36 1123,-263.36 1123,-267.19 1119.17,-271.02 1115.33,-271.02"/>
<text text-anchor="middle" x="1018.5" y="-255.82" font-family="Arial" font-size="14.00" fill="#c6c5fe">component/chart/LineChart.tsx</text>
</g>
<!-- component/Widget.tsx&#45;&gt;component/chart/LineChart.tsx -->
<g id="edge32" class="edge">
<title>component/Widget.tsx&#45;&gt;component/chart/LineChart.tsx</title>
<path fill="none" stroke="#757575" d="M670.43,-293.86C703.63,-290.27 742.69,-286.11 778,-282.52 818.56,-278.4 863,-274.08 902.47,-270.31"/>
<polygon fill="#757575" stroke="#757575" points="902.61,-273.81 912.23,-269.38 901.94,-266.85 902.61,-273.81"/>
</g>
<!-- component/Widget/WidgetModal.tsx&#45;&gt;types/widget.d.ts -->
<g id="edge37" class="edge">
<title>component/Widget/WidgetModal.tsx&#45;&gt;types/widget.d.ts</title>
<path fill="none" stroke="#757575" d="M1142.33,-299.44C1388.01,-294.99 1930.78,-294.24 2099,-368.52 2136.56,-385.11 2171.29,-418.66 2191.17,-440.34"/>
<polygon fill="#757575" stroke="#757575" points="2188.46,-442.56 2197.74,-447.69 2193.68,-437.9 2188.46,-442.56"/>
</g>
<!-- component/Widget/WidgetModal.tsx&#45;&gt;common/widget.ts -->
<g id="edge36" class="edge">
<title>component/Widget/WidgetModal.tsx&#45;&gt;common/widget.ts</title>
<path fill="none" stroke="#757575" d="M1142.27,-312.26C1237.54,-319.81 1366.61,-330.05 1447.59,-336.47"/>
<polygon fill="#757575" stroke="#757575" points="1446.93,-339.93 1457.18,-337.23 1447.48,-332.95 1446.93,-339.93"/>
</g>
<!-- component/chart/BarChart.tsx&#45;&gt;common/chart.ts -->
<g id="edge38" class="edge">
<title>component/chart/BarChart.tsx&#45;&gt;common/chart.ts</title>
<path fill="none" stroke="#757575" d="M1120.38,-215.72C1218.63,-217.87 1365.48,-221.07 1452.32,-222.96"/>
<polygon fill="#757575" stroke="#757575" points="1452.06,-226.46 1462.14,-223.18 1452.21,-219.46 1452.06,-226.46"/>
</g>
<!-- component/chart/BarChart.tsx&#45;&gt;types/chart.d.ts -->
<g id="edge40" class="edge">
<title>component/chart/BarChart.tsx&#45;&gt;types/chart.d.ts</title>
<path fill="none" stroke="#757575" d="M1120.29,-204.46C1163.51,-199.12 1214.25,-190.91 1259,-178.52 1275.71,-173.9 1278,-166.92 1295,-163.52 1495.47,-123.43 1550.87,-152.22 1755,-163.52 1795.6,-165.77 1840.89,-170.72 1876.95,-175.25"/>
<polygon fill="#757575" stroke="#757575" points="1876.45,-178.71 1886.81,-176.51 1877.34,-171.77 1876.45,-178.71"/>
</g>
<!-- hook/useResize.tsx -->
<g id="node29" class="node">
<title>hook/useResize.tsx</title>
<path fill="none" stroke="#cfffac" d="M1587.33,-195.02C1587.33,-195.02 1462.67,-195.02 1462.67,-195.02 1458.83,-195.02 1455,-191.19 1455,-187.36 1455,-187.36 1455,-179.69 1455,-179.69 1455,-175.86 1458.83,-172.02 1462.67,-172.02 1462.67,-172.02 1587.33,-172.02 1587.33,-172.02 1591.17,-172.02 1595,-175.86 1595,-179.69 1595,-179.69 1595,-187.36 1595,-187.36 1595,-191.19 1591.17,-195.02 1587.33,-195.02"/>
<text text-anchor="middle" x="1525" y="-179.82" font-family="Arial" font-size="14.00" fill="#cfffac">hook/useResize.tsx</text>
</g>
<!-- component/chart/BarChart.tsx&#45;&gt;hook/useResize.tsx -->
<g id="edge39" class="edge">
<title>component/chart/BarChart.tsx&#45;&gt;hook/useResize.tsx</title>
<path fill="none" stroke="#757575" d="M1120.38,-207.53C1215.32,-201.88 1355.66,-193.53 1443.37,-188.32"/>
<polygon fill="#757575" stroke="#757575" points="1443.57,-191.81 1453.34,-187.73 1443.15,-184.83 1443.57,-191.81"/>
</g>
<!-- component/chart/InformaticsChart.tsx&#45;&gt;types/chart.d.ts -->
<g id="edge42" class="edge">
<title>component/chart/InformaticsChart.tsx&#45;&gt;types/chart.d.ts</title>
<path fill="none" stroke="#757575" d="M1065.45,-50.54C1183.66,-21.94 1506.44,41.91 1755,-41.52 1828.05,-66.05 1895.36,-131.21 1926.24,-164.44"/>
<polygon fill="#757575" stroke="#757575" points="1923.28,-166.38 1932.6,-171.41 1928.45,-161.66 1923.28,-166.38"/>
</g>
<!-- component/chart/InformaticsChart/InforMaticsBox.tsx -->
<g id="node30" class="node">
<title>component/chart/InformaticsChart/InforMaticsBox.tsx</title>
<path fill="none" stroke="#c6c5fe" d="M1692.33,-74.02C1692.33,-74.02 1357.67,-74.02 1357.67,-74.02 1353.83,-74.02 1350,-70.19 1350,-66.36 1350,-66.36 1350,-58.69 1350,-58.69 1350,-54.86 1353.83,-51.02 1357.67,-51.02 1357.67,-51.02 1692.33,-51.02 1692.33,-51.02 1696.17,-51.02 1700,-54.86 1700,-58.69 1700,-58.69 1700,-66.36 1700,-66.36 1700,-70.19 1696.17,-74.02 1692.33,-74.02"/>
<text text-anchor="middle" x="1525" y="-58.82" font-family="Arial" font-size="14.00" fill="#c6c5fe">component/chart/InformaticsChart/InforMaticsBox.tsx</text>
</g>
<!-- component/chart/InformaticsChart.tsx&#45;&gt;component/chart/InformaticsChart/InforMaticsBox.tsx -->
<g id="edge41" class="edge">
<title>component/chart/InformaticsChart.tsx&#45;&gt;component/chart/InformaticsChart/InforMaticsBox.tsx</title>
<path fill="none" stroke="#757575" d="M1144.86,-62.52C1203.34,-62.52 1274.13,-62.52 1338.63,-62.52"/>
<polygon fill="#757575" stroke="#757575" points="1338.24,-66.02 1348.24,-62.52 1338.24,-59.02 1338.24,-66.02"/>
</g>
<!-- component/chart/LineChart.tsx&#45;&gt;common/chart.ts -->
<g id="edge44" class="edge">
<title>component/chart/LineChart.tsx&#45;&gt;common/chart.ts</title>
<path fill="none" stroke="#757575" d="M1123.42,-252.32C1221.6,-245.5 1366.26,-235.47 1452.23,-229.5"/>
<polygon fill="#757575" stroke="#757575" points="1452.45,-233 1462.19,-228.81 1451.97,-226.01 1452.45,-233"/>
</g>
<!-- component/chart/LineChart.tsx&#45;&gt;types/chart.d.ts -->
<g id="edge46" class="edge">
<title>component/chart/LineChart.tsx&#45;&gt;types/chart.d.ts</title>
<path fill="none" stroke="#757575" d="M1123.31,-267.03C1266.54,-275.24 1532.35,-282.74 1755,-245.52 1808.55,-236.57 1867.72,-215.56 1905.35,-200.7"/>
<polygon fill="#757575" stroke="#757575" points="1906.45,-204.03 1914.43,-197.07 1903.84,-197.54 1906.45,-204.03"/>
</g>
<!-- component/chart/LineChart.tsx&#45;&gt;hook/useResize.tsx -->
<g id="edge45" class="edge">
<title>component/chart/LineChart.tsx&#45;&gt;hook/useResize.tsx</title>
<path fill="none" stroke="#757575" d="M1123.3,-261.84C1166.68,-259.5 1216.73,-252.37 1259,-234.52 1278.19,-226.43 1275.76,-212.5 1295,-204.52 1341.66,-185.18 1398.14,-179.82 1443.33,-179.36"/>
<polygon fill="#757575" stroke="#757575" points="1443.06,-182.86 1453.05,-179.34 1443.04,-175.86 1443.06,-182.86"/>
</g>
<!-- component/chart/InformaticsChart/InforMaticsBox.tsx&#45;&gt;types/chart.d.ts -->
<g id="edge43" class="edge">
<title>component/chart/InformaticsChart/InforMaticsBox.tsx&#45;&gt;types/chart.d.ts</title>
<path fill="none" stroke="#757575" d="M1700.28,-70.24C1718.96,-73.28 1737.51,-77.29 1755,-82.52 1817.74,-101.32 1883.37,-142.34 1918.38,-166.25"/>
<polygon fill="#757575" stroke="#757575" points="1916.36,-169.11 1926.58,-171.92 1920.35,-163.35 1916.36,-169.11"/>
</g>
<!-- component/common/DatePicker/ListPicker.tsx&#45;&gt;types/datePicker.d.ts -->
<g id="edge49" class="edge">
<title>component/common/DatePicker/ListPicker.tsx&#45;&gt;types/datePicker.d.ts</title>
<path fill="none" stroke="#757575" d="M2099.46,-929.83C2107.5,-929.22 2115.44,-928.62 2123.13,-928.03"/>
<polygon fill="#757575" stroke="#757575" points="2123.38,-931.52 2133.09,-927.27 2122.85,-924.54 2123.38,-931.52"/>
</g>
<!-- page/Dashboard.tsx&#45;&gt;types/widget.d.ts -->
<g id="edge53" class="edge">
<title>page/Dashboard.tsx&#45;&gt;types/widget.d.ts</title>
<path fill="none" stroke="#757575" d="M344.95,-615.41C364.22,-632.58 402.16,-664.49 439,-684.52 675.33,-813.02 748.49,-862.52 1017.5,-862.52 1017.5,-862.52 1017.5,-862.52 1526,-862.52 1795.3,-862.52 1907.34,-854.7 2099,-665.52 2153.77,-611.47 2187.71,-524.17 2201.46,-483.17"/>
<polygon fill="#757575" stroke="#757575" points="2204.78,-484.27 2204.54,-473.68 2198.12,-482.11 2204.78,-484.27"/>
</g>
<!-- page/Dashboard.tsx&#45;&gt;component/Dashboard/DashboardHeader.tsx -->
<g id="edge50" class="edge">
<title>page/Dashboard.tsx&#45;&gt;component/Dashboard/DashboardHeader.tsx</title>
<path fill="none" stroke="#757575" d="M383.49,-615.52C424.8,-625.15 482.96,-638.7 526.95,-648.95"/>
<polygon fill="#757575" stroke="#757575" points="526.09,-652.34 536.63,-651.2 527.68,-645.53 526.09,-652.34"/>
</g>
<!-- page/Dashboard.tsx&#45;&gt;store/DashboardProvider.tsx -->
<g id="edge52" class="edge">
<title>page/Dashboard.tsx&#45;&gt;store/DashboardProvider.tsx</title>
<path fill="none" stroke="#757575" d="M402.14,-591.53C489.85,-576.8 644.72,-551.65 778,-534.52 1007.1,-505.08 1065.1,-503.85 1295,-481.52 1334.15,-477.72 1377.09,-473.74 1415.09,-470.27"/>
<polygon fill="#757575" stroke="#757575" points="1415.05,-473.79 1424.69,-469.4 1414.41,-466.82 1415.05,-473.79"/>
</g>
<!-- page/Dashboard.tsx&#45;&gt;component/Widget.tsx -->
<g id="edge51" class="edge">
<title>page/Dashboard.tsx&#45;&gt;component/Widget.tsx</title>
<path fill="none" stroke="#757575" d="M342.09,-591.73C381.11,-546.11 522.37,-381 572.06,-322.91"/>
<polygon fill="#757575" stroke="#757575" points="574.65,-325.27 578.49,-315.39 569.33,-320.72 574.65,-325.27"/>
</g>
</g>
</svg>
