<?xml version="1.0" encoding="UTF-8" standalone="no"?>
<!DOCTYPE svg PUBLIC "-//W3C//DTD SVG 1.1//EN"
 "http://www.w3.org/Graphics/SVG/1.1/DTD/svg11.dtd">
<!-- Generated by graphviz version 7.1.0 (20230121.1956)
 -->
<!-- Title: G Pages: 1 -->
<svg width="2327pt" height="851pt"
 viewBox="0.00 0.00 2327.20 851.20" xmlns="http://www.w3.org/2000/svg" xmlns:xlink="http://www.w3.org/1999/xlink">
<g id="graph0" class="graph" transform="scale(1 1) rotate(0) translate(21.6 829.6)">
<title>G</title>
<polygon fill="#111111" stroke="none" points="-21.6,21.6 -21.6,-829.6 2305.6,-829.6 2305.6,21.6 -21.6,21.6"/>
<!-- App.tsx -->
<g id="node1" class="node">
<title>App.tsx</title>
<path fill="none" stroke="#c6c5fe" d="M57.33,-504.82C57.33,-504.82 7.67,-504.82 7.67,-504.82 3.83,-504.82 0,-500.98 0,-497.15 0,-497.15 0,-489.48 0,-489.48 0,-485.65 3.83,-481.82 7.67,-481.82 7.67,-481.82 57.33,-481.82 57.33,-481.82 61.17,-481.82 65,-485.65 65,-489.48 65,-489.48 65,-497.15 65,-497.15 65,-500.98 61.17,-504.82 57.33,-504.82"/>
<text text-anchor="middle" x="32.5" y="-489.62" font-family="Arial" font-size="14.00" fill="#c6c5fe">App.tsx</text>
</g>
<!-- router/Router.tsx -->
<g id="node2" class="node">
<title>router/Router.tsx</title>
<path fill="none" stroke="#c6c5fe" d="M215.33,-504.82C215.33,-504.82 108.67,-504.82 108.67,-504.82 104.83,-504.82 101,-500.98 101,-497.15 101,-497.15 101,-489.48 101,-489.48 101,-485.65 104.83,-481.82 108.67,-481.82 108.67,-481.82 215.33,-481.82 215.33,-481.82 219.17,-481.82 223,-485.65 223,-489.48 223,-489.48 223,-497.15 223,-497.15 223,-500.98 219.17,-504.82 215.33,-504.82"/>
<text text-anchor="middle" x="162" y="-489.62" font-family="Arial" font-size="14.00" fill="#c6c5fe">router/Router.tsx</text>
</g>
<!-- App.tsx&#45;&gt;router/Router.tsx -->
<g id="edge1" class="edge">
<title>App.tsx&#45;&gt;router/Router.tsx</title>
<path fill="none" stroke="#757575" d="M65.34,-493.32C72.7,-493.32 80.81,-493.32 89.12,-493.32"/>
<polygon fill="#757575" stroke="#757575" points="88.99,-496.82 98.99,-493.32 88.99,-489.82 88.99,-496.82"/>
</g>
<!-- page/Dashboard.tsx -->
<g id="node33" class="node">
<title>page/Dashboard.tsx</title>
<path fill="none" stroke="#c6c5fe" d="M395.33,-504.82C395.33,-504.82 266.67,-504.82 266.67,-504.82 262.83,-504.82 259,-500.98 259,-497.15 259,-497.15 259,-489.48 259,-489.48 259,-485.65 262.83,-481.82 266.67,-481.82 266.67,-481.82 395.33,-481.82 395.33,-481.82 399.17,-481.82 403,-485.65 403,-489.48 403,-489.48 403,-497.15 403,-497.15 403,-500.98 399.17,-504.82 395.33,-504.82"/>
<text text-anchor="middle" x="331" y="-489.62" font-family="Arial" font-size="14.00" fill="#c6c5fe">page/Dashboard.tsx</text>
</g>
<!-- router/Router.tsx&#45;&gt;page/Dashboard.tsx -->
<g id="edge53" class="edge">
<title>router/Router.tsx&#45;&gt;page/Dashboard.tsx</title>
<path fill="none" stroke="#757575" d="M223.29,-493.32C231.1,-493.32 239.21,-493.32 247.3,-493.32"/>
<polygon fill="#757575" stroke="#757575" points="247.19,-496.82 257.19,-493.32 247.19,-489.82 247.19,-496.82"/>
</g>
<!-- api.ts -->
<g id="node3" class="node">
<title>api.ts</title>
<path fill="none" stroke="#c6c5fe" d="M1037.83,-251.82C1037.83,-251.82 999.17,-251.82 999.17,-251.82 995.33,-251.82 991.5,-247.98 991.5,-244.15 991.5,-244.15 991.5,-236.48 991.5,-236.48 991.5,-232.65 995.33,-228.82 999.17,-228.82 999.17,-228.82 1037.83,-228.82 1037.83,-228.82 1041.67,-228.82 1045.5,-232.65 1045.5,-236.48 1045.5,-236.48 1045.5,-244.15 1045.5,-244.15 1045.5,-247.98 1041.67,-251.82 1037.83,-251.82"/>
<text text-anchor="middle" x="1018.5" y="-236.62" font-family="Arial" font-size="14.00" fill="#c6c5fe">api.ts</text>
</g>
<!-- types/api.d.ts -->
<g id="node4" class="node">
<title>types/api.d.ts</title>
<path fill="none" stroke="#cfffac" d="M1567.83,-251.82C1567.83,-251.82 1482.17,-251.82 1482.17,-251.82 1478.33,-251.82 1474.5,-247.98 1474.5,-244.15 1474.5,-244.15 1474.5,-236.48 1474.5,-236.48 1474.5,-232.65 1478.33,-228.82 1482.17,-228.82 1482.17,-228.82 1567.83,-228.82 1567.83,-228.82 1571.67,-228.82 1575.5,-232.65 1575.5,-236.48 1575.5,-236.48 1575.5,-244.15 1575.5,-244.15 1575.5,-247.98 1571.67,-251.82 1567.83,-251.82"/>
<text text-anchor="middle" x="1525" y="-236.62" font-family="Arial" font-size="14.00" fill="#cfffac">types/api.d.ts</text>
</g>
<!-- api.ts&#45;&gt;types/api.d.ts -->
<g id="edge2" class="edge">
<title>api.ts&#45;&gt;types/api.d.ts</title>
<path fill="none" stroke="#757575" d="M1045.91,-240.32C1123.55,-240.32 1352.5,-240.32 1462.99,-240.32"/>
<polygon fill="#757575" stroke="#757575" points="1462.75,-243.82 1472.75,-240.32 1462.75,-236.82 1462.75,-243.82"/>
</g>
<!-- asset/image/pause.png -->
<g id="node5" class="node">
<title>asset/image/pause.png</title>
<path fill="none" stroke="#cfffac" d="M1092.83,-765.82C1092.83,-765.82 944.17,-765.82 944.17,-765.82 940.33,-765.82 936.5,-761.98 936.5,-758.15 936.5,-758.15 936.5,-750.48 936.5,-750.48 936.5,-746.65 940.33,-742.82 944.17,-742.82 944.17,-742.82 1092.83,-742.82 1092.83,-742.82 1096.67,-742.82 1100.5,-746.65 1100.5,-750.48 1100.5,-750.48 1100.5,-758.15 1100.5,-758.15 1100.5,-761.98 1096.67,-765.82 1092.83,-765.82"/>
<text text-anchor="middle" x="1018.5" y="-750.62" font-family="Arial" font-size="14.00" fill="#cfffac">asset/image/pause.png</text>
</g>
<!-- asset/image/play.png -->
<g id="node6" class="node">
<title>asset/image/play.png</title>
<path fill="none" stroke="#cfffac" d="M1086.33,-724.82C1086.33,-724.82 950.67,-724.82 950.67,-724.82 946.83,-724.82 943,-720.98 943,-717.15 943,-717.15 943,-709.48 943,-709.48 943,-705.65 946.83,-701.82 950.67,-701.82 950.67,-701.82 1086.33,-701.82 1086.33,-701.82 1090.17,-701.82 1094,-705.65 1094,-709.48 1094,-709.48 1094,-717.15 1094,-717.15 1094,-720.98 1090.17,-724.82 1086.33,-724.82"/>
<text text-anchor="middle" x="1018.5" y="-709.62" font-family="Arial" font-size="14.00" fill="#cfffac">asset/image/play.png</text>
</g>
<!-- common/chart.ts -->
<g id="node7" class="node">
<title>common/chart.ts</title>
<path fill="none" stroke="#c6c5fe" d="M1578.33,-130.82C1578.33,-130.82 1471.67,-130.82 1471.67,-130.82 1467.83,-130.82 1464,-126.98 1464,-123.15 1464,-123.15 1464,-115.48 1464,-115.48 1464,-111.65 1467.83,-107.82 1471.67,-107.82 1471.67,-107.82 1578.33,-107.82 1578.33,-107.82 1582.17,-107.82 1586,-111.65 1586,-115.48 1586,-115.48 1586,-123.15 1586,-123.15 1586,-126.98 1582.17,-130.82 1578.33,-130.82"/>
<text text-anchor="middle" x="1525" y="-115.62" font-family="Arial" font-size="14.00" fill="#c6c5fe">common/chart.ts</text>
</g>
<!-- types/chart.d.ts -->
<g id="node8" class="node">
<title>types/chart.d.ts</title>
<path fill="none" stroke="#cfffac" d="M1993.83,-90.82C1993.83,-90.82 1896.17,-90.82 1896.17,-90.82 1892.33,-90.82 1888.5,-86.98 1888.5,-83.15 1888.5,-83.15 1888.5,-75.48 1888.5,-75.48 1888.5,-71.65 1892.33,-67.82 1896.17,-67.82 1896.17,-67.82 1993.83,-67.82 1993.83,-67.82 1997.67,-67.82 2001.5,-71.65 2001.5,-75.48 2001.5,-75.48 2001.5,-83.15 2001.5,-83.15 2001.5,-86.98 1997.67,-90.82 1993.83,-90.82"/>
<text text-anchor="middle" x="1945" y="-75.62" font-family="Arial" font-size="14.00" fill="#cfffac">types/chart.d.ts</text>
</g>
<!-- common/chart.ts&#45;&gt;types/chart.d.ts -->
<g id="edge3" class="edge">
<title>common/chart.ts&#45;&gt;types/chart.d.ts</title>
<path fill="none" stroke="#757575" d="M1586.33,-113.54C1663.37,-106.17 1796.28,-93.45 1876.58,-85.77"/>
<polygon fill="#757575" stroke="#757575" points="1876.9,-89.25 1886.52,-84.82 1876.24,-82.29 1876.9,-89.25"/>
</g>
<!-- common/date.ts -->
<g id="node9" class="node">
<title>common/date.ts</title>
<path fill="none" stroke="#cfffac" d="M1996.83,-478.82C1996.83,-478.82 1893.17,-478.82 1893.17,-478.82 1889.33,-478.82 1885.5,-474.98 1885.5,-471.15 1885.5,-471.15 1885.5,-463.48 1885.5,-463.48 1885.5,-459.65 1889.33,-455.82 1893.17,-455.82 1893.17,-455.82 1996.83,-455.82 1996.83,-455.82 2000.67,-455.82 2004.5,-459.65 2004.5,-463.48 2004.5,-463.48 2004.5,-471.15 2004.5,-471.15 2004.5,-474.98 2000.67,-478.82 1996.83,-478.82"/>
<text text-anchor="middle" x="1945" y="-463.62" font-family="Arial" font-size="14.00" fill="#cfffac">common/date.ts</text>
</g>
<!-- common/widget.ts -->
<g id="node10" class="node">
<title>common/widget.ts</title>
<path fill="none" stroke="#cfffac" d="M1583.33,-350.82C1583.33,-350.82 1466.67,-350.82 1466.67,-350.82 1462.83,-350.82 1459,-346.98 1459,-343.15 1459,-343.15 1459,-335.48 1459,-335.48 1459,-331.65 1462.83,-327.82 1466.67,-327.82 1466.67,-327.82 1583.33,-327.82 1583.33,-327.82 1587.17,-327.82 1591,-331.65 1591,-335.48 1591,-335.48 1591,-343.15 1591,-343.15 1591,-346.98 1587.17,-350.82 1583.33,-350.82"/>
<text text-anchor="middle" x="1525" y="-335.62" font-family="Arial" font-size="14.00" fill="#cfffac">common/widget.ts</text>
</g>
<!-- component/Dashboard/CommonStyle.ts -->
<g id="node11" class="node">
<title>component/Dashboard/CommonStyle.ts</title>
<path fill="none" stroke="#cfffac" d="M1652.33,-642.82C1652.33,-642.82 1397.67,-642.82 1397.67,-642.82 1393.83,-642.82 1390,-638.98 1390,-635.15 1390,-635.15 1390,-627.48 1390,-627.48 1390,-623.65 1393.83,-619.82 1397.67,-619.82 1397.67,-619.82 1652.33,-619.82 1652.33,-619.82 1656.17,-619.82 1660,-623.65 1660,-627.48 1660,-627.48 1660,-635.15 1660,-635.15 1660,-638.98 1656.17,-642.82 1652.33,-642.82"/>
<text text-anchor="middle" x="1525" y="-627.62" font-family="Arial" font-size="14.00" fill="#cfffac">component/Dashboard/CommonStyle.ts</text>
</g>
<!-- component/Dashboard/DashboardHeader.tsx -->
<g id="node12" class="node">
<title>component/Dashboard/DashboardHeader.tsx</title>
<path fill="none" stroke="#c6c5fe" d="M734.33,-642.82C734.33,-642.82 446.67,-642.82 446.67,-642.82 442.83,-642.82 439,-638.98 439,-635.15 439,-635.15 439,-627.48 439,-627.48 439,-623.65 442.83,-619.82 446.67,-619.82 446.67,-619.82 734.33,-619.82 734.33,-619.82 738.17,-619.82 742,-623.65 742,-627.48 742,-627.48 742,-635.15 742,-635.15 742,-638.98 738.17,-642.82 734.33,-642.82"/>
<text text-anchor="middle" x="590.5" y="-627.62" font-family="Arial" font-size="14.00" fill="#c6c5fe">component/Dashboard/DashboardHeader.tsx</text>
</g>
<!-- component/Dashboard/DashboardHeader.tsx&#45;&gt;asset/image/pause.png -->
<g id="edge4" class="edge">
<title>component/Dashboard/DashboardHeader.tsx&#45;&gt;asset/image/pause.png</title>
<path fill="none" stroke="#757575" d="M607.44,-643.06C638.45,-665.19 709.83,-712.68 778,-733.32 825.14,-747.59 879.71,-753.17 924.84,-755.03"/>
<polygon fill="#757575" stroke="#757575" points="924.47,-758.52 934.59,-755.37 924.72,-751.52 924.47,-758.52"/>
</g>
<!-- component/Dashboard/DashboardHeader.tsx&#45;&gt;asset/image/play.png -->
<g id="edge5" class="edge">
<title>component/Dashboard/DashboardHeader.tsx&#45;&gt;asset/image/play.png</title>
<path fill="none" stroke="#757575" d="M620.97,-643.29C657.26,-657.48 721.1,-680.68 778,-692.32 828.23,-702.59 885.4,-707.84 931.29,-710.52"/>
<polygon fill="#757575" stroke="#757575" points="931.01,-714.01 941.19,-711.07 931.39,-707.02 931.01,-714.01"/>
</g>
<!-- component/Dashboard/DashboardHeader/CurrentTime.tsx -->
<g id="node13" class="node">
<title>component/Dashboard/DashboardHeader/CurrentTime.tsx</title>
<path fill="none" stroke="#cfffac" d="M1203.83,-683.82C1203.83,-683.82 833.17,-683.82 833.17,-683.82 829.33,-683.82 825.5,-679.98 825.5,-676.15 825.5,-676.15 825.5,-668.48 825.5,-668.48 825.5,-664.65 829.33,-660.82 833.17,-660.82 833.17,-660.82 1203.83,-660.82 1203.83,-660.82 1207.67,-660.82 1211.5,-664.65 1211.5,-668.48 1211.5,-668.48 1211.5,-676.15 1211.5,-676.15 1211.5,-679.98 1207.67,-683.82 1203.83,-683.82"/>
<text text-anchor="middle" x="1018.5" y="-668.62" font-family="Arial" font-size="14.00" fill="#cfffac">component/Dashboard/DashboardHeader/CurrentTime.tsx</text>
</g>
<!-- component/Dashboard/DashboardHeader.tsx&#45;&gt;component/Dashboard/DashboardHeader/CurrentTime.tsx -->
<g id="edge6" class="edge">
<title>component/Dashboard/DashboardHeader.tsx&#45;&gt;component/Dashboard/DashboardHeader/CurrentTime.tsx</title>
<path fill="none" stroke="#757575" d="M699.94,-643.31C725.53,-646.04 752.72,-648.85 778,-651.32 805.87,-654.03 835.59,-656.77 864.26,-659.33"/>
<polygon fill="#757575" stroke="#757575" points="863.84,-662.8 874.11,-660.2 864.46,-655.83 863.84,-662.8"/>
</g>
<!-- component/Dashboard/DashboardHeader/DatePickerArea.tsx -->
<g id="node14" class="node">
<title>component/Dashboard/DashboardHeader/DatePickerArea.tsx</title>
<path fill="none" stroke="#c6c5fe" d="M1214.33,-642.82C1214.33,-642.82 822.67,-642.82 822.67,-642.82 818.83,-642.82 815,-638.98 815,-635.15 815,-635.15 815,-627.48 815,-627.48 815,-623.65 818.83,-619.82 822.67,-619.82 822.67,-619.82 1214.33,-619.82 1214.33,-619.82 1218.17,-619.82 1222,-623.65 1222,-627.48 1222,-627.48 1222,-635.15 1222,-635.15 1222,-638.98 1218.17,-642.82 1214.33,-642.82"/>
<text text-anchor="middle" x="1018.5" y="-627.62" font-family="Arial" font-size="14.00" fill="#c6c5fe">component/Dashboard/DashboardHeader/DatePickerArea.tsx</text>
</g>
<!-- component/Dashboard/DashboardHeader.tsx&#45;&gt;component/Dashboard/DashboardHeader/DatePickerArea.tsx -->
<g id="edge7" class="edge">
<title>component/Dashboard/DashboardHeader.tsx&#45;&gt;component/Dashboard/DashboardHeader/DatePickerArea.tsx</title>
<path fill="none" stroke="#757575" d="M742.29,-631.32C762.08,-631.32 782.66,-631.32 803.25,-631.32"/>
<polygon fill="#757575" stroke="#757575" points="803.17,-634.82 813.17,-631.32 803.17,-627.82 803.17,-634.82"/>
</g>
<!-- component/Dashboard/DashboardHeader/SelectRealTimeRangeArea.tsx -->
<g id="node15" class="node">
<title>component/Dashboard/DashboardHeader/SelectRealTimeRangeArea.tsx</title>
<path fill="none" stroke="#c6c5fe" d="M1251.33,-601.82C1251.33,-601.82 785.67,-601.82 785.67,-601.82 781.83,-601.82 778,-597.98 778,-594.15 778,-594.15 778,-586.48 778,-586.48 778,-582.65 781.83,-578.82 785.67,-578.82 785.67,-578.82 1251.33,-578.82 1251.33,-578.82 1255.17,-578.82 1259,-582.65 1259,-586.48 1259,-586.48 1259,-594.15 1259,-594.15 1259,-597.98 1255.17,-601.82 1251.33,-601.82"/>
<text text-anchor="middle" x="1018.5" y="-586.62" font-family="Arial" font-size="14.00" fill="#c6c5fe">component/Dashboard/DashboardHeader/SelectRealTimeRangeArea.tsx</text>
</g>
<!-- component/Dashboard/DashboardHeader.tsx&#45;&gt;component/Dashboard/DashboardHeader/SelectRealTimeRangeArea.tsx -->
<g id="edge8" class="edge">
<title>component/Dashboard/DashboardHeader.tsx&#45;&gt;component/Dashboard/DashboardHeader/SelectRealTimeRangeArea.tsx</title>
<path fill="none" stroke="#757575" d="M693.08,-619.34C720.62,-616.24 750.44,-613.02 778,-610.32 802.78,-607.89 829.02,-605.51 854.69,-603.28"/>
<polygon fill="#757575" stroke="#757575" points="854.87,-606.78 864.54,-602.43 854.27,-599.8 854.87,-606.78"/>
</g>
<!-- store/DashboardProvider.tsx -->
<g id="node16" class="node">
<title>store/DashboardProvider.tsx</title>
<path fill="none" stroke="#c6c5fe" d="M1615.83,-478.82C1615.83,-478.82 1434.17,-478.82 1434.17,-478.82 1430.33,-478.82 1426.5,-474.98 1426.5,-471.15 1426.5,-471.15 1426.5,-463.48 1426.5,-463.48 1426.5,-459.65 1430.33,-455.82 1434.17,-455.82 1434.17,-455.82 1615.83,-455.82 1615.83,-455.82 1619.67,-455.82 1623.5,-459.65 1623.5,-463.48 1623.5,-463.48 1623.5,-471.15 1623.5,-471.15 1623.5,-474.98 1619.67,-478.82 1615.83,-478.82"/>
<text text-anchor="middle" x="1525" y="-463.62" font-family="Arial" font-size="14.00" fill="#c6c5fe">store/DashboardProvider.tsx</text>
</g>
<!-- component/Dashboard/DashboardHeader.tsx&#45;&gt;store/DashboardProvider.tsx -->
<g id="edge9" class="edge">
<title>component/Dashboard/DashboardHeader.tsx&#45;&gt;store/DashboardProvider.tsx</title>
<path fill="none" stroke="#757575" d="M620.32,-619.41C656.48,-605.01 720.71,-581.23 778,-569.32 883.07,-547.47 1162.71,-573.7 1259,-526.32 1280.17,-515.9 1273.82,-497.71 1295,-487.32 1331.6,-469.36 1375.45,-462.54 1414.95,-460.84"/>
<polygon fill="#757575" stroke="#757575" points="1414.83,-464.35 1424.72,-460.54 1414.61,-457.35 1414.83,-464.35"/>
</g>
<!-- component/Dashboard/DashboardHeader/DatePickerArea.tsx&#45;&gt;common/date.ts -->
<g id="edge10" class="edge">
<title>component/Dashboard/DashboardHeader/DatePickerArea.tsx&#45;&gt;common/date.ts</title>
<path fill="none" stroke="#757575" d="M1222.24,-636.93C1234.99,-640.72 1247.36,-645.45 1259,-651.32 1280.66,-662.23 1272.91,-682.32 1295,-692.32 1388.12,-734.48 1662.34,-735.49 1755,-692.32 1847.04,-649.43 1910.21,-537.22 1933.76,-489.41"/>
<polygon fill="#757575" stroke="#757575" points="1936.83,-491.11 1938,-480.58 1930.52,-488.08 1936.83,-491.11"/>
</g>
<!-- component/Dashboard/DashboardHeader/DatePickerArea.tsx&#45;&gt;component/Dashboard/CommonStyle.ts -->
<g id="edge11" class="edge">
<title>component/Dashboard/DashboardHeader/DatePickerArea.tsx&#45;&gt;component/Dashboard/CommonStyle.ts</title>
<path fill="none" stroke="#757575" d="M1222.16,-631.32C1274.39,-631.32 1329.57,-631.32 1378.27,-631.32"/>
<polygon fill="#757575" stroke="#757575" points="1378.01,-634.82 1388.01,-631.32 1378.01,-627.82 1378.01,-634.82"/>
</g>
<!-- component/Dashboard/DashboardHeader/DatePickerArea.tsx&#45;&gt;store/DashboardProvider.tsx -->
<g id="edge16" class="edge">
<title>component/Dashboard/DashboardHeader/DatePickerArea.tsx&#45;&gt;store/DashboardProvider.tsx</title>
<path fill="none" stroke="#757575" d="M1079.08,-643.31C1132.22,-650.39 1209.13,-651.21 1259,-610.32 1303.05,-574.2 1250.95,-523.42 1295,-487.32 1338.17,-451.94 1402.52,-449.24 1452.02,-454.08"/>
<polygon fill="#757575" stroke="#757575" points="1451.47,-457.55 1461.8,-455.17 1452.24,-450.59 1451.47,-457.55"/>
</g>
<!-- component/Dashboard/DashboardHeader/DateBox.tsx -->
<g id="node17" class="node">
<title>component/Dashboard/DashboardHeader/DateBox.tsx</title>
<path fill="none" stroke="#cfffac" d="M1698.33,-763.82C1698.33,-763.82 1351.67,-763.82 1351.67,-763.82 1347.83,-763.82 1344,-759.98 1344,-756.15 1344,-756.15 1344,-748.48 1344,-748.48 1344,-744.65 1347.83,-740.82 1351.67,-740.82 1351.67,-740.82 1698.33,-740.82 1698.33,-740.82 1702.17,-740.82 1706,-744.65 1706,-748.48 1706,-748.48 1706,-756.15 1706,-756.15 1706,-759.98 1702.17,-763.82 1698.33,-763.82"/>
<text text-anchor="middle" x="1525" y="-748.62" font-family="Arial" font-size="14.00" fill="#cfffac">component/Dashboard/DashboardHeader/DateBox.tsx</text>
</g>
<!-- component/Dashboard/DashboardHeader/DatePickerArea.tsx&#45;&gt;component/Dashboard/DashboardHeader/DateBox.tsx -->
<g id="edge12" class="edge">
<title>component/Dashboard/DashboardHeader/DatePickerArea.tsx&#45;&gt;component/Dashboard/DashboardHeader/DateBox.tsx</title>
<path fill="none" stroke="#757575" d="M1095.02,-619.33C1145.69,-615.39 1211.58,-618.65 1259,-651.32 1289.45,-672.3 1264.87,-704.89 1295,-726.32 1306.58,-734.55 1319.35,-741 1332.76,-746"/>
<polygon fill="#757575" stroke="#757575" points="1331.62,-749.31 1342.21,-749.22 1333.88,-742.69 1331.62,-749.31"/>
</g>
<!-- component/common/DatePicker.tsx -->
<g id="node18" class="node">
<title>component/common/DatePicker.tsx</title>
<path fill="none" stroke="#c6c5fe" d="M1638.33,-804.82C1638.33,-804.82 1411.67,-804.82 1411.67,-804.82 1407.83,-804.82 1404,-800.98 1404,-797.15 1404,-797.15 1404,-789.48 1404,-789.48 1404,-785.65 1407.83,-781.82 1411.67,-781.82 1411.67,-781.82 1638.33,-781.82 1638.33,-781.82 1642.17,-781.82 1646,-785.65 1646,-789.48 1646,-789.48 1646,-797.15 1646,-797.15 1646,-800.98 1642.17,-804.82 1638.33,-804.82"/>
<text text-anchor="middle" x="1525" y="-789.62" font-family="Arial" font-size="14.00" fill="#c6c5fe">component/common/DatePicker.tsx</text>
</g>
<!-- component/Dashboard/DashboardHeader/DatePickerArea.tsx&#45;&gt;component/common/DatePicker.tsx -->
<g id="edge13" class="edge">
<title>component/Dashboard/DashboardHeader/DatePickerArea.tsx&#45;&gt;component/common/DatePicker.tsx</title>
<path fill="none" stroke="#757575" d="M1077.21,-619.33C1130.35,-611.82 1208.41,-610.2 1259,-651.32 1302.54,-686.71 1251.6,-736.75 1295,-772.32 1337.26,-806.95 1399.77,-810.56 1448.81,-806.41"/>
<polygon fill="#757575" stroke="#757575" points="1448.89,-809.92 1458.5,-805.46 1448.21,-802.95 1448.89,-809.92"/>
</g>
<!-- hook/useBoolean.tsx -->
<g id="node19" class="node">
<title>hook/useBoolean.tsx</title>
<path fill="none" stroke="#cfffac" d="M1591.83,-601.82C1591.83,-601.82 1458.17,-601.82 1458.17,-601.82 1454.33,-601.82 1450.5,-597.98 1450.5,-594.15 1450.5,-594.15 1450.5,-586.48 1450.5,-586.48 1450.5,-582.65 1454.33,-578.82 1458.17,-578.82 1458.17,-578.82 1591.83,-578.82 1591.83,-578.82 1595.67,-578.82 1599.5,-582.65 1599.5,-586.48 1599.5,-586.48 1599.5,-594.15 1599.5,-594.15 1599.5,-597.98 1595.67,-601.82 1591.83,-601.82"/>
<text text-anchor="middle" x="1525" y="-586.62" font-family="Arial" font-size="14.00" fill="#cfffac">hook/useBoolean.tsx</text>
</g>
<!-- component/Dashboard/DashboardHeader/DatePickerArea.tsx&#45;&gt;hook/useBoolean.tsx -->
<g id="edge14" class="edge">
<title>component/Dashboard/DashboardHeader/DatePickerArea.tsx&#45;&gt;hook/useBoolean.tsx</title>
<path fill="none" stroke="#757575" d="M1167.12,-619.32C1255.63,-612.13 1365.03,-603.24 1439.2,-597.21"/>
<polygon fill="#757575" stroke="#757575" points="1439.15,-600.73 1448.83,-596.43 1438.58,-593.75 1439.15,-600.73"/>
</g>
<!-- hook/useOutsideClick.tsx -->
<g id="node20" class="node">
<title>hook/useOutsideClick.tsx</title>
<path fill="none" stroke="#cfffac" d="M1605.33,-683.82C1605.33,-683.82 1444.67,-683.82 1444.67,-683.82 1440.83,-683.82 1437,-679.98 1437,-676.15 1437,-676.15 1437,-668.48 1437,-668.48 1437,-664.65 1440.83,-660.82 1444.67,-660.82 1444.67,-660.82 1605.33,-660.82 1605.33,-660.82 1609.17,-660.82 1613,-664.65 1613,-668.48 1613,-668.48 1613,-676.15 1613,-676.15 1613,-679.98 1609.17,-683.82 1605.33,-683.82"/>
<text text-anchor="middle" x="1525" y="-668.62" font-family="Arial" font-size="14.00" fill="#cfffac">hook/useOutsideClick.tsx</text>
</g>
<!-- component/Dashboard/DashboardHeader/DatePickerArea.tsx&#45;&gt;hook/useOutsideClick.tsx -->
<g id="edge15" class="edge">
<title>component/Dashboard/DashboardHeader/DatePickerArea.tsx&#45;&gt;hook/useOutsideClick.tsx</title>
<path fill="none" stroke="#757575" d="M1167.12,-643.31C1250.37,-650.08 1352.11,-658.35 1425.63,-664.32"/>
<polygon fill="#757575" stroke="#757575" points="1424.96,-667.78 1435.21,-665.1 1425.53,-660.8 1424.96,-667.78"/>
</g>
<!-- types/widget.d.ts -->
<g id="node21" class="node">
<title>types/widget.d.ts</title>
<path fill="none" stroke="#cfffac" d="M1578.83,-437.82C1578.83,-437.82 1471.17,-437.82 1471.17,-437.82 1467.33,-437.82 1463.5,-433.98 1463.5,-430.15 1463.5,-430.15 1463.5,-422.48 1463.5,-422.48 1463.5,-418.65 1467.33,-414.82 1471.17,-414.82 1471.17,-414.82 1578.83,-414.82 1578.83,-414.82 1582.67,-414.82 1586.5,-418.65 1586.5,-422.48 1586.5,-422.48 1586.5,-430.15 1586.5,-430.15 1586.5,-433.98 1582.67,-437.82 1578.83,-437.82"/>
<text text-anchor="middle" x="1525" y="-422.62" font-family="Arial" font-size="14.00" fill="#cfffac">types/widget.d.ts</text>
</g>
<!-- component/Dashboard/DashboardHeader/DatePickerArea.tsx&#45;&gt;types/widget.d.ts -->
<g id="edge17" class="edge">
<title>component/Dashboard/DashboardHeader/DatePickerArea.tsx&#45;&gt;types/widget.d.ts</title>
<path fill="none" stroke="#757575" d="M1074.37,-643.31C1128.08,-651.6 1208.92,-654.34 1259,-610.32 1315.05,-561.05 1238.94,-495.58 1295,-446.32 1338.62,-407.99 1406.63,-406.77 1457.21,-412.86"/>
<polygon fill="#757575" stroke="#757575" points="1456.5,-416.29 1466.87,-414.15 1457.42,-409.35 1456.5,-416.29"/>
</g>
<!-- component/Dashboard/DashboardHeader/SelectRealTimeRangeArea.tsx&#45;&gt;component/Dashboard/CommonStyle.ts -->
<g id="edge18" class="edge">
<title>component/Dashboard/DashboardHeader/SelectRealTimeRangeArea.tsx&#45;&gt;component/Dashboard/CommonStyle.ts</title>
<path fill="none" stroke="#757575" d="M1167.12,-602.31C1233.64,-607.72 1311.97,-614.09 1378.26,-619.47"/>
<polygon fill="#757575" stroke="#757575" points="1377.89,-622.95 1388.14,-620.28 1378.45,-615.98 1377.89,-622.95"/>
</g>
<!-- component/Dashboard/DashboardHeader/SelectRealTimeRangeArea.tsx&#45;&gt;store/DashboardProvider.tsx -->
<g id="edge23" class="edge">
<title>component/Dashboard/DashboardHeader/SelectRealTimeRangeArea.tsx&#45;&gt;store/DashboardProvider.tsx</title>
<path fill="none" stroke="#757575" d="M1234.95,-578.41C1243.37,-574.4 1251.43,-569.73 1259,-564.32 1289.73,-542.34 1264.04,-508.97 1295,-487.32 1333.28,-460.54 1384.44,-454.07 1428.69,-454.94"/>
<polygon fill="#757575" stroke="#757575" points="1428.45,-458.43 1438.56,-455.27 1428.68,-451.44 1428.45,-458.43"/>
</g>
<!-- component/Dashboard/DashboardHeader/SelectRealTimeRangeArea.tsx&#45;&gt;hook/useBoolean.tsx -->
<g id="edge21" class="edge">
<title>component/Dashboard/DashboardHeader/SelectRealTimeRangeArea.tsx&#45;&gt;hook/useBoolean.tsx</title>
<path fill="none" stroke="#757575" d="M1259.19,-590.32C1323.58,-590.32 1389.07,-590.32 1438.81,-590.32"/>
<polygon fill="#757575" stroke="#757575" points="1438.62,-593.82 1448.62,-590.32 1438.62,-586.82 1438.62,-593.82"/>
</g>
<!-- component/Dashboard/DashboardHeader/SelectRealTimeRangeArea.tsx&#45;&gt;hook/useOutsideClick.tsx -->
<g id="edge22" class="edge">
<title>component/Dashboard/DashboardHeader/SelectRealTimeRangeArea.tsx&#45;&gt;hook/useOutsideClick.tsx</title>
<path fill="none" stroke="#757575" d="M1240.89,-602.29C1247.08,-604.69 1253.13,-607.36 1259,-610.32 1280.66,-621.23 1273.39,-640.32 1295,-651.32 1334.6,-671.47 1383.05,-678.07 1425.17,-679.09"/>
<polygon fill="#757575" stroke="#757575" points="1425.03,-682.59 1435.07,-679.22 1425.12,-675.59 1425.03,-682.59"/>
</g>
<!-- component/Dashboard/DashboardHeader/SelectRealTimeRangeArea.tsx&#45;&gt;types/widget.d.ts -->
<g id="edge24" class="edge">
<title>component/Dashboard/DashboardHeader/SelectRealTimeRangeArea.tsx&#45;&gt;types/widget.d.ts</title>
<path fill="none" stroke="#757575" d="M1063.23,-578.35C1113.75,-563.1 1197.76,-533.2 1259,-488.32 1278.83,-473.79 1273.13,-457.55 1295,-446.32 1343.21,-421.55 1404.71,-417.43 1451.84,-419.02"/>
<polygon fill="#757575" stroke="#757575" points="1451.53,-422.51 1461.67,-419.46 1451.84,-415.52 1451.53,-422.51"/>
</g>
<!-- component/Dashboard/DashboardHeader/RealTime.tsx -->
<g id="node22" class="node">
<title>component/Dashboard/DashboardHeader/RealTime.tsx</title>
<path fill="none" stroke="#cfffac" d="M1701.33,-519.82C1701.33,-519.82 1348.67,-519.82 1348.67,-519.82 1344.83,-519.82 1341,-515.98 1341,-512.15 1341,-512.15 1341,-504.48 1341,-504.48 1341,-500.65 1344.83,-496.82 1348.67,-496.82 1348.67,-496.82 1701.33,-496.82 1701.33,-496.82 1705.17,-496.82 1709,-500.65 1709,-504.48 1709,-504.48 1709,-512.15 1709,-512.15 1709,-515.98 1705.17,-519.82 1701.33,-519.82"/>
<text text-anchor="middle" x="1525" y="-504.62" font-family="Arial" font-size="14.00" fill="#cfffac">component/Dashboard/DashboardHeader/RealTime.tsx</text>
</g>
<!-- component/Dashboard/DashboardHeader/SelectRealTimeRangeArea.tsx&#45;&gt;component/Dashboard/DashboardHeader/RealTime.tsx -->
<g id="edge19" class="edge">
<title>component/Dashboard/DashboardHeader/SelectRealTimeRangeArea.tsx&#45;&gt;component/Dashboard/DashboardHeader/RealTime.tsx</title>
<path fill="none" stroke="#757575" d="M1222.22,-578.35C1234.93,-574.55 1247.31,-569.92 1259,-564.32 1279.41,-554.54 1274.49,-537.88 1295,-528.32 1306.01,-523.19 1317.64,-518.99 1329.58,-515.58"/>
<polygon fill="#757575" stroke="#757575" points="1330.39,-518.99 1339.16,-513.06 1328.6,-512.22 1330.39,-518.99"/>
</g>
<!-- component/Dashboard/DashboardHeader/SelectRealTimeListItem.tsx -->
<g id="node23" class="node">
<title>component/Dashboard/DashboardHeader/SelectRealTimeListItem.tsx</title>
<path fill="none" stroke="#cfffac" d="M1747.33,-560.82C1747.33,-560.82 1302.67,-560.82 1302.67,-560.82 1298.83,-560.82 1295,-556.98 1295,-553.15 1295,-553.15 1295,-545.48 1295,-545.48 1295,-541.65 1298.83,-537.82 1302.67,-537.82 1302.67,-537.82 1747.33,-537.82 1747.33,-537.82 1751.17,-537.82 1755,-541.65 1755,-545.48 1755,-545.48 1755,-553.15 1755,-553.15 1755,-556.98 1751.17,-560.82 1747.33,-560.82"/>
<text text-anchor="middle" x="1525" y="-545.62" font-family="Arial" font-size="14.00" fill="#cfffac">component/Dashboard/DashboardHeader/SelectRealTimeListItem.tsx</text>
</g>
<!-- component/Dashboard/DashboardHeader/SelectRealTimeRangeArea.tsx&#45;&gt;component/Dashboard/DashboardHeader/SelectRealTimeListItem.tsx -->
<g id="edge20" class="edge">
<title>component/Dashboard/DashboardHeader/SelectRealTimeRangeArea.tsx&#45;&gt;component/Dashboard/DashboardHeader/SelectRealTimeListItem.tsx</title>
<path fill="none" stroke="#757575" d="M1167.12,-578.32C1229.39,-573.26 1302,-567.36 1365.41,-562.21"/>
<polygon fill="#757575" stroke="#757575" points="1365.54,-565.71 1375.22,-561.41 1364.97,-558.73 1365.54,-565.71"/>
</g>
<!-- store/DashboardProvider.tsx&#45;&gt;common/date.ts -->
<g id="edge54" class="edge">
<title>store/DashboardProvider.tsx&#45;&gt;common/date.ts</title>
<path fill="none" stroke="#757575" d="M1623.74,-467.32C1700.53,-467.32 1805.61,-467.32 1874.13,-467.32"/>
<polygon fill="#757575" stroke="#757575" points="1873.71,-470.82 1883.71,-467.32 1873.71,-463.82 1873.71,-470.82"/>
</g>
<!-- component/common/DatePicker/ListPicker.tsx -->
<g id="node31" class="node">
<title>component/common/DatePicker/ListPicker.tsx</title>
<path fill="none" stroke="#c6c5fe" d="M2091.33,-784.82C2091.33,-784.82 1798.67,-784.82 1798.67,-784.82 1794.83,-784.82 1791,-780.98 1791,-777.15 1791,-777.15 1791,-769.48 1791,-769.48 1791,-765.65 1794.83,-761.82 1798.67,-761.82 1798.67,-761.82 2091.33,-761.82 2091.33,-761.82 2095.17,-761.82 2099,-765.65 2099,-769.48 2099,-769.48 2099,-777.15 2099,-777.15 2099,-780.98 2095.17,-784.82 2091.33,-784.82"/>
<text text-anchor="middle" x="1945" y="-769.62" font-family="Arial" font-size="14.00" fill="#c6c5fe">component/common/DatePicker/ListPicker.tsx</text>
</g>
<!-- component/common/DatePicker.tsx&#45;&gt;component/common/DatePicker/ListPicker.tsx -->
<g id="edge46" class="edge">
<title>component/common/DatePicker.tsx&#45;&gt;component/common/DatePicker/ListPicker.tsx</title>
<path fill="none" stroke="#757575" d="M1646.34,-787.56C1687.81,-785.58 1734.99,-783.32 1779.37,-781.19"/>
<polygon fill="#757575" stroke="#757575" points="1779.26,-784.7 1789.08,-780.73 1778.92,-777.71 1779.26,-784.7"/>
</g>
<!-- types/datePicker.d.ts -->
<g id="node32" class="node">
<title>types/datePicker.d.ts</title>
<path fill="none" stroke="#cfffac" d="M2276.33,-804.82C2276.33,-804.82 2142.67,-804.82 2142.67,-804.82 2138.83,-804.82 2135,-800.98 2135,-797.15 2135,-797.15 2135,-789.48 2135,-789.48 2135,-785.65 2138.83,-781.82 2142.67,-781.82 2142.67,-781.82 2276.33,-781.82 2276.33,-781.82 2280.17,-781.82 2284,-785.65 2284,-789.48 2284,-789.48 2284,-797.15 2284,-797.15 2284,-800.98 2280.17,-804.82 2276.33,-804.82"/>
<text text-anchor="middle" x="2209.5" y="-789.62" font-family="Arial" font-size="14.00" fill="#cfffac">types/datePicker.d.ts</text>
</g>
<!-- component/common/DatePicker.tsx&#45;&gt;types/datePicker.d.ts -->
<g id="edge47" class="edge">
<title>component/common/DatePicker.tsx&#45;&gt;types/datePicker.d.ts</title>
<path fill="none" stroke="#757575" d="M1646.45,-793.32C1783.24,-793.32 2003,-793.32 2123.19,-793.32"/>
<polygon fill="#757575" stroke="#757575" points="2122.99,-796.82 2132.99,-793.32 2122.99,-789.82 2122.99,-796.82"/>
</g>
<!-- component/Widget.tsx -->
<g id="node24" class="node">
<title>component/Widget.tsx</title>
<path fill="none" stroke="#c6c5fe" d="M662.33,-291.82C662.33,-291.82 518.67,-291.82 518.67,-291.82 514.83,-291.82 511,-287.98 511,-284.15 511,-284.15 511,-276.48 511,-276.48 511,-272.65 514.83,-268.82 518.67,-268.82 518.67,-268.82 662.33,-268.82 662.33,-268.82 666.17,-268.82 670,-272.65 670,-276.48 670,-276.48 670,-284.15 670,-284.15 670,-287.98 666.17,-291.82 662.33,-291.82"/>
<text text-anchor="middle" x="590.5" y="-276.62" font-family="Arial" font-size="14.00" fill="#c6c5fe">component/Widget.tsx</text>
</g>
<!-- component/Widget.tsx&#45;&gt;api.ts -->
<g id="edge25" class="edge">
<title>component/Widget.tsx&#45;&gt;api.ts</title>
<path fill="none" stroke="#757575" d="M670.13,-272.93C762.17,-264.29 910.79,-250.34 979.91,-243.85"/>
<polygon fill="#757575" stroke="#757575" points="979.95,-247.36 989.58,-242.94 979.29,-240.39 979.95,-247.36"/>
</g>
<!-- component/Widget.tsx&#45;&gt;types/api.d.ts -->
<g id="edge33" class="edge">
<title>component/Widget.tsx&#45;&gt;types/api.d.ts</title>
<path fill="none" stroke="#757575" d="M618.63,-268.42C654.34,-253.48 719.46,-228.65 778,-219.32 989.11,-185.67 1045.39,-210.87 1259,-219.32 1329.03,-222.09 1409.22,-228.96 1462.88,-234.09"/>
<polygon fill="#757575" stroke="#757575" points="1462.45,-237.57 1472.75,-235.05 1463.13,-230.6 1462.45,-237.57"/>
</g>
<!-- component/Widget.tsx&#45;&gt;common/date.ts -->
<g id="edge26" class="edge">
<title>component/Widget.tsx&#45;&gt;common/date.ts</title>
<path fill="none" stroke="#757575" d="M670.22,-276.41C898.29,-266.11 1555.89,-243.83 1755,-318.32 1828.64,-345.87 1896.15,-413.43 1926.74,-447.29"/>
<polygon fill="#757575" stroke="#757575" points="1923.78,-449.22 1933.03,-454.37 1929.01,-444.57 1923.78,-449.22"/>
</g>
<!-- component/Widget.tsx&#45;&gt;common/widget.ts -->
<g id="edge27" class="edge">
<title>component/Widget.tsx&#45;&gt;common/widget.ts</title>
<path fill="none" stroke="#757575" d="M670.43,-286.5C703.64,-289.03 742.69,-291.93 778,-294.32 1022.34,-310.86 1311.91,-327.47 1447.19,-335.06"/>
<polygon fill="#757575" stroke="#757575" points="1446.93,-338.55 1457.11,-335.61 1447.32,-331.56 1446.93,-338.55"/>
</g>
<!-- component/Widget.tsx&#45;&gt;store/DashboardProvider.tsx -->
<g id="edge32" class="edge">
<title>component/Widget.tsx&#45;&gt;store/DashboardProvider.tsx</title>
<path fill="none" stroke="#757575" d="M602.78,-292.03C629.93,-319.33 702.26,-386.93 778,-414.32 993.25,-492.15 1265.79,-487.92 1414.65,-477.74"/>
<polygon fill="#757575" stroke="#757575" points="1414.8,-481.24 1424.52,-477.04 1414.3,-474.26 1414.8,-481.24"/>
</g>
<!-- component/Widget.tsx&#45;&gt;types/widget.d.ts -->
<g id="edge34" class="edge">
<title>component/Widget.tsx&#45;&gt;types/widget.d.ts</title>
<path fill="none" stroke="#757575" d="M607.96,-292.07C639.29,-313.69 710.39,-359.31 778,-378.32 903.29,-413.54 1290.15,-423.03 1451.82,-425.49"/>
<polygon fill="#757575" stroke="#757575" points="1451.51,-428.99 1461.56,-425.64 1451.61,-421.99 1451.51,-428.99"/>
</g>
<!-- component/Widget/WidgetModal.tsx -->
<g id="node25" class="node">
<title>component/Widget/WidgetModal.tsx</title>
<path fill="none" stroke="#c6c5fe" d="M1134.33,-369.82C1134.33,-369.82 902.67,-369.82 902.67,-369.82 898.83,-369.82 895,-365.98 895,-362.15 895,-362.15 895,-354.48 895,-354.48 895,-350.65 898.83,-346.82 902.67,-346.82 902.67,-346.82 1134.33,-346.82 1134.33,-346.82 1138.17,-346.82 1142,-350.65 1142,-354.48 1142,-354.48 1142,-362.15 1142,-362.15 1142,-365.98 1138.17,-369.82 1134.33,-369.82"/>
<text text-anchor="middle" x="1018.5" y="-354.62" font-family="Arial" font-size="14.00" fill="#c6c5fe">component/Widget/WidgetModal.tsx</text>
</g>
<!-- component/Widget.tsx&#45;&gt;component/Widget/WidgetModal.tsx -->
<g id="edge28" class="edge">
<title>component/Widget.tsx&#45;&gt;component/Widget/WidgetModal.tsx</title>
<path fill="none" stroke="#757575" d="M627.53,-292.26C664.79,-304.16 724.86,-322.1 778,-332.32 812,-338.86 849.06,-343.89 883.64,-347.7"/>
<polygon fill="#757575" stroke="#757575" points="882.96,-351.15 893.27,-348.73 883.7,-344.19 882.96,-351.15"/>
</g>
<!-- component/chart/BarChart.tsx -->
<g id="node26" class="node">
<title>component/chart/BarChart.tsx</title>
<path fill="none" stroke="#c6c5fe" d="M1112.33,-130.82C1112.33,-130.82 924.67,-130.82 924.67,-130.82 920.83,-130.82 917,-126.98 917,-123.15 917,-123.15 917,-115.48 917,-115.48 917,-111.65 920.83,-107.82 924.67,-107.82 924.67,-107.82 1112.33,-107.82 1112.33,-107.82 1116.17,-107.82 1120,-111.65 1120,-115.48 1120,-115.48 1120,-123.15 1120,-123.15 1120,-126.98 1116.17,-130.82 1112.33,-130.82"/>
<text text-anchor="middle" x="1018.5" y="-115.62" font-family="Arial" font-size="14.00" fill="#c6c5fe">component/chart/BarChart.tsx</text>
</g>
<!-- component/Widget.tsx&#45;&gt;component/chart/BarChart.tsx -->
<g id="edge29" class="edge">
<title>component/Widget.tsx&#45;&gt;component/chart/BarChart.tsx</title>
<path fill="none" stroke="#757575" d="M602.28,-268.47C628.86,-240.17 701.04,-168.76 778,-139.32 817.81,-124.09 863.98,-117.83 905.1,-115.81"/>
<polygon fill="#757575" stroke="#757575" points="905.19,-119.31 915.04,-115.41 904.91,-112.31 905.19,-119.31"/>
</g>
<!-- component/chart/InformaticsChart.tsx -->
<g id="node27" class="node">
<title>component/chart/InformaticsChart.tsx</title>
<path fill="none" stroke="#c6c5fe" d="M1136.83,-50.82C1136.83,-50.82 900.17,-50.82 900.17,-50.82 896.33,-50.82 892.5,-46.98 892.5,-43.15 892.5,-43.15 892.5,-35.48 892.5,-35.48 892.5,-31.65 896.33,-27.82 900.17,-27.82 900.17,-27.82 1136.83,-27.82 1136.83,-27.82 1140.67,-27.82 1144.5,-31.65 1144.5,-35.48 1144.5,-35.48 1144.5,-43.15 1144.5,-43.15 1144.5,-46.98 1140.67,-50.82 1136.83,-50.82"/>
<text text-anchor="middle" x="1018.5" y="-35.62" font-family="Arial" font-size="14.00" fill="#c6c5fe">component/chart/InformaticsChart.tsx</text>
</g>
<!-- component/Widget.tsx&#45;&gt;component/chart/InformaticsChart.tsx -->
<g id="edge30" class="edge">
<title>component/Widget.tsx&#45;&gt;component/chart/InformaticsChart.tsx</title>
<path fill="none" stroke="#757575" d="M600.04,-268.34C624.04,-235.61 695.75,-144.04 778,-98.32 817.86,-76.16 865.99,-62.23 908.63,-53.51"/>
<polygon fill="#757575" stroke="#757575" points="909.29,-56.95 918.43,-51.59 907.94,-50.08 909.29,-56.95"/>
</g>
<!-- component/chart/LineChart.tsx -->
<g id="node28" class="node">
<title>component/chart/LineChart.tsx</title>
<path fill="none" stroke="#c6c5fe" d="M1115.33,-171.82C1115.33,-171.82 921.67,-171.82 921.67,-171.82 917.83,-171.82 914,-167.98 914,-164.15 914,-164.15 914,-156.48 914,-156.48 914,-152.65 917.83,-148.82 921.67,-148.82 921.67,-148.82 1115.33,-148.82 1115.33,-148.82 1119.17,-148.82 1123,-152.65 1123,-156.48 1123,-156.48 1123,-164.15 1123,-164.15 1123,-167.98 1119.17,-171.82 1115.33,-171.82"/>
<text text-anchor="middle" x="1018.5" y="-156.62" font-family="Arial" font-size="14.00" fill="#c6c5fe">component/chart/LineChart.tsx</text>
</g>
<!-- component/Widget.tsx&#45;&gt;component/chart/LineChart.tsx -->
<g id="edge31" class="edge">
<title>component/Widget.tsx&#45;&gt;component/chart/LineChart.tsx</title>
<path fill="none" stroke="#757575" d="M609.63,-268.36C641.95,-247.72 712.28,-205.75 778,-186.32 817.6,-174.61 862.28,-168.06 902.23,-164.44"/>
<polygon fill="#757575" stroke="#757575" points="902.46,-167.93 912.13,-163.6 901.87,-160.96 902.46,-167.93"/>
</g>
<!-- component/Widget/WidgetModal.tsx&#45;&gt;common/widget.ts -->
<g id="edge35" class="edge">
<title>component/Widget/WidgetModal.tsx&#45;&gt;common/widget.ts</title>
<path fill="none" stroke="#757575" d="M1142.27,-353.69C1237.54,-350.11 1366.61,-345.25 1447.59,-342.2"/>
<polygon fill="#757575" stroke="#757575" points="1447.31,-345.71 1457.17,-341.83 1447.05,-338.71 1447.31,-345.71"/>
</g>
<!-- component/Widget/WidgetModal.tsx&#45;&gt;types/widget.d.ts -->
<g id="edge36" class="edge">
<title>component/Widget/WidgetModal.tsx&#45;&gt;types/widget.d.ts</title>
<path fill="none" stroke="#757575" d="M1140.56,-370.29C1178.52,-374.36 1220.55,-379.19 1259,-384.32 1324.52,-393.06 1398.83,-405.02 1452.05,-413.94"/>
<polygon fill="#757575" stroke="#757575" points="1451.14,-417.33 1461.58,-415.54 1452.3,-410.43 1451.14,-417.33"/>
</g>
<!-- component/chart/BarChart.tsx&#45;&gt;common/chart.ts -->
<g id="edge37" class="edge">
<title>component/chart/BarChart.tsx&#45;&gt;common/chart.ts</title>
<path fill="none" stroke="#757575" d="M1120.38,-119.32C1218.63,-119.32 1365.48,-119.32 1452.32,-119.32"/>
<polygon fill="#757575" stroke="#757575" points="1452.14,-122.82 1462.14,-119.32 1452.13,-115.82 1452.14,-122.82"/>
</g>
<!-- component/chart/BarChart.tsx&#45;&gt;types/chart.d.ts -->
<g id="edge39" class="edge">
<title>component/chart/BarChart.tsx&#45;&gt;types/chart.d.ts</title>
<path fill="none" stroke="#757575" d="M1120.18,-110.51C1172.32,-106.23 1237.04,-101.37 1295,-98.32 1507.43,-87.12 1759.35,-82.11 1877.09,-80.24"/>
<polygon fill="#757575" stroke="#757575" points="1876.95,-83.75 1886.89,-80.09 1876.84,-76.75 1876.95,-83.75"/>
</g>
<!-- hook/useResize.tsx -->
<g id="node29" class="node">
<title>hook/useResize.tsx</title>
<path fill="none" stroke="#cfffac" d="M1587.33,-171.82C1587.33,-171.82 1462.67,-171.82 1462.67,-171.82 1458.83,-171.82 1455,-167.98 1455,-164.15 1455,-164.15 1455,-156.48 1455,-156.48 1455,-152.65 1458.83,-148.82 1462.67,-148.82 1462.67,-148.82 1587.33,-148.82 1587.33,-148.82 1591.17,-148.82 1595,-152.65 1595,-156.48 1595,-156.48 1595,-164.15 1595,-164.15 1595,-167.98 1591.17,-171.82 1587.33,-171.82"/>
<text text-anchor="middle" x="1525" y="-156.62" font-family="Arial" font-size="14.00" fill="#cfffac">hook/useResize.tsx</text>
</g>
<!-- component/chart/BarChart.tsx&#45;&gt;hook/useResize.tsx -->
<g id="edge38" class="edge">
<title>component/chart/BarChart.tsx&#45;&gt;hook/useResize.tsx</title>
<path fill="none" stroke="#757575" d="M1120.38,-127.52C1215.42,-135.24 1355.95,-146.66 1443.64,-153.79"/>
<polygon fill="#757575" stroke="#757575" points="1443.09,-157.25 1453.35,-154.58 1443.66,-150.28 1443.09,-157.25"/>
</g>
<!-- component/chart/InformaticsChart.tsx&#45;&gt;types/chart.d.ts -->
<g id="edge41" class="edge">
<title>component/chart/InformaticsChart.tsx&#45;&gt;types/chart.d.ts</title>
<path fill="none" stroke="#757575" d="M1100.66,-27.33C1236.86,-9.35 1519.66,18.72 1755,-18.32 1808.94,-26.81 1868.47,-48.14 1906.03,-63.17"/>
<polygon fill="#757575" stroke="#757575" points="1904.51,-66.33 1915.09,-66.85 1907.14,-59.84 1904.51,-66.33"/>
</g>
<!-- component/chart/InformaticsChart/InforMaticsBox.tsx -->
<g id="node30" class="node">
<title>component/chart/InformaticsChart/InforMaticsBox.tsx</title>
<path fill="none" stroke="#c6c5fe" d="M1692.33,-50.82C1692.33,-50.82 1357.67,-50.82 1357.67,-50.82 1353.83,-50.82 1350,-46.98 1350,-43.15 1350,-43.15 1350,-35.48 1350,-35.48 1350,-31.65 1353.83,-27.82 1357.67,-27.82 1357.67,-27.82 1692.33,-27.82 1692.33,-27.82 1696.17,-27.82 1700,-31.65 1700,-35.48 1700,-35.48 1700,-43.15 1700,-43.15 1700,-46.98 1696.17,-50.82 1692.33,-50.82"/>
<text text-anchor="middle" x="1525" y="-35.62" font-family="Arial" font-size="14.00" fill="#c6c5fe">component/chart/InformaticsChart/InforMaticsBox.tsx</text>
</g>
<!-- component/chart/InformaticsChart.tsx&#45;&gt;component/chart/InformaticsChart/InforMaticsBox.tsx -->
<g id="edge40" class="edge">
<title>component/chart/InformaticsChart.tsx&#45;&gt;component/chart/InformaticsChart/InforMaticsBox.tsx</title>
<path fill="none" stroke="#757575" d="M1144.86,-39.32C1203.34,-39.32 1274.13,-39.32 1338.63,-39.32"/>
<polygon fill="#757575" stroke="#757575" points="1338.24,-42.82 1348.24,-39.32 1338.24,-35.82 1338.24,-42.82"/>
</g>
<!-- component/chart/LineChart.tsx&#45;&gt;common/chart.ts -->
<g id="edge43" class="edge">
<title>component/chart/LineChart.tsx&#45;&gt;common/chart.ts</title>
<path fill="none" stroke="#757575" d="M1123.42,-151.87C1221.6,-143.89 1366.26,-132.14 1452.23,-125.15"/>
<polygon fill="#757575" stroke="#757575" points="1452.51,-128.64 1462.19,-124.34 1451.94,-121.66 1452.51,-128.64"/>
</g>
<!-- component/chart/LineChart.tsx&#45;&gt;types/chart.d.ts -->
<g id="edge45" class="edge">
<title>component/chart/LineChart.tsx&#45;&gt;types/chart.d.ts</title>
<path fill="none" stroke="#757575" d="M1123.31,-170.01C1296.92,-185.06 1638.6,-209.47 1755,-180.32 1818.72,-164.36 1884.45,-122.37 1919.11,-97.84"/>
<polygon fill="#757575" stroke="#757575" points="1921.13,-100.7 1927.2,-92.02 1917.04,-95.02 1921.13,-100.7"/>
</g>
<!-- component/chart/LineChart.tsx&#45;&gt;hook/useResize.tsx -->
<g id="edge44" class="edge">
<title>component/chart/LineChart.tsx&#45;&gt;hook/useResize.tsx</title>
<path fill="none" stroke="#757575" d="M1123.42,-160.32C1218.25,-160.32 1356.44,-160.32 1443.22,-160.32"/>
<polygon fill="#757575" stroke="#757575" points="1443.08,-163.82 1453.08,-160.32 1443.08,-156.82 1443.08,-163.82"/>
</g>
<!-- component/chart/InformaticsChart/InforMaticsBox.tsx&#45;&gt;types/chart.d.ts -->
<g id="edge42" class="edge">
<title>component/chart/InformaticsChart/InforMaticsBox.tsx&#45;&gt;types/chart.d.ts</title>
<path fill="none" stroke="#757575" d="M1651.13,-51.29C1725.13,-58.37 1815.95,-67.06 1876.66,-72.87"/>
<polygon fill="#757575" stroke="#757575" points="1876.21,-76.35 1886.5,-73.82 1876.88,-69.38 1876.21,-76.35"/>
</g>
<!-- component/common/DatePicker/ListPicker.tsx&#45;&gt;types/datePicker.d.ts -->
<g id="edge48" class="edge">
<title>component/common/DatePicker/ListPicker.tsx&#45;&gt;types/datePicker.d.ts</title>
<path fill="none" stroke="#757575" d="M2099.46,-785.01C2107.5,-785.62 2115.44,-786.23 2123.13,-786.81"/>
<polygon fill="#757575" stroke="#757575" points="2122.85,-790.3 2133.09,-787.57 2123.38,-783.32 2122.85,-790.3"/>
</g>
<!-- page/Dashboard.tsx&#45;&gt;component/Dashboard/DashboardHeader.tsx -->
<g id="edge49" class="edge">
<title>page/Dashboard.tsx&#45;&gt;component/Dashboard/DashboardHeader.tsx</title>
<path fill="none" stroke="#757575" d="M353.95,-505.08C399.45,-529.46 504.19,-585.6 557.33,-614.08"/>
<polygon fill="#757575" stroke="#757575" points="555.43,-617.03 565.9,-618.67 558.74,-610.86 555.43,-617.03"/>
</g>
<!-- page/Dashboard.tsx&#45;&gt;store/DashboardProvider.tsx -->
<g id="edge51" class="edge">
<title>page/Dashboard.tsx&#45;&gt;store/DashboardProvider.tsx</title>
<path fill="none" stroke="#757575" d="M403.28,-494.72C558.76,-497.39 940.02,-501.8 1259,-488.32 1310.33,-486.15 1367.13,-481.89 1414.94,-477.78"/>
<polygon fill="#757575" stroke="#757575" points="1415.09,-481.28 1424.75,-476.92 1414.48,-474.31 1415.09,-481.28"/>
</g>
<!-- page/Dashboard.tsx&#45;&gt;types/widget.d.ts -->
<g id="edge52" class="edge">
<title>page/Dashboard.tsx&#45;&gt;types/widget.d.ts</title>
<path fill="none" stroke="#757575" d="M403.44,-489.3C615.39,-477.39 1239.15,-442.33 1451.93,-430.37"/>
<polygon fill="#757575" stroke="#757575" points="1451.95,-433.87 1461.74,-429.82 1451.56,-426.88 1451.95,-433.87"/>
</g>
<!-- page/Dashboard.tsx&#45;&gt;component/Widget.tsx -->
<g id="edge50" class="edge">
<title>page/Dashboard.tsx&#45;&gt;component/Widget.tsx</title>
<path fill="none" stroke="#757575" d="M346.21,-481.56C388.58,-446.51 514.32,-342.5 566.46,-299.38"/>
<polygon fill="#757575" stroke="#757575" points="568.37,-302.33 573.85,-293.26 563.91,-296.94 568.37,-302.33"/>
</g>
</g>
</svg>
